G04 #@! TF.GenerationSoftware,KiCad,Pcbnew,(5.1.2-1)-1*
G04 #@! TF.CreationDate,2019-11-08T10:29:16-05:00*
G04 #@! TF.ProjectId,flow_rate,666c6f77-5f72-4617-9465-2e6b69636164,rev?*
G04 #@! TF.SameCoordinates,Original*
G04 #@! TF.FileFunction,Paste,Top*
G04 #@! TF.FilePolarity,Positive*
%FSLAX46Y46*%
G04 Gerber Fmt 4.6, Leading zero omitted, Abs format (unit mm)*
G04 Created by KiCad (PCBNEW (5.1.2-1)-1) date 2019-11-08 10:29:16*
%MOMM*%
%LPD*%
G04 APERTURE LIST*
%ADD10C,0.100000*%
%ADD11C,0.975000*%
G04 APERTURE END LIST*
D10*
G36*
X188052142Y-40449174D02*
G01*
X188075803Y-40452684D01*
X188099007Y-40458496D01*
X188121529Y-40466554D01*
X188143153Y-40476782D01*
X188163670Y-40489079D01*
X188182883Y-40503329D01*
X188200607Y-40519393D01*
X188216671Y-40537117D01*
X188230921Y-40556330D01*
X188243218Y-40576847D01*
X188253446Y-40598471D01*
X188261504Y-40620993D01*
X188267316Y-40644197D01*
X188270826Y-40667858D01*
X188272000Y-40691750D01*
X188272000Y-41604250D01*
X188270826Y-41628142D01*
X188267316Y-41651803D01*
X188261504Y-41675007D01*
X188253446Y-41697529D01*
X188243218Y-41719153D01*
X188230921Y-41739670D01*
X188216671Y-41758883D01*
X188200607Y-41776607D01*
X188182883Y-41792671D01*
X188163670Y-41806921D01*
X188143153Y-41819218D01*
X188121529Y-41829446D01*
X188099007Y-41837504D01*
X188075803Y-41843316D01*
X188052142Y-41846826D01*
X188028250Y-41848000D01*
X187540750Y-41848000D01*
X187516858Y-41846826D01*
X187493197Y-41843316D01*
X187469993Y-41837504D01*
X187447471Y-41829446D01*
X187425847Y-41819218D01*
X187405330Y-41806921D01*
X187386117Y-41792671D01*
X187368393Y-41776607D01*
X187352329Y-41758883D01*
X187338079Y-41739670D01*
X187325782Y-41719153D01*
X187315554Y-41697529D01*
X187307496Y-41675007D01*
X187301684Y-41651803D01*
X187298174Y-41628142D01*
X187297000Y-41604250D01*
X187297000Y-40691750D01*
X187298174Y-40667858D01*
X187301684Y-40644197D01*
X187307496Y-40620993D01*
X187315554Y-40598471D01*
X187325782Y-40576847D01*
X187338079Y-40556330D01*
X187352329Y-40537117D01*
X187368393Y-40519393D01*
X187386117Y-40503329D01*
X187405330Y-40489079D01*
X187425847Y-40476782D01*
X187447471Y-40466554D01*
X187469993Y-40458496D01*
X187493197Y-40452684D01*
X187516858Y-40449174D01*
X187540750Y-40448000D01*
X188028250Y-40448000D01*
X188052142Y-40449174D01*
X188052142Y-40449174D01*
G37*
D11*
X187784500Y-41148000D03*
D10*
G36*
X189927142Y-40449174D02*
G01*
X189950803Y-40452684D01*
X189974007Y-40458496D01*
X189996529Y-40466554D01*
X190018153Y-40476782D01*
X190038670Y-40489079D01*
X190057883Y-40503329D01*
X190075607Y-40519393D01*
X190091671Y-40537117D01*
X190105921Y-40556330D01*
X190118218Y-40576847D01*
X190128446Y-40598471D01*
X190136504Y-40620993D01*
X190142316Y-40644197D01*
X190145826Y-40667858D01*
X190147000Y-40691750D01*
X190147000Y-41604250D01*
X190145826Y-41628142D01*
X190142316Y-41651803D01*
X190136504Y-41675007D01*
X190128446Y-41697529D01*
X190118218Y-41719153D01*
X190105921Y-41739670D01*
X190091671Y-41758883D01*
X190075607Y-41776607D01*
X190057883Y-41792671D01*
X190038670Y-41806921D01*
X190018153Y-41819218D01*
X189996529Y-41829446D01*
X189974007Y-41837504D01*
X189950803Y-41843316D01*
X189927142Y-41846826D01*
X189903250Y-41848000D01*
X189415750Y-41848000D01*
X189391858Y-41846826D01*
X189368197Y-41843316D01*
X189344993Y-41837504D01*
X189322471Y-41829446D01*
X189300847Y-41819218D01*
X189280330Y-41806921D01*
X189261117Y-41792671D01*
X189243393Y-41776607D01*
X189227329Y-41758883D01*
X189213079Y-41739670D01*
X189200782Y-41719153D01*
X189190554Y-41697529D01*
X189182496Y-41675007D01*
X189176684Y-41651803D01*
X189173174Y-41628142D01*
X189172000Y-41604250D01*
X189172000Y-40691750D01*
X189173174Y-40667858D01*
X189176684Y-40644197D01*
X189182496Y-40620993D01*
X189190554Y-40598471D01*
X189200782Y-40576847D01*
X189213079Y-40556330D01*
X189227329Y-40537117D01*
X189243393Y-40519393D01*
X189261117Y-40503329D01*
X189280330Y-40489079D01*
X189300847Y-40476782D01*
X189322471Y-40466554D01*
X189344993Y-40458496D01*
X189368197Y-40452684D01*
X189391858Y-40449174D01*
X189415750Y-40448000D01*
X189903250Y-40448000D01*
X189927142Y-40449174D01*
X189927142Y-40449174D01*
G37*
D11*
X189659500Y-41148000D03*
D10*
G36*
X178052142Y-40449174D02*
G01*
X178075803Y-40452684D01*
X178099007Y-40458496D01*
X178121529Y-40466554D01*
X178143153Y-40476782D01*
X178163670Y-40489079D01*
X178182883Y-40503329D01*
X178200607Y-40519393D01*
X178216671Y-40537117D01*
X178230921Y-40556330D01*
X178243218Y-40576847D01*
X178253446Y-40598471D01*
X178261504Y-40620993D01*
X178267316Y-40644197D01*
X178270826Y-40667858D01*
X178272000Y-40691750D01*
X178272000Y-41604250D01*
X178270826Y-41628142D01*
X178267316Y-41651803D01*
X178261504Y-41675007D01*
X178253446Y-41697529D01*
X178243218Y-41719153D01*
X178230921Y-41739670D01*
X178216671Y-41758883D01*
X178200607Y-41776607D01*
X178182883Y-41792671D01*
X178163670Y-41806921D01*
X178143153Y-41819218D01*
X178121529Y-41829446D01*
X178099007Y-41837504D01*
X178075803Y-41843316D01*
X178052142Y-41846826D01*
X178028250Y-41848000D01*
X177540750Y-41848000D01*
X177516858Y-41846826D01*
X177493197Y-41843316D01*
X177469993Y-41837504D01*
X177447471Y-41829446D01*
X177425847Y-41819218D01*
X177405330Y-41806921D01*
X177386117Y-41792671D01*
X177368393Y-41776607D01*
X177352329Y-41758883D01*
X177338079Y-41739670D01*
X177325782Y-41719153D01*
X177315554Y-41697529D01*
X177307496Y-41675007D01*
X177301684Y-41651803D01*
X177298174Y-41628142D01*
X177297000Y-41604250D01*
X177297000Y-40691750D01*
X177298174Y-40667858D01*
X177301684Y-40644197D01*
X177307496Y-40620993D01*
X177315554Y-40598471D01*
X177325782Y-40576847D01*
X177338079Y-40556330D01*
X177352329Y-40537117D01*
X177368393Y-40519393D01*
X177386117Y-40503329D01*
X177405330Y-40489079D01*
X177425847Y-40476782D01*
X177447471Y-40466554D01*
X177469993Y-40458496D01*
X177493197Y-40452684D01*
X177516858Y-40449174D01*
X177540750Y-40448000D01*
X178028250Y-40448000D01*
X178052142Y-40449174D01*
X178052142Y-40449174D01*
G37*
D11*
X177784500Y-41148000D03*
D10*
G36*
X179927142Y-40449174D02*
G01*
X179950803Y-40452684D01*
X179974007Y-40458496D01*
X179996529Y-40466554D01*
X180018153Y-40476782D01*
X180038670Y-40489079D01*
X180057883Y-40503329D01*
X180075607Y-40519393D01*
X180091671Y-40537117D01*
X180105921Y-40556330D01*
X180118218Y-40576847D01*
X180128446Y-40598471D01*
X180136504Y-40620993D01*
X180142316Y-40644197D01*
X180145826Y-40667858D01*
X180147000Y-40691750D01*
X180147000Y-41604250D01*
X180145826Y-41628142D01*
X180142316Y-41651803D01*
X180136504Y-41675007D01*
X180128446Y-41697529D01*
X180118218Y-41719153D01*
X180105921Y-41739670D01*
X180091671Y-41758883D01*
X180075607Y-41776607D01*
X180057883Y-41792671D01*
X180038670Y-41806921D01*
X180018153Y-41819218D01*
X179996529Y-41829446D01*
X179974007Y-41837504D01*
X179950803Y-41843316D01*
X179927142Y-41846826D01*
X179903250Y-41848000D01*
X179415750Y-41848000D01*
X179391858Y-41846826D01*
X179368197Y-41843316D01*
X179344993Y-41837504D01*
X179322471Y-41829446D01*
X179300847Y-41819218D01*
X179280330Y-41806921D01*
X179261117Y-41792671D01*
X179243393Y-41776607D01*
X179227329Y-41758883D01*
X179213079Y-41739670D01*
X179200782Y-41719153D01*
X179190554Y-41697529D01*
X179182496Y-41675007D01*
X179176684Y-41651803D01*
X179173174Y-41628142D01*
X179172000Y-41604250D01*
X179172000Y-40691750D01*
X179173174Y-40667858D01*
X179176684Y-40644197D01*
X179182496Y-40620993D01*
X179190554Y-40598471D01*
X179200782Y-40576847D01*
X179213079Y-40556330D01*
X179227329Y-40537117D01*
X179243393Y-40519393D01*
X179261117Y-40503329D01*
X179280330Y-40489079D01*
X179300847Y-40476782D01*
X179322471Y-40466554D01*
X179344993Y-40458496D01*
X179368197Y-40452684D01*
X179391858Y-40449174D01*
X179415750Y-40448000D01*
X179903250Y-40448000D01*
X179927142Y-40449174D01*
X179927142Y-40449174D01*
G37*
D11*
X179659500Y-41148000D03*
M02*
