G04 #@! TF.GenerationSoftware,KiCad,Pcbnew,(5.1.2-1)-1*
G04 #@! TF.CreationDate,2019-11-08T10:29:16-05:00*
G04 #@! TF.ProjectId,flow_rate,666c6f77-5f72-4617-9465-2e6b69636164,rev?*
G04 #@! TF.SameCoordinates,Original*
G04 #@! TF.FileFunction,Legend,Top*
G04 #@! TF.FilePolarity,Positive*
%FSLAX46Y46*%
G04 Gerber Fmt 4.6, Leading zero omitted, Abs format (unit mm)*
G04 Created by KiCad (PCBNEW (5.1.2-1)-1) date 2019-11-08 10:29:16*
%MOMM*%
%LPD*%
G04 APERTURE LIST*
%ADD10C,0.150000*%
%ADD11C,0.120000*%
G04 APERTURE END LIST*
D10*
X175863333Y-45221380D02*
X175863333Y-44221380D01*
X176434761Y-45221380D02*
X176006190Y-44649952D01*
X176434761Y-44221380D02*
X175863333Y-44792809D01*
X177339523Y-45221380D02*
X176863333Y-45221380D01*
X176863333Y-44221380D01*
X175672857Y-45871380D02*
X176339523Y-45871380D01*
X175672857Y-46871380D01*
X176339523Y-46871380D01*
X176720476Y-46871380D02*
X176720476Y-45871380D01*
X176720476Y-46347571D02*
X177291904Y-46347571D01*
X177291904Y-46871380D02*
X177291904Y-45871380D01*
X175434761Y-47997571D02*
X175101428Y-47997571D01*
X175101428Y-48521380D02*
X175101428Y-47521380D01*
X175577619Y-47521380D01*
X176101428Y-48521380D02*
X176006190Y-48473761D01*
X175958571Y-48378523D01*
X175958571Y-47521380D01*
X176625238Y-48521380D02*
X176530000Y-48473761D01*
X176482380Y-48426142D01*
X176434761Y-48330904D01*
X176434761Y-48045190D01*
X176482380Y-47949952D01*
X176530000Y-47902333D01*
X176625238Y-47854714D01*
X176768095Y-47854714D01*
X176863333Y-47902333D01*
X176910952Y-47949952D01*
X176958571Y-48045190D01*
X176958571Y-48330904D01*
X176910952Y-48426142D01*
X176863333Y-48473761D01*
X176768095Y-48521380D01*
X176625238Y-48521380D01*
X177291904Y-47854714D02*
X177482380Y-48521380D01*
X177672857Y-48045190D01*
X177863333Y-48521380D01*
X178053809Y-47854714D01*
X174863333Y-50171380D02*
X174291904Y-50171380D01*
X174577619Y-50171380D02*
X174577619Y-49171380D01*
X174482380Y-49314238D01*
X174387142Y-49409476D01*
X174291904Y-49457095D01*
X175815714Y-50171380D02*
X175244285Y-50171380D01*
X175530000Y-50171380D02*
X175530000Y-49171380D01*
X175434761Y-49314238D01*
X175339523Y-49409476D01*
X175244285Y-49457095D01*
X176958571Y-49123761D02*
X176101428Y-50409476D01*
X177815714Y-50171380D02*
X177244285Y-50171380D01*
X177530000Y-50171380D02*
X177530000Y-49171380D01*
X177434761Y-49314238D01*
X177339523Y-49409476D01*
X177244285Y-49457095D01*
X178291904Y-50171380D02*
X178482380Y-50171380D01*
X178577619Y-50123761D01*
X178625238Y-50076142D01*
X178720476Y-49933285D01*
X178768095Y-49742809D01*
X178768095Y-49361857D01*
X178720476Y-49266619D01*
X178672857Y-49219000D01*
X178577619Y-49171380D01*
X178387142Y-49171380D01*
X178291904Y-49219000D01*
X178244285Y-49266619D01*
X178196666Y-49361857D01*
X178196666Y-49599952D01*
X178244285Y-49695190D01*
X178291904Y-49742809D01*
X178387142Y-49790428D01*
X178577619Y-49790428D01*
X178672857Y-49742809D01*
X178720476Y-49695190D01*
X178768095Y-49599952D01*
D11*
X190407000Y-40188000D02*
X187722000Y-40188000D01*
X190407000Y-42108000D02*
X190407000Y-40188000D01*
X187722000Y-42108000D02*
X190407000Y-42108000D01*
X179722000Y-40188000D02*
X177037000Y-40188000D01*
X177037000Y-40188000D02*
X177037000Y-42108000D01*
X177037000Y-42108000D02*
X179722000Y-42108000D01*
X177272000Y-51642000D02*
X177272000Y-57612000D01*
X177272000Y-57612000D02*
X189892000Y-57612000D01*
X189892000Y-57612000D02*
X189892000Y-51642000D01*
X189892000Y-51642000D02*
X177272000Y-51642000D01*
X180582000Y-51652000D02*
X180582000Y-52402000D01*
X180582000Y-52402000D02*
X186582000Y-52402000D01*
X186582000Y-52402000D02*
X186582000Y-51652000D01*
X186582000Y-51652000D02*
X180582000Y-51652000D01*
X177282000Y-51652000D02*
X177282000Y-52402000D01*
X177282000Y-52402000D02*
X179082000Y-52402000D01*
X179082000Y-52402000D02*
X179082000Y-51652000D01*
X179082000Y-51652000D02*
X177282000Y-51652000D01*
X188082000Y-51652000D02*
X188082000Y-52402000D01*
X188082000Y-52402000D02*
X189882000Y-52402000D01*
X189882000Y-52402000D02*
X189882000Y-51652000D01*
X189882000Y-51652000D02*
X188082000Y-51652000D01*
X177282000Y-53902000D02*
X178032000Y-53902000D01*
X178032000Y-53902000D02*
X178032000Y-56852000D01*
X178032000Y-56852000D02*
X183582000Y-56852000D01*
X189882000Y-53902000D02*
X189132000Y-53902000D01*
X189132000Y-53902000D02*
X189132000Y-56852000D01*
X189132000Y-56852000D02*
X183582000Y-56852000D01*
X178232000Y-51352000D02*
X176982000Y-51352000D01*
X176982000Y-51352000D02*
X176982000Y-52602000D01*
X185988000Y-48320000D02*
X185988000Y-45660000D01*
X183388000Y-48320000D02*
X185988000Y-48320000D01*
X183388000Y-45660000D02*
X185988000Y-45660000D01*
X183388000Y-48320000D02*
X183388000Y-45660000D01*
X182118000Y-48320000D02*
X180788000Y-48320000D01*
X180788000Y-48320000D02*
X180788000Y-46990000D01*
D10*
X191262095Y-39822380D02*
X191262095Y-38822380D01*
X191262095Y-39298571D02*
X191833523Y-39298571D01*
X191833523Y-39822380D02*
X191833523Y-38822380D01*
X192214476Y-38822380D02*
X192833523Y-38822380D01*
X192500190Y-39203333D01*
X192643047Y-39203333D01*
X192738285Y-39250952D01*
X192785904Y-39298571D01*
X192833523Y-39393809D01*
X192833523Y-39631904D01*
X192785904Y-39727142D01*
X192738285Y-39774761D01*
X192643047Y-39822380D01*
X192357333Y-39822380D01*
X192262095Y-39774761D01*
X192214476Y-39727142D01*
X173990095Y-39568380D02*
X173990095Y-38568380D01*
X173990095Y-39044571D02*
X174561523Y-39044571D01*
X174561523Y-39568380D02*
X174561523Y-38568380D01*
X175466285Y-38901714D02*
X175466285Y-39568380D01*
X175228190Y-38520761D02*
X174990095Y-39235047D01*
X175609142Y-39235047D01*
X190777904Y-41854380D02*
X190777904Y-40854380D01*
X191016000Y-40854380D01*
X191158857Y-40902000D01*
X191254095Y-40997238D01*
X191301714Y-41092476D01*
X191349333Y-41282952D01*
X191349333Y-41425809D01*
X191301714Y-41616285D01*
X191254095Y-41711523D01*
X191158857Y-41806761D01*
X191016000Y-41854380D01*
X190777904Y-41854380D01*
X192301714Y-41854380D02*
X191730285Y-41854380D01*
X192016000Y-41854380D02*
X192016000Y-40854380D01*
X191920761Y-40997238D01*
X191825523Y-41092476D01*
X191730285Y-41140095D01*
X175283904Y-41854380D02*
X175283904Y-40854380D01*
X175522000Y-40854380D01*
X175664857Y-40902000D01*
X175760095Y-40997238D01*
X175807714Y-41092476D01*
X175855333Y-41282952D01*
X175855333Y-41425809D01*
X175807714Y-41616285D01*
X175760095Y-41711523D01*
X175664857Y-41806761D01*
X175522000Y-41854380D01*
X175283904Y-41854380D01*
X176236285Y-40949619D02*
X176283904Y-40902000D01*
X176379142Y-40854380D01*
X176617238Y-40854380D01*
X176712476Y-40902000D01*
X176760095Y-40949619D01*
X176807714Y-41044857D01*
X176807714Y-41140095D01*
X176760095Y-41282952D01*
X176188666Y-41854380D01*
X176807714Y-41854380D01*
X182843904Y-51004380D02*
X182843904Y-50004380D01*
X183224857Y-50004380D01*
X183320095Y-50052000D01*
X183367714Y-50099619D01*
X183415333Y-50194857D01*
X183415333Y-50337714D01*
X183367714Y-50432952D01*
X183320095Y-50480571D01*
X183224857Y-50528190D01*
X182843904Y-50528190D01*
X184367714Y-51004380D02*
X183796285Y-51004380D01*
X184082000Y-51004380D02*
X184082000Y-50004380D01*
X183986761Y-50147238D01*
X183891523Y-50242476D01*
X183796285Y-50290095D01*
X180240380Y-47728095D02*
X179240380Y-47728095D01*
X179240380Y-47347142D01*
X179288000Y-47251904D01*
X179335619Y-47204285D01*
X179430857Y-47156666D01*
X179573714Y-47156666D01*
X179668952Y-47204285D01*
X179716571Y-47251904D01*
X179764190Y-47347142D01*
X179764190Y-47728095D01*
X179335619Y-46775714D02*
X179288000Y-46728095D01*
X179240380Y-46632857D01*
X179240380Y-46394761D01*
X179288000Y-46299523D01*
X179335619Y-46251904D01*
X179430857Y-46204285D01*
X179526095Y-46204285D01*
X179668952Y-46251904D01*
X180240380Y-46823333D01*
X180240380Y-46204285D01*
M02*
