G04 #@! TF.GenerationSoftware,KiCad,Pcbnew,(5.1.8-0-10_14)*
G04 #@! TF.CreationDate,2020-12-29T19:16:56-08:00*
G04 #@! TF.ProjectId,ADC,4144432e-6b69-4636-9164-5f7063625858,rev?*
G04 #@! TF.SameCoordinates,Original*
G04 #@! TF.FileFunction,Legend,Top*
G04 #@! TF.FilePolarity,Positive*
%FSLAX46Y46*%
G04 Gerber Fmt 4.6, Leading zero omitted, Abs format (unit mm)*
G04 Created by KiCad (PCBNEW (5.1.8-0-10_14)) date 2020-12-29 19:16:56*
%MOMM*%
%LPD*%
G01*
G04 APERTURE LIST*
%ADD10C,0.100000*%
%ADD11C,0.203200*%
%ADD12C,0.150000*%
%ADD13C,0.127000*%
G04 APERTURE END LIST*
D10*
X116569000Y-76833000D02*
X116926142Y-76833000D01*
X116497571Y-77047285D02*
X116747571Y-76297285D01*
X116997571Y-77047285D01*
X117247571Y-77047285D02*
X117247571Y-76297285D01*
X117426142Y-76297285D01*
X117533285Y-76333000D01*
X117604714Y-76404428D01*
X117640428Y-76475857D01*
X117676142Y-76618714D01*
X117676142Y-76725857D01*
X117640428Y-76868714D01*
X117604714Y-76940142D01*
X117533285Y-77011571D01*
X117426142Y-77047285D01*
X117247571Y-77047285D01*
X118426142Y-76975857D02*
X118390428Y-77011571D01*
X118283285Y-77047285D01*
X118211857Y-77047285D01*
X118104714Y-77011571D01*
X118033285Y-76940142D01*
X117997571Y-76868714D01*
X117961857Y-76725857D01*
X117961857Y-76618714D01*
X117997571Y-76475857D01*
X118033285Y-76404428D01*
X118104714Y-76333000D01*
X118211857Y-76297285D01*
X118283285Y-76297285D01*
X118390428Y-76333000D01*
X118426142Y-76368714D01*
X119569000Y-76654428D02*
X119676142Y-76690142D01*
X119711857Y-76725857D01*
X119747571Y-76797285D01*
X119747571Y-76904428D01*
X119711857Y-76975857D01*
X119676142Y-77011571D01*
X119604714Y-77047285D01*
X119319000Y-77047285D01*
X119319000Y-76297285D01*
X119569000Y-76297285D01*
X119640428Y-76333000D01*
X119676142Y-76368714D01*
X119711857Y-76440142D01*
X119711857Y-76511571D01*
X119676142Y-76583000D01*
X119640428Y-76618714D01*
X119569000Y-76654428D01*
X119319000Y-76654428D01*
X120176142Y-77047285D02*
X120104714Y-77011571D01*
X120069000Y-76975857D01*
X120033285Y-76904428D01*
X120033285Y-76690142D01*
X120069000Y-76618714D01*
X120104714Y-76583000D01*
X120176142Y-76547285D01*
X120283285Y-76547285D01*
X120354714Y-76583000D01*
X120390428Y-76618714D01*
X120426142Y-76690142D01*
X120426142Y-76904428D01*
X120390428Y-76975857D01*
X120354714Y-77011571D01*
X120283285Y-77047285D01*
X120176142Y-77047285D01*
X121069000Y-77047285D02*
X121069000Y-76654428D01*
X121033285Y-76583000D01*
X120961857Y-76547285D01*
X120819000Y-76547285D01*
X120747571Y-76583000D01*
X121069000Y-77011571D02*
X120997571Y-77047285D01*
X120819000Y-77047285D01*
X120747571Y-77011571D01*
X120711857Y-76940142D01*
X120711857Y-76868714D01*
X120747571Y-76797285D01*
X120819000Y-76761571D01*
X120997571Y-76761571D01*
X121069000Y-76725857D01*
X121426142Y-77047285D02*
X121426142Y-76547285D01*
X121426142Y-76690142D02*
X121461857Y-76618714D01*
X121497571Y-76583000D01*
X121569000Y-76547285D01*
X121640428Y-76547285D01*
X122211857Y-77047285D02*
X122211857Y-76297285D01*
X122211857Y-77011571D02*
X122140428Y-77047285D01*
X121997571Y-77047285D01*
X121926142Y-77011571D01*
X121890428Y-76975857D01*
X121854714Y-76904428D01*
X121854714Y-76690142D01*
X121890428Y-76618714D01*
X121926142Y-76583000D01*
X121997571Y-76547285D01*
X122140428Y-76547285D01*
X122211857Y-76583000D01*
X123569000Y-77047285D02*
X123319000Y-76690142D01*
X123140428Y-77047285D02*
X123140428Y-76297285D01*
X123426142Y-76297285D01*
X123497571Y-76333000D01*
X123533285Y-76368714D01*
X123569000Y-76440142D01*
X123569000Y-76547285D01*
X123533285Y-76618714D01*
X123497571Y-76654428D01*
X123426142Y-76690142D01*
X123140428Y-76690142D01*
X124176142Y-77011571D02*
X124104714Y-77047285D01*
X123961857Y-77047285D01*
X123890428Y-77011571D01*
X123854714Y-76940142D01*
X123854714Y-76654428D01*
X123890428Y-76583000D01*
X123961857Y-76547285D01*
X124104714Y-76547285D01*
X124176142Y-76583000D01*
X124211857Y-76654428D01*
X124211857Y-76725857D01*
X123854714Y-76797285D01*
X124461857Y-76547285D02*
X124640428Y-77047285D01*
X124819000Y-76547285D01*
X126104714Y-76975857D02*
X126069000Y-77011571D01*
X125961857Y-77047285D01*
X125890428Y-77047285D01*
X125783285Y-77011571D01*
X125711857Y-76940142D01*
X125676142Y-76868714D01*
X125640428Y-76725857D01*
X125640428Y-76618714D01*
X125676142Y-76475857D01*
X125711857Y-76404428D01*
X125783285Y-76333000D01*
X125890428Y-76297285D01*
X125961857Y-76297285D01*
X126069000Y-76333000D01*
X126104714Y-76368714D01*
X127390428Y-77047285D02*
X126961857Y-77047285D01*
X127176142Y-77047285D02*
X127176142Y-76297285D01*
X127104714Y-76404428D01*
X127033285Y-76475857D01*
X126961857Y-76511571D01*
X127854714Y-76297285D02*
X127926142Y-76297285D01*
X127997571Y-76333000D01*
X128033285Y-76368714D01*
X128069000Y-76440142D01*
X128104714Y-76583000D01*
X128104714Y-76761571D01*
X128069000Y-76904428D01*
X128033285Y-76975857D01*
X127997571Y-77011571D01*
X127926142Y-77047285D01*
X127854714Y-77047285D01*
X127783285Y-77011571D01*
X127747571Y-76975857D01*
X127711857Y-76904428D01*
X127676142Y-76761571D01*
X127676142Y-76583000D01*
X127711857Y-76440142D01*
X127747571Y-76368714D01*
X127783285Y-76333000D01*
X127854714Y-76297285D01*
X128961857Y-76261571D02*
X128319000Y-77225857D01*
X129604714Y-77047285D02*
X129176142Y-77047285D01*
X129390428Y-77047285D02*
X129390428Y-76297285D01*
X129319000Y-76404428D01*
X129247571Y-76475857D01*
X129176142Y-76511571D01*
X129961857Y-77047285D02*
X130104714Y-77047285D01*
X130176142Y-77011571D01*
X130211857Y-76975857D01*
X130283285Y-76868714D01*
X130319000Y-76725857D01*
X130319000Y-76440142D01*
X130283285Y-76368714D01*
X130247571Y-76333000D01*
X130176142Y-76297285D01*
X130033285Y-76297285D01*
X129961857Y-76333000D01*
X129926142Y-76368714D01*
X129890428Y-76440142D01*
X129890428Y-76618714D01*
X129926142Y-76690142D01*
X129961857Y-76725857D01*
X130033285Y-76761571D01*
X130176142Y-76761571D01*
X130247571Y-76725857D01*
X130283285Y-76690142D01*
X130319000Y-76618714D01*
D11*
X113908285Y-74585285D02*
X113408285Y-74585285D01*
X113408285Y-75250523D02*
X113408285Y-73980523D01*
X114122571Y-73980523D01*
X114551142Y-74403857D02*
X114908285Y-75250523D01*
X115265428Y-74403857D02*
X114908285Y-75250523D01*
X114765428Y-75552904D01*
X114694000Y-75613380D01*
X114551142Y-75673857D01*
X115836857Y-74403857D02*
X115836857Y-75250523D01*
X115836857Y-74524809D02*
X115908285Y-74464333D01*
X116051142Y-74403857D01*
X116265428Y-74403857D01*
X116408285Y-74464333D01*
X116479714Y-74585285D01*
X116479714Y-75250523D01*
X117836857Y-75190047D02*
X117694000Y-75250523D01*
X117408285Y-75250523D01*
X117265428Y-75190047D01*
X117194000Y-75129571D01*
X117122571Y-75008619D01*
X117122571Y-74645761D01*
X117194000Y-74524809D01*
X117265428Y-74464333D01*
X117408285Y-74403857D01*
X117694000Y-74403857D01*
X117836857Y-74464333D01*
X118479714Y-75250523D02*
X118479714Y-73980523D01*
X119122571Y-75250523D02*
X119122571Y-74585285D01*
X119051142Y-74464333D01*
X118908285Y-74403857D01*
X118694000Y-74403857D01*
X118551142Y-74464333D01*
X118479714Y-74524809D01*
X121479714Y-74585285D02*
X121694000Y-74645761D01*
X121765428Y-74706238D01*
X121836857Y-74827190D01*
X121836857Y-75008619D01*
X121765428Y-75129571D01*
X121694000Y-75190047D01*
X121551142Y-75250523D01*
X120979714Y-75250523D01*
X120979714Y-73980523D01*
X121479714Y-73980523D01*
X121622571Y-74041000D01*
X121694000Y-74101476D01*
X121765428Y-74222428D01*
X121765428Y-74343380D01*
X121694000Y-74464333D01*
X121622571Y-74524809D01*
X121479714Y-74585285D01*
X120979714Y-74585285D01*
X122479714Y-75250523D02*
X122479714Y-74403857D01*
X122479714Y-73980523D02*
X122408285Y-74041000D01*
X122479714Y-74101476D01*
X122551142Y-74041000D01*
X122479714Y-73980523D01*
X122479714Y-74101476D01*
X123408285Y-75250523D02*
X123265428Y-75190047D01*
X123194000Y-75129571D01*
X123122571Y-75008619D01*
X123122571Y-74645761D01*
X123194000Y-74524809D01*
X123265428Y-74464333D01*
X123408285Y-74403857D01*
X123622571Y-74403857D01*
X123765428Y-74464333D01*
X123836857Y-74524809D01*
X123908285Y-74645761D01*
X123908285Y-75008619D01*
X123836857Y-75129571D01*
X123765428Y-75190047D01*
X123622571Y-75250523D01*
X123408285Y-75250523D01*
X124479714Y-75190047D02*
X124622571Y-75250523D01*
X124908285Y-75250523D01*
X125051142Y-75190047D01*
X125122571Y-75069095D01*
X125122571Y-75008619D01*
X125051142Y-74887666D01*
X124908285Y-74827190D01*
X124694000Y-74827190D01*
X124551142Y-74766714D01*
X124479714Y-74645761D01*
X124479714Y-74585285D01*
X124551142Y-74464333D01*
X124694000Y-74403857D01*
X124908285Y-74403857D01*
X125051142Y-74464333D01*
X126408285Y-75190047D02*
X126265428Y-75250523D01*
X125979714Y-75250523D01*
X125836857Y-75190047D01*
X125765428Y-75129571D01*
X125694000Y-75008619D01*
X125694000Y-74645761D01*
X125765428Y-74524809D01*
X125836857Y-74464333D01*
X125979714Y-74403857D01*
X126265428Y-74403857D01*
X126408285Y-74464333D01*
X127051142Y-75250523D02*
X127051142Y-74403857D01*
X127051142Y-73980523D02*
X126979714Y-74041000D01*
X127051142Y-74101476D01*
X127122571Y-74041000D01*
X127051142Y-73980523D01*
X127051142Y-74101476D01*
X128336857Y-75190047D02*
X128194000Y-75250523D01*
X127908285Y-75250523D01*
X127765428Y-75190047D01*
X127694000Y-75069095D01*
X127694000Y-74585285D01*
X127765428Y-74464333D01*
X127908285Y-74403857D01*
X128194000Y-74403857D01*
X128336857Y-74464333D01*
X128408285Y-74585285D01*
X128408285Y-74706238D01*
X127694000Y-74827190D01*
X129051142Y-74403857D02*
X129051142Y-75250523D01*
X129051142Y-74524809D02*
X129122571Y-74464333D01*
X129265428Y-74403857D01*
X129479714Y-74403857D01*
X129622571Y-74464333D01*
X129694000Y-74585285D01*
X129694000Y-75250523D01*
X131051142Y-75190047D02*
X130908285Y-75250523D01*
X130622571Y-75250523D01*
X130479714Y-75190047D01*
X130408285Y-75129571D01*
X130336857Y-75008619D01*
X130336857Y-74645761D01*
X130408285Y-74524809D01*
X130479714Y-74464333D01*
X130622571Y-74403857D01*
X130908285Y-74403857D01*
X131051142Y-74464333D01*
X132265428Y-75190047D02*
X132122571Y-75250523D01*
X131836857Y-75250523D01*
X131694000Y-75190047D01*
X131622571Y-75069095D01*
X131622571Y-74585285D01*
X131694000Y-74464333D01*
X131836857Y-74403857D01*
X132122571Y-74403857D01*
X132265428Y-74464333D01*
X132336857Y-74585285D01*
X132336857Y-74706238D01*
X131622571Y-74827190D01*
X132908285Y-75190047D02*
X133051142Y-75250523D01*
X133336857Y-75250523D01*
X133479714Y-75190047D01*
X133551142Y-75069095D01*
X133551142Y-75008619D01*
X133479714Y-74887666D01*
X133336857Y-74827190D01*
X133122571Y-74827190D01*
X132979714Y-74766714D01*
X132908285Y-74645761D01*
X132908285Y-74585285D01*
X132979714Y-74464333D01*
X133122571Y-74403857D01*
X133336857Y-74403857D01*
X133479714Y-74464333D01*
D12*
X132584000Y-93455000D02*
X132084000Y-93455000D01*
X132084000Y-94505000D02*
X132584000Y-94505000D01*
X117585000Y-84840000D02*
X117585000Y-85340000D01*
X118635000Y-85340000D02*
X118635000Y-84840000D01*
X130319000Y-62480000D02*
X130319000Y-61980000D01*
X129269000Y-61980000D02*
X129269000Y-62480000D01*
X117585000Y-95000000D02*
X117585000Y-95500000D01*
X118635000Y-95500000D02*
X118635000Y-95000000D01*
X113796000Y-94505000D02*
X114296000Y-94505000D01*
X114296000Y-93455000D02*
X113796000Y-93455000D01*
X132465000Y-110965000D02*
X132965000Y-110965000D01*
X132965000Y-110015000D02*
X132465000Y-110015000D01*
X113915000Y-113825000D02*
X113415000Y-113825000D01*
X113415000Y-114775000D02*
X113915000Y-114775000D01*
X122940000Y-56355000D02*
X123440000Y-56355000D01*
X123440000Y-55405000D02*
X122940000Y-55405000D01*
X114296000Y-54897000D02*
X113796000Y-54897000D01*
X113796000Y-55847000D02*
X114296000Y-55847000D01*
X132084000Y-63213000D02*
X132584000Y-63213000D01*
X132584000Y-62263000D02*
X132084000Y-62263000D01*
X132084000Y-56101000D02*
X132584000Y-56101000D01*
X132584000Y-55151000D02*
X132084000Y-55151000D01*
X122940000Y-66515000D02*
X123440000Y-66515000D01*
X123440000Y-65565000D02*
X122940000Y-65565000D01*
X114296000Y-65057000D02*
X113796000Y-65057000D01*
X113796000Y-66007000D02*
X114296000Y-66007000D01*
X114296000Y-72423000D02*
X113796000Y-72423000D01*
X113796000Y-73373000D02*
X114296000Y-73373000D01*
X132084000Y-73373000D02*
X132584000Y-73373000D01*
X132584000Y-72423000D02*
X132084000Y-72423000D01*
X132084000Y-66007000D02*
X132584000Y-66007000D01*
X132584000Y-65057000D02*
X132084000Y-65057000D01*
X122940000Y-79215000D02*
X123440000Y-79215000D01*
X123440000Y-78265000D02*
X122940000Y-78265000D01*
X114296000Y-77757000D02*
X113796000Y-77757000D01*
X113796000Y-78707000D02*
X114296000Y-78707000D01*
X114296000Y-85123000D02*
X113796000Y-85123000D01*
X113796000Y-86073000D02*
X114296000Y-86073000D01*
X132084000Y-86073000D02*
X132584000Y-86073000D01*
X132584000Y-85123000D02*
X132084000Y-85123000D01*
X132084000Y-78707000D02*
X132584000Y-78707000D01*
X132584000Y-77757000D02*
X132084000Y-77757000D01*
X122940000Y-89375000D02*
X123440000Y-89375000D01*
X123440000Y-88425000D02*
X122940000Y-88425000D01*
X114296000Y-87917000D02*
X113796000Y-87917000D01*
X113796000Y-88867000D02*
X114296000Y-88867000D01*
X114296000Y-95283000D02*
X113796000Y-95283000D01*
X113796000Y-96233000D02*
X114296000Y-96233000D01*
X132084000Y-96233000D02*
X132584000Y-96233000D01*
X132584000Y-95283000D02*
X132084000Y-95283000D01*
X129536000Y-100059000D02*
X129036000Y-100059000D01*
X129036000Y-101109000D02*
X129536000Y-101109000D01*
X112645000Y-58530000D02*
X112145000Y-58530000D01*
X112145000Y-59580000D02*
X112645000Y-59580000D01*
X114296000Y-56879000D02*
X113796000Y-56879000D01*
X113796000Y-57929000D02*
X114296000Y-57929000D01*
X118889000Y-56130000D02*
X118889000Y-55630000D01*
X117839000Y-55630000D02*
X117839000Y-56130000D01*
X116315000Y-55630000D02*
X116315000Y-56130000D01*
X117365000Y-56130000D02*
X117365000Y-55630000D01*
X116455000Y-58530000D02*
X115955000Y-58530000D01*
X115955000Y-59580000D02*
X116455000Y-59580000D01*
X113796000Y-61231000D02*
X114296000Y-61231000D01*
X114296000Y-60181000D02*
X113796000Y-60181000D01*
X117839000Y-61980000D02*
X117839000Y-62480000D01*
X118889000Y-62480000D02*
X118889000Y-61980000D01*
X117365000Y-62480000D02*
X117365000Y-61980000D01*
X116315000Y-61980000D02*
X116315000Y-62480000D01*
X129925000Y-59580000D02*
X130425000Y-59580000D01*
X130425000Y-58530000D02*
X129925000Y-58530000D01*
X132584000Y-60181000D02*
X132084000Y-60181000D01*
X132084000Y-61231000D02*
X132584000Y-61231000D01*
X127745000Y-61980000D02*
X127745000Y-62480000D01*
X128795000Y-62480000D02*
X128795000Y-61980000D01*
X133735000Y-59580000D02*
X134235000Y-59580000D01*
X134235000Y-58530000D02*
X133735000Y-58530000D01*
X132584000Y-56879000D02*
X132084000Y-56879000D01*
X132084000Y-57929000D02*
X132584000Y-57929000D01*
X128795000Y-56130000D02*
X128795000Y-55630000D01*
X127745000Y-55630000D02*
X127745000Y-56130000D01*
X129269000Y-55630000D02*
X129269000Y-56130000D01*
X130319000Y-56130000D02*
X130319000Y-55630000D01*
X112645000Y-68690000D02*
X112145000Y-68690000D01*
X112145000Y-69740000D02*
X112645000Y-69740000D01*
X114296000Y-67039000D02*
X113796000Y-67039000D01*
X113796000Y-68089000D02*
X114296000Y-68089000D01*
X118635000Y-66290000D02*
X118635000Y-65790000D01*
X117585000Y-65790000D02*
X117585000Y-66290000D01*
X116061000Y-65790000D02*
X116061000Y-66290000D01*
X117111000Y-66290000D02*
X117111000Y-65790000D01*
X116455000Y-68690000D02*
X115955000Y-68690000D01*
X115955000Y-69740000D02*
X116455000Y-69740000D01*
X113796000Y-71391000D02*
X114296000Y-71391000D01*
X114296000Y-70341000D02*
X113796000Y-70341000D01*
X117585000Y-72140000D02*
X117585000Y-72640000D01*
X118635000Y-72640000D02*
X118635000Y-72140000D01*
X117111000Y-72640000D02*
X117111000Y-72140000D01*
X116061000Y-72140000D02*
X116061000Y-72640000D01*
X129925000Y-69740000D02*
X130425000Y-69740000D01*
X130425000Y-68690000D02*
X129925000Y-68690000D01*
X132584000Y-70341000D02*
X132084000Y-70341000D01*
X132084000Y-71391000D02*
X132584000Y-71391000D01*
X127745000Y-72140000D02*
X127745000Y-72640000D01*
X128795000Y-72640000D02*
X128795000Y-72140000D01*
X130319000Y-72640000D02*
X130319000Y-72140000D01*
X129269000Y-72140000D02*
X129269000Y-72640000D01*
X133735000Y-69740000D02*
X134235000Y-69740000D01*
X134235000Y-68690000D02*
X133735000Y-68690000D01*
X132584000Y-67039000D02*
X132084000Y-67039000D01*
X132084000Y-68089000D02*
X132584000Y-68089000D01*
X128795000Y-66290000D02*
X128795000Y-65790000D01*
X127745000Y-65790000D02*
X127745000Y-66290000D01*
X129269000Y-65790000D02*
X129269000Y-66290000D01*
X130319000Y-66290000D02*
X130319000Y-65790000D01*
X112645000Y-81390000D02*
X112145000Y-81390000D01*
X112145000Y-82440000D02*
X112645000Y-82440000D01*
X114296000Y-79739000D02*
X113796000Y-79739000D01*
X113796000Y-80789000D02*
X114296000Y-80789000D01*
X118635000Y-78990000D02*
X118635000Y-78490000D01*
X117585000Y-78490000D02*
X117585000Y-78990000D01*
X116061000Y-78490000D02*
X116061000Y-78990000D01*
X117111000Y-78990000D02*
X117111000Y-78490000D01*
X116455000Y-81390000D02*
X115955000Y-81390000D01*
X115955000Y-82440000D02*
X116455000Y-82440000D01*
X113796000Y-84091000D02*
X114296000Y-84091000D01*
X114296000Y-83041000D02*
X113796000Y-83041000D01*
X117111000Y-85340000D02*
X117111000Y-84840000D01*
X116061000Y-84840000D02*
X116061000Y-85340000D01*
X129925000Y-82440000D02*
X130425000Y-82440000D01*
X130425000Y-81390000D02*
X129925000Y-81390000D01*
X132584000Y-83041000D02*
X132084000Y-83041000D01*
X132084000Y-84091000D02*
X132584000Y-84091000D01*
X127745000Y-84840000D02*
X127745000Y-85340000D01*
X128795000Y-85340000D02*
X128795000Y-84840000D01*
X130319000Y-85340000D02*
X130319000Y-84840000D01*
X129269000Y-84840000D02*
X129269000Y-85340000D01*
X134235000Y-81390000D02*
X133735000Y-81390000D01*
X133735000Y-82440000D02*
X134235000Y-82440000D01*
X132584000Y-79739000D02*
X132084000Y-79739000D01*
X132084000Y-80789000D02*
X132584000Y-80789000D01*
X128795000Y-78990000D02*
X128795000Y-78490000D01*
X127745000Y-78490000D02*
X127745000Y-78990000D01*
X129269000Y-78490000D02*
X129269000Y-78990000D01*
X130319000Y-78990000D02*
X130319000Y-78490000D01*
X112645000Y-91550000D02*
X112145000Y-91550000D01*
X112145000Y-92600000D02*
X112645000Y-92600000D01*
X114296000Y-89899000D02*
X113796000Y-89899000D01*
X113796000Y-90949000D02*
X114296000Y-90949000D01*
X118635000Y-89150000D02*
X118635000Y-88650000D01*
X117585000Y-88650000D02*
X117585000Y-89150000D01*
X116061000Y-88650000D02*
X116061000Y-89150000D01*
X117111000Y-89150000D02*
X117111000Y-88650000D01*
X116455000Y-91550000D02*
X115955000Y-91550000D01*
X115955000Y-92600000D02*
X116455000Y-92600000D01*
X117111000Y-95500000D02*
X117111000Y-95000000D01*
X116061000Y-95000000D02*
X116061000Y-95500000D01*
X129925000Y-92600000D02*
X130425000Y-92600000D01*
X130425000Y-91550000D02*
X129925000Y-91550000D01*
X127745000Y-95000000D02*
X127745000Y-95500000D01*
X128795000Y-95500000D02*
X128795000Y-95000000D01*
X130319000Y-95500000D02*
X130319000Y-95000000D01*
X129269000Y-95000000D02*
X129269000Y-95500000D01*
X134235000Y-91550000D02*
X133735000Y-91550000D01*
X133735000Y-92600000D02*
X134235000Y-92600000D01*
X132584000Y-89899000D02*
X132084000Y-89899000D01*
X132084000Y-90949000D02*
X132584000Y-90949000D01*
X128795000Y-89150000D02*
X128795000Y-88650000D01*
X127745000Y-88650000D02*
X127745000Y-89150000D01*
X129269000Y-88650000D02*
X129269000Y-89150000D01*
X130319000Y-89150000D02*
X130319000Y-88650000D01*
X125090000Y-61555000D02*
X125090000Y-56555000D01*
X121290000Y-61555000D02*
X121290000Y-56555000D01*
X125090000Y-56555000D02*
X121290000Y-56555000D01*
X125090000Y-61555000D02*
X121290000Y-61555000D01*
X119090000Y-57055000D02*
G75*
G03*
X119090000Y-57055000I-100000J0D01*
G01*
X125090000Y-71715000D02*
X125090000Y-66715000D01*
X121290000Y-71715000D02*
X121290000Y-66715000D01*
X125090000Y-66715000D02*
X121290000Y-66715000D01*
X125090000Y-71715000D02*
X121290000Y-71715000D01*
X119090000Y-67215000D02*
G75*
G03*
X119090000Y-67215000I-100000J0D01*
G01*
X125090000Y-84415000D02*
X125090000Y-79415000D01*
X121290000Y-84415000D02*
X121290000Y-79415000D01*
X125090000Y-79415000D02*
X121290000Y-79415000D01*
X125090000Y-84415000D02*
X121290000Y-84415000D01*
X119090000Y-79915000D02*
G75*
G03*
X119090000Y-79915000I-100000J0D01*
G01*
X125090000Y-94575000D02*
X125090000Y-89575000D01*
X121290000Y-94575000D02*
X121290000Y-89575000D01*
X125090000Y-89575000D02*
X121290000Y-89575000D01*
X125090000Y-94575000D02*
X121290000Y-94575000D01*
X119090000Y-90075000D02*
G75*
G03*
X119090000Y-90075000I-100000J0D01*
G01*
X116365000Y-106747500D02*
X116365000Y-107247500D01*
X117315000Y-107247500D02*
X117315000Y-106747500D01*
X130652500Y-113415000D02*
X130652500Y-113915000D01*
X131602500Y-113915000D02*
X131602500Y-113415000D01*
X132222000Y-88867000D02*
X132722000Y-88867000D01*
X132722000Y-87917000D02*
X132222000Y-87917000D01*
X129190000Y-106670000D02*
G75*
G03*
X129190000Y-106670000I-200000J0D01*
G01*
X126190000Y-98870000D02*
X126190000Y-107070000D01*
X120390000Y-98870000D02*
X120390000Y-107070000D01*
X126190000Y-107070000D02*
X120390000Y-107070000D01*
X126190000Y-98870000D02*
X120390000Y-98870000D01*
X124790000Y-117500000D02*
X121290000Y-117500000D01*
X121290000Y-117500000D02*
X121290000Y-111100000D01*
X124790000Y-117500000D02*
X124790000Y-111100000D01*
X121290000Y-111100000D02*
X124790000Y-111100000D01*
X114296000Y-62263000D02*
X113796000Y-62263000D01*
X113796000Y-63213000D02*
X114296000Y-63213000D01*
X132089000Y-108195000D02*
X132089000Y-107220000D01*
X130064000Y-107220000D02*
X132064000Y-107220000D01*
X130064000Y-108220000D02*
X132064000Y-108220000D01*
X130039000Y-108195000D02*
X130039000Y-107220000D01*
D13*
X134433128Y-94290242D02*
X134204528Y-93963671D01*
X134041242Y-94290242D02*
X134041242Y-93604442D01*
X134302500Y-93604442D01*
X134367814Y-93637100D01*
X134400471Y-93669757D01*
X134433128Y-93735071D01*
X134433128Y-93833042D01*
X134400471Y-93898357D01*
X134367814Y-93931014D01*
X134302500Y-93963671D01*
X134041242Y-93963671D01*
X135053614Y-93604442D02*
X134727042Y-93604442D01*
X134694385Y-93931014D01*
X134727042Y-93898357D01*
X134792357Y-93865700D01*
X134955642Y-93865700D01*
X135020957Y-93898357D01*
X135053614Y-93931014D01*
X135086271Y-93996328D01*
X135086271Y-94159614D01*
X135053614Y-94224928D01*
X135020957Y-94257585D01*
X134955642Y-94290242D01*
X134792357Y-94290242D01*
X134727042Y-94257585D01*
X134694385Y-94224928D01*
X135412842Y-94290242D02*
X135543471Y-94290242D01*
X135608785Y-94257585D01*
X135641442Y-94224928D01*
X135706757Y-94126957D01*
X135739414Y-93996328D01*
X135739414Y-93735071D01*
X135706757Y-93669757D01*
X135674100Y-93637100D01*
X135608785Y-93604442D01*
X135478157Y-93604442D01*
X135412842Y-93637100D01*
X135380185Y-93669757D01*
X135347528Y-93735071D01*
X135347528Y-93898357D01*
X135380185Y-93963671D01*
X135412842Y-93996328D01*
X135478157Y-94028985D01*
X135608785Y-94028985D01*
X135674100Y-93996328D01*
X135706757Y-93963671D01*
X135739414Y-93898357D01*
X117923128Y-86924242D02*
X117694528Y-86597671D01*
X117531242Y-86924242D02*
X117531242Y-86238442D01*
X117792500Y-86238442D01*
X117857814Y-86271100D01*
X117890471Y-86303757D01*
X117923128Y-86369071D01*
X117923128Y-86467042D01*
X117890471Y-86532357D01*
X117857814Y-86565014D01*
X117792500Y-86597671D01*
X117531242Y-86597671D01*
X118510957Y-86467042D02*
X118510957Y-86924242D01*
X118347671Y-86205785D02*
X118184385Y-86695642D01*
X118608928Y-86695642D01*
X119000814Y-86238442D02*
X119066128Y-86238442D01*
X119131442Y-86271100D01*
X119164100Y-86303757D01*
X119196757Y-86369071D01*
X119229414Y-86499700D01*
X119229414Y-86662985D01*
X119196757Y-86793614D01*
X119164100Y-86858928D01*
X119131442Y-86891585D01*
X119066128Y-86924242D01*
X119000814Y-86924242D01*
X118935500Y-86891585D01*
X118902842Y-86858928D01*
X118870185Y-86793614D01*
X118837528Y-86662985D01*
X118837528Y-86499700D01*
X118870185Y-86369071D01*
X118902842Y-86303757D01*
X118935500Y-86271100D01*
X119000814Y-86238442D01*
X129861128Y-64064242D02*
X129632528Y-63737671D01*
X129469242Y-64064242D02*
X129469242Y-63378442D01*
X129730500Y-63378442D01*
X129795814Y-63411100D01*
X129828471Y-63443757D01*
X129861128Y-63509071D01*
X129861128Y-63607042D01*
X129828471Y-63672357D01*
X129795814Y-63705014D01*
X129730500Y-63737671D01*
X129469242Y-63737671D01*
X130514271Y-64064242D02*
X130122385Y-64064242D01*
X130318328Y-64064242D02*
X130318328Y-63378442D01*
X130253014Y-63476414D01*
X130187700Y-63541728D01*
X130122385Y-63574385D01*
X130742871Y-63378442D02*
X131167414Y-63378442D01*
X130938814Y-63639700D01*
X131036785Y-63639700D01*
X131102100Y-63672357D01*
X131134757Y-63705014D01*
X131167414Y-63770328D01*
X131167414Y-63933614D01*
X131134757Y-63998928D01*
X131102100Y-64031585D01*
X131036785Y-64064242D01*
X130840842Y-64064242D01*
X130775528Y-64031585D01*
X130742871Y-63998928D01*
X117923128Y-97084242D02*
X117694528Y-96757671D01*
X117531242Y-97084242D02*
X117531242Y-96398442D01*
X117792500Y-96398442D01*
X117857814Y-96431100D01*
X117890471Y-96463757D01*
X117923128Y-96529071D01*
X117923128Y-96627042D01*
X117890471Y-96692357D01*
X117857814Y-96725014D01*
X117792500Y-96757671D01*
X117531242Y-96757671D01*
X118543614Y-96398442D02*
X118217042Y-96398442D01*
X118184385Y-96725014D01*
X118217042Y-96692357D01*
X118282357Y-96659700D01*
X118445642Y-96659700D01*
X118510957Y-96692357D01*
X118543614Y-96725014D01*
X118576271Y-96790328D01*
X118576271Y-96953614D01*
X118543614Y-97018928D01*
X118510957Y-97051585D01*
X118445642Y-97084242D01*
X118282357Y-97084242D01*
X118217042Y-97051585D01*
X118184385Y-97018928D01*
X119164100Y-96398442D02*
X119033471Y-96398442D01*
X118968157Y-96431100D01*
X118935500Y-96463757D01*
X118870185Y-96561728D01*
X118837528Y-96692357D01*
X118837528Y-96953614D01*
X118870185Y-97018928D01*
X118902842Y-97051585D01*
X118968157Y-97084242D01*
X119098785Y-97084242D01*
X119164100Y-97051585D01*
X119196757Y-97018928D01*
X119229414Y-96953614D01*
X119229414Y-96790328D01*
X119196757Y-96725014D01*
X119164100Y-96692357D01*
X119098785Y-96659700D01*
X118968157Y-96659700D01*
X118902842Y-96692357D01*
X118870185Y-96725014D01*
X118837528Y-96790328D01*
X111065128Y-94036242D02*
X110836528Y-93709671D01*
X110673242Y-94036242D02*
X110673242Y-93350442D01*
X110934500Y-93350442D01*
X110999814Y-93383100D01*
X111032471Y-93415757D01*
X111065128Y-93481071D01*
X111065128Y-93579042D01*
X111032471Y-93644357D01*
X110999814Y-93677014D01*
X110934500Y-93709671D01*
X110673242Y-93709671D01*
X111685614Y-93350442D02*
X111359042Y-93350442D01*
X111326385Y-93677014D01*
X111359042Y-93644357D01*
X111424357Y-93611700D01*
X111587642Y-93611700D01*
X111652957Y-93644357D01*
X111685614Y-93677014D01*
X111718271Y-93742328D01*
X111718271Y-93905614D01*
X111685614Y-93970928D01*
X111652957Y-94003585D01*
X111587642Y-94036242D01*
X111424357Y-94036242D01*
X111359042Y-94003585D01*
X111326385Y-93970928D01*
X112338757Y-93350442D02*
X112012185Y-93350442D01*
X111979528Y-93677014D01*
X112012185Y-93644357D01*
X112077500Y-93611700D01*
X112240785Y-93611700D01*
X112306100Y-93644357D01*
X112338757Y-93677014D01*
X112371414Y-93742328D01*
X112371414Y-93905614D01*
X112338757Y-93970928D01*
X112306100Y-94003585D01*
X112240785Y-94036242D01*
X112077500Y-94036242D01*
X112012185Y-94003585D01*
X111979528Y-93970928D01*
X133743700Y-109464928D02*
X133711042Y-109497585D01*
X133613071Y-109530242D01*
X133547757Y-109530242D01*
X133449785Y-109497585D01*
X133384471Y-109432271D01*
X133351814Y-109366957D01*
X133319157Y-109236328D01*
X133319157Y-109138357D01*
X133351814Y-109007728D01*
X133384471Y-108942414D01*
X133449785Y-108877100D01*
X133547757Y-108844442D01*
X133613071Y-108844442D01*
X133711042Y-108877100D01*
X133743700Y-108909757D01*
X133972300Y-108844442D02*
X134396842Y-108844442D01*
X134168242Y-109105700D01*
X134266214Y-109105700D01*
X134331528Y-109138357D01*
X134364185Y-109171014D01*
X134396842Y-109236328D01*
X134396842Y-109399614D01*
X134364185Y-109464928D01*
X134331528Y-109497585D01*
X134266214Y-109530242D01*
X134070271Y-109530242D01*
X134004957Y-109497585D01*
X133972300Y-109464928D01*
X113423700Y-115814928D02*
X113391042Y-115847585D01*
X113293071Y-115880242D01*
X113227757Y-115880242D01*
X113129785Y-115847585D01*
X113064471Y-115782271D01*
X113031814Y-115716957D01*
X112999157Y-115586328D01*
X112999157Y-115488357D01*
X113031814Y-115357728D01*
X113064471Y-115292414D01*
X113129785Y-115227100D01*
X113227757Y-115194442D01*
X113293071Y-115194442D01*
X113391042Y-115227100D01*
X113423700Y-115259757D01*
X114011528Y-115423042D02*
X114011528Y-115880242D01*
X113848242Y-115161785D02*
X113684957Y-115651642D01*
X114109500Y-115651642D01*
X123075700Y-54854928D02*
X123043042Y-54887585D01*
X122945071Y-54920242D01*
X122879757Y-54920242D01*
X122781785Y-54887585D01*
X122716471Y-54822271D01*
X122683814Y-54756957D01*
X122651157Y-54626328D01*
X122651157Y-54528357D01*
X122683814Y-54397728D01*
X122716471Y-54332414D01*
X122781785Y-54267100D01*
X122879757Y-54234442D01*
X122945071Y-54234442D01*
X123043042Y-54267100D01*
X123075700Y-54299757D01*
X123696185Y-54234442D02*
X123369614Y-54234442D01*
X123336957Y-54561014D01*
X123369614Y-54528357D01*
X123434928Y-54495700D01*
X123598214Y-54495700D01*
X123663528Y-54528357D01*
X123696185Y-54561014D01*
X123728842Y-54626328D01*
X123728842Y-54789614D01*
X123696185Y-54854928D01*
X123663528Y-54887585D01*
X123598214Y-54920242D01*
X123434928Y-54920242D01*
X123369614Y-54887585D01*
X123336957Y-54854928D01*
X113169700Y-54600928D02*
X113137042Y-54633585D01*
X113039071Y-54666242D01*
X112973757Y-54666242D01*
X112875785Y-54633585D01*
X112810471Y-54568271D01*
X112777814Y-54502957D01*
X112745157Y-54372328D01*
X112745157Y-54274357D01*
X112777814Y-54143728D01*
X112810471Y-54078414D01*
X112875785Y-54013100D01*
X112973757Y-53980442D01*
X113039071Y-53980442D01*
X113137042Y-54013100D01*
X113169700Y-54045757D01*
X113757528Y-53980442D02*
X113626900Y-53980442D01*
X113561585Y-54013100D01*
X113528928Y-54045757D01*
X113463614Y-54143728D01*
X113430957Y-54274357D01*
X113430957Y-54535614D01*
X113463614Y-54600928D01*
X113496271Y-54633585D01*
X113561585Y-54666242D01*
X113692214Y-54666242D01*
X113757528Y-54633585D01*
X113790185Y-54600928D01*
X113822842Y-54535614D01*
X113822842Y-54372328D01*
X113790185Y-54307014D01*
X113757528Y-54274357D01*
X113692214Y-54241700D01*
X113561585Y-54241700D01*
X113496271Y-54274357D01*
X113463614Y-54307014D01*
X113430957Y-54372328D01*
X134759700Y-62982928D02*
X134727042Y-63015585D01*
X134629071Y-63048242D01*
X134563757Y-63048242D01*
X134465785Y-63015585D01*
X134400471Y-62950271D01*
X134367814Y-62884957D01*
X134335157Y-62754328D01*
X134335157Y-62656357D01*
X134367814Y-62525728D01*
X134400471Y-62460414D01*
X134465785Y-62395100D01*
X134563757Y-62362442D01*
X134629071Y-62362442D01*
X134727042Y-62395100D01*
X134759700Y-62427757D01*
X135151585Y-62656357D02*
X135086271Y-62623700D01*
X135053614Y-62591042D01*
X135020957Y-62525728D01*
X135020957Y-62493071D01*
X135053614Y-62427757D01*
X135086271Y-62395100D01*
X135151585Y-62362442D01*
X135282214Y-62362442D01*
X135347528Y-62395100D01*
X135380185Y-62427757D01*
X135412842Y-62493071D01*
X135412842Y-62525728D01*
X135380185Y-62591042D01*
X135347528Y-62623700D01*
X135282214Y-62656357D01*
X135151585Y-62656357D01*
X135086271Y-62689014D01*
X135053614Y-62721671D01*
X135020957Y-62786985D01*
X135020957Y-62917614D01*
X135053614Y-62982928D01*
X135086271Y-63015585D01*
X135151585Y-63048242D01*
X135282214Y-63048242D01*
X135347528Y-63015585D01*
X135380185Y-62982928D01*
X135412842Y-62917614D01*
X135412842Y-62786985D01*
X135380185Y-62721671D01*
X135347528Y-62689014D01*
X135282214Y-62656357D01*
X133235700Y-54854928D02*
X133203042Y-54887585D01*
X133105071Y-54920242D01*
X133039757Y-54920242D01*
X132941785Y-54887585D01*
X132876471Y-54822271D01*
X132843814Y-54756957D01*
X132811157Y-54626328D01*
X132811157Y-54528357D01*
X132843814Y-54397728D01*
X132876471Y-54332414D01*
X132941785Y-54267100D01*
X133039757Y-54234442D01*
X133105071Y-54234442D01*
X133203042Y-54267100D01*
X133235700Y-54299757D01*
X133562271Y-54920242D02*
X133692900Y-54920242D01*
X133758214Y-54887585D01*
X133790871Y-54854928D01*
X133856185Y-54756957D01*
X133888842Y-54626328D01*
X133888842Y-54365071D01*
X133856185Y-54299757D01*
X133823528Y-54267100D01*
X133758214Y-54234442D01*
X133627585Y-54234442D01*
X133562271Y-54267100D01*
X133529614Y-54299757D01*
X133496957Y-54365071D01*
X133496957Y-54528357D01*
X133529614Y-54593671D01*
X133562271Y-54626328D01*
X133627585Y-54658985D01*
X133758214Y-54658985D01*
X133823528Y-54626328D01*
X133856185Y-54593671D01*
X133888842Y-54528357D01*
X122749128Y-65268928D02*
X122716471Y-65301585D01*
X122618500Y-65334242D01*
X122553185Y-65334242D01*
X122455214Y-65301585D01*
X122389900Y-65236271D01*
X122357242Y-65170957D01*
X122324585Y-65040328D01*
X122324585Y-64942357D01*
X122357242Y-64811728D01*
X122389900Y-64746414D01*
X122455214Y-64681100D01*
X122553185Y-64648442D01*
X122618500Y-64648442D01*
X122716471Y-64681100D01*
X122749128Y-64713757D01*
X123402271Y-65334242D02*
X123010385Y-65334242D01*
X123206328Y-65334242D02*
X123206328Y-64648442D01*
X123141014Y-64746414D01*
X123075700Y-64811728D01*
X123010385Y-64844385D01*
X123826814Y-64648442D02*
X123892128Y-64648442D01*
X123957442Y-64681100D01*
X123990100Y-64713757D01*
X124022757Y-64779071D01*
X124055414Y-64909700D01*
X124055414Y-65072985D01*
X124022757Y-65203614D01*
X123990100Y-65268928D01*
X123957442Y-65301585D01*
X123892128Y-65334242D01*
X123826814Y-65334242D01*
X123761500Y-65301585D01*
X123728842Y-65268928D01*
X123696185Y-65203614D01*
X123663528Y-65072985D01*
X123663528Y-64909700D01*
X123696185Y-64779071D01*
X123728842Y-64713757D01*
X123761500Y-64681100D01*
X123826814Y-64648442D01*
X113097128Y-64760928D02*
X113064471Y-64793585D01*
X112966500Y-64826242D01*
X112901185Y-64826242D01*
X112803214Y-64793585D01*
X112737900Y-64728271D01*
X112705242Y-64662957D01*
X112672585Y-64532328D01*
X112672585Y-64434357D01*
X112705242Y-64303728D01*
X112737900Y-64238414D01*
X112803214Y-64173100D01*
X112901185Y-64140442D01*
X112966500Y-64140442D01*
X113064471Y-64173100D01*
X113097128Y-64205757D01*
X113750271Y-64826242D02*
X113358385Y-64826242D01*
X113554328Y-64826242D02*
X113554328Y-64140442D01*
X113489014Y-64238414D01*
X113423700Y-64303728D01*
X113358385Y-64336385D01*
X114403414Y-64826242D02*
X114011528Y-64826242D01*
X114207471Y-64826242D02*
X114207471Y-64140442D01*
X114142157Y-64238414D01*
X114076842Y-64303728D01*
X114011528Y-64336385D01*
X110811128Y-73142928D02*
X110778471Y-73175585D01*
X110680500Y-73208242D01*
X110615185Y-73208242D01*
X110517214Y-73175585D01*
X110451900Y-73110271D01*
X110419242Y-73044957D01*
X110386585Y-72914328D01*
X110386585Y-72816357D01*
X110419242Y-72685728D01*
X110451900Y-72620414D01*
X110517214Y-72555100D01*
X110615185Y-72522442D01*
X110680500Y-72522442D01*
X110778471Y-72555100D01*
X110811128Y-72587757D01*
X111464271Y-73208242D02*
X111072385Y-73208242D01*
X111268328Y-73208242D02*
X111268328Y-72522442D01*
X111203014Y-72620414D01*
X111137700Y-72685728D01*
X111072385Y-72718385D01*
X111725528Y-72587757D02*
X111758185Y-72555100D01*
X111823500Y-72522442D01*
X111986785Y-72522442D01*
X112052100Y-72555100D01*
X112084757Y-72587757D01*
X112117414Y-72653071D01*
X112117414Y-72718385D01*
X112084757Y-72816357D01*
X111692871Y-73208242D01*
X112117414Y-73208242D01*
X134179128Y-73142928D02*
X134146471Y-73175585D01*
X134048500Y-73208242D01*
X133983185Y-73208242D01*
X133885214Y-73175585D01*
X133819900Y-73110271D01*
X133787242Y-73044957D01*
X133754585Y-72914328D01*
X133754585Y-72816357D01*
X133787242Y-72685728D01*
X133819900Y-72620414D01*
X133885214Y-72555100D01*
X133983185Y-72522442D01*
X134048500Y-72522442D01*
X134146471Y-72555100D01*
X134179128Y-72587757D01*
X134832271Y-73208242D02*
X134440385Y-73208242D01*
X134636328Y-73208242D02*
X134636328Y-72522442D01*
X134571014Y-72620414D01*
X134505700Y-72685728D01*
X134440385Y-72718385D01*
X135060871Y-72522442D02*
X135485414Y-72522442D01*
X135256814Y-72783700D01*
X135354785Y-72783700D01*
X135420100Y-72816357D01*
X135452757Y-72849014D01*
X135485414Y-72914328D01*
X135485414Y-73077614D01*
X135452757Y-73142928D01*
X135420100Y-73175585D01*
X135354785Y-73208242D01*
X135158842Y-73208242D01*
X135093528Y-73175585D01*
X135060871Y-73142928D01*
X132147128Y-64760928D02*
X132114471Y-64793585D01*
X132016500Y-64826242D01*
X131951185Y-64826242D01*
X131853214Y-64793585D01*
X131787900Y-64728271D01*
X131755242Y-64662957D01*
X131722585Y-64532328D01*
X131722585Y-64434357D01*
X131755242Y-64303728D01*
X131787900Y-64238414D01*
X131853214Y-64173100D01*
X131951185Y-64140442D01*
X132016500Y-64140442D01*
X132114471Y-64173100D01*
X132147128Y-64205757D01*
X132800271Y-64826242D02*
X132408385Y-64826242D01*
X132604328Y-64826242D02*
X132604328Y-64140442D01*
X132539014Y-64238414D01*
X132473700Y-64303728D01*
X132408385Y-64336385D01*
X133388100Y-64369042D02*
X133388100Y-64826242D01*
X133224814Y-64107785D02*
X133061528Y-64597642D01*
X133486071Y-64597642D01*
X119955128Y-78984928D02*
X119922471Y-79017585D01*
X119824500Y-79050242D01*
X119759185Y-79050242D01*
X119661214Y-79017585D01*
X119595900Y-78952271D01*
X119563242Y-78886957D01*
X119530585Y-78756328D01*
X119530585Y-78658357D01*
X119563242Y-78527728D01*
X119595900Y-78462414D01*
X119661214Y-78397100D01*
X119759185Y-78364442D01*
X119824500Y-78364442D01*
X119922471Y-78397100D01*
X119955128Y-78429757D01*
X120608271Y-79050242D02*
X120216385Y-79050242D01*
X120412328Y-79050242D02*
X120412328Y-78364442D01*
X120347014Y-78462414D01*
X120281700Y-78527728D01*
X120216385Y-78560385D01*
X121228757Y-78364442D02*
X120902185Y-78364442D01*
X120869528Y-78691014D01*
X120902185Y-78658357D01*
X120967500Y-78625700D01*
X121130785Y-78625700D01*
X121196100Y-78658357D01*
X121228757Y-78691014D01*
X121261414Y-78756328D01*
X121261414Y-78919614D01*
X121228757Y-78984928D01*
X121196100Y-79017585D01*
X121130785Y-79050242D01*
X120967500Y-79050242D01*
X120902185Y-79017585D01*
X120869528Y-78984928D01*
X111065128Y-78476928D02*
X111032471Y-78509585D01*
X110934500Y-78542242D01*
X110869185Y-78542242D01*
X110771214Y-78509585D01*
X110705900Y-78444271D01*
X110673242Y-78378957D01*
X110640585Y-78248328D01*
X110640585Y-78150357D01*
X110673242Y-78019728D01*
X110705900Y-77954414D01*
X110771214Y-77889100D01*
X110869185Y-77856442D01*
X110934500Y-77856442D01*
X111032471Y-77889100D01*
X111065128Y-77921757D01*
X111718271Y-78542242D02*
X111326385Y-78542242D01*
X111522328Y-78542242D02*
X111522328Y-77856442D01*
X111457014Y-77954414D01*
X111391700Y-78019728D01*
X111326385Y-78052385D01*
X112306100Y-77856442D02*
X112175471Y-77856442D01*
X112110157Y-77889100D01*
X112077500Y-77921757D01*
X112012185Y-78019728D01*
X111979528Y-78150357D01*
X111979528Y-78411614D01*
X112012185Y-78476928D01*
X112044842Y-78509585D01*
X112110157Y-78542242D01*
X112240785Y-78542242D01*
X112306100Y-78509585D01*
X112338757Y-78476928D01*
X112371414Y-78411614D01*
X112371414Y-78248328D01*
X112338757Y-78183014D01*
X112306100Y-78150357D01*
X112240785Y-78117700D01*
X112110157Y-78117700D01*
X112044842Y-78150357D01*
X112012185Y-78183014D01*
X111979528Y-78248328D01*
X113605128Y-86858928D02*
X113572471Y-86891585D01*
X113474500Y-86924242D01*
X113409185Y-86924242D01*
X113311214Y-86891585D01*
X113245900Y-86826271D01*
X113213242Y-86760957D01*
X113180585Y-86630328D01*
X113180585Y-86532357D01*
X113213242Y-86401728D01*
X113245900Y-86336414D01*
X113311214Y-86271100D01*
X113409185Y-86238442D01*
X113474500Y-86238442D01*
X113572471Y-86271100D01*
X113605128Y-86303757D01*
X114258271Y-86924242D02*
X113866385Y-86924242D01*
X114062328Y-86924242D02*
X114062328Y-86238442D01*
X113997014Y-86336414D01*
X113931700Y-86401728D01*
X113866385Y-86434385D01*
X114486871Y-86238442D02*
X114944071Y-86238442D01*
X114650157Y-86924242D01*
X131893128Y-86858928D02*
X131860471Y-86891585D01*
X131762500Y-86924242D01*
X131697185Y-86924242D01*
X131599214Y-86891585D01*
X131533900Y-86826271D01*
X131501242Y-86760957D01*
X131468585Y-86630328D01*
X131468585Y-86532357D01*
X131501242Y-86401728D01*
X131533900Y-86336414D01*
X131599214Y-86271100D01*
X131697185Y-86238442D01*
X131762500Y-86238442D01*
X131860471Y-86271100D01*
X131893128Y-86303757D01*
X132546271Y-86924242D02*
X132154385Y-86924242D01*
X132350328Y-86924242D02*
X132350328Y-86238442D01*
X132285014Y-86336414D01*
X132219700Y-86401728D01*
X132154385Y-86434385D01*
X132938157Y-86532357D02*
X132872842Y-86499700D01*
X132840185Y-86467042D01*
X132807528Y-86401728D01*
X132807528Y-86369071D01*
X132840185Y-86303757D01*
X132872842Y-86271100D01*
X132938157Y-86238442D01*
X133068785Y-86238442D01*
X133134100Y-86271100D01*
X133166757Y-86303757D01*
X133199414Y-86369071D01*
X133199414Y-86401728D01*
X133166757Y-86467042D01*
X133134100Y-86499700D01*
X133068785Y-86532357D01*
X132938157Y-86532357D01*
X132872842Y-86565014D01*
X132840185Y-86597671D01*
X132807528Y-86662985D01*
X132807528Y-86793614D01*
X132840185Y-86858928D01*
X132872842Y-86891585D01*
X132938157Y-86924242D01*
X133068785Y-86924242D01*
X133134100Y-86891585D01*
X133166757Y-86858928D01*
X133199414Y-86793614D01*
X133199414Y-86662985D01*
X133166757Y-86597671D01*
X133134100Y-86565014D01*
X133068785Y-86532357D01*
X134433128Y-78730928D02*
X134400471Y-78763585D01*
X134302500Y-78796242D01*
X134237185Y-78796242D01*
X134139214Y-78763585D01*
X134073900Y-78698271D01*
X134041242Y-78632957D01*
X134008585Y-78502328D01*
X134008585Y-78404357D01*
X134041242Y-78273728D01*
X134073900Y-78208414D01*
X134139214Y-78143100D01*
X134237185Y-78110442D01*
X134302500Y-78110442D01*
X134400471Y-78143100D01*
X134433128Y-78175757D01*
X135086271Y-78796242D02*
X134694385Y-78796242D01*
X134890328Y-78796242D02*
X134890328Y-78110442D01*
X134825014Y-78208414D01*
X134759700Y-78273728D01*
X134694385Y-78306385D01*
X135412842Y-78796242D02*
X135543471Y-78796242D01*
X135608785Y-78763585D01*
X135641442Y-78730928D01*
X135706757Y-78632957D01*
X135739414Y-78502328D01*
X135739414Y-78241071D01*
X135706757Y-78175757D01*
X135674100Y-78143100D01*
X135608785Y-78110442D01*
X135478157Y-78110442D01*
X135412842Y-78143100D01*
X135380185Y-78175757D01*
X135347528Y-78241071D01*
X135347528Y-78404357D01*
X135380185Y-78469671D01*
X135412842Y-78502328D01*
X135478157Y-78534985D01*
X135608785Y-78534985D01*
X135674100Y-78502328D01*
X135706757Y-78469671D01*
X135739414Y-78404357D01*
X122749128Y-88128928D02*
X122716471Y-88161585D01*
X122618500Y-88194242D01*
X122553185Y-88194242D01*
X122455214Y-88161585D01*
X122389900Y-88096271D01*
X122357242Y-88030957D01*
X122324585Y-87900328D01*
X122324585Y-87802357D01*
X122357242Y-87671728D01*
X122389900Y-87606414D01*
X122455214Y-87541100D01*
X122553185Y-87508442D01*
X122618500Y-87508442D01*
X122716471Y-87541100D01*
X122749128Y-87573757D01*
X123010385Y-87573757D02*
X123043042Y-87541100D01*
X123108357Y-87508442D01*
X123271642Y-87508442D01*
X123336957Y-87541100D01*
X123369614Y-87573757D01*
X123402271Y-87639071D01*
X123402271Y-87704385D01*
X123369614Y-87802357D01*
X122977728Y-88194242D01*
X123402271Y-88194242D01*
X123826814Y-87508442D02*
X123892128Y-87508442D01*
X123957442Y-87541100D01*
X123990100Y-87573757D01*
X124022757Y-87639071D01*
X124055414Y-87769700D01*
X124055414Y-87932985D01*
X124022757Y-88063614D01*
X123990100Y-88128928D01*
X123957442Y-88161585D01*
X123892128Y-88194242D01*
X123826814Y-88194242D01*
X123761500Y-88161585D01*
X123728842Y-88128928D01*
X123696185Y-88063614D01*
X123663528Y-87932985D01*
X123663528Y-87769700D01*
X123696185Y-87639071D01*
X123728842Y-87573757D01*
X123761500Y-87541100D01*
X123826814Y-87508442D01*
X111065128Y-88636928D02*
X111032471Y-88669585D01*
X110934500Y-88702242D01*
X110869185Y-88702242D01*
X110771214Y-88669585D01*
X110705900Y-88604271D01*
X110673242Y-88538957D01*
X110640585Y-88408328D01*
X110640585Y-88310357D01*
X110673242Y-88179728D01*
X110705900Y-88114414D01*
X110771214Y-88049100D01*
X110869185Y-88016442D01*
X110934500Y-88016442D01*
X111032471Y-88049100D01*
X111065128Y-88081757D01*
X111326385Y-88081757D02*
X111359042Y-88049100D01*
X111424357Y-88016442D01*
X111587642Y-88016442D01*
X111652957Y-88049100D01*
X111685614Y-88081757D01*
X111718271Y-88147071D01*
X111718271Y-88212385D01*
X111685614Y-88310357D01*
X111293728Y-88702242D01*
X111718271Y-88702242D01*
X112371414Y-88702242D02*
X111979528Y-88702242D01*
X112175471Y-88702242D02*
X112175471Y-88016442D01*
X112110157Y-88114414D01*
X112044842Y-88179728D01*
X111979528Y-88212385D01*
X112843128Y-97272928D02*
X112810471Y-97305585D01*
X112712500Y-97338242D01*
X112647185Y-97338242D01*
X112549214Y-97305585D01*
X112483900Y-97240271D01*
X112451242Y-97174957D01*
X112418585Y-97044328D01*
X112418585Y-96946357D01*
X112451242Y-96815728D01*
X112483900Y-96750414D01*
X112549214Y-96685100D01*
X112647185Y-96652442D01*
X112712500Y-96652442D01*
X112810471Y-96685100D01*
X112843128Y-96717757D01*
X113104385Y-96717757D02*
X113137042Y-96685100D01*
X113202357Y-96652442D01*
X113365642Y-96652442D01*
X113430957Y-96685100D01*
X113463614Y-96717757D01*
X113496271Y-96783071D01*
X113496271Y-96848385D01*
X113463614Y-96946357D01*
X113071728Y-97338242D01*
X113496271Y-97338242D01*
X113757528Y-96717757D02*
X113790185Y-96685100D01*
X113855500Y-96652442D01*
X114018785Y-96652442D01*
X114084100Y-96685100D01*
X114116757Y-96717757D01*
X114149414Y-96783071D01*
X114149414Y-96848385D01*
X114116757Y-96946357D01*
X113724871Y-97338242D01*
X114149414Y-97338242D01*
X131893128Y-97272928D02*
X131860471Y-97305585D01*
X131762500Y-97338242D01*
X131697185Y-97338242D01*
X131599214Y-97305585D01*
X131533900Y-97240271D01*
X131501242Y-97174957D01*
X131468585Y-97044328D01*
X131468585Y-96946357D01*
X131501242Y-96815728D01*
X131533900Y-96750414D01*
X131599214Y-96685100D01*
X131697185Y-96652442D01*
X131762500Y-96652442D01*
X131860471Y-96685100D01*
X131893128Y-96717757D01*
X132154385Y-96717757D02*
X132187042Y-96685100D01*
X132252357Y-96652442D01*
X132415642Y-96652442D01*
X132480957Y-96685100D01*
X132513614Y-96717757D01*
X132546271Y-96783071D01*
X132546271Y-96848385D01*
X132513614Y-96946357D01*
X132121728Y-97338242D01*
X132546271Y-97338242D01*
X132774871Y-96652442D02*
X133199414Y-96652442D01*
X132970814Y-96913700D01*
X133068785Y-96913700D01*
X133134100Y-96946357D01*
X133166757Y-96979014D01*
X133199414Y-97044328D01*
X133199414Y-97207614D01*
X133166757Y-97272928D01*
X133134100Y-97305585D01*
X133068785Y-97338242D01*
X132872842Y-97338242D01*
X132807528Y-97305585D01*
X132774871Y-97272928D01*
X128663700Y-99624242D02*
X128435100Y-99297671D01*
X128271814Y-99624242D02*
X128271814Y-98938442D01*
X128533071Y-98938442D01*
X128598385Y-98971100D01*
X128631042Y-99003757D01*
X128663700Y-99069071D01*
X128663700Y-99167042D01*
X128631042Y-99232357D01*
X128598385Y-99265014D01*
X128533071Y-99297671D01*
X128271814Y-99297671D01*
X129316842Y-99624242D02*
X128924957Y-99624242D01*
X129120900Y-99624242D02*
X129120900Y-98938442D01*
X129055585Y-99036414D01*
X128990271Y-99101728D01*
X128924957Y-99134385D01*
X111308242Y-59042300D02*
X110981671Y-59270900D01*
X111308242Y-59434185D02*
X110622442Y-59434185D01*
X110622442Y-59172928D01*
X110655100Y-59107614D01*
X110687757Y-59074957D01*
X110753071Y-59042300D01*
X110851042Y-59042300D01*
X110916357Y-59074957D01*
X110949014Y-59107614D01*
X110981671Y-59172928D01*
X110981671Y-59434185D01*
X110687757Y-58781042D02*
X110655100Y-58748385D01*
X110622442Y-58683071D01*
X110622442Y-58519785D01*
X110655100Y-58454471D01*
X110687757Y-58421814D01*
X110753071Y-58389157D01*
X110818385Y-58389157D01*
X110916357Y-58421814D01*
X111308242Y-58813700D01*
X111308242Y-58389157D01*
X111645700Y-57714242D02*
X111417100Y-57387671D01*
X111253814Y-57714242D02*
X111253814Y-57028442D01*
X111515071Y-57028442D01*
X111580385Y-57061100D01*
X111613042Y-57093757D01*
X111645700Y-57159071D01*
X111645700Y-57257042D01*
X111613042Y-57322357D01*
X111580385Y-57355014D01*
X111515071Y-57387671D01*
X111253814Y-57387671D01*
X111874300Y-57028442D02*
X112298842Y-57028442D01*
X112070242Y-57289700D01*
X112168214Y-57289700D01*
X112233528Y-57322357D01*
X112266185Y-57355014D01*
X112298842Y-57420328D01*
X112298842Y-57583614D01*
X112266185Y-57648928D01*
X112233528Y-57681585D01*
X112168214Y-57714242D01*
X111972271Y-57714242D01*
X111906957Y-57681585D01*
X111874300Y-57648928D01*
X118503700Y-54666242D02*
X118275100Y-54339671D01*
X118111814Y-54666242D02*
X118111814Y-53980442D01*
X118373071Y-53980442D01*
X118438385Y-54013100D01*
X118471042Y-54045757D01*
X118503700Y-54111071D01*
X118503700Y-54209042D01*
X118471042Y-54274357D01*
X118438385Y-54307014D01*
X118373071Y-54339671D01*
X118111814Y-54339671D01*
X119091528Y-54209042D02*
X119091528Y-54666242D01*
X118928242Y-53947785D02*
X118764957Y-54437642D01*
X119189500Y-54437642D01*
X116725700Y-54666242D02*
X116497100Y-54339671D01*
X116333814Y-54666242D02*
X116333814Y-53980442D01*
X116595071Y-53980442D01*
X116660385Y-54013100D01*
X116693042Y-54045757D01*
X116725700Y-54111071D01*
X116725700Y-54209042D01*
X116693042Y-54274357D01*
X116660385Y-54307014D01*
X116595071Y-54339671D01*
X116333814Y-54339671D01*
X117346185Y-53980442D02*
X117019614Y-53980442D01*
X116986957Y-54307014D01*
X117019614Y-54274357D01*
X117084928Y-54241700D01*
X117248214Y-54241700D01*
X117313528Y-54274357D01*
X117346185Y-54307014D01*
X117378842Y-54372328D01*
X117378842Y-54535614D01*
X117346185Y-54600928D01*
X117313528Y-54633585D01*
X117248214Y-54666242D01*
X117084928Y-54666242D01*
X117019614Y-54633585D01*
X116986957Y-54600928D01*
X115963700Y-58222242D02*
X115735100Y-57895671D01*
X115571814Y-58222242D02*
X115571814Y-57536442D01*
X115833071Y-57536442D01*
X115898385Y-57569100D01*
X115931042Y-57601757D01*
X115963700Y-57667071D01*
X115963700Y-57765042D01*
X115931042Y-57830357D01*
X115898385Y-57863014D01*
X115833071Y-57895671D01*
X115571814Y-57895671D01*
X116551528Y-57536442D02*
X116420900Y-57536442D01*
X116355585Y-57569100D01*
X116322928Y-57601757D01*
X116257614Y-57699728D01*
X116224957Y-57830357D01*
X116224957Y-58091614D01*
X116257614Y-58156928D01*
X116290271Y-58189585D01*
X116355585Y-58222242D01*
X116486214Y-58222242D01*
X116551528Y-58189585D01*
X116584185Y-58156928D01*
X116616842Y-58091614D01*
X116616842Y-57928328D01*
X116584185Y-57863014D01*
X116551528Y-57830357D01*
X116486214Y-57797700D01*
X116355585Y-57797700D01*
X116290271Y-57830357D01*
X116257614Y-57863014D01*
X116224957Y-57928328D01*
X111645700Y-61016242D02*
X111417100Y-60689671D01*
X111253814Y-61016242D02*
X111253814Y-60330442D01*
X111515071Y-60330442D01*
X111580385Y-60363100D01*
X111613042Y-60395757D01*
X111645700Y-60461071D01*
X111645700Y-60559042D01*
X111613042Y-60624357D01*
X111580385Y-60657014D01*
X111515071Y-60689671D01*
X111253814Y-60689671D01*
X111874300Y-60330442D02*
X112331500Y-60330442D01*
X112037585Y-61016242D01*
X118249700Y-64064242D02*
X118021100Y-63737671D01*
X117857814Y-64064242D02*
X117857814Y-63378442D01*
X118119071Y-63378442D01*
X118184385Y-63411100D01*
X118217042Y-63443757D01*
X118249700Y-63509071D01*
X118249700Y-63607042D01*
X118217042Y-63672357D01*
X118184385Y-63705014D01*
X118119071Y-63737671D01*
X117857814Y-63737671D01*
X118641585Y-63672357D02*
X118576271Y-63639700D01*
X118543614Y-63607042D01*
X118510957Y-63541728D01*
X118510957Y-63509071D01*
X118543614Y-63443757D01*
X118576271Y-63411100D01*
X118641585Y-63378442D01*
X118772214Y-63378442D01*
X118837528Y-63411100D01*
X118870185Y-63443757D01*
X118902842Y-63509071D01*
X118902842Y-63541728D01*
X118870185Y-63607042D01*
X118837528Y-63639700D01*
X118772214Y-63672357D01*
X118641585Y-63672357D01*
X118576271Y-63705014D01*
X118543614Y-63737671D01*
X118510957Y-63802985D01*
X118510957Y-63933614D01*
X118543614Y-63998928D01*
X118576271Y-64031585D01*
X118641585Y-64064242D01*
X118772214Y-64064242D01*
X118837528Y-64031585D01*
X118870185Y-63998928D01*
X118902842Y-63933614D01*
X118902842Y-63802985D01*
X118870185Y-63737671D01*
X118837528Y-63705014D01*
X118772214Y-63672357D01*
X116471700Y-64064242D02*
X116243100Y-63737671D01*
X116079814Y-64064242D02*
X116079814Y-63378442D01*
X116341071Y-63378442D01*
X116406385Y-63411100D01*
X116439042Y-63443757D01*
X116471700Y-63509071D01*
X116471700Y-63607042D01*
X116439042Y-63672357D01*
X116406385Y-63705014D01*
X116341071Y-63737671D01*
X116079814Y-63737671D01*
X116798271Y-64064242D02*
X116928900Y-64064242D01*
X116994214Y-64031585D01*
X117026871Y-63998928D01*
X117092185Y-63900957D01*
X117124842Y-63770328D01*
X117124842Y-63509071D01*
X117092185Y-63443757D01*
X117059528Y-63411100D01*
X116994214Y-63378442D01*
X116863585Y-63378442D01*
X116798271Y-63411100D01*
X116765614Y-63443757D01*
X116732957Y-63509071D01*
X116732957Y-63672357D01*
X116765614Y-63737671D01*
X116798271Y-63770328D01*
X116863585Y-63802985D01*
X116994214Y-63802985D01*
X117059528Y-63770328D01*
X117092185Y-63737671D01*
X117124842Y-63672357D01*
X129607128Y-58222242D02*
X129378528Y-57895671D01*
X129215242Y-58222242D02*
X129215242Y-57536442D01*
X129476500Y-57536442D01*
X129541814Y-57569100D01*
X129574471Y-57601757D01*
X129607128Y-57667071D01*
X129607128Y-57765042D01*
X129574471Y-57830357D01*
X129541814Y-57863014D01*
X129476500Y-57895671D01*
X129215242Y-57895671D01*
X130260271Y-58222242D02*
X129868385Y-58222242D01*
X130064328Y-58222242D02*
X130064328Y-57536442D01*
X129999014Y-57634414D01*
X129933700Y-57699728D01*
X129868385Y-57732385D01*
X130684814Y-57536442D02*
X130750128Y-57536442D01*
X130815442Y-57569100D01*
X130848100Y-57601757D01*
X130880757Y-57667071D01*
X130913414Y-57797700D01*
X130913414Y-57960985D01*
X130880757Y-58091614D01*
X130848100Y-58156928D01*
X130815442Y-58189585D01*
X130750128Y-58222242D01*
X130684814Y-58222242D01*
X130619500Y-58189585D01*
X130586842Y-58156928D01*
X130554185Y-58091614D01*
X130521528Y-57960985D01*
X130521528Y-57797700D01*
X130554185Y-57667071D01*
X130586842Y-57601757D01*
X130619500Y-57569100D01*
X130684814Y-57536442D01*
X134433128Y-61016242D02*
X134204528Y-60689671D01*
X134041242Y-61016242D02*
X134041242Y-60330442D01*
X134302500Y-60330442D01*
X134367814Y-60363100D01*
X134400471Y-60395757D01*
X134433128Y-60461071D01*
X134433128Y-60559042D01*
X134400471Y-60624357D01*
X134367814Y-60657014D01*
X134302500Y-60689671D01*
X134041242Y-60689671D01*
X135086271Y-61016242D02*
X134694385Y-61016242D01*
X134890328Y-61016242D02*
X134890328Y-60330442D01*
X134825014Y-60428414D01*
X134759700Y-60493728D01*
X134694385Y-60526385D01*
X135739414Y-61016242D02*
X135347528Y-61016242D01*
X135543471Y-61016242D02*
X135543471Y-60330442D01*
X135478157Y-60428414D01*
X135412842Y-60493728D01*
X135347528Y-60526385D01*
X127321128Y-64064242D02*
X127092528Y-63737671D01*
X126929242Y-64064242D02*
X126929242Y-63378442D01*
X127190500Y-63378442D01*
X127255814Y-63411100D01*
X127288471Y-63443757D01*
X127321128Y-63509071D01*
X127321128Y-63607042D01*
X127288471Y-63672357D01*
X127255814Y-63705014D01*
X127190500Y-63737671D01*
X126929242Y-63737671D01*
X127974271Y-64064242D02*
X127582385Y-64064242D01*
X127778328Y-64064242D02*
X127778328Y-63378442D01*
X127713014Y-63476414D01*
X127647700Y-63541728D01*
X127582385Y-63574385D01*
X128235528Y-63443757D02*
X128268185Y-63411100D01*
X128333500Y-63378442D01*
X128496785Y-63378442D01*
X128562100Y-63411100D01*
X128594757Y-63443757D01*
X128627414Y-63509071D01*
X128627414Y-63574385D01*
X128594757Y-63672357D01*
X128202871Y-64064242D01*
X128627414Y-64064242D01*
X135692242Y-59368871D02*
X135365671Y-59597471D01*
X135692242Y-59760757D02*
X135006442Y-59760757D01*
X135006442Y-59499500D01*
X135039100Y-59434185D01*
X135071757Y-59401528D01*
X135137071Y-59368871D01*
X135235042Y-59368871D01*
X135300357Y-59401528D01*
X135333014Y-59434185D01*
X135365671Y-59499500D01*
X135365671Y-59760757D01*
X135692242Y-58715728D02*
X135692242Y-59107614D01*
X135692242Y-58911671D02*
X135006442Y-58911671D01*
X135104414Y-58976985D01*
X135169728Y-59042300D01*
X135202385Y-59107614D01*
X135235042Y-58127900D02*
X135692242Y-58127900D01*
X134973785Y-58291185D02*
X135463642Y-58454471D01*
X135463642Y-58029928D01*
X134433128Y-57714242D02*
X134204528Y-57387671D01*
X134041242Y-57714242D02*
X134041242Y-57028442D01*
X134302500Y-57028442D01*
X134367814Y-57061100D01*
X134400471Y-57093757D01*
X134433128Y-57159071D01*
X134433128Y-57257042D01*
X134400471Y-57322357D01*
X134367814Y-57355014D01*
X134302500Y-57387671D01*
X134041242Y-57387671D01*
X135086271Y-57714242D02*
X134694385Y-57714242D01*
X134890328Y-57714242D02*
X134890328Y-57028442D01*
X134825014Y-57126414D01*
X134759700Y-57191728D01*
X134694385Y-57224385D01*
X135706757Y-57028442D02*
X135380185Y-57028442D01*
X135347528Y-57355014D01*
X135380185Y-57322357D01*
X135445500Y-57289700D01*
X135608785Y-57289700D01*
X135674100Y-57322357D01*
X135706757Y-57355014D01*
X135739414Y-57420328D01*
X135739414Y-57583614D01*
X135706757Y-57648928D01*
X135674100Y-57681585D01*
X135608785Y-57714242D01*
X135445500Y-57714242D01*
X135380185Y-57681585D01*
X135347528Y-57648928D01*
X127321128Y-54666242D02*
X127092528Y-54339671D01*
X126929242Y-54666242D02*
X126929242Y-53980442D01*
X127190500Y-53980442D01*
X127255814Y-54013100D01*
X127288471Y-54045757D01*
X127321128Y-54111071D01*
X127321128Y-54209042D01*
X127288471Y-54274357D01*
X127255814Y-54307014D01*
X127190500Y-54339671D01*
X126929242Y-54339671D01*
X127974271Y-54666242D02*
X127582385Y-54666242D01*
X127778328Y-54666242D02*
X127778328Y-53980442D01*
X127713014Y-54078414D01*
X127647700Y-54143728D01*
X127582385Y-54176385D01*
X128562100Y-53980442D02*
X128431471Y-53980442D01*
X128366157Y-54013100D01*
X128333500Y-54045757D01*
X128268185Y-54143728D01*
X128235528Y-54274357D01*
X128235528Y-54535614D01*
X128268185Y-54600928D01*
X128300842Y-54633585D01*
X128366157Y-54666242D01*
X128496785Y-54666242D01*
X128562100Y-54633585D01*
X128594757Y-54600928D01*
X128627414Y-54535614D01*
X128627414Y-54372328D01*
X128594757Y-54307014D01*
X128562100Y-54274357D01*
X128496785Y-54241700D01*
X128366157Y-54241700D01*
X128300842Y-54274357D01*
X128268185Y-54307014D01*
X128235528Y-54372328D01*
X129861128Y-54666242D02*
X129632528Y-54339671D01*
X129469242Y-54666242D02*
X129469242Y-53980442D01*
X129730500Y-53980442D01*
X129795814Y-54013100D01*
X129828471Y-54045757D01*
X129861128Y-54111071D01*
X129861128Y-54209042D01*
X129828471Y-54274357D01*
X129795814Y-54307014D01*
X129730500Y-54339671D01*
X129469242Y-54339671D01*
X130514271Y-54666242D02*
X130122385Y-54666242D01*
X130318328Y-54666242D02*
X130318328Y-53980442D01*
X130253014Y-54078414D01*
X130187700Y-54143728D01*
X130122385Y-54176385D01*
X130742871Y-53980442D02*
X131200071Y-53980442D01*
X130906157Y-54666242D01*
X111308242Y-69528871D02*
X110981671Y-69757471D01*
X111308242Y-69920757D02*
X110622442Y-69920757D01*
X110622442Y-69659500D01*
X110655100Y-69594185D01*
X110687757Y-69561528D01*
X110753071Y-69528871D01*
X110851042Y-69528871D01*
X110916357Y-69561528D01*
X110949014Y-69594185D01*
X110981671Y-69659500D01*
X110981671Y-69920757D01*
X111308242Y-68875728D02*
X111308242Y-69267614D01*
X111308242Y-69071671D02*
X110622442Y-69071671D01*
X110720414Y-69136985D01*
X110785728Y-69202300D01*
X110818385Y-69267614D01*
X110916357Y-68483842D02*
X110883700Y-68549157D01*
X110851042Y-68581814D01*
X110785728Y-68614471D01*
X110753071Y-68614471D01*
X110687757Y-68581814D01*
X110655100Y-68549157D01*
X110622442Y-68483842D01*
X110622442Y-68353214D01*
X110655100Y-68287900D01*
X110687757Y-68255242D01*
X110753071Y-68222585D01*
X110785728Y-68222585D01*
X110851042Y-68255242D01*
X110883700Y-68287900D01*
X110916357Y-68353214D01*
X110916357Y-68483842D01*
X110949014Y-68549157D01*
X110981671Y-68581814D01*
X111046985Y-68614471D01*
X111177614Y-68614471D01*
X111242928Y-68581814D01*
X111275585Y-68549157D01*
X111308242Y-68483842D01*
X111308242Y-68353214D01*
X111275585Y-68287900D01*
X111242928Y-68255242D01*
X111177614Y-68222585D01*
X111046985Y-68222585D01*
X110981671Y-68255242D01*
X110949014Y-68287900D01*
X110916357Y-68353214D01*
X111065128Y-67874242D02*
X110836528Y-67547671D01*
X110673242Y-67874242D02*
X110673242Y-67188442D01*
X110934500Y-67188442D01*
X110999814Y-67221100D01*
X111032471Y-67253757D01*
X111065128Y-67319071D01*
X111065128Y-67417042D01*
X111032471Y-67482357D01*
X110999814Y-67515014D01*
X110934500Y-67547671D01*
X110673242Y-67547671D01*
X111718271Y-67874242D02*
X111326385Y-67874242D01*
X111522328Y-67874242D02*
X111522328Y-67188442D01*
X111457014Y-67286414D01*
X111391700Y-67351728D01*
X111326385Y-67384385D01*
X112044842Y-67874242D02*
X112175471Y-67874242D01*
X112240785Y-67841585D01*
X112273442Y-67808928D01*
X112338757Y-67710957D01*
X112371414Y-67580328D01*
X112371414Y-67319071D01*
X112338757Y-67253757D01*
X112306100Y-67221100D01*
X112240785Y-67188442D01*
X112110157Y-67188442D01*
X112044842Y-67221100D01*
X112012185Y-67253757D01*
X111979528Y-67319071D01*
X111979528Y-67482357D01*
X112012185Y-67547671D01*
X112044842Y-67580328D01*
X112110157Y-67612985D01*
X112240785Y-67612985D01*
X112306100Y-67580328D01*
X112338757Y-67547671D01*
X112371414Y-67482357D01*
X117923128Y-65080242D02*
X117694528Y-64753671D01*
X117531242Y-65080242D02*
X117531242Y-64394442D01*
X117792500Y-64394442D01*
X117857814Y-64427100D01*
X117890471Y-64459757D01*
X117923128Y-64525071D01*
X117923128Y-64623042D01*
X117890471Y-64688357D01*
X117857814Y-64721014D01*
X117792500Y-64753671D01*
X117531242Y-64753671D01*
X118184385Y-64459757D02*
X118217042Y-64427100D01*
X118282357Y-64394442D01*
X118445642Y-64394442D01*
X118510957Y-64427100D01*
X118543614Y-64459757D01*
X118576271Y-64525071D01*
X118576271Y-64590385D01*
X118543614Y-64688357D01*
X118151728Y-65080242D01*
X118576271Y-65080242D01*
X119000814Y-64394442D02*
X119066128Y-64394442D01*
X119131442Y-64427100D01*
X119164100Y-64459757D01*
X119196757Y-64525071D01*
X119229414Y-64655700D01*
X119229414Y-64818985D01*
X119196757Y-64949614D01*
X119164100Y-65014928D01*
X119131442Y-65047585D01*
X119066128Y-65080242D01*
X119000814Y-65080242D01*
X118935500Y-65047585D01*
X118902842Y-65014928D01*
X118870185Y-64949614D01*
X118837528Y-64818985D01*
X118837528Y-64655700D01*
X118870185Y-64525071D01*
X118902842Y-64459757D01*
X118935500Y-64427100D01*
X119000814Y-64394442D01*
X115891128Y-65080242D02*
X115662528Y-64753671D01*
X115499242Y-65080242D02*
X115499242Y-64394442D01*
X115760500Y-64394442D01*
X115825814Y-64427100D01*
X115858471Y-64459757D01*
X115891128Y-64525071D01*
X115891128Y-64623042D01*
X115858471Y-64688357D01*
X115825814Y-64721014D01*
X115760500Y-64753671D01*
X115499242Y-64753671D01*
X116152385Y-64459757D02*
X116185042Y-64427100D01*
X116250357Y-64394442D01*
X116413642Y-64394442D01*
X116478957Y-64427100D01*
X116511614Y-64459757D01*
X116544271Y-64525071D01*
X116544271Y-64590385D01*
X116511614Y-64688357D01*
X116119728Y-65080242D01*
X116544271Y-65080242D01*
X117197414Y-65080242D02*
X116805528Y-65080242D01*
X117001471Y-65080242D02*
X117001471Y-64394442D01*
X116936157Y-64492414D01*
X116870842Y-64557728D01*
X116805528Y-64590385D01*
X115891128Y-68382242D02*
X115662528Y-68055671D01*
X115499242Y-68382242D02*
X115499242Y-67696442D01*
X115760500Y-67696442D01*
X115825814Y-67729100D01*
X115858471Y-67761757D01*
X115891128Y-67827071D01*
X115891128Y-67925042D01*
X115858471Y-67990357D01*
X115825814Y-68023014D01*
X115760500Y-68055671D01*
X115499242Y-68055671D01*
X116152385Y-67761757D02*
X116185042Y-67729100D01*
X116250357Y-67696442D01*
X116413642Y-67696442D01*
X116478957Y-67729100D01*
X116511614Y-67761757D01*
X116544271Y-67827071D01*
X116544271Y-67892385D01*
X116511614Y-67990357D01*
X116119728Y-68382242D01*
X116544271Y-68382242D01*
X116805528Y-67761757D02*
X116838185Y-67729100D01*
X116903500Y-67696442D01*
X117066785Y-67696442D01*
X117132100Y-67729100D01*
X117164757Y-67761757D01*
X117197414Y-67827071D01*
X117197414Y-67892385D01*
X117164757Y-67990357D01*
X116772871Y-68382242D01*
X117197414Y-68382242D01*
X111065128Y-71176242D02*
X110836528Y-70849671D01*
X110673242Y-71176242D02*
X110673242Y-70490442D01*
X110934500Y-70490442D01*
X110999814Y-70523100D01*
X111032471Y-70555757D01*
X111065128Y-70621071D01*
X111065128Y-70719042D01*
X111032471Y-70784357D01*
X110999814Y-70817014D01*
X110934500Y-70849671D01*
X110673242Y-70849671D01*
X111326385Y-70555757D02*
X111359042Y-70523100D01*
X111424357Y-70490442D01*
X111587642Y-70490442D01*
X111652957Y-70523100D01*
X111685614Y-70555757D01*
X111718271Y-70621071D01*
X111718271Y-70686385D01*
X111685614Y-70784357D01*
X111293728Y-71176242D01*
X111718271Y-71176242D01*
X111946871Y-70490442D02*
X112371414Y-70490442D01*
X112142814Y-70751700D01*
X112240785Y-70751700D01*
X112306100Y-70784357D01*
X112338757Y-70817014D01*
X112371414Y-70882328D01*
X112371414Y-71045614D01*
X112338757Y-71110928D01*
X112306100Y-71143585D01*
X112240785Y-71176242D01*
X112044842Y-71176242D01*
X111979528Y-71143585D01*
X111946871Y-71110928D01*
X118420242Y-70798871D02*
X118093671Y-71027471D01*
X118420242Y-71190757D02*
X117734442Y-71190757D01*
X117734442Y-70929500D01*
X117767100Y-70864185D01*
X117799757Y-70831528D01*
X117865071Y-70798871D01*
X117963042Y-70798871D01*
X118028357Y-70831528D01*
X118061014Y-70864185D01*
X118093671Y-70929500D01*
X118093671Y-71190757D01*
X117799757Y-70537614D02*
X117767100Y-70504957D01*
X117734442Y-70439642D01*
X117734442Y-70276357D01*
X117767100Y-70211042D01*
X117799757Y-70178385D01*
X117865071Y-70145728D01*
X117930385Y-70145728D01*
X118028357Y-70178385D01*
X118420242Y-70570271D01*
X118420242Y-70145728D01*
X117963042Y-69557900D02*
X118420242Y-69557900D01*
X117701785Y-69721185D02*
X118191642Y-69884471D01*
X118191642Y-69459928D01*
X115880242Y-72830871D02*
X115553671Y-73059471D01*
X115880242Y-73222757D02*
X115194442Y-73222757D01*
X115194442Y-72961500D01*
X115227100Y-72896185D01*
X115259757Y-72863528D01*
X115325071Y-72830871D01*
X115423042Y-72830871D01*
X115488357Y-72863528D01*
X115521014Y-72896185D01*
X115553671Y-72961500D01*
X115553671Y-73222757D01*
X115259757Y-72569614D02*
X115227100Y-72536957D01*
X115194442Y-72471642D01*
X115194442Y-72308357D01*
X115227100Y-72243042D01*
X115259757Y-72210385D01*
X115325071Y-72177728D01*
X115390385Y-72177728D01*
X115488357Y-72210385D01*
X115880242Y-72602271D01*
X115880242Y-72177728D01*
X115194442Y-71557242D02*
X115194442Y-71883814D01*
X115521014Y-71916471D01*
X115488357Y-71883814D01*
X115455700Y-71818500D01*
X115455700Y-71655214D01*
X115488357Y-71589900D01*
X115521014Y-71557242D01*
X115586328Y-71524585D01*
X115749614Y-71524585D01*
X115814928Y-71557242D01*
X115847585Y-71589900D01*
X115880242Y-71655214D01*
X115880242Y-71818500D01*
X115847585Y-71883814D01*
X115814928Y-71916471D01*
X129607128Y-68636242D02*
X129378528Y-68309671D01*
X129215242Y-68636242D02*
X129215242Y-67950442D01*
X129476500Y-67950442D01*
X129541814Y-67983100D01*
X129574471Y-68015757D01*
X129607128Y-68081071D01*
X129607128Y-68179042D01*
X129574471Y-68244357D01*
X129541814Y-68277014D01*
X129476500Y-68309671D01*
X129215242Y-68309671D01*
X129868385Y-68015757D02*
X129901042Y-67983100D01*
X129966357Y-67950442D01*
X130129642Y-67950442D01*
X130194957Y-67983100D01*
X130227614Y-68015757D01*
X130260271Y-68081071D01*
X130260271Y-68146385D01*
X130227614Y-68244357D01*
X129835728Y-68636242D01*
X130260271Y-68636242D01*
X130848100Y-67950442D02*
X130717471Y-67950442D01*
X130652157Y-67983100D01*
X130619500Y-68015757D01*
X130554185Y-68113728D01*
X130521528Y-68244357D01*
X130521528Y-68505614D01*
X130554185Y-68570928D01*
X130586842Y-68603585D01*
X130652157Y-68636242D01*
X130782785Y-68636242D01*
X130848100Y-68603585D01*
X130880757Y-68570928D01*
X130913414Y-68505614D01*
X130913414Y-68342328D01*
X130880757Y-68277014D01*
X130848100Y-68244357D01*
X130782785Y-68211700D01*
X130652157Y-68211700D01*
X130586842Y-68244357D01*
X130554185Y-68277014D01*
X130521528Y-68342328D01*
X134433128Y-71176242D02*
X134204528Y-70849671D01*
X134041242Y-71176242D02*
X134041242Y-70490442D01*
X134302500Y-70490442D01*
X134367814Y-70523100D01*
X134400471Y-70555757D01*
X134433128Y-70621071D01*
X134433128Y-70719042D01*
X134400471Y-70784357D01*
X134367814Y-70817014D01*
X134302500Y-70849671D01*
X134041242Y-70849671D01*
X134694385Y-70555757D02*
X134727042Y-70523100D01*
X134792357Y-70490442D01*
X134955642Y-70490442D01*
X135020957Y-70523100D01*
X135053614Y-70555757D01*
X135086271Y-70621071D01*
X135086271Y-70686385D01*
X135053614Y-70784357D01*
X134661728Y-71176242D01*
X135086271Y-71176242D01*
X135314871Y-70490442D02*
X135772071Y-70490442D01*
X135478157Y-71176242D01*
X131120242Y-72830871D02*
X130793671Y-73059471D01*
X131120242Y-73222757D02*
X130434442Y-73222757D01*
X130434442Y-72961500D01*
X130467100Y-72896185D01*
X130499757Y-72863528D01*
X130565071Y-72830871D01*
X130663042Y-72830871D01*
X130728357Y-72863528D01*
X130761014Y-72896185D01*
X130793671Y-72961500D01*
X130793671Y-73222757D01*
X130499757Y-72569614D02*
X130467100Y-72536957D01*
X130434442Y-72471642D01*
X130434442Y-72308357D01*
X130467100Y-72243042D01*
X130499757Y-72210385D01*
X130565071Y-72177728D01*
X130630385Y-72177728D01*
X130728357Y-72210385D01*
X131120242Y-72602271D01*
X131120242Y-72177728D01*
X130728357Y-71785842D02*
X130695700Y-71851157D01*
X130663042Y-71883814D01*
X130597728Y-71916471D01*
X130565071Y-71916471D01*
X130499757Y-71883814D01*
X130467100Y-71851157D01*
X130434442Y-71785842D01*
X130434442Y-71655214D01*
X130467100Y-71589900D01*
X130499757Y-71557242D01*
X130565071Y-71524585D01*
X130597728Y-71524585D01*
X130663042Y-71557242D01*
X130695700Y-71589900D01*
X130728357Y-71655214D01*
X130728357Y-71785842D01*
X130761014Y-71851157D01*
X130793671Y-71883814D01*
X130858985Y-71916471D01*
X130989614Y-71916471D01*
X131054928Y-71883814D01*
X131087585Y-71851157D01*
X131120242Y-71785842D01*
X131120242Y-71655214D01*
X131087585Y-71589900D01*
X131054928Y-71557242D01*
X130989614Y-71524585D01*
X130858985Y-71524585D01*
X130793671Y-71557242D01*
X130761014Y-71589900D01*
X130728357Y-71655214D01*
X128580242Y-70798871D02*
X128253671Y-71027471D01*
X128580242Y-71190757D02*
X127894442Y-71190757D01*
X127894442Y-70929500D01*
X127927100Y-70864185D01*
X127959757Y-70831528D01*
X128025071Y-70798871D01*
X128123042Y-70798871D01*
X128188357Y-70831528D01*
X128221014Y-70864185D01*
X128253671Y-70929500D01*
X128253671Y-71190757D01*
X127959757Y-70537614D02*
X127927100Y-70504957D01*
X127894442Y-70439642D01*
X127894442Y-70276357D01*
X127927100Y-70211042D01*
X127959757Y-70178385D01*
X128025071Y-70145728D01*
X128090385Y-70145728D01*
X128188357Y-70178385D01*
X128580242Y-70570271D01*
X128580242Y-70145728D01*
X128580242Y-69819157D02*
X128580242Y-69688528D01*
X128547585Y-69623214D01*
X128514928Y-69590557D01*
X128416957Y-69525242D01*
X128286328Y-69492585D01*
X128025071Y-69492585D01*
X127959757Y-69525242D01*
X127927100Y-69557900D01*
X127894442Y-69623214D01*
X127894442Y-69753842D01*
X127927100Y-69819157D01*
X127959757Y-69851814D01*
X128025071Y-69884471D01*
X128188357Y-69884471D01*
X128253671Y-69851814D01*
X128286328Y-69819157D01*
X128318985Y-69753842D01*
X128318985Y-69623214D01*
X128286328Y-69557900D01*
X128253671Y-69525242D01*
X128188357Y-69492585D01*
X135692242Y-69528871D02*
X135365671Y-69757471D01*
X135692242Y-69920757D02*
X135006442Y-69920757D01*
X135006442Y-69659500D01*
X135039100Y-69594185D01*
X135071757Y-69561528D01*
X135137071Y-69528871D01*
X135235042Y-69528871D01*
X135300357Y-69561528D01*
X135333014Y-69594185D01*
X135365671Y-69659500D01*
X135365671Y-69920757D01*
X135006442Y-69300271D02*
X135006442Y-68875728D01*
X135267700Y-69104328D01*
X135267700Y-69006357D01*
X135300357Y-68941042D01*
X135333014Y-68908385D01*
X135398328Y-68875728D01*
X135561614Y-68875728D01*
X135626928Y-68908385D01*
X135659585Y-68941042D01*
X135692242Y-69006357D01*
X135692242Y-69202300D01*
X135659585Y-69267614D01*
X135626928Y-69300271D01*
X135006442Y-68451185D02*
X135006442Y-68385871D01*
X135039100Y-68320557D01*
X135071757Y-68287900D01*
X135137071Y-68255242D01*
X135267700Y-68222585D01*
X135430985Y-68222585D01*
X135561614Y-68255242D01*
X135626928Y-68287900D01*
X135659585Y-68320557D01*
X135692242Y-68385871D01*
X135692242Y-68451185D01*
X135659585Y-68516500D01*
X135626928Y-68549157D01*
X135561614Y-68581814D01*
X135430985Y-68614471D01*
X135267700Y-68614471D01*
X135137071Y-68581814D01*
X135071757Y-68549157D01*
X135039100Y-68516500D01*
X135006442Y-68451185D01*
X134433128Y-67874242D02*
X134204528Y-67547671D01*
X134041242Y-67874242D02*
X134041242Y-67188442D01*
X134302500Y-67188442D01*
X134367814Y-67221100D01*
X134400471Y-67253757D01*
X134433128Y-67319071D01*
X134433128Y-67417042D01*
X134400471Y-67482357D01*
X134367814Y-67515014D01*
X134302500Y-67547671D01*
X134041242Y-67547671D01*
X134661728Y-67188442D02*
X135086271Y-67188442D01*
X134857671Y-67449700D01*
X134955642Y-67449700D01*
X135020957Y-67482357D01*
X135053614Y-67515014D01*
X135086271Y-67580328D01*
X135086271Y-67743614D01*
X135053614Y-67808928D01*
X135020957Y-67841585D01*
X134955642Y-67874242D01*
X134759700Y-67874242D01*
X134694385Y-67841585D01*
X134661728Y-67808928D01*
X135739414Y-67874242D02*
X135347528Y-67874242D01*
X135543471Y-67874242D02*
X135543471Y-67188442D01*
X135478157Y-67286414D01*
X135412842Y-67351728D01*
X135347528Y-67384385D01*
X127321128Y-65080242D02*
X127092528Y-64753671D01*
X126929242Y-65080242D02*
X126929242Y-64394442D01*
X127190500Y-64394442D01*
X127255814Y-64427100D01*
X127288471Y-64459757D01*
X127321128Y-64525071D01*
X127321128Y-64623042D01*
X127288471Y-64688357D01*
X127255814Y-64721014D01*
X127190500Y-64753671D01*
X126929242Y-64753671D01*
X127549728Y-64394442D02*
X127974271Y-64394442D01*
X127745671Y-64655700D01*
X127843642Y-64655700D01*
X127908957Y-64688357D01*
X127941614Y-64721014D01*
X127974271Y-64786328D01*
X127974271Y-64949614D01*
X127941614Y-65014928D01*
X127908957Y-65047585D01*
X127843642Y-65080242D01*
X127647700Y-65080242D01*
X127582385Y-65047585D01*
X127549728Y-65014928D01*
X128235528Y-64459757D02*
X128268185Y-64427100D01*
X128333500Y-64394442D01*
X128496785Y-64394442D01*
X128562100Y-64427100D01*
X128594757Y-64459757D01*
X128627414Y-64525071D01*
X128627414Y-64590385D01*
X128594757Y-64688357D01*
X128202871Y-65080242D01*
X128627414Y-65080242D01*
X129861128Y-65080242D02*
X129632528Y-64753671D01*
X129469242Y-65080242D02*
X129469242Y-64394442D01*
X129730500Y-64394442D01*
X129795814Y-64427100D01*
X129828471Y-64459757D01*
X129861128Y-64525071D01*
X129861128Y-64623042D01*
X129828471Y-64688357D01*
X129795814Y-64721014D01*
X129730500Y-64753671D01*
X129469242Y-64753671D01*
X130089728Y-64394442D02*
X130514271Y-64394442D01*
X130285671Y-64655700D01*
X130383642Y-64655700D01*
X130448957Y-64688357D01*
X130481614Y-64721014D01*
X130514271Y-64786328D01*
X130514271Y-64949614D01*
X130481614Y-65014928D01*
X130448957Y-65047585D01*
X130383642Y-65080242D01*
X130187700Y-65080242D01*
X130122385Y-65047585D01*
X130089728Y-65014928D01*
X130742871Y-64394442D02*
X131167414Y-64394442D01*
X130938814Y-64655700D01*
X131036785Y-64655700D01*
X131102100Y-64688357D01*
X131134757Y-64721014D01*
X131167414Y-64786328D01*
X131167414Y-64949614D01*
X131134757Y-65014928D01*
X131102100Y-65047585D01*
X131036785Y-65080242D01*
X130840842Y-65080242D01*
X130775528Y-65047585D01*
X130742871Y-65014928D01*
X111308242Y-82228871D02*
X110981671Y-82457471D01*
X111308242Y-82620757D02*
X110622442Y-82620757D01*
X110622442Y-82359500D01*
X110655100Y-82294185D01*
X110687757Y-82261528D01*
X110753071Y-82228871D01*
X110851042Y-82228871D01*
X110916357Y-82261528D01*
X110949014Y-82294185D01*
X110981671Y-82359500D01*
X110981671Y-82620757D01*
X110622442Y-82000271D02*
X110622442Y-81575728D01*
X110883700Y-81804328D01*
X110883700Y-81706357D01*
X110916357Y-81641042D01*
X110949014Y-81608385D01*
X111014328Y-81575728D01*
X111177614Y-81575728D01*
X111242928Y-81608385D01*
X111275585Y-81641042D01*
X111308242Y-81706357D01*
X111308242Y-81902300D01*
X111275585Y-81967614D01*
X111242928Y-82000271D01*
X110851042Y-80987900D02*
X111308242Y-80987900D01*
X110589785Y-81151185D02*
X111079642Y-81314471D01*
X111079642Y-80889928D01*
X111065128Y-80574242D02*
X110836528Y-80247671D01*
X110673242Y-80574242D02*
X110673242Y-79888442D01*
X110934500Y-79888442D01*
X110999814Y-79921100D01*
X111032471Y-79953757D01*
X111065128Y-80019071D01*
X111065128Y-80117042D01*
X111032471Y-80182357D01*
X110999814Y-80215014D01*
X110934500Y-80247671D01*
X110673242Y-80247671D01*
X111293728Y-79888442D02*
X111718271Y-79888442D01*
X111489671Y-80149700D01*
X111587642Y-80149700D01*
X111652957Y-80182357D01*
X111685614Y-80215014D01*
X111718271Y-80280328D01*
X111718271Y-80443614D01*
X111685614Y-80508928D01*
X111652957Y-80541585D01*
X111587642Y-80574242D01*
X111391700Y-80574242D01*
X111326385Y-80541585D01*
X111293728Y-80508928D01*
X112338757Y-79888442D02*
X112012185Y-79888442D01*
X111979528Y-80215014D01*
X112012185Y-80182357D01*
X112077500Y-80149700D01*
X112240785Y-80149700D01*
X112306100Y-80182357D01*
X112338757Y-80215014D01*
X112371414Y-80280328D01*
X112371414Y-80443614D01*
X112338757Y-80508928D01*
X112306100Y-80541585D01*
X112240785Y-80574242D01*
X112077500Y-80574242D01*
X112012185Y-80541585D01*
X111979528Y-80508928D01*
X118420242Y-81212871D02*
X118093671Y-81441471D01*
X118420242Y-81604757D02*
X117734442Y-81604757D01*
X117734442Y-81343500D01*
X117767100Y-81278185D01*
X117799757Y-81245528D01*
X117865071Y-81212871D01*
X117963042Y-81212871D01*
X118028357Y-81245528D01*
X118061014Y-81278185D01*
X118093671Y-81343500D01*
X118093671Y-81604757D01*
X117734442Y-80984271D02*
X117734442Y-80559728D01*
X117995700Y-80788328D01*
X117995700Y-80690357D01*
X118028357Y-80625042D01*
X118061014Y-80592385D01*
X118126328Y-80559728D01*
X118289614Y-80559728D01*
X118354928Y-80592385D01*
X118387585Y-80625042D01*
X118420242Y-80690357D01*
X118420242Y-80886300D01*
X118387585Y-80951614D01*
X118354928Y-80984271D01*
X117734442Y-79971900D02*
X117734442Y-80102528D01*
X117767100Y-80167842D01*
X117799757Y-80200500D01*
X117897728Y-80265814D01*
X118028357Y-80298471D01*
X118289614Y-80298471D01*
X118354928Y-80265814D01*
X118387585Y-80233157D01*
X118420242Y-80167842D01*
X118420242Y-80037214D01*
X118387585Y-79971900D01*
X118354928Y-79939242D01*
X118289614Y-79906585D01*
X118126328Y-79906585D01*
X118061014Y-79939242D01*
X118028357Y-79971900D01*
X117995700Y-80037214D01*
X117995700Y-80167842D01*
X118028357Y-80233157D01*
X118061014Y-80265814D01*
X118126328Y-80298471D01*
X115880242Y-78926871D02*
X115553671Y-79155471D01*
X115880242Y-79318757D02*
X115194442Y-79318757D01*
X115194442Y-79057500D01*
X115227100Y-78992185D01*
X115259757Y-78959528D01*
X115325071Y-78926871D01*
X115423042Y-78926871D01*
X115488357Y-78959528D01*
X115521014Y-78992185D01*
X115553671Y-79057500D01*
X115553671Y-79318757D01*
X115194442Y-78698271D02*
X115194442Y-78273728D01*
X115455700Y-78502328D01*
X115455700Y-78404357D01*
X115488357Y-78339042D01*
X115521014Y-78306385D01*
X115586328Y-78273728D01*
X115749614Y-78273728D01*
X115814928Y-78306385D01*
X115847585Y-78339042D01*
X115880242Y-78404357D01*
X115880242Y-78600300D01*
X115847585Y-78665614D01*
X115814928Y-78698271D01*
X115194442Y-78045128D02*
X115194442Y-77587928D01*
X115880242Y-77881842D01*
X115891128Y-81082242D02*
X115662528Y-80755671D01*
X115499242Y-81082242D02*
X115499242Y-80396442D01*
X115760500Y-80396442D01*
X115825814Y-80429100D01*
X115858471Y-80461757D01*
X115891128Y-80527071D01*
X115891128Y-80625042D01*
X115858471Y-80690357D01*
X115825814Y-80723014D01*
X115760500Y-80755671D01*
X115499242Y-80755671D01*
X116119728Y-80396442D02*
X116544271Y-80396442D01*
X116315671Y-80657700D01*
X116413642Y-80657700D01*
X116478957Y-80690357D01*
X116511614Y-80723014D01*
X116544271Y-80788328D01*
X116544271Y-80951614D01*
X116511614Y-81016928D01*
X116478957Y-81049585D01*
X116413642Y-81082242D01*
X116217700Y-81082242D01*
X116152385Y-81049585D01*
X116119728Y-81016928D01*
X116936157Y-80690357D02*
X116870842Y-80657700D01*
X116838185Y-80625042D01*
X116805528Y-80559728D01*
X116805528Y-80527071D01*
X116838185Y-80461757D01*
X116870842Y-80429100D01*
X116936157Y-80396442D01*
X117066785Y-80396442D01*
X117132100Y-80429100D01*
X117164757Y-80461757D01*
X117197414Y-80527071D01*
X117197414Y-80559728D01*
X117164757Y-80625042D01*
X117132100Y-80657700D01*
X117066785Y-80690357D01*
X116936157Y-80690357D01*
X116870842Y-80723014D01*
X116838185Y-80755671D01*
X116805528Y-80820985D01*
X116805528Y-80951614D01*
X116838185Y-81016928D01*
X116870842Y-81049585D01*
X116936157Y-81082242D01*
X117066785Y-81082242D01*
X117132100Y-81049585D01*
X117164757Y-81016928D01*
X117197414Y-80951614D01*
X117197414Y-80820985D01*
X117164757Y-80755671D01*
X117132100Y-80723014D01*
X117066785Y-80690357D01*
X111065128Y-83876242D02*
X110836528Y-83549671D01*
X110673242Y-83876242D02*
X110673242Y-83190442D01*
X110934500Y-83190442D01*
X110999814Y-83223100D01*
X111032471Y-83255757D01*
X111065128Y-83321071D01*
X111065128Y-83419042D01*
X111032471Y-83484357D01*
X110999814Y-83517014D01*
X110934500Y-83549671D01*
X110673242Y-83549671D01*
X111293728Y-83190442D02*
X111718271Y-83190442D01*
X111489671Y-83451700D01*
X111587642Y-83451700D01*
X111652957Y-83484357D01*
X111685614Y-83517014D01*
X111718271Y-83582328D01*
X111718271Y-83745614D01*
X111685614Y-83810928D01*
X111652957Y-83843585D01*
X111587642Y-83876242D01*
X111391700Y-83876242D01*
X111326385Y-83843585D01*
X111293728Y-83810928D01*
X112044842Y-83876242D02*
X112175471Y-83876242D01*
X112240785Y-83843585D01*
X112273442Y-83810928D01*
X112338757Y-83712957D01*
X112371414Y-83582328D01*
X112371414Y-83321071D01*
X112338757Y-83255757D01*
X112306100Y-83223100D01*
X112240785Y-83190442D01*
X112110157Y-83190442D01*
X112044842Y-83223100D01*
X112012185Y-83255757D01*
X111979528Y-83321071D01*
X111979528Y-83484357D01*
X112012185Y-83549671D01*
X112044842Y-83582328D01*
X112110157Y-83614985D01*
X112240785Y-83614985D01*
X112306100Y-83582328D01*
X112338757Y-83549671D01*
X112371414Y-83484357D01*
X115891128Y-86924242D02*
X115662528Y-86597671D01*
X115499242Y-86924242D02*
X115499242Y-86238442D01*
X115760500Y-86238442D01*
X115825814Y-86271100D01*
X115858471Y-86303757D01*
X115891128Y-86369071D01*
X115891128Y-86467042D01*
X115858471Y-86532357D01*
X115825814Y-86565014D01*
X115760500Y-86597671D01*
X115499242Y-86597671D01*
X116478957Y-86467042D02*
X116478957Y-86924242D01*
X116315671Y-86205785D02*
X116152385Y-86695642D01*
X116576928Y-86695642D01*
X117197414Y-86924242D02*
X116805528Y-86924242D01*
X117001471Y-86924242D02*
X117001471Y-86238442D01*
X116936157Y-86336414D01*
X116870842Y-86401728D01*
X116805528Y-86434385D01*
X129607128Y-81082242D02*
X129378528Y-80755671D01*
X129215242Y-81082242D02*
X129215242Y-80396442D01*
X129476500Y-80396442D01*
X129541814Y-80429100D01*
X129574471Y-80461757D01*
X129607128Y-80527071D01*
X129607128Y-80625042D01*
X129574471Y-80690357D01*
X129541814Y-80723014D01*
X129476500Y-80755671D01*
X129215242Y-80755671D01*
X130194957Y-80625042D02*
X130194957Y-81082242D01*
X130031671Y-80363785D02*
X129868385Y-80853642D01*
X130292928Y-80853642D01*
X130521528Y-80461757D02*
X130554185Y-80429100D01*
X130619500Y-80396442D01*
X130782785Y-80396442D01*
X130848100Y-80429100D01*
X130880757Y-80461757D01*
X130913414Y-80527071D01*
X130913414Y-80592385D01*
X130880757Y-80690357D01*
X130488871Y-81082242D01*
X130913414Y-81082242D01*
X134433128Y-83876242D02*
X134204528Y-83549671D01*
X134041242Y-83876242D02*
X134041242Y-83190442D01*
X134302500Y-83190442D01*
X134367814Y-83223100D01*
X134400471Y-83255757D01*
X134433128Y-83321071D01*
X134433128Y-83419042D01*
X134400471Y-83484357D01*
X134367814Y-83517014D01*
X134302500Y-83549671D01*
X134041242Y-83549671D01*
X135020957Y-83419042D02*
X135020957Y-83876242D01*
X134857671Y-83157785D02*
X134694385Y-83647642D01*
X135118928Y-83647642D01*
X135314871Y-83190442D02*
X135739414Y-83190442D01*
X135510814Y-83451700D01*
X135608785Y-83451700D01*
X135674100Y-83484357D01*
X135706757Y-83517014D01*
X135739414Y-83582328D01*
X135739414Y-83745614D01*
X135706757Y-83810928D01*
X135674100Y-83843585D01*
X135608785Y-83876242D01*
X135412842Y-83876242D01*
X135347528Y-83843585D01*
X135314871Y-83810928D01*
X127575128Y-86924242D02*
X127346528Y-86597671D01*
X127183242Y-86924242D02*
X127183242Y-86238442D01*
X127444500Y-86238442D01*
X127509814Y-86271100D01*
X127542471Y-86303757D01*
X127575128Y-86369071D01*
X127575128Y-86467042D01*
X127542471Y-86532357D01*
X127509814Y-86565014D01*
X127444500Y-86597671D01*
X127183242Y-86597671D01*
X128162957Y-86467042D02*
X128162957Y-86924242D01*
X127999671Y-86205785D02*
X127836385Y-86695642D01*
X128260928Y-86695642D01*
X128816100Y-86467042D02*
X128816100Y-86924242D01*
X128652814Y-86205785D02*
X128489528Y-86695642D01*
X128914071Y-86695642D01*
X129607128Y-86924242D02*
X129378528Y-86597671D01*
X129215242Y-86924242D02*
X129215242Y-86238442D01*
X129476500Y-86238442D01*
X129541814Y-86271100D01*
X129574471Y-86303757D01*
X129607128Y-86369071D01*
X129607128Y-86467042D01*
X129574471Y-86532357D01*
X129541814Y-86565014D01*
X129476500Y-86597671D01*
X129215242Y-86597671D01*
X130194957Y-86467042D02*
X130194957Y-86924242D01*
X130031671Y-86205785D02*
X129868385Y-86695642D01*
X130292928Y-86695642D01*
X130880757Y-86238442D02*
X130554185Y-86238442D01*
X130521528Y-86565014D01*
X130554185Y-86532357D01*
X130619500Y-86499700D01*
X130782785Y-86499700D01*
X130848100Y-86532357D01*
X130880757Y-86565014D01*
X130913414Y-86630328D01*
X130913414Y-86793614D01*
X130880757Y-86858928D01*
X130848100Y-86891585D01*
X130782785Y-86924242D01*
X130619500Y-86924242D01*
X130554185Y-86891585D01*
X130521528Y-86858928D01*
X134433128Y-81082242D02*
X134204528Y-80755671D01*
X134041242Y-81082242D02*
X134041242Y-80396442D01*
X134302500Y-80396442D01*
X134367814Y-80429100D01*
X134400471Y-80461757D01*
X134433128Y-80527071D01*
X134433128Y-80625042D01*
X134400471Y-80690357D01*
X134367814Y-80723014D01*
X134302500Y-80755671D01*
X134041242Y-80755671D01*
X135020957Y-80625042D02*
X135020957Y-81082242D01*
X134857671Y-80363785D02*
X134694385Y-80853642D01*
X135118928Y-80853642D01*
X135674100Y-80396442D02*
X135543471Y-80396442D01*
X135478157Y-80429100D01*
X135445500Y-80461757D01*
X135380185Y-80559728D01*
X135347528Y-80690357D01*
X135347528Y-80951614D01*
X135380185Y-81016928D01*
X135412842Y-81049585D01*
X135478157Y-81082242D01*
X135608785Y-81082242D01*
X135674100Y-81049585D01*
X135706757Y-81016928D01*
X135739414Y-80951614D01*
X135739414Y-80788328D01*
X135706757Y-80723014D01*
X135674100Y-80690357D01*
X135608785Y-80657700D01*
X135478157Y-80657700D01*
X135412842Y-80690357D01*
X135380185Y-80723014D01*
X135347528Y-80788328D01*
X134179128Y-79812242D02*
X133950528Y-79485671D01*
X133787242Y-79812242D02*
X133787242Y-79126442D01*
X134048500Y-79126442D01*
X134113814Y-79159100D01*
X134146471Y-79191757D01*
X134179128Y-79257071D01*
X134179128Y-79355042D01*
X134146471Y-79420357D01*
X134113814Y-79453014D01*
X134048500Y-79485671D01*
X133787242Y-79485671D01*
X134766957Y-79355042D02*
X134766957Y-79812242D01*
X134603671Y-79093785D02*
X134440385Y-79583642D01*
X134864928Y-79583642D01*
X135060871Y-79126442D02*
X135518071Y-79126442D01*
X135224157Y-79812242D01*
X127564242Y-78926871D02*
X127237671Y-79155471D01*
X127564242Y-79318757D02*
X126878442Y-79318757D01*
X126878442Y-79057500D01*
X126911100Y-78992185D01*
X126943757Y-78959528D01*
X127009071Y-78926871D01*
X127107042Y-78926871D01*
X127172357Y-78959528D01*
X127205014Y-78992185D01*
X127237671Y-79057500D01*
X127237671Y-79318757D01*
X127107042Y-78339042D02*
X127564242Y-78339042D01*
X126845785Y-78502328D02*
X127335642Y-78665614D01*
X127335642Y-78241071D01*
X127172357Y-77881842D02*
X127139700Y-77947157D01*
X127107042Y-77979814D01*
X127041728Y-78012471D01*
X127009071Y-78012471D01*
X126943757Y-77979814D01*
X126911100Y-77947157D01*
X126878442Y-77881842D01*
X126878442Y-77751214D01*
X126911100Y-77685900D01*
X126943757Y-77653242D01*
X127009071Y-77620585D01*
X127041728Y-77620585D01*
X127107042Y-77653242D01*
X127139700Y-77685900D01*
X127172357Y-77751214D01*
X127172357Y-77881842D01*
X127205014Y-77947157D01*
X127237671Y-77979814D01*
X127302985Y-78012471D01*
X127433614Y-78012471D01*
X127498928Y-77979814D01*
X127531585Y-77947157D01*
X127564242Y-77881842D01*
X127564242Y-77751214D01*
X127531585Y-77685900D01*
X127498928Y-77653242D01*
X127433614Y-77620585D01*
X127302985Y-77620585D01*
X127237671Y-77653242D01*
X127205014Y-77685900D01*
X127172357Y-77751214D01*
X131120242Y-78926871D02*
X130793671Y-79155471D01*
X131120242Y-79318757D02*
X130434442Y-79318757D01*
X130434442Y-79057500D01*
X130467100Y-78992185D01*
X130499757Y-78959528D01*
X130565071Y-78926871D01*
X130663042Y-78926871D01*
X130728357Y-78959528D01*
X130761014Y-78992185D01*
X130793671Y-79057500D01*
X130793671Y-79318757D01*
X130663042Y-78339042D02*
X131120242Y-78339042D01*
X130401785Y-78502328D02*
X130891642Y-78665614D01*
X130891642Y-78241071D01*
X131120242Y-77947157D02*
X131120242Y-77816528D01*
X131087585Y-77751214D01*
X131054928Y-77718557D01*
X130956957Y-77653242D01*
X130826328Y-77620585D01*
X130565071Y-77620585D01*
X130499757Y-77653242D01*
X130467100Y-77685900D01*
X130434442Y-77751214D01*
X130434442Y-77881842D01*
X130467100Y-77947157D01*
X130499757Y-77979814D01*
X130565071Y-78012471D01*
X130728357Y-78012471D01*
X130793671Y-77979814D01*
X130826328Y-77947157D01*
X130858985Y-77881842D01*
X130858985Y-77751214D01*
X130826328Y-77685900D01*
X130793671Y-77653242D01*
X130728357Y-77620585D01*
X111308242Y-92388871D02*
X110981671Y-92617471D01*
X111308242Y-92780757D02*
X110622442Y-92780757D01*
X110622442Y-92519500D01*
X110655100Y-92454185D01*
X110687757Y-92421528D01*
X110753071Y-92388871D01*
X110851042Y-92388871D01*
X110916357Y-92421528D01*
X110949014Y-92454185D01*
X110981671Y-92519500D01*
X110981671Y-92780757D01*
X110622442Y-91768385D02*
X110622442Y-92094957D01*
X110949014Y-92127614D01*
X110916357Y-92094957D01*
X110883700Y-92029642D01*
X110883700Y-91866357D01*
X110916357Y-91801042D01*
X110949014Y-91768385D01*
X111014328Y-91735728D01*
X111177614Y-91735728D01*
X111242928Y-91768385D01*
X111275585Y-91801042D01*
X111308242Y-91866357D01*
X111308242Y-92029642D01*
X111275585Y-92094957D01*
X111242928Y-92127614D01*
X110622442Y-91311185D02*
X110622442Y-91245871D01*
X110655100Y-91180557D01*
X110687757Y-91147900D01*
X110753071Y-91115242D01*
X110883700Y-91082585D01*
X111046985Y-91082585D01*
X111177614Y-91115242D01*
X111242928Y-91147900D01*
X111275585Y-91180557D01*
X111308242Y-91245871D01*
X111308242Y-91311185D01*
X111275585Y-91376500D01*
X111242928Y-91409157D01*
X111177614Y-91441814D01*
X111046985Y-91474471D01*
X110883700Y-91474471D01*
X110753071Y-91441814D01*
X110687757Y-91409157D01*
X110655100Y-91376500D01*
X110622442Y-91311185D01*
X111065128Y-90734242D02*
X110836528Y-90407671D01*
X110673242Y-90734242D02*
X110673242Y-90048442D01*
X110934500Y-90048442D01*
X110999814Y-90081100D01*
X111032471Y-90113757D01*
X111065128Y-90179071D01*
X111065128Y-90277042D01*
X111032471Y-90342357D01*
X110999814Y-90375014D01*
X110934500Y-90407671D01*
X110673242Y-90407671D01*
X111685614Y-90048442D02*
X111359042Y-90048442D01*
X111326385Y-90375014D01*
X111359042Y-90342357D01*
X111424357Y-90309700D01*
X111587642Y-90309700D01*
X111652957Y-90342357D01*
X111685614Y-90375014D01*
X111718271Y-90440328D01*
X111718271Y-90603614D01*
X111685614Y-90668928D01*
X111652957Y-90701585D01*
X111587642Y-90734242D01*
X111424357Y-90734242D01*
X111359042Y-90701585D01*
X111326385Y-90668928D01*
X112371414Y-90734242D02*
X111979528Y-90734242D01*
X112175471Y-90734242D02*
X112175471Y-90048442D01*
X112110157Y-90146414D01*
X112044842Y-90211728D01*
X111979528Y-90244385D01*
X117923128Y-87940242D02*
X117694528Y-87613671D01*
X117531242Y-87940242D02*
X117531242Y-87254442D01*
X117792500Y-87254442D01*
X117857814Y-87287100D01*
X117890471Y-87319757D01*
X117923128Y-87385071D01*
X117923128Y-87483042D01*
X117890471Y-87548357D01*
X117857814Y-87581014D01*
X117792500Y-87613671D01*
X117531242Y-87613671D01*
X118543614Y-87254442D02*
X118217042Y-87254442D01*
X118184385Y-87581014D01*
X118217042Y-87548357D01*
X118282357Y-87515700D01*
X118445642Y-87515700D01*
X118510957Y-87548357D01*
X118543614Y-87581014D01*
X118576271Y-87646328D01*
X118576271Y-87809614D01*
X118543614Y-87874928D01*
X118510957Y-87907585D01*
X118445642Y-87940242D01*
X118282357Y-87940242D01*
X118217042Y-87907585D01*
X118184385Y-87874928D01*
X118837528Y-87319757D02*
X118870185Y-87287100D01*
X118935500Y-87254442D01*
X119098785Y-87254442D01*
X119164100Y-87287100D01*
X119196757Y-87319757D01*
X119229414Y-87385071D01*
X119229414Y-87450385D01*
X119196757Y-87548357D01*
X118804871Y-87940242D01*
X119229414Y-87940242D01*
X115891128Y-87940242D02*
X115662528Y-87613671D01*
X115499242Y-87940242D02*
X115499242Y-87254442D01*
X115760500Y-87254442D01*
X115825814Y-87287100D01*
X115858471Y-87319757D01*
X115891128Y-87385071D01*
X115891128Y-87483042D01*
X115858471Y-87548357D01*
X115825814Y-87581014D01*
X115760500Y-87613671D01*
X115499242Y-87613671D01*
X116511614Y-87254442D02*
X116185042Y-87254442D01*
X116152385Y-87581014D01*
X116185042Y-87548357D01*
X116250357Y-87515700D01*
X116413642Y-87515700D01*
X116478957Y-87548357D01*
X116511614Y-87581014D01*
X116544271Y-87646328D01*
X116544271Y-87809614D01*
X116511614Y-87874928D01*
X116478957Y-87907585D01*
X116413642Y-87940242D01*
X116250357Y-87940242D01*
X116185042Y-87907585D01*
X116152385Y-87874928D01*
X116772871Y-87254442D02*
X117197414Y-87254442D01*
X116968814Y-87515700D01*
X117066785Y-87515700D01*
X117132100Y-87548357D01*
X117164757Y-87581014D01*
X117197414Y-87646328D01*
X117197414Y-87809614D01*
X117164757Y-87874928D01*
X117132100Y-87907585D01*
X117066785Y-87940242D01*
X116870842Y-87940242D01*
X116805528Y-87907585D01*
X116772871Y-87874928D01*
X115891128Y-91496242D02*
X115662528Y-91169671D01*
X115499242Y-91496242D02*
X115499242Y-90810442D01*
X115760500Y-90810442D01*
X115825814Y-90843100D01*
X115858471Y-90875757D01*
X115891128Y-90941071D01*
X115891128Y-91039042D01*
X115858471Y-91104357D01*
X115825814Y-91137014D01*
X115760500Y-91169671D01*
X115499242Y-91169671D01*
X116511614Y-90810442D02*
X116185042Y-90810442D01*
X116152385Y-91137014D01*
X116185042Y-91104357D01*
X116250357Y-91071700D01*
X116413642Y-91071700D01*
X116478957Y-91104357D01*
X116511614Y-91137014D01*
X116544271Y-91202328D01*
X116544271Y-91365614D01*
X116511614Y-91430928D01*
X116478957Y-91463585D01*
X116413642Y-91496242D01*
X116250357Y-91496242D01*
X116185042Y-91463585D01*
X116152385Y-91430928D01*
X117132100Y-91039042D02*
X117132100Y-91496242D01*
X116968814Y-90777785D02*
X116805528Y-91267642D01*
X117230071Y-91267642D01*
X115891128Y-97084242D02*
X115662528Y-96757671D01*
X115499242Y-97084242D02*
X115499242Y-96398442D01*
X115760500Y-96398442D01*
X115825814Y-96431100D01*
X115858471Y-96463757D01*
X115891128Y-96529071D01*
X115891128Y-96627042D01*
X115858471Y-96692357D01*
X115825814Y-96725014D01*
X115760500Y-96757671D01*
X115499242Y-96757671D01*
X116511614Y-96398442D02*
X116185042Y-96398442D01*
X116152385Y-96725014D01*
X116185042Y-96692357D01*
X116250357Y-96659700D01*
X116413642Y-96659700D01*
X116478957Y-96692357D01*
X116511614Y-96725014D01*
X116544271Y-96790328D01*
X116544271Y-96953614D01*
X116511614Y-97018928D01*
X116478957Y-97051585D01*
X116413642Y-97084242D01*
X116250357Y-97084242D01*
X116185042Y-97051585D01*
X116152385Y-97018928D01*
X116772871Y-96398442D02*
X117230071Y-96398442D01*
X116936157Y-97084242D01*
X129607128Y-91242242D02*
X129378528Y-90915671D01*
X129215242Y-91242242D02*
X129215242Y-90556442D01*
X129476500Y-90556442D01*
X129541814Y-90589100D01*
X129574471Y-90621757D01*
X129607128Y-90687071D01*
X129607128Y-90785042D01*
X129574471Y-90850357D01*
X129541814Y-90883014D01*
X129476500Y-90915671D01*
X129215242Y-90915671D01*
X130227614Y-90556442D02*
X129901042Y-90556442D01*
X129868385Y-90883014D01*
X129901042Y-90850357D01*
X129966357Y-90817700D01*
X130129642Y-90817700D01*
X130194957Y-90850357D01*
X130227614Y-90883014D01*
X130260271Y-90948328D01*
X130260271Y-91111614D01*
X130227614Y-91176928D01*
X130194957Y-91209585D01*
X130129642Y-91242242D01*
X129966357Y-91242242D01*
X129901042Y-91209585D01*
X129868385Y-91176928D01*
X130652157Y-90850357D02*
X130586842Y-90817700D01*
X130554185Y-90785042D01*
X130521528Y-90719728D01*
X130521528Y-90687071D01*
X130554185Y-90621757D01*
X130586842Y-90589100D01*
X130652157Y-90556442D01*
X130782785Y-90556442D01*
X130848100Y-90589100D01*
X130880757Y-90621757D01*
X130913414Y-90687071D01*
X130913414Y-90719728D01*
X130880757Y-90785042D01*
X130848100Y-90817700D01*
X130782785Y-90850357D01*
X130652157Y-90850357D01*
X130586842Y-90883014D01*
X130554185Y-90915671D01*
X130521528Y-90980985D01*
X130521528Y-91111614D01*
X130554185Y-91176928D01*
X130586842Y-91209585D01*
X130652157Y-91242242D01*
X130782785Y-91242242D01*
X130848100Y-91209585D01*
X130880757Y-91176928D01*
X130913414Y-91111614D01*
X130913414Y-90980985D01*
X130880757Y-90915671D01*
X130848100Y-90883014D01*
X130782785Y-90850357D01*
X127321128Y-97084242D02*
X127092528Y-96757671D01*
X126929242Y-97084242D02*
X126929242Y-96398442D01*
X127190500Y-96398442D01*
X127255814Y-96431100D01*
X127288471Y-96463757D01*
X127321128Y-96529071D01*
X127321128Y-96627042D01*
X127288471Y-96692357D01*
X127255814Y-96725014D01*
X127190500Y-96757671D01*
X126929242Y-96757671D01*
X127908957Y-96398442D02*
X127778328Y-96398442D01*
X127713014Y-96431100D01*
X127680357Y-96463757D01*
X127615042Y-96561728D01*
X127582385Y-96692357D01*
X127582385Y-96953614D01*
X127615042Y-97018928D01*
X127647700Y-97051585D01*
X127713014Y-97084242D01*
X127843642Y-97084242D01*
X127908957Y-97051585D01*
X127941614Y-97018928D01*
X127974271Y-96953614D01*
X127974271Y-96790328D01*
X127941614Y-96725014D01*
X127908957Y-96692357D01*
X127843642Y-96659700D01*
X127713014Y-96659700D01*
X127647700Y-96692357D01*
X127615042Y-96725014D01*
X127582385Y-96790328D01*
X128398814Y-96398442D02*
X128464128Y-96398442D01*
X128529442Y-96431100D01*
X128562100Y-96463757D01*
X128594757Y-96529071D01*
X128627414Y-96659700D01*
X128627414Y-96822985D01*
X128594757Y-96953614D01*
X128562100Y-97018928D01*
X128529442Y-97051585D01*
X128464128Y-97084242D01*
X128398814Y-97084242D01*
X128333500Y-97051585D01*
X128300842Y-97018928D01*
X128268185Y-96953614D01*
X128235528Y-96822985D01*
X128235528Y-96659700D01*
X128268185Y-96529071D01*
X128300842Y-96463757D01*
X128333500Y-96431100D01*
X128398814Y-96398442D01*
X129607128Y-97084242D02*
X129378528Y-96757671D01*
X129215242Y-97084242D02*
X129215242Y-96398442D01*
X129476500Y-96398442D01*
X129541814Y-96431100D01*
X129574471Y-96463757D01*
X129607128Y-96529071D01*
X129607128Y-96627042D01*
X129574471Y-96692357D01*
X129541814Y-96725014D01*
X129476500Y-96757671D01*
X129215242Y-96757671D01*
X130194957Y-96398442D02*
X130064328Y-96398442D01*
X129999014Y-96431100D01*
X129966357Y-96463757D01*
X129901042Y-96561728D01*
X129868385Y-96692357D01*
X129868385Y-96953614D01*
X129901042Y-97018928D01*
X129933700Y-97051585D01*
X129999014Y-97084242D01*
X130129642Y-97084242D01*
X130194957Y-97051585D01*
X130227614Y-97018928D01*
X130260271Y-96953614D01*
X130260271Y-96790328D01*
X130227614Y-96725014D01*
X130194957Y-96692357D01*
X130129642Y-96659700D01*
X129999014Y-96659700D01*
X129933700Y-96692357D01*
X129901042Y-96725014D01*
X129868385Y-96790328D01*
X130913414Y-97084242D02*
X130521528Y-97084242D01*
X130717471Y-97084242D02*
X130717471Y-96398442D01*
X130652157Y-96496414D01*
X130586842Y-96561728D01*
X130521528Y-96594385D01*
X131639128Y-92512242D02*
X131410528Y-92185671D01*
X131247242Y-92512242D02*
X131247242Y-91826442D01*
X131508500Y-91826442D01*
X131573814Y-91859100D01*
X131606471Y-91891757D01*
X131639128Y-91957071D01*
X131639128Y-92055042D01*
X131606471Y-92120357D01*
X131573814Y-92153014D01*
X131508500Y-92185671D01*
X131247242Y-92185671D01*
X132226957Y-91826442D02*
X132096328Y-91826442D01*
X132031014Y-91859100D01*
X131998357Y-91891757D01*
X131933042Y-91989728D01*
X131900385Y-92120357D01*
X131900385Y-92381614D01*
X131933042Y-92446928D01*
X131965700Y-92479585D01*
X132031014Y-92512242D01*
X132161642Y-92512242D01*
X132226957Y-92479585D01*
X132259614Y-92446928D01*
X132292271Y-92381614D01*
X132292271Y-92218328D01*
X132259614Y-92153014D01*
X132226957Y-92120357D01*
X132161642Y-92087700D01*
X132031014Y-92087700D01*
X131965700Y-92120357D01*
X131933042Y-92153014D01*
X131900385Y-92218328D01*
X132553528Y-91891757D02*
X132586185Y-91859100D01*
X132651500Y-91826442D01*
X132814785Y-91826442D01*
X132880100Y-91859100D01*
X132912757Y-91891757D01*
X132945414Y-91957071D01*
X132945414Y-92022385D01*
X132912757Y-92120357D01*
X132520871Y-92512242D01*
X132945414Y-92512242D01*
X134433128Y-90734242D02*
X134204528Y-90407671D01*
X134041242Y-90734242D02*
X134041242Y-90048442D01*
X134302500Y-90048442D01*
X134367814Y-90081100D01*
X134400471Y-90113757D01*
X134433128Y-90179071D01*
X134433128Y-90277042D01*
X134400471Y-90342357D01*
X134367814Y-90375014D01*
X134302500Y-90407671D01*
X134041242Y-90407671D01*
X135020957Y-90048442D02*
X134890328Y-90048442D01*
X134825014Y-90081100D01*
X134792357Y-90113757D01*
X134727042Y-90211728D01*
X134694385Y-90342357D01*
X134694385Y-90603614D01*
X134727042Y-90668928D01*
X134759700Y-90701585D01*
X134825014Y-90734242D01*
X134955642Y-90734242D01*
X135020957Y-90701585D01*
X135053614Y-90668928D01*
X135086271Y-90603614D01*
X135086271Y-90440328D01*
X135053614Y-90375014D01*
X135020957Y-90342357D01*
X134955642Y-90309700D01*
X134825014Y-90309700D01*
X134759700Y-90342357D01*
X134727042Y-90375014D01*
X134694385Y-90440328D01*
X135314871Y-90048442D02*
X135739414Y-90048442D01*
X135510814Y-90309700D01*
X135608785Y-90309700D01*
X135674100Y-90342357D01*
X135706757Y-90375014D01*
X135739414Y-90440328D01*
X135739414Y-90603614D01*
X135706757Y-90668928D01*
X135674100Y-90701585D01*
X135608785Y-90734242D01*
X135412842Y-90734242D01*
X135347528Y-90701585D01*
X135314871Y-90668928D01*
X127575128Y-87940242D02*
X127346528Y-87613671D01*
X127183242Y-87940242D02*
X127183242Y-87254442D01*
X127444500Y-87254442D01*
X127509814Y-87287100D01*
X127542471Y-87319757D01*
X127575128Y-87385071D01*
X127575128Y-87483042D01*
X127542471Y-87548357D01*
X127509814Y-87581014D01*
X127444500Y-87613671D01*
X127183242Y-87613671D01*
X128162957Y-87254442D02*
X128032328Y-87254442D01*
X127967014Y-87287100D01*
X127934357Y-87319757D01*
X127869042Y-87417728D01*
X127836385Y-87548357D01*
X127836385Y-87809614D01*
X127869042Y-87874928D01*
X127901700Y-87907585D01*
X127967014Y-87940242D01*
X128097642Y-87940242D01*
X128162957Y-87907585D01*
X128195614Y-87874928D01*
X128228271Y-87809614D01*
X128228271Y-87646328D01*
X128195614Y-87581014D01*
X128162957Y-87548357D01*
X128097642Y-87515700D01*
X127967014Y-87515700D01*
X127901700Y-87548357D01*
X127869042Y-87581014D01*
X127836385Y-87646328D01*
X128816100Y-87483042D02*
X128816100Y-87940242D01*
X128652814Y-87221785D02*
X128489528Y-87711642D01*
X128914071Y-87711642D01*
X129607128Y-87940242D02*
X129378528Y-87613671D01*
X129215242Y-87940242D02*
X129215242Y-87254442D01*
X129476500Y-87254442D01*
X129541814Y-87287100D01*
X129574471Y-87319757D01*
X129607128Y-87385071D01*
X129607128Y-87483042D01*
X129574471Y-87548357D01*
X129541814Y-87581014D01*
X129476500Y-87613671D01*
X129215242Y-87613671D01*
X130194957Y-87254442D02*
X130064328Y-87254442D01*
X129999014Y-87287100D01*
X129966357Y-87319757D01*
X129901042Y-87417728D01*
X129868385Y-87548357D01*
X129868385Y-87809614D01*
X129901042Y-87874928D01*
X129933700Y-87907585D01*
X129999014Y-87940242D01*
X130129642Y-87940242D01*
X130194957Y-87907585D01*
X130227614Y-87874928D01*
X130260271Y-87809614D01*
X130260271Y-87646328D01*
X130227614Y-87581014D01*
X130194957Y-87548357D01*
X130129642Y-87515700D01*
X129999014Y-87515700D01*
X129933700Y-87548357D01*
X129901042Y-87581014D01*
X129868385Y-87646328D01*
X130880757Y-87254442D02*
X130554185Y-87254442D01*
X130521528Y-87581014D01*
X130554185Y-87548357D01*
X130619500Y-87515700D01*
X130782785Y-87515700D01*
X130848100Y-87548357D01*
X130880757Y-87581014D01*
X130913414Y-87646328D01*
X130913414Y-87809614D01*
X130880757Y-87874928D01*
X130848100Y-87907585D01*
X130782785Y-87940242D01*
X130619500Y-87940242D01*
X130554185Y-87907585D01*
X130521528Y-87874928D01*
X122667485Y-62235442D02*
X122667485Y-62790614D01*
X122700142Y-62855928D01*
X122732800Y-62888585D01*
X122798114Y-62921242D01*
X122928742Y-62921242D01*
X122994057Y-62888585D01*
X123026714Y-62855928D01*
X123059371Y-62790614D01*
X123059371Y-62235442D01*
X123320628Y-62235442D02*
X123745171Y-62235442D01*
X123516571Y-62496700D01*
X123614542Y-62496700D01*
X123679857Y-62529357D01*
X123712514Y-62562014D01*
X123745171Y-62627328D01*
X123745171Y-62790614D01*
X123712514Y-62855928D01*
X123679857Y-62888585D01*
X123614542Y-62921242D01*
X123418600Y-62921242D01*
X123353285Y-62888585D01*
X123320628Y-62855928D01*
X125588485Y-65791442D02*
X125588485Y-66346614D01*
X125621142Y-66411928D01*
X125653800Y-66444585D01*
X125719114Y-66477242D01*
X125849742Y-66477242D01*
X125915057Y-66444585D01*
X125947714Y-66411928D01*
X125980371Y-66346614D01*
X125980371Y-65791442D01*
X126600857Y-66020042D02*
X126600857Y-66477242D01*
X126437571Y-65758785D02*
X126274285Y-66248642D01*
X126698828Y-66248642D01*
X122667485Y-85031942D02*
X122667485Y-85587114D01*
X122700142Y-85652428D01*
X122732800Y-85685085D01*
X122798114Y-85717742D01*
X122928742Y-85717742D01*
X122994057Y-85685085D01*
X123026714Y-85652428D01*
X123059371Y-85587114D01*
X123059371Y-85031942D01*
X123712514Y-85031942D02*
X123385942Y-85031942D01*
X123353285Y-85358514D01*
X123385942Y-85325857D01*
X123451257Y-85293200D01*
X123614542Y-85293200D01*
X123679857Y-85325857D01*
X123712514Y-85358514D01*
X123745171Y-85423828D01*
X123745171Y-85587114D01*
X123712514Y-85652428D01*
X123679857Y-85685085D01*
X123614542Y-85717742D01*
X123451257Y-85717742D01*
X123385942Y-85685085D01*
X123353285Y-85652428D01*
X122667485Y-95191942D02*
X122667485Y-95747114D01*
X122700142Y-95812428D01*
X122732800Y-95845085D01*
X122798114Y-95877742D01*
X122928742Y-95877742D01*
X122994057Y-95845085D01*
X123026714Y-95812428D01*
X123059371Y-95747114D01*
X123059371Y-95191942D01*
X123679857Y-95191942D02*
X123549228Y-95191942D01*
X123483914Y-95224600D01*
X123451257Y-95257257D01*
X123385942Y-95355228D01*
X123353285Y-95485857D01*
X123353285Y-95747114D01*
X123385942Y-95812428D01*
X123418600Y-95845085D01*
X123483914Y-95877742D01*
X123614542Y-95877742D01*
X123679857Y-95845085D01*
X123712514Y-95812428D01*
X123745171Y-95747114D01*
X123745171Y-95583828D01*
X123712514Y-95518514D01*
X123679857Y-95485857D01*
X123614542Y-95453200D01*
X123483914Y-95453200D01*
X123418600Y-95485857D01*
X123385942Y-95518514D01*
X123353285Y-95583828D01*
X116725700Y-105400928D02*
X116693042Y-105433585D01*
X116595071Y-105466242D01*
X116529757Y-105466242D01*
X116431785Y-105433585D01*
X116366471Y-105368271D01*
X116333814Y-105302957D01*
X116301157Y-105172328D01*
X116301157Y-105074357D01*
X116333814Y-104943728D01*
X116366471Y-104878414D01*
X116431785Y-104813100D01*
X116529757Y-104780442D01*
X116595071Y-104780442D01*
X116693042Y-104813100D01*
X116725700Y-104845757D01*
X117378842Y-105466242D02*
X116986957Y-105466242D01*
X117182900Y-105466242D02*
X117182900Y-104780442D01*
X117117585Y-104878414D01*
X117052271Y-104943728D01*
X116986957Y-104976385D01*
X132473700Y-114798928D02*
X132441042Y-114831585D01*
X132343071Y-114864242D01*
X132277757Y-114864242D01*
X132179785Y-114831585D01*
X132114471Y-114766271D01*
X132081814Y-114700957D01*
X132049157Y-114570328D01*
X132049157Y-114472357D01*
X132081814Y-114341728D01*
X132114471Y-114276414D01*
X132179785Y-114211100D01*
X132277757Y-114178442D01*
X132343071Y-114178442D01*
X132441042Y-114211100D01*
X132473700Y-114243757D01*
X132734957Y-114243757D02*
X132767614Y-114211100D01*
X132832928Y-114178442D01*
X132996214Y-114178442D01*
X133061528Y-114211100D01*
X133094185Y-114243757D01*
X133126842Y-114309071D01*
X133126842Y-114374385D01*
X133094185Y-114472357D01*
X132702300Y-114864242D01*
X133126842Y-114864242D01*
X134179128Y-88636928D02*
X134146471Y-88669585D01*
X134048500Y-88702242D01*
X133983185Y-88702242D01*
X133885214Y-88669585D01*
X133819900Y-88604271D01*
X133787242Y-88538957D01*
X133754585Y-88408328D01*
X133754585Y-88310357D01*
X133787242Y-88179728D01*
X133819900Y-88114414D01*
X133885214Y-88049100D01*
X133983185Y-88016442D01*
X134048500Y-88016442D01*
X134146471Y-88049100D01*
X134179128Y-88081757D01*
X134440385Y-88081757D02*
X134473042Y-88049100D01*
X134538357Y-88016442D01*
X134701642Y-88016442D01*
X134766957Y-88049100D01*
X134799614Y-88081757D01*
X134832271Y-88147071D01*
X134832271Y-88212385D01*
X134799614Y-88310357D01*
X134407728Y-88702242D01*
X134832271Y-88702242D01*
X135420100Y-88245042D02*
X135420100Y-88702242D01*
X135256814Y-87983785D02*
X135093528Y-88473642D01*
X135518071Y-88473642D01*
X122520528Y-108260242D02*
X122520528Y-107574442D01*
X123238985Y-108194928D02*
X123206328Y-108227585D01*
X123108357Y-108260242D01*
X123043042Y-108260242D01*
X122945071Y-108227585D01*
X122879757Y-108162271D01*
X122847100Y-108096957D01*
X122814442Y-107966328D01*
X122814442Y-107868357D01*
X122847100Y-107737728D01*
X122879757Y-107672414D01*
X122945071Y-107607100D01*
X123043042Y-107574442D01*
X123108357Y-107574442D01*
X123206328Y-107607100D01*
X123238985Y-107639757D01*
X123892128Y-108260242D02*
X123500242Y-108260242D01*
X123696185Y-108260242D02*
X123696185Y-107574442D01*
X123630871Y-107672414D01*
X123565557Y-107737728D01*
X123500242Y-107770385D01*
X122667485Y-118051942D02*
X122667485Y-118607114D01*
X122700142Y-118672428D01*
X122732800Y-118705085D01*
X122798114Y-118737742D01*
X122928742Y-118737742D01*
X122994057Y-118705085D01*
X123026714Y-118672428D01*
X123059371Y-118607114D01*
X123059371Y-118051942D01*
X123745171Y-118737742D02*
X123353285Y-118737742D01*
X123549228Y-118737742D02*
X123549228Y-118051942D01*
X123483914Y-118149914D01*
X123418600Y-118215228D01*
X123353285Y-118247885D01*
X111645700Y-62982928D02*
X111613042Y-63015585D01*
X111515071Y-63048242D01*
X111449757Y-63048242D01*
X111351785Y-63015585D01*
X111286471Y-62950271D01*
X111253814Y-62884957D01*
X111221157Y-62754328D01*
X111221157Y-62656357D01*
X111253814Y-62525728D01*
X111286471Y-62460414D01*
X111351785Y-62395100D01*
X111449757Y-62362442D01*
X111515071Y-62362442D01*
X111613042Y-62395100D01*
X111645700Y-62427757D01*
X111874300Y-62362442D02*
X112331500Y-62362442D01*
X112037585Y-63048242D01*
X128636485Y-107320442D02*
X128636485Y-107875614D01*
X128669142Y-107940928D01*
X128701800Y-107973585D01*
X128767114Y-108006242D01*
X128897742Y-108006242D01*
X128963057Y-107973585D01*
X128995714Y-107940928D01*
X129028371Y-107875614D01*
X129028371Y-107320442D01*
X129322285Y-107385757D02*
X129354942Y-107353100D01*
X129420257Y-107320442D01*
X129583542Y-107320442D01*
X129648857Y-107353100D01*
X129681514Y-107385757D01*
X129714171Y-107451071D01*
X129714171Y-107516385D01*
X129681514Y-107614357D01*
X129289628Y-108006242D01*
X129714171Y-108006242D01*
M02*
