G04 #@! TF.GenerationSoftware,KiCad,Pcbnew,(5.1.8-0-10_14)*
G04 #@! TF.CreationDate,2020-12-29T19:16:56-08:00*
G04 #@! TF.ProjectId,ADC,4144432e-6b69-4636-9164-5f7063625858,rev?*
G04 #@! TF.SameCoordinates,Original*
G04 #@! TF.FileFunction,Copper,L2,Inr*
G04 #@! TF.FilePolarity,Positive*
%FSLAX46Y46*%
G04 Gerber Fmt 4.6, Leading zero omitted, Abs format (unit mm)*
G04 Created by KiCad (PCBNEW (5.1.8-0-10_14)) date 2020-12-29 19:16:56*
%MOMM*%
%LPD*%
G01*
G04 APERTURE LIST*
G04 #@! TA.AperFunction,ComponentPad*
%ADD10C,1.778000*%
G04 #@! TD*
G04 #@! TA.AperFunction,ViaPad*
%ADD11C,0.406400*%
G04 #@! TD*
G04 #@! TA.AperFunction,Conductor*
%ADD12C,0.254000*%
G04 #@! TD*
G04 #@! TA.AperFunction,Conductor*
%ADD13C,0.100000*%
G04 #@! TD*
G04 APERTURE END LIST*
D10*
X109220000Y-55880000D03*
X109220000Y-58420000D03*
X109220000Y-60960000D03*
X109220000Y-63500000D03*
X109220000Y-66040000D03*
X109220000Y-68580000D03*
X109220000Y-71120000D03*
X109220000Y-73660000D03*
X109220000Y-76200000D03*
X109220000Y-78740000D03*
X109220000Y-81280000D03*
X109220000Y-83820000D03*
X109220000Y-86360000D03*
X109220000Y-88900000D03*
X109220000Y-91440000D03*
X109220000Y-93980000D03*
X109220000Y-96520000D03*
X109220000Y-99060000D03*
X109220000Y-101600000D03*
X109220000Y-104140000D03*
X109220000Y-106680000D03*
X109220000Y-109220000D03*
X109220000Y-111760000D03*
X109220000Y-114300000D03*
X109220000Y-116840000D03*
X137160000Y-55880000D03*
X137160000Y-58420000D03*
X137160000Y-60960000D03*
X137160000Y-63500000D03*
X137160000Y-66040000D03*
X137160000Y-68580000D03*
X137160000Y-71120000D03*
X137160000Y-73660000D03*
X137160000Y-76200000D03*
X137160000Y-78740000D03*
X137160000Y-81280000D03*
X137160000Y-83820000D03*
X137160000Y-86360000D03*
X137160000Y-88900000D03*
X137160000Y-91440000D03*
X137160000Y-93980000D03*
X137160000Y-96520000D03*
X137160000Y-99060000D03*
X137160000Y-101600000D03*
X137160000Y-104140000D03*
X137160000Y-106680000D03*
X137160000Y-109220000D03*
X137160000Y-111760000D03*
X137160000Y-114300000D03*
X137160000Y-116840000D03*
D11*
X123444000Y-114300000D03*
X116586000Y-114300000D03*
X116586000Y-112776000D03*
X116586000Y-111506000D03*
X116586000Y-117094000D03*
X119888000Y-117094000D03*
X118110000Y-117094000D03*
X116586000Y-115824000D03*
X123444000Y-112776000D03*
X123444000Y-117094000D03*
X123444000Y-115824000D03*
X121666000Y-117094000D03*
X119888000Y-111506000D03*
X121666000Y-111506000D03*
X118110000Y-111506000D03*
X123444000Y-111506000D03*
X115570000Y-106426000D03*
X131064000Y-110490000D03*
X121602500Y-88900000D03*
X121920000Y-92075000D03*
X121920000Y-81915000D03*
X121602500Y-78740000D03*
X121602500Y-66040000D03*
X121920000Y-59055000D03*
X121920000Y-69215000D03*
X121602500Y-55880000D03*
X131064000Y-107442000D03*
X133604000Y-78232000D03*
X133604000Y-80264000D03*
X135382000Y-82042000D03*
X133604000Y-83566000D03*
X133604000Y-85598000D03*
X133604000Y-89408000D03*
X133604000Y-90424000D03*
X135382000Y-92202000D03*
X133604000Y-93980000D03*
X133604000Y-95758000D03*
X127000000Y-98552000D03*
X117856000Y-100838000D03*
X129794000Y-99822000D03*
X134620000Y-110490000D03*
X133858000Y-55626000D03*
X133858000Y-62738000D03*
X112522000Y-88392000D03*
X112522000Y-95758000D03*
X133604000Y-57404000D03*
X133604000Y-60706000D03*
X112776000Y-57404000D03*
X112522000Y-55372000D03*
X112776000Y-60706000D03*
X112522000Y-62738000D03*
X112522000Y-65532000D03*
X112776000Y-67564000D03*
X112776000Y-70866000D03*
X112522000Y-72898000D03*
X133858000Y-65532000D03*
X133604000Y-67564000D03*
X133858000Y-72898000D03*
X133604000Y-70866000D03*
X112522000Y-78232000D03*
X112776000Y-80264000D03*
X112522000Y-85598000D03*
X112776000Y-83566000D03*
X112776000Y-90424000D03*
X112776000Y-93980000D03*
X128905000Y-92075000D03*
X117475000Y-92075000D03*
X124460000Y-92075000D03*
X124777500Y-88900000D03*
X128905000Y-81915000D03*
X124460000Y-81915000D03*
X124777500Y-78740000D03*
X113665000Y-81915000D03*
X117475000Y-81915000D03*
X132715000Y-69215000D03*
X128905000Y-69215000D03*
X111760000Y-114300000D03*
X131127500Y-115252500D03*
X116840000Y-108204000D03*
X124777500Y-66040000D03*
X117475000Y-69215000D03*
X113665000Y-69215000D03*
X128905000Y-116840000D03*
X124460000Y-59055000D03*
X124460000Y-69215000D03*
X132715000Y-59055000D03*
X128905000Y-59055000D03*
X124777500Y-55880000D03*
X117157500Y-59055000D03*
X113665000Y-59055000D03*
X113665000Y-92075000D03*
X131064000Y-101346000D03*
X116840000Y-57150000D03*
X130302000Y-101854000D03*
X116840000Y-60960000D03*
X132599000Y-102605000D03*
X129794000Y-61214000D03*
X131826000Y-103378000D03*
X129794000Y-57150000D03*
X125984000Y-103886000D03*
X116586000Y-67310000D03*
X125984000Y-104648000D03*
X116586000Y-71120000D03*
X134112000Y-105156000D03*
X129794000Y-71120000D03*
X135890000Y-105918000D03*
X129794000Y-67310000D03*
X122428000Y-104140000D03*
X116586000Y-80010000D03*
X120904000Y-104902000D03*
X116586000Y-83820000D03*
X125984000Y-95504000D03*
X129794000Y-83820000D03*
X125476000Y-96012000D03*
X129794000Y-80010000D03*
X116586000Y-90170000D03*
X116586000Y-103124000D03*
X114554000Y-96774000D03*
X115570000Y-102108000D03*
X124968000Y-98044000D03*
X129794000Y-93980000D03*
X124968000Y-97282000D03*
X129794000Y-89916000D03*
X124968000Y-105664000D03*
X124460000Y-107188000D03*
X110998000Y-107950000D03*
D12*
X138990001Y-118670000D02*
X107390000Y-118670000D01*
X107390000Y-117896231D01*
X108343374Y-117896231D01*
X108425727Y-118149289D01*
X108696418Y-118279086D01*
X108987230Y-118353580D01*
X109286988Y-118369908D01*
X109584171Y-118327443D01*
X109867359Y-118227816D01*
X110014273Y-118149289D01*
X110096626Y-117896231D01*
X109220000Y-117019605D01*
X108343374Y-117896231D01*
X107390000Y-117896231D01*
X107390000Y-116906988D01*
X107690092Y-116906988D01*
X107732557Y-117204171D01*
X107832184Y-117487359D01*
X107910711Y-117634273D01*
X108163769Y-117716626D01*
X109040395Y-116840000D01*
X109399605Y-116840000D01*
X110276231Y-117716626D01*
X110529289Y-117634273D01*
X110659086Y-117363582D01*
X110733580Y-117072770D01*
X110749908Y-116773012D01*
X110707443Y-116475829D01*
X110607816Y-116192641D01*
X110529289Y-116045727D01*
X110276231Y-115963374D01*
X109399605Y-116840000D01*
X109040395Y-116840000D01*
X108163769Y-115963374D01*
X107910711Y-116045727D01*
X107780914Y-116316418D01*
X107706420Y-116607230D01*
X107690092Y-116906988D01*
X107390000Y-116906988D01*
X107390000Y-103989899D01*
X107696000Y-103989899D01*
X107696000Y-104290101D01*
X107754566Y-104584534D01*
X107869449Y-104861885D01*
X108036232Y-105111493D01*
X108248507Y-105323768D01*
X108377562Y-105410000D01*
X108248507Y-105496232D01*
X108036232Y-105708507D01*
X107869449Y-105958115D01*
X107754566Y-106235466D01*
X107696000Y-106529899D01*
X107696000Y-106830101D01*
X107754566Y-107124534D01*
X107869449Y-107401885D01*
X108036232Y-107651493D01*
X108248507Y-107863768D01*
X108377562Y-107950000D01*
X108248507Y-108036232D01*
X108036232Y-108248507D01*
X107869449Y-108498115D01*
X107754566Y-108775466D01*
X107696000Y-109069899D01*
X107696000Y-109370101D01*
X107754566Y-109664534D01*
X107869449Y-109941885D01*
X108036232Y-110191493D01*
X108248507Y-110403768D01*
X108377562Y-110490000D01*
X108248507Y-110576232D01*
X108036232Y-110788507D01*
X107869449Y-111038115D01*
X107754566Y-111315466D01*
X107696000Y-111609899D01*
X107696000Y-111910101D01*
X107754566Y-112204534D01*
X107869449Y-112481885D01*
X108036232Y-112731493D01*
X108248507Y-112943768D01*
X108377562Y-113030000D01*
X108248507Y-113116232D01*
X108036232Y-113328507D01*
X107869449Y-113578115D01*
X107754566Y-113855466D01*
X107696000Y-114149899D01*
X107696000Y-114450101D01*
X107754566Y-114744534D01*
X107869449Y-115021885D01*
X108036232Y-115271493D01*
X108248507Y-115483768D01*
X108406622Y-115589417D01*
X108343374Y-115783769D01*
X109220000Y-116660395D01*
X110096626Y-115783769D01*
X110033378Y-115589417D01*
X110191493Y-115483768D01*
X110403768Y-115271493D01*
X110570551Y-115021885D01*
X110685434Y-114744534D01*
X110744000Y-114450101D01*
X110744000Y-114149899D01*
X110685434Y-113855466D01*
X110570551Y-113578115D01*
X110403768Y-113328507D01*
X110191493Y-113116232D01*
X110062438Y-113030000D01*
X110191493Y-112943768D01*
X110403768Y-112731493D01*
X110570551Y-112481885D01*
X110685434Y-112204534D01*
X110744000Y-111910101D01*
X110744000Y-111609899D01*
X110706913Y-111423444D01*
X115747800Y-111423444D01*
X115747800Y-111588556D01*
X115780011Y-111750494D01*
X115843197Y-111903037D01*
X115934927Y-112040322D01*
X116035605Y-112141000D01*
X115934927Y-112241678D01*
X115843197Y-112378963D01*
X115780011Y-112531506D01*
X115747800Y-112693444D01*
X115747800Y-112858556D01*
X115780011Y-113020494D01*
X115843197Y-113173037D01*
X115934927Y-113310322D01*
X116051678Y-113427073D01*
X116188963Y-113518803D01*
X116235308Y-113538000D01*
X116188963Y-113557197D01*
X116051678Y-113648927D01*
X115934927Y-113765678D01*
X115843197Y-113902963D01*
X115780011Y-114055506D01*
X115747800Y-114217444D01*
X115747800Y-114382556D01*
X115780011Y-114544494D01*
X115843197Y-114697037D01*
X115934927Y-114834322D01*
X116051678Y-114951073D01*
X116188963Y-115042803D01*
X116235308Y-115062000D01*
X116188963Y-115081197D01*
X116051678Y-115172927D01*
X115934927Y-115289678D01*
X115843197Y-115426963D01*
X115780011Y-115579506D01*
X115747800Y-115741444D01*
X115747800Y-115906556D01*
X115780011Y-116068494D01*
X115843197Y-116221037D01*
X115934927Y-116358322D01*
X116035605Y-116459000D01*
X115934927Y-116559678D01*
X115843197Y-116696963D01*
X115780011Y-116849506D01*
X115747800Y-117011444D01*
X115747800Y-117176556D01*
X115780011Y-117338494D01*
X115843197Y-117491037D01*
X115934927Y-117628322D01*
X116051678Y-117745073D01*
X116188963Y-117836803D01*
X116341506Y-117899989D01*
X116503444Y-117932200D01*
X116668556Y-117932200D01*
X116830494Y-117899989D01*
X116983037Y-117836803D01*
X117120322Y-117745073D01*
X117237073Y-117628322D01*
X117328803Y-117491037D01*
X117348000Y-117444692D01*
X117367197Y-117491037D01*
X117458927Y-117628322D01*
X117575678Y-117745073D01*
X117712963Y-117836803D01*
X117865506Y-117899989D01*
X118027444Y-117932200D01*
X118192556Y-117932200D01*
X118354494Y-117899989D01*
X118507037Y-117836803D01*
X118644322Y-117745073D01*
X118761073Y-117628322D01*
X118852803Y-117491037D01*
X118915989Y-117338494D01*
X118948200Y-117176556D01*
X118948200Y-117011444D01*
X119049800Y-117011444D01*
X119049800Y-117176556D01*
X119082011Y-117338494D01*
X119145197Y-117491037D01*
X119236927Y-117628322D01*
X119353678Y-117745073D01*
X119490963Y-117836803D01*
X119643506Y-117899989D01*
X119805444Y-117932200D01*
X119970556Y-117932200D01*
X120132494Y-117899989D01*
X120285037Y-117836803D01*
X120422322Y-117745073D01*
X120539073Y-117628322D01*
X120630803Y-117491037D01*
X120693989Y-117338494D01*
X120726200Y-117176556D01*
X120726200Y-117011444D01*
X120827800Y-117011444D01*
X120827800Y-117176556D01*
X120860011Y-117338494D01*
X120923197Y-117491037D01*
X121014927Y-117628322D01*
X121131678Y-117745073D01*
X121268963Y-117836803D01*
X121421506Y-117899989D01*
X121583444Y-117932200D01*
X121748556Y-117932200D01*
X121910494Y-117899989D01*
X122063037Y-117836803D01*
X122200322Y-117745073D01*
X122317073Y-117628322D01*
X122408803Y-117491037D01*
X122471989Y-117338494D01*
X122504200Y-117176556D01*
X122504200Y-117011444D01*
X122471989Y-116849506D01*
X122408803Y-116696963D01*
X122317073Y-116559678D01*
X122200322Y-116442927D01*
X122063037Y-116351197D01*
X121910494Y-116288011D01*
X121748556Y-116255800D01*
X121583444Y-116255800D01*
X121421506Y-116288011D01*
X121268963Y-116351197D01*
X121131678Y-116442927D01*
X121014927Y-116559678D01*
X120923197Y-116696963D01*
X120860011Y-116849506D01*
X120827800Y-117011444D01*
X120726200Y-117011444D01*
X120693989Y-116849506D01*
X120630803Y-116696963D01*
X120539073Y-116559678D01*
X120422322Y-116442927D01*
X120285037Y-116351197D01*
X120132494Y-116288011D01*
X119970556Y-116255800D01*
X119805444Y-116255800D01*
X119643506Y-116288011D01*
X119490963Y-116351197D01*
X119353678Y-116442927D01*
X119236927Y-116559678D01*
X119145197Y-116696963D01*
X119082011Y-116849506D01*
X119049800Y-117011444D01*
X118948200Y-117011444D01*
X118915989Y-116849506D01*
X118852803Y-116696963D01*
X118761073Y-116559678D01*
X118644322Y-116442927D01*
X118507037Y-116351197D01*
X118354494Y-116288011D01*
X118192556Y-116255800D01*
X118027444Y-116255800D01*
X117865506Y-116288011D01*
X117712963Y-116351197D01*
X117575678Y-116442927D01*
X117458927Y-116559678D01*
X117367197Y-116696963D01*
X117348000Y-116743308D01*
X117328803Y-116696963D01*
X117237073Y-116559678D01*
X117136395Y-116459000D01*
X117237073Y-116358322D01*
X117328803Y-116221037D01*
X117391989Y-116068494D01*
X117424200Y-115906556D01*
X117424200Y-115741444D01*
X117391989Y-115579506D01*
X117328803Y-115426963D01*
X117237073Y-115289678D01*
X117120322Y-115172927D01*
X116983037Y-115081197D01*
X116936692Y-115062000D01*
X116983037Y-115042803D01*
X117120322Y-114951073D01*
X117237073Y-114834322D01*
X117328803Y-114697037D01*
X117391989Y-114544494D01*
X117424200Y-114382556D01*
X117424200Y-114217444D01*
X117391989Y-114055506D01*
X117328803Y-113902963D01*
X117237073Y-113765678D01*
X117120322Y-113648927D01*
X116983037Y-113557197D01*
X116936692Y-113538000D01*
X116983037Y-113518803D01*
X117120322Y-113427073D01*
X117237073Y-113310322D01*
X117328803Y-113173037D01*
X117391989Y-113020494D01*
X117424200Y-112858556D01*
X117424200Y-112693444D01*
X117391989Y-112531506D01*
X117328803Y-112378963D01*
X117237073Y-112241678D01*
X117136395Y-112141000D01*
X117237073Y-112040322D01*
X117328803Y-111903037D01*
X117348000Y-111856692D01*
X117367197Y-111903037D01*
X117458927Y-112040322D01*
X117575678Y-112157073D01*
X117712963Y-112248803D01*
X117865506Y-112311989D01*
X118027444Y-112344200D01*
X118192556Y-112344200D01*
X118354494Y-112311989D01*
X118507037Y-112248803D01*
X118644322Y-112157073D01*
X118761073Y-112040322D01*
X118852803Y-111903037D01*
X118915989Y-111750494D01*
X118948200Y-111588556D01*
X118948200Y-111423444D01*
X119049800Y-111423444D01*
X119049800Y-111588556D01*
X119082011Y-111750494D01*
X119145197Y-111903037D01*
X119236927Y-112040322D01*
X119353678Y-112157073D01*
X119490963Y-112248803D01*
X119643506Y-112311989D01*
X119805444Y-112344200D01*
X119970556Y-112344200D01*
X120132494Y-112311989D01*
X120285037Y-112248803D01*
X120422322Y-112157073D01*
X120539073Y-112040322D01*
X120630803Y-111903037D01*
X120693989Y-111750494D01*
X120726200Y-111588556D01*
X120726200Y-111423444D01*
X120827800Y-111423444D01*
X120827800Y-111588556D01*
X120860011Y-111750494D01*
X120923197Y-111903037D01*
X121014927Y-112040322D01*
X121131678Y-112157073D01*
X121268963Y-112248803D01*
X121421506Y-112311989D01*
X121583444Y-112344200D01*
X121748556Y-112344200D01*
X121910494Y-112311989D01*
X122063037Y-112248803D01*
X122200322Y-112157073D01*
X122317073Y-112040322D01*
X122408803Y-111903037D01*
X122471989Y-111750494D01*
X122504200Y-111588556D01*
X122504200Y-111423444D01*
X122605800Y-111423444D01*
X122605800Y-111588556D01*
X122638011Y-111750494D01*
X122701197Y-111903037D01*
X122792927Y-112040322D01*
X122893605Y-112141000D01*
X122792927Y-112241678D01*
X122701197Y-112378963D01*
X122638011Y-112531506D01*
X122605800Y-112693444D01*
X122605800Y-112858556D01*
X122638011Y-113020494D01*
X122701197Y-113173037D01*
X122792927Y-113310322D01*
X122909678Y-113427073D01*
X123046963Y-113518803D01*
X123093308Y-113538000D01*
X123046963Y-113557197D01*
X122909678Y-113648927D01*
X122792927Y-113765678D01*
X122701197Y-113902963D01*
X122638011Y-114055506D01*
X122605800Y-114217444D01*
X122605800Y-114382556D01*
X122638011Y-114544494D01*
X122701197Y-114697037D01*
X122792927Y-114834322D01*
X122909678Y-114951073D01*
X123046963Y-115042803D01*
X123093308Y-115062000D01*
X123046963Y-115081197D01*
X122909678Y-115172927D01*
X122792927Y-115289678D01*
X122701197Y-115426963D01*
X122638011Y-115579506D01*
X122605800Y-115741444D01*
X122605800Y-115906556D01*
X122638011Y-116068494D01*
X122701197Y-116221037D01*
X122792927Y-116358322D01*
X122893605Y-116459000D01*
X122792927Y-116559678D01*
X122701197Y-116696963D01*
X122638011Y-116849506D01*
X122605800Y-117011444D01*
X122605800Y-117176556D01*
X122638011Y-117338494D01*
X122701197Y-117491037D01*
X122792927Y-117628322D01*
X122909678Y-117745073D01*
X123046963Y-117836803D01*
X123199506Y-117899989D01*
X123361444Y-117932200D01*
X123526556Y-117932200D01*
X123688494Y-117899989D01*
X123697566Y-117896231D01*
X136283374Y-117896231D01*
X136365727Y-118149289D01*
X136636418Y-118279086D01*
X136927230Y-118353580D01*
X137226988Y-118369908D01*
X137524171Y-118327443D01*
X137807359Y-118227816D01*
X137954273Y-118149289D01*
X138036626Y-117896231D01*
X137160000Y-117019605D01*
X136283374Y-117896231D01*
X123697566Y-117896231D01*
X123841037Y-117836803D01*
X123978322Y-117745073D01*
X124095073Y-117628322D01*
X124186803Y-117491037D01*
X124249989Y-117338494D01*
X124282200Y-117176556D01*
X124282200Y-117011444D01*
X124261423Y-116906988D01*
X135630092Y-116906988D01*
X135672557Y-117204171D01*
X135772184Y-117487359D01*
X135850711Y-117634273D01*
X136103769Y-117716626D01*
X136980395Y-116840000D01*
X137339605Y-116840000D01*
X138216231Y-117716626D01*
X138469289Y-117634273D01*
X138599086Y-117363582D01*
X138673580Y-117072770D01*
X138689908Y-116773012D01*
X138647443Y-116475829D01*
X138547816Y-116192641D01*
X138469289Y-116045727D01*
X138216231Y-115963374D01*
X137339605Y-116840000D01*
X136980395Y-116840000D01*
X136103769Y-115963374D01*
X135850711Y-116045727D01*
X135720914Y-116316418D01*
X135646420Y-116607230D01*
X135630092Y-116906988D01*
X124261423Y-116906988D01*
X124249989Y-116849506D01*
X124186803Y-116696963D01*
X124095073Y-116559678D01*
X123994395Y-116459000D01*
X124095073Y-116358322D01*
X124186803Y-116221037D01*
X124249989Y-116068494D01*
X124282200Y-115906556D01*
X124282200Y-115741444D01*
X124249989Y-115579506D01*
X124186803Y-115426963D01*
X124095073Y-115289678D01*
X123978322Y-115172927D01*
X123841037Y-115081197D01*
X123794692Y-115062000D01*
X123841037Y-115042803D01*
X123978322Y-114951073D01*
X124095073Y-114834322D01*
X124186803Y-114697037D01*
X124249989Y-114544494D01*
X124282200Y-114382556D01*
X124282200Y-114217444D01*
X124249989Y-114055506D01*
X124186803Y-113902963D01*
X124095073Y-113765678D01*
X123978322Y-113648927D01*
X123841037Y-113557197D01*
X123794692Y-113538000D01*
X123841037Y-113518803D01*
X123978322Y-113427073D01*
X124095073Y-113310322D01*
X124186803Y-113173037D01*
X124249989Y-113020494D01*
X124282200Y-112858556D01*
X124282200Y-112693444D01*
X124249989Y-112531506D01*
X124186803Y-112378963D01*
X124095073Y-112241678D01*
X123994395Y-112141000D01*
X124095073Y-112040322D01*
X124186803Y-111903037D01*
X124249989Y-111750494D01*
X124282200Y-111588556D01*
X124282200Y-111423444D01*
X124249989Y-111261506D01*
X124186803Y-111108963D01*
X124095073Y-110971678D01*
X123978322Y-110854927D01*
X123841037Y-110763197D01*
X123688494Y-110700011D01*
X123526556Y-110667800D01*
X123361444Y-110667800D01*
X123199506Y-110700011D01*
X123046963Y-110763197D01*
X122909678Y-110854927D01*
X122792927Y-110971678D01*
X122701197Y-111108963D01*
X122638011Y-111261506D01*
X122605800Y-111423444D01*
X122504200Y-111423444D01*
X122471989Y-111261506D01*
X122408803Y-111108963D01*
X122317073Y-110971678D01*
X122200322Y-110854927D01*
X122063037Y-110763197D01*
X121910494Y-110700011D01*
X121748556Y-110667800D01*
X121583444Y-110667800D01*
X121421506Y-110700011D01*
X121268963Y-110763197D01*
X121131678Y-110854927D01*
X121014927Y-110971678D01*
X120923197Y-111108963D01*
X120860011Y-111261506D01*
X120827800Y-111423444D01*
X120726200Y-111423444D01*
X120693989Y-111261506D01*
X120630803Y-111108963D01*
X120539073Y-110971678D01*
X120422322Y-110854927D01*
X120285037Y-110763197D01*
X120132494Y-110700011D01*
X119970556Y-110667800D01*
X119805444Y-110667800D01*
X119643506Y-110700011D01*
X119490963Y-110763197D01*
X119353678Y-110854927D01*
X119236927Y-110971678D01*
X119145197Y-111108963D01*
X119082011Y-111261506D01*
X119049800Y-111423444D01*
X118948200Y-111423444D01*
X118915989Y-111261506D01*
X118852803Y-111108963D01*
X118761073Y-110971678D01*
X118644322Y-110854927D01*
X118507037Y-110763197D01*
X118354494Y-110700011D01*
X118192556Y-110667800D01*
X118027444Y-110667800D01*
X117865506Y-110700011D01*
X117712963Y-110763197D01*
X117575678Y-110854927D01*
X117458927Y-110971678D01*
X117367197Y-111108963D01*
X117348000Y-111155308D01*
X117328803Y-111108963D01*
X117237073Y-110971678D01*
X117120322Y-110854927D01*
X116983037Y-110763197D01*
X116830494Y-110700011D01*
X116668556Y-110667800D01*
X116503444Y-110667800D01*
X116341506Y-110700011D01*
X116188963Y-110763197D01*
X116051678Y-110854927D01*
X115934927Y-110971678D01*
X115843197Y-111108963D01*
X115780011Y-111261506D01*
X115747800Y-111423444D01*
X110706913Y-111423444D01*
X110685434Y-111315466D01*
X110570551Y-111038115D01*
X110403768Y-110788507D01*
X110191493Y-110576232D01*
X110062438Y-110490000D01*
X110185991Y-110407444D01*
X130225800Y-110407444D01*
X130225800Y-110572556D01*
X130258011Y-110734494D01*
X130321197Y-110887037D01*
X130412927Y-111024322D01*
X130529678Y-111141073D01*
X130666963Y-111232803D01*
X130819506Y-111295989D01*
X130981444Y-111328200D01*
X131146556Y-111328200D01*
X131308494Y-111295989D01*
X131461037Y-111232803D01*
X131598322Y-111141073D01*
X131715073Y-111024322D01*
X131806803Y-110887037D01*
X131869989Y-110734494D01*
X131902200Y-110572556D01*
X131902200Y-110407444D01*
X131869989Y-110245506D01*
X131806803Y-110092963D01*
X131715073Y-109955678D01*
X131598322Y-109838927D01*
X131461037Y-109747197D01*
X131308494Y-109684011D01*
X131146556Y-109651800D01*
X130981444Y-109651800D01*
X130819506Y-109684011D01*
X130666963Y-109747197D01*
X130529678Y-109838927D01*
X130412927Y-109955678D01*
X130321197Y-110092963D01*
X130258011Y-110245506D01*
X130225800Y-110407444D01*
X110185991Y-110407444D01*
X110191493Y-110403768D01*
X110403768Y-110191493D01*
X110570551Y-109941885D01*
X110685434Y-109664534D01*
X110744000Y-109370101D01*
X110744000Y-109069899D01*
X110685434Y-108775466D01*
X110661597Y-108717919D01*
X110753506Y-108755989D01*
X110915444Y-108788200D01*
X111080556Y-108788200D01*
X111242494Y-108755989D01*
X111395037Y-108692803D01*
X111532322Y-108601073D01*
X111649073Y-108484322D01*
X111740803Y-108347037D01*
X111803989Y-108194494D01*
X111836200Y-108032556D01*
X111836200Y-107867444D01*
X111803989Y-107705506D01*
X111740803Y-107552963D01*
X111649073Y-107415678D01*
X111532322Y-107298927D01*
X111395037Y-107207197D01*
X111242494Y-107144011D01*
X111080556Y-107111800D01*
X110915444Y-107111800D01*
X110753506Y-107144011D01*
X110661597Y-107182081D01*
X110685434Y-107124534D01*
X110744000Y-106830101D01*
X110744000Y-106529899D01*
X110706913Y-106343444D01*
X114731800Y-106343444D01*
X114731800Y-106508556D01*
X114764011Y-106670494D01*
X114827197Y-106823037D01*
X114918927Y-106960322D01*
X115035678Y-107077073D01*
X115172963Y-107168803D01*
X115325506Y-107231989D01*
X115487444Y-107264200D01*
X115652556Y-107264200D01*
X115814494Y-107231989D01*
X115967037Y-107168803D01*
X116061861Y-107105444D01*
X123621800Y-107105444D01*
X123621800Y-107270556D01*
X123654011Y-107432494D01*
X123717197Y-107585037D01*
X123808927Y-107722322D01*
X123925678Y-107839073D01*
X124062963Y-107930803D01*
X124215506Y-107993989D01*
X124377444Y-108026200D01*
X124542556Y-108026200D01*
X124704494Y-107993989D01*
X124857037Y-107930803D01*
X124994322Y-107839073D01*
X125111073Y-107722322D01*
X125202803Y-107585037D01*
X125265989Y-107432494D01*
X125298200Y-107270556D01*
X125298200Y-107105444D01*
X125265989Y-106943506D01*
X125202803Y-106790963D01*
X125111073Y-106653678D01*
X124994322Y-106536927D01*
X124942349Y-106502200D01*
X125050556Y-106502200D01*
X125212494Y-106469989D01*
X125365037Y-106406803D01*
X125502322Y-106315073D01*
X125619073Y-106198322D01*
X125710803Y-106061037D01*
X125773989Y-105908494D01*
X125806200Y-105746556D01*
X125806200Y-105581444D01*
X125782551Y-105462551D01*
X125901444Y-105486200D01*
X126066556Y-105486200D01*
X126228494Y-105453989D01*
X126381037Y-105390803D01*
X126518322Y-105299073D01*
X126635073Y-105182322D01*
X126707822Y-105073444D01*
X133273800Y-105073444D01*
X133273800Y-105238556D01*
X133306011Y-105400494D01*
X133369197Y-105553037D01*
X133460927Y-105690322D01*
X133577678Y-105807073D01*
X133714963Y-105898803D01*
X133867506Y-105961989D01*
X134029444Y-105994200D01*
X134194556Y-105994200D01*
X134356494Y-105961989D01*
X134509037Y-105898803D01*
X134603861Y-105835444D01*
X135051800Y-105835444D01*
X135051800Y-106000556D01*
X135084011Y-106162494D01*
X135147197Y-106315037D01*
X135238927Y-106452322D01*
X135355678Y-106569073D01*
X135492963Y-106660803D01*
X135636000Y-106720051D01*
X135636000Y-106830101D01*
X135694566Y-107124534D01*
X135809449Y-107401885D01*
X135976232Y-107651493D01*
X136188507Y-107863768D01*
X136317562Y-107950000D01*
X136188507Y-108036232D01*
X135976232Y-108248507D01*
X135809449Y-108498115D01*
X135694566Y-108775466D01*
X135636000Y-109069899D01*
X135636000Y-109370101D01*
X135694566Y-109664534D01*
X135809449Y-109941885D01*
X135976232Y-110191493D01*
X136188507Y-110403768D01*
X136317562Y-110490000D01*
X136188507Y-110576232D01*
X135976232Y-110788507D01*
X135809449Y-111038115D01*
X135694566Y-111315466D01*
X135636000Y-111609899D01*
X135636000Y-111910101D01*
X135694566Y-112204534D01*
X135809449Y-112481885D01*
X135976232Y-112731493D01*
X136188507Y-112943768D01*
X136317562Y-113030000D01*
X136188507Y-113116232D01*
X135976232Y-113328507D01*
X135809449Y-113578115D01*
X135694566Y-113855466D01*
X135636000Y-114149899D01*
X135636000Y-114450101D01*
X135694566Y-114744534D01*
X135809449Y-115021885D01*
X135976232Y-115271493D01*
X136188507Y-115483768D01*
X136346622Y-115589417D01*
X136283374Y-115783769D01*
X137160000Y-116660395D01*
X138036626Y-115783769D01*
X137973378Y-115589417D01*
X138131493Y-115483768D01*
X138343768Y-115271493D01*
X138510551Y-115021885D01*
X138625434Y-114744534D01*
X138684000Y-114450101D01*
X138684000Y-114149899D01*
X138625434Y-113855466D01*
X138510551Y-113578115D01*
X138343768Y-113328507D01*
X138131493Y-113116232D01*
X138002438Y-113030000D01*
X138131493Y-112943768D01*
X138343768Y-112731493D01*
X138510551Y-112481885D01*
X138625434Y-112204534D01*
X138684000Y-111910101D01*
X138684000Y-111609899D01*
X138625434Y-111315466D01*
X138510551Y-111038115D01*
X138343768Y-110788507D01*
X138131493Y-110576232D01*
X138002438Y-110490000D01*
X138131493Y-110403768D01*
X138343768Y-110191493D01*
X138510551Y-109941885D01*
X138625434Y-109664534D01*
X138684000Y-109370101D01*
X138684000Y-109069899D01*
X138625434Y-108775466D01*
X138510551Y-108498115D01*
X138343768Y-108248507D01*
X138131493Y-108036232D01*
X138002438Y-107950000D01*
X138131493Y-107863768D01*
X138343768Y-107651493D01*
X138510551Y-107401885D01*
X138625434Y-107124534D01*
X138684000Y-106830101D01*
X138684000Y-106529899D01*
X138625434Y-106235466D01*
X138510551Y-105958115D01*
X138343768Y-105708507D01*
X138131493Y-105496232D01*
X138002438Y-105410000D01*
X138131493Y-105323768D01*
X138343768Y-105111493D01*
X138510551Y-104861885D01*
X138625434Y-104584534D01*
X138684000Y-104290101D01*
X138684000Y-103989899D01*
X138625434Y-103695466D01*
X138510551Y-103418115D01*
X138343768Y-103168507D01*
X138131493Y-102956232D01*
X137973378Y-102850583D01*
X138036626Y-102656231D01*
X137160000Y-101779605D01*
X136283374Y-102656231D01*
X136346622Y-102850583D01*
X136188507Y-102956232D01*
X135976232Y-103168507D01*
X135809449Y-103418115D01*
X135694566Y-103695466D01*
X135636000Y-103989899D01*
X135636000Y-104290101D01*
X135694566Y-104584534D01*
X135809449Y-104861885D01*
X135955055Y-105079800D01*
X135807444Y-105079800D01*
X135645506Y-105112011D01*
X135492963Y-105175197D01*
X135355678Y-105266927D01*
X135238927Y-105383678D01*
X135147197Y-105520963D01*
X135084011Y-105673506D01*
X135051800Y-105835444D01*
X134603861Y-105835444D01*
X134646322Y-105807073D01*
X134763073Y-105690322D01*
X134854803Y-105553037D01*
X134917989Y-105400494D01*
X134950200Y-105238556D01*
X134950200Y-105073444D01*
X134917989Y-104911506D01*
X134854803Y-104758963D01*
X134763073Y-104621678D01*
X134646322Y-104504927D01*
X134509037Y-104413197D01*
X134356494Y-104350011D01*
X134194556Y-104317800D01*
X134029444Y-104317800D01*
X133867506Y-104350011D01*
X133714963Y-104413197D01*
X133577678Y-104504927D01*
X133460927Y-104621678D01*
X133369197Y-104758963D01*
X133306011Y-104911506D01*
X133273800Y-105073444D01*
X126707822Y-105073444D01*
X126726803Y-105045037D01*
X126789989Y-104892494D01*
X126822200Y-104730556D01*
X126822200Y-104565444D01*
X126789989Y-104403506D01*
X126733446Y-104267000D01*
X126789989Y-104130494D01*
X126822200Y-103968556D01*
X126822200Y-103803444D01*
X126789989Y-103641506D01*
X126726803Y-103488963D01*
X126635073Y-103351678D01*
X126578839Y-103295444D01*
X130987800Y-103295444D01*
X130987800Y-103460556D01*
X131020011Y-103622494D01*
X131083197Y-103775037D01*
X131174927Y-103912322D01*
X131291678Y-104029073D01*
X131428963Y-104120803D01*
X131581506Y-104183989D01*
X131743444Y-104216200D01*
X131908556Y-104216200D01*
X132070494Y-104183989D01*
X132223037Y-104120803D01*
X132360322Y-104029073D01*
X132477073Y-103912322D01*
X132568803Y-103775037D01*
X132631989Y-103622494D01*
X132664200Y-103460556D01*
X132664200Y-103443200D01*
X132681556Y-103443200D01*
X132843494Y-103410989D01*
X132996037Y-103347803D01*
X133133322Y-103256073D01*
X133250073Y-103139322D01*
X133341803Y-103002037D01*
X133404989Y-102849494D01*
X133437200Y-102687556D01*
X133437200Y-102522444D01*
X133404989Y-102360506D01*
X133341803Y-102207963D01*
X133250073Y-102070678D01*
X133133322Y-101953927D01*
X132996037Y-101862197D01*
X132843494Y-101799011D01*
X132681556Y-101766800D01*
X132516444Y-101766800D01*
X132354506Y-101799011D01*
X132201963Y-101862197D01*
X132064678Y-101953927D01*
X131947927Y-102070678D01*
X131856197Y-102207963D01*
X131793011Y-102360506D01*
X131760800Y-102522444D01*
X131760800Y-102539800D01*
X131743444Y-102539800D01*
X131581506Y-102572011D01*
X131428963Y-102635197D01*
X131291678Y-102726927D01*
X131174927Y-102843678D01*
X131083197Y-102980963D01*
X131020011Y-103133506D01*
X130987800Y-103295444D01*
X126578839Y-103295444D01*
X126518322Y-103234927D01*
X126381037Y-103143197D01*
X126228494Y-103080011D01*
X126066556Y-103047800D01*
X125901444Y-103047800D01*
X125739506Y-103080011D01*
X125586963Y-103143197D01*
X125449678Y-103234927D01*
X125332927Y-103351678D01*
X125241197Y-103488963D01*
X125178011Y-103641506D01*
X125145800Y-103803444D01*
X125145800Y-103968556D01*
X125178011Y-104130494D01*
X125234554Y-104267000D01*
X125178011Y-104403506D01*
X125145800Y-104565444D01*
X125145800Y-104730556D01*
X125169449Y-104849449D01*
X125050556Y-104825800D01*
X124885444Y-104825800D01*
X124723506Y-104858011D01*
X124570963Y-104921197D01*
X124433678Y-105012927D01*
X124316927Y-105129678D01*
X124225197Y-105266963D01*
X124162011Y-105419506D01*
X124129800Y-105581444D01*
X124129800Y-105746556D01*
X124162011Y-105908494D01*
X124225197Y-106061037D01*
X124316927Y-106198322D01*
X124433678Y-106315073D01*
X124485651Y-106349800D01*
X124377444Y-106349800D01*
X124215506Y-106382011D01*
X124062963Y-106445197D01*
X123925678Y-106536927D01*
X123808927Y-106653678D01*
X123717197Y-106790963D01*
X123654011Y-106943506D01*
X123621800Y-107105444D01*
X116061861Y-107105444D01*
X116104322Y-107077073D01*
X116221073Y-106960322D01*
X116312803Y-106823037D01*
X116375989Y-106670494D01*
X116408200Y-106508556D01*
X116408200Y-106343444D01*
X116375989Y-106181506D01*
X116312803Y-106028963D01*
X116221073Y-105891678D01*
X116104322Y-105774927D01*
X115967037Y-105683197D01*
X115814494Y-105620011D01*
X115652556Y-105587800D01*
X115487444Y-105587800D01*
X115325506Y-105620011D01*
X115172963Y-105683197D01*
X115035678Y-105774927D01*
X114918927Y-105891678D01*
X114827197Y-106028963D01*
X114764011Y-106181506D01*
X114731800Y-106343444D01*
X110706913Y-106343444D01*
X110685434Y-106235466D01*
X110570551Y-105958115D01*
X110403768Y-105708507D01*
X110191493Y-105496232D01*
X110062438Y-105410000D01*
X110191493Y-105323768D01*
X110403768Y-105111493D01*
X110570551Y-104861885D01*
X110588130Y-104819444D01*
X120065800Y-104819444D01*
X120065800Y-104984556D01*
X120098011Y-105146494D01*
X120161197Y-105299037D01*
X120252927Y-105436322D01*
X120369678Y-105553073D01*
X120506963Y-105644803D01*
X120659506Y-105707989D01*
X120821444Y-105740200D01*
X120986556Y-105740200D01*
X121148494Y-105707989D01*
X121301037Y-105644803D01*
X121438322Y-105553073D01*
X121555073Y-105436322D01*
X121646803Y-105299037D01*
X121709989Y-105146494D01*
X121742200Y-104984556D01*
X121742200Y-104819444D01*
X121709989Y-104657506D01*
X121646803Y-104504963D01*
X121555073Y-104367678D01*
X121438322Y-104250927D01*
X121301037Y-104159197D01*
X121148494Y-104096011D01*
X120986556Y-104063800D01*
X120821444Y-104063800D01*
X120659506Y-104096011D01*
X120506963Y-104159197D01*
X120369678Y-104250927D01*
X120252927Y-104367678D01*
X120161197Y-104504963D01*
X120098011Y-104657506D01*
X120065800Y-104819444D01*
X110588130Y-104819444D01*
X110685434Y-104584534D01*
X110744000Y-104290101D01*
X110744000Y-104057444D01*
X121589800Y-104057444D01*
X121589800Y-104222556D01*
X121622011Y-104384494D01*
X121685197Y-104537037D01*
X121776927Y-104674322D01*
X121893678Y-104791073D01*
X122030963Y-104882803D01*
X122183506Y-104945989D01*
X122345444Y-104978200D01*
X122510556Y-104978200D01*
X122672494Y-104945989D01*
X122825037Y-104882803D01*
X122962322Y-104791073D01*
X123079073Y-104674322D01*
X123170803Y-104537037D01*
X123233989Y-104384494D01*
X123266200Y-104222556D01*
X123266200Y-104057444D01*
X123233989Y-103895506D01*
X123170803Y-103742963D01*
X123079073Y-103605678D01*
X122962322Y-103488927D01*
X122825037Y-103397197D01*
X122672494Y-103334011D01*
X122510556Y-103301800D01*
X122345444Y-103301800D01*
X122183506Y-103334011D01*
X122030963Y-103397197D01*
X121893678Y-103488927D01*
X121776927Y-103605678D01*
X121685197Y-103742963D01*
X121622011Y-103895506D01*
X121589800Y-104057444D01*
X110744000Y-104057444D01*
X110744000Y-103989899D01*
X110685434Y-103695466D01*
X110570551Y-103418115D01*
X110403768Y-103168507D01*
X110191493Y-102956232D01*
X110033378Y-102850583D01*
X110096626Y-102656231D01*
X109220000Y-101779605D01*
X108343374Y-102656231D01*
X108406622Y-102850583D01*
X108248507Y-102956232D01*
X108036232Y-103168507D01*
X107869449Y-103418115D01*
X107754566Y-103695466D01*
X107696000Y-103989899D01*
X107390000Y-103989899D01*
X107390000Y-101666988D01*
X107690092Y-101666988D01*
X107732557Y-101964171D01*
X107832184Y-102247359D01*
X107910711Y-102394273D01*
X108163769Y-102476626D01*
X109040395Y-101600000D01*
X109399605Y-101600000D01*
X110276231Y-102476626D01*
X110529289Y-102394273D01*
X110659086Y-102123582D01*
X110684224Y-102025444D01*
X114731800Y-102025444D01*
X114731800Y-102190556D01*
X114764011Y-102352494D01*
X114827197Y-102505037D01*
X114918927Y-102642322D01*
X115035678Y-102759073D01*
X115172963Y-102850803D01*
X115325506Y-102913989D01*
X115487444Y-102946200D01*
X115652556Y-102946200D01*
X115771449Y-102922551D01*
X115747800Y-103041444D01*
X115747800Y-103206556D01*
X115780011Y-103368494D01*
X115843197Y-103521037D01*
X115934927Y-103658322D01*
X116051678Y-103775073D01*
X116188963Y-103866803D01*
X116341506Y-103929989D01*
X116503444Y-103962200D01*
X116668556Y-103962200D01*
X116830494Y-103929989D01*
X116983037Y-103866803D01*
X117120322Y-103775073D01*
X117237073Y-103658322D01*
X117328803Y-103521037D01*
X117391989Y-103368494D01*
X117424200Y-103206556D01*
X117424200Y-103041444D01*
X117391989Y-102879506D01*
X117328803Y-102726963D01*
X117237073Y-102589678D01*
X117120322Y-102472927D01*
X116983037Y-102381197D01*
X116830494Y-102318011D01*
X116668556Y-102285800D01*
X116503444Y-102285800D01*
X116384551Y-102309449D01*
X116408200Y-102190556D01*
X116408200Y-102025444D01*
X116375989Y-101863506D01*
X116337856Y-101771444D01*
X129463800Y-101771444D01*
X129463800Y-101936556D01*
X129496011Y-102098494D01*
X129559197Y-102251037D01*
X129650927Y-102388322D01*
X129767678Y-102505073D01*
X129904963Y-102596803D01*
X130057506Y-102659989D01*
X130219444Y-102692200D01*
X130384556Y-102692200D01*
X130546494Y-102659989D01*
X130699037Y-102596803D01*
X130836322Y-102505073D01*
X130953073Y-102388322D01*
X131044803Y-102251037D01*
X131072488Y-102184200D01*
X131146556Y-102184200D01*
X131308494Y-102151989D01*
X131461037Y-102088803D01*
X131598322Y-101997073D01*
X131715073Y-101880322D01*
X131806803Y-101743037D01*
X131838303Y-101666988D01*
X135630092Y-101666988D01*
X135672557Y-101964171D01*
X135772184Y-102247359D01*
X135850711Y-102394273D01*
X136103769Y-102476626D01*
X136980395Y-101600000D01*
X137339605Y-101600000D01*
X138216231Y-102476626D01*
X138469289Y-102394273D01*
X138599086Y-102123582D01*
X138673580Y-101832770D01*
X138689908Y-101533012D01*
X138647443Y-101235829D01*
X138547816Y-100952641D01*
X138469289Y-100805727D01*
X138216231Y-100723374D01*
X137339605Y-101600000D01*
X136980395Y-101600000D01*
X136103769Y-100723374D01*
X135850711Y-100805727D01*
X135720914Y-101076418D01*
X135646420Y-101367230D01*
X135630092Y-101666988D01*
X131838303Y-101666988D01*
X131869989Y-101590494D01*
X131902200Y-101428556D01*
X131902200Y-101263444D01*
X131869989Y-101101506D01*
X131806803Y-100948963D01*
X131715073Y-100811678D01*
X131598322Y-100694927D01*
X131461037Y-100603197D01*
X131308494Y-100540011D01*
X131146556Y-100507800D01*
X130981444Y-100507800D01*
X130819506Y-100540011D01*
X130666963Y-100603197D01*
X130529678Y-100694927D01*
X130412927Y-100811678D01*
X130321197Y-100948963D01*
X130293512Y-101015800D01*
X130219444Y-101015800D01*
X130057506Y-101048011D01*
X129904963Y-101111197D01*
X129767678Y-101202927D01*
X129650927Y-101319678D01*
X129559197Y-101456963D01*
X129496011Y-101609506D01*
X129463800Y-101771444D01*
X116337856Y-101771444D01*
X116312803Y-101710963D01*
X116221073Y-101573678D01*
X116104322Y-101456927D01*
X115967037Y-101365197D01*
X115814494Y-101302011D01*
X115652556Y-101269800D01*
X115487444Y-101269800D01*
X115325506Y-101302011D01*
X115172963Y-101365197D01*
X115035678Y-101456927D01*
X114918927Y-101573678D01*
X114827197Y-101710963D01*
X114764011Y-101863506D01*
X114731800Y-102025444D01*
X110684224Y-102025444D01*
X110733580Y-101832770D01*
X110749908Y-101533012D01*
X110707443Y-101235829D01*
X110607816Y-100952641D01*
X110529289Y-100805727D01*
X110276231Y-100723374D01*
X109399605Y-101600000D01*
X109040395Y-101600000D01*
X108163769Y-100723374D01*
X107910711Y-100805727D01*
X107780914Y-101076418D01*
X107706420Y-101367230D01*
X107690092Y-101666988D01*
X107390000Y-101666988D01*
X107390000Y-100116231D01*
X108343374Y-100116231D01*
X108412941Y-100330000D01*
X108343374Y-100543769D01*
X109220000Y-101420395D01*
X110096626Y-100543769D01*
X110027059Y-100330000D01*
X110096626Y-100116231D01*
X136283374Y-100116231D01*
X136352941Y-100330000D01*
X136283374Y-100543769D01*
X137160000Y-101420395D01*
X138036626Y-100543769D01*
X137967059Y-100330000D01*
X138036626Y-100116231D01*
X137160000Y-99239605D01*
X136283374Y-100116231D01*
X110096626Y-100116231D01*
X109220000Y-99239605D01*
X108343374Y-100116231D01*
X107390000Y-100116231D01*
X107390000Y-99126988D01*
X107690092Y-99126988D01*
X107732557Y-99424171D01*
X107832184Y-99707359D01*
X107910711Y-99854273D01*
X108163769Y-99936626D01*
X109040395Y-99060000D01*
X109399605Y-99060000D01*
X110276231Y-99936626D01*
X110529289Y-99854273D01*
X110659086Y-99583582D01*
X110733580Y-99292770D01*
X110742610Y-99126988D01*
X135630092Y-99126988D01*
X135672557Y-99424171D01*
X135772184Y-99707359D01*
X135850711Y-99854273D01*
X136103769Y-99936626D01*
X136980395Y-99060000D01*
X137339605Y-99060000D01*
X138216231Y-99936626D01*
X138469289Y-99854273D01*
X138599086Y-99583582D01*
X138673580Y-99292770D01*
X138689908Y-98993012D01*
X138647443Y-98695829D01*
X138547816Y-98412641D01*
X138469289Y-98265727D01*
X138216231Y-98183374D01*
X137339605Y-99060000D01*
X136980395Y-99060000D01*
X136103769Y-98183374D01*
X135850711Y-98265727D01*
X135720914Y-98536418D01*
X135646420Y-98827230D01*
X135630092Y-99126988D01*
X110742610Y-99126988D01*
X110749908Y-98993012D01*
X110707443Y-98695829D01*
X110607816Y-98412641D01*
X110529289Y-98265727D01*
X110276231Y-98183374D01*
X109399605Y-99060000D01*
X109040395Y-99060000D01*
X108163769Y-98183374D01*
X107910711Y-98265727D01*
X107780914Y-98536418D01*
X107706420Y-98827230D01*
X107690092Y-99126988D01*
X107390000Y-99126988D01*
X107390000Y-96369899D01*
X107696000Y-96369899D01*
X107696000Y-96670101D01*
X107754566Y-96964534D01*
X107869449Y-97241885D01*
X108036232Y-97491493D01*
X108248507Y-97703768D01*
X108406622Y-97809417D01*
X108343374Y-98003769D01*
X109220000Y-98880395D01*
X110096626Y-98003769D01*
X110033378Y-97809417D01*
X110191493Y-97703768D01*
X110403768Y-97491493D01*
X110570551Y-97241885D01*
X110685434Y-96964534D01*
X110739754Y-96691444D01*
X113715800Y-96691444D01*
X113715800Y-96856556D01*
X113748011Y-97018494D01*
X113811197Y-97171037D01*
X113902927Y-97308322D01*
X114019678Y-97425073D01*
X114156963Y-97516803D01*
X114309506Y-97579989D01*
X114471444Y-97612200D01*
X114636556Y-97612200D01*
X114798494Y-97579989D01*
X114951037Y-97516803D01*
X115088322Y-97425073D01*
X115205073Y-97308322D01*
X115277822Y-97199444D01*
X124129800Y-97199444D01*
X124129800Y-97364556D01*
X124162011Y-97526494D01*
X124218554Y-97663000D01*
X124162011Y-97799506D01*
X124129800Y-97961444D01*
X124129800Y-98126556D01*
X124162011Y-98288494D01*
X124225197Y-98441037D01*
X124316927Y-98578322D01*
X124433678Y-98695073D01*
X124570963Y-98786803D01*
X124723506Y-98849989D01*
X124885444Y-98882200D01*
X125050556Y-98882200D01*
X125212494Y-98849989D01*
X125365037Y-98786803D01*
X125502322Y-98695073D01*
X125619073Y-98578322D01*
X125710803Y-98441037D01*
X125773989Y-98288494D01*
X125806200Y-98126556D01*
X125806200Y-97961444D01*
X125773989Y-97799506D01*
X125717446Y-97663000D01*
X125773989Y-97526494D01*
X125806200Y-97364556D01*
X125806200Y-97199444D01*
X125773989Y-97037506D01*
X125710803Y-96884963D01*
X125672440Y-96827547D01*
X125720494Y-96817989D01*
X125873037Y-96754803D01*
X126010322Y-96663073D01*
X126127073Y-96546322D01*
X126218803Y-96409037D01*
X126235014Y-96369899D01*
X135636000Y-96369899D01*
X135636000Y-96670101D01*
X135694566Y-96964534D01*
X135809449Y-97241885D01*
X135976232Y-97491493D01*
X136188507Y-97703768D01*
X136346622Y-97809417D01*
X136283374Y-98003769D01*
X137160000Y-98880395D01*
X138036626Y-98003769D01*
X137973378Y-97809417D01*
X138131493Y-97703768D01*
X138343768Y-97491493D01*
X138510551Y-97241885D01*
X138625434Y-96964534D01*
X138684000Y-96670101D01*
X138684000Y-96369899D01*
X138625434Y-96075466D01*
X138510551Y-95798115D01*
X138343768Y-95548507D01*
X138131493Y-95336232D01*
X137973378Y-95230583D01*
X138036626Y-95036231D01*
X137160000Y-94159605D01*
X136283374Y-95036231D01*
X136346622Y-95230583D01*
X136188507Y-95336232D01*
X135976232Y-95548507D01*
X135809449Y-95798115D01*
X135694566Y-96075466D01*
X135636000Y-96369899D01*
X126235014Y-96369899D01*
X126266321Y-96294321D01*
X126381037Y-96246803D01*
X126518322Y-96155073D01*
X126635073Y-96038322D01*
X126726803Y-95901037D01*
X126789989Y-95748494D01*
X126822200Y-95586556D01*
X126822200Y-95421444D01*
X126789989Y-95259506D01*
X126726803Y-95106963D01*
X126635073Y-94969678D01*
X126518322Y-94852927D01*
X126381037Y-94761197D01*
X126228494Y-94698011D01*
X126066556Y-94665800D01*
X125901444Y-94665800D01*
X125739506Y-94698011D01*
X125586963Y-94761197D01*
X125449678Y-94852927D01*
X125332927Y-94969678D01*
X125241197Y-95106963D01*
X125193679Y-95221679D01*
X125078963Y-95269197D01*
X124941678Y-95360927D01*
X124824927Y-95477678D01*
X124733197Y-95614963D01*
X124670011Y-95767506D01*
X124637800Y-95929444D01*
X124637800Y-96094556D01*
X124670011Y-96256494D01*
X124733197Y-96409037D01*
X124771560Y-96466453D01*
X124723506Y-96476011D01*
X124570963Y-96539197D01*
X124433678Y-96630927D01*
X124316927Y-96747678D01*
X124225197Y-96884963D01*
X124162011Y-97037506D01*
X124129800Y-97199444D01*
X115277822Y-97199444D01*
X115296803Y-97171037D01*
X115359989Y-97018494D01*
X115392200Y-96856556D01*
X115392200Y-96691444D01*
X115359989Y-96529506D01*
X115296803Y-96376963D01*
X115205073Y-96239678D01*
X115088322Y-96122927D01*
X114951037Y-96031197D01*
X114798494Y-95968011D01*
X114636556Y-95935800D01*
X114471444Y-95935800D01*
X114309506Y-95968011D01*
X114156963Y-96031197D01*
X114019678Y-96122927D01*
X113902927Y-96239678D01*
X113811197Y-96376963D01*
X113748011Y-96529506D01*
X113715800Y-96691444D01*
X110739754Y-96691444D01*
X110744000Y-96670101D01*
X110744000Y-96369899D01*
X110685434Y-96075466D01*
X110570551Y-95798115D01*
X110403768Y-95548507D01*
X110191493Y-95336232D01*
X110033378Y-95230583D01*
X110096626Y-95036231D01*
X109220000Y-94159605D01*
X108343374Y-95036231D01*
X108406622Y-95230583D01*
X108248507Y-95336232D01*
X108036232Y-95548507D01*
X107869449Y-95798115D01*
X107754566Y-96075466D01*
X107696000Y-96369899D01*
X107390000Y-96369899D01*
X107390000Y-94046988D01*
X107690092Y-94046988D01*
X107732557Y-94344171D01*
X107832184Y-94627359D01*
X107910711Y-94774273D01*
X108163769Y-94856626D01*
X109040395Y-93980000D01*
X109399605Y-93980000D01*
X110276231Y-94856626D01*
X110529289Y-94774273D01*
X110659086Y-94503582D01*
X110733580Y-94212770D01*
X110749908Y-93913012D01*
X110747684Y-93897444D01*
X128955800Y-93897444D01*
X128955800Y-94062556D01*
X128988011Y-94224494D01*
X129051197Y-94377037D01*
X129142927Y-94514322D01*
X129259678Y-94631073D01*
X129396963Y-94722803D01*
X129549506Y-94785989D01*
X129711444Y-94818200D01*
X129876556Y-94818200D01*
X130038494Y-94785989D01*
X130191037Y-94722803D01*
X130328322Y-94631073D01*
X130445073Y-94514322D01*
X130536803Y-94377037D01*
X130599989Y-94224494D01*
X130632200Y-94062556D01*
X130632200Y-94046988D01*
X135630092Y-94046988D01*
X135672557Y-94344171D01*
X135772184Y-94627359D01*
X135850711Y-94774273D01*
X136103769Y-94856626D01*
X136980395Y-93980000D01*
X137339605Y-93980000D01*
X138216231Y-94856626D01*
X138469289Y-94774273D01*
X138599086Y-94503582D01*
X138673580Y-94212770D01*
X138689908Y-93913012D01*
X138647443Y-93615829D01*
X138547816Y-93332641D01*
X138469289Y-93185727D01*
X138216231Y-93103374D01*
X137339605Y-93980000D01*
X136980395Y-93980000D01*
X136103769Y-93103374D01*
X135850711Y-93185727D01*
X135720914Y-93456418D01*
X135646420Y-93747230D01*
X135630092Y-94046988D01*
X130632200Y-94046988D01*
X130632200Y-93897444D01*
X130599989Y-93735506D01*
X130536803Y-93582963D01*
X130445073Y-93445678D01*
X130328322Y-93328927D01*
X130191037Y-93237197D01*
X130038494Y-93174011D01*
X129876556Y-93141800D01*
X129711444Y-93141800D01*
X129549506Y-93174011D01*
X129396963Y-93237197D01*
X129259678Y-93328927D01*
X129142927Y-93445678D01*
X129051197Y-93582963D01*
X128988011Y-93735506D01*
X128955800Y-93897444D01*
X110747684Y-93897444D01*
X110707443Y-93615829D01*
X110607816Y-93332641D01*
X110529289Y-93185727D01*
X110276231Y-93103374D01*
X109399605Y-93980000D01*
X109040395Y-93980000D01*
X108163769Y-93103374D01*
X107910711Y-93185727D01*
X107780914Y-93456418D01*
X107706420Y-93747230D01*
X107690092Y-94046988D01*
X107390000Y-94046988D01*
X107390000Y-91289899D01*
X107696000Y-91289899D01*
X107696000Y-91590101D01*
X107754566Y-91884534D01*
X107869449Y-92161885D01*
X108036232Y-92411493D01*
X108248507Y-92623768D01*
X108406622Y-92729417D01*
X108343374Y-92923769D01*
X109220000Y-93800395D01*
X110096626Y-92923769D01*
X110033378Y-92729417D01*
X110191493Y-92623768D01*
X110403768Y-92411493D01*
X110570551Y-92161885D01*
X110640736Y-91992444D01*
X121081800Y-91992444D01*
X121081800Y-92157556D01*
X121114011Y-92319494D01*
X121177197Y-92472037D01*
X121268927Y-92609322D01*
X121385678Y-92726073D01*
X121522963Y-92817803D01*
X121675506Y-92880989D01*
X121837444Y-92913200D01*
X122002556Y-92913200D01*
X122164494Y-92880989D01*
X122317037Y-92817803D01*
X122454322Y-92726073D01*
X122571073Y-92609322D01*
X122662803Y-92472037D01*
X122725989Y-92319494D01*
X122758200Y-92157556D01*
X122758200Y-91992444D01*
X122725989Y-91830506D01*
X122662803Y-91677963D01*
X122571073Y-91540678D01*
X122454322Y-91423927D01*
X122317037Y-91332197D01*
X122214922Y-91289899D01*
X135636000Y-91289899D01*
X135636000Y-91590101D01*
X135694566Y-91884534D01*
X135809449Y-92161885D01*
X135976232Y-92411493D01*
X136188507Y-92623768D01*
X136346622Y-92729417D01*
X136283374Y-92923769D01*
X137160000Y-93800395D01*
X138036626Y-92923769D01*
X137973378Y-92729417D01*
X138131493Y-92623768D01*
X138343768Y-92411493D01*
X138510551Y-92161885D01*
X138625434Y-91884534D01*
X138684000Y-91590101D01*
X138684000Y-91289899D01*
X138625434Y-90995466D01*
X138510551Y-90718115D01*
X138343768Y-90468507D01*
X138131493Y-90256232D01*
X137973378Y-90150583D01*
X138036626Y-89956231D01*
X137160000Y-89079605D01*
X136283374Y-89956231D01*
X136346622Y-90150583D01*
X136188507Y-90256232D01*
X135976232Y-90468507D01*
X135809449Y-90718115D01*
X135694566Y-90995466D01*
X135636000Y-91289899D01*
X122214922Y-91289899D01*
X122164494Y-91269011D01*
X122002556Y-91236800D01*
X121837444Y-91236800D01*
X121675506Y-91269011D01*
X121522963Y-91332197D01*
X121385678Y-91423927D01*
X121268927Y-91540678D01*
X121177197Y-91677963D01*
X121114011Y-91830506D01*
X121081800Y-91992444D01*
X110640736Y-91992444D01*
X110685434Y-91884534D01*
X110744000Y-91590101D01*
X110744000Y-91289899D01*
X110685434Y-90995466D01*
X110570551Y-90718115D01*
X110403768Y-90468507D01*
X110191493Y-90256232D01*
X110033378Y-90150583D01*
X110053925Y-90087444D01*
X115747800Y-90087444D01*
X115747800Y-90252556D01*
X115780011Y-90414494D01*
X115843197Y-90567037D01*
X115934927Y-90704322D01*
X116051678Y-90821073D01*
X116188963Y-90912803D01*
X116341506Y-90975989D01*
X116503444Y-91008200D01*
X116668556Y-91008200D01*
X116830494Y-90975989D01*
X116983037Y-90912803D01*
X117120322Y-90821073D01*
X117237073Y-90704322D01*
X117328803Y-90567037D01*
X117391989Y-90414494D01*
X117424200Y-90252556D01*
X117424200Y-90087444D01*
X117391989Y-89925506D01*
X117353856Y-89833444D01*
X128955800Y-89833444D01*
X128955800Y-89998556D01*
X128988011Y-90160494D01*
X129051197Y-90313037D01*
X129142927Y-90450322D01*
X129259678Y-90567073D01*
X129396963Y-90658803D01*
X129549506Y-90721989D01*
X129711444Y-90754200D01*
X129876556Y-90754200D01*
X130038494Y-90721989D01*
X130191037Y-90658803D01*
X130328322Y-90567073D01*
X130445073Y-90450322D01*
X130536803Y-90313037D01*
X130599989Y-90160494D01*
X130632200Y-89998556D01*
X130632200Y-89833444D01*
X130599989Y-89671506D01*
X130536803Y-89518963D01*
X130445073Y-89381678D01*
X130328322Y-89264927D01*
X130191037Y-89173197D01*
X130038494Y-89110011D01*
X129876556Y-89077800D01*
X129711444Y-89077800D01*
X129549506Y-89110011D01*
X129396963Y-89173197D01*
X129259678Y-89264927D01*
X129142927Y-89381678D01*
X129051197Y-89518963D01*
X128988011Y-89671506D01*
X128955800Y-89833444D01*
X117353856Y-89833444D01*
X117328803Y-89772963D01*
X117237073Y-89635678D01*
X117120322Y-89518927D01*
X116983037Y-89427197D01*
X116830494Y-89364011D01*
X116668556Y-89331800D01*
X116503444Y-89331800D01*
X116341506Y-89364011D01*
X116188963Y-89427197D01*
X116051678Y-89518927D01*
X115934927Y-89635678D01*
X115843197Y-89772963D01*
X115780011Y-89925506D01*
X115747800Y-90087444D01*
X110053925Y-90087444D01*
X110096626Y-89956231D01*
X109220000Y-89079605D01*
X108343374Y-89956231D01*
X108406622Y-90150583D01*
X108248507Y-90256232D01*
X108036232Y-90468507D01*
X107869449Y-90718115D01*
X107754566Y-90995466D01*
X107696000Y-91289899D01*
X107390000Y-91289899D01*
X107390000Y-88966988D01*
X107690092Y-88966988D01*
X107732557Y-89264171D01*
X107832184Y-89547359D01*
X107910711Y-89694273D01*
X108163769Y-89776626D01*
X109040395Y-88900000D01*
X109399605Y-88900000D01*
X110276231Y-89776626D01*
X110529289Y-89694273D01*
X110659086Y-89423582D01*
X110733580Y-89132770D01*
X110749908Y-88833012D01*
X110747684Y-88817444D01*
X120764300Y-88817444D01*
X120764300Y-88982556D01*
X120796511Y-89144494D01*
X120859697Y-89297037D01*
X120951427Y-89434322D01*
X121068178Y-89551073D01*
X121205463Y-89642803D01*
X121358006Y-89705989D01*
X121519944Y-89738200D01*
X121685056Y-89738200D01*
X121846994Y-89705989D01*
X121999537Y-89642803D01*
X122136822Y-89551073D01*
X122253573Y-89434322D01*
X122345303Y-89297037D01*
X122408489Y-89144494D01*
X122440700Y-88982556D01*
X122440700Y-88966988D01*
X135630092Y-88966988D01*
X135672557Y-89264171D01*
X135772184Y-89547359D01*
X135850711Y-89694273D01*
X136103769Y-89776626D01*
X136980395Y-88900000D01*
X137339605Y-88900000D01*
X138216231Y-89776626D01*
X138469289Y-89694273D01*
X138599086Y-89423582D01*
X138673580Y-89132770D01*
X138689908Y-88833012D01*
X138647443Y-88535829D01*
X138547816Y-88252641D01*
X138469289Y-88105727D01*
X138216231Y-88023374D01*
X137339605Y-88900000D01*
X136980395Y-88900000D01*
X136103769Y-88023374D01*
X135850711Y-88105727D01*
X135720914Y-88376418D01*
X135646420Y-88667230D01*
X135630092Y-88966988D01*
X122440700Y-88966988D01*
X122440700Y-88817444D01*
X122408489Y-88655506D01*
X122345303Y-88502963D01*
X122253573Y-88365678D01*
X122136822Y-88248927D01*
X121999537Y-88157197D01*
X121846994Y-88094011D01*
X121685056Y-88061800D01*
X121519944Y-88061800D01*
X121358006Y-88094011D01*
X121205463Y-88157197D01*
X121068178Y-88248927D01*
X120951427Y-88365678D01*
X120859697Y-88502963D01*
X120796511Y-88655506D01*
X120764300Y-88817444D01*
X110747684Y-88817444D01*
X110707443Y-88535829D01*
X110607816Y-88252641D01*
X110529289Y-88105727D01*
X110276231Y-88023374D01*
X109399605Y-88900000D01*
X109040395Y-88900000D01*
X108163769Y-88023374D01*
X107910711Y-88105727D01*
X107780914Y-88376418D01*
X107706420Y-88667230D01*
X107690092Y-88966988D01*
X107390000Y-88966988D01*
X107390000Y-86209899D01*
X107696000Y-86209899D01*
X107696000Y-86510101D01*
X107754566Y-86804534D01*
X107869449Y-87081885D01*
X108036232Y-87331493D01*
X108248507Y-87543768D01*
X108406622Y-87649417D01*
X108343374Y-87843769D01*
X109220000Y-88720395D01*
X110096626Y-87843769D01*
X110033378Y-87649417D01*
X110191493Y-87543768D01*
X110403768Y-87331493D01*
X110570551Y-87081885D01*
X110685434Y-86804534D01*
X110744000Y-86510101D01*
X110744000Y-86209899D01*
X135636000Y-86209899D01*
X135636000Y-86510101D01*
X135694566Y-86804534D01*
X135809449Y-87081885D01*
X135976232Y-87331493D01*
X136188507Y-87543768D01*
X136346622Y-87649417D01*
X136283374Y-87843769D01*
X137160000Y-88720395D01*
X138036626Y-87843769D01*
X137973378Y-87649417D01*
X138131493Y-87543768D01*
X138343768Y-87331493D01*
X138510551Y-87081885D01*
X138625434Y-86804534D01*
X138684000Y-86510101D01*
X138684000Y-86209899D01*
X138625434Y-85915466D01*
X138510551Y-85638115D01*
X138343768Y-85388507D01*
X138131493Y-85176232D01*
X137973378Y-85070583D01*
X138036626Y-84876231D01*
X137160000Y-83999605D01*
X136283374Y-84876231D01*
X136346622Y-85070583D01*
X136188507Y-85176232D01*
X135976232Y-85388507D01*
X135809449Y-85638115D01*
X135694566Y-85915466D01*
X135636000Y-86209899D01*
X110744000Y-86209899D01*
X110685434Y-85915466D01*
X110570551Y-85638115D01*
X110403768Y-85388507D01*
X110191493Y-85176232D01*
X110033378Y-85070583D01*
X110096626Y-84876231D01*
X109220000Y-83999605D01*
X108343374Y-84876231D01*
X108406622Y-85070583D01*
X108248507Y-85176232D01*
X108036232Y-85388507D01*
X107869449Y-85638115D01*
X107754566Y-85915466D01*
X107696000Y-86209899D01*
X107390000Y-86209899D01*
X107390000Y-83886988D01*
X107690092Y-83886988D01*
X107732557Y-84184171D01*
X107832184Y-84467359D01*
X107910711Y-84614273D01*
X108163769Y-84696626D01*
X109040395Y-83820000D01*
X109399605Y-83820000D01*
X110276231Y-84696626D01*
X110529289Y-84614273D01*
X110659086Y-84343582D01*
X110733580Y-84052770D01*
X110749908Y-83753012D01*
X110747684Y-83737444D01*
X115747800Y-83737444D01*
X115747800Y-83902556D01*
X115780011Y-84064494D01*
X115843197Y-84217037D01*
X115934927Y-84354322D01*
X116051678Y-84471073D01*
X116188963Y-84562803D01*
X116341506Y-84625989D01*
X116503444Y-84658200D01*
X116668556Y-84658200D01*
X116830494Y-84625989D01*
X116983037Y-84562803D01*
X117120322Y-84471073D01*
X117237073Y-84354322D01*
X117328803Y-84217037D01*
X117391989Y-84064494D01*
X117424200Y-83902556D01*
X117424200Y-83737444D01*
X128955800Y-83737444D01*
X128955800Y-83902556D01*
X128988011Y-84064494D01*
X129051197Y-84217037D01*
X129142927Y-84354322D01*
X129259678Y-84471073D01*
X129396963Y-84562803D01*
X129549506Y-84625989D01*
X129711444Y-84658200D01*
X129876556Y-84658200D01*
X130038494Y-84625989D01*
X130191037Y-84562803D01*
X130328322Y-84471073D01*
X130445073Y-84354322D01*
X130536803Y-84217037D01*
X130599989Y-84064494D01*
X130632200Y-83902556D01*
X130632200Y-83886988D01*
X135630092Y-83886988D01*
X135672557Y-84184171D01*
X135772184Y-84467359D01*
X135850711Y-84614273D01*
X136103769Y-84696626D01*
X136980395Y-83820000D01*
X137339605Y-83820000D01*
X138216231Y-84696626D01*
X138469289Y-84614273D01*
X138599086Y-84343582D01*
X138673580Y-84052770D01*
X138689908Y-83753012D01*
X138647443Y-83455829D01*
X138547816Y-83172641D01*
X138469289Y-83025727D01*
X138216231Y-82943374D01*
X137339605Y-83820000D01*
X136980395Y-83820000D01*
X136103769Y-82943374D01*
X135850711Y-83025727D01*
X135720914Y-83296418D01*
X135646420Y-83587230D01*
X135630092Y-83886988D01*
X130632200Y-83886988D01*
X130632200Y-83737444D01*
X130599989Y-83575506D01*
X130536803Y-83422963D01*
X130445073Y-83285678D01*
X130328322Y-83168927D01*
X130191037Y-83077197D01*
X130038494Y-83014011D01*
X129876556Y-82981800D01*
X129711444Y-82981800D01*
X129549506Y-83014011D01*
X129396963Y-83077197D01*
X129259678Y-83168927D01*
X129142927Y-83285678D01*
X129051197Y-83422963D01*
X128988011Y-83575506D01*
X128955800Y-83737444D01*
X117424200Y-83737444D01*
X117391989Y-83575506D01*
X117328803Y-83422963D01*
X117237073Y-83285678D01*
X117120322Y-83168927D01*
X116983037Y-83077197D01*
X116830494Y-83014011D01*
X116668556Y-82981800D01*
X116503444Y-82981800D01*
X116341506Y-83014011D01*
X116188963Y-83077197D01*
X116051678Y-83168927D01*
X115934927Y-83285678D01*
X115843197Y-83422963D01*
X115780011Y-83575506D01*
X115747800Y-83737444D01*
X110747684Y-83737444D01*
X110707443Y-83455829D01*
X110607816Y-83172641D01*
X110529289Y-83025727D01*
X110276231Y-82943374D01*
X109399605Y-83820000D01*
X109040395Y-83820000D01*
X108163769Y-82943374D01*
X107910711Y-83025727D01*
X107780914Y-83296418D01*
X107706420Y-83587230D01*
X107690092Y-83886988D01*
X107390000Y-83886988D01*
X107390000Y-81129899D01*
X107696000Y-81129899D01*
X107696000Y-81430101D01*
X107754566Y-81724534D01*
X107869449Y-82001885D01*
X108036232Y-82251493D01*
X108248507Y-82463768D01*
X108406622Y-82569417D01*
X108343374Y-82763769D01*
X109220000Y-83640395D01*
X110096626Y-82763769D01*
X110033378Y-82569417D01*
X110191493Y-82463768D01*
X110403768Y-82251493D01*
X110570551Y-82001885D01*
X110640736Y-81832444D01*
X121081800Y-81832444D01*
X121081800Y-81997556D01*
X121114011Y-82159494D01*
X121177197Y-82312037D01*
X121268927Y-82449322D01*
X121385678Y-82566073D01*
X121522963Y-82657803D01*
X121675506Y-82720989D01*
X121837444Y-82753200D01*
X122002556Y-82753200D01*
X122164494Y-82720989D01*
X122317037Y-82657803D01*
X122454322Y-82566073D01*
X122571073Y-82449322D01*
X122662803Y-82312037D01*
X122725989Y-82159494D01*
X122758200Y-81997556D01*
X122758200Y-81832444D01*
X122725989Y-81670506D01*
X122662803Y-81517963D01*
X122571073Y-81380678D01*
X122454322Y-81263927D01*
X122317037Y-81172197D01*
X122214922Y-81129899D01*
X135636000Y-81129899D01*
X135636000Y-81430101D01*
X135694566Y-81724534D01*
X135809449Y-82001885D01*
X135976232Y-82251493D01*
X136188507Y-82463768D01*
X136346622Y-82569417D01*
X136283374Y-82763769D01*
X137160000Y-83640395D01*
X138036626Y-82763769D01*
X137973378Y-82569417D01*
X138131493Y-82463768D01*
X138343768Y-82251493D01*
X138510551Y-82001885D01*
X138625434Y-81724534D01*
X138684000Y-81430101D01*
X138684000Y-81129899D01*
X138625434Y-80835466D01*
X138510551Y-80558115D01*
X138343768Y-80308507D01*
X138131493Y-80096232D01*
X137973378Y-79990583D01*
X138036626Y-79796231D01*
X137160000Y-78919605D01*
X136283374Y-79796231D01*
X136346622Y-79990583D01*
X136188507Y-80096232D01*
X135976232Y-80308507D01*
X135809449Y-80558115D01*
X135694566Y-80835466D01*
X135636000Y-81129899D01*
X122214922Y-81129899D01*
X122164494Y-81109011D01*
X122002556Y-81076800D01*
X121837444Y-81076800D01*
X121675506Y-81109011D01*
X121522963Y-81172197D01*
X121385678Y-81263927D01*
X121268927Y-81380678D01*
X121177197Y-81517963D01*
X121114011Y-81670506D01*
X121081800Y-81832444D01*
X110640736Y-81832444D01*
X110685434Y-81724534D01*
X110744000Y-81430101D01*
X110744000Y-81129899D01*
X110685434Y-80835466D01*
X110570551Y-80558115D01*
X110403768Y-80308507D01*
X110191493Y-80096232D01*
X110033378Y-79990583D01*
X110053925Y-79927444D01*
X115747800Y-79927444D01*
X115747800Y-80092556D01*
X115780011Y-80254494D01*
X115843197Y-80407037D01*
X115934927Y-80544322D01*
X116051678Y-80661073D01*
X116188963Y-80752803D01*
X116341506Y-80815989D01*
X116503444Y-80848200D01*
X116668556Y-80848200D01*
X116830494Y-80815989D01*
X116983037Y-80752803D01*
X117120322Y-80661073D01*
X117237073Y-80544322D01*
X117328803Y-80407037D01*
X117391989Y-80254494D01*
X117424200Y-80092556D01*
X117424200Y-79927444D01*
X128955800Y-79927444D01*
X128955800Y-80092556D01*
X128988011Y-80254494D01*
X129051197Y-80407037D01*
X129142927Y-80544322D01*
X129259678Y-80661073D01*
X129396963Y-80752803D01*
X129549506Y-80815989D01*
X129711444Y-80848200D01*
X129876556Y-80848200D01*
X130038494Y-80815989D01*
X130191037Y-80752803D01*
X130328322Y-80661073D01*
X130445073Y-80544322D01*
X130536803Y-80407037D01*
X130599989Y-80254494D01*
X130632200Y-80092556D01*
X130632200Y-79927444D01*
X130599989Y-79765506D01*
X130536803Y-79612963D01*
X130445073Y-79475678D01*
X130328322Y-79358927D01*
X130191037Y-79267197D01*
X130038494Y-79204011D01*
X129876556Y-79171800D01*
X129711444Y-79171800D01*
X129549506Y-79204011D01*
X129396963Y-79267197D01*
X129259678Y-79358927D01*
X129142927Y-79475678D01*
X129051197Y-79612963D01*
X128988011Y-79765506D01*
X128955800Y-79927444D01*
X117424200Y-79927444D01*
X117391989Y-79765506D01*
X117328803Y-79612963D01*
X117237073Y-79475678D01*
X117120322Y-79358927D01*
X116983037Y-79267197D01*
X116830494Y-79204011D01*
X116668556Y-79171800D01*
X116503444Y-79171800D01*
X116341506Y-79204011D01*
X116188963Y-79267197D01*
X116051678Y-79358927D01*
X115934927Y-79475678D01*
X115843197Y-79612963D01*
X115780011Y-79765506D01*
X115747800Y-79927444D01*
X110053925Y-79927444D01*
X110096626Y-79796231D01*
X109220000Y-78919605D01*
X108343374Y-79796231D01*
X108406622Y-79990583D01*
X108248507Y-80096232D01*
X108036232Y-80308507D01*
X107869449Y-80558115D01*
X107754566Y-80835466D01*
X107696000Y-81129899D01*
X107390000Y-81129899D01*
X107390000Y-78806988D01*
X107690092Y-78806988D01*
X107732557Y-79104171D01*
X107832184Y-79387359D01*
X107910711Y-79534273D01*
X108163769Y-79616626D01*
X109040395Y-78740000D01*
X109399605Y-78740000D01*
X110276231Y-79616626D01*
X110529289Y-79534273D01*
X110659086Y-79263582D01*
X110733580Y-78972770D01*
X110749908Y-78673012D01*
X110747684Y-78657444D01*
X120764300Y-78657444D01*
X120764300Y-78822556D01*
X120796511Y-78984494D01*
X120859697Y-79137037D01*
X120951427Y-79274322D01*
X121068178Y-79391073D01*
X121205463Y-79482803D01*
X121358006Y-79545989D01*
X121519944Y-79578200D01*
X121685056Y-79578200D01*
X121846994Y-79545989D01*
X121999537Y-79482803D01*
X122136822Y-79391073D01*
X122253573Y-79274322D01*
X122345303Y-79137037D01*
X122408489Y-78984494D01*
X122440700Y-78822556D01*
X122440700Y-78806988D01*
X135630092Y-78806988D01*
X135672557Y-79104171D01*
X135772184Y-79387359D01*
X135850711Y-79534273D01*
X136103769Y-79616626D01*
X136980395Y-78740000D01*
X137339605Y-78740000D01*
X138216231Y-79616626D01*
X138469289Y-79534273D01*
X138599086Y-79263582D01*
X138673580Y-78972770D01*
X138689908Y-78673012D01*
X138647443Y-78375829D01*
X138547816Y-78092641D01*
X138469289Y-77945727D01*
X138216231Y-77863374D01*
X137339605Y-78740000D01*
X136980395Y-78740000D01*
X136103769Y-77863374D01*
X135850711Y-77945727D01*
X135720914Y-78216418D01*
X135646420Y-78507230D01*
X135630092Y-78806988D01*
X122440700Y-78806988D01*
X122440700Y-78657444D01*
X122408489Y-78495506D01*
X122345303Y-78342963D01*
X122253573Y-78205678D01*
X122136822Y-78088927D01*
X121999537Y-77997197D01*
X121846994Y-77934011D01*
X121685056Y-77901800D01*
X121519944Y-77901800D01*
X121358006Y-77934011D01*
X121205463Y-77997197D01*
X121068178Y-78088927D01*
X120951427Y-78205678D01*
X120859697Y-78342963D01*
X120796511Y-78495506D01*
X120764300Y-78657444D01*
X110747684Y-78657444D01*
X110707443Y-78375829D01*
X110607816Y-78092641D01*
X110529289Y-77945727D01*
X110276231Y-77863374D01*
X109399605Y-78740000D01*
X109040395Y-78740000D01*
X108163769Y-77863374D01*
X107910711Y-77945727D01*
X107780914Y-78216418D01*
X107706420Y-78507230D01*
X107690092Y-78806988D01*
X107390000Y-78806988D01*
X107390000Y-77256231D01*
X108343374Y-77256231D01*
X108412941Y-77470000D01*
X108343374Y-77683769D01*
X109220000Y-78560395D01*
X110096626Y-77683769D01*
X110027059Y-77470000D01*
X110096626Y-77256231D01*
X136283374Y-77256231D01*
X136352941Y-77470000D01*
X136283374Y-77683769D01*
X137160000Y-78560395D01*
X138036626Y-77683769D01*
X137967059Y-77470000D01*
X138036626Y-77256231D01*
X137160000Y-76379605D01*
X136283374Y-77256231D01*
X110096626Y-77256231D01*
X109220000Y-76379605D01*
X108343374Y-77256231D01*
X107390000Y-77256231D01*
X107390000Y-76266988D01*
X107690092Y-76266988D01*
X107732557Y-76564171D01*
X107832184Y-76847359D01*
X107910711Y-76994273D01*
X108163769Y-77076626D01*
X109040395Y-76200000D01*
X109399605Y-76200000D01*
X110276231Y-77076626D01*
X110529289Y-76994273D01*
X110659086Y-76723582D01*
X110733580Y-76432770D01*
X110742610Y-76266988D01*
X135630092Y-76266988D01*
X135672557Y-76564171D01*
X135772184Y-76847359D01*
X135850711Y-76994273D01*
X136103769Y-77076626D01*
X136980395Y-76200000D01*
X137339605Y-76200000D01*
X138216231Y-77076626D01*
X138469289Y-76994273D01*
X138599086Y-76723582D01*
X138673580Y-76432770D01*
X138689908Y-76133012D01*
X138647443Y-75835829D01*
X138547816Y-75552641D01*
X138469289Y-75405727D01*
X138216231Y-75323374D01*
X137339605Y-76200000D01*
X136980395Y-76200000D01*
X136103769Y-75323374D01*
X135850711Y-75405727D01*
X135720914Y-75676418D01*
X135646420Y-75967230D01*
X135630092Y-76266988D01*
X110742610Y-76266988D01*
X110749908Y-76133012D01*
X110707443Y-75835829D01*
X110607816Y-75552641D01*
X110529289Y-75405727D01*
X110276231Y-75323374D01*
X109399605Y-76200000D01*
X109040395Y-76200000D01*
X108163769Y-75323374D01*
X107910711Y-75405727D01*
X107780914Y-75676418D01*
X107706420Y-75967230D01*
X107690092Y-76266988D01*
X107390000Y-76266988D01*
X107390000Y-73509899D01*
X107696000Y-73509899D01*
X107696000Y-73810101D01*
X107754566Y-74104534D01*
X107869449Y-74381885D01*
X108036232Y-74631493D01*
X108248507Y-74843768D01*
X108406622Y-74949417D01*
X108343374Y-75143769D01*
X109220000Y-76020395D01*
X110096626Y-75143769D01*
X110033378Y-74949417D01*
X110191493Y-74843768D01*
X110403768Y-74631493D01*
X110570551Y-74381885D01*
X110685434Y-74104534D01*
X110744000Y-73810101D01*
X110744000Y-73509899D01*
X135636000Y-73509899D01*
X135636000Y-73810101D01*
X135694566Y-74104534D01*
X135809449Y-74381885D01*
X135976232Y-74631493D01*
X136188507Y-74843768D01*
X136346622Y-74949417D01*
X136283374Y-75143769D01*
X137160000Y-76020395D01*
X138036626Y-75143769D01*
X137973378Y-74949417D01*
X138131493Y-74843768D01*
X138343768Y-74631493D01*
X138510551Y-74381885D01*
X138625434Y-74104534D01*
X138684000Y-73810101D01*
X138684000Y-73509899D01*
X138625434Y-73215466D01*
X138510551Y-72938115D01*
X138343768Y-72688507D01*
X138131493Y-72476232D01*
X137973378Y-72370583D01*
X138036626Y-72176231D01*
X137160000Y-71299605D01*
X136283374Y-72176231D01*
X136346622Y-72370583D01*
X136188507Y-72476232D01*
X135976232Y-72688507D01*
X135809449Y-72938115D01*
X135694566Y-73215466D01*
X135636000Y-73509899D01*
X110744000Y-73509899D01*
X110685434Y-73215466D01*
X110570551Y-72938115D01*
X110403768Y-72688507D01*
X110191493Y-72476232D01*
X110033378Y-72370583D01*
X110096626Y-72176231D01*
X109220000Y-71299605D01*
X108343374Y-72176231D01*
X108406622Y-72370583D01*
X108248507Y-72476232D01*
X108036232Y-72688507D01*
X107869449Y-72938115D01*
X107754566Y-73215466D01*
X107696000Y-73509899D01*
X107390000Y-73509899D01*
X107390000Y-71186988D01*
X107690092Y-71186988D01*
X107732557Y-71484171D01*
X107832184Y-71767359D01*
X107910711Y-71914273D01*
X108163769Y-71996626D01*
X109040395Y-71120000D01*
X109399605Y-71120000D01*
X110276231Y-71996626D01*
X110529289Y-71914273D01*
X110659086Y-71643582D01*
X110733580Y-71352770D01*
X110749908Y-71053012D01*
X110747684Y-71037444D01*
X115747800Y-71037444D01*
X115747800Y-71202556D01*
X115780011Y-71364494D01*
X115843197Y-71517037D01*
X115934927Y-71654322D01*
X116051678Y-71771073D01*
X116188963Y-71862803D01*
X116341506Y-71925989D01*
X116503444Y-71958200D01*
X116668556Y-71958200D01*
X116830494Y-71925989D01*
X116983037Y-71862803D01*
X117120322Y-71771073D01*
X117237073Y-71654322D01*
X117328803Y-71517037D01*
X117391989Y-71364494D01*
X117424200Y-71202556D01*
X117424200Y-71037444D01*
X128955800Y-71037444D01*
X128955800Y-71202556D01*
X128988011Y-71364494D01*
X129051197Y-71517037D01*
X129142927Y-71654322D01*
X129259678Y-71771073D01*
X129396963Y-71862803D01*
X129549506Y-71925989D01*
X129711444Y-71958200D01*
X129876556Y-71958200D01*
X130038494Y-71925989D01*
X130191037Y-71862803D01*
X130328322Y-71771073D01*
X130445073Y-71654322D01*
X130536803Y-71517037D01*
X130599989Y-71364494D01*
X130632200Y-71202556D01*
X130632200Y-71186988D01*
X135630092Y-71186988D01*
X135672557Y-71484171D01*
X135772184Y-71767359D01*
X135850711Y-71914273D01*
X136103769Y-71996626D01*
X136980395Y-71120000D01*
X137339605Y-71120000D01*
X138216231Y-71996626D01*
X138469289Y-71914273D01*
X138599086Y-71643582D01*
X138673580Y-71352770D01*
X138689908Y-71053012D01*
X138647443Y-70755829D01*
X138547816Y-70472641D01*
X138469289Y-70325727D01*
X138216231Y-70243374D01*
X137339605Y-71120000D01*
X136980395Y-71120000D01*
X136103769Y-70243374D01*
X135850711Y-70325727D01*
X135720914Y-70596418D01*
X135646420Y-70887230D01*
X135630092Y-71186988D01*
X130632200Y-71186988D01*
X130632200Y-71037444D01*
X130599989Y-70875506D01*
X130536803Y-70722963D01*
X130445073Y-70585678D01*
X130328322Y-70468927D01*
X130191037Y-70377197D01*
X130038494Y-70314011D01*
X129876556Y-70281800D01*
X129711444Y-70281800D01*
X129549506Y-70314011D01*
X129396963Y-70377197D01*
X129259678Y-70468927D01*
X129142927Y-70585678D01*
X129051197Y-70722963D01*
X128988011Y-70875506D01*
X128955800Y-71037444D01*
X117424200Y-71037444D01*
X117391989Y-70875506D01*
X117328803Y-70722963D01*
X117237073Y-70585678D01*
X117120322Y-70468927D01*
X116983037Y-70377197D01*
X116830494Y-70314011D01*
X116668556Y-70281800D01*
X116503444Y-70281800D01*
X116341506Y-70314011D01*
X116188963Y-70377197D01*
X116051678Y-70468927D01*
X115934927Y-70585678D01*
X115843197Y-70722963D01*
X115780011Y-70875506D01*
X115747800Y-71037444D01*
X110747684Y-71037444D01*
X110707443Y-70755829D01*
X110607816Y-70472641D01*
X110529289Y-70325727D01*
X110276231Y-70243374D01*
X109399605Y-71120000D01*
X109040395Y-71120000D01*
X108163769Y-70243374D01*
X107910711Y-70325727D01*
X107780914Y-70596418D01*
X107706420Y-70887230D01*
X107690092Y-71186988D01*
X107390000Y-71186988D01*
X107390000Y-68429899D01*
X107696000Y-68429899D01*
X107696000Y-68730101D01*
X107754566Y-69024534D01*
X107869449Y-69301885D01*
X108036232Y-69551493D01*
X108248507Y-69763768D01*
X108406622Y-69869417D01*
X108343374Y-70063769D01*
X109220000Y-70940395D01*
X110096626Y-70063769D01*
X110033378Y-69869417D01*
X110191493Y-69763768D01*
X110403768Y-69551493D01*
X110570551Y-69301885D01*
X110640736Y-69132444D01*
X121081800Y-69132444D01*
X121081800Y-69297556D01*
X121114011Y-69459494D01*
X121177197Y-69612037D01*
X121268927Y-69749322D01*
X121385678Y-69866073D01*
X121522963Y-69957803D01*
X121675506Y-70020989D01*
X121837444Y-70053200D01*
X122002556Y-70053200D01*
X122164494Y-70020989D01*
X122317037Y-69957803D01*
X122454322Y-69866073D01*
X122571073Y-69749322D01*
X122662803Y-69612037D01*
X122725989Y-69459494D01*
X122758200Y-69297556D01*
X122758200Y-69132444D01*
X122725989Y-68970506D01*
X122662803Y-68817963D01*
X122571073Y-68680678D01*
X122454322Y-68563927D01*
X122317037Y-68472197D01*
X122214922Y-68429899D01*
X135636000Y-68429899D01*
X135636000Y-68730101D01*
X135694566Y-69024534D01*
X135809449Y-69301885D01*
X135976232Y-69551493D01*
X136188507Y-69763768D01*
X136346622Y-69869417D01*
X136283374Y-70063769D01*
X137160000Y-70940395D01*
X138036626Y-70063769D01*
X137973378Y-69869417D01*
X138131493Y-69763768D01*
X138343768Y-69551493D01*
X138510551Y-69301885D01*
X138625434Y-69024534D01*
X138684000Y-68730101D01*
X138684000Y-68429899D01*
X138625434Y-68135466D01*
X138510551Y-67858115D01*
X138343768Y-67608507D01*
X138131493Y-67396232D01*
X137973378Y-67290583D01*
X138036626Y-67096231D01*
X137160000Y-66219605D01*
X136283374Y-67096231D01*
X136346622Y-67290583D01*
X136188507Y-67396232D01*
X135976232Y-67608507D01*
X135809449Y-67858115D01*
X135694566Y-68135466D01*
X135636000Y-68429899D01*
X122214922Y-68429899D01*
X122164494Y-68409011D01*
X122002556Y-68376800D01*
X121837444Y-68376800D01*
X121675506Y-68409011D01*
X121522963Y-68472197D01*
X121385678Y-68563927D01*
X121268927Y-68680678D01*
X121177197Y-68817963D01*
X121114011Y-68970506D01*
X121081800Y-69132444D01*
X110640736Y-69132444D01*
X110685434Y-69024534D01*
X110744000Y-68730101D01*
X110744000Y-68429899D01*
X110685434Y-68135466D01*
X110570551Y-67858115D01*
X110403768Y-67608507D01*
X110191493Y-67396232D01*
X110033378Y-67290583D01*
X110053925Y-67227444D01*
X115747800Y-67227444D01*
X115747800Y-67392556D01*
X115780011Y-67554494D01*
X115843197Y-67707037D01*
X115934927Y-67844322D01*
X116051678Y-67961073D01*
X116188963Y-68052803D01*
X116341506Y-68115989D01*
X116503444Y-68148200D01*
X116668556Y-68148200D01*
X116830494Y-68115989D01*
X116983037Y-68052803D01*
X117120322Y-67961073D01*
X117237073Y-67844322D01*
X117328803Y-67707037D01*
X117391989Y-67554494D01*
X117424200Y-67392556D01*
X117424200Y-67227444D01*
X128955800Y-67227444D01*
X128955800Y-67392556D01*
X128988011Y-67554494D01*
X129051197Y-67707037D01*
X129142927Y-67844322D01*
X129259678Y-67961073D01*
X129396963Y-68052803D01*
X129549506Y-68115989D01*
X129711444Y-68148200D01*
X129876556Y-68148200D01*
X130038494Y-68115989D01*
X130191037Y-68052803D01*
X130328322Y-67961073D01*
X130445073Y-67844322D01*
X130536803Y-67707037D01*
X130599989Y-67554494D01*
X130632200Y-67392556D01*
X130632200Y-67227444D01*
X130599989Y-67065506D01*
X130536803Y-66912963D01*
X130445073Y-66775678D01*
X130328322Y-66658927D01*
X130191037Y-66567197D01*
X130038494Y-66504011D01*
X129876556Y-66471800D01*
X129711444Y-66471800D01*
X129549506Y-66504011D01*
X129396963Y-66567197D01*
X129259678Y-66658927D01*
X129142927Y-66775678D01*
X129051197Y-66912963D01*
X128988011Y-67065506D01*
X128955800Y-67227444D01*
X117424200Y-67227444D01*
X117391989Y-67065506D01*
X117328803Y-66912963D01*
X117237073Y-66775678D01*
X117120322Y-66658927D01*
X116983037Y-66567197D01*
X116830494Y-66504011D01*
X116668556Y-66471800D01*
X116503444Y-66471800D01*
X116341506Y-66504011D01*
X116188963Y-66567197D01*
X116051678Y-66658927D01*
X115934927Y-66775678D01*
X115843197Y-66912963D01*
X115780011Y-67065506D01*
X115747800Y-67227444D01*
X110053925Y-67227444D01*
X110096626Y-67096231D01*
X109220000Y-66219605D01*
X108343374Y-67096231D01*
X108406622Y-67290583D01*
X108248507Y-67396232D01*
X108036232Y-67608507D01*
X107869449Y-67858115D01*
X107754566Y-68135466D01*
X107696000Y-68429899D01*
X107390000Y-68429899D01*
X107390000Y-66106988D01*
X107690092Y-66106988D01*
X107732557Y-66404171D01*
X107832184Y-66687359D01*
X107910711Y-66834273D01*
X108163769Y-66916626D01*
X109040395Y-66040000D01*
X109399605Y-66040000D01*
X110276231Y-66916626D01*
X110529289Y-66834273D01*
X110659086Y-66563582D01*
X110733580Y-66272770D01*
X110749908Y-65973012D01*
X110747684Y-65957444D01*
X120764300Y-65957444D01*
X120764300Y-66122556D01*
X120796511Y-66284494D01*
X120859697Y-66437037D01*
X120951427Y-66574322D01*
X121068178Y-66691073D01*
X121205463Y-66782803D01*
X121358006Y-66845989D01*
X121519944Y-66878200D01*
X121685056Y-66878200D01*
X121846994Y-66845989D01*
X121999537Y-66782803D01*
X122136822Y-66691073D01*
X122253573Y-66574322D01*
X122345303Y-66437037D01*
X122408489Y-66284494D01*
X122440700Y-66122556D01*
X122440700Y-66106988D01*
X135630092Y-66106988D01*
X135672557Y-66404171D01*
X135772184Y-66687359D01*
X135850711Y-66834273D01*
X136103769Y-66916626D01*
X136980395Y-66040000D01*
X137339605Y-66040000D01*
X138216231Y-66916626D01*
X138469289Y-66834273D01*
X138599086Y-66563582D01*
X138673580Y-66272770D01*
X138689908Y-65973012D01*
X138647443Y-65675829D01*
X138547816Y-65392641D01*
X138469289Y-65245727D01*
X138216231Y-65163374D01*
X137339605Y-66040000D01*
X136980395Y-66040000D01*
X136103769Y-65163374D01*
X135850711Y-65245727D01*
X135720914Y-65516418D01*
X135646420Y-65807230D01*
X135630092Y-66106988D01*
X122440700Y-66106988D01*
X122440700Y-65957444D01*
X122408489Y-65795506D01*
X122345303Y-65642963D01*
X122253573Y-65505678D01*
X122136822Y-65388927D01*
X121999537Y-65297197D01*
X121846994Y-65234011D01*
X121685056Y-65201800D01*
X121519944Y-65201800D01*
X121358006Y-65234011D01*
X121205463Y-65297197D01*
X121068178Y-65388927D01*
X120951427Y-65505678D01*
X120859697Y-65642963D01*
X120796511Y-65795506D01*
X120764300Y-65957444D01*
X110747684Y-65957444D01*
X110707443Y-65675829D01*
X110607816Y-65392641D01*
X110529289Y-65245727D01*
X110276231Y-65163374D01*
X109399605Y-66040000D01*
X109040395Y-66040000D01*
X108163769Y-65163374D01*
X107910711Y-65245727D01*
X107780914Y-65516418D01*
X107706420Y-65807230D01*
X107690092Y-66106988D01*
X107390000Y-66106988D01*
X107390000Y-63349899D01*
X107696000Y-63349899D01*
X107696000Y-63650101D01*
X107754566Y-63944534D01*
X107869449Y-64221885D01*
X108036232Y-64471493D01*
X108248507Y-64683768D01*
X108406622Y-64789417D01*
X108343374Y-64983769D01*
X109220000Y-65860395D01*
X110096626Y-64983769D01*
X110033378Y-64789417D01*
X110191493Y-64683768D01*
X110403768Y-64471493D01*
X110570551Y-64221885D01*
X110685434Y-63944534D01*
X110744000Y-63650101D01*
X110744000Y-63349899D01*
X135636000Y-63349899D01*
X135636000Y-63650101D01*
X135694566Y-63944534D01*
X135809449Y-64221885D01*
X135976232Y-64471493D01*
X136188507Y-64683768D01*
X136346622Y-64789417D01*
X136283374Y-64983769D01*
X137160000Y-65860395D01*
X138036626Y-64983769D01*
X137973378Y-64789417D01*
X138131493Y-64683768D01*
X138343768Y-64471493D01*
X138510551Y-64221885D01*
X138625434Y-63944534D01*
X138684000Y-63650101D01*
X138684000Y-63349899D01*
X138625434Y-63055466D01*
X138510551Y-62778115D01*
X138343768Y-62528507D01*
X138131493Y-62316232D01*
X137973378Y-62210583D01*
X138036626Y-62016231D01*
X137160000Y-61139605D01*
X136283374Y-62016231D01*
X136346622Y-62210583D01*
X136188507Y-62316232D01*
X135976232Y-62528507D01*
X135809449Y-62778115D01*
X135694566Y-63055466D01*
X135636000Y-63349899D01*
X110744000Y-63349899D01*
X110685434Y-63055466D01*
X110570551Y-62778115D01*
X110403768Y-62528507D01*
X110191493Y-62316232D01*
X110033378Y-62210583D01*
X110096626Y-62016231D01*
X109220000Y-61139605D01*
X108343374Y-62016231D01*
X108406622Y-62210583D01*
X108248507Y-62316232D01*
X108036232Y-62528507D01*
X107869449Y-62778115D01*
X107754566Y-63055466D01*
X107696000Y-63349899D01*
X107390000Y-63349899D01*
X107390000Y-61026988D01*
X107690092Y-61026988D01*
X107732557Y-61324171D01*
X107832184Y-61607359D01*
X107910711Y-61754273D01*
X108163769Y-61836626D01*
X109040395Y-60960000D01*
X109399605Y-60960000D01*
X110276231Y-61836626D01*
X110529289Y-61754273D01*
X110659086Y-61483582D01*
X110733580Y-61192770D01*
X110749908Y-60893012D01*
X110747684Y-60877444D01*
X116001800Y-60877444D01*
X116001800Y-61042556D01*
X116034011Y-61204494D01*
X116097197Y-61357037D01*
X116188927Y-61494322D01*
X116305678Y-61611073D01*
X116442963Y-61702803D01*
X116595506Y-61765989D01*
X116757444Y-61798200D01*
X116922556Y-61798200D01*
X117084494Y-61765989D01*
X117237037Y-61702803D01*
X117374322Y-61611073D01*
X117491073Y-61494322D01*
X117582803Y-61357037D01*
X117645989Y-61204494D01*
X117660519Y-61131444D01*
X128955800Y-61131444D01*
X128955800Y-61296556D01*
X128988011Y-61458494D01*
X129051197Y-61611037D01*
X129142927Y-61748322D01*
X129259678Y-61865073D01*
X129396963Y-61956803D01*
X129549506Y-62019989D01*
X129711444Y-62052200D01*
X129876556Y-62052200D01*
X130038494Y-62019989D01*
X130191037Y-61956803D01*
X130328322Y-61865073D01*
X130445073Y-61748322D01*
X130536803Y-61611037D01*
X130599989Y-61458494D01*
X130632200Y-61296556D01*
X130632200Y-61131444D01*
X130611423Y-61026988D01*
X135630092Y-61026988D01*
X135672557Y-61324171D01*
X135772184Y-61607359D01*
X135850711Y-61754273D01*
X136103769Y-61836626D01*
X136980395Y-60960000D01*
X137339605Y-60960000D01*
X138216231Y-61836626D01*
X138469289Y-61754273D01*
X138599086Y-61483582D01*
X138673580Y-61192770D01*
X138689908Y-60893012D01*
X138647443Y-60595829D01*
X138547816Y-60312641D01*
X138469289Y-60165727D01*
X138216231Y-60083374D01*
X137339605Y-60960000D01*
X136980395Y-60960000D01*
X136103769Y-60083374D01*
X135850711Y-60165727D01*
X135720914Y-60436418D01*
X135646420Y-60727230D01*
X135630092Y-61026988D01*
X130611423Y-61026988D01*
X130599989Y-60969506D01*
X130536803Y-60816963D01*
X130445073Y-60679678D01*
X130328322Y-60562927D01*
X130191037Y-60471197D01*
X130038494Y-60408011D01*
X129876556Y-60375800D01*
X129711444Y-60375800D01*
X129549506Y-60408011D01*
X129396963Y-60471197D01*
X129259678Y-60562927D01*
X129142927Y-60679678D01*
X129051197Y-60816963D01*
X128988011Y-60969506D01*
X128955800Y-61131444D01*
X117660519Y-61131444D01*
X117678200Y-61042556D01*
X117678200Y-60877444D01*
X117645989Y-60715506D01*
X117582803Y-60562963D01*
X117491073Y-60425678D01*
X117374322Y-60308927D01*
X117237037Y-60217197D01*
X117084494Y-60154011D01*
X116922556Y-60121800D01*
X116757444Y-60121800D01*
X116595506Y-60154011D01*
X116442963Y-60217197D01*
X116305678Y-60308927D01*
X116188927Y-60425678D01*
X116097197Y-60562963D01*
X116034011Y-60715506D01*
X116001800Y-60877444D01*
X110747684Y-60877444D01*
X110707443Y-60595829D01*
X110607816Y-60312641D01*
X110529289Y-60165727D01*
X110276231Y-60083374D01*
X109399605Y-60960000D01*
X109040395Y-60960000D01*
X108163769Y-60083374D01*
X107910711Y-60165727D01*
X107780914Y-60436418D01*
X107706420Y-60727230D01*
X107690092Y-61026988D01*
X107390000Y-61026988D01*
X107390000Y-58269899D01*
X107696000Y-58269899D01*
X107696000Y-58570101D01*
X107754566Y-58864534D01*
X107869449Y-59141885D01*
X108036232Y-59391493D01*
X108248507Y-59603768D01*
X108406622Y-59709417D01*
X108343374Y-59903769D01*
X109220000Y-60780395D01*
X110096626Y-59903769D01*
X110033378Y-59709417D01*
X110191493Y-59603768D01*
X110403768Y-59391493D01*
X110570551Y-59141885D01*
X110640736Y-58972444D01*
X121081800Y-58972444D01*
X121081800Y-59137556D01*
X121114011Y-59299494D01*
X121177197Y-59452037D01*
X121268927Y-59589322D01*
X121385678Y-59706073D01*
X121522963Y-59797803D01*
X121675506Y-59860989D01*
X121837444Y-59893200D01*
X122002556Y-59893200D01*
X122164494Y-59860989D01*
X122317037Y-59797803D01*
X122454322Y-59706073D01*
X122571073Y-59589322D01*
X122662803Y-59452037D01*
X122725989Y-59299494D01*
X122758200Y-59137556D01*
X122758200Y-58972444D01*
X122725989Y-58810506D01*
X122662803Y-58657963D01*
X122571073Y-58520678D01*
X122454322Y-58403927D01*
X122317037Y-58312197D01*
X122214922Y-58269899D01*
X135636000Y-58269899D01*
X135636000Y-58570101D01*
X135694566Y-58864534D01*
X135809449Y-59141885D01*
X135976232Y-59391493D01*
X136188507Y-59603768D01*
X136346622Y-59709417D01*
X136283374Y-59903769D01*
X137160000Y-60780395D01*
X138036626Y-59903769D01*
X137973378Y-59709417D01*
X138131493Y-59603768D01*
X138343768Y-59391493D01*
X138510551Y-59141885D01*
X138625434Y-58864534D01*
X138684000Y-58570101D01*
X138684000Y-58269899D01*
X138625434Y-57975466D01*
X138510551Y-57698115D01*
X138343768Y-57448507D01*
X138131493Y-57236232D01*
X137973378Y-57130583D01*
X138036626Y-56936231D01*
X137160000Y-56059605D01*
X136283374Y-56936231D01*
X136346622Y-57130583D01*
X136188507Y-57236232D01*
X135976232Y-57448507D01*
X135809449Y-57698115D01*
X135694566Y-57975466D01*
X135636000Y-58269899D01*
X122214922Y-58269899D01*
X122164494Y-58249011D01*
X122002556Y-58216800D01*
X121837444Y-58216800D01*
X121675506Y-58249011D01*
X121522963Y-58312197D01*
X121385678Y-58403927D01*
X121268927Y-58520678D01*
X121177197Y-58657963D01*
X121114011Y-58810506D01*
X121081800Y-58972444D01*
X110640736Y-58972444D01*
X110685434Y-58864534D01*
X110744000Y-58570101D01*
X110744000Y-58269899D01*
X110685434Y-57975466D01*
X110570551Y-57698115D01*
X110403768Y-57448507D01*
X110191493Y-57236232D01*
X110033378Y-57130583D01*
X110053925Y-57067444D01*
X116001800Y-57067444D01*
X116001800Y-57232556D01*
X116034011Y-57394494D01*
X116097197Y-57547037D01*
X116188927Y-57684322D01*
X116305678Y-57801073D01*
X116442963Y-57892803D01*
X116595506Y-57955989D01*
X116757444Y-57988200D01*
X116922556Y-57988200D01*
X117084494Y-57955989D01*
X117237037Y-57892803D01*
X117374322Y-57801073D01*
X117491073Y-57684322D01*
X117582803Y-57547037D01*
X117645989Y-57394494D01*
X117678200Y-57232556D01*
X117678200Y-57067444D01*
X128955800Y-57067444D01*
X128955800Y-57232556D01*
X128988011Y-57394494D01*
X129051197Y-57547037D01*
X129142927Y-57684322D01*
X129259678Y-57801073D01*
X129396963Y-57892803D01*
X129549506Y-57955989D01*
X129711444Y-57988200D01*
X129876556Y-57988200D01*
X130038494Y-57955989D01*
X130191037Y-57892803D01*
X130328322Y-57801073D01*
X130445073Y-57684322D01*
X130536803Y-57547037D01*
X130599989Y-57394494D01*
X130632200Y-57232556D01*
X130632200Y-57067444D01*
X130599989Y-56905506D01*
X130536803Y-56752963D01*
X130445073Y-56615678D01*
X130328322Y-56498927D01*
X130191037Y-56407197D01*
X130038494Y-56344011D01*
X129876556Y-56311800D01*
X129711444Y-56311800D01*
X129549506Y-56344011D01*
X129396963Y-56407197D01*
X129259678Y-56498927D01*
X129142927Y-56615678D01*
X129051197Y-56752963D01*
X128988011Y-56905506D01*
X128955800Y-57067444D01*
X117678200Y-57067444D01*
X117645989Y-56905506D01*
X117582803Y-56752963D01*
X117491073Y-56615678D01*
X117374322Y-56498927D01*
X117237037Y-56407197D01*
X117084494Y-56344011D01*
X116922556Y-56311800D01*
X116757444Y-56311800D01*
X116595506Y-56344011D01*
X116442963Y-56407197D01*
X116305678Y-56498927D01*
X116188927Y-56615678D01*
X116097197Y-56752963D01*
X116034011Y-56905506D01*
X116001800Y-57067444D01*
X110053925Y-57067444D01*
X110096626Y-56936231D01*
X109220000Y-56059605D01*
X108343374Y-56936231D01*
X108406622Y-57130583D01*
X108248507Y-57236232D01*
X108036232Y-57448507D01*
X107869449Y-57698115D01*
X107754566Y-57975466D01*
X107696000Y-58269899D01*
X107390000Y-58269899D01*
X107390000Y-55946988D01*
X107690092Y-55946988D01*
X107732557Y-56244171D01*
X107832184Y-56527359D01*
X107910711Y-56674273D01*
X108163769Y-56756626D01*
X109040395Y-55880000D01*
X109399605Y-55880000D01*
X110276231Y-56756626D01*
X110529289Y-56674273D01*
X110659086Y-56403582D01*
X110733580Y-56112770D01*
X110749908Y-55813012D01*
X110747684Y-55797444D01*
X120764300Y-55797444D01*
X120764300Y-55962556D01*
X120796511Y-56124494D01*
X120859697Y-56277037D01*
X120951427Y-56414322D01*
X121068178Y-56531073D01*
X121205463Y-56622803D01*
X121358006Y-56685989D01*
X121519944Y-56718200D01*
X121685056Y-56718200D01*
X121846994Y-56685989D01*
X121999537Y-56622803D01*
X122136822Y-56531073D01*
X122253573Y-56414322D01*
X122345303Y-56277037D01*
X122408489Y-56124494D01*
X122440700Y-55962556D01*
X122440700Y-55946988D01*
X135630092Y-55946988D01*
X135672557Y-56244171D01*
X135772184Y-56527359D01*
X135850711Y-56674273D01*
X136103769Y-56756626D01*
X136980395Y-55880000D01*
X137339605Y-55880000D01*
X138216231Y-56756626D01*
X138469289Y-56674273D01*
X138599086Y-56403582D01*
X138673580Y-56112770D01*
X138689908Y-55813012D01*
X138647443Y-55515829D01*
X138547816Y-55232641D01*
X138469289Y-55085727D01*
X138216231Y-55003374D01*
X137339605Y-55880000D01*
X136980395Y-55880000D01*
X136103769Y-55003374D01*
X135850711Y-55085727D01*
X135720914Y-55356418D01*
X135646420Y-55647230D01*
X135630092Y-55946988D01*
X122440700Y-55946988D01*
X122440700Y-55797444D01*
X122408489Y-55635506D01*
X122345303Y-55482963D01*
X122253573Y-55345678D01*
X122136822Y-55228927D01*
X121999537Y-55137197D01*
X121846994Y-55074011D01*
X121685056Y-55041800D01*
X121519944Y-55041800D01*
X121358006Y-55074011D01*
X121205463Y-55137197D01*
X121068178Y-55228927D01*
X120951427Y-55345678D01*
X120859697Y-55482963D01*
X120796511Y-55635506D01*
X120764300Y-55797444D01*
X110747684Y-55797444D01*
X110707443Y-55515829D01*
X110607816Y-55232641D01*
X110529289Y-55085727D01*
X110276231Y-55003374D01*
X109399605Y-55880000D01*
X109040395Y-55880000D01*
X108163769Y-55003374D01*
X107910711Y-55085727D01*
X107780914Y-55356418D01*
X107706420Y-55647230D01*
X107690092Y-55946988D01*
X107390000Y-55946988D01*
X107390000Y-54823769D01*
X108343374Y-54823769D01*
X109220000Y-55700395D01*
X110096626Y-54823769D01*
X136283374Y-54823769D01*
X137160000Y-55700395D01*
X138036626Y-54823769D01*
X137954273Y-54570711D01*
X137683582Y-54440914D01*
X137392770Y-54366420D01*
X137093012Y-54350092D01*
X136795829Y-54392557D01*
X136512641Y-54492184D01*
X136365727Y-54570711D01*
X136283374Y-54823769D01*
X110096626Y-54823769D01*
X110014273Y-54570711D01*
X109743582Y-54440914D01*
X109452770Y-54366420D01*
X109153012Y-54350092D01*
X108855829Y-54392557D01*
X108572641Y-54492184D01*
X108425727Y-54570711D01*
X108343374Y-54823769D01*
X107390000Y-54823769D01*
X107390000Y-54050000D01*
X138990000Y-54050000D01*
X138990001Y-118670000D01*
G04 #@! TA.AperFunction,Conductor*
D13*
G36*
X138990001Y-118670000D02*
G01*
X107390000Y-118670000D01*
X107390000Y-117896231D01*
X108343374Y-117896231D01*
X108425727Y-118149289D01*
X108696418Y-118279086D01*
X108987230Y-118353580D01*
X109286988Y-118369908D01*
X109584171Y-118327443D01*
X109867359Y-118227816D01*
X110014273Y-118149289D01*
X110096626Y-117896231D01*
X109220000Y-117019605D01*
X108343374Y-117896231D01*
X107390000Y-117896231D01*
X107390000Y-116906988D01*
X107690092Y-116906988D01*
X107732557Y-117204171D01*
X107832184Y-117487359D01*
X107910711Y-117634273D01*
X108163769Y-117716626D01*
X109040395Y-116840000D01*
X109399605Y-116840000D01*
X110276231Y-117716626D01*
X110529289Y-117634273D01*
X110659086Y-117363582D01*
X110733580Y-117072770D01*
X110749908Y-116773012D01*
X110707443Y-116475829D01*
X110607816Y-116192641D01*
X110529289Y-116045727D01*
X110276231Y-115963374D01*
X109399605Y-116840000D01*
X109040395Y-116840000D01*
X108163769Y-115963374D01*
X107910711Y-116045727D01*
X107780914Y-116316418D01*
X107706420Y-116607230D01*
X107690092Y-116906988D01*
X107390000Y-116906988D01*
X107390000Y-103989899D01*
X107696000Y-103989899D01*
X107696000Y-104290101D01*
X107754566Y-104584534D01*
X107869449Y-104861885D01*
X108036232Y-105111493D01*
X108248507Y-105323768D01*
X108377562Y-105410000D01*
X108248507Y-105496232D01*
X108036232Y-105708507D01*
X107869449Y-105958115D01*
X107754566Y-106235466D01*
X107696000Y-106529899D01*
X107696000Y-106830101D01*
X107754566Y-107124534D01*
X107869449Y-107401885D01*
X108036232Y-107651493D01*
X108248507Y-107863768D01*
X108377562Y-107950000D01*
X108248507Y-108036232D01*
X108036232Y-108248507D01*
X107869449Y-108498115D01*
X107754566Y-108775466D01*
X107696000Y-109069899D01*
X107696000Y-109370101D01*
X107754566Y-109664534D01*
X107869449Y-109941885D01*
X108036232Y-110191493D01*
X108248507Y-110403768D01*
X108377562Y-110490000D01*
X108248507Y-110576232D01*
X108036232Y-110788507D01*
X107869449Y-111038115D01*
X107754566Y-111315466D01*
X107696000Y-111609899D01*
X107696000Y-111910101D01*
X107754566Y-112204534D01*
X107869449Y-112481885D01*
X108036232Y-112731493D01*
X108248507Y-112943768D01*
X108377562Y-113030000D01*
X108248507Y-113116232D01*
X108036232Y-113328507D01*
X107869449Y-113578115D01*
X107754566Y-113855466D01*
X107696000Y-114149899D01*
X107696000Y-114450101D01*
X107754566Y-114744534D01*
X107869449Y-115021885D01*
X108036232Y-115271493D01*
X108248507Y-115483768D01*
X108406622Y-115589417D01*
X108343374Y-115783769D01*
X109220000Y-116660395D01*
X110096626Y-115783769D01*
X110033378Y-115589417D01*
X110191493Y-115483768D01*
X110403768Y-115271493D01*
X110570551Y-115021885D01*
X110685434Y-114744534D01*
X110744000Y-114450101D01*
X110744000Y-114149899D01*
X110685434Y-113855466D01*
X110570551Y-113578115D01*
X110403768Y-113328507D01*
X110191493Y-113116232D01*
X110062438Y-113030000D01*
X110191493Y-112943768D01*
X110403768Y-112731493D01*
X110570551Y-112481885D01*
X110685434Y-112204534D01*
X110744000Y-111910101D01*
X110744000Y-111609899D01*
X110706913Y-111423444D01*
X115747800Y-111423444D01*
X115747800Y-111588556D01*
X115780011Y-111750494D01*
X115843197Y-111903037D01*
X115934927Y-112040322D01*
X116035605Y-112141000D01*
X115934927Y-112241678D01*
X115843197Y-112378963D01*
X115780011Y-112531506D01*
X115747800Y-112693444D01*
X115747800Y-112858556D01*
X115780011Y-113020494D01*
X115843197Y-113173037D01*
X115934927Y-113310322D01*
X116051678Y-113427073D01*
X116188963Y-113518803D01*
X116235308Y-113538000D01*
X116188963Y-113557197D01*
X116051678Y-113648927D01*
X115934927Y-113765678D01*
X115843197Y-113902963D01*
X115780011Y-114055506D01*
X115747800Y-114217444D01*
X115747800Y-114382556D01*
X115780011Y-114544494D01*
X115843197Y-114697037D01*
X115934927Y-114834322D01*
X116051678Y-114951073D01*
X116188963Y-115042803D01*
X116235308Y-115062000D01*
X116188963Y-115081197D01*
X116051678Y-115172927D01*
X115934927Y-115289678D01*
X115843197Y-115426963D01*
X115780011Y-115579506D01*
X115747800Y-115741444D01*
X115747800Y-115906556D01*
X115780011Y-116068494D01*
X115843197Y-116221037D01*
X115934927Y-116358322D01*
X116035605Y-116459000D01*
X115934927Y-116559678D01*
X115843197Y-116696963D01*
X115780011Y-116849506D01*
X115747800Y-117011444D01*
X115747800Y-117176556D01*
X115780011Y-117338494D01*
X115843197Y-117491037D01*
X115934927Y-117628322D01*
X116051678Y-117745073D01*
X116188963Y-117836803D01*
X116341506Y-117899989D01*
X116503444Y-117932200D01*
X116668556Y-117932200D01*
X116830494Y-117899989D01*
X116983037Y-117836803D01*
X117120322Y-117745073D01*
X117237073Y-117628322D01*
X117328803Y-117491037D01*
X117348000Y-117444692D01*
X117367197Y-117491037D01*
X117458927Y-117628322D01*
X117575678Y-117745073D01*
X117712963Y-117836803D01*
X117865506Y-117899989D01*
X118027444Y-117932200D01*
X118192556Y-117932200D01*
X118354494Y-117899989D01*
X118507037Y-117836803D01*
X118644322Y-117745073D01*
X118761073Y-117628322D01*
X118852803Y-117491037D01*
X118915989Y-117338494D01*
X118948200Y-117176556D01*
X118948200Y-117011444D01*
X119049800Y-117011444D01*
X119049800Y-117176556D01*
X119082011Y-117338494D01*
X119145197Y-117491037D01*
X119236927Y-117628322D01*
X119353678Y-117745073D01*
X119490963Y-117836803D01*
X119643506Y-117899989D01*
X119805444Y-117932200D01*
X119970556Y-117932200D01*
X120132494Y-117899989D01*
X120285037Y-117836803D01*
X120422322Y-117745073D01*
X120539073Y-117628322D01*
X120630803Y-117491037D01*
X120693989Y-117338494D01*
X120726200Y-117176556D01*
X120726200Y-117011444D01*
X120827800Y-117011444D01*
X120827800Y-117176556D01*
X120860011Y-117338494D01*
X120923197Y-117491037D01*
X121014927Y-117628322D01*
X121131678Y-117745073D01*
X121268963Y-117836803D01*
X121421506Y-117899989D01*
X121583444Y-117932200D01*
X121748556Y-117932200D01*
X121910494Y-117899989D01*
X122063037Y-117836803D01*
X122200322Y-117745073D01*
X122317073Y-117628322D01*
X122408803Y-117491037D01*
X122471989Y-117338494D01*
X122504200Y-117176556D01*
X122504200Y-117011444D01*
X122471989Y-116849506D01*
X122408803Y-116696963D01*
X122317073Y-116559678D01*
X122200322Y-116442927D01*
X122063037Y-116351197D01*
X121910494Y-116288011D01*
X121748556Y-116255800D01*
X121583444Y-116255800D01*
X121421506Y-116288011D01*
X121268963Y-116351197D01*
X121131678Y-116442927D01*
X121014927Y-116559678D01*
X120923197Y-116696963D01*
X120860011Y-116849506D01*
X120827800Y-117011444D01*
X120726200Y-117011444D01*
X120693989Y-116849506D01*
X120630803Y-116696963D01*
X120539073Y-116559678D01*
X120422322Y-116442927D01*
X120285037Y-116351197D01*
X120132494Y-116288011D01*
X119970556Y-116255800D01*
X119805444Y-116255800D01*
X119643506Y-116288011D01*
X119490963Y-116351197D01*
X119353678Y-116442927D01*
X119236927Y-116559678D01*
X119145197Y-116696963D01*
X119082011Y-116849506D01*
X119049800Y-117011444D01*
X118948200Y-117011444D01*
X118915989Y-116849506D01*
X118852803Y-116696963D01*
X118761073Y-116559678D01*
X118644322Y-116442927D01*
X118507037Y-116351197D01*
X118354494Y-116288011D01*
X118192556Y-116255800D01*
X118027444Y-116255800D01*
X117865506Y-116288011D01*
X117712963Y-116351197D01*
X117575678Y-116442927D01*
X117458927Y-116559678D01*
X117367197Y-116696963D01*
X117348000Y-116743308D01*
X117328803Y-116696963D01*
X117237073Y-116559678D01*
X117136395Y-116459000D01*
X117237073Y-116358322D01*
X117328803Y-116221037D01*
X117391989Y-116068494D01*
X117424200Y-115906556D01*
X117424200Y-115741444D01*
X117391989Y-115579506D01*
X117328803Y-115426963D01*
X117237073Y-115289678D01*
X117120322Y-115172927D01*
X116983037Y-115081197D01*
X116936692Y-115062000D01*
X116983037Y-115042803D01*
X117120322Y-114951073D01*
X117237073Y-114834322D01*
X117328803Y-114697037D01*
X117391989Y-114544494D01*
X117424200Y-114382556D01*
X117424200Y-114217444D01*
X117391989Y-114055506D01*
X117328803Y-113902963D01*
X117237073Y-113765678D01*
X117120322Y-113648927D01*
X116983037Y-113557197D01*
X116936692Y-113538000D01*
X116983037Y-113518803D01*
X117120322Y-113427073D01*
X117237073Y-113310322D01*
X117328803Y-113173037D01*
X117391989Y-113020494D01*
X117424200Y-112858556D01*
X117424200Y-112693444D01*
X117391989Y-112531506D01*
X117328803Y-112378963D01*
X117237073Y-112241678D01*
X117136395Y-112141000D01*
X117237073Y-112040322D01*
X117328803Y-111903037D01*
X117348000Y-111856692D01*
X117367197Y-111903037D01*
X117458927Y-112040322D01*
X117575678Y-112157073D01*
X117712963Y-112248803D01*
X117865506Y-112311989D01*
X118027444Y-112344200D01*
X118192556Y-112344200D01*
X118354494Y-112311989D01*
X118507037Y-112248803D01*
X118644322Y-112157073D01*
X118761073Y-112040322D01*
X118852803Y-111903037D01*
X118915989Y-111750494D01*
X118948200Y-111588556D01*
X118948200Y-111423444D01*
X119049800Y-111423444D01*
X119049800Y-111588556D01*
X119082011Y-111750494D01*
X119145197Y-111903037D01*
X119236927Y-112040322D01*
X119353678Y-112157073D01*
X119490963Y-112248803D01*
X119643506Y-112311989D01*
X119805444Y-112344200D01*
X119970556Y-112344200D01*
X120132494Y-112311989D01*
X120285037Y-112248803D01*
X120422322Y-112157073D01*
X120539073Y-112040322D01*
X120630803Y-111903037D01*
X120693989Y-111750494D01*
X120726200Y-111588556D01*
X120726200Y-111423444D01*
X120827800Y-111423444D01*
X120827800Y-111588556D01*
X120860011Y-111750494D01*
X120923197Y-111903037D01*
X121014927Y-112040322D01*
X121131678Y-112157073D01*
X121268963Y-112248803D01*
X121421506Y-112311989D01*
X121583444Y-112344200D01*
X121748556Y-112344200D01*
X121910494Y-112311989D01*
X122063037Y-112248803D01*
X122200322Y-112157073D01*
X122317073Y-112040322D01*
X122408803Y-111903037D01*
X122471989Y-111750494D01*
X122504200Y-111588556D01*
X122504200Y-111423444D01*
X122605800Y-111423444D01*
X122605800Y-111588556D01*
X122638011Y-111750494D01*
X122701197Y-111903037D01*
X122792927Y-112040322D01*
X122893605Y-112141000D01*
X122792927Y-112241678D01*
X122701197Y-112378963D01*
X122638011Y-112531506D01*
X122605800Y-112693444D01*
X122605800Y-112858556D01*
X122638011Y-113020494D01*
X122701197Y-113173037D01*
X122792927Y-113310322D01*
X122909678Y-113427073D01*
X123046963Y-113518803D01*
X123093308Y-113538000D01*
X123046963Y-113557197D01*
X122909678Y-113648927D01*
X122792927Y-113765678D01*
X122701197Y-113902963D01*
X122638011Y-114055506D01*
X122605800Y-114217444D01*
X122605800Y-114382556D01*
X122638011Y-114544494D01*
X122701197Y-114697037D01*
X122792927Y-114834322D01*
X122909678Y-114951073D01*
X123046963Y-115042803D01*
X123093308Y-115062000D01*
X123046963Y-115081197D01*
X122909678Y-115172927D01*
X122792927Y-115289678D01*
X122701197Y-115426963D01*
X122638011Y-115579506D01*
X122605800Y-115741444D01*
X122605800Y-115906556D01*
X122638011Y-116068494D01*
X122701197Y-116221037D01*
X122792927Y-116358322D01*
X122893605Y-116459000D01*
X122792927Y-116559678D01*
X122701197Y-116696963D01*
X122638011Y-116849506D01*
X122605800Y-117011444D01*
X122605800Y-117176556D01*
X122638011Y-117338494D01*
X122701197Y-117491037D01*
X122792927Y-117628322D01*
X122909678Y-117745073D01*
X123046963Y-117836803D01*
X123199506Y-117899989D01*
X123361444Y-117932200D01*
X123526556Y-117932200D01*
X123688494Y-117899989D01*
X123697566Y-117896231D01*
X136283374Y-117896231D01*
X136365727Y-118149289D01*
X136636418Y-118279086D01*
X136927230Y-118353580D01*
X137226988Y-118369908D01*
X137524171Y-118327443D01*
X137807359Y-118227816D01*
X137954273Y-118149289D01*
X138036626Y-117896231D01*
X137160000Y-117019605D01*
X136283374Y-117896231D01*
X123697566Y-117896231D01*
X123841037Y-117836803D01*
X123978322Y-117745073D01*
X124095073Y-117628322D01*
X124186803Y-117491037D01*
X124249989Y-117338494D01*
X124282200Y-117176556D01*
X124282200Y-117011444D01*
X124261423Y-116906988D01*
X135630092Y-116906988D01*
X135672557Y-117204171D01*
X135772184Y-117487359D01*
X135850711Y-117634273D01*
X136103769Y-117716626D01*
X136980395Y-116840000D01*
X137339605Y-116840000D01*
X138216231Y-117716626D01*
X138469289Y-117634273D01*
X138599086Y-117363582D01*
X138673580Y-117072770D01*
X138689908Y-116773012D01*
X138647443Y-116475829D01*
X138547816Y-116192641D01*
X138469289Y-116045727D01*
X138216231Y-115963374D01*
X137339605Y-116840000D01*
X136980395Y-116840000D01*
X136103769Y-115963374D01*
X135850711Y-116045727D01*
X135720914Y-116316418D01*
X135646420Y-116607230D01*
X135630092Y-116906988D01*
X124261423Y-116906988D01*
X124249989Y-116849506D01*
X124186803Y-116696963D01*
X124095073Y-116559678D01*
X123994395Y-116459000D01*
X124095073Y-116358322D01*
X124186803Y-116221037D01*
X124249989Y-116068494D01*
X124282200Y-115906556D01*
X124282200Y-115741444D01*
X124249989Y-115579506D01*
X124186803Y-115426963D01*
X124095073Y-115289678D01*
X123978322Y-115172927D01*
X123841037Y-115081197D01*
X123794692Y-115062000D01*
X123841037Y-115042803D01*
X123978322Y-114951073D01*
X124095073Y-114834322D01*
X124186803Y-114697037D01*
X124249989Y-114544494D01*
X124282200Y-114382556D01*
X124282200Y-114217444D01*
X124249989Y-114055506D01*
X124186803Y-113902963D01*
X124095073Y-113765678D01*
X123978322Y-113648927D01*
X123841037Y-113557197D01*
X123794692Y-113538000D01*
X123841037Y-113518803D01*
X123978322Y-113427073D01*
X124095073Y-113310322D01*
X124186803Y-113173037D01*
X124249989Y-113020494D01*
X124282200Y-112858556D01*
X124282200Y-112693444D01*
X124249989Y-112531506D01*
X124186803Y-112378963D01*
X124095073Y-112241678D01*
X123994395Y-112141000D01*
X124095073Y-112040322D01*
X124186803Y-111903037D01*
X124249989Y-111750494D01*
X124282200Y-111588556D01*
X124282200Y-111423444D01*
X124249989Y-111261506D01*
X124186803Y-111108963D01*
X124095073Y-110971678D01*
X123978322Y-110854927D01*
X123841037Y-110763197D01*
X123688494Y-110700011D01*
X123526556Y-110667800D01*
X123361444Y-110667800D01*
X123199506Y-110700011D01*
X123046963Y-110763197D01*
X122909678Y-110854927D01*
X122792927Y-110971678D01*
X122701197Y-111108963D01*
X122638011Y-111261506D01*
X122605800Y-111423444D01*
X122504200Y-111423444D01*
X122471989Y-111261506D01*
X122408803Y-111108963D01*
X122317073Y-110971678D01*
X122200322Y-110854927D01*
X122063037Y-110763197D01*
X121910494Y-110700011D01*
X121748556Y-110667800D01*
X121583444Y-110667800D01*
X121421506Y-110700011D01*
X121268963Y-110763197D01*
X121131678Y-110854927D01*
X121014927Y-110971678D01*
X120923197Y-111108963D01*
X120860011Y-111261506D01*
X120827800Y-111423444D01*
X120726200Y-111423444D01*
X120693989Y-111261506D01*
X120630803Y-111108963D01*
X120539073Y-110971678D01*
X120422322Y-110854927D01*
X120285037Y-110763197D01*
X120132494Y-110700011D01*
X119970556Y-110667800D01*
X119805444Y-110667800D01*
X119643506Y-110700011D01*
X119490963Y-110763197D01*
X119353678Y-110854927D01*
X119236927Y-110971678D01*
X119145197Y-111108963D01*
X119082011Y-111261506D01*
X119049800Y-111423444D01*
X118948200Y-111423444D01*
X118915989Y-111261506D01*
X118852803Y-111108963D01*
X118761073Y-110971678D01*
X118644322Y-110854927D01*
X118507037Y-110763197D01*
X118354494Y-110700011D01*
X118192556Y-110667800D01*
X118027444Y-110667800D01*
X117865506Y-110700011D01*
X117712963Y-110763197D01*
X117575678Y-110854927D01*
X117458927Y-110971678D01*
X117367197Y-111108963D01*
X117348000Y-111155308D01*
X117328803Y-111108963D01*
X117237073Y-110971678D01*
X117120322Y-110854927D01*
X116983037Y-110763197D01*
X116830494Y-110700011D01*
X116668556Y-110667800D01*
X116503444Y-110667800D01*
X116341506Y-110700011D01*
X116188963Y-110763197D01*
X116051678Y-110854927D01*
X115934927Y-110971678D01*
X115843197Y-111108963D01*
X115780011Y-111261506D01*
X115747800Y-111423444D01*
X110706913Y-111423444D01*
X110685434Y-111315466D01*
X110570551Y-111038115D01*
X110403768Y-110788507D01*
X110191493Y-110576232D01*
X110062438Y-110490000D01*
X110185991Y-110407444D01*
X130225800Y-110407444D01*
X130225800Y-110572556D01*
X130258011Y-110734494D01*
X130321197Y-110887037D01*
X130412927Y-111024322D01*
X130529678Y-111141073D01*
X130666963Y-111232803D01*
X130819506Y-111295989D01*
X130981444Y-111328200D01*
X131146556Y-111328200D01*
X131308494Y-111295989D01*
X131461037Y-111232803D01*
X131598322Y-111141073D01*
X131715073Y-111024322D01*
X131806803Y-110887037D01*
X131869989Y-110734494D01*
X131902200Y-110572556D01*
X131902200Y-110407444D01*
X131869989Y-110245506D01*
X131806803Y-110092963D01*
X131715073Y-109955678D01*
X131598322Y-109838927D01*
X131461037Y-109747197D01*
X131308494Y-109684011D01*
X131146556Y-109651800D01*
X130981444Y-109651800D01*
X130819506Y-109684011D01*
X130666963Y-109747197D01*
X130529678Y-109838927D01*
X130412927Y-109955678D01*
X130321197Y-110092963D01*
X130258011Y-110245506D01*
X130225800Y-110407444D01*
X110185991Y-110407444D01*
X110191493Y-110403768D01*
X110403768Y-110191493D01*
X110570551Y-109941885D01*
X110685434Y-109664534D01*
X110744000Y-109370101D01*
X110744000Y-109069899D01*
X110685434Y-108775466D01*
X110661597Y-108717919D01*
X110753506Y-108755989D01*
X110915444Y-108788200D01*
X111080556Y-108788200D01*
X111242494Y-108755989D01*
X111395037Y-108692803D01*
X111532322Y-108601073D01*
X111649073Y-108484322D01*
X111740803Y-108347037D01*
X111803989Y-108194494D01*
X111836200Y-108032556D01*
X111836200Y-107867444D01*
X111803989Y-107705506D01*
X111740803Y-107552963D01*
X111649073Y-107415678D01*
X111532322Y-107298927D01*
X111395037Y-107207197D01*
X111242494Y-107144011D01*
X111080556Y-107111800D01*
X110915444Y-107111800D01*
X110753506Y-107144011D01*
X110661597Y-107182081D01*
X110685434Y-107124534D01*
X110744000Y-106830101D01*
X110744000Y-106529899D01*
X110706913Y-106343444D01*
X114731800Y-106343444D01*
X114731800Y-106508556D01*
X114764011Y-106670494D01*
X114827197Y-106823037D01*
X114918927Y-106960322D01*
X115035678Y-107077073D01*
X115172963Y-107168803D01*
X115325506Y-107231989D01*
X115487444Y-107264200D01*
X115652556Y-107264200D01*
X115814494Y-107231989D01*
X115967037Y-107168803D01*
X116061861Y-107105444D01*
X123621800Y-107105444D01*
X123621800Y-107270556D01*
X123654011Y-107432494D01*
X123717197Y-107585037D01*
X123808927Y-107722322D01*
X123925678Y-107839073D01*
X124062963Y-107930803D01*
X124215506Y-107993989D01*
X124377444Y-108026200D01*
X124542556Y-108026200D01*
X124704494Y-107993989D01*
X124857037Y-107930803D01*
X124994322Y-107839073D01*
X125111073Y-107722322D01*
X125202803Y-107585037D01*
X125265989Y-107432494D01*
X125298200Y-107270556D01*
X125298200Y-107105444D01*
X125265989Y-106943506D01*
X125202803Y-106790963D01*
X125111073Y-106653678D01*
X124994322Y-106536927D01*
X124942349Y-106502200D01*
X125050556Y-106502200D01*
X125212494Y-106469989D01*
X125365037Y-106406803D01*
X125502322Y-106315073D01*
X125619073Y-106198322D01*
X125710803Y-106061037D01*
X125773989Y-105908494D01*
X125806200Y-105746556D01*
X125806200Y-105581444D01*
X125782551Y-105462551D01*
X125901444Y-105486200D01*
X126066556Y-105486200D01*
X126228494Y-105453989D01*
X126381037Y-105390803D01*
X126518322Y-105299073D01*
X126635073Y-105182322D01*
X126707822Y-105073444D01*
X133273800Y-105073444D01*
X133273800Y-105238556D01*
X133306011Y-105400494D01*
X133369197Y-105553037D01*
X133460927Y-105690322D01*
X133577678Y-105807073D01*
X133714963Y-105898803D01*
X133867506Y-105961989D01*
X134029444Y-105994200D01*
X134194556Y-105994200D01*
X134356494Y-105961989D01*
X134509037Y-105898803D01*
X134603861Y-105835444D01*
X135051800Y-105835444D01*
X135051800Y-106000556D01*
X135084011Y-106162494D01*
X135147197Y-106315037D01*
X135238927Y-106452322D01*
X135355678Y-106569073D01*
X135492963Y-106660803D01*
X135636000Y-106720051D01*
X135636000Y-106830101D01*
X135694566Y-107124534D01*
X135809449Y-107401885D01*
X135976232Y-107651493D01*
X136188507Y-107863768D01*
X136317562Y-107950000D01*
X136188507Y-108036232D01*
X135976232Y-108248507D01*
X135809449Y-108498115D01*
X135694566Y-108775466D01*
X135636000Y-109069899D01*
X135636000Y-109370101D01*
X135694566Y-109664534D01*
X135809449Y-109941885D01*
X135976232Y-110191493D01*
X136188507Y-110403768D01*
X136317562Y-110490000D01*
X136188507Y-110576232D01*
X135976232Y-110788507D01*
X135809449Y-111038115D01*
X135694566Y-111315466D01*
X135636000Y-111609899D01*
X135636000Y-111910101D01*
X135694566Y-112204534D01*
X135809449Y-112481885D01*
X135976232Y-112731493D01*
X136188507Y-112943768D01*
X136317562Y-113030000D01*
X136188507Y-113116232D01*
X135976232Y-113328507D01*
X135809449Y-113578115D01*
X135694566Y-113855466D01*
X135636000Y-114149899D01*
X135636000Y-114450101D01*
X135694566Y-114744534D01*
X135809449Y-115021885D01*
X135976232Y-115271493D01*
X136188507Y-115483768D01*
X136346622Y-115589417D01*
X136283374Y-115783769D01*
X137160000Y-116660395D01*
X138036626Y-115783769D01*
X137973378Y-115589417D01*
X138131493Y-115483768D01*
X138343768Y-115271493D01*
X138510551Y-115021885D01*
X138625434Y-114744534D01*
X138684000Y-114450101D01*
X138684000Y-114149899D01*
X138625434Y-113855466D01*
X138510551Y-113578115D01*
X138343768Y-113328507D01*
X138131493Y-113116232D01*
X138002438Y-113030000D01*
X138131493Y-112943768D01*
X138343768Y-112731493D01*
X138510551Y-112481885D01*
X138625434Y-112204534D01*
X138684000Y-111910101D01*
X138684000Y-111609899D01*
X138625434Y-111315466D01*
X138510551Y-111038115D01*
X138343768Y-110788507D01*
X138131493Y-110576232D01*
X138002438Y-110490000D01*
X138131493Y-110403768D01*
X138343768Y-110191493D01*
X138510551Y-109941885D01*
X138625434Y-109664534D01*
X138684000Y-109370101D01*
X138684000Y-109069899D01*
X138625434Y-108775466D01*
X138510551Y-108498115D01*
X138343768Y-108248507D01*
X138131493Y-108036232D01*
X138002438Y-107950000D01*
X138131493Y-107863768D01*
X138343768Y-107651493D01*
X138510551Y-107401885D01*
X138625434Y-107124534D01*
X138684000Y-106830101D01*
X138684000Y-106529899D01*
X138625434Y-106235466D01*
X138510551Y-105958115D01*
X138343768Y-105708507D01*
X138131493Y-105496232D01*
X138002438Y-105410000D01*
X138131493Y-105323768D01*
X138343768Y-105111493D01*
X138510551Y-104861885D01*
X138625434Y-104584534D01*
X138684000Y-104290101D01*
X138684000Y-103989899D01*
X138625434Y-103695466D01*
X138510551Y-103418115D01*
X138343768Y-103168507D01*
X138131493Y-102956232D01*
X137973378Y-102850583D01*
X138036626Y-102656231D01*
X137160000Y-101779605D01*
X136283374Y-102656231D01*
X136346622Y-102850583D01*
X136188507Y-102956232D01*
X135976232Y-103168507D01*
X135809449Y-103418115D01*
X135694566Y-103695466D01*
X135636000Y-103989899D01*
X135636000Y-104290101D01*
X135694566Y-104584534D01*
X135809449Y-104861885D01*
X135955055Y-105079800D01*
X135807444Y-105079800D01*
X135645506Y-105112011D01*
X135492963Y-105175197D01*
X135355678Y-105266927D01*
X135238927Y-105383678D01*
X135147197Y-105520963D01*
X135084011Y-105673506D01*
X135051800Y-105835444D01*
X134603861Y-105835444D01*
X134646322Y-105807073D01*
X134763073Y-105690322D01*
X134854803Y-105553037D01*
X134917989Y-105400494D01*
X134950200Y-105238556D01*
X134950200Y-105073444D01*
X134917989Y-104911506D01*
X134854803Y-104758963D01*
X134763073Y-104621678D01*
X134646322Y-104504927D01*
X134509037Y-104413197D01*
X134356494Y-104350011D01*
X134194556Y-104317800D01*
X134029444Y-104317800D01*
X133867506Y-104350011D01*
X133714963Y-104413197D01*
X133577678Y-104504927D01*
X133460927Y-104621678D01*
X133369197Y-104758963D01*
X133306011Y-104911506D01*
X133273800Y-105073444D01*
X126707822Y-105073444D01*
X126726803Y-105045037D01*
X126789989Y-104892494D01*
X126822200Y-104730556D01*
X126822200Y-104565444D01*
X126789989Y-104403506D01*
X126733446Y-104267000D01*
X126789989Y-104130494D01*
X126822200Y-103968556D01*
X126822200Y-103803444D01*
X126789989Y-103641506D01*
X126726803Y-103488963D01*
X126635073Y-103351678D01*
X126578839Y-103295444D01*
X130987800Y-103295444D01*
X130987800Y-103460556D01*
X131020011Y-103622494D01*
X131083197Y-103775037D01*
X131174927Y-103912322D01*
X131291678Y-104029073D01*
X131428963Y-104120803D01*
X131581506Y-104183989D01*
X131743444Y-104216200D01*
X131908556Y-104216200D01*
X132070494Y-104183989D01*
X132223037Y-104120803D01*
X132360322Y-104029073D01*
X132477073Y-103912322D01*
X132568803Y-103775037D01*
X132631989Y-103622494D01*
X132664200Y-103460556D01*
X132664200Y-103443200D01*
X132681556Y-103443200D01*
X132843494Y-103410989D01*
X132996037Y-103347803D01*
X133133322Y-103256073D01*
X133250073Y-103139322D01*
X133341803Y-103002037D01*
X133404989Y-102849494D01*
X133437200Y-102687556D01*
X133437200Y-102522444D01*
X133404989Y-102360506D01*
X133341803Y-102207963D01*
X133250073Y-102070678D01*
X133133322Y-101953927D01*
X132996037Y-101862197D01*
X132843494Y-101799011D01*
X132681556Y-101766800D01*
X132516444Y-101766800D01*
X132354506Y-101799011D01*
X132201963Y-101862197D01*
X132064678Y-101953927D01*
X131947927Y-102070678D01*
X131856197Y-102207963D01*
X131793011Y-102360506D01*
X131760800Y-102522444D01*
X131760800Y-102539800D01*
X131743444Y-102539800D01*
X131581506Y-102572011D01*
X131428963Y-102635197D01*
X131291678Y-102726927D01*
X131174927Y-102843678D01*
X131083197Y-102980963D01*
X131020011Y-103133506D01*
X130987800Y-103295444D01*
X126578839Y-103295444D01*
X126518322Y-103234927D01*
X126381037Y-103143197D01*
X126228494Y-103080011D01*
X126066556Y-103047800D01*
X125901444Y-103047800D01*
X125739506Y-103080011D01*
X125586963Y-103143197D01*
X125449678Y-103234927D01*
X125332927Y-103351678D01*
X125241197Y-103488963D01*
X125178011Y-103641506D01*
X125145800Y-103803444D01*
X125145800Y-103968556D01*
X125178011Y-104130494D01*
X125234554Y-104267000D01*
X125178011Y-104403506D01*
X125145800Y-104565444D01*
X125145800Y-104730556D01*
X125169449Y-104849449D01*
X125050556Y-104825800D01*
X124885444Y-104825800D01*
X124723506Y-104858011D01*
X124570963Y-104921197D01*
X124433678Y-105012927D01*
X124316927Y-105129678D01*
X124225197Y-105266963D01*
X124162011Y-105419506D01*
X124129800Y-105581444D01*
X124129800Y-105746556D01*
X124162011Y-105908494D01*
X124225197Y-106061037D01*
X124316927Y-106198322D01*
X124433678Y-106315073D01*
X124485651Y-106349800D01*
X124377444Y-106349800D01*
X124215506Y-106382011D01*
X124062963Y-106445197D01*
X123925678Y-106536927D01*
X123808927Y-106653678D01*
X123717197Y-106790963D01*
X123654011Y-106943506D01*
X123621800Y-107105444D01*
X116061861Y-107105444D01*
X116104322Y-107077073D01*
X116221073Y-106960322D01*
X116312803Y-106823037D01*
X116375989Y-106670494D01*
X116408200Y-106508556D01*
X116408200Y-106343444D01*
X116375989Y-106181506D01*
X116312803Y-106028963D01*
X116221073Y-105891678D01*
X116104322Y-105774927D01*
X115967037Y-105683197D01*
X115814494Y-105620011D01*
X115652556Y-105587800D01*
X115487444Y-105587800D01*
X115325506Y-105620011D01*
X115172963Y-105683197D01*
X115035678Y-105774927D01*
X114918927Y-105891678D01*
X114827197Y-106028963D01*
X114764011Y-106181506D01*
X114731800Y-106343444D01*
X110706913Y-106343444D01*
X110685434Y-106235466D01*
X110570551Y-105958115D01*
X110403768Y-105708507D01*
X110191493Y-105496232D01*
X110062438Y-105410000D01*
X110191493Y-105323768D01*
X110403768Y-105111493D01*
X110570551Y-104861885D01*
X110588130Y-104819444D01*
X120065800Y-104819444D01*
X120065800Y-104984556D01*
X120098011Y-105146494D01*
X120161197Y-105299037D01*
X120252927Y-105436322D01*
X120369678Y-105553073D01*
X120506963Y-105644803D01*
X120659506Y-105707989D01*
X120821444Y-105740200D01*
X120986556Y-105740200D01*
X121148494Y-105707989D01*
X121301037Y-105644803D01*
X121438322Y-105553073D01*
X121555073Y-105436322D01*
X121646803Y-105299037D01*
X121709989Y-105146494D01*
X121742200Y-104984556D01*
X121742200Y-104819444D01*
X121709989Y-104657506D01*
X121646803Y-104504963D01*
X121555073Y-104367678D01*
X121438322Y-104250927D01*
X121301037Y-104159197D01*
X121148494Y-104096011D01*
X120986556Y-104063800D01*
X120821444Y-104063800D01*
X120659506Y-104096011D01*
X120506963Y-104159197D01*
X120369678Y-104250927D01*
X120252927Y-104367678D01*
X120161197Y-104504963D01*
X120098011Y-104657506D01*
X120065800Y-104819444D01*
X110588130Y-104819444D01*
X110685434Y-104584534D01*
X110744000Y-104290101D01*
X110744000Y-104057444D01*
X121589800Y-104057444D01*
X121589800Y-104222556D01*
X121622011Y-104384494D01*
X121685197Y-104537037D01*
X121776927Y-104674322D01*
X121893678Y-104791073D01*
X122030963Y-104882803D01*
X122183506Y-104945989D01*
X122345444Y-104978200D01*
X122510556Y-104978200D01*
X122672494Y-104945989D01*
X122825037Y-104882803D01*
X122962322Y-104791073D01*
X123079073Y-104674322D01*
X123170803Y-104537037D01*
X123233989Y-104384494D01*
X123266200Y-104222556D01*
X123266200Y-104057444D01*
X123233989Y-103895506D01*
X123170803Y-103742963D01*
X123079073Y-103605678D01*
X122962322Y-103488927D01*
X122825037Y-103397197D01*
X122672494Y-103334011D01*
X122510556Y-103301800D01*
X122345444Y-103301800D01*
X122183506Y-103334011D01*
X122030963Y-103397197D01*
X121893678Y-103488927D01*
X121776927Y-103605678D01*
X121685197Y-103742963D01*
X121622011Y-103895506D01*
X121589800Y-104057444D01*
X110744000Y-104057444D01*
X110744000Y-103989899D01*
X110685434Y-103695466D01*
X110570551Y-103418115D01*
X110403768Y-103168507D01*
X110191493Y-102956232D01*
X110033378Y-102850583D01*
X110096626Y-102656231D01*
X109220000Y-101779605D01*
X108343374Y-102656231D01*
X108406622Y-102850583D01*
X108248507Y-102956232D01*
X108036232Y-103168507D01*
X107869449Y-103418115D01*
X107754566Y-103695466D01*
X107696000Y-103989899D01*
X107390000Y-103989899D01*
X107390000Y-101666988D01*
X107690092Y-101666988D01*
X107732557Y-101964171D01*
X107832184Y-102247359D01*
X107910711Y-102394273D01*
X108163769Y-102476626D01*
X109040395Y-101600000D01*
X109399605Y-101600000D01*
X110276231Y-102476626D01*
X110529289Y-102394273D01*
X110659086Y-102123582D01*
X110684224Y-102025444D01*
X114731800Y-102025444D01*
X114731800Y-102190556D01*
X114764011Y-102352494D01*
X114827197Y-102505037D01*
X114918927Y-102642322D01*
X115035678Y-102759073D01*
X115172963Y-102850803D01*
X115325506Y-102913989D01*
X115487444Y-102946200D01*
X115652556Y-102946200D01*
X115771449Y-102922551D01*
X115747800Y-103041444D01*
X115747800Y-103206556D01*
X115780011Y-103368494D01*
X115843197Y-103521037D01*
X115934927Y-103658322D01*
X116051678Y-103775073D01*
X116188963Y-103866803D01*
X116341506Y-103929989D01*
X116503444Y-103962200D01*
X116668556Y-103962200D01*
X116830494Y-103929989D01*
X116983037Y-103866803D01*
X117120322Y-103775073D01*
X117237073Y-103658322D01*
X117328803Y-103521037D01*
X117391989Y-103368494D01*
X117424200Y-103206556D01*
X117424200Y-103041444D01*
X117391989Y-102879506D01*
X117328803Y-102726963D01*
X117237073Y-102589678D01*
X117120322Y-102472927D01*
X116983037Y-102381197D01*
X116830494Y-102318011D01*
X116668556Y-102285800D01*
X116503444Y-102285800D01*
X116384551Y-102309449D01*
X116408200Y-102190556D01*
X116408200Y-102025444D01*
X116375989Y-101863506D01*
X116337856Y-101771444D01*
X129463800Y-101771444D01*
X129463800Y-101936556D01*
X129496011Y-102098494D01*
X129559197Y-102251037D01*
X129650927Y-102388322D01*
X129767678Y-102505073D01*
X129904963Y-102596803D01*
X130057506Y-102659989D01*
X130219444Y-102692200D01*
X130384556Y-102692200D01*
X130546494Y-102659989D01*
X130699037Y-102596803D01*
X130836322Y-102505073D01*
X130953073Y-102388322D01*
X131044803Y-102251037D01*
X131072488Y-102184200D01*
X131146556Y-102184200D01*
X131308494Y-102151989D01*
X131461037Y-102088803D01*
X131598322Y-101997073D01*
X131715073Y-101880322D01*
X131806803Y-101743037D01*
X131838303Y-101666988D01*
X135630092Y-101666988D01*
X135672557Y-101964171D01*
X135772184Y-102247359D01*
X135850711Y-102394273D01*
X136103769Y-102476626D01*
X136980395Y-101600000D01*
X137339605Y-101600000D01*
X138216231Y-102476626D01*
X138469289Y-102394273D01*
X138599086Y-102123582D01*
X138673580Y-101832770D01*
X138689908Y-101533012D01*
X138647443Y-101235829D01*
X138547816Y-100952641D01*
X138469289Y-100805727D01*
X138216231Y-100723374D01*
X137339605Y-101600000D01*
X136980395Y-101600000D01*
X136103769Y-100723374D01*
X135850711Y-100805727D01*
X135720914Y-101076418D01*
X135646420Y-101367230D01*
X135630092Y-101666988D01*
X131838303Y-101666988D01*
X131869989Y-101590494D01*
X131902200Y-101428556D01*
X131902200Y-101263444D01*
X131869989Y-101101506D01*
X131806803Y-100948963D01*
X131715073Y-100811678D01*
X131598322Y-100694927D01*
X131461037Y-100603197D01*
X131308494Y-100540011D01*
X131146556Y-100507800D01*
X130981444Y-100507800D01*
X130819506Y-100540011D01*
X130666963Y-100603197D01*
X130529678Y-100694927D01*
X130412927Y-100811678D01*
X130321197Y-100948963D01*
X130293512Y-101015800D01*
X130219444Y-101015800D01*
X130057506Y-101048011D01*
X129904963Y-101111197D01*
X129767678Y-101202927D01*
X129650927Y-101319678D01*
X129559197Y-101456963D01*
X129496011Y-101609506D01*
X129463800Y-101771444D01*
X116337856Y-101771444D01*
X116312803Y-101710963D01*
X116221073Y-101573678D01*
X116104322Y-101456927D01*
X115967037Y-101365197D01*
X115814494Y-101302011D01*
X115652556Y-101269800D01*
X115487444Y-101269800D01*
X115325506Y-101302011D01*
X115172963Y-101365197D01*
X115035678Y-101456927D01*
X114918927Y-101573678D01*
X114827197Y-101710963D01*
X114764011Y-101863506D01*
X114731800Y-102025444D01*
X110684224Y-102025444D01*
X110733580Y-101832770D01*
X110749908Y-101533012D01*
X110707443Y-101235829D01*
X110607816Y-100952641D01*
X110529289Y-100805727D01*
X110276231Y-100723374D01*
X109399605Y-101600000D01*
X109040395Y-101600000D01*
X108163769Y-100723374D01*
X107910711Y-100805727D01*
X107780914Y-101076418D01*
X107706420Y-101367230D01*
X107690092Y-101666988D01*
X107390000Y-101666988D01*
X107390000Y-100116231D01*
X108343374Y-100116231D01*
X108412941Y-100330000D01*
X108343374Y-100543769D01*
X109220000Y-101420395D01*
X110096626Y-100543769D01*
X110027059Y-100330000D01*
X110096626Y-100116231D01*
X136283374Y-100116231D01*
X136352941Y-100330000D01*
X136283374Y-100543769D01*
X137160000Y-101420395D01*
X138036626Y-100543769D01*
X137967059Y-100330000D01*
X138036626Y-100116231D01*
X137160000Y-99239605D01*
X136283374Y-100116231D01*
X110096626Y-100116231D01*
X109220000Y-99239605D01*
X108343374Y-100116231D01*
X107390000Y-100116231D01*
X107390000Y-99126988D01*
X107690092Y-99126988D01*
X107732557Y-99424171D01*
X107832184Y-99707359D01*
X107910711Y-99854273D01*
X108163769Y-99936626D01*
X109040395Y-99060000D01*
X109399605Y-99060000D01*
X110276231Y-99936626D01*
X110529289Y-99854273D01*
X110659086Y-99583582D01*
X110733580Y-99292770D01*
X110742610Y-99126988D01*
X135630092Y-99126988D01*
X135672557Y-99424171D01*
X135772184Y-99707359D01*
X135850711Y-99854273D01*
X136103769Y-99936626D01*
X136980395Y-99060000D01*
X137339605Y-99060000D01*
X138216231Y-99936626D01*
X138469289Y-99854273D01*
X138599086Y-99583582D01*
X138673580Y-99292770D01*
X138689908Y-98993012D01*
X138647443Y-98695829D01*
X138547816Y-98412641D01*
X138469289Y-98265727D01*
X138216231Y-98183374D01*
X137339605Y-99060000D01*
X136980395Y-99060000D01*
X136103769Y-98183374D01*
X135850711Y-98265727D01*
X135720914Y-98536418D01*
X135646420Y-98827230D01*
X135630092Y-99126988D01*
X110742610Y-99126988D01*
X110749908Y-98993012D01*
X110707443Y-98695829D01*
X110607816Y-98412641D01*
X110529289Y-98265727D01*
X110276231Y-98183374D01*
X109399605Y-99060000D01*
X109040395Y-99060000D01*
X108163769Y-98183374D01*
X107910711Y-98265727D01*
X107780914Y-98536418D01*
X107706420Y-98827230D01*
X107690092Y-99126988D01*
X107390000Y-99126988D01*
X107390000Y-96369899D01*
X107696000Y-96369899D01*
X107696000Y-96670101D01*
X107754566Y-96964534D01*
X107869449Y-97241885D01*
X108036232Y-97491493D01*
X108248507Y-97703768D01*
X108406622Y-97809417D01*
X108343374Y-98003769D01*
X109220000Y-98880395D01*
X110096626Y-98003769D01*
X110033378Y-97809417D01*
X110191493Y-97703768D01*
X110403768Y-97491493D01*
X110570551Y-97241885D01*
X110685434Y-96964534D01*
X110739754Y-96691444D01*
X113715800Y-96691444D01*
X113715800Y-96856556D01*
X113748011Y-97018494D01*
X113811197Y-97171037D01*
X113902927Y-97308322D01*
X114019678Y-97425073D01*
X114156963Y-97516803D01*
X114309506Y-97579989D01*
X114471444Y-97612200D01*
X114636556Y-97612200D01*
X114798494Y-97579989D01*
X114951037Y-97516803D01*
X115088322Y-97425073D01*
X115205073Y-97308322D01*
X115277822Y-97199444D01*
X124129800Y-97199444D01*
X124129800Y-97364556D01*
X124162011Y-97526494D01*
X124218554Y-97663000D01*
X124162011Y-97799506D01*
X124129800Y-97961444D01*
X124129800Y-98126556D01*
X124162011Y-98288494D01*
X124225197Y-98441037D01*
X124316927Y-98578322D01*
X124433678Y-98695073D01*
X124570963Y-98786803D01*
X124723506Y-98849989D01*
X124885444Y-98882200D01*
X125050556Y-98882200D01*
X125212494Y-98849989D01*
X125365037Y-98786803D01*
X125502322Y-98695073D01*
X125619073Y-98578322D01*
X125710803Y-98441037D01*
X125773989Y-98288494D01*
X125806200Y-98126556D01*
X125806200Y-97961444D01*
X125773989Y-97799506D01*
X125717446Y-97663000D01*
X125773989Y-97526494D01*
X125806200Y-97364556D01*
X125806200Y-97199444D01*
X125773989Y-97037506D01*
X125710803Y-96884963D01*
X125672440Y-96827547D01*
X125720494Y-96817989D01*
X125873037Y-96754803D01*
X126010322Y-96663073D01*
X126127073Y-96546322D01*
X126218803Y-96409037D01*
X126235014Y-96369899D01*
X135636000Y-96369899D01*
X135636000Y-96670101D01*
X135694566Y-96964534D01*
X135809449Y-97241885D01*
X135976232Y-97491493D01*
X136188507Y-97703768D01*
X136346622Y-97809417D01*
X136283374Y-98003769D01*
X137160000Y-98880395D01*
X138036626Y-98003769D01*
X137973378Y-97809417D01*
X138131493Y-97703768D01*
X138343768Y-97491493D01*
X138510551Y-97241885D01*
X138625434Y-96964534D01*
X138684000Y-96670101D01*
X138684000Y-96369899D01*
X138625434Y-96075466D01*
X138510551Y-95798115D01*
X138343768Y-95548507D01*
X138131493Y-95336232D01*
X137973378Y-95230583D01*
X138036626Y-95036231D01*
X137160000Y-94159605D01*
X136283374Y-95036231D01*
X136346622Y-95230583D01*
X136188507Y-95336232D01*
X135976232Y-95548507D01*
X135809449Y-95798115D01*
X135694566Y-96075466D01*
X135636000Y-96369899D01*
X126235014Y-96369899D01*
X126266321Y-96294321D01*
X126381037Y-96246803D01*
X126518322Y-96155073D01*
X126635073Y-96038322D01*
X126726803Y-95901037D01*
X126789989Y-95748494D01*
X126822200Y-95586556D01*
X126822200Y-95421444D01*
X126789989Y-95259506D01*
X126726803Y-95106963D01*
X126635073Y-94969678D01*
X126518322Y-94852927D01*
X126381037Y-94761197D01*
X126228494Y-94698011D01*
X126066556Y-94665800D01*
X125901444Y-94665800D01*
X125739506Y-94698011D01*
X125586963Y-94761197D01*
X125449678Y-94852927D01*
X125332927Y-94969678D01*
X125241197Y-95106963D01*
X125193679Y-95221679D01*
X125078963Y-95269197D01*
X124941678Y-95360927D01*
X124824927Y-95477678D01*
X124733197Y-95614963D01*
X124670011Y-95767506D01*
X124637800Y-95929444D01*
X124637800Y-96094556D01*
X124670011Y-96256494D01*
X124733197Y-96409037D01*
X124771560Y-96466453D01*
X124723506Y-96476011D01*
X124570963Y-96539197D01*
X124433678Y-96630927D01*
X124316927Y-96747678D01*
X124225197Y-96884963D01*
X124162011Y-97037506D01*
X124129800Y-97199444D01*
X115277822Y-97199444D01*
X115296803Y-97171037D01*
X115359989Y-97018494D01*
X115392200Y-96856556D01*
X115392200Y-96691444D01*
X115359989Y-96529506D01*
X115296803Y-96376963D01*
X115205073Y-96239678D01*
X115088322Y-96122927D01*
X114951037Y-96031197D01*
X114798494Y-95968011D01*
X114636556Y-95935800D01*
X114471444Y-95935800D01*
X114309506Y-95968011D01*
X114156963Y-96031197D01*
X114019678Y-96122927D01*
X113902927Y-96239678D01*
X113811197Y-96376963D01*
X113748011Y-96529506D01*
X113715800Y-96691444D01*
X110739754Y-96691444D01*
X110744000Y-96670101D01*
X110744000Y-96369899D01*
X110685434Y-96075466D01*
X110570551Y-95798115D01*
X110403768Y-95548507D01*
X110191493Y-95336232D01*
X110033378Y-95230583D01*
X110096626Y-95036231D01*
X109220000Y-94159605D01*
X108343374Y-95036231D01*
X108406622Y-95230583D01*
X108248507Y-95336232D01*
X108036232Y-95548507D01*
X107869449Y-95798115D01*
X107754566Y-96075466D01*
X107696000Y-96369899D01*
X107390000Y-96369899D01*
X107390000Y-94046988D01*
X107690092Y-94046988D01*
X107732557Y-94344171D01*
X107832184Y-94627359D01*
X107910711Y-94774273D01*
X108163769Y-94856626D01*
X109040395Y-93980000D01*
X109399605Y-93980000D01*
X110276231Y-94856626D01*
X110529289Y-94774273D01*
X110659086Y-94503582D01*
X110733580Y-94212770D01*
X110749908Y-93913012D01*
X110747684Y-93897444D01*
X128955800Y-93897444D01*
X128955800Y-94062556D01*
X128988011Y-94224494D01*
X129051197Y-94377037D01*
X129142927Y-94514322D01*
X129259678Y-94631073D01*
X129396963Y-94722803D01*
X129549506Y-94785989D01*
X129711444Y-94818200D01*
X129876556Y-94818200D01*
X130038494Y-94785989D01*
X130191037Y-94722803D01*
X130328322Y-94631073D01*
X130445073Y-94514322D01*
X130536803Y-94377037D01*
X130599989Y-94224494D01*
X130632200Y-94062556D01*
X130632200Y-94046988D01*
X135630092Y-94046988D01*
X135672557Y-94344171D01*
X135772184Y-94627359D01*
X135850711Y-94774273D01*
X136103769Y-94856626D01*
X136980395Y-93980000D01*
X137339605Y-93980000D01*
X138216231Y-94856626D01*
X138469289Y-94774273D01*
X138599086Y-94503582D01*
X138673580Y-94212770D01*
X138689908Y-93913012D01*
X138647443Y-93615829D01*
X138547816Y-93332641D01*
X138469289Y-93185727D01*
X138216231Y-93103374D01*
X137339605Y-93980000D01*
X136980395Y-93980000D01*
X136103769Y-93103374D01*
X135850711Y-93185727D01*
X135720914Y-93456418D01*
X135646420Y-93747230D01*
X135630092Y-94046988D01*
X130632200Y-94046988D01*
X130632200Y-93897444D01*
X130599989Y-93735506D01*
X130536803Y-93582963D01*
X130445073Y-93445678D01*
X130328322Y-93328927D01*
X130191037Y-93237197D01*
X130038494Y-93174011D01*
X129876556Y-93141800D01*
X129711444Y-93141800D01*
X129549506Y-93174011D01*
X129396963Y-93237197D01*
X129259678Y-93328927D01*
X129142927Y-93445678D01*
X129051197Y-93582963D01*
X128988011Y-93735506D01*
X128955800Y-93897444D01*
X110747684Y-93897444D01*
X110707443Y-93615829D01*
X110607816Y-93332641D01*
X110529289Y-93185727D01*
X110276231Y-93103374D01*
X109399605Y-93980000D01*
X109040395Y-93980000D01*
X108163769Y-93103374D01*
X107910711Y-93185727D01*
X107780914Y-93456418D01*
X107706420Y-93747230D01*
X107690092Y-94046988D01*
X107390000Y-94046988D01*
X107390000Y-91289899D01*
X107696000Y-91289899D01*
X107696000Y-91590101D01*
X107754566Y-91884534D01*
X107869449Y-92161885D01*
X108036232Y-92411493D01*
X108248507Y-92623768D01*
X108406622Y-92729417D01*
X108343374Y-92923769D01*
X109220000Y-93800395D01*
X110096626Y-92923769D01*
X110033378Y-92729417D01*
X110191493Y-92623768D01*
X110403768Y-92411493D01*
X110570551Y-92161885D01*
X110640736Y-91992444D01*
X121081800Y-91992444D01*
X121081800Y-92157556D01*
X121114011Y-92319494D01*
X121177197Y-92472037D01*
X121268927Y-92609322D01*
X121385678Y-92726073D01*
X121522963Y-92817803D01*
X121675506Y-92880989D01*
X121837444Y-92913200D01*
X122002556Y-92913200D01*
X122164494Y-92880989D01*
X122317037Y-92817803D01*
X122454322Y-92726073D01*
X122571073Y-92609322D01*
X122662803Y-92472037D01*
X122725989Y-92319494D01*
X122758200Y-92157556D01*
X122758200Y-91992444D01*
X122725989Y-91830506D01*
X122662803Y-91677963D01*
X122571073Y-91540678D01*
X122454322Y-91423927D01*
X122317037Y-91332197D01*
X122214922Y-91289899D01*
X135636000Y-91289899D01*
X135636000Y-91590101D01*
X135694566Y-91884534D01*
X135809449Y-92161885D01*
X135976232Y-92411493D01*
X136188507Y-92623768D01*
X136346622Y-92729417D01*
X136283374Y-92923769D01*
X137160000Y-93800395D01*
X138036626Y-92923769D01*
X137973378Y-92729417D01*
X138131493Y-92623768D01*
X138343768Y-92411493D01*
X138510551Y-92161885D01*
X138625434Y-91884534D01*
X138684000Y-91590101D01*
X138684000Y-91289899D01*
X138625434Y-90995466D01*
X138510551Y-90718115D01*
X138343768Y-90468507D01*
X138131493Y-90256232D01*
X137973378Y-90150583D01*
X138036626Y-89956231D01*
X137160000Y-89079605D01*
X136283374Y-89956231D01*
X136346622Y-90150583D01*
X136188507Y-90256232D01*
X135976232Y-90468507D01*
X135809449Y-90718115D01*
X135694566Y-90995466D01*
X135636000Y-91289899D01*
X122214922Y-91289899D01*
X122164494Y-91269011D01*
X122002556Y-91236800D01*
X121837444Y-91236800D01*
X121675506Y-91269011D01*
X121522963Y-91332197D01*
X121385678Y-91423927D01*
X121268927Y-91540678D01*
X121177197Y-91677963D01*
X121114011Y-91830506D01*
X121081800Y-91992444D01*
X110640736Y-91992444D01*
X110685434Y-91884534D01*
X110744000Y-91590101D01*
X110744000Y-91289899D01*
X110685434Y-90995466D01*
X110570551Y-90718115D01*
X110403768Y-90468507D01*
X110191493Y-90256232D01*
X110033378Y-90150583D01*
X110053925Y-90087444D01*
X115747800Y-90087444D01*
X115747800Y-90252556D01*
X115780011Y-90414494D01*
X115843197Y-90567037D01*
X115934927Y-90704322D01*
X116051678Y-90821073D01*
X116188963Y-90912803D01*
X116341506Y-90975989D01*
X116503444Y-91008200D01*
X116668556Y-91008200D01*
X116830494Y-90975989D01*
X116983037Y-90912803D01*
X117120322Y-90821073D01*
X117237073Y-90704322D01*
X117328803Y-90567037D01*
X117391989Y-90414494D01*
X117424200Y-90252556D01*
X117424200Y-90087444D01*
X117391989Y-89925506D01*
X117353856Y-89833444D01*
X128955800Y-89833444D01*
X128955800Y-89998556D01*
X128988011Y-90160494D01*
X129051197Y-90313037D01*
X129142927Y-90450322D01*
X129259678Y-90567073D01*
X129396963Y-90658803D01*
X129549506Y-90721989D01*
X129711444Y-90754200D01*
X129876556Y-90754200D01*
X130038494Y-90721989D01*
X130191037Y-90658803D01*
X130328322Y-90567073D01*
X130445073Y-90450322D01*
X130536803Y-90313037D01*
X130599989Y-90160494D01*
X130632200Y-89998556D01*
X130632200Y-89833444D01*
X130599989Y-89671506D01*
X130536803Y-89518963D01*
X130445073Y-89381678D01*
X130328322Y-89264927D01*
X130191037Y-89173197D01*
X130038494Y-89110011D01*
X129876556Y-89077800D01*
X129711444Y-89077800D01*
X129549506Y-89110011D01*
X129396963Y-89173197D01*
X129259678Y-89264927D01*
X129142927Y-89381678D01*
X129051197Y-89518963D01*
X128988011Y-89671506D01*
X128955800Y-89833444D01*
X117353856Y-89833444D01*
X117328803Y-89772963D01*
X117237073Y-89635678D01*
X117120322Y-89518927D01*
X116983037Y-89427197D01*
X116830494Y-89364011D01*
X116668556Y-89331800D01*
X116503444Y-89331800D01*
X116341506Y-89364011D01*
X116188963Y-89427197D01*
X116051678Y-89518927D01*
X115934927Y-89635678D01*
X115843197Y-89772963D01*
X115780011Y-89925506D01*
X115747800Y-90087444D01*
X110053925Y-90087444D01*
X110096626Y-89956231D01*
X109220000Y-89079605D01*
X108343374Y-89956231D01*
X108406622Y-90150583D01*
X108248507Y-90256232D01*
X108036232Y-90468507D01*
X107869449Y-90718115D01*
X107754566Y-90995466D01*
X107696000Y-91289899D01*
X107390000Y-91289899D01*
X107390000Y-88966988D01*
X107690092Y-88966988D01*
X107732557Y-89264171D01*
X107832184Y-89547359D01*
X107910711Y-89694273D01*
X108163769Y-89776626D01*
X109040395Y-88900000D01*
X109399605Y-88900000D01*
X110276231Y-89776626D01*
X110529289Y-89694273D01*
X110659086Y-89423582D01*
X110733580Y-89132770D01*
X110749908Y-88833012D01*
X110747684Y-88817444D01*
X120764300Y-88817444D01*
X120764300Y-88982556D01*
X120796511Y-89144494D01*
X120859697Y-89297037D01*
X120951427Y-89434322D01*
X121068178Y-89551073D01*
X121205463Y-89642803D01*
X121358006Y-89705989D01*
X121519944Y-89738200D01*
X121685056Y-89738200D01*
X121846994Y-89705989D01*
X121999537Y-89642803D01*
X122136822Y-89551073D01*
X122253573Y-89434322D01*
X122345303Y-89297037D01*
X122408489Y-89144494D01*
X122440700Y-88982556D01*
X122440700Y-88966988D01*
X135630092Y-88966988D01*
X135672557Y-89264171D01*
X135772184Y-89547359D01*
X135850711Y-89694273D01*
X136103769Y-89776626D01*
X136980395Y-88900000D01*
X137339605Y-88900000D01*
X138216231Y-89776626D01*
X138469289Y-89694273D01*
X138599086Y-89423582D01*
X138673580Y-89132770D01*
X138689908Y-88833012D01*
X138647443Y-88535829D01*
X138547816Y-88252641D01*
X138469289Y-88105727D01*
X138216231Y-88023374D01*
X137339605Y-88900000D01*
X136980395Y-88900000D01*
X136103769Y-88023374D01*
X135850711Y-88105727D01*
X135720914Y-88376418D01*
X135646420Y-88667230D01*
X135630092Y-88966988D01*
X122440700Y-88966988D01*
X122440700Y-88817444D01*
X122408489Y-88655506D01*
X122345303Y-88502963D01*
X122253573Y-88365678D01*
X122136822Y-88248927D01*
X121999537Y-88157197D01*
X121846994Y-88094011D01*
X121685056Y-88061800D01*
X121519944Y-88061800D01*
X121358006Y-88094011D01*
X121205463Y-88157197D01*
X121068178Y-88248927D01*
X120951427Y-88365678D01*
X120859697Y-88502963D01*
X120796511Y-88655506D01*
X120764300Y-88817444D01*
X110747684Y-88817444D01*
X110707443Y-88535829D01*
X110607816Y-88252641D01*
X110529289Y-88105727D01*
X110276231Y-88023374D01*
X109399605Y-88900000D01*
X109040395Y-88900000D01*
X108163769Y-88023374D01*
X107910711Y-88105727D01*
X107780914Y-88376418D01*
X107706420Y-88667230D01*
X107690092Y-88966988D01*
X107390000Y-88966988D01*
X107390000Y-86209899D01*
X107696000Y-86209899D01*
X107696000Y-86510101D01*
X107754566Y-86804534D01*
X107869449Y-87081885D01*
X108036232Y-87331493D01*
X108248507Y-87543768D01*
X108406622Y-87649417D01*
X108343374Y-87843769D01*
X109220000Y-88720395D01*
X110096626Y-87843769D01*
X110033378Y-87649417D01*
X110191493Y-87543768D01*
X110403768Y-87331493D01*
X110570551Y-87081885D01*
X110685434Y-86804534D01*
X110744000Y-86510101D01*
X110744000Y-86209899D01*
X135636000Y-86209899D01*
X135636000Y-86510101D01*
X135694566Y-86804534D01*
X135809449Y-87081885D01*
X135976232Y-87331493D01*
X136188507Y-87543768D01*
X136346622Y-87649417D01*
X136283374Y-87843769D01*
X137160000Y-88720395D01*
X138036626Y-87843769D01*
X137973378Y-87649417D01*
X138131493Y-87543768D01*
X138343768Y-87331493D01*
X138510551Y-87081885D01*
X138625434Y-86804534D01*
X138684000Y-86510101D01*
X138684000Y-86209899D01*
X138625434Y-85915466D01*
X138510551Y-85638115D01*
X138343768Y-85388507D01*
X138131493Y-85176232D01*
X137973378Y-85070583D01*
X138036626Y-84876231D01*
X137160000Y-83999605D01*
X136283374Y-84876231D01*
X136346622Y-85070583D01*
X136188507Y-85176232D01*
X135976232Y-85388507D01*
X135809449Y-85638115D01*
X135694566Y-85915466D01*
X135636000Y-86209899D01*
X110744000Y-86209899D01*
X110685434Y-85915466D01*
X110570551Y-85638115D01*
X110403768Y-85388507D01*
X110191493Y-85176232D01*
X110033378Y-85070583D01*
X110096626Y-84876231D01*
X109220000Y-83999605D01*
X108343374Y-84876231D01*
X108406622Y-85070583D01*
X108248507Y-85176232D01*
X108036232Y-85388507D01*
X107869449Y-85638115D01*
X107754566Y-85915466D01*
X107696000Y-86209899D01*
X107390000Y-86209899D01*
X107390000Y-83886988D01*
X107690092Y-83886988D01*
X107732557Y-84184171D01*
X107832184Y-84467359D01*
X107910711Y-84614273D01*
X108163769Y-84696626D01*
X109040395Y-83820000D01*
X109399605Y-83820000D01*
X110276231Y-84696626D01*
X110529289Y-84614273D01*
X110659086Y-84343582D01*
X110733580Y-84052770D01*
X110749908Y-83753012D01*
X110747684Y-83737444D01*
X115747800Y-83737444D01*
X115747800Y-83902556D01*
X115780011Y-84064494D01*
X115843197Y-84217037D01*
X115934927Y-84354322D01*
X116051678Y-84471073D01*
X116188963Y-84562803D01*
X116341506Y-84625989D01*
X116503444Y-84658200D01*
X116668556Y-84658200D01*
X116830494Y-84625989D01*
X116983037Y-84562803D01*
X117120322Y-84471073D01*
X117237073Y-84354322D01*
X117328803Y-84217037D01*
X117391989Y-84064494D01*
X117424200Y-83902556D01*
X117424200Y-83737444D01*
X128955800Y-83737444D01*
X128955800Y-83902556D01*
X128988011Y-84064494D01*
X129051197Y-84217037D01*
X129142927Y-84354322D01*
X129259678Y-84471073D01*
X129396963Y-84562803D01*
X129549506Y-84625989D01*
X129711444Y-84658200D01*
X129876556Y-84658200D01*
X130038494Y-84625989D01*
X130191037Y-84562803D01*
X130328322Y-84471073D01*
X130445073Y-84354322D01*
X130536803Y-84217037D01*
X130599989Y-84064494D01*
X130632200Y-83902556D01*
X130632200Y-83886988D01*
X135630092Y-83886988D01*
X135672557Y-84184171D01*
X135772184Y-84467359D01*
X135850711Y-84614273D01*
X136103769Y-84696626D01*
X136980395Y-83820000D01*
X137339605Y-83820000D01*
X138216231Y-84696626D01*
X138469289Y-84614273D01*
X138599086Y-84343582D01*
X138673580Y-84052770D01*
X138689908Y-83753012D01*
X138647443Y-83455829D01*
X138547816Y-83172641D01*
X138469289Y-83025727D01*
X138216231Y-82943374D01*
X137339605Y-83820000D01*
X136980395Y-83820000D01*
X136103769Y-82943374D01*
X135850711Y-83025727D01*
X135720914Y-83296418D01*
X135646420Y-83587230D01*
X135630092Y-83886988D01*
X130632200Y-83886988D01*
X130632200Y-83737444D01*
X130599989Y-83575506D01*
X130536803Y-83422963D01*
X130445073Y-83285678D01*
X130328322Y-83168927D01*
X130191037Y-83077197D01*
X130038494Y-83014011D01*
X129876556Y-82981800D01*
X129711444Y-82981800D01*
X129549506Y-83014011D01*
X129396963Y-83077197D01*
X129259678Y-83168927D01*
X129142927Y-83285678D01*
X129051197Y-83422963D01*
X128988011Y-83575506D01*
X128955800Y-83737444D01*
X117424200Y-83737444D01*
X117391989Y-83575506D01*
X117328803Y-83422963D01*
X117237073Y-83285678D01*
X117120322Y-83168927D01*
X116983037Y-83077197D01*
X116830494Y-83014011D01*
X116668556Y-82981800D01*
X116503444Y-82981800D01*
X116341506Y-83014011D01*
X116188963Y-83077197D01*
X116051678Y-83168927D01*
X115934927Y-83285678D01*
X115843197Y-83422963D01*
X115780011Y-83575506D01*
X115747800Y-83737444D01*
X110747684Y-83737444D01*
X110707443Y-83455829D01*
X110607816Y-83172641D01*
X110529289Y-83025727D01*
X110276231Y-82943374D01*
X109399605Y-83820000D01*
X109040395Y-83820000D01*
X108163769Y-82943374D01*
X107910711Y-83025727D01*
X107780914Y-83296418D01*
X107706420Y-83587230D01*
X107690092Y-83886988D01*
X107390000Y-83886988D01*
X107390000Y-81129899D01*
X107696000Y-81129899D01*
X107696000Y-81430101D01*
X107754566Y-81724534D01*
X107869449Y-82001885D01*
X108036232Y-82251493D01*
X108248507Y-82463768D01*
X108406622Y-82569417D01*
X108343374Y-82763769D01*
X109220000Y-83640395D01*
X110096626Y-82763769D01*
X110033378Y-82569417D01*
X110191493Y-82463768D01*
X110403768Y-82251493D01*
X110570551Y-82001885D01*
X110640736Y-81832444D01*
X121081800Y-81832444D01*
X121081800Y-81997556D01*
X121114011Y-82159494D01*
X121177197Y-82312037D01*
X121268927Y-82449322D01*
X121385678Y-82566073D01*
X121522963Y-82657803D01*
X121675506Y-82720989D01*
X121837444Y-82753200D01*
X122002556Y-82753200D01*
X122164494Y-82720989D01*
X122317037Y-82657803D01*
X122454322Y-82566073D01*
X122571073Y-82449322D01*
X122662803Y-82312037D01*
X122725989Y-82159494D01*
X122758200Y-81997556D01*
X122758200Y-81832444D01*
X122725989Y-81670506D01*
X122662803Y-81517963D01*
X122571073Y-81380678D01*
X122454322Y-81263927D01*
X122317037Y-81172197D01*
X122214922Y-81129899D01*
X135636000Y-81129899D01*
X135636000Y-81430101D01*
X135694566Y-81724534D01*
X135809449Y-82001885D01*
X135976232Y-82251493D01*
X136188507Y-82463768D01*
X136346622Y-82569417D01*
X136283374Y-82763769D01*
X137160000Y-83640395D01*
X138036626Y-82763769D01*
X137973378Y-82569417D01*
X138131493Y-82463768D01*
X138343768Y-82251493D01*
X138510551Y-82001885D01*
X138625434Y-81724534D01*
X138684000Y-81430101D01*
X138684000Y-81129899D01*
X138625434Y-80835466D01*
X138510551Y-80558115D01*
X138343768Y-80308507D01*
X138131493Y-80096232D01*
X137973378Y-79990583D01*
X138036626Y-79796231D01*
X137160000Y-78919605D01*
X136283374Y-79796231D01*
X136346622Y-79990583D01*
X136188507Y-80096232D01*
X135976232Y-80308507D01*
X135809449Y-80558115D01*
X135694566Y-80835466D01*
X135636000Y-81129899D01*
X122214922Y-81129899D01*
X122164494Y-81109011D01*
X122002556Y-81076800D01*
X121837444Y-81076800D01*
X121675506Y-81109011D01*
X121522963Y-81172197D01*
X121385678Y-81263927D01*
X121268927Y-81380678D01*
X121177197Y-81517963D01*
X121114011Y-81670506D01*
X121081800Y-81832444D01*
X110640736Y-81832444D01*
X110685434Y-81724534D01*
X110744000Y-81430101D01*
X110744000Y-81129899D01*
X110685434Y-80835466D01*
X110570551Y-80558115D01*
X110403768Y-80308507D01*
X110191493Y-80096232D01*
X110033378Y-79990583D01*
X110053925Y-79927444D01*
X115747800Y-79927444D01*
X115747800Y-80092556D01*
X115780011Y-80254494D01*
X115843197Y-80407037D01*
X115934927Y-80544322D01*
X116051678Y-80661073D01*
X116188963Y-80752803D01*
X116341506Y-80815989D01*
X116503444Y-80848200D01*
X116668556Y-80848200D01*
X116830494Y-80815989D01*
X116983037Y-80752803D01*
X117120322Y-80661073D01*
X117237073Y-80544322D01*
X117328803Y-80407037D01*
X117391989Y-80254494D01*
X117424200Y-80092556D01*
X117424200Y-79927444D01*
X128955800Y-79927444D01*
X128955800Y-80092556D01*
X128988011Y-80254494D01*
X129051197Y-80407037D01*
X129142927Y-80544322D01*
X129259678Y-80661073D01*
X129396963Y-80752803D01*
X129549506Y-80815989D01*
X129711444Y-80848200D01*
X129876556Y-80848200D01*
X130038494Y-80815989D01*
X130191037Y-80752803D01*
X130328322Y-80661073D01*
X130445073Y-80544322D01*
X130536803Y-80407037D01*
X130599989Y-80254494D01*
X130632200Y-80092556D01*
X130632200Y-79927444D01*
X130599989Y-79765506D01*
X130536803Y-79612963D01*
X130445073Y-79475678D01*
X130328322Y-79358927D01*
X130191037Y-79267197D01*
X130038494Y-79204011D01*
X129876556Y-79171800D01*
X129711444Y-79171800D01*
X129549506Y-79204011D01*
X129396963Y-79267197D01*
X129259678Y-79358927D01*
X129142927Y-79475678D01*
X129051197Y-79612963D01*
X128988011Y-79765506D01*
X128955800Y-79927444D01*
X117424200Y-79927444D01*
X117391989Y-79765506D01*
X117328803Y-79612963D01*
X117237073Y-79475678D01*
X117120322Y-79358927D01*
X116983037Y-79267197D01*
X116830494Y-79204011D01*
X116668556Y-79171800D01*
X116503444Y-79171800D01*
X116341506Y-79204011D01*
X116188963Y-79267197D01*
X116051678Y-79358927D01*
X115934927Y-79475678D01*
X115843197Y-79612963D01*
X115780011Y-79765506D01*
X115747800Y-79927444D01*
X110053925Y-79927444D01*
X110096626Y-79796231D01*
X109220000Y-78919605D01*
X108343374Y-79796231D01*
X108406622Y-79990583D01*
X108248507Y-80096232D01*
X108036232Y-80308507D01*
X107869449Y-80558115D01*
X107754566Y-80835466D01*
X107696000Y-81129899D01*
X107390000Y-81129899D01*
X107390000Y-78806988D01*
X107690092Y-78806988D01*
X107732557Y-79104171D01*
X107832184Y-79387359D01*
X107910711Y-79534273D01*
X108163769Y-79616626D01*
X109040395Y-78740000D01*
X109399605Y-78740000D01*
X110276231Y-79616626D01*
X110529289Y-79534273D01*
X110659086Y-79263582D01*
X110733580Y-78972770D01*
X110749908Y-78673012D01*
X110747684Y-78657444D01*
X120764300Y-78657444D01*
X120764300Y-78822556D01*
X120796511Y-78984494D01*
X120859697Y-79137037D01*
X120951427Y-79274322D01*
X121068178Y-79391073D01*
X121205463Y-79482803D01*
X121358006Y-79545989D01*
X121519944Y-79578200D01*
X121685056Y-79578200D01*
X121846994Y-79545989D01*
X121999537Y-79482803D01*
X122136822Y-79391073D01*
X122253573Y-79274322D01*
X122345303Y-79137037D01*
X122408489Y-78984494D01*
X122440700Y-78822556D01*
X122440700Y-78806988D01*
X135630092Y-78806988D01*
X135672557Y-79104171D01*
X135772184Y-79387359D01*
X135850711Y-79534273D01*
X136103769Y-79616626D01*
X136980395Y-78740000D01*
X137339605Y-78740000D01*
X138216231Y-79616626D01*
X138469289Y-79534273D01*
X138599086Y-79263582D01*
X138673580Y-78972770D01*
X138689908Y-78673012D01*
X138647443Y-78375829D01*
X138547816Y-78092641D01*
X138469289Y-77945727D01*
X138216231Y-77863374D01*
X137339605Y-78740000D01*
X136980395Y-78740000D01*
X136103769Y-77863374D01*
X135850711Y-77945727D01*
X135720914Y-78216418D01*
X135646420Y-78507230D01*
X135630092Y-78806988D01*
X122440700Y-78806988D01*
X122440700Y-78657444D01*
X122408489Y-78495506D01*
X122345303Y-78342963D01*
X122253573Y-78205678D01*
X122136822Y-78088927D01*
X121999537Y-77997197D01*
X121846994Y-77934011D01*
X121685056Y-77901800D01*
X121519944Y-77901800D01*
X121358006Y-77934011D01*
X121205463Y-77997197D01*
X121068178Y-78088927D01*
X120951427Y-78205678D01*
X120859697Y-78342963D01*
X120796511Y-78495506D01*
X120764300Y-78657444D01*
X110747684Y-78657444D01*
X110707443Y-78375829D01*
X110607816Y-78092641D01*
X110529289Y-77945727D01*
X110276231Y-77863374D01*
X109399605Y-78740000D01*
X109040395Y-78740000D01*
X108163769Y-77863374D01*
X107910711Y-77945727D01*
X107780914Y-78216418D01*
X107706420Y-78507230D01*
X107690092Y-78806988D01*
X107390000Y-78806988D01*
X107390000Y-77256231D01*
X108343374Y-77256231D01*
X108412941Y-77470000D01*
X108343374Y-77683769D01*
X109220000Y-78560395D01*
X110096626Y-77683769D01*
X110027059Y-77470000D01*
X110096626Y-77256231D01*
X136283374Y-77256231D01*
X136352941Y-77470000D01*
X136283374Y-77683769D01*
X137160000Y-78560395D01*
X138036626Y-77683769D01*
X137967059Y-77470000D01*
X138036626Y-77256231D01*
X137160000Y-76379605D01*
X136283374Y-77256231D01*
X110096626Y-77256231D01*
X109220000Y-76379605D01*
X108343374Y-77256231D01*
X107390000Y-77256231D01*
X107390000Y-76266988D01*
X107690092Y-76266988D01*
X107732557Y-76564171D01*
X107832184Y-76847359D01*
X107910711Y-76994273D01*
X108163769Y-77076626D01*
X109040395Y-76200000D01*
X109399605Y-76200000D01*
X110276231Y-77076626D01*
X110529289Y-76994273D01*
X110659086Y-76723582D01*
X110733580Y-76432770D01*
X110742610Y-76266988D01*
X135630092Y-76266988D01*
X135672557Y-76564171D01*
X135772184Y-76847359D01*
X135850711Y-76994273D01*
X136103769Y-77076626D01*
X136980395Y-76200000D01*
X137339605Y-76200000D01*
X138216231Y-77076626D01*
X138469289Y-76994273D01*
X138599086Y-76723582D01*
X138673580Y-76432770D01*
X138689908Y-76133012D01*
X138647443Y-75835829D01*
X138547816Y-75552641D01*
X138469289Y-75405727D01*
X138216231Y-75323374D01*
X137339605Y-76200000D01*
X136980395Y-76200000D01*
X136103769Y-75323374D01*
X135850711Y-75405727D01*
X135720914Y-75676418D01*
X135646420Y-75967230D01*
X135630092Y-76266988D01*
X110742610Y-76266988D01*
X110749908Y-76133012D01*
X110707443Y-75835829D01*
X110607816Y-75552641D01*
X110529289Y-75405727D01*
X110276231Y-75323374D01*
X109399605Y-76200000D01*
X109040395Y-76200000D01*
X108163769Y-75323374D01*
X107910711Y-75405727D01*
X107780914Y-75676418D01*
X107706420Y-75967230D01*
X107690092Y-76266988D01*
X107390000Y-76266988D01*
X107390000Y-73509899D01*
X107696000Y-73509899D01*
X107696000Y-73810101D01*
X107754566Y-74104534D01*
X107869449Y-74381885D01*
X108036232Y-74631493D01*
X108248507Y-74843768D01*
X108406622Y-74949417D01*
X108343374Y-75143769D01*
X109220000Y-76020395D01*
X110096626Y-75143769D01*
X110033378Y-74949417D01*
X110191493Y-74843768D01*
X110403768Y-74631493D01*
X110570551Y-74381885D01*
X110685434Y-74104534D01*
X110744000Y-73810101D01*
X110744000Y-73509899D01*
X135636000Y-73509899D01*
X135636000Y-73810101D01*
X135694566Y-74104534D01*
X135809449Y-74381885D01*
X135976232Y-74631493D01*
X136188507Y-74843768D01*
X136346622Y-74949417D01*
X136283374Y-75143769D01*
X137160000Y-76020395D01*
X138036626Y-75143769D01*
X137973378Y-74949417D01*
X138131493Y-74843768D01*
X138343768Y-74631493D01*
X138510551Y-74381885D01*
X138625434Y-74104534D01*
X138684000Y-73810101D01*
X138684000Y-73509899D01*
X138625434Y-73215466D01*
X138510551Y-72938115D01*
X138343768Y-72688507D01*
X138131493Y-72476232D01*
X137973378Y-72370583D01*
X138036626Y-72176231D01*
X137160000Y-71299605D01*
X136283374Y-72176231D01*
X136346622Y-72370583D01*
X136188507Y-72476232D01*
X135976232Y-72688507D01*
X135809449Y-72938115D01*
X135694566Y-73215466D01*
X135636000Y-73509899D01*
X110744000Y-73509899D01*
X110685434Y-73215466D01*
X110570551Y-72938115D01*
X110403768Y-72688507D01*
X110191493Y-72476232D01*
X110033378Y-72370583D01*
X110096626Y-72176231D01*
X109220000Y-71299605D01*
X108343374Y-72176231D01*
X108406622Y-72370583D01*
X108248507Y-72476232D01*
X108036232Y-72688507D01*
X107869449Y-72938115D01*
X107754566Y-73215466D01*
X107696000Y-73509899D01*
X107390000Y-73509899D01*
X107390000Y-71186988D01*
X107690092Y-71186988D01*
X107732557Y-71484171D01*
X107832184Y-71767359D01*
X107910711Y-71914273D01*
X108163769Y-71996626D01*
X109040395Y-71120000D01*
X109399605Y-71120000D01*
X110276231Y-71996626D01*
X110529289Y-71914273D01*
X110659086Y-71643582D01*
X110733580Y-71352770D01*
X110749908Y-71053012D01*
X110747684Y-71037444D01*
X115747800Y-71037444D01*
X115747800Y-71202556D01*
X115780011Y-71364494D01*
X115843197Y-71517037D01*
X115934927Y-71654322D01*
X116051678Y-71771073D01*
X116188963Y-71862803D01*
X116341506Y-71925989D01*
X116503444Y-71958200D01*
X116668556Y-71958200D01*
X116830494Y-71925989D01*
X116983037Y-71862803D01*
X117120322Y-71771073D01*
X117237073Y-71654322D01*
X117328803Y-71517037D01*
X117391989Y-71364494D01*
X117424200Y-71202556D01*
X117424200Y-71037444D01*
X128955800Y-71037444D01*
X128955800Y-71202556D01*
X128988011Y-71364494D01*
X129051197Y-71517037D01*
X129142927Y-71654322D01*
X129259678Y-71771073D01*
X129396963Y-71862803D01*
X129549506Y-71925989D01*
X129711444Y-71958200D01*
X129876556Y-71958200D01*
X130038494Y-71925989D01*
X130191037Y-71862803D01*
X130328322Y-71771073D01*
X130445073Y-71654322D01*
X130536803Y-71517037D01*
X130599989Y-71364494D01*
X130632200Y-71202556D01*
X130632200Y-71186988D01*
X135630092Y-71186988D01*
X135672557Y-71484171D01*
X135772184Y-71767359D01*
X135850711Y-71914273D01*
X136103769Y-71996626D01*
X136980395Y-71120000D01*
X137339605Y-71120000D01*
X138216231Y-71996626D01*
X138469289Y-71914273D01*
X138599086Y-71643582D01*
X138673580Y-71352770D01*
X138689908Y-71053012D01*
X138647443Y-70755829D01*
X138547816Y-70472641D01*
X138469289Y-70325727D01*
X138216231Y-70243374D01*
X137339605Y-71120000D01*
X136980395Y-71120000D01*
X136103769Y-70243374D01*
X135850711Y-70325727D01*
X135720914Y-70596418D01*
X135646420Y-70887230D01*
X135630092Y-71186988D01*
X130632200Y-71186988D01*
X130632200Y-71037444D01*
X130599989Y-70875506D01*
X130536803Y-70722963D01*
X130445073Y-70585678D01*
X130328322Y-70468927D01*
X130191037Y-70377197D01*
X130038494Y-70314011D01*
X129876556Y-70281800D01*
X129711444Y-70281800D01*
X129549506Y-70314011D01*
X129396963Y-70377197D01*
X129259678Y-70468927D01*
X129142927Y-70585678D01*
X129051197Y-70722963D01*
X128988011Y-70875506D01*
X128955800Y-71037444D01*
X117424200Y-71037444D01*
X117391989Y-70875506D01*
X117328803Y-70722963D01*
X117237073Y-70585678D01*
X117120322Y-70468927D01*
X116983037Y-70377197D01*
X116830494Y-70314011D01*
X116668556Y-70281800D01*
X116503444Y-70281800D01*
X116341506Y-70314011D01*
X116188963Y-70377197D01*
X116051678Y-70468927D01*
X115934927Y-70585678D01*
X115843197Y-70722963D01*
X115780011Y-70875506D01*
X115747800Y-71037444D01*
X110747684Y-71037444D01*
X110707443Y-70755829D01*
X110607816Y-70472641D01*
X110529289Y-70325727D01*
X110276231Y-70243374D01*
X109399605Y-71120000D01*
X109040395Y-71120000D01*
X108163769Y-70243374D01*
X107910711Y-70325727D01*
X107780914Y-70596418D01*
X107706420Y-70887230D01*
X107690092Y-71186988D01*
X107390000Y-71186988D01*
X107390000Y-68429899D01*
X107696000Y-68429899D01*
X107696000Y-68730101D01*
X107754566Y-69024534D01*
X107869449Y-69301885D01*
X108036232Y-69551493D01*
X108248507Y-69763768D01*
X108406622Y-69869417D01*
X108343374Y-70063769D01*
X109220000Y-70940395D01*
X110096626Y-70063769D01*
X110033378Y-69869417D01*
X110191493Y-69763768D01*
X110403768Y-69551493D01*
X110570551Y-69301885D01*
X110640736Y-69132444D01*
X121081800Y-69132444D01*
X121081800Y-69297556D01*
X121114011Y-69459494D01*
X121177197Y-69612037D01*
X121268927Y-69749322D01*
X121385678Y-69866073D01*
X121522963Y-69957803D01*
X121675506Y-70020989D01*
X121837444Y-70053200D01*
X122002556Y-70053200D01*
X122164494Y-70020989D01*
X122317037Y-69957803D01*
X122454322Y-69866073D01*
X122571073Y-69749322D01*
X122662803Y-69612037D01*
X122725989Y-69459494D01*
X122758200Y-69297556D01*
X122758200Y-69132444D01*
X122725989Y-68970506D01*
X122662803Y-68817963D01*
X122571073Y-68680678D01*
X122454322Y-68563927D01*
X122317037Y-68472197D01*
X122214922Y-68429899D01*
X135636000Y-68429899D01*
X135636000Y-68730101D01*
X135694566Y-69024534D01*
X135809449Y-69301885D01*
X135976232Y-69551493D01*
X136188507Y-69763768D01*
X136346622Y-69869417D01*
X136283374Y-70063769D01*
X137160000Y-70940395D01*
X138036626Y-70063769D01*
X137973378Y-69869417D01*
X138131493Y-69763768D01*
X138343768Y-69551493D01*
X138510551Y-69301885D01*
X138625434Y-69024534D01*
X138684000Y-68730101D01*
X138684000Y-68429899D01*
X138625434Y-68135466D01*
X138510551Y-67858115D01*
X138343768Y-67608507D01*
X138131493Y-67396232D01*
X137973378Y-67290583D01*
X138036626Y-67096231D01*
X137160000Y-66219605D01*
X136283374Y-67096231D01*
X136346622Y-67290583D01*
X136188507Y-67396232D01*
X135976232Y-67608507D01*
X135809449Y-67858115D01*
X135694566Y-68135466D01*
X135636000Y-68429899D01*
X122214922Y-68429899D01*
X122164494Y-68409011D01*
X122002556Y-68376800D01*
X121837444Y-68376800D01*
X121675506Y-68409011D01*
X121522963Y-68472197D01*
X121385678Y-68563927D01*
X121268927Y-68680678D01*
X121177197Y-68817963D01*
X121114011Y-68970506D01*
X121081800Y-69132444D01*
X110640736Y-69132444D01*
X110685434Y-69024534D01*
X110744000Y-68730101D01*
X110744000Y-68429899D01*
X110685434Y-68135466D01*
X110570551Y-67858115D01*
X110403768Y-67608507D01*
X110191493Y-67396232D01*
X110033378Y-67290583D01*
X110053925Y-67227444D01*
X115747800Y-67227444D01*
X115747800Y-67392556D01*
X115780011Y-67554494D01*
X115843197Y-67707037D01*
X115934927Y-67844322D01*
X116051678Y-67961073D01*
X116188963Y-68052803D01*
X116341506Y-68115989D01*
X116503444Y-68148200D01*
X116668556Y-68148200D01*
X116830494Y-68115989D01*
X116983037Y-68052803D01*
X117120322Y-67961073D01*
X117237073Y-67844322D01*
X117328803Y-67707037D01*
X117391989Y-67554494D01*
X117424200Y-67392556D01*
X117424200Y-67227444D01*
X128955800Y-67227444D01*
X128955800Y-67392556D01*
X128988011Y-67554494D01*
X129051197Y-67707037D01*
X129142927Y-67844322D01*
X129259678Y-67961073D01*
X129396963Y-68052803D01*
X129549506Y-68115989D01*
X129711444Y-68148200D01*
X129876556Y-68148200D01*
X130038494Y-68115989D01*
X130191037Y-68052803D01*
X130328322Y-67961073D01*
X130445073Y-67844322D01*
X130536803Y-67707037D01*
X130599989Y-67554494D01*
X130632200Y-67392556D01*
X130632200Y-67227444D01*
X130599989Y-67065506D01*
X130536803Y-66912963D01*
X130445073Y-66775678D01*
X130328322Y-66658927D01*
X130191037Y-66567197D01*
X130038494Y-66504011D01*
X129876556Y-66471800D01*
X129711444Y-66471800D01*
X129549506Y-66504011D01*
X129396963Y-66567197D01*
X129259678Y-66658927D01*
X129142927Y-66775678D01*
X129051197Y-66912963D01*
X128988011Y-67065506D01*
X128955800Y-67227444D01*
X117424200Y-67227444D01*
X117391989Y-67065506D01*
X117328803Y-66912963D01*
X117237073Y-66775678D01*
X117120322Y-66658927D01*
X116983037Y-66567197D01*
X116830494Y-66504011D01*
X116668556Y-66471800D01*
X116503444Y-66471800D01*
X116341506Y-66504011D01*
X116188963Y-66567197D01*
X116051678Y-66658927D01*
X115934927Y-66775678D01*
X115843197Y-66912963D01*
X115780011Y-67065506D01*
X115747800Y-67227444D01*
X110053925Y-67227444D01*
X110096626Y-67096231D01*
X109220000Y-66219605D01*
X108343374Y-67096231D01*
X108406622Y-67290583D01*
X108248507Y-67396232D01*
X108036232Y-67608507D01*
X107869449Y-67858115D01*
X107754566Y-68135466D01*
X107696000Y-68429899D01*
X107390000Y-68429899D01*
X107390000Y-66106988D01*
X107690092Y-66106988D01*
X107732557Y-66404171D01*
X107832184Y-66687359D01*
X107910711Y-66834273D01*
X108163769Y-66916626D01*
X109040395Y-66040000D01*
X109399605Y-66040000D01*
X110276231Y-66916626D01*
X110529289Y-66834273D01*
X110659086Y-66563582D01*
X110733580Y-66272770D01*
X110749908Y-65973012D01*
X110747684Y-65957444D01*
X120764300Y-65957444D01*
X120764300Y-66122556D01*
X120796511Y-66284494D01*
X120859697Y-66437037D01*
X120951427Y-66574322D01*
X121068178Y-66691073D01*
X121205463Y-66782803D01*
X121358006Y-66845989D01*
X121519944Y-66878200D01*
X121685056Y-66878200D01*
X121846994Y-66845989D01*
X121999537Y-66782803D01*
X122136822Y-66691073D01*
X122253573Y-66574322D01*
X122345303Y-66437037D01*
X122408489Y-66284494D01*
X122440700Y-66122556D01*
X122440700Y-66106988D01*
X135630092Y-66106988D01*
X135672557Y-66404171D01*
X135772184Y-66687359D01*
X135850711Y-66834273D01*
X136103769Y-66916626D01*
X136980395Y-66040000D01*
X137339605Y-66040000D01*
X138216231Y-66916626D01*
X138469289Y-66834273D01*
X138599086Y-66563582D01*
X138673580Y-66272770D01*
X138689908Y-65973012D01*
X138647443Y-65675829D01*
X138547816Y-65392641D01*
X138469289Y-65245727D01*
X138216231Y-65163374D01*
X137339605Y-66040000D01*
X136980395Y-66040000D01*
X136103769Y-65163374D01*
X135850711Y-65245727D01*
X135720914Y-65516418D01*
X135646420Y-65807230D01*
X135630092Y-66106988D01*
X122440700Y-66106988D01*
X122440700Y-65957444D01*
X122408489Y-65795506D01*
X122345303Y-65642963D01*
X122253573Y-65505678D01*
X122136822Y-65388927D01*
X121999537Y-65297197D01*
X121846994Y-65234011D01*
X121685056Y-65201800D01*
X121519944Y-65201800D01*
X121358006Y-65234011D01*
X121205463Y-65297197D01*
X121068178Y-65388927D01*
X120951427Y-65505678D01*
X120859697Y-65642963D01*
X120796511Y-65795506D01*
X120764300Y-65957444D01*
X110747684Y-65957444D01*
X110707443Y-65675829D01*
X110607816Y-65392641D01*
X110529289Y-65245727D01*
X110276231Y-65163374D01*
X109399605Y-66040000D01*
X109040395Y-66040000D01*
X108163769Y-65163374D01*
X107910711Y-65245727D01*
X107780914Y-65516418D01*
X107706420Y-65807230D01*
X107690092Y-66106988D01*
X107390000Y-66106988D01*
X107390000Y-63349899D01*
X107696000Y-63349899D01*
X107696000Y-63650101D01*
X107754566Y-63944534D01*
X107869449Y-64221885D01*
X108036232Y-64471493D01*
X108248507Y-64683768D01*
X108406622Y-64789417D01*
X108343374Y-64983769D01*
X109220000Y-65860395D01*
X110096626Y-64983769D01*
X110033378Y-64789417D01*
X110191493Y-64683768D01*
X110403768Y-64471493D01*
X110570551Y-64221885D01*
X110685434Y-63944534D01*
X110744000Y-63650101D01*
X110744000Y-63349899D01*
X135636000Y-63349899D01*
X135636000Y-63650101D01*
X135694566Y-63944534D01*
X135809449Y-64221885D01*
X135976232Y-64471493D01*
X136188507Y-64683768D01*
X136346622Y-64789417D01*
X136283374Y-64983769D01*
X137160000Y-65860395D01*
X138036626Y-64983769D01*
X137973378Y-64789417D01*
X138131493Y-64683768D01*
X138343768Y-64471493D01*
X138510551Y-64221885D01*
X138625434Y-63944534D01*
X138684000Y-63650101D01*
X138684000Y-63349899D01*
X138625434Y-63055466D01*
X138510551Y-62778115D01*
X138343768Y-62528507D01*
X138131493Y-62316232D01*
X137973378Y-62210583D01*
X138036626Y-62016231D01*
X137160000Y-61139605D01*
X136283374Y-62016231D01*
X136346622Y-62210583D01*
X136188507Y-62316232D01*
X135976232Y-62528507D01*
X135809449Y-62778115D01*
X135694566Y-63055466D01*
X135636000Y-63349899D01*
X110744000Y-63349899D01*
X110685434Y-63055466D01*
X110570551Y-62778115D01*
X110403768Y-62528507D01*
X110191493Y-62316232D01*
X110033378Y-62210583D01*
X110096626Y-62016231D01*
X109220000Y-61139605D01*
X108343374Y-62016231D01*
X108406622Y-62210583D01*
X108248507Y-62316232D01*
X108036232Y-62528507D01*
X107869449Y-62778115D01*
X107754566Y-63055466D01*
X107696000Y-63349899D01*
X107390000Y-63349899D01*
X107390000Y-61026988D01*
X107690092Y-61026988D01*
X107732557Y-61324171D01*
X107832184Y-61607359D01*
X107910711Y-61754273D01*
X108163769Y-61836626D01*
X109040395Y-60960000D01*
X109399605Y-60960000D01*
X110276231Y-61836626D01*
X110529289Y-61754273D01*
X110659086Y-61483582D01*
X110733580Y-61192770D01*
X110749908Y-60893012D01*
X110747684Y-60877444D01*
X116001800Y-60877444D01*
X116001800Y-61042556D01*
X116034011Y-61204494D01*
X116097197Y-61357037D01*
X116188927Y-61494322D01*
X116305678Y-61611073D01*
X116442963Y-61702803D01*
X116595506Y-61765989D01*
X116757444Y-61798200D01*
X116922556Y-61798200D01*
X117084494Y-61765989D01*
X117237037Y-61702803D01*
X117374322Y-61611073D01*
X117491073Y-61494322D01*
X117582803Y-61357037D01*
X117645989Y-61204494D01*
X117660519Y-61131444D01*
X128955800Y-61131444D01*
X128955800Y-61296556D01*
X128988011Y-61458494D01*
X129051197Y-61611037D01*
X129142927Y-61748322D01*
X129259678Y-61865073D01*
X129396963Y-61956803D01*
X129549506Y-62019989D01*
X129711444Y-62052200D01*
X129876556Y-62052200D01*
X130038494Y-62019989D01*
X130191037Y-61956803D01*
X130328322Y-61865073D01*
X130445073Y-61748322D01*
X130536803Y-61611037D01*
X130599989Y-61458494D01*
X130632200Y-61296556D01*
X130632200Y-61131444D01*
X130611423Y-61026988D01*
X135630092Y-61026988D01*
X135672557Y-61324171D01*
X135772184Y-61607359D01*
X135850711Y-61754273D01*
X136103769Y-61836626D01*
X136980395Y-60960000D01*
X137339605Y-60960000D01*
X138216231Y-61836626D01*
X138469289Y-61754273D01*
X138599086Y-61483582D01*
X138673580Y-61192770D01*
X138689908Y-60893012D01*
X138647443Y-60595829D01*
X138547816Y-60312641D01*
X138469289Y-60165727D01*
X138216231Y-60083374D01*
X137339605Y-60960000D01*
X136980395Y-60960000D01*
X136103769Y-60083374D01*
X135850711Y-60165727D01*
X135720914Y-60436418D01*
X135646420Y-60727230D01*
X135630092Y-61026988D01*
X130611423Y-61026988D01*
X130599989Y-60969506D01*
X130536803Y-60816963D01*
X130445073Y-60679678D01*
X130328322Y-60562927D01*
X130191037Y-60471197D01*
X130038494Y-60408011D01*
X129876556Y-60375800D01*
X129711444Y-60375800D01*
X129549506Y-60408011D01*
X129396963Y-60471197D01*
X129259678Y-60562927D01*
X129142927Y-60679678D01*
X129051197Y-60816963D01*
X128988011Y-60969506D01*
X128955800Y-61131444D01*
X117660519Y-61131444D01*
X117678200Y-61042556D01*
X117678200Y-60877444D01*
X117645989Y-60715506D01*
X117582803Y-60562963D01*
X117491073Y-60425678D01*
X117374322Y-60308927D01*
X117237037Y-60217197D01*
X117084494Y-60154011D01*
X116922556Y-60121800D01*
X116757444Y-60121800D01*
X116595506Y-60154011D01*
X116442963Y-60217197D01*
X116305678Y-60308927D01*
X116188927Y-60425678D01*
X116097197Y-60562963D01*
X116034011Y-60715506D01*
X116001800Y-60877444D01*
X110747684Y-60877444D01*
X110707443Y-60595829D01*
X110607816Y-60312641D01*
X110529289Y-60165727D01*
X110276231Y-60083374D01*
X109399605Y-60960000D01*
X109040395Y-60960000D01*
X108163769Y-60083374D01*
X107910711Y-60165727D01*
X107780914Y-60436418D01*
X107706420Y-60727230D01*
X107690092Y-61026988D01*
X107390000Y-61026988D01*
X107390000Y-58269899D01*
X107696000Y-58269899D01*
X107696000Y-58570101D01*
X107754566Y-58864534D01*
X107869449Y-59141885D01*
X108036232Y-59391493D01*
X108248507Y-59603768D01*
X108406622Y-59709417D01*
X108343374Y-59903769D01*
X109220000Y-60780395D01*
X110096626Y-59903769D01*
X110033378Y-59709417D01*
X110191493Y-59603768D01*
X110403768Y-59391493D01*
X110570551Y-59141885D01*
X110640736Y-58972444D01*
X121081800Y-58972444D01*
X121081800Y-59137556D01*
X121114011Y-59299494D01*
X121177197Y-59452037D01*
X121268927Y-59589322D01*
X121385678Y-59706073D01*
X121522963Y-59797803D01*
X121675506Y-59860989D01*
X121837444Y-59893200D01*
X122002556Y-59893200D01*
X122164494Y-59860989D01*
X122317037Y-59797803D01*
X122454322Y-59706073D01*
X122571073Y-59589322D01*
X122662803Y-59452037D01*
X122725989Y-59299494D01*
X122758200Y-59137556D01*
X122758200Y-58972444D01*
X122725989Y-58810506D01*
X122662803Y-58657963D01*
X122571073Y-58520678D01*
X122454322Y-58403927D01*
X122317037Y-58312197D01*
X122214922Y-58269899D01*
X135636000Y-58269899D01*
X135636000Y-58570101D01*
X135694566Y-58864534D01*
X135809449Y-59141885D01*
X135976232Y-59391493D01*
X136188507Y-59603768D01*
X136346622Y-59709417D01*
X136283374Y-59903769D01*
X137160000Y-60780395D01*
X138036626Y-59903769D01*
X137973378Y-59709417D01*
X138131493Y-59603768D01*
X138343768Y-59391493D01*
X138510551Y-59141885D01*
X138625434Y-58864534D01*
X138684000Y-58570101D01*
X138684000Y-58269899D01*
X138625434Y-57975466D01*
X138510551Y-57698115D01*
X138343768Y-57448507D01*
X138131493Y-57236232D01*
X137973378Y-57130583D01*
X138036626Y-56936231D01*
X137160000Y-56059605D01*
X136283374Y-56936231D01*
X136346622Y-57130583D01*
X136188507Y-57236232D01*
X135976232Y-57448507D01*
X135809449Y-57698115D01*
X135694566Y-57975466D01*
X135636000Y-58269899D01*
X122214922Y-58269899D01*
X122164494Y-58249011D01*
X122002556Y-58216800D01*
X121837444Y-58216800D01*
X121675506Y-58249011D01*
X121522963Y-58312197D01*
X121385678Y-58403927D01*
X121268927Y-58520678D01*
X121177197Y-58657963D01*
X121114011Y-58810506D01*
X121081800Y-58972444D01*
X110640736Y-58972444D01*
X110685434Y-58864534D01*
X110744000Y-58570101D01*
X110744000Y-58269899D01*
X110685434Y-57975466D01*
X110570551Y-57698115D01*
X110403768Y-57448507D01*
X110191493Y-57236232D01*
X110033378Y-57130583D01*
X110053925Y-57067444D01*
X116001800Y-57067444D01*
X116001800Y-57232556D01*
X116034011Y-57394494D01*
X116097197Y-57547037D01*
X116188927Y-57684322D01*
X116305678Y-57801073D01*
X116442963Y-57892803D01*
X116595506Y-57955989D01*
X116757444Y-57988200D01*
X116922556Y-57988200D01*
X117084494Y-57955989D01*
X117237037Y-57892803D01*
X117374322Y-57801073D01*
X117491073Y-57684322D01*
X117582803Y-57547037D01*
X117645989Y-57394494D01*
X117678200Y-57232556D01*
X117678200Y-57067444D01*
X128955800Y-57067444D01*
X128955800Y-57232556D01*
X128988011Y-57394494D01*
X129051197Y-57547037D01*
X129142927Y-57684322D01*
X129259678Y-57801073D01*
X129396963Y-57892803D01*
X129549506Y-57955989D01*
X129711444Y-57988200D01*
X129876556Y-57988200D01*
X130038494Y-57955989D01*
X130191037Y-57892803D01*
X130328322Y-57801073D01*
X130445073Y-57684322D01*
X130536803Y-57547037D01*
X130599989Y-57394494D01*
X130632200Y-57232556D01*
X130632200Y-57067444D01*
X130599989Y-56905506D01*
X130536803Y-56752963D01*
X130445073Y-56615678D01*
X130328322Y-56498927D01*
X130191037Y-56407197D01*
X130038494Y-56344011D01*
X129876556Y-56311800D01*
X129711444Y-56311800D01*
X129549506Y-56344011D01*
X129396963Y-56407197D01*
X129259678Y-56498927D01*
X129142927Y-56615678D01*
X129051197Y-56752963D01*
X128988011Y-56905506D01*
X128955800Y-57067444D01*
X117678200Y-57067444D01*
X117645989Y-56905506D01*
X117582803Y-56752963D01*
X117491073Y-56615678D01*
X117374322Y-56498927D01*
X117237037Y-56407197D01*
X117084494Y-56344011D01*
X116922556Y-56311800D01*
X116757444Y-56311800D01*
X116595506Y-56344011D01*
X116442963Y-56407197D01*
X116305678Y-56498927D01*
X116188927Y-56615678D01*
X116097197Y-56752963D01*
X116034011Y-56905506D01*
X116001800Y-57067444D01*
X110053925Y-57067444D01*
X110096626Y-56936231D01*
X109220000Y-56059605D01*
X108343374Y-56936231D01*
X108406622Y-57130583D01*
X108248507Y-57236232D01*
X108036232Y-57448507D01*
X107869449Y-57698115D01*
X107754566Y-57975466D01*
X107696000Y-58269899D01*
X107390000Y-58269899D01*
X107390000Y-55946988D01*
X107690092Y-55946988D01*
X107732557Y-56244171D01*
X107832184Y-56527359D01*
X107910711Y-56674273D01*
X108163769Y-56756626D01*
X109040395Y-55880000D01*
X109399605Y-55880000D01*
X110276231Y-56756626D01*
X110529289Y-56674273D01*
X110659086Y-56403582D01*
X110733580Y-56112770D01*
X110749908Y-55813012D01*
X110747684Y-55797444D01*
X120764300Y-55797444D01*
X120764300Y-55962556D01*
X120796511Y-56124494D01*
X120859697Y-56277037D01*
X120951427Y-56414322D01*
X121068178Y-56531073D01*
X121205463Y-56622803D01*
X121358006Y-56685989D01*
X121519944Y-56718200D01*
X121685056Y-56718200D01*
X121846994Y-56685989D01*
X121999537Y-56622803D01*
X122136822Y-56531073D01*
X122253573Y-56414322D01*
X122345303Y-56277037D01*
X122408489Y-56124494D01*
X122440700Y-55962556D01*
X122440700Y-55946988D01*
X135630092Y-55946988D01*
X135672557Y-56244171D01*
X135772184Y-56527359D01*
X135850711Y-56674273D01*
X136103769Y-56756626D01*
X136980395Y-55880000D01*
X137339605Y-55880000D01*
X138216231Y-56756626D01*
X138469289Y-56674273D01*
X138599086Y-56403582D01*
X138673580Y-56112770D01*
X138689908Y-55813012D01*
X138647443Y-55515829D01*
X138547816Y-55232641D01*
X138469289Y-55085727D01*
X138216231Y-55003374D01*
X137339605Y-55880000D01*
X136980395Y-55880000D01*
X136103769Y-55003374D01*
X135850711Y-55085727D01*
X135720914Y-55356418D01*
X135646420Y-55647230D01*
X135630092Y-55946988D01*
X122440700Y-55946988D01*
X122440700Y-55797444D01*
X122408489Y-55635506D01*
X122345303Y-55482963D01*
X122253573Y-55345678D01*
X122136822Y-55228927D01*
X121999537Y-55137197D01*
X121846994Y-55074011D01*
X121685056Y-55041800D01*
X121519944Y-55041800D01*
X121358006Y-55074011D01*
X121205463Y-55137197D01*
X121068178Y-55228927D01*
X120951427Y-55345678D01*
X120859697Y-55482963D01*
X120796511Y-55635506D01*
X120764300Y-55797444D01*
X110747684Y-55797444D01*
X110707443Y-55515829D01*
X110607816Y-55232641D01*
X110529289Y-55085727D01*
X110276231Y-55003374D01*
X109399605Y-55880000D01*
X109040395Y-55880000D01*
X108163769Y-55003374D01*
X107910711Y-55085727D01*
X107780914Y-55356418D01*
X107706420Y-55647230D01*
X107690092Y-55946988D01*
X107390000Y-55946988D01*
X107390000Y-54823769D01*
X108343374Y-54823769D01*
X109220000Y-55700395D01*
X110096626Y-54823769D01*
X136283374Y-54823769D01*
X137160000Y-55700395D01*
X138036626Y-54823769D01*
X137954273Y-54570711D01*
X137683582Y-54440914D01*
X137392770Y-54366420D01*
X137093012Y-54350092D01*
X136795829Y-54392557D01*
X136512641Y-54492184D01*
X136365727Y-54570711D01*
X136283374Y-54823769D01*
X110096626Y-54823769D01*
X110014273Y-54570711D01*
X109743582Y-54440914D01*
X109452770Y-54366420D01*
X109153012Y-54350092D01*
X108855829Y-54392557D01*
X108572641Y-54492184D01*
X108425727Y-54570711D01*
X108343374Y-54823769D01*
X107390000Y-54823769D01*
X107390000Y-54050000D01*
X138990000Y-54050000D01*
X138990001Y-118670000D01*
G37*
G04 #@! TD.AperFunction*
M02*
