G04 #@! TF.GenerationSoftware,KiCad,Pcbnew,(5.1.8-0-10_14)*
G04 #@! TF.CreationDate,2020-12-29T19:16:56-08:00*
G04 #@! TF.ProjectId,ADC,4144432e-6b69-4636-9164-5f7063625858,rev?*
G04 #@! TF.SameCoordinates,Original*
G04 #@! TF.FileFunction,Soldermask,Top*
G04 #@! TF.FilePolarity,Negative*
%FSLAX46Y46*%
G04 Gerber Fmt 4.6, Leading zero omitted, Abs format (unit mm)*
G04 Created by KiCad (PCBNEW (5.1.8-0-10_14)) date 2020-12-29 19:16:56*
%MOMM*%
%LPD*%
G01*
G04 APERTURE LIST*
%ADD10C,1.879600*%
G04 APERTURE END LIST*
G36*
G01*
X133034800Y-93680000D02*
X133034800Y-94280000D01*
G75*
G02*
X132984000Y-94330800I-50800J0D01*
G01*
X132584000Y-94330800D01*
G75*
G02*
X132533200Y-94280000I0J50800D01*
G01*
X132533200Y-93680000D01*
G75*
G02*
X132584000Y-93629200I50800J0D01*
G01*
X132984000Y-93629200D01*
G75*
G02*
X133034800Y-93680000I0J-50800D01*
G01*
G37*
G36*
G01*
X132134800Y-93680000D02*
X132134800Y-94280000D01*
G75*
G02*
X132084000Y-94330800I-50800J0D01*
G01*
X131684000Y-94330800D01*
G75*
G02*
X131633200Y-94280000I0J50800D01*
G01*
X131633200Y-93680000D01*
G75*
G02*
X131684000Y-93629200I50800J0D01*
G01*
X132084000Y-93629200D01*
G75*
G02*
X132134800Y-93680000I0J-50800D01*
G01*
G37*
G36*
G01*
X117810000Y-84389200D02*
X118410000Y-84389200D01*
G75*
G02*
X118460800Y-84440000I0J-50800D01*
G01*
X118460800Y-84840000D01*
G75*
G02*
X118410000Y-84890800I-50800J0D01*
G01*
X117810000Y-84890800D01*
G75*
G02*
X117759200Y-84840000I0J50800D01*
G01*
X117759200Y-84440000D01*
G75*
G02*
X117810000Y-84389200I50800J0D01*
G01*
G37*
G36*
G01*
X117810000Y-85289200D02*
X118410000Y-85289200D01*
G75*
G02*
X118460800Y-85340000I0J-50800D01*
G01*
X118460800Y-85740000D01*
G75*
G02*
X118410000Y-85790800I-50800J0D01*
G01*
X117810000Y-85790800D01*
G75*
G02*
X117759200Y-85740000I0J50800D01*
G01*
X117759200Y-85340000D01*
G75*
G02*
X117810000Y-85289200I50800J0D01*
G01*
G37*
G36*
G01*
X130094000Y-62930800D02*
X129494000Y-62930800D01*
G75*
G02*
X129443200Y-62880000I0J50800D01*
G01*
X129443200Y-62480000D01*
G75*
G02*
X129494000Y-62429200I50800J0D01*
G01*
X130094000Y-62429200D01*
G75*
G02*
X130144800Y-62480000I0J-50800D01*
G01*
X130144800Y-62880000D01*
G75*
G02*
X130094000Y-62930800I-50800J0D01*
G01*
G37*
G36*
G01*
X130094000Y-62030800D02*
X129494000Y-62030800D01*
G75*
G02*
X129443200Y-61980000I0J50800D01*
G01*
X129443200Y-61580000D01*
G75*
G02*
X129494000Y-61529200I50800J0D01*
G01*
X130094000Y-61529200D01*
G75*
G02*
X130144800Y-61580000I0J-50800D01*
G01*
X130144800Y-61980000D01*
G75*
G02*
X130094000Y-62030800I-50800J0D01*
G01*
G37*
G36*
G01*
X117810000Y-94549200D02*
X118410000Y-94549200D01*
G75*
G02*
X118460800Y-94600000I0J-50800D01*
G01*
X118460800Y-95000000D01*
G75*
G02*
X118410000Y-95050800I-50800J0D01*
G01*
X117810000Y-95050800D01*
G75*
G02*
X117759200Y-95000000I0J50800D01*
G01*
X117759200Y-94600000D01*
G75*
G02*
X117810000Y-94549200I50800J0D01*
G01*
G37*
G36*
G01*
X117810000Y-95449200D02*
X118410000Y-95449200D01*
G75*
G02*
X118460800Y-95500000I0J-50800D01*
G01*
X118460800Y-95900000D01*
G75*
G02*
X118410000Y-95950800I-50800J0D01*
G01*
X117810000Y-95950800D01*
G75*
G02*
X117759200Y-95900000I0J50800D01*
G01*
X117759200Y-95500000D01*
G75*
G02*
X117810000Y-95449200I50800J0D01*
G01*
G37*
G36*
G01*
X113345200Y-94280000D02*
X113345200Y-93680000D01*
G75*
G02*
X113396000Y-93629200I50800J0D01*
G01*
X113796000Y-93629200D01*
G75*
G02*
X113846800Y-93680000I0J-50800D01*
G01*
X113846800Y-94280000D01*
G75*
G02*
X113796000Y-94330800I-50800J0D01*
G01*
X113396000Y-94330800D01*
G75*
G02*
X113345200Y-94280000I0J50800D01*
G01*
G37*
G36*
G01*
X114245200Y-94280000D02*
X114245200Y-93680000D01*
G75*
G02*
X114296000Y-93629200I50800J0D01*
G01*
X114696000Y-93629200D01*
G75*
G02*
X114746800Y-93680000I0J-50800D01*
G01*
X114746800Y-94280000D01*
G75*
G02*
X114696000Y-94330800I-50800J0D01*
G01*
X114296000Y-94330800D01*
G75*
G02*
X114245200Y-94280000I0J50800D01*
G01*
G37*
G36*
G01*
X131814200Y-110740001D02*
X131814200Y-110239999D01*
G75*
G02*
X131864999Y-110189200I50799J0D01*
G01*
X132465001Y-110189200D01*
G75*
G02*
X132515800Y-110239999I0J-50799D01*
G01*
X132515800Y-110740001D01*
G75*
G02*
X132465001Y-110790800I-50799J0D01*
G01*
X131864999Y-110790800D01*
G75*
G02*
X131814200Y-110740001I0J50799D01*
G01*
G37*
G36*
G01*
X132914200Y-110740001D02*
X132914200Y-110239999D01*
G75*
G02*
X132964999Y-110189200I50799J0D01*
G01*
X133565001Y-110189200D01*
G75*
G02*
X133615800Y-110239999I0J-50799D01*
G01*
X133615800Y-110740001D01*
G75*
G02*
X133565001Y-110790800I-50799J0D01*
G01*
X132964999Y-110790800D01*
G75*
G02*
X132914200Y-110740001I0J50799D01*
G01*
G37*
G36*
G01*
X114565800Y-114049999D02*
X114565800Y-114550001D01*
G75*
G02*
X114515001Y-114600800I-50799J0D01*
G01*
X113914999Y-114600800D01*
G75*
G02*
X113864200Y-114550001I0J50799D01*
G01*
X113864200Y-114049999D01*
G75*
G02*
X113914999Y-113999200I50799J0D01*
G01*
X114515001Y-113999200D01*
G75*
G02*
X114565800Y-114049999I0J-50799D01*
G01*
G37*
G36*
G01*
X113465800Y-114049999D02*
X113465800Y-114550001D01*
G75*
G02*
X113415001Y-114600800I-50799J0D01*
G01*
X112814999Y-114600800D01*
G75*
G02*
X112764200Y-114550001I0J50799D01*
G01*
X112764200Y-114049999D01*
G75*
G02*
X112814999Y-113999200I50799J0D01*
G01*
X113415001Y-113999200D01*
G75*
G02*
X113465800Y-114049999I0J-50799D01*
G01*
G37*
G36*
G01*
X122289200Y-56130001D02*
X122289200Y-55629999D01*
G75*
G02*
X122339999Y-55579200I50799J0D01*
G01*
X122940001Y-55579200D01*
G75*
G02*
X122990800Y-55629999I0J-50799D01*
G01*
X122990800Y-56130001D01*
G75*
G02*
X122940001Y-56180800I-50799J0D01*
G01*
X122339999Y-56180800D01*
G75*
G02*
X122289200Y-56130001I0J50799D01*
G01*
G37*
G36*
G01*
X123389200Y-56130001D02*
X123389200Y-55629999D01*
G75*
G02*
X123439999Y-55579200I50799J0D01*
G01*
X124040001Y-55579200D01*
G75*
G02*
X124090800Y-55629999I0J-50799D01*
G01*
X124090800Y-56130001D01*
G75*
G02*
X124040001Y-56180800I-50799J0D01*
G01*
X123439999Y-56180800D01*
G75*
G02*
X123389200Y-56130001I0J50799D01*
G01*
G37*
G36*
G01*
X114946800Y-55121999D02*
X114946800Y-55622001D01*
G75*
G02*
X114896001Y-55672800I-50799J0D01*
G01*
X114295999Y-55672800D01*
G75*
G02*
X114245200Y-55622001I0J50799D01*
G01*
X114245200Y-55121999D01*
G75*
G02*
X114295999Y-55071200I50799J0D01*
G01*
X114896001Y-55071200D01*
G75*
G02*
X114946800Y-55121999I0J-50799D01*
G01*
G37*
G36*
G01*
X113846800Y-55121999D02*
X113846800Y-55622001D01*
G75*
G02*
X113796001Y-55672800I-50799J0D01*
G01*
X113195999Y-55672800D01*
G75*
G02*
X113145200Y-55622001I0J50799D01*
G01*
X113145200Y-55121999D01*
G75*
G02*
X113195999Y-55071200I50799J0D01*
G01*
X113796001Y-55071200D01*
G75*
G02*
X113846800Y-55121999I0J-50799D01*
G01*
G37*
G36*
G01*
X131433200Y-62988001D02*
X131433200Y-62487999D01*
G75*
G02*
X131483999Y-62437200I50799J0D01*
G01*
X132084001Y-62437200D01*
G75*
G02*
X132134800Y-62487999I0J-50799D01*
G01*
X132134800Y-62988001D01*
G75*
G02*
X132084001Y-63038800I-50799J0D01*
G01*
X131483999Y-63038800D01*
G75*
G02*
X131433200Y-62988001I0J50799D01*
G01*
G37*
G36*
G01*
X132533200Y-62988001D02*
X132533200Y-62487999D01*
G75*
G02*
X132583999Y-62437200I50799J0D01*
G01*
X133184001Y-62437200D01*
G75*
G02*
X133234800Y-62487999I0J-50799D01*
G01*
X133234800Y-62988001D01*
G75*
G02*
X133184001Y-63038800I-50799J0D01*
G01*
X132583999Y-63038800D01*
G75*
G02*
X132533200Y-62988001I0J50799D01*
G01*
G37*
G36*
G01*
X131433200Y-55876001D02*
X131433200Y-55375999D01*
G75*
G02*
X131483999Y-55325200I50799J0D01*
G01*
X132084001Y-55325200D01*
G75*
G02*
X132134800Y-55375999I0J-50799D01*
G01*
X132134800Y-55876001D01*
G75*
G02*
X132084001Y-55926800I-50799J0D01*
G01*
X131483999Y-55926800D01*
G75*
G02*
X131433200Y-55876001I0J50799D01*
G01*
G37*
G36*
G01*
X132533200Y-55876001D02*
X132533200Y-55375999D01*
G75*
G02*
X132583999Y-55325200I50799J0D01*
G01*
X133184001Y-55325200D01*
G75*
G02*
X133234800Y-55375999I0J-50799D01*
G01*
X133234800Y-55876001D01*
G75*
G02*
X133184001Y-55926800I-50799J0D01*
G01*
X132583999Y-55926800D01*
G75*
G02*
X132533200Y-55876001I0J50799D01*
G01*
G37*
G36*
G01*
X122289200Y-66290001D02*
X122289200Y-65789999D01*
G75*
G02*
X122339999Y-65739200I50799J0D01*
G01*
X122940001Y-65739200D01*
G75*
G02*
X122990800Y-65789999I0J-50799D01*
G01*
X122990800Y-66290001D01*
G75*
G02*
X122940001Y-66340800I-50799J0D01*
G01*
X122339999Y-66340800D01*
G75*
G02*
X122289200Y-66290001I0J50799D01*
G01*
G37*
G36*
G01*
X123389200Y-66290001D02*
X123389200Y-65789999D01*
G75*
G02*
X123439999Y-65739200I50799J0D01*
G01*
X124040001Y-65739200D01*
G75*
G02*
X124090800Y-65789999I0J-50799D01*
G01*
X124090800Y-66290001D01*
G75*
G02*
X124040001Y-66340800I-50799J0D01*
G01*
X123439999Y-66340800D01*
G75*
G02*
X123389200Y-66290001I0J50799D01*
G01*
G37*
G36*
G01*
X114946800Y-65281999D02*
X114946800Y-65782001D01*
G75*
G02*
X114896001Y-65832800I-50799J0D01*
G01*
X114295999Y-65832800D01*
G75*
G02*
X114245200Y-65782001I0J50799D01*
G01*
X114245200Y-65281999D01*
G75*
G02*
X114295999Y-65231200I50799J0D01*
G01*
X114896001Y-65231200D01*
G75*
G02*
X114946800Y-65281999I0J-50799D01*
G01*
G37*
G36*
G01*
X113846800Y-65281999D02*
X113846800Y-65782001D01*
G75*
G02*
X113796001Y-65832800I-50799J0D01*
G01*
X113195999Y-65832800D01*
G75*
G02*
X113145200Y-65782001I0J50799D01*
G01*
X113145200Y-65281999D01*
G75*
G02*
X113195999Y-65231200I50799J0D01*
G01*
X113796001Y-65231200D01*
G75*
G02*
X113846800Y-65281999I0J-50799D01*
G01*
G37*
G36*
G01*
X114946800Y-72647999D02*
X114946800Y-73148001D01*
G75*
G02*
X114896001Y-73198800I-50799J0D01*
G01*
X114295999Y-73198800D01*
G75*
G02*
X114245200Y-73148001I0J50799D01*
G01*
X114245200Y-72647999D01*
G75*
G02*
X114295999Y-72597200I50799J0D01*
G01*
X114896001Y-72597200D01*
G75*
G02*
X114946800Y-72647999I0J-50799D01*
G01*
G37*
G36*
G01*
X113846800Y-72647999D02*
X113846800Y-73148001D01*
G75*
G02*
X113796001Y-73198800I-50799J0D01*
G01*
X113195999Y-73198800D01*
G75*
G02*
X113145200Y-73148001I0J50799D01*
G01*
X113145200Y-72647999D01*
G75*
G02*
X113195999Y-72597200I50799J0D01*
G01*
X113796001Y-72597200D01*
G75*
G02*
X113846800Y-72647999I0J-50799D01*
G01*
G37*
G36*
G01*
X131433200Y-73148001D02*
X131433200Y-72647999D01*
G75*
G02*
X131483999Y-72597200I50799J0D01*
G01*
X132084001Y-72597200D01*
G75*
G02*
X132134800Y-72647999I0J-50799D01*
G01*
X132134800Y-73148001D01*
G75*
G02*
X132084001Y-73198800I-50799J0D01*
G01*
X131483999Y-73198800D01*
G75*
G02*
X131433200Y-73148001I0J50799D01*
G01*
G37*
G36*
G01*
X132533200Y-73148001D02*
X132533200Y-72647999D01*
G75*
G02*
X132583999Y-72597200I50799J0D01*
G01*
X133184001Y-72597200D01*
G75*
G02*
X133234800Y-72647999I0J-50799D01*
G01*
X133234800Y-73148001D01*
G75*
G02*
X133184001Y-73198800I-50799J0D01*
G01*
X132583999Y-73198800D01*
G75*
G02*
X132533200Y-73148001I0J50799D01*
G01*
G37*
G36*
G01*
X131433200Y-65782001D02*
X131433200Y-65281999D01*
G75*
G02*
X131483999Y-65231200I50799J0D01*
G01*
X132084001Y-65231200D01*
G75*
G02*
X132134800Y-65281999I0J-50799D01*
G01*
X132134800Y-65782001D01*
G75*
G02*
X132084001Y-65832800I-50799J0D01*
G01*
X131483999Y-65832800D01*
G75*
G02*
X131433200Y-65782001I0J50799D01*
G01*
G37*
G36*
G01*
X132533200Y-65782001D02*
X132533200Y-65281999D01*
G75*
G02*
X132583999Y-65231200I50799J0D01*
G01*
X133184001Y-65231200D01*
G75*
G02*
X133234800Y-65281999I0J-50799D01*
G01*
X133234800Y-65782001D01*
G75*
G02*
X133184001Y-65832800I-50799J0D01*
G01*
X132583999Y-65832800D01*
G75*
G02*
X132533200Y-65782001I0J50799D01*
G01*
G37*
G36*
G01*
X122289200Y-78990001D02*
X122289200Y-78489999D01*
G75*
G02*
X122339999Y-78439200I50799J0D01*
G01*
X122940001Y-78439200D01*
G75*
G02*
X122990800Y-78489999I0J-50799D01*
G01*
X122990800Y-78990001D01*
G75*
G02*
X122940001Y-79040800I-50799J0D01*
G01*
X122339999Y-79040800D01*
G75*
G02*
X122289200Y-78990001I0J50799D01*
G01*
G37*
G36*
G01*
X123389200Y-78990001D02*
X123389200Y-78489999D01*
G75*
G02*
X123439999Y-78439200I50799J0D01*
G01*
X124040001Y-78439200D01*
G75*
G02*
X124090800Y-78489999I0J-50799D01*
G01*
X124090800Y-78990001D01*
G75*
G02*
X124040001Y-79040800I-50799J0D01*
G01*
X123439999Y-79040800D01*
G75*
G02*
X123389200Y-78990001I0J50799D01*
G01*
G37*
G36*
G01*
X114946800Y-77981999D02*
X114946800Y-78482001D01*
G75*
G02*
X114896001Y-78532800I-50799J0D01*
G01*
X114295999Y-78532800D01*
G75*
G02*
X114245200Y-78482001I0J50799D01*
G01*
X114245200Y-77981999D01*
G75*
G02*
X114295999Y-77931200I50799J0D01*
G01*
X114896001Y-77931200D01*
G75*
G02*
X114946800Y-77981999I0J-50799D01*
G01*
G37*
G36*
G01*
X113846800Y-77981999D02*
X113846800Y-78482001D01*
G75*
G02*
X113796001Y-78532800I-50799J0D01*
G01*
X113195999Y-78532800D01*
G75*
G02*
X113145200Y-78482001I0J50799D01*
G01*
X113145200Y-77981999D01*
G75*
G02*
X113195999Y-77931200I50799J0D01*
G01*
X113796001Y-77931200D01*
G75*
G02*
X113846800Y-77981999I0J-50799D01*
G01*
G37*
G36*
G01*
X114946800Y-85347999D02*
X114946800Y-85848001D01*
G75*
G02*
X114896001Y-85898800I-50799J0D01*
G01*
X114295999Y-85898800D01*
G75*
G02*
X114245200Y-85848001I0J50799D01*
G01*
X114245200Y-85347999D01*
G75*
G02*
X114295999Y-85297200I50799J0D01*
G01*
X114896001Y-85297200D01*
G75*
G02*
X114946800Y-85347999I0J-50799D01*
G01*
G37*
G36*
G01*
X113846800Y-85347999D02*
X113846800Y-85848001D01*
G75*
G02*
X113796001Y-85898800I-50799J0D01*
G01*
X113195999Y-85898800D01*
G75*
G02*
X113145200Y-85848001I0J50799D01*
G01*
X113145200Y-85347999D01*
G75*
G02*
X113195999Y-85297200I50799J0D01*
G01*
X113796001Y-85297200D01*
G75*
G02*
X113846800Y-85347999I0J-50799D01*
G01*
G37*
G36*
G01*
X131433200Y-85848001D02*
X131433200Y-85347999D01*
G75*
G02*
X131483999Y-85297200I50799J0D01*
G01*
X132084001Y-85297200D01*
G75*
G02*
X132134800Y-85347999I0J-50799D01*
G01*
X132134800Y-85848001D01*
G75*
G02*
X132084001Y-85898800I-50799J0D01*
G01*
X131483999Y-85898800D01*
G75*
G02*
X131433200Y-85848001I0J50799D01*
G01*
G37*
G36*
G01*
X132533200Y-85848001D02*
X132533200Y-85347999D01*
G75*
G02*
X132583999Y-85297200I50799J0D01*
G01*
X133184001Y-85297200D01*
G75*
G02*
X133234800Y-85347999I0J-50799D01*
G01*
X133234800Y-85848001D01*
G75*
G02*
X133184001Y-85898800I-50799J0D01*
G01*
X132583999Y-85898800D01*
G75*
G02*
X132533200Y-85848001I0J50799D01*
G01*
G37*
G36*
G01*
X131433200Y-78482001D02*
X131433200Y-77981999D01*
G75*
G02*
X131483999Y-77931200I50799J0D01*
G01*
X132084001Y-77931200D01*
G75*
G02*
X132134800Y-77981999I0J-50799D01*
G01*
X132134800Y-78482001D01*
G75*
G02*
X132084001Y-78532800I-50799J0D01*
G01*
X131483999Y-78532800D01*
G75*
G02*
X131433200Y-78482001I0J50799D01*
G01*
G37*
G36*
G01*
X132533200Y-78482001D02*
X132533200Y-77981999D01*
G75*
G02*
X132583999Y-77931200I50799J0D01*
G01*
X133184001Y-77931200D01*
G75*
G02*
X133234800Y-77981999I0J-50799D01*
G01*
X133234800Y-78482001D01*
G75*
G02*
X133184001Y-78532800I-50799J0D01*
G01*
X132583999Y-78532800D01*
G75*
G02*
X132533200Y-78482001I0J50799D01*
G01*
G37*
G36*
G01*
X122289200Y-89150001D02*
X122289200Y-88649999D01*
G75*
G02*
X122339999Y-88599200I50799J0D01*
G01*
X122940001Y-88599200D01*
G75*
G02*
X122990800Y-88649999I0J-50799D01*
G01*
X122990800Y-89150001D01*
G75*
G02*
X122940001Y-89200800I-50799J0D01*
G01*
X122339999Y-89200800D01*
G75*
G02*
X122289200Y-89150001I0J50799D01*
G01*
G37*
G36*
G01*
X123389200Y-89150001D02*
X123389200Y-88649999D01*
G75*
G02*
X123439999Y-88599200I50799J0D01*
G01*
X124040001Y-88599200D01*
G75*
G02*
X124090800Y-88649999I0J-50799D01*
G01*
X124090800Y-89150001D01*
G75*
G02*
X124040001Y-89200800I-50799J0D01*
G01*
X123439999Y-89200800D01*
G75*
G02*
X123389200Y-89150001I0J50799D01*
G01*
G37*
G36*
G01*
X114946800Y-88141999D02*
X114946800Y-88642001D01*
G75*
G02*
X114896001Y-88692800I-50799J0D01*
G01*
X114295999Y-88692800D01*
G75*
G02*
X114245200Y-88642001I0J50799D01*
G01*
X114245200Y-88141999D01*
G75*
G02*
X114295999Y-88091200I50799J0D01*
G01*
X114896001Y-88091200D01*
G75*
G02*
X114946800Y-88141999I0J-50799D01*
G01*
G37*
G36*
G01*
X113846800Y-88141999D02*
X113846800Y-88642001D01*
G75*
G02*
X113796001Y-88692800I-50799J0D01*
G01*
X113195999Y-88692800D01*
G75*
G02*
X113145200Y-88642001I0J50799D01*
G01*
X113145200Y-88141999D01*
G75*
G02*
X113195999Y-88091200I50799J0D01*
G01*
X113796001Y-88091200D01*
G75*
G02*
X113846800Y-88141999I0J-50799D01*
G01*
G37*
G36*
G01*
X114946800Y-95507999D02*
X114946800Y-96008001D01*
G75*
G02*
X114896001Y-96058800I-50799J0D01*
G01*
X114295999Y-96058800D01*
G75*
G02*
X114245200Y-96008001I0J50799D01*
G01*
X114245200Y-95507999D01*
G75*
G02*
X114295999Y-95457200I50799J0D01*
G01*
X114896001Y-95457200D01*
G75*
G02*
X114946800Y-95507999I0J-50799D01*
G01*
G37*
G36*
G01*
X113846800Y-95507999D02*
X113846800Y-96008001D01*
G75*
G02*
X113796001Y-96058800I-50799J0D01*
G01*
X113195999Y-96058800D01*
G75*
G02*
X113145200Y-96008001I0J50799D01*
G01*
X113145200Y-95507999D01*
G75*
G02*
X113195999Y-95457200I50799J0D01*
G01*
X113796001Y-95457200D01*
G75*
G02*
X113846800Y-95507999I0J-50799D01*
G01*
G37*
G36*
G01*
X131433200Y-96008001D02*
X131433200Y-95507999D01*
G75*
G02*
X131483999Y-95457200I50799J0D01*
G01*
X132084001Y-95457200D01*
G75*
G02*
X132134800Y-95507999I0J-50799D01*
G01*
X132134800Y-96008001D01*
G75*
G02*
X132084001Y-96058800I-50799J0D01*
G01*
X131483999Y-96058800D01*
G75*
G02*
X131433200Y-96008001I0J50799D01*
G01*
G37*
G36*
G01*
X132533200Y-96008001D02*
X132533200Y-95507999D01*
G75*
G02*
X132583999Y-95457200I50799J0D01*
G01*
X133184001Y-95457200D01*
G75*
G02*
X133234800Y-95507999I0J-50799D01*
G01*
X133234800Y-96008001D01*
G75*
G02*
X133184001Y-96058800I-50799J0D01*
G01*
X132583999Y-96058800D01*
G75*
G02*
X132533200Y-96008001I0J50799D01*
G01*
G37*
G36*
G01*
X129986800Y-100284000D02*
X129986800Y-100884000D01*
G75*
G02*
X129936000Y-100934800I-50800J0D01*
G01*
X129536000Y-100934800D01*
G75*
G02*
X129485200Y-100884000I0J50800D01*
G01*
X129485200Y-100284000D01*
G75*
G02*
X129536000Y-100233200I50800J0D01*
G01*
X129936000Y-100233200D01*
G75*
G02*
X129986800Y-100284000I0J-50800D01*
G01*
G37*
G36*
G01*
X129086800Y-100284000D02*
X129086800Y-100884000D01*
G75*
G02*
X129036000Y-100934800I-50800J0D01*
G01*
X128636000Y-100934800D01*
G75*
G02*
X128585200Y-100884000I0J50800D01*
G01*
X128585200Y-100284000D01*
G75*
G02*
X128636000Y-100233200I50800J0D01*
G01*
X129036000Y-100233200D01*
G75*
G02*
X129086800Y-100284000I0J-50800D01*
G01*
G37*
G36*
G01*
X113095800Y-58755000D02*
X113095800Y-59355000D01*
G75*
G02*
X113045000Y-59405800I-50800J0D01*
G01*
X112645000Y-59405800D01*
G75*
G02*
X112594200Y-59355000I0J50800D01*
G01*
X112594200Y-58755000D01*
G75*
G02*
X112645000Y-58704200I50800J0D01*
G01*
X113045000Y-58704200D01*
G75*
G02*
X113095800Y-58755000I0J-50800D01*
G01*
G37*
G36*
G01*
X112195800Y-58755000D02*
X112195800Y-59355000D01*
G75*
G02*
X112145000Y-59405800I-50800J0D01*
G01*
X111745000Y-59405800D01*
G75*
G02*
X111694200Y-59355000I0J50800D01*
G01*
X111694200Y-58755000D01*
G75*
G02*
X111745000Y-58704200I50800J0D01*
G01*
X112145000Y-58704200D01*
G75*
G02*
X112195800Y-58755000I0J-50800D01*
G01*
G37*
G36*
G01*
X114746800Y-57104000D02*
X114746800Y-57704000D01*
G75*
G02*
X114696000Y-57754800I-50800J0D01*
G01*
X114296000Y-57754800D01*
G75*
G02*
X114245200Y-57704000I0J50800D01*
G01*
X114245200Y-57104000D01*
G75*
G02*
X114296000Y-57053200I50800J0D01*
G01*
X114696000Y-57053200D01*
G75*
G02*
X114746800Y-57104000I0J-50800D01*
G01*
G37*
G36*
G01*
X113846800Y-57104000D02*
X113846800Y-57704000D01*
G75*
G02*
X113796000Y-57754800I-50800J0D01*
G01*
X113396000Y-57754800D01*
G75*
G02*
X113345200Y-57704000I0J50800D01*
G01*
X113345200Y-57104000D01*
G75*
G02*
X113396000Y-57053200I50800J0D01*
G01*
X113796000Y-57053200D01*
G75*
G02*
X113846800Y-57104000I0J-50800D01*
G01*
G37*
G36*
G01*
X118664000Y-56580800D02*
X118064000Y-56580800D01*
G75*
G02*
X118013200Y-56530000I0J50800D01*
G01*
X118013200Y-56130000D01*
G75*
G02*
X118064000Y-56079200I50800J0D01*
G01*
X118664000Y-56079200D01*
G75*
G02*
X118714800Y-56130000I0J-50800D01*
G01*
X118714800Y-56530000D01*
G75*
G02*
X118664000Y-56580800I-50800J0D01*
G01*
G37*
G36*
G01*
X118664000Y-55680800D02*
X118064000Y-55680800D01*
G75*
G02*
X118013200Y-55630000I0J50800D01*
G01*
X118013200Y-55230000D01*
G75*
G02*
X118064000Y-55179200I50800J0D01*
G01*
X118664000Y-55179200D01*
G75*
G02*
X118714800Y-55230000I0J-50800D01*
G01*
X118714800Y-55630000D01*
G75*
G02*
X118664000Y-55680800I-50800J0D01*
G01*
G37*
G36*
G01*
X116540000Y-55179200D02*
X117140000Y-55179200D01*
G75*
G02*
X117190800Y-55230000I0J-50800D01*
G01*
X117190800Y-55630000D01*
G75*
G02*
X117140000Y-55680800I-50800J0D01*
G01*
X116540000Y-55680800D01*
G75*
G02*
X116489200Y-55630000I0J50800D01*
G01*
X116489200Y-55230000D01*
G75*
G02*
X116540000Y-55179200I50800J0D01*
G01*
G37*
G36*
G01*
X116540000Y-56079200D02*
X117140000Y-56079200D01*
G75*
G02*
X117190800Y-56130000I0J-50800D01*
G01*
X117190800Y-56530000D01*
G75*
G02*
X117140000Y-56580800I-50800J0D01*
G01*
X116540000Y-56580800D01*
G75*
G02*
X116489200Y-56530000I0J50800D01*
G01*
X116489200Y-56130000D01*
G75*
G02*
X116540000Y-56079200I50800J0D01*
G01*
G37*
G36*
G01*
X116905800Y-58755000D02*
X116905800Y-59355000D01*
G75*
G02*
X116855000Y-59405800I-50800J0D01*
G01*
X116455000Y-59405800D01*
G75*
G02*
X116404200Y-59355000I0J50800D01*
G01*
X116404200Y-58755000D01*
G75*
G02*
X116455000Y-58704200I50800J0D01*
G01*
X116855000Y-58704200D01*
G75*
G02*
X116905800Y-58755000I0J-50800D01*
G01*
G37*
G36*
G01*
X116005800Y-58755000D02*
X116005800Y-59355000D01*
G75*
G02*
X115955000Y-59405800I-50800J0D01*
G01*
X115555000Y-59405800D01*
G75*
G02*
X115504200Y-59355000I0J50800D01*
G01*
X115504200Y-58755000D01*
G75*
G02*
X115555000Y-58704200I50800J0D01*
G01*
X115955000Y-58704200D01*
G75*
G02*
X116005800Y-58755000I0J-50800D01*
G01*
G37*
G36*
G01*
X113345200Y-61006000D02*
X113345200Y-60406000D01*
G75*
G02*
X113396000Y-60355200I50800J0D01*
G01*
X113796000Y-60355200D01*
G75*
G02*
X113846800Y-60406000I0J-50800D01*
G01*
X113846800Y-61006000D01*
G75*
G02*
X113796000Y-61056800I-50800J0D01*
G01*
X113396000Y-61056800D01*
G75*
G02*
X113345200Y-61006000I0J50800D01*
G01*
G37*
G36*
G01*
X114245200Y-61006000D02*
X114245200Y-60406000D01*
G75*
G02*
X114296000Y-60355200I50800J0D01*
G01*
X114696000Y-60355200D01*
G75*
G02*
X114746800Y-60406000I0J-50800D01*
G01*
X114746800Y-61006000D01*
G75*
G02*
X114696000Y-61056800I-50800J0D01*
G01*
X114296000Y-61056800D01*
G75*
G02*
X114245200Y-61006000I0J50800D01*
G01*
G37*
G36*
G01*
X118064000Y-61529200D02*
X118664000Y-61529200D01*
G75*
G02*
X118714800Y-61580000I0J-50800D01*
G01*
X118714800Y-61980000D01*
G75*
G02*
X118664000Y-62030800I-50800J0D01*
G01*
X118064000Y-62030800D01*
G75*
G02*
X118013200Y-61980000I0J50800D01*
G01*
X118013200Y-61580000D01*
G75*
G02*
X118064000Y-61529200I50800J0D01*
G01*
G37*
G36*
G01*
X118064000Y-62429200D02*
X118664000Y-62429200D01*
G75*
G02*
X118714800Y-62480000I0J-50800D01*
G01*
X118714800Y-62880000D01*
G75*
G02*
X118664000Y-62930800I-50800J0D01*
G01*
X118064000Y-62930800D01*
G75*
G02*
X118013200Y-62880000I0J50800D01*
G01*
X118013200Y-62480000D01*
G75*
G02*
X118064000Y-62429200I50800J0D01*
G01*
G37*
G36*
G01*
X117140000Y-62930800D02*
X116540000Y-62930800D01*
G75*
G02*
X116489200Y-62880000I0J50800D01*
G01*
X116489200Y-62480000D01*
G75*
G02*
X116540000Y-62429200I50800J0D01*
G01*
X117140000Y-62429200D01*
G75*
G02*
X117190800Y-62480000I0J-50800D01*
G01*
X117190800Y-62880000D01*
G75*
G02*
X117140000Y-62930800I-50800J0D01*
G01*
G37*
G36*
G01*
X117140000Y-62030800D02*
X116540000Y-62030800D01*
G75*
G02*
X116489200Y-61980000I0J50800D01*
G01*
X116489200Y-61580000D01*
G75*
G02*
X116540000Y-61529200I50800J0D01*
G01*
X117140000Y-61529200D01*
G75*
G02*
X117190800Y-61580000I0J-50800D01*
G01*
X117190800Y-61980000D01*
G75*
G02*
X117140000Y-62030800I-50800J0D01*
G01*
G37*
G36*
G01*
X129474200Y-59355000D02*
X129474200Y-58755000D01*
G75*
G02*
X129525000Y-58704200I50800J0D01*
G01*
X129925000Y-58704200D01*
G75*
G02*
X129975800Y-58755000I0J-50800D01*
G01*
X129975800Y-59355000D01*
G75*
G02*
X129925000Y-59405800I-50800J0D01*
G01*
X129525000Y-59405800D01*
G75*
G02*
X129474200Y-59355000I0J50800D01*
G01*
G37*
G36*
G01*
X130374200Y-59355000D02*
X130374200Y-58755000D01*
G75*
G02*
X130425000Y-58704200I50800J0D01*
G01*
X130825000Y-58704200D01*
G75*
G02*
X130875800Y-58755000I0J-50800D01*
G01*
X130875800Y-59355000D01*
G75*
G02*
X130825000Y-59405800I-50800J0D01*
G01*
X130425000Y-59405800D01*
G75*
G02*
X130374200Y-59355000I0J50800D01*
G01*
G37*
G36*
G01*
X133034800Y-60406000D02*
X133034800Y-61006000D01*
G75*
G02*
X132984000Y-61056800I-50800J0D01*
G01*
X132584000Y-61056800D01*
G75*
G02*
X132533200Y-61006000I0J50800D01*
G01*
X132533200Y-60406000D01*
G75*
G02*
X132584000Y-60355200I50800J0D01*
G01*
X132984000Y-60355200D01*
G75*
G02*
X133034800Y-60406000I0J-50800D01*
G01*
G37*
G36*
G01*
X132134800Y-60406000D02*
X132134800Y-61006000D01*
G75*
G02*
X132084000Y-61056800I-50800J0D01*
G01*
X131684000Y-61056800D01*
G75*
G02*
X131633200Y-61006000I0J50800D01*
G01*
X131633200Y-60406000D01*
G75*
G02*
X131684000Y-60355200I50800J0D01*
G01*
X132084000Y-60355200D01*
G75*
G02*
X132134800Y-60406000I0J-50800D01*
G01*
G37*
G36*
G01*
X127970000Y-61529200D02*
X128570000Y-61529200D01*
G75*
G02*
X128620800Y-61580000I0J-50800D01*
G01*
X128620800Y-61980000D01*
G75*
G02*
X128570000Y-62030800I-50800J0D01*
G01*
X127970000Y-62030800D01*
G75*
G02*
X127919200Y-61980000I0J50800D01*
G01*
X127919200Y-61580000D01*
G75*
G02*
X127970000Y-61529200I50800J0D01*
G01*
G37*
G36*
G01*
X127970000Y-62429200D02*
X128570000Y-62429200D01*
G75*
G02*
X128620800Y-62480000I0J-50800D01*
G01*
X128620800Y-62880000D01*
G75*
G02*
X128570000Y-62930800I-50800J0D01*
G01*
X127970000Y-62930800D01*
G75*
G02*
X127919200Y-62880000I0J50800D01*
G01*
X127919200Y-62480000D01*
G75*
G02*
X127970000Y-62429200I50800J0D01*
G01*
G37*
G36*
G01*
X133284200Y-59355000D02*
X133284200Y-58755000D01*
G75*
G02*
X133335000Y-58704200I50800J0D01*
G01*
X133735000Y-58704200D01*
G75*
G02*
X133785800Y-58755000I0J-50800D01*
G01*
X133785800Y-59355000D01*
G75*
G02*
X133735000Y-59405800I-50800J0D01*
G01*
X133335000Y-59405800D01*
G75*
G02*
X133284200Y-59355000I0J50800D01*
G01*
G37*
G36*
G01*
X134184200Y-59355000D02*
X134184200Y-58755000D01*
G75*
G02*
X134235000Y-58704200I50800J0D01*
G01*
X134635000Y-58704200D01*
G75*
G02*
X134685800Y-58755000I0J-50800D01*
G01*
X134685800Y-59355000D01*
G75*
G02*
X134635000Y-59405800I-50800J0D01*
G01*
X134235000Y-59405800D01*
G75*
G02*
X134184200Y-59355000I0J50800D01*
G01*
G37*
G36*
G01*
X133034800Y-57104000D02*
X133034800Y-57704000D01*
G75*
G02*
X132984000Y-57754800I-50800J0D01*
G01*
X132584000Y-57754800D01*
G75*
G02*
X132533200Y-57704000I0J50800D01*
G01*
X132533200Y-57104000D01*
G75*
G02*
X132584000Y-57053200I50800J0D01*
G01*
X132984000Y-57053200D01*
G75*
G02*
X133034800Y-57104000I0J-50800D01*
G01*
G37*
G36*
G01*
X132134800Y-57104000D02*
X132134800Y-57704000D01*
G75*
G02*
X132084000Y-57754800I-50800J0D01*
G01*
X131684000Y-57754800D01*
G75*
G02*
X131633200Y-57704000I0J50800D01*
G01*
X131633200Y-57104000D01*
G75*
G02*
X131684000Y-57053200I50800J0D01*
G01*
X132084000Y-57053200D01*
G75*
G02*
X132134800Y-57104000I0J-50800D01*
G01*
G37*
G36*
G01*
X128570000Y-56580800D02*
X127970000Y-56580800D01*
G75*
G02*
X127919200Y-56530000I0J50800D01*
G01*
X127919200Y-56130000D01*
G75*
G02*
X127970000Y-56079200I50800J0D01*
G01*
X128570000Y-56079200D01*
G75*
G02*
X128620800Y-56130000I0J-50800D01*
G01*
X128620800Y-56530000D01*
G75*
G02*
X128570000Y-56580800I-50800J0D01*
G01*
G37*
G36*
G01*
X128570000Y-55680800D02*
X127970000Y-55680800D01*
G75*
G02*
X127919200Y-55630000I0J50800D01*
G01*
X127919200Y-55230000D01*
G75*
G02*
X127970000Y-55179200I50800J0D01*
G01*
X128570000Y-55179200D01*
G75*
G02*
X128620800Y-55230000I0J-50800D01*
G01*
X128620800Y-55630000D01*
G75*
G02*
X128570000Y-55680800I-50800J0D01*
G01*
G37*
G36*
G01*
X129494000Y-55179200D02*
X130094000Y-55179200D01*
G75*
G02*
X130144800Y-55230000I0J-50800D01*
G01*
X130144800Y-55630000D01*
G75*
G02*
X130094000Y-55680800I-50800J0D01*
G01*
X129494000Y-55680800D01*
G75*
G02*
X129443200Y-55630000I0J50800D01*
G01*
X129443200Y-55230000D01*
G75*
G02*
X129494000Y-55179200I50800J0D01*
G01*
G37*
G36*
G01*
X129494000Y-56079200D02*
X130094000Y-56079200D01*
G75*
G02*
X130144800Y-56130000I0J-50800D01*
G01*
X130144800Y-56530000D01*
G75*
G02*
X130094000Y-56580800I-50800J0D01*
G01*
X129494000Y-56580800D01*
G75*
G02*
X129443200Y-56530000I0J50800D01*
G01*
X129443200Y-56130000D01*
G75*
G02*
X129494000Y-56079200I50800J0D01*
G01*
G37*
G36*
G01*
X113095800Y-68915000D02*
X113095800Y-69515000D01*
G75*
G02*
X113045000Y-69565800I-50800J0D01*
G01*
X112645000Y-69565800D01*
G75*
G02*
X112594200Y-69515000I0J50800D01*
G01*
X112594200Y-68915000D01*
G75*
G02*
X112645000Y-68864200I50800J0D01*
G01*
X113045000Y-68864200D01*
G75*
G02*
X113095800Y-68915000I0J-50800D01*
G01*
G37*
G36*
G01*
X112195800Y-68915000D02*
X112195800Y-69515000D01*
G75*
G02*
X112145000Y-69565800I-50800J0D01*
G01*
X111745000Y-69565800D01*
G75*
G02*
X111694200Y-69515000I0J50800D01*
G01*
X111694200Y-68915000D01*
G75*
G02*
X111745000Y-68864200I50800J0D01*
G01*
X112145000Y-68864200D01*
G75*
G02*
X112195800Y-68915000I0J-50800D01*
G01*
G37*
G36*
G01*
X114746800Y-67264000D02*
X114746800Y-67864000D01*
G75*
G02*
X114696000Y-67914800I-50800J0D01*
G01*
X114296000Y-67914800D01*
G75*
G02*
X114245200Y-67864000I0J50800D01*
G01*
X114245200Y-67264000D01*
G75*
G02*
X114296000Y-67213200I50800J0D01*
G01*
X114696000Y-67213200D01*
G75*
G02*
X114746800Y-67264000I0J-50800D01*
G01*
G37*
G36*
G01*
X113846800Y-67264000D02*
X113846800Y-67864000D01*
G75*
G02*
X113796000Y-67914800I-50800J0D01*
G01*
X113396000Y-67914800D01*
G75*
G02*
X113345200Y-67864000I0J50800D01*
G01*
X113345200Y-67264000D01*
G75*
G02*
X113396000Y-67213200I50800J0D01*
G01*
X113796000Y-67213200D01*
G75*
G02*
X113846800Y-67264000I0J-50800D01*
G01*
G37*
G36*
G01*
X118410000Y-66740800D02*
X117810000Y-66740800D01*
G75*
G02*
X117759200Y-66690000I0J50800D01*
G01*
X117759200Y-66290000D01*
G75*
G02*
X117810000Y-66239200I50800J0D01*
G01*
X118410000Y-66239200D01*
G75*
G02*
X118460800Y-66290000I0J-50800D01*
G01*
X118460800Y-66690000D01*
G75*
G02*
X118410000Y-66740800I-50800J0D01*
G01*
G37*
G36*
G01*
X118410000Y-65840800D02*
X117810000Y-65840800D01*
G75*
G02*
X117759200Y-65790000I0J50800D01*
G01*
X117759200Y-65390000D01*
G75*
G02*
X117810000Y-65339200I50800J0D01*
G01*
X118410000Y-65339200D01*
G75*
G02*
X118460800Y-65390000I0J-50800D01*
G01*
X118460800Y-65790000D01*
G75*
G02*
X118410000Y-65840800I-50800J0D01*
G01*
G37*
G36*
G01*
X116286000Y-65339200D02*
X116886000Y-65339200D01*
G75*
G02*
X116936800Y-65390000I0J-50800D01*
G01*
X116936800Y-65790000D01*
G75*
G02*
X116886000Y-65840800I-50800J0D01*
G01*
X116286000Y-65840800D01*
G75*
G02*
X116235200Y-65790000I0J50800D01*
G01*
X116235200Y-65390000D01*
G75*
G02*
X116286000Y-65339200I50800J0D01*
G01*
G37*
G36*
G01*
X116286000Y-66239200D02*
X116886000Y-66239200D01*
G75*
G02*
X116936800Y-66290000I0J-50800D01*
G01*
X116936800Y-66690000D01*
G75*
G02*
X116886000Y-66740800I-50800J0D01*
G01*
X116286000Y-66740800D01*
G75*
G02*
X116235200Y-66690000I0J50800D01*
G01*
X116235200Y-66290000D01*
G75*
G02*
X116286000Y-66239200I50800J0D01*
G01*
G37*
G36*
G01*
X116905800Y-68915000D02*
X116905800Y-69515000D01*
G75*
G02*
X116855000Y-69565800I-50800J0D01*
G01*
X116455000Y-69565800D01*
G75*
G02*
X116404200Y-69515000I0J50800D01*
G01*
X116404200Y-68915000D01*
G75*
G02*
X116455000Y-68864200I50800J0D01*
G01*
X116855000Y-68864200D01*
G75*
G02*
X116905800Y-68915000I0J-50800D01*
G01*
G37*
G36*
G01*
X116005800Y-68915000D02*
X116005800Y-69515000D01*
G75*
G02*
X115955000Y-69565800I-50800J0D01*
G01*
X115555000Y-69565800D01*
G75*
G02*
X115504200Y-69515000I0J50800D01*
G01*
X115504200Y-68915000D01*
G75*
G02*
X115555000Y-68864200I50800J0D01*
G01*
X115955000Y-68864200D01*
G75*
G02*
X116005800Y-68915000I0J-50800D01*
G01*
G37*
G36*
G01*
X113345200Y-71166000D02*
X113345200Y-70566000D01*
G75*
G02*
X113396000Y-70515200I50800J0D01*
G01*
X113796000Y-70515200D01*
G75*
G02*
X113846800Y-70566000I0J-50800D01*
G01*
X113846800Y-71166000D01*
G75*
G02*
X113796000Y-71216800I-50800J0D01*
G01*
X113396000Y-71216800D01*
G75*
G02*
X113345200Y-71166000I0J50800D01*
G01*
G37*
G36*
G01*
X114245200Y-71166000D02*
X114245200Y-70566000D01*
G75*
G02*
X114296000Y-70515200I50800J0D01*
G01*
X114696000Y-70515200D01*
G75*
G02*
X114746800Y-70566000I0J-50800D01*
G01*
X114746800Y-71166000D01*
G75*
G02*
X114696000Y-71216800I-50800J0D01*
G01*
X114296000Y-71216800D01*
G75*
G02*
X114245200Y-71166000I0J50800D01*
G01*
G37*
G36*
G01*
X117810000Y-71689200D02*
X118410000Y-71689200D01*
G75*
G02*
X118460800Y-71740000I0J-50800D01*
G01*
X118460800Y-72140000D01*
G75*
G02*
X118410000Y-72190800I-50800J0D01*
G01*
X117810000Y-72190800D01*
G75*
G02*
X117759200Y-72140000I0J50800D01*
G01*
X117759200Y-71740000D01*
G75*
G02*
X117810000Y-71689200I50800J0D01*
G01*
G37*
G36*
G01*
X117810000Y-72589200D02*
X118410000Y-72589200D01*
G75*
G02*
X118460800Y-72640000I0J-50800D01*
G01*
X118460800Y-73040000D01*
G75*
G02*
X118410000Y-73090800I-50800J0D01*
G01*
X117810000Y-73090800D01*
G75*
G02*
X117759200Y-73040000I0J50800D01*
G01*
X117759200Y-72640000D01*
G75*
G02*
X117810000Y-72589200I50800J0D01*
G01*
G37*
G36*
G01*
X116886000Y-73090800D02*
X116286000Y-73090800D01*
G75*
G02*
X116235200Y-73040000I0J50800D01*
G01*
X116235200Y-72640000D01*
G75*
G02*
X116286000Y-72589200I50800J0D01*
G01*
X116886000Y-72589200D01*
G75*
G02*
X116936800Y-72640000I0J-50800D01*
G01*
X116936800Y-73040000D01*
G75*
G02*
X116886000Y-73090800I-50800J0D01*
G01*
G37*
G36*
G01*
X116886000Y-72190800D02*
X116286000Y-72190800D01*
G75*
G02*
X116235200Y-72140000I0J50800D01*
G01*
X116235200Y-71740000D01*
G75*
G02*
X116286000Y-71689200I50800J0D01*
G01*
X116886000Y-71689200D01*
G75*
G02*
X116936800Y-71740000I0J-50800D01*
G01*
X116936800Y-72140000D01*
G75*
G02*
X116886000Y-72190800I-50800J0D01*
G01*
G37*
G36*
G01*
X129474200Y-69515000D02*
X129474200Y-68915000D01*
G75*
G02*
X129525000Y-68864200I50800J0D01*
G01*
X129925000Y-68864200D01*
G75*
G02*
X129975800Y-68915000I0J-50800D01*
G01*
X129975800Y-69515000D01*
G75*
G02*
X129925000Y-69565800I-50800J0D01*
G01*
X129525000Y-69565800D01*
G75*
G02*
X129474200Y-69515000I0J50800D01*
G01*
G37*
G36*
G01*
X130374200Y-69515000D02*
X130374200Y-68915000D01*
G75*
G02*
X130425000Y-68864200I50800J0D01*
G01*
X130825000Y-68864200D01*
G75*
G02*
X130875800Y-68915000I0J-50800D01*
G01*
X130875800Y-69515000D01*
G75*
G02*
X130825000Y-69565800I-50800J0D01*
G01*
X130425000Y-69565800D01*
G75*
G02*
X130374200Y-69515000I0J50800D01*
G01*
G37*
G36*
G01*
X133034800Y-70566000D02*
X133034800Y-71166000D01*
G75*
G02*
X132984000Y-71216800I-50800J0D01*
G01*
X132584000Y-71216800D01*
G75*
G02*
X132533200Y-71166000I0J50800D01*
G01*
X132533200Y-70566000D01*
G75*
G02*
X132584000Y-70515200I50800J0D01*
G01*
X132984000Y-70515200D01*
G75*
G02*
X133034800Y-70566000I0J-50800D01*
G01*
G37*
G36*
G01*
X132134800Y-70566000D02*
X132134800Y-71166000D01*
G75*
G02*
X132084000Y-71216800I-50800J0D01*
G01*
X131684000Y-71216800D01*
G75*
G02*
X131633200Y-71166000I0J50800D01*
G01*
X131633200Y-70566000D01*
G75*
G02*
X131684000Y-70515200I50800J0D01*
G01*
X132084000Y-70515200D01*
G75*
G02*
X132134800Y-70566000I0J-50800D01*
G01*
G37*
G36*
G01*
X127970000Y-71689200D02*
X128570000Y-71689200D01*
G75*
G02*
X128620800Y-71740000I0J-50800D01*
G01*
X128620800Y-72140000D01*
G75*
G02*
X128570000Y-72190800I-50800J0D01*
G01*
X127970000Y-72190800D01*
G75*
G02*
X127919200Y-72140000I0J50800D01*
G01*
X127919200Y-71740000D01*
G75*
G02*
X127970000Y-71689200I50800J0D01*
G01*
G37*
G36*
G01*
X127970000Y-72589200D02*
X128570000Y-72589200D01*
G75*
G02*
X128620800Y-72640000I0J-50800D01*
G01*
X128620800Y-73040000D01*
G75*
G02*
X128570000Y-73090800I-50800J0D01*
G01*
X127970000Y-73090800D01*
G75*
G02*
X127919200Y-73040000I0J50800D01*
G01*
X127919200Y-72640000D01*
G75*
G02*
X127970000Y-72589200I50800J0D01*
G01*
G37*
G36*
G01*
X130094000Y-73090800D02*
X129494000Y-73090800D01*
G75*
G02*
X129443200Y-73040000I0J50800D01*
G01*
X129443200Y-72640000D01*
G75*
G02*
X129494000Y-72589200I50800J0D01*
G01*
X130094000Y-72589200D01*
G75*
G02*
X130144800Y-72640000I0J-50800D01*
G01*
X130144800Y-73040000D01*
G75*
G02*
X130094000Y-73090800I-50800J0D01*
G01*
G37*
G36*
G01*
X130094000Y-72190800D02*
X129494000Y-72190800D01*
G75*
G02*
X129443200Y-72140000I0J50800D01*
G01*
X129443200Y-71740000D01*
G75*
G02*
X129494000Y-71689200I50800J0D01*
G01*
X130094000Y-71689200D01*
G75*
G02*
X130144800Y-71740000I0J-50800D01*
G01*
X130144800Y-72140000D01*
G75*
G02*
X130094000Y-72190800I-50800J0D01*
G01*
G37*
G36*
G01*
X133284200Y-69515000D02*
X133284200Y-68915000D01*
G75*
G02*
X133335000Y-68864200I50800J0D01*
G01*
X133735000Y-68864200D01*
G75*
G02*
X133785800Y-68915000I0J-50800D01*
G01*
X133785800Y-69515000D01*
G75*
G02*
X133735000Y-69565800I-50800J0D01*
G01*
X133335000Y-69565800D01*
G75*
G02*
X133284200Y-69515000I0J50800D01*
G01*
G37*
G36*
G01*
X134184200Y-69515000D02*
X134184200Y-68915000D01*
G75*
G02*
X134235000Y-68864200I50800J0D01*
G01*
X134635000Y-68864200D01*
G75*
G02*
X134685800Y-68915000I0J-50800D01*
G01*
X134685800Y-69515000D01*
G75*
G02*
X134635000Y-69565800I-50800J0D01*
G01*
X134235000Y-69565800D01*
G75*
G02*
X134184200Y-69515000I0J50800D01*
G01*
G37*
G36*
G01*
X133034800Y-67264000D02*
X133034800Y-67864000D01*
G75*
G02*
X132984000Y-67914800I-50800J0D01*
G01*
X132584000Y-67914800D01*
G75*
G02*
X132533200Y-67864000I0J50800D01*
G01*
X132533200Y-67264000D01*
G75*
G02*
X132584000Y-67213200I50800J0D01*
G01*
X132984000Y-67213200D01*
G75*
G02*
X133034800Y-67264000I0J-50800D01*
G01*
G37*
G36*
G01*
X132134800Y-67264000D02*
X132134800Y-67864000D01*
G75*
G02*
X132084000Y-67914800I-50800J0D01*
G01*
X131684000Y-67914800D01*
G75*
G02*
X131633200Y-67864000I0J50800D01*
G01*
X131633200Y-67264000D01*
G75*
G02*
X131684000Y-67213200I50800J0D01*
G01*
X132084000Y-67213200D01*
G75*
G02*
X132134800Y-67264000I0J-50800D01*
G01*
G37*
G36*
G01*
X128570000Y-66740800D02*
X127970000Y-66740800D01*
G75*
G02*
X127919200Y-66690000I0J50800D01*
G01*
X127919200Y-66290000D01*
G75*
G02*
X127970000Y-66239200I50800J0D01*
G01*
X128570000Y-66239200D01*
G75*
G02*
X128620800Y-66290000I0J-50800D01*
G01*
X128620800Y-66690000D01*
G75*
G02*
X128570000Y-66740800I-50800J0D01*
G01*
G37*
G36*
G01*
X128570000Y-65840800D02*
X127970000Y-65840800D01*
G75*
G02*
X127919200Y-65790000I0J50800D01*
G01*
X127919200Y-65390000D01*
G75*
G02*
X127970000Y-65339200I50800J0D01*
G01*
X128570000Y-65339200D01*
G75*
G02*
X128620800Y-65390000I0J-50800D01*
G01*
X128620800Y-65790000D01*
G75*
G02*
X128570000Y-65840800I-50800J0D01*
G01*
G37*
G36*
G01*
X129494000Y-65339200D02*
X130094000Y-65339200D01*
G75*
G02*
X130144800Y-65390000I0J-50800D01*
G01*
X130144800Y-65790000D01*
G75*
G02*
X130094000Y-65840800I-50800J0D01*
G01*
X129494000Y-65840800D01*
G75*
G02*
X129443200Y-65790000I0J50800D01*
G01*
X129443200Y-65390000D01*
G75*
G02*
X129494000Y-65339200I50800J0D01*
G01*
G37*
G36*
G01*
X129494000Y-66239200D02*
X130094000Y-66239200D01*
G75*
G02*
X130144800Y-66290000I0J-50800D01*
G01*
X130144800Y-66690000D01*
G75*
G02*
X130094000Y-66740800I-50800J0D01*
G01*
X129494000Y-66740800D01*
G75*
G02*
X129443200Y-66690000I0J50800D01*
G01*
X129443200Y-66290000D01*
G75*
G02*
X129494000Y-66239200I50800J0D01*
G01*
G37*
G36*
G01*
X113095800Y-81615000D02*
X113095800Y-82215000D01*
G75*
G02*
X113045000Y-82265800I-50800J0D01*
G01*
X112645000Y-82265800D01*
G75*
G02*
X112594200Y-82215000I0J50800D01*
G01*
X112594200Y-81615000D01*
G75*
G02*
X112645000Y-81564200I50800J0D01*
G01*
X113045000Y-81564200D01*
G75*
G02*
X113095800Y-81615000I0J-50800D01*
G01*
G37*
G36*
G01*
X112195800Y-81615000D02*
X112195800Y-82215000D01*
G75*
G02*
X112145000Y-82265800I-50800J0D01*
G01*
X111745000Y-82265800D01*
G75*
G02*
X111694200Y-82215000I0J50800D01*
G01*
X111694200Y-81615000D01*
G75*
G02*
X111745000Y-81564200I50800J0D01*
G01*
X112145000Y-81564200D01*
G75*
G02*
X112195800Y-81615000I0J-50800D01*
G01*
G37*
G36*
G01*
X114746800Y-79964000D02*
X114746800Y-80564000D01*
G75*
G02*
X114696000Y-80614800I-50800J0D01*
G01*
X114296000Y-80614800D01*
G75*
G02*
X114245200Y-80564000I0J50800D01*
G01*
X114245200Y-79964000D01*
G75*
G02*
X114296000Y-79913200I50800J0D01*
G01*
X114696000Y-79913200D01*
G75*
G02*
X114746800Y-79964000I0J-50800D01*
G01*
G37*
G36*
G01*
X113846800Y-79964000D02*
X113846800Y-80564000D01*
G75*
G02*
X113796000Y-80614800I-50800J0D01*
G01*
X113396000Y-80614800D01*
G75*
G02*
X113345200Y-80564000I0J50800D01*
G01*
X113345200Y-79964000D01*
G75*
G02*
X113396000Y-79913200I50800J0D01*
G01*
X113796000Y-79913200D01*
G75*
G02*
X113846800Y-79964000I0J-50800D01*
G01*
G37*
G36*
G01*
X118410000Y-79440800D02*
X117810000Y-79440800D01*
G75*
G02*
X117759200Y-79390000I0J50800D01*
G01*
X117759200Y-78990000D01*
G75*
G02*
X117810000Y-78939200I50800J0D01*
G01*
X118410000Y-78939200D01*
G75*
G02*
X118460800Y-78990000I0J-50800D01*
G01*
X118460800Y-79390000D01*
G75*
G02*
X118410000Y-79440800I-50800J0D01*
G01*
G37*
G36*
G01*
X118410000Y-78540800D02*
X117810000Y-78540800D01*
G75*
G02*
X117759200Y-78490000I0J50800D01*
G01*
X117759200Y-78090000D01*
G75*
G02*
X117810000Y-78039200I50800J0D01*
G01*
X118410000Y-78039200D01*
G75*
G02*
X118460800Y-78090000I0J-50800D01*
G01*
X118460800Y-78490000D01*
G75*
G02*
X118410000Y-78540800I-50800J0D01*
G01*
G37*
G36*
G01*
X116286000Y-78039200D02*
X116886000Y-78039200D01*
G75*
G02*
X116936800Y-78090000I0J-50800D01*
G01*
X116936800Y-78490000D01*
G75*
G02*
X116886000Y-78540800I-50800J0D01*
G01*
X116286000Y-78540800D01*
G75*
G02*
X116235200Y-78490000I0J50800D01*
G01*
X116235200Y-78090000D01*
G75*
G02*
X116286000Y-78039200I50800J0D01*
G01*
G37*
G36*
G01*
X116286000Y-78939200D02*
X116886000Y-78939200D01*
G75*
G02*
X116936800Y-78990000I0J-50800D01*
G01*
X116936800Y-79390000D01*
G75*
G02*
X116886000Y-79440800I-50800J0D01*
G01*
X116286000Y-79440800D01*
G75*
G02*
X116235200Y-79390000I0J50800D01*
G01*
X116235200Y-78990000D01*
G75*
G02*
X116286000Y-78939200I50800J0D01*
G01*
G37*
G36*
G01*
X116905800Y-81615000D02*
X116905800Y-82215000D01*
G75*
G02*
X116855000Y-82265800I-50800J0D01*
G01*
X116455000Y-82265800D01*
G75*
G02*
X116404200Y-82215000I0J50800D01*
G01*
X116404200Y-81615000D01*
G75*
G02*
X116455000Y-81564200I50800J0D01*
G01*
X116855000Y-81564200D01*
G75*
G02*
X116905800Y-81615000I0J-50800D01*
G01*
G37*
G36*
G01*
X116005800Y-81615000D02*
X116005800Y-82215000D01*
G75*
G02*
X115955000Y-82265800I-50800J0D01*
G01*
X115555000Y-82265800D01*
G75*
G02*
X115504200Y-82215000I0J50800D01*
G01*
X115504200Y-81615000D01*
G75*
G02*
X115555000Y-81564200I50800J0D01*
G01*
X115955000Y-81564200D01*
G75*
G02*
X116005800Y-81615000I0J-50800D01*
G01*
G37*
G36*
G01*
X113345200Y-83866000D02*
X113345200Y-83266000D01*
G75*
G02*
X113396000Y-83215200I50800J0D01*
G01*
X113796000Y-83215200D01*
G75*
G02*
X113846800Y-83266000I0J-50800D01*
G01*
X113846800Y-83866000D01*
G75*
G02*
X113796000Y-83916800I-50800J0D01*
G01*
X113396000Y-83916800D01*
G75*
G02*
X113345200Y-83866000I0J50800D01*
G01*
G37*
G36*
G01*
X114245200Y-83866000D02*
X114245200Y-83266000D01*
G75*
G02*
X114296000Y-83215200I50800J0D01*
G01*
X114696000Y-83215200D01*
G75*
G02*
X114746800Y-83266000I0J-50800D01*
G01*
X114746800Y-83866000D01*
G75*
G02*
X114696000Y-83916800I-50800J0D01*
G01*
X114296000Y-83916800D01*
G75*
G02*
X114245200Y-83866000I0J50800D01*
G01*
G37*
G36*
G01*
X116886000Y-85790800D02*
X116286000Y-85790800D01*
G75*
G02*
X116235200Y-85740000I0J50800D01*
G01*
X116235200Y-85340000D01*
G75*
G02*
X116286000Y-85289200I50800J0D01*
G01*
X116886000Y-85289200D01*
G75*
G02*
X116936800Y-85340000I0J-50800D01*
G01*
X116936800Y-85740000D01*
G75*
G02*
X116886000Y-85790800I-50800J0D01*
G01*
G37*
G36*
G01*
X116886000Y-84890800D02*
X116286000Y-84890800D01*
G75*
G02*
X116235200Y-84840000I0J50800D01*
G01*
X116235200Y-84440000D01*
G75*
G02*
X116286000Y-84389200I50800J0D01*
G01*
X116886000Y-84389200D01*
G75*
G02*
X116936800Y-84440000I0J-50800D01*
G01*
X116936800Y-84840000D01*
G75*
G02*
X116886000Y-84890800I-50800J0D01*
G01*
G37*
G36*
G01*
X129474200Y-82215000D02*
X129474200Y-81615000D01*
G75*
G02*
X129525000Y-81564200I50800J0D01*
G01*
X129925000Y-81564200D01*
G75*
G02*
X129975800Y-81615000I0J-50800D01*
G01*
X129975800Y-82215000D01*
G75*
G02*
X129925000Y-82265800I-50800J0D01*
G01*
X129525000Y-82265800D01*
G75*
G02*
X129474200Y-82215000I0J50800D01*
G01*
G37*
G36*
G01*
X130374200Y-82215000D02*
X130374200Y-81615000D01*
G75*
G02*
X130425000Y-81564200I50800J0D01*
G01*
X130825000Y-81564200D01*
G75*
G02*
X130875800Y-81615000I0J-50800D01*
G01*
X130875800Y-82215000D01*
G75*
G02*
X130825000Y-82265800I-50800J0D01*
G01*
X130425000Y-82265800D01*
G75*
G02*
X130374200Y-82215000I0J50800D01*
G01*
G37*
G36*
G01*
X133034800Y-83266000D02*
X133034800Y-83866000D01*
G75*
G02*
X132984000Y-83916800I-50800J0D01*
G01*
X132584000Y-83916800D01*
G75*
G02*
X132533200Y-83866000I0J50800D01*
G01*
X132533200Y-83266000D01*
G75*
G02*
X132584000Y-83215200I50800J0D01*
G01*
X132984000Y-83215200D01*
G75*
G02*
X133034800Y-83266000I0J-50800D01*
G01*
G37*
G36*
G01*
X132134800Y-83266000D02*
X132134800Y-83866000D01*
G75*
G02*
X132084000Y-83916800I-50800J0D01*
G01*
X131684000Y-83916800D01*
G75*
G02*
X131633200Y-83866000I0J50800D01*
G01*
X131633200Y-83266000D01*
G75*
G02*
X131684000Y-83215200I50800J0D01*
G01*
X132084000Y-83215200D01*
G75*
G02*
X132134800Y-83266000I0J-50800D01*
G01*
G37*
G36*
G01*
X127970000Y-84389200D02*
X128570000Y-84389200D01*
G75*
G02*
X128620800Y-84440000I0J-50800D01*
G01*
X128620800Y-84840000D01*
G75*
G02*
X128570000Y-84890800I-50800J0D01*
G01*
X127970000Y-84890800D01*
G75*
G02*
X127919200Y-84840000I0J50800D01*
G01*
X127919200Y-84440000D01*
G75*
G02*
X127970000Y-84389200I50800J0D01*
G01*
G37*
G36*
G01*
X127970000Y-85289200D02*
X128570000Y-85289200D01*
G75*
G02*
X128620800Y-85340000I0J-50800D01*
G01*
X128620800Y-85740000D01*
G75*
G02*
X128570000Y-85790800I-50800J0D01*
G01*
X127970000Y-85790800D01*
G75*
G02*
X127919200Y-85740000I0J50800D01*
G01*
X127919200Y-85340000D01*
G75*
G02*
X127970000Y-85289200I50800J0D01*
G01*
G37*
G36*
G01*
X130094000Y-85790800D02*
X129494000Y-85790800D01*
G75*
G02*
X129443200Y-85740000I0J50800D01*
G01*
X129443200Y-85340000D01*
G75*
G02*
X129494000Y-85289200I50800J0D01*
G01*
X130094000Y-85289200D01*
G75*
G02*
X130144800Y-85340000I0J-50800D01*
G01*
X130144800Y-85740000D01*
G75*
G02*
X130094000Y-85790800I-50800J0D01*
G01*
G37*
G36*
G01*
X130094000Y-84890800D02*
X129494000Y-84890800D01*
G75*
G02*
X129443200Y-84840000I0J50800D01*
G01*
X129443200Y-84440000D01*
G75*
G02*
X129494000Y-84389200I50800J0D01*
G01*
X130094000Y-84389200D01*
G75*
G02*
X130144800Y-84440000I0J-50800D01*
G01*
X130144800Y-84840000D01*
G75*
G02*
X130094000Y-84890800I-50800J0D01*
G01*
G37*
G36*
G01*
X134685800Y-81615000D02*
X134685800Y-82215000D01*
G75*
G02*
X134635000Y-82265800I-50800J0D01*
G01*
X134235000Y-82265800D01*
G75*
G02*
X134184200Y-82215000I0J50800D01*
G01*
X134184200Y-81615000D01*
G75*
G02*
X134235000Y-81564200I50800J0D01*
G01*
X134635000Y-81564200D01*
G75*
G02*
X134685800Y-81615000I0J-50800D01*
G01*
G37*
G36*
G01*
X133785800Y-81615000D02*
X133785800Y-82215000D01*
G75*
G02*
X133735000Y-82265800I-50800J0D01*
G01*
X133335000Y-82265800D01*
G75*
G02*
X133284200Y-82215000I0J50800D01*
G01*
X133284200Y-81615000D01*
G75*
G02*
X133335000Y-81564200I50800J0D01*
G01*
X133735000Y-81564200D01*
G75*
G02*
X133785800Y-81615000I0J-50800D01*
G01*
G37*
G36*
G01*
X133034800Y-79964000D02*
X133034800Y-80564000D01*
G75*
G02*
X132984000Y-80614800I-50800J0D01*
G01*
X132584000Y-80614800D01*
G75*
G02*
X132533200Y-80564000I0J50800D01*
G01*
X132533200Y-79964000D01*
G75*
G02*
X132584000Y-79913200I50800J0D01*
G01*
X132984000Y-79913200D01*
G75*
G02*
X133034800Y-79964000I0J-50800D01*
G01*
G37*
G36*
G01*
X132134800Y-79964000D02*
X132134800Y-80564000D01*
G75*
G02*
X132084000Y-80614800I-50800J0D01*
G01*
X131684000Y-80614800D01*
G75*
G02*
X131633200Y-80564000I0J50800D01*
G01*
X131633200Y-79964000D01*
G75*
G02*
X131684000Y-79913200I50800J0D01*
G01*
X132084000Y-79913200D01*
G75*
G02*
X132134800Y-79964000I0J-50800D01*
G01*
G37*
G36*
G01*
X128570000Y-79440800D02*
X127970000Y-79440800D01*
G75*
G02*
X127919200Y-79390000I0J50800D01*
G01*
X127919200Y-78990000D01*
G75*
G02*
X127970000Y-78939200I50800J0D01*
G01*
X128570000Y-78939200D01*
G75*
G02*
X128620800Y-78990000I0J-50800D01*
G01*
X128620800Y-79390000D01*
G75*
G02*
X128570000Y-79440800I-50800J0D01*
G01*
G37*
G36*
G01*
X128570000Y-78540800D02*
X127970000Y-78540800D01*
G75*
G02*
X127919200Y-78490000I0J50800D01*
G01*
X127919200Y-78090000D01*
G75*
G02*
X127970000Y-78039200I50800J0D01*
G01*
X128570000Y-78039200D01*
G75*
G02*
X128620800Y-78090000I0J-50800D01*
G01*
X128620800Y-78490000D01*
G75*
G02*
X128570000Y-78540800I-50800J0D01*
G01*
G37*
G36*
G01*
X129494000Y-78039200D02*
X130094000Y-78039200D01*
G75*
G02*
X130144800Y-78090000I0J-50800D01*
G01*
X130144800Y-78490000D01*
G75*
G02*
X130094000Y-78540800I-50800J0D01*
G01*
X129494000Y-78540800D01*
G75*
G02*
X129443200Y-78490000I0J50800D01*
G01*
X129443200Y-78090000D01*
G75*
G02*
X129494000Y-78039200I50800J0D01*
G01*
G37*
G36*
G01*
X129494000Y-78939200D02*
X130094000Y-78939200D01*
G75*
G02*
X130144800Y-78990000I0J-50800D01*
G01*
X130144800Y-79390000D01*
G75*
G02*
X130094000Y-79440800I-50800J0D01*
G01*
X129494000Y-79440800D01*
G75*
G02*
X129443200Y-79390000I0J50800D01*
G01*
X129443200Y-78990000D01*
G75*
G02*
X129494000Y-78939200I50800J0D01*
G01*
G37*
G36*
G01*
X113095800Y-91775000D02*
X113095800Y-92375000D01*
G75*
G02*
X113045000Y-92425800I-50800J0D01*
G01*
X112645000Y-92425800D01*
G75*
G02*
X112594200Y-92375000I0J50800D01*
G01*
X112594200Y-91775000D01*
G75*
G02*
X112645000Y-91724200I50800J0D01*
G01*
X113045000Y-91724200D01*
G75*
G02*
X113095800Y-91775000I0J-50800D01*
G01*
G37*
G36*
G01*
X112195800Y-91775000D02*
X112195800Y-92375000D01*
G75*
G02*
X112145000Y-92425800I-50800J0D01*
G01*
X111745000Y-92425800D01*
G75*
G02*
X111694200Y-92375000I0J50800D01*
G01*
X111694200Y-91775000D01*
G75*
G02*
X111745000Y-91724200I50800J0D01*
G01*
X112145000Y-91724200D01*
G75*
G02*
X112195800Y-91775000I0J-50800D01*
G01*
G37*
G36*
G01*
X114746800Y-90124000D02*
X114746800Y-90724000D01*
G75*
G02*
X114696000Y-90774800I-50800J0D01*
G01*
X114296000Y-90774800D01*
G75*
G02*
X114245200Y-90724000I0J50800D01*
G01*
X114245200Y-90124000D01*
G75*
G02*
X114296000Y-90073200I50800J0D01*
G01*
X114696000Y-90073200D01*
G75*
G02*
X114746800Y-90124000I0J-50800D01*
G01*
G37*
G36*
G01*
X113846800Y-90124000D02*
X113846800Y-90724000D01*
G75*
G02*
X113796000Y-90774800I-50800J0D01*
G01*
X113396000Y-90774800D01*
G75*
G02*
X113345200Y-90724000I0J50800D01*
G01*
X113345200Y-90124000D01*
G75*
G02*
X113396000Y-90073200I50800J0D01*
G01*
X113796000Y-90073200D01*
G75*
G02*
X113846800Y-90124000I0J-50800D01*
G01*
G37*
G36*
G01*
X118410000Y-89600800D02*
X117810000Y-89600800D01*
G75*
G02*
X117759200Y-89550000I0J50800D01*
G01*
X117759200Y-89150000D01*
G75*
G02*
X117810000Y-89099200I50800J0D01*
G01*
X118410000Y-89099200D01*
G75*
G02*
X118460800Y-89150000I0J-50800D01*
G01*
X118460800Y-89550000D01*
G75*
G02*
X118410000Y-89600800I-50800J0D01*
G01*
G37*
G36*
G01*
X118410000Y-88700800D02*
X117810000Y-88700800D01*
G75*
G02*
X117759200Y-88650000I0J50800D01*
G01*
X117759200Y-88250000D01*
G75*
G02*
X117810000Y-88199200I50800J0D01*
G01*
X118410000Y-88199200D01*
G75*
G02*
X118460800Y-88250000I0J-50800D01*
G01*
X118460800Y-88650000D01*
G75*
G02*
X118410000Y-88700800I-50800J0D01*
G01*
G37*
G36*
G01*
X116286000Y-88199200D02*
X116886000Y-88199200D01*
G75*
G02*
X116936800Y-88250000I0J-50800D01*
G01*
X116936800Y-88650000D01*
G75*
G02*
X116886000Y-88700800I-50800J0D01*
G01*
X116286000Y-88700800D01*
G75*
G02*
X116235200Y-88650000I0J50800D01*
G01*
X116235200Y-88250000D01*
G75*
G02*
X116286000Y-88199200I50800J0D01*
G01*
G37*
G36*
G01*
X116286000Y-89099200D02*
X116886000Y-89099200D01*
G75*
G02*
X116936800Y-89150000I0J-50800D01*
G01*
X116936800Y-89550000D01*
G75*
G02*
X116886000Y-89600800I-50800J0D01*
G01*
X116286000Y-89600800D01*
G75*
G02*
X116235200Y-89550000I0J50800D01*
G01*
X116235200Y-89150000D01*
G75*
G02*
X116286000Y-89099200I50800J0D01*
G01*
G37*
G36*
G01*
X116905800Y-91775000D02*
X116905800Y-92375000D01*
G75*
G02*
X116855000Y-92425800I-50800J0D01*
G01*
X116455000Y-92425800D01*
G75*
G02*
X116404200Y-92375000I0J50800D01*
G01*
X116404200Y-91775000D01*
G75*
G02*
X116455000Y-91724200I50800J0D01*
G01*
X116855000Y-91724200D01*
G75*
G02*
X116905800Y-91775000I0J-50800D01*
G01*
G37*
G36*
G01*
X116005800Y-91775000D02*
X116005800Y-92375000D01*
G75*
G02*
X115955000Y-92425800I-50800J0D01*
G01*
X115555000Y-92425800D01*
G75*
G02*
X115504200Y-92375000I0J50800D01*
G01*
X115504200Y-91775000D01*
G75*
G02*
X115555000Y-91724200I50800J0D01*
G01*
X115955000Y-91724200D01*
G75*
G02*
X116005800Y-91775000I0J-50800D01*
G01*
G37*
G36*
G01*
X116886000Y-95950800D02*
X116286000Y-95950800D01*
G75*
G02*
X116235200Y-95900000I0J50800D01*
G01*
X116235200Y-95500000D01*
G75*
G02*
X116286000Y-95449200I50800J0D01*
G01*
X116886000Y-95449200D01*
G75*
G02*
X116936800Y-95500000I0J-50800D01*
G01*
X116936800Y-95900000D01*
G75*
G02*
X116886000Y-95950800I-50800J0D01*
G01*
G37*
G36*
G01*
X116886000Y-95050800D02*
X116286000Y-95050800D01*
G75*
G02*
X116235200Y-95000000I0J50800D01*
G01*
X116235200Y-94600000D01*
G75*
G02*
X116286000Y-94549200I50800J0D01*
G01*
X116886000Y-94549200D01*
G75*
G02*
X116936800Y-94600000I0J-50800D01*
G01*
X116936800Y-95000000D01*
G75*
G02*
X116886000Y-95050800I-50800J0D01*
G01*
G37*
G36*
G01*
X129474200Y-92375000D02*
X129474200Y-91775000D01*
G75*
G02*
X129525000Y-91724200I50800J0D01*
G01*
X129925000Y-91724200D01*
G75*
G02*
X129975800Y-91775000I0J-50800D01*
G01*
X129975800Y-92375000D01*
G75*
G02*
X129925000Y-92425800I-50800J0D01*
G01*
X129525000Y-92425800D01*
G75*
G02*
X129474200Y-92375000I0J50800D01*
G01*
G37*
G36*
G01*
X130374200Y-92375000D02*
X130374200Y-91775000D01*
G75*
G02*
X130425000Y-91724200I50800J0D01*
G01*
X130825000Y-91724200D01*
G75*
G02*
X130875800Y-91775000I0J-50800D01*
G01*
X130875800Y-92375000D01*
G75*
G02*
X130825000Y-92425800I-50800J0D01*
G01*
X130425000Y-92425800D01*
G75*
G02*
X130374200Y-92375000I0J50800D01*
G01*
G37*
G36*
G01*
X127970000Y-94549200D02*
X128570000Y-94549200D01*
G75*
G02*
X128620800Y-94600000I0J-50800D01*
G01*
X128620800Y-95000000D01*
G75*
G02*
X128570000Y-95050800I-50800J0D01*
G01*
X127970000Y-95050800D01*
G75*
G02*
X127919200Y-95000000I0J50800D01*
G01*
X127919200Y-94600000D01*
G75*
G02*
X127970000Y-94549200I50800J0D01*
G01*
G37*
G36*
G01*
X127970000Y-95449200D02*
X128570000Y-95449200D01*
G75*
G02*
X128620800Y-95500000I0J-50800D01*
G01*
X128620800Y-95900000D01*
G75*
G02*
X128570000Y-95950800I-50800J0D01*
G01*
X127970000Y-95950800D01*
G75*
G02*
X127919200Y-95900000I0J50800D01*
G01*
X127919200Y-95500000D01*
G75*
G02*
X127970000Y-95449200I50800J0D01*
G01*
G37*
G36*
G01*
X130094000Y-95950800D02*
X129494000Y-95950800D01*
G75*
G02*
X129443200Y-95900000I0J50800D01*
G01*
X129443200Y-95500000D01*
G75*
G02*
X129494000Y-95449200I50800J0D01*
G01*
X130094000Y-95449200D01*
G75*
G02*
X130144800Y-95500000I0J-50800D01*
G01*
X130144800Y-95900000D01*
G75*
G02*
X130094000Y-95950800I-50800J0D01*
G01*
G37*
G36*
G01*
X130094000Y-95050800D02*
X129494000Y-95050800D01*
G75*
G02*
X129443200Y-95000000I0J50800D01*
G01*
X129443200Y-94600000D01*
G75*
G02*
X129494000Y-94549200I50800J0D01*
G01*
X130094000Y-94549200D01*
G75*
G02*
X130144800Y-94600000I0J-50800D01*
G01*
X130144800Y-95000000D01*
G75*
G02*
X130094000Y-95050800I-50800J0D01*
G01*
G37*
G36*
G01*
X134685800Y-91775000D02*
X134685800Y-92375000D01*
G75*
G02*
X134635000Y-92425800I-50800J0D01*
G01*
X134235000Y-92425800D01*
G75*
G02*
X134184200Y-92375000I0J50800D01*
G01*
X134184200Y-91775000D01*
G75*
G02*
X134235000Y-91724200I50800J0D01*
G01*
X134635000Y-91724200D01*
G75*
G02*
X134685800Y-91775000I0J-50800D01*
G01*
G37*
G36*
G01*
X133785800Y-91775000D02*
X133785800Y-92375000D01*
G75*
G02*
X133735000Y-92425800I-50800J0D01*
G01*
X133335000Y-92425800D01*
G75*
G02*
X133284200Y-92375000I0J50800D01*
G01*
X133284200Y-91775000D01*
G75*
G02*
X133335000Y-91724200I50800J0D01*
G01*
X133735000Y-91724200D01*
G75*
G02*
X133785800Y-91775000I0J-50800D01*
G01*
G37*
G36*
G01*
X133034800Y-90124000D02*
X133034800Y-90724000D01*
G75*
G02*
X132984000Y-90774800I-50800J0D01*
G01*
X132584000Y-90774800D01*
G75*
G02*
X132533200Y-90724000I0J50800D01*
G01*
X132533200Y-90124000D01*
G75*
G02*
X132584000Y-90073200I50800J0D01*
G01*
X132984000Y-90073200D01*
G75*
G02*
X133034800Y-90124000I0J-50800D01*
G01*
G37*
G36*
G01*
X132134800Y-90124000D02*
X132134800Y-90724000D01*
G75*
G02*
X132084000Y-90774800I-50800J0D01*
G01*
X131684000Y-90774800D01*
G75*
G02*
X131633200Y-90724000I0J50800D01*
G01*
X131633200Y-90124000D01*
G75*
G02*
X131684000Y-90073200I50800J0D01*
G01*
X132084000Y-90073200D01*
G75*
G02*
X132134800Y-90124000I0J-50800D01*
G01*
G37*
G36*
G01*
X128570000Y-89600800D02*
X127970000Y-89600800D01*
G75*
G02*
X127919200Y-89550000I0J50800D01*
G01*
X127919200Y-89150000D01*
G75*
G02*
X127970000Y-89099200I50800J0D01*
G01*
X128570000Y-89099200D01*
G75*
G02*
X128620800Y-89150000I0J-50800D01*
G01*
X128620800Y-89550000D01*
G75*
G02*
X128570000Y-89600800I-50800J0D01*
G01*
G37*
G36*
G01*
X128570000Y-88700800D02*
X127970000Y-88700800D01*
G75*
G02*
X127919200Y-88650000I0J50800D01*
G01*
X127919200Y-88250000D01*
G75*
G02*
X127970000Y-88199200I50800J0D01*
G01*
X128570000Y-88199200D01*
G75*
G02*
X128620800Y-88250000I0J-50800D01*
G01*
X128620800Y-88650000D01*
G75*
G02*
X128570000Y-88700800I-50800J0D01*
G01*
G37*
G36*
G01*
X129494000Y-88199200D02*
X130094000Y-88199200D01*
G75*
G02*
X130144800Y-88250000I0J-50800D01*
G01*
X130144800Y-88650000D01*
G75*
G02*
X130094000Y-88700800I-50800J0D01*
G01*
X129494000Y-88700800D01*
G75*
G02*
X129443200Y-88650000I0J50800D01*
G01*
X129443200Y-88250000D01*
G75*
G02*
X129494000Y-88199200I50800J0D01*
G01*
G37*
G36*
G01*
X129494000Y-89099200D02*
X130094000Y-89099200D01*
G75*
G02*
X130144800Y-89150000I0J-50800D01*
G01*
X130144800Y-89550000D01*
G75*
G02*
X130094000Y-89600800I-50800J0D01*
G01*
X129494000Y-89600800D01*
G75*
G02*
X129443200Y-89550000I0J50800D01*
G01*
X129443200Y-89150000D01*
G75*
G02*
X129494000Y-89099200I50800J0D01*
G01*
G37*
G36*
G01*
X125415000Y-56829200D02*
X126865000Y-56829200D01*
G75*
G02*
X126915800Y-56880000I0J-50800D01*
G01*
X126915800Y-57330000D01*
G75*
G02*
X126865000Y-57380800I-50800J0D01*
G01*
X125415000Y-57380800D01*
G75*
G02*
X125364200Y-57330000I0J50800D01*
G01*
X125364200Y-56880000D01*
G75*
G02*
X125415000Y-56829200I50800J0D01*
G01*
G37*
G36*
G01*
X119515000Y-56829200D02*
X120965000Y-56829200D01*
G75*
G02*
X121015800Y-56880000I0J-50800D01*
G01*
X121015800Y-57330000D01*
G75*
G02*
X120965000Y-57380800I-50800J0D01*
G01*
X119515000Y-57380800D01*
G75*
G02*
X119464200Y-57330000I0J50800D01*
G01*
X119464200Y-56880000D01*
G75*
G02*
X119515000Y-56829200I50800J0D01*
G01*
G37*
G36*
G01*
X125415000Y-57479200D02*
X126865000Y-57479200D01*
G75*
G02*
X126915800Y-57530000I0J-50800D01*
G01*
X126915800Y-57980000D01*
G75*
G02*
X126865000Y-58030800I-50800J0D01*
G01*
X125415000Y-58030800D01*
G75*
G02*
X125364200Y-57980000I0J50800D01*
G01*
X125364200Y-57530000D01*
G75*
G02*
X125415000Y-57479200I50800J0D01*
G01*
G37*
G36*
G01*
X119515000Y-57479200D02*
X120965000Y-57479200D01*
G75*
G02*
X121015800Y-57530000I0J-50800D01*
G01*
X121015800Y-57980000D01*
G75*
G02*
X120965000Y-58030800I-50800J0D01*
G01*
X119515000Y-58030800D01*
G75*
G02*
X119464200Y-57980000I0J50800D01*
G01*
X119464200Y-57530000D01*
G75*
G02*
X119515000Y-57479200I50800J0D01*
G01*
G37*
G36*
G01*
X125415000Y-58129200D02*
X126865000Y-58129200D01*
G75*
G02*
X126915800Y-58180000I0J-50800D01*
G01*
X126915800Y-58630000D01*
G75*
G02*
X126865000Y-58680800I-50800J0D01*
G01*
X125415000Y-58680800D01*
G75*
G02*
X125364200Y-58630000I0J50800D01*
G01*
X125364200Y-58180000D01*
G75*
G02*
X125415000Y-58129200I50800J0D01*
G01*
G37*
G36*
G01*
X119515000Y-58129200D02*
X120965000Y-58129200D01*
G75*
G02*
X121015800Y-58180000I0J-50800D01*
G01*
X121015800Y-58630000D01*
G75*
G02*
X120965000Y-58680800I-50800J0D01*
G01*
X119515000Y-58680800D01*
G75*
G02*
X119464200Y-58630000I0J50800D01*
G01*
X119464200Y-58180000D01*
G75*
G02*
X119515000Y-58129200I50800J0D01*
G01*
G37*
G36*
G01*
X125415000Y-58779200D02*
X126865000Y-58779200D01*
G75*
G02*
X126915800Y-58830000I0J-50800D01*
G01*
X126915800Y-59280000D01*
G75*
G02*
X126865000Y-59330800I-50800J0D01*
G01*
X125415000Y-59330800D01*
G75*
G02*
X125364200Y-59280000I0J50800D01*
G01*
X125364200Y-58830000D01*
G75*
G02*
X125415000Y-58779200I50800J0D01*
G01*
G37*
G36*
G01*
X119515000Y-58779200D02*
X120965000Y-58779200D01*
G75*
G02*
X121015800Y-58830000I0J-50800D01*
G01*
X121015800Y-59280000D01*
G75*
G02*
X120965000Y-59330800I-50800J0D01*
G01*
X119515000Y-59330800D01*
G75*
G02*
X119464200Y-59280000I0J50800D01*
G01*
X119464200Y-58830000D01*
G75*
G02*
X119515000Y-58779200I50800J0D01*
G01*
G37*
G36*
G01*
X125415000Y-59429200D02*
X126865000Y-59429200D01*
G75*
G02*
X126915800Y-59480000I0J-50800D01*
G01*
X126915800Y-59930000D01*
G75*
G02*
X126865000Y-59980800I-50800J0D01*
G01*
X125415000Y-59980800D01*
G75*
G02*
X125364200Y-59930000I0J50800D01*
G01*
X125364200Y-59480000D01*
G75*
G02*
X125415000Y-59429200I50800J0D01*
G01*
G37*
G36*
G01*
X119515000Y-59429200D02*
X120965000Y-59429200D01*
G75*
G02*
X121015800Y-59480000I0J-50800D01*
G01*
X121015800Y-59930000D01*
G75*
G02*
X120965000Y-59980800I-50800J0D01*
G01*
X119515000Y-59980800D01*
G75*
G02*
X119464200Y-59930000I0J50800D01*
G01*
X119464200Y-59480000D01*
G75*
G02*
X119515000Y-59429200I50800J0D01*
G01*
G37*
G36*
G01*
X125415000Y-60079200D02*
X126865000Y-60079200D01*
G75*
G02*
X126915800Y-60130000I0J-50800D01*
G01*
X126915800Y-60580000D01*
G75*
G02*
X126865000Y-60630800I-50800J0D01*
G01*
X125415000Y-60630800D01*
G75*
G02*
X125364200Y-60580000I0J50800D01*
G01*
X125364200Y-60130000D01*
G75*
G02*
X125415000Y-60079200I50800J0D01*
G01*
G37*
G36*
G01*
X119515000Y-60079200D02*
X120965000Y-60079200D01*
G75*
G02*
X121015800Y-60130000I0J-50800D01*
G01*
X121015800Y-60580000D01*
G75*
G02*
X120965000Y-60630800I-50800J0D01*
G01*
X119515000Y-60630800D01*
G75*
G02*
X119464200Y-60580000I0J50800D01*
G01*
X119464200Y-60130000D01*
G75*
G02*
X119515000Y-60079200I50800J0D01*
G01*
G37*
G36*
G01*
X125415000Y-60729200D02*
X126865000Y-60729200D01*
G75*
G02*
X126915800Y-60780000I0J-50800D01*
G01*
X126915800Y-61230000D01*
G75*
G02*
X126865000Y-61280800I-50800J0D01*
G01*
X125415000Y-61280800D01*
G75*
G02*
X125364200Y-61230000I0J50800D01*
G01*
X125364200Y-60780000D01*
G75*
G02*
X125415000Y-60729200I50800J0D01*
G01*
G37*
G36*
G01*
X119515000Y-60729200D02*
X120965000Y-60729200D01*
G75*
G02*
X121015800Y-60780000I0J-50800D01*
G01*
X121015800Y-61230000D01*
G75*
G02*
X120965000Y-61280800I-50800J0D01*
G01*
X119515000Y-61280800D01*
G75*
G02*
X119464200Y-61230000I0J50800D01*
G01*
X119464200Y-60780000D01*
G75*
G02*
X119515000Y-60729200I50800J0D01*
G01*
G37*
G36*
G01*
X125415000Y-66989200D02*
X126865000Y-66989200D01*
G75*
G02*
X126915800Y-67040000I0J-50800D01*
G01*
X126915800Y-67490000D01*
G75*
G02*
X126865000Y-67540800I-50800J0D01*
G01*
X125415000Y-67540800D01*
G75*
G02*
X125364200Y-67490000I0J50800D01*
G01*
X125364200Y-67040000D01*
G75*
G02*
X125415000Y-66989200I50800J0D01*
G01*
G37*
G36*
G01*
X119515000Y-66989200D02*
X120965000Y-66989200D01*
G75*
G02*
X121015800Y-67040000I0J-50800D01*
G01*
X121015800Y-67490000D01*
G75*
G02*
X120965000Y-67540800I-50800J0D01*
G01*
X119515000Y-67540800D01*
G75*
G02*
X119464200Y-67490000I0J50800D01*
G01*
X119464200Y-67040000D01*
G75*
G02*
X119515000Y-66989200I50800J0D01*
G01*
G37*
G36*
G01*
X125415000Y-67639200D02*
X126865000Y-67639200D01*
G75*
G02*
X126915800Y-67690000I0J-50800D01*
G01*
X126915800Y-68140000D01*
G75*
G02*
X126865000Y-68190800I-50800J0D01*
G01*
X125415000Y-68190800D01*
G75*
G02*
X125364200Y-68140000I0J50800D01*
G01*
X125364200Y-67690000D01*
G75*
G02*
X125415000Y-67639200I50800J0D01*
G01*
G37*
G36*
G01*
X119515000Y-67639200D02*
X120965000Y-67639200D01*
G75*
G02*
X121015800Y-67690000I0J-50800D01*
G01*
X121015800Y-68140000D01*
G75*
G02*
X120965000Y-68190800I-50800J0D01*
G01*
X119515000Y-68190800D01*
G75*
G02*
X119464200Y-68140000I0J50800D01*
G01*
X119464200Y-67690000D01*
G75*
G02*
X119515000Y-67639200I50800J0D01*
G01*
G37*
G36*
G01*
X125415000Y-68289200D02*
X126865000Y-68289200D01*
G75*
G02*
X126915800Y-68340000I0J-50800D01*
G01*
X126915800Y-68790000D01*
G75*
G02*
X126865000Y-68840800I-50800J0D01*
G01*
X125415000Y-68840800D01*
G75*
G02*
X125364200Y-68790000I0J50800D01*
G01*
X125364200Y-68340000D01*
G75*
G02*
X125415000Y-68289200I50800J0D01*
G01*
G37*
G36*
G01*
X119515000Y-68289200D02*
X120965000Y-68289200D01*
G75*
G02*
X121015800Y-68340000I0J-50800D01*
G01*
X121015800Y-68790000D01*
G75*
G02*
X120965000Y-68840800I-50800J0D01*
G01*
X119515000Y-68840800D01*
G75*
G02*
X119464200Y-68790000I0J50800D01*
G01*
X119464200Y-68340000D01*
G75*
G02*
X119515000Y-68289200I50800J0D01*
G01*
G37*
G36*
G01*
X125415000Y-68939200D02*
X126865000Y-68939200D01*
G75*
G02*
X126915800Y-68990000I0J-50800D01*
G01*
X126915800Y-69440000D01*
G75*
G02*
X126865000Y-69490800I-50800J0D01*
G01*
X125415000Y-69490800D01*
G75*
G02*
X125364200Y-69440000I0J50800D01*
G01*
X125364200Y-68990000D01*
G75*
G02*
X125415000Y-68939200I50800J0D01*
G01*
G37*
G36*
G01*
X119515000Y-68939200D02*
X120965000Y-68939200D01*
G75*
G02*
X121015800Y-68990000I0J-50800D01*
G01*
X121015800Y-69440000D01*
G75*
G02*
X120965000Y-69490800I-50800J0D01*
G01*
X119515000Y-69490800D01*
G75*
G02*
X119464200Y-69440000I0J50800D01*
G01*
X119464200Y-68990000D01*
G75*
G02*
X119515000Y-68939200I50800J0D01*
G01*
G37*
G36*
G01*
X125415000Y-69589200D02*
X126865000Y-69589200D01*
G75*
G02*
X126915800Y-69640000I0J-50800D01*
G01*
X126915800Y-70090000D01*
G75*
G02*
X126865000Y-70140800I-50800J0D01*
G01*
X125415000Y-70140800D01*
G75*
G02*
X125364200Y-70090000I0J50800D01*
G01*
X125364200Y-69640000D01*
G75*
G02*
X125415000Y-69589200I50800J0D01*
G01*
G37*
G36*
G01*
X119515000Y-69589200D02*
X120965000Y-69589200D01*
G75*
G02*
X121015800Y-69640000I0J-50800D01*
G01*
X121015800Y-70090000D01*
G75*
G02*
X120965000Y-70140800I-50800J0D01*
G01*
X119515000Y-70140800D01*
G75*
G02*
X119464200Y-70090000I0J50800D01*
G01*
X119464200Y-69640000D01*
G75*
G02*
X119515000Y-69589200I50800J0D01*
G01*
G37*
G36*
G01*
X125415000Y-70239200D02*
X126865000Y-70239200D01*
G75*
G02*
X126915800Y-70290000I0J-50800D01*
G01*
X126915800Y-70740000D01*
G75*
G02*
X126865000Y-70790800I-50800J0D01*
G01*
X125415000Y-70790800D01*
G75*
G02*
X125364200Y-70740000I0J50800D01*
G01*
X125364200Y-70290000D01*
G75*
G02*
X125415000Y-70239200I50800J0D01*
G01*
G37*
G36*
G01*
X119515000Y-70239200D02*
X120965000Y-70239200D01*
G75*
G02*
X121015800Y-70290000I0J-50800D01*
G01*
X121015800Y-70740000D01*
G75*
G02*
X120965000Y-70790800I-50800J0D01*
G01*
X119515000Y-70790800D01*
G75*
G02*
X119464200Y-70740000I0J50800D01*
G01*
X119464200Y-70290000D01*
G75*
G02*
X119515000Y-70239200I50800J0D01*
G01*
G37*
G36*
G01*
X125415000Y-70889200D02*
X126865000Y-70889200D01*
G75*
G02*
X126915800Y-70940000I0J-50800D01*
G01*
X126915800Y-71390000D01*
G75*
G02*
X126865000Y-71440800I-50800J0D01*
G01*
X125415000Y-71440800D01*
G75*
G02*
X125364200Y-71390000I0J50800D01*
G01*
X125364200Y-70940000D01*
G75*
G02*
X125415000Y-70889200I50800J0D01*
G01*
G37*
G36*
G01*
X119515000Y-70889200D02*
X120965000Y-70889200D01*
G75*
G02*
X121015800Y-70940000I0J-50800D01*
G01*
X121015800Y-71390000D01*
G75*
G02*
X120965000Y-71440800I-50800J0D01*
G01*
X119515000Y-71440800D01*
G75*
G02*
X119464200Y-71390000I0J50800D01*
G01*
X119464200Y-70940000D01*
G75*
G02*
X119515000Y-70889200I50800J0D01*
G01*
G37*
G36*
G01*
X125415000Y-79689200D02*
X126865000Y-79689200D01*
G75*
G02*
X126915800Y-79740000I0J-50800D01*
G01*
X126915800Y-80190000D01*
G75*
G02*
X126865000Y-80240800I-50800J0D01*
G01*
X125415000Y-80240800D01*
G75*
G02*
X125364200Y-80190000I0J50800D01*
G01*
X125364200Y-79740000D01*
G75*
G02*
X125415000Y-79689200I50800J0D01*
G01*
G37*
G36*
G01*
X119515000Y-79689200D02*
X120965000Y-79689200D01*
G75*
G02*
X121015800Y-79740000I0J-50800D01*
G01*
X121015800Y-80190000D01*
G75*
G02*
X120965000Y-80240800I-50800J0D01*
G01*
X119515000Y-80240800D01*
G75*
G02*
X119464200Y-80190000I0J50800D01*
G01*
X119464200Y-79740000D01*
G75*
G02*
X119515000Y-79689200I50800J0D01*
G01*
G37*
G36*
G01*
X125415000Y-80339200D02*
X126865000Y-80339200D01*
G75*
G02*
X126915800Y-80390000I0J-50800D01*
G01*
X126915800Y-80840000D01*
G75*
G02*
X126865000Y-80890800I-50800J0D01*
G01*
X125415000Y-80890800D01*
G75*
G02*
X125364200Y-80840000I0J50800D01*
G01*
X125364200Y-80390000D01*
G75*
G02*
X125415000Y-80339200I50800J0D01*
G01*
G37*
G36*
G01*
X119515000Y-80339200D02*
X120965000Y-80339200D01*
G75*
G02*
X121015800Y-80390000I0J-50800D01*
G01*
X121015800Y-80840000D01*
G75*
G02*
X120965000Y-80890800I-50800J0D01*
G01*
X119515000Y-80890800D01*
G75*
G02*
X119464200Y-80840000I0J50800D01*
G01*
X119464200Y-80390000D01*
G75*
G02*
X119515000Y-80339200I50800J0D01*
G01*
G37*
G36*
G01*
X125415000Y-80989200D02*
X126865000Y-80989200D01*
G75*
G02*
X126915800Y-81040000I0J-50800D01*
G01*
X126915800Y-81490000D01*
G75*
G02*
X126865000Y-81540800I-50800J0D01*
G01*
X125415000Y-81540800D01*
G75*
G02*
X125364200Y-81490000I0J50800D01*
G01*
X125364200Y-81040000D01*
G75*
G02*
X125415000Y-80989200I50800J0D01*
G01*
G37*
G36*
G01*
X119515000Y-80989200D02*
X120965000Y-80989200D01*
G75*
G02*
X121015800Y-81040000I0J-50800D01*
G01*
X121015800Y-81490000D01*
G75*
G02*
X120965000Y-81540800I-50800J0D01*
G01*
X119515000Y-81540800D01*
G75*
G02*
X119464200Y-81490000I0J50800D01*
G01*
X119464200Y-81040000D01*
G75*
G02*
X119515000Y-80989200I50800J0D01*
G01*
G37*
G36*
G01*
X125415000Y-81639200D02*
X126865000Y-81639200D01*
G75*
G02*
X126915800Y-81690000I0J-50800D01*
G01*
X126915800Y-82140000D01*
G75*
G02*
X126865000Y-82190800I-50800J0D01*
G01*
X125415000Y-82190800D01*
G75*
G02*
X125364200Y-82140000I0J50800D01*
G01*
X125364200Y-81690000D01*
G75*
G02*
X125415000Y-81639200I50800J0D01*
G01*
G37*
G36*
G01*
X119515000Y-81639200D02*
X120965000Y-81639200D01*
G75*
G02*
X121015800Y-81690000I0J-50800D01*
G01*
X121015800Y-82140000D01*
G75*
G02*
X120965000Y-82190800I-50800J0D01*
G01*
X119515000Y-82190800D01*
G75*
G02*
X119464200Y-82140000I0J50800D01*
G01*
X119464200Y-81690000D01*
G75*
G02*
X119515000Y-81639200I50800J0D01*
G01*
G37*
G36*
G01*
X125415000Y-82289200D02*
X126865000Y-82289200D01*
G75*
G02*
X126915800Y-82340000I0J-50800D01*
G01*
X126915800Y-82790000D01*
G75*
G02*
X126865000Y-82840800I-50800J0D01*
G01*
X125415000Y-82840800D01*
G75*
G02*
X125364200Y-82790000I0J50800D01*
G01*
X125364200Y-82340000D01*
G75*
G02*
X125415000Y-82289200I50800J0D01*
G01*
G37*
G36*
G01*
X119515000Y-82289200D02*
X120965000Y-82289200D01*
G75*
G02*
X121015800Y-82340000I0J-50800D01*
G01*
X121015800Y-82790000D01*
G75*
G02*
X120965000Y-82840800I-50800J0D01*
G01*
X119515000Y-82840800D01*
G75*
G02*
X119464200Y-82790000I0J50800D01*
G01*
X119464200Y-82340000D01*
G75*
G02*
X119515000Y-82289200I50800J0D01*
G01*
G37*
G36*
G01*
X125415000Y-82939200D02*
X126865000Y-82939200D01*
G75*
G02*
X126915800Y-82990000I0J-50800D01*
G01*
X126915800Y-83440000D01*
G75*
G02*
X126865000Y-83490800I-50800J0D01*
G01*
X125415000Y-83490800D01*
G75*
G02*
X125364200Y-83440000I0J50800D01*
G01*
X125364200Y-82990000D01*
G75*
G02*
X125415000Y-82939200I50800J0D01*
G01*
G37*
G36*
G01*
X119515000Y-82939200D02*
X120965000Y-82939200D01*
G75*
G02*
X121015800Y-82990000I0J-50800D01*
G01*
X121015800Y-83440000D01*
G75*
G02*
X120965000Y-83490800I-50800J0D01*
G01*
X119515000Y-83490800D01*
G75*
G02*
X119464200Y-83440000I0J50800D01*
G01*
X119464200Y-82990000D01*
G75*
G02*
X119515000Y-82939200I50800J0D01*
G01*
G37*
G36*
G01*
X125415000Y-83589200D02*
X126865000Y-83589200D01*
G75*
G02*
X126915800Y-83640000I0J-50800D01*
G01*
X126915800Y-84090000D01*
G75*
G02*
X126865000Y-84140800I-50800J0D01*
G01*
X125415000Y-84140800D01*
G75*
G02*
X125364200Y-84090000I0J50800D01*
G01*
X125364200Y-83640000D01*
G75*
G02*
X125415000Y-83589200I50800J0D01*
G01*
G37*
G36*
G01*
X119515000Y-83589200D02*
X120965000Y-83589200D01*
G75*
G02*
X121015800Y-83640000I0J-50800D01*
G01*
X121015800Y-84090000D01*
G75*
G02*
X120965000Y-84140800I-50800J0D01*
G01*
X119515000Y-84140800D01*
G75*
G02*
X119464200Y-84090000I0J50800D01*
G01*
X119464200Y-83640000D01*
G75*
G02*
X119515000Y-83589200I50800J0D01*
G01*
G37*
G36*
G01*
X125415000Y-89849200D02*
X126865000Y-89849200D01*
G75*
G02*
X126915800Y-89900000I0J-50800D01*
G01*
X126915800Y-90350000D01*
G75*
G02*
X126865000Y-90400800I-50800J0D01*
G01*
X125415000Y-90400800D01*
G75*
G02*
X125364200Y-90350000I0J50800D01*
G01*
X125364200Y-89900000D01*
G75*
G02*
X125415000Y-89849200I50800J0D01*
G01*
G37*
G36*
G01*
X119515000Y-89849200D02*
X120965000Y-89849200D01*
G75*
G02*
X121015800Y-89900000I0J-50800D01*
G01*
X121015800Y-90350000D01*
G75*
G02*
X120965000Y-90400800I-50800J0D01*
G01*
X119515000Y-90400800D01*
G75*
G02*
X119464200Y-90350000I0J50800D01*
G01*
X119464200Y-89900000D01*
G75*
G02*
X119515000Y-89849200I50800J0D01*
G01*
G37*
G36*
G01*
X125415000Y-90499200D02*
X126865000Y-90499200D01*
G75*
G02*
X126915800Y-90550000I0J-50800D01*
G01*
X126915800Y-91000000D01*
G75*
G02*
X126865000Y-91050800I-50800J0D01*
G01*
X125415000Y-91050800D01*
G75*
G02*
X125364200Y-91000000I0J50800D01*
G01*
X125364200Y-90550000D01*
G75*
G02*
X125415000Y-90499200I50800J0D01*
G01*
G37*
G36*
G01*
X119515000Y-90499200D02*
X120965000Y-90499200D01*
G75*
G02*
X121015800Y-90550000I0J-50800D01*
G01*
X121015800Y-91000000D01*
G75*
G02*
X120965000Y-91050800I-50800J0D01*
G01*
X119515000Y-91050800D01*
G75*
G02*
X119464200Y-91000000I0J50800D01*
G01*
X119464200Y-90550000D01*
G75*
G02*
X119515000Y-90499200I50800J0D01*
G01*
G37*
G36*
G01*
X125415000Y-91149200D02*
X126865000Y-91149200D01*
G75*
G02*
X126915800Y-91200000I0J-50800D01*
G01*
X126915800Y-91650000D01*
G75*
G02*
X126865000Y-91700800I-50800J0D01*
G01*
X125415000Y-91700800D01*
G75*
G02*
X125364200Y-91650000I0J50800D01*
G01*
X125364200Y-91200000D01*
G75*
G02*
X125415000Y-91149200I50800J0D01*
G01*
G37*
G36*
G01*
X119515000Y-91149200D02*
X120965000Y-91149200D01*
G75*
G02*
X121015800Y-91200000I0J-50800D01*
G01*
X121015800Y-91650000D01*
G75*
G02*
X120965000Y-91700800I-50800J0D01*
G01*
X119515000Y-91700800D01*
G75*
G02*
X119464200Y-91650000I0J50800D01*
G01*
X119464200Y-91200000D01*
G75*
G02*
X119515000Y-91149200I50800J0D01*
G01*
G37*
G36*
G01*
X125415000Y-91799200D02*
X126865000Y-91799200D01*
G75*
G02*
X126915800Y-91850000I0J-50800D01*
G01*
X126915800Y-92300000D01*
G75*
G02*
X126865000Y-92350800I-50800J0D01*
G01*
X125415000Y-92350800D01*
G75*
G02*
X125364200Y-92300000I0J50800D01*
G01*
X125364200Y-91850000D01*
G75*
G02*
X125415000Y-91799200I50800J0D01*
G01*
G37*
G36*
G01*
X119515000Y-91799200D02*
X120965000Y-91799200D01*
G75*
G02*
X121015800Y-91850000I0J-50800D01*
G01*
X121015800Y-92300000D01*
G75*
G02*
X120965000Y-92350800I-50800J0D01*
G01*
X119515000Y-92350800D01*
G75*
G02*
X119464200Y-92300000I0J50800D01*
G01*
X119464200Y-91850000D01*
G75*
G02*
X119515000Y-91799200I50800J0D01*
G01*
G37*
G36*
G01*
X125415000Y-92449200D02*
X126865000Y-92449200D01*
G75*
G02*
X126915800Y-92500000I0J-50800D01*
G01*
X126915800Y-92950000D01*
G75*
G02*
X126865000Y-93000800I-50800J0D01*
G01*
X125415000Y-93000800D01*
G75*
G02*
X125364200Y-92950000I0J50800D01*
G01*
X125364200Y-92500000D01*
G75*
G02*
X125415000Y-92449200I50800J0D01*
G01*
G37*
G36*
G01*
X119515000Y-92449200D02*
X120965000Y-92449200D01*
G75*
G02*
X121015800Y-92500000I0J-50800D01*
G01*
X121015800Y-92950000D01*
G75*
G02*
X120965000Y-93000800I-50800J0D01*
G01*
X119515000Y-93000800D01*
G75*
G02*
X119464200Y-92950000I0J50800D01*
G01*
X119464200Y-92500000D01*
G75*
G02*
X119515000Y-92449200I50800J0D01*
G01*
G37*
G36*
G01*
X125415000Y-93099200D02*
X126865000Y-93099200D01*
G75*
G02*
X126915800Y-93150000I0J-50800D01*
G01*
X126915800Y-93600000D01*
G75*
G02*
X126865000Y-93650800I-50800J0D01*
G01*
X125415000Y-93650800D01*
G75*
G02*
X125364200Y-93600000I0J50800D01*
G01*
X125364200Y-93150000D01*
G75*
G02*
X125415000Y-93099200I50800J0D01*
G01*
G37*
G36*
G01*
X119515000Y-93099200D02*
X120965000Y-93099200D01*
G75*
G02*
X121015800Y-93150000I0J-50800D01*
G01*
X121015800Y-93600000D01*
G75*
G02*
X120965000Y-93650800I-50800J0D01*
G01*
X119515000Y-93650800D01*
G75*
G02*
X119464200Y-93600000I0J50800D01*
G01*
X119464200Y-93150000D01*
G75*
G02*
X119515000Y-93099200I50800J0D01*
G01*
G37*
G36*
G01*
X125415000Y-93749200D02*
X126865000Y-93749200D01*
G75*
G02*
X126915800Y-93800000I0J-50800D01*
G01*
X126915800Y-94250000D01*
G75*
G02*
X126865000Y-94300800I-50800J0D01*
G01*
X125415000Y-94300800D01*
G75*
G02*
X125364200Y-94250000I0J50800D01*
G01*
X125364200Y-93800000D01*
G75*
G02*
X125415000Y-93749200I50800J0D01*
G01*
G37*
G36*
G01*
X119515000Y-93749200D02*
X120965000Y-93749200D01*
G75*
G02*
X121015800Y-93800000I0J-50800D01*
G01*
X121015800Y-94250000D01*
G75*
G02*
X120965000Y-94300800I-50800J0D01*
G01*
X119515000Y-94300800D01*
G75*
G02*
X119464200Y-94250000I0J50800D01*
G01*
X119464200Y-93800000D01*
G75*
G02*
X119515000Y-93749200I50800J0D01*
G01*
G37*
G36*
G01*
X116589999Y-106096700D02*
X117090001Y-106096700D01*
G75*
G02*
X117140800Y-106147499I0J-50799D01*
G01*
X117140800Y-106747501D01*
G75*
G02*
X117090001Y-106798300I-50799J0D01*
G01*
X116589999Y-106798300D01*
G75*
G02*
X116539200Y-106747501I0J50799D01*
G01*
X116539200Y-106147499D01*
G75*
G02*
X116589999Y-106096700I50799J0D01*
G01*
G37*
G36*
G01*
X116589999Y-107196700D02*
X117090001Y-107196700D01*
G75*
G02*
X117140800Y-107247499I0J-50799D01*
G01*
X117140800Y-107847501D01*
G75*
G02*
X117090001Y-107898300I-50799J0D01*
G01*
X116589999Y-107898300D01*
G75*
G02*
X116539200Y-107847501I0J50799D01*
G01*
X116539200Y-107247499D01*
G75*
G02*
X116589999Y-107196700I50799J0D01*
G01*
G37*
G36*
G01*
X130877499Y-112764200D02*
X131377501Y-112764200D01*
G75*
G02*
X131428300Y-112814999I0J-50799D01*
G01*
X131428300Y-113415001D01*
G75*
G02*
X131377501Y-113465800I-50799J0D01*
G01*
X130877499Y-113465800D01*
G75*
G02*
X130826700Y-113415001I0J50799D01*
G01*
X130826700Y-112814999D01*
G75*
G02*
X130877499Y-112764200I50799J0D01*
G01*
G37*
G36*
G01*
X130877499Y-113864200D02*
X131377501Y-113864200D01*
G75*
G02*
X131428300Y-113914999I0J-50799D01*
G01*
X131428300Y-114515001D01*
G75*
G02*
X131377501Y-114565800I-50799J0D01*
G01*
X130877499Y-114565800D01*
G75*
G02*
X130826700Y-114515001I0J50799D01*
G01*
X130826700Y-113914999D01*
G75*
G02*
X130877499Y-113864200I50799J0D01*
G01*
G37*
G36*
G01*
X131571200Y-88642001D02*
X131571200Y-88141999D01*
G75*
G02*
X131621999Y-88091200I50799J0D01*
G01*
X132222001Y-88091200D01*
G75*
G02*
X132272800Y-88141999I0J-50799D01*
G01*
X132272800Y-88642001D01*
G75*
G02*
X132222001Y-88692800I-50799J0D01*
G01*
X131621999Y-88692800D01*
G75*
G02*
X131571200Y-88642001I0J50799D01*
G01*
G37*
G36*
G01*
X132671200Y-88642001D02*
X132671200Y-88141999D01*
G75*
G02*
X132721999Y-88091200I50799J0D01*
G01*
X133322001Y-88091200D01*
G75*
G02*
X133372800Y-88141999I0J-50799D01*
G01*
X133372800Y-88642001D01*
G75*
G02*
X133322001Y-88692800I-50799J0D01*
G01*
X132721999Y-88692800D01*
G75*
G02*
X132671200Y-88642001I0J50799D01*
G01*
G37*
G36*
G01*
X119985000Y-106755800D02*
X118735000Y-106755800D01*
G75*
G02*
X118684200Y-106705000I0J50800D01*
G01*
X118684200Y-106305000D01*
G75*
G02*
X118735000Y-106254200I50800J0D01*
G01*
X119985000Y-106254200D01*
G75*
G02*
X120035800Y-106305000I0J-50800D01*
G01*
X120035800Y-106705000D01*
G75*
G02*
X119985000Y-106755800I-50800J0D01*
G01*
G37*
G36*
G01*
X127785000Y-106755800D02*
X126535000Y-106755800D01*
G75*
G02*
X126484200Y-106705000I0J50800D01*
G01*
X126484200Y-106305000D01*
G75*
G02*
X126535000Y-106254200I50800J0D01*
G01*
X127785000Y-106254200D01*
G75*
G02*
X127835800Y-106305000I0J-50800D01*
G01*
X127835800Y-106705000D01*
G75*
G02*
X127785000Y-106755800I-50800J0D01*
G01*
G37*
G36*
G01*
X119985000Y-106105800D02*
X118735000Y-106105800D01*
G75*
G02*
X118684200Y-106055000I0J50800D01*
G01*
X118684200Y-105655000D01*
G75*
G02*
X118735000Y-105604200I50800J0D01*
G01*
X119985000Y-105604200D01*
G75*
G02*
X120035800Y-105655000I0J-50800D01*
G01*
X120035800Y-106055000D01*
G75*
G02*
X119985000Y-106105800I-50800J0D01*
G01*
G37*
G36*
G01*
X127785000Y-106105800D02*
X126535000Y-106105800D01*
G75*
G02*
X126484200Y-106055000I0J50800D01*
G01*
X126484200Y-105655000D01*
G75*
G02*
X126535000Y-105604200I50800J0D01*
G01*
X127785000Y-105604200D01*
G75*
G02*
X127835800Y-105655000I0J-50800D01*
G01*
X127835800Y-106055000D01*
G75*
G02*
X127785000Y-106105800I-50800J0D01*
G01*
G37*
G36*
G01*
X119985000Y-105455800D02*
X118735000Y-105455800D01*
G75*
G02*
X118684200Y-105405000I0J50800D01*
G01*
X118684200Y-105005000D01*
G75*
G02*
X118735000Y-104954200I50800J0D01*
G01*
X119985000Y-104954200D01*
G75*
G02*
X120035800Y-105005000I0J-50800D01*
G01*
X120035800Y-105405000D01*
G75*
G02*
X119985000Y-105455800I-50800J0D01*
G01*
G37*
G36*
G01*
X127785000Y-105455800D02*
X126535000Y-105455800D01*
G75*
G02*
X126484200Y-105405000I0J50800D01*
G01*
X126484200Y-105005000D01*
G75*
G02*
X126535000Y-104954200I50800J0D01*
G01*
X127785000Y-104954200D01*
G75*
G02*
X127835800Y-105005000I0J-50800D01*
G01*
X127835800Y-105405000D01*
G75*
G02*
X127785000Y-105455800I-50800J0D01*
G01*
G37*
G36*
G01*
X119985000Y-104805800D02*
X118735000Y-104805800D01*
G75*
G02*
X118684200Y-104755000I0J50800D01*
G01*
X118684200Y-104355000D01*
G75*
G02*
X118735000Y-104304200I50800J0D01*
G01*
X119985000Y-104304200D01*
G75*
G02*
X120035800Y-104355000I0J-50800D01*
G01*
X120035800Y-104755000D01*
G75*
G02*
X119985000Y-104805800I-50800J0D01*
G01*
G37*
G36*
G01*
X127785000Y-104805800D02*
X126535000Y-104805800D01*
G75*
G02*
X126484200Y-104755000I0J50800D01*
G01*
X126484200Y-104355000D01*
G75*
G02*
X126535000Y-104304200I50800J0D01*
G01*
X127785000Y-104304200D01*
G75*
G02*
X127835800Y-104355000I0J-50800D01*
G01*
X127835800Y-104755000D01*
G75*
G02*
X127785000Y-104805800I-50800J0D01*
G01*
G37*
G36*
G01*
X119985000Y-104155800D02*
X118735000Y-104155800D01*
G75*
G02*
X118684200Y-104105000I0J50800D01*
G01*
X118684200Y-103705000D01*
G75*
G02*
X118735000Y-103654200I50800J0D01*
G01*
X119985000Y-103654200D01*
G75*
G02*
X120035800Y-103705000I0J-50800D01*
G01*
X120035800Y-104105000D01*
G75*
G02*
X119985000Y-104155800I-50800J0D01*
G01*
G37*
G36*
G01*
X127785000Y-104155800D02*
X126535000Y-104155800D01*
G75*
G02*
X126484200Y-104105000I0J50800D01*
G01*
X126484200Y-103705000D01*
G75*
G02*
X126535000Y-103654200I50800J0D01*
G01*
X127785000Y-103654200D01*
G75*
G02*
X127835800Y-103705000I0J-50800D01*
G01*
X127835800Y-104105000D01*
G75*
G02*
X127785000Y-104155800I-50800J0D01*
G01*
G37*
G36*
G01*
X119985000Y-103505800D02*
X118735000Y-103505800D01*
G75*
G02*
X118684200Y-103455000I0J50800D01*
G01*
X118684200Y-103055000D01*
G75*
G02*
X118735000Y-103004200I50800J0D01*
G01*
X119985000Y-103004200D01*
G75*
G02*
X120035800Y-103055000I0J-50800D01*
G01*
X120035800Y-103455000D01*
G75*
G02*
X119985000Y-103505800I-50800J0D01*
G01*
G37*
G36*
G01*
X127785000Y-103505800D02*
X126535000Y-103505800D01*
G75*
G02*
X126484200Y-103455000I0J50800D01*
G01*
X126484200Y-103055000D01*
G75*
G02*
X126535000Y-103004200I50800J0D01*
G01*
X127785000Y-103004200D01*
G75*
G02*
X127835800Y-103055000I0J-50800D01*
G01*
X127835800Y-103455000D01*
G75*
G02*
X127785000Y-103505800I-50800J0D01*
G01*
G37*
G36*
G01*
X119985000Y-102855800D02*
X118735000Y-102855800D01*
G75*
G02*
X118684200Y-102805000I0J50800D01*
G01*
X118684200Y-102405000D01*
G75*
G02*
X118735000Y-102354200I50800J0D01*
G01*
X119985000Y-102354200D01*
G75*
G02*
X120035800Y-102405000I0J-50800D01*
G01*
X120035800Y-102805000D01*
G75*
G02*
X119985000Y-102855800I-50800J0D01*
G01*
G37*
G36*
G01*
X127785000Y-102855800D02*
X126535000Y-102855800D01*
G75*
G02*
X126484200Y-102805000I0J50800D01*
G01*
X126484200Y-102405000D01*
G75*
G02*
X126535000Y-102354200I50800J0D01*
G01*
X127785000Y-102354200D01*
G75*
G02*
X127835800Y-102405000I0J-50800D01*
G01*
X127835800Y-102805000D01*
G75*
G02*
X127785000Y-102855800I-50800J0D01*
G01*
G37*
G36*
G01*
X119985000Y-102205800D02*
X118735000Y-102205800D01*
G75*
G02*
X118684200Y-102155000I0J50800D01*
G01*
X118684200Y-101755000D01*
G75*
G02*
X118735000Y-101704200I50800J0D01*
G01*
X119985000Y-101704200D01*
G75*
G02*
X120035800Y-101755000I0J-50800D01*
G01*
X120035800Y-102155000D01*
G75*
G02*
X119985000Y-102205800I-50800J0D01*
G01*
G37*
G36*
G01*
X127785000Y-102205800D02*
X126535000Y-102205800D01*
G75*
G02*
X126484200Y-102155000I0J50800D01*
G01*
X126484200Y-101755000D01*
G75*
G02*
X126535000Y-101704200I50800J0D01*
G01*
X127785000Y-101704200D01*
G75*
G02*
X127835800Y-101755000I0J-50800D01*
G01*
X127835800Y-102155000D01*
G75*
G02*
X127785000Y-102205800I-50800J0D01*
G01*
G37*
G36*
G01*
X119985000Y-101555800D02*
X118735000Y-101555800D01*
G75*
G02*
X118684200Y-101505000I0J50800D01*
G01*
X118684200Y-101105000D01*
G75*
G02*
X118735000Y-101054200I50800J0D01*
G01*
X119985000Y-101054200D01*
G75*
G02*
X120035800Y-101105000I0J-50800D01*
G01*
X120035800Y-101505000D01*
G75*
G02*
X119985000Y-101555800I-50800J0D01*
G01*
G37*
G36*
G01*
X127785000Y-101555800D02*
X126535000Y-101555800D01*
G75*
G02*
X126484200Y-101505000I0J50800D01*
G01*
X126484200Y-101105000D01*
G75*
G02*
X126535000Y-101054200I50800J0D01*
G01*
X127785000Y-101054200D01*
G75*
G02*
X127835800Y-101105000I0J-50800D01*
G01*
X127835800Y-101505000D01*
G75*
G02*
X127785000Y-101555800I-50800J0D01*
G01*
G37*
G36*
G01*
X119985000Y-100905800D02*
X118735000Y-100905800D01*
G75*
G02*
X118684200Y-100855000I0J50800D01*
G01*
X118684200Y-100455000D01*
G75*
G02*
X118735000Y-100404200I50800J0D01*
G01*
X119985000Y-100404200D01*
G75*
G02*
X120035800Y-100455000I0J-50800D01*
G01*
X120035800Y-100855000D01*
G75*
G02*
X119985000Y-100905800I-50800J0D01*
G01*
G37*
G36*
G01*
X127785000Y-100905800D02*
X126535000Y-100905800D01*
G75*
G02*
X126484200Y-100855000I0J50800D01*
G01*
X126484200Y-100455000D01*
G75*
G02*
X126535000Y-100404200I50800J0D01*
G01*
X127785000Y-100404200D01*
G75*
G02*
X127835800Y-100455000I0J-50800D01*
G01*
X127835800Y-100855000D01*
G75*
G02*
X127785000Y-100905800I-50800J0D01*
G01*
G37*
G36*
G01*
X119985000Y-100255800D02*
X118735000Y-100255800D01*
G75*
G02*
X118684200Y-100205000I0J50800D01*
G01*
X118684200Y-99805000D01*
G75*
G02*
X118735000Y-99754200I50800J0D01*
G01*
X119985000Y-99754200D01*
G75*
G02*
X120035800Y-99805000I0J-50800D01*
G01*
X120035800Y-100205000D01*
G75*
G02*
X119985000Y-100255800I-50800J0D01*
G01*
G37*
G36*
G01*
X127785000Y-100255800D02*
X126535000Y-100255800D01*
G75*
G02*
X126484200Y-100205000I0J50800D01*
G01*
X126484200Y-99805000D01*
G75*
G02*
X126535000Y-99754200I50800J0D01*
G01*
X127785000Y-99754200D01*
G75*
G02*
X127835800Y-99805000I0J-50800D01*
G01*
X127835800Y-100205000D01*
G75*
G02*
X127785000Y-100255800I-50800J0D01*
G01*
G37*
G36*
G01*
X119985000Y-99605800D02*
X118735000Y-99605800D01*
G75*
G02*
X118684200Y-99555000I0J50800D01*
G01*
X118684200Y-99155000D01*
G75*
G02*
X118735000Y-99104200I50800J0D01*
G01*
X119985000Y-99104200D01*
G75*
G02*
X120035800Y-99155000I0J-50800D01*
G01*
X120035800Y-99555000D01*
G75*
G02*
X119985000Y-99605800I-50800J0D01*
G01*
G37*
G36*
G01*
X127785000Y-99605800D02*
X126535000Y-99605800D01*
G75*
G02*
X126484200Y-99555000I0J50800D01*
G01*
X126484200Y-99155000D01*
G75*
G02*
X126535000Y-99104200I50800J0D01*
G01*
X127785000Y-99104200D01*
G75*
G02*
X127835800Y-99155000I0J-50800D01*
G01*
X127835800Y-99555000D01*
G75*
G02*
X127785000Y-99605800I-50800J0D01*
G01*
G37*
G36*
G01*
X120963000Y-115975800D02*
X118813000Y-115975800D01*
G75*
G02*
X118762200Y-115925000I0J50800D01*
G01*
X118762200Y-112675000D01*
G75*
G02*
X118813000Y-112624200I50800J0D01*
G01*
X120963000Y-112624200D01*
G75*
G02*
X121013800Y-112675000I0J-50800D01*
G01*
X121013800Y-115925000D01*
G75*
G02*
X120963000Y-115975800I-50800J0D01*
G01*
G37*
G36*
G01*
X127567000Y-114825800D02*
X125417000Y-114825800D01*
G75*
G02*
X125366200Y-114775000I0J50800D01*
G01*
X125366200Y-113825000D01*
G75*
G02*
X125417000Y-113774200I50800J0D01*
G01*
X127567000Y-113774200D01*
G75*
G02*
X127617800Y-113825000I0J-50800D01*
G01*
X127617800Y-114775000D01*
G75*
G02*
X127567000Y-114825800I-50800J0D01*
G01*
G37*
G36*
G01*
X127508000Y-112572800D02*
X125476000Y-112572800D01*
G75*
G02*
X125425200Y-112522000I0J50800D01*
G01*
X125425200Y-111506000D01*
G75*
G02*
X125476000Y-111455200I50800J0D01*
G01*
X127508000Y-111455200D01*
G75*
G02*
X127558800Y-111506000I0J-50800D01*
G01*
X127558800Y-112522000D01*
G75*
G02*
X127508000Y-112572800I-50800J0D01*
G01*
G37*
G36*
G01*
X127567000Y-117111800D02*
X125417000Y-117111800D01*
G75*
G02*
X125366200Y-117061000I0J50800D01*
G01*
X125366200Y-116111000D01*
G75*
G02*
X125417000Y-116060200I50800J0D01*
G01*
X127567000Y-116060200D01*
G75*
G02*
X127617800Y-116111000I0J-50800D01*
G01*
X127617800Y-117061000D01*
G75*
G02*
X127567000Y-117111800I-50800J0D01*
G01*
G37*
G36*
G01*
X114946800Y-62487999D02*
X114946800Y-62988001D01*
G75*
G02*
X114896001Y-63038800I-50799J0D01*
G01*
X114295999Y-63038800D01*
G75*
G02*
X114245200Y-62988001I0J50799D01*
G01*
X114245200Y-62487999D01*
G75*
G02*
X114295999Y-62437200I50799J0D01*
G01*
X114896001Y-62437200D01*
G75*
G02*
X114946800Y-62487999I0J-50799D01*
G01*
G37*
G36*
G01*
X113846800Y-62487999D02*
X113846800Y-62988001D01*
G75*
G02*
X113796001Y-63038800I-50799J0D01*
G01*
X113195999Y-63038800D01*
G75*
G02*
X113145200Y-62988001I0J50799D01*
G01*
X113145200Y-62487999D01*
G75*
G02*
X113195999Y-62437200I50799J0D01*
G01*
X113796001Y-62437200D01*
G75*
G02*
X113846800Y-62487999I0J-50799D01*
G01*
G37*
G36*
G01*
X132289800Y-108345000D02*
X132289800Y-109295000D01*
G75*
G02*
X132239000Y-109345800I-50800J0D01*
G01*
X131789000Y-109345800D01*
G75*
G02*
X131738200Y-109295000I0J50800D01*
G01*
X131738200Y-108345000D01*
G75*
G02*
X131789000Y-108294200I50800J0D01*
G01*
X132239000Y-108294200D01*
G75*
G02*
X132289800Y-108345000I0J-50800D01*
G01*
G37*
G36*
G01*
X132289800Y-106145000D02*
X132289800Y-107095000D01*
G75*
G02*
X132239000Y-107145800I-50800J0D01*
G01*
X131789000Y-107145800D01*
G75*
G02*
X131738200Y-107095000I0J50800D01*
G01*
X131738200Y-106145000D01*
G75*
G02*
X131789000Y-106094200I50800J0D01*
G01*
X132239000Y-106094200D01*
G75*
G02*
X132289800Y-106145000I0J-50800D01*
G01*
G37*
G36*
G01*
X131339800Y-106145000D02*
X131339800Y-107095000D01*
G75*
G02*
X131289000Y-107145800I-50800J0D01*
G01*
X130839000Y-107145800D01*
G75*
G02*
X130788200Y-107095000I0J50800D01*
G01*
X130788200Y-106145000D01*
G75*
G02*
X130839000Y-106094200I50800J0D01*
G01*
X131289000Y-106094200D01*
G75*
G02*
X131339800Y-106145000I0J-50800D01*
G01*
G37*
G36*
G01*
X130389800Y-108345000D02*
X130389800Y-109295000D01*
G75*
G02*
X130339000Y-109345800I-50800J0D01*
G01*
X129889000Y-109345800D01*
G75*
G02*
X129838200Y-109295000I0J50800D01*
G01*
X129838200Y-108345000D01*
G75*
G02*
X129889000Y-108294200I50800J0D01*
G01*
X130339000Y-108294200D01*
G75*
G02*
X130389800Y-108345000I0J-50800D01*
G01*
G37*
G36*
G01*
X130389800Y-106145000D02*
X130389800Y-107095000D01*
G75*
G02*
X130339000Y-107145800I-50800J0D01*
G01*
X129889000Y-107145800D01*
G75*
G02*
X129838200Y-107095000I0J50800D01*
G01*
X129838200Y-106145000D01*
G75*
G02*
X129889000Y-106094200I50800J0D01*
G01*
X130339000Y-106094200D01*
G75*
G02*
X130389800Y-106145000I0J-50800D01*
G01*
G37*
D10*
X109220000Y-55880000D03*
X109220000Y-58420000D03*
X109220000Y-60960000D03*
X109220000Y-63500000D03*
X109220000Y-66040000D03*
X109220000Y-68580000D03*
X109220000Y-71120000D03*
X109220000Y-73660000D03*
X109220000Y-76200000D03*
X109220000Y-78740000D03*
X109220000Y-81280000D03*
X109220000Y-83820000D03*
X109220000Y-86360000D03*
X109220000Y-88900000D03*
X109220000Y-91440000D03*
X109220000Y-93980000D03*
X109220000Y-96520000D03*
X109220000Y-99060000D03*
X109220000Y-101600000D03*
X109220000Y-104140000D03*
X109220000Y-106680000D03*
X109220000Y-109220000D03*
X109220000Y-111760000D03*
X109220000Y-114300000D03*
X109220000Y-116840000D03*
X137160000Y-55880000D03*
X137160000Y-58420000D03*
X137160000Y-60960000D03*
X137160000Y-63500000D03*
X137160000Y-66040000D03*
X137160000Y-68580000D03*
X137160000Y-71120000D03*
X137160000Y-73660000D03*
X137160000Y-76200000D03*
X137160000Y-78740000D03*
X137160000Y-81280000D03*
X137160000Y-83820000D03*
X137160000Y-86360000D03*
X137160000Y-88900000D03*
X137160000Y-91440000D03*
X137160000Y-93980000D03*
X137160000Y-96520000D03*
X137160000Y-99060000D03*
X137160000Y-101600000D03*
X137160000Y-104140000D03*
X137160000Y-106680000D03*
X137160000Y-109220000D03*
X137160000Y-111760000D03*
X137160000Y-114300000D03*
X137160000Y-116840000D03*
M02*
