G04 #@! TF.GenerationSoftware,KiCad,Pcbnew,(5.1.8-0-10_14)*
G04 #@! TF.CreationDate,2020-12-29T19:16:56-08:00*
G04 #@! TF.ProjectId,ADC,4144432e-6b69-4636-9164-5f7063625858,rev?*
G04 #@! TF.SameCoordinates,Original*
G04 #@! TF.FileFunction,OtherDrawing,Comment*
%FSLAX46Y46*%
G04 Gerber Fmt 4.6, Leading zero omitted, Abs format (unit mm)*
G04 Created by KiCad (PCBNEW (5.1.8-0-10_14)) date 2020-12-29 19:16:56*
%MOMM*%
%LPD*%
G01*
G04 APERTURE LIST*
%ADD10C,0.300000*%
%ADD11C,0.203200*%
G04 APERTURE END LIST*
D10*
X143414523Y-81915000D02*
X143475000Y-81975476D01*
X143535476Y-82096428D01*
X143535476Y-82398809D01*
X143475000Y-82519761D01*
X143414523Y-82580238D01*
X143293571Y-82640714D01*
X143172619Y-82640714D01*
X142991190Y-82580238D01*
X142265476Y-81854523D01*
X142265476Y-82640714D01*
X142386428Y-83185000D02*
X142325952Y-83245476D01*
X142265476Y-83185000D01*
X142325952Y-83124523D01*
X142386428Y-83185000D01*
X142265476Y-83185000D01*
X143535476Y-84334047D02*
X143535476Y-84092142D01*
X143475000Y-83971190D01*
X143414523Y-83910714D01*
X143233095Y-83789761D01*
X142991190Y-83729285D01*
X142507380Y-83729285D01*
X142386428Y-83789761D01*
X142325952Y-83850238D01*
X142265476Y-83971190D01*
X142265476Y-84213095D01*
X142325952Y-84334047D01*
X142386428Y-84394523D01*
X142507380Y-84455000D01*
X142809761Y-84455000D01*
X142930714Y-84394523D01*
X142991190Y-84334047D01*
X143051666Y-84213095D01*
X143051666Y-83971190D01*
X142991190Y-83850238D01*
X142930714Y-83789761D01*
X142809761Y-83729285D01*
X143535476Y-85241190D02*
X143535476Y-85362142D01*
X143475000Y-85483095D01*
X143414523Y-85543571D01*
X143293571Y-85604047D01*
X143051666Y-85664523D01*
X142749285Y-85664523D01*
X142507380Y-85604047D01*
X142386428Y-85543571D01*
X142325952Y-85483095D01*
X142265476Y-85362142D01*
X142265476Y-85241190D01*
X142325952Y-85120238D01*
X142386428Y-85059761D01*
X142507380Y-84999285D01*
X142749285Y-84938809D01*
X143051666Y-84938809D01*
X143293571Y-84999285D01*
X143414523Y-85059761D01*
X143475000Y-85120238D01*
X143535476Y-85241190D01*
X143535476Y-86450714D02*
X143535476Y-86571666D01*
X143475000Y-86692619D01*
X143414523Y-86753095D01*
X143293571Y-86813571D01*
X143051666Y-86874047D01*
X142749285Y-86874047D01*
X142507380Y-86813571D01*
X142386428Y-86753095D01*
X142325952Y-86692619D01*
X142265476Y-86571666D01*
X142265476Y-86450714D01*
X142325952Y-86329761D01*
X142386428Y-86269285D01*
X142507380Y-86208809D01*
X142749285Y-86148333D01*
X143051666Y-86148333D01*
X143293571Y-86208809D01*
X143414523Y-86269285D01*
X143475000Y-86329761D01*
X143535476Y-86450714D01*
X143535476Y-87660238D02*
X143535476Y-87781190D01*
X143475000Y-87902142D01*
X143414523Y-87962619D01*
X143293571Y-88023095D01*
X143051666Y-88083571D01*
X142749285Y-88083571D01*
X142507380Y-88023095D01*
X142386428Y-87962619D01*
X142325952Y-87902142D01*
X142265476Y-87781190D01*
X142265476Y-87660238D01*
X142325952Y-87539285D01*
X142386428Y-87478809D01*
X142507380Y-87418333D01*
X142749285Y-87357857D01*
X143051666Y-87357857D01*
X143293571Y-87418333D01*
X143414523Y-87478809D01*
X143475000Y-87539285D01*
X143535476Y-87660238D01*
X142265476Y-89595476D02*
X143112142Y-89595476D01*
X143535476Y-89595476D02*
X143475000Y-89535000D01*
X143414523Y-89595476D01*
X143475000Y-89655952D01*
X143535476Y-89595476D01*
X143414523Y-89595476D01*
X143112142Y-90200238D02*
X142265476Y-90200238D01*
X142991190Y-90200238D02*
X143051666Y-90260714D01*
X143112142Y-90381666D01*
X143112142Y-90563095D01*
X143051666Y-90684047D01*
X142930714Y-90744523D01*
X142265476Y-90744523D01*
X141605000Y-53340000D02*
X141605000Y-119380000D01*
X139700000Y-53340000D02*
X144075000Y-53340000D01*
X139700000Y-119380000D02*
X144075000Y-119380000D01*
X141605000Y-119380000D02*
X141018579Y-118253496D01*
X141605000Y-119380000D02*
X142191421Y-118253496D01*
X141605000Y-53340000D02*
X141018579Y-54466504D01*
X141605000Y-53340000D02*
X142191421Y-54466504D01*
X119470714Y-50774523D02*
X118745000Y-50774523D01*
X119107857Y-50774523D02*
X119107857Y-49504523D01*
X118986904Y-49685952D01*
X118865952Y-49806904D01*
X118745000Y-49867380D01*
X120015000Y-50653571D02*
X120075476Y-50714047D01*
X120015000Y-50774523D01*
X119954523Y-50714047D01*
X120015000Y-50653571D01*
X120015000Y-50774523D01*
X120498809Y-49504523D02*
X121285000Y-49504523D01*
X120861666Y-49988333D01*
X121043095Y-49988333D01*
X121164047Y-50048809D01*
X121224523Y-50109285D01*
X121285000Y-50230238D01*
X121285000Y-50532619D01*
X121224523Y-50653571D01*
X121164047Y-50714047D01*
X121043095Y-50774523D01*
X120680238Y-50774523D01*
X120559285Y-50714047D01*
X120498809Y-50653571D01*
X122071190Y-49504523D02*
X122192142Y-49504523D01*
X122313095Y-49565000D01*
X122373571Y-49625476D01*
X122434047Y-49746428D01*
X122494523Y-49988333D01*
X122494523Y-50290714D01*
X122434047Y-50532619D01*
X122373571Y-50653571D01*
X122313095Y-50714047D01*
X122192142Y-50774523D01*
X122071190Y-50774523D01*
X121950238Y-50714047D01*
X121889761Y-50653571D01*
X121829285Y-50532619D01*
X121768809Y-50290714D01*
X121768809Y-49988333D01*
X121829285Y-49746428D01*
X121889761Y-49625476D01*
X121950238Y-49565000D01*
X122071190Y-49504523D01*
X123280714Y-49504523D02*
X123401666Y-49504523D01*
X123522619Y-49565000D01*
X123583095Y-49625476D01*
X123643571Y-49746428D01*
X123704047Y-49988333D01*
X123704047Y-50290714D01*
X123643571Y-50532619D01*
X123583095Y-50653571D01*
X123522619Y-50714047D01*
X123401666Y-50774523D01*
X123280714Y-50774523D01*
X123159761Y-50714047D01*
X123099285Y-50653571D01*
X123038809Y-50532619D01*
X122978333Y-50290714D01*
X122978333Y-49988333D01*
X123038809Y-49746428D01*
X123099285Y-49625476D01*
X123159761Y-49565000D01*
X123280714Y-49504523D01*
X124490238Y-49504523D02*
X124611190Y-49504523D01*
X124732142Y-49565000D01*
X124792619Y-49625476D01*
X124853095Y-49746428D01*
X124913571Y-49988333D01*
X124913571Y-50290714D01*
X124853095Y-50532619D01*
X124792619Y-50653571D01*
X124732142Y-50714047D01*
X124611190Y-50774523D01*
X124490238Y-50774523D01*
X124369285Y-50714047D01*
X124308809Y-50653571D01*
X124248333Y-50532619D01*
X124187857Y-50290714D01*
X124187857Y-49988333D01*
X124248333Y-49746428D01*
X124308809Y-49625476D01*
X124369285Y-49565000D01*
X124490238Y-49504523D01*
X126425476Y-50774523D02*
X126425476Y-49927857D01*
X126425476Y-49504523D02*
X126365000Y-49565000D01*
X126425476Y-49625476D01*
X126485952Y-49565000D01*
X126425476Y-49504523D01*
X126425476Y-49625476D01*
X127030238Y-49927857D02*
X127030238Y-50774523D01*
X127030238Y-50048809D02*
X127090714Y-49988333D01*
X127211666Y-49927857D01*
X127393095Y-49927857D01*
X127514047Y-49988333D01*
X127574523Y-50109285D01*
X127574523Y-50774523D01*
X106680000Y-51435000D02*
X139700000Y-51435000D01*
X106680000Y-53340000D02*
X106680000Y-48965000D01*
X139700000Y-53340000D02*
X139700000Y-48965000D01*
X139700000Y-51435000D02*
X138573496Y-52021421D01*
X139700000Y-51435000D02*
X138573496Y-50848579D01*
X106680000Y-51435000D02*
X107806504Y-52021421D01*
X106680000Y-51435000D02*
X107806504Y-50848579D01*
D11*
X157956794Y-57224385D02*
X158138222Y-57284861D01*
X158198699Y-57345338D01*
X158259175Y-57466290D01*
X158259175Y-57647719D01*
X158198699Y-57768671D01*
X158138222Y-57829147D01*
X158017270Y-57889623D01*
X157533460Y-57889623D01*
X157533460Y-56619623D01*
X157956794Y-56619623D01*
X158077746Y-56680100D01*
X158138222Y-56740576D01*
X158198699Y-56861528D01*
X158198699Y-56982480D01*
X158138222Y-57103433D01*
X158077746Y-57163909D01*
X157956794Y-57224385D01*
X157533460Y-57224385D01*
X159045365Y-56619623D02*
X159287270Y-56619623D01*
X159408222Y-56680100D01*
X159529175Y-56801052D01*
X159589651Y-57042957D01*
X159589651Y-57466290D01*
X159529175Y-57708195D01*
X159408222Y-57829147D01*
X159287270Y-57889623D01*
X159045365Y-57889623D01*
X158924413Y-57829147D01*
X158803460Y-57708195D01*
X158742984Y-57466290D01*
X158742984Y-57042957D01*
X158803460Y-56801052D01*
X158924413Y-56680100D01*
X159045365Y-56619623D01*
X160073460Y-57829147D02*
X160254889Y-57889623D01*
X160557270Y-57889623D01*
X160678222Y-57829147D01*
X160738699Y-57768671D01*
X160799175Y-57647719D01*
X160799175Y-57526766D01*
X160738699Y-57405814D01*
X160678222Y-57345338D01*
X160557270Y-57284861D01*
X160315365Y-57224385D01*
X160194413Y-57163909D01*
X160133937Y-57103433D01*
X160073460Y-56982480D01*
X160073460Y-56861528D01*
X160133937Y-56740576D01*
X160194413Y-56680100D01*
X160315365Y-56619623D01*
X160617746Y-56619623D01*
X160799175Y-56680100D01*
X161162032Y-56619623D02*
X161887746Y-56619623D01*
X161524889Y-57889623D02*
X161524889Y-56619623D01*
X162552984Y-56619623D02*
X162794889Y-56619623D01*
X162915841Y-56680100D01*
X163036794Y-56801052D01*
X163097270Y-57042957D01*
X163097270Y-57466290D01*
X163036794Y-57708195D01*
X162915841Y-57829147D01*
X162794889Y-57889623D01*
X162552984Y-57889623D01*
X162432032Y-57829147D01*
X162311080Y-57708195D01*
X162250603Y-57466290D01*
X162250603Y-57042957D01*
X162311080Y-56801052D01*
X162432032Y-56680100D01*
X162552984Y-56619623D01*
X163641556Y-57889623D02*
X163641556Y-56619623D01*
X164367270Y-57889623D01*
X164367270Y-56619623D01*
X165939651Y-56619623D02*
X165939651Y-57647719D01*
X166000127Y-57768671D01*
X166060603Y-57829147D01*
X166181556Y-57889623D01*
X166423460Y-57889623D01*
X166544413Y-57829147D01*
X166604889Y-57768671D01*
X166665365Y-57647719D01*
X166665365Y-56619623D01*
X167270127Y-57889623D02*
X167270127Y-56619623D01*
X167995841Y-57889623D01*
X167995841Y-56619623D01*
X168600603Y-57889623D02*
X168600603Y-56619623D01*
X169023937Y-56619623D02*
X169447270Y-57889623D01*
X169870603Y-56619623D01*
X170293937Y-57224385D02*
X170717270Y-57224385D01*
X170898699Y-57889623D02*
X170293937Y-57889623D01*
X170293937Y-56619623D01*
X170898699Y-56619623D01*
X172168699Y-57889623D02*
X171745365Y-57284861D01*
X171442984Y-57889623D02*
X171442984Y-56619623D01*
X171926794Y-56619623D01*
X172047746Y-56680100D01*
X172108222Y-56740576D01*
X172168699Y-56861528D01*
X172168699Y-57042957D01*
X172108222Y-57163909D01*
X172047746Y-57224385D01*
X171926794Y-57284861D01*
X171442984Y-57284861D01*
X172652508Y-57829147D02*
X172833937Y-57889623D01*
X173136318Y-57889623D01*
X173257270Y-57829147D01*
X173317746Y-57768671D01*
X173378222Y-57647719D01*
X173378222Y-57526766D01*
X173317746Y-57405814D01*
X173257270Y-57345338D01*
X173136318Y-57284861D01*
X172894413Y-57224385D01*
X172773460Y-57163909D01*
X172712984Y-57103433D01*
X172652508Y-56982480D01*
X172652508Y-56861528D01*
X172712984Y-56740576D01*
X172773460Y-56680100D01*
X172894413Y-56619623D01*
X173196794Y-56619623D01*
X173378222Y-56680100D01*
X173922508Y-57889623D02*
X173922508Y-56619623D01*
X174345841Y-56619623D02*
X175071556Y-56619623D01*
X174708699Y-57889623D02*
X174708699Y-56619623D01*
X175736794Y-57284861D02*
X175736794Y-57889623D01*
X175313460Y-56619623D02*
X175736794Y-57284861D01*
X176160127Y-56619623D01*
X177551080Y-57224385D02*
X177974413Y-57224385D01*
X178155841Y-57889623D02*
X177551080Y-57889623D01*
X177551080Y-56619623D01*
X178155841Y-56619623D01*
X178700127Y-57889623D02*
X178700127Y-56619623D01*
X179002508Y-56619623D01*
X179183937Y-56680100D01*
X179304889Y-56801052D01*
X179365365Y-56922004D01*
X179425841Y-57163909D01*
X179425841Y-57345338D01*
X179365365Y-57587242D01*
X179304889Y-57708195D01*
X179183937Y-57829147D01*
X179002508Y-57889623D01*
X178700127Y-57889623D01*
X180393460Y-57224385D02*
X179970127Y-57224385D01*
X179970127Y-57889623D02*
X179970127Y-56619623D01*
X180574889Y-56619623D01*
X158017270Y-59937347D02*
X157896318Y-59997823D01*
X157654413Y-59997823D01*
X157533460Y-59937347D01*
X157472984Y-59816395D01*
X157472984Y-59332585D01*
X157533460Y-59211633D01*
X157654413Y-59151157D01*
X157896318Y-59151157D01*
X158017270Y-59211633D01*
X158077746Y-59332585D01*
X158077746Y-59453538D01*
X157472984Y-59574490D01*
X158440603Y-58727823D02*
X158863937Y-59997823D01*
X159287270Y-58727823D01*
X159952508Y-58727823D02*
X160194413Y-58727823D01*
X160315365Y-58788300D01*
X160436318Y-58909252D01*
X160496794Y-59151157D01*
X160496794Y-59574490D01*
X160436318Y-59816395D01*
X160315365Y-59937347D01*
X160194413Y-59997823D01*
X159952508Y-59997823D01*
X159831556Y-59937347D01*
X159710603Y-59816395D01*
X159650127Y-59574490D01*
X159650127Y-59151157D01*
X159710603Y-58909252D01*
X159831556Y-58788300D01*
X159952508Y-58727823D01*
X161645841Y-59997823D02*
X161041080Y-59997823D01*
X161041080Y-58727823D01*
X161887746Y-58727823D02*
X162311080Y-59997823D01*
X162734413Y-58727823D01*
X163157746Y-59332585D02*
X163581080Y-59332585D01*
X163762508Y-59997823D02*
X163157746Y-59997823D01*
X163157746Y-58727823D01*
X163762508Y-58727823D01*
X165032508Y-59997823D02*
X164609175Y-59393061D01*
X164306794Y-59997823D02*
X164306794Y-58727823D01*
X164790603Y-58727823D01*
X164911556Y-58788300D01*
X164972032Y-58848776D01*
X165032508Y-58969728D01*
X165032508Y-59151157D01*
X164972032Y-59272109D01*
X164911556Y-59332585D01*
X164790603Y-59393061D01*
X164306794Y-59393061D01*
X166483937Y-59937347D02*
X166665365Y-59997823D01*
X166967746Y-59997823D01*
X167088699Y-59937347D01*
X167149175Y-59876871D01*
X167209651Y-59755919D01*
X167209651Y-59634966D01*
X167149175Y-59514014D01*
X167088699Y-59453538D01*
X166967746Y-59393061D01*
X166725841Y-59332585D01*
X166604889Y-59272109D01*
X166544413Y-59211633D01*
X166483937Y-59090680D01*
X166483937Y-58969728D01*
X166544413Y-58848776D01*
X166604889Y-58788300D01*
X166725841Y-58727823D01*
X167028222Y-58727823D01*
X167209651Y-58788300D01*
X167632984Y-59151157D02*
X167935365Y-59997823D01*
X168237746Y-59151157D02*
X167935365Y-59997823D01*
X167814413Y-60300204D01*
X167753937Y-60360680D01*
X167632984Y-60421157D01*
X168661080Y-59937347D02*
X168782032Y-59997823D01*
X169023937Y-59997823D01*
X169144889Y-59937347D01*
X169205365Y-59816395D01*
X169205365Y-59755919D01*
X169144889Y-59634966D01*
X169023937Y-59574490D01*
X168842508Y-59574490D01*
X168721556Y-59514014D01*
X168661080Y-59393061D01*
X168661080Y-59332585D01*
X168721556Y-59211633D01*
X168842508Y-59151157D01*
X169023937Y-59151157D01*
X169144889Y-59211633D01*
X169568222Y-59151157D02*
X170052032Y-59151157D01*
X169749651Y-58727823D02*
X169749651Y-59816395D01*
X169810127Y-59937347D01*
X169931080Y-59997823D01*
X170052032Y-59997823D01*
X170959175Y-59937347D02*
X170838222Y-59997823D01*
X170596318Y-59997823D01*
X170475365Y-59937347D01*
X170414889Y-59816395D01*
X170414889Y-59332585D01*
X170475365Y-59211633D01*
X170596318Y-59151157D01*
X170838222Y-59151157D01*
X170959175Y-59211633D01*
X171019651Y-59332585D01*
X171019651Y-59453538D01*
X170414889Y-59574490D01*
X171563937Y-59997823D02*
X171563937Y-59151157D01*
X171563937Y-59272109D02*
X171624413Y-59211633D01*
X171745365Y-59151157D01*
X171926794Y-59151157D01*
X172047746Y-59211633D01*
X172108222Y-59332585D01*
X172108222Y-59997823D01*
X172108222Y-59332585D02*
X172168699Y-59211633D01*
X172289651Y-59151157D01*
X172471080Y-59151157D01*
X172592032Y-59211633D01*
X172652508Y-59332585D01*
X172652508Y-59997823D01*
X157533460Y-63548985D02*
X157956794Y-63548985D01*
X158138222Y-64214223D02*
X157533460Y-64214223D01*
X157533460Y-62944223D01*
X158138222Y-62944223D01*
X158501080Y-62944223D02*
X158924413Y-64214223D01*
X159347746Y-62944223D01*
X159771080Y-63730414D02*
X160738699Y-63730414D01*
X161282984Y-63851366D02*
X161887746Y-63851366D01*
X161162032Y-64214223D02*
X161585365Y-62944223D01*
X162008699Y-64214223D01*
X162432032Y-64214223D02*
X162432032Y-62944223D01*
X162734413Y-62944223D01*
X162915841Y-63004700D01*
X163036794Y-63125652D01*
X163097270Y-63246604D01*
X163157746Y-63488509D01*
X163157746Y-63669938D01*
X163097270Y-63911842D01*
X163036794Y-64032795D01*
X162915841Y-64153747D01*
X162734413Y-64214223D01*
X162432032Y-64214223D01*
X164427746Y-64093271D02*
X164367270Y-64153747D01*
X164185841Y-64214223D01*
X164064889Y-64214223D01*
X163883460Y-64153747D01*
X163762508Y-64032795D01*
X163702032Y-63911842D01*
X163641556Y-63669938D01*
X163641556Y-63488509D01*
X163702032Y-63246604D01*
X163762508Y-63125652D01*
X163883460Y-63004700D01*
X164064889Y-62944223D01*
X164185841Y-62944223D01*
X164367270Y-63004700D01*
X164427746Y-63065176D01*
X166665365Y-64214223D02*
X166242032Y-63609461D01*
X165939651Y-64214223D02*
X165939651Y-62944223D01*
X166423460Y-62944223D01*
X166544413Y-63004700D01*
X166604889Y-63065176D01*
X166665365Y-63186128D01*
X166665365Y-63367557D01*
X166604889Y-63488509D01*
X166544413Y-63548985D01*
X166423460Y-63609461D01*
X165939651Y-63609461D01*
X167693460Y-64153747D02*
X167572508Y-64214223D01*
X167330603Y-64214223D01*
X167209651Y-64153747D01*
X167149175Y-64032795D01*
X167149175Y-63548985D01*
X167209651Y-63428033D01*
X167330603Y-63367557D01*
X167572508Y-63367557D01*
X167693460Y-63428033D01*
X167753937Y-63548985D01*
X167753937Y-63669938D01*
X167149175Y-63790890D01*
X168177270Y-63367557D02*
X168479651Y-64214223D01*
X168782032Y-63367557D01*
X170959175Y-64093271D02*
X170898699Y-64153747D01*
X170717270Y-64214223D01*
X170596318Y-64214223D01*
X170414889Y-64153747D01*
X170293937Y-64032795D01*
X170233460Y-63911842D01*
X170172984Y-63669938D01*
X170172984Y-63488509D01*
X170233460Y-63246604D01*
X170293937Y-63125652D01*
X170414889Y-63004700D01*
X170596318Y-62944223D01*
X170717270Y-62944223D01*
X170898699Y-63004700D01*
X170959175Y-63065176D01*
X158077746Y-67583957D02*
X158077746Y-68430623D01*
X157775365Y-67100147D02*
X157472984Y-68007290D01*
X158259175Y-68007290D01*
X159892032Y-68430623D02*
X159771080Y-68370147D01*
X159710603Y-68249195D01*
X159710603Y-67160623D01*
X160920127Y-68430623D02*
X160920127Y-67765385D01*
X160859651Y-67644433D01*
X160738699Y-67583957D01*
X160496794Y-67583957D01*
X160375841Y-67644433D01*
X160920127Y-68370147D02*
X160799175Y-68430623D01*
X160496794Y-68430623D01*
X160375841Y-68370147D01*
X160315365Y-68249195D01*
X160315365Y-68128242D01*
X160375841Y-68007290D01*
X160496794Y-67946814D01*
X160799175Y-67946814D01*
X160920127Y-67886338D01*
X161403937Y-67583957D02*
X161706318Y-68430623D01*
X162008699Y-67583957D02*
X161706318Y-68430623D01*
X161585365Y-68733004D01*
X161524889Y-68793480D01*
X161403937Y-68853957D01*
X162976318Y-68370147D02*
X162855365Y-68430623D01*
X162613460Y-68430623D01*
X162492508Y-68370147D01*
X162432032Y-68249195D01*
X162432032Y-67765385D01*
X162492508Y-67644433D01*
X162613460Y-67583957D01*
X162855365Y-67583957D01*
X162976318Y-67644433D01*
X163036794Y-67765385D01*
X163036794Y-67886338D01*
X162432032Y-68007290D01*
X163581080Y-68430623D02*
X163581080Y-67583957D01*
X163581080Y-67825861D02*
X163641556Y-67704909D01*
X163702032Y-67644433D01*
X163822984Y-67583957D01*
X163943937Y-67583957D01*
X164306794Y-68370147D02*
X164427746Y-68430623D01*
X164669651Y-68430623D01*
X164790603Y-68370147D01*
X164851080Y-68249195D01*
X164851080Y-68188719D01*
X164790603Y-68067766D01*
X164669651Y-68007290D01*
X164488222Y-68007290D01*
X164367270Y-67946814D01*
X164306794Y-67825861D01*
X164306794Y-67765385D01*
X164367270Y-67644433D01*
X164488222Y-67583957D01*
X164669651Y-67583957D01*
X164790603Y-67644433D01*
X157775365Y-69268823D02*
X157896318Y-69268823D01*
X158017270Y-69329300D01*
X158077746Y-69389776D01*
X158138222Y-69510728D01*
X158198699Y-69752633D01*
X158198699Y-70055014D01*
X158138222Y-70296919D01*
X158077746Y-70417871D01*
X158017270Y-70478347D01*
X157896318Y-70538823D01*
X157775365Y-70538823D01*
X157654413Y-70478347D01*
X157593937Y-70417871D01*
X157533460Y-70296919D01*
X157472984Y-70055014D01*
X157472984Y-69752633D01*
X157533460Y-69510728D01*
X157593937Y-69389776D01*
X157654413Y-69329300D01*
X157775365Y-69268823D01*
X158742984Y-70417871D02*
X158803460Y-70478347D01*
X158742984Y-70538823D01*
X158682508Y-70478347D01*
X158742984Y-70417871D01*
X158742984Y-70538823D01*
X159589651Y-69268823D02*
X159710603Y-69268823D01*
X159831556Y-69329300D01*
X159892032Y-69389776D01*
X159952508Y-69510728D01*
X160012984Y-69752633D01*
X160012984Y-70055014D01*
X159952508Y-70296919D01*
X159892032Y-70417871D01*
X159831556Y-70478347D01*
X159710603Y-70538823D01*
X159589651Y-70538823D01*
X159468699Y-70478347D01*
X159408222Y-70417871D01*
X159347746Y-70296919D01*
X159287270Y-70055014D01*
X159287270Y-69752633D01*
X159347746Y-69510728D01*
X159408222Y-69389776D01*
X159468699Y-69329300D01*
X159589651Y-69268823D01*
X161101556Y-69268823D02*
X160859651Y-69268823D01*
X160738699Y-69329300D01*
X160678222Y-69389776D01*
X160557270Y-69571204D01*
X160496794Y-69813109D01*
X160496794Y-70296919D01*
X160557270Y-70417871D01*
X160617746Y-70478347D01*
X160738699Y-70538823D01*
X160980603Y-70538823D01*
X161101556Y-70478347D01*
X161162032Y-70417871D01*
X161222508Y-70296919D01*
X161222508Y-69994538D01*
X161162032Y-69873585D01*
X161101556Y-69813109D01*
X160980603Y-69752633D01*
X160738699Y-69752633D01*
X160617746Y-69813109D01*
X160557270Y-69873585D01*
X160496794Y-69994538D01*
X161645841Y-69268823D02*
X162432032Y-69268823D01*
X162008699Y-69752633D01*
X162190127Y-69752633D01*
X162311080Y-69813109D01*
X162371556Y-69873585D01*
X162432032Y-69994538D01*
X162432032Y-70296919D01*
X162371556Y-70417871D01*
X162311080Y-70478347D01*
X162190127Y-70538823D01*
X161827270Y-70538823D01*
X161706318Y-70478347D01*
X161645841Y-70417871D01*
X163762508Y-69692157D02*
X164246318Y-69692157D01*
X163943937Y-70538823D02*
X163943937Y-69450252D01*
X164004413Y-69329300D01*
X164125365Y-69268823D01*
X164246318Y-69268823D01*
X164669651Y-70538823D02*
X164669651Y-69692157D01*
X164669651Y-69268823D02*
X164609175Y-69329300D01*
X164669651Y-69389776D01*
X164730127Y-69329300D01*
X164669651Y-69268823D01*
X164669651Y-69389776D01*
X165274413Y-69692157D02*
X165274413Y-70538823D01*
X165274413Y-69813109D02*
X165334889Y-69752633D01*
X165455841Y-69692157D01*
X165637270Y-69692157D01*
X165758222Y-69752633D01*
X165818699Y-69873585D01*
X165818699Y-70538823D01*
X166967746Y-70538823D02*
X166967746Y-69873585D01*
X166907270Y-69752633D01*
X166786318Y-69692157D01*
X166544413Y-69692157D01*
X166423460Y-69752633D01*
X166967746Y-70478347D02*
X166846794Y-70538823D01*
X166544413Y-70538823D01*
X166423460Y-70478347D01*
X166362984Y-70357395D01*
X166362984Y-70236442D01*
X166423460Y-70115490D01*
X166544413Y-70055014D01*
X166846794Y-70055014D01*
X166967746Y-69994538D01*
X167753937Y-70538823D02*
X167632984Y-70478347D01*
X167572508Y-70357395D01*
X167572508Y-69268823D01*
X169023937Y-69692157D02*
X169507746Y-69692157D01*
X169205365Y-69268823D02*
X169205365Y-70357395D01*
X169265841Y-70478347D01*
X169386794Y-70538823D01*
X169507746Y-70538823D01*
X169931080Y-70538823D02*
X169931080Y-69268823D01*
X170475365Y-70538823D02*
X170475365Y-69873585D01*
X170414889Y-69752633D01*
X170293937Y-69692157D01*
X170112508Y-69692157D01*
X169991556Y-69752633D01*
X169931080Y-69813109D01*
X171080127Y-70538823D02*
X171080127Y-69692157D01*
X171080127Y-69268823D02*
X171019651Y-69329300D01*
X171080127Y-69389776D01*
X171140603Y-69329300D01*
X171080127Y-69268823D01*
X171080127Y-69389776D01*
X172229175Y-70478347D02*
X172108222Y-70538823D01*
X171866318Y-70538823D01*
X171745365Y-70478347D01*
X171684889Y-70417871D01*
X171624413Y-70296919D01*
X171624413Y-69934061D01*
X171684889Y-69813109D01*
X171745365Y-69752633D01*
X171866318Y-69692157D01*
X172108222Y-69692157D01*
X172229175Y-69752633D01*
X172773460Y-70538823D02*
X172773460Y-69268823D01*
X172894413Y-70055014D02*
X173257270Y-70538823D01*
X173257270Y-69692157D02*
X172773460Y-70175966D01*
X173801556Y-69692157D02*
X173801556Y-70538823D01*
X173801556Y-69813109D02*
X173862032Y-69752633D01*
X173982984Y-69692157D01*
X174164413Y-69692157D01*
X174285365Y-69752633D01*
X174345841Y-69873585D01*
X174345841Y-70538823D01*
X175434413Y-70478347D02*
X175313460Y-70538823D01*
X175071556Y-70538823D01*
X174950603Y-70478347D01*
X174890127Y-70357395D01*
X174890127Y-69873585D01*
X174950603Y-69752633D01*
X175071556Y-69692157D01*
X175313460Y-69692157D01*
X175434413Y-69752633D01*
X175494889Y-69873585D01*
X175494889Y-69994538D01*
X174890127Y-70115490D01*
X175978699Y-70478347D02*
X176099651Y-70538823D01*
X176341556Y-70538823D01*
X176462508Y-70478347D01*
X176522984Y-70357395D01*
X176522984Y-70296919D01*
X176462508Y-70175966D01*
X176341556Y-70115490D01*
X176160127Y-70115490D01*
X176039175Y-70055014D01*
X175978699Y-69934061D01*
X175978699Y-69873585D01*
X176039175Y-69752633D01*
X176160127Y-69692157D01*
X176341556Y-69692157D01*
X176462508Y-69752633D01*
X177006794Y-70478347D02*
X177127746Y-70538823D01*
X177369651Y-70538823D01*
X177490603Y-70478347D01*
X177551080Y-70357395D01*
X177551080Y-70296919D01*
X177490603Y-70175966D01*
X177369651Y-70115490D01*
X177188222Y-70115490D01*
X177067270Y-70055014D01*
X177006794Y-69934061D01*
X177006794Y-69873585D01*
X177067270Y-69752633D01*
X177188222Y-69692157D01*
X177369651Y-69692157D01*
X177490603Y-69752633D01*
X179486318Y-69873585D02*
X179062984Y-69873585D01*
X179062984Y-70538823D02*
X179062984Y-69268823D01*
X179667746Y-69268823D01*
X180877270Y-70538823D02*
X180453937Y-69934061D01*
X180151556Y-70538823D02*
X180151556Y-69268823D01*
X180635365Y-69268823D01*
X180756318Y-69329300D01*
X180816794Y-69389776D01*
X180877270Y-69510728D01*
X180877270Y-69692157D01*
X180816794Y-69813109D01*
X180756318Y-69873585D01*
X180635365Y-69934061D01*
X180151556Y-69934061D01*
X181421556Y-70055014D02*
X182389175Y-70055014D01*
X183538222Y-69692157D02*
X183538222Y-70538823D01*
X183235841Y-69208347D02*
X182933460Y-70115490D01*
X183719651Y-70115490D01*
X158198699Y-72647023D02*
X157472984Y-72647023D01*
X157835841Y-72647023D02*
X157835841Y-71377023D01*
X157714889Y-71558452D01*
X157593937Y-71679404D01*
X157472984Y-71739880D01*
X159892032Y-72647023D02*
X159771080Y-72586547D01*
X159710603Y-72526071D01*
X159650127Y-72405119D01*
X159650127Y-72042261D01*
X159710603Y-71921309D01*
X159771080Y-71860833D01*
X159892032Y-71800357D01*
X160073460Y-71800357D01*
X160194413Y-71860833D01*
X160254889Y-71921309D01*
X160315365Y-72042261D01*
X160315365Y-72405119D01*
X160254889Y-72526071D01*
X160194413Y-72586547D01*
X160073460Y-72647023D01*
X159892032Y-72647023D01*
X160738699Y-71800357D02*
X161403937Y-71800357D01*
X160738699Y-72647023D01*
X161403937Y-72647023D01*
X163399651Y-72586547D02*
X163278699Y-72647023D01*
X163036794Y-72647023D01*
X162915841Y-72586547D01*
X162855365Y-72526071D01*
X162794889Y-72405119D01*
X162794889Y-72042261D01*
X162855365Y-71921309D01*
X162915841Y-71860833D01*
X163036794Y-71800357D01*
X163278699Y-71800357D01*
X163399651Y-71860833D01*
X164125365Y-72647023D02*
X164004413Y-72586547D01*
X163943937Y-72526071D01*
X163883460Y-72405119D01*
X163883460Y-72042261D01*
X163943937Y-71921309D01*
X164004413Y-71860833D01*
X164125365Y-71800357D01*
X164306794Y-71800357D01*
X164427746Y-71860833D01*
X164488222Y-71921309D01*
X164548699Y-72042261D01*
X164548699Y-72405119D01*
X164488222Y-72526071D01*
X164427746Y-72586547D01*
X164306794Y-72647023D01*
X164125365Y-72647023D01*
X165092984Y-71800357D02*
X165092984Y-73070357D01*
X165092984Y-71860833D02*
X165213937Y-71800357D01*
X165455841Y-71800357D01*
X165576794Y-71860833D01*
X165637270Y-71921309D01*
X165697746Y-72042261D01*
X165697746Y-72405119D01*
X165637270Y-72526071D01*
X165576794Y-72586547D01*
X165455841Y-72647023D01*
X165213937Y-72647023D01*
X165092984Y-72586547D01*
X166242032Y-71800357D02*
X166242032Y-73070357D01*
X166242032Y-71860833D02*
X166362984Y-71800357D01*
X166604889Y-71800357D01*
X166725841Y-71860833D01*
X166786318Y-71921309D01*
X166846794Y-72042261D01*
X166846794Y-72405119D01*
X166786318Y-72526071D01*
X166725841Y-72586547D01*
X166604889Y-72647023D01*
X166362984Y-72647023D01*
X166242032Y-72586547D01*
X167874889Y-72586547D02*
X167753937Y-72647023D01*
X167512032Y-72647023D01*
X167391080Y-72586547D01*
X167330603Y-72465595D01*
X167330603Y-71981785D01*
X167391080Y-71860833D01*
X167512032Y-71800357D01*
X167753937Y-71800357D01*
X167874889Y-71860833D01*
X167935365Y-71981785D01*
X167935365Y-72102738D01*
X167330603Y-72223690D01*
X168479651Y-72647023D02*
X168479651Y-71800357D01*
X168479651Y-72042261D02*
X168540127Y-71921309D01*
X168600603Y-71860833D01*
X168721556Y-71800357D01*
X168842508Y-71800357D01*
X157472984Y-74694747D02*
X157593937Y-74755223D01*
X157835841Y-74755223D01*
X157956794Y-74694747D01*
X158017270Y-74573795D01*
X158017270Y-74513319D01*
X157956794Y-74392366D01*
X157835841Y-74331890D01*
X157654413Y-74331890D01*
X157533460Y-74271414D01*
X157472984Y-74150461D01*
X157472984Y-74089985D01*
X157533460Y-73969033D01*
X157654413Y-73908557D01*
X157835841Y-73908557D01*
X157956794Y-73969033D01*
X158742984Y-74755223D02*
X158622032Y-74694747D01*
X158561556Y-74634271D01*
X158501080Y-74513319D01*
X158501080Y-74150461D01*
X158561556Y-74029509D01*
X158622032Y-73969033D01*
X158742984Y-73908557D01*
X158924413Y-73908557D01*
X159045365Y-73969033D01*
X159105841Y-74029509D01*
X159166318Y-74150461D01*
X159166318Y-74513319D01*
X159105841Y-74634271D01*
X159045365Y-74694747D01*
X158924413Y-74755223D01*
X158742984Y-74755223D01*
X159892032Y-74755223D02*
X159771080Y-74694747D01*
X159710603Y-74573795D01*
X159710603Y-73485223D01*
X160920127Y-74755223D02*
X160920127Y-73485223D01*
X160920127Y-74694747D02*
X160799175Y-74755223D01*
X160557270Y-74755223D01*
X160436318Y-74694747D01*
X160375841Y-74634271D01*
X160315365Y-74513319D01*
X160315365Y-74150461D01*
X160375841Y-74029509D01*
X160436318Y-73969033D01*
X160557270Y-73908557D01*
X160799175Y-73908557D01*
X160920127Y-73969033D01*
X162008699Y-74694747D02*
X161887746Y-74755223D01*
X161645841Y-74755223D01*
X161524889Y-74694747D01*
X161464413Y-74573795D01*
X161464413Y-74089985D01*
X161524889Y-73969033D01*
X161645841Y-73908557D01*
X161887746Y-73908557D01*
X162008699Y-73969033D01*
X162069175Y-74089985D01*
X162069175Y-74210938D01*
X161464413Y-74331890D01*
X162613460Y-74755223D02*
X162613460Y-73908557D01*
X162613460Y-74150461D02*
X162673937Y-74029509D01*
X162734413Y-73969033D01*
X162855365Y-73908557D01*
X162976318Y-73908557D01*
X163399651Y-74755223D02*
X163399651Y-73908557D01*
X163399651Y-74029509D02*
X163460127Y-73969033D01*
X163581080Y-73908557D01*
X163762508Y-73908557D01*
X163883460Y-73969033D01*
X163943937Y-74089985D01*
X163943937Y-74755223D01*
X163943937Y-74089985D02*
X164004413Y-73969033D01*
X164125365Y-73908557D01*
X164306794Y-73908557D01*
X164427746Y-73969033D01*
X164488222Y-74089985D01*
X164488222Y-74755223D01*
X165637270Y-74755223D02*
X165637270Y-74089985D01*
X165576794Y-73969033D01*
X165455841Y-73908557D01*
X165213937Y-73908557D01*
X165092984Y-73969033D01*
X165637270Y-74694747D02*
X165516318Y-74755223D01*
X165213937Y-74755223D01*
X165092984Y-74694747D01*
X165032508Y-74573795D01*
X165032508Y-74452842D01*
X165092984Y-74331890D01*
X165213937Y-74271414D01*
X165516318Y-74271414D01*
X165637270Y-74210938D01*
X166181556Y-74694747D02*
X166302508Y-74755223D01*
X166544413Y-74755223D01*
X166665365Y-74694747D01*
X166725841Y-74573795D01*
X166725841Y-74513319D01*
X166665365Y-74392366D01*
X166544413Y-74331890D01*
X166362984Y-74331890D01*
X166242032Y-74271414D01*
X166181556Y-74150461D01*
X166181556Y-74089985D01*
X166242032Y-73969033D01*
X166362984Y-73908557D01*
X166544413Y-73908557D01*
X166665365Y-73969033D01*
X167270127Y-74755223D02*
X167270127Y-73485223D01*
X167391080Y-74271414D02*
X167753937Y-74755223D01*
X167753937Y-73908557D02*
X167270127Y-74392366D01*
X169265841Y-74755223D02*
X169265841Y-73485223D01*
X169265841Y-73969033D02*
X169386794Y-73908557D01*
X169628699Y-73908557D01*
X169749651Y-73969033D01*
X169810127Y-74029509D01*
X169870603Y-74150461D01*
X169870603Y-74513319D01*
X169810127Y-74634271D01*
X169749651Y-74694747D01*
X169628699Y-74755223D01*
X169386794Y-74755223D01*
X169265841Y-74694747D01*
X170596318Y-74755223D02*
X170475365Y-74694747D01*
X170414889Y-74634271D01*
X170354413Y-74513319D01*
X170354413Y-74150461D01*
X170414889Y-74029509D01*
X170475365Y-73969033D01*
X170596318Y-73908557D01*
X170777746Y-73908557D01*
X170898699Y-73969033D01*
X170959175Y-74029509D01*
X171019651Y-74150461D01*
X171019651Y-74513319D01*
X170959175Y-74634271D01*
X170898699Y-74694747D01*
X170777746Y-74755223D01*
X170596318Y-74755223D01*
X171382508Y-73908557D02*
X171866318Y-73908557D01*
X171563937Y-73485223D02*
X171563937Y-74573795D01*
X171624413Y-74694747D01*
X171745365Y-74755223D01*
X171866318Y-74755223D01*
X172289651Y-74755223D02*
X172289651Y-73485223D01*
X172833937Y-74755223D02*
X172833937Y-74089985D01*
X172773460Y-73969033D01*
X172652508Y-73908557D01*
X172471080Y-73908557D01*
X172350127Y-73969033D01*
X172289651Y-74029509D01*
X174345841Y-74694747D02*
X174466794Y-74755223D01*
X174708699Y-74755223D01*
X174829651Y-74694747D01*
X174890127Y-74573795D01*
X174890127Y-74513319D01*
X174829651Y-74392366D01*
X174708699Y-74331890D01*
X174527270Y-74331890D01*
X174406318Y-74271414D01*
X174345841Y-74150461D01*
X174345841Y-74089985D01*
X174406318Y-73969033D01*
X174527270Y-73908557D01*
X174708699Y-73908557D01*
X174829651Y-73969033D01*
X175434413Y-74755223D02*
X175434413Y-73908557D01*
X175434413Y-73485223D02*
X175373937Y-73545700D01*
X175434413Y-73606176D01*
X175494889Y-73545700D01*
X175434413Y-73485223D01*
X175434413Y-73606176D01*
X176583460Y-74755223D02*
X176583460Y-73485223D01*
X176583460Y-74694747D02*
X176462508Y-74755223D01*
X176220603Y-74755223D01*
X176099651Y-74694747D01*
X176039175Y-74634271D01*
X175978699Y-74513319D01*
X175978699Y-74150461D01*
X176039175Y-74029509D01*
X176099651Y-73969033D01*
X176220603Y-73908557D01*
X176462508Y-73908557D01*
X176583460Y-73969033D01*
X177672032Y-74694747D02*
X177551080Y-74755223D01*
X177309175Y-74755223D01*
X177188222Y-74694747D01*
X177127746Y-74573795D01*
X177127746Y-74089985D01*
X177188222Y-73969033D01*
X177309175Y-73908557D01*
X177551080Y-73908557D01*
X177672032Y-73969033D01*
X177732508Y-74089985D01*
X177732508Y-74210938D01*
X177127746Y-74331890D01*
X178216318Y-74694747D02*
X178337270Y-74755223D01*
X178579175Y-74755223D01*
X178700127Y-74694747D01*
X178760603Y-74573795D01*
X178760603Y-74513319D01*
X178700127Y-74392366D01*
X178579175Y-74331890D01*
X178397746Y-74331890D01*
X178276794Y-74271414D01*
X178216318Y-74150461D01*
X178216318Y-74089985D01*
X178276794Y-73969033D01*
X178397746Y-73908557D01*
X178579175Y-73908557D01*
X178700127Y-73969033D01*
X180635365Y-75239033D02*
X180574889Y-75178557D01*
X180453937Y-74997128D01*
X180393460Y-74876176D01*
X180332984Y-74694747D01*
X180272508Y-74392366D01*
X180272508Y-74150461D01*
X180332984Y-73848080D01*
X180393460Y-73666652D01*
X180453937Y-73545700D01*
X180574889Y-73364271D01*
X180635365Y-73303795D01*
X181663460Y-73908557D02*
X181663460Y-74936652D01*
X181602984Y-75057604D01*
X181542508Y-75118080D01*
X181421556Y-75178557D01*
X181240127Y-75178557D01*
X181119175Y-75118080D01*
X181663460Y-74694747D02*
X181542508Y-74755223D01*
X181300603Y-74755223D01*
X181179651Y-74694747D01*
X181119175Y-74634271D01*
X181058699Y-74513319D01*
X181058699Y-74150461D01*
X181119175Y-74029509D01*
X181179651Y-73969033D01*
X181300603Y-73908557D01*
X181542508Y-73908557D01*
X181663460Y-73969033D01*
X182268222Y-74755223D02*
X182268222Y-73908557D01*
X182268222Y-74150461D02*
X182328699Y-74029509D01*
X182389175Y-73969033D01*
X182510127Y-73908557D01*
X182631080Y-73908557D01*
X183538222Y-74694747D02*
X183417270Y-74755223D01*
X183175365Y-74755223D01*
X183054413Y-74694747D01*
X182993937Y-74573795D01*
X182993937Y-74089985D01*
X183054413Y-73969033D01*
X183175365Y-73908557D01*
X183417270Y-73908557D01*
X183538222Y-73969033D01*
X183598699Y-74089985D01*
X183598699Y-74210938D01*
X182993937Y-74331890D01*
X184626794Y-74694747D02*
X184505841Y-74755223D01*
X184263937Y-74755223D01*
X184142984Y-74694747D01*
X184082508Y-74573795D01*
X184082508Y-74089985D01*
X184142984Y-73969033D01*
X184263937Y-73908557D01*
X184505841Y-73908557D01*
X184626794Y-73969033D01*
X184687270Y-74089985D01*
X184687270Y-74210938D01*
X184082508Y-74331890D01*
X185231556Y-73908557D02*
X185231556Y-74755223D01*
X185231556Y-74029509D02*
X185292032Y-73969033D01*
X185412984Y-73908557D01*
X185594413Y-73908557D01*
X185715365Y-73969033D01*
X185775841Y-74089985D01*
X185775841Y-74755223D01*
X186259651Y-75239033D02*
X186320127Y-75178557D01*
X186441080Y-74997128D01*
X186501556Y-74876176D01*
X186562032Y-74694747D01*
X186622508Y-74392366D01*
X186622508Y-74150461D01*
X186562032Y-73848080D01*
X186501556Y-73666652D01*
X186441080Y-73545700D01*
X186320127Y-73364271D01*
X186259651Y-73303795D01*
X157472984Y-76802947D02*
X157593937Y-76863423D01*
X157835841Y-76863423D01*
X157956794Y-76802947D01*
X158017270Y-76681995D01*
X158017270Y-76621519D01*
X157956794Y-76500566D01*
X157835841Y-76440090D01*
X157654413Y-76440090D01*
X157533460Y-76379614D01*
X157472984Y-76258661D01*
X157472984Y-76198185D01*
X157533460Y-76077233D01*
X157654413Y-76016757D01*
X157835841Y-76016757D01*
X157956794Y-76077233D01*
X158561556Y-76863423D02*
X158561556Y-76016757D01*
X158561556Y-75593423D02*
X158501080Y-75653900D01*
X158561556Y-75714376D01*
X158622032Y-75653900D01*
X158561556Y-75593423D01*
X158561556Y-75714376D01*
X159347746Y-76863423D02*
X159226794Y-76802947D01*
X159166318Y-76681995D01*
X159166318Y-75593423D01*
X159831556Y-76863423D02*
X159831556Y-75593423D01*
X159952508Y-76379614D02*
X160315365Y-76863423D01*
X160315365Y-76016757D02*
X159831556Y-76500566D01*
X160799175Y-76802947D02*
X160920127Y-76863423D01*
X161162032Y-76863423D01*
X161282984Y-76802947D01*
X161343460Y-76681995D01*
X161343460Y-76621519D01*
X161282984Y-76500566D01*
X161162032Y-76440090D01*
X160980603Y-76440090D01*
X160859651Y-76379614D01*
X160799175Y-76258661D01*
X160799175Y-76198185D01*
X160859651Y-76077233D01*
X160980603Y-76016757D01*
X161162032Y-76016757D01*
X161282984Y-76077233D01*
X162432032Y-76802947D02*
X162311080Y-76863423D01*
X162069175Y-76863423D01*
X161948222Y-76802947D01*
X161887746Y-76742471D01*
X161827270Y-76621519D01*
X161827270Y-76258661D01*
X161887746Y-76137709D01*
X161948222Y-76077233D01*
X162069175Y-76016757D01*
X162311080Y-76016757D01*
X162432032Y-76077233D01*
X162976318Y-76863423D02*
X162976318Y-76016757D01*
X162976318Y-76258661D02*
X163036794Y-76137709D01*
X163097270Y-76077233D01*
X163218222Y-76016757D01*
X163339175Y-76016757D01*
X164246318Y-76802947D02*
X164125365Y-76863423D01*
X163883460Y-76863423D01*
X163762508Y-76802947D01*
X163702032Y-76681995D01*
X163702032Y-76198185D01*
X163762508Y-76077233D01*
X163883460Y-76016757D01*
X164125365Y-76016757D01*
X164246318Y-76077233D01*
X164306794Y-76198185D01*
X164306794Y-76319138D01*
X163702032Y-76440090D01*
X165334889Y-76802947D02*
X165213937Y-76863423D01*
X164972032Y-76863423D01*
X164851080Y-76802947D01*
X164790603Y-76681995D01*
X164790603Y-76198185D01*
X164851080Y-76077233D01*
X164972032Y-76016757D01*
X165213937Y-76016757D01*
X165334889Y-76077233D01*
X165395365Y-76198185D01*
X165395365Y-76319138D01*
X164790603Y-76440090D01*
X165939651Y-76016757D02*
X165939651Y-76863423D01*
X165939651Y-76137709D02*
X166000127Y-76077233D01*
X166121080Y-76016757D01*
X166302508Y-76016757D01*
X166423460Y-76077233D01*
X166483937Y-76198185D01*
X166483937Y-76863423D01*
X168237746Y-76863423D02*
X168116794Y-76802947D01*
X168056318Y-76681995D01*
X168056318Y-75593423D01*
X169205365Y-76802947D02*
X169084413Y-76863423D01*
X168842508Y-76863423D01*
X168721556Y-76802947D01*
X168661080Y-76681995D01*
X168661080Y-76198185D01*
X168721556Y-76077233D01*
X168842508Y-76016757D01*
X169084413Y-76016757D01*
X169205365Y-76077233D01*
X169265841Y-76198185D01*
X169265841Y-76319138D01*
X168661080Y-76440090D01*
X170354413Y-76016757D02*
X170354413Y-77044852D01*
X170293937Y-77165804D01*
X170233460Y-77226280D01*
X170112508Y-77286757D01*
X169931080Y-77286757D01*
X169810127Y-77226280D01*
X170354413Y-76802947D02*
X170233460Y-76863423D01*
X169991556Y-76863423D01*
X169870603Y-76802947D01*
X169810127Y-76742471D01*
X169749651Y-76621519D01*
X169749651Y-76258661D01*
X169810127Y-76137709D01*
X169870603Y-76077233D01*
X169991556Y-76016757D01*
X170233460Y-76016757D01*
X170354413Y-76077233D01*
X171442984Y-76802947D02*
X171322032Y-76863423D01*
X171080127Y-76863423D01*
X170959175Y-76802947D01*
X170898699Y-76681995D01*
X170898699Y-76198185D01*
X170959175Y-76077233D01*
X171080127Y-76016757D01*
X171322032Y-76016757D01*
X171442984Y-76077233D01*
X171503460Y-76198185D01*
X171503460Y-76319138D01*
X170898699Y-76440090D01*
X172047746Y-76016757D02*
X172047746Y-76863423D01*
X172047746Y-76137709D02*
X172108222Y-76077233D01*
X172229175Y-76016757D01*
X172410603Y-76016757D01*
X172531556Y-76077233D01*
X172592032Y-76198185D01*
X172592032Y-76863423D01*
X173741080Y-76863423D02*
X173741080Y-75593423D01*
X173741080Y-76802947D02*
X173620127Y-76863423D01*
X173378222Y-76863423D01*
X173257270Y-76802947D01*
X173196794Y-76742471D01*
X173136318Y-76621519D01*
X173136318Y-76258661D01*
X173196794Y-76137709D01*
X173257270Y-76077233D01*
X173378222Y-76016757D01*
X173620127Y-76016757D01*
X173741080Y-76077233D01*
X175313460Y-76863423D02*
X175313460Y-75593423D01*
X175313460Y-76077233D02*
X175434413Y-76016757D01*
X175676318Y-76016757D01*
X175797270Y-76077233D01*
X175857746Y-76137709D01*
X175918222Y-76258661D01*
X175918222Y-76621519D01*
X175857746Y-76742471D01*
X175797270Y-76802947D01*
X175676318Y-76863423D01*
X175434413Y-76863423D01*
X175313460Y-76802947D01*
X176643937Y-76863423D02*
X176522984Y-76802947D01*
X176462508Y-76742471D01*
X176402032Y-76621519D01*
X176402032Y-76258661D01*
X176462508Y-76137709D01*
X176522984Y-76077233D01*
X176643937Y-76016757D01*
X176825365Y-76016757D01*
X176946318Y-76077233D01*
X177006794Y-76137709D01*
X177067270Y-76258661D01*
X177067270Y-76621519D01*
X177006794Y-76742471D01*
X176946318Y-76802947D01*
X176825365Y-76863423D01*
X176643937Y-76863423D01*
X177430127Y-76016757D02*
X177913937Y-76016757D01*
X177611556Y-75593423D02*
X177611556Y-76681995D01*
X177672032Y-76802947D01*
X177792984Y-76863423D01*
X177913937Y-76863423D01*
X178337270Y-76863423D02*
X178337270Y-75593423D01*
X178881556Y-76863423D02*
X178881556Y-76198185D01*
X178821080Y-76077233D01*
X178700127Y-76016757D01*
X178518699Y-76016757D01*
X178397746Y-76077233D01*
X178337270Y-76137709D01*
X180393460Y-76802947D02*
X180514413Y-76863423D01*
X180756318Y-76863423D01*
X180877270Y-76802947D01*
X180937746Y-76681995D01*
X180937746Y-76621519D01*
X180877270Y-76500566D01*
X180756318Y-76440090D01*
X180574889Y-76440090D01*
X180453937Y-76379614D01*
X180393460Y-76258661D01*
X180393460Y-76198185D01*
X180453937Y-76077233D01*
X180574889Y-76016757D01*
X180756318Y-76016757D01*
X180877270Y-76077233D01*
X181482032Y-76863423D02*
X181482032Y-76016757D01*
X181482032Y-75593423D02*
X181421556Y-75653900D01*
X181482032Y-75714376D01*
X181542508Y-75653900D01*
X181482032Y-75593423D01*
X181482032Y-75714376D01*
X182631080Y-76863423D02*
X182631080Y-75593423D01*
X182631080Y-76802947D02*
X182510127Y-76863423D01*
X182268222Y-76863423D01*
X182147270Y-76802947D01*
X182086794Y-76742471D01*
X182026318Y-76621519D01*
X182026318Y-76258661D01*
X182086794Y-76137709D01*
X182147270Y-76077233D01*
X182268222Y-76016757D01*
X182510127Y-76016757D01*
X182631080Y-76077233D01*
X183719651Y-76802947D02*
X183598699Y-76863423D01*
X183356794Y-76863423D01*
X183235841Y-76802947D01*
X183175365Y-76681995D01*
X183175365Y-76198185D01*
X183235841Y-76077233D01*
X183356794Y-76016757D01*
X183598699Y-76016757D01*
X183719651Y-76077233D01*
X183780127Y-76198185D01*
X183780127Y-76319138D01*
X183175365Y-76440090D01*
X184263937Y-76802947D02*
X184384889Y-76863423D01*
X184626794Y-76863423D01*
X184747746Y-76802947D01*
X184808222Y-76681995D01*
X184808222Y-76621519D01*
X184747746Y-76500566D01*
X184626794Y-76440090D01*
X184445365Y-76440090D01*
X184324413Y-76379614D01*
X184263937Y-76258661D01*
X184263937Y-76198185D01*
X184324413Y-76077233D01*
X184445365Y-76016757D01*
X184626794Y-76016757D01*
X184747746Y-76077233D01*
X186682984Y-77347233D02*
X186622508Y-77286757D01*
X186501556Y-77105328D01*
X186441080Y-76984376D01*
X186380603Y-76802947D01*
X186320127Y-76500566D01*
X186320127Y-76258661D01*
X186380603Y-75956280D01*
X186441080Y-75774852D01*
X186501556Y-75653900D01*
X186622508Y-75472471D01*
X186682984Y-75411995D01*
X187045841Y-76016757D02*
X187287746Y-76863423D01*
X187529651Y-76258661D01*
X187771556Y-76863423D01*
X188013460Y-76016757D01*
X188497270Y-76863423D02*
X188497270Y-75593423D01*
X189041556Y-76863423D02*
X189041556Y-76198185D01*
X188981080Y-76077233D01*
X188860127Y-76016757D01*
X188678699Y-76016757D01*
X188557746Y-76077233D01*
X188497270Y-76137709D01*
X189646318Y-76863423D02*
X189646318Y-76016757D01*
X189646318Y-75593423D02*
X189585841Y-75653900D01*
X189646318Y-75714376D01*
X189706794Y-75653900D01*
X189646318Y-75593423D01*
X189646318Y-75714376D01*
X190069651Y-76016757D02*
X190553460Y-76016757D01*
X190251080Y-75593423D02*
X190251080Y-76681995D01*
X190311556Y-76802947D01*
X190432508Y-76863423D01*
X190553460Y-76863423D01*
X191460603Y-76802947D02*
X191339651Y-76863423D01*
X191097746Y-76863423D01*
X190976794Y-76802947D01*
X190916318Y-76681995D01*
X190916318Y-76198185D01*
X190976794Y-76077233D01*
X191097746Y-76016757D01*
X191339651Y-76016757D01*
X191460603Y-76077233D01*
X191521080Y-76198185D01*
X191521080Y-76319138D01*
X190916318Y-76440090D01*
X191944413Y-77347233D02*
X192004889Y-77286757D01*
X192125841Y-77105328D01*
X192186318Y-76984376D01*
X192246794Y-76802947D01*
X192307270Y-76500566D01*
X192307270Y-76258661D01*
X192246794Y-75956280D01*
X192186318Y-75774852D01*
X192125841Y-75653900D01*
X192004889Y-75472471D01*
X191944413Y-75411995D01*
M02*
