M48
; DRILL file {KiCad (5.1.8-0-10_14)} date Tuesday, December 29, 2020 at 07:17:08 PM
; FORMAT={3:3/ absolute / metric / suppress leading zeros}
; #@! TF.CreationDate,2020-12-29T19:17:08-08:00
; #@! TF.GenerationSoftware,Kicad,Pcbnew,(5.1.8-0-10_14)
FMAT,2
METRIC,TZ
T1C0.254
T2C1.092
%
G90
G05
T1
X110998Y-107950
X111760Y-114300
X112522Y-55372
X112522Y-62738
X112522Y-65532
X112522Y-72898
X112522Y-78232
X112522Y-85598
X112522Y-88392
X112522Y-95758
X112776Y-57404
X112776Y-60706
X112776Y-67564
X112776Y-70866
X112776Y-80264
X112776Y-83566
X112776Y-90424
X112776Y-93980
X113665Y-59055
X113665Y-69215
X113665Y-81915
X113665Y-92075
X114554Y-96774
X115570Y-102108
X115570Y-106426
X116586Y-67310
X116586Y-71120
X116586Y-80010
X116586Y-83820
X116586Y-90170
X116586Y-103124
X116586Y-111506
X116586Y-112776
X116586Y-114300
X116586Y-115824
X116586Y-117094
X116840Y-57150
X116840Y-60960
X116840Y-108204
X117158Y-59055
X117475Y-69215
X117475Y-81915
X117475Y-92075
X117856Y-100838
X118110Y-111506
X118110Y-117094
X119888Y-111506
X119888Y-117094
X120904Y-104902
X121602Y-55880
X121602Y-66040
X121602Y-78740
X121602Y-88900
X121666Y-111506
X121666Y-117094
X121920Y-59055
X121920Y-69215
X121920Y-81915
X121920Y-92075
X122428Y-104140
X123444Y-111506
X123444Y-112776
X123444Y-114300
X123444Y-115824
X123444Y-117094
X124460Y-59055
X124460Y-69215
X124460Y-81915
X124460Y-92075
X124460Y-107188
X124777Y-55880
X124777Y-66040
X124777Y-78740
X124777Y-88900
X124968Y-97282
X124968Y-98044
X124968Y-105664
X125476Y-96012
X125984Y-95504
X125984Y-103886
X125984Y-104648
X127000Y-98552
X128905Y-59055
X128905Y-69215
X128905Y-81915
X128905Y-92075
X128905Y-116840
X129794Y-57150
X129794Y-61214
X129794Y-67310
X129794Y-71120
X129794Y-80010
X129794Y-83820
X129794Y-89916
X129794Y-93980
X129794Y-99822
X130302Y-101854
X131064Y-101346
X131064Y-107442
X131064Y-110490
X131128Y-115253
X131826Y-103378
X132599Y-102605
X132715Y-59055
X132715Y-69215
X133604Y-57404
X133604Y-60706
X133604Y-67564
X133604Y-70866
X133604Y-78232
X133604Y-80264
X133604Y-83566
X133604Y-85598
X133604Y-89408
X133604Y-90424
X133604Y-93980
X133604Y-95758
X133858Y-55626
X133858Y-62738
X133858Y-65532
X133858Y-72898
X134112Y-105156
X134620Y-110490
X135382Y-82042
X135382Y-92202
X135890Y-105918
T2
X137160Y-55880
X137160Y-58420
X137160Y-60960
X137160Y-63500
X137160Y-66040
X137160Y-68580
X137160Y-71120
X137160Y-73660
X137160Y-76200
X137160Y-78740
X137160Y-81280
X137160Y-83820
X137160Y-86360
X137160Y-88900
X137160Y-91440
X137160Y-93980
X137160Y-96520
X137160Y-99060
X137160Y-101600
X137160Y-104140
X137160Y-106680
X137160Y-109220
X137160Y-111760
X137160Y-114300
X137160Y-116840
X109220Y-55880
X109220Y-58420
X109220Y-60960
X109220Y-63500
X109220Y-66040
X109220Y-68580
X109220Y-71120
X109220Y-73660
X109220Y-76200
X109220Y-78740
X109220Y-81280
X109220Y-83820
X109220Y-86360
X109220Y-88900
X109220Y-91440
X109220Y-93980
X109220Y-96520
X109220Y-99060
X109220Y-101600
X109220Y-104140
X109220Y-106680
X109220Y-109220
X109220Y-111760
X109220Y-114300
X109220Y-116840
T0
M30
