%TF.GenerationSoftware,KiCad,Pcbnew,(6.0.10)*%
%TF.CreationDate,2023-01-12T16:12:03-05:00*%
%TF.ProjectId,power_mini_evolver,706f7765-725f-46d6-996e-695f65766f6c,rev?*%
%TF.SameCoordinates,Original*%
%TF.FileFunction,Copper,L1,Top*%
%TF.FilePolarity,Positive*%
%FSLAX46Y46*%
G04 Gerber Fmt 4.6, Leading zero omitted, Abs format (unit mm)*
G04 Created by KiCad (PCBNEW (6.0.10)) date 2023-01-12 16:12:03*
%MOMM*%
%LPD*%
G01*
G04 APERTURE LIST*
G04 Aperture macros list*
%AMRoundRect*
0 Rectangle with rounded corners*
0 $1 Rounding radius*
0 $2 $3 $4 $5 $6 $7 $8 $9 X,Y pos of 4 corners*
0 Add a 4 corners polygon primitive as box body*
4,1,4,$2,$3,$4,$5,$6,$7,$8,$9,$2,$3,0*
0 Add four circle primitives for the rounded corners*
1,1,$1+$1,$2,$3*
1,1,$1+$1,$4,$5*
1,1,$1+$1,$6,$7*
1,1,$1+$1,$8,$9*
0 Add four rect primitives between the rounded corners*
20,1,$1+$1,$2,$3,$4,$5,0*
20,1,$1+$1,$4,$5,$6,$7,0*
20,1,$1+$1,$6,$7,$8,$9,0*
20,1,$1+$1,$8,$9,$2,$3,0*%
G04 Aperture macros list end*
%TA.AperFunction,SMDPad,CuDef*%
%ADD10R,0.800000X0.900000*%
%TD*%
%TA.AperFunction,ComponentPad*%
%ADD11C,4.500000*%
%TD*%
%TA.AperFunction,ComponentPad*%
%ADD12C,1.000000*%
%TD*%
%TA.AperFunction,SMDPad,CuDef*%
%ADD13RoundRect,0.225000X-0.250000X0.225000X-0.250000X-0.225000X0.250000X-0.225000X0.250000X0.225000X0*%
%TD*%
%TA.AperFunction,SMDPad,CuDef*%
%ADD14RoundRect,0.225000X0.225000X0.250000X-0.225000X0.250000X-0.225000X-0.250000X0.225000X-0.250000X0*%
%TD*%
%TA.AperFunction,ComponentPad*%
%ADD15C,1.800000*%
%TD*%
%TA.AperFunction,SMDPad,CuDef*%
%ADD16RoundRect,0.200000X-0.275000X0.200000X-0.275000X-0.200000X0.275000X-0.200000X0.275000X0.200000X0*%
%TD*%
%TA.AperFunction,SMDPad,CuDef*%
%ADD17RoundRect,0.200000X0.275000X-0.200000X0.275000X0.200000X-0.275000X0.200000X-0.275000X-0.200000X0*%
%TD*%
%TA.AperFunction,ComponentPad*%
%ADD18C,5.600000*%
%TD*%
%TA.AperFunction,ComponentPad*%
%ADD19C,1.750000*%
%TD*%
%TA.AperFunction,SMDPad,CuDef*%
%ADD20R,2.800000X1.500000*%
%TD*%
%TA.AperFunction,SMDPad,CuDef*%
%ADD21R,6.100000X6.300000*%
%TD*%
%TA.AperFunction,ComponentPad*%
%ADD22C,1.397000*%
%TD*%
%TA.AperFunction,SMDPad,CuDef*%
%ADD23R,2.000000X1.500000*%
%TD*%
%TA.AperFunction,SMDPad,CuDef*%
%ADD24R,2.000000X3.800000*%
%TD*%
%TA.AperFunction,SMDPad,CuDef*%
%ADD25RoundRect,0.225000X0.250000X-0.225000X0.250000X0.225000X-0.250000X0.225000X-0.250000X-0.225000X0*%
%TD*%
%TA.AperFunction,SMDPad,CuDef*%
%ADD26RoundRect,0.225000X-0.225000X-0.250000X0.225000X-0.250000X0.225000X0.250000X-0.225000X0.250000X0*%
%TD*%
%TA.AperFunction,SMDPad,CuDef*%
%ADD27R,0.450000X1.450000*%
%TD*%
%TA.AperFunction,ComponentPad*%
%ADD28C,1.524000*%
%TD*%
%TA.AperFunction,ViaPad*%
%ADD29C,1.143000*%
%TD*%
%TA.AperFunction,ViaPad*%
%ADD30C,0.889000*%
%TD*%
%TA.AperFunction,ViaPad*%
%ADD31C,0.800000*%
%TD*%
%TA.AperFunction,Conductor*%
%ADD32C,1.016000*%
%TD*%
%TA.AperFunction,Conductor*%
%ADD33C,0.508000*%
%TD*%
%TA.AperFunction,Conductor*%
%ADD34C,0.381000*%
%TD*%
%TA.AperFunction,Conductor*%
%ADD35C,0.250000*%
%TD*%
G04 APERTURE END LIST*
D10*
%TO.P,D10,1,K*%
%TO.N,+12V*%
X110998000Y-100346000D03*
%TO.P,D10,2,A*%
%TO.N,/P-4*%
X112348000Y-102346000D03*
%TO.P,D10,3*%
%TO.N,N/C*%
X109648000Y-102346000D03*
%TD*%
%TO.P,D9,1,K*%
%TO.N,+5V*%
X134874000Y-100600000D03*
%TO.P,D9,2,A*%
%TO.N,/LED-0*%
X136224000Y-102600000D03*
%TO.P,D9,3*%
%TO.N,N/C*%
X133524000Y-102600000D03*
%TD*%
%TO.P,D8,1,K*%
%TO.N,+12V*%
X169672000Y-100600000D03*
%TO.P,D8,2,A*%
%TO.N,/HTR-1*%
X171022000Y-102600000D03*
%TO.P,D8,3*%
%TO.N,N/C*%
X168322000Y-102600000D03*
%TD*%
%TO.P,D7,1,K*%
%TO.N,+12V*%
X106680000Y-100346000D03*
%TO.P,D7,2,A*%
%TO.N,/P-3*%
X108030000Y-102346000D03*
%TO.P,D7,3*%
%TO.N,N/C*%
X105330000Y-102346000D03*
%TD*%
%TO.P,D6,1,K*%
%TO.N,+12V*%
X139954000Y-100600000D03*
%TO.P,D6,2,A*%
%TO.N,/HTR-0*%
X141304000Y-102600000D03*
%TO.P,D6,3*%
%TO.N,N/C*%
X138604000Y-102600000D03*
%TD*%
%TO.P,D4,1,K*%
%TO.N,+12V*%
X173990000Y-100600000D03*
%TO.P,D4,2,A*%
%TO.N,/FAN-1*%
X175340000Y-102600000D03*
%TO.P,D4,3*%
%TO.N,N/C*%
X172640000Y-102600000D03*
%TD*%
%TO.P,D3,1,K*%
%TO.N,+12V*%
X98044000Y-100346000D03*
%TO.P,D3,2,A*%
%TO.N,/P-1*%
X99394000Y-102346000D03*
%TO.P,D3,3*%
%TO.N,N/C*%
X96694000Y-102346000D03*
%TD*%
%TO.P,D2,1,K*%
%TO.N,+12V*%
X93726000Y-100346000D03*
%TO.P,D2,2,A*%
%TO.N,/P-0*%
X95076000Y-102346000D03*
%TO.P,D2,3*%
%TO.N,N/C*%
X92376000Y-102346000D03*
%TD*%
%TO.P,D1,1,K*%
%TO.N,+12V*%
X145034000Y-100600000D03*
%TO.P,D1,2,A*%
%TO.N,/FAN-0*%
X146384000Y-102600000D03*
%TO.P,D1,3*%
%TO.N,N/C*%
X143684000Y-102600000D03*
%TD*%
D11*
%TO.P,CON1,1*%
%TO.N,+12V*%
X100584000Y-88852000D03*
%TO.P,CON1,2*%
%TO.N,GND*%
X100584000Y-82852000D03*
%TO.P,CON1,3*%
X95884000Y-85852000D03*
%TD*%
D12*
%TO.P,C15,1*%
%TO.N,Net-(C15-Pad1)*%
X204292200Y-103459600D03*
%TO.P,C15,2*%
%TO.N,GND*%
X204292200Y-100959600D03*
%TD*%
D13*
%TO.P,C14,1*%
%TO.N,+5V*%
X119913400Y-81267000D03*
%TO.P,C14,2*%
%TO.N,GND*%
X119913400Y-82817000D03*
%TD*%
%TO.P,C7,1*%
%TO.N,/A3*%
X166370000Y-87363000D03*
%TO.P,C7,2*%
%TO.N,GND*%
X166370000Y-88913000D03*
%TD*%
%TO.P,C6,1*%
%TO.N,/A2*%
X181102000Y-87363000D03*
%TO.P,C6,2*%
%TO.N,GND*%
X181102000Y-88913000D03*
%TD*%
%TO.P,C5,1*%
%TO.N,+12V*%
X118414800Y-97396000D03*
%TO.P,C5,2*%
%TO.N,GND*%
X118414800Y-98946000D03*
%TD*%
%TO.P,C3,1*%
%TO.N,/A1*%
X181102000Y-92062000D03*
%TO.P,C3,2*%
%TO.N,GND*%
X181102000Y-93612000D03*
%TD*%
D14*
%TO.P,C1,1*%
%TO.N,GND*%
X175273000Y-96901000D03*
%TO.P,C1,2*%
%TO.N,+3V3*%
X173723000Y-96901000D03*
%TD*%
D10*
%TO.P,Q4,1,G*%
%TO.N,/13*%
X179912000Y-100600000D03*
%TO.P,Q4,2,S*%
%TO.N,GND*%
X177212000Y-100600000D03*
%TO.P,Q4,3,D*%
%TO.N,/FAN-1*%
X178562000Y-102600000D03*
%TD*%
D15*
%TO.P,JP1,1,A*%
%TO.N,/OD90-0*%
X181356000Y-81280000D03*
%TO.P,JP1,2,C*%
%TO.N,/OD-0*%
X178816000Y-81280000D03*
%TO.P,JP1,3,B*%
%TO.N,/OD135-0*%
X176276000Y-81280000D03*
%TD*%
D10*
%TO.P,D12,1,K*%
%TO.N,+12V*%
X115316000Y-100346000D03*
%TO.P,D12,2,A*%
%TO.N,/P-5*%
X116666000Y-102346000D03*
%TO.P,D12,3*%
%TO.N,N/C*%
X113966000Y-102346000D03*
%TD*%
%TO.P,Q3,1,G*%
%TO.N,/7*%
X99394000Y-94250000D03*
%TO.P,Q3,2,S*%
%TO.N,GND*%
X96694000Y-94250000D03*
%TO.P,Q3,3,D*%
%TO.N,/P-1*%
X98044000Y-96250000D03*
%TD*%
%TO.P,Q2,1,G*%
%TO.N,/6*%
X95076000Y-94250000D03*
%TO.P,Q2,2,S*%
%TO.N,GND*%
X92376000Y-94250000D03*
%TO.P,Q2,3,D*%
%TO.N,/P-0*%
X93726000Y-96250000D03*
%TD*%
%TO.P,Q1,1,G*%
%TO.N,/11*%
X146130000Y-95012000D03*
%TO.P,Q1,2,S*%
%TO.N,GND*%
X143430000Y-95012000D03*
%TO.P,Q1,3,D*%
%TO.N,/FAN-0*%
X144780000Y-97012000D03*
%TD*%
%TO.P,D11,1,K*%
%TO.N,+5V*%
X156464000Y-100600000D03*
%TO.P,D11,2,A*%
%TO.N,/LED-1*%
X157814000Y-102600000D03*
%TO.P,D11,3*%
%TO.N,N/C*%
X155114000Y-102600000D03*
%TD*%
%TO.P,Q6,1,G*%
%TO.N,/2*%
X141304000Y-95012000D03*
%TO.P,Q6,2,S*%
%TO.N,GND*%
X138604000Y-95012000D03*
%TO.P,Q6,3,D*%
%TO.N,/HTR-0*%
X139954000Y-97012000D03*
%TD*%
%TO.P,Q5,1,G*%
%TO.N,/8*%
X103712000Y-94250000D03*
%TO.P,Q5,2,S*%
%TO.N,GND*%
X101012000Y-94250000D03*
%TO.P,Q5,3,D*%
%TO.N,/P-2*%
X102362000Y-96250000D03*
%TD*%
D16*
%TO.P,R13,1*%
%TO.N,/A2*%
X179324000Y-87313000D03*
%TO.P,R13,2*%
%TO.N,Net-(R12-Pad1)*%
X179324000Y-88963000D03*
%TD*%
%TO.P,R10,1*%
%TO.N,/A1*%
X179324000Y-92012000D03*
%TO.P,R10,2*%
%TO.N,Net-(R10-Pad2)*%
X179324000Y-93662000D03*
%TD*%
%TO.P,R9,1*%
%TO.N,/A0*%
X168046400Y-92139000D03*
%TO.P,R9,2*%
%TO.N,Net-(R7-Pad1)*%
X168046400Y-93789000D03*
%TD*%
D17*
%TO.P,R6,1*%
%TO.N,+3V3*%
X166624000Y-85153000D03*
%TO.P,R6,2*%
%TO.N,/OD135-1*%
X166624000Y-83503000D03*
%TD*%
%TO.P,R5,1*%
%TO.N,+3V3*%
X177038000Y-85153000D03*
%TO.P,R5,2*%
%TO.N,/OD135-0*%
X177038000Y-83503000D03*
%TD*%
D16*
%TO.P,R4,1*%
%TO.N,/OD90-1*%
X171958000Y-83503000D03*
%TO.P,R4,2*%
%TO.N,+3V3*%
X171958000Y-85153000D03*
%TD*%
%TO.P,R2,1*%
%TO.N,/TS-1*%
X177419000Y-95187000D03*
%TO.P,R2,2*%
%TO.N,+3V3*%
X177419000Y-96837000D03*
%TD*%
%TO.P,R1,1*%
%TO.N,/TS-0*%
X169926000Y-95441000D03*
%TO.P,R1,2*%
%TO.N,+3V3*%
X169926000Y-97091000D03*
%TD*%
D10*
%TO.P,Q12,1,G*%
%TO.N,/12*%
X116666000Y-94250000D03*
%TO.P,Q12,2,S*%
%TO.N,GND*%
X113966000Y-94250000D03*
%TO.P,Q12,3,D*%
%TO.N,/P-5*%
X115316000Y-96250000D03*
%TD*%
%TO.P,Q9,1,G*%
%TO.N,/4*%
X136224000Y-95012000D03*
%TO.P,Q9,2,S*%
%TO.N,GND*%
X133524000Y-95012000D03*
%TO.P,Q9,3,D*%
%TO.N,/LED-0*%
X134874000Y-97012000D03*
%TD*%
%TO.P,Q7,1,G*%
%TO.N,/9*%
X108030000Y-94250000D03*
%TO.P,Q7,2,S*%
%TO.N,GND*%
X105330000Y-94250000D03*
%TO.P,Q7,3,D*%
%TO.N,/P-3*%
X106680000Y-96250000D03*
%TD*%
D18*
%TO.P,H1,1,1*%
%TO.N,unconnected-(H1-Pad1)*%
X88900000Y-108585000D03*
%TD*%
%TO.P,H2,1,1*%
%TO.N,unconnected-(H2-Pad1)*%
X88900000Y-82550000D03*
%TD*%
%TO.P,H4,1,1*%
%TO.N,unconnected-(H4-Pad1)*%
X206375000Y-108585000D03*
%TD*%
D19*
%TO.P,P6,1,P1*%
%TO.N,/SPB+1*%
X152400000Y-105156000D03*
%TO.P,P6,2,P2*%
%TO.N,/SPB-1*%
X152400000Y-107696000D03*
%TD*%
D18*
%TO.P,H3,1,1*%
%TO.N,unconnected-(H3-Pad1)*%
X206375000Y-82550000D03*
%TD*%
D20*
%TO.P,U4,1,VI*%
%TO.N,+12V*%
X116994000Y-86969600D03*
%TO.P,U4,2,VO*%
%TO.N,+5V*%
X116994000Y-82397600D03*
D21*
%TO.P,U4,3,GND*%
%TO.N,GND*%
X110744000Y-84683600D03*
%TD*%
D22*
%TO.P,P1,1,P1*%
%TO.N,unconnected-(P1-Pad1)*%
X200152000Y-110998000D03*
%TO.P,P1,2,P2*%
%TO.N,+5V*%
X184912000Y-110998000D03*
%TO.P,P1,3,P3*%
%TO.N,unconnected-(P1-Pad3)*%
X200152000Y-108458000D03*
%TO.P,P1,4,P4*%
%TO.N,GND*%
X184912000Y-108458000D03*
%TO.P,P1,5,P5*%
%TO.N,Net-(C15-Pad1)*%
X200152000Y-105918000D03*
%TO.P,P1,6,P6*%
%TO.N,unconnected-(P1-Pad6)*%
X184912000Y-105918000D03*
%TO.P,P1,7,P7*%
%TO.N,GND*%
X200152000Y-103378000D03*
%TO.P,P1,8,P8*%
%TO.N,unconnected-(P1-Pad8)*%
X184912000Y-103378000D03*
%TO.P,P1,9,P9*%
%TO.N,/2*%
X200152000Y-100838000D03*
%TO.P,P1,10,P10*%
%TO.N,/A3*%
X184912000Y-100838000D03*
%TO.P,P1,11,P11*%
%TO.N,/3*%
X200152000Y-98298000D03*
%TO.P,P1,12,P12*%
%TO.N,/A2*%
X184912000Y-98298000D03*
%TO.P,P1,13,P13*%
%TO.N,/4*%
X200152000Y-95758000D03*
%TO.P,P1,14,P14*%
%TO.N,/A1*%
X184912000Y-95758000D03*
%TO.P,P1,15,P15*%
%TO.N,/5*%
X200152000Y-93218000D03*
%TO.P,P1,16,P16*%
%TO.N,/A0*%
X184912000Y-93218000D03*
%TO.P,P1,17,P17*%
%TO.N,/6*%
X200152000Y-90678000D03*
%TO.P,P1,18,P18*%
%TO.N,/13*%
X184912000Y-90678000D03*
%TO.P,P1,19,P19*%
%TO.N,/7*%
X200152000Y-88138000D03*
%TO.P,P1,20,P20*%
%TO.N,/12*%
X184912000Y-88138000D03*
%TO.P,P1,21,P21*%
%TO.N,/8*%
X200152000Y-85598000D03*
%TO.P,P1,22,P22*%
%TO.N,/11*%
X184912000Y-85598000D03*
%TO.P,P1,23,P23*%
%TO.N,/9*%
X200152000Y-83058000D03*
%TO.P,P1,24,P24*%
%TO.N,/10*%
X184912000Y-83058000D03*
%TD*%
D23*
%TO.P,U3,1,VI*%
%TO.N,+5V*%
X129964600Y-87009000D03*
%TO.P,U3,2,GND*%
%TO.N,GND*%
X129964600Y-84709000D03*
D24*
X123664600Y-84709000D03*
D23*
%TO.P,U3,3,VO*%
%TO.N,+3V3*%
X129964600Y-82409000D03*
%TD*%
D13*
%TO.P,C13,1*%
%TO.N,+3V3*%
X132842000Y-81521000D03*
%TO.P,C13,2*%
%TO.N,GND*%
X132842000Y-83071000D03*
%TD*%
D25*
%TO.P,C11,1*%
%TO.N,+5V*%
X132842000Y-87897000D03*
%TO.P,C11,2*%
%TO.N,GND*%
X132842000Y-86347000D03*
%TD*%
%TO.P,C10,1*%
%TO.N,+12V*%
X119888000Y-88151000D03*
%TO.P,C10,2*%
%TO.N,GND*%
X119888000Y-86601000D03*
%TD*%
D17*
%TO.P,R7,1*%
%TO.N,Net-(R7-Pad1)*%
X169926000Y-93789000D03*
%TO.P,R7,2*%
%TO.N,Net-(R7-Pad2)*%
X169926000Y-92139000D03*
%TD*%
D16*
%TO.P,R3,1*%
%TO.N,/OD90-0*%
X180594000Y-83503000D03*
%TO.P,R3,2*%
%TO.N,+3V3*%
X180594000Y-85153000D03*
%TD*%
D13*
%TO.P,C8,1*%
%TO.N,+12V*%
X120150468Y-97396000D03*
%TO.P,C8,2*%
%TO.N,GND*%
X120150468Y-98946000D03*
%TD*%
D26*
%TO.P,C2,1*%
%TO.N,+3V3*%
X173723000Y-95123000D03*
%TO.P,C2,2*%
%TO.N,GND*%
X175273000Y-95123000D03*
%TD*%
D13*
%TO.P,C4,1*%
%TO.N,/A0*%
X166268400Y-92189000D03*
%TO.P,C4,2*%
%TO.N,GND*%
X166268400Y-93739000D03*
%TD*%
D16*
%TO.P,R14,1*%
%TO.N,/A3*%
X168148000Y-87313000D03*
%TO.P,R14,2*%
%TO.N,Net-(R11-Pad1)*%
X168148000Y-88963000D03*
%TD*%
%TO.P,R11,1*%
%TO.N,Net-(R11-Pad1)*%
X169926000Y-87313000D03*
%TO.P,R11,2*%
%TO.N,Net-(R11-Pad2)*%
X169926000Y-88963000D03*
%TD*%
%TO.P,R12,1*%
%TO.N,Net-(R12-Pad1)*%
X177546000Y-87313000D03*
%TO.P,R12,2*%
%TO.N,Net-(R12-Pad2)*%
X177546000Y-88963000D03*
%TD*%
D25*
%TO.P,C16,1*%
%TO.N,+3V3*%
X182372000Y-85103000D03*
%TO.P,C16,2*%
%TO.N,GND*%
X182372000Y-83553000D03*
%TD*%
%TO.P,C18,1*%
%TO.N,+3V3*%
X175387000Y-85103000D03*
%TO.P,C18,2*%
%TO.N,GND*%
X175387000Y-83553000D03*
%TD*%
D10*
%TO.P,D5,1,K*%
%TO.N,+12V*%
X102362000Y-100346000D03*
%TO.P,D5,2,A*%
%TO.N,/P-2*%
X103712000Y-102346000D03*
%TO.P,D5,3*%
%TO.N,N/C*%
X101012000Y-102346000D03*
%TD*%
%TO.P,Q11,1,G*%
%TO.N,/5*%
X162132000Y-100600000D03*
%TO.P,Q11,2,S*%
%TO.N,GND*%
X159432000Y-100600000D03*
%TO.P,Q11,3,D*%
%TO.N,/LED-1*%
X160782000Y-102600000D03*
%TD*%
%TO.P,Q8,1,G*%
%TO.N,/3*%
X166704000Y-100600000D03*
%TO.P,Q8,2,S*%
%TO.N,GND*%
X164004000Y-100600000D03*
%TO.P,Q8,3,D*%
%TO.N,/HTR-1*%
X165354000Y-102600000D03*
%TD*%
D19*
%TO.P,P5,1,P1*%
%TO.N,/SPB+0*%
X125476000Y-103886000D03*
%TO.P,P5,2,P2*%
%TO.N,/SPB-0*%
X125476000Y-106426000D03*
%TD*%
D15*
%TO.P,JP2,1,A*%
%TO.N,/OD90-1*%
X172466000Y-81280000D03*
%TO.P,JP2,2,C*%
%TO.N,/OD-1*%
X169926000Y-81280000D03*
%TO.P,JP2,3,B*%
%TO.N,/OD135-1*%
X167386000Y-81280000D03*
%TD*%
D25*
%TO.P,C19,1*%
%TO.N,+3V3*%
X168402000Y-85103000D03*
%TO.P,C19,2*%
%TO.N,GND*%
X168402000Y-83553000D03*
%TD*%
D10*
%TO.P,Q10,1,G*%
%TO.N,/10*%
X112348000Y-94250000D03*
%TO.P,Q10,2,S*%
%TO.N,GND*%
X109648000Y-94250000D03*
%TO.P,Q10,3,D*%
%TO.N,/P-4*%
X110998000Y-96250000D03*
%TD*%
D13*
%TO.P,C9,1*%
%TO.N,+12V*%
X88493600Y-97777000D03*
%TO.P,C9,2*%
%TO.N,GND*%
X88493600Y-99327000D03*
%TD*%
%TO.P,C12,1*%
%TO.N,+12V*%
X90424000Y-97777000D03*
%TO.P,C12,2*%
%TO.N,GND*%
X90424000Y-99327000D03*
%TD*%
D25*
%TO.P,C17,1*%
%TO.N,+3V3*%
X173736000Y-85103000D03*
%TO.P,C17,2*%
%TO.N,GND*%
X173736000Y-83553000D03*
%TD*%
D19*
%TO.P,P7,1,P1*%
%TO.N,+12V*%
X87579200Y-89611200D03*
%TO.P,P7,2,P2*%
%TO.N,GND*%
X87579200Y-92151200D03*
%TD*%
D27*
%TO.P,U1,1*%
%TO.N,Net-(R7-Pad1)*%
X171786000Y-93120000D03*
%TO.P,U1,2,-*%
%TO.N,Net-(R7-Pad2)*%
X172436000Y-93120000D03*
%TO.P,U1,3,+*%
%TO.N,/TS-0*%
X173086000Y-93120000D03*
%TO.P,U1,4,V+*%
%TO.N,+3V3*%
X173736000Y-93120000D03*
%TO.P,U1,5,+*%
%TO.N,/TS-1*%
X174386000Y-93120000D03*
%TO.P,U1,6,-*%
%TO.N,Net-(R8-Pad2)*%
X175036000Y-93120000D03*
%TO.P,U1,7*%
%TO.N,Net-(R10-Pad2)*%
X175686000Y-93120000D03*
%TO.P,U1,8*%
%TO.N,Net-(R12-Pad1)*%
X175686000Y-87220000D03*
%TO.P,U1,9,-*%
%TO.N,Net-(R12-Pad2)*%
X175036000Y-87220000D03*
%TO.P,U1,10,+*%
%TO.N,/OD-0*%
X174386000Y-87220000D03*
%TO.P,U1,11,V-*%
%TO.N,GND*%
X173736000Y-87220000D03*
%TO.P,U1,12,+*%
%TO.N,/OD-1*%
X173086000Y-87220000D03*
%TO.P,U1,13,-*%
%TO.N,Net-(R11-Pad2)*%
X172436000Y-87220000D03*
%TO.P,U1,14*%
%TO.N,Net-(R11-Pad1)*%
X171786000Y-87220000D03*
%TD*%
D17*
%TO.P,R8,1*%
%TO.N,Net-(R10-Pad2)*%
X177444400Y-93662000D03*
%TO.P,R8,2*%
%TO.N,Net-(R8-Pad2)*%
X177444400Y-92012000D03*
%TD*%
D28*
%TO.P,P2,1,P1*%
%TO.N,/FAN-0*%
X146304000Y-107950000D03*
%TO.P,P2,2,P2*%
%TO.N,+12V*%
X146304000Y-105410000D03*
%TO.P,P2,3,P3*%
%TO.N,unconnected-(P2-Pad3)*%
X143764000Y-107950000D03*
%TO.P,P2,4,P4*%
%TO.N,unconnected-(P2-Pad4)*%
X143764000Y-105410000D03*
%TO.P,P2,5,P5*%
%TO.N,/HTR-0*%
X141224000Y-107950000D03*
%TO.P,P2,6,P6*%
%TO.N,+12V*%
X141224000Y-105410000D03*
%TO.P,P2,7,P7*%
%TO.N,/TS-0*%
X138684000Y-107950000D03*
%TO.P,P2,8,P8*%
%TO.N,GND*%
X138684000Y-105410000D03*
%TO.P,P2,9,P9*%
%TO.N,/LED-0*%
X136144000Y-107950000D03*
%TO.P,P2,10,P10*%
%TO.N,+5V*%
X136144000Y-105410000D03*
%TO.P,P2,11,P11*%
%TO.N,/OD90-0*%
X133604000Y-107950000D03*
%TO.P,P2,12,P12*%
%TO.N,GND*%
X133604000Y-105410000D03*
%TO.P,P2,13,P13*%
%TO.N,/SPB-0*%
X131064000Y-107950000D03*
%TO.P,P2,14,P14*%
%TO.N,/SPB+0*%
X131064000Y-105410000D03*
%TO.P,P2,15,P15*%
%TO.N,/OD135-0*%
X128524000Y-107950000D03*
%TO.P,P2,16,P16*%
%TO.N,GND*%
X128524000Y-105410000D03*
%TD*%
%TO.P,P3,1,P1*%
%TO.N,/FAN-1*%
X175895000Y-107950000D03*
%TO.P,P3,2,P2*%
%TO.N,+12V*%
X175895000Y-105410000D03*
%TO.P,P3,3,P3*%
%TO.N,unconnected-(P3-Pad3)*%
X173355000Y-107950000D03*
%TO.P,P3,4,P4*%
%TO.N,unconnected-(P3-Pad4)*%
X173355000Y-105410000D03*
%TO.P,P3,5,P5*%
%TO.N,/HTR-1*%
X170815000Y-107950000D03*
%TO.P,P3,6,P6*%
%TO.N,+12V*%
X170815000Y-105410000D03*
%TO.P,P3,7,P7*%
%TO.N,/TS-1*%
X168275000Y-107950000D03*
%TO.P,P3,8,P8*%
%TO.N,GND*%
X168275000Y-105410000D03*
%TO.P,P3,9,P9*%
%TO.N,/LED-1*%
X165735000Y-107950000D03*
%TO.P,P3,10,P10*%
%TO.N,+5V*%
X165735000Y-105410000D03*
%TO.P,P3,11,P11*%
%TO.N,/OD90-1*%
X163195000Y-107950000D03*
%TO.P,P3,12,P12*%
%TO.N,GND*%
X163195000Y-105410000D03*
%TO.P,P3,13,P13*%
%TO.N,/SPB-1*%
X160655000Y-107950000D03*
%TO.P,P3,14,P14*%
%TO.N,/SPB+1*%
X160655000Y-105410000D03*
%TO.P,P3,15,P15*%
%TO.N,/OD135-1*%
X158115000Y-107950000D03*
%TO.P,P3,16,P16*%
%TO.N,GND*%
X158115000Y-105410000D03*
%TD*%
%TO.P,P4,1,P1*%
%TO.N,unconnected-(P4-Pad1)*%
X116840000Y-107950000D03*
%TO.P,P4,2,P2*%
%TO.N,unconnected-(P4-Pad2)*%
X116840000Y-105410000D03*
%TO.P,P4,3,P3*%
%TO.N,unconnected-(P4-Pad3)*%
X114300000Y-107950000D03*
%TO.P,P4,4,P4*%
%TO.N,unconnected-(P4-Pad4)*%
X114300000Y-105410000D03*
%TO.P,P4,5,P5*%
%TO.N,/P-5*%
X111760000Y-107950000D03*
%TO.P,P4,6,P6*%
%TO.N,+12V*%
X111760000Y-105410000D03*
%TO.P,P4,7,P7*%
%TO.N,/P-4*%
X109220000Y-107950000D03*
%TO.P,P4,8,P8*%
%TO.N,+12V*%
X109220000Y-105410000D03*
%TO.P,P4,9,P9*%
%TO.N,/P-3*%
X106680000Y-107950000D03*
%TO.P,P4,10,P10*%
%TO.N,+12V*%
X106680000Y-105410000D03*
%TO.P,P4,11,P11*%
%TO.N,/P-2*%
X104140000Y-107950000D03*
%TO.P,P4,12,P12*%
%TO.N,+12V*%
X104140000Y-105410000D03*
%TO.P,P4,13,P13*%
%TO.N,/P-1*%
X101600000Y-107950000D03*
%TO.P,P4,14,P14*%
%TO.N,+12V*%
X101600000Y-105410000D03*
%TO.P,P4,15,P15*%
%TO.N,/P-0*%
X99060000Y-107950000D03*
%TO.P,P4,16,P16*%
%TO.N,+12V*%
X99060000Y-105410000D03*
%TD*%
D29*
%TO.N,GND*%
X123698000Y-81280000D03*
D30*
X100838000Y-95504000D03*
D31*
X133502400Y-93472000D03*
D29*
X123698000Y-88392000D03*
D30*
X92202000Y-95504000D03*
X170180000Y-83820000D03*
X89408000Y-100939600D03*
D31*
X166243000Y-94996000D03*
X182372000Y-88519000D03*
D30*
X96520000Y-95504000D03*
D31*
X174498000Y-81788000D03*
D30*
X109474000Y-95504000D03*
X119888000Y-84836000D03*
X119227600Y-100634800D03*
D31*
X183134000Y-82296000D03*
D29*
X105664000Y-84836000D03*
D31*
X173736000Y-88696800D03*
D29*
X126746000Y-84836000D03*
D31*
X181102000Y-95250000D03*
X159461200Y-99009200D03*
X143459200Y-93472000D03*
X138582400Y-93472000D03*
X177190400Y-99110800D03*
D30*
X113792000Y-95504000D03*
D29*
X105664000Y-88900000D03*
X105664000Y-81026000D03*
D30*
X105156000Y-95504000D03*
D29*
X126746000Y-81280000D03*
D31*
X166624000Y-90633330D03*
D29*
X126746000Y-88392000D03*
D30*
X132842000Y-84836000D03*
X174447200Y-98976999D03*
D31*
X163982400Y-99009200D03*
%TO.N,+3V3*%
X172339000Y-96266000D03*
X178102717Y-83827692D03*
X182372000Y-86614000D03*
X178943000Y-96057001D03*
X164846000Y-86130899D03*
X129964200Y-80721200D03*
X174066200Y-91389200D03*
X169926000Y-98932499D03*
%TO.N,+12V*%
X110998000Y-98552000D03*
X139903200Y-102082600D03*
X115316000Y-98679000D03*
X145034000Y-101752400D03*
X169672000Y-101904800D03*
X106680000Y-98552000D03*
D30*
X89458800Y-96062800D03*
D31*
X93726000Y-98552000D03*
D29*
X118364000Y-88562800D03*
D31*
X102362000Y-98552000D03*
X98044000Y-98552000D03*
X173990000Y-101904800D03*
D30*
X119227600Y-95707200D03*
D31*
%TO.N,/A3*%
X165455600Y-100113000D03*
D29*
%TO.N,+5V*%
X117856000Y-80518000D03*
D30*
X134874000Y-98882200D03*
D29*
X149606000Y-101803200D03*
X149606000Y-104902000D03*
X130048000Y-88562800D03*
D31*
X156464000Y-98933000D03*
D29*
X149606000Y-103327200D03*
D31*
X155448000Y-105156000D03*
%TO.N,/HTR-1*%
X166126225Y-104105917D03*
D30*
%TO.N,/OD135-0*%
X134112000Y-80264000D03*
D31*
%TO.N,/OD90-0*%
X135077200Y-83845400D03*
%TO.N,/OD90-1*%
X163195000Y-82626200D03*
%TO.N,/OD135-1*%
X158750000Y-81280000D03*
%TO.N,/10*%
X187350400Y-89408000D03*
X112369600Y-89966800D03*
%TO.N,/11*%
X146202400Y-85445600D03*
%TO.N,/12*%
X116687600Y-89458800D03*
%TO.N,/2*%
X142417800Y-100838000D03*
%TO.N,/3*%
X167169000Y-98932999D03*
%TO.N,/4*%
X136943500Y-99148041D03*
%TO.N,/5*%
X162153600Y-97358200D03*
%TO.N,/6*%
X95046800Y-92608400D03*
%TO.N,/7*%
X99415600Y-92049600D03*
%TO.N,/8*%
X103835200Y-90982800D03*
%TO.N,/9*%
X148082000Y-84681899D03*
X108000800Y-90474800D03*
X148082000Y-90633330D03*
%TO.N,/TS-0*%
X168656000Y-96393000D03*
X138173519Y-96060726D03*
%TO.N,/TS-1*%
X176403000Y-94488000D03*
X167894000Y-95300800D03*
%TD*%
D32*
%TO.N,GND*%
X105330000Y-94250000D02*
X105330000Y-95330000D01*
D33*
X143430000Y-95012000D02*
X143430000Y-93501200D01*
X177212000Y-100600000D02*
X177212000Y-99132400D01*
D34*
X168402000Y-83553000D02*
X169913000Y-83553000D01*
X118414800Y-99822000D02*
X119227600Y-100634800D01*
X90424000Y-99327000D02*
X90424000Y-99923600D01*
X166370000Y-88913000D02*
X166370000Y-90379330D01*
X166370000Y-90379330D02*
X166624000Y-90633330D01*
X126873000Y-84709000D02*
X126746000Y-84836000D01*
X166268400Y-93739000D02*
X166268400Y-94970600D01*
X132715000Y-84709000D02*
X132842000Y-84836000D01*
X120150468Y-98946000D02*
X120150468Y-99711932D01*
D33*
X138604000Y-93493600D02*
X138582400Y-93472000D01*
D35*
X175387000Y-82677000D02*
X174498000Y-81788000D01*
D33*
X138604000Y-95012000D02*
X138604000Y-93493600D01*
D35*
X173736000Y-87220000D02*
X173736000Y-88696800D01*
D32*
X92376000Y-95330000D02*
X92202000Y-95504000D01*
D33*
X177212000Y-99132400D02*
X177190400Y-99110800D01*
X159432000Y-99038400D02*
X159461200Y-99009200D01*
X133524000Y-95012000D02*
X133524000Y-93493600D01*
X201873800Y-103378000D02*
X204292200Y-100959600D01*
D35*
X175273000Y-95123000D02*
X175273000Y-96901000D01*
D32*
X109648000Y-95330000D02*
X109474000Y-95504000D01*
X92376000Y-94250000D02*
X92376000Y-95330000D01*
D35*
X175387000Y-83553000D02*
X175387000Y-82677000D01*
D34*
X175273000Y-98151199D02*
X174447200Y-98976999D01*
X90424000Y-99923600D02*
X89408000Y-100939600D01*
D33*
X164004000Y-100600000D02*
X164004000Y-99030800D01*
D34*
X129964600Y-84709000D02*
X132715000Y-84709000D01*
X169913000Y-83553000D02*
X170180000Y-83820000D01*
D33*
X133524000Y-93493600D02*
X133502400Y-93472000D01*
D34*
X119888000Y-84836000D02*
X114808000Y-84836000D01*
X182372000Y-83058000D02*
X183134000Y-82296000D01*
X175273000Y-96901000D02*
X175273000Y-98151199D01*
D33*
X143430000Y-93501200D02*
X143459200Y-93472000D01*
D32*
X109648000Y-94250000D02*
X109648000Y-95330000D01*
D34*
X88493600Y-99327000D02*
X88493600Y-100025200D01*
X132842000Y-83071000D02*
X132842000Y-84836000D01*
X119888000Y-84836000D02*
X119888000Y-82842400D01*
X181102000Y-93612000D02*
X181102000Y-95250000D01*
D32*
X96694000Y-95330000D02*
X96520000Y-95504000D01*
D35*
X181978000Y-88913000D02*
X182372000Y-88519000D01*
D34*
X119888000Y-86601000D02*
X119888000Y-84836000D01*
D35*
X181102000Y-88913000D02*
X181978000Y-88913000D01*
D34*
X182372000Y-83553000D02*
X182372000Y-83058000D01*
X132842000Y-86347000D02*
X132842000Y-84836000D01*
D32*
X113966000Y-95330000D02*
X113792000Y-95504000D01*
D34*
X166268400Y-94970600D02*
X166243000Y-94996000D01*
X118414800Y-98946000D02*
X118414800Y-99822000D01*
D32*
X101012000Y-94250000D02*
X101012000Y-95330000D01*
D33*
X200152000Y-103378000D02*
X201873800Y-103378000D01*
D34*
X120150468Y-99711932D02*
X119227600Y-100634800D01*
D35*
X173736000Y-82550000D02*
X174498000Y-81788000D01*
D33*
X159432000Y-100600000D02*
X159432000Y-99038400D01*
D32*
X113966000Y-94250000D02*
X113966000Y-95330000D01*
D33*
X164004000Y-99030800D02*
X163982400Y-99009200D01*
D35*
X173736000Y-83553000D02*
X173736000Y-82550000D01*
D32*
X96694000Y-94250000D02*
X96694000Y-95330000D01*
D34*
X88493600Y-100025200D02*
X89408000Y-100939600D01*
X129964600Y-84709000D02*
X126873000Y-84709000D01*
D32*
X105330000Y-95330000D02*
X105156000Y-95504000D01*
X101012000Y-95330000D02*
X100838000Y-95504000D01*
D35*
%TO.N,+3V3*%
X175387000Y-85103000D02*
X173736000Y-85103000D01*
X177038000Y-84892409D02*
X178102717Y-83827692D01*
X173736000Y-91719400D02*
X174066200Y-91389200D01*
X177419000Y-96837000D02*
X178163001Y-96837000D01*
X177038000Y-85153000D02*
X175437000Y-85153000D01*
X173736000Y-85103000D02*
X172008000Y-85103000D01*
D34*
X131954000Y-82409000D02*
X132842000Y-81521000D01*
X182372000Y-85103000D02*
X180644000Y-85103000D01*
X177038000Y-85153000D02*
X177038000Y-84892409D01*
D35*
X172974000Y-96901000D02*
X172339000Y-96266000D01*
X169926000Y-97091000D02*
X169926000Y-98932499D01*
X173723000Y-95123000D02*
X173723000Y-96901000D01*
D34*
X168402000Y-85103000D02*
X166674000Y-85103000D01*
X129964600Y-82409000D02*
X131954000Y-82409000D01*
D35*
X173736000Y-93120000D02*
X173736000Y-91719400D01*
D32*
X129964600Y-80721600D02*
X129964200Y-80721200D01*
X129964600Y-82409000D02*
X129964600Y-80721600D01*
D34*
X165823899Y-85153000D02*
X164846000Y-86130899D01*
X182372000Y-85103000D02*
X182372000Y-86614000D01*
X166624000Y-85153000D02*
X165823899Y-85153000D01*
D35*
X173736000Y-93120000D02*
X173736000Y-95110000D01*
X178163001Y-96837000D02*
X178943000Y-96057001D01*
X172974000Y-96901000D02*
X173723000Y-96901000D01*
%TO.N,/A1*%
X179324000Y-92012000D02*
X181052000Y-92012000D01*
X184912000Y-95758000D02*
X181216000Y-92062000D01*
%TO.N,/A0*%
X182292700Y-90598700D02*
X169840700Y-90598700D01*
X168300400Y-92139000D02*
X169840700Y-90598700D01*
X184912000Y-93218000D02*
X182292700Y-90598700D01*
X166268400Y-92189000D02*
X167996400Y-92189000D01*
D32*
%TO.N,+12V*%
X98044000Y-100346000D02*
X98044000Y-98552000D01*
X106680000Y-100346000D02*
X106680000Y-98552000D01*
D33*
X139954000Y-100600000D02*
X139954000Y-102031800D01*
X145034000Y-100600000D02*
X145034000Y-101752400D01*
D32*
X102362000Y-100346000D02*
X102362000Y-98552000D01*
D34*
X118706600Y-86969600D02*
X119888000Y-88151000D01*
D33*
X173990000Y-100600000D02*
X173990000Y-101904800D01*
D34*
X116994000Y-86969600D02*
X118706600Y-86969600D01*
X88493600Y-97777000D02*
X88493600Y-97028000D01*
X120150468Y-97396000D02*
X120150468Y-96630068D01*
D33*
X139954000Y-102031800D02*
X139903200Y-102082600D01*
D34*
X118414800Y-96520000D02*
X119227600Y-95707200D01*
D32*
X115316000Y-100346000D02*
X115316000Y-98679000D01*
D34*
X90424000Y-97777000D02*
X90424000Y-97028000D01*
X118414800Y-97396000D02*
X118414800Y-96520000D01*
X90424000Y-97028000D02*
X89458800Y-96062800D01*
D32*
X93726000Y-100346000D02*
X93726000Y-98552000D01*
D34*
X120150468Y-96630068D02*
X119227600Y-95707200D01*
D32*
X110998000Y-100346000D02*
X110998000Y-98552000D01*
D34*
X116994000Y-87192800D02*
X118364000Y-88562800D01*
D33*
X169672000Y-100600000D02*
X169672000Y-101904800D01*
D34*
X88493600Y-97028000D02*
X89458800Y-96062800D01*
D35*
%TO.N,/A2*%
X184912000Y-98298000D02*
X186385511Y-96824489D01*
X182648305Y-87363000D02*
X181102000Y-87363000D01*
X186385511Y-88096729D02*
X186385511Y-96824489D01*
X185344782Y-87056000D02*
X186385511Y-88096729D01*
X182955305Y-87056000D02*
X182648305Y-87363000D01*
X185344782Y-87056000D02*
X182955305Y-87056000D01*
X179324000Y-87313000D02*
X181052000Y-87313000D01*
D34*
%TO.N,/A3*%
X168148000Y-87313000D02*
X166420000Y-87313000D01*
D35*
X165455600Y-100113000D02*
X165455600Y-88277400D01*
X165455600Y-88277400D02*
X166370000Y-87363000D01*
D34*
%TO.N,+5V*%
X116994000Y-82397600D02*
X118782800Y-82397600D01*
X131954000Y-87009000D02*
X132842000Y-87897000D01*
D33*
X134874000Y-103378000D02*
X136144000Y-104648000D01*
D34*
X129964600Y-87009000D02*
X131954000Y-87009000D01*
D32*
X153162000Y-110998000D02*
X149606000Y-107442000D01*
D34*
X116994000Y-82397600D02*
X116994000Y-81380000D01*
D32*
X129964600Y-88479400D02*
X130048000Y-88562800D01*
X149606000Y-107442000D02*
X149606000Y-104902000D01*
D33*
X134874000Y-100600000D02*
X134874000Y-98882200D01*
X134874000Y-100600000D02*
X134874000Y-103378000D01*
D32*
X184912000Y-110998000D02*
X153162000Y-110998000D01*
D33*
X156464000Y-100600000D02*
X156464000Y-98933000D01*
D34*
X118782800Y-82397600D02*
X119913400Y-81267000D01*
X116994000Y-81380000D02*
X117856000Y-80518000D01*
D32*
X129964600Y-87009000D02*
X129964600Y-88479400D01*
D33*
%TO.N,Net-(C15-Pad1)*%
X200152000Y-105918000D02*
X201833800Y-105918000D01*
X201833800Y-105918000D02*
X204292200Y-103459600D01*
D34*
%TO.N,/FAN-0*%
X147456500Y-106797500D02*
X146304000Y-107950000D01*
X147456500Y-103672500D02*
X147456500Y-106797500D01*
X146384000Y-102600000D02*
X147456500Y-103672500D01*
X146431000Y-98663000D02*
X146431000Y-102553000D01*
X144780000Y-97012000D02*
X146431000Y-98663000D01*
D32*
%TO.N,/P-0*%
X93726000Y-96250000D02*
X95076000Y-97600000D01*
D33*
X95076000Y-102346000D02*
X95076000Y-103966000D01*
D32*
X95076000Y-97600000D02*
X95076000Y-102346000D01*
D33*
X95076000Y-103966000D02*
X99060000Y-107950000D01*
D32*
%TO.N,/P-1*%
X99394000Y-97600000D02*
X99394000Y-102346000D01*
D33*
X100276000Y-103228000D02*
X100276000Y-106626000D01*
X100276000Y-106626000D02*
X101600000Y-107950000D01*
D32*
X98044000Y-96250000D02*
X99394000Y-97600000D01*
D33*
X99394000Y-102346000D02*
X100276000Y-103228000D01*
D34*
%TO.N,/FAN-1*%
X174742500Y-106797500D02*
X175895000Y-107950000D01*
X174742500Y-103197500D02*
X174742500Y-106797500D01*
X175340000Y-102600000D02*
X174742500Y-103197500D01*
X175340000Y-102600000D02*
X178562000Y-102600000D01*
D33*
%TO.N,/P-2*%
X102924000Y-103134000D02*
X102924000Y-106734000D01*
X103712000Y-102346000D02*
X102924000Y-103134000D01*
D32*
X102362000Y-96250000D02*
X103712000Y-97600000D01*
D33*
X102924000Y-106734000D02*
X104140000Y-107950000D01*
D32*
X103712000Y-97600000D02*
X103712000Y-102346000D01*
D34*
%TO.N,/HTR-0*%
X141351000Y-98409000D02*
X141351000Y-102553000D01*
X141304000Y-102600000D02*
X142376500Y-103672500D01*
X142376500Y-103672500D02*
X142376500Y-106797500D01*
X142376500Y-106797500D02*
X141224000Y-107950000D01*
X139954000Y-97012000D02*
X141351000Y-98409000D01*
D32*
%TO.N,/P-3*%
X106680000Y-96250000D02*
X108030000Y-97600000D01*
D33*
X108004000Y-102372000D02*
X108004000Y-106626000D01*
D32*
X108030000Y-97600000D02*
X108030000Y-102346000D01*
D33*
X108004000Y-106626000D02*
X106680000Y-107950000D01*
D34*
%TO.N,/HTR-1*%
X171022000Y-102600000D02*
X171967500Y-103545500D01*
X171967500Y-103545500D02*
X171967500Y-106797500D01*
X171967500Y-106797500D02*
X170815000Y-107950000D01*
X166126225Y-103372225D02*
X165354000Y-102600000D01*
X166126225Y-104105917D02*
X166126225Y-103372225D01*
%TO.N,/LED-0*%
X137296500Y-106797500D02*
X136144000Y-107950000D01*
X136224000Y-103431000D02*
X137296500Y-104503500D01*
X136153500Y-98291500D02*
X136153500Y-102435500D01*
X134874000Y-97012000D02*
X136153500Y-98291500D01*
X136224000Y-102600000D02*
X136224000Y-103431000D01*
X137296500Y-104503500D02*
X137296500Y-106797500D01*
D32*
%TO.N,/P-4*%
X112348000Y-97600000D02*
X112348000Y-102346000D01*
D33*
X112348000Y-102346000D02*
X110544000Y-104150000D01*
X110544000Y-106626000D02*
X109220000Y-107950000D01*
X110544000Y-104150000D02*
X110544000Y-106626000D01*
D32*
X110998000Y-96250000D02*
X112348000Y-97600000D01*
D34*
%TO.N,/LED-1*%
X157814000Y-102600000D02*
X160782000Y-102600000D01*
X164582500Y-109102500D02*
X165735000Y-107950000D01*
X161807500Y-103625500D02*
X161807500Y-108192382D01*
X161807500Y-108192382D02*
X162717618Y-109102500D01*
X160782000Y-102600000D02*
X161807500Y-103625500D01*
X162717618Y-109102500D02*
X164582500Y-109102500D01*
D32*
%TO.N,/P-5*%
X116666000Y-97600000D02*
X116666000Y-102346000D01*
D33*
X113084000Y-106626000D02*
X111760000Y-107950000D01*
X114803684Y-106626000D02*
X113084000Y-106626000D01*
X115516000Y-105913684D02*
X114803684Y-106626000D01*
X116666000Y-102346000D02*
X115516000Y-103496000D01*
X115516000Y-103496000D02*
X115516000Y-105913684D01*
D32*
X115316000Y-96250000D02*
X116666000Y-97600000D01*
D35*
%TO.N,/OD135-0*%
X134112000Y-91440000D02*
X127437000Y-98115000D01*
X177038000Y-83503000D02*
X177038000Y-82042000D01*
X127437000Y-106863000D02*
X128524000Y-107950000D01*
X177038000Y-82042000D02*
X176276000Y-81280000D01*
X134112000Y-91440000D02*
X134112000Y-80264000D01*
X127437000Y-98115000D02*
X127437000Y-106863000D01*
%TO.N,/OD-0*%
X178816000Y-81280000D02*
X179716000Y-82180000D01*
X179716000Y-83936000D02*
X177547500Y-86104500D01*
X179716000Y-82180000D02*
X179716000Y-83936000D01*
X177547500Y-86104500D02*
X174420500Y-86104500D01*
X174386000Y-86139000D02*
X174386000Y-87220000D01*
X174420500Y-86104500D02*
X174386000Y-86139000D01*
%TO.N,/OD90-0*%
X133604000Y-101092000D02*
X133604000Y-96367002D01*
X132517000Y-102179000D02*
X132517000Y-106863000D01*
X132517000Y-106863000D02*
X133604000Y-107950000D01*
X135077200Y-83845400D02*
X135077200Y-94893802D01*
X133604000Y-101092000D02*
X132517000Y-102179000D01*
D34*
X180594000Y-83503000D02*
X180594000Y-82042000D01*
D35*
X135077200Y-94893802D02*
X133604000Y-96367002D01*
D34*
X180594000Y-82042000D02*
X181356000Y-81280000D01*
D35*
%TO.N,/OD90-1*%
X164347500Y-106924500D02*
X163576000Y-107696000D01*
X164347500Y-104657500D02*
X164347500Y-106924500D01*
X163195000Y-103505000D02*
X163195000Y-82626200D01*
X171958000Y-83503000D02*
X171958000Y-81788000D01*
X163195000Y-103505000D02*
X164347500Y-104657500D01*
D34*
X171958000Y-81788000D02*
X172466000Y-81280000D01*
D35*
%TO.N,/OD-1*%
X173086000Y-87220000D02*
X173086000Y-86114000D01*
X173076500Y-86104500D02*
X171448500Y-86104500D01*
X171448500Y-86104500D02*
X171015000Y-85671000D01*
X171015000Y-82369000D02*
X169926000Y-81280000D01*
X171015000Y-85671000D02*
X171015000Y-82369000D01*
X173086000Y-86114000D02*
X173076500Y-86104500D01*
%TO.N,/OD135-1*%
X157028000Y-106863000D02*
X158115000Y-107950000D01*
X158706999Y-100271999D02*
X157028000Y-101950998D01*
D34*
X166624000Y-83503000D02*
X166624000Y-82042000D01*
D35*
X158706999Y-81323001D02*
X158706999Y-100271999D01*
X158750000Y-81280000D02*
X158706999Y-81323001D01*
D34*
X166624000Y-82042000D02*
X167386000Y-81280000D01*
D35*
X157028000Y-101950998D02*
X157028000Y-106863000D01*
%TO.N,/10*%
X112348000Y-89988400D02*
X112369600Y-89966800D01*
X112348000Y-94250000D02*
X112348000Y-89988400D01*
X187350400Y-85496400D02*
X184912000Y-83058000D01*
X187350400Y-89408000D02*
X187350400Y-85496400D01*
%TO.N,/11*%
X146130000Y-85518000D02*
X146202400Y-85445600D01*
X146130000Y-95012000D02*
X146130000Y-85518000D01*
%TO.N,/12*%
X116666000Y-89480400D02*
X116687600Y-89458800D01*
X116666000Y-94250000D02*
X116666000Y-89480400D01*
%TO.N,/13*%
X183237501Y-97274499D02*
X184910283Y-97274499D01*
X179912000Y-100600000D02*
X183237501Y-97274499D01*
X184910283Y-97274499D02*
X185935501Y-96249281D01*
X185935501Y-91701501D02*
X184912000Y-90678000D01*
X185935501Y-96249281D02*
X185935501Y-91701501D01*
%TO.N,/2*%
X141304000Y-95012000D02*
X142417800Y-96125800D01*
X142417800Y-96125800D02*
X142417800Y-100838000D01*
%TO.N,/3*%
X166704000Y-99397999D02*
X167169000Y-98932999D01*
X166704000Y-100600000D02*
X166704000Y-99397999D01*
%TO.N,/4*%
X136224000Y-95062000D02*
X137077631Y-95915631D01*
X137077631Y-95915631D02*
X137077631Y-99013910D01*
X137077631Y-99013910D02*
X136943500Y-99148041D01*
%TO.N,/5*%
X162132000Y-97379800D02*
X162153600Y-97358200D01*
X162132000Y-100600000D02*
X162132000Y-97379800D01*
%TO.N,/6*%
X95076000Y-92637600D02*
X95046800Y-92608400D01*
X95076000Y-94250000D02*
X95076000Y-92637600D01*
%TO.N,/7*%
X99394000Y-92071200D02*
X99415600Y-92049600D01*
X99394000Y-94250000D02*
X99394000Y-92071200D01*
%TO.N,/8*%
X103712000Y-94250000D02*
X103712000Y-91106000D01*
X103712000Y-91106000D02*
X103835200Y-90982800D01*
%TO.N,/9*%
X108030000Y-90504000D02*
X108000800Y-90474800D01*
X108030000Y-94250000D02*
X108030000Y-90504000D01*
X148082000Y-90633330D02*
X148082000Y-84681899D01*
%TO.N,/TS-0*%
X171740000Y-95441000D02*
X169926000Y-95441000D01*
X137668000Y-96566245D02*
X137668000Y-103632000D01*
X173086000Y-94095000D02*
X171740000Y-95441000D01*
X140137000Y-106497000D02*
X138684000Y-107950000D01*
X173086000Y-93120000D02*
X173086000Y-94095000D01*
X168656000Y-96393000D02*
X168974000Y-96393000D01*
X168974000Y-96393000D02*
X169926000Y-95441000D01*
X138173519Y-96060726D02*
X137668000Y-96566245D01*
X140137000Y-104069000D02*
X140137000Y-106497000D01*
X137668000Y-103632000D02*
X139700000Y-103632000D01*
X139700000Y-103632000D02*
X140137000Y-104069000D01*
%TO.N,/TS-1*%
X174386000Y-93120000D02*
X174386000Y-94095000D01*
X167596999Y-104458119D02*
X167122500Y-104932618D01*
X167894000Y-101592998D02*
X167894000Y-95300800D01*
X167122500Y-107178500D02*
X167640000Y-107696000D01*
X174386000Y-94095000D02*
X174525000Y-94234000D01*
X174525000Y-94234000D02*
X176149000Y-94234000D01*
X177102000Y-95187000D02*
X176403000Y-94488000D01*
X167122500Y-104932618D02*
X167122500Y-107178500D01*
X167596999Y-101889999D02*
X167596999Y-104458119D01*
X167596999Y-101889999D02*
X167894000Y-101592998D01*
X176149000Y-94234000D02*
X176403000Y-94488000D01*
%TO.N,Net-(R7-Pad2)*%
X172436000Y-93120000D02*
X172436000Y-92014000D01*
X172426500Y-92004500D02*
X170060500Y-92004500D01*
X172436000Y-92014000D02*
X172426500Y-92004500D01*
%TO.N,Net-(R7-Pad1)*%
X171786000Y-93120000D02*
X170595000Y-93120000D01*
X170595000Y-93120000D02*
X169926000Y-93789000D01*
X168046400Y-93789000D02*
X169926000Y-93789000D01*
%TO.N,Net-(R10-Pad2)*%
X175686000Y-93120000D02*
X176902400Y-93120000D01*
X179324000Y-93662000D02*
X177444400Y-93662000D01*
X176902400Y-93120000D02*
X177444400Y-93662000D01*
%TO.N,Net-(R8-Pad2)*%
X175036000Y-92014000D02*
X175036000Y-93120000D01*
X177436900Y-92004500D02*
X175045500Y-92004500D01*
X175045500Y-92004500D02*
X175036000Y-92014000D01*
%TO.N,Net-(R11-Pad1)*%
X169926000Y-87313000D02*
X171693000Y-87313000D01*
D34*
X171693000Y-87313000D02*
X171786000Y-87220000D01*
D35*
X168276000Y-88963000D02*
X169926000Y-87313000D01*
%TO.N,Net-(R11-Pad2)*%
X172436000Y-87220000D02*
X172436000Y-88326000D01*
X172436000Y-88326000D02*
X171799000Y-88963000D01*
X171799000Y-88963000D02*
X169926000Y-88963000D01*
%TO.N,Net-(R12-Pad1)*%
X179196000Y-88963000D02*
X177546000Y-87313000D01*
X175686000Y-87220000D02*
X177453000Y-87220000D01*
%TO.N,Net-(R12-Pad2)*%
X177546000Y-88963000D02*
X175831000Y-88963000D01*
X175831000Y-88963000D02*
X175036000Y-88168000D01*
X175036000Y-88168000D02*
X175036000Y-87220000D01*
%TD*%
%TA.AperFunction,Conductor*%
%TO.N,GND*%
G36*
X127007029Y-80264792D02*
G01*
X127155457Y-80281516D01*
X127182963Y-80287794D01*
X127317216Y-80334772D01*
X127342635Y-80347013D01*
X127463082Y-80422694D01*
X127485142Y-80440287D01*
X127585713Y-80540858D01*
X127603306Y-80562918D01*
X127678987Y-80683365D01*
X127691228Y-80708784D01*
X127738205Y-80843035D01*
X127744484Y-80870543D01*
X127761208Y-81018971D01*
X127762000Y-81033079D01*
X127762000Y-88892921D01*
X127761208Y-88907029D01*
X127744484Y-89055457D01*
X127738205Y-89082965D01*
X127691228Y-89217216D01*
X127678987Y-89242635D01*
X127603306Y-89363082D01*
X127585713Y-89385142D01*
X127485142Y-89485713D01*
X127463082Y-89503306D01*
X127342635Y-89578987D01*
X127317216Y-89591228D01*
X127182963Y-89638206D01*
X127155457Y-89644484D01*
X127007029Y-89661208D01*
X126992921Y-89662000D01*
X121927079Y-89662000D01*
X121912971Y-89661208D01*
X121764543Y-89644484D01*
X121737037Y-89638206D01*
X121602784Y-89591228D01*
X121577365Y-89578987D01*
X121456918Y-89503306D01*
X121434858Y-89485713D01*
X121334287Y-89385142D01*
X121316694Y-89363082D01*
X121241013Y-89242635D01*
X121228772Y-89217216D01*
X121181795Y-89082965D01*
X121175516Y-89055457D01*
X121158792Y-88907029D01*
X121158000Y-88892921D01*
X121158000Y-86653669D01*
X122156601Y-86653669D01*
X122156971Y-86660490D01*
X122162495Y-86711352D01*
X122166121Y-86726604D01*
X122211276Y-86847054D01*
X122219814Y-86862649D01*
X122296315Y-86964724D01*
X122308876Y-86977285D01*
X122410951Y-87053786D01*
X122426546Y-87062324D01*
X122546994Y-87107478D01*
X122562249Y-87111105D01*
X122613114Y-87116631D01*
X122619928Y-87117000D01*
X123392485Y-87117000D01*
X123407724Y-87112525D01*
X123408929Y-87111135D01*
X123410600Y-87103452D01*
X123410600Y-87098884D01*
X123918600Y-87098884D01*
X123923075Y-87114123D01*
X123924465Y-87115328D01*
X123932148Y-87116999D01*
X124709269Y-87116999D01*
X124716090Y-87116629D01*
X124766952Y-87111105D01*
X124782204Y-87107479D01*
X124902654Y-87062324D01*
X124918249Y-87053786D01*
X125020324Y-86977285D01*
X125032885Y-86964724D01*
X125109386Y-86862649D01*
X125117924Y-86847054D01*
X125163078Y-86726606D01*
X125166705Y-86711351D01*
X125172231Y-86660486D01*
X125172600Y-86653672D01*
X125172600Y-84981115D01*
X125168125Y-84965876D01*
X125166735Y-84964671D01*
X125159052Y-84963000D01*
X123936715Y-84963000D01*
X123921476Y-84967475D01*
X123920271Y-84968865D01*
X123918600Y-84976548D01*
X123918600Y-87098884D01*
X123410600Y-87098884D01*
X123410600Y-84981115D01*
X123406125Y-84965876D01*
X123404735Y-84964671D01*
X123397052Y-84963000D01*
X122174716Y-84963000D01*
X122159477Y-84967475D01*
X122158272Y-84968865D01*
X122156601Y-84976548D01*
X122156601Y-86653669D01*
X121158000Y-86653669D01*
X121158000Y-84436885D01*
X122156600Y-84436885D01*
X122161075Y-84452124D01*
X122162465Y-84453329D01*
X122170148Y-84455000D01*
X123392485Y-84455000D01*
X123407724Y-84450525D01*
X123408929Y-84449135D01*
X123410600Y-84441452D01*
X123410600Y-84436885D01*
X123918600Y-84436885D01*
X123923075Y-84452124D01*
X123924465Y-84453329D01*
X123932148Y-84455000D01*
X125154484Y-84455000D01*
X125169723Y-84450525D01*
X125170928Y-84449135D01*
X125172599Y-84441452D01*
X125172599Y-82764331D01*
X125172229Y-82757510D01*
X125166705Y-82706648D01*
X125163079Y-82691396D01*
X125117924Y-82570946D01*
X125109386Y-82555351D01*
X125032885Y-82453276D01*
X125020324Y-82440715D01*
X124918249Y-82364214D01*
X124902654Y-82355676D01*
X124782206Y-82310522D01*
X124766951Y-82306895D01*
X124716086Y-82301369D01*
X124709272Y-82301000D01*
X123936715Y-82301000D01*
X123921476Y-82305475D01*
X123920271Y-82306865D01*
X123918600Y-82314548D01*
X123918600Y-84436885D01*
X123410600Y-84436885D01*
X123410600Y-82319116D01*
X123406125Y-82303877D01*
X123404735Y-82302672D01*
X123397052Y-82301001D01*
X122619931Y-82301001D01*
X122613110Y-82301371D01*
X122562248Y-82306895D01*
X122546996Y-82310521D01*
X122426546Y-82355676D01*
X122410951Y-82364214D01*
X122308876Y-82440715D01*
X122296315Y-82453276D01*
X122219814Y-82555351D01*
X122211276Y-82570946D01*
X122166122Y-82691394D01*
X122162495Y-82706649D01*
X122156969Y-82757514D01*
X122156600Y-82764328D01*
X122156600Y-84436885D01*
X121158000Y-84436885D01*
X121158000Y-81033079D01*
X121158792Y-81018971D01*
X121175516Y-80870543D01*
X121181795Y-80843035D01*
X121228772Y-80708784D01*
X121241013Y-80683365D01*
X121316694Y-80562918D01*
X121334287Y-80540858D01*
X121434858Y-80440287D01*
X121456918Y-80422694D01*
X121577365Y-80347013D01*
X121602784Y-80334772D01*
X121737037Y-80287794D01*
X121764543Y-80281516D01*
X121912971Y-80264792D01*
X121927079Y-80264000D01*
X126992921Y-80264000D01*
X127007029Y-80264792D01*
G37*
%TD.AperFunction*%
%TD*%
%TA.AperFunction,Conductor*%
%TO.N,GND*%
G36*
X114561029Y-80010792D02*
G01*
X114709457Y-80027516D01*
X114736963Y-80033794D01*
X114871216Y-80080772D01*
X114896635Y-80093013D01*
X115017082Y-80168694D01*
X115039142Y-80186287D01*
X115139713Y-80286858D01*
X115157306Y-80308918D01*
X115232987Y-80429365D01*
X115245228Y-80454784D01*
X115292205Y-80589035D01*
X115298484Y-80616543D01*
X115315208Y-80764971D01*
X115316000Y-80779079D01*
X115316000Y-81157412D01*
X115295998Y-81225533D01*
X115265567Y-81258237D01*
X115230739Y-81284339D01*
X115143385Y-81400895D01*
X115092255Y-81537284D01*
X115085500Y-81599466D01*
X115085500Y-83195734D01*
X115092255Y-83257916D01*
X115143385Y-83394305D01*
X115230739Y-83510861D01*
X115265567Y-83536963D01*
X115308080Y-83593822D01*
X115316000Y-83637788D01*
X115316000Y-85729412D01*
X115295998Y-85797533D01*
X115265567Y-85830237D01*
X115230739Y-85856339D01*
X115143385Y-85972895D01*
X115092255Y-86109284D01*
X115085500Y-86171466D01*
X115085500Y-87767734D01*
X115092255Y-87829916D01*
X115143385Y-87966305D01*
X115230739Y-88082861D01*
X115265567Y-88108963D01*
X115308080Y-88165822D01*
X115316000Y-88209788D01*
X115316000Y-89146921D01*
X115315208Y-89161029D01*
X115298484Y-89309457D01*
X115292205Y-89336965D01*
X115245228Y-89471216D01*
X115232987Y-89496635D01*
X115157306Y-89617082D01*
X115139713Y-89639142D01*
X115039142Y-89739713D01*
X115017082Y-89757306D01*
X114896635Y-89832987D01*
X114871216Y-89845228D01*
X114736963Y-89892206D01*
X114709457Y-89898484D01*
X114561029Y-89915208D01*
X114546921Y-89916000D01*
X113391216Y-89916000D01*
X113323095Y-89895998D01*
X113276602Y-89842342D01*
X113265906Y-89803170D01*
X113263832Y-89783437D01*
X113263142Y-89776872D01*
X113232863Y-89683682D01*
X113206169Y-89601529D01*
X113204127Y-89595244D01*
X113108640Y-89429856D01*
X113000233Y-89309457D01*
X112985275Y-89292845D01*
X112985274Y-89292844D01*
X112980853Y-89287934D01*
X112826352Y-89175682D01*
X112820324Y-89172998D01*
X112820322Y-89172997D01*
X112657919Y-89100691D01*
X112657918Y-89100691D01*
X112651888Y-89098006D01*
X112558487Y-89078153D01*
X112471544Y-89059672D01*
X112471539Y-89059672D01*
X112465087Y-89058300D01*
X112274113Y-89058300D01*
X112267661Y-89059672D01*
X112267656Y-89059672D01*
X112180713Y-89078153D01*
X112087312Y-89098006D01*
X112081282Y-89100691D01*
X112081281Y-89100691D01*
X111918878Y-89172997D01*
X111918876Y-89172998D01*
X111912848Y-89175682D01*
X111758347Y-89287934D01*
X111753926Y-89292844D01*
X111753925Y-89292845D01*
X111738968Y-89309457D01*
X111630560Y-89429856D01*
X111535073Y-89595244D01*
X111533031Y-89601529D01*
X111506338Y-89683682D01*
X111476058Y-89776872D01*
X111475368Y-89783437D01*
X111473294Y-89803170D01*
X111446281Y-89868827D01*
X111388060Y-89909457D01*
X111347984Y-89916000D01*
X108776259Y-89916000D01*
X108708138Y-89895998D01*
X108682623Y-89874310D01*
X108616475Y-89800845D01*
X108616474Y-89800844D01*
X108612053Y-89795934D01*
X108457552Y-89683682D01*
X108451524Y-89680998D01*
X108451522Y-89680997D01*
X108289119Y-89608691D01*
X108289118Y-89608691D01*
X108283088Y-89606006D01*
X108189687Y-89586153D01*
X108102744Y-89567672D01*
X108102739Y-89567672D01*
X108096287Y-89566300D01*
X107905313Y-89566300D01*
X107898861Y-89567672D01*
X107898856Y-89567672D01*
X107811913Y-89586153D01*
X107718512Y-89606006D01*
X107712482Y-89608691D01*
X107712481Y-89608691D01*
X107550078Y-89680997D01*
X107550076Y-89680998D01*
X107544048Y-89683682D01*
X107389547Y-89795934D01*
X107385126Y-89800844D01*
X107385125Y-89800845D01*
X107318977Y-89874310D01*
X107258531Y-89911550D01*
X107225341Y-89916000D01*
X105163079Y-89916000D01*
X105148971Y-89915208D01*
X105000543Y-89898484D01*
X104973037Y-89892206D01*
X104838784Y-89845228D01*
X104813365Y-89832987D01*
X104692918Y-89757306D01*
X104670858Y-89739713D01*
X104570287Y-89639142D01*
X104552694Y-89617082D01*
X104477013Y-89496635D01*
X104464772Y-89471216D01*
X104417795Y-89336965D01*
X104411516Y-89309457D01*
X104394792Y-89161029D01*
X104394000Y-89146921D01*
X104394000Y-87878269D01*
X107186001Y-87878269D01*
X107186371Y-87885090D01*
X107191895Y-87935952D01*
X107195521Y-87951204D01*
X107240676Y-88071654D01*
X107249214Y-88087249D01*
X107325715Y-88189324D01*
X107338276Y-88201885D01*
X107440351Y-88278386D01*
X107455946Y-88286924D01*
X107576394Y-88332078D01*
X107591649Y-88335705D01*
X107642514Y-88341231D01*
X107649328Y-88341600D01*
X110471885Y-88341600D01*
X110487124Y-88337125D01*
X110488329Y-88335735D01*
X110490000Y-88328052D01*
X110490000Y-88323484D01*
X110998000Y-88323484D01*
X111002475Y-88338723D01*
X111003865Y-88339928D01*
X111011548Y-88341599D01*
X113838669Y-88341599D01*
X113845490Y-88341229D01*
X113896352Y-88335705D01*
X113911604Y-88332079D01*
X114032054Y-88286924D01*
X114047649Y-88278386D01*
X114149724Y-88201885D01*
X114162285Y-88189324D01*
X114238786Y-88087249D01*
X114247324Y-88071654D01*
X114292478Y-87951206D01*
X114296105Y-87935951D01*
X114301631Y-87885086D01*
X114302000Y-87878272D01*
X114302000Y-84955715D01*
X114297525Y-84940476D01*
X114296135Y-84939271D01*
X114288452Y-84937600D01*
X111016115Y-84937600D01*
X111000876Y-84942075D01*
X110999671Y-84943465D01*
X110998000Y-84951148D01*
X110998000Y-88323484D01*
X110490000Y-88323484D01*
X110490000Y-84955715D01*
X110485525Y-84940476D01*
X110484135Y-84939271D01*
X110476452Y-84937600D01*
X107204116Y-84937600D01*
X107188877Y-84942075D01*
X107187672Y-84943465D01*
X107186001Y-84951148D01*
X107186001Y-87878269D01*
X104394000Y-87878269D01*
X104394000Y-84411485D01*
X107186000Y-84411485D01*
X107190475Y-84426724D01*
X107191865Y-84427929D01*
X107199548Y-84429600D01*
X110471885Y-84429600D01*
X110487124Y-84425125D01*
X110488329Y-84423735D01*
X110490000Y-84416052D01*
X110490000Y-84411485D01*
X110998000Y-84411485D01*
X111002475Y-84426724D01*
X111003865Y-84427929D01*
X111011548Y-84429600D01*
X114283884Y-84429600D01*
X114299123Y-84425125D01*
X114300328Y-84423735D01*
X114301999Y-84416052D01*
X114301999Y-81488931D01*
X114301629Y-81482110D01*
X114296105Y-81431248D01*
X114292479Y-81415996D01*
X114247324Y-81295546D01*
X114238786Y-81279951D01*
X114162285Y-81177876D01*
X114149724Y-81165315D01*
X114047649Y-81088814D01*
X114032054Y-81080276D01*
X113911606Y-81035122D01*
X113896351Y-81031495D01*
X113845486Y-81025969D01*
X113838672Y-81025600D01*
X111016115Y-81025600D01*
X111000876Y-81030075D01*
X110999671Y-81031465D01*
X110998000Y-81039148D01*
X110998000Y-84411485D01*
X110490000Y-84411485D01*
X110490000Y-81043716D01*
X110485525Y-81028477D01*
X110484135Y-81027272D01*
X110476452Y-81025601D01*
X107649331Y-81025601D01*
X107642510Y-81025971D01*
X107591648Y-81031495D01*
X107576396Y-81035121D01*
X107455946Y-81080276D01*
X107440351Y-81088814D01*
X107338276Y-81165315D01*
X107325715Y-81177876D01*
X107249214Y-81279951D01*
X107240676Y-81295546D01*
X107195522Y-81415994D01*
X107191895Y-81431249D01*
X107186369Y-81482114D01*
X107186000Y-81488928D01*
X107186000Y-84411485D01*
X104394000Y-84411485D01*
X104394000Y-80779079D01*
X104394792Y-80764971D01*
X104411516Y-80616543D01*
X104417795Y-80589035D01*
X104464772Y-80454784D01*
X104477013Y-80429365D01*
X104552694Y-80308918D01*
X104570287Y-80286858D01*
X104670858Y-80186287D01*
X104692918Y-80168694D01*
X104813365Y-80093013D01*
X104838784Y-80080772D01*
X104973037Y-80033794D01*
X105000543Y-80027516D01*
X105148971Y-80010792D01*
X105163079Y-80010000D01*
X114546921Y-80010000D01*
X114561029Y-80010792D01*
G37*
%TD.AperFunction*%
%TD*%
%TA.AperFunction,Conductor*%
%TO.N,+5V*%
G36*
X150629029Y-100991192D02*
G01*
X150777457Y-101007916D01*
X150804963Y-101014194D01*
X150939216Y-101061172D01*
X150964635Y-101073413D01*
X151085082Y-101149094D01*
X151107142Y-101166687D01*
X151207713Y-101267258D01*
X151225306Y-101289318D01*
X151300987Y-101409765D01*
X151313228Y-101435184D01*
X151360205Y-101569435D01*
X151366484Y-101596943D01*
X151383208Y-101745371D01*
X151384000Y-101759479D01*
X151384000Y-104166041D01*
X151363998Y-104234162D01*
X151349095Y-104253091D01*
X151321133Y-104282351D01*
X151192931Y-104470289D01*
X151190758Y-104474971D01*
X151190756Y-104474974D01*
X151179147Y-104499985D01*
X151097145Y-104676643D01*
X151036348Y-104895869D01*
X151012172Y-105122082D01*
X151012469Y-105127234D01*
X151012469Y-105127238D01*
X151018038Y-105223815D01*
X151025268Y-105349206D01*
X151026407Y-105354259D01*
X151026407Y-105354261D01*
X151073989Y-105565401D01*
X151069453Y-105636252D01*
X151027331Y-105693403D01*
X151018107Y-105699789D01*
X150964635Y-105733387D01*
X150939216Y-105745628D01*
X150804963Y-105792606D01*
X150777457Y-105798884D01*
X150629029Y-105815608D01*
X150614921Y-105816400D01*
X148698679Y-105816400D01*
X148684571Y-105815608D01*
X148536143Y-105798884D01*
X148508637Y-105792606D01*
X148374384Y-105745628D01*
X148348965Y-105733387D01*
X148228518Y-105657706D01*
X148206458Y-105640113D01*
X148192405Y-105626060D01*
X148158379Y-105563748D01*
X148155500Y-105536965D01*
X148155500Y-103701099D01*
X148155792Y-103692529D01*
X148159154Y-103643223D01*
X148159154Y-103643219D01*
X148159670Y-103635648D01*
X148158365Y-103628172D01*
X148158365Y-103628168D01*
X148148837Y-103573576D01*
X148147874Y-103567051D01*
X148141222Y-103512082D01*
X148141221Y-103512080D01*
X148140309Y-103504540D01*
X148137625Y-103497438D01*
X148136781Y-103494000D01*
X148132917Y-103479877D01*
X148131887Y-103476466D01*
X148130581Y-103468983D01*
X148105261Y-103411302D01*
X148102770Y-103405196D01*
X148083191Y-103353383D01*
X148083190Y-103353382D01*
X148080506Y-103346278D01*
X148076207Y-103340023D01*
X148074565Y-103336882D01*
X148067467Y-103324128D01*
X148065630Y-103321022D01*
X148062577Y-103314067D01*
X148057952Y-103308040D01*
X148057950Y-103308036D01*
X148024235Y-103264098D01*
X148020371Y-103258780D01*
X147984679Y-103206848D01*
X147971780Y-103195355D01*
X147934225Y-103135105D01*
X147929600Y-103101280D01*
X147929600Y-101759479D01*
X147930392Y-101745371D01*
X147947116Y-101596943D01*
X147953395Y-101569435D01*
X148000372Y-101435184D01*
X148012613Y-101409765D01*
X148088294Y-101289318D01*
X148105887Y-101267258D01*
X148206458Y-101166687D01*
X148228518Y-101149094D01*
X148348965Y-101073413D01*
X148374384Y-101061172D01*
X148508637Y-101014194D01*
X148536143Y-101007916D01*
X148684571Y-100991192D01*
X148698679Y-100990400D01*
X150614921Y-100990400D01*
X150629029Y-100991192D01*
G37*
%TD.AperFunction*%
%TD*%
M02*
