%TF.GenerationSoftware,KiCad,Pcbnew,(6.0.10)*%
%TF.CreationDate,2023-01-12T16:12:03-05:00*%
%TF.ProjectId,power_mini_evolver,706f7765-725f-46d6-996e-695f65766f6c,rev?*%
%TF.SameCoordinates,Original*%
%TF.FileFunction,Copper,L4,Bot*%
%TF.FilePolarity,Positive*%
%FSLAX46Y46*%
G04 Gerber Fmt 4.6, Leading zero omitted, Abs format (unit mm)*
G04 Created by KiCad (PCBNEW (6.0.10)) date 2023-01-12 16:12:03*
%MOMM*%
%LPD*%
G01*
G04 APERTURE LIST*
%TA.AperFunction,ComponentPad*%
%ADD10C,4.500000*%
%TD*%
%TA.AperFunction,ComponentPad*%
%ADD11C,1.000000*%
%TD*%
%TA.AperFunction,ComponentPad*%
%ADD12C,1.800000*%
%TD*%
%TA.AperFunction,ComponentPad*%
%ADD13C,5.600000*%
%TD*%
%TA.AperFunction,ComponentPad*%
%ADD14C,1.750000*%
%TD*%
%TA.AperFunction,ComponentPad*%
%ADD15C,1.397000*%
%TD*%
%TA.AperFunction,ComponentPad*%
%ADD16C,1.524000*%
%TD*%
%TA.AperFunction,ViaPad*%
%ADD17C,1.143000*%
%TD*%
%TA.AperFunction,ViaPad*%
%ADD18C,0.889000*%
%TD*%
%TA.AperFunction,ViaPad*%
%ADD19C,0.800000*%
%TD*%
%TA.AperFunction,Conductor*%
%ADD20C,0.250000*%
%TD*%
%TA.AperFunction,Conductor*%
%ADD21C,0.508000*%
%TD*%
%TA.AperFunction,Conductor*%
%ADD22C,0.381000*%
%TD*%
G04 APERTURE END LIST*
D10*
%TO.P,CON1,1*%
%TO.N,+12V*%
X100584000Y-88852000D03*
%TO.P,CON1,2*%
%TO.N,GND*%
X100584000Y-82852000D03*
%TO.P,CON1,3*%
X95884000Y-85852000D03*
%TD*%
D11*
%TO.P,C15,1*%
%TO.N,Net-(C15-Pad1)*%
X204292200Y-103459600D03*
%TO.P,C15,2*%
%TO.N,GND*%
X204292200Y-100959600D03*
%TD*%
D12*
%TO.P,JP1,1,A*%
%TO.N,/OD90-0*%
X181356000Y-81280000D03*
%TO.P,JP1,2,C*%
%TO.N,/OD-0*%
X178816000Y-81280000D03*
%TO.P,JP1,3,B*%
%TO.N,/OD135-0*%
X176276000Y-81280000D03*
%TD*%
D13*
%TO.P,H1,1,1*%
%TO.N,unconnected-(H1-Pad1)*%
X88900000Y-108585000D03*
%TD*%
%TO.P,H2,1,1*%
%TO.N,unconnected-(H2-Pad1)*%
X88900000Y-82550000D03*
%TD*%
%TO.P,H4,1,1*%
%TO.N,unconnected-(H4-Pad1)*%
X206375000Y-108585000D03*
%TD*%
D14*
%TO.P,P6,1,P1*%
%TO.N,/SPB+1*%
X152400000Y-105156000D03*
%TO.P,P6,2,P2*%
%TO.N,/SPB-1*%
X152400000Y-107696000D03*
%TD*%
D13*
%TO.P,H3,1,1*%
%TO.N,unconnected-(H3-Pad1)*%
X206375000Y-82550000D03*
%TD*%
D15*
%TO.P,P1,1,P1*%
%TO.N,unconnected-(P1-Pad1)*%
X200152000Y-110998000D03*
%TO.P,P1,2,P2*%
%TO.N,+5V*%
X184912000Y-110998000D03*
%TO.P,P1,3,P3*%
%TO.N,unconnected-(P1-Pad3)*%
X200152000Y-108458000D03*
%TO.P,P1,4,P4*%
%TO.N,GND*%
X184912000Y-108458000D03*
%TO.P,P1,5,P5*%
%TO.N,Net-(C15-Pad1)*%
X200152000Y-105918000D03*
%TO.P,P1,6,P6*%
%TO.N,unconnected-(P1-Pad6)*%
X184912000Y-105918000D03*
%TO.P,P1,7,P7*%
%TO.N,GND*%
X200152000Y-103378000D03*
%TO.P,P1,8,P8*%
%TO.N,unconnected-(P1-Pad8)*%
X184912000Y-103378000D03*
%TO.P,P1,9,P9*%
%TO.N,/2*%
X200152000Y-100838000D03*
%TO.P,P1,10,P10*%
%TO.N,/A3*%
X184912000Y-100838000D03*
%TO.P,P1,11,P11*%
%TO.N,/3*%
X200152000Y-98298000D03*
%TO.P,P1,12,P12*%
%TO.N,/A2*%
X184912000Y-98298000D03*
%TO.P,P1,13,P13*%
%TO.N,/4*%
X200152000Y-95758000D03*
%TO.P,P1,14,P14*%
%TO.N,/A1*%
X184912000Y-95758000D03*
%TO.P,P1,15,P15*%
%TO.N,/5*%
X200152000Y-93218000D03*
%TO.P,P1,16,P16*%
%TO.N,/A0*%
X184912000Y-93218000D03*
%TO.P,P1,17,P17*%
%TO.N,/6*%
X200152000Y-90678000D03*
%TO.P,P1,18,P18*%
%TO.N,/13*%
X184912000Y-90678000D03*
%TO.P,P1,19,P19*%
%TO.N,/7*%
X200152000Y-88138000D03*
%TO.P,P1,20,P20*%
%TO.N,/12*%
X184912000Y-88138000D03*
%TO.P,P1,21,P21*%
%TO.N,/8*%
X200152000Y-85598000D03*
%TO.P,P1,22,P22*%
%TO.N,/11*%
X184912000Y-85598000D03*
%TO.P,P1,23,P23*%
%TO.N,/9*%
X200152000Y-83058000D03*
%TO.P,P1,24,P24*%
%TO.N,/10*%
X184912000Y-83058000D03*
%TD*%
D14*
%TO.P,P5,1,P1*%
%TO.N,/SPB+0*%
X125476000Y-103886000D03*
%TO.P,P5,2,P2*%
%TO.N,/SPB-0*%
X125476000Y-106426000D03*
%TD*%
D12*
%TO.P,JP2,1,A*%
%TO.N,/OD90-1*%
X172466000Y-81280000D03*
%TO.P,JP2,2,C*%
%TO.N,/OD-1*%
X169926000Y-81280000D03*
%TO.P,JP2,3,B*%
%TO.N,/OD135-1*%
X167386000Y-81280000D03*
%TD*%
D14*
%TO.P,P7,1,P1*%
%TO.N,+12V*%
X87579200Y-89611200D03*
%TO.P,P7,2,P2*%
%TO.N,GND*%
X87579200Y-92151200D03*
%TD*%
D16*
%TO.P,P2,1,P1*%
%TO.N,/FAN-0*%
X146304000Y-107950000D03*
%TO.P,P2,2,P2*%
%TO.N,+12V*%
X146304000Y-105410000D03*
%TO.P,P2,3,P3*%
%TO.N,unconnected-(P2-Pad3)*%
X143764000Y-107950000D03*
%TO.P,P2,4,P4*%
%TO.N,unconnected-(P2-Pad4)*%
X143764000Y-105410000D03*
%TO.P,P2,5,P5*%
%TO.N,/HTR-0*%
X141224000Y-107950000D03*
%TO.P,P2,6,P6*%
%TO.N,+12V*%
X141224000Y-105410000D03*
%TO.P,P2,7,P7*%
%TO.N,/TS-0*%
X138684000Y-107950000D03*
%TO.P,P2,8,P8*%
%TO.N,GND*%
X138684000Y-105410000D03*
%TO.P,P2,9,P9*%
%TO.N,/LED-0*%
X136144000Y-107950000D03*
%TO.P,P2,10,P10*%
%TO.N,+5V*%
X136144000Y-105410000D03*
%TO.P,P2,11,P11*%
%TO.N,/OD90-0*%
X133604000Y-107950000D03*
%TO.P,P2,12,P12*%
%TO.N,GND*%
X133604000Y-105410000D03*
%TO.P,P2,13,P13*%
%TO.N,/SPB-0*%
X131064000Y-107950000D03*
%TO.P,P2,14,P14*%
%TO.N,/SPB+0*%
X131064000Y-105410000D03*
%TO.P,P2,15,P15*%
%TO.N,/OD135-0*%
X128524000Y-107950000D03*
%TO.P,P2,16,P16*%
%TO.N,GND*%
X128524000Y-105410000D03*
%TD*%
%TO.P,P3,1,P1*%
%TO.N,/FAN-1*%
X175895000Y-107950000D03*
%TO.P,P3,2,P2*%
%TO.N,+12V*%
X175895000Y-105410000D03*
%TO.P,P3,3,P3*%
%TO.N,unconnected-(P3-Pad3)*%
X173355000Y-107950000D03*
%TO.P,P3,4,P4*%
%TO.N,unconnected-(P3-Pad4)*%
X173355000Y-105410000D03*
%TO.P,P3,5,P5*%
%TO.N,/HTR-1*%
X170815000Y-107950000D03*
%TO.P,P3,6,P6*%
%TO.N,+12V*%
X170815000Y-105410000D03*
%TO.P,P3,7,P7*%
%TO.N,/TS-1*%
X168275000Y-107950000D03*
%TO.P,P3,8,P8*%
%TO.N,GND*%
X168275000Y-105410000D03*
%TO.P,P3,9,P9*%
%TO.N,/LED-1*%
X165735000Y-107950000D03*
%TO.P,P3,10,P10*%
%TO.N,+5V*%
X165735000Y-105410000D03*
%TO.P,P3,11,P11*%
%TO.N,/OD90-1*%
X163195000Y-107950000D03*
%TO.P,P3,12,P12*%
%TO.N,GND*%
X163195000Y-105410000D03*
%TO.P,P3,13,P13*%
%TO.N,/SPB-1*%
X160655000Y-107950000D03*
%TO.P,P3,14,P14*%
%TO.N,/SPB+1*%
X160655000Y-105410000D03*
%TO.P,P3,15,P15*%
%TO.N,/OD135-1*%
X158115000Y-107950000D03*
%TO.P,P3,16,P16*%
%TO.N,GND*%
X158115000Y-105410000D03*
%TD*%
%TO.P,P4,1,P1*%
%TO.N,unconnected-(P4-Pad1)*%
X116840000Y-107950000D03*
%TO.P,P4,2,P2*%
%TO.N,unconnected-(P4-Pad2)*%
X116840000Y-105410000D03*
%TO.P,P4,3,P3*%
%TO.N,unconnected-(P4-Pad3)*%
X114300000Y-107950000D03*
%TO.P,P4,4,P4*%
%TO.N,unconnected-(P4-Pad4)*%
X114300000Y-105410000D03*
%TO.P,P4,5,P5*%
%TO.N,/P-5*%
X111760000Y-107950000D03*
%TO.P,P4,6,P6*%
%TO.N,+12V*%
X111760000Y-105410000D03*
%TO.P,P4,7,P7*%
%TO.N,/P-4*%
X109220000Y-107950000D03*
%TO.P,P4,8,P8*%
%TO.N,+12V*%
X109220000Y-105410000D03*
%TO.P,P4,9,P9*%
%TO.N,/P-3*%
X106680000Y-107950000D03*
%TO.P,P4,10,P10*%
%TO.N,+12V*%
X106680000Y-105410000D03*
%TO.P,P4,11,P11*%
%TO.N,/P-2*%
X104140000Y-107950000D03*
%TO.P,P4,12,P12*%
%TO.N,+12V*%
X104140000Y-105410000D03*
%TO.P,P4,13,P13*%
%TO.N,/P-1*%
X101600000Y-107950000D03*
%TO.P,P4,14,P14*%
%TO.N,+12V*%
X101600000Y-105410000D03*
%TO.P,P4,15,P15*%
%TO.N,/P-0*%
X99060000Y-107950000D03*
%TO.P,P4,16,P16*%
%TO.N,+12V*%
X99060000Y-105410000D03*
%TD*%
D17*
%TO.N,GND*%
X123698000Y-81280000D03*
D18*
X100838000Y-95504000D03*
D19*
X133502400Y-93472000D03*
D17*
X123698000Y-88392000D03*
D18*
X92202000Y-95504000D03*
X170180000Y-83820000D03*
X89408000Y-100939600D03*
D19*
X166243000Y-94996000D03*
X182372000Y-88519000D03*
D18*
X96520000Y-95504000D03*
D19*
X174498000Y-81788000D03*
D18*
X109474000Y-95504000D03*
X119888000Y-84836000D03*
X119227600Y-100634800D03*
D19*
X183134000Y-82296000D03*
D17*
X105664000Y-84836000D03*
D19*
X173736000Y-88696800D03*
D17*
X126746000Y-84836000D03*
D19*
X181102000Y-95250000D03*
X159461200Y-99009200D03*
X143459200Y-93472000D03*
X138582400Y-93472000D03*
X177190400Y-99110800D03*
D18*
X113792000Y-95504000D03*
D17*
X105664000Y-88900000D03*
X105664000Y-81026000D03*
D18*
X105156000Y-95504000D03*
D17*
X126746000Y-81280000D03*
D19*
X166624000Y-90633330D03*
D17*
X126746000Y-88392000D03*
D18*
X132842000Y-84836000D03*
X174447200Y-98976999D03*
D19*
X163982400Y-99009200D03*
%TO.N,+3V3*%
X172339000Y-96266000D03*
X178102717Y-83827692D03*
X182372000Y-86614000D03*
X178943000Y-96057001D03*
X164846000Y-86130899D03*
X129964200Y-80721200D03*
X174066200Y-91389200D03*
X169926000Y-98932499D03*
%TO.N,+12V*%
X110998000Y-98552000D03*
X139903200Y-102082600D03*
X115316000Y-98679000D03*
X145034000Y-101752400D03*
X169672000Y-101904800D03*
X106680000Y-98552000D03*
D18*
X89458800Y-96062800D03*
D19*
X93726000Y-98552000D03*
D17*
X118364000Y-88562800D03*
D19*
X102362000Y-98552000D03*
X98044000Y-98552000D03*
X173990000Y-101904800D03*
D18*
X119227600Y-95707200D03*
D19*
%TO.N,/A3*%
X165455600Y-100113000D03*
D17*
%TO.N,+5V*%
X117856000Y-80518000D03*
D18*
X134874000Y-98882200D03*
D17*
X149606000Y-101803200D03*
X149606000Y-104902000D03*
X130048000Y-88562800D03*
D19*
X156464000Y-98933000D03*
D17*
X149606000Y-103327200D03*
D19*
X155448000Y-105156000D03*
%TO.N,/HTR-1*%
X166126225Y-104105917D03*
D18*
%TO.N,/OD135-0*%
X134112000Y-80264000D03*
D19*
%TO.N,/OD90-0*%
X135077200Y-83845400D03*
%TO.N,/OD90-1*%
X163195000Y-82626200D03*
%TO.N,/OD135-1*%
X158750000Y-81280000D03*
%TO.N,/10*%
X187350400Y-89408000D03*
X112369600Y-89966800D03*
%TO.N,/11*%
X146202400Y-85445600D03*
%TO.N,/12*%
X116687600Y-89458800D03*
%TO.N,/2*%
X142417800Y-100838000D03*
%TO.N,/3*%
X167169000Y-98932999D03*
%TO.N,/4*%
X136943500Y-99148041D03*
%TO.N,/5*%
X162153600Y-97358200D03*
%TO.N,/6*%
X95046800Y-92608400D03*
%TO.N,/7*%
X99415600Y-92049600D03*
%TO.N,/8*%
X103835200Y-90982800D03*
%TO.N,/9*%
X148082000Y-84681899D03*
X108000800Y-90474800D03*
X148082000Y-90633330D03*
%TO.N,/TS-0*%
X168656000Y-96393000D03*
X138173519Y-96060726D03*
%TO.N,/TS-1*%
X176403000Y-94488000D03*
X167894000Y-95300800D03*
%TD*%
D20*
%TO.N,/A3*%
X167712591Y-100113000D02*
X167987581Y-100387990D01*
X184912000Y-100838000D02*
X184461990Y-100387990D01*
X165455600Y-100113000D02*
X167712591Y-100113000D01*
X184461990Y-100387990D02*
X167987581Y-100387990D01*
D21*
%TO.N,+5V*%
X155448000Y-105156000D02*
X157026000Y-106734000D01*
X164411000Y-106734000D02*
X165735000Y-105410000D01*
X157026000Y-106734000D02*
X164411000Y-106734000D01*
D22*
%TO.N,/HTR-1*%
X169427500Y-106562500D02*
X169427500Y-104932618D01*
X166254703Y-104234395D02*
X166126225Y-104105917D01*
X166254703Y-104234395D02*
X168729277Y-104234395D01*
X170815000Y-107950000D02*
X169427500Y-106562500D01*
X169427500Y-104932618D02*
X168729277Y-104234395D01*
D20*
%TO.N,/OD135-0*%
X134112000Y-80264000D02*
X134620000Y-79756000D01*
X134620000Y-79756000D02*
X174752000Y-79756000D01*
X174752000Y-79756000D02*
X176276000Y-81280000D01*
%TO.N,/OD90-0*%
X169628792Y-82955010D02*
X168738402Y-83845400D01*
X181356000Y-81280000D02*
X179680990Y-82955010D01*
X168738402Y-83845400D02*
X135077200Y-83845400D01*
X179680990Y-82955010D02*
X169628792Y-82955010D01*
%TO.N,/OD90-1*%
X171240990Y-82505010D02*
X163316190Y-82505010D01*
X172466000Y-81280000D02*
X171240990Y-82505010D01*
X163316190Y-82505010D02*
X163195000Y-82626200D01*
%TO.N,/OD135-1*%
X158750000Y-81280000D02*
X167386000Y-81280000D01*
%TO.N,/10*%
X146373799Y-90366799D02*
X146831768Y-89908830D01*
X112369600Y-89966800D02*
X112769599Y-90366799D01*
X184667218Y-89408000D02*
X187350400Y-89408000D01*
X184166388Y-89908830D02*
X184667218Y-89408000D01*
X146831768Y-89908830D02*
X184166388Y-89908830D01*
X112769599Y-90366799D02*
X146373799Y-90366799D01*
%TO.N,/11*%
X146241601Y-85406399D02*
X146202400Y-85445600D01*
X184745799Y-85431799D02*
X174109401Y-85431799D01*
X174109401Y-85431799D02*
X174084001Y-85406399D01*
X174084001Y-85406399D02*
X146241601Y-85406399D01*
%TO.N,/12*%
X183591200Y-89458800D02*
X184912000Y-88138000D01*
X116687600Y-89458800D02*
X183591200Y-89458800D01*
%TO.N,/2*%
X142417800Y-100838000D02*
X183397218Y-100838000D01*
X183397218Y-100838000D02*
X184420719Y-101861501D01*
X184420719Y-101861501D02*
X199128499Y-101861501D01*
X199128499Y-101861501D02*
X200152000Y-100838000D01*
%TO.N,/3*%
X168071802Y-99835801D02*
X184212399Y-99835801D01*
X167169000Y-98932999D02*
X168071802Y-99835801D01*
X184212399Y-99835801D02*
X184233701Y-99814499D01*
X198635501Y-99814499D02*
X200152000Y-98298000D01*
X184233701Y-99814499D02*
X198635501Y-99814499D01*
%TO.N,/4*%
X137883542Y-98207999D02*
X136943500Y-99148041D01*
X196588499Y-99321501D02*
X184420719Y-99321501D01*
X184420719Y-99321501D02*
X183307217Y-98207999D01*
X200152000Y-95758000D02*
X196588499Y-99321501D01*
X183307217Y-98207999D02*
X137883542Y-98207999D01*
%TO.N,/5*%
X196588499Y-96781501D02*
X200152000Y-93218000D01*
X176965844Y-96781501D02*
X196588499Y-96781501D01*
X162153600Y-97358200D02*
X176389145Y-97358200D01*
X176389145Y-97358200D02*
X176965844Y-96781501D01*
%TO.N,/6*%
X117107009Y-92774601D02*
X117134611Y-92746999D01*
X196588499Y-94241501D02*
X200152000Y-90678000D01*
X117134611Y-92746999D02*
X182926217Y-92746999D01*
X184420719Y-94241501D02*
X196588499Y-94241501D01*
X95213001Y-92774601D02*
X117107009Y-92774601D01*
X95046800Y-92608400D02*
X95213001Y-92774601D01*
X182926217Y-92746999D02*
X184420719Y-94241501D01*
%TO.N,/7*%
X173493697Y-92194499D02*
X196095501Y-92194499D01*
X196095501Y-92194499D02*
X200152000Y-88138000D01*
X173348798Y-92049600D02*
X173493697Y-92194499D01*
X99415600Y-92049600D02*
X173348798Y-92049600D01*
%TO.N,/8*%
X104235199Y-91382799D02*
X172643999Y-91382799D01*
X172643999Y-91382799D02*
X173399598Y-90627200D01*
X194048499Y-91701501D02*
X200152000Y-85598000D01*
X184420719Y-91701501D02*
X194048499Y-91701501D01*
X103835200Y-90982800D02*
X104235199Y-91382799D01*
X183346418Y-90627200D02*
X184420719Y-91701501D01*
X173399598Y-90627200D02*
X183346418Y-90627200D01*
%TO.N,/9*%
X147840531Y-90874799D02*
X148082000Y-90633330D01*
X108400799Y-90874799D02*
X147840531Y-90874799D01*
X184913717Y-84081501D02*
X184405718Y-84589500D01*
X184913717Y-84081501D02*
X199128499Y-84081501D01*
X108000800Y-90474800D02*
X108400799Y-90874799D01*
X148174399Y-84589500D02*
X148082000Y-84681899D01*
X184405718Y-84589500D02*
X148174399Y-84589500D01*
X199128499Y-84081501D02*
X200152000Y-83058000D01*
D22*
%TO.N,/SPB+0*%
X129540000Y-103886000D02*
X131064000Y-105410000D01*
X125476000Y-103886000D02*
X129540000Y-103886000D01*
%TO.N,/SPB-0*%
X129911500Y-106797500D02*
X131064000Y-107950000D01*
X125847500Y-106797500D02*
X129911500Y-106797500D01*
D20*
%TO.N,/TS-0*%
X168300400Y-96037400D02*
X138196845Y-96037400D01*
X168656000Y-96393000D02*
X168300400Y-96037400D01*
X138196845Y-96037400D02*
X138173519Y-96060726D01*
%TO.N,/TS-1*%
X175590200Y-95300800D02*
X176403000Y-94488000D01*
X167894000Y-95300800D02*
X175590200Y-95300800D01*
D21*
%TO.N,/SPB-1*%
X154708201Y-109166001D02*
X152831800Y-107289600D01*
X154708201Y-109166001D02*
X159438999Y-109166001D01*
X159438999Y-109166001D02*
X160655000Y-107950000D01*
%TO.N,/SPB+1*%
X153387401Y-104193999D02*
X152831800Y-104749600D01*
X159438999Y-104193999D02*
X160655000Y-105410000D01*
X159438999Y-104193999D02*
X153387401Y-104193999D01*
%TD*%
M02*
