G04 #@! TF.FileFunction,Copper,L2,Bot,Signal*
%FSLAX46Y46*%
G04 Gerber Fmt 4.6, Leading zero omitted, Abs format (unit mm)*
G04 Created by KiCad (PCBNEW 4.0.7) date Wednesday, April 29, 2020 'PMt' 03:16:32 PM*
%MOMM*%
%LPD*%
G01*
G04 APERTURE LIST*
%ADD10C,0.100000*%
%ADD11O,2.540000X4.572000*%
%ADD12C,13.000000*%
%ADD13C,2.540000*%
%ADD14O,4.572000X2.540000*%
%ADD15R,1.700000X1.700000*%
%ADD16C,1.700000*%
%ADD17C,0.600000*%
%ADD18C,0.508000*%
G04 APERTURE END LIST*
D10*
D11*
X52533098Y-156795619D03*
X76409098Y-156795618D03*
D12*
X64534039Y-156747322D03*
D13*
X54627836Y-163617906D02*
X53611836Y-161858142D01*
X75305058Y-151679906D02*
X74289058Y-149920142D01*
D14*
X64407813Y-168687178D03*
X64407812Y-144811179D03*
D13*
X59348052Y-167598131D02*
X57588288Y-166582131D01*
X71286051Y-146920909D02*
X69526287Y-145904909D01*
X75211122Y-161864891D02*
X74195122Y-163624655D01*
X54533900Y-149926892D02*
X53517900Y-151686656D01*
X71230100Y-166582131D02*
X69470336Y-167598131D01*
X59292099Y-145904909D02*
X57532335Y-146920909D01*
D11*
X52025098Y-109297619D03*
X75901098Y-109297618D03*
D12*
X64026039Y-109249322D03*
D13*
X54119836Y-116119906D02*
X53103836Y-114360142D01*
X74797058Y-104181906D02*
X73781058Y-102422142D01*
D14*
X63899813Y-121189178D03*
X63899812Y-97313179D03*
D13*
X58840052Y-120100131D02*
X57080288Y-119084131D01*
X70778051Y-99422909D02*
X69018287Y-98406909D01*
X74703122Y-114366891D02*
X73687122Y-116126655D01*
X54025900Y-102428892D02*
X53009900Y-104188656D01*
X70722100Y-119084131D02*
X68962336Y-120100131D01*
X58784099Y-98406909D02*
X57024335Y-99422909D01*
D11*
X94697098Y-132665619D03*
X118573098Y-132665618D03*
D12*
X106698039Y-132617322D03*
D13*
X96791836Y-139487906D02*
X95775836Y-137728142D01*
X117469058Y-127549906D02*
X116453058Y-125790142D01*
D14*
X106571813Y-144557178D03*
X106571812Y-120681179D03*
D13*
X101512052Y-143468131D02*
X99752288Y-142452131D01*
X113450051Y-122790909D02*
X111690287Y-121774909D01*
X117375122Y-137734891D02*
X116359122Y-139494655D01*
X96697900Y-125796892D02*
X95681900Y-127556656D01*
X113394100Y-142452131D02*
X111634336Y-143468131D01*
X101456099Y-121774909D02*
X99696335Y-122790909D01*
D11*
X94189098Y-85421619D03*
X118065098Y-85421618D03*
D12*
X106190039Y-85373322D03*
D13*
X96283836Y-92243906D02*
X95267836Y-90484142D01*
X116961058Y-80305906D02*
X115945058Y-78546142D01*
D14*
X106063813Y-97313178D03*
X106063812Y-73437179D03*
D13*
X101004052Y-96224131D02*
X99244288Y-95208131D01*
X112942051Y-75546909D02*
X111182287Y-74530909D01*
X116867122Y-90490891D02*
X115851122Y-92250655D01*
X96189900Y-78552892D02*
X95173900Y-80312656D01*
X112886100Y-95208131D02*
X111126336Y-96224131D01*
X100948099Y-74530909D02*
X99188335Y-75546909D01*
D11*
X136353098Y-157049619D03*
X160229098Y-157049618D03*
D12*
X148354039Y-157001322D03*
D13*
X138447836Y-163871906D02*
X137431836Y-162112142D01*
X159125058Y-151933906D02*
X158109058Y-150174142D01*
D14*
X148227813Y-168941178D03*
X148227812Y-145065179D03*
D13*
X143168052Y-167852131D02*
X141408288Y-166836131D01*
X155106051Y-147174909D02*
X153346287Y-146158909D01*
X159031122Y-162118891D02*
X158015122Y-163878655D01*
X138353900Y-150180892D02*
X137337900Y-151940656D01*
X155050100Y-166836131D02*
X153290336Y-167852131D01*
X143112099Y-146158909D02*
X141352335Y-147174909D01*
D11*
X136353098Y-109297619D03*
X160229098Y-109297618D03*
D12*
X148354039Y-109249322D03*
D13*
X138447836Y-116119906D02*
X137431836Y-114360142D01*
X159125058Y-104181906D02*
X158109058Y-102422142D01*
D14*
X148227813Y-121189178D03*
X148227812Y-97313179D03*
D13*
X143168052Y-120100131D02*
X141408288Y-119084131D01*
X155106051Y-99422909D02*
X153346287Y-98406909D01*
X159031122Y-114366891D02*
X158015122Y-116126655D01*
X138353900Y-102428892D02*
X137337900Y-104188656D01*
X155050100Y-119084131D02*
X153290336Y-120100131D01*
X143112099Y-98406909D02*
X141352335Y-99422909D01*
D11*
X178009098Y-133173619D03*
X201885098Y-133173618D03*
D12*
X190010039Y-133125322D03*
D13*
X180103836Y-139995906D02*
X179087836Y-138236142D01*
X200781058Y-128057906D02*
X199765058Y-126298142D01*
D14*
X189883813Y-145065178D03*
X189883812Y-121189179D03*
D13*
X184824052Y-143976131D02*
X183064288Y-142960131D01*
X196762051Y-123298909D02*
X195002287Y-122282909D01*
X200687122Y-138242891D02*
X199671122Y-140002655D01*
X180009900Y-126304892D02*
X178993900Y-128064656D01*
X196706100Y-142960131D02*
X194946336Y-143976131D01*
X184768099Y-122282909D02*
X183008335Y-123298909D01*
D11*
X178009098Y-84405619D03*
X201885098Y-84405618D03*
D12*
X190010039Y-84357322D03*
D13*
X180103836Y-91227906D02*
X179087836Y-89468142D01*
X200781058Y-79289906D02*
X199765058Y-77530142D01*
D14*
X189883813Y-96297178D03*
X189883812Y-72421179D03*
D13*
X184824052Y-95208131D02*
X183064288Y-94192131D01*
X196762051Y-74530909D02*
X195002287Y-73514909D01*
X200687122Y-89474891D02*
X199671122Y-91234655D01*
X180009900Y-77536892D02*
X178993900Y-79296656D01*
X196706100Y-94192131D02*
X194946336Y-95208131D01*
X184768099Y-73514909D02*
X183008335Y-74530909D01*
D15*
X156670000Y-73235000D03*
D16*
X156670000Y-75775000D03*
X154130000Y-73235000D03*
X154130000Y-75775000D03*
X151590000Y-73235000D03*
X151590000Y-75775000D03*
X149050000Y-73235000D03*
X149050000Y-75775000D03*
X146510000Y-73235000D03*
X146510000Y-75775000D03*
X143970000Y-73235000D03*
X143970000Y-75775000D03*
X141430000Y-73235000D03*
X141430000Y-75775000D03*
X138890000Y-73235000D03*
X138890000Y-75775000D03*
D17*
X83010000Y-162060000D03*
X83260000Y-60800000D03*
X156810000Y-60110000D03*
X121760000Y-157330000D03*
X125110000Y-93710000D03*
X156740000Y-92330000D03*
X81160000Y-115100000D03*
X81160000Y-63450000D03*
X154200000Y-61690000D03*
X131490000Y-106710000D03*
X131270000Y-91590000D03*
X153970000Y-91820000D03*
X164810000Y-132940000D03*
X165480000Y-63120000D03*
X151550000Y-63120000D03*
X115960000Y-102910000D03*
X134120000Y-98780000D03*
X134260000Y-90320000D03*
X151360000Y-90240000D03*
X123430000Y-91570000D03*
X123660000Y-63790000D03*
X149050000Y-64550000D03*
X148820000Y-83880000D03*
X126950000Y-157370000D03*
X125780000Y-65220000D03*
X146550000Y-65930000D03*
X167410000Y-156380000D03*
X166980000Y-90350000D03*
X146510000Y-88150000D03*
X129000000Y-109480000D03*
X128900000Y-66950000D03*
X144050000Y-67710000D03*
X170690000Y-132130000D03*
X167680000Y-69770000D03*
X141500000Y-69700000D03*
X172670000Y-82150000D03*
X141550000Y-81160000D03*
X131440000Y-85910000D03*
X131100000Y-73320000D03*
X138920000Y-78790000D03*
D18*
X70350218Y-167090131D02*
X74695576Y-162744773D01*
X74695576Y-162744773D02*
X74703122Y-162744773D01*
X70350218Y-167090131D02*
X66004860Y-167090131D01*
X66004860Y-167090131D02*
X64407813Y-168687178D01*
X58468170Y-167090131D02*
X62810766Y-167090131D01*
X62810766Y-167090131D02*
X64407813Y-168687178D01*
X54119836Y-162738024D02*
X58468170Y-167086358D01*
X58468170Y-167086358D02*
X58468170Y-167090131D01*
X52533098Y-156795619D02*
X52533098Y-162717755D01*
X52533098Y-162717755D02*
X52553367Y-162738024D01*
X52553367Y-162738024D02*
X54119836Y-162738024D01*
X83010000Y-162060000D02*
X75387895Y-162060000D01*
X75387895Y-162060000D02*
X74703122Y-162744773D01*
X156810000Y-60110000D02*
X83950000Y-60110000D01*
X83950000Y-60110000D02*
X83260000Y-60800000D01*
X58412217Y-146412909D02*
X54025900Y-150799226D01*
X54025900Y-150799226D02*
X54025900Y-150806774D01*
X64407812Y-144811179D02*
X58447478Y-144811179D01*
X58447478Y-144811179D02*
X58412217Y-144846440D01*
X58412217Y-144846440D02*
X58412217Y-146412909D01*
X70406169Y-146412909D02*
X66009542Y-146412909D01*
X66009542Y-146412909D02*
X64407812Y-144811179D01*
X74797058Y-150800024D02*
X70409943Y-146412909D01*
X70409943Y-146412909D02*
X70406169Y-146412909D01*
X76409098Y-156795618D02*
X76409098Y-150845595D01*
X76409098Y-150845595D02*
X76363527Y-150800024D01*
X76363527Y-150800024D02*
X74797058Y-150800024D01*
X121760000Y-157330000D02*
X121225618Y-156795618D01*
X121225618Y-156795618D02*
X76409098Y-156795618D01*
X156740000Y-92330000D02*
X155360000Y-93710000D01*
X155360000Y-93710000D02*
X125110000Y-93710000D01*
X69842218Y-119592131D02*
X74187576Y-115246773D01*
X74187576Y-115246773D02*
X74195122Y-115246773D01*
X63899813Y-121189178D02*
X69811640Y-121189178D01*
X69811640Y-121189178D02*
X69842218Y-121158600D01*
X69842218Y-121158600D02*
X69842218Y-119592131D01*
X57960170Y-119592131D02*
X62302766Y-119592131D01*
X62302766Y-119592131D02*
X63899813Y-121189178D01*
X53611836Y-115240024D02*
X57960170Y-119588358D01*
X57960170Y-119588358D02*
X57960170Y-119592131D01*
X52025098Y-109297619D02*
X52025098Y-115219755D01*
X52025098Y-115219755D02*
X52045367Y-115240024D01*
X52045367Y-115240024D02*
X53611836Y-115240024D01*
X81160000Y-115100000D02*
X74341895Y-115100000D01*
X74341895Y-115100000D02*
X74195122Y-115246773D01*
X85650000Y-61690000D02*
X83890000Y-63450000D01*
X83890000Y-63450000D02*
X81160000Y-63450000D01*
X154200000Y-61690000D02*
X85650000Y-61690000D01*
X57904217Y-98914909D02*
X53517900Y-103301226D01*
X53517900Y-103301226D02*
X53517900Y-103308774D01*
X63899812Y-97313179D02*
X57939478Y-97313179D01*
X57939478Y-97313179D02*
X57904217Y-97348440D01*
X57904217Y-97348440D02*
X57904217Y-98914909D01*
X69898169Y-98914909D02*
X65501542Y-98914909D01*
X65501542Y-98914909D02*
X63899812Y-97313179D01*
X74289058Y-103302024D02*
X69901943Y-98914909D01*
X69901943Y-98914909D02*
X69898169Y-98914909D01*
X75901098Y-109297618D02*
X75901098Y-103347595D01*
X75901098Y-103347595D02*
X75855527Y-103302024D01*
X75855527Y-103302024D02*
X74289058Y-103302024D01*
X88020000Y-106710000D02*
X85432382Y-109297618D01*
X85432382Y-109297618D02*
X75901098Y-109297618D01*
X131490000Y-106710000D02*
X88020000Y-106710000D01*
X153970000Y-91820000D02*
X131500000Y-91820000D01*
X131500000Y-91820000D02*
X131270000Y-91590000D01*
X164810000Y-132940000D02*
X159135227Y-138614773D01*
X159135227Y-138614773D02*
X116867122Y-138614773D01*
X151550000Y-63120000D02*
X165480000Y-63120000D01*
X116867122Y-138614773D02*
X112521764Y-142960131D01*
X112521764Y-142960131D02*
X112514218Y-142960131D01*
X106571813Y-144557178D02*
X112483640Y-144557178D01*
X112483640Y-144557178D02*
X112514218Y-144526600D01*
X112514218Y-144526600D02*
X112514218Y-142960131D01*
X100632170Y-142960131D02*
X104974766Y-142960131D01*
X104974766Y-142960131D02*
X106571813Y-144557178D01*
X96283836Y-138608024D02*
X100632170Y-142956358D01*
X100632170Y-142956358D02*
X100632170Y-142960131D01*
X94697098Y-132665619D02*
X94697098Y-138587755D01*
X94697098Y-138587755D02*
X94717367Y-138608024D01*
X94717367Y-138608024D02*
X96283836Y-138608024D01*
X100576217Y-122282909D02*
X96189900Y-126669226D01*
X96189900Y-126669226D02*
X96189900Y-126676774D01*
X106571812Y-120681179D02*
X100611478Y-120681179D01*
X100611478Y-120681179D02*
X100576217Y-120716440D01*
X100576217Y-120716440D02*
X100576217Y-122282909D01*
X112570169Y-122282909D02*
X108173542Y-122282909D01*
X108173542Y-122282909D02*
X106571812Y-120681179D01*
X116961058Y-126670024D02*
X112573943Y-122282909D01*
X112573943Y-122282909D02*
X112570169Y-122282909D01*
X118573098Y-132665618D02*
X118573098Y-126715595D01*
X118573098Y-126715595D02*
X118527527Y-126670024D01*
X118527527Y-126670024D02*
X116961058Y-126670024D01*
X134120000Y-98780000D02*
X129990000Y-102910000D01*
X129990000Y-102910000D02*
X115960000Y-102910000D01*
X151360000Y-90240000D02*
X134340000Y-90240000D01*
X134340000Y-90240000D02*
X134260000Y-90320000D01*
X112006218Y-95716131D02*
X116351576Y-91370773D01*
X116351576Y-91370773D02*
X116359122Y-91370773D01*
X106063813Y-97313178D02*
X111975640Y-97313178D01*
X111975640Y-97313178D02*
X112006218Y-97282600D01*
X112006218Y-97282600D02*
X112006218Y-95716131D01*
X106063813Y-97313178D02*
X100154748Y-97313178D01*
X100154748Y-97313178D02*
X100124170Y-97282600D01*
X100124170Y-97282600D02*
X100124170Y-95716131D01*
X95775836Y-91364024D02*
X100124170Y-95712358D01*
X100124170Y-95712358D02*
X100124170Y-95716131D01*
X94189098Y-85421619D02*
X94189098Y-91343755D01*
X94189098Y-91343755D02*
X94209367Y-91364024D01*
X94209367Y-91364024D02*
X95775836Y-91364024D01*
X123430000Y-91570000D02*
X116558349Y-91570000D01*
X116558349Y-91570000D02*
X116359122Y-91370773D01*
X148330000Y-62980000D02*
X124470000Y-62980000D01*
X124470000Y-62980000D02*
X123660000Y-63790000D01*
X148750001Y-63400001D02*
X148330000Y-62980000D01*
X149050000Y-64550000D02*
X148750001Y-64250001D01*
X148750001Y-64250001D02*
X148750001Y-63400001D01*
X95681900Y-79432774D02*
X100068217Y-75046457D01*
X100068217Y-75046457D02*
X100068217Y-75038909D01*
X106063812Y-73437179D02*
X100103478Y-73437179D01*
X100103478Y-73437179D02*
X100068217Y-73472440D01*
X100068217Y-73472440D02*
X100068217Y-75038909D01*
X112062169Y-75038909D02*
X107665542Y-75038909D01*
X107665542Y-75038909D02*
X106063812Y-73437179D01*
X116453058Y-79426024D02*
X116453058Y-77287070D01*
X114204897Y-75038909D02*
X114201123Y-75038909D01*
X116453058Y-77287070D02*
X114204897Y-75038909D01*
X114201123Y-75038909D02*
X112062169Y-75038909D01*
X118065098Y-85421618D02*
X118065098Y-79471595D01*
X118065098Y-79471595D02*
X118019527Y-79426024D01*
X118019527Y-79426024D02*
X116453058Y-79426024D01*
X148820000Y-83880000D02*
X119606716Y-83880000D01*
X119606716Y-83880000D02*
X118065098Y-85421618D01*
X154170218Y-167344131D02*
X158515576Y-162998773D01*
X158515576Y-162998773D02*
X158523122Y-162998773D01*
X148227813Y-168941178D02*
X154139640Y-168941178D01*
X154139640Y-168941178D02*
X154170218Y-168910600D01*
X154170218Y-168910600D02*
X154170218Y-167344131D01*
X142288170Y-167344131D02*
X146630766Y-167344131D01*
X146630766Y-167344131D02*
X148227813Y-168941178D01*
X137939836Y-162992024D02*
X142288170Y-167340358D01*
X142288170Y-167340358D02*
X142288170Y-167344131D01*
X136353098Y-157049619D02*
X136353098Y-162971755D01*
X136353098Y-162971755D02*
X136373367Y-162992024D01*
X136373367Y-162992024D02*
X137939836Y-162992024D01*
X126950000Y-157370000D02*
X136032717Y-157370000D01*
X136032717Y-157370000D02*
X136353098Y-157049619D01*
X145290000Y-64670000D02*
X126330000Y-64670000D01*
X126330000Y-64670000D02*
X125780000Y-65220000D01*
X146550000Y-65930000D02*
X145290000Y-64670000D01*
X142232217Y-146666909D02*
X137845900Y-151053226D01*
X137845900Y-151053226D02*
X137845900Y-151060774D01*
X148227812Y-145065179D02*
X142267478Y-145065179D01*
X142267478Y-145065179D02*
X142232217Y-145100440D01*
X142232217Y-145100440D02*
X142232217Y-146666909D01*
X148227812Y-145065179D02*
X154190908Y-145065179D01*
X154190908Y-145065179D02*
X154226169Y-145100440D01*
X154226169Y-145100440D02*
X154226169Y-146666909D01*
X158617058Y-151054024D02*
X158617058Y-148915070D01*
X158617058Y-148915070D02*
X156368897Y-146666909D01*
X156368897Y-146666909D02*
X156365123Y-146666909D01*
X156365123Y-146666909D02*
X154226169Y-146666909D01*
X160229098Y-157049618D02*
X160229098Y-151099595D01*
X160229098Y-151099595D02*
X160183527Y-151054024D01*
X160183527Y-151054024D02*
X158617058Y-151054024D01*
X167410000Y-156380000D02*
X160898716Y-156380000D01*
X160898716Y-156380000D02*
X160229098Y-157049618D01*
X146510000Y-88150000D02*
X164780000Y-88150000D01*
X164780000Y-88150000D02*
X166980000Y-90350000D01*
X154170218Y-119592131D02*
X158515576Y-115246773D01*
X158515576Y-115246773D02*
X158523122Y-115246773D01*
X148227813Y-121189178D02*
X154139640Y-121189178D01*
X154139640Y-121189178D02*
X154170218Y-121158600D01*
X154170218Y-121158600D02*
X154170218Y-119592131D01*
X142288170Y-119592131D02*
X146630766Y-119592131D01*
X146630766Y-119592131D02*
X148227813Y-121189178D01*
X137939836Y-115240024D02*
X142288170Y-119588358D01*
X142288170Y-119588358D02*
X142288170Y-119592131D01*
X136353098Y-109297619D02*
X136353098Y-115219755D01*
X136353098Y-115219755D02*
X136373367Y-115240024D01*
X136373367Y-115240024D02*
X137939836Y-115240024D01*
X129000000Y-109480000D02*
X136170717Y-109480000D01*
X136170717Y-109480000D02*
X136353098Y-109297619D01*
X142210000Y-65870000D02*
X129980000Y-65870000D01*
X129980000Y-65870000D02*
X128900000Y-66950000D01*
X144050000Y-67710000D02*
X142210000Y-65870000D01*
X142232217Y-98914909D02*
X137845900Y-103301226D01*
X137845900Y-103301226D02*
X137845900Y-103308774D01*
X148227812Y-97313179D02*
X142267478Y-97313179D01*
X142267478Y-97313179D02*
X142232217Y-97348440D01*
X142232217Y-97348440D02*
X142232217Y-98914909D01*
X154226169Y-98914909D02*
X149829542Y-98914909D01*
X149829542Y-98914909D02*
X148227812Y-97313179D01*
X154226169Y-98914909D02*
X158613284Y-103302024D01*
X158613284Y-103302024D02*
X158617058Y-103302024D01*
X160229098Y-109297618D02*
X160229098Y-103347595D01*
X160229098Y-103347595D02*
X160183527Y-103302024D01*
X160183527Y-103302024D02*
X158617058Y-103302024D01*
X195826218Y-143468131D02*
X200171576Y-139122773D01*
X200171576Y-139122773D02*
X200179122Y-139122773D01*
X189883813Y-145065178D02*
X195795640Y-145065178D01*
X195795640Y-145065178D02*
X195826218Y-145034600D01*
X195826218Y-145034600D02*
X195826218Y-143468131D01*
X183944170Y-143468131D02*
X188286766Y-143468131D01*
X188286766Y-143468131D02*
X189883813Y-145065178D01*
X179595836Y-139116024D02*
X183944170Y-143464358D01*
X183944170Y-143464358D02*
X183944170Y-143468131D01*
X178009098Y-133173619D02*
X178009098Y-139095755D01*
X178009098Y-139095755D02*
X178029367Y-139116024D01*
X178029367Y-139116024D02*
X179595836Y-139116024D01*
X170690000Y-132130000D02*
X171733619Y-133173619D01*
X171733619Y-133173619D02*
X178009098Y-133173619D01*
X141500000Y-69700000D02*
X167610000Y-69700000D01*
X167610000Y-69700000D02*
X167680000Y-69770000D01*
X179501900Y-127184774D02*
X183888217Y-122798457D01*
X183888217Y-122798457D02*
X183888217Y-122790909D01*
X189883812Y-121189179D02*
X183923478Y-121189179D01*
X183923478Y-121189179D02*
X183888217Y-121224440D01*
X183888217Y-121224440D02*
X183888217Y-122790909D01*
X195882169Y-122790909D02*
X191485542Y-122790909D01*
X191485542Y-122790909D02*
X189883812Y-121189179D01*
X200273058Y-127178024D02*
X195885943Y-122790909D01*
X195885943Y-122790909D02*
X195882169Y-122790909D01*
X201885098Y-133173618D02*
X201885098Y-127223595D01*
X201885098Y-127223595D02*
X201839527Y-127178024D01*
X201839527Y-127178024D02*
X200273058Y-127178024D01*
X141550000Y-81160000D02*
X142540000Y-82150000D01*
X142540000Y-82150000D02*
X172670000Y-82150000D01*
X179595836Y-90348024D02*
X179595836Y-85992357D01*
X179595836Y-85992357D02*
X178009098Y-84405619D01*
X183944170Y-94700131D02*
X179595836Y-90351797D01*
X179595836Y-90351797D02*
X179595836Y-90348024D01*
X189883813Y-96297178D02*
X183974748Y-96297178D01*
X183944170Y-96266600D02*
X183944170Y-94700131D01*
X183974748Y-96297178D02*
X183944170Y-96266600D01*
X195826218Y-94700131D02*
X191480860Y-94700131D01*
X191480860Y-94700131D02*
X189883813Y-96297178D01*
X200179122Y-90354773D02*
X195833764Y-94700131D01*
X195833764Y-94700131D02*
X195826218Y-94700131D01*
X131440000Y-85910000D02*
X176504717Y-85910000D01*
X176504717Y-85910000D02*
X178009098Y-84405619D01*
X138890000Y-73235000D02*
X131185000Y-73235000D01*
X131185000Y-73235000D02*
X131100000Y-73320000D01*
X200273058Y-78410024D02*
X200273058Y-82793578D01*
X200273058Y-82793578D02*
X201885098Y-84405618D01*
X195882169Y-74022909D02*
X200269284Y-78410024D01*
X200269284Y-78410024D02*
X200273058Y-78410024D01*
X189883812Y-72421179D02*
X195846908Y-72421179D01*
X195846908Y-72421179D02*
X195882169Y-72456440D01*
X195882169Y-72456440D02*
X195882169Y-74022909D01*
X183888217Y-74022909D02*
X188282082Y-74022909D01*
X188282082Y-74022909D02*
X189883812Y-72421179D01*
X179501900Y-78416774D02*
X183888217Y-74030457D01*
X183888217Y-74030457D02*
X183888217Y-74022909D01*
X138920000Y-78790000D02*
X179128674Y-78790000D01*
X179128674Y-78790000D02*
X179501900Y-78416774D01*
M02*
