%TF.GenerationSoftware,KiCad,Pcbnew,(6.0.7-1)-1*%
%TF.CreationDate,2023-03-16T12:26:32-07:00*%
%TF.ProjectId,adc_test_board,6164635f-7465-4737-945f-626f6172642e,rev?*%
%TF.SameCoordinates,Original*%
%TF.FileFunction,Paste,Top*%
%TF.FilePolarity,Positive*%
%FSLAX46Y46*%
G04 Gerber Fmt 4.6, Leading zero omitted, Abs format (unit mm)*
G04 Created by KiCad (PCBNEW (6.0.7-1)-1) date 2023-03-16 12:26:32*
%MOMM*%
%LPD*%
G01*
G04 APERTURE LIST*
G04 Aperture macros list*
%AMRoundRect*
0 Rectangle with rounded corners*
0 $1 Rounding radius*
0 $2 $3 $4 $5 $6 $7 $8 $9 X,Y pos of 4 corners*
0 Add a 4 corners polygon primitive as box body*
4,1,4,$2,$3,$4,$5,$6,$7,$8,$9,$2,$3,0*
0 Add four circle primitives for the rounded corners*
1,1,$1+$1,$2,$3*
1,1,$1+$1,$4,$5*
1,1,$1+$1,$6,$7*
1,1,$1+$1,$8,$9*
0 Add four rect primitives between the rounded corners*
20,1,$1+$1,$2,$3,$4,$5,0*
20,1,$1+$1,$4,$5,$6,$7,0*
20,1,$1+$1,$6,$7,$8,$9,0*
20,1,$1+$1,$8,$9,$2,$3,0*%
G04 Aperture macros list end*
%ADD10RoundRect,0.250000X0.450000X-0.262500X0.450000X0.262500X-0.450000X0.262500X-0.450000X-0.262500X0*%
%ADD11RoundRect,0.150000X0.150000X-0.587500X0.150000X0.587500X-0.150000X0.587500X-0.150000X-0.587500X0*%
%ADD12RoundRect,0.150000X-0.587500X-0.150000X0.587500X-0.150000X0.587500X0.150000X-0.587500X0.150000X0*%
%ADD13RoundRect,0.250000X-0.450000X0.262500X-0.450000X-0.262500X0.450000X-0.262500X0.450000X0.262500X0*%
%ADD14RoundRect,0.250000X-0.475000X0.250000X-0.475000X-0.250000X0.475000X-0.250000X0.475000X0.250000X0*%
%ADD15R,2.000000X0.600000*%
G04 APERTURE END LIST*
D10*
%TO.C,R6*%
X74000000Y-109912500D03*
X74000000Y-108087500D03*
%TD*%
D11*
%TO.C,Q15*%
X215550000Y-103937500D03*
X217450000Y-103937500D03*
X216500000Y-102062500D03*
%TD*%
%TO.C,Q21*%
X260550000Y-114937500D03*
X262450000Y-114937500D03*
X261500000Y-113062500D03*
%TD*%
%TO.C,Q20*%
X120550000Y-103937500D03*
X122450000Y-103937500D03*
X121500000Y-102062500D03*
%TD*%
%TO.C,Q11*%
X181550000Y-103937500D03*
X183450000Y-103937500D03*
X182500000Y-102062500D03*
%TD*%
%TO.C,Q51*%
X250550000Y-103937500D03*
X252450000Y-103937500D03*
X251500000Y-102062500D03*
%TD*%
%TO.C,Q8*%
X21550000Y-103937500D03*
X23450000Y-103937500D03*
X22500000Y-102062500D03*
%TD*%
D12*
%TO.C,Q6*%
X46062500Y-72550000D03*
X46062500Y-74450000D03*
X47937500Y-73500000D03*
%TD*%
D11*
%TO.C,Q47*%
X221550000Y-103937500D03*
X223450000Y-103937500D03*
X222500000Y-102062500D03*
%TD*%
D10*
%TO.C,R12*%
X122000000Y-97412500D03*
X122000000Y-95587500D03*
%TD*%
D11*
%TO.C,Q23*%
X145550000Y-103937500D03*
X147450000Y-103937500D03*
X146500000Y-102062500D03*
%TD*%
D10*
%TO.C,R13*%
X136000000Y-109912500D03*
X136000000Y-108087500D03*
%TD*%
%TO.C,R14*%
X153000000Y-97412500D03*
X153000000Y-95587500D03*
%TD*%
D12*
%TO.C,Q4*%
X46062500Y-60550000D03*
X46062500Y-62450000D03*
X47937500Y-61500000D03*
%TD*%
D11*
%TO.C,Q16*%
X88550000Y-103937500D03*
X90450000Y-103937500D03*
X89500000Y-102062500D03*
%TD*%
%TO.C,Q40*%
X27550000Y-103937500D03*
X29450000Y-103937500D03*
X28500000Y-102062500D03*
%TD*%
D12*
%TO.C,Q2*%
X32625000Y-72550000D03*
X32625000Y-74450000D03*
X34500000Y-73500000D03*
%TD*%
D11*
%TO.C,Q12*%
X54550000Y-103937500D03*
X56450000Y-103937500D03*
X55500000Y-102062500D03*
%TD*%
D10*
%TO.C,R19*%
X230000000Y-109912500D03*
X230000000Y-108087500D03*
%TD*%
%TO.C,R15*%
X168000000Y-109912500D03*
X168000000Y-108087500D03*
%TD*%
D11*
%TO.C,Q54*%
X141050000Y-114937500D03*
X142950000Y-114937500D03*
X142000000Y-113062500D03*
%TD*%
%TO.C,Q49*%
X235050000Y-114937500D03*
X236950000Y-114937500D03*
X236000000Y-113062500D03*
%TD*%
D10*
%TO.C,R20*%
X246000000Y-97412500D03*
X246000000Y-95587500D03*
%TD*%
%TO.C,R17*%
X199000000Y-109912500D03*
X199000000Y-108087500D03*
%TD*%
D11*
%TO.C,Q17*%
X229050000Y-114937500D03*
X230950000Y-114937500D03*
X230000000Y-113062500D03*
%TD*%
D12*
%TO.C,Q55*%
X32562500Y-66550000D03*
X32562500Y-68450000D03*
X34437500Y-67500000D03*
%TD*%
D11*
%TO.C,Q31*%
X209550000Y-103937500D03*
X211450000Y-103937500D03*
X210500000Y-102062500D03*
%TD*%
D13*
%TO.C,R22*%
X53000000Y-66587500D03*
X53000000Y-68412500D03*
%TD*%
D11*
%TO.C,Q45*%
X204050000Y-114937500D03*
X205950000Y-114937500D03*
X205000000Y-113062500D03*
%TD*%
D13*
%TO.C,R1*%
X53000000Y-60675000D03*
X53000000Y-62500000D03*
%TD*%
D11*
%TO.C,Q27*%
X175550000Y-103937500D03*
X177450000Y-103937500D03*
X176500000Y-102062500D03*
%TD*%
D12*
%TO.C,Q57*%
X46062500Y-66550000D03*
X46062500Y-68450000D03*
X47937500Y-67500000D03*
%TD*%
D11*
%TO.C,Q34*%
X98050000Y-114937500D03*
X99950000Y-114937500D03*
X99000000Y-113062500D03*
%TD*%
D10*
%TO.C,R3*%
X40000000Y-109912500D03*
X40000000Y-108087500D03*
%TD*%
D11*
%TO.C,Q39*%
X157550000Y-103937500D03*
X159450000Y-103937500D03*
X158500000Y-102062500D03*
%TD*%
%TO.C,Q33*%
X223050000Y-114937500D03*
X224950000Y-114937500D03*
X224000000Y-113062500D03*
%TD*%
%TO.C,Q19*%
X244550000Y-103937500D03*
X246450000Y-103937500D03*
X245500000Y-102062500D03*
%TD*%
%TO.C,Q36*%
X114550000Y-103937500D03*
X116450000Y-103937500D03*
X115500000Y-102062500D03*
%TD*%
D14*
%TO.C,C1*%
X141200000Y-66550000D03*
X141200000Y-68450000D03*
%TD*%
D11*
%TO.C,Q22*%
X135050000Y-114937500D03*
X136950000Y-114937500D03*
X136000000Y-113062500D03*
%TD*%
%TO.C,Q43*%
X187550000Y-103937500D03*
X189450000Y-103937500D03*
X188500000Y-102062500D03*
%TD*%
D12*
%TO.C,Q1*%
X32562500Y-60550000D03*
X32562500Y-62450000D03*
X34437500Y-61500000D03*
%TD*%
D10*
%TO.C,R11*%
X105000000Y-109912500D03*
X105000000Y-108087500D03*
%TD*%
D11*
%TO.C,Q13*%
X198050000Y-114937500D03*
X199950000Y-114937500D03*
X199000000Y-113062500D03*
%TD*%
%TO.C,Q44*%
X60550000Y-103937500D03*
X62450000Y-103937500D03*
X61500000Y-102062500D03*
%TD*%
%TO.C,Q37*%
X254550000Y-114937500D03*
X256450000Y-114937500D03*
X255500000Y-113062500D03*
%TD*%
D10*
%TO.C,R9*%
X47000000Y-79912500D03*
X47000000Y-78087500D03*
%TD*%
D11*
%TO.C,Q46*%
X79050000Y-114937500D03*
X80950000Y-114937500D03*
X80000000Y-113062500D03*
%TD*%
D10*
%TO.C,R4*%
X56000000Y-97412500D03*
X56000000Y-95587500D03*
%TD*%
%TO.C,R16*%
X183000000Y-97412500D03*
X183000000Y-95587500D03*
%TD*%
D11*
%TO.C,Q32*%
X82550000Y-103937500D03*
X84450000Y-103937500D03*
X83500000Y-102062500D03*
%TD*%
%TO.C,Q7*%
X151550000Y-103937500D03*
X153450000Y-103937500D03*
X152500000Y-102062500D03*
%TD*%
%TO.C,Q28*%
X48550000Y-103937500D03*
X50450000Y-103937500D03*
X49500000Y-102062500D03*
%TD*%
D12*
%TO.C,Q56*%
X39562500Y-66550000D03*
X39562500Y-68450000D03*
X41437500Y-67500000D03*
%TD*%
D10*
%TO.C,R10*%
X90000000Y-97412500D03*
X90000000Y-95587500D03*
%TD*%
%TO.C,R18*%
X217000000Y-97412500D03*
X217000000Y-95587500D03*
%TD*%
D11*
%TO.C,Q30*%
X67050000Y-114937500D03*
X68950000Y-114937500D03*
X68000000Y-113062500D03*
%TD*%
%TO.C,Q41*%
X173050000Y-114937500D03*
X174950000Y-114937500D03*
X174000000Y-113062500D03*
%TD*%
%TO.C,Q26*%
X33050000Y-114937500D03*
X34950000Y-114937500D03*
X34000000Y-113062500D03*
%TD*%
D12*
%TO.C,Q3*%
X39562500Y-60550000D03*
X39562500Y-62450000D03*
X41437500Y-61500000D03*
%TD*%
D11*
%TO.C,Q53*%
X266550000Y-114937500D03*
X268450000Y-114937500D03*
X267500000Y-113062500D03*
%TD*%
%TO.C,Q9*%
X167050000Y-114937500D03*
X168950000Y-114937500D03*
X168000000Y-113062500D03*
%TD*%
%TO.C,Q25*%
X161050000Y-114937500D03*
X162950000Y-114937500D03*
X162000000Y-113062500D03*
%TD*%
%TO.C,Q35*%
X238550000Y-103937500D03*
X240450000Y-103937500D03*
X239500000Y-102062500D03*
%TD*%
D10*
%TO.C,R7*%
X33500000Y-79912500D03*
X33500000Y-78087500D03*
%TD*%
D13*
%TO.C,R5*%
X53000000Y-72587500D03*
X53000000Y-74412500D03*
%TD*%
D12*
%TO.C,Q5*%
X39562500Y-72550000D03*
X39562500Y-74450000D03*
X41437500Y-73500000D03*
%TD*%
D11*
%TO.C,Q29*%
X192050000Y-114937500D03*
X193950000Y-114937500D03*
X193000000Y-113062500D03*
%TD*%
%TO.C,Q10*%
X39050000Y-114937500D03*
X40950000Y-114937500D03*
X40000000Y-113062500D03*
%TD*%
%TO.C,Q42*%
X45050000Y-114937500D03*
X46950000Y-114937500D03*
X46000000Y-113062500D03*
%TD*%
%TO.C,Q24*%
X15550000Y-103937500D03*
X17450000Y-103937500D03*
X16500000Y-102062500D03*
%TD*%
%TO.C,Q50*%
X110050000Y-114937500D03*
X111950000Y-114937500D03*
X111000000Y-113062500D03*
%TD*%
D10*
%TO.C,R8*%
X40500000Y-79912500D03*
X40500000Y-78087500D03*
%TD*%
%TO.C,R2*%
X23000000Y-97412500D03*
X23000000Y-95587500D03*
%TD*%
D15*
%TO.C,U1*%
X131500000Y-70960000D03*
X131500000Y-72230000D03*
X131500000Y-73500000D03*
X131500000Y-74770000D03*
X131500000Y-76040000D03*
X131500000Y-77310000D03*
X131500000Y-78580000D03*
X131500000Y-79850000D03*
X131500000Y-81120000D03*
X131500000Y-82390000D03*
X131500000Y-83660000D03*
X131500000Y-84930000D03*
X140900000Y-84930000D03*
X140900000Y-83660000D03*
X140900000Y-82390000D03*
X140900000Y-81120000D03*
X140900000Y-79850000D03*
X140900000Y-78580000D03*
X140900000Y-77310000D03*
X140900000Y-76040000D03*
X140900000Y-74770000D03*
X140900000Y-73500000D03*
X140900000Y-72230000D03*
X140900000Y-70960000D03*
%TD*%
D11*
%TO.C,Q48*%
X94550000Y-103937500D03*
X96450000Y-103937500D03*
X95500000Y-102062500D03*
%TD*%
D10*
%TO.C,R21*%
X261500000Y-109912500D03*
X261500000Y-108087500D03*
%TD*%
D11*
%TO.C,Q14*%
X73050000Y-114937500D03*
X74950000Y-114937500D03*
X74000000Y-113062500D03*
%TD*%
%TO.C,Q52*%
X126550000Y-103937500D03*
X128450000Y-103937500D03*
X127500000Y-102062500D03*
%TD*%
%TO.C,Q38*%
X129050000Y-114937500D03*
X130950000Y-114937500D03*
X130000000Y-113062500D03*
%TD*%
%TO.C,Q18*%
X104050000Y-114937500D03*
X105950000Y-114937500D03*
X105000000Y-113062500D03*
%TD*%
M02*
