M48
; DRILL file {KiCad (6.0.7-1)-1} date Thursday, March 16, 2023 at 12:26:29 PM
; FORMAT={-:-/ absolute / metric / decimal}
; #@! TF.CreationDate,2023-03-16T12:26:29-07:00
; #@! TF.GenerationSoftware,Kicad,Pcbnew,(6.0.7-1)-1
; #@! TF.FileFunction,Plated,1,4,PTH
FMAT,2
METRIC
; #@! TA.AperFunction,Plated,PTH,ViaDrill
T1C0.400
; #@! TA.AperFunction,Plated,PTH,ViaDrill
T2C0.635
; #@! TA.AperFunction,Plated,PTH,ComponentDrill
T3C0.780
; #@! TA.AperFunction,Plated,PTH,ComponentDrill
T4C0.813
; #@! TA.AperFunction,Plated,PTH,ComponentDrill
T5C1.016
; #@! TA.AperFunction,Plated,PTH,ComponentDrill
T6C3.050
; #@! TA.AperFunction,Plated,PTH,ComponentDrill
T7C3.200
; #@! TA.AperFunction,Plated,PTH,ComponentDrill
T8C3.350
%
G90
G05
T1
X15.0Y-86.5
X16.5Y-47.5
X16.5Y-91.5
X17.5Y-112.0
X19.0Y-62.5
X19.0Y-68.5
X19.0Y-119.0
X21.0Y-64.0
X21.0Y-70.0
X21.5Y-120.0
X21.649Y-86.5
X23.0Y-93.5
X23.5Y-108.5
X24.0Y-112.0
X24.5Y-46.5
X24.5Y-90.5
X26.5Y-65.0
X26.5Y-71.0
X26.5Y-121.0
X27.5Y-86.5
X27.5Y-108.5
X28.5Y-45.5
X28.5Y-89.5
X30.5Y-62.5
X30.5Y-68.5
X30.5Y-72.5
X30.5Y-74.5
X32.5Y-85.775
X33.5Y-81.5
X34.0Y-60.6
X34.0Y-91.5
X35.0Y-132.0
X35.5Y-119.0
X37.0Y-72.5
X37.5Y-74.5
X37.5Y-120.0
X37.5Y-133.0
X37.6Y-60.6
X38.776Y-85.775
X39.5Y-47.5
X39.5Y-64.0
X39.5Y-70.0
X40.0Y-106.0
X40.5Y-81.5
X41.5Y-90.5
X43.0Y-121.0
X43.0Y-134.0
X43.899Y-60.6
X44.0Y-72.5
X44.0Y-74.5
X44.5Y-46.5
X45.276Y-85.775
X46.0Y-65.0
X46.0Y-71.0
X46.0Y-89.5
X47.0Y-81.5
X48.0Y-85.0
X49.5Y-45.5
X49.5Y-91.5
X50.5Y-60.5
X50.5Y-72.5
X50.5Y-119.0
X52.5Y-85.0
X53.0Y-46.0
X53.0Y-64.0
X53.0Y-70.0
X53.0Y-76.0
X53.0Y-120.0
X54.0Y-90.5
X54.5Y-72.5
X55.0Y-66.5
X56.0Y-93.5
X57.5Y-85.0
X58.0Y-121.0
X61.5Y-89.5
X66.5Y-132.0
X67.0Y-84.275
X68.0Y-91.5
X69.0Y-133.0
X71.224Y-84.275
X72.5Y-90.5
X74.0Y-106.5
X74.0Y-134.0
X76.224Y-84.275
X77.0Y-48.5
X77.0Y-72.5
X78.5Y-66.5
X80.0Y-89.5
X82.0Y-119.0
X82.5Y-83.5
X83.5Y-91.5
X84.5Y-120.0
X86.935Y-83.435
X88.5Y-90.5
X90.0Y-93.5
X90.0Y-121.0
X91.565Y-83.435
X95.5Y-89.5
X98.0Y-82.5
X98.0Y-132.0
X99.0Y-91.5
X100.5Y-133.0
X101.5Y-82.5
X103.5Y-90.5
X105.0Y-106.5
X105.5Y-134.0
X107.0Y-82.5
X111.0Y-89.5
X113.5Y-119.0
X114.5Y-81.775
X115.5Y-91.5
X116.0Y-120.0
X118.275Y-81.775
X119.5Y-90.5
X120.275Y-81.775
X121.5Y-121.0
X122.0Y-94.0
X122.293Y-81.775
X123.0Y-82.5
X123.458Y-83.435
X124.0Y-84.275
X125.0Y-85.051
X126.0Y-85.775
X127.0Y-86.5
X127.5Y-89.5
X129.0Y-72.0
X129.0Y-85.0
X129.5Y-70.5
X129.5Y-132.0
X130.0Y-91.5
X132.0Y-133.0
X132.643Y-50.0
X133.368Y-47.632
X134.5Y-52.5
X134.5Y-90.5
X136.0Y-106.0
X136.5Y-54.5
X137.0Y-134.0
X137.225Y-72.0
X138.5Y-59.5
X139.5Y-57.5
X141.0Y-64.5
X142.0Y-89.5
X143.5Y-70.5
X143.5Y-72.0
X143.5Y-73.5
X143.5Y-75.0
X143.5Y-76.0
X143.5Y-77.5
X143.5Y-78.5
X143.5Y-80.0
X143.5Y-81.0
X143.5Y-82.5
X145.0Y-119.0
X145.5Y-72.0
X146.5Y-91.5
X147.5Y-120.0
X150.5Y-72.0
X151.5Y-90.5
X153.0Y-94.0
X153.0Y-121.0
X156.0Y-72.0
X158.5Y-89.5
X161.0Y-73.5
X161.0Y-132.0
X162.0Y-91.5
X163.5Y-133.0
X164.5Y-73.5
X166.0Y-90.5
X168.0Y-106.5
X168.5Y-134.0
X172.0Y-73.5
X174.0Y-89.5
X175.5Y-75.0
X176.5Y-91.5
X176.5Y-119.0
X179.0Y-75.0
X179.0Y-120.0
X181.0Y-90.5
X183.0Y-94.0
X184.5Y-121.0
X186.0Y-75.0
X188.5Y-89.5
X192.0Y-76.0
X192.5Y-132.0
X193.0Y-91.5
X195.0Y-133.0
X196.0Y-76.0
X197.5Y-90.5
X199.0Y-106.5
X200.0Y-134.0
X202.0Y-76.0
X205.0Y-89.5
X208.0Y-119.0
X209.5Y-77.5
X210.5Y-91.5
X211.0Y-120.0
X214.0Y-77.5
X215.5Y-90.5
X216.0Y-121.0
X217.0Y-94.0
X220.0Y-77.5
X222.5Y-89.5
X224.0Y-78.5
X224.0Y-132.0
X225.0Y-91.5
X226.5Y-133.0
X228.5Y-78.5
X230.0Y-106.5
X231.0Y-90.5
X231.5Y-134.0
X235.0Y-78.5
X236.0Y-89.5
X238.5Y-80.0
X239.5Y-91.5
X240.0Y-119.0
X242.5Y-80.0
X242.5Y-120.0
X244.5Y-90.583
X246.0Y-94.0
X247.5Y-121.0
X249.0Y-80.0
X251.5Y-89.5
X254.5Y-81.0
X255.5Y-91.5
X255.5Y-132.0
X257.0Y-81.0
X258.0Y-133.0
X258.5Y-90.5
X261.5Y-106.5
X263.0Y-81.0
X263.0Y-134.0
X267.5Y-89.5
T2
X11.778Y-56.5
X12.93Y-55.009
X14.5Y-128.0
X15.348Y-53.5
X24.0Y-129.5
X24.5Y-140.5
X29.5Y-128.0
X34.5Y-126.5
X39.5Y-53.5
X40.0Y-143.0
X44.5Y-55.0
X45.5Y-141.5
X49.5Y-56.5
X50.5Y-140.0
X55.5Y-129.5
X55.5Y-143.0
X59.0Y-126.5
X59.0Y-140.0
X61.0Y-128.0
X61.0Y-141.5
X66.0Y-126.5
X71.5Y-143.0
X77.0Y-141.5
X82.0Y-140.0
X87.0Y-129.5
X87.0Y-143.0
X90.5Y-126.5
X90.5Y-140.0
X92.5Y-128.0
X92.5Y-141.5
X97.5Y-126.5
X103.0Y-143.0
X108.5Y-141.5
X113.5Y-140.0
X119.0Y-129.5
X119.0Y-143.0
X122.5Y-126.5
X122.5Y-140.0
X124.0Y-128.0
X124.0Y-141.5
X129.0Y-126.5
X134.5Y-143.0
X139.5Y-141.5
X145.0Y-140.0
X150.0Y-129.5
X150.0Y-143.0
X153.273Y-140.273
X153.5Y-126.5
X155.5Y-128.0
X155.5Y-141.5
X160.5Y-126.5
X166.0Y-143.0
X171.0Y-141.5
X176.5Y-140.0
X182.0Y-129.5
X182.0Y-143.0
X185.5Y-126.5
X185.5Y-140.0
X187.0Y-128.0
X187.0Y-141.5
X192.0Y-126.5
X197.5Y-143.0
X202.5Y-141.5
X208.0Y-140.0
X213.5Y-129.5
X213.5Y-143.0
X217.0Y-126.5
X217.0Y-140.0
X218.5Y-128.0
X218.5Y-141.5
X223.5Y-126.5
X229.0Y-143.0
X234.0Y-141.5
X239.5Y-140.0
X245.0Y-129.5
X245.0Y-143.0
X248.5Y-126.5
X248.5Y-140.0
X250.0Y-128.0
X250.0Y-141.5
X255.0Y-126.5
X260.5Y-143.0
X265.5Y-141.5
X271.0Y-140.0
T3
X145.016Y-46.179
X146.306Y-48.719
X147.556Y-46.179
X148.846Y-48.719
X150.096Y-46.179
X151.386Y-48.719
X160.83Y-46.179
X162.12Y-48.719
X163.37Y-46.179
X164.66Y-48.719
X165.91Y-46.179
X167.2Y-48.719
T4
X81.407Y-35.803
X81.407Y-38.343
X81.407Y-40.883
X81.407Y-43.423
X81.407Y-45.963
X81.407Y-48.503
X81.407Y-51.043
X81.407Y-53.583
X81.407Y-56.123
X81.407Y-58.663
X81.407Y-61.203
X81.407Y-63.743
X96.647Y-35.803
X96.647Y-38.343
X96.647Y-40.883
X96.647Y-43.423
X96.647Y-45.963
X96.647Y-48.503
X96.647Y-51.043
X96.647Y-53.583
X96.647Y-56.123
X96.647Y-58.663
X96.647Y-61.203
X96.647Y-63.743
T5
X16.43Y-122.429
X16.43Y-124.969
X18.97Y-122.429
X18.97Y-124.969
X21.51Y-122.429
X21.51Y-124.969
X24.05Y-122.429
X24.05Y-124.969
X26.59Y-122.429
X26.59Y-124.969
X29.13Y-122.429
X29.13Y-124.969
X31.67Y-122.429
X31.67Y-124.969
X31.905Y-49.291
X31.905Y-51.831
X32.461Y-135.73
X32.461Y-138.27
X34.21Y-122.429
X34.21Y-124.969
X34.445Y-49.291
X34.445Y-51.831
X35.001Y-135.73
X35.001Y-138.27
X36.985Y-49.291
X36.985Y-51.831
X37.541Y-135.73
X37.541Y-138.27
X39.525Y-49.291
X39.525Y-51.831
X40.081Y-135.73
X40.081Y-138.27
X42.065Y-49.291
X42.065Y-51.831
X42.621Y-135.73
X42.621Y-138.27
X44.605Y-49.291
X44.605Y-51.831
X45.161Y-135.73
X45.161Y-138.27
X47.145Y-49.291
X47.145Y-51.831
X47.701Y-135.73
X47.701Y-138.27
X47.956Y-122.429
X47.956Y-124.969
X49.685Y-49.291
X49.685Y-51.831
X50.241Y-135.73
X50.241Y-138.27
X50.496Y-122.429
X50.496Y-124.969
X53.036Y-122.429
X53.036Y-124.969
X55.576Y-122.429
X55.576Y-124.969
X58.116Y-122.429
X58.116Y-124.969
X60.656Y-122.429
X60.656Y-124.969
X63.196Y-122.429
X63.196Y-124.969
X63.932Y-135.73
X63.932Y-138.27
X65.736Y-122.429
X65.736Y-124.969
X66.472Y-135.73
X66.472Y-138.27
X69.012Y-135.73
X69.012Y-138.27
X71.552Y-135.73
X71.552Y-138.27
X74.092Y-135.73
X74.092Y-138.27
X76.632Y-135.73
X76.632Y-138.27
X79.172Y-135.73
X79.172Y-138.27
X79.482Y-122.429
X79.482Y-124.969
X81.712Y-135.73
X81.712Y-138.27
X82.022Y-122.429
X82.022Y-124.969
X84.562Y-122.429
X84.562Y-124.969
X87.102Y-122.429
X87.102Y-124.969
X89.642Y-122.429
X89.642Y-124.969
X92.182Y-122.429
X92.182Y-124.969
X94.722Y-122.429
X94.722Y-124.969
X95.402Y-135.73
X95.402Y-138.27
X97.262Y-122.429
X97.262Y-124.969
X97.942Y-135.73
X97.942Y-138.27
X100.482Y-135.73
X100.482Y-138.27
X103.022Y-135.73
X103.022Y-138.27
X105.562Y-135.73
X105.562Y-138.27
X108.102Y-135.73
X108.102Y-138.27
X110.642Y-135.73
X110.642Y-138.27
X111.007Y-122.429
X111.007Y-124.969
X113.03Y-35.76
X113.03Y-38.3
X113.03Y-40.84
X113.03Y-43.38
X113.03Y-45.92
X113.03Y-48.46
X113.03Y-51.0
X113.03Y-53.54
X113.03Y-56.08
X113.182Y-135.73
X113.182Y-138.27
X113.547Y-122.429
X113.547Y-124.969
X116.087Y-122.429
X116.087Y-124.969
X118.627Y-122.429
X118.627Y-124.969
X121.167Y-122.429
X121.167Y-124.969
X123.707Y-122.429
X123.707Y-124.969
X126.247Y-122.429
X126.247Y-124.969
X126.873Y-135.73
X126.873Y-138.27
X128.787Y-122.429
X128.787Y-124.969
X129.413Y-135.73
X129.413Y-138.27
X130.81Y-35.76
X130.81Y-38.3
X130.81Y-40.84
X130.81Y-43.38
X130.81Y-45.92
X130.81Y-48.46
X130.81Y-51.0
X130.81Y-53.54
X130.81Y-56.08
X131.953Y-135.73
X131.953Y-138.27
X134.493Y-135.73
X134.493Y-138.27
X137.033Y-135.73
X137.033Y-138.27
X139.573Y-135.73
X139.573Y-138.27
X142.113Y-135.73
X142.113Y-138.27
X142.533Y-122.429
X142.533Y-124.969
X144.653Y-135.73
X144.653Y-138.27
X145.073Y-122.429
X145.073Y-124.969
X147.613Y-122.429
X147.613Y-124.969
X150.153Y-122.429
X150.153Y-124.969
X152.693Y-122.429
X152.693Y-124.969
X155.233Y-122.429
X155.233Y-124.969
X157.773Y-122.429
X157.773Y-124.969
X158.344Y-135.73
X158.344Y-138.27
X160.313Y-122.429
X160.313Y-124.969
X160.884Y-135.73
X160.884Y-138.27
X163.424Y-135.73
X163.424Y-138.27
X165.964Y-135.73
X165.964Y-138.27
X168.504Y-135.73
X168.504Y-138.27
X171.044Y-135.73
X171.044Y-138.27
X173.584Y-135.73
X173.584Y-138.27
X174.059Y-122.429
X174.059Y-124.969
X176.124Y-135.73
X176.124Y-138.27
X176.599Y-122.429
X176.599Y-124.969
X179.139Y-122.429
X179.139Y-124.969
X181.679Y-122.429
X181.679Y-124.969
X184.219Y-122.429
X184.219Y-124.969
X186.759Y-122.429
X186.759Y-124.969
X189.299Y-122.429
X189.299Y-124.969
X189.814Y-135.73
X189.814Y-138.27
X191.839Y-122.429
X191.839Y-124.969
X192.354Y-135.73
X192.354Y-138.27
X194.894Y-135.73
X194.894Y-138.27
X197.434Y-135.73
X197.434Y-138.27
X199.974Y-135.73
X199.974Y-138.27
X202.514Y-135.73
X202.514Y-138.27
X205.054Y-135.73
X205.054Y-138.27
X205.584Y-122.429
X205.584Y-124.969
X207.594Y-135.73
X207.594Y-138.27
X208.124Y-122.429
X208.124Y-124.969
X210.664Y-122.429
X210.664Y-124.969
X213.204Y-122.429
X213.204Y-124.969
X215.744Y-122.429
X215.744Y-124.969
X218.284Y-122.429
X218.284Y-124.969
X220.824Y-122.429
X220.824Y-124.969
X221.285Y-135.73
X221.285Y-138.27
X223.364Y-122.429
X223.364Y-124.969
X223.825Y-135.73
X223.825Y-138.27
X226.365Y-135.73
X226.365Y-138.27
X228.905Y-135.73
X228.905Y-138.27
X231.445Y-135.73
X231.445Y-138.27
X233.985Y-135.73
X233.985Y-138.27
X236.525Y-135.73
X236.525Y-138.27
X237.11Y-122.429
X237.11Y-124.969
X239.065Y-135.73
X239.065Y-138.27
X239.65Y-122.429
X239.65Y-124.969
X242.19Y-122.429
X242.19Y-124.969
X244.73Y-122.429
X244.73Y-124.969
X247.27Y-122.429
X247.27Y-124.969
X249.81Y-122.429
X249.81Y-124.969
X252.35Y-122.429
X252.35Y-124.969
X252.755Y-135.73
X252.755Y-138.27
X254.89Y-122.429
X254.89Y-124.969
X255.295Y-135.73
X255.295Y-138.27
X257.835Y-135.73
X257.835Y-138.27
X260.375Y-135.73
X260.375Y-138.27
X262.915Y-135.73
X262.915Y-138.27
X265.455Y-135.73
X265.455Y-138.27
X267.995Y-135.73
X267.995Y-138.27
X270.535Y-135.73
X270.535Y-138.27
T6
X179.237Y-43.5
X183.938Y-40.5
X183.938Y-46.5
T7
X13.27Y-36.83
X13.97Y-140.97
X91.44Y-72.39
X209.55Y-72.39
X278.13Y-38.1
X278.13Y-140.97
T8
X143.106Y-39.829
X153.266Y-39.829
X158.92Y-39.829
X169.08Y-39.829
T0
M30
