M48
; DRILL file {KiCad 5.1.2-f72e74a~84~ubuntu18.04.1} date Fri 24 May 2019 12:09:14 PM EDT
; FORMAT={-:-/ absolute / inch / decimal}
; #@! TF.CreationDate,2019-05-24T12:09:14-04:00
; #@! TF.GenerationSoftware,Kicad,Pcbnew,5.1.2-f72e74a~84~ubuntu18.04.1
; #@! TF.FileFunction,Plated,1,2,PTH
FMAT,2
INCH
T1C0.0236
T2C0.0300
T3C0.0315
T4C0.0394
T5C0.0394
T6C0.0433
T7C0.1220
%
G90
G05
T1
X2.925Y-4.125
X2.925Y-4.1841
X4.9Y-1.6659
X4.9Y-1.725
X4.15Y-3.95
X4.2091Y-3.95
X5.8Y-3.7
X5.8591Y-3.7
T2
X4.35Y-3.65
X4.35Y-4.25
X4.45Y-3.65
X4.45Y-4.25
X4.55Y-3.65
X4.55Y-4.25
X4.65Y-3.65
X4.65Y-4.25
X4.75Y-3.65
X4.75Y-4.25
X4.85Y-3.65
X4.85Y-4.25
X4.95Y-3.65
X4.95Y-4.25
X5.05Y-3.65
X5.05Y-4.25
X5.15Y-3.65
X5.15Y-4.25
X5.25Y-3.65
X5.25Y-4.25
X5.35Y-3.65
X5.35Y-4.25
X5.45Y-3.65
X5.45Y-4.25
X5.71Y-3.98
X5.95Y-3.98
X4.05Y-1.9
X4.15Y-1.9
X4.25Y-1.9
X4.35Y-1.9
X4.45Y-1.9
X4.55Y-1.9
X4.65Y-1.9
X4.75Y-1.9
X4.85Y-1.9
X4.95Y-1.9
X3.05Y-3.7
X3.15Y-3.7
X3.25Y-3.7
X3.35Y-3.7
X3.45Y-3.7
X3.55Y-3.7
X3.65Y-3.7
X3.75Y-3.7
X3.85Y-3.7
X3.95Y-3.7
X5.8Y-1.8
X5.8Y-1.9
X5.8Y-2.0
X5.9Y-1.75
X5.9Y-1.85
X5.9Y-1.95
T3
X3.025Y-2.2
X3.025Y-3.4
X3.125Y-2.2
X3.125Y-3.4
X3.225Y-2.2
X3.225Y-3.4
X3.325Y-2.2
X3.325Y-3.4
X3.425Y-2.2
X3.425Y-3.4
X3.525Y-2.2
X3.525Y-3.4
X3.625Y-2.2
X3.625Y-3.4
X3.725Y-2.2
X3.725Y-3.4
X3.825Y-2.2
X3.825Y-3.4
X3.925Y-2.2
X3.925Y-3.4
X4.025Y-2.2
X4.025Y-3.4
X4.125Y-2.2
X4.125Y-3.4
X4.225Y-2.2
X4.225Y-3.4
X4.325Y-2.2
X4.325Y-3.4
X4.425Y-2.2
X4.425Y-3.4
X4.525Y-2.2
X4.525Y-3.4
X4.625Y-2.2
X4.625Y-3.4
X4.725Y-2.2
X4.725Y-3.4
X4.825Y-2.2
X4.825Y-3.4
X4.925Y-2.2
X4.925Y-3.4
X5.025Y-2.2
X5.025Y-3.4
X5.125Y-2.2
X5.125Y-3.4
X5.225Y-2.2
X5.225Y-3.4
X5.325Y-2.2
X5.325Y-3.4
X5.425Y-2.2
X5.425Y-3.4
T4
X3.675Y-4.1
X3.675Y-4.19
X3.425Y-4.1
X3.425Y-4.19
X4.325Y-1.21
X4.325Y-1.3
X4.375Y-1.435
X4.375Y-1.525
X4.1Y-1.435
X4.1Y-1.525
X4.575Y-1.21
X4.575Y-1.3
X4.875Y-1.435
X4.875Y-1.525
X4.625Y-1.435
X4.625Y-1.525
X3.025Y-3.875
X3.025Y-3.965
X3.55Y-3.875
X3.55Y-3.965
X3.925Y-4.1
X3.925Y-4.19
X3.15Y-4.1
X3.15Y-4.19
X3.3Y-3.875
X3.3Y-3.965
X4.825Y-1.21
X4.825Y-1.3
X4.075Y-1.21
X4.075Y-1.3
X3.8Y-3.875
X3.8Y-3.965
T5
X3.0Y-1.2
X3.0Y-1.9
X3.1Y-1.2
X3.1Y-1.9
X3.2Y-1.2
X3.2Y-1.9
X3.3Y-1.2
X3.3Y-1.9
X3.4Y-1.2
X3.4Y-1.9
X3.5Y-1.2
X3.5Y-1.9
X3.6Y-1.2
X3.6Y-1.9
X3.7Y-1.2
X3.7Y-1.9
X3.8Y-1.2
X3.8Y-1.9
T6
X5.685Y-2.65
X5.685Y-2.7591
X5.685Y-2.8681
X5.685Y-2.9772
X5.685Y-3.0862
X5.7969Y-2.7045
X5.7969Y-2.8136
X5.7969Y-2.9226
X5.7969Y-3.0317
X6.0Y-2.65
X6.0Y-2.7591
X6.0Y-2.8681
X6.0Y-2.9772
X6.0Y-3.0862
X6.1118Y-2.7045
X6.1118Y-2.8136
X6.1118Y-2.9226
X6.1118Y-3.0317
T7
X5.7969Y-2.376
X5.7969Y-3.3602
X6.1118Y-2.376
X6.1118Y-3.3602
T0
M30
