G04 #@! TF.GenerationSoftware,KiCad,Pcbnew,5.1.2-f72e74a~84~ubuntu18.04.1*
G04 #@! TF.CreationDate,2019-06-04T14:03:32-04:00*
G04 #@! TF.ProjectId,temperature board,74656d70-6572-4617-9475-726520626f61,v01*
G04 #@! TF.SameCoordinates,Original*
G04 #@! TF.FileFunction,Legend,Bot*
G04 #@! TF.FilePolarity,Positive*
%FSLAX46Y46*%
G04 Gerber Fmt 4.6, Leading zero omitted, Abs format (unit mm)*
G04 Created by KiCad (PCBNEW 5.1.2-f72e74a~84~ubuntu18.04.1) date 2019-06-04 14:03:32*
%MOMM*%
%LPD*%
G04 APERTURE LIST*
%ADD10C,0.150000*%
%ADD11C,0.120000*%
G04 APERTURE END LIST*
D10*
X82502190Y-79462380D02*
X81883142Y-79462380D01*
X82216476Y-79843333D01*
X82073619Y-79843333D01*
X81978380Y-79890952D01*
X81930761Y-79938571D01*
X81883142Y-80033809D01*
X81883142Y-80271904D01*
X81930761Y-80367142D01*
X81978380Y-80414761D01*
X82073619Y-80462380D01*
X82359333Y-80462380D01*
X82454571Y-80414761D01*
X82502190Y-80367142D01*
X81454571Y-80367142D02*
X81406952Y-80414761D01*
X81454571Y-80462380D01*
X81502190Y-80414761D01*
X81454571Y-80367142D01*
X81454571Y-80462380D01*
X81073619Y-79462380D02*
X80454571Y-79462380D01*
X80787904Y-79843333D01*
X80645047Y-79843333D01*
X80549809Y-79890952D01*
X80502190Y-79938571D01*
X80454571Y-80033809D01*
X80454571Y-80271904D01*
X80502190Y-80367142D01*
X80549809Y-80414761D01*
X80645047Y-80462380D01*
X80930761Y-80462380D01*
X81026000Y-80414761D01*
X81073619Y-80367142D01*
X80168857Y-79462380D02*
X79835523Y-80462380D01*
X79502190Y-79462380D01*
X80962476Y-65492380D02*
X81438666Y-65492380D01*
X81486285Y-65968571D01*
X81438666Y-65920952D01*
X81343428Y-65873333D01*
X81105333Y-65873333D01*
X81010095Y-65920952D01*
X80962476Y-65968571D01*
X80914857Y-66063809D01*
X80914857Y-66301904D01*
X80962476Y-66397142D01*
X81010095Y-66444761D01*
X81105333Y-66492380D01*
X81343428Y-66492380D01*
X81438666Y-66444761D01*
X81486285Y-66397142D01*
X80629142Y-65492380D02*
X80295809Y-66492380D01*
X79962476Y-65492380D01*
D11*
X150368000Y-87884000D02*
X150622000Y-87884000D01*
X151384000Y-87884000D02*
X151892000Y-87884000D01*
X151384000Y-88138000D02*
X151384000Y-87884000D01*
X151892000Y-88646000D02*
X151384000Y-88138000D01*
X151892000Y-88900000D02*
X151892000Y-88646000D01*
X151384000Y-88900000D02*
X151892000Y-88900000D01*
X150876000Y-87884000D02*
X150622000Y-87884000D01*
X151130000Y-88138000D02*
X150876000Y-87884000D01*
X150876000Y-88392000D02*
X151130000Y-88138000D01*
X150622000Y-88392000D02*
X150876000Y-88392000D01*
X150368000Y-88646000D02*
X150622000Y-88392000D01*
X150622000Y-88900000D02*
X150368000Y-88646000D01*
X150876000Y-88900000D02*
X150622000Y-88900000D01*
X115062000Y-71120000D02*
X114554000Y-71628000D01*
X118618000Y-73660000D02*
X117602000Y-73660000D01*
X115062000Y-73152000D02*
X115062000Y-72136000D01*
X96774000Y-72644000D02*
X96774000Y-71628000D01*
X119126000Y-68580000D02*
X119634000Y-69088000D01*
X112014000Y-68580000D02*
X112014000Y-73660000D01*
X112014000Y-68580000D02*
X114046000Y-68580000D01*
X130810000Y-71628000D02*
X128778000Y-73660000D01*
X112014000Y-73660000D02*
X114554000Y-73660000D01*
X114554000Y-73660000D02*
X115062000Y-73152000D01*
X126746000Y-68580000D02*
X126746000Y-71120000D01*
X100838000Y-73152000D02*
X102362000Y-71628000D01*
X98806000Y-73152000D02*
X97282000Y-73152000D01*
X97790000Y-70612000D02*
X98806000Y-70612000D01*
X125222000Y-73660000D02*
X124714000Y-73152000D01*
X123190000Y-71120000D02*
X123190000Y-73152000D01*
X94234000Y-72136000D02*
X94234000Y-68580000D01*
X122174000Y-73152000D02*
X120650000Y-71628000D01*
X126238000Y-71628000D02*
X126746000Y-72136000D01*
X121158000Y-70612000D02*
X123190000Y-70612000D01*
X107442000Y-71120000D02*
X106934000Y-70612000D01*
X109474000Y-72644000D02*
X109474000Y-71628000D01*
X123698000Y-68580000D02*
X123698000Y-70612000D01*
X115062000Y-69596000D02*
X115062000Y-71120000D01*
X127762000Y-69088000D02*
X128270000Y-68580000D01*
X128778000Y-73660000D02*
X127762000Y-73660000D01*
X117602000Y-68580000D02*
X119126000Y-68580000D01*
X125730000Y-73660000D02*
X125222000Y-73660000D01*
X127762000Y-73660000D02*
X127762000Y-69088000D01*
X116078000Y-72136000D02*
X116078000Y-70104000D01*
X104902000Y-71628000D02*
X104902000Y-68580000D01*
X128270000Y-68580000D02*
X128778000Y-68580000D01*
X96774000Y-69596000D02*
X96774000Y-71628000D01*
X114554000Y-71628000D02*
X112522000Y-71628000D01*
X126238000Y-71628000D02*
X125222000Y-71628000D01*
X123698000Y-70612000D02*
X123190000Y-71120000D01*
X117602000Y-73660000D02*
X116078000Y-72136000D01*
X108966000Y-73152000D02*
X109474000Y-72644000D01*
X128778000Y-68580000D02*
X130302000Y-68580000D01*
X115062000Y-72136000D02*
X114554000Y-71628000D01*
X93726000Y-72644000D02*
X94234000Y-73152000D01*
X97282000Y-73152000D02*
X96774000Y-72644000D01*
X114046000Y-68580000D02*
X115062000Y-69596000D01*
X96774000Y-69596000D02*
X96774000Y-69088000D01*
X119634000Y-69088000D02*
X119634000Y-72644000D01*
X100838000Y-68580000D02*
X100838000Y-73152000D01*
X97282000Y-68580000D02*
X99314000Y-68580000D01*
X106934000Y-68580000D02*
X106934000Y-72644000D01*
X130302000Y-68580000D02*
X130810000Y-69088000D01*
X108966000Y-71120000D02*
X107442000Y-71120000D01*
X126746000Y-72644000D02*
X125730000Y-73660000D01*
X124714000Y-73152000D02*
X124714000Y-68580000D01*
X96774000Y-71628000D02*
X97790000Y-70612000D01*
X94234000Y-73152000D02*
X96266000Y-73152000D01*
X126746000Y-71120000D02*
X126238000Y-71628000D01*
X123190000Y-73152000D02*
X122174000Y-73152000D01*
X106934000Y-72644000D02*
X107442000Y-73152000D01*
X119634000Y-72644000D02*
X118618000Y-73660000D01*
X126746000Y-72136000D02*
X126746000Y-72644000D01*
X102362000Y-68580000D02*
X102362000Y-71628000D01*
X91186000Y-72644000D02*
X93726000Y-72644000D01*
X102362000Y-71628000D02*
X103378000Y-72644000D01*
X96774000Y-69088000D02*
X97282000Y-68580000D01*
X109474000Y-71628000D02*
X108966000Y-71120000D01*
X130810000Y-69088000D02*
X130810000Y-71628000D01*
X120650000Y-71628000D02*
X120650000Y-68580000D01*
X120650000Y-71120000D02*
X121158000Y-70612000D01*
X93726000Y-72644000D02*
X94234000Y-72136000D01*
X107442000Y-73152000D02*
X108966000Y-73152000D01*
X116078000Y-70104000D02*
X117602000Y-68580000D01*
X103378000Y-72644000D02*
X103886000Y-72644000D01*
X103886000Y-72644000D02*
X104902000Y-71628000D01*
M02*
