G04 #@! TF.GenerationSoftware,KiCad,Pcbnew,5.1.2-f72e74a~84~ubuntu18.04.1*
G04 #@! TF.CreationDate,2019-07-25T12:28:03-04:00*
G04 #@! TF.ProjectId,temperature board,74656d70-6572-4617-9475-726520626f61,v01*
G04 #@! TF.SameCoordinates,Original*
G04 #@! TF.FileFunction,Soldermask,Bot*
G04 #@! TF.FilePolarity,Negative*
%FSLAX46Y46*%
G04 Gerber Fmt 4.6, Leading zero omitted, Abs format (unit mm)*
G04 Created by KiCad (PCBNEW 5.1.2-f72e74a~84~ubuntu18.04.1) date 2019-07-25 12:28:03*
%MOMM*%
%LPD*%
G04 APERTURE LIST*
%ADD10C,0.100000*%
G04 APERTURE END LIST*
D10*
G36*
X104442585Y-121033802D02*
G01*
X104592410Y-121063604D01*
X104874674Y-121180521D01*
X105128705Y-121350259D01*
X105344741Y-121566295D01*
X105514479Y-121820326D01*
X105631396Y-122102590D01*
X105691000Y-122402240D01*
X105691000Y-122707760D01*
X105631396Y-123007410D01*
X105514479Y-123289674D01*
X105344741Y-123543705D01*
X105128705Y-123759741D01*
X104874674Y-123929479D01*
X104592410Y-124046396D01*
X104442585Y-124076198D01*
X104292761Y-124106000D01*
X103987239Y-124106000D01*
X103837415Y-124076198D01*
X103687590Y-124046396D01*
X103405326Y-123929479D01*
X103151295Y-123759741D01*
X102935259Y-123543705D01*
X102765521Y-123289674D01*
X102648604Y-123007410D01*
X102589000Y-122707760D01*
X102589000Y-122402240D01*
X102648604Y-122102590D01*
X102765521Y-121820326D01*
X102935259Y-121566295D01*
X103151295Y-121350259D01*
X103405326Y-121180521D01*
X103687590Y-121063604D01*
X103837415Y-121033802D01*
X103987239Y-121004000D01*
X104292761Y-121004000D01*
X104442585Y-121033802D01*
X104442585Y-121033802D01*
G37*
G36*
X198387881Y-120899899D02*
G01*
X198572410Y-120936604D01*
X198854674Y-121053521D01*
X199108705Y-121223259D01*
X199324741Y-121439295D01*
X199494479Y-121693326D01*
X199611396Y-121975590D01*
X199671000Y-122275240D01*
X199671000Y-122580760D01*
X199611396Y-122880410D01*
X199494479Y-123162674D01*
X199324741Y-123416705D01*
X199108705Y-123632741D01*
X198854674Y-123802479D01*
X198572410Y-123919396D01*
X198521719Y-123929479D01*
X198272761Y-123979000D01*
X197967239Y-123979000D01*
X197718281Y-123929479D01*
X197667590Y-123919396D01*
X197385326Y-123802479D01*
X197131295Y-123632741D01*
X196915259Y-123416705D01*
X196745521Y-123162674D01*
X196628604Y-122880410D01*
X196569000Y-122580760D01*
X196569000Y-122275240D01*
X196628604Y-121975590D01*
X196745521Y-121693326D01*
X196915259Y-121439295D01*
X197131295Y-121223259D01*
X197385326Y-121053521D01*
X197667590Y-120936604D01*
X197852119Y-120899899D01*
X197967239Y-120877000D01*
X198272761Y-120877000D01*
X198387881Y-120899899D01*
X198387881Y-120899899D01*
G37*
G36*
X143874142Y-120503242D02*
G01*
X144022101Y-120564529D01*
X144155255Y-120653499D01*
X144268501Y-120766745D01*
X144357471Y-120899899D01*
X144418758Y-121047858D01*
X144450000Y-121204925D01*
X144450000Y-121365075D01*
X144418758Y-121522142D01*
X144357471Y-121670101D01*
X144268501Y-121803255D01*
X144155255Y-121916501D01*
X144022101Y-122005471D01*
X143874142Y-122066758D01*
X143717075Y-122098000D01*
X143556925Y-122098000D01*
X143399858Y-122066758D01*
X143251899Y-122005471D01*
X143118745Y-121916501D01*
X143005499Y-121803255D01*
X142916529Y-121670101D01*
X142855242Y-121522142D01*
X142824000Y-121365075D01*
X142824000Y-121204925D01*
X142855242Y-121047858D01*
X142916529Y-120899899D01*
X143005499Y-120766745D01*
X143118745Y-120653499D01*
X143251899Y-120564529D01*
X143399858Y-120503242D01*
X143556925Y-120472000D01*
X143717075Y-120472000D01*
X143874142Y-120503242D01*
X143874142Y-120503242D01*
G37*
G36*
X169274142Y-120503242D02*
G01*
X169422101Y-120564529D01*
X169555255Y-120653499D01*
X169668501Y-120766745D01*
X169757471Y-120899899D01*
X169818758Y-121047858D01*
X169850000Y-121204925D01*
X169850000Y-121365075D01*
X169818758Y-121522142D01*
X169757471Y-121670101D01*
X169668501Y-121803255D01*
X169555255Y-121916501D01*
X169422101Y-122005471D01*
X169274142Y-122066758D01*
X169117075Y-122098000D01*
X168956925Y-122098000D01*
X168799858Y-122066758D01*
X168651899Y-122005471D01*
X168518745Y-121916501D01*
X168405499Y-121803255D01*
X168316529Y-121670101D01*
X168255242Y-121522142D01*
X168224000Y-121365075D01*
X168224000Y-121204925D01*
X168255242Y-121047858D01*
X168316529Y-120899899D01*
X168405499Y-120766745D01*
X168518745Y-120653499D01*
X168651899Y-120564529D01*
X168799858Y-120503242D01*
X168956925Y-120472000D01*
X169117075Y-120472000D01*
X169274142Y-120503242D01*
X169274142Y-120503242D01*
G37*
G36*
X171814142Y-120503242D02*
G01*
X171962101Y-120564529D01*
X172095255Y-120653499D01*
X172208501Y-120766745D01*
X172297471Y-120899899D01*
X172358758Y-121047858D01*
X172390000Y-121204925D01*
X172390000Y-121365075D01*
X172358758Y-121522142D01*
X172297471Y-121670101D01*
X172208501Y-121803255D01*
X172095255Y-121916501D01*
X171962101Y-122005471D01*
X171814142Y-122066758D01*
X171657075Y-122098000D01*
X171496925Y-122098000D01*
X171339858Y-122066758D01*
X171191899Y-122005471D01*
X171058745Y-121916501D01*
X170945499Y-121803255D01*
X170856529Y-121670101D01*
X170795242Y-121522142D01*
X170764000Y-121365075D01*
X170764000Y-121204925D01*
X170795242Y-121047858D01*
X170856529Y-120899899D01*
X170945499Y-120766745D01*
X171058745Y-120653499D01*
X171191899Y-120564529D01*
X171339858Y-120503242D01*
X171496925Y-120472000D01*
X171657075Y-120472000D01*
X171814142Y-120503242D01*
X171814142Y-120503242D01*
G37*
G36*
X166734142Y-120503242D02*
G01*
X166882101Y-120564529D01*
X167015255Y-120653499D01*
X167128501Y-120766745D01*
X167217471Y-120899899D01*
X167278758Y-121047858D01*
X167310000Y-121204925D01*
X167310000Y-121365075D01*
X167278758Y-121522142D01*
X167217471Y-121670101D01*
X167128501Y-121803255D01*
X167015255Y-121916501D01*
X166882101Y-122005471D01*
X166734142Y-122066758D01*
X166577075Y-122098000D01*
X166416925Y-122098000D01*
X166259858Y-122066758D01*
X166111899Y-122005471D01*
X165978745Y-121916501D01*
X165865499Y-121803255D01*
X165776529Y-121670101D01*
X165715242Y-121522142D01*
X165684000Y-121365075D01*
X165684000Y-121204925D01*
X165715242Y-121047858D01*
X165776529Y-120899899D01*
X165865499Y-120766745D01*
X165978745Y-120653499D01*
X166111899Y-120564529D01*
X166259858Y-120503242D01*
X166416925Y-120472000D01*
X166577075Y-120472000D01*
X166734142Y-120503242D01*
X166734142Y-120503242D01*
G37*
G36*
X164194142Y-120503242D02*
G01*
X164342101Y-120564529D01*
X164475255Y-120653499D01*
X164588501Y-120766745D01*
X164677471Y-120899899D01*
X164738758Y-121047858D01*
X164770000Y-121204925D01*
X164770000Y-121365075D01*
X164738758Y-121522142D01*
X164677471Y-121670101D01*
X164588501Y-121803255D01*
X164475255Y-121916501D01*
X164342101Y-122005471D01*
X164194142Y-122066758D01*
X164037075Y-122098000D01*
X163876925Y-122098000D01*
X163719858Y-122066758D01*
X163571899Y-122005471D01*
X163438745Y-121916501D01*
X163325499Y-121803255D01*
X163236529Y-121670101D01*
X163175242Y-121522142D01*
X163144000Y-121365075D01*
X163144000Y-121204925D01*
X163175242Y-121047858D01*
X163236529Y-120899899D01*
X163325499Y-120766745D01*
X163438745Y-120653499D01*
X163571899Y-120564529D01*
X163719858Y-120503242D01*
X163876925Y-120472000D01*
X164037075Y-120472000D01*
X164194142Y-120503242D01*
X164194142Y-120503242D01*
G37*
G36*
X161654142Y-120503242D02*
G01*
X161802101Y-120564529D01*
X161935255Y-120653499D01*
X162048501Y-120766745D01*
X162137471Y-120899899D01*
X162198758Y-121047858D01*
X162230000Y-121204925D01*
X162230000Y-121365075D01*
X162198758Y-121522142D01*
X162137471Y-121670101D01*
X162048501Y-121803255D01*
X161935255Y-121916501D01*
X161802101Y-122005471D01*
X161654142Y-122066758D01*
X161497075Y-122098000D01*
X161336925Y-122098000D01*
X161179858Y-122066758D01*
X161031899Y-122005471D01*
X160898745Y-121916501D01*
X160785499Y-121803255D01*
X160696529Y-121670101D01*
X160635242Y-121522142D01*
X160604000Y-121365075D01*
X160604000Y-121204925D01*
X160635242Y-121047858D01*
X160696529Y-120899899D01*
X160785499Y-120766745D01*
X160898745Y-120653499D01*
X161031899Y-120564529D01*
X161179858Y-120503242D01*
X161336925Y-120472000D01*
X161497075Y-120472000D01*
X161654142Y-120503242D01*
X161654142Y-120503242D01*
G37*
G36*
X159114142Y-120503242D02*
G01*
X159262101Y-120564529D01*
X159395255Y-120653499D01*
X159508501Y-120766745D01*
X159597471Y-120899899D01*
X159658758Y-121047858D01*
X159690000Y-121204925D01*
X159690000Y-121365075D01*
X159658758Y-121522142D01*
X159597471Y-121670101D01*
X159508501Y-121803255D01*
X159395255Y-121916501D01*
X159262101Y-122005471D01*
X159114142Y-122066758D01*
X158957075Y-122098000D01*
X158796925Y-122098000D01*
X158639858Y-122066758D01*
X158491899Y-122005471D01*
X158358745Y-121916501D01*
X158245499Y-121803255D01*
X158156529Y-121670101D01*
X158095242Y-121522142D01*
X158064000Y-121365075D01*
X158064000Y-121204925D01*
X158095242Y-121047858D01*
X158156529Y-120899899D01*
X158245499Y-120766745D01*
X158358745Y-120653499D01*
X158491899Y-120564529D01*
X158639858Y-120503242D01*
X158796925Y-120472000D01*
X158957075Y-120472000D01*
X159114142Y-120503242D01*
X159114142Y-120503242D01*
G37*
G36*
X156574142Y-120503242D02*
G01*
X156722101Y-120564529D01*
X156855255Y-120653499D01*
X156968501Y-120766745D01*
X157057471Y-120899899D01*
X157118758Y-121047858D01*
X157150000Y-121204925D01*
X157150000Y-121365075D01*
X157118758Y-121522142D01*
X157057471Y-121670101D01*
X156968501Y-121803255D01*
X156855255Y-121916501D01*
X156722101Y-122005471D01*
X156574142Y-122066758D01*
X156417075Y-122098000D01*
X156256925Y-122098000D01*
X156099858Y-122066758D01*
X155951899Y-122005471D01*
X155818745Y-121916501D01*
X155705499Y-121803255D01*
X155616529Y-121670101D01*
X155555242Y-121522142D01*
X155524000Y-121365075D01*
X155524000Y-121204925D01*
X155555242Y-121047858D01*
X155616529Y-120899899D01*
X155705499Y-120766745D01*
X155818745Y-120653499D01*
X155951899Y-120564529D01*
X156099858Y-120503242D01*
X156256925Y-120472000D01*
X156417075Y-120472000D01*
X156574142Y-120503242D01*
X156574142Y-120503242D01*
G37*
G36*
X154034142Y-120503242D02*
G01*
X154182101Y-120564529D01*
X154315255Y-120653499D01*
X154428501Y-120766745D01*
X154517471Y-120899899D01*
X154578758Y-121047858D01*
X154610000Y-121204925D01*
X154610000Y-121365075D01*
X154578758Y-121522142D01*
X154517471Y-121670101D01*
X154428501Y-121803255D01*
X154315255Y-121916501D01*
X154182101Y-122005471D01*
X154034142Y-122066758D01*
X153877075Y-122098000D01*
X153716925Y-122098000D01*
X153559858Y-122066758D01*
X153411899Y-122005471D01*
X153278745Y-121916501D01*
X153165499Y-121803255D01*
X153076529Y-121670101D01*
X153015242Y-121522142D01*
X152984000Y-121365075D01*
X152984000Y-121204925D01*
X153015242Y-121047858D01*
X153076529Y-120899899D01*
X153165499Y-120766745D01*
X153278745Y-120653499D01*
X153411899Y-120564529D01*
X153559858Y-120503242D01*
X153716925Y-120472000D01*
X153877075Y-120472000D01*
X154034142Y-120503242D01*
X154034142Y-120503242D01*
G37*
G36*
X151494142Y-120503242D02*
G01*
X151642101Y-120564529D01*
X151775255Y-120653499D01*
X151888501Y-120766745D01*
X151977471Y-120899899D01*
X152038758Y-121047858D01*
X152070000Y-121204925D01*
X152070000Y-121365075D01*
X152038758Y-121522142D01*
X151977471Y-121670101D01*
X151888501Y-121803255D01*
X151775255Y-121916501D01*
X151642101Y-122005471D01*
X151494142Y-122066758D01*
X151337075Y-122098000D01*
X151176925Y-122098000D01*
X151019858Y-122066758D01*
X150871899Y-122005471D01*
X150738745Y-121916501D01*
X150625499Y-121803255D01*
X150536529Y-121670101D01*
X150475242Y-121522142D01*
X150444000Y-121365075D01*
X150444000Y-121204925D01*
X150475242Y-121047858D01*
X150536529Y-120899899D01*
X150625499Y-120766745D01*
X150738745Y-120653499D01*
X150871899Y-120564529D01*
X151019858Y-120503242D01*
X151176925Y-120472000D01*
X151337075Y-120472000D01*
X151494142Y-120503242D01*
X151494142Y-120503242D01*
G37*
G36*
X148954142Y-120503242D02*
G01*
X149102101Y-120564529D01*
X149235255Y-120653499D01*
X149348501Y-120766745D01*
X149437471Y-120899899D01*
X149498758Y-121047858D01*
X149530000Y-121204925D01*
X149530000Y-121365075D01*
X149498758Y-121522142D01*
X149437471Y-121670101D01*
X149348501Y-121803255D01*
X149235255Y-121916501D01*
X149102101Y-122005471D01*
X148954142Y-122066758D01*
X148797075Y-122098000D01*
X148636925Y-122098000D01*
X148479858Y-122066758D01*
X148331899Y-122005471D01*
X148198745Y-121916501D01*
X148085499Y-121803255D01*
X147996529Y-121670101D01*
X147935242Y-121522142D01*
X147904000Y-121365075D01*
X147904000Y-121204925D01*
X147935242Y-121047858D01*
X147996529Y-120899899D01*
X148085499Y-120766745D01*
X148198745Y-120653499D01*
X148331899Y-120564529D01*
X148479858Y-120503242D01*
X148636925Y-120472000D01*
X148797075Y-120472000D01*
X148954142Y-120503242D01*
X148954142Y-120503242D01*
G37*
G36*
X146414142Y-120503242D02*
G01*
X146562101Y-120564529D01*
X146695255Y-120653499D01*
X146808501Y-120766745D01*
X146897471Y-120899899D01*
X146958758Y-121047858D01*
X146990000Y-121204925D01*
X146990000Y-121365075D01*
X146958758Y-121522142D01*
X146897471Y-121670101D01*
X146808501Y-121803255D01*
X146695255Y-121916501D01*
X146562101Y-122005471D01*
X146414142Y-122066758D01*
X146257075Y-122098000D01*
X146096925Y-122098000D01*
X145939858Y-122066758D01*
X145791899Y-122005471D01*
X145658745Y-121916501D01*
X145545499Y-121803255D01*
X145456529Y-121670101D01*
X145395242Y-121522142D01*
X145364000Y-121365075D01*
X145364000Y-121204925D01*
X145395242Y-121047858D01*
X145456529Y-120899899D01*
X145545499Y-120766745D01*
X145658745Y-120653499D01*
X145791899Y-120564529D01*
X145939858Y-120503242D01*
X146096925Y-120472000D01*
X146257075Y-120472000D01*
X146414142Y-120503242D01*
X146414142Y-120503242D01*
G37*
G36*
X177989890Y-117738017D02*
G01*
X178108364Y-117787091D01*
X178214988Y-117858335D01*
X178305665Y-117949012D01*
X178376909Y-118055636D01*
X178425983Y-118174110D01*
X178451000Y-118299882D01*
X178451000Y-118428118D01*
X178425983Y-118553890D01*
X178376909Y-118672364D01*
X178305665Y-118778988D01*
X178214988Y-118869665D01*
X178108364Y-118940909D01*
X177989890Y-118989983D01*
X177982751Y-118991403D01*
X177959302Y-118998516D01*
X177937691Y-119010067D01*
X177918749Y-119025612D01*
X177903203Y-119044554D01*
X177891652Y-119066164D01*
X177884539Y-119089613D01*
X177882137Y-119113999D01*
X177884539Y-119138385D01*
X177891652Y-119161834D01*
X177903203Y-119183445D01*
X177918748Y-119202387D01*
X177937690Y-119217933D01*
X177959300Y-119229484D01*
X177982751Y-119236597D01*
X177989890Y-119238017D01*
X178108364Y-119287091D01*
X178214988Y-119358335D01*
X178305665Y-119449012D01*
X178376909Y-119555636D01*
X178425983Y-119674110D01*
X178451000Y-119799882D01*
X178451000Y-119928118D01*
X178425983Y-120053890D01*
X178376909Y-120172364D01*
X178305665Y-120278988D01*
X178214988Y-120369665D01*
X178108364Y-120440909D01*
X178108363Y-120440910D01*
X178108362Y-120440910D01*
X177989890Y-120489983D01*
X177864119Y-120515000D01*
X177735881Y-120515000D01*
X177610110Y-120489983D01*
X177491638Y-120440910D01*
X177491637Y-120440910D01*
X177491636Y-120440909D01*
X177385012Y-120369665D01*
X177294335Y-120278988D01*
X177223091Y-120172364D01*
X177174017Y-120053890D01*
X177149000Y-119928118D01*
X177149000Y-119799882D01*
X177174017Y-119674110D01*
X177223091Y-119555636D01*
X177294335Y-119449012D01*
X177385012Y-119358335D01*
X177491636Y-119287091D01*
X177610110Y-119238017D01*
X177617249Y-119236597D01*
X177640698Y-119229484D01*
X177662309Y-119217933D01*
X177681251Y-119202388D01*
X177696797Y-119183446D01*
X177708348Y-119161836D01*
X177715461Y-119138387D01*
X177717863Y-119114001D01*
X177715461Y-119089615D01*
X177708348Y-119066166D01*
X177696797Y-119044555D01*
X177681252Y-119025613D01*
X177662310Y-119010067D01*
X177640700Y-118998516D01*
X177617249Y-118991403D01*
X177610110Y-118989983D01*
X177491636Y-118940909D01*
X177385012Y-118869665D01*
X177294335Y-118778988D01*
X177223091Y-118672364D01*
X177174017Y-118553890D01*
X177149000Y-118428118D01*
X177149000Y-118299882D01*
X177174017Y-118174110D01*
X177223091Y-118055636D01*
X177294335Y-117949012D01*
X177385012Y-117858335D01*
X177491636Y-117787091D01*
X177610110Y-117738017D01*
X177735881Y-117713000D01*
X177864119Y-117713000D01*
X177989890Y-117738017D01*
X177989890Y-117738017D01*
G37*
G36*
X122919142Y-115423242D02*
G01*
X123067101Y-115484529D01*
X123200255Y-115573499D01*
X123313501Y-115686745D01*
X123402471Y-115819899D01*
X123463758Y-115967858D01*
X123495000Y-116124925D01*
X123495000Y-116285075D01*
X123463758Y-116442142D01*
X123402471Y-116590101D01*
X123313501Y-116723255D01*
X123200255Y-116836501D01*
X123067101Y-116925471D01*
X122919142Y-116986758D01*
X122762075Y-117018000D01*
X122601925Y-117018000D01*
X122444858Y-116986758D01*
X122296899Y-116925471D01*
X122163745Y-116836501D01*
X122050499Y-116723255D01*
X121961529Y-116590101D01*
X121900242Y-116442142D01*
X121869000Y-116285075D01*
X121869000Y-116124925D01*
X121900242Y-115967858D01*
X121961529Y-115819899D01*
X122050499Y-115686745D01*
X122163745Y-115573499D01*
X122296899Y-115484529D01*
X122444858Y-115423242D01*
X122601925Y-115392000D01*
X122762075Y-115392000D01*
X122919142Y-115423242D01*
X122919142Y-115423242D01*
G37*
G36*
X125205142Y-115423242D02*
G01*
X125353101Y-115484529D01*
X125486255Y-115573499D01*
X125599501Y-115686745D01*
X125688471Y-115819899D01*
X125749758Y-115967858D01*
X125781000Y-116124925D01*
X125781000Y-116285075D01*
X125749758Y-116442142D01*
X125688471Y-116590101D01*
X125599501Y-116723255D01*
X125486255Y-116836501D01*
X125353101Y-116925471D01*
X125205142Y-116986758D01*
X125048075Y-117018000D01*
X124887925Y-117018000D01*
X124730858Y-116986758D01*
X124582899Y-116925471D01*
X124449745Y-116836501D01*
X124336499Y-116723255D01*
X124247529Y-116590101D01*
X124186242Y-116442142D01*
X124155000Y-116285075D01*
X124155000Y-116124925D01*
X124186242Y-115967858D01*
X124247529Y-115819899D01*
X124336499Y-115686745D01*
X124449745Y-115573499D01*
X124582899Y-115484529D01*
X124730858Y-115423242D01*
X124887925Y-115392000D01*
X125048075Y-115392000D01*
X125205142Y-115423242D01*
X125205142Y-115423242D01*
G37*
G36*
X133460142Y-115423242D02*
G01*
X133608101Y-115484529D01*
X133741255Y-115573499D01*
X133854501Y-115686745D01*
X133943471Y-115819899D01*
X134004758Y-115967858D01*
X134036000Y-116124925D01*
X134036000Y-116285075D01*
X134004758Y-116442142D01*
X133943471Y-116590101D01*
X133854501Y-116723255D01*
X133741255Y-116836501D01*
X133608101Y-116925471D01*
X133460142Y-116986758D01*
X133303075Y-117018000D01*
X133142925Y-117018000D01*
X132985858Y-116986758D01*
X132837899Y-116925471D01*
X132704745Y-116836501D01*
X132591499Y-116723255D01*
X132502529Y-116590101D01*
X132441242Y-116442142D01*
X132410000Y-116285075D01*
X132410000Y-116124925D01*
X132441242Y-115967858D01*
X132502529Y-115819899D01*
X132591499Y-115686745D01*
X132704745Y-115573499D01*
X132837899Y-115484529D01*
X132985858Y-115423242D01*
X133142925Y-115392000D01*
X133303075Y-115392000D01*
X133460142Y-115423242D01*
X133460142Y-115423242D01*
G37*
G36*
X131174142Y-115423242D02*
G01*
X131322101Y-115484529D01*
X131455255Y-115573499D01*
X131568501Y-115686745D01*
X131657471Y-115819899D01*
X131718758Y-115967858D01*
X131750000Y-116124925D01*
X131750000Y-116285075D01*
X131718758Y-116442142D01*
X131657471Y-116590101D01*
X131568501Y-116723255D01*
X131455255Y-116836501D01*
X131322101Y-116925471D01*
X131174142Y-116986758D01*
X131017075Y-117018000D01*
X130856925Y-117018000D01*
X130699858Y-116986758D01*
X130551899Y-116925471D01*
X130418745Y-116836501D01*
X130305499Y-116723255D01*
X130216529Y-116590101D01*
X130155242Y-116442142D01*
X130124000Y-116285075D01*
X130124000Y-116124925D01*
X130155242Y-115967858D01*
X130216529Y-115819899D01*
X130305499Y-115686745D01*
X130418745Y-115573499D01*
X130551899Y-115484529D01*
X130699858Y-115423242D01*
X130856925Y-115392000D01*
X131017075Y-115392000D01*
X131174142Y-115423242D01*
X131174142Y-115423242D01*
G37*
G36*
X108695142Y-115423242D02*
G01*
X108843101Y-115484529D01*
X108976255Y-115573499D01*
X109089501Y-115686745D01*
X109178471Y-115819899D01*
X109239758Y-115967858D01*
X109271000Y-116124925D01*
X109271000Y-116285075D01*
X109239758Y-116442142D01*
X109178471Y-116590101D01*
X109089501Y-116723255D01*
X108976255Y-116836501D01*
X108843101Y-116925471D01*
X108695142Y-116986758D01*
X108538075Y-117018000D01*
X108377925Y-117018000D01*
X108220858Y-116986758D01*
X108072899Y-116925471D01*
X107939745Y-116836501D01*
X107826499Y-116723255D01*
X107737529Y-116590101D01*
X107676242Y-116442142D01*
X107645000Y-116285075D01*
X107645000Y-116124925D01*
X107676242Y-115967858D01*
X107737529Y-115819899D01*
X107826499Y-115686745D01*
X107939745Y-115573499D01*
X108072899Y-115484529D01*
X108220858Y-115423242D01*
X108377925Y-115392000D01*
X108538075Y-115392000D01*
X108695142Y-115423242D01*
X108695142Y-115423242D01*
G37*
G36*
X106409142Y-115423242D02*
G01*
X106557101Y-115484529D01*
X106690255Y-115573499D01*
X106803501Y-115686745D01*
X106892471Y-115819899D01*
X106953758Y-115967858D01*
X106985000Y-116124925D01*
X106985000Y-116285075D01*
X106953758Y-116442142D01*
X106892471Y-116590101D01*
X106803501Y-116723255D01*
X106690255Y-116836501D01*
X106557101Y-116925471D01*
X106409142Y-116986758D01*
X106252075Y-117018000D01*
X106091925Y-117018000D01*
X105934858Y-116986758D01*
X105786899Y-116925471D01*
X105653745Y-116836501D01*
X105540499Y-116723255D01*
X105451529Y-116590101D01*
X105390242Y-116442142D01*
X105359000Y-116285075D01*
X105359000Y-116124925D01*
X105390242Y-115967858D01*
X105451529Y-115819899D01*
X105540499Y-115686745D01*
X105653745Y-115573499D01*
X105786899Y-115484529D01*
X105934858Y-115423242D01*
X106091925Y-115392000D01*
X106252075Y-115392000D01*
X106409142Y-115423242D01*
X106409142Y-115423242D01*
G37*
G36*
X117077142Y-115423242D02*
G01*
X117225101Y-115484529D01*
X117358255Y-115573499D01*
X117471501Y-115686745D01*
X117560471Y-115819899D01*
X117621758Y-115967858D01*
X117653000Y-116124925D01*
X117653000Y-116285075D01*
X117621758Y-116442142D01*
X117560471Y-116590101D01*
X117471501Y-116723255D01*
X117358255Y-116836501D01*
X117225101Y-116925471D01*
X117077142Y-116986758D01*
X116920075Y-117018000D01*
X116759925Y-117018000D01*
X116602858Y-116986758D01*
X116454899Y-116925471D01*
X116321745Y-116836501D01*
X116208499Y-116723255D01*
X116119529Y-116590101D01*
X116058242Y-116442142D01*
X116027000Y-116285075D01*
X116027000Y-116124925D01*
X116058242Y-115967858D01*
X116119529Y-115819899D01*
X116208499Y-115686745D01*
X116321745Y-115573499D01*
X116454899Y-115484529D01*
X116602858Y-115423242D01*
X116759925Y-115392000D01*
X116920075Y-115392000D01*
X117077142Y-115423242D01*
X117077142Y-115423242D01*
G37*
G36*
X114791142Y-115423242D02*
G01*
X114939101Y-115484529D01*
X115072255Y-115573499D01*
X115185501Y-115686745D01*
X115274471Y-115819899D01*
X115335758Y-115967858D01*
X115367000Y-116124925D01*
X115367000Y-116285075D01*
X115335758Y-116442142D01*
X115274471Y-116590101D01*
X115185501Y-116723255D01*
X115072255Y-116836501D01*
X114939101Y-116925471D01*
X114791142Y-116986758D01*
X114634075Y-117018000D01*
X114473925Y-117018000D01*
X114316858Y-116986758D01*
X114168899Y-116925471D01*
X114035745Y-116836501D01*
X113922499Y-116723255D01*
X113833529Y-116590101D01*
X113772242Y-116442142D01*
X113741000Y-116285075D01*
X113741000Y-116124925D01*
X113772242Y-115967858D01*
X113833529Y-115819899D01*
X113922499Y-115686745D01*
X114035745Y-115573499D01*
X114168899Y-115484529D01*
X114316858Y-115423242D01*
X114473925Y-115392000D01*
X114634075Y-115392000D01*
X114791142Y-115423242D01*
X114791142Y-115423242D01*
G37*
G36*
X186371000Y-114496000D02*
G01*
X185169000Y-114496000D01*
X185169000Y-110294000D01*
X186371000Y-110294000D01*
X186371000Y-114496000D01*
X186371000Y-114496000D01*
G37*
G36*
X192321000Y-113996000D02*
G01*
X191219000Y-113996000D01*
X191219000Y-110794000D01*
X192321000Y-110794000D01*
X192321000Y-113996000D01*
X192321000Y-113996000D01*
G37*
G36*
X110346142Y-108184242D02*
G01*
X110494101Y-108245529D01*
X110627255Y-108334499D01*
X110740501Y-108447745D01*
X110829471Y-108580899D01*
X110890758Y-108728858D01*
X110922000Y-108885925D01*
X110922000Y-109046075D01*
X110890758Y-109203142D01*
X110829471Y-109351101D01*
X110740501Y-109484255D01*
X110627255Y-109597501D01*
X110494101Y-109686471D01*
X110346142Y-109747758D01*
X110189075Y-109779000D01*
X110028925Y-109779000D01*
X109871858Y-109747758D01*
X109723899Y-109686471D01*
X109590745Y-109597501D01*
X109477499Y-109484255D01*
X109388529Y-109351101D01*
X109327242Y-109203142D01*
X109296000Y-109046075D01*
X109296000Y-108885925D01*
X109327242Y-108728858D01*
X109388529Y-108580899D01*
X109477499Y-108447745D01*
X109590745Y-108334499D01*
X109723899Y-108245529D01*
X109871858Y-108184242D01*
X110028925Y-108153000D01*
X110189075Y-108153000D01*
X110346142Y-108184242D01*
X110346142Y-108184242D01*
G37*
G36*
X134857142Y-108184242D02*
G01*
X135005101Y-108245529D01*
X135138255Y-108334499D01*
X135251501Y-108447745D01*
X135340471Y-108580899D01*
X135401758Y-108728858D01*
X135433000Y-108885925D01*
X135433000Y-109046075D01*
X135401758Y-109203142D01*
X135340471Y-109351101D01*
X135251501Y-109484255D01*
X135138255Y-109597501D01*
X135005101Y-109686471D01*
X134857142Y-109747758D01*
X134700075Y-109779000D01*
X134539925Y-109779000D01*
X134382858Y-109747758D01*
X134234899Y-109686471D01*
X134101745Y-109597501D01*
X133988499Y-109484255D01*
X133899529Y-109351101D01*
X133838242Y-109203142D01*
X133807000Y-109046075D01*
X133807000Y-108885925D01*
X133838242Y-108728858D01*
X133899529Y-108580899D01*
X133988499Y-108447745D01*
X134101745Y-108334499D01*
X134234899Y-108245529D01*
X134382858Y-108184242D01*
X134539925Y-108153000D01*
X134700075Y-108153000D01*
X134857142Y-108184242D01*
X134857142Y-108184242D01*
G37*
G36*
X137143142Y-108184242D02*
G01*
X137291101Y-108245529D01*
X137424255Y-108334499D01*
X137537501Y-108447745D01*
X137626471Y-108580899D01*
X137687758Y-108728858D01*
X137719000Y-108885925D01*
X137719000Y-109046075D01*
X137687758Y-109203142D01*
X137626471Y-109351101D01*
X137537501Y-109484255D01*
X137424255Y-109597501D01*
X137291101Y-109686471D01*
X137143142Y-109747758D01*
X136986075Y-109779000D01*
X136825925Y-109779000D01*
X136668858Y-109747758D01*
X136520899Y-109686471D01*
X136387745Y-109597501D01*
X136274499Y-109484255D01*
X136185529Y-109351101D01*
X136124242Y-109203142D01*
X136093000Y-109046075D01*
X136093000Y-108885925D01*
X136124242Y-108728858D01*
X136185529Y-108580899D01*
X136274499Y-108447745D01*
X136387745Y-108334499D01*
X136520899Y-108245529D01*
X136668858Y-108184242D01*
X136825925Y-108153000D01*
X136986075Y-108153000D01*
X137143142Y-108184242D01*
X137143142Y-108184242D01*
G37*
G36*
X120887142Y-108184242D02*
G01*
X121035101Y-108245529D01*
X121168255Y-108334499D01*
X121281501Y-108447745D01*
X121370471Y-108580899D01*
X121431758Y-108728858D01*
X121463000Y-108885925D01*
X121463000Y-109046075D01*
X121431758Y-109203142D01*
X121370471Y-109351101D01*
X121281501Y-109484255D01*
X121168255Y-109597501D01*
X121035101Y-109686471D01*
X120887142Y-109747758D01*
X120730075Y-109779000D01*
X120569925Y-109779000D01*
X120412858Y-109747758D01*
X120264899Y-109686471D01*
X120131745Y-109597501D01*
X120018499Y-109484255D01*
X119929529Y-109351101D01*
X119868242Y-109203142D01*
X119837000Y-109046075D01*
X119837000Y-108885925D01*
X119868242Y-108728858D01*
X119929529Y-108580899D01*
X120018499Y-108447745D01*
X120131745Y-108334499D01*
X120264899Y-108245529D01*
X120412858Y-108184242D01*
X120569925Y-108153000D01*
X120730075Y-108153000D01*
X120887142Y-108184242D01*
X120887142Y-108184242D01*
G37*
G36*
X112632142Y-108184242D02*
G01*
X112780101Y-108245529D01*
X112913255Y-108334499D01*
X113026501Y-108447745D01*
X113115471Y-108580899D01*
X113176758Y-108728858D01*
X113208000Y-108885925D01*
X113208000Y-109046075D01*
X113176758Y-109203142D01*
X113115471Y-109351101D01*
X113026501Y-109484255D01*
X112913255Y-109597501D01*
X112780101Y-109686471D01*
X112632142Y-109747758D01*
X112475075Y-109779000D01*
X112314925Y-109779000D01*
X112157858Y-109747758D01*
X112009899Y-109686471D01*
X111876745Y-109597501D01*
X111763499Y-109484255D01*
X111674529Y-109351101D01*
X111613242Y-109203142D01*
X111582000Y-109046075D01*
X111582000Y-108885925D01*
X111613242Y-108728858D01*
X111674529Y-108580899D01*
X111763499Y-108447745D01*
X111876745Y-108334499D01*
X112009899Y-108245529D01*
X112157858Y-108184242D01*
X112314925Y-108153000D01*
X112475075Y-108153000D01*
X112632142Y-108184242D01*
X112632142Y-108184242D01*
G37*
G36*
X126729142Y-108184242D02*
G01*
X126877101Y-108245529D01*
X127010255Y-108334499D01*
X127123501Y-108447745D01*
X127212471Y-108580899D01*
X127273758Y-108728858D01*
X127305000Y-108885925D01*
X127305000Y-109046075D01*
X127273758Y-109203142D01*
X127212471Y-109351101D01*
X127123501Y-109484255D01*
X127010255Y-109597501D01*
X126877101Y-109686471D01*
X126729142Y-109747758D01*
X126572075Y-109779000D01*
X126411925Y-109779000D01*
X126254858Y-109747758D01*
X126106899Y-109686471D01*
X125973745Y-109597501D01*
X125860499Y-109484255D01*
X125771529Y-109351101D01*
X125710242Y-109203142D01*
X125679000Y-109046075D01*
X125679000Y-108885925D01*
X125710242Y-108728858D01*
X125771529Y-108580899D01*
X125860499Y-108447745D01*
X125973745Y-108334499D01*
X126106899Y-108245529D01*
X126254858Y-108184242D01*
X126411925Y-108153000D01*
X126572075Y-108153000D01*
X126729142Y-108184242D01*
X126729142Y-108184242D01*
G37*
G36*
X129015142Y-108184242D02*
G01*
X129163101Y-108245529D01*
X129296255Y-108334499D01*
X129409501Y-108447745D01*
X129498471Y-108580899D01*
X129559758Y-108728858D01*
X129591000Y-108885925D01*
X129591000Y-109046075D01*
X129559758Y-109203142D01*
X129498471Y-109351101D01*
X129409501Y-109484255D01*
X129296255Y-109597501D01*
X129163101Y-109686471D01*
X129015142Y-109747758D01*
X128858075Y-109779000D01*
X128697925Y-109779000D01*
X128540858Y-109747758D01*
X128392899Y-109686471D01*
X128259745Y-109597501D01*
X128146499Y-109484255D01*
X128057529Y-109351101D01*
X127996242Y-109203142D01*
X127965000Y-109046075D01*
X127965000Y-108885925D01*
X127996242Y-108728858D01*
X128057529Y-108580899D01*
X128146499Y-108447745D01*
X128259745Y-108334499D01*
X128392899Y-108245529D01*
X128540858Y-108184242D01*
X128697925Y-108153000D01*
X128858075Y-108153000D01*
X129015142Y-108184242D01*
X129015142Y-108184242D01*
G37*
G36*
X118601142Y-108184242D02*
G01*
X118749101Y-108245529D01*
X118882255Y-108334499D01*
X118995501Y-108447745D01*
X119084471Y-108580899D01*
X119145758Y-108728858D01*
X119177000Y-108885925D01*
X119177000Y-109046075D01*
X119145758Y-109203142D01*
X119084471Y-109351101D01*
X118995501Y-109484255D01*
X118882255Y-109597501D01*
X118749101Y-109686471D01*
X118601142Y-109747758D01*
X118444075Y-109779000D01*
X118283925Y-109779000D01*
X118126858Y-109747758D01*
X117978899Y-109686471D01*
X117845745Y-109597501D01*
X117732499Y-109484255D01*
X117643529Y-109351101D01*
X117582242Y-109203142D01*
X117551000Y-109046075D01*
X117551000Y-108885925D01*
X117582242Y-108728858D01*
X117643529Y-108580899D01*
X117732499Y-108447745D01*
X117845745Y-108334499D01*
X117978899Y-108245529D01*
X118126858Y-108184242D01*
X118283925Y-108153000D01*
X118444075Y-108153000D01*
X118601142Y-108184242D01*
X118601142Y-108184242D01*
G37*
G36*
X146414142Y-105263242D02*
G01*
X146562101Y-105324529D01*
X146695255Y-105413499D01*
X146808501Y-105526745D01*
X146897471Y-105659899D01*
X146958758Y-105807858D01*
X146990000Y-105964925D01*
X146990000Y-106125075D01*
X146958758Y-106282142D01*
X146897471Y-106430101D01*
X146808501Y-106563255D01*
X146695255Y-106676501D01*
X146562101Y-106765471D01*
X146414142Y-106826758D01*
X146257075Y-106858000D01*
X146096925Y-106858000D01*
X145939858Y-106826758D01*
X145791899Y-106765471D01*
X145658745Y-106676501D01*
X145545499Y-106563255D01*
X145456529Y-106430101D01*
X145395242Y-106282142D01*
X145364000Y-106125075D01*
X145364000Y-105964925D01*
X145395242Y-105807858D01*
X145456529Y-105659899D01*
X145545499Y-105526745D01*
X145658745Y-105413499D01*
X145791899Y-105324529D01*
X145939858Y-105263242D01*
X146096925Y-105232000D01*
X146257075Y-105232000D01*
X146414142Y-105263242D01*
X146414142Y-105263242D01*
G37*
G36*
X166734142Y-105263242D02*
G01*
X166882101Y-105324529D01*
X167015255Y-105413499D01*
X167128501Y-105526745D01*
X167217471Y-105659899D01*
X167278758Y-105807858D01*
X167310000Y-105964925D01*
X167310000Y-106125075D01*
X167278758Y-106282142D01*
X167217471Y-106430101D01*
X167128501Y-106563255D01*
X167015255Y-106676501D01*
X166882101Y-106765471D01*
X166734142Y-106826758D01*
X166577075Y-106858000D01*
X166416925Y-106858000D01*
X166259858Y-106826758D01*
X166111899Y-106765471D01*
X165978745Y-106676501D01*
X165865499Y-106563255D01*
X165776529Y-106430101D01*
X165715242Y-106282142D01*
X165684000Y-106125075D01*
X165684000Y-105964925D01*
X165715242Y-105807858D01*
X165776529Y-105659899D01*
X165865499Y-105526745D01*
X165978745Y-105413499D01*
X166111899Y-105324529D01*
X166259858Y-105263242D01*
X166416925Y-105232000D01*
X166577075Y-105232000D01*
X166734142Y-105263242D01*
X166734142Y-105263242D01*
G37*
G36*
X169274142Y-105263242D02*
G01*
X169422101Y-105324529D01*
X169555255Y-105413499D01*
X169668501Y-105526745D01*
X169757471Y-105659899D01*
X169818758Y-105807858D01*
X169850000Y-105964925D01*
X169850000Y-106125075D01*
X169818758Y-106282142D01*
X169757471Y-106430101D01*
X169668501Y-106563255D01*
X169555255Y-106676501D01*
X169422101Y-106765471D01*
X169274142Y-106826758D01*
X169117075Y-106858000D01*
X168956925Y-106858000D01*
X168799858Y-106826758D01*
X168651899Y-106765471D01*
X168518745Y-106676501D01*
X168405499Y-106563255D01*
X168316529Y-106430101D01*
X168255242Y-106282142D01*
X168224000Y-106125075D01*
X168224000Y-105964925D01*
X168255242Y-105807858D01*
X168316529Y-105659899D01*
X168405499Y-105526745D01*
X168518745Y-105413499D01*
X168651899Y-105324529D01*
X168799858Y-105263242D01*
X168956925Y-105232000D01*
X169117075Y-105232000D01*
X169274142Y-105263242D01*
X169274142Y-105263242D01*
G37*
G36*
X164194142Y-105263242D02*
G01*
X164342101Y-105324529D01*
X164475255Y-105413499D01*
X164588501Y-105526745D01*
X164677471Y-105659899D01*
X164738758Y-105807858D01*
X164770000Y-105964925D01*
X164770000Y-106125075D01*
X164738758Y-106282142D01*
X164677471Y-106430101D01*
X164588501Y-106563255D01*
X164475255Y-106676501D01*
X164342101Y-106765471D01*
X164194142Y-106826758D01*
X164037075Y-106858000D01*
X163876925Y-106858000D01*
X163719858Y-106826758D01*
X163571899Y-106765471D01*
X163438745Y-106676501D01*
X163325499Y-106563255D01*
X163236529Y-106430101D01*
X163175242Y-106282142D01*
X163144000Y-106125075D01*
X163144000Y-105964925D01*
X163175242Y-105807858D01*
X163236529Y-105659899D01*
X163325499Y-105526745D01*
X163438745Y-105413499D01*
X163571899Y-105324529D01*
X163719858Y-105263242D01*
X163876925Y-105232000D01*
X164037075Y-105232000D01*
X164194142Y-105263242D01*
X164194142Y-105263242D01*
G37*
G36*
X156574142Y-105263242D02*
G01*
X156722101Y-105324529D01*
X156855255Y-105413499D01*
X156968501Y-105526745D01*
X157057471Y-105659899D01*
X157118758Y-105807858D01*
X157150000Y-105964925D01*
X157150000Y-106125075D01*
X157118758Y-106282142D01*
X157057471Y-106430101D01*
X156968501Y-106563255D01*
X156855255Y-106676501D01*
X156722101Y-106765471D01*
X156574142Y-106826758D01*
X156417075Y-106858000D01*
X156256925Y-106858000D01*
X156099858Y-106826758D01*
X155951899Y-106765471D01*
X155818745Y-106676501D01*
X155705499Y-106563255D01*
X155616529Y-106430101D01*
X155555242Y-106282142D01*
X155524000Y-106125075D01*
X155524000Y-105964925D01*
X155555242Y-105807858D01*
X155616529Y-105659899D01*
X155705499Y-105526745D01*
X155818745Y-105413499D01*
X155951899Y-105324529D01*
X156099858Y-105263242D01*
X156256925Y-105232000D01*
X156417075Y-105232000D01*
X156574142Y-105263242D01*
X156574142Y-105263242D01*
G37*
G36*
X171814142Y-105263242D02*
G01*
X171962101Y-105324529D01*
X172095255Y-105413499D01*
X172208501Y-105526745D01*
X172297471Y-105659899D01*
X172358758Y-105807858D01*
X172390000Y-105964925D01*
X172390000Y-106125075D01*
X172358758Y-106282142D01*
X172297471Y-106430101D01*
X172208501Y-106563255D01*
X172095255Y-106676501D01*
X171962101Y-106765471D01*
X171814142Y-106826758D01*
X171657075Y-106858000D01*
X171496925Y-106858000D01*
X171339858Y-106826758D01*
X171191899Y-106765471D01*
X171058745Y-106676501D01*
X170945499Y-106563255D01*
X170856529Y-106430101D01*
X170795242Y-106282142D01*
X170764000Y-106125075D01*
X170764000Y-105964925D01*
X170795242Y-105807858D01*
X170856529Y-105659899D01*
X170945499Y-105526745D01*
X171058745Y-105413499D01*
X171191899Y-105324529D01*
X171339858Y-105263242D01*
X171496925Y-105232000D01*
X171657075Y-105232000D01*
X171814142Y-105263242D01*
X171814142Y-105263242D01*
G37*
G36*
X151494142Y-105263242D02*
G01*
X151642101Y-105324529D01*
X151775255Y-105413499D01*
X151888501Y-105526745D01*
X151977471Y-105659899D01*
X152038758Y-105807858D01*
X152070000Y-105964925D01*
X152070000Y-106125075D01*
X152038758Y-106282142D01*
X151977471Y-106430101D01*
X151888501Y-106563255D01*
X151775255Y-106676501D01*
X151642101Y-106765471D01*
X151494142Y-106826758D01*
X151337075Y-106858000D01*
X151176925Y-106858000D01*
X151019858Y-106826758D01*
X150871899Y-106765471D01*
X150738745Y-106676501D01*
X150625499Y-106563255D01*
X150536529Y-106430101D01*
X150475242Y-106282142D01*
X150444000Y-106125075D01*
X150444000Y-105964925D01*
X150475242Y-105807858D01*
X150536529Y-105659899D01*
X150625499Y-105526745D01*
X150738745Y-105413499D01*
X150871899Y-105324529D01*
X151019858Y-105263242D01*
X151176925Y-105232000D01*
X151337075Y-105232000D01*
X151494142Y-105263242D01*
X151494142Y-105263242D01*
G37*
G36*
X154034142Y-105263242D02*
G01*
X154182101Y-105324529D01*
X154315255Y-105413499D01*
X154428501Y-105526745D01*
X154517471Y-105659899D01*
X154578758Y-105807858D01*
X154610000Y-105964925D01*
X154610000Y-106125075D01*
X154578758Y-106282142D01*
X154517471Y-106430101D01*
X154428501Y-106563255D01*
X154315255Y-106676501D01*
X154182101Y-106765471D01*
X154034142Y-106826758D01*
X153877075Y-106858000D01*
X153716925Y-106858000D01*
X153559858Y-106826758D01*
X153411899Y-106765471D01*
X153278745Y-106676501D01*
X153165499Y-106563255D01*
X153076529Y-106430101D01*
X153015242Y-106282142D01*
X152984000Y-106125075D01*
X152984000Y-105964925D01*
X153015242Y-105807858D01*
X153076529Y-105659899D01*
X153165499Y-105526745D01*
X153278745Y-105413499D01*
X153411899Y-105324529D01*
X153559858Y-105263242D01*
X153716925Y-105232000D01*
X153877075Y-105232000D01*
X154034142Y-105263242D01*
X154034142Y-105263242D01*
G37*
G36*
X159114142Y-105263242D02*
G01*
X159262101Y-105324529D01*
X159395255Y-105413499D01*
X159508501Y-105526745D01*
X159597471Y-105659899D01*
X159658758Y-105807858D01*
X159690000Y-105964925D01*
X159690000Y-106125075D01*
X159658758Y-106282142D01*
X159597471Y-106430101D01*
X159508501Y-106563255D01*
X159395255Y-106676501D01*
X159262101Y-106765471D01*
X159114142Y-106826758D01*
X158957075Y-106858000D01*
X158796925Y-106858000D01*
X158639858Y-106826758D01*
X158491899Y-106765471D01*
X158358745Y-106676501D01*
X158245499Y-106563255D01*
X158156529Y-106430101D01*
X158095242Y-106282142D01*
X158064000Y-106125075D01*
X158064000Y-105964925D01*
X158095242Y-105807858D01*
X158156529Y-105659899D01*
X158245499Y-105526745D01*
X158358745Y-105413499D01*
X158491899Y-105324529D01*
X158639858Y-105263242D01*
X158796925Y-105232000D01*
X158957075Y-105232000D01*
X159114142Y-105263242D01*
X159114142Y-105263242D01*
G37*
G36*
X161654142Y-105263242D02*
G01*
X161802101Y-105324529D01*
X161935255Y-105413499D01*
X162048501Y-105526745D01*
X162137471Y-105659899D01*
X162198758Y-105807858D01*
X162230000Y-105964925D01*
X162230000Y-106125075D01*
X162198758Y-106282142D01*
X162137471Y-106430101D01*
X162048501Y-106563255D01*
X161935255Y-106676501D01*
X161802101Y-106765471D01*
X161654142Y-106826758D01*
X161497075Y-106858000D01*
X161336925Y-106858000D01*
X161179858Y-106826758D01*
X161031899Y-106765471D01*
X160898745Y-106676501D01*
X160785499Y-106563255D01*
X160696529Y-106430101D01*
X160635242Y-106282142D01*
X160604000Y-106125075D01*
X160604000Y-105964925D01*
X160635242Y-105807858D01*
X160696529Y-105659899D01*
X160785499Y-105526745D01*
X160898745Y-105413499D01*
X161031899Y-105324529D01*
X161179858Y-105263242D01*
X161336925Y-105232000D01*
X161497075Y-105232000D01*
X161654142Y-105263242D01*
X161654142Y-105263242D01*
G37*
G36*
X143874142Y-105263242D02*
G01*
X144022101Y-105324529D01*
X144155255Y-105413499D01*
X144268501Y-105526745D01*
X144357471Y-105659899D01*
X144418758Y-105807858D01*
X144450000Y-105964925D01*
X144450000Y-106125075D01*
X144418758Y-106282142D01*
X144357471Y-106430101D01*
X144268501Y-106563255D01*
X144155255Y-106676501D01*
X144022101Y-106765471D01*
X143874142Y-106826758D01*
X143717075Y-106858000D01*
X143556925Y-106858000D01*
X143399858Y-106826758D01*
X143251899Y-106765471D01*
X143118745Y-106676501D01*
X143005499Y-106563255D01*
X142916529Y-106430101D01*
X142855242Y-106282142D01*
X142824000Y-106125075D01*
X142824000Y-105964925D01*
X142855242Y-105807858D01*
X142916529Y-105659899D01*
X143005499Y-105526745D01*
X143118745Y-105413499D01*
X143251899Y-105324529D01*
X143399858Y-105263242D01*
X143556925Y-105232000D01*
X143717075Y-105232000D01*
X143874142Y-105263242D01*
X143874142Y-105263242D01*
G37*
G36*
X148954142Y-105263242D02*
G01*
X149102101Y-105324529D01*
X149235255Y-105413499D01*
X149348501Y-105526745D01*
X149437471Y-105659899D01*
X149498758Y-105807858D01*
X149530000Y-105964925D01*
X149530000Y-106125075D01*
X149498758Y-106282142D01*
X149437471Y-106430101D01*
X149348501Y-106563255D01*
X149235255Y-106676501D01*
X149102101Y-106765471D01*
X148954142Y-106826758D01*
X148797075Y-106858000D01*
X148636925Y-106858000D01*
X148479858Y-106826758D01*
X148331899Y-106765471D01*
X148198745Y-106676501D01*
X148085499Y-106563255D01*
X147996529Y-106430101D01*
X147935242Y-106282142D01*
X147904000Y-106125075D01*
X147904000Y-105964925D01*
X147935242Y-105807858D01*
X147996529Y-105659899D01*
X148085499Y-105526745D01*
X148198745Y-105413499D01*
X148331899Y-105324529D01*
X148479858Y-105263242D01*
X148636925Y-105232000D01*
X148797075Y-105232000D01*
X148954142Y-105263242D01*
X148954142Y-105263242D01*
G37*
G36*
X192668254Y-99252818D02*
G01*
X193041511Y-99407426D01*
X193041513Y-99407427D01*
X193377436Y-99631884D01*
X193663116Y-99917564D01*
X193859352Y-100211251D01*
X193887574Y-100253489D01*
X194042182Y-100626746D01*
X194121000Y-101022993D01*
X194121000Y-101427007D01*
X194042182Y-101823254D01*
X193887574Y-102196511D01*
X193887573Y-102196513D01*
X193663116Y-102532436D01*
X193377436Y-102818116D01*
X193041513Y-103042573D01*
X193041512Y-103042574D01*
X193041511Y-103042574D01*
X192668254Y-103197182D01*
X192272007Y-103276000D01*
X191867993Y-103276000D01*
X191471746Y-103197182D01*
X191098489Y-103042574D01*
X191098488Y-103042574D01*
X191098487Y-103042573D01*
X190762564Y-102818116D01*
X190476884Y-102532436D01*
X190252427Y-102196513D01*
X190252426Y-102196511D01*
X190097818Y-101823254D01*
X190019000Y-101427007D01*
X190019000Y-101022993D01*
X190097818Y-100626746D01*
X190252426Y-100253489D01*
X190280649Y-100211251D01*
X190476884Y-99917564D01*
X190762564Y-99631884D01*
X191098487Y-99407427D01*
X191098489Y-99407426D01*
X191471746Y-99252818D01*
X191867993Y-99174000D01*
X192272007Y-99174000D01*
X192668254Y-99252818D01*
X192668254Y-99252818D01*
G37*
G36*
X184668254Y-99252818D02*
G01*
X185041511Y-99407426D01*
X185041513Y-99407427D01*
X185377436Y-99631884D01*
X185663116Y-99917564D01*
X185859352Y-100211251D01*
X185887574Y-100253489D01*
X186042182Y-100626746D01*
X186121000Y-101022993D01*
X186121000Y-101427007D01*
X186042182Y-101823254D01*
X185887574Y-102196511D01*
X185887573Y-102196513D01*
X185663116Y-102532436D01*
X185377436Y-102818116D01*
X185041513Y-103042573D01*
X185041512Y-103042574D01*
X185041511Y-103042574D01*
X184668254Y-103197182D01*
X184272007Y-103276000D01*
X183867993Y-103276000D01*
X183471746Y-103197182D01*
X183098489Y-103042574D01*
X183098488Y-103042574D01*
X183098487Y-103042573D01*
X182762564Y-102818116D01*
X182476884Y-102532436D01*
X182252427Y-102196513D01*
X182252426Y-102196511D01*
X182097818Y-101823254D01*
X182019000Y-101427007D01*
X182019000Y-101022993D01*
X182097818Y-100626746D01*
X182252426Y-100253489D01*
X182280649Y-100211251D01*
X182476884Y-99917564D01*
X182762564Y-99631884D01*
X183098487Y-99407427D01*
X183098489Y-99407426D01*
X183471746Y-99252818D01*
X183867993Y-99174000D01*
X184272007Y-99174000D01*
X184668254Y-99252818D01*
X184668254Y-99252818D01*
G37*
G36*
X134222142Y-100183242D02*
G01*
X134370101Y-100244529D01*
X134503255Y-100333499D01*
X134616501Y-100446745D01*
X134705471Y-100579899D01*
X134766758Y-100727858D01*
X134798000Y-100884925D01*
X134798000Y-101045075D01*
X134766758Y-101202142D01*
X134705471Y-101350101D01*
X134616501Y-101483255D01*
X134503255Y-101596501D01*
X134370101Y-101685471D01*
X134222142Y-101746758D01*
X134065075Y-101778000D01*
X133904925Y-101778000D01*
X133747858Y-101746758D01*
X133599899Y-101685471D01*
X133466745Y-101596501D01*
X133353499Y-101483255D01*
X133264529Y-101350101D01*
X133203242Y-101202142D01*
X133172000Y-101045075D01*
X133172000Y-100884925D01*
X133203242Y-100727858D01*
X133264529Y-100579899D01*
X133353499Y-100446745D01*
X133466745Y-100333499D01*
X133599899Y-100244529D01*
X133747858Y-100183242D01*
X133904925Y-100152000D01*
X134065075Y-100152000D01*
X134222142Y-100183242D01*
X134222142Y-100183242D01*
G37*
G36*
X141842142Y-100183242D02*
G01*
X141990101Y-100244529D01*
X142123255Y-100333499D01*
X142236501Y-100446745D01*
X142325471Y-100579899D01*
X142386758Y-100727858D01*
X142418000Y-100884925D01*
X142418000Y-101045075D01*
X142386758Y-101202142D01*
X142325471Y-101350101D01*
X142236501Y-101483255D01*
X142123255Y-101596501D01*
X141990101Y-101685471D01*
X141842142Y-101746758D01*
X141685075Y-101778000D01*
X141524925Y-101778000D01*
X141367858Y-101746758D01*
X141219899Y-101685471D01*
X141086745Y-101596501D01*
X140973499Y-101483255D01*
X140884529Y-101350101D01*
X140823242Y-101202142D01*
X140792000Y-101045075D01*
X140792000Y-100884925D01*
X140823242Y-100727858D01*
X140884529Y-100579899D01*
X140973499Y-100446745D01*
X141086745Y-100333499D01*
X141219899Y-100244529D01*
X141367858Y-100183242D01*
X141524925Y-100152000D01*
X141685075Y-100152000D01*
X141842142Y-100183242D01*
X141842142Y-100183242D01*
G37*
G36*
X131682142Y-100183242D02*
G01*
X131830101Y-100244529D01*
X131963255Y-100333499D01*
X132076501Y-100446745D01*
X132165471Y-100579899D01*
X132226758Y-100727858D01*
X132258000Y-100884925D01*
X132258000Y-101045075D01*
X132226758Y-101202142D01*
X132165471Y-101350101D01*
X132076501Y-101483255D01*
X131963255Y-101596501D01*
X131830101Y-101685471D01*
X131682142Y-101746758D01*
X131525075Y-101778000D01*
X131364925Y-101778000D01*
X131207858Y-101746758D01*
X131059899Y-101685471D01*
X130926745Y-101596501D01*
X130813499Y-101483255D01*
X130724529Y-101350101D01*
X130663242Y-101202142D01*
X130632000Y-101045075D01*
X130632000Y-100884925D01*
X130663242Y-100727858D01*
X130724529Y-100579899D01*
X130813499Y-100446745D01*
X130926745Y-100333499D01*
X131059899Y-100244529D01*
X131207858Y-100183242D01*
X131364925Y-100152000D01*
X131525075Y-100152000D01*
X131682142Y-100183242D01*
X131682142Y-100183242D01*
G37*
G36*
X129142142Y-100183242D02*
G01*
X129290101Y-100244529D01*
X129423255Y-100333499D01*
X129536501Y-100446745D01*
X129625471Y-100579899D01*
X129686758Y-100727858D01*
X129718000Y-100884925D01*
X129718000Y-101045075D01*
X129686758Y-101202142D01*
X129625471Y-101350101D01*
X129536501Y-101483255D01*
X129423255Y-101596501D01*
X129290101Y-101685471D01*
X129142142Y-101746758D01*
X128985075Y-101778000D01*
X128824925Y-101778000D01*
X128667858Y-101746758D01*
X128519899Y-101685471D01*
X128386745Y-101596501D01*
X128273499Y-101483255D01*
X128184529Y-101350101D01*
X128123242Y-101202142D01*
X128092000Y-101045075D01*
X128092000Y-100884925D01*
X128123242Y-100727858D01*
X128184529Y-100579899D01*
X128273499Y-100446745D01*
X128386745Y-100333499D01*
X128519899Y-100244529D01*
X128667858Y-100183242D01*
X128824925Y-100152000D01*
X128985075Y-100152000D01*
X129142142Y-100183242D01*
X129142142Y-100183242D01*
G37*
G36*
X139302142Y-100183242D02*
G01*
X139450101Y-100244529D01*
X139583255Y-100333499D01*
X139696501Y-100446745D01*
X139785471Y-100579899D01*
X139846758Y-100727858D01*
X139878000Y-100884925D01*
X139878000Y-101045075D01*
X139846758Y-101202142D01*
X139785471Y-101350101D01*
X139696501Y-101483255D01*
X139583255Y-101596501D01*
X139450101Y-101685471D01*
X139302142Y-101746758D01*
X139145075Y-101778000D01*
X138984925Y-101778000D01*
X138827858Y-101746758D01*
X138679899Y-101685471D01*
X138546745Y-101596501D01*
X138433499Y-101483255D01*
X138344529Y-101350101D01*
X138283242Y-101202142D01*
X138252000Y-101045075D01*
X138252000Y-100884925D01*
X138283242Y-100727858D01*
X138344529Y-100579899D01*
X138433499Y-100446745D01*
X138546745Y-100333499D01*
X138679899Y-100244529D01*
X138827858Y-100183242D01*
X138984925Y-100152000D01*
X139145075Y-100152000D01*
X139302142Y-100183242D01*
X139302142Y-100183242D01*
G37*
G36*
X124062142Y-100183242D02*
G01*
X124210101Y-100244529D01*
X124343255Y-100333499D01*
X124456501Y-100446745D01*
X124545471Y-100579899D01*
X124606758Y-100727858D01*
X124638000Y-100884925D01*
X124638000Y-101045075D01*
X124606758Y-101202142D01*
X124545471Y-101350101D01*
X124456501Y-101483255D01*
X124343255Y-101596501D01*
X124210101Y-101685471D01*
X124062142Y-101746758D01*
X123905075Y-101778000D01*
X123744925Y-101778000D01*
X123587858Y-101746758D01*
X123439899Y-101685471D01*
X123306745Y-101596501D01*
X123193499Y-101483255D01*
X123104529Y-101350101D01*
X123043242Y-101202142D01*
X123012000Y-101045075D01*
X123012000Y-100884925D01*
X123043242Y-100727858D01*
X123104529Y-100579899D01*
X123193499Y-100446745D01*
X123306745Y-100333499D01*
X123439899Y-100244529D01*
X123587858Y-100183242D01*
X123744925Y-100152000D01*
X123905075Y-100152000D01*
X124062142Y-100183242D01*
X124062142Y-100183242D01*
G37*
G36*
X121522142Y-100183242D02*
G01*
X121670101Y-100244529D01*
X121803255Y-100333499D01*
X121916501Y-100446745D01*
X122005471Y-100579899D01*
X122066758Y-100727858D01*
X122098000Y-100884925D01*
X122098000Y-101045075D01*
X122066758Y-101202142D01*
X122005471Y-101350101D01*
X121916501Y-101483255D01*
X121803255Y-101596501D01*
X121670101Y-101685471D01*
X121522142Y-101746758D01*
X121365075Y-101778000D01*
X121204925Y-101778000D01*
X121047858Y-101746758D01*
X120899899Y-101685471D01*
X120766745Y-101596501D01*
X120653499Y-101483255D01*
X120564529Y-101350101D01*
X120503242Y-101202142D01*
X120472000Y-101045075D01*
X120472000Y-100884925D01*
X120503242Y-100727858D01*
X120564529Y-100579899D01*
X120653499Y-100446745D01*
X120766745Y-100333499D01*
X120899899Y-100244529D01*
X121047858Y-100183242D01*
X121204925Y-100152000D01*
X121365075Y-100152000D01*
X121522142Y-100183242D01*
X121522142Y-100183242D01*
G37*
G36*
X118982142Y-100183242D02*
G01*
X119130101Y-100244529D01*
X119263255Y-100333499D01*
X119376501Y-100446745D01*
X119465471Y-100579899D01*
X119526758Y-100727858D01*
X119558000Y-100884925D01*
X119558000Y-101045075D01*
X119526758Y-101202142D01*
X119465471Y-101350101D01*
X119376501Y-101483255D01*
X119263255Y-101596501D01*
X119130101Y-101685471D01*
X118982142Y-101746758D01*
X118825075Y-101778000D01*
X118664925Y-101778000D01*
X118507858Y-101746758D01*
X118359899Y-101685471D01*
X118226745Y-101596501D01*
X118113499Y-101483255D01*
X118024529Y-101350101D01*
X117963242Y-101202142D01*
X117932000Y-101045075D01*
X117932000Y-100884925D01*
X117963242Y-100727858D01*
X118024529Y-100579899D01*
X118113499Y-100446745D01*
X118226745Y-100333499D01*
X118359899Y-100244529D01*
X118507858Y-100183242D01*
X118664925Y-100152000D01*
X118825075Y-100152000D01*
X118982142Y-100183242D01*
X118982142Y-100183242D01*
G37*
G36*
X126602142Y-100183242D02*
G01*
X126750101Y-100244529D01*
X126883255Y-100333499D01*
X126996501Y-100446745D01*
X127085471Y-100579899D01*
X127146758Y-100727858D01*
X127178000Y-100884925D01*
X127178000Y-101045075D01*
X127146758Y-101202142D01*
X127085471Y-101350101D01*
X126996501Y-101483255D01*
X126883255Y-101596501D01*
X126750101Y-101685471D01*
X126602142Y-101746758D01*
X126445075Y-101778000D01*
X126284925Y-101778000D01*
X126127858Y-101746758D01*
X125979899Y-101685471D01*
X125846745Y-101596501D01*
X125733499Y-101483255D01*
X125644529Y-101350101D01*
X125583242Y-101202142D01*
X125552000Y-101045075D01*
X125552000Y-100884925D01*
X125583242Y-100727858D01*
X125644529Y-100579899D01*
X125733499Y-100446745D01*
X125846745Y-100333499D01*
X125979899Y-100244529D01*
X126127858Y-100183242D01*
X126284925Y-100152000D01*
X126445075Y-100152000D01*
X126602142Y-100183242D01*
X126602142Y-100183242D01*
G37*
G36*
X136762142Y-100183242D02*
G01*
X136910101Y-100244529D01*
X137043255Y-100333499D01*
X137156501Y-100446745D01*
X137245471Y-100579899D01*
X137306758Y-100727858D01*
X137338000Y-100884925D01*
X137338000Y-101045075D01*
X137306758Y-101202142D01*
X137245471Y-101350101D01*
X137156501Y-101483255D01*
X137043255Y-101596501D01*
X136910101Y-101685471D01*
X136762142Y-101746758D01*
X136605075Y-101778000D01*
X136444925Y-101778000D01*
X136287858Y-101746758D01*
X136139899Y-101685471D01*
X136006745Y-101596501D01*
X135893499Y-101483255D01*
X135804529Y-101350101D01*
X135743242Y-101202142D01*
X135712000Y-101045075D01*
X135712000Y-100884925D01*
X135743242Y-100727858D01*
X135804529Y-100579899D01*
X135893499Y-100446745D01*
X136006745Y-100333499D01*
X136139899Y-100244529D01*
X136287858Y-100183242D01*
X136444925Y-100152000D01*
X136605075Y-100152000D01*
X136762142Y-100183242D01*
X136762142Y-100183242D01*
G37*
G36*
X164297890Y-99958017D02*
G01*
X164416364Y-100007091D01*
X164522988Y-100078335D01*
X164613665Y-100169012D01*
X164684909Y-100275636D01*
X164733983Y-100394110D01*
X164733985Y-100394119D01*
X164735403Y-100401249D01*
X164742516Y-100424698D01*
X164754067Y-100446309D01*
X164769612Y-100465251D01*
X164788554Y-100480797D01*
X164810164Y-100492348D01*
X164833613Y-100499461D01*
X164857999Y-100501863D01*
X164882385Y-100499461D01*
X164905834Y-100492348D01*
X164927445Y-100480797D01*
X164946387Y-100465252D01*
X164961933Y-100446310D01*
X164973484Y-100424700D01*
X164980597Y-100401249D01*
X164982015Y-100394119D01*
X164982017Y-100394110D01*
X165031091Y-100275636D01*
X165102335Y-100169012D01*
X165193012Y-100078335D01*
X165299636Y-100007091D01*
X165418110Y-99958017D01*
X165543881Y-99933000D01*
X165672119Y-99933000D01*
X165797890Y-99958017D01*
X165916364Y-100007091D01*
X166022988Y-100078335D01*
X166113665Y-100169012D01*
X166178392Y-100265882D01*
X166184910Y-100275638D01*
X166233983Y-100394110D01*
X166259000Y-100519881D01*
X166259000Y-100648119D01*
X166233983Y-100773890D01*
X166187991Y-100884925D01*
X166184909Y-100892364D01*
X166113665Y-100998988D01*
X166022988Y-101089665D01*
X165916364Y-101160909D01*
X165916363Y-101160910D01*
X165916362Y-101160910D01*
X165797890Y-101209983D01*
X165672119Y-101235000D01*
X165543881Y-101235000D01*
X165418110Y-101209983D01*
X165299638Y-101160910D01*
X165299637Y-101160910D01*
X165299636Y-101160909D01*
X165193012Y-101089665D01*
X165102335Y-100998988D01*
X165031091Y-100892364D01*
X164982017Y-100773890D01*
X164980597Y-100766751D01*
X164973484Y-100743302D01*
X164961933Y-100721691D01*
X164946388Y-100702749D01*
X164927446Y-100687203D01*
X164905836Y-100675652D01*
X164882387Y-100668539D01*
X164858001Y-100666137D01*
X164833615Y-100668539D01*
X164810166Y-100675652D01*
X164788555Y-100687203D01*
X164769613Y-100702748D01*
X164754067Y-100721690D01*
X164742516Y-100743300D01*
X164735403Y-100766751D01*
X164733983Y-100773890D01*
X164684909Y-100892364D01*
X164613665Y-100998988D01*
X164522988Y-101089665D01*
X164416364Y-101160909D01*
X164416363Y-101160910D01*
X164416362Y-101160910D01*
X164297890Y-101209983D01*
X164172119Y-101235000D01*
X164043881Y-101235000D01*
X163918110Y-101209983D01*
X163799638Y-101160910D01*
X163799637Y-101160910D01*
X163799636Y-101160909D01*
X163693012Y-101089665D01*
X163602335Y-100998988D01*
X163531091Y-100892364D01*
X163528010Y-100884925D01*
X163482017Y-100773890D01*
X163457000Y-100648119D01*
X163457000Y-100519881D01*
X163482017Y-100394110D01*
X163531090Y-100275638D01*
X163537609Y-100265882D01*
X163602335Y-100169012D01*
X163693012Y-100078335D01*
X163799636Y-100007091D01*
X163918110Y-99958017D01*
X164043881Y-99933000D01*
X164172119Y-99933000D01*
X164297890Y-99958017D01*
X164297890Y-99958017D01*
G37*
G36*
X149414890Y-99704017D02*
G01*
X149533364Y-99753091D01*
X149639988Y-99824335D01*
X149730665Y-99915012D01*
X149792190Y-100007090D01*
X149801910Y-100021638D01*
X149850983Y-100140111D01*
X149852403Y-100147249D01*
X149859516Y-100170698D01*
X149871067Y-100192309D01*
X149886612Y-100211251D01*
X149905554Y-100226797D01*
X149927164Y-100238348D01*
X149950613Y-100245461D01*
X149974999Y-100247863D01*
X149999385Y-100245461D01*
X150022834Y-100238348D01*
X150044445Y-100226797D01*
X150063387Y-100211252D01*
X150078933Y-100192310D01*
X150090484Y-100170700D01*
X150097597Y-100147249D01*
X150099017Y-100140111D01*
X150148090Y-100021638D01*
X150157811Y-100007090D01*
X150219335Y-99915012D01*
X150310012Y-99824335D01*
X150416636Y-99753091D01*
X150535110Y-99704017D01*
X150660881Y-99679000D01*
X150789119Y-99679000D01*
X150914890Y-99704017D01*
X151033364Y-99753091D01*
X151139988Y-99824335D01*
X151230665Y-99915012D01*
X151292190Y-100007090D01*
X151301910Y-100021638D01*
X151350983Y-100140110D01*
X151376000Y-100265881D01*
X151376000Y-100394119D01*
X151350983Y-100519890D01*
X151306722Y-100626746D01*
X151301909Y-100638364D01*
X151230665Y-100744988D01*
X151139988Y-100835665D01*
X151033364Y-100906909D01*
X151033363Y-100906910D01*
X151033362Y-100906910D01*
X150914890Y-100955983D01*
X150789119Y-100981000D01*
X150660881Y-100981000D01*
X150535110Y-100955983D01*
X150416638Y-100906910D01*
X150416637Y-100906910D01*
X150416636Y-100906909D01*
X150310012Y-100835665D01*
X150219335Y-100744988D01*
X150148091Y-100638364D01*
X150099017Y-100519890D01*
X150097597Y-100512751D01*
X150090484Y-100489302D01*
X150078933Y-100467691D01*
X150063388Y-100448749D01*
X150044446Y-100433203D01*
X150022836Y-100421652D01*
X149999387Y-100414539D01*
X149975001Y-100412137D01*
X149950615Y-100414539D01*
X149927166Y-100421652D01*
X149905555Y-100433203D01*
X149886613Y-100448748D01*
X149871067Y-100467690D01*
X149859516Y-100489300D01*
X149852403Y-100512751D01*
X149850983Y-100519890D01*
X149801909Y-100638364D01*
X149730665Y-100744988D01*
X149639988Y-100835665D01*
X149533364Y-100906909D01*
X149533363Y-100906910D01*
X149533362Y-100906910D01*
X149414890Y-100955983D01*
X149289119Y-100981000D01*
X149160881Y-100981000D01*
X149035110Y-100955983D01*
X148916638Y-100906910D01*
X148916637Y-100906910D01*
X148916636Y-100906909D01*
X148810012Y-100835665D01*
X148719335Y-100744988D01*
X148648091Y-100638364D01*
X148643279Y-100626746D01*
X148599017Y-100519890D01*
X148574000Y-100394119D01*
X148574000Y-100265881D01*
X148599017Y-100140110D01*
X148648090Y-100021638D01*
X148657811Y-100007090D01*
X148719335Y-99915012D01*
X148810012Y-99824335D01*
X148916636Y-99753091D01*
X149035110Y-99704017D01*
X149160881Y-99679000D01*
X149289119Y-99679000D01*
X149414890Y-99704017D01*
X149414890Y-99704017D01*
G37*
G36*
X189478228Y-93446703D02*
G01*
X189633100Y-93510853D01*
X189772481Y-93603985D01*
X189891015Y-93722519D01*
X189984147Y-93861900D01*
X190048297Y-94016772D01*
X190081000Y-94181184D01*
X190081000Y-94348816D01*
X190048297Y-94513228D01*
X189984147Y-94668100D01*
X189891015Y-94807481D01*
X189772481Y-94926015D01*
X189633100Y-95019147D01*
X189478228Y-95083297D01*
X189313816Y-95116000D01*
X189146184Y-95116000D01*
X188981772Y-95083297D01*
X188826900Y-95019147D01*
X188687519Y-94926015D01*
X188568985Y-94807481D01*
X188475853Y-94668100D01*
X188411703Y-94513228D01*
X188379000Y-94348816D01*
X188379000Y-94181184D01*
X188411703Y-94016772D01*
X188475853Y-93861900D01*
X188568985Y-93722519D01*
X188687519Y-93603985D01*
X188826900Y-93510853D01*
X188981772Y-93446703D01*
X189146184Y-93414000D01*
X189313816Y-93414000D01*
X189478228Y-93446703D01*
X189478228Y-93446703D01*
G37*
G36*
X181478228Y-93446703D02*
G01*
X181633100Y-93510853D01*
X181772481Y-93603985D01*
X181891015Y-93722519D01*
X181984147Y-93861900D01*
X182048297Y-94016772D01*
X182081000Y-94181184D01*
X182081000Y-94348816D01*
X182048297Y-94513228D01*
X181984147Y-94668100D01*
X181891015Y-94807481D01*
X181772481Y-94926015D01*
X181633100Y-95019147D01*
X181478228Y-95083297D01*
X181313816Y-95116000D01*
X181146184Y-95116000D01*
X180981772Y-95083297D01*
X180826900Y-95019147D01*
X180687519Y-94926015D01*
X180568985Y-94807481D01*
X180475853Y-94668100D01*
X180411703Y-94513228D01*
X180379000Y-94348816D01*
X180379000Y-94181184D01*
X180411703Y-94016772D01*
X180475853Y-93861900D01*
X180568985Y-93722519D01*
X180687519Y-93603985D01*
X180826900Y-93510853D01*
X180981772Y-93446703D01*
X181146184Y-93414000D01*
X181313816Y-93414000D01*
X181478228Y-93446703D01*
X181478228Y-93446703D01*
G37*
G36*
X184318228Y-92061703D02*
G01*
X184473100Y-92125853D01*
X184612481Y-92218985D01*
X184731015Y-92337519D01*
X184824147Y-92476900D01*
X184888297Y-92631772D01*
X184921000Y-92796184D01*
X184921000Y-92963816D01*
X184888297Y-93128228D01*
X184824147Y-93283100D01*
X184731015Y-93422481D01*
X184612481Y-93541015D01*
X184473100Y-93634147D01*
X184318228Y-93698297D01*
X184153816Y-93731000D01*
X183986184Y-93731000D01*
X183821772Y-93698297D01*
X183666900Y-93634147D01*
X183527519Y-93541015D01*
X183408985Y-93422481D01*
X183315853Y-93283100D01*
X183251703Y-93128228D01*
X183219000Y-92963816D01*
X183219000Y-92796184D01*
X183251703Y-92631772D01*
X183315853Y-92476900D01*
X183408985Y-92337519D01*
X183527519Y-92218985D01*
X183666900Y-92125853D01*
X183821772Y-92061703D01*
X183986184Y-92029000D01*
X184153816Y-92029000D01*
X184318228Y-92061703D01*
X184318228Y-92061703D01*
G37*
G36*
X192318228Y-92061703D02*
G01*
X192473100Y-92125853D01*
X192612481Y-92218985D01*
X192731015Y-92337519D01*
X192824147Y-92476900D01*
X192888297Y-92631772D01*
X192921000Y-92796184D01*
X192921000Y-92963816D01*
X192888297Y-93128228D01*
X192824147Y-93283100D01*
X192731015Y-93422481D01*
X192612481Y-93541015D01*
X192473100Y-93634147D01*
X192318228Y-93698297D01*
X192153816Y-93731000D01*
X191986184Y-93731000D01*
X191821772Y-93698297D01*
X191666900Y-93634147D01*
X191527519Y-93541015D01*
X191408985Y-93422481D01*
X191315853Y-93283100D01*
X191251703Y-93128228D01*
X191219000Y-92963816D01*
X191219000Y-92796184D01*
X191251703Y-92631772D01*
X191315853Y-92476900D01*
X191408985Y-92337519D01*
X191527519Y-92218985D01*
X191666900Y-92125853D01*
X191821772Y-92061703D01*
X191986184Y-92029000D01*
X192153816Y-92029000D01*
X192318228Y-92061703D01*
X192318228Y-92061703D01*
G37*
G36*
X141969142Y-91547242D02*
G01*
X142117101Y-91608529D01*
X142250255Y-91697499D01*
X142363501Y-91810745D01*
X142452471Y-91943899D01*
X142513758Y-92091858D01*
X142545000Y-92248925D01*
X142545000Y-92409075D01*
X142513758Y-92566142D01*
X142452471Y-92714101D01*
X142363501Y-92847255D01*
X142250255Y-92960501D01*
X142117101Y-93049471D01*
X141969142Y-93110758D01*
X141812075Y-93142000D01*
X141651925Y-93142000D01*
X141494858Y-93110758D01*
X141346899Y-93049471D01*
X141213745Y-92960501D01*
X141100499Y-92847255D01*
X141011529Y-92714101D01*
X140950242Y-92566142D01*
X140919000Y-92409075D01*
X140919000Y-92248925D01*
X140950242Y-92091858D01*
X141011529Y-91943899D01*
X141100499Y-91810745D01*
X141213745Y-91697499D01*
X141346899Y-91608529D01*
X141494858Y-91547242D01*
X141651925Y-91516000D01*
X141812075Y-91516000D01*
X141969142Y-91547242D01*
X141969142Y-91547242D01*
G37*
G36*
X139429142Y-91547242D02*
G01*
X139577101Y-91608529D01*
X139710255Y-91697499D01*
X139823501Y-91810745D01*
X139912471Y-91943899D01*
X139973758Y-92091858D01*
X140005000Y-92248925D01*
X140005000Y-92409075D01*
X139973758Y-92566142D01*
X139912471Y-92714101D01*
X139823501Y-92847255D01*
X139710255Y-92960501D01*
X139577101Y-93049471D01*
X139429142Y-93110758D01*
X139272075Y-93142000D01*
X139111925Y-93142000D01*
X138954858Y-93110758D01*
X138806899Y-93049471D01*
X138673745Y-92960501D01*
X138560499Y-92847255D01*
X138471529Y-92714101D01*
X138410242Y-92566142D01*
X138379000Y-92409075D01*
X138379000Y-92248925D01*
X138410242Y-92091858D01*
X138471529Y-91943899D01*
X138560499Y-91810745D01*
X138673745Y-91697499D01*
X138806899Y-91608529D01*
X138954858Y-91547242D01*
X139111925Y-91516000D01*
X139272075Y-91516000D01*
X139429142Y-91547242D01*
X139429142Y-91547242D01*
G37*
G36*
X136889142Y-91547242D02*
G01*
X137037101Y-91608529D01*
X137170255Y-91697499D01*
X137283501Y-91810745D01*
X137372471Y-91943899D01*
X137433758Y-92091858D01*
X137465000Y-92248925D01*
X137465000Y-92409075D01*
X137433758Y-92566142D01*
X137372471Y-92714101D01*
X137283501Y-92847255D01*
X137170255Y-92960501D01*
X137037101Y-93049471D01*
X136889142Y-93110758D01*
X136732075Y-93142000D01*
X136571925Y-93142000D01*
X136414858Y-93110758D01*
X136266899Y-93049471D01*
X136133745Y-92960501D01*
X136020499Y-92847255D01*
X135931529Y-92714101D01*
X135870242Y-92566142D01*
X135839000Y-92409075D01*
X135839000Y-92248925D01*
X135870242Y-92091858D01*
X135931529Y-91943899D01*
X136020499Y-91810745D01*
X136133745Y-91697499D01*
X136266899Y-91608529D01*
X136414858Y-91547242D01*
X136571925Y-91516000D01*
X136732075Y-91516000D01*
X136889142Y-91547242D01*
X136889142Y-91547242D01*
G37*
G36*
X134349142Y-91547242D02*
G01*
X134497101Y-91608529D01*
X134630255Y-91697499D01*
X134743501Y-91810745D01*
X134832471Y-91943899D01*
X134893758Y-92091858D01*
X134925000Y-92248925D01*
X134925000Y-92409075D01*
X134893758Y-92566142D01*
X134832471Y-92714101D01*
X134743501Y-92847255D01*
X134630255Y-92960501D01*
X134497101Y-93049471D01*
X134349142Y-93110758D01*
X134192075Y-93142000D01*
X134031925Y-93142000D01*
X133874858Y-93110758D01*
X133726899Y-93049471D01*
X133593745Y-92960501D01*
X133480499Y-92847255D01*
X133391529Y-92714101D01*
X133330242Y-92566142D01*
X133299000Y-92409075D01*
X133299000Y-92248925D01*
X133330242Y-92091858D01*
X133391529Y-91943899D01*
X133480499Y-91810745D01*
X133593745Y-91697499D01*
X133726899Y-91608529D01*
X133874858Y-91547242D01*
X134031925Y-91516000D01*
X134192075Y-91516000D01*
X134349142Y-91547242D01*
X134349142Y-91547242D01*
G37*
G36*
X131809142Y-91547242D02*
G01*
X131957101Y-91608529D01*
X132090255Y-91697499D01*
X132203501Y-91810745D01*
X132292471Y-91943899D01*
X132353758Y-92091858D01*
X132385000Y-92248925D01*
X132385000Y-92409075D01*
X132353758Y-92566142D01*
X132292471Y-92714101D01*
X132203501Y-92847255D01*
X132090255Y-92960501D01*
X131957101Y-93049471D01*
X131809142Y-93110758D01*
X131652075Y-93142000D01*
X131491925Y-93142000D01*
X131334858Y-93110758D01*
X131186899Y-93049471D01*
X131053745Y-92960501D01*
X130940499Y-92847255D01*
X130851529Y-92714101D01*
X130790242Y-92566142D01*
X130759000Y-92409075D01*
X130759000Y-92248925D01*
X130790242Y-92091858D01*
X130851529Y-91943899D01*
X130940499Y-91810745D01*
X131053745Y-91697499D01*
X131186899Y-91608529D01*
X131334858Y-91547242D01*
X131491925Y-91516000D01*
X131652075Y-91516000D01*
X131809142Y-91547242D01*
X131809142Y-91547242D01*
G37*
G36*
X119109142Y-91547242D02*
G01*
X119257101Y-91608529D01*
X119390255Y-91697499D01*
X119503501Y-91810745D01*
X119592471Y-91943899D01*
X119653758Y-92091858D01*
X119685000Y-92248925D01*
X119685000Y-92409075D01*
X119653758Y-92566142D01*
X119592471Y-92714101D01*
X119503501Y-92847255D01*
X119390255Y-92960501D01*
X119257101Y-93049471D01*
X119109142Y-93110758D01*
X118952075Y-93142000D01*
X118791925Y-93142000D01*
X118634858Y-93110758D01*
X118486899Y-93049471D01*
X118353745Y-92960501D01*
X118240499Y-92847255D01*
X118151529Y-92714101D01*
X118090242Y-92566142D01*
X118059000Y-92409075D01*
X118059000Y-92248925D01*
X118090242Y-92091858D01*
X118151529Y-91943899D01*
X118240499Y-91810745D01*
X118353745Y-91697499D01*
X118486899Y-91608529D01*
X118634858Y-91547242D01*
X118791925Y-91516000D01*
X118952075Y-91516000D01*
X119109142Y-91547242D01*
X119109142Y-91547242D01*
G37*
G36*
X129269142Y-91547242D02*
G01*
X129417101Y-91608529D01*
X129550255Y-91697499D01*
X129663501Y-91810745D01*
X129752471Y-91943899D01*
X129813758Y-92091858D01*
X129845000Y-92248925D01*
X129845000Y-92409075D01*
X129813758Y-92566142D01*
X129752471Y-92714101D01*
X129663501Y-92847255D01*
X129550255Y-92960501D01*
X129417101Y-93049471D01*
X129269142Y-93110758D01*
X129112075Y-93142000D01*
X128951925Y-93142000D01*
X128794858Y-93110758D01*
X128646899Y-93049471D01*
X128513745Y-92960501D01*
X128400499Y-92847255D01*
X128311529Y-92714101D01*
X128250242Y-92566142D01*
X128219000Y-92409075D01*
X128219000Y-92248925D01*
X128250242Y-92091858D01*
X128311529Y-91943899D01*
X128400499Y-91810745D01*
X128513745Y-91697499D01*
X128646899Y-91608529D01*
X128794858Y-91547242D01*
X128951925Y-91516000D01*
X129112075Y-91516000D01*
X129269142Y-91547242D01*
X129269142Y-91547242D01*
G37*
G36*
X126729142Y-91547242D02*
G01*
X126877101Y-91608529D01*
X127010255Y-91697499D01*
X127123501Y-91810745D01*
X127212471Y-91943899D01*
X127273758Y-92091858D01*
X127305000Y-92248925D01*
X127305000Y-92409075D01*
X127273758Y-92566142D01*
X127212471Y-92714101D01*
X127123501Y-92847255D01*
X127010255Y-92960501D01*
X126877101Y-93049471D01*
X126729142Y-93110758D01*
X126572075Y-93142000D01*
X126411925Y-93142000D01*
X126254858Y-93110758D01*
X126106899Y-93049471D01*
X125973745Y-92960501D01*
X125860499Y-92847255D01*
X125771529Y-92714101D01*
X125710242Y-92566142D01*
X125679000Y-92409075D01*
X125679000Y-92248925D01*
X125710242Y-92091858D01*
X125771529Y-91943899D01*
X125860499Y-91810745D01*
X125973745Y-91697499D01*
X126106899Y-91608529D01*
X126254858Y-91547242D01*
X126411925Y-91516000D01*
X126572075Y-91516000D01*
X126729142Y-91547242D01*
X126729142Y-91547242D01*
G37*
G36*
X124189142Y-91547242D02*
G01*
X124337101Y-91608529D01*
X124470255Y-91697499D01*
X124583501Y-91810745D01*
X124672471Y-91943899D01*
X124733758Y-92091858D01*
X124765000Y-92248925D01*
X124765000Y-92409075D01*
X124733758Y-92566142D01*
X124672471Y-92714101D01*
X124583501Y-92847255D01*
X124470255Y-92960501D01*
X124337101Y-93049471D01*
X124189142Y-93110758D01*
X124032075Y-93142000D01*
X123871925Y-93142000D01*
X123714858Y-93110758D01*
X123566899Y-93049471D01*
X123433745Y-92960501D01*
X123320499Y-92847255D01*
X123231529Y-92714101D01*
X123170242Y-92566142D01*
X123139000Y-92409075D01*
X123139000Y-92248925D01*
X123170242Y-92091858D01*
X123231529Y-91943899D01*
X123320499Y-91810745D01*
X123433745Y-91697499D01*
X123566899Y-91608529D01*
X123714858Y-91547242D01*
X123871925Y-91516000D01*
X124032075Y-91516000D01*
X124189142Y-91547242D01*
X124189142Y-91547242D01*
G37*
G36*
X121649142Y-91547242D02*
G01*
X121797101Y-91608529D01*
X121930255Y-91697499D01*
X122043501Y-91810745D01*
X122132471Y-91943899D01*
X122193758Y-92091858D01*
X122225000Y-92248925D01*
X122225000Y-92409075D01*
X122193758Y-92566142D01*
X122132471Y-92714101D01*
X122043501Y-92847255D01*
X121930255Y-92960501D01*
X121797101Y-93049471D01*
X121649142Y-93110758D01*
X121492075Y-93142000D01*
X121331925Y-93142000D01*
X121174858Y-93110758D01*
X121026899Y-93049471D01*
X120893745Y-92960501D01*
X120780499Y-92847255D01*
X120691529Y-92714101D01*
X120630242Y-92566142D01*
X120599000Y-92409075D01*
X120599000Y-92248925D01*
X120630242Y-92091858D01*
X120691529Y-91943899D01*
X120780499Y-91810745D01*
X120893745Y-91697499D01*
X121026899Y-91608529D01*
X121174858Y-91547242D01*
X121331925Y-91516000D01*
X121492075Y-91516000D01*
X121649142Y-91547242D01*
X121649142Y-91547242D01*
G37*
G36*
X106409142Y-91547242D02*
G01*
X106557101Y-91608529D01*
X106690255Y-91697499D01*
X106803501Y-91810745D01*
X106892471Y-91943899D01*
X106953758Y-92091858D01*
X106985000Y-92248925D01*
X106985000Y-92409075D01*
X106953758Y-92566142D01*
X106892471Y-92714101D01*
X106803501Y-92847255D01*
X106690255Y-92960501D01*
X106557101Y-93049471D01*
X106409142Y-93110758D01*
X106252075Y-93142000D01*
X106091925Y-93142000D01*
X105934858Y-93110758D01*
X105786899Y-93049471D01*
X105653745Y-92960501D01*
X105540499Y-92847255D01*
X105451529Y-92714101D01*
X105390242Y-92566142D01*
X105359000Y-92409075D01*
X105359000Y-92248925D01*
X105390242Y-92091858D01*
X105451529Y-91943899D01*
X105540499Y-91810745D01*
X105653745Y-91697499D01*
X105786899Y-91608529D01*
X105934858Y-91547242D01*
X106091925Y-91516000D01*
X106252075Y-91516000D01*
X106409142Y-91547242D01*
X106409142Y-91547242D01*
G37*
G36*
X108949142Y-91547242D02*
G01*
X109097101Y-91608529D01*
X109230255Y-91697499D01*
X109343501Y-91810745D01*
X109432471Y-91943899D01*
X109493758Y-92091858D01*
X109525000Y-92248925D01*
X109525000Y-92409075D01*
X109493758Y-92566142D01*
X109432471Y-92714101D01*
X109343501Y-92847255D01*
X109230255Y-92960501D01*
X109097101Y-93049471D01*
X108949142Y-93110758D01*
X108792075Y-93142000D01*
X108631925Y-93142000D01*
X108474858Y-93110758D01*
X108326899Y-93049471D01*
X108193745Y-92960501D01*
X108080499Y-92847255D01*
X107991529Y-92714101D01*
X107930242Y-92566142D01*
X107899000Y-92409075D01*
X107899000Y-92248925D01*
X107930242Y-92091858D01*
X107991529Y-91943899D01*
X108080499Y-91810745D01*
X108193745Y-91697499D01*
X108326899Y-91608529D01*
X108474858Y-91547242D01*
X108631925Y-91516000D01*
X108792075Y-91516000D01*
X108949142Y-91547242D01*
X108949142Y-91547242D01*
G37*
G36*
X111489142Y-91547242D02*
G01*
X111637101Y-91608529D01*
X111770255Y-91697499D01*
X111883501Y-91810745D01*
X111972471Y-91943899D01*
X112033758Y-92091858D01*
X112065000Y-92248925D01*
X112065000Y-92409075D01*
X112033758Y-92566142D01*
X111972471Y-92714101D01*
X111883501Y-92847255D01*
X111770255Y-92960501D01*
X111637101Y-93049471D01*
X111489142Y-93110758D01*
X111332075Y-93142000D01*
X111171925Y-93142000D01*
X111014858Y-93110758D01*
X110866899Y-93049471D01*
X110733745Y-92960501D01*
X110620499Y-92847255D01*
X110531529Y-92714101D01*
X110470242Y-92566142D01*
X110439000Y-92409075D01*
X110439000Y-92248925D01*
X110470242Y-92091858D01*
X110531529Y-91943899D01*
X110620499Y-91810745D01*
X110733745Y-91697499D01*
X110866899Y-91608529D01*
X111014858Y-91547242D01*
X111171925Y-91516000D01*
X111332075Y-91516000D01*
X111489142Y-91547242D01*
X111489142Y-91547242D01*
G37*
G36*
X114029142Y-91547242D02*
G01*
X114177101Y-91608529D01*
X114310255Y-91697499D01*
X114423501Y-91810745D01*
X114512471Y-91943899D01*
X114573758Y-92091858D01*
X114605000Y-92248925D01*
X114605000Y-92409075D01*
X114573758Y-92566142D01*
X114512471Y-92714101D01*
X114423501Y-92847255D01*
X114310255Y-92960501D01*
X114177101Y-93049471D01*
X114029142Y-93110758D01*
X113872075Y-93142000D01*
X113711925Y-93142000D01*
X113554858Y-93110758D01*
X113406899Y-93049471D01*
X113273745Y-92960501D01*
X113160499Y-92847255D01*
X113071529Y-92714101D01*
X113010242Y-92566142D01*
X112979000Y-92409075D01*
X112979000Y-92248925D01*
X113010242Y-92091858D01*
X113071529Y-91943899D01*
X113160499Y-91810745D01*
X113273745Y-91697499D01*
X113406899Y-91608529D01*
X113554858Y-91547242D01*
X113711925Y-91516000D01*
X113872075Y-91516000D01*
X114029142Y-91547242D01*
X114029142Y-91547242D01*
G37*
G36*
X116569142Y-91547242D02*
G01*
X116717101Y-91608529D01*
X116850255Y-91697499D01*
X116963501Y-91810745D01*
X117052471Y-91943899D01*
X117113758Y-92091858D01*
X117145000Y-92248925D01*
X117145000Y-92409075D01*
X117113758Y-92566142D01*
X117052471Y-92714101D01*
X116963501Y-92847255D01*
X116850255Y-92960501D01*
X116717101Y-93049471D01*
X116569142Y-93110758D01*
X116412075Y-93142000D01*
X116251925Y-93142000D01*
X116094858Y-93110758D01*
X115946899Y-93049471D01*
X115813745Y-92960501D01*
X115700499Y-92847255D01*
X115611529Y-92714101D01*
X115550242Y-92566142D01*
X115519000Y-92409075D01*
X115519000Y-92248925D01*
X115550242Y-92091858D01*
X115611529Y-91943899D01*
X115700499Y-91810745D01*
X115813745Y-91697499D01*
X115946899Y-91608529D01*
X116094858Y-91547242D01*
X116251925Y-91516000D01*
X116412075Y-91516000D01*
X116569142Y-91547242D01*
X116569142Y-91547242D01*
G37*
G36*
X164829142Y-91547242D02*
G01*
X164977101Y-91608529D01*
X165110255Y-91697499D01*
X165223501Y-91810745D01*
X165312471Y-91943899D01*
X165373758Y-92091858D01*
X165405000Y-92248925D01*
X165405000Y-92409075D01*
X165373758Y-92566142D01*
X165312471Y-92714101D01*
X165223501Y-92847255D01*
X165110255Y-92960501D01*
X164977101Y-93049471D01*
X164829142Y-93110758D01*
X164672075Y-93142000D01*
X164511925Y-93142000D01*
X164354858Y-93110758D01*
X164206899Y-93049471D01*
X164073745Y-92960501D01*
X163960499Y-92847255D01*
X163871529Y-92714101D01*
X163810242Y-92566142D01*
X163779000Y-92409075D01*
X163779000Y-92248925D01*
X163810242Y-92091858D01*
X163871529Y-91943899D01*
X163960499Y-91810745D01*
X164073745Y-91697499D01*
X164206899Y-91608529D01*
X164354858Y-91547242D01*
X164511925Y-91516000D01*
X164672075Y-91516000D01*
X164829142Y-91547242D01*
X164829142Y-91547242D01*
G37*
G36*
X167369142Y-91547242D02*
G01*
X167517101Y-91608529D01*
X167650255Y-91697499D01*
X167763501Y-91810745D01*
X167852471Y-91943899D01*
X167913758Y-92091858D01*
X167945000Y-92248925D01*
X167945000Y-92409075D01*
X167913758Y-92566142D01*
X167852471Y-92714101D01*
X167763501Y-92847255D01*
X167650255Y-92960501D01*
X167517101Y-93049471D01*
X167369142Y-93110758D01*
X167212075Y-93142000D01*
X167051925Y-93142000D01*
X166894858Y-93110758D01*
X166746899Y-93049471D01*
X166613745Y-92960501D01*
X166500499Y-92847255D01*
X166411529Y-92714101D01*
X166350242Y-92566142D01*
X166319000Y-92409075D01*
X166319000Y-92248925D01*
X166350242Y-92091858D01*
X166411529Y-91943899D01*
X166500499Y-91810745D01*
X166613745Y-91697499D01*
X166746899Y-91608529D01*
X166894858Y-91547242D01*
X167051925Y-91516000D01*
X167212075Y-91516000D01*
X167369142Y-91547242D01*
X167369142Y-91547242D01*
G37*
G36*
X162289142Y-91547242D02*
G01*
X162437101Y-91608529D01*
X162570255Y-91697499D01*
X162683501Y-91810745D01*
X162772471Y-91943899D01*
X162833758Y-92091858D01*
X162865000Y-92248925D01*
X162865000Y-92409075D01*
X162833758Y-92566142D01*
X162772471Y-92714101D01*
X162683501Y-92847255D01*
X162570255Y-92960501D01*
X162437101Y-93049471D01*
X162289142Y-93110758D01*
X162132075Y-93142000D01*
X161971925Y-93142000D01*
X161814858Y-93110758D01*
X161666899Y-93049471D01*
X161533745Y-92960501D01*
X161420499Y-92847255D01*
X161331529Y-92714101D01*
X161270242Y-92566142D01*
X161239000Y-92409075D01*
X161239000Y-92248925D01*
X161270242Y-92091858D01*
X161331529Y-91943899D01*
X161420499Y-91810745D01*
X161533745Y-91697499D01*
X161666899Y-91608529D01*
X161814858Y-91547242D01*
X161971925Y-91516000D01*
X162132075Y-91516000D01*
X162289142Y-91547242D01*
X162289142Y-91547242D01*
G37*
G36*
X159749142Y-91547242D02*
G01*
X159897101Y-91608529D01*
X160030255Y-91697499D01*
X160143501Y-91810745D01*
X160232471Y-91943899D01*
X160293758Y-92091858D01*
X160325000Y-92248925D01*
X160325000Y-92409075D01*
X160293758Y-92566142D01*
X160232471Y-92714101D01*
X160143501Y-92847255D01*
X160030255Y-92960501D01*
X159897101Y-93049471D01*
X159749142Y-93110758D01*
X159592075Y-93142000D01*
X159431925Y-93142000D01*
X159274858Y-93110758D01*
X159126899Y-93049471D01*
X158993745Y-92960501D01*
X158880499Y-92847255D01*
X158791529Y-92714101D01*
X158730242Y-92566142D01*
X158699000Y-92409075D01*
X158699000Y-92248925D01*
X158730242Y-92091858D01*
X158791529Y-91943899D01*
X158880499Y-91810745D01*
X158993745Y-91697499D01*
X159126899Y-91608529D01*
X159274858Y-91547242D01*
X159431925Y-91516000D01*
X159592075Y-91516000D01*
X159749142Y-91547242D01*
X159749142Y-91547242D01*
G37*
G36*
X144509142Y-91547242D02*
G01*
X144657101Y-91608529D01*
X144790255Y-91697499D01*
X144903501Y-91810745D01*
X144992471Y-91943899D01*
X145053758Y-92091858D01*
X145085000Y-92248925D01*
X145085000Y-92409075D01*
X145053758Y-92566142D01*
X144992471Y-92714101D01*
X144903501Y-92847255D01*
X144790255Y-92960501D01*
X144657101Y-93049471D01*
X144509142Y-93110758D01*
X144352075Y-93142000D01*
X144191925Y-93142000D01*
X144034858Y-93110758D01*
X143886899Y-93049471D01*
X143753745Y-92960501D01*
X143640499Y-92847255D01*
X143551529Y-92714101D01*
X143490242Y-92566142D01*
X143459000Y-92409075D01*
X143459000Y-92248925D01*
X143490242Y-92091858D01*
X143551529Y-91943899D01*
X143640499Y-91810745D01*
X143753745Y-91697499D01*
X143886899Y-91608529D01*
X144034858Y-91547242D01*
X144191925Y-91516000D01*
X144352075Y-91516000D01*
X144509142Y-91547242D01*
X144509142Y-91547242D01*
G37*
G36*
X147049142Y-91547242D02*
G01*
X147197101Y-91608529D01*
X147330255Y-91697499D01*
X147443501Y-91810745D01*
X147532471Y-91943899D01*
X147593758Y-92091858D01*
X147625000Y-92248925D01*
X147625000Y-92409075D01*
X147593758Y-92566142D01*
X147532471Y-92714101D01*
X147443501Y-92847255D01*
X147330255Y-92960501D01*
X147197101Y-93049471D01*
X147049142Y-93110758D01*
X146892075Y-93142000D01*
X146731925Y-93142000D01*
X146574858Y-93110758D01*
X146426899Y-93049471D01*
X146293745Y-92960501D01*
X146180499Y-92847255D01*
X146091529Y-92714101D01*
X146030242Y-92566142D01*
X145999000Y-92409075D01*
X145999000Y-92248925D01*
X146030242Y-92091858D01*
X146091529Y-91943899D01*
X146180499Y-91810745D01*
X146293745Y-91697499D01*
X146426899Y-91608529D01*
X146574858Y-91547242D01*
X146731925Y-91516000D01*
X146892075Y-91516000D01*
X147049142Y-91547242D01*
X147049142Y-91547242D01*
G37*
G36*
X149589142Y-91547242D02*
G01*
X149737101Y-91608529D01*
X149870255Y-91697499D01*
X149983501Y-91810745D01*
X150072471Y-91943899D01*
X150133758Y-92091858D01*
X150165000Y-92248925D01*
X150165000Y-92409075D01*
X150133758Y-92566142D01*
X150072471Y-92714101D01*
X149983501Y-92847255D01*
X149870255Y-92960501D01*
X149737101Y-93049471D01*
X149589142Y-93110758D01*
X149432075Y-93142000D01*
X149271925Y-93142000D01*
X149114858Y-93110758D01*
X148966899Y-93049471D01*
X148833745Y-92960501D01*
X148720499Y-92847255D01*
X148631529Y-92714101D01*
X148570242Y-92566142D01*
X148539000Y-92409075D01*
X148539000Y-92248925D01*
X148570242Y-92091858D01*
X148631529Y-91943899D01*
X148720499Y-91810745D01*
X148833745Y-91697499D01*
X148966899Y-91608529D01*
X149114858Y-91547242D01*
X149271925Y-91516000D01*
X149432075Y-91516000D01*
X149589142Y-91547242D01*
X149589142Y-91547242D01*
G37*
G36*
X154669142Y-91547242D02*
G01*
X154817101Y-91608529D01*
X154950255Y-91697499D01*
X155063501Y-91810745D01*
X155152471Y-91943899D01*
X155213758Y-92091858D01*
X155245000Y-92248925D01*
X155245000Y-92409075D01*
X155213758Y-92566142D01*
X155152471Y-92714101D01*
X155063501Y-92847255D01*
X154950255Y-92960501D01*
X154817101Y-93049471D01*
X154669142Y-93110758D01*
X154512075Y-93142000D01*
X154351925Y-93142000D01*
X154194858Y-93110758D01*
X154046899Y-93049471D01*
X153913745Y-92960501D01*
X153800499Y-92847255D01*
X153711529Y-92714101D01*
X153650242Y-92566142D01*
X153619000Y-92409075D01*
X153619000Y-92248925D01*
X153650242Y-92091858D01*
X153711529Y-91943899D01*
X153800499Y-91810745D01*
X153913745Y-91697499D01*
X154046899Y-91608529D01*
X154194858Y-91547242D01*
X154351925Y-91516000D01*
X154512075Y-91516000D01*
X154669142Y-91547242D01*
X154669142Y-91547242D01*
G37*
G36*
X157209142Y-91547242D02*
G01*
X157357101Y-91608529D01*
X157490255Y-91697499D01*
X157603501Y-91810745D01*
X157692471Y-91943899D01*
X157753758Y-92091858D01*
X157785000Y-92248925D01*
X157785000Y-92409075D01*
X157753758Y-92566142D01*
X157692471Y-92714101D01*
X157603501Y-92847255D01*
X157490255Y-92960501D01*
X157357101Y-93049471D01*
X157209142Y-93110758D01*
X157052075Y-93142000D01*
X156891925Y-93142000D01*
X156734858Y-93110758D01*
X156586899Y-93049471D01*
X156453745Y-92960501D01*
X156340499Y-92847255D01*
X156251529Y-92714101D01*
X156190242Y-92566142D01*
X156159000Y-92409075D01*
X156159000Y-92248925D01*
X156190242Y-92091858D01*
X156251529Y-91943899D01*
X156340499Y-91810745D01*
X156453745Y-91697499D01*
X156586899Y-91608529D01*
X156734858Y-91547242D01*
X156891925Y-91516000D01*
X157052075Y-91516000D01*
X157209142Y-91547242D01*
X157209142Y-91547242D01*
G37*
G36*
X152129142Y-91547242D02*
G01*
X152277101Y-91608529D01*
X152410255Y-91697499D01*
X152523501Y-91810745D01*
X152612471Y-91943899D01*
X152673758Y-92091858D01*
X152705000Y-92248925D01*
X152705000Y-92409075D01*
X152673758Y-92566142D01*
X152612471Y-92714101D01*
X152523501Y-92847255D01*
X152410255Y-92960501D01*
X152277101Y-93049471D01*
X152129142Y-93110758D01*
X151972075Y-93142000D01*
X151811925Y-93142000D01*
X151654858Y-93110758D01*
X151506899Y-93049471D01*
X151373745Y-92960501D01*
X151260499Y-92847255D01*
X151171529Y-92714101D01*
X151110242Y-92566142D01*
X151079000Y-92409075D01*
X151079000Y-92248925D01*
X151110242Y-92091858D01*
X151171529Y-91943899D01*
X151260499Y-91810745D01*
X151373745Y-91697499D01*
X151506899Y-91608529D01*
X151654858Y-91547242D01*
X151811925Y-91516000D01*
X151972075Y-91516000D01*
X152129142Y-91547242D01*
X152129142Y-91547242D01*
G37*
G36*
X189478228Y-90676703D02*
G01*
X189633100Y-90740853D01*
X189772481Y-90833985D01*
X189891015Y-90952519D01*
X189984147Y-91091900D01*
X190048297Y-91246772D01*
X190081000Y-91411184D01*
X190081000Y-91578816D01*
X190048297Y-91743228D01*
X189984147Y-91898100D01*
X189891015Y-92037481D01*
X189772481Y-92156015D01*
X189633100Y-92249147D01*
X189478228Y-92313297D01*
X189313816Y-92346000D01*
X189146184Y-92346000D01*
X188981772Y-92313297D01*
X188826900Y-92249147D01*
X188687519Y-92156015D01*
X188568985Y-92037481D01*
X188475853Y-91898100D01*
X188411703Y-91743228D01*
X188379000Y-91578816D01*
X188379000Y-91411184D01*
X188411703Y-91246772D01*
X188475853Y-91091900D01*
X188568985Y-90952519D01*
X188687519Y-90833985D01*
X188826900Y-90740853D01*
X188981772Y-90676703D01*
X189146184Y-90644000D01*
X189313816Y-90644000D01*
X189478228Y-90676703D01*
X189478228Y-90676703D01*
G37*
G36*
X181478228Y-90676703D02*
G01*
X181633100Y-90740853D01*
X181772481Y-90833985D01*
X181891015Y-90952519D01*
X181984147Y-91091900D01*
X182048297Y-91246772D01*
X182081000Y-91411184D01*
X182081000Y-91578816D01*
X182048297Y-91743228D01*
X181984147Y-91898100D01*
X181891015Y-92037481D01*
X181772481Y-92156015D01*
X181633100Y-92249147D01*
X181478228Y-92313297D01*
X181313816Y-92346000D01*
X181146184Y-92346000D01*
X180981772Y-92313297D01*
X180826900Y-92249147D01*
X180687519Y-92156015D01*
X180568985Y-92037481D01*
X180475853Y-91898100D01*
X180411703Y-91743228D01*
X180379000Y-91578816D01*
X180379000Y-91411184D01*
X180411703Y-91246772D01*
X180475853Y-91091900D01*
X180568985Y-90952519D01*
X180687519Y-90833985D01*
X180826900Y-90740853D01*
X180981772Y-90676703D01*
X181146184Y-90644000D01*
X181313816Y-90644000D01*
X181478228Y-90676703D01*
X181478228Y-90676703D01*
G37*
G36*
X184318228Y-89291703D02*
G01*
X184473100Y-89355853D01*
X184612481Y-89448985D01*
X184731015Y-89567519D01*
X184824147Y-89706900D01*
X184888297Y-89861772D01*
X184921000Y-90026184D01*
X184921000Y-90193816D01*
X184888297Y-90358228D01*
X184824147Y-90513100D01*
X184731015Y-90652481D01*
X184612481Y-90771015D01*
X184473100Y-90864147D01*
X184318228Y-90928297D01*
X184153816Y-90961000D01*
X183986184Y-90961000D01*
X183821772Y-90928297D01*
X183666900Y-90864147D01*
X183527519Y-90771015D01*
X183408985Y-90652481D01*
X183315853Y-90513100D01*
X183251703Y-90358228D01*
X183219000Y-90193816D01*
X183219000Y-90026184D01*
X183251703Y-89861772D01*
X183315853Y-89706900D01*
X183408985Y-89567519D01*
X183527519Y-89448985D01*
X183666900Y-89355853D01*
X183821772Y-89291703D01*
X183986184Y-89259000D01*
X184153816Y-89259000D01*
X184318228Y-89291703D01*
X184318228Y-89291703D01*
G37*
G36*
X192318228Y-89291703D02*
G01*
X192473100Y-89355853D01*
X192612481Y-89448985D01*
X192731015Y-89567519D01*
X192824147Y-89706900D01*
X192888297Y-89861772D01*
X192921000Y-90026184D01*
X192921000Y-90193816D01*
X192888297Y-90358228D01*
X192824147Y-90513100D01*
X192731015Y-90652481D01*
X192612481Y-90771015D01*
X192473100Y-90864147D01*
X192318228Y-90928297D01*
X192153816Y-90961000D01*
X191986184Y-90961000D01*
X191821772Y-90928297D01*
X191666900Y-90864147D01*
X191527519Y-90771015D01*
X191408985Y-90652481D01*
X191315853Y-90513100D01*
X191251703Y-90358228D01*
X191219000Y-90193816D01*
X191219000Y-90026184D01*
X191251703Y-89861772D01*
X191315853Y-89706900D01*
X191408985Y-89567519D01*
X191527519Y-89448985D01*
X191666900Y-89355853D01*
X191821772Y-89291703D01*
X191986184Y-89259000D01*
X192153816Y-89259000D01*
X192318228Y-89291703D01*
X192318228Y-89291703D01*
G37*
G36*
X181478228Y-87906703D02*
G01*
X181633100Y-87970853D01*
X181772481Y-88063985D01*
X181891015Y-88182519D01*
X181984147Y-88321900D01*
X182048297Y-88476772D01*
X182081000Y-88641184D01*
X182081000Y-88808816D01*
X182048297Y-88973228D01*
X181984147Y-89128100D01*
X181891015Y-89267481D01*
X181772481Y-89386015D01*
X181633100Y-89479147D01*
X181478228Y-89543297D01*
X181313816Y-89576000D01*
X181146184Y-89576000D01*
X180981772Y-89543297D01*
X180826900Y-89479147D01*
X180687519Y-89386015D01*
X180568985Y-89267481D01*
X180475853Y-89128100D01*
X180411703Y-88973228D01*
X180379000Y-88808816D01*
X180379000Y-88641184D01*
X180411703Y-88476772D01*
X180475853Y-88321900D01*
X180568985Y-88182519D01*
X180687519Y-88063985D01*
X180826900Y-87970853D01*
X180981772Y-87906703D01*
X181146184Y-87874000D01*
X181313816Y-87874000D01*
X181478228Y-87906703D01*
X181478228Y-87906703D01*
G37*
G36*
X189478228Y-87906703D02*
G01*
X189633100Y-87970853D01*
X189772481Y-88063985D01*
X189891015Y-88182519D01*
X189984147Y-88321900D01*
X190048297Y-88476772D01*
X190081000Y-88641184D01*
X190081000Y-88808816D01*
X190048297Y-88973228D01*
X189984147Y-89128100D01*
X189891015Y-89267481D01*
X189772481Y-89386015D01*
X189633100Y-89479147D01*
X189478228Y-89543297D01*
X189313816Y-89576000D01*
X189146184Y-89576000D01*
X188981772Y-89543297D01*
X188826900Y-89479147D01*
X188687519Y-89386015D01*
X188568985Y-89267481D01*
X188475853Y-89128100D01*
X188411703Y-88973228D01*
X188379000Y-88808816D01*
X188379000Y-88641184D01*
X188411703Y-88476772D01*
X188475853Y-88321900D01*
X188568985Y-88182519D01*
X188687519Y-88063985D01*
X188826900Y-87970853D01*
X188981772Y-87906703D01*
X189146184Y-87874000D01*
X189313816Y-87874000D01*
X189478228Y-87906703D01*
X189478228Y-87906703D01*
G37*
G36*
X192318228Y-86521703D02*
G01*
X192473100Y-86585853D01*
X192612481Y-86678985D01*
X192731015Y-86797519D01*
X192824147Y-86936900D01*
X192888297Y-87091772D01*
X192921000Y-87256184D01*
X192921000Y-87423816D01*
X192888297Y-87588228D01*
X192824147Y-87743100D01*
X192731015Y-87882481D01*
X192612481Y-88001015D01*
X192473100Y-88094147D01*
X192318228Y-88158297D01*
X192153816Y-88191000D01*
X191986184Y-88191000D01*
X191821772Y-88158297D01*
X191666900Y-88094147D01*
X191527519Y-88001015D01*
X191408985Y-87882481D01*
X191315853Y-87743100D01*
X191251703Y-87588228D01*
X191219000Y-87423816D01*
X191219000Y-87256184D01*
X191251703Y-87091772D01*
X191315853Y-86936900D01*
X191408985Y-86797519D01*
X191527519Y-86678985D01*
X191666900Y-86585853D01*
X191821772Y-86521703D01*
X191986184Y-86489000D01*
X192153816Y-86489000D01*
X192318228Y-86521703D01*
X192318228Y-86521703D01*
G37*
G36*
X184318228Y-86521703D02*
G01*
X184473100Y-86585853D01*
X184612481Y-86678985D01*
X184731015Y-86797519D01*
X184824147Y-86936900D01*
X184888297Y-87091772D01*
X184921000Y-87256184D01*
X184921000Y-87423816D01*
X184888297Y-87588228D01*
X184824147Y-87743100D01*
X184731015Y-87882481D01*
X184612481Y-88001015D01*
X184473100Y-88094147D01*
X184318228Y-88158297D01*
X184153816Y-88191000D01*
X183986184Y-88191000D01*
X183821772Y-88158297D01*
X183666900Y-88094147D01*
X183527519Y-88001015D01*
X183408985Y-87882481D01*
X183315853Y-87743100D01*
X183251703Y-87588228D01*
X183219000Y-87423816D01*
X183219000Y-87256184D01*
X183251703Y-87091772D01*
X183315853Y-86936900D01*
X183408985Y-86797519D01*
X183527519Y-86678985D01*
X183666900Y-86585853D01*
X183821772Y-86521703D01*
X183986184Y-86489000D01*
X184153816Y-86489000D01*
X184318228Y-86521703D01*
X184318228Y-86521703D01*
G37*
G36*
X189478228Y-85136703D02*
G01*
X189633100Y-85200853D01*
X189772481Y-85293985D01*
X189891015Y-85412519D01*
X189984147Y-85551900D01*
X190048297Y-85706772D01*
X190081000Y-85871184D01*
X190081000Y-86038816D01*
X190048297Y-86203228D01*
X189984147Y-86358100D01*
X189891015Y-86497481D01*
X189772481Y-86616015D01*
X189633100Y-86709147D01*
X189478228Y-86773297D01*
X189313816Y-86806000D01*
X189146184Y-86806000D01*
X188981772Y-86773297D01*
X188826900Y-86709147D01*
X188687519Y-86616015D01*
X188568985Y-86497481D01*
X188475853Y-86358100D01*
X188411703Y-86203228D01*
X188379000Y-86038816D01*
X188379000Y-85871184D01*
X188411703Y-85706772D01*
X188475853Y-85551900D01*
X188568985Y-85412519D01*
X188687519Y-85293985D01*
X188826900Y-85200853D01*
X188981772Y-85136703D01*
X189146184Y-85104000D01*
X189313816Y-85104000D01*
X189478228Y-85136703D01*
X189478228Y-85136703D01*
G37*
G36*
X181478228Y-85136703D02*
G01*
X181633100Y-85200853D01*
X181772481Y-85293985D01*
X181891015Y-85412519D01*
X181984147Y-85551900D01*
X182048297Y-85706772D01*
X182081000Y-85871184D01*
X182081000Y-86038816D01*
X182048297Y-86203228D01*
X181984147Y-86358100D01*
X181891015Y-86497481D01*
X181772481Y-86616015D01*
X181633100Y-86709147D01*
X181478228Y-86773297D01*
X181313816Y-86806000D01*
X181146184Y-86806000D01*
X180981772Y-86773297D01*
X180826900Y-86709147D01*
X180687519Y-86616015D01*
X180568985Y-86497481D01*
X180475853Y-86358100D01*
X180411703Y-86203228D01*
X180379000Y-86038816D01*
X180379000Y-85871184D01*
X180411703Y-85706772D01*
X180475853Y-85551900D01*
X180568985Y-85412519D01*
X180687519Y-85293985D01*
X180826900Y-85200853D01*
X180981772Y-85136703D01*
X181146184Y-85104000D01*
X181313816Y-85104000D01*
X181478228Y-85136703D01*
X181478228Y-85136703D01*
G37*
G36*
X192318228Y-83751703D02*
G01*
X192473100Y-83815853D01*
X192612481Y-83908985D01*
X192731015Y-84027519D01*
X192824147Y-84166900D01*
X192888297Y-84321772D01*
X192921000Y-84486184D01*
X192921000Y-84653816D01*
X192888297Y-84818228D01*
X192824147Y-84973100D01*
X192731015Y-85112481D01*
X192612481Y-85231015D01*
X192473100Y-85324147D01*
X192318228Y-85388297D01*
X192153816Y-85421000D01*
X191986184Y-85421000D01*
X191821772Y-85388297D01*
X191666900Y-85324147D01*
X191527519Y-85231015D01*
X191408985Y-85112481D01*
X191315853Y-84973100D01*
X191251703Y-84818228D01*
X191219000Y-84653816D01*
X191219000Y-84486184D01*
X191251703Y-84321772D01*
X191315853Y-84166900D01*
X191408985Y-84027519D01*
X191527519Y-83908985D01*
X191666900Y-83815853D01*
X191821772Y-83751703D01*
X191986184Y-83719000D01*
X192153816Y-83719000D01*
X192318228Y-83751703D01*
X192318228Y-83751703D01*
G37*
G36*
X184318228Y-83751703D02*
G01*
X184473100Y-83815853D01*
X184612481Y-83908985D01*
X184731015Y-84027519D01*
X184824147Y-84166900D01*
X184888297Y-84321772D01*
X184921000Y-84486184D01*
X184921000Y-84653816D01*
X184888297Y-84818228D01*
X184824147Y-84973100D01*
X184731015Y-85112481D01*
X184612481Y-85231015D01*
X184473100Y-85324147D01*
X184318228Y-85388297D01*
X184153816Y-85421000D01*
X183986184Y-85421000D01*
X183821772Y-85388297D01*
X183666900Y-85324147D01*
X183527519Y-85231015D01*
X183408985Y-85112481D01*
X183315853Y-84973100D01*
X183251703Y-84818228D01*
X183219000Y-84653816D01*
X183219000Y-84486184D01*
X183251703Y-84321772D01*
X183315853Y-84166900D01*
X183408985Y-84027519D01*
X183527519Y-83908985D01*
X183666900Y-83815853D01*
X183821772Y-83751703D01*
X183986184Y-83719000D01*
X184153816Y-83719000D01*
X184318228Y-83751703D01*
X184318228Y-83751703D01*
G37*
G36*
X182081000Y-84036000D02*
G01*
X180379000Y-84036000D01*
X180379000Y-82334000D01*
X182081000Y-82334000D01*
X182081000Y-84036000D01*
X182081000Y-84036000D01*
G37*
G36*
X190081000Y-84036000D02*
G01*
X188379000Y-84036000D01*
X188379000Y-82334000D01*
X190081000Y-82334000D01*
X190081000Y-84036000D01*
X190081000Y-84036000D01*
G37*
G36*
X192668254Y-74252818D02*
G01*
X193041511Y-74407426D01*
X193041513Y-74407427D01*
X193377436Y-74631884D01*
X193663116Y-74917564D01*
X193887574Y-75253489D01*
X194042182Y-75626746D01*
X194121000Y-76022993D01*
X194121000Y-76427007D01*
X194042182Y-76823254D01*
X193887574Y-77196511D01*
X193887573Y-77196513D01*
X193663116Y-77532436D01*
X193377436Y-77818116D01*
X193041513Y-78042573D01*
X193041512Y-78042574D01*
X193041511Y-78042574D01*
X192668254Y-78197182D01*
X192272007Y-78276000D01*
X191867993Y-78276000D01*
X191471746Y-78197182D01*
X191098489Y-78042574D01*
X191098488Y-78042574D01*
X191098487Y-78042573D01*
X190762564Y-77818116D01*
X190476884Y-77532436D01*
X190252427Y-77196513D01*
X190252426Y-77196511D01*
X190097818Y-76823254D01*
X190019000Y-76427007D01*
X190019000Y-76022993D01*
X190097818Y-75626746D01*
X190252426Y-75253489D01*
X190476884Y-74917564D01*
X190762564Y-74631884D01*
X191098487Y-74407427D01*
X191098489Y-74407426D01*
X191471746Y-74252818D01*
X191867993Y-74174000D01*
X192272007Y-74174000D01*
X192668254Y-74252818D01*
X192668254Y-74252818D01*
G37*
G36*
X184668254Y-74252818D02*
G01*
X185041511Y-74407426D01*
X185041513Y-74407427D01*
X185377436Y-74631884D01*
X185663116Y-74917564D01*
X185887574Y-75253489D01*
X186042182Y-75626746D01*
X186121000Y-76022993D01*
X186121000Y-76427007D01*
X186042182Y-76823254D01*
X185887574Y-77196511D01*
X185887573Y-77196513D01*
X185663116Y-77532436D01*
X185377436Y-77818116D01*
X185041513Y-78042573D01*
X185041512Y-78042574D01*
X185041511Y-78042574D01*
X184668254Y-78197182D01*
X184272007Y-78276000D01*
X183867993Y-78276000D01*
X183471746Y-78197182D01*
X183098489Y-78042574D01*
X183098488Y-78042574D01*
X183098487Y-78042573D01*
X182762564Y-77818116D01*
X182476884Y-77532436D01*
X182252427Y-77196513D01*
X182252426Y-77196511D01*
X182097818Y-76823254D01*
X182019000Y-76427007D01*
X182019000Y-76022993D01*
X182097818Y-75626746D01*
X182252426Y-75253489D01*
X182476884Y-74917564D01*
X182762564Y-74631884D01*
X183098487Y-74407427D01*
X183098489Y-74407426D01*
X183471746Y-74252818D01*
X183867993Y-74174000D01*
X184272007Y-74174000D01*
X184668254Y-74252818D01*
X184668254Y-74252818D01*
G37*
G36*
X189418085Y-68227975D02*
G01*
X189773143Y-68375045D01*
X189773145Y-68375046D01*
X190092690Y-68588559D01*
X190364441Y-68860310D01*
X190577954Y-69179855D01*
X190577955Y-69179857D01*
X190725025Y-69534915D01*
X190800000Y-69911842D01*
X190800000Y-70296158D01*
X190725025Y-70673085D01*
X190577955Y-71028143D01*
X190577954Y-71028145D01*
X190364441Y-71347690D01*
X190092690Y-71619441D01*
X189773145Y-71832954D01*
X189773144Y-71832955D01*
X189773143Y-71832955D01*
X189418085Y-71980025D01*
X189041158Y-72055000D01*
X188656842Y-72055000D01*
X188279915Y-71980025D01*
X187924857Y-71832955D01*
X187924856Y-71832955D01*
X187924855Y-71832954D01*
X187605310Y-71619441D01*
X187333559Y-71347690D01*
X187120046Y-71028145D01*
X187120045Y-71028143D01*
X186972975Y-70673085D01*
X186898000Y-70296158D01*
X186898000Y-69911842D01*
X186972975Y-69534915D01*
X187120045Y-69179857D01*
X187120046Y-69179855D01*
X187333559Y-68860310D01*
X187605310Y-68588559D01*
X187924855Y-68375046D01*
X187924857Y-68375045D01*
X188279915Y-68227975D01*
X188656842Y-68153000D01*
X189041158Y-68153000D01*
X189418085Y-68227975D01*
X189418085Y-68227975D01*
G37*
G36*
X180196142Y-67417242D02*
G01*
X180344101Y-67478529D01*
X180477255Y-67567499D01*
X180590501Y-67680745D01*
X180679471Y-67813899D01*
X180740758Y-67961858D01*
X180772000Y-68118925D01*
X180772000Y-68279075D01*
X180740758Y-68436142D01*
X180679471Y-68584101D01*
X180590501Y-68717255D01*
X180477255Y-68830501D01*
X180344101Y-68919471D01*
X180196142Y-68980758D01*
X180039075Y-69012000D01*
X179878925Y-69012000D01*
X179721858Y-68980758D01*
X179573899Y-68919471D01*
X179440745Y-68830501D01*
X179327499Y-68717255D01*
X179238529Y-68584101D01*
X179177242Y-68436142D01*
X179146000Y-68279075D01*
X179146000Y-68118925D01*
X179177242Y-67961858D01*
X179238529Y-67813899D01*
X179327499Y-67680745D01*
X179440745Y-67567499D01*
X179573899Y-67478529D01*
X179721858Y-67417242D01*
X179878925Y-67386000D01*
X180039075Y-67386000D01*
X180196142Y-67417242D01*
X180196142Y-67417242D01*
G37*
G36*
X182736142Y-66147242D02*
G01*
X182884101Y-66208529D01*
X183017255Y-66297499D01*
X183130501Y-66410745D01*
X183219471Y-66543899D01*
X183280758Y-66691858D01*
X183312000Y-66848925D01*
X183312000Y-67009075D01*
X183280758Y-67166142D01*
X183219471Y-67314101D01*
X183130501Y-67447255D01*
X183017255Y-67560501D01*
X182884101Y-67649471D01*
X182736142Y-67710758D01*
X182579075Y-67742000D01*
X182418925Y-67742000D01*
X182261858Y-67710758D01*
X182113899Y-67649471D01*
X181980745Y-67560501D01*
X181867499Y-67447255D01*
X181778529Y-67314101D01*
X181717242Y-67166142D01*
X181686000Y-67009075D01*
X181686000Y-66848925D01*
X181717242Y-66691858D01*
X181778529Y-66543899D01*
X181867499Y-66410745D01*
X181980745Y-66297499D01*
X182113899Y-66208529D01*
X182261858Y-66147242D01*
X182418925Y-66116000D01*
X182579075Y-66116000D01*
X182736142Y-66147242D01*
X182736142Y-66147242D01*
G37*
G36*
X180196142Y-64877242D02*
G01*
X180344101Y-64938529D01*
X180477255Y-65027499D01*
X180590501Y-65140745D01*
X180679471Y-65273899D01*
X180740758Y-65421858D01*
X180772000Y-65578925D01*
X180772000Y-65739075D01*
X180740758Y-65896142D01*
X180679471Y-66044101D01*
X180590501Y-66177255D01*
X180477255Y-66290501D01*
X180344101Y-66379471D01*
X180196142Y-66440758D01*
X180039075Y-66472000D01*
X179878925Y-66472000D01*
X179721858Y-66440758D01*
X179573899Y-66379471D01*
X179440745Y-66290501D01*
X179327499Y-66177255D01*
X179238529Y-66044101D01*
X179177242Y-65896142D01*
X179146000Y-65739075D01*
X179146000Y-65578925D01*
X179177242Y-65421858D01*
X179238529Y-65273899D01*
X179327499Y-65140745D01*
X179440745Y-65027499D01*
X179573899Y-64938529D01*
X179721858Y-64877242D01*
X179878925Y-64846000D01*
X180039075Y-64846000D01*
X180196142Y-64877242D01*
X180196142Y-64877242D01*
G37*
G36*
X152129142Y-63607242D02*
G01*
X152277101Y-63668529D01*
X152410255Y-63757499D01*
X152523501Y-63870745D01*
X152612471Y-64003899D01*
X152673758Y-64151858D01*
X152705000Y-64308925D01*
X152705000Y-64469075D01*
X152673758Y-64626142D01*
X152612471Y-64774101D01*
X152523501Y-64907255D01*
X152410255Y-65020501D01*
X152277101Y-65109471D01*
X152129142Y-65170758D01*
X151972075Y-65202000D01*
X151811925Y-65202000D01*
X151654858Y-65170758D01*
X151506899Y-65109471D01*
X151373745Y-65020501D01*
X151260499Y-64907255D01*
X151171529Y-64774101D01*
X151110242Y-64626142D01*
X151079000Y-64469075D01*
X151079000Y-64308925D01*
X151110242Y-64151858D01*
X151171529Y-64003899D01*
X151260499Y-63870745D01*
X151373745Y-63757499D01*
X151506899Y-63668529D01*
X151654858Y-63607242D01*
X151811925Y-63576000D01*
X151972075Y-63576000D01*
X152129142Y-63607242D01*
X152129142Y-63607242D01*
G37*
G36*
X106409142Y-63607242D02*
G01*
X106557101Y-63668529D01*
X106690255Y-63757499D01*
X106803501Y-63870745D01*
X106892471Y-64003899D01*
X106953758Y-64151858D01*
X106985000Y-64308925D01*
X106985000Y-64469075D01*
X106953758Y-64626142D01*
X106892471Y-64774101D01*
X106803501Y-64907255D01*
X106690255Y-65020501D01*
X106557101Y-65109471D01*
X106409142Y-65170758D01*
X106252075Y-65202000D01*
X106091925Y-65202000D01*
X105934858Y-65170758D01*
X105786899Y-65109471D01*
X105653745Y-65020501D01*
X105540499Y-64907255D01*
X105451529Y-64774101D01*
X105390242Y-64626142D01*
X105359000Y-64469075D01*
X105359000Y-64308925D01*
X105390242Y-64151858D01*
X105451529Y-64003899D01*
X105540499Y-63870745D01*
X105653745Y-63757499D01*
X105786899Y-63668529D01*
X105934858Y-63607242D01*
X106091925Y-63576000D01*
X106252075Y-63576000D01*
X106409142Y-63607242D01*
X106409142Y-63607242D01*
G37*
G36*
X108949142Y-63607242D02*
G01*
X109097101Y-63668529D01*
X109230255Y-63757499D01*
X109343501Y-63870745D01*
X109432471Y-64003899D01*
X109493758Y-64151858D01*
X109525000Y-64308925D01*
X109525000Y-64469075D01*
X109493758Y-64626142D01*
X109432471Y-64774101D01*
X109343501Y-64907255D01*
X109230255Y-65020501D01*
X109097101Y-65109471D01*
X108949142Y-65170758D01*
X108792075Y-65202000D01*
X108631925Y-65202000D01*
X108474858Y-65170758D01*
X108326899Y-65109471D01*
X108193745Y-65020501D01*
X108080499Y-64907255D01*
X107991529Y-64774101D01*
X107930242Y-64626142D01*
X107899000Y-64469075D01*
X107899000Y-64308925D01*
X107930242Y-64151858D01*
X107991529Y-64003899D01*
X108080499Y-63870745D01*
X108193745Y-63757499D01*
X108326899Y-63668529D01*
X108474858Y-63607242D01*
X108631925Y-63576000D01*
X108792075Y-63576000D01*
X108949142Y-63607242D01*
X108949142Y-63607242D01*
G37*
G36*
X111489142Y-63607242D02*
G01*
X111637101Y-63668529D01*
X111770255Y-63757499D01*
X111883501Y-63870745D01*
X111972471Y-64003899D01*
X112033758Y-64151858D01*
X112065000Y-64308925D01*
X112065000Y-64469075D01*
X112033758Y-64626142D01*
X111972471Y-64774101D01*
X111883501Y-64907255D01*
X111770255Y-65020501D01*
X111637101Y-65109471D01*
X111489142Y-65170758D01*
X111332075Y-65202000D01*
X111171925Y-65202000D01*
X111014858Y-65170758D01*
X110866899Y-65109471D01*
X110733745Y-65020501D01*
X110620499Y-64907255D01*
X110531529Y-64774101D01*
X110470242Y-64626142D01*
X110439000Y-64469075D01*
X110439000Y-64308925D01*
X110470242Y-64151858D01*
X110531529Y-64003899D01*
X110620499Y-63870745D01*
X110733745Y-63757499D01*
X110866899Y-63668529D01*
X111014858Y-63607242D01*
X111171925Y-63576000D01*
X111332075Y-63576000D01*
X111489142Y-63607242D01*
X111489142Y-63607242D01*
G37*
G36*
X114029142Y-63607242D02*
G01*
X114177101Y-63668529D01*
X114310255Y-63757499D01*
X114423501Y-63870745D01*
X114512471Y-64003899D01*
X114573758Y-64151858D01*
X114605000Y-64308925D01*
X114605000Y-64469075D01*
X114573758Y-64626142D01*
X114512471Y-64774101D01*
X114423501Y-64907255D01*
X114310255Y-65020501D01*
X114177101Y-65109471D01*
X114029142Y-65170758D01*
X113872075Y-65202000D01*
X113711925Y-65202000D01*
X113554858Y-65170758D01*
X113406899Y-65109471D01*
X113273745Y-65020501D01*
X113160499Y-64907255D01*
X113071529Y-64774101D01*
X113010242Y-64626142D01*
X112979000Y-64469075D01*
X112979000Y-64308925D01*
X113010242Y-64151858D01*
X113071529Y-64003899D01*
X113160499Y-63870745D01*
X113273745Y-63757499D01*
X113406899Y-63668529D01*
X113554858Y-63607242D01*
X113711925Y-63576000D01*
X113872075Y-63576000D01*
X114029142Y-63607242D01*
X114029142Y-63607242D01*
G37*
G36*
X116569142Y-63607242D02*
G01*
X116717101Y-63668529D01*
X116850255Y-63757499D01*
X116963501Y-63870745D01*
X117052471Y-64003899D01*
X117113758Y-64151858D01*
X117145000Y-64308925D01*
X117145000Y-64469075D01*
X117113758Y-64626142D01*
X117052471Y-64774101D01*
X116963501Y-64907255D01*
X116850255Y-65020501D01*
X116717101Y-65109471D01*
X116569142Y-65170758D01*
X116412075Y-65202000D01*
X116251925Y-65202000D01*
X116094858Y-65170758D01*
X115946899Y-65109471D01*
X115813745Y-65020501D01*
X115700499Y-64907255D01*
X115611529Y-64774101D01*
X115550242Y-64626142D01*
X115519000Y-64469075D01*
X115519000Y-64308925D01*
X115550242Y-64151858D01*
X115611529Y-64003899D01*
X115700499Y-63870745D01*
X115813745Y-63757499D01*
X115946899Y-63668529D01*
X116094858Y-63607242D01*
X116251925Y-63576000D01*
X116412075Y-63576000D01*
X116569142Y-63607242D01*
X116569142Y-63607242D01*
G37*
G36*
X119109142Y-63607242D02*
G01*
X119257101Y-63668529D01*
X119390255Y-63757499D01*
X119503501Y-63870745D01*
X119592471Y-64003899D01*
X119653758Y-64151858D01*
X119685000Y-64308925D01*
X119685000Y-64469075D01*
X119653758Y-64626142D01*
X119592471Y-64774101D01*
X119503501Y-64907255D01*
X119390255Y-65020501D01*
X119257101Y-65109471D01*
X119109142Y-65170758D01*
X118952075Y-65202000D01*
X118791925Y-65202000D01*
X118634858Y-65170758D01*
X118486899Y-65109471D01*
X118353745Y-65020501D01*
X118240499Y-64907255D01*
X118151529Y-64774101D01*
X118090242Y-64626142D01*
X118059000Y-64469075D01*
X118059000Y-64308925D01*
X118090242Y-64151858D01*
X118151529Y-64003899D01*
X118240499Y-63870745D01*
X118353745Y-63757499D01*
X118486899Y-63668529D01*
X118634858Y-63607242D01*
X118791925Y-63576000D01*
X118952075Y-63576000D01*
X119109142Y-63607242D01*
X119109142Y-63607242D01*
G37*
G36*
X121649142Y-63607242D02*
G01*
X121797101Y-63668529D01*
X121930255Y-63757499D01*
X122043501Y-63870745D01*
X122132471Y-64003899D01*
X122193758Y-64151858D01*
X122225000Y-64308925D01*
X122225000Y-64469075D01*
X122193758Y-64626142D01*
X122132471Y-64774101D01*
X122043501Y-64907255D01*
X121930255Y-65020501D01*
X121797101Y-65109471D01*
X121649142Y-65170758D01*
X121492075Y-65202000D01*
X121331925Y-65202000D01*
X121174858Y-65170758D01*
X121026899Y-65109471D01*
X120893745Y-65020501D01*
X120780499Y-64907255D01*
X120691529Y-64774101D01*
X120630242Y-64626142D01*
X120599000Y-64469075D01*
X120599000Y-64308925D01*
X120630242Y-64151858D01*
X120691529Y-64003899D01*
X120780499Y-63870745D01*
X120893745Y-63757499D01*
X121026899Y-63668529D01*
X121174858Y-63607242D01*
X121331925Y-63576000D01*
X121492075Y-63576000D01*
X121649142Y-63607242D01*
X121649142Y-63607242D01*
G37*
G36*
X124189142Y-63607242D02*
G01*
X124337101Y-63668529D01*
X124470255Y-63757499D01*
X124583501Y-63870745D01*
X124672471Y-64003899D01*
X124733758Y-64151858D01*
X124765000Y-64308925D01*
X124765000Y-64469075D01*
X124733758Y-64626142D01*
X124672471Y-64774101D01*
X124583501Y-64907255D01*
X124470255Y-65020501D01*
X124337101Y-65109471D01*
X124189142Y-65170758D01*
X124032075Y-65202000D01*
X123871925Y-65202000D01*
X123714858Y-65170758D01*
X123566899Y-65109471D01*
X123433745Y-65020501D01*
X123320499Y-64907255D01*
X123231529Y-64774101D01*
X123170242Y-64626142D01*
X123139000Y-64469075D01*
X123139000Y-64308925D01*
X123170242Y-64151858D01*
X123231529Y-64003899D01*
X123320499Y-63870745D01*
X123433745Y-63757499D01*
X123566899Y-63668529D01*
X123714858Y-63607242D01*
X123871925Y-63576000D01*
X124032075Y-63576000D01*
X124189142Y-63607242D01*
X124189142Y-63607242D01*
G37*
G36*
X126729142Y-63607242D02*
G01*
X126877101Y-63668529D01*
X127010255Y-63757499D01*
X127123501Y-63870745D01*
X127212471Y-64003899D01*
X127273758Y-64151858D01*
X127305000Y-64308925D01*
X127305000Y-64469075D01*
X127273758Y-64626142D01*
X127212471Y-64774101D01*
X127123501Y-64907255D01*
X127010255Y-65020501D01*
X126877101Y-65109471D01*
X126729142Y-65170758D01*
X126572075Y-65202000D01*
X126411925Y-65202000D01*
X126254858Y-65170758D01*
X126106899Y-65109471D01*
X125973745Y-65020501D01*
X125860499Y-64907255D01*
X125771529Y-64774101D01*
X125710242Y-64626142D01*
X125679000Y-64469075D01*
X125679000Y-64308925D01*
X125710242Y-64151858D01*
X125771529Y-64003899D01*
X125860499Y-63870745D01*
X125973745Y-63757499D01*
X126106899Y-63668529D01*
X126254858Y-63607242D01*
X126411925Y-63576000D01*
X126572075Y-63576000D01*
X126729142Y-63607242D01*
X126729142Y-63607242D01*
G37*
G36*
X129269142Y-63607242D02*
G01*
X129417101Y-63668529D01*
X129550255Y-63757499D01*
X129663501Y-63870745D01*
X129752471Y-64003899D01*
X129813758Y-64151858D01*
X129845000Y-64308925D01*
X129845000Y-64469075D01*
X129813758Y-64626142D01*
X129752471Y-64774101D01*
X129663501Y-64907255D01*
X129550255Y-65020501D01*
X129417101Y-65109471D01*
X129269142Y-65170758D01*
X129112075Y-65202000D01*
X128951925Y-65202000D01*
X128794858Y-65170758D01*
X128646899Y-65109471D01*
X128513745Y-65020501D01*
X128400499Y-64907255D01*
X128311529Y-64774101D01*
X128250242Y-64626142D01*
X128219000Y-64469075D01*
X128219000Y-64308925D01*
X128250242Y-64151858D01*
X128311529Y-64003899D01*
X128400499Y-63870745D01*
X128513745Y-63757499D01*
X128646899Y-63668529D01*
X128794858Y-63607242D01*
X128951925Y-63576000D01*
X129112075Y-63576000D01*
X129269142Y-63607242D01*
X129269142Y-63607242D01*
G37*
G36*
X134349142Y-63607242D02*
G01*
X134497101Y-63668529D01*
X134630255Y-63757499D01*
X134743501Y-63870745D01*
X134832471Y-64003899D01*
X134893758Y-64151858D01*
X134925000Y-64308925D01*
X134925000Y-64469075D01*
X134893758Y-64626142D01*
X134832471Y-64774101D01*
X134743501Y-64907255D01*
X134630255Y-65020501D01*
X134497101Y-65109471D01*
X134349142Y-65170758D01*
X134192075Y-65202000D01*
X134031925Y-65202000D01*
X133874858Y-65170758D01*
X133726899Y-65109471D01*
X133593745Y-65020501D01*
X133480499Y-64907255D01*
X133391529Y-64774101D01*
X133330242Y-64626142D01*
X133299000Y-64469075D01*
X133299000Y-64308925D01*
X133330242Y-64151858D01*
X133391529Y-64003899D01*
X133480499Y-63870745D01*
X133593745Y-63757499D01*
X133726899Y-63668529D01*
X133874858Y-63607242D01*
X134031925Y-63576000D01*
X134192075Y-63576000D01*
X134349142Y-63607242D01*
X134349142Y-63607242D01*
G37*
G36*
X136889142Y-63607242D02*
G01*
X137037101Y-63668529D01*
X137170255Y-63757499D01*
X137283501Y-63870745D01*
X137372471Y-64003899D01*
X137433758Y-64151858D01*
X137465000Y-64308925D01*
X137465000Y-64469075D01*
X137433758Y-64626142D01*
X137372471Y-64774101D01*
X137283501Y-64907255D01*
X137170255Y-65020501D01*
X137037101Y-65109471D01*
X136889142Y-65170758D01*
X136732075Y-65202000D01*
X136571925Y-65202000D01*
X136414858Y-65170758D01*
X136266899Y-65109471D01*
X136133745Y-65020501D01*
X136020499Y-64907255D01*
X135931529Y-64774101D01*
X135870242Y-64626142D01*
X135839000Y-64469075D01*
X135839000Y-64308925D01*
X135870242Y-64151858D01*
X135931529Y-64003899D01*
X136020499Y-63870745D01*
X136133745Y-63757499D01*
X136266899Y-63668529D01*
X136414858Y-63607242D01*
X136571925Y-63576000D01*
X136732075Y-63576000D01*
X136889142Y-63607242D01*
X136889142Y-63607242D01*
G37*
G36*
X141969142Y-63607242D02*
G01*
X142117101Y-63668529D01*
X142250255Y-63757499D01*
X142363501Y-63870745D01*
X142452471Y-64003899D01*
X142513758Y-64151858D01*
X142545000Y-64308925D01*
X142545000Y-64469075D01*
X142513758Y-64626142D01*
X142452471Y-64774101D01*
X142363501Y-64907255D01*
X142250255Y-65020501D01*
X142117101Y-65109471D01*
X141969142Y-65170758D01*
X141812075Y-65202000D01*
X141651925Y-65202000D01*
X141494858Y-65170758D01*
X141346899Y-65109471D01*
X141213745Y-65020501D01*
X141100499Y-64907255D01*
X141011529Y-64774101D01*
X140950242Y-64626142D01*
X140919000Y-64469075D01*
X140919000Y-64308925D01*
X140950242Y-64151858D01*
X141011529Y-64003899D01*
X141100499Y-63870745D01*
X141213745Y-63757499D01*
X141346899Y-63668529D01*
X141494858Y-63607242D01*
X141651925Y-63576000D01*
X141812075Y-63576000D01*
X141969142Y-63607242D01*
X141969142Y-63607242D01*
G37*
G36*
X154669142Y-63607242D02*
G01*
X154817101Y-63668529D01*
X154950255Y-63757499D01*
X155063501Y-63870745D01*
X155152471Y-64003899D01*
X155213758Y-64151858D01*
X155245000Y-64308925D01*
X155245000Y-64469075D01*
X155213758Y-64626142D01*
X155152471Y-64774101D01*
X155063501Y-64907255D01*
X154950255Y-65020501D01*
X154817101Y-65109471D01*
X154669142Y-65170758D01*
X154512075Y-65202000D01*
X154351925Y-65202000D01*
X154194858Y-65170758D01*
X154046899Y-65109471D01*
X153913745Y-65020501D01*
X153800499Y-64907255D01*
X153711529Y-64774101D01*
X153650242Y-64626142D01*
X153619000Y-64469075D01*
X153619000Y-64308925D01*
X153650242Y-64151858D01*
X153711529Y-64003899D01*
X153800499Y-63870745D01*
X153913745Y-63757499D01*
X154046899Y-63668529D01*
X154194858Y-63607242D01*
X154351925Y-63576000D01*
X154512075Y-63576000D01*
X154669142Y-63607242D01*
X154669142Y-63607242D01*
G37*
G36*
X182736142Y-63607242D02*
G01*
X182884101Y-63668529D01*
X183017255Y-63757499D01*
X183130501Y-63870745D01*
X183219471Y-64003899D01*
X183280758Y-64151858D01*
X183312000Y-64308925D01*
X183312000Y-64469075D01*
X183280758Y-64626142D01*
X183219471Y-64774101D01*
X183130501Y-64907255D01*
X183017255Y-65020501D01*
X182884101Y-65109471D01*
X182736142Y-65170758D01*
X182579075Y-65202000D01*
X182418925Y-65202000D01*
X182261858Y-65170758D01*
X182113899Y-65109471D01*
X181980745Y-65020501D01*
X181867499Y-64907255D01*
X181778529Y-64774101D01*
X181717242Y-64626142D01*
X181686000Y-64469075D01*
X181686000Y-64308925D01*
X181717242Y-64151858D01*
X181778529Y-64003899D01*
X181867499Y-63870745D01*
X181980745Y-63757499D01*
X182113899Y-63668529D01*
X182261858Y-63607242D01*
X182418925Y-63576000D01*
X182579075Y-63576000D01*
X182736142Y-63607242D01*
X182736142Y-63607242D01*
G37*
G36*
X167369142Y-63607242D02*
G01*
X167517101Y-63668529D01*
X167650255Y-63757499D01*
X167763501Y-63870745D01*
X167852471Y-64003899D01*
X167913758Y-64151858D01*
X167945000Y-64308925D01*
X167945000Y-64469075D01*
X167913758Y-64626142D01*
X167852471Y-64774101D01*
X167763501Y-64907255D01*
X167650255Y-65020501D01*
X167517101Y-65109471D01*
X167369142Y-65170758D01*
X167212075Y-65202000D01*
X167051925Y-65202000D01*
X166894858Y-65170758D01*
X166746899Y-65109471D01*
X166613745Y-65020501D01*
X166500499Y-64907255D01*
X166411529Y-64774101D01*
X166350242Y-64626142D01*
X166319000Y-64469075D01*
X166319000Y-64308925D01*
X166350242Y-64151858D01*
X166411529Y-64003899D01*
X166500499Y-63870745D01*
X166613745Y-63757499D01*
X166746899Y-63668529D01*
X166894858Y-63607242D01*
X167051925Y-63576000D01*
X167212075Y-63576000D01*
X167369142Y-63607242D01*
X167369142Y-63607242D01*
G37*
G36*
X164829142Y-63607242D02*
G01*
X164977101Y-63668529D01*
X165110255Y-63757499D01*
X165223501Y-63870745D01*
X165312471Y-64003899D01*
X165373758Y-64151858D01*
X165405000Y-64308925D01*
X165405000Y-64469075D01*
X165373758Y-64626142D01*
X165312471Y-64774101D01*
X165223501Y-64907255D01*
X165110255Y-65020501D01*
X164977101Y-65109471D01*
X164829142Y-65170758D01*
X164672075Y-65202000D01*
X164511925Y-65202000D01*
X164354858Y-65170758D01*
X164206899Y-65109471D01*
X164073745Y-65020501D01*
X163960499Y-64907255D01*
X163871529Y-64774101D01*
X163810242Y-64626142D01*
X163779000Y-64469075D01*
X163779000Y-64308925D01*
X163810242Y-64151858D01*
X163871529Y-64003899D01*
X163960499Y-63870745D01*
X164073745Y-63757499D01*
X164206899Y-63668529D01*
X164354858Y-63607242D01*
X164511925Y-63576000D01*
X164672075Y-63576000D01*
X164829142Y-63607242D01*
X164829142Y-63607242D01*
G37*
G36*
X162289142Y-63607242D02*
G01*
X162437101Y-63668529D01*
X162570255Y-63757499D01*
X162683501Y-63870745D01*
X162772471Y-64003899D01*
X162833758Y-64151858D01*
X162865000Y-64308925D01*
X162865000Y-64469075D01*
X162833758Y-64626142D01*
X162772471Y-64774101D01*
X162683501Y-64907255D01*
X162570255Y-65020501D01*
X162437101Y-65109471D01*
X162289142Y-65170758D01*
X162132075Y-65202000D01*
X161971925Y-65202000D01*
X161814858Y-65170758D01*
X161666899Y-65109471D01*
X161533745Y-65020501D01*
X161420499Y-64907255D01*
X161331529Y-64774101D01*
X161270242Y-64626142D01*
X161239000Y-64469075D01*
X161239000Y-64308925D01*
X161270242Y-64151858D01*
X161331529Y-64003899D01*
X161420499Y-63870745D01*
X161533745Y-63757499D01*
X161666899Y-63668529D01*
X161814858Y-63607242D01*
X161971925Y-63576000D01*
X162132075Y-63576000D01*
X162289142Y-63607242D01*
X162289142Y-63607242D01*
G37*
G36*
X159749142Y-63607242D02*
G01*
X159897101Y-63668529D01*
X160030255Y-63757499D01*
X160143501Y-63870745D01*
X160232471Y-64003899D01*
X160293758Y-64151858D01*
X160325000Y-64308925D01*
X160325000Y-64469075D01*
X160293758Y-64626142D01*
X160232471Y-64774101D01*
X160143501Y-64907255D01*
X160030255Y-65020501D01*
X159897101Y-65109471D01*
X159749142Y-65170758D01*
X159592075Y-65202000D01*
X159431925Y-65202000D01*
X159274858Y-65170758D01*
X159126899Y-65109471D01*
X158993745Y-65020501D01*
X158880499Y-64907255D01*
X158791529Y-64774101D01*
X158730242Y-64626142D01*
X158699000Y-64469075D01*
X158699000Y-64308925D01*
X158730242Y-64151858D01*
X158791529Y-64003899D01*
X158880499Y-63870745D01*
X158993745Y-63757499D01*
X159126899Y-63668529D01*
X159274858Y-63607242D01*
X159431925Y-63576000D01*
X159592075Y-63576000D01*
X159749142Y-63607242D01*
X159749142Y-63607242D01*
G37*
G36*
X157209142Y-63607242D02*
G01*
X157357101Y-63668529D01*
X157490255Y-63757499D01*
X157603501Y-63870745D01*
X157692471Y-64003899D01*
X157753758Y-64151858D01*
X157785000Y-64308925D01*
X157785000Y-64469075D01*
X157753758Y-64626142D01*
X157692471Y-64774101D01*
X157603501Y-64907255D01*
X157490255Y-65020501D01*
X157357101Y-65109471D01*
X157209142Y-65170758D01*
X157052075Y-65202000D01*
X156891925Y-65202000D01*
X156734858Y-65170758D01*
X156586899Y-65109471D01*
X156453745Y-65020501D01*
X156340499Y-64907255D01*
X156251529Y-64774101D01*
X156190242Y-64626142D01*
X156159000Y-64469075D01*
X156159000Y-64308925D01*
X156190242Y-64151858D01*
X156251529Y-64003899D01*
X156340499Y-63870745D01*
X156453745Y-63757499D01*
X156586899Y-63668529D01*
X156734858Y-63607242D01*
X156891925Y-63576000D01*
X157052075Y-63576000D01*
X157209142Y-63607242D01*
X157209142Y-63607242D01*
G37*
G36*
X131809142Y-63607242D02*
G01*
X131957101Y-63668529D01*
X132090255Y-63757499D01*
X132203501Y-63870745D01*
X132292471Y-64003899D01*
X132353758Y-64151858D01*
X132385000Y-64308925D01*
X132385000Y-64469075D01*
X132353758Y-64626142D01*
X132292471Y-64774101D01*
X132203501Y-64907255D01*
X132090255Y-65020501D01*
X131957101Y-65109471D01*
X131809142Y-65170758D01*
X131652075Y-65202000D01*
X131491925Y-65202000D01*
X131334858Y-65170758D01*
X131186899Y-65109471D01*
X131053745Y-65020501D01*
X130940499Y-64907255D01*
X130851529Y-64774101D01*
X130790242Y-64626142D01*
X130759000Y-64469075D01*
X130759000Y-64308925D01*
X130790242Y-64151858D01*
X130851529Y-64003899D01*
X130940499Y-63870745D01*
X131053745Y-63757499D01*
X131186899Y-63668529D01*
X131334858Y-63607242D01*
X131491925Y-63576000D01*
X131652075Y-63576000D01*
X131809142Y-63607242D01*
X131809142Y-63607242D01*
G37*
G36*
X149589142Y-63607242D02*
G01*
X149737101Y-63668529D01*
X149870255Y-63757499D01*
X149983501Y-63870745D01*
X150072471Y-64003899D01*
X150133758Y-64151858D01*
X150165000Y-64308925D01*
X150165000Y-64469075D01*
X150133758Y-64626142D01*
X150072471Y-64774101D01*
X149983501Y-64907255D01*
X149870255Y-65020501D01*
X149737101Y-65109471D01*
X149589142Y-65170758D01*
X149432075Y-65202000D01*
X149271925Y-65202000D01*
X149114858Y-65170758D01*
X148966899Y-65109471D01*
X148833745Y-65020501D01*
X148720499Y-64907255D01*
X148631529Y-64774101D01*
X148570242Y-64626142D01*
X148539000Y-64469075D01*
X148539000Y-64308925D01*
X148570242Y-64151858D01*
X148631529Y-64003899D01*
X148720499Y-63870745D01*
X148833745Y-63757499D01*
X148966899Y-63668529D01*
X149114858Y-63607242D01*
X149271925Y-63576000D01*
X149432075Y-63576000D01*
X149589142Y-63607242D01*
X149589142Y-63607242D01*
G37*
G36*
X147049142Y-63607242D02*
G01*
X147197101Y-63668529D01*
X147330255Y-63757499D01*
X147443501Y-63870745D01*
X147532471Y-64003899D01*
X147593758Y-64151858D01*
X147625000Y-64308925D01*
X147625000Y-64469075D01*
X147593758Y-64626142D01*
X147532471Y-64774101D01*
X147443501Y-64907255D01*
X147330255Y-65020501D01*
X147197101Y-65109471D01*
X147049142Y-65170758D01*
X146892075Y-65202000D01*
X146731925Y-65202000D01*
X146574858Y-65170758D01*
X146426899Y-65109471D01*
X146293745Y-65020501D01*
X146180499Y-64907255D01*
X146091529Y-64774101D01*
X146030242Y-64626142D01*
X145999000Y-64469075D01*
X145999000Y-64308925D01*
X146030242Y-64151858D01*
X146091529Y-64003899D01*
X146180499Y-63870745D01*
X146293745Y-63757499D01*
X146426899Y-63668529D01*
X146574858Y-63607242D01*
X146731925Y-63576000D01*
X146892075Y-63576000D01*
X147049142Y-63607242D01*
X147049142Y-63607242D01*
G37*
G36*
X144509142Y-63607242D02*
G01*
X144657101Y-63668529D01*
X144790255Y-63757499D01*
X144903501Y-63870745D01*
X144992471Y-64003899D01*
X145053758Y-64151858D01*
X145085000Y-64308925D01*
X145085000Y-64469075D01*
X145053758Y-64626142D01*
X144992471Y-64774101D01*
X144903501Y-64907255D01*
X144790255Y-65020501D01*
X144657101Y-65109471D01*
X144509142Y-65170758D01*
X144352075Y-65202000D01*
X144191925Y-65202000D01*
X144034858Y-65170758D01*
X143886899Y-65109471D01*
X143753745Y-65020501D01*
X143640499Y-64907255D01*
X143551529Y-64774101D01*
X143490242Y-64626142D01*
X143459000Y-64469075D01*
X143459000Y-64308925D01*
X143490242Y-64151858D01*
X143551529Y-64003899D01*
X143640499Y-63870745D01*
X143753745Y-63757499D01*
X143886899Y-63668529D01*
X144034858Y-63607242D01*
X144191925Y-63576000D01*
X144352075Y-63576000D01*
X144509142Y-63607242D01*
X144509142Y-63607242D01*
G37*
G36*
X139429142Y-63607242D02*
G01*
X139577101Y-63668529D01*
X139710255Y-63757499D01*
X139823501Y-63870745D01*
X139912471Y-64003899D01*
X139973758Y-64151858D01*
X140005000Y-64308925D01*
X140005000Y-64469075D01*
X139973758Y-64626142D01*
X139912471Y-64774101D01*
X139823501Y-64907255D01*
X139710255Y-65020501D01*
X139577101Y-65109471D01*
X139429142Y-65170758D01*
X139272075Y-65202000D01*
X139111925Y-65202000D01*
X138954858Y-65170758D01*
X138806899Y-65109471D01*
X138673745Y-65020501D01*
X138560499Y-64907255D01*
X138471529Y-64774101D01*
X138410242Y-64626142D01*
X138379000Y-64469075D01*
X138379000Y-64308925D01*
X138410242Y-64151858D01*
X138471529Y-64003899D01*
X138560499Y-63870745D01*
X138673745Y-63757499D01*
X138806899Y-63668529D01*
X138954858Y-63607242D01*
X139111925Y-63576000D01*
X139272075Y-63576000D01*
X139429142Y-63607242D01*
X139429142Y-63607242D01*
G37*
G36*
X180196142Y-62337242D02*
G01*
X180344101Y-62398529D01*
X180477255Y-62487499D01*
X180590501Y-62600745D01*
X180679471Y-62733899D01*
X180740758Y-62881858D01*
X180772000Y-63038925D01*
X180772000Y-63199075D01*
X180740758Y-63356142D01*
X180679471Y-63504101D01*
X180590501Y-63637255D01*
X180477255Y-63750501D01*
X180344101Y-63839471D01*
X180196142Y-63900758D01*
X180039075Y-63932000D01*
X179878925Y-63932000D01*
X179721858Y-63900758D01*
X179573899Y-63839471D01*
X179440745Y-63750501D01*
X179327499Y-63637255D01*
X179238529Y-63504101D01*
X179177242Y-63356142D01*
X179146000Y-63199075D01*
X179146000Y-63038925D01*
X179177242Y-62881858D01*
X179238529Y-62733899D01*
X179327499Y-62600745D01*
X179440745Y-62487499D01*
X179573899Y-62398529D01*
X179721858Y-62337242D01*
X179878925Y-62306000D01*
X180039075Y-62306000D01*
X180196142Y-62337242D01*
X180196142Y-62337242D01*
G37*
G36*
X182736142Y-61067242D02*
G01*
X182884101Y-61128529D01*
X183017255Y-61217499D01*
X183130501Y-61330745D01*
X183219471Y-61463899D01*
X183280758Y-61611858D01*
X183312000Y-61768925D01*
X183312000Y-61929075D01*
X183280758Y-62086142D01*
X183219471Y-62234101D01*
X183130501Y-62367255D01*
X183017255Y-62480501D01*
X182884101Y-62569471D01*
X182736142Y-62630758D01*
X182579075Y-62662000D01*
X182418925Y-62662000D01*
X182261858Y-62630758D01*
X182113899Y-62569471D01*
X181980745Y-62480501D01*
X181867499Y-62367255D01*
X181778529Y-62234101D01*
X181717242Y-62086142D01*
X181686000Y-61929075D01*
X181686000Y-61768925D01*
X181717242Y-61611858D01*
X181778529Y-61463899D01*
X181867499Y-61330745D01*
X181980745Y-61217499D01*
X182113899Y-61128529D01*
X182261858Y-61067242D01*
X182418925Y-61036000D01*
X182579075Y-61036000D01*
X182736142Y-61067242D01*
X182736142Y-61067242D01*
G37*
G36*
X189418085Y-58067975D02*
G01*
X189773143Y-58215045D01*
X189773145Y-58215046D01*
X190092690Y-58428559D01*
X190364441Y-58700310D01*
X190577954Y-59019855D01*
X190577955Y-59019857D01*
X190725025Y-59374915D01*
X190800000Y-59751842D01*
X190800000Y-60136158D01*
X190725025Y-60513085D01*
X190577955Y-60868143D01*
X190577954Y-60868145D01*
X190364441Y-61187690D01*
X190092690Y-61459441D01*
X189773145Y-61672954D01*
X189773144Y-61672955D01*
X189773143Y-61672955D01*
X189418085Y-61820025D01*
X189041158Y-61895000D01*
X188656842Y-61895000D01*
X188279915Y-61820025D01*
X187924857Y-61672955D01*
X187924856Y-61672955D01*
X187924855Y-61672954D01*
X187605310Y-61459441D01*
X187333559Y-61187690D01*
X187120046Y-60868145D01*
X187120045Y-60868143D01*
X186972975Y-60513085D01*
X186898000Y-60136158D01*
X186898000Y-59751842D01*
X186972975Y-59374915D01*
X187120045Y-59019857D01*
X187120046Y-59019855D01*
X187333559Y-58700310D01*
X187605310Y-58428559D01*
X187924855Y-58215046D01*
X187924857Y-58215045D01*
X188279915Y-58067975D01*
X188656842Y-57993000D01*
X189041158Y-57993000D01*
X189418085Y-58067975D01*
X189418085Y-58067975D01*
G37*
G36*
X133714142Y-54971242D02*
G01*
X133862101Y-55032529D01*
X133995255Y-55121499D01*
X134108501Y-55234745D01*
X134197471Y-55367899D01*
X134258758Y-55515858D01*
X134290000Y-55672925D01*
X134290000Y-55833075D01*
X134258758Y-55990142D01*
X134197471Y-56138101D01*
X134108501Y-56271255D01*
X133995255Y-56384501D01*
X133862101Y-56473471D01*
X133714142Y-56534758D01*
X133557075Y-56566000D01*
X133396925Y-56566000D01*
X133239858Y-56534758D01*
X133091899Y-56473471D01*
X132958745Y-56384501D01*
X132845499Y-56271255D01*
X132756529Y-56138101D01*
X132695242Y-55990142D01*
X132664000Y-55833075D01*
X132664000Y-55672925D01*
X132695242Y-55515858D01*
X132756529Y-55367899D01*
X132845499Y-55234745D01*
X132958745Y-55121499D01*
X133091899Y-55032529D01*
X133239858Y-54971242D01*
X133396925Y-54940000D01*
X133557075Y-54940000D01*
X133714142Y-54971242D01*
X133714142Y-54971242D01*
G37*
G36*
X151494142Y-54971242D02*
G01*
X151642101Y-55032529D01*
X151775255Y-55121499D01*
X151888501Y-55234745D01*
X151977471Y-55367899D01*
X152038758Y-55515858D01*
X152070000Y-55672925D01*
X152070000Y-55833075D01*
X152038758Y-55990142D01*
X151977471Y-56138101D01*
X151888501Y-56271255D01*
X151775255Y-56384501D01*
X151642101Y-56473471D01*
X151494142Y-56534758D01*
X151337075Y-56566000D01*
X151176925Y-56566000D01*
X151019858Y-56534758D01*
X150871899Y-56473471D01*
X150738745Y-56384501D01*
X150625499Y-56271255D01*
X150536529Y-56138101D01*
X150475242Y-55990142D01*
X150444000Y-55833075D01*
X150444000Y-55672925D01*
X150475242Y-55515858D01*
X150536529Y-55367899D01*
X150625499Y-55234745D01*
X150738745Y-55121499D01*
X150871899Y-55032529D01*
X151019858Y-54971242D01*
X151176925Y-54940000D01*
X151337075Y-54940000D01*
X151494142Y-54971242D01*
X151494142Y-54971242D01*
G37*
G36*
X148954142Y-54971242D02*
G01*
X149102101Y-55032529D01*
X149235255Y-55121499D01*
X149348501Y-55234745D01*
X149437471Y-55367899D01*
X149498758Y-55515858D01*
X149530000Y-55672925D01*
X149530000Y-55833075D01*
X149498758Y-55990142D01*
X149437471Y-56138101D01*
X149348501Y-56271255D01*
X149235255Y-56384501D01*
X149102101Y-56473471D01*
X148954142Y-56534758D01*
X148797075Y-56566000D01*
X148636925Y-56566000D01*
X148479858Y-56534758D01*
X148331899Y-56473471D01*
X148198745Y-56384501D01*
X148085499Y-56271255D01*
X147996529Y-56138101D01*
X147935242Y-55990142D01*
X147904000Y-55833075D01*
X147904000Y-55672925D01*
X147935242Y-55515858D01*
X147996529Y-55367899D01*
X148085499Y-55234745D01*
X148198745Y-55121499D01*
X148331899Y-55032529D01*
X148479858Y-54971242D01*
X148636925Y-54940000D01*
X148797075Y-54940000D01*
X148954142Y-54971242D01*
X148954142Y-54971242D01*
G37*
G36*
X146414142Y-54971242D02*
G01*
X146562101Y-55032529D01*
X146695255Y-55121499D01*
X146808501Y-55234745D01*
X146897471Y-55367899D01*
X146958758Y-55515858D01*
X146990000Y-55672925D01*
X146990000Y-55833075D01*
X146958758Y-55990142D01*
X146897471Y-56138101D01*
X146808501Y-56271255D01*
X146695255Y-56384501D01*
X146562101Y-56473471D01*
X146414142Y-56534758D01*
X146257075Y-56566000D01*
X146096925Y-56566000D01*
X145939858Y-56534758D01*
X145791899Y-56473471D01*
X145658745Y-56384501D01*
X145545499Y-56271255D01*
X145456529Y-56138101D01*
X145395242Y-55990142D01*
X145364000Y-55833075D01*
X145364000Y-55672925D01*
X145395242Y-55515858D01*
X145456529Y-55367899D01*
X145545499Y-55234745D01*
X145658745Y-55121499D01*
X145791899Y-55032529D01*
X145939858Y-54971242D01*
X146096925Y-54940000D01*
X146257075Y-54940000D01*
X146414142Y-54971242D01*
X146414142Y-54971242D01*
G37*
G36*
X143874142Y-54971242D02*
G01*
X144022101Y-55032529D01*
X144155255Y-55121499D01*
X144268501Y-55234745D01*
X144357471Y-55367899D01*
X144418758Y-55515858D01*
X144450000Y-55672925D01*
X144450000Y-55833075D01*
X144418758Y-55990142D01*
X144357471Y-56138101D01*
X144268501Y-56271255D01*
X144155255Y-56384501D01*
X144022101Y-56473471D01*
X143874142Y-56534758D01*
X143717075Y-56566000D01*
X143556925Y-56566000D01*
X143399858Y-56534758D01*
X143251899Y-56473471D01*
X143118745Y-56384501D01*
X143005499Y-56271255D01*
X142916529Y-56138101D01*
X142855242Y-55990142D01*
X142824000Y-55833075D01*
X142824000Y-55672925D01*
X142855242Y-55515858D01*
X142916529Y-55367899D01*
X143005499Y-55234745D01*
X143118745Y-55121499D01*
X143251899Y-55032529D01*
X143399858Y-54971242D01*
X143556925Y-54940000D01*
X143717075Y-54940000D01*
X143874142Y-54971242D01*
X143874142Y-54971242D01*
G37*
G36*
X138794142Y-54971242D02*
G01*
X138942101Y-55032529D01*
X139075255Y-55121499D01*
X139188501Y-55234745D01*
X139277471Y-55367899D01*
X139338758Y-55515858D01*
X139370000Y-55672925D01*
X139370000Y-55833075D01*
X139338758Y-55990142D01*
X139277471Y-56138101D01*
X139188501Y-56271255D01*
X139075255Y-56384501D01*
X138942101Y-56473471D01*
X138794142Y-56534758D01*
X138637075Y-56566000D01*
X138476925Y-56566000D01*
X138319858Y-56534758D01*
X138171899Y-56473471D01*
X138038745Y-56384501D01*
X137925499Y-56271255D01*
X137836529Y-56138101D01*
X137775242Y-55990142D01*
X137744000Y-55833075D01*
X137744000Y-55672925D01*
X137775242Y-55515858D01*
X137836529Y-55367899D01*
X137925499Y-55234745D01*
X138038745Y-55121499D01*
X138171899Y-55032529D01*
X138319858Y-54971242D01*
X138476925Y-54940000D01*
X138637075Y-54940000D01*
X138794142Y-54971242D01*
X138794142Y-54971242D01*
G37*
G36*
X141334142Y-54971242D02*
G01*
X141482101Y-55032529D01*
X141615255Y-55121499D01*
X141728501Y-55234745D01*
X141817471Y-55367899D01*
X141878758Y-55515858D01*
X141910000Y-55672925D01*
X141910000Y-55833075D01*
X141878758Y-55990142D01*
X141817471Y-56138101D01*
X141728501Y-56271255D01*
X141615255Y-56384501D01*
X141482101Y-56473471D01*
X141334142Y-56534758D01*
X141177075Y-56566000D01*
X141016925Y-56566000D01*
X140859858Y-56534758D01*
X140711899Y-56473471D01*
X140578745Y-56384501D01*
X140465499Y-56271255D01*
X140376529Y-56138101D01*
X140315242Y-55990142D01*
X140284000Y-55833075D01*
X140284000Y-55672925D01*
X140315242Y-55515858D01*
X140376529Y-55367899D01*
X140465499Y-55234745D01*
X140578745Y-55121499D01*
X140711899Y-55032529D01*
X140859858Y-54971242D01*
X141016925Y-54940000D01*
X141177075Y-54940000D01*
X141334142Y-54971242D01*
X141334142Y-54971242D01*
G37*
G36*
X128634142Y-54971242D02*
G01*
X128782101Y-55032529D01*
X128915255Y-55121499D01*
X129028501Y-55234745D01*
X129117471Y-55367899D01*
X129178758Y-55515858D01*
X129210000Y-55672925D01*
X129210000Y-55833075D01*
X129178758Y-55990142D01*
X129117471Y-56138101D01*
X129028501Y-56271255D01*
X128915255Y-56384501D01*
X128782101Y-56473471D01*
X128634142Y-56534758D01*
X128477075Y-56566000D01*
X128316925Y-56566000D01*
X128159858Y-56534758D01*
X128011899Y-56473471D01*
X127878745Y-56384501D01*
X127765499Y-56271255D01*
X127676529Y-56138101D01*
X127615242Y-55990142D01*
X127584000Y-55833075D01*
X127584000Y-55672925D01*
X127615242Y-55515858D01*
X127676529Y-55367899D01*
X127765499Y-55234745D01*
X127878745Y-55121499D01*
X128011899Y-55032529D01*
X128159858Y-54971242D01*
X128316925Y-54940000D01*
X128477075Y-54940000D01*
X128634142Y-54971242D01*
X128634142Y-54971242D01*
G37*
G36*
X136254142Y-54971242D02*
G01*
X136402101Y-55032529D01*
X136535255Y-55121499D01*
X136648501Y-55234745D01*
X136737471Y-55367899D01*
X136798758Y-55515858D01*
X136830000Y-55672925D01*
X136830000Y-55833075D01*
X136798758Y-55990142D01*
X136737471Y-56138101D01*
X136648501Y-56271255D01*
X136535255Y-56384501D01*
X136402101Y-56473471D01*
X136254142Y-56534758D01*
X136097075Y-56566000D01*
X135936925Y-56566000D01*
X135779858Y-56534758D01*
X135631899Y-56473471D01*
X135498745Y-56384501D01*
X135385499Y-56271255D01*
X135296529Y-56138101D01*
X135235242Y-55990142D01*
X135204000Y-55833075D01*
X135204000Y-55672925D01*
X135235242Y-55515858D01*
X135296529Y-55367899D01*
X135385499Y-55234745D01*
X135498745Y-55121499D01*
X135631899Y-55032529D01*
X135779858Y-54971242D01*
X135936925Y-54940000D01*
X136097075Y-54940000D01*
X136254142Y-54971242D01*
X136254142Y-54971242D01*
G37*
G36*
X131174142Y-54971242D02*
G01*
X131322101Y-55032529D01*
X131455255Y-55121499D01*
X131568501Y-55234745D01*
X131657471Y-55367899D01*
X131718758Y-55515858D01*
X131750000Y-55672925D01*
X131750000Y-55833075D01*
X131718758Y-55990142D01*
X131657471Y-56138101D01*
X131568501Y-56271255D01*
X131455255Y-56384501D01*
X131322101Y-56473471D01*
X131174142Y-56534758D01*
X131017075Y-56566000D01*
X130856925Y-56566000D01*
X130699858Y-56534758D01*
X130551899Y-56473471D01*
X130418745Y-56384501D01*
X130305499Y-56271255D01*
X130216529Y-56138101D01*
X130155242Y-55990142D01*
X130124000Y-55833075D01*
X130124000Y-55672925D01*
X130155242Y-55515858D01*
X130216529Y-55367899D01*
X130305499Y-55234745D01*
X130418745Y-55121499D01*
X130551899Y-55032529D01*
X130699858Y-54971242D01*
X130856925Y-54940000D01*
X131017075Y-54940000D01*
X131174142Y-54971242D01*
X131174142Y-54971242D01*
G37*
G36*
X186182618Y-54203420D02*
G01*
X186273404Y-54230960D01*
X186305336Y-54240646D01*
X186418425Y-54301094D01*
X186517554Y-54382446D01*
X186598906Y-54481575D01*
X186659354Y-54594664D01*
X186659355Y-54594668D01*
X186696580Y-54717382D01*
X186706000Y-54813027D01*
X186706000Y-55676973D01*
X186696580Y-55772618D01*
X186674446Y-55845583D01*
X186659354Y-55895336D01*
X186598906Y-56008425D01*
X186517554Y-56107553D01*
X186418424Y-56188906D01*
X186305335Y-56249354D01*
X186273403Y-56259040D01*
X186182617Y-56286580D01*
X186055000Y-56299149D01*
X185927382Y-56286580D01*
X185836596Y-56259040D01*
X185804664Y-56249354D01*
X185691575Y-56188906D01*
X185592447Y-56107554D01*
X185511094Y-56008424D01*
X185450646Y-55895335D01*
X185431760Y-55833075D01*
X185413420Y-55772617D01*
X185404000Y-55676972D01*
X185404000Y-54813027D01*
X185413420Y-54717382D01*
X185450646Y-54594668D01*
X185450647Y-54594664D01*
X185511095Y-54481575D01*
X185592447Y-54382446D01*
X185691576Y-54301094D01*
X185804665Y-54240646D01*
X185836597Y-54230960D01*
X185927383Y-54203420D01*
X186055000Y-54190851D01*
X186182618Y-54203420D01*
X186182618Y-54203420D01*
G37*
G36*
X183642618Y-54203420D02*
G01*
X183733404Y-54230960D01*
X183765336Y-54240646D01*
X183878425Y-54301094D01*
X183977554Y-54382446D01*
X184058906Y-54481575D01*
X184119354Y-54594664D01*
X184119355Y-54594668D01*
X184156580Y-54717382D01*
X184166000Y-54813027D01*
X184166000Y-55676973D01*
X184156580Y-55772618D01*
X184134446Y-55845583D01*
X184119354Y-55895336D01*
X184058906Y-56008425D01*
X183977554Y-56107553D01*
X183878424Y-56188906D01*
X183765335Y-56249354D01*
X183733403Y-56259040D01*
X183642617Y-56286580D01*
X183515000Y-56299149D01*
X183387382Y-56286580D01*
X183296596Y-56259040D01*
X183264664Y-56249354D01*
X183151575Y-56188906D01*
X183052447Y-56107554D01*
X182971094Y-56008424D01*
X182910646Y-55895335D01*
X182891760Y-55833075D01*
X182873420Y-55772617D01*
X182864000Y-55676972D01*
X182864000Y-54813027D01*
X182873420Y-54717382D01*
X182910646Y-54594668D01*
X182910647Y-54594664D01*
X182971095Y-54481575D01*
X183052447Y-54382446D01*
X183151576Y-54301094D01*
X183264665Y-54240646D01*
X183296597Y-54230960D01*
X183387383Y-54203420D01*
X183515000Y-54190851D01*
X183642618Y-54203420D01*
X183642618Y-54203420D01*
G37*
G36*
X188722618Y-54203420D02*
G01*
X188813404Y-54230960D01*
X188845336Y-54240646D01*
X188958425Y-54301094D01*
X189057554Y-54382446D01*
X189138906Y-54481575D01*
X189199354Y-54594664D01*
X189199355Y-54594668D01*
X189236580Y-54717382D01*
X189246000Y-54813027D01*
X189246000Y-55676973D01*
X189236580Y-55772618D01*
X189214446Y-55845583D01*
X189199354Y-55895336D01*
X189138906Y-56008425D01*
X189057554Y-56107553D01*
X188958424Y-56188906D01*
X188845335Y-56249354D01*
X188813403Y-56259040D01*
X188722617Y-56286580D01*
X188595000Y-56299149D01*
X188467382Y-56286580D01*
X188376596Y-56259040D01*
X188344664Y-56249354D01*
X188231575Y-56188906D01*
X188132447Y-56107554D01*
X188051094Y-56008424D01*
X187990646Y-55895335D01*
X187971760Y-55833075D01*
X187953420Y-55772617D01*
X187944000Y-55676972D01*
X187944000Y-54813027D01*
X187953420Y-54717382D01*
X187990646Y-54594668D01*
X187990647Y-54594664D01*
X188051095Y-54481575D01*
X188132447Y-54382446D01*
X188231576Y-54301094D01*
X188344665Y-54240646D01*
X188376597Y-54230960D01*
X188467383Y-54203420D01*
X188595000Y-54190851D01*
X188722618Y-54203420D01*
X188722618Y-54203420D01*
G37*
G36*
X191262618Y-54203420D02*
G01*
X191353404Y-54230960D01*
X191385336Y-54240646D01*
X191498425Y-54301094D01*
X191597554Y-54382446D01*
X191678906Y-54481575D01*
X191739354Y-54594664D01*
X191739355Y-54594668D01*
X191776580Y-54717382D01*
X191786000Y-54813027D01*
X191786000Y-55676973D01*
X191776580Y-55772618D01*
X191754446Y-55845583D01*
X191739354Y-55895336D01*
X191678906Y-56008425D01*
X191597554Y-56107553D01*
X191498424Y-56188906D01*
X191385335Y-56249354D01*
X191353403Y-56259040D01*
X191262617Y-56286580D01*
X191135000Y-56299149D01*
X191007382Y-56286580D01*
X190916596Y-56259040D01*
X190884664Y-56249354D01*
X190771575Y-56188906D01*
X190672447Y-56107554D01*
X190591094Y-56008424D01*
X190530646Y-55895335D01*
X190511760Y-55833075D01*
X190493420Y-55772617D01*
X190484000Y-55676972D01*
X190484000Y-54813027D01*
X190493420Y-54717382D01*
X190530646Y-54594668D01*
X190530647Y-54594664D01*
X190591095Y-54481575D01*
X190672447Y-54382446D01*
X190771576Y-54301094D01*
X190884665Y-54240646D01*
X190916597Y-54230960D01*
X191007383Y-54203420D01*
X191135000Y-54190851D01*
X191262618Y-54203420D01*
X191262618Y-54203420D01*
G37*
G36*
X193802618Y-54203420D02*
G01*
X193893404Y-54230960D01*
X193925336Y-54240646D01*
X194038425Y-54301094D01*
X194137554Y-54382446D01*
X194218906Y-54481575D01*
X194279354Y-54594664D01*
X194279355Y-54594668D01*
X194316580Y-54717382D01*
X194326000Y-54813027D01*
X194326000Y-55676973D01*
X194316580Y-55772618D01*
X194294446Y-55845583D01*
X194279354Y-55895336D01*
X194218906Y-56008425D01*
X194137554Y-56107553D01*
X194038424Y-56188906D01*
X193925335Y-56249354D01*
X193893403Y-56259040D01*
X193802617Y-56286580D01*
X193675000Y-56299149D01*
X193547382Y-56286580D01*
X193456596Y-56259040D01*
X193424664Y-56249354D01*
X193311575Y-56188906D01*
X193212447Y-56107554D01*
X193131094Y-56008424D01*
X193070646Y-55895335D01*
X193051760Y-55833075D01*
X193033420Y-55772617D01*
X193024000Y-55676972D01*
X193024000Y-54813027D01*
X193033420Y-54717382D01*
X193070646Y-54594668D01*
X193070647Y-54594664D01*
X193131095Y-54481575D01*
X193212447Y-54382446D01*
X193311576Y-54301094D01*
X193424665Y-54240646D01*
X193456597Y-54230960D01*
X193547383Y-54203420D01*
X193675000Y-54190851D01*
X193802618Y-54203420D01*
X193802618Y-54203420D01*
G37*
G36*
X178562618Y-54203420D02*
G01*
X178653404Y-54230960D01*
X178685336Y-54240646D01*
X178798425Y-54301094D01*
X178897554Y-54382446D01*
X178978906Y-54481575D01*
X179039354Y-54594664D01*
X179039355Y-54594668D01*
X179076580Y-54717382D01*
X179086000Y-54813027D01*
X179086000Y-55676973D01*
X179076580Y-55772618D01*
X179054446Y-55845583D01*
X179039354Y-55895336D01*
X178978906Y-56008425D01*
X178897554Y-56107553D01*
X178798424Y-56188906D01*
X178685335Y-56249354D01*
X178653403Y-56259040D01*
X178562617Y-56286580D01*
X178435000Y-56299149D01*
X178307382Y-56286580D01*
X178216596Y-56259040D01*
X178184664Y-56249354D01*
X178071575Y-56188906D01*
X177972447Y-56107554D01*
X177891094Y-56008424D01*
X177830646Y-55895335D01*
X177811760Y-55833075D01*
X177793420Y-55772617D01*
X177784000Y-55676972D01*
X177784000Y-54813027D01*
X177793420Y-54717382D01*
X177830646Y-54594668D01*
X177830647Y-54594664D01*
X177891095Y-54481575D01*
X177972447Y-54382446D01*
X178071576Y-54301094D01*
X178184665Y-54240646D01*
X178216597Y-54230960D01*
X178307383Y-54203420D01*
X178435000Y-54190851D01*
X178562618Y-54203420D01*
X178562618Y-54203420D01*
G37*
G36*
X176022618Y-54203420D02*
G01*
X176113404Y-54230960D01*
X176145336Y-54240646D01*
X176258425Y-54301094D01*
X176357554Y-54382446D01*
X176438906Y-54481575D01*
X176499354Y-54594664D01*
X176499355Y-54594668D01*
X176536580Y-54717382D01*
X176546000Y-54813027D01*
X176546000Y-55676973D01*
X176536580Y-55772618D01*
X176514446Y-55845583D01*
X176499354Y-55895336D01*
X176438906Y-56008425D01*
X176357554Y-56107553D01*
X176258424Y-56188906D01*
X176145335Y-56249354D01*
X176113403Y-56259040D01*
X176022617Y-56286580D01*
X175895000Y-56299149D01*
X175767382Y-56286580D01*
X175676596Y-56259040D01*
X175644664Y-56249354D01*
X175531575Y-56188906D01*
X175432447Y-56107554D01*
X175351094Y-56008424D01*
X175290646Y-55895335D01*
X175271760Y-55833075D01*
X175253420Y-55772617D01*
X175244000Y-55676972D01*
X175244000Y-54813027D01*
X175253420Y-54717382D01*
X175290646Y-54594668D01*
X175290647Y-54594664D01*
X175351095Y-54481575D01*
X175432447Y-54382446D01*
X175531576Y-54301094D01*
X175644665Y-54240646D01*
X175676597Y-54230960D01*
X175767383Y-54203420D01*
X175895000Y-54190851D01*
X176022618Y-54203420D01*
X176022618Y-54203420D01*
G37*
G36*
X173482618Y-54203420D02*
G01*
X173573404Y-54230960D01*
X173605336Y-54240646D01*
X173718425Y-54301094D01*
X173817554Y-54382446D01*
X173898906Y-54481575D01*
X173959354Y-54594664D01*
X173959355Y-54594668D01*
X173996580Y-54717382D01*
X174006000Y-54813027D01*
X174006000Y-55676973D01*
X173996580Y-55772618D01*
X173974446Y-55845583D01*
X173959354Y-55895336D01*
X173898906Y-56008425D01*
X173817554Y-56107553D01*
X173718424Y-56188906D01*
X173605335Y-56249354D01*
X173573403Y-56259040D01*
X173482617Y-56286580D01*
X173355000Y-56299149D01*
X173227382Y-56286580D01*
X173136596Y-56259040D01*
X173104664Y-56249354D01*
X172991575Y-56188906D01*
X172892447Y-56107554D01*
X172811094Y-56008424D01*
X172750646Y-55895335D01*
X172731760Y-55833075D01*
X172713420Y-55772617D01*
X172704000Y-55676972D01*
X172704000Y-54813027D01*
X172713420Y-54717382D01*
X172750646Y-54594668D01*
X172750647Y-54594664D01*
X172811095Y-54481575D01*
X172892447Y-54382446D01*
X172991576Y-54301094D01*
X173104665Y-54240646D01*
X173136597Y-54230960D01*
X173227383Y-54203420D01*
X173355000Y-54190851D01*
X173482618Y-54203420D01*
X173482618Y-54203420D01*
G37*
G36*
X181102618Y-54203420D02*
G01*
X181193404Y-54230960D01*
X181225336Y-54240646D01*
X181338425Y-54301094D01*
X181437554Y-54382446D01*
X181518906Y-54481575D01*
X181579354Y-54594664D01*
X181579355Y-54594668D01*
X181616580Y-54717382D01*
X181626000Y-54813027D01*
X181626000Y-55676973D01*
X181616580Y-55772618D01*
X181594446Y-55845583D01*
X181579354Y-55895336D01*
X181518906Y-56008425D01*
X181437554Y-56107553D01*
X181338424Y-56188906D01*
X181225335Y-56249354D01*
X181193403Y-56259040D01*
X181102617Y-56286580D01*
X180975000Y-56299149D01*
X180847382Y-56286580D01*
X180756596Y-56259040D01*
X180724664Y-56249354D01*
X180611575Y-56188906D01*
X180512447Y-56107554D01*
X180431094Y-56008424D01*
X180370646Y-55895335D01*
X180351760Y-55833075D01*
X180333420Y-55772617D01*
X180324000Y-55676972D01*
X180324000Y-54813027D01*
X180333420Y-54717382D01*
X180370646Y-54594668D01*
X180370647Y-54594664D01*
X180431095Y-54481575D01*
X180512447Y-54382446D01*
X180611576Y-54301094D01*
X180724665Y-54240646D01*
X180756597Y-54230960D01*
X180847383Y-54203420D01*
X180975000Y-54190851D01*
X181102618Y-54203420D01*
X181102618Y-54203420D01*
G37*
G36*
X157287490Y-54593617D02*
G01*
X157405964Y-54642691D01*
X157512588Y-54713935D01*
X157603265Y-54804612D01*
X157674509Y-54911236D01*
X157699365Y-54971242D01*
X157723583Y-55029711D01*
X157725003Y-55036849D01*
X157732116Y-55060298D01*
X157743667Y-55081909D01*
X157759212Y-55100851D01*
X157778154Y-55116397D01*
X157799764Y-55127948D01*
X157823213Y-55135061D01*
X157847599Y-55137463D01*
X157871985Y-55135061D01*
X157895434Y-55127948D01*
X157917045Y-55116397D01*
X157935987Y-55100852D01*
X157951533Y-55081910D01*
X157963084Y-55060300D01*
X157970197Y-55036849D01*
X157971617Y-55029711D01*
X157995836Y-54971242D01*
X158020691Y-54911236D01*
X158091935Y-54804612D01*
X158182612Y-54713935D01*
X158289236Y-54642691D01*
X158407710Y-54593617D01*
X158533481Y-54568600D01*
X158661719Y-54568600D01*
X158787490Y-54593617D01*
X158905964Y-54642691D01*
X159012588Y-54713935D01*
X159103265Y-54804612D01*
X159174510Y-54911238D01*
X159223583Y-55029710D01*
X159248600Y-55155481D01*
X159248600Y-55283719D01*
X159233966Y-55357290D01*
X159223583Y-55409490D01*
X159174509Y-55527964D01*
X159103265Y-55634588D01*
X159012588Y-55725265D01*
X158905964Y-55796509D01*
X158905963Y-55796510D01*
X158905962Y-55796510D01*
X158787490Y-55845583D01*
X158661719Y-55870600D01*
X158533481Y-55870600D01*
X158407710Y-55845583D01*
X158289238Y-55796510D01*
X158289237Y-55796510D01*
X158289236Y-55796509D01*
X158182612Y-55725265D01*
X158091935Y-55634588D01*
X158020691Y-55527964D01*
X157971617Y-55409490D01*
X157970197Y-55402351D01*
X157963084Y-55378902D01*
X157951533Y-55357291D01*
X157935988Y-55338349D01*
X157917046Y-55322803D01*
X157895436Y-55311252D01*
X157871987Y-55304139D01*
X157847601Y-55301737D01*
X157823215Y-55304139D01*
X157799766Y-55311252D01*
X157778155Y-55322803D01*
X157759213Y-55338348D01*
X157743667Y-55357290D01*
X157732116Y-55378900D01*
X157725003Y-55402351D01*
X157723583Y-55409490D01*
X157674509Y-55527964D01*
X157603265Y-55634588D01*
X157512588Y-55725265D01*
X157405964Y-55796509D01*
X157405963Y-55796510D01*
X157405962Y-55796510D01*
X157287490Y-55845583D01*
X157161719Y-55870600D01*
X157033481Y-55870600D01*
X156907710Y-55845583D01*
X156789238Y-55796510D01*
X156789237Y-55796510D01*
X156789236Y-55796509D01*
X156682612Y-55725265D01*
X156591935Y-55634588D01*
X156520691Y-55527964D01*
X156471617Y-55409490D01*
X156461234Y-55357290D01*
X156446600Y-55283719D01*
X156446600Y-55155481D01*
X156471617Y-55029710D01*
X156520690Y-54911238D01*
X156591935Y-54804612D01*
X156682612Y-54713935D01*
X156789236Y-54642691D01*
X156907710Y-54593617D01*
X157033481Y-54568600D01*
X157161719Y-54568600D01*
X157287490Y-54593617D01*
X157287490Y-54593617D01*
G37*
G36*
X150732142Y-49002242D02*
G01*
X150880101Y-49063529D01*
X151013255Y-49152499D01*
X151126501Y-49265745D01*
X151215471Y-49398899D01*
X151276758Y-49546858D01*
X151308000Y-49703925D01*
X151308000Y-49864075D01*
X151276758Y-50021142D01*
X151215471Y-50169101D01*
X151126501Y-50302255D01*
X151013255Y-50415501D01*
X150880101Y-50504471D01*
X150732142Y-50565758D01*
X150575075Y-50597000D01*
X150414925Y-50597000D01*
X150257858Y-50565758D01*
X150109899Y-50504471D01*
X149976745Y-50415501D01*
X149863499Y-50302255D01*
X149774529Y-50169101D01*
X149713242Y-50021142D01*
X149682000Y-49864075D01*
X149682000Y-49703925D01*
X149713242Y-49546858D01*
X149774529Y-49398899D01*
X149863499Y-49265745D01*
X149976745Y-49152499D01*
X150109899Y-49063529D01*
X150257858Y-49002242D01*
X150414925Y-48971000D01*
X150575075Y-48971000D01*
X150732142Y-49002242D01*
X150732142Y-49002242D01*
G37*
G36*
X148446142Y-49002242D02*
G01*
X148594101Y-49063529D01*
X148727255Y-49152499D01*
X148840501Y-49265745D01*
X148929471Y-49398899D01*
X148990758Y-49546858D01*
X149022000Y-49703925D01*
X149022000Y-49864075D01*
X148990758Y-50021142D01*
X148929471Y-50169101D01*
X148840501Y-50302255D01*
X148727255Y-50415501D01*
X148594101Y-50504471D01*
X148446142Y-50565758D01*
X148289075Y-50597000D01*
X148128925Y-50597000D01*
X147971858Y-50565758D01*
X147823899Y-50504471D01*
X147690745Y-50415501D01*
X147577499Y-50302255D01*
X147488529Y-50169101D01*
X147427242Y-50021142D01*
X147396000Y-49864075D01*
X147396000Y-49703925D01*
X147427242Y-49546858D01*
X147488529Y-49398899D01*
X147577499Y-49265745D01*
X147690745Y-49152499D01*
X147823899Y-49063529D01*
X147971858Y-49002242D01*
X148128925Y-48971000D01*
X148289075Y-48971000D01*
X148446142Y-49002242D01*
X148446142Y-49002242D01*
G37*
G36*
X156828142Y-48875242D02*
G01*
X156976101Y-48936529D01*
X157109255Y-49025499D01*
X157222501Y-49138745D01*
X157311471Y-49271899D01*
X157372758Y-49419858D01*
X157404000Y-49576925D01*
X157404000Y-49737075D01*
X157372758Y-49894142D01*
X157311471Y-50042101D01*
X157222501Y-50175255D01*
X157109255Y-50288501D01*
X156976101Y-50377471D01*
X156828142Y-50438758D01*
X156671075Y-50470000D01*
X156510925Y-50470000D01*
X156353858Y-50438758D01*
X156205899Y-50377471D01*
X156072745Y-50288501D01*
X155959499Y-50175255D01*
X155870529Y-50042101D01*
X155809242Y-49894142D01*
X155778000Y-49737075D01*
X155778000Y-49576925D01*
X155809242Y-49419858D01*
X155870529Y-49271899D01*
X155959499Y-49138745D01*
X156072745Y-49025499D01*
X156205899Y-48936529D01*
X156353858Y-48875242D01*
X156510925Y-48844000D01*
X156671075Y-48844000D01*
X156828142Y-48875242D01*
X156828142Y-48875242D01*
G37*
G36*
X159114142Y-48875242D02*
G01*
X159262101Y-48936529D01*
X159395255Y-49025499D01*
X159508501Y-49138745D01*
X159597471Y-49271899D01*
X159658758Y-49419858D01*
X159690000Y-49576925D01*
X159690000Y-49737075D01*
X159658758Y-49894142D01*
X159597471Y-50042101D01*
X159508501Y-50175255D01*
X159395255Y-50288501D01*
X159262101Y-50377471D01*
X159114142Y-50438758D01*
X158957075Y-50470000D01*
X158796925Y-50470000D01*
X158639858Y-50438758D01*
X158491899Y-50377471D01*
X158358745Y-50288501D01*
X158245499Y-50175255D01*
X158156529Y-50042101D01*
X158095242Y-49894142D01*
X158064000Y-49737075D01*
X158064000Y-49576925D01*
X158095242Y-49419858D01*
X158156529Y-49271899D01*
X158245499Y-49138745D01*
X158358745Y-49025499D01*
X158491899Y-48936529D01*
X158639858Y-48875242D01*
X158796925Y-48844000D01*
X158957075Y-48844000D01*
X159114142Y-48875242D01*
X159114142Y-48875242D01*
G37*
G36*
X132444142Y-48875242D02*
G01*
X132592101Y-48936529D01*
X132725255Y-49025499D01*
X132838501Y-49138745D01*
X132927471Y-49271899D01*
X132988758Y-49419858D01*
X133020000Y-49576925D01*
X133020000Y-49737075D01*
X132988758Y-49894142D01*
X132927471Y-50042101D01*
X132838501Y-50175255D01*
X132725255Y-50288501D01*
X132592101Y-50377471D01*
X132444142Y-50438758D01*
X132287075Y-50470000D01*
X132126925Y-50470000D01*
X131969858Y-50438758D01*
X131821899Y-50377471D01*
X131688745Y-50288501D01*
X131575499Y-50175255D01*
X131486529Y-50042101D01*
X131425242Y-49894142D01*
X131394000Y-49737075D01*
X131394000Y-49576925D01*
X131425242Y-49419858D01*
X131486529Y-49271899D01*
X131575499Y-49138745D01*
X131688745Y-49025499D01*
X131821899Y-48936529D01*
X131969858Y-48875242D01*
X132126925Y-48844000D01*
X132287075Y-48844000D01*
X132444142Y-48875242D01*
X132444142Y-48875242D01*
G37*
G36*
X142731142Y-48875242D02*
G01*
X142879101Y-48936529D01*
X143012255Y-49025499D01*
X143125501Y-49138745D01*
X143214471Y-49271899D01*
X143275758Y-49419858D01*
X143307000Y-49576925D01*
X143307000Y-49737075D01*
X143275758Y-49894142D01*
X143214471Y-50042101D01*
X143125501Y-50175255D01*
X143012255Y-50288501D01*
X142879101Y-50377471D01*
X142731142Y-50438758D01*
X142574075Y-50470000D01*
X142413925Y-50470000D01*
X142256858Y-50438758D01*
X142108899Y-50377471D01*
X141975745Y-50288501D01*
X141862499Y-50175255D01*
X141773529Y-50042101D01*
X141712242Y-49894142D01*
X141681000Y-49737075D01*
X141681000Y-49576925D01*
X141712242Y-49419858D01*
X141773529Y-49271899D01*
X141862499Y-49138745D01*
X141975745Y-49025499D01*
X142108899Y-48936529D01*
X142256858Y-48875242D01*
X142413925Y-48844000D01*
X142574075Y-48844000D01*
X142731142Y-48875242D01*
X142731142Y-48875242D01*
G37*
G36*
X140445142Y-48875242D02*
G01*
X140593101Y-48936529D01*
X140726255Y-49025499D01*
X140839501Y-49138745D01*
X140928471Y-49271899D01*
X140989758Y-49419858D01*
X141021000Y-49576925D01*
X141021000Y-49737075D01*
X140989758Y-49894142D01*
X140928471Y-50042101D01*
X140839501Y-50175255D01*
X140726255Y-50288501D01*
X140593101Y-50377471D01*
X140445142Y-50438758D01*
X140288075Y-50470000D01*
X140127925Y-50470000D01*
X139970858Y-50438758D01*
X139822899Y-50377471D01*
X139689745Y-50288501D01*
X139576499Y-50175255D01*
X139487529Y-50042101D01*
X139426242Y-49894142D01*
X139395000Y-49737075D01*
X139395000Y-49576925D01*
X139426242Y-49419858D01*
X139487529Y-49271899D01*
X139576499Y-49138745D01*
X139689745Y-49025499D01*
X139822899Y-48936529D01*
X139970858Y-48875242D01*
X140127925Y-48844000D01*
X140288075Y-48844000D01*
X140445142Y-48875242D01*
X140445142Y-48875242D01*
G37*
G36*
X134730142Y-48875242D02*
G01*
X134878101Y-48936529D01*
X135011255Y-49025499D01*
X135124501Y-49138745D01*
X135213471Y-49271899D01*
X135274758Y-49419858D01*
X135306000Y-49576925D01*
X135306000Y-49737075D01*
X135274758Y-49894142D01*
X135213471Y-50042101D01*
X135124501Y-50175255D01*
X135011255Y-50288501D01*
X134878101Y-50377471D01*
X134730142Y-50438758D01*
X134573075Y-50470000D01*
X134412925Y-50470000D01*
X134255858Y-50438758D01*
X134107899Y-50377471D01*
X133974745Y-50288501D01*
X133861499Y-50175255D01*
X133772529Y-50042101D01*
X133711242Y-49894142D01*
X133680000Y-49737075D01*
X133680000Y-49576925D01*
X133711242Y-49419858D01*
X133772529Y-49271899D01*
X133861499Y-49138745D01*
X133974745Y-49025499D01*
X134107899Y-48936529D01*
X134255858Y-48875242D01*
X134412925Y-48844000D01*
X134573075Y-48844000D01*
X134730142Y-48875242D01*
X134730142Y-48875242D01*
G37*
G36*
X144382142Y-42017242D02*
G01*
X144530101Y-42078529D01*
X144663255Y-42167499D01*
X144776501Y-42280745D01*
X144865471Y-42413899D01*
X144926758Y-42561858D01*
X144958000Y-42718925D01*
X144958000Y-42879075D01*
X144926758Y-43036142D01*
X144865471Y-43184101D01*
X144776501Y-43317255D01*
X144663255Y-43430501D01*
X144530101Y-43519471D01*
X144382142Y-43580758D01*
X144225075Y-43612000D01*
X144064925Y-43612000D01*
X143907858Y-43580758D01*
X143759899Y-43519471D01*
X143626745Y-43430501D01*
X143513499Y-43317255D01*
X143424529Y-43184101D01*
X143363242Y-43036142D01*
X143332000Y-42879075D01*
X143332000Y-42718925D01*
X143363242Y-42561858D01*
X143424529Y-42413899D01*
X143513499Y-42280745D01*
X143626745Y-42167499D01*
X143759899Y-42078529D01*
X143907858Y-42017242D01*
X144064925Y-41986000D01*
X144225075Y-41986000D01*
X144382142Y-42017242D01*
X144382142Y-42017242D01*
G37*
G36*
X138921142Y-42017242D02*
G01*
X139069101Y-42078529D01*
X139202255Y-42167499D01*
X139315501Y-42280745D01*
X139404471Y-42413899D01*
X139465758Y-42561858D01*
X139497000Y-42718925D01*
X139497000Y-42879075D01*
X139465758Y-43036142D01*
X139404471Y-43184101D01*
X139315501Y-43317255D01*
X139202255Y-43430501D01*
X139069101Y-43519471D01*
X138921142Y-43580758D01*
X138764075Y-43612000D01*
X138603925Y-43612000D01*
X138446858Y-43580758D01*
X138298899Y-43519471D01*
X138165745Y-43430501D01*
X138052499Y-43317255D01*
X137963529Y-43184101D01*
X137902242Y-43036142D01*
X137871000Y-42879075D01*
X137871000Y-42718925D01*
X137902242Y-42561858D01*
X137963529Y-42413899D01*
X138052499Y-42280745D01*
X138165745Y-42167499D01*
X138298899Y-42078529D01*
X138446858Y-42017242D01*
X138603925Y-41986000D01*
X138764075Y-41986000D01*
X138921142Y-42017242D01*
X138921142Y-42017242D01*
G37*
G36*
X146668142Y-42017242D02*
G01*
X146816101Y-42078529D01*
X146949255Y-42167499D01*
X147062501Y-42280745D01*
X147151471Y-42413899D01*
X147212758Y-42561858D01*
X147244000Y-42718925D01*
X147244000Y-42879075D01*
X147212758Y-43036142D01*
X147151471Y-43184101D01*
X147062501Y-43317255D01*
X146949255Y-43430501D01*
X146816101Y-43519471D01*
X146668142Y-43580758D01*
X146511075Y-43612000D01*
X146350925Y-43612000D01*
X146193858Y-43580758D01*
X146045899Y-43519471D01*
X145912745Y-43430501D01*
X145799499Y-43317255D01*
X145710529Y-43184101D01*
X145649242Y-43036142D01*
X145618000Y-42879075D01*
X145618000Y-42718925D01*
X145649242Y-42561858D01*
X145710529Y-42413899D01*
X145799499Y-42280745D01*
X145912745Y-42167499D01*
X146045899Y-42078529D01*
X146193858Y-42017242D01*
X146350925Y-41986000D01*
X146511075Y-41986000D01*
X146668142Y-42017242D01*
X146668142Y-42017242D01*
G37*
G36*
X136635142Y-42017242D02*
G01*
X136783101Y-42078529D01*
X136916255Y-42167499D01*
X137029501Y-42280745D01*
X137118471Y-42413899D01*
X137179758Y-42561858D01*
X137211000Y-42718925D01*
X137211000Y-42879075D01*
X137179758Y-43036142D01*
X137118471Y-43184101D01*
X137029501Y-43317255D01*
X136916255Y-43430501D01*
X136783101Y-43519471D01*
X136635142Y-43580758D01*
X136478075Y-43612000D01*
X136317925Y-43612000D01*
X136160858Y-43580758D01*
X136012899Y-43519471D01*
X135879745Y-43430501D01*
X135766499Y-43317255D01*
X135677529Y-43184101D01*
X135616242Y-43036142D01*
X135585000Y-42879075D01*
X135585000Y-42718925D01*
X135616242Y-42561858D01*
X135677529Y-42413899D01*
X135766499Y-42280745D01*
X135879745Y-42167499D01*
X136012899Y-42078529D01*
X136160858Y-42017242D01*
X136317925Y-41986000D01*
X136478075Y-41986000D01*
X136635142Y-42017242D01*
X136635142Y-42017242D01*
G37*
G36*
X130539142Y-42017242D02*
G01*
X130687101Y-42078529D01*
X130820255Y-42167499D01*
X130933501Y-42280745D01*
X131022471Y-42413899D01*
X131083758Y-42561858D01*
X131115000Y-42718925D01*
X131115000Y-42879075D01*
X131083758Y-43036142D01*
X131022471Y-43184101D01*
X130933501Y-43317255D01*
X130820255Y-43430501D01*
X130687101Y-43519471D01*
X130539142Y-43580758D01*
X130382075Y-43612000D01*
X130221925Y-43612000D01*
X130064858Y-43580758D01*
X129916899Y-43519471D01*
X129783745Y-43430501D01*
X129670499Y-43317255D01*
X129581529Y-43184101D01*
X129520242Y-43036142D01*
X129489000Y-42879075D01*
X129489000Y-42718925D01*
X129520242Y-42561858D01*
X129581529Y-42413899D01*
X129670499Y-42280745D01*
X129783745Y-42167499D01*
X129916899Y-42078529D01*
X130064858Y-42017242D01*
X130221925Y-41986000D01*
X130382075Y-41986000D01*
X130539142Y-42017242D01*
X130539142Y-42017242D01*
G37*
G36*
X128253142Y-42017242D02*
G01*
X128401101Y-42078529D01*
X128534255Y-42167499D01*
X128647501Y-42280745D01*
X128736471Y-42413899D01*
X128797758Y-42561858D01*
X128829000Y-42718925D01*
X128829000Y-42879075D01*
X128797758Y-43036142D01*
X128736471Y-43184101D01*
X128647501Y-43317255D01*
X128534255Y-43430501D01*
X128401101Y-43519471D01*
X128253142Y-43580758D01*
X128096075Y-43612000D01*
X127935925Y-43612000D01*
X127778858Y-43580758D01*
X127630899Y-43519471D01*
X127497745Y-43430501D01*
X127384499Y-43317255D01*
X127295529Y-43184101D01*
X127234242Y-43036142D01*
X127203000Y-42879075D01*
X127203000Y-42718925D01*
X127234242Y-42561858D01*
X127295529Y-42413899D01*
X127384499Y-42280745D01*
X127497745Y-42167499D01*
X127630899Y-42078529D01*
X127778858Y-42017242D01*
X127935925Y-41986000D01*
X128096075Y-41986000D01*
X128253142Y-42017242D01*
X128253142Y-42017242D01*
G37*
G36*
X152637142Y-42017242D02*
G01*
X152785101Y-42078529D01*
X152918255Y-42167499D01*
X153031501Y-42280745D01*
X153120471Y-42413899D01*
X153181758Y-42561858D01*
X153213000Y-42718925D01*
X153213000Y-42879075D01*
X153181758Y-43036142D01*
X153120471Y-43184101D01*
X153031501Y-43317255D01*
X152918255Y-43430501D01*
X152785101Y-43519471D01*
X152637142Y-43580758D01*
X152480075Y-43612000D01*
X152319925Y-43612000D01*
X152162858Y-43580758D01*
X152014899Y-43519471D01*
X151881745Y-43430501D01*
X151768499Y-43317255D01*
X151679529Y-43184101D01*
X151618242Y-43036142D01*
X151587000Y-42879075D01*
X151587000Y-42718925D01*
X151618242Y-42561858D01*
X151679529Y-42413899D01*
X151768499Y-42280745D01*
X151881745Y-42167499D01*
X152014899Y-42078529D01*
X152162858Y-42017242D01*
X152319925Y-41986000D01*
X152480075Y-41986000D01*
X152637142Y-42017242D01*
X152637142Y-42017242D01*
G37*
G36*
X154923142Y-42017242D02*
G01*
X155071101Y-42078529D01*
X155204255Y-42167499D01*
X155317501Y-42280745D01*
X155406471Y-42413899D01*
X155467758Y-42561858D01*
X155499000Y-42718925D01*
X155499000Y-42879075D01*
X155467758Y-43036142D01*
X155406471Y-43184101D01*
X155317501Y-43317255D01*
X155204255Y-43430501D01*
X155071101Y-43519471D01*
X154923142Y-43580758D01*
X154766075Y-43612000D01*
X154605925Y-43612000D01*
X154448858Y-43580758D01*
X154300899Y-43519471D01*
X154167745Y-43430501D01*
X154054499Y-43317255D01*
X153965529Y-43184101D01*
X153904242Y-43036142D01*
X153873000Y-42879075D01*
X153873000Y-42718925D01*
X153904242Y-42561858D01*
X153965529Y-42413899D01*
X154054499Y-42280745D01*
X154167745Y-42167499D01*
X154300899Y-42078529D01*
X154448858Y-42017242D01*
X154605925Y-41986000D01*
X154766075Y-41986000D01*
X154923142Y-42017242D01*
X154923142Y-42017242D01*
G37*
G36*
X193802618Y-36423420D02*
G01*
X193893404Y-36450960D01*
X193925336Y-36460646D01*
X194038425Y-36521094D01*
X194137554Y-36602446D01*
X194218906Y-36701575D01*
X194279354Y-36814664D01*
X194279355Y-36814668D01*
X194316580Y-36937382D01*
X194326000Y-37033027D01*
X194326000Y-37896973D01*
X194316580Y-37992618D01*
X194289040Y-38083404D01*
X194279354Y-38115336D01*
X194218906Y-38228425D01*
X194137554Y-38327553D01*
X194038424Y-38408906D01*
X193925335Y-38469354D01*
X193893403Y-38479040D01*
X193802617Y-38506580D01*
X193675000Y-38519149D01*
X193547382Y-38506580D01*
X193456596Y-38479040D01*
X193424664Y-38469354D01*
X193311575Y-38408906D01*
X193212447Y-38327554D01*
X193131094Y-38228424D01*
X193070646Y-38115335D01*
X193060960Y-38083403D01*
X193033420Y-37992617D01*
X193024000Y-37896972D01*
X193024000Y-37033027D01*
X193033420Y-36937382D01*
X193070646Y-36814668D01*
X193070647Y-36814664D01*
X193131095Y-36701575D01*
X193212447Y-36602446D01*
X193311576Y-36521094D01*
X193424665Y-36460646D01*
X193456597Y-36450960D01*
X193547383Y-36423420D01*
X193675000Y-36410851D01*
X193802618Y-36423420D01*
X193802618Y-36423420D01*
G37*
G36*
X176022618Y-36423420D02*
G01*
X176113404Y-36450960D01*
X176145336Y-36460646D01*
X176258425Y-36521094D01*
X176357554Y-36602446D01*
X176438906Y-36701575D01*
X176499354Y-36814664D01*
X176499355Y-36814668D01*
X176536580Y-36937382D01*
X176546000Y-37033027D01*
X176546000Y-37896973D01*
X176536580Y-37992618D01*
X176509040Y-38083404D01*
X176499354Y-38115336D01*
X176438906Y-38228425D01*
X176357554Y-38327553D01*
X176258424Y-38408906D01*
X176145335Y-38469354D01*
X176113403Y-38479040D01*
X176022617Y-38506580D01*
X175895000Y-38519149D01*
X175767382Y-38506580D01*
X175676596Y-38479040D01*
X175644664Y-38469354D01*
X175531575Y-38408906D01*
X175432447Y-38327554D01*
X175351094Y-38228424D01*
X175290646Y-38115335D01*
X175280960Y-38083403D01*
X175253420Y-37992617D01*
X175244000Y-37896972D01*
X175244000Y-37033027D01*
X175253420Y-36937382D01*
X175290646Y-36814668D01*
X175290647Y-36814664D01*
X175351095Y-36701575D01*
X175432447Y-36602446D01*
X175531576Y-36521094D01*
X175644665Y-36460646D01*
X175676597Y-36450960D01*
X175767383Y-36423420D01*
X175895000Y-36410851D01*
X176022618Y-36423420D01*
X176022618Y-36423420D01*
G37*
G36*
X178562618Y-36423420D02*
G01*
X178653404Y-36450960D01*
X178685336Y-36460646D01*
X178798425Y-36521094D01*
X178897554Y-36602446D01*
X178978906Y-36701575D01*
X179039354Y-36814664D01*
X179039355Y-36814668D01*
X179076580Y-36937382D01*
X179086000Y-37033027D01*
X179086000Y-37896973D01*
X179076580Y-37992618D01*
X179049040Y-38083404D01*
X179039354Y-38115336D01*
X178978906Y-38228425D01*
X178897554Y-38327553D01*
X178798424Y-38408906D01*
X178685335Y-38469354D01*
X178653403Y-38479040D01*
X178562617Y-38506580D01*
X178435000Y-38519149D01*
X178307382Y-38506580D01*
X178216596Y-38479040D01*
X178184664Y-38469354D01*
X178071575Y-38408906D01*
X177972447Y-38327554D01*
X177891094Y-38228424D01*
X177830646Y-38115335D01*
X177820960Y-38083403D01*
X177793420Y-37992617D01*
X177784000Y-37896972D01*
X177784000Y-37033027D01*
X177793420Y-36937382D01*
X177830646Y-36814668D01*
X177830647Y-36814664D01*
X177891095Y-36701575D01*
X177972447Y-36602446D01*
X178071576Y-36521094D01*
X178184665Y-36460646D01*
X178216597Y-36450960D01*
X178307383Y-36423420D01*
X178435000Y-36410851D01*
X178562618Y-36423420D01*
X178562618Y-36423420D01*
G37*
G36*
X181102618Y-36423420D02*
G01*
X181193404Y-36450960D01*
X181225336Y-36460646D01*
X181338425Y-36521094D01*
X181437554Y-36602446D01*
X181518906Y-36701575D01*
X181579354Y-36814664D01*
X181579355Y-36814668D01*
X181616580Y-36937382D01*
X181626000Y-37033027D01*
X181626000Y-37896973D01*
X181616580Y-37992618D01*
X181589040Y-38083404D01*
X181579354Y-38115336D01*
X181518906Y-38228425D01*
X181437554Y-38327553D01*
X181338424Y-38408906D01*
X181225335Y-38469354D01*
X181193403Y-38479040D01*
X181102617Y-38506580D01*
X180975000Y-38519149D01*
X180847382Y-38506580D01*
X180756596Y-38479040D01*
X180724664Y-38469354D01*
X180611575Y-38408906D01*
X180512447Y-38327554D01*
X180431094Y-38228424D01*
X180370646Y-38115335D01*
X180360960Y-38083403D01*
X180333420Y-37992617D01*
X180324000Y-37896972D01*
X180324000Y-37033027D01*
X180333420Y-36937382D01*
X180370646Y-36814668D01*
X180370647Y-36814664D01*
X180431095Y-36701575D01*
X180512447Y-36602446D01*
X180611576Y-36521094D01*
X180724665Y-36460646D01*
X180756597Y-36450960D01*
X180847383Y-36423420D01*
X180975000Y-36410851D01*
X181102618Y-36423420D01*
X181102618Y-36423420D01*
G37*
G36*
X183642618Y-36423420D02*
G01*
X183733404Y-36450960D01*
X183765336Y-36460646D01*
X183878425Y-36521094D01*
X183977554Y-36602446D01*
X184058906Y-36701575D01*
X184119354Y-36814664D01*
X184119355Y-36814668D01*
X184156580Y-36937382D01*
X184166000Y-37033027D01*
X184166000Y-37896973D01*
X184156580Y-37992618D01*
X184129040Y-38083404D01*
X184119354Y-38115336D01*
X184058906Y-38228425D01*
X183977554Y-38327553D01*
X183878424Y-38408906D01*
X183765335Y-38469354D01*
X183733403Y-38479040D01*
X183642617Y-38506580D01*
X183515000Y-38519149D01*
X183387382Y-38506580D01*
X183296596Y-38479040D01*
X183264664Y-38469354D01*
X183151575Y-38408906D01*
X183052447Y-38327554D01*
X182971094Y-38228424D01*
X182910646Y-38115335D01*
X182900960Y-38083403D01*
X182873420Y-37992617D01*
X182864000Y-37896972D01*
X182864000Y-37033027D01*
X182873420Y-36937382D01*
X182910646Y-36814668D01*
X182910647Y-36814664D01*
X182971095Y-36701575D01*
X183052447Y-36602446D01*
X183151576Y-36521094D01*
X183264665Y-36460646D01*
X183296597Y-36450960D01*
X183387383Y-36423420D01*
X183515000Y-36410851D01*
X183642618Y-36423420D01*
X183642618Y-36423420D01*
G37*
G36*
X173482618Y-36423420D02*
G01*
X173573404Y-36450960D01*
X173605336Y-36460646D01*
X173718425Y-36521094D01*
X173817554Y-36602446D01*
X173898906Y-36701575D01*
X173959354Y-36814664D01*
X173959355Y-36814668D01*
X173996580Y-36937382D01*
X174006000Y-37033027D01*
X174006000Y-37896973D01*
X173996580Y-37992618D01*
X173969040Y-38083404D01*
X173959354Y-38115336D01*
X173898906Y-38228425D01*
X173817554Y-38327553D01*
X173718424Y-38408906D01*
X173605335Y-38469354D01*
X173573403Y-38479040D01*
X173482617Y-38506580D01*
X173355000Y-38519149D01*
X173227382Y-38506580D01*
X173136596Y-38479040D01*
X173104664Y-38469354D01*
X172991575Y-38408906D01*
X172892447Y-38327554D01*
X172811094Y-38228424D01*
X172750646Y-38115335D01*
X172740960Y-38083403D01*
X172713420Y-37992617D01*
X172704000Y-37896972D01*
X172704000Y-37033027D01*
X172713420Y-36937382D01*
X172750646Y-36814668D01*
X172750647Y-36814664D01*
X172811095Y-36701575D01*
X172892447Y-36602446D01*
X172991576Y-36521094D01*
X173104665Y-36460646D01*
X173136597Y-36450960D01*
X173227383Y-36423420D01*
X173355000Y-36410851D01*
X173482618Y-36423420D01*
X173482618Y-36423420D01*
G37*
G36*
X186182618Y-36423420D02*
G01*
X186273404Y-36450960D01*
X186305336Y-36460646D01*
X186418425Y-36521094D01*
X186517554Y-36602446D01*
X186598906Y-36701575D01*
X186659354Y-36814664D01*
X186659355Y-36814668D01*
X186696580Y-36937382D01*
X186706000Y-37033027D01*
X186706000Y-37896973D01*
X186696580Y-37992618D01*
X186669040Y-38083404D01*
X186659354Y-38115336D01*
X186598906Y-38228425D01*
X186517554Y-38327553D01*
X186418424Y-38408906D01*
X186305335Y-38469354D01*
X186273403Y-38479040D01*
X186182617Y-38506580D01*
X186055000Y-38519149D01*
X185927382Y-38506580D01*
X185836596Y-38479040D01*
X185804664Y-38469354D01*
X185691575Y-38408906D01*
X185592447Y-38327554D01*
X185511094Y-38228424D01*
X185450646Y-38115335D01*
X185440960Y-38083403D01*
X185413420Y-37992617D01*
X185404000Y-37896972D01*
X185404000Y-37033027D01*
X185413420Y-36937382D01*
X185450646Y-36814668D01*
X185450647Y-36814664D01*
X185511095Y-36701575D01*
X185592447Y-36602446D01*
X185691576Y-36521094D01*
X185804665Y-36460646D01*
X185836597Y-36450960D01*
X185927383Y-36423420D01*
X186055000Y-36410851D01*
X186182618Y-36423420D01*
X186182618Y-36423420D01*
G37*
G36*
X188722618Y-36423420D02*
G01*
X188813404Y-36450960D01*
X188845336Y-36460646D01*
X188958425Y-36521094D01*
X189057554Y-36602446D01*
X189138906Y-36701575D01*
X189199354Y-36814664D01*
X189199355Y-36814668D01*
X189236580Y-36937382D01*
X189246000Y-37033027D01*
X189246000Y-37896973D01*
X189236580Y-37992618D01*
X189209040Y-38083404D01*
X189199354Y-38115336D01*
X189138906Y-38228425D01*
X189057554Y-38327553D01*
X188958424Y-38408906D01*
X188845335Y-38469354D01*
X188813403Y-38479040D01*
X188722617Y-38506580D01*
X188595000Y-38519149D01*
X188467382Y-38506580D01*
X188376596Y-38479040D01*
X188344664Y-38469354D01*
X188231575Y-38408906D01*
X188132447Y-38327554D01*
X188051094Y-38228424D01*
X187990646Y-38115335D01*
X187980960Y-38083403D01*
X187953420Y-37992617D01*
X187944000Y-37896972D01*
X187944000Y-37033027D01*
X187953420Y-36937382D01*
X187990646Y-36814668D01*
X187990647Y-36814664D01*
X188051095Y-36701575D01*
X188132447Y-36602446D01*
X188231576Y-36521094D01*
X188344665Y-36460646D01*
X188376597Y-36450960D01*
X188467383Y-36423420D01*
X188595000Y-36410851D01*
X188722618Y-36423420D01*
X188722618Y-36423420D01*
G37*
G36*
X191262618Y-36423420D02*
G01*
X191353404Y-36450960D01*
X191385336Y-36460646D01*
X191498425Y-36521094D01*
X191597554Y-36602446D01*
X191678906Y-36701575D01*
X191739354Y-36814664D01*
X191739355Y-36814668D01*
X191776580Y-36937382D01*
X191786000Y-37033027D01*
X191786000Y-37896973D01*
X191776580Y-37992618D01*
X191749040Y-38083404D01*
X191739354Y-38115336D01*
X191678906Y-38228425D01*
X191597554Y-38327553D01*
X191498424Y-38408906D01*
X191385335Y-38469354D01*
X191353403Y-38479040D01*
X191262617Y-38506580D01*
X191135000Y-38519149D01*
X191007382Y-38506580D01*
X190916596Y-38479040D01*
X190884664Y-38469354D01*
X190771575Y-38408906D01*
X190672447Y-38327554D01*
X190591094Y-38228424D01*
X190530646Y-38115335D01*
X190520960Y-38083403D01*
X190493420Y-37992617D01*
X190484000Y-37896972D01*
X190484000Y-37033027D01*
X190493420Y-36937382D01*
X190530646Y-36814668D01*
X190530647Y-36814664D01*
X190591095Y-36701575D01*
X190672447Y-36602446D01*
X190771576Y-36521094D01*
X190884665Y-36460646D01*
X190916597Y-36450960D01*
X191007383Y-36423420D01*
X191135000Y-36410851D01*
X191262618Y-36423420D01*
X191262618Y-36423420D01*
G37*
G36*
X104442585Y-28958802D02*
G01*
X104592410Y-28988604D01*
X104874674Y-29105521D01*
X105128705Y-29275259D01*
X105344741Y-29491295D01*
X105514479Y-29745326D01*
X105631396Y-30027590D01*
X105691000Y-30327240D01*
X105691000Y-30632760D01*
X105631396Y-30932410D01*
X105514479Y-31214674D01*
X105344741Y-31468705D01*
X105128705Y-31684741D01*
X104874674Y-31854479D01*
X104592410Y-31971396D01*
X104442585Y-32001198D01*
X104292761Y-32031000D01*
X103987239Y-32031000D01*
X103837415Y-32001198D01*
X103687590Y-31971396D01*
X103405326Y-31854479D01*
X103151295Y-31684741D01*
X102935259Y-31468705D01*
X102765521Y-31214674D01*
X102648604Y-30932410D01*
X102589000Y-30632760D01*
X102589000Y-30327240D01*
X102648604Y-30027590D01*
X102765521Y-29745326D01*
X102935259Y-29491295D01*
X103151295Y-29275259D01*
X103405326Y-29105521D01*
X103687590Y-28988604D01*
X103837415Y-28958802D01*
X103987239Y-28929000D01*
X104292761Y-28929000D01*
X104442585Y-28958802D01*
X104442585Y-28958802D01*
G37*
G36*
X198422585Y-28958802D02*
G01*
X198572410Y-28988604D01*
X198854674Y-29105521D01*
X199108705Y-29275259D01*
X199324741Y-29491295D01*
X199494479Y-29745326D01*
X199611396Y-30027590D01*
X199671000Y-30327240D01*
X199671000Y-30632760D01*
X199611396Y-30932410D01*
X199494479Y-31214674D01*
X199324741Y-31468705D01*
X199108705Y-31684741D01*
X198854674Y-31854479D01*
X198572410Y-31971396D01*
X198422585Y-32001198D01*
X198272761Y-32031000D01*
X197967239Y-32031000D01*
X197817415Y-32001198D01*
X197667590Y-31971396D01*
X197385326Y-31854479D01*
X197131295Y-31684741D01*
X196915259Y-31468705D01*
X196745521Y-31214674D01*
X196628604Y-30932410D01*
X196569000Y-30632760D01*
X196569000Y-30327240D01*
X196628604Y-30027590D01*
X196745521Y-29745326D01*
X196915259Y-29491295D01*
X197131295Y-29275259D01*
X197385326Y-29105521D01*
X197667590Y-28988604D01*
X197817415Y-28958802D01*
X197967239Y-28929000D01*
X198272761Y-28929000D01*
X198422585Y-28958802D01*
X198422585Y-28958802D01*
G37*
M02*
