G04 #@! TF.GenerationSoftware,KiCad,Pcbnew,5.1.2-f72e74a~84~ubuntu18.04.1*
G04 #@! TF.CreationDate,2019-06-03T17:04:17-04:00*
G04 #@! TF.ProjectId,temperature board,74656d70-6572-4617-9475-726520626f61,v01*
G04 #@! TF.SameCoordinates,Original*
G04 #@! TF.FileFunction,Copper,L2,Bot*
G04 #@! TF.FilePolarity,Positive*
%FSLAX46Y46*%
G04 Gerber Fmt 4.6, Leading zero omitted, Abs format (unit mm)*
G04 Created by KiCad (PCBNEW 5.1.2-f72e74a~84~ubuntu18.04.1) date 2019-06-03 17:04:17*
%MOMM*%
%LPD*%
G04 APERTURE LIST*
%ADD10R,1.100000X4.100000*%
%ADD11R,1.000000X3.100000*%
%ADD12O,1.200000X2.000000*%
%ADD13C,3.000000*%
%ADD14C,1.524000*%
%ADD15C,3.175000*%
%ADD16C,1.200000*%
%ADD17C,1.600000*%
%ADD18C,4.000000*%
%ADD19R,1.600000X1.600000*%
%ADD20C,0.250000*%
G04 APERTURE END LIST*
D10*
X149702000Y-93218000D03*
D11*
X155702000Y-93218000D03*
D12*
X99060000Y-50800000D03*
X99060000Y-33020000D03*
X96520000Y-50800000D03*
X96520000Y-33020000D03*
X93980000Y-50800000D03*
X93980000Y-33020000D03*
X91440000Y-50800000D03*
X91440000Y-33020000D03*
X88900000Y-50800000D03*
X88900000Y-33020000D03*
X86360000Y-50800000D03*
X86360000Y-33020000D03*
X83820000Y-50800000D03*
X83820000Y-33020000D03*
X81280000Y-50800000D03*
X81280000Y-33020000D03*
X78740000Y-50800000D03*
X78740000Y-33020000D03*
D13*
X73660000Y-29210000D03*
X73660000Y-106680000D03*
X161290000Y-106680000D03*
X161290000Y-29210000D03*
D14*
X137795000Y-86360000D03*
X135255000Y-86360000D03*
X132715000Y-86360000D03*
X130175000Y-86360000D03*
X127635000Y-86360000D03*
X125095000Y-86360000D03*
X122555000Y-86360000D03*
X120015000Y-86360000D03*
X117475000Y-86360000D03*
X114935000Y-86360000D03*
X112395000Y-86360000D03*
X109855000Y-86360000D03*
X107315000Y-86360000D03*
X104775000Y-86360000D03*
X102235000Y-86360000D03*
X99695000Y-86360000D03*
X97155000Y-86360000D03*
X94615000Y-86360000D03*
X92075000Y-86360000D03*
X89535000Y-86360000D03*
X86995000Y-86360000D03*
X84455000Y-86360000D03*
X81915000Y-86360000D03*
X76835000Y-86360000D03*
X79375000Y-86360000D03*
X76835000Y-58420000D03*
X79375000Y-58420000D03*
X81915000Y-58420000D03*
X84455000Y-58420000D03*
X86995000Y-58420000D03*
X89535000Y-58420000D03*
X92075000Y-58420000D03*
X94615000Y-58420000D03*
X97155000Y-58420000D03*
X99695000Y-58420000D03*
X102235000Y-58420000D03*
X104775000Y-58420000D03*
X107315000Y-58420000D03*
X109855000Y-58420000D03*
X112395000Y-58420000D03*
X114935000Y-58420000D03*
X117475000Y-58420000D03*
X120015000Y-58420000D03*
X122555000Y-58420000D03*
X125095000Y-58420000D03*
X127635000Y-58420000D03*
X130175000Y-58420000D03*
X132715000Y-58420000D03*
X135255000Y-58420000D03*
D12*
X137795000Y-58420000D03*
D14*
X110490000Y-92710000D03*
X113030000Y-92710000D03*
X115570000Y-92710000D03*
X118110000Y-92710000D03*
X120650000Y-92710000D03*
X123190000Y-92710000D03*
X125730000Y-92710000D03*
X128270000Y-92710000D03*
X130810000Y-92710000D03*
X133350000Y-92710000D03*
X135890000Y-92710000D03*
X135890000Y-107950000D03*
X133350000Y-107950000D03*
X130810000Y-107950000D03*
X128270000Y-107950000D03*
X125730000Y-107950000D03*
X123190000Y-107950000D03*
X120650000Y-107950000D03*
X118110000Y-107950000D03*
X115570000Y-107950000D03*
X113030000Y-107950000D03*
X110490000Y-107950000D03*
X138430000Y-92710000D03*
X138430000Y-107950000D03*
X93599000Y-99822000D03*
X91313000Y-99822000D03*
X106426000Y-48260000D03*
X108966000Y-48260000D03*
X111506000Y-48260000D03*
X114046000Y-48260000D03*
X116586000Y-48260000D03*
X119126000Y-48260000D03*
X121666000Y-48260000D03*
X124206000Y-48260000D03*
X126746000Y-48260000D03*
X129286000Y-48260000D03*
X100330000Y-93980000D03*
X97790000Y-93980000D03*
X95250000Y-93980000D03*
X92710000Y-93980000D03*
X90170000Y-93980000D03*
X87630000Y-93980000D03*
X85090000Y-93980000D03*
X82550000Y-93980000D03*
X80010000Y-93980000D03*
X77470000Y-93980000D03*
X121412000Y-29464000D03*
X123698000Y-29464000D03*
X129286000Y-29464000D03*
X131572000Y-29464000D03*
X116205000Y-37211000D03*
X118491000Y-37211000D03*
X101600000Y-99822000D03*
X99314000Y-99822000D03*
X77216000Y-99822000D03*
X74930000Y-99822000D03*
X85598000Y-99695000D03*
X83312000Y-99695000D03*
D15*
X156210000Y-52070000D03*
X156210000Y-43180000D03*
D14*
X149860000Y-49530000D03*
X147320000Y-50800000D03*
X147320000Y-48260000D03*
X149860000Y-46990000D03*
X147320000Y-45720000D03*
X149860000Y-44450000D03*
X131953000Y-37211000D03*
X134239000Y-37211000D03*
X105664000Y-29464000D03*
X107950000Y-29464000D03*
X107950000Y-37211000D03*
X110236000Y-37211000D03*
X113538000Y-29464000D03*
X115824000Y-29464000D03*
X124460000Y-37211000D03*
X126746000Y-37211000D03*
X105791000Y-106680000D03*
X103505000Y-106680000D03*
X97409000Y-106680000D03*
X95123000Y-106680000D03*
X89662000Y-106680000D03*
X87376000Y-106680000D03*
X81407000Y-106680000D03*
X79121000Y-106680000D03*
D16*
X154408000Y-99568000D03*
X152908000Y-99568000D03*
X105156000Y-101346000D03*
X106656000Y-101346000D03*
X105664000Y-94996000D03*
X105664000Y-93496000D03*
X128016000Y-43815000D03*
X128016000Y-42315000D03*
D17*
X144400000Y-72850000D03*
X144400000Y-75620000D03*
X147240000Y-71465000D03*
X144400000Y-70080000D03*
D18*
X147240000Y-60350000D03*
D17*
X147240000Y-68695000D03*
D19*
X144400000Y-67310000D03*
D17*
X144400000Y-78390000D03*
X147240000Y-74235000D03*
D18*
X147240000Y-85350000D03*
D17*
X147240000Y-77005000D03*
D18*
X155240000Y-60350000D03*
X155240000Y-85350000D03*
D17*
X155240000Y-77005000D03*
X155240000Y-74235000D03*
X155240000Y-71465000D03*
X155240000Y-68695000D03*
X152400000Y-78390000D03*
X152400000Y-75620000D03*
X152400000Y-72850000D03*
X152400000Y-70080000D03*
D19*
X152400000Y-67310000D03*
D20*
X111125000Y-93345000D02*
X110490000Y-92710000D01*
X112395000Y-94615000D02*
X111125000Y-93345000D01*
X120075001Y-95310001D02*
X119380000Y-94615000D01*
X141671999Y-95310001D02*
X120075001Y-95310001D01*
X144780000Y-92202000D02*
X141671999Y-95310001D01*
X144768000Y-89928000D02*
X144780000Y-89940000D01*
X119380000Y-94615000D02*
X112395000Y-94615000D01*
X144780000Y-90194000D02*
X145046000Y-89928000D01*
X144780000Y-90678000D02*
X144780000Y-90194000D01*
X145046000Y-89928000D02*
X144768000Y-89928000D01*
X144780000Y-90678000D02*
X144780000Y-92202000D01*
X144780000Y-89940000D02*
X144780000Y-90678000D01*
X155702000Y-93218000D02*
X155702000Y-92218000D01*
X127000000Y-45212000D02*
X126238000Y-44450000D01*
X144768000Y-89928000D02*
X143740000Y-88900000D01*
X143740000Y-88900000D02*
X143510000Y-88900000D01*
X143510000Y-88900000D02*
X140871581Y-86261581D01*
X140871581Y-86261581D02*
X140871581Y-50955581D01*
X140871581Y-50955581D02*
X135128000Y-45212000D01*
X135128000Y-45212000D02*
X127000000Y-45212000D01*
X145046000Y-89928000D02*
X153412000Y-89928000D01*
X155702000Y-92218000D02*
X153916000Y-90432000D01*
X153412000Y-89928000D02*
X153916000Y-90432000D01*
X98225000Y-44015000D02*
X99895000Y-44015000D01*
X126238000Y-44450000D02*
X100330000Y-44450000D01*
X99895000Y-44015000D02*
X100330000Y-44450000D01*
X91240000Y-37030000D02*
X89970000Y-37030000D01*
X98225000Y-44015000D02*
X91240000Y-37030000D01*
X86360000Y-33420000D02*
X86360000Y-33020000D01*
X89970000Y-37030000D02*
X86360000Y-33420000D01*
X114935000Y-90805000D02*
X114935000Y-86360000D01*
X113030000Y-92710000D02*
X114935000Y-90805000D01*
X105664000Y-92647472D02*
X104964528Y-91948000D01*
X105664000Y-93496000D02*
X105664000Y-92647472D01*
X79502000Y-91948000D02*
X77470000Y-93980000D01*
X104964528Y-91948000D02*
X79502000Y-91948000D01*
X125603000Y-51943000D02*
X129286000Y-48260000D01*
X125476000Y-52070000D02*
X125603000Y-51943000D01*
X91567000Y-55753000D02*
X121793000Y-55753000D01*
X121793000Y-55753000D02*
X125603000Y-51943000D01*
X90296999Y-57023001D02*
X91567000Y-55753000D01*
X90296999Y-57658001D02*
X90296999Y-57023001D01*
X89535000Y-58420000D02*
X90296999Y-57658001D01*
X90170000Y-59690000D02*
X88265000Y-59690000D01*
X90805000Y-59055000D02*
X90170000Y-59690000D01*
X90805000Y-57785000D02*
X90805000Y-59055000D01*
X126365000Y-85090000D02*
X128270000Y-83185000D01*
X126365000Y-87630000D02*
X126365000Y-85090000D01*
X128200160Y-89465160D02*
X126365000Y-87630000D01*
X132715000Y-69215000D02*
X132842000Y-69088000D01*
X132842000Y-69088000D02*
X132842000Y-63246000D01*
X132842000Y-63246000D02*
X129032000Y-59436000D01*
X129031999Y-89465160D02*
X128200160Y-89465160D01*
X129032000Y-59436000D02*
X129087999Y-59380001D01*
X128270000Y-92710000D02*
X129031999Y-91948001D01*
X91384990Y-57205010D02*
X90805000Y-57785000D01*
X129087999Y-58221999D02*
X128071010Y-57205010D01*
X88265000Y-59690000D02*
X86995000Y-58420000D01*
X128270000Y-83185000D02*
X132080000Y-83185000D01*
X132080000Y-83185000D02*
X132715000Y-82550000D01*
X129031999Y-91948001D02*
X129031999Y-89465160D01*
X132715000Y-82550000D02*
X132715000Y-69215000D01*
X129087999Y-59380001D02*
X129087999Y-58221999D01*
X128071010Y-57205010D02*
X91384990Y-57205010D01*
X132588001Y-107188001D02*
X133350000Y-107950000D01*
X127635000Y-86760000D02*
X127635000Y-86360000D01*
X137668001Y-107188001D02*
X138430000Y-107950000D01*
X130175000Y-86360000D02*
X130175000Y-86760000D01*
X95250000Y-38100000D02*
X94615000Y-38100000D01*
X119126000Y-41910000D02*
X119380000Y-41656000D01*
X120904000Y-41656000D02*
X121158000Y-41656000D01*
X119380000Y-41656000D02*
X120904000Y-41656000D01*
X151765000Y-45085000D02*
X151765000Y-43815000D01*
X149860000Y-46990000D02*
X151765000Y-45085000D01*
X151765000Y-43815000D02*
X149987000Y-42037000D01*
X121412000Y-41656000D02*
X120904000Y-41656000D01*
X123952000Y-39116000D02*
X121412000Y-41656000D01*
X129540000Y-39116000D02*
X123952000Y-39116000D01*
X149987000Y-42037000D02*
X132461000Y-42037000D01*
X132461000Y-42037000D02*
X129540000Y-39116000D01*
X99060000Y-40640000D02*
X100330000Y-41910000D01*
X97790000Y-40640000D02*
X99060000Y-40640000D01*
X97790000Y-40640000D02*
X95250000Y-38100000D01*
X119126000Y-41910000D02*
X100330000Y-41910000D01*
X78740000Y-32620000D02*
X78740000Y-33020000D01*
X94615000Y-38100000D02*
X91757500Y-35242500D01*
X79665010Y-34345010D02*
X78740000Y-33420000D01*
X84745010Y-33803151D02*
X84203151Y-34345010D01*
X84745010Y-32926829D02*
X84745010Y-33803151D01*
X85976849Y-31694990D02*
X84745010Y-32926829D01*
X86743151Y-31694990D02*
X85976849Y-31694990D01*
X87285010Y-33708600D02*
X87285010Y-32236849D01*
X78740000Y-33420000D02*
X78740000Y-33020000D01*
X84203151Y-34345010D02*
X79665010Y-34345010D01*
X87285010Y-32236849D02*
X86743151Y-31694990D01*
X88818910Y-35242500D02*
X87285010Y-33708600D01*
X91757500Y-35242500D02*
X88818910Y-35242500D01*
X149860000Y-49530000D02*
X149860000Y-67540000D01*
X149860000Y-67540000D02*
X152400000Y-70080000D01*
X83820000Y-32620000D02*
X83820000Y-33020000D01*
X85960000Y-30480000D02*
X83820000Y-32620000D01*
X91440000Y-30480000D02*
X85960000Y-30480000D01*
X94078420Y-34826581D02*
X92710000Y-33458161D01*
X111026581Y-34826581D02*
X94078420Y-34826581D01*
X111125000Y-34925000D02*
X111026581Y-34826581D01*
X92710000Y-31750000D02*
X91440000Y-30480000D01*
X122555000Y-34925000D02*
X111125000Y-34925000D01*
X123190000Y-34290000D02*
X122555000Y-34925000D01*
X153670000Y-45720000D02*
X153670000Y-43180000D01*
X149860000Y-49530000D02*
X153670000Y-45720000D01*
X153670000Y-43180000D02*
X147955000Y-37465000D01*
X92710000Y-33458161D02*
X92710000Y-31750000D01*
X147955000Y-37465000D02*
X138049000Y-37465000D01*
X138049000Y-37465000D02*
X134874000Y-34290000D01*
X134874000Y-34290000D02*
X123190000Y-34290000D01*
X110490000Y-107950000D02*
X110490000Y-95378410D01*
X110490000Y-95378410D02*
X106045000Y-90933410D01*
X106045000Y-90933410D02*
X106045000Y-85921839D01*
X106045000Y-85921839D02*
X101501581Y-81378419D01*
X85696419Y-81378419D02*
X75565000Y-71247000D01*
X75565000Y-71247000D02*
X75565000Y-54375000D01*
X101501581Y-81378419D02*
X85696419Y-81378419D01*
X83820000Y-51200000D02*
X83820000Y-50800000D01*
X83820000Y-52050000D02*
X82530000Y-53340000D01*
X83820000Y-50800000D02*
X83820000Y-52050000D01*
X76600000Y-53340000D02*
X75565000Y-54375000D01*
X82530000Y-53340000D02*
X76600000Y-53340000D01*
X76708000Y-70358000D02*
X76835000Y-70485000D01*
X86839420Y-80489420D02*
X76835000Y-70485000D01*
X103152580Y-80489420D02*
X86839420Y-80489420D01*
X108585000Y-85921839D02*
X103152580Y-80489420D01*
X108585000Y-92837000D02*
X108585000Y-85921839D01*
X113030000Y-107950000D02*
X113030000Y-97282000D01*
X113030000Y-97282000D02*
X108585000Y-92837000D01*
X78535010Y-54179990D02*
X82110010Y-54179990D01*
X76835000Y-70485000D02*
X76835000Y-60325000D01*
X76835000Y-60325000D02*
X78287999Y-58872001D01*
X78287999Y-58872001D02*
X78287999Y-56586001D01*
X78287999Y-56586001D02*
X78289990Y-56584010D01*
X78289990Y-56584010D02*
X78289990Y-54425010D01*
X78289990Y-54425010D02*
X78535010Y-54179990D01*
X88900000Y-51200000D02*
X88900000Y-50800000D01*
X85920010Y-54179990D02*
X88900000Y-51200000D01*
X82110010Y-54179990D02*
X85920010Y-54179990D01*
X133350000Y-92710000D02*
X134329990Y-91730010D01*
X125418010Y-46678010D02*
X125095000Y-46355000D01*
X136180010Y-52360010D02*
X130498010Y-46678010D01*
X133350000Y-92710000D02*
X136180010Y-89879990D01*
X136180010Y-89879990D02*
X136180010Y-87339990D01*
X130498010Y-46678010D02*
X125418010Y-46678010D01*
X136525000Y-86995000D02*
X136525000Y-85090000D01*
X136180010Y-87339990D02*
X136525000Y-86995000D01*
X136525000Y-85090000D02*
X136180010Y-84745010D01*
X136869990Y-56097990D02*
X136180010Y-55408010D01*
X136180010Y-62520010D02*
X136869990Y-61830030D01*
X136869990Y-61830030D02*
X136869990Y-56097990D01*
X136180010Y-84745010D02*
X136180010Y-62520010D01*
X136180010Y-52360010D02*
X136180010Y-55408010D01*
X125095000Y-46355000D02*
X95885000Y-46355000D01*
X93980000Y-48260000D02*
X95885000Y-46355000D01*
X93980000Y-50800000D02*
X93980000Y-48260000D01*
M02*
