M48
; DRILL file {KiCad 5.1.2-f72e74a~84~ubuntu18.04.1} date Wed 05 Jun 2019 03:18:54 PM EDT
; FORMAT={-:-/ absolute / inch / decimal}
; #@! TF.CreationDate,2019-06-05T15:18:54-04:00
; #@! TF.GenerationSoftware,Kicad,Pcbnew,5.1.2-f72e74a~84~ubuntu18.04.1
; #@! TF.FileFunction,Plated,1,2,PTH
FMAT,2
INCH
T1C0.0157
T2C0.0236
T3C0.0300
T4C0.0315
T5C0.0394
T6C0.0394
T7C0.0433
T8C0.1220
T9C0.1250
%
G90
G05
T1
X4.9Y-2.675
X4.9656Y-2.4191
X5.125Y-2.525
X5.525Y-2.6
T2
X2.9Y-3.55
X2.9Y-3.6091
X5.68Y-3.3509
X5.68Y-3.41
X5.5459Y-4.315
X5.605Y-4.315
X5.31Y-1.8609
X5.31Y-1.92
T3
X5.325Y-3.575
X5.325Y-4.175
X5.425Y-3.575
X5.425Y-4.175
X5.525Y-3.575
X5.525Y-4.175
X5.625Y-3.575
X5.625Y-4.175
X5.725Y-3.575
X5.725Y-4.175
X5.825Y-3.575
X5.825Y-4.175
X5.925Y-3.575
X5.925Y-4.175
X6.025Y-3.575
X6.025Y-4.175
X6.125Y-3.575
X6.125Y-4.175
X6.225Y-3.575
X6.225Y-4.175
X6.325Y-3.575
X6.325Y-4.175
X6.425Y-3.575
X6.425Y-4.175
X5.825Y-1.425
X5.825Y-1.525
X5.825Y-1.625
X5.925Y-1.375
X5.925Y-1.475
X5.925Y-1.575
T4
X2.935Y-3.29
T5
X4.525Y-1.39
X4.615Y-1.39
X3.8Y-3.945
X3.89Y-3.945
X5.32Y-1.66
X5.41Y-1.66
X3.58Y-4.25
X3.67Y-4.25
X4.83Y-1.39
X4.92Y-1.39
X4.36Y-1.66
X4.45Y-1.66
X3.01Y-4.25
X3.1Y-4.25
X2.855Y-3.945
X2.945Y-3.945
X4.675Y-1.66
X4.765Y-1.66
X3.94Y-4.25
X4.03Y-4.25
X4.99Y-1.665
X5.08Y-1.665
X3.475Y-3.945
X3.565Y-3.945
X4.195Y-1.39
X4.285Y-1.39
X3.15Y-3.945
X3.24Y-3.945
X3.32Y-4.25
X3.41Y-4.25
X5.155Y-1.39
X5.245Y-1.39
T6
X4.21Y-1.9
X4.31Y-1.9
X4.41Y-1.9
X4.51Y-1.9
X4.61Y-1.9
X4.71Y-1.9
X4.81Y-1.9
X4.91Y-1.9
X5.01Y-1.9
X5.11Y-1.9
X3.16Y-3.63
X3.26Y-3.63
X3.36Y-3.63
X3.46Y-3.63
X3.56Y-3.63
X3.66Y-3.63
X3.76Y-3.63
X3.86Y-3.63
X3.96Y-3.63
X4.06Y-3.63
X2.935Y-2.19
X3.035Y-2.19
X3.035Y-3.29
X3.135Y-2.19
X3.135Y-3.29
X3.235Y-2.19
X3.235Y-3.29
X3.335Y-2.19
X3.335Y-3.29
X3.435Y-2.19
X3.435Y-3.29
X3.535Y-2.19
X3.535Y-3.29
X3.635Y-2.19
X3.635Y-3.29
X3.735Y-2.19
X3.735Y-3.29
X3.835Y-2.19
X3.835Y-3.29
X3.935Y-2.19
X3.935Y-3.29
X4.035Y-2.19
X4.035Y-3.29
X4.135Y-2.19
X4.135Y-3.29
X4.235Y-2.19
X4.235Y-3.29
X4.335Y-2.19
X4.335Y-3.29
X4.435Y-2.19
X4.435Y-3.29
X4.535Y-2.19
X4.535Y-3.29
X4.635Y-2.19
X4.635Y-3.29
X4.735Y-2.19
X4.735Y-3.29
X4.835Y-2.19
X4.835Y-3.29
X4.935Y-2.19
X4.935Y-3.29
X5.035Y-2.19
X5.035Y-3.29
X5.135Y-2.19
X5.135Y-3.29
X5.235Y-2.19
X5.235Y-3.29
X5.335Y-2.19
X5.335Y-3.29
X4.31Y-3.61
X4.31Y-4.31
X4.41Y-3.61
X4.41Y-4.31
X4.51Y-3.61
X4.51Y-4.31
X4.61Y-3.61
X4.61Y-4.31
X4.71Y-3.61
X4.71Y-4.31
X4.81Y-3.61
X4.81Y-4.31
X4.91Y-3.61
X4.91Y-4.31
X5.01Y-3.61
X5.01Y-4.31
X5.11Y-3.61
X5.11Y-4.31
T7
X5.705Y-2.27
X5.705Y-2.3791
X5.705Y-2.4881
X5.705Y-2.5972
X5.705Y-2.7062
X5.8169Y-2.3245
X5.8169Y-2.4336
X5.8169Y-2.5426
X5.8169Y-2.6517
X6.02Y-2.27
X6.02Y-2.3791
X6.02Y-2.4881
X6.02Y-2.5972
X6.02Y-2.7062
X6.1318Y-2.3245
X6.1318Y-2.4336
X6.1318Y-2.5426
X6.1318Y-2.6517
T8
X5.8169Y-1.996
X5.8169Y-2.9802
X6.1318Y-1.996
X6.1318Y-2.9802
T9
X6.175Y-1.325
X6.175Y-1.675
T6
G00X5.9138Y-3.3591
M15
G01X5.9138Y-3.2409
M16
G05
G00X6.15Y-3.3394
M15
G01X6.15Y-3.2606
M16
G05
T0
M30
