G04 #@! TF.GenerationSoftware,KiCad,Pcbnew,5.1.2-f72e74a~84~ubuntu18.04.1*
G04 #@! TF.CreationDate,2019-05-24T12:09:12-04:00*
G04 #@! TF.ProjectId,temperature board,74656d70-6572-4617-9475-726520626f61,v01*
G04 #@! TF.SameCoordinates,Original*
G04 #@! TF.FileFunction,Copper,L2,Bot*
G04 #@! TF.FilePolarity,Positive*
%FSLAX46Y46*%
G04 Gerber Fmt 4.6, Leading zero omitted, Abs format (unit mm)*
G04 Created by KiCad (PCBNEW 5.1.2-f72e74a~84~ubuntu18.04.1) date 2019-05-24 12:09:12*
%MOMM*%
%LPD*%
G04 APERTURE LIST*
%ADD10O,1.200000X2.000000*%
%ADD11C,1.524000*%
%ADD12C,3.175000*%
%ADD13R,1.000000X3.000000*%
%ADD14R,1.000000X4.000000*%
%ADD15C,1.200000*%
%ADD16C,1.600000*%
%ADD17C,4.000000*%
%ADD18R,1.600000X1.600000*%
%ADD19C,0.250000*%
G04 APERTURE END LIST*
D10*
X76835000Y-55880000D03*
X76835000Y-86360000D03*
X79375000Y-55880000D03*
X79375000Y-86360000D03*
X81915000Y-55880000D03*
X81915000Y-86360000D03*
X84455000Y-55880000D03*
X84455000Y-86360000D03*
X86995000Y-55880000D03*
X86995000Y-86360000D03*
X89535000Y-55880000D03*
X89535000Y-86360000D03*
X92075000Y-55880000D03*
X92075000Y-86360000D03*
X94615000Y-55880000D03*
X94615000Y-86360000D03*
X97155000Y-55880000D03*
X97155000Y-86360000D03*
X99695000Y-55880000D03*
X99695000Y-86360000D03*
X102235000Y-55880000D03*
X102235000Y-86360000D03*
X104775000Y-55880000D03*
X104775000Y-86360000D03*
X107315000Y-55880000D03*
X107315000Y-86360000D03*
X109855000Y-55880000D03*
X109855000Y-86360000D03*
X112395000Y-55880000D03*
X112395000Y-86360000D03*
X114935000Y-55880000D03*
X114935000Y-86360000D03*
X117475000Y-55880000D03*
X117475000Y-86360000D03*
X120015000Y-55880000D03*
X120015000Y-86360000D03*
X122555000Y-55880000D03*
X122555000Y-86360000D03*
X125095000Y-55880000D03*
X125095000Y-86360000D03*
X127635000Y-55880000D03*
X127635000Y-86360000D03*
X130175000Y-55880000D03*
X130175000Y-86360000D03*
X132715000Y-55880000D03*
X132715000Y-86360000D03*
X135255000Y-55880000D03*
X135255000Y-86360000D03*
X137795000Y-55880000D03*
X137795000Y-86360000D03*
D11*
X123825000Y-36449000D03*
X123825000Y-38735000D03*
X103505000Y-30734000D03*
X103505000Y-33020000D03*
X104140000Y-36449000D03*
X104140000Y-38735000D03*
X109855000Y-30734000D03*
X109855000Y-33020000D03*
X111125000Y-36449000D03*
X111125000Y-38735000D03*
X116205000Y-30734000D03*
X116205000Y-33020000D03*
X117475000Y-36449000D03*
X117475000Y-38735000D03*
X122555000Y-30734000D03*
X122555000Y-33020000D03*
X99695000Y-106426000D03*
X99695000Y-104140000D03*
X96520000Y-100711000D03*
X96520000Y-98425000D03*
X93345000Y-106426000D03*
X93345000Y-104140000D03*
X90170000Y-100711000D03*
X90170000Y-98425000D03*
X86995000Y-106426000D03*
X86995000Y-104140000D03*
X83820000Y-100711000D03*
X83820000Y-98425000D03*
X80010000Y-106426000D03*
X80010000Y-104140000D03*
X76835000Y-100711000D03*
X76835000Y-98425000D03*
D10*
X76200000Y-30480000D03*
X76200000Y-48260000D03*
X78740000Y-30480000D03*
X78740000Y-48260000D03*
X81280000Y-30480000D03*
X81280000Y-48260000D03*
X83820000Y-30480000D03*
X83820000Y-48260000D03*
X86360000Y-30480000D03*
X86360000Y-48260000D03*
X88900000Y-30480000D03*
X88900000Y-48260000D03*
X91440000Y-30480000D03*
X91440000Y-48260000D03*
X93980000Y-30480000D03*
X93980000Y-48260000D03*
X96520000Y-30480000D03*
X96520000Y-48260000D03*
D11*
X102870000Y-48260000D03*
X105410000Y-48260000D03*
X107950000Y-48260000D03*
X110490000Y-48260000D03*
X113030000Y-48260000D03*
X115570000Y-48260000D03*
X118110000Y-48260000D03*
X120650000Y-48260000D03*
X123190000Y-48260000D03*
X125730000Y-48260000D03*
X149860000Y-44450000D03*
X147320000Y-45720000D03*
X149860000Y-46990000D03*
X147320000Y-48260000D03*
X147320000Y-50800000D03*
X149860000Y-49530000D03*
D12*
X156210000Y-43180000D03*
X156210000Y-52070000D03*
D13*
X151130000Y-101092000D03*
D14*
X145034000Y-101092000D03*
D11*
X138430000Y-107950000D03*
X138430000Y-92710000D03*
X110490000Y-107950000D03*
X113030000Y-107950000D03*
X115570000Y-107950000D03*
X118110000Y-107950000D03*
X120650000Y-107950000D03*
X123190000Y-107950000D03*
X125730000Y-107950000D03*
X128270000Y-107950000D03*
X130810000Y-107950000D03*
X133350000Y-107950000D03*
X135890000Y-107950000D03*
X135890000Y-92710000D03*
X133350000Y-92710000D03*
X130810000Y-92710000D03*
X128270000Y-92710000D03*
X125730000Y-92710000D03*
X123190000Y-92710000D03*
X120650000Y-92710000D03*
X118110000Y-92710000D03*
X115570000Y-92710000D03*
X113030000Y-92710000D03*
X110490000Y-92710000D03*
X77470000Y-93980000D03*
X80010000Y-93980000D03*
X82550000Y-93980000D03*
X85090000Y-93980000D03*
X87630000Y-93980000D03*
X90170000Y-93980000D03*
X92710000Y-93980000D03*
X95250000Y-93980000D03*
X97790000Y-93980000D03*
X100330000Y-93980000D03*
D15*
X147320000Y-93980000D03*
X148820000Y-93980000D03*
X106910000Y-100330000D03*
X105410000Y-100330000D03*
X74295000Y-106275000D03*
X74295000Y-104775000D03*
X124460000Y-43815000D03*
X124460000Y-42315000D03*
D16*
X144400000Y-72850000D03*
X144400000Y-75620000D03*
X147240000Y-71465000D03*
X144400000Y-70080000D03*
D17*
X147240000Y-60350000D03*
D16*
X147240000Y-68695000D03*
D18*
X144400000Y-67310000D03*
D16*
X144400000Y-78390000D03*
X147240000Y-74235000D03*
D17*
X147240000Y-85350000D03*
D16*
X147240000Y-77005000D03*
D17*
X155240000Y-60350000D03*
X155240000Y-85350000D03*
D16*
X155240000Y-77005000D03*
X155240000Y-74235000D03*
X155240000Y-71465000D03*
X155240000Y-68695000D03*
X152400000Y-78390000D03*
X152400000Y-75620000D03*
X152400000Y-72850000D03*
X152400000Y-70080000D03*
D18*
X152400000Y-67310000D03*
D19*
X89789000Y-67945000D02*
X92329000Y-67945000D01*
X89789000Y-67945000D02*
X89154000Y-68580000D01*
X89154000Y-69215000D02*
X89154000Y-71755000D01*
X95504000Y-67310000D02*
X94234000Y-67310000D01*
X94234000Y-67310000D02*
X93599000Y-67945000D01*
X93599000Y-67945000D02*
X93599000Y-69850000D01*
X96139000Y-71755000D02*
X94234000Y-71755000D01*
X94234000Y-71755000D02*
X93599000Y-71120000D01*
X93599000Y-71120000D02*
X93599000Y-69850000D01*
X93599000Y-69850000D02*
X94234000Y-69215000D01*
X94234000Y-69215000D02*
X95504000Y-69215000D01*
X99949000Y-70485000D02*
X99949000Y-71755000D01*
X99949000Y-71755000D02*
X99949000Y-69850000D01*
X99949000Y-69850000D02*
X99949000Y-68580000D01*
X99949000Y-68580000D02*
X101219000Y-67310000D01*
X101219000Y-67310000D02*
X101219000Y-71755000D01*
X103759000Y-69215000D02*
X103124000Y-69850000D01*
X104394000Y-69215000D02*
X103759000Y-69215000D01*
X103124000Y-71755000D02*
X103124000Y-69850000D01*
X103124000Y-69850000D02*
X103124000Y-67945000D01*
X103124000Y-67945000D02*
X103759000Y-67310000D01*
X103759000Y-67310000D02*
X105029000Y-67310000D01*
X105029000Y-67310000D02*
X105664000Y-67945000D01*
X105664000Y-67945000D02*
X105664000Y-68580000D01*
X105664000Y-68580000D02*
X105029000Y-69215000D01*
X105029000Y-69215000D02*
X104394000Y-69215000D01*
X89154000Y-67310000D02*
X87249000Y-67310000D01*
X89154000Y-67310000D02*
X89789000Y-67945000D01*
X110744000Y-69850000D02*
X108839000Y-69850000D01*
X111379000Y-70485000D02*
X110744000Y-69850000D01*
X110744000Y-71755000D02*
X111379000Y-71120000D01*
X111379000Y-69215000D02*
X111379000Y-67945000D01*
X111379000Y-71120000D02*
X111379000Y-70485000D01*
X110744000Y-69850000D02*
X111379000Y-69215000D01*
X111379000Y-67945000D02*
X110744000Y-67310000D01*
X110744000Y-67310000D02*
X108204000Y-67310000D01*
X108204000Y-67310000D02*
X108204000Y-71755000D01*
X108204000Y-71755000D02*
X110744000Y-71755000D01*
X112649000Y-69215000D02*
X112649000Y-68580000D01*
X112649000Y-68580000D02*
X113919000Y-67310000D01*
X113919000Y-67310000D02*
X114554000Y-67310000D01*
X114554000Y-67310000D02*
X115824000Y-68580000D01*
X115824000Y-68580000D02*
X115824000Y-71120000D01*
X115824000Y-71120000D02*
X115189000Y-71755000D01*
X115189000Y-71755000D02*
X113919000Y-71755000D01*
X113919000Y-71755000D02*
X112649000Y-70485000D01*
X112649000Y-70485000D02*
X112649000Y-69215000D01*
X120269000Y-69215000D02*
X120269000Y-71755000D01*
X117094000Y-71755000D02*
X117094000Y-68580000D01*
X117094000Y-68580000D02*
X118364000Y-67310000D01*
X119634000Y-68580000D02*
X120269000Y-69215000D01*
X119634000Y-67310000D02*
X119634000Y-68580000D01*
X118364000Y-67310000D02*
X119634000Y-67310000D01*
X117729000Y-69850000D02*
X118999000Y-69850000D01*
X118999000Y-69850000D02*
X119634000Y-69215000D01*
X122174000Y-71120000D02*
X122174000Y-67945000D01*
X122174000Y-67945000D02*
X122809000Y-67310000D01*
X122809000Y-67310000D02*
X123444000Y-67310000D01*
X123444000Y-67310000D02*
X124079000Y-67945000D01*
X124079000Y-67945000D02*
X124079000Y-68580000D01*
X124079000Y-68580000D02*
X123444000Y-69215000D01*
X123444000Y-69215000D02*
X122809000Y-69215000D01*
X123444000Y-69215000D02*
X124079000Y-69850000D01*
X124079000Y-69850000D02*
X124079000Y-71120000D01*
X124079000Y-71120000D02*
X124079000Y-71755000D01*
X122174000Y-71120000D02*
X122174000Y-71755000D01*
X125984000Y-71755000D02*
X125984000Y-67945000D01*
X125984000Y-67945000D02*
X126619000Y-67310000D01*
X126619000Y-67310000D02*
X127254000Y-67310000D01*
X127254000Y-67310000D02*
X127889000Y-67945000D01*
X127889000Y-71120000D02*
X127254000Y-71755000D01*
X127254000Y-71755000D02*
X125984000Y-71755000D01*
X127254000Y-67310000D02*
X128524000Y-68580000D01*
X128524000Y-68580000D02*
X128524000Y-70485000D01*
X128524000Y-70485000D02*
X127889000Y-71120000D01*
X99949000Y-70485000D02*
X99949000Y-69215000D01*
X99949000Y-69215000D02*
X98679000Y-67945000D01*
X98679000Y-67945000D02*
X98044000Y-67945000D01*
X98044000Y-67945000D02*
X97409000Y-68580000D01*
X97409000Y-68580000D02*
X97409000Y-71755000D01*
X89154000Y-68580000D02*
X89154000Y-69215000D01*
X147574000Y-90170000D02*
X147828000Y-90170000D01*
X147828000Y-90170000D02*
X148082000Y-89916000D01*
X148082000Y-89916000D02*
X147828000Y-89662000D01*
X147828000Y-89662000D02*
X147574000Y-89662000D01*
X147574000Y-89662000D02*
X147320000Y-89408000D01*
X147320000Y-89408000D02*
X147574000Y-89154000D01*
X147574000Y-89154000D02*
X147828000Y-89154000D01*
X147066000Y-90170000D02*
X146812000Y-90170000D01*
X146812000Y-90170000D02*
X146304000Y-90170000D01*
X147066000Y-89408000D02*
X146304000Y-90170000D01*
X147066000Y-89154000D02*
X147066000Y-89408000D01*
X147066000Y-89154000D02*
X146304000Y-89154000D01*
X83820000Y-30880000D02*
X83820000Y-30480000D01*
X97390000Y-44450000D02*
X83820000Y-30880000D01*
X148820000Y-94965002D02*
X148820000Y-93980000D01*
X149164999Y-95310001D02*
X148820000Y-94965002D01*
X120075001Y-95310001D02*
X149164999Y-95310001D01*
X111125000Y-93345000D02*
X111125000Y-94615000D01*
X110490000Y-92710000D02*
X111125000Y-93345000D01*
X111125000Y-94615000D02*
X119380000Y-94615000D01*
X119380000Y-94615000D02*
X120075001Y-95310001D01*
X148820000Y-93980000D02*
X143740000Y-88900000D01*
X143740000Y-88900000D02*
X143510000Y-88900000D01*
X140871581Y-86261581D02*
X140871581Y-57248419D01*
X143510000Y-88900000D02*
X140871581Y-86261581D01*
X140871581Y-57248419D02*
X128073161Y-44450000D01*
X121920000Y-44450000D02*
X123190000Y-45720000D01*
X121920000Y-44450000D02*
X97390000Y-44450000D01*
X123190000Y-45720000D02*
X125730000Y-45720000D01*
X125730000Y-45720000D02*
X127000000Y-44450000D01*
X127000000Y-44450000D02*
X128073161Y-44450000D01*
X114935000Y-90805000D02*
X114935000Y-86360000D01*
X113030000Y-92710000D02*
X114935000Y-90805000D01*
X89535000Y-55480000D02*
X92945000Y-52070000D01*
X89535000Y-55880000D02*
X89535000Y-55480000D01*
X121920000Y-52070000D02*
X125730000Y-48260000D01*
X92945000Y-52070000D02*
X121920000Y-52070000D01*
X129031999Y-91948001D02*
X128270000Y-92710000D01*
X129031999Y-89465160D02*
X129031999Y-91948001D01*
X126365000Y-87630000D02*
X128200160Y-89465160D01*
X132715000Y-82550000D02*
X132080000Y-83185000D01*
X126365000Y-85090000D02*
X126365000Y-87630000D01*
X128270000Y-83185000D02*
X126365000Y-85090000D01*
X132715000Y-69215000D02*
X132715000Y-82550000D01*
X86995000Y-55880000D02*
X86995000Y-56280000D01*
X86995000Y-56280000D02*
X87920010Y-57205010D01*
X87920010Y-57205010D02*
X128071010Y-57205010D01*
X132842000Y-69088000D02*
X132715000Y-69215000D01*
X132080000Y-83185000D02*
X128270000Y-83185000D01*
X128071010Y-57205010D02*
X132842000Y-61976000D01*
X128200160Y-89465160D02*
X129031999Y-89465160D01*
X132842000Y-61976000D02*
X132842000Y-69088000D01*
X132588001Y-107188001D02*
X133350000Y-107950000D01*
X125095000Y-86360000D02*
X125095000Y-87610000D01*
X127635000Y-86760000D02*
X127635000Y-86360000D01*
X137668001Y-107188001D02*
X138430000Y-107950000D01*
X130175000Y-86360000D02*
X130175000Y-86760000D01*
X93345000Y-38100000D02*
X87630000Y-32385000D01*
X87630000Y-32385000D02*
X87630000Y-29210000D01*
X87630000Y-29210000D02*
X86995000Y-28575000D01*
X76200000Y-30880000D02*
X76200000Y-30480000D01*
X77705000Y-32385000D02*
X76200000Y-30880000D01*
X82550000Y-32385000D02*
X77705000Y-32385000D01*
X82550000Y-29210000D02*
X82550000Y-32385000D01*
X83185000Y-28575000D02*
X82550000Y-29210000D01*
X86995000Y-28575000D02*
X83185000Y-28575000D01*
X131887630Y-38100000D02*
X135697630Y-41910000D01*
X135697630Y-41910000D02*
X149860000Y-41910000D01*
X149860000Y-41910000D02*
X152400000Y-44450000D01*
X152400000Y-44450000D02*
X149860000Y-46990000D01*
X127000000Y-38100000D02*
X124460000Y-40640000D01*
X131887630Y-38100000D02*
X127000000Y-38100000D01*
X124460000Y-40640000D02*
X123190000Y-40640000D01*
X119380000Y-41910000D02*
X97790000Y-41910000D01*
X97790000Y-41910000D02*
X93980000Y-38100000D01*
X93980000Y-38100000D02*
X93345000Y-38100000D01*
X122872500Y-40322500D02*
X123190000Y-40640000D01*
X120967500Y-40322500D02*
X122872500Y-40322500D01*
X120967500Y-40322500D02*
X119380000Y-41910000D01*
X149860000Y-67540000D02*
X152400000Y-70080000D01*
X149860000Y-49530000D02*
X149860000Y-67540000D01*
X81280000Y-29230000D02*
X81280000Y-30480000D01*
X88900000Y-27940000D02*
X82570000Y-27940000D01*
X90268419Y-31016581D02*
X90268419Y-29308419D01*
X82570000Y-27940000D02*
X81280000Y-29230000D01*
X149860000Y-49530000D02*
X153670000Y-45720000D01*
X90268419Y-29308419D02*
X88900000Y-27940000D01*
X153670000Y-43180000D02*
X147955000Y-37465000D01*
X127635000Y-37465000D02*
X124460000Y-34290000D01*
X153670000Y-45720000D02*
X153670000Y-43180000D01*
X124460000Y-34290000D02*
X123190000Y-34290000D01*
X147955000Y-37465000D02*
X127635000Y-37465000D01*
X111026581Y-34826581D02*
X94078419Y-34826581D01*
X111125000Y-34925000D02*
X111026581Y-34826581D01*
X122555000Y-34925000D02*
X111125000Y-34925000D01*
X123190000Y-34290000D02*
X122555000Y-34925000D01*
X94078419Y-34826581D02*
X90268419Y-31016581D01*
X106045000Y-93345000D02*
X110490000Y-97790000D01*
X110490000Y-97790000D02*
X110490000Y-107950000D01*
X106045000Y-85921839D02*
X106045000Y-93345000D01*
X81280000Y-48260000D02*
X81280000Y-48660000D01*
X81280000Y-48660000D02*
X75565000Y-54375000D01*
X75565000Y-71247000D02*
X85696419Y-81378419D01*
X75565000Y-54375000D02*
X75565000Y-71247000D01*
X85696419Y-81378419D02*
X101501581Y-81378419D01*
X101501581Y-81378419D02*
X106045000Y-85921839D01*
X78535010Y-54179990D02*
X78289990Y-54425010D01*
X80840010Y-54179990D02*
X78535010Y-54179990D01*
X86360000Y-48260000D02*
X86360000Y-48660000D01*
X86360000Y-48660000D02*
X80840010Y-54179990D01*
X113030000Y-99060000D02*
X113030000Y-107950000D01*
X108585000Y-94615000D02*
X113030000Y-99060000D01*
X108585000Y-85921839D02*
X108585000Y-94615000D01*
X78289990Y-55060010D02*
X78289990Y-56584010D01*
X78289990Y-54425010D02*
X78289990Y-55060010D01*
X78289990Y-56584010D02*
X76708000Y-58166000D01*
X76708000Y-58166000D02*
X76708000Y-70358000D01*
X76708000Y-70358000D02*
X86839420Y-80489420D01*
X86839420Y-80489420D02*
X103152580Y-80489420D01*
X103152580Y-80489420D02*
X108585000Y-85921839D01*
X133350000Y-92710000D02*
X134329990Y-91730010D01*
X91440000Y-47860000D02*
X91440000Y-48260000D01*
X126889980Y-46355000D02*
X92945000Y-46355000D01*
X126944990Y-46299990D02*
X126889980Y-46355000D01*
X92945000Y-46355000D02*
X91440000Y-47860000D01*
X134329990Y-54319990D02*
X126944990Y-46934990D01*
X135403151Y-54319990D02*
X134329990Y-54319990D01*
X133350000Y-92710000D02*
X136180010Y-89879990D01*
X136180010Y-89879990D02*
X136180010Y-87339990D01*
X136180010Y-87339990D02*
X136525000Y-86995000D01*
X126944990Y-46934990D02*
X126944990Y-46299990D01*
X136180010Y-55096849D02*
X135403151Y-54319990D01*
X136525000Y-86995000D02*
X136525000Y-85090000D01*
X136525000Y-85090000D02*
X136180010Y-84745010D01*
X136180010Y-84745010D02*
X136180010Y-55096849D01*
M02*
