G04 #@! TF.GenerationSoftware,KiCad,Pcbnew,5.1.2-f72e74a~84~ubuntu18.04.1*
G04 #@! TF.CreationDate,2019-06-07T12:08:10-04:00*
G04 #@! TF.ProjectId,temperature board,74656d70-6572-4617-9475-726520626f61,v01*
G04 #@! TF.SameCoordinates,Original*
G04 #@! TF.FileFunction,Legend,Top*
G04 #@! TF.FilePolarity,Positive*
%FSLAX46Y46*%
G04 Gerber Fmt 4.6, Leading zero omitted, Abs format (unit mm)*
G04 Created by KiCad (PCBNEW 5.1.2-f72e74a~84~ubuntu18.04.1) date 2019-06-07 12:08:10*
%MOMM*%
%LPD*%
G04 APERTURE LIST*
%ADD10C,0.150000*%
%ADD11C,0.120000*%
G04 APERTURE END LIST*
D10*
X105911142Y-47283714D02*
X106292095Y-47283714D01*
X106054000Y-46950380D02*
X106054000Y-47807523D01*
X106101619Y-47902761D01*
X106196857Y-47950380D01*
X106292095Y-47950380D01*
X107006380Y-47902761D02*
X106911142Y-47950380D01*
X106720666Y-47950380D01*
X106625428Y-47902761D01*
X106577809Y-47807523D01*
X106577809Y-47426571D01*
X106625428Y-47331333D01*
X106720666Y-47283714D01*
X106911142Y-47283714D01*
X107006380Y-47331333D01*
X107054000Y-47426571D01*
X107054000Y-47521809D01*
X106577809Y-47617047D01*
X107482571Y-47950380D02*
X107482571Y-47283714D01*
X107482571Y-47378952D02*
X107530190Y-47331333D01*
X107625428Y-47283714D01*
X107768285Y-47283714D01*
X107863523Y-47331333D01*
X107911142Y-47426571D01*
X107911142Y-47950380D01*
X107911142Y-47426571D02*
X107958761Y-47331333D01*
X108054000Y-47283714D01*
X108196857Y-47283714D01*
X108292095Y-47331333D01*
X108339714Y-47426571D01*
X108339714Y-47950380D01*
X108815904Y-47283714D02*
X108815904Y-48283714D01*
X108815904Y-47331333D02*
X108911142Y-47283714D01*
X109101619Y-47283714D01*
X109196857Y-47331333D01*
X109244476Y-47378952D01*
X109292095Y-47474190D01*
X109292095Y-47759904D01*
X109244476Y-47855142D01*
X109196857Y-47902761D01*
X109101619Y-47950380D01*
X108911142Y-47950380D01*
X108815904Y-47902761D01*
X110911142Y-47902761D02*
X110815904Y-47950380D01*
X110625428Y-47950380D01*
X110530190Y-47902761D01*
X110482571Y-47855142D01*
X110434952Y-47759904D01*
X110434952Y-47474190D01*
X110482571Y-47378952D01*
X110530190Y-47331333D01*
X110625428Y-47283714D01*
X110815904Y-47283714D01*
X110911142Y-47331333D01*
X111768285Y-47950380D02*
X111768285Y-47426571D01*
X111720666Y-47331333D01*
X111625428Y-47283714D01*
X111434952Y-47283714D01*
X111339714Y-47331333D01*
X111768285Y-47902761D02*
X111673047Y-47950380D01*
X111434952Y-47950380D01*
X111339714Y-47902761D01*
X111292095Y-47807523D01*
X111292095Y-47712285D01*
X111339714Y-47617047D01*
X111434952Y-47569428D01*
X111673047Y-47569428D01*
X111768285Y-47521809D01*
X112387333Y-47950380D02*
X112292095Y-47902761D01*
X112244476Y-47807523D01*
X112244476Y-46950380D01*
X112768285Y-47950380D02*
X112768285Y-47283714D01*
X112768285Y-46950380D02*
X112720666Y-46998000D01*
X112768285Y-47045619D01*
X112815904Y-46998000D01*
X112768285Y-46950380D01*
X112768285Y-47045619D01*
X113244476Y-47950380D02*
X113244476Y-46950380D01*
X113244476Y-47331333D02*
X113339714Y-47283714D01*
X113530190Y-47283714D01*
X113625428Y-47331333D01*
X113673047Y-47378952D01*
X113720666Y-47474190D01*
X113720666Y-47759904D01*
X113673047Y-47855142D01*
X113625428Y-47902761D01*
X113530190Y-47950380D01*
X113339714Y-47950380D01*
X113244476Y-47902761D01*
X114149238Y-47950380D02*
X114149238Y-47283714D01*
X114149238Y-47474190D02*
X114196857Y-47378952D01*
X114244476Y-47331333D01*
X114339714Y-47283714D01*
X114434952Y-47283714D01*
X115196857Y-47950380D02*
X115196857Y-47426571D01*
X115149238Y-47331333D01*
X115054000Y-47283714D01*
X114863523Y-47283714D01*
X114768285Y-47331333D01*
X115196857Y-47902761D02*
X115101619Y-47950380D01*
X114863523Y-47950380D01*
X114768285Y-47902761D01*
X114720666Y-47807523D01*
X114720666Y-47712285D01*
X114768285Y-47617047D01*
X114863523Y-47569428D01*
X115101619Y-47569428D01*
X115196857Y-47521809D01*
X115530190Y-47283714D02*
X115911142Y-47283714D01*
X115673047Y-46950380D02*
X115673047Y-47807523D01*
X115720666Y-47902761D01*
X115815904Y-47950380D01*
X115911142Y-47950380D01*
X116244476Y-47950380D02*
X116244476Y-47283714D01*
X116244476Y-46950380D02*
X116196857Y-46998000D01*
X116244476Y-47045619D01*
X116292095Y-46998000D01*
X116244476Y-46950380D01*
X116244476Y-47045619D01*
X116863523Y-47950380D02*
X116768285Y-47902761D01*
X116720666Y-47855142D01*
X116673047Y-47759904D01*
X116673047Y-47474190D01*
X116720666Y-47378952D01*
X116768285Y-47331333D01*
X116863523Y-47283714D01*
X117006380Y-47283714D01*
X117101619Y-47331333D01*
X117149238Y-47378952D01*
X117196857Y-47474190D01*
X117196857Y-47759904D01*
X117149238Y-47855142D01*
X117101619Y-47902761D01*
X117006380Y-47950380D01*
X116863523Y-47950380D01*
X117625428Y-47283714D02*
X117625428Y-47950380D01*
X117625428Y-47378952D02*
X117673047Y-47331333D01*
X117768285Y-47283714D01*
X117911142Y-47283714D01*
X118006380Y-47331333D01*
X118054000Y-47426571D01*
X118054000Y-47950380D01*
X119292095Y-47950380D02*
X119292095Y-46950380D01*
X119292095Y-47331333D02*
X119387333Y-47283714D01*
X119577809Y-47283714D01*
X119673047Y-47331333D01*
X119720666Y-47378952D01*
X119768285Y-47474190D01*
X119768285Y-47759904D01*
X119720666Y-47855142D01*
X119673047Y-47902761D01*
X119577809Y-47950380D01*
X119387333Y-47950380D01*
X119292095Y-47902761D01*
X120339714Y-47950380D02*
X120244476Y-47902761D01*
X120196857Y-47855142D01*
X120149238Y-47759904D01*
X120149238Y-47474190D01*
X120196857Y-47378952D01*
X120244476Y-47331333D01*
X120339714Y-47283714D01*
X120482571Y-47283714D01*
X120577809Y-47331333D01*
X120625428Y-47378952D01*
X120673047Y-47474190D01*
X120673047Y-47759904D01*
X120625428Y-47855142D01*
X120577809Y-47902761D01*
X120482571Y-47950380D01*
X120339714Y-47950380D01*
X121530190Y-47950380D02*
X121530190Y-47426571D01*
X121482571Y-47331333D01*
X121387333Y-47283714D01*
X121196857Y-47283714D01*
X121101619Y-47331333D01*
X121530190Y-47902761D02*
X121434952Y-47950380D01*
X121196857Y-47950380D01*
X121101619Y-47902761D01*
X121054000Y-47807523D01*
X121054000Y-47712285D01*
X121101619Y-47617047D01*
X121196857Y-47569428D01*
X121434952Y-47569428D01*
X121530190Y-47521809D01*
X122006380Y-47950380D02*
X122006380Y-47283714D01*
X122006380Y-47474190D02*
X122054000Y-47378952D01*
X122101619Y-47331333D01*
X122196857Y-47283714D01*
X122292095Y-47283714D01*
X123054000Y-47950380D02*
X123054000Y-46950380D01*
X123054000Y-47902761D02*
X122958761Y-47950380D01*
X122768285Y-47950380D01*
X122673047Y-47902761D01*
X122625428Y-47855142D01*
X122577809Y-47759904D01*
X122577809Y-47474190D01*
X122625428Y-47378952D01*
X122673047Y-47331333D01*
X122768285Y-47283714D01*
X122958761Y-47283714D01*
X123054000Y-47331333D01*
D11*
X124714000Y-46939200D02*
G75*
G02X125222000Y-47447200I508000J0D01*
G01*
X125222000Y-47447200D02*
X124714000Y-47955200D01*
X125222000Y-47955200D02*
X125730000Y-47955200D01*
X124714000Y-47955200D02*
X125222000Y-47955200D01*
X124206000Y-47955200D02*
X124460000Y-47447200D01*
X123952000Y-47447200D02*
X124206000Y-47955200D01*
X101572000Y-61848999D02*
X101572000Y-97328999D01*
X171732000Y-72882334D02*
X171732000Y-61849000D01*
X171732000Y-86375666D02*
X171732000Y-97329000D01*
X171372000Y-72882334D02*
X171732000Y-72882334D01*
X171372000Y-86375666D02*
X171372000Y-72882334D01*
X171732000Y-86375666D02*
X171372000Y-86375666D01*
X101572000Y-97328999D02*
X171732000Y-97329000D01*
X171732000Y-61849000D02*
X101572000Y-61848999D01*
X187116000Y-49999000D02*
X179116000Y-49999000D01*
X187116000Y-80969000D02*
X179116000Y-80969000D01*
X186654675Y-59944000D02*
X186221662Y-60194000D01*
X186221662Y-59694000D02*
X186654675Y-59944000D01*
X186221662Y-60194000D02*
X186221662Y-59694000D01*
X187116000Y-49999000D02*
X199456000Y-49999000D01*
X179116000Y-80969000D02*
X179116000Y-49999000D01*
X199456000Y-80969000D02*
X187116000Y-80969000D01*
X193976000Y-72944000D02*
X198976000Y-72944000D01*
X198976000Y-72944000D02*
X196976000Y-71944000D01*
X196976000Y-71944000D02*
X198976000Y-72944000D01*
X196976000Y-73944000D02*
X198976000Y-72944000D01*
X197373000Y-114983000D02*
X196373000Y-113983000D01*
X196373000Y-115983000D02*
X197373000Y-114983000D01*
X197373000Y-114983000D02*
X196373000Y-115983000D01*
X193373000Y-114983000D02*
X197373000Y-114983000D01*
X182373000Y-118983000D02*
X198373000Y-118983000D01*
X182373000Y-110983000D02*
X182373000Y-118983000D01*
X198373000Y-110983000D02*
X182373000Y-110983000D01*
X198373000Y-111983000D02*
X198373000Y-110983000D01*
X198373000Y-118983000D02*
X198373000Y-111983000D01*
X102408000Y-111506000D02*
X102408000Y-106506000D01*
X108158000Y-111506000D02*
X108158000Y-106506000D01*
X102408000Y-111506000D02*
X108158000Y-111506000D01*
X102408000Y-106506000D02*
X108158000Y-106506000D01*
X170769000Y-48387000D02*
X170769000Y-53387000D01*
X165019000Y-48387000D02*
X165019000Y-53387000D01*
X170769000Y-48387000D02*
X165019000Y-48387000D01*
X170769000Y-53387000D02*
X165019000Y-53387000D01*
X184838001Y-82252000D02*
X177578000Y-82252000D01*
X184838001Y-82612000D02*
X184838001Y-82252000D01*
X192098000Y-82612000D02*
X184838001Y-82612000D01*
X192098000Y-82252000D02*
X192098000Y-82612000D01*
X199358000Y-82252000D02*
X192098000Y-82252000D01*
X199358000Y-109772000D02*
X199358000Y-82252000D01*
X177578000Y-109772000D02*
X199358000Y-109772000D01*
X177578000Y-82252000D02*
X177578000Y-109772000D01*
X158242000Y-113030000D02*
G75*
G03X158242000Y-113030000I-1270000J0D01*
G01*
X158242000Y-110490000D02*
G75*
G03X158242000Y-110490000I-1270000J0D01*
G01*
X142367000Y-102870000D02*
X172847000Y-102870000D01*
X142367000Y-120650000D02*
X142367000Y-102870000D01*
X172847000Y-120650000D02*
X142367000Y-120650000D01*
X172847000Y-113030000D02*
X172847000Y-120650000D01*
X171577000Y-113030000D02*
X172847000Y-113030000D01*
X171577000Y-110490000D02*
X171577000Y-113030000D01*
X172847000Y-110490000D02*
X171577000Y-110490000D01*
X172847000Y-102870000D02*
X172847000Y-110490000D01*
X154386000Y-48387000D02*
X154386000Y-53387000D01*
X148636000Y-48387000D02*
X148636000Y-53387000D01*
X154386000Y-48387000D02*
X148636000Y-48387000D01*
X154386000Y-53387000D02*
X148636000Y-53387000D01*
X108077000Y-98425000D02*
X110617000Y-98425000D01*
X108077000Y-99695000D02*
X108077000Y-98425000D01*
X109347000Y-99695000D02*
X108077000Y-99695000D01*
X109347000Y-102235000D02*
X109347000Y-99695000D01*
X108077000Y-102235000D02*
X109347000Y-102235000D01*
X108077000Y-103505000D02*
X108077000Y-102235000D01*
X110617000Y-103505000D02*
X108077000Y-103505000D01*
X137287000Y-103505000D02*
X110617000Y-103505000D01*
X137287000Y-98425000D02*
X137287000Y-103505000D01*
X110617000Y-98425000D02*
X137287000Y-98425000D01*
X165227000Y-59563000D02*
X162687000Y-59563000D01*
X165227000Y-58293000D02*
X165227000Y-59563000D01*
X163957000Y-58293000D02*
X165227000Y-58293000D01*
X163957000Y-55753000D02*
X163957000Y-58293000D01*
X165227000Y-55753000D02*
X163957000Y-55753000D01*
X165227000Y-54483000D02*
X165227000Y-55753000D01*
X162687000Y-54483000D02*
X165227000Y-54483000D01*
X136017000Y-54483000D02*
X162687000Y-54483000D01*
X136017000Y-59563000D02*
X136017000Y-54483000D01*
X162687000Y-59563000D02*
X136017000Y-59563000D01*
X114219000Y-119253000D02*
X114219000Y-114253000D01*
X119969000Y-119253000D02*
X119969000Y-114253000D01*
X114219000Y-119253000D02*
X119969000Y-119253000D01*
X114219000Y-114253000D02*
X119969000Y-114253000D01*
X106345000Y-119253000D02*
X106345000Y-114253000D01*
X112095000Y-119253000D02*
X112095000Y-114253000D01*
X106345000Y-119253000D02*
X112095000Y-119253000D01*
X106345000Y-114253000D02*
X112095000Y-114253000D01*
X118156000Y-111506000D02*
X118156000Y-106506000D01*
X123906000Y-111506000D02*
X123906000Y-106506000D01*
X118156000Y-111506000D02*
X123906000Y-111506000D01*
X118156000Y-106506000D02*
X123906000Y-106506000D01*
X146385000Y-48387000D02*
X146385000Y-53387000D01*
X140635000Y-48387000D02*
X140635000Y-53387000D01*
X146385000Y-48387000D02*
X140635000Y-48387000D01*
X146385000Y-53387000D02*
X140635000Y-53387000D01*
X162387000Y-48514000D02*
X162387000Y-53514000D01*
X156637000Y-48514000D02*
X156637000Y-53514000D01*
X162387000Y-48514000D02*
X156637000Y-48514000D01*
X162387000Y-53514000D02*
X156637000Y-53514000D01*
X181610000Y-34798000D02*
X181610000Y-48768000D01*
X199390000Y-34798000D02*
X181610000Y-34798000D01*
X199390000Y-48768000D02*
X199390000Y-34798000D01*
X181610000Y-48768000D02*
X199390000Y-48768000D01*
X194639946Y-46228000D02*
G75*
G03X194639946Y-46228000I-1599946J0D01*
G01*
X194639946Y-37338000D02*
G75*
G03X194639946Y-37338000I-1599946J0D01*
G01*
X129967000Y-119253000D02*
X129967000Y-114253000D01*
X135717000Y-119253000D02*
X135717000Y-114253000D01*
X129967000Y-119253000D02*
X135717000Y-119253000D01*
X129967000Y-114253000D02*
X135717000Y-114253000D01*
X126411000Y-111506000D02*
X126411000Y-106506000D01*
X132161000Y-111506000D02*
X132161000Y-106506000D01*
X126411000Y-111506000D02*
X132161000Y-111506000D01*
X126411000Y-106506000D02*
X132161000Y-106506000D01*
X120823000Y-119253000D02*
X120823000Y-114253000D01*
X126573000Y-119253000D02*
X126573000Y-114253000D01*
X120823000Y-119253000D02*
X126573000Y-119253000D01*
X120823000Y-114253000D02*
X126573000Y-114253000D01*
X109901000Y-111506000D02*
X109901000Y-106506000D01*
X115651000Y-111506000D02*
X115651000Y-106506000D01*
X109901000Y-111506000D02*
X115651000Y-111506000D01*
X109901000Y-106506000D02*
X115651000Y-106506000D01*
X142194000Y-41529000D02*
X142194000Y-46529000D01*
X136444000Y-41529000D02*
X136444000Y-46529000D01*
X142194000Y-41529000D02*
X136444000Y-41529000D01*
X142194000Y-46529000D02*
X136444000Y-46529000D01*
X150576000Y-41529000D02*
X150576000Y-46529000D01*
X144826000Y-41529000D02*
X144826000Y-46529000D01*
X150576000Y-41529000D02*
X144826000Y-41529000D01*
X150576000Y-46529000D02*
X144826000Y-46529000D01*
X158323000Y-41529000D02*
X158323000Y-46529000D01*
X152573000Y-41529000D02*
X152573000Y-46529000D01*
X158323000Y-41529000D02*
X152573000Y-41529000D01*
X158323000Y-46529000D02*
X152573000Y-46529000D01*
X166578000Y-41529000D02*
X166578000Y-46529000D01*
X160828000Y-41529000D02*
X160828000Y-46529000D01*
X166578000Y-41529000D02*
X160828000Y-41529000D01*
X166578000Y-46529000D02*
X160828000Y-46529000D01*
X179920000Y-119114000D02*
G75*
G03X179920000Y-119114000I-2120000J0D01*
G01*
X166978000Y-100584000D02*
G75*
G03X166978000Y-100584000I-2120000J0D01*
G01*
X169760000Y-56781000D02*
G75*
G03X169760000Y-56781000I-2120000J0D01*
G01*
X107403000Y-99683000D02*
G75*
G03X107403000Y-99683000I-2120000J0D01*
G01*
D10*
X169251380Y-80438523D02*
X169965666Y-80438523D01*
X170108523Y-80486142D01*
X170203761Y-80581380D01*
X170251380Y-80724238D01*
X170251380Y-80819476D01*
X170251380Y-79438523D02*
X170251380Y-80009952D01*
X170251380Y-79724238D02*
X169251380Y-79724238D01*
X169394238Y-79819476D01*
X169489476Y-79914714D01*
X169537095Y-80009952D01*
X169251380Y-78819476D02*
X169251380Y-78724238D01*
X169299000Y-78629000D01*
X169346619Y-78581380D01*
X169441857Y-78533761D01*
X169632333Y-78486142D01*
X169870428Y-78486142D01*
X170060904Y-78533761D01*
X170156142Y-78581380D01*
X170203761Y-78629000D01*
X170251380Y-78724238D01*
X170251380Y-78819476D01*
X170203761Y-78914714D01*
X170156142Y-78962333D01*
X170060904Y-79009952D01*
X169870428Y-79057571D01*
X169632333Y-79057571D01*
X169441857Y-79009952D01*
X169346619Y-78962333D01*
X169299000Y-78914714D01*
X169251380Y-78819476D01*
X185628380Y-66293523D02*
X186342666Y-66293523D01*
X186485523Y-66341142D01*
X186580761Y-66436380D01*
X186628380Y-66579238D01*
X186628380Y-66674476D01*
X185723619Y-65864952D02*
X185676000Y-65817333D01*
X185628380Y-65722095D01*
X185628380Y-65484000D01*
X185676000Y-65388761D01*
X185723619Y-65341142D01*
X185818857Y-65293523D01*
X185914095Y-65293523D01*
X186056952Y-65341142D01*
X186628380Y-65912571D01*
X186628380Y-65293523D01*
X185723619Y-64912571D02*
X185676000Y-64864952D01*
X185628380Y-64769714D01*
X185628380Y-64531619D01*
X185676000Y-64436380D01*
X185723619Y-64388761D01*
X185818857Y-64341142D01*
X185914095Y-64341142D01*
X186056952Y-64388761D01*
X186628380Y-64960190D01*
X186628380Y-64341142D01*
X194865666Y-119213380D02*
X194865666Y-119927666D01*
X194818047Y-120070523D01*
X194722809Y-120165761D01*
X194579952Y-120213380D01*
X194484714Y-120213380D01*
X195865666Y-120213380D02*
X195294238Y-120213380D01*
X195579952Y-120213380D02*
X195579952Y-119213380D01*
X195484714Y-119356238D01*
X195389476Y-119451476D01*
X195294238Y-119499095D01*
X106132380Y-105838523D02*
X106846666Y-105838523D01*
X106989523Y-105886142D01*
X107084761Y-105981380D01*
X107132380Y-106124238D01*
X107132380Y-106219476D01*
X107132380Y-104838523D02*
X107132380Y-105409952D01*
X107132380Y-105124238D02*
X106132380Y-105124238D01*
X106275238Y-105219476D01*
X106370476Y-105314714D01*
X106418095Y-105409952D01*
X106227619Y-104457571D02*
X106180000Y-104409952D01*
X106132380Y-104314714D01*
X106132380Y-104076619D01*
X106180000Y-103981380D01*
X106227619Y-103933761D01*
X106322857Y-103886142D01*
X106418095Y-103886142D01*
X106560952Y-103933761D01*
X107132380Y-104505190D01*
X107132380Y-103886142D01*
X166711380Y-48974333D02*
X167425666Y-48974333D01*
X167568523Y-49021952D01*
X167663761Y-49117190D01*
X167711380Y-49260047D01*
X167711380Y-49355285D01*
X166806619Y-48545761D02*
X166759000Y-48498142D01*
X166711380Y-48402904D01*
X166711380Y-48164809D01*
X166759000Y-48069571D01*
X166806619Y-48021952D01*
X166901857Y-47974333D01*
X166997095Y-47974333D01*
X167139952Y-48021952D01*
X167711380Y-48593380D01*
X167711380Y-47974333D01*
X187658476Y-83272380D02*
X187658476Y-83986666D01*
X187610857Y-84129523D01*
X187515619Y-84224761D01*
X187372761Y-84272380D01*
X187277523Y-84272380D01*
X188087047Y-83367619D02*
X188134666Y-83320000D01*
X188229904Y-83272380D01*
X188468000Y-83272380D01*
X188563238Y-83320000D01*
X188610857Y-83367619D01*
X188658476Y-83462857D01*
X188658476Y-83558095D01*
X188610857Y-83700952D01*
X188039428Y-84272380D01*
X188658476Y-84272380D01*
X189610857Y-84272380D02*
X189039428Y-84272380D01*
X189325142Y-84272380D02*
X189325142Y-83272380D01*
X189229904Y-83415238D01*
X189134666Y-83510476D01*
X189039428Y-83558095D01*
X169759380Y-112569523D02*
X170473666Y-112569523D01*
X170616523Y-112617142D01*
X170711761Y-112712380D01*
X170759380Y-112855238D01*
X170759380Y-112950476D01*
X169854619Y-112140952D02*
X169807000Y-112093333D01*
X169759380Y-111998095D01*
X169759380Y-111760000D01*
X169807000Y-111664761D01*
X169854619Y-111617142D01*
X169949857Y-111569523D01*
X170045095Y-111569523D01*
X170187952Y-111617142D01*
X170759380Y-112188571D01*
X170759380Y-111569523D01*
X169759380Y-110950476D02*
X169759380Y-110855238D01*
X169807000Y-110760000D01*
X169854619Y-110712380D01*
X169949857Y-110664761D01*
X170140333Y-110617142D01*
X170378428Y-110617142D01*
X170568904Y-110664761D01*
X170664142Y-110712380D01*
X170711761Y-110760000D01*
X170759380Y-110855238D01*
X170759380Y-110950476D01*
X170711761Y-111045714D01*
X170664142Y-111093333D01*
X170568904Y-111140952D01*
X170378428Y-111188571D01*
X170140333Y-111188571D01*
X169949857Y-111140952D01*
X169854619Y-111093333D01*
X169807000Y-111045714D01*
X169759380Y-110950476D01*
X151471380Y-48974333D02*
X152185666Y-48974333D01*
X152328523Y-49021952D01*
X152423761Y-49117190D01*
X152471380Y-49260047D01*
X152471380Y-49355285D01*
X151471380Y-48069571D02*
X151471380Y-48260047D01*
X151519000Y-48355285D01*
X151566619Y-48402904D01*
X151709476Y-48498142D01*
X151899952Y-48545761D01*
X152280904Y-48545761D01*
X152376142Y-48498142D01*
X152423761Y-48450523D01*
X152471380Y-48355285D01*
X152471380Y-48164809D01*
X152423761Y-48069571D01*
X152376142Y-48021952D01*
X152280904Y-47974333D01*
X152042809Y-47974333D01*
X151947571Y-48021952D01*
X151899952Y-48069571D01*
X151852333Y-48164809D01*
X151852333Y-48355285D01*
X151899952Y-48450523D01*
X151947571Y-48498142D01*
X152042809Y-48545761D01*
X106640380Y-102234904D02*
X107449904Y-102234904D01*
X107545142Y-102187285D01*
X107592761Y-102139666D01*
X107640380Y-102044428D01*
X107640380Y-101853952D01*
X107592761Y-101758714D01*
X107545142Y-101711095D01*
X107449904Y-101663476D01*
X106640380Y-101663476D01*
X106735619Y-101234904D02*
X106688000Y-101187285D01*
X106640380Y-101092047D01*
X106640380Y-100853952D01*
X106688000Y-100758714D01*
X106735619Y-100711095D01*
X106830857Y-100663476D01*
X106926095Y-100663476D01*
X107068952Y-100711095D01*
X107640380Y-101282523D01*
X107640380Y-100663476D01*
X165949380Y-57784904D02*
X166758904Y-57784904D01*
X166854142Y-57737285D01*
X166901761Y-57689666D01*
X166949380Y-57594428D01*
X166949380Y-57403952D01*
X166901761Y-57308714D01*
X166854142Y-57261095D01*
X166758904Y-57213476D01*
X165949380Y-57213476D01*
X166949380Y-56213476D02*
X166949380Y-56784904D01*
X166949380Y-56499190D02*
X165949380Y-56499190D01*
X166092238Y-56594428D01*
X166187476Y-56689666D01*
X166235095Y-56784904D01*
X116673380Y-113712523D02*
X117387666Y-113712523D01*
X117530523Y-113760142D01*
X117625761Y-113855380D01*
X117673380Y-113998238D01*
X117673380Y-114093476D01*
X117673380Y-112712523D02*
X117673380Y-113283952D01*
X117673380Y-112998238D02*
X116673380Y-112998238D01*
X116816238Y-113093476D01*
X116911476Y-113188714D01*
X116959095Y-113283952D01*
X116673380Y-111807761D02*
X116673380Y-112283952D01*
X117149571Y-112331571D01*
X117101952Y-112283952D01*
X117054333Y-112188714D01*
X117054333Y-111950619D01*
X117101952Y-111855380D01*
X117149571Y-111807761D01*
X117244809Y-111760142D01*
X117482904Y-111760142D01*
X117578142Y-111807761D01*
X117625761Y-111855380D01*
X117673380Y-111950619D01*
X117673380Y-112188714D01*
X117625761Y-112283952D01*
X117578142Y-112331571D01*
X108545380Y-113712523D02*
X109259666Y-113712523D01*
X109402523Y-113760142D01*
X109497761Y-113855380D01*
X109545380Y-113998238D01*
X109545380Y-114093476D01*
X109545380Y-112712523D02*
X109545380Y-113283952D01*
X109545380Y-112998238D02*
X108545380Y-112998238D01*
X108688238Y-113093476D01*
X108783476Y-113188714D01*
X108831095Y-113283952D01*
X108545380Y-112379190D02*
X108545380Y-111760142D01*
X108926333Y-112093476D01*
X108926333Y-111950619D01*
X108973952Y-111855380D01*
X109021571Y-111807761D01*
X109116809Y-111760142D01*
X109354904Y-111760142D01*
X109450142Y-111807761D01*
X109497761Y-111855380D01*
X109545380Y-111950619D01*
X109545380Y-112236333D01*
X109497761Y-112331571D01*
X109450142Y-112379190D01*
X120102380Y-105838523D02*
X120816666Y-105838523D01*
X120959523Y-105886142D01*
X121054761Y-105981380D01*
X121102380Y-106124238D01*
X121102380Y-106219476D01*
X121102380Y-104838523D02*
X121102380Y-105409952D01*
X121102380Y-105124238D02*
X120102380Y-105124238D01*
X120245238Y-105219476D01*
X120340476Y-105314714D01*
X120388095Y-105409952D01*
X120102380Y-103981380D02*
X120102380Y-104171857D01*
X120150000Y-104267095D01*
X120197619Y-104314714D01*
X120340476Y-104409952D01*
X120530952Y-104457571D01*
X120911904Y-104457571D01*
X121007142Y-104409952D01*
X121054761Y-104362333D01*
X121102380Y-104267095D01*
X121102380Y-104076619D01*
X121054761Y-103981380D01*
X121007142Y-103933761D01*
X120911904Y-103886142D01*
X120673809Y-103886142D01*
X120578571Y-103933761D01*
X120530952Y-103981380D01*
X120483333Y-104076619D01*
X120483333Y-104267095D01*
X120530952Y-104362333D01*
X120578571Y-104409952D01*
X120673809Y-104457571D01*
X142835380Y-48974333D02*
X143549666Y-48974333D01*
X143692523Y-49021952D01*
X143787761Y-49117190D01*
X143835380Y-49260047D01*
X143835380Y-49355285D01*
X143263952Y-48355285D02*
X143216333Y-48450523D01*
X143168714Y-48498142D01*
X143073476Y-48545761D01*
X143025857Y-48545761D01*
X142930619Y-48498142D01*
X142883000Y-48450523D01*
X142835380Y-48355285D01*
X142835380Y-48164809D01*
X142883000Y-48069571D01*
X142930619Y-48021952D01*
X143025857Y-47974333D01*
X143073476Y-47974333D01*
X143168714Y-48021952D01*
X143216333Y-48069571D01*
X143263952Y-48164809D01*
X143263952Y-48355285D01*
X143311571Y-48450523D01*
X143359190Y-48498142D01*
X143454428Y-48545761D01*
X143644904Y-48545761D01*
X143740142Y-48498142D01*
X143787761Y-48450523D01*
X143835380Y-48355285D01*
X143835380Y-48164809D01*
X143787761Y-48069571D01*
X143740142Y-48021952D01*
X143644904Y-47974333D01*
X143454428Y-47974333D01*
X143359190Y-48021952D01*
X143311571Y-48069571D01*
X143263952Y-48164809D01*
X158583380Y-48974333D02*
X159297666Y-48974333D01*
X159440523Y-49021952D01*
X159535761Y-49117190D01*
X159583380Y-49260047D01*
X159583380Y-49355285D01*
X158916714Y-48069571D02*
X159583380Y-48069571D01*
X158535761Y-48307666D02*
X159250047Y-48545761D01*
X159250047Y-47926714D01*
X180292380Y-39417523D02*
X181006666Y-39417523D01*
X181149523Y-39465142D01*
X181244761Y-39560380D01*
X181292380Y-39703238D01*
X181292380Y-39798476D01*
X181292380Y-38417523D02*
X181292380Y-38988952D01*
X181292380Y-38703238D02*
X180292380Y-38703238D01*
X180435238Y-38798476D01*
X180530476Y-38893714D01*
X180578095Y-38988952D01*
X181292380Y-37465142D02*
X181292380Y-38036571D01*
X181292380Y-37750857D02*
X180292380Y-37750857D01*
X180435238Y-37846095D01*
X180530476Y-37941333D01*
X180578095Y-38036571D01*
X132167380Y-113458523D02*
X132881666Y-113458523D01*
X133024523Y-113506142D01*
X133119761Y-113601380D01*
X133167380Y-113744238D01*
X133167380Y-113839476D01*
X133167380Y-112458523D02*
X133167380Y-113029952D01*
X133167380Y-112744238D02*
X132167380Y-112744238D01*
X132310238Y-112839476D01*
X132405476Y-112934714D01*
X132453095Y-113029952D01*
X133167380Y-111982333D02*
X133167380Y-111791857D01*
X133119761Y-111696619D01*
X133072142Y-111649000D01*
X132929285Y-111553761D01*
X132738809Y-111506142D01*
X132357857Y-111506142D01*
X132262619Y-111553761D01*
X132215000Y-111601380D01*
X132167380Y-111696619D01*
X132167380Y-111887095D01*
X132215000Y-111982333D01*
X132262619Y-112029952D01*
X132357857Y-112077571D01*
X132595952Y-112077571D01*
X132691190Y-112029952D01*
X132738809Y-111982333D01*
X132786428Y-111887095D01*
X132786428Y-111696619D01*
X132738809Y-111601380D01*
X132691190Y-111553761D01*
X132595952Y-111506142D01*
X128484380Y-105330523D02*
X129198666Y-105330523D01*
X129341523Y-105378142D01*
X129436761Y-105473380D01*
X129484380Y-105616238D01*
X129484380Y-105711476D01*
X129484380Y-104330523D02*
X129484380Y-104901952D01*
X129484380Y-104616238D02*
X128484380Y-104616238D01*
X128627238Y-104711476D01*
X128722476Y-104806714D01*
X128770095Y-104901952D01*
X128912952Y-103759095D02*
X128865333Y-103854333D01*
X128817714Y-103901952D01*
X128722476Y-103949571D01*
X128674857Y-103949571D01*
X128579619Y-103901952D01*
X128532000Y-103854333D01*
X128484380Y-103759095D01*
X128484380Y-103568619D01*
X128532000Y-103473380D01*
X128579619Y-103425761D01*
X128674857Y-103378142D01*
X128722476Y-103378142D01*
X128817714Y-103425761D01*
X128865333Y-103473380D01*
X128912952Y-103568619D01*
X128912952Y-103759095D01*
X128960571Y-103854333D01*
X129008190Y-103901952D01*
X129103428Y-103949571D01*
X129293904Y-103949571D01*
X129389142Y-103901952D01*
X129436761Y-103854333D01*
X129484380Y-103759095D01*
X129484380Y-103568619D01*
X129436761Y-103473380D01*
X129389142Y-103425761D01*
X129293904Y-103378142D01*
X129103428Y-103378142D01*
X129008190Y-103425761D01*
X128960571Y-103473380D01*
X128912952Y-103568619D01*
X122650380Y-113712523D02*
X123364666Y-113712523D01*
X123507523Y-113760142D01*
X123602761Y-113855380D01*
X123650380Y-113998238D01*
X123650380Y-114093476D01*
X123650380Y-112712523D02*
X123650380Y-113283952D01*
X123650380Y-112998238D02*
X122650380Y-112998238D01*
X122793238Y-113093476D01*
X122888476Y-113188714D01*
X122936095Y-113283952D01*
X122650380Y-112379190D02*
X122650380Y-111712523D01*
X123650380Y-112141095D01*
X112101380Y-105838523D02*
X112815666Y-105838523D01*
X112958523Y-105886142D01*
X113053761Y-105981380D01*
X113101380Y-106124238D01*
X113101380Y-106219476D01*
X113101380Y-104838523D02*
X113101380Y-105409952D01*
X113101380Y-105124238D02*
X112101380Y-105124238D01*
X112244238Y-105219476D01*
X112339476Y-105314714D01*
X112387095Y-105409952D01*
X112434714Y-103981380D02*
X113101380Y-103981380D01*
X112053761Y-104219476D02*
X112768047Y-104457571D01*
X112768047Y-103838523D01*
X138771380Y-46434333D02*
X139485666Y-46434333D01*
X139628523Y-46481952D01*
X139723761Y-46577190D01*
X139771380Y-46720047D01*
X139771380Y-46815285D01*
X139771380Y-45910523D02*
X139771380Y-45720047D01*
X139723761Y-45624809D01*
X139676142Y-45577190D01*
X139533285Y-45481952D01*
X139342809Y-45434333D01*
X138961857Y-45434333D01*
X138866619Y-45481952D01*
X138819000Y-45529571D01*
X138771380Y-45624809D01*
X138771380Y-45815285D01*
X138819000Y-45910523D01*
X138866619Y-45958142D01*
X138961857Y-46005761D01*
X139199952Y-46005761D01*
X139295190Y-45958142D01*
X139342809Y-45910523D01*
X139390428Y-45815285D01*
X139390428Y-45624809D01*
X139342809Y-45529571D01*
X139295190Y-45481952D01*
X139199952Y-45434333D01*
X146899380Y-46942333D02*
X147613666Y-46942333D01*
X147756523Y-46989952D01*
X147851761Y-47085190D01*
X147899380Y-47228047D01*
X147899380Y-47323285D01*
X146899380Y-46561380D02*
X146899380Y-45894714D01*
X147899380Y-46323285D01*
X154519380Y-46434333D02*
X155233666Y-46434333D01*
X155376523Y-46481952D01*
X155471761Y-46577190D01*
X155519380Y-46720047D01*
X155519380Y-46815285D01*
X154519380Y-45481952D02*
X154519380Y-45958142D01*
X154995571Y-46005761D01*
X154947952Y-45958142D01*
X154900333Y-45862904D01*
X154900333Y-45624809D01*
X154947952Y-45529571D01*
X154995571Y-45481952D01*
X155090809Y-45434333D01*
X155328904Y-45434333D01*
X155424142Y-45481952D01*
X155471761Y-45529571D01*
X155519380Y-45624809D01*
X155519380Y-45862904D01*
X155471761Y-45958142D01*
X155424142Y-46005761D01*
X163155380Y-46434333D02*
X163869666Y-46434333D01*
X164012523Y-46481952D01*
X164107761Y-46577190D01*
X164155380Y-46720047D01*
X164155380Y-46815285D01*
X163155380Y-46053380D02*
X163155380Y-45434333D01*
X163536333Y-45767666D01*
X163536333Y-45624809D01*
X163583952Y-45529571D01*
X163631571Y-45481952D01*
X163726809Y-45434333D01*
X163964904Y-45434333D01*
X164060142Y-45481952D01*
X164107761Y-45529571D01*
X164155380Y-45624809D01*
X164155380Y-45910523D01*
X164107761Y-46005761D01*
X164060142Y-46053380D01*
X178411142Y-123356666D02*
X178458761Y-123404285D01*
X178506380Y-123547142D01*
X178506380Y-123642380D01*
X178458761Y-123785238D01*
X178363523Y-123880476D01*
X178268285Y-123928095D01*
X178077809Y-123975714D01*
X177934952Y-123975714D01*
X177744476Y-123928095D01*
X177649238Y-123880476D01*
X177554000Y-123785238D01*
X177506380Y-123642380D01*
X177506380Y-123547142D01*
X177554000Y-123404285D01*
X177601619Y-123356666D01*
X178506380Y-122404285D02*
X178506380Y-122975714D01*
X178506380Y-122690000D02*
X177506380Y-122690000D01*
X177649238Y-122785238D01*
X177744476Y-122880476D01*
X177792095Y-122975714D01*
X164691333Y-104191142D02*
X164643714Y-104238761D01*
X164500857Y-104286380D01*
X164405619Y-104286380D01*
X164262761Y-104238761D01*
X164167523Y-104143523D01*
X164119904Y-104048285D01*
X164072285Y-103857809D01*
X164072285Y-103714952D01*
X164119904Y-103524476D01*
X164167523Y-103429238D01*
X164262761Y-103334000D01*
X164405619Y-103286380D01*
X164500857Y-103286380D01*
X164643714Y-103334000D01*
X164691333Y-103381619D01*
X165072285Y-103381619D02*
X165119904Y-103334000D01*
X165215142Y-103286380D01*
X165453238Y-103286380D01*
X165548476Y-103334000D01*
X165596095Y-103381619D01*
X165643714Y-103476857D01*
X165643714Y-103572095D01*
X165596095Y-103714952D01*
X165024666Y-104286380D01*
X165643714Y-104286380D01*
X169521142Y-56705666D02*
X169568761Y-56753285D01*
X169616380Y-56896142D01*
X169616380Y-56991380D01*
X169568761Y-57134238D01*
X169473523Y-57229476D01*
X169378285Y-57277095D01*
X169187809Y-57324714D01*
X169044952Y-57324714D01*
X168854476Y-57277095D01*
X168759238Y-57229476D01*
X168664000Y-57134238D01*
X168616380Y-56991380D01*
X168616380Y-56896142D01*
X168664000Y-56753285D01*
X168711619Y-56705666D01*
X168616380Y-56372333D02*
X168616380Y-55753285D01*
X168997333Y-56086619D01*
X168997333Y-55943761D01*
X169044952Y-55848523D01*
X169092571Y-55800904D01*
X169187809Y-55753285D01*
X169425904Y-55753285D01*
X169521142Y-55800904D01*
X169568761Y-55848523D01*
X169616380Y-55943761D01*
X169616380Y-56229476D01*
X169568761Y-56324714D01*
X169521142Y-56372333D01*
X105640142Y-102909666D02*
X105687761Y-102957285D01*
X105735380Y-103100142D01*
X105735380Y-103195380D01*
X105687761Y-103338238D01*
X105592523Y-103433476D01*
X105497285Y-103481095D01*
X105306809Y-103528714D01*
X105163952Y-103528714D01*
X104973476Y-103481095D01*
X104878238Y-103433476D01*
X104783000Y-103338238D01*
X104735380Y-103195380D01*
X104735380Y-103100142D01*
X104783000Y-102957285D01*
X104830619Y-102909666D01*
X105068714Y-102052523D02*
X105735380Y-102052523D01*
X104687761Y-102290619D02*
X105402047Y-102528714D01*
X105402047Y-101909666D01*
M02*
