G04 #@! TF.GenerationSoftware,KiCad,Pcbnew,5.1.2-f72e74a~84~ubuntu18.04.1*
G04 #@! TF.CreationDate,2019-06-04T14:03:32-04:00*
G04 #@! TF.ProjectId,temperature board,74656d70-6572-4617-9475-726520626f61,v01*
G04 #@! TF.SameCoordinates,Original*
G04 #@! TF.FileFunction,Soldermask,Bot*
G04 #@! TF.FilePolarity,Negative*
%FSLAX46Y46*%
G04 Gerber Fmt 4.6, Leading zero omitted, Abs format (unit mm)*
G04 Created by KiCad (PCBNEW 5.1.2-f72e74a~84~ubuntu18.04.1) date 2019-06-04 14:03:32*
%MOMM*%
%LPD*%
G04 APERTURE LIST*
%ADD10C,0.100000*%
G04 APERTURE END LIST*
D10*
G36*
X138667142Y-106914242D02*
G01*
X138815101Y-106975529D01*
X138948255Y-107064499D01*
X139061501Y-107177745D01*
X139150471Y-107310899D01*
X139211758Y-107458858D01*
X139243000Y-107615925D01*
X139243000Y-107776075D01*
X139211758Y-107933142D01*
X139150471Y-108081101D01*
X139061501Y-108214255D01*
X138948255Y-108327501D01*
X138815101Y-108416471D01*
X138667142Y-108477758D01*
X138510075Y-108509000D01*
X138349925Y-108509000D01*
X138192858Y-108477758D01*
X138044899Y-108416471D01*
X137911745Y-108327501D01*
X137798499Y-108214255D01*
X137709529Y-108081101D01*
X137648242Y-107933142D01*
X137617000Y-107776075D01*
X137617000Y-107615925D01*
X137648242Y-107458858D01*
X137709529Y-107310899D01*
X137798499Y-107177745D01*
X137911745Y-107064499D01*
X138044899Y-106975529D01*
X138192858Y-106914242D01*
X138349925Y-106883000D01*
X138510075Y-106883000D01*
X138667142Y-106914242D01*
X138667142Y-106914242D01*
G37*
G36*
X136127142Y-106914242D02*
G01*
X136275101Y-106975529D01*
X136408255Y-107064499D01*
X136521501Y-107177745D01*
X136610471Y-107310899D01*
X136671758Y-107458858D01*
X136703000Y-107615925D01*
X136703000Y-107776075D01*
X136671758Y-107933142D01*
X136610471Y-108081101D01*
X136521501Y-108214255D01*
X136408255Y-108327501D01*
X136275101Y-108416471D01*
X136127142Y-108477758D01*
X135970075Y-108509000D01*
X135809925Y-108509000D01*
X135652858Y-108477758D01*
X135504899Y-108416471D01*
X135371745Y-108327501D01*
X135258499Y-108214255D01*
X135169529Y-108081101D01*
X135108242Y-107933142D01*
X135077000Y-107776075D01*
X135077000Y-107615925D01*
X135108242Y-107458858D01*
X135169529Y-107310899D01*
X135258499Y-107177745D01*
X135371745Y-107064499D01*
X135504899Y-106975529D01*
X135652858Y-106914242D01*
X135809925Y-106883000D01*
X135970075Y-106883000D01*
X136127142Y-106914242D01*
X136127142Y-106914242D01*
G37*
G36*
X110727142Y-106914242D02*
G01*
X110875101Y-106975529D01*
X111008255Y-107064499D01*
X111121501Y-107177745D01*
X111210471Y-107310899D01*
X111271758Y-107458858D01*
X111303000Y-107615925D01*
X111303000Y-107776075D01*
X111271758Y-107933142D01*
X111210471Y-108081101D01*
X111121501Y-108214255D01*
X111008255Y-108327501D01*
X110875101Y-108416471D01*
X110727142Y-108477758D01*
X110570075Y-108509000D01*
X110409925Y-108509000D01*
X110252858Y-108477758D01*
X110104899Y-108416471D01*
X109971745Y-108327501D01*
X109858499Y-108214255D01*
X109769529Y-108081101D01*
X109708242Y-107933142D01*
X109677000Y-107776075D01*
X109677000Y-107615925D01*
X109708242Y-107458858D01*
X109769529Y-107310899D01*
X109858499Y-107177745D01*
X109971745Y-107064499D01*
X110104899Y-106975529D01*
X110252858Y-106914242D01*
X110409925Y-106883000D01*
X110570075Y-106883000D01*
X110727142Y-106914242D01*
X110727142Y-106914242D01*
G37*
G36*
X113267142Y-106914242D02*
G01*
X113415101Y-106975529D01*
X113548255Y-107064499D01*
X113661501Y-107177745D01*
X113750471Y-107310899D01*
X113811758Y-107458858D01*
X113843000Y-107615925D01*
X113843000Y-107776075D01*
X113811758Y-107933142D01*
X113750471Y-108081101D01*
X113661501Y-108214255D01*
X113548255Y-108327501D01*
X113415101Y-108416471D01*
X113267142Y-108477758D01*
X113110075Y-108509000D01*
X112949925Y-108509000D01*
X112792858Y-108477758D01*
X112644899Y-108416471D01*
X112511745Y-108327501D01*
X112398499Y-108214255D01*
X112309529Y-108081101D01*
X112248242Y-107933142D01*
X112217000Y-107776075D01*
X112217000Y-107615925D01*
X112248242Y-107458858D01*
X112309529Y-107310899D01*
X112398499Y-107177745D01*
X112511745Y-107064499D01*
X112644899Y-106975529D01*
X112792858Y-106914242D01*
X112949925Y-106883000D01*
X113110075Y-106883000D01*
X113267142Y-106914242D01*
X113267142Y-106914242D01*
G37*
G36*
X115807142Y-106914242D02*
G01*
X115955101Y-106975529D01*
X116088255Y-107064499D01*
X116201501Y-107177745D01*
X116290471Y-107310899D01*
X116351758Y-107458858D01*
X116383000Y-107615925D01*
X116383000Y-107776075D01*
X116351758Y-107933142D01*
X116290471Y-108081101D01*
X116201501Y-108214255D01*
X116088255Y-108327501D01*
X115955101Y-108416471D01*
X115807142Y-108477758D01*
X115650075Y-108509000D01*
X115489925Y-108509000D01*
X115332858Y-108477758D01*
X115184899Y-108416471D01*
X115051745Y-108327501D01*
X114938499Y-108214255D01*
X114849529Y-108081101D01*
X114788242Y-107933142D01*
X114757000Y-107776075D01*
X114757000Y-107615925D01*
X114788242Y-107458858D01*
X114849529Y-107310899D01*
X114938499Y-107177745D01*
X115051745Y-107064499D01*
X115184899Y-106975529D01*
X115332858Y-106914242D01*
X115489925Y-106883000D01*
X115650075Y-106883000D01*
X115807142Y-106914242D01*
X115807142Y-106914242D01*
G37*
G36*
X118347142Y-106914242D02*
G01*
X118495101Y-106975529D01*
X118628255Y-107064499D01*
X118741501Y-107177745D01*
X118830471Y-107310899D01*
X118891758Y-107458858D01*
X118923000Y-107615925D01*
X118923000Y-107776075D01*
X118891758Y-107933142D01*
X118830471Y-108081101D01*
X118741501Y-108214255D01*
X118628255Y-108327501D01*
X118495101Y-108416471D01*
X118347142Y-108477758D01*
X118190075Y-108509000D01*
X118029925Y-108509000D01*
X117872858Y-108477758D01*
X117724899Y-108416471D01*
X117591745Y-108327501D01*
X117478499Y-108214255D01*
X117389529Y-108081101D01*
X117328242Y-107933142D01*
X117297000Y-107776075D01*
X117297000Y-107615925D01*
X117328242Y-107458858D01*
X117389529Y-107310899D01*
X117478499Y-107177745D01*
X117591745Y-107064499D01*
X117724899Y-106975529D01*
X117872858Y-106914242D01*
X118029925Y-106883000D01*
X118190075Y-106883000D01*
X118347142Y-106914242D01*
X118347142Y-106914242D01*
G37*
G36*
X120887142Y-106914242D02*
G01*
X121035101Y-106975529D01*
X121168255Y-107064499D01*
X121281501Y-107177745D01*
X121370471Y-107310899D01*
X121431758Y-107458858D01*
X121463000Y-107615925D01*
X121463000Y-107776075D01*
X121431758Y-107933142D01*
X121370471Y-108081101D01*
X121281501Y-108214255D01*
X121168255Y-108327501D01*
X121035101Y-108416471D01*
X120887142Y-108477758D01*
X120730075Y-108509000D01*
X120569925Y-108509000D01*
X120412858Y-108477758D01*
X120264899Y-108416471D01*
X120131745Y-108327501D01*
X120018499Y-108214255D01*
X119929529Y-108081101D01*
X119868242Y-107933142D01*
X119837000Y-107776075D01*
X119837000Y-107615925D01*
X119868242Y-107458858D01*
X119929529Y-107310899D01*
X120018499Y-107177745D01*
X120131745Y-107064499D01*
X120264899Y-106975529D01*
X120412858Y-106914242D01*
X120569925Y-106883000D01*
X120730075Y-106883000D01*
X120887142Y-106914242D01*
X120887142Y-106914242D01*
G37*
G36*
X125967142Y-106914242D02*
G01*
X126115101Y-106975529D01*
X126248255Y-107064499D01*
X126361501Y-107177745D01*
X126450471Y-107310899D01*
X126511758Y-107458858D01*
X126543000Y-107615925D01*
X126543000Y-107776075D01*
X126511758Y-107933142D01*
X126450471Y-108081101D01*
X126361501Y-108214255D01*
X126248255Y-108327501D01*
X126115101Y-108416471D01*
X125967142Y-108477758D01*
X125810075Y-108509000D01*
X125649925Y-108509000D01*
X125492858Y-108477758D01*
X125344899Y-108416471D01*
X125211745Y-108327501D01*
X125098499Y-108214255D01*
X125009529Y-108081101D01*
X124948242Y-107933142D01*
X124917000Y-107776075D01*
X124917000Y-107615925D01*
X124948242Y-107458858D01*
X125009529Y-107310899D01*
X125098499Y-107177745D01*
X125211745Y-107064499D01*
X125344899Y-106975529D01*
X125492858Y-106914242D01*
X125649925Y-106883000D01*
X125810075Y-106883000D01*
X125967142Y-106914242D01*
X125967142Y-106914242D01*
G37*
G36*
X123427142Y-106914242D02*
G01*
X123575101Y-106975529D01*
X123708255Y-107064499D01*
X123821501Y-107177745D01*
X123910471Y-107310899D01*
X123971758Y-107458858D01*
X124003000Y-107615925D01*
X124003000Y-107776075D01*
X123971758Y-107933142D01*
X123910471Y-108081101D01*
X123821501Y-108214255D01*
X123708255Y-108327501D01*
X123575101Y-108416471D01*
X123427142Y-108477758D01*
X123270075Y-108509000D01*
X123109925Y-108509000D01*
X122952858Y-108477758D01*
X122804899Y-108416471D01*
X122671745Y-108327501D01*
X122558499Y-108214255D01*
X122469529Y-108081101D01*
X122408242Y-107933142D01*
X122377000Y-107776075D01*
X122377000Y-107615925D01*
X122408242Y-107458858D01*
X122469529Y-107310899D01*
X122558499Y-107177745D01*
X122671745Y-107064499D01*
X122804899Y-106975529D01*
X122952858Y-106914242D01*
X123109925Y-106883000D01*
X123270075Y-106883000D01*
X123427142Y-106914242D01*
X123427142Y-106914242D01*
G37*
G36*
X133587142Y-106914242D02*
G01*
X133735101Y-106975529D01*
X133868255Y-107064499D01*
X133981501Y-107177745D01*
X134070471Y-107310899D01*
X134131758Y-107458858D01*
X134163000Y-107615925D01*
X134163000Y-107776075D01*
X134131758Y-107933142D01*
X134070471Y-108081101D01*
X133981501Y-108214255D01*
X133868255Y-108327501D01*
X133735101Y-108416471D01*
X133587142Y-108477758D01*
X133430075Y-108509000D01*
X133269925Y-108509000D01*
X133112858Y-108477758D01*
X132964899Y-108416471D01*
X132831745Y-108327501D01*
X132718499Y-108214255D01*
X132629529Y-108081101D01*
X132568242Y-107933142D01*
X132537000Y-107776075D01*
X132537000Y-107615925D01*
X132568242Y-107458858D01*
X132629529Y-107310899D01*
X132718499Y-107177745D01*
X132831745Y-107064499D01*
X132964899Y-106975529D01*
X133112858Y-106914242D01*
X133269925Y-106883000D01*
X133430075Y-106883000D01*
X133587142Y-106914242D01*
X133587142Y-106914242D01*
G37*
G36*
X128507142Y-106914242D02*
G01*
X128655101Y-106975529D01*
X128788255Y-107064499D01*
X128901501Y-107177745D01*
X128990471Y-107310899D01*
X129051758Y-107458858D01*
X129083000Y-107615925D01*
X129083000Y-107776075D01*
X129051758Y-107933142D01*
X128990471Y-108081101D01*
X128901501Y-108214255D01*
X128788255Y-108327501D01*
X128655101Y-108416471D01*
X128507142Y-108477758D01*
X128350075Y-108509000D01*
X128189925Y-108509000D01*
X128032858Y-108477758D01*
X127884899Y-108416471D01*
X127751745Y-108327501D01*
X127638499Y-108214255D01*
X127549529Y-108081101D01*
X127488242Y-107933142D01*
X127457000Y-107776075D01*
X127457000Y-107615925D01*
X127488242Y-107458858D01*
X127549529Y-107310899D01*
X127638499Y-107177745D01*
X127751745Y-107064499D01*
X127884899Y-106975529D01*
X128032858Y-106914242D01*
X128189925Y-106883000D01*
X128350075Y-106883000D01*
X128507142Y-106914242D01*
X128507142Y-106914242D01*
G37*
G36*
X131047142Y-106914242D02*
G01*
X131195101Y-106975529D01*
X131328255Y-107064499D01*
X131441501Y-107177745D01*
X131530471Y-107310899D01*
X131591758Y-107458858D01*
X131623000Y-107615925D01*
X131623000Y-107776075D01*
X131591758Y-107933142D01*
X131530471Y-108081101D01*
X131441501Y-108214255D01*
X131328255Y-108327501D01*
X131195101Y-108416471D01*
X131047142Y-108477758D01*
X130890075Y-108509000D01*
X130729925Y-108509000D01*
X130572858Y-108477758D01*
X130424899Y-108416471D01*
X130291745Y-108327501D01*
X130178499Y-108214255D01*
X130089529Y-108081101D01*
X130028242Y-107933142D01*
X129997000Y-107776075D01*
X129997000Y-107615925D01*
X130028242Y-107458858D01*
X130089529Y-107310899D01*
X130178499Y-107177745D01*
X130291745Y-107064499D01*
X130424899Y-106975529D01*
X130572858Y-106914242D01*
X130729925Y-106883000D01*
X130890075Y-106883000D01*
X131047142Y-106914242D01*
X131047142Y-106914242D01*
G37*
G36*
X106028142Y-105898242D02*
G01*
X106176101Y-105959529D01*
X106309255Y-106048499D01*
X106422501Y-106161745D01*
X106511471Y-106294899D01*
X106572758Y-106442858D01*
X106604000Y-106599925D01*
X106604000Y-106760075D01*
X106572758Y-106917142D01*
X106511471Y-107065101D01*
X106422501Y-107198255D01*
X106309255Y-107311501D01*
X106176101Y-107400471D01*
X106028142Y-107461758D01*
X105871075Y-107493000D01*
X105710925Y-107493000D01*
X105553858Y-107461758D01*
X105405899Y-107400471D01*
X105272745Y-107311501D01*
X105159499Y-107198255D01*
X105070529Y-107065101D01*
X105009242Y-106917142D01*
X104978000Y-106760075D01*
X104978000Y-106599925D01*
X105009242Y-106442858D01*
X105070529Y-106294899D01*
X105159499Y-106161745D01*
X105272745Y-106048499D01*
X105405899Y-105959529D01*
X105553858Y-105898242D01*
X105710925Y-105867000D01*
X105871075Y-105867000D01*
X106028142Y-105898242D01*
X106028142Y-105898242D01*
G37*
G36*
X95360142Y-105898242D02*
G01*
X95508101Y-105959529D01*
X95641255Y-106048499D01*
X95754501Y-106161745D01*
X95843471Y-106294899D01*
X95904758Y-106442858D01*
X95936000Y-106599925D01*
X95936000Y-106760075D01*
X95904758Y-106917142D01*
X95843471Y-107065101D01*
X95754501Y-107198255D01*
X95641255Y-107311501D01*
X95508101Y-107400471D01*
X95360142Y-107461758D01*
X95203075Y-107493000D01*
X95042925Y-107493000D01*
X94885858Y-107461758D01*
X94737899Y-107400471D01*
X94604745Y-107311501D01*
X94491499Y-107198255D01*
X94402529Y-107065101D01*
X94341242Y-106917142D01*
X94310000Y-106760075D01*
X94310000Y-106599925D01*
X94341242Y-106442858D01*
X94402529Y-106294899D01*
X94491499Y-106161745D01*
X94604745Y-106048499D01*
X94737899Y-105959529D01*
X94885858Y-105898242D01*
X95042925Y-105867000D01*
X95203075Y-105867000D01*
X95360142Y-105898242D01*
X95360142Y-105898242D01*
G37*
G36*
X103742142Y-105898242D02*
G01*
X103890101Y-105959529D01*
X104023255Y-106048499D01*
X104136501Y-106161745D01*
X104225471Y-106294899D01*
X104286758Y-106442858D01*
X104318000Y-106599925D01*
X104318000Y-106760075D01*
X104286758Y-106917142D01*
X104225471Y-107065101D01*
X104136501Y-107198255D01*
X104023255Y-107311501D01*
X103890101Y-107400471D01*
X103742142Y-107461758D01*
X103585075Y-107493000D01*
X103424925Y-107493000D01*
X103267858Y-107461758D01*
X103119899Y-107400471D01*
X102986745Y-107311501D01*
X102873499Y-107198255D01*
X102784529Y-107065101D01*
X102723242Y-106917142D01*
X102692000Y-106760075D01*
X102692000Y-106599925D01*
X102723242Y-106442858D01*
X102784529Y-106294899D01*
X102873499Y-106161745D01*
X102986745Y-106048499D01*
X103119899Y-105959529D01*
X103267858Y-105898242D01*
X103424925Y-105867000D01*
X103585075Y-105867000D01*
X103742142Y-105898242D01*
X103742142Y-105898242D01*
G37*
G36*
X97646142Y-105898242D02*
G01*
X97794101Y-105959529D01*
X97927255Y-106048499D01*
X98040501Y-106161745D01*
X98129471Y-106294899D01*
X98190758Y-106442858D01*
X98222000Y-106599925D01*
X98222000Y-106760075D01*
X98190758Y-106917142D01*
X98129471Y-107065101D01*
X98040501Y-107198255D01*
X97927255Y-107311501D01*
X97794101Y-107400471D01*
X97646142Y-107461758D01*
X97489075Y-107493000D01*
X97328925Y-107493000D01*
X97171858Y-107461758D01*
X97023899Y-107400471D01*
X96890745Y-107311501D01*
X96777499Y-107198255D01*
X96688529Y-107065101D01*
X96627242Y-106917142D01*
X96596000Y-106760075D01*
X96596000Y-106599925D01*
X96627242Y-106442858D01*
X96688529Y-106294899D01*
X96777499Y-106161745D01*
X96890745Y-106048499D01*
X97023899Y-105959529D01*
X97171858Y-105898242D01*
X97328925Y-105867000D01*
X97489075Y-105867000D01*
X97646142Y-105898242D01*
X97646142Y-105898242D01*
G37*
G36*
X89899142Y-105898242D02*
G01*
X90047101Y-105959529D01*
X90180255Y-106048499D01*
X90293501Y-106161745D01*
X90382471Y-106294899D01*
X90443758Y-106442858D01*
X90475000Y-106599925D01*
X90475000Y-106760075D01*
X90443758Y-106917142D01*
X90382471Y-107065101D01*
X90293501Y-107198255D01*
X90180255Y-107311501D01*
X90047101Y-107400471D01*
X89899142Y-107461758D01*
X89742075Y-107493000D01*
X89581925Y-107493000D01*
X89424858Y-107461758D01*
X89276899Y-107400471D01*
X89143745Y-107311501D01*
X89030499Y-107198255D01*
X88941529Y-107065101D01*
X88880242Y-106917142D01*
X88849000Y-106760075D01*
X88849000Y-106599925D01*
X88880242Y-106442858D01*
X88941529Y-106294899D01*
X89030499Y-106161745D01*
X89143745Y-106048499D01*
X89276899Y-105959529D01*
X89424858Y-105898242D01*
X89581925Y-105867000D01*
X89742075Y-105867000D01*
X89899142Y-105898242D01*
X89899142Y-105898242D01*
G37*
G36*
X87613142Y-105898242D02*
G01*
X87761101Y-105959529D01*
X87894255Y-106048499D01*
X88007501Y-106161745D01*
X88096471Y-106294899D01*
X88157758Y-106442858D01*
X88189000Y-106599925D01*
X88189000Y-106760075D01*
X88157758Y-106917142D01*
X88096471Y-107065101D01*
X88007501Y-107198255D01*
X87894255Y-107311501D01*
X87761101Y-107400471D01*
X87613142Y-107461758D01*
X87456075Y-107493000D01*
X87295925Y-107493000D01*
X87138858Y-107461758D01*
X86990899Y-107400471D01*
X86857745Y-107311501D01*
X86744499Y-107198255D01*
X86655529Y-107065101D01*
X86594242Y-106917142D01*
X86563000Y-106760075D01*
X86563000Y-106599925D01*
X86594242Y-106442858D01*
X86655529Y-106294899D01*
X86744499Y-106161745D01*
X86857745Y-106048499D01*
X86990899Y-105959529D01*
X87138858Y-105898242D01*
X87295925Y-105867000D01*
X87456075Y-105867000D01*
X87613142Y-105898242D01*
X87613142Y-105898242D01*
G37*
G36*
X81644142Y-105898242D02*
G01*
X81792101Y-105959529D01*
X81925255Y-106048499D01*
X82038501Y-106161745D01*
X82127471Y-106294899D01*
X82188758Y-106442858D01*
X82220000Y-106599925D01*
X82220000Y-106760075D01*
X82188758Y-106917142D01*
X82127471Y-107065101D01*
X82038501Y-107198255D01*
X81925255Y-107311501D01*
X81792101Y-107400471D01*
X81644142Y-107461758D01*
X81487075Y-107493000D01*
X81326925Y-107493000D01*
X81169858Y-107461758D01*
X81021899Y-107400471D01*
X80888745Y-107311501D01*
X80775499Y-107198255D01*
X80686529Y-107065101D01*
X80625242Y-106917142D01*
X80594000Y-106760075D01*
X80594000Y-106599925D01*
X80625242Y-106442858D01*
X80686529Y-106294899D01*
X80775499Y-106161745D01*
X80888745Y-106048499D01*
X81021899Y-105959529D01*
X81169858Y-105898242D01*
X81326925Y-105867000D01*
X81487075Y-105867000D01*
X81644142Y-105898242D01*
X81644142Y-105898242D01*
G37*
G36*
X79358142Y-105898242D02*
G01*
X79506101Y-105959529D01*
X79639255Y-106048499D01*
X79752501Y-106161745D01*
X79841471Y-106294899D01*
X79902758Y-106442858D01*
X79934000Y-106599925D01*
X79934000Y-106760075D01*
X79902758Y-106917142D01*
X79841471Y-107065101D01*
X79752501Y-107198255D01*
X79639255Y-107311501D01*
X79506101Y-107400471D01*
X79358142Y-107461758D01*
X79201075Y-107493000D01*
X79040925Y-107493000D01*
X78883858Y-107461758D01*
X78735899Y-107400471D01*
X78602745Y-107311501D01*
X78489499Y-107198255D01*
X78400529Y-107065101D01*
X78339242Y-106917142D01*
X78308000Y-106760075D01*
X78308000Y-106599925D01*
X78339242Y-106442858D01*
X78400529Y-106294899D01*
X78489499Y-106161745D01*
X78602745Y-106048499D01*
X78735899Y-105959529D01*
X78883858Y-105898242D01*
X79040925Y-105867000D01*
X79201075Y-105867000D01*
X79358142Y-105898242D01*
X79358142Y-105898242D01*
G37*
G36*
X160322585Y-104142802D02*
G01*
X160472410Y-104172604D01*
X160754674Y-104289521D01*
X161008705Y-104459259D01*
X161224741Y-104675295D01*
X161394479Y-104929326D01*
X161511396Y-105211590D01*
X161571000Y-105511240D01*
X161571000Y-105816760D01*
X161511396Y-106116410D01*
X161394479Y-106398674D01*
X161224741Y-106652705D01*
X161008705Y-106868741D01*
X160754674Y-107038479D01*
X160472410Y-107155396D01*
X160360064Y-107177743D01*
X160172761Y-107215000D01*
X159867239Y-107215000D01*
X159679936Y-107177743D01*
X159567590Y-107155396D01*
X159285326Y-107038479D01*
X159031295Y-106868741D01*
X158815259Y-106652705D01*
X158645521Y-106398674D01*
X158528604Y-106116410D01*
X158469000Y-105816760D01*
X158469000Y-105511240D01*
X158528604Y-105211590D01*
X158645521Y-104929326D01*
X158815259Y-104675295D01*
X159031295Y-104459259D01*
X159285326Y-104289521D01*
X159567590Y-104172604D01*
X159717415Y-104142802D01*
X159867239Y-104113000D01*
X160172761Y-104113000D01*
X160322585Y-104142802D01*
X160322585Y-104142802D01*
G37*
G36*
X74978585Y-104142802D02*
G01*
X75128410Y-104172604D01*
X75410674Y-104289521D01*
X75664705Y-104459259D01*
X75880741Y-104675295D01*
X76050479Y-104929326D01*
X76167396Y-105211590D01*
X76227000Y-105511240D01*
X76227000Y-105816760D01*
X76167396Y-106116410D01*
X76050479Y-106398674D01*
X75880741Y-106652705D01*
X75664705Y-106868741D01*
X75410674Y-107038479D01*
X75128410Y-107155396D01*
X75016064Y-107177743D01*
X74828761Y-107215000D01*
X74523239Y-107215000D01*
X74335936Y-107177743D01*
X74223590Y-107155396D01*
X73941326Y-107038479D01*
X73687295Y-106868741D01*
X73471259Y-106652705D01*
X73301521Y-106398674D01*
X73184604Y-106116410D01*
X73125000Y-105816760D01*
X73125000Y-105511240D01*
X73184604Y-105211590D01*
X73301521Y-104929326D01*
X73471259Y-104675295D01*
X73687295Y-104459259D01*
X73941326Y-104289521D01*
X74223590Y-104172604D01*
X74373415Y-104142802D01*
X74523239Y-104113000D01*
X74828761Y-104113000D01*
X74978585Y-104142802D01*
X74978585Y-104142802D01*
G37*
G36*
X105623890Y-100720017D02*
G01*
X105742364Y-100769091D01*
X105848988Y-100840335D01*
X105939665Y-100931012D01*
X106010910Y-101037638D01*
X106059983Y-101156111D01*
X106061403Y-101163249D01*
X106068516Y-101186698D01*
X106080067Y-101208309D01*
X106095612Y-101227251D01*
X106114554Y-101242797D01*
X106136164Y-101254348D01*
X106159613Y-101261461D01*
X106183999Y-101263863D01*
X106208385Y-101261461D01*
X106231834Y-101254348D01*
X106253445Y-101242797D01*
X106272387Y-101227252D01*
X106287933Y-101208310D01*
X106299484Y-101186700D01*
X106306597Y-101163249D01*
X106308017Y-101156111D01*
X106357090Y-101037638D01*
X106428335Y-100931012D01*
X106519012Y-100840335D01*
X106625636Y-100769091D01*
X106744110Y-100720017D01*
X106869881Y-100695000D01*
X106998119Y-100695000D01*
X107123890Y-100720017D01*
X107242364Y-100769091D01*
X107348988Y-100840335D01*
X107439665Y-100931012D01*
X107510910Y-101037638D01*
X107559983Y-101156110D01*
X107585000Y-101281881D01*
X107585000Y-101410119D01*
X107570366Y-101483690D01*
X107559983Y-101535890D01*
X107510909Y-101654364D01*
X107439665Y-101760988D01*
X107348988Y-101851665D01*
X107242364Y-101922909D01*
X107242363Y-101922910D01*
X107242362Y-101922910D01*
X107123890Y-101971983D01*
X106998119Y-101997000D01*
X106869881Y-101997000D01*
X106744110Y-101971983D01*
X106625638Y-101922910D01*
X106625637Y-101922910D01*
X106625636Y-101922909D01*
X106519012Y-101851665D01*
X106428335Y-101760988D01*
X106357091Y-101654364D01*
X106308017Y-101535890D01*
X106306597Y-101528751D01*
X106299484Y-101505302D01*
X106287933Y-101483691D01*
X106272388Y-101464749D01*
X106253446Y-101449203D01*
X106231836Y-101437652D01*
X106208387Y-101430539D01*
X106184001Y-101428137D01*
X106159615Y-101430539D01*
X106136166Y-101437652D01*
X106114555Y-101449203D01*
X106095613Y-101464748D01*
X106080067Y-101483690D01*
X106068516Y-101505300D01*
X106061403Y-101528751D01*
X106059983Y-101535890D01*
X106010909Y-101654364D01*
X105939665Y-101760988D01*
X105848988Y-101851665D01*
X105742364Y-101922909D01*
X105742363Y-101922910D01*
X105742362Y-101922910D01*
X105623890Y-101971983D01*
X105498119Y-101997000D01*
X105369881Y-101997000D01*
X105244110Y-101971983D01*
X105125638Y-101922910D01*
X105125637Y-101922910D01*
X105125636Y-101922909D01*
X105019012Y-101851665D01*
X104928335Y-101760988D01*
X104857091Y-101654364D01*
X104808017Y-101535890D01*
X104797634Y-101483690D01*
X104783000Y-101410119D01*
X104783000Y-101281881D01*
X104808017Y-101156110D01*
X104857090Y-101037638D01*
X104928335Y-100931012D01*
X105019012Y-100840335D01*
X105125636Y-100769091D01*
X105244110Y-100720017D01*
X105369881Y-100695000D01*
X105498119Y-100695000D01*
X105623890Y-100720017D01*
X105623890Y-100720017D01*
G37*
G36*
X75167142Y-99040242D02*
G01*
X75315101Y-99101529D01*
X75448255Y-99190499D01*
X75561501Y-99303745D01*
X75650471Y-99436899D01*
X75711758Y-99584858D01*
X75743000Y-99741925D01*
X75743000Y-99902075D01*
X75711758Y-100059142D01*
X75650471Y-100207101D01*
X75561501Y-100340255D01*
X75448255Y-100453501D01*
X75315101Y-100542471D01*
X75167142Y-100603758D01*
X75010075Y-100635000D01*
X74849925Y-100635000D01*
X74692858Y-100603758D01*
X74544899Y-100542471D01*
X74411745Y-100453501D01*
X74298499Y-100340255D01*
X74209529Y-100207101D01*
X74148242Y-100059142D01*
X74117000Y-99902075D01*
X74117000Y-99741925D01*
X74148242Y-99584858D01*
X74209529Y-99436899D01*
X74298499Y-99303745D01*
X74411745Y-99190499D01*
X74544899Y-99101529D01*
X74692858Y-99040242D01*
X74849925Y-99009000D01*
X75010075Y-99009000D01*
X75167142Y-99040242D01*
X75167142Y-99040242D01*
G37*
G36*
X99551142Y-99040242D02*
G01*
X99699101Y-99101529D01*
X99832255Y-99190499D01*
X99945501Y-99303745D01*
X100034471Y-99436899D01*
X100095758Y-99584858D01*
X100127000Y-99741925D01*
X100127000Y-99902075D01*
X100095758Y-100059142D01*
X100034471Y-100207101D01*
X99945501Y-100340255D01*
X99832255Y-100453501D01*
X99699101Y-100542471D01*
X99551142Y-100603758D01*
X99394075Y-100635000D01*
X99233925Y-100635000D01*
X99076858Y-100603758D01*
X98928899Y-100542471D01*
X98795745Y-100453501D01*
X98682499Y-100340255D01*
X98593529Y-100207101D01*
X98532242Y-100059142D01*
X98501000Y-99902075D01*
X98501000Y-99741925D01*
X98532242Y-99584858D01*
X98593529Y-99436899D01*
X98682499Y-99303745D01*
X98795745Y-99190499D01*
X98928899Y-99101529D01*
X99076858Y-99040242D01*
X99233925Y-99009000D01*
X99394075Y-99009000D01*
X99551142Y-99040242D01*
X99551142Y-99040242D01*
G37*
G36*
X101837142Y-99040242D02*
G01*
X101985101Y-99101529D01*
X102118255Y-99190499D01*
X102231501Y-99303745D01*
X102320471Y-99436899D01*
X102381758Y-99584858D01*
X102413000Y-99741925D01*
X102413000Y-99902075D01*
X102381758Y-100059142D01*
X102320471Y-100207101D01*
X102231501Y-100340255D01*
X102118255Y-100453501D01*
X101985101Y-100542471D01*
X101837142Y-100603758D01*
X101680075Y-100635000D01*
X101519925Y-100635000D01*
X101362858Y-100603758D01*
X101214899Y-100542471D01*
X101081745Y-100453501D01*
X100968499Y-100340255D01*
X100879529Y-100207101D01*
X100818242Y-100059142D01*
X100787000Y-99902075D01*
X100787000Y-99741925D01*
X100818242Y-99584858D01*
X100879529Y-99436899D01*
X100968499Y-99303745D01*
X101081745Y-99190499D01*
X101214899Y-99101529D01*
X101362858Y-99040242D01*
X101519925Y-99009000D01*
X101680075Y-99009000D01*
X101837142Y-99040242D01*
X101837142Y-99040242D01*
G37*
G36*
X91550142Y-99040242D02*
G01*
X91698101Y-99101529D01*
X91831255Y-99190499D01*
X91944501Y-99303745D01*
X92033471Y-99436899D01*
X92094758Y-99584858D01*
X92126000Y-99741925D01*
X92126000Y-99902075D01*
X92094758Y-100059142D01*
X92033471Y-100207101D01*
X91944501Y-100340255D01*
X91831255Y-100453501D01*
X91698101Y-100542471D01*
X91550142Y-100603758D01*
X91393075Y-100635000D01*
X91232925Y-100635000D01*
X91075858Y-100603758D01*
X90927899Y-100542471D01*
X90794745Y-100453501D01*
X90681499Y-100340255D01*
X90592529Y-100207101D01*
X90531242Y-100059142D01*
X90500000Y-99902075D01*
X90500000Y-99741925D01*
X90531242Y-99584858D01*
X90592529Y-99436899D01*
X90681499Y-99303745D01*
X90794745Y-99190499D01*
X90927899Y-99101529D01*
X91075858Y-99040242D01*
X91232925Y-99009000D01*
X91393075Y-99009000D01*
X91550142Y-99040242D01*
X91550142Y-99040242D01*
G37*
G36*
X77453142Y-99040242D02*
G01*
X77601101Y-99101529D01*
X77734255Y-99190499D01*
X77847501Y-99303745D01*
X77936471Y-99436899D01*
X77997758Y-99584858D01*
X78029000Y-99741925D01*
X78029000Y-99902075D01*
X77997758Y-100059142D01*
X77936471Y-100207101D01*
X77847501Y-100340255D01*
X77734255Y-100453501D01*
X77601101Y-100542471D01*
X77453142Y-100603758D01*
X77296075Y-100635000D01*
X77135925Y-100635000D01*
X76978858Y-100603758D01*
X76830899Y-100542471D01*
X76697745Y-100453501D01*
X76584499Y-100340255D01*
X76495529Y-100207101D01*
X76434242Y-100059142D01*
X76403000Y-99902075D01*
X76403000Y-99741925D01*
X76434242Y-99584858D01*
X76495529Y-99436899D01*
X76584499Y-99303745D01*
X76697745Y-99190499D01*
X76830899Y-99101529D01*
X76978858Y-99040242D01*
X77135925Y-99009000D01*
X77296075Y-99009000D01*
X77453142Y-99040242D01*
X77453142Y-99040242D01*
G37*
G36*
X93836142Y-99040242D02*
G01*
X93984101Y-99101529D01*
X94117255Y-99190499D01*
X94230501Y-99303745D01*
X94319471Y-99436899D01*
X94380758Y-99584858D01*
X94412000Y-99741925D01*
X94412000Y-99902075D01*
X94380758Y-100059142D01*
X94319471Y-100207101D01*
X94230501Y-100340255D01*
X94117255Y-100453501D01*
X93984101Y-100542471D01*
X93836142Y-100603758D01*
X93679075Y-100635000D01*
X93518925Y-100635000D01*
X93361858Y-100603758D01*
X93213899Y-100542471D01*
X93080745Y-100453501D01*
X92967499Y-100340255D01*
X92878529Y-100207101D01*
X92817242Y-100059142D01*
X92786000Y-99902075D01*
X92786000Y-99741925D01*
X92817242Y-99584858D01*
X92878529Y-99436899D01*
X92967499Y-99303745D01*
X93080745Y-99190499D01*
X93213899Y-99101529D01*
X93361858Y-99040242D01*
X93518925Y-99009000D01*
X93679075Y-99009000D01*
X93836142Y-99040242D01*
X93836142Y-99040242D01*
G37*
G36*
X85835142Y-98913242D02*
G01*
X85983101Y-98974529D01*
X86116255Y-99063499D01*
X86229501Y-99176745D01*
X86318471Y-99309899D01*
X86379758Y-99457858D01*
X86411000Y-99614925D01*
X86411000Y-99775075D01*
X86379758Y-99932142D01*
X86318471Y-100080101D01*
X86229501Y-100213255D01*
X86116255Y-100326501D01*
X85983101Y-100415471D01*
X85835142Y-100476758D01*
X85678075Y-100508000D01*
X85517925Y-100508000D01*
X85360858Y-100476758D01*
X85212899Y-100415471D01*
X85079745Y-100326501D01*
X84966499Y-100213255D01*
X84877529Y-100080101D01*
X84816242Y-99932142D01*
X84785000Y-99775075D01*
X84785000Y-99614925D01*
X84816242Y-99457858D01*
X84877529Y-99309899D01*
X84966499Y-99176745D01*
X85079745Y-99063499D01*
X85212899Y-98974529D01*
X85360858Y-98913242D01*
X85517925Y-98882000D01*
X85678075Y-98882000D01*
X85835142Y-98913242D01*
X85835142Y-98913242D01*
G37*
G36*
X83549142Y-98913242D02*
G01*
X83697101Y-98974529D01*
X83830255Y-99063499D01*
X83943501Y-99176745D01*
X84032471Y-99309899D01*
X84093758Y-99457858D01*
X84125000Y-99614925D01*
X84125000Y-99775075D01*
X84093758Y-99932142D01*
X84032471Y-100080101D01*
X83943501Y-100213255D01*
X83830255Y-100326501D01*
X83697101Y-100415471D01*
X83549142Y-100476758D01*
X83392075Y-100508000D01*
X83231925Y-100508000D01*
X83074858Y-100476758D01*
X82926899Y-100415471D01*
X82793745Y-100326501D01*
X82680499Y-100213255D01*
X82591529Y-100080101D01*
X82530242Y-99932142D01*
X82499000Y-99775075D01*
X82499000Y-99614925D01*
X82530242Y-99457858D01*
X82591529Y-99309899D01*
X82680499Y-99176745D01*
X82793745Y-99063499D01*
X82926899Y-98974529D01*
X83074858Y-98913242D01*
X83231925Y-98882000D01*
X83392075Y-98882000D01*
X83549142Y-98913242D01*
X83549142Y-98913242D01*
G37*
G36*
X153097890Y-98942017D02*
G01*
X153216364Y-98991091D01*
X153322988Y-99062335D01*
X153413665Y-99153012D01*
X153429522Y-99176743D01*
X153484910Y-99259638D01*
X153533983Y-99378111D01*
X153535403Y-99385249D01*
X153542516Y-99408698D01*
X153554067Y-99430309D01*
X153569612Y-99449251D01*
X153588554Y-99464797D01*
X153610164Y-99476348D01*
X153633613Y-99483461D01*
X153657999Y-99485863D01*
X153682385Y-99483461D01*
X153705834Y-99476348D01*
X153727445Y-99464797D01*
X153746387Y-99449252D01*
X153761933Y-99430310D01*
X153773484Y-99408700D01*
X153780597Y-99385249D01*
X153782017Y-99378111D01*
X153831090Y-99259638D01*
X153886479Y-99176743D01*
X153902335Y-99153012D01*
X153993012Y-99062335D01*
X154099636Y-98991091D01*
X154218110Y-98942017D01*
X154343881Y-98917000D01*
X154472119Y-98917000D01*
X154597890Y-98942017D01*
X154716364Y-98991091D01*
X154822988Y-99062335D01*
X154913665Y-99153012D01*
X154929522Y-99176743D01*
X154984910Y-99259638D01*
X155033983Y-99378110D01*
X155059000Y-99503881D01*
X155059000Y-99632119D01*
X155044366Y-99705690D01*
X155033983Y-99757890D01*
X154984909Y-99876364D01*
X154913665Y-99982988D01*
X154822988Y-100073665D01*
X154716364Y-100144909D01*
X154716363Y-100144910D01*
X154716362Y-100144910D01*
X154597890Y-100193983D01*
X154472119Y-100219000D01*
X154343881Y-100219000D01*
X154218110Y-100193983D01*
X154099638Y-100144910D01*
X154099637Y-100144910D01*
X154099636Y-100144909D01*
X153993012Y-100073665D01*
X153902335Y-99982988D01*
X153831091Y-99876364D01*
X153782017Y-99757890D01*
X153780597Y-99750751D01*
X153773484Y-99727302D01*
X153761933Y-99705691D01*
X153746388Y-99686749D01*
X153727446Y-99671203D01*
X153705836Y-99659652D01*
X153682387Y-99652539D01*
X153658001Y-99650137D01*
X153633615Y-99652539D01*
X153610166Y-99659652D01*
X153588555Y-99671203D01*
X153569613Y-99686748D01*
X153554067Y-99705690D01*
X153542516Y-99727300D01*
X153535403Y-99750751D01*
X153533983Y-99757890D01*
X153484909Y-99876364D01*
X153413665Y-99982988D01*
X153322988Y-100073665D01*
X153216364Y-100144909D01*
X153216363Y-100144910D01*
X153216362Y-100144910D01*
X153097890Y-100193983D01*
X152972119Y-100219000D01*
X152843881Y-100219000D01*
X152718110Y-100193983D01*
X152599638Y-100144910D01*
X152599637Y-100144910D01*
X152599636Y-100144909D01*
X152493012Y-100073665D01*
X152402335Y-99982988D01*
X152331091Y-99876364D01*
X152282017Y-99757890D01*
X152271634Y-99705690D01*
X152257000Y-99632119D01*
X152257000Y-99503881D01*
X152282017Y-99378110D01*
X152331090Y-99259638D01*
X152386479Y-99176743D01*
X152402335Y-99153012D01*
X152493012Y-99062335D01*
X152599636Y-98991091D01*
X152718110Y-98942017D01*
X152843881Y-98917000D01*
X152972119Y-98917000D01*
X153097890Y-98942017D01*
X153097890Y-98942017D01*
G37*
G36*
X77659890Y-92592017D02*
G01*
X77778364Y-92641091D01*
X77856264Y-92693142D01*
X77884988Y-92712335D01*
X77975665Y-92803012D01*
X78046910Y-92909638D01*
X78061244Y-92944243D01*
X78095983Y-93028110D01*
X78121000Y-93153882D01*
X78121000Y-93282118D01*
X78095983Y-93407890D01*
X78046909Y-93526364D01*
X77975665Y-93632988D01*
X77884988Y-93723665D01*
X77778364Y-93794909D01*
X77659890Y-93843983D01*
X77652751Y-93845403D01*
X77629302Y-93852516D01*
X77607691Y-93864067D01*
X77588749Y-93879612D01*
X77573203Y-93898554D01*
X77561652Y-93920164D01*
X77554539Y-93943613D01*
X77552137Y-93967999D01*
X77554539Y-93992385D01*
X77561652Y-94015834D01*
X77573203Y-94037445D01*
X77588748Y-94056387D01*
X77607690Y-94071933D01*
X77629300Y-94083484D01*
X77652751Y-94090597D01*
X77659890Y-94092017D01*
X77778364Y-94141091D01*
X77884988Y-94212335D01*
X77975665Y-94303012D01*
X78046909Y-94409636D01*
X78095983Y-94528110D01*
X78121000Y-94653882D01*
X78121000Y-94782118D01*
X78095983Y-94907890D01*
X78046909Y-95026364D01*
X77975665Y-95132988D01*
X77884988Y-95223665D01*
X77778364Y-95294909D01*
X77778363Y-95294910D01*
X77778362Y-95294910D01*
X77659890Y-95343983D01*
X77534119Y-95369000D01*
X77405881Y-95369000D01*
X77280110Y-95343983D01*
X77161638Y-95294910D01*
X77161637Y-95294910D01*
X77161636Y-95294909D01*
X77055012Y-95223665D01*
X76964335Y-95132988D01*
X76893091Y-95026364D01*
X76844017Y-94907890D01*
X76819000Y-94782118D01*
X76819000Y-94653882D01*
X76844017Y-94528110D01*
X76893091Y-94409636D01*
X76964335Y-94303012D01*
X77055012Y-94212335D01*
X77161636Y-94141091D01*
X77280110Y-94092017D01*
X77287249Y-94090597D01*
X77310698Y-94083484D01*
X77332309Y-94071933D01*
X77351251Y-94056388D01*
X77366797Y-94037446D01*
X77378348Y-94015836D01*
X77385461Y-93992387D01*
X77387863Y-93968001D01*
X77385461Y-93943615D01*
X77378348Y-93920166D01*
X77366797Y-93898555D01*
X77351252Y-93879613D01*
X77332310Y-93864067D01*
X77310700Y-93852516D01*
X77287249Y-93845403D01*
X77280110Y-93843983D01*
X77161636Y-93794909D01*
X77055012Y-93723665D01*
X76964335Y-93632988D01*
X76893091Y-93526364D01*
X76844017Y-93407890D01*
X76819000Y-93282118D01*
X76819000Y-93153882D01*
X76844017Y-93028110D01*
X76878756Y-92944243D01*
X76893090Y-92909638D01*
X76964335Y-92803012D01*
X77055012Y-92712335D01*
X77083736Y-92693142D01*
X77161636Y-92641091D01*
X77280110Y-92592017D01*
X77405881Y-92567000D01*
X77534119Y-92567000D01*
X77659890Y-92592017D01*
X77659890Y-92592017D01*
G37*
G36*
X150303000Y-95319000D02*
G01*
X149101000Y-95319000D01*
X149101000Y-91117000D01*
X150303000Y-91117000D01*
X150303000Y-95319000D01*
X150303000Y-95319000D01*
G37*
G36*
X156253000Y-94819000D02*
G01*
X155151000Y-94819000D01*
X155151000Y-91617000D01*
X156253000Y-91617000D01*
X156253000Y-94819000D01*
X156253000Y-94819000D01*
G37*
G36*
X98027142Y-92944242D02*
G01*
X98175101Y-93005529D01*
X98308255Y-93094499D01*
X98421501Y-93207745D01*
X98510471Y-93340899D01*
X98571758Y-93488858D01*
X98603000Y-93645925D01*
X98603000Y-93806075D01*
X98571758Y-93963142D01*
X98510471Y-94111101D01*
X98421501Y-94244255D01*
X98308255Y-94357501D01*
X98175101Y-94446471D01*
X98027142Y-94507758D01*
X97870075Y-94539000D01*
X97709925Y-94539000D01*
X97552858Y-94507758D01*
X97404899Y-94446471D01*
X97271745Y-94357501D01*
X97158499Y-94244255D01*
X97069529Y-94111101D01*
X97008242Y-93963142D01*
X96977000Y-93806075D01*
X96977000Y-93645925D01*
X97008242Y-93488858D01*
X97069529Y-93340899D01*
X97158499Y-93207745D01*
X97271745Y-93094499D01*
X97404899Y-93005529D01*
X97552858Y-92944242D01*
X97709925Y-92913000D01*
X97870075Y-92913000D01*
X98027142Y-92944242D01*
X98027142Y-92944242D01*
G37*
G36*
X82787142Y-92944242D02*
G01*
X82935101Y-93005529D01*
X83068255Y-93094499D01*
X83181501Y-93207745D01*
X83270471Y-93340899D01*
X83331758Y-93488858D01*
X83363000Y-93645925D01*
X83363000Y-93806075D01*
X83331758Y-93963142D01*
X83270471Y-94111101D01*
X83181501Y-94244255D01*
X83068255Y-94357501D01*
X82935101Y-94446471D01*
X82787142Y-94507758D01*
X82630075Y-94539000D01*
X82469925Y-94539000D01*
X82312858Y-94507758D01*
X82164899Y-94446471D01*
X82031745Y-94357501D01*
X81918499Y-94244255D01*
X81829529Y-94111101D01*
X81768242Y-93963142D01*
X81737000Y-93806075D01*
X81737000Y-93645925D01*
X81768242Y-93488858D01*
X81829529Y-93340899D01*
X81918499Y-93207745D01*
X82031745Y-93094499D01*
X82164899Y-93005529D01*
X82312858Y-92944242D01*
X82469925Y-92913000D01*
X82630075Y-92913000D01*
X82787142Y-92944242D01*
X82787142Y-92944242D01*
G37*
G36*
X85327142Y-92944242D02*
G01*
X85475101Y-93005529D01*
X85608255Y-93094499D01*
X85721501Y-93207745D01*
X85810471Y-93340899D01*
X85871758Y-93488858D01*
X85903000Y-93645925D01*
X85903000Y-93806075D01*
X85871758Y-93963142D01*
X85810471Y-94111101D01*
X85721501Y-94244255D01*
X85608255Y-94357501D01*
X85475101Y-94446471D01*
X85327142Y-94507758D01*
X85170075Y-94539000D01*
X85009925Y-94539000D01*
X84852858Y-94507758D01*
X84704899Y-94446471D01*
X84571745Y-94357501D01*
X84458499Y-94244255D01*
X84369529Y-94111101D01*
X84308242Y-93963142D01*
X84277000Y-93806075D01*
X84277000Y-93645925D01*
X84308242Y-93488858D01*
X84369529Y-93340899D01*
X84458499Y-93207745D01*
X84571745Y-93094499D01*
X84704899Y-93005529D01*
X84852858Y-92944242D01*
X85009925Y-92913000D01*
X85170075Y-92913000D01*
X85327142Y-92944242D01*
X85327142Y-92944242D01*
G37*
G36*
X90407142Y-92944242D02*
G01*
X90555101Y-93005529D01*
X90688255Y-93094499D01*
X90801501Y-93207745D01*
X90890471Y-93340899D01*
X90951758Y-93488858D01*
X90983000Y-93645925D01*
X90983000Y-93806075D01*
X90951758Y-93963142D01*
X90890471Y-94111101D01*
X90801501Y-94244255D01*
X90688255Y-94357501D01*
X90555101Y-94446471D01*
X90407142Y-94507758D01*
X90250075Y-94539000D01*
X90089925Y-94539000D01*
X89932858Y-94507758D01*
X89784899Y-94446471D01*
X89651745Y-94357501D01*
X89538499Y-94244255D01*
X89449529Y-94111101D01*
X89388242Y-93963142D01*
X89357000Y-93806075D01*
X89357000Y-93645925D01*
X89388242Y-93488858D01*
X89449529Y-93340899D01*
X89538499Y-93207745D01*
X89651745Y-93094499D01*
X89784899Y-93005529D01*
X89932858Y-92944242D01*
X90089925Y-92913000D01*
X90250075Y-92913000D01*
X90407142Y-92944242D01*
X90407142Y-92944242D01*
G37*
G36*
X92947142Y-92944242D02*
G01*
X93095101Y-93005529D01*
X93228255Y-93094499D01*
X93341501Y-93207745D01*
X93430471Y-93340899D01*
X93491758Y-93488858D01*
X93523000Y-93645925D01*
X93523000Y-93806075D01*
X93491758Y-93963142D01*
X93430471Y-94111101D01*
X93341501Y-94244255D01*
X93228255Y-94357501D01*
X93095101Y-94446471D01*
X92947142Y-94507758D01*
X92790075Y-94539000D01*
X92629925Y-94539000D01*
X92472858Y-94507758D01*
X92324899Y-94446471D01*
X92191745Y-94357501D01*
X92078499Y-94244255D01*
X91989529Y-94111101D01*
X91928242Y-93963142D01*
X91897000Y-93806075D01*
X91897000Y-93645925D01*
X91928242Y-93488858D01*
X91989529Y-93340899D01*
X92078499Y-93207745D01*
X92191745Y-93094499D01*
X92324899Y-93005529D01*
X92472858Y-92944242D01*
X92629925Y-92913000D01*
X92790075Y-92913000D01*
X92947142Y-92944242D01*
X92947142Y-92944242D01*
G37*
G36*
X95487142Y-92944242D02*
G01*
X95635101Y-93005529D01*
X95768255Y-93094499D01*
X95881501Y-93207745D01*
X95970471Y-93340899D01*
X96031758Y-93488858D01*
X96063000Y-93645925D01*
X96063000Y-93806075D01*
X96031758Y-93963142D01*
X95970471Y-94111101D01*
X95881501Y-94244255D01*
X95768255Y-94357501D01*
X95635101Y-94446471D01*
X95487142Y-94507758D01*
X95330075Y-94539000D01*
X95169925Y-94539000D01*
X95012858Y-94507758D01*
X94864899Y-94446471D01*
X94731745Y-94357501D01*
X94618499Y-94244255D01*
X94529529Y-94111101D01*
X94468242Y-93963142D01*
X94437000Y-93806075D01*
X94437000Y-93645925D01*
X94468242Y-93488858D01*
X94529529Y-93340899D01*
X94618499Y-93207745D01*
X94731745Y-93094499D01*
X94864899Y-93005529D01*
X95012858Y-92944242D01*
X95169925Y-92913000D01*
X95330075Y-92913000D01*
X95487142Y-92944242D01*
X95487142Y-92944242D01*
G37*
G36*
X100567142Y-92944242D02*
G01*
X100715101Y-93005529D01*
X100848255Y-93094499D01*
X100961501Y-93207745D01*
X101050471Y-93340899D01*
X101111758Y-93488858D01*
X101143000Y-93645925D01*
X101143000Y-93806075D01*
X101111758Y-93963142D01*
X101050471Y-94111101D01*
X100961501Y-94244255D01*
X100848255Y-94357501D01*
X100715101Y-94446471D01*
X100567142Y-94507758D01*
X100410075Y-94539000D01*
X100249925Y-94539000D01*
X100092858Y-94507758D01*
X99944899Y-94446471D01*
X99811745Y-94357501D01*
X99698499Y-94244255D01*
X99609529Y-94111101D01*
X99548242Y-93963142D01*
X99517000Y-93806075D01*
X99517000Y-93645925D01*
X99548242Y-93488858D01*
X99609529Y-93340899D01*
X99698499Y-93207745D01*
X99811745Y-93094499D01*
X99944899Y-93005529D01*
X100092858Y-92944242D01*
X100249925Y-92913000D01*
X100410075Y-92913000D01*
X100567142Y-92944242D01*
X100567142Y-92944242D01*
G37*
G36*
X103107142Y-92944242D02*
G01*
X103255101Y-93005529D01*
X103388255Y-93094499D01*
X103501501Y-93207745D01*
X103590471Y-93340899D01*
X103651758Y-93488858D01*
X103683000Y-93645925D01*
X103683000Y-93806075D01*
X103651758Y-93963142D01*
X103590471Y-94111101D01*
X103501501Y-94244255D01*
X103388255Y-94357501D01*
X103255101Y-94446471D01*
X103107142Y-94507758D01*
X102950075Y-94539000D01*
X102789925Y-94539000D01*
X102632858Y-94507758D01*
X102484899Y-94446471D01*
X102351745Y-94357501D01*
X102238499Y-94244255D01*
X102149529Y-94111101D01*
X102088242Y-93963142D01*
X102057000Y-93806075D01*
X102057000Y-93645925D01*
X102088242Y-93488858D01*
X102149529Y-93340899D01*
X102238499Y-93207745D01*
X102351745Y-93094499D01*
X102484899Y-93005529D01*
X102632858Y-92944242D01*
X102789925Y-92913000D01*
X102950075Y-92913000D01*
X103107142Y-92944242D01*
X103107142Y-92944242D01*
G37*
G36*
X105647142Y-92944242D02*
G01*
X105795101Y-93005529D01*
X105928255Y-93094499D01*
X106041501Y-93207745D01*
X106130471Y-93340899D01*
X106191758Y-93488858D01*
X106223000Y-93645925D01*
X106223000Y-93806075D01*
X106191758Y-93963142D01*
X106130471Y-94111101D01*
X106041501Y-94244255D01*
X105928255Y-94357501D01*
X105795101Y-94446471D01*
X105647142Y-94507758D01*
X105490075Y-94539000D01*
X105329925Y-94539000D01*
X105172858Y-94507758D01*
X105024899Y-94446471D01*
X104891745Y-94357501D01*
X104778499Y-94244255D01*
X104689529Y-94111101D01*
X104628242Y-93963142D01*
X104597000Y-93806075D01*
X104597000Y-93645925D01*
X104628242Y-93488858D01*
X104689529Y-93340899D01*
X104778499Y-93207745D01*
X104891745Y-93094499D01*
X105024899Y-93005529D01*
X105172858Y-92944242D01*
X105329925Y-92913000D01*
X105490075Y-92913000D01*
X105647142Y-92944242D01*
X105647142Y-92944242D01*
G37*
G36*
X87867142Y-92944242D02*
G01*
X88015101Y-93005529D01*
X88148255Y-93094499D01*
X88261501Y-93207745D01*
X88350471Y-93340899D01*
X88411758Y-93488858D01*
X88443000Y-93645925D01*
X88443000Y-93806075D01*
X88411758Y-93963142D01*
X88350471Y-94111101D01*
X88261501Y-94244255D01*
X88148255Y-94357501D01*
X88015101Y-94446471D01*
X87867142Y-94507758D01*
X87710075Y-94539000D01*
X87549925Y-94539000D01*
X87392858Y-94507758D01*
X87244899Y-94446471D01*
X87111745Y-94357501D01*
X86998499Y-94244255D01*
X86909529Y-94111101D01*
X86848242Y-93963142D01*
X86817000Y-93806075D01*
X86817000Y-93645925D01*
X86848242Y-93488858D01*
X86909529Y-93340899D01*
X86998499Y-93207745D01*
X87111745Y-93094499D01*
X87244899Y-93005529D01*
X87392858Y-92944242D01*
X87549925Y-92913000D01*
X87710075Y-92913000D01*
X87867142Y-92944242D01*
X87867142Y-92944242D01*
G37*
G36*
X138667142Y-91674242D02*
G01*
X138815101Y-91735529D01*
X138948255Y-91824499D01*
X139061501Y-91937745D01*
X139150471Y-92070899D01*
X139211758Y-92218858D01*
X139243000Y-92375925D01*
X139243000Y-92536075D01*
X139211758Y-92693142D01*
X139150471Y-92841101D01*
X139061501Y-92974255D01*
X138948255Y-93087501D01*
X138815101Y-93176471D01*
X138667142Y-93237758D01*
X138510075Y-93269000D01*
X138349925Y-93269000D01*
X138192858Y-93237758D01*
X138044899Y-93176471D01*
X137911745Y-93087501D01*
X137798499Y-92974255D01*
X137709529Y-92841101D01*
X137648242Y-92693142D01*
X137617000Y-92536075D01*
X137617000Y-92375925D01*
X137648242Y-92218858D01*
X137709529Y-92070899D01*
X137798499Y-91937745D01*
X137911745Y-91824499D01*
X138044899Y-91735529D01*
X138192858Y-91674242D01*
X138349925Y-91643000D01*
X138510075Y-91643000D01*
X138667142Y-91674242D01*
X138667142Y-91674242D01*
G37*
G36*
X113267142Y-91674242D02*
G01*
X113415101Y-91735529D01*
X113548255Y-91824499D01*
X113661501Y-91937745D01*
X113750471Y-92070899D01*
X113811758Y-92218858D01*
X113843000Y-92375925D01*
X113843000Y-92536075D01*
X113811758Y-92693142D01*
X113750471Y-92841101D01*
X113661501Y-92974255D01*
X113548255Y-93087501D01*
X113415101Y-93176471D01*
X113267142Y-93237758D01*
X113110075Y-93269000D01*
X112949925Y-93269000D01*
X112792858Y-93237758D01*
X112644899Y-93176471D01*
X112511745Y-93087501D01*
X112398499Y-92974255D01*
X112309529Y-92841101D01*
X112248242Y-92693142D01*
X112217000Y-92536075D01*
X112217000Y-92375925D01*
X112248242Y-92218858D01*
X112309529Y-92070899D01*
X112398499Y-91937745D01*
X112511745Y-91824499D01*
X112644899Y-91735529D01*
X112792858Y-91674242D01*
X112949925Y-91643000D01*
X113110075Y-91643000D01*
X113267142Y-91674242D01*
X113267142Y-91674242D01*
G37*
G36*
X136127142Y-91674242D02*
G01*
X136275101Y-91735529D01*
X136408255Y-91824499D01*
X136521501Y-91937745D01*
X136610471Y-92070899D01*
X136671758Y-92218858D01*
X136703000Y-92375925D01*
X136703000Y-92536075D01*
X136671758Y-92693142D01*
X136610471Y-92841101D01*
X136521501Y-92974255D01*
X136408255Y-93087501D01*
X136275101Y-93176471D01*
X136127142Y-93237758D01*
X135970075Y-93269000D01*
X135809925Y-93269000D01*
X135652858Y-93237758D01*
X135504899Y-93176471D01*
X135371745Y-93087501D01*
X135258499Y-92974255D01*
X135169529Y-92841101D01*
X135108242Y-92693142D01*
X135077000Y-92536075D01*
X135077000Y-92375925D01*
X135108242Y-92218858D01*
X135169529Y-92070899D01*
X135258499Y-91937745D01*
X135371745Y-91824499D01*
X135504899Y-91735529D01*
X135652858Y-91674242D01*
X135809925Y-91643000D01*
X135970075Y-91643000D01*
X136127142Y-91674242D01*
X136127142Y-91674242D01*
G37*
G36*
X115807142Y-91674242D02*
G01*
X115955101Y-91735529D01*
X116088255Y-91824499D01*
X116201501Y-91937745D01*
X116290471Y-92070899D01*
X116351758Y-92218858D01*
X116383000Y-92375925D01*
X116383000Y-92536075D01*
X116351758Y-92693142D01*
X116290471Y-92841101D01*
X116201501Y-92974255D01*
X116088255Y-93087501D01*
X115955101Y-93176471D01*
X115807142Y-93237758D01*
X115650075Y-93269000D01*
X115489925Y-93269000D01*
X115332858Y-93237758D01*
X115184899Y-93176471D01*
X115051745Y-93087501D01*
X114938499Y-92974255D01*
X114849529Y-92841101D01*
X114788242Y-92693142D01*
X114757000Y-92536075D01*
X114757000Y-92375925D01*
X114788242Y-92218858D01*
X114849529Y-92070899D01*
X114938499Y-91937745D01*
X115051745Y-91824499D01*
X115184899Y-91735529D01*
X115332858Y-91674242D01*
X115489925Y-91643000D01*
X115650075Y-91643000D01*
X115807142Y-91674242D01*
X115807142Y-91674242D01*
G37*
G36*
X118347142Y-91674242D02*
G01*
X118495101Y-91735529D01*
X118628255Y-91824499D01*
X118741501Y-91937745D01*
X118830471Y-92070899D01*
X118891758Y-92218858D01*
X118923000Y-92375925D01*
X118923000Y-92536075D01*
X118891758Y-92693142D01*
X118830471Y-92841101D01*
X118741501Y-92974255D01*
X118628255Y-93087501D01*
X118495101Y-93176471D01*
X118347142Y-93237758D01*
X118190075Y-93269000D01*
X118029925Y-93269000D01*
X117872858Y-93237758D01*
X117724899Y-93176471D01*
X117591745Y-93087501D01*
X117478499Y-92974255D01*
X117389529Y-92841101D01*
X117328242Y-92693142D01*
X117297000Y-92536075D01*
X117297000Y-92375925D01*
X117328242Y-92218858D01*
X117389529Y-92070899D01*
X117478499Y-91937745D01*
X117591745Y-91824499D01*
X117724899Y-91735529D01*
X117872858Y-91674242D01*
X118029925Y-91643000D01*
X118190075Y-91643000D01*
X118347142Y-91674242D01*
X118347142Y-91674242D01*
G37*
G36*
X123427142Y-91674242D02*
G01*
X123575101Y-91735529D01*
X123708255Y-91824499D01*
X123821501Y-91937745D01*
X123910471Y-92070899D01*
X123971758Y-92218858D01*
X124003000Y-92375925D01*
X124003000Y-92536075D01*
X123971758Y-92693142D01*
X123910471Y-92841101D01*
X123821501Y-92974255D01*
X123708255Y-93087501D01*
X123575101Y-93176471D01*
X123427142Y-93237758D01*
X123270075Y-93269000D01*
X123109925Y-93269000D01*
X122952858Y-93237758D01*
X122804899Y-93176471D01*
X122671745Y-93087501D01*
X122558499Y-92974255D01*
X122469529Y-92841101D01*
X122408242Y-92693142D01*
X122377000Y-92536075D01*
X122377000Y-92375925D01*
X122408242Y-92218858D01*
X122469529Y-92070899D01*
X122558499Y-91937745D01*
X122671745Y-91824499D01*
X122804899Y-91735529D01*
X122952858Y-91674242D01*
X123109925Y-91643000D01*
X123270075Y-91643000D01*
X123427142Y-91674242D01*
X123427142Y-91674242D01*
G37*
G36*
X128507142Y-91674242D02*
G01*
X128655101Y-91735529D01*
X128788255Y-91824499D01*
X128901501Y-91937745D01*
X128990471Y-92070899D01*
X129051758Y-92218858D01*
X129083000Y-92375925D01*
X129083000Y-92536075D01*
X129051758Y-92693142D01*
X128990471Y-92841101D01*
X128901501Y-92974255D01*
X128788255Y-93087501D01*
X128655101Y-93176471D01*
X128507142Y-93237758D01*
X128350075Y-93269000D01*
X128189925Y-93269000D01*
X128032858Y-93237758D01*
X127884899Y-93176471D01*
X127751745Y-93087501D01*
X127638499Y-92974255D01*
X127549529Y-92841101D01*
X127488242Y-92693142D01*
X127457000Y-92536075D01*
X127457000Y-92375925D01*
X127488242Y-92218858D01*
X127549529Y-92070899D01*
X127638499Y-91937745D01*
X127751745Y-91824499D01*
X127884899Y-91735529D01*
X128032858Y-91674242D01*
X128189925Y-91643000D01*
X128350075Y-91643000D01*
X128507142Y-91674242D01*
X128507142Y-91674242D01*
G37*
G36*
X125967142Y-91674242D02*
G01*
X126115101Y-91735529D01*
X126248255Y-91824499D01*
X126361501Y-91937745D01*
X126450471Y-92070899D01*
X126511758Y-92218858D01*
X126543000Y-92375925D01*
X126543000Y-92536075D01*
X126511758Y-92693142D01*
X126450471Y-92841101D01*
X126361501Y-92974255D01*
X126248255Y-93087501D01*
X126115101Y-93176471D01*
X125967142Y-93237758D01*
X125810075Y-93269000D01*
X125649925Y-93269000D01*
X125492858Y-93237758D01*
X125344899Y-93176471D01*
X125211745Y-93087501D01*
X125098499Y-92974255D01*
X125009529Y-92841101D01*
X124948242Y-92693142D01*
X124917000Y-92536075D01*
X124917000Y-92375925D01*
X124948242Y-92218858D01*
X125009529Y-92070899D01*
X125098499Y-91937745D01*
X125211745Y-91824499D01*
X125344899Y-91735529D01*
X125492858Y-91674242D01*
X125649925Y-91643000D01*
X125810075Y-91643000D01*
X125967142Y-91674242D01*
X125967142Y-91674242D01*
G37*
G36*
X110727142Y-91674242D02*
G01*
X110875101Y-91735529D01*
X111008255Y-91824499D01*
X111121501Y-91937745D01*
X111210471Y-92070899D01*
X111271758Y-92218858D01*
X111303000Y-92375925D01*
X111303000Y-92536075D01*
X111271758Y-92693142D01*
X111210471Y-92841101D01*
X111121501Y-92974255D01*
X111008255Y-93087501D01*
X110875101Y-93176471D01*
X110727142Y-93237758D01*
X110570075Y-93269000D01*
X110409925Y-93269000D01*
X110252858Y-93237758D01*
X110104899Y-93176471D01*
X109971745Y-93087501D01*
X109858499Y-92974255D01*
X109769529Y-92841101D01*
X109708242Y-92693142D01*
X109677000Y-92536075D01*
X109677000Y-92375925D01*
X109708242Y-92218858D01*
X109769529Y-92070899D01*
X109858499Y-91937745D01*
X109971745Y-91824499D01*
X110104899Y-91735529D01*
X110252858Y-91674242D01*
X110409925Y-91643000D01*
X110570075Y-91643000D01*
X110727142Y-91674242D01*
X110727142Y-91674242D01*
G37*
G36*
X120887142Y-91674242D02*
G01*
X121035101Y-91735529D01*
X121168255Y-91824499D01*
X121281501Y-91937745D01*
X121370471Y-92070899D01*
X121431758Y-92218858D01*
X121463000Y-92375925D01*
X121463000Y-92536075D01*
X121431758Y-92693142D01*
X121370471Y-92841101D01*
X121281501Y-92974255D01*
X121168255Y-93087501D01*
X121035101Y-93176471D01*
X120887142Y-93237758D01*
X120730075Y-93269000D01*
X120569925Y-93269000D01*
X120412858Y-93237758D01*
X120264899Y-93176471D01*
X120131745Y-93087501D01*
X120018499Y-92974255D01*
X119929529Y-92841101D01*
X119868242Y-92693142D01*
X119837000Y-92536075D01*
X119837000Y-92375925D01*
X119868242Y-92218858D01*
X119929529Y-92070899D01*
X120018499Y-91937745D01*
X120131745Y-91824499D01*
X120264899Y-91735529D01*
X120412858Y-91674242D01*
X120569925Y-91643000D01*
X120730075Y-91643000D01*
X120887142Y-91674242D01*
X120887142Y-91674242D01*
G37*
G36*
X131047142Y-91674242D02*
G01*
X131195101Y-91735529D01*
X131328255Y-91824499D01*
X131441501Y-91937745D01*
X131530471Y-92070899D01*
X131591758Y-92218858D01*
X131623000Y-92375925D01*
X131623000Y-92536075D01*
X131591758Y-92693142D01*
X131530471Y-92841101D01*
X131441501Y-92974255D01*
X131328255Y-93087501D01*
X131195101Y-93176471D01*
X131047142Y-93237758D01*
X130890075Y-93269000D01*
X130729925Y-93269000D01*
X130572858Y-93237758D01*
X130424899Y-93176471D01*
X130291745Y-93087501D01*
X130178499Y-92974255D01*
X130089529Y-92841101D01*
X130028242Y-92693142D01*
X129997000Y-92536075D01*
X129997000Y-92375925D01*
X130028242Y-92218858D01*
X130089529Y-92070899D01*
X130178499Y-91937745D01*
X130291745Y-91824499D01*
X130424899Y-91735529D01*
X130572858Y-91674242D01*
X130729925Y-91643000D01*
X130890075Y-91643000D01*
X131047142Y-91674242D01*
X131047142Y-91674242D01*
G37*
G36*
X133587142Y-91674242D02*
G01*
X133735101Y-91735529D01*
X133868255Y-91824499D01*
X133981501Y-91937745D01*
X134070471Y-92070899D01*
X134131758Y-92218858D01*
X134163000Y-92375925D01*
X134163000Y-92536075D01*
X134131758Y-92693142D01*
X134070471Y-92841101D01*
X133981501Y-92974255D01*
X133868255Y-93087501D01*
X133735101Y-93176471D01*
X133587142Y-93237758D01*
X133430075Y-93269000D01*
X133269925Y-93269000D01*
X133112858Y-93237758D01*
X132964899Y-93176471D01*
X132831745Y-93087501D01*
X132718499Y-92974255D01*
X132629529Y-92841101D01*
X132568242Y-92693142D01*
X132537000Y-92536075D01*
X132537000Y-92375925D01*
X132568242Y-92218858D01*
X132629529Y-92070899D01*
X132718499Y-91937745D01*
X132831745Y-91824499D01*
X132964899Y-91735529D01*
X133112858Y-91674242D01*
X133269925Y-91643000D01*
X133430075Y-91643000D01*
X133587142Y-91674242D01*
X133587142Y-91674242D01*
G37*
G36*
X155838254Y-83377818D02*
G01*
X156211511Y-83532426D01*
X156211513Y-83532427D01*
X156547436Y-83756884D01*
X156833116Y-84042564D01*
X157057574Y-84378489D01*
X157212182Y-84751746D01*
X157291000Y-85147993D01*
X157291000Y-85552007D01*
X157212182Y-85948254D01*
X157074799Y-86279925D01*
X157057573Y-86321513D01*
X156833116Y-86657436D01*
X156547436Y-86943116D01*
X156211513Y-87167573D01*
X156211512Y-87167574D01*
X156211511Y-87167574D01*
X155838254Y-87322182D01*
X155442007Y-87401000D01*
X155037993Y-87401000D01*
X154641746Y-87322182D01*
X154268489Y-87167574D01*
X154268488Y-87167574D01*
X154268487Y-87167573D01*
X153932564Y-86943116D01*
X153646884Y-86657436D01*
X153422427Y-86321513D01*
X153405201Y-86279925D01*
X153267818Y-85948254D01*
X153189000Y-85552007D01*
X153189000Y-85147993D01*
X153267818Y-84751746D01*
X153422426Y-84378489D01*
X153646884Y-84042564D01*
X153932564Y-83756884D01*
X154268487Y-83532427D01*
X154268489Y-83532426D01*
X154641746Y-83377818D01*
X155037993Y-83299000D01*
X155442007Y-83299000D01*
X155838254Y-83377818D01*
X155838254Y-83377818D01*
G37*
G36*
X147838254Y-83377818D02*
G01*
X148211511Y-83532426D01*
X148211513Y-83532427D01*
X148547436Y-83756884D01*
X148833116Y-84042564D01*
X149057574Y-84378489D01*
X149212182Y-84751746D01*
X149291000Y-85147993D01*
X149291000Y-85552007D01*
X149212182Y-85948254D01*
X149074799Y-86279925D01*
X149057573Y-86321513D01*
X148833116Y-86657436D01*
X148547436Y-86943116D01*
X148211513Y-87167573D01*
X148211512Y-87167574D01*
X148211511Y-87167574D01*
X147838254Y-87322182D01*
X147442007Y-87401000D01*
X147037993Y-87401000D01*
X146641746Y-87322182D01*
X146268489Y-87167574D01*
X146268488Y-87167574D01*
X146268487Y-87167573D01*
X145932564Y-86943116D01*
X145646884Y-86657436D01*
X145422427Y-86321513D01*
X145405201Y-86279925D01*
X145267818Y-85948254D01*
X145189000Y-85552007D01*
X145189000Y-85147993D01*
X145267818Y-84751746D01*
X145422426Y-84378489D01*
X145646884Y-84042564D01*
X145932564Y-83756884D01*
X146268487Y-83532427D01*
X146268489Y-83532426D01*
X146641746Y-83377818D01*
X147037993Y-83299000D01*
X147442007Y-83299000D01*
X147838254Y-83377818D01*
X147838254Y-83377818D01*
G37*
G36*
X107552142Y-85578242D02*
G01*
X107700101Y-85639529D01*
X107833255Y-85728499D01*
X107946501Y-85841745D01*
X108035471Y-85974899D01*
X108096758Y-86122858D01*
X108128000Y-86279925D01*
X108128000Y-86440075D01*
X108096758Y-86597142D01*
X108035471Y-86745101D01*
X107946501Y-86878255D01*
X107833255Y-86991501D01*
X107700101Y-87080471D01*
X107552142Y-87141758D01*
X107395075Y-87173000D01*
X107234925Y-87173000D01*
X107077858Y-87141758D01*
X106929899Y-87080471D01*
X106796745Y-86991501D01*
X106683499Y-86878255D01*
X106594529Y-86745101D01*
X106533242Y-86597142D01*
X106502000Y-86440075D01*
X106502000Y-86279925D01*
X106533242Y-86122858D01*
X106594529Y-85974899D01*
X106683499Y-85841745D01*
X106796745Y-85728499D01*
X106929899Y-85639529D01*
X107077858Y-85578242D01*
X107234925Y-85547000D01*
X107395075Y-85547000D01*
X107552142Y-85578242D01*
X107552142Y-85578242D01*
G37*
G36*
X105012142Y-85578242D02*
G01*
X105160101Y-85639529D01*
X105293255Y-85728499D01*
X105406501Y-85841745D01*
X105495471Y-85974899D01*
X105556758Y-86122858D01*
X105588000Y-86279925D01*
X105588000Y-86440075D01*
X105556758Y-86597142D01*
X105495471Y-86745101D01*
X105406501Y-86878255D01*
X105293255Y-86991501D01*
X105160101Y-87080471D01*
X105012142Y-87141758D01*
X104855075Y-87173000D01*
X104694925Y-87173000D01*
X104537858Y-87141758D01*
X104389899Y-87080471D01*
X104256745Y-86991501D01*
X104143499Y-86878255D01*
X104054529Y-86745101D01*
X103993242Y-86597142D01*
X103962000Y-86440075D01*
X103962000Y-86279925D01*
X103993242Y-86122858D01*
X104054529Y-85974899D01*
X104143499Y-85841745D01*
X104256745Y-85728499D01*
X104389899Y-85639529D01*
X104537858Y-85578242D01*
X104694925Y-85547000D01*
X104855075Y-85547000D01*
X105012142Y-85578242D01*
X105012142Y-85578242D01*
G37*
G36*
X102472142Y-85578242D02*
G01*
X102620101Y-85639529D01*
X102753255Y-85728499D01*
X102866501Y-85841745D01*
X102955471Y-85974899D01*
X103016758Y-86122858D01*
X103048000Y-86279925D01*
X103048000Y-86440075D01*
X103016758Y-86597142D01*
X102955471Y-86745101D01*
X102866501Y-86878255D01*
X102753255Y-86991501D01*
X102620101Y-87080471D01*
X102472142Y-87141758D01*
X102315075Y-87173000D01*
X102154925Y-87173000D01*
X101997858Y-87141758D01*
X101849899Y-87080471D01*
X101716745Y-86991501D01*
X101603499Y-86878255D01*
X101514529Y-86745101D01*
X101453242Y-86597142D01*
X101422000Y-86440075D01*
X101422000Y-86279925D01*
X101453242Y-86122858D01*
X101514529Y-85974899D01*
X101603499Y-85841745D01*
X101716745Y-85728499D01*
X101849899Y-85639529D01*
X101997858Y-85578242D01*
X102154925Y-85547000D01*
X102315075Y-85547000D01*
X102472142Y-85578242D01*
X102472142Y-85578242D01*
G37*
G36*
X99932142Y-85578242D02*
G01*
X100080101Y-85639529D01*
X100213255Y-85728499D01*
X100326501Y-85841745D01*
X100415471Y-85974899D01*
X100476758Y-86122858D01*
X100508000Y-86279925D01*
X100508000Y-86440075D01*
X100476758Y-86597142D01*
X100415471Y-86745101D01*
X100326501Y-86878255D01*
X100213255Y-86991501D01*
X100080101Y-87080471D01*
X99932142Y-87141758D01*
X99775075Y-87173000D01*
X99614925Y-87173000D01*
X99457858Y-87141758D01*
X99309899Y-87080471D01*
X99176745Y-86991501D01*
X99063499Y-86878255D01*
X98974529Y-86745101D01*
X98913242Y-86597142D01*
X98882000Y-86440075D01*
X98882000Y-86279925D01*
X98913242Y-86122858D01*
X98974529Y-85974899D01*
X99063499Y-85841745D01*
X99176745Y-85728499D01*
X99309899Y-85639529D01*
X99457858Y-85578242D01*
X99614925Y-85547000D01*
X99775075Y-85547000D01*
X99932142Y-85578242D01*
X99932142Y-85578242D01*
G37*
G36*
X97392142Y-85578242D02*
G01*
X97540101Y-85639529D01*
X97673255Y-85728499D01*
X97786501Y-85841745D01*
X97875471Y-85974899D01*
X97936758Y-86122858D01*
X97968000Y-86279925D01*
X97968000Y-86440075D01*
X97936758Y-86597142D01*
X97875471Y-86745101D01*
X97786501Y-86878255D01*
X97673255Y-86991501D01*
X97540101Y-87080471D01*
X97392142Y-87141758D01*
X97235075Y-87173000D01*
X97074925Y-87173000D01*
X96917858Y-87141758D01*
X96769899Y-87080471D01*
X96636745Y-86991501D01*
X96523499Y-86878255D01*
X96434529Y-86745101D01*
X96373242Y-86597142D01*
X96342000Y-86440075D01*
X96342000Y-86279925D01*
X96373242Y-86122858D01*
X96434529Y-85974899D01*
X96523499Y-85841745D01*
X96636745Y-85728499D01*
X96769899Y-85639529D01*
X96917858Y-85578242D01*
X97074925Y-85547000D01*
X97235075Y-85547000D01*
X97392142Y-85578242D01*
X97392142Y-85578242D01*
G37*
G36*
X94852142Y-85578242D02*
G01*
X95000101Y-85639529D01*
X95133255Y-85728499D01*
X95246501Y-85841745D01*
X95335471Y-85974899D01*
X95396758Y-86122858D01*
X95428000Y-86279925D01*
X95428000Y-86440075D01*
X95396758Y-86597142D01*
X95335471Y-86745101D01*
X95246501Y-86878255D01*
X95133255Y-86991501D01*
X95000101Y-87080471D01*
X94852142Y-87141758D01*
X94695075Y-87173000D01*
X94534925Y-87173000D01*
X94377858Y-87141758D01*
X94229899Y-87080471D01*
X94096745Y-86991501D01*
X93983499Y-86878255D01*
X93894529Y-86745101D01*
X93833242Y-86597142D01*
X93802000Y-86440075D01*
X93802000Y-86279925D01*
X93833242Y-86122858D01*
X93894529Y-85974899D01*
X93983499Y-85841745D01*
X94096745Y-85728499D01*
X94229899Y-85639529D01*
X94377858Y-85578242D01*
X94534925Y-85547000D01*
X94695075Y-85547000D01*
X94852142Y-85578242D01*
X94852142Y-85578242D01*
G37*
G36*
X92312142Y-85578242D02*
G01*
X92460101Y-85639529D01*
X92593255Y-85728499D01*
X92706501Y-85841745D01*
X92795471Y-85974899D01*
X92856758Y-86122858D01*
X92888000Y-86279925D01*
X92888000Y-86440075D01*
X92856758Y-86597142D01*
X92795471Y-86745101D01*
X92706501Y-86878255D01*
X92593255Y-86991501D01*
X92460101Y-87080471D01*
X92312142Y-87141758D01*
X92155075Y-87173000D01*
X91994925Y-87173000D01*
X91837858Y-87141758D01*
X91689899Y-87080471D01*
X91556745Y-86991501D01*
X91443499Y-86878255D01*
X91354529Y-86745101D01*
X91293242Y-86597142D01*
X91262000Y-86440075D01*
X91262000Y-86279925D01*
X91293242Y-86122858D01*
X91354529Y-85974899D01*
X91443499Y-85841745D01*
X91556745Y-85728499D01*
X91689899Y-85639529D01*
X91837858Y-85578242D01*
X91994925Y-85547000D01*
X92155075Y-85547000D01*
X92312142Y-85578242D01*
X92312142Y-85578242D01*
G37*
G36*
X89772142Y-85578242D02*
G01*
X89920101Y-85639529D01*
X90053255Y-85728499D01*
X90166501Y-85841745D01*
X90255471Y-85974899D01*
X90316758Y-86122858D01*
X90348000Y-86279925D01*
X90348000Y-86440075D01*
X90316758Y-86597142D01*
X90255471Y-86745101D01*
X90166501Y-86878255D01*
X90053255Y-86991501D01*
X89920101Y-87080471D01*
X89772142Y-87141758D01*
X89615075Y-87173000D01*
X89454925Y-87173000D01*
X89297858Y-87141758D01*
X89149899Y-87080471D01*
X89016745Y-86991501D01*
X88903499Y-86878255D01*
X88814529Y-86745101D01*
X88753242Y-86597142D01*
X88722000Y-86440075D01*
X88722000Y-86279925D01*
X88753242Y-86122858D01*
X88814529Y-85974899D01*
X88903499Y-85841745D01*
X89016745Y-85728499D01*
X89149899Y-85639529D01*
X89297858Y-85578242D01*
X89454925Y-85547000D01*
X89615075Y-85547000D01*
X89772142Y-85578242D01*
X89772142Y-85578242D01*
G37*
G36*
X87232142Y-85578242D02*
G01*
X87380101Y-85639529D01*
X87513255Y-85728499D01*
X87626501Y-85841745D01*
X87715471Y-85974899D01*
X87776758Y-86122858D01*
X87808000Y-86279925D01*
X87808000Y-86440075D01*
X87776758Y-86597142D01*
X87715471Y-86745101D01*
X87626501Y-86878255D01*
X87513255Y-86991501D01*
X87380101Y-87080471D01*
X87232142Y-87141758D01*
X87075075Y-87173000D01*
X86914925Y-87173000D01*
X86757858Y-87141758D01*
X86609899Y-87080471D01*
X86476745Y-86991501D01*
X86363499Y-86878255D01*
X86274529Y-86745101D01*
X86213242Y-86597142D01*
X86182000Y-86440075D01*
X86182000Y-86279925D01*
X86213242Y-86122858D01*
X86274529Y-85974899D01*
X86363499Y-85841745D01*
X86476745Y-85728499D01*
X86609899Y-85639529D01*
X86757858Y-85578242D01*
X86914925Y-85547000D01*
X87075075Y-85547000D01*
X87232142Y-85578242D01*
X87232142Y-85578242D01*
G37*
G36*
X84692142Y-85578242D02*
G01*
X84840101Y-85639529D01*
X84973255Y-85728499D01*
X85086501Y-85841745D01*
X85175471Y-85974899D01*
X85236758Y-86122858D01*
X85268000Y-86279925D01*
X85268000Y-86440075D01*
X85236758Y-86597142D01*
X85175471Y-86745101D01*
X85086501Y-86878255D01*
X84973255Y-86991501D01*
X84840101Y-87080471D01*
X84692142Y-87141758D01*
X84535075Y-87173000D01*
X84374925Y-87173000D01*
X84217858Y-87141758D01*
X84069899Y-87080471D01*
X83936745Y-86991501D01*
X83823499Y-86878255D01*
X83734529Y-86745101D01*
X83673242Y-86597142D01*
X83642000Y-86440075D01*
X83642000Y-86279925D01*
X83673242Y-86122858D01*
X83734529Y-85974899D01*
X83823499Y-85841745D01*
X83936745Y-85728499D01*
X84069899Y-85639529D01*
X84217858Y-85578242D01*
X84374925Y-85547000D01*
X84535075Y-85547000D01*
X84692142Y-85578242D01*
X84692142Y-85578242D01*
G37*
G36*
X82152142Y-85578242D02*
G01*
X82300101Y-85639529D01*
X82433255Y-85728499D01*
X82546501Y-85841745D01*
X82635471Y-85974899D01*
X82696758Y-86122858D01*
X82728000Y-86279925D01*
X82728000Y-86440075D01*
X82696758Y-86597142D01*
X82635471Y-86745101D01*
X82546501Y-86878255D01*
X82433255Y-86991501D01*
X82300101Y-87080471D01*
X82152142Y-87141758D01*
X81995075Y-87173000D01*
X81834925Y-87173000D01*
X81677858Y-87141758D01*
X81529899Y-87080471D01*
X81396745Y-86991501D01*
X81283499Y-86878255D01*
X81194529Y-86745101D01*
X81133242Y-86597142D01*
X81102000Y-86440075D01*
X81102000Y-86279925D01*
X81133242Y-86122858D01*
X81194529Y-85974899D01*
X81283499Y-85841745D01*
X81396745Y-85728499D01*
X81529899Y-85639529D01*
X81677858Y-85578242D01*
X81834925Y-85547000D01*
X81995075Y-85547000D01*
X82152142Y-85578242D01*
X82152142Y-85578242D01*
G37*
G36*
X77072142Y-85578242D02*
G01*
X77220101Y-85639529D01*
X77353255Y-85728499D01*
X77466501Y-85841745D01*
X77555471Y-85974899D01*
X77616758Y-86122858D01*
X77648000Y-86279925D01*
X77648000Y-86440075D01*
X77616758Y-86597142D01*
X77555471Y-86745101D01*
X77466501Y-86878255D01*
X77353255Y-86991501D01*
X77220101Y-87080471D01*
X77072142Y-87141758D01*
X76915075Y-87173000D01*
X76754925Y-87173000D01*
X76597858Y-87141758D01*
X76449899Y-87080471D01*
X76316745Y-86991501D01*
X76203499Y-86878255D01*
X76114529Y-86745101D01*
X76053242Y-86597142D01*
X76022000Y-86440075D01*
X76022000Y-86279925D01*
X76053242Y-86122858D01*
X76114529Y-85974899D01*
X76203499Y-85841745D01*
X76316745Y-85728499D01*
X76449899Y-85639529D01*
X76597858Y-85578242D01*
X76754925Y-85547000D01*
X76915075Y-85547000D01*
X77072142Y-85578242D01*
X77072142Y-85578242D01*
G37*
G36*
X79612142Y-85578242D02*
G01*
X79760101Y-85639529D01*
X79893255Y-85728499D01*
X80006501Y-85841745D01*
X80095471Y-85974899D01*
X80156758Y-86122858D01*
X80188000Y-86279925D01*
X80188000Y-86440075D01*
X80156758Y-86597142D01*
X80095471Y-86745101D01*
X80006501Y-86878255D01*
X79893255Y-86991501D01*
X79760101Y-87080471D01*
X79612142Y-87141758D01*
X79455075Y-87173000D01*
X79294925Y-87173000D01*
X79137858Y-87141758D01*
X78989899Y-87080471D01*
X78856745Y-86991501D01*
X78743499Y-86878255D01*
X78654529Y-86745101D01*
X78593242Y-86597142D01*
X78562000Y-86440075D01*
X78562000Y-86279925D01*
X78593242Y-86122858D01*
X78654529Y-85974899D01*
X78743499Y-85841745D01*
X78856745Y-85728499D01*
X78989899Y-85639529D01*
X79137858Y-85578242D01*
X79294925Y-85547000D01*
X79455075Y-85547000D01*
X79612142Y-85578242D01*
X79612142Y-85578242D01*
G37*
G36*
X135492142Y-85578242D02*
G01*
X135640101Y-85639529D01*
X135773255Y-85728499D01*
X135886501Y-85841745D01*
X135975471Y-85974899D01*
X136036758Y-86122858D01*
X136068000Y-86279925D01*
X136068000Y-86440075D01*
X136036758Y-86597142D01*
X135975471Y-86745101D01*
X135886501Y-86878255D01*
X135773255Y-86991501D01*
X135640101Y-87080471D01*
X135492142Y-87141758D01*
X135335075Y-87173000D01*
X135174925Y-87173000D01*
X135017858Y-87141758D01*
X134869899Y-87080471D01*
X134736745Y-86991501D01*
X134623499Y-86878255D01*
X134534529Y-86745101D01*
X134473242Y-86597142D01*
X134442000Y-86440075D01*
X134442000Y-86279925D01*
X134473242Y-86122858D01*
X134534529Y-85974899D01*
X134623499Y-85841745D01*
X134736745Y-85728499D01*
X134869899Y-85639529D01*
X135017858Y-85578242D01*
X135174925Y-85547000D01*
X135335075Y-85547000D01*
X135492142Y-85578242D01*
X135492142Y-85578242D01*
G37*
G36*
X110092142Y-85578242D02*
G01*
X110240101Y-85639529D01*
X110373255Y-85728499D01*
X110486501Y-85841745D01*
X110575471Y-85974899D01*
X110636758Y-86122858D01*
X110668000Y-86279925D01*
X110668000Y-86440075D01*
X110636758Y-86597142D01*
X110575471Y-86745101D01*
X110486501Y-86878255D01*
X110373255Y-86991501D01*
X110240101Y-87080471D01*
X110092142Y-87141758D01*
X109935075Y-87173000D01*
X109774925Y-87173000D01*
X109617858Y-87141758D01*
X109469899Y-87080471D01*
X109336745Y-86991501D01*
X109223499Y-86878255D01*
X109134529Y-86745101D01*
X109073242Y-86597142D01*
X109042000Y-86440075D01*
X109042000Y-86279925D01*
X109073242Y-86122858D01*
X109134529Y-85974899D01*
X109223499Y-85841745D01*
X109336745Y-85728499D01*
X109469899Y-85639529D01*
X109617858Y-85578242D01*
X109774925Y-85547000D01*
X109935075Y-85547000D01*
X110092142Y-85578242D01*
X110092142Y-85578242D01*
G37*
G36*
X112632142Y-85578242D02*
G01*
X112780101Y-85639529D01*
X112913255Y-85728499D01*
X113026501Y-85841745D01*
X113115471Y-85974899D01*
X113176758Y-86122858D01*
X113208000Y-86279925D01*
X113208000Y-86440075D01*
X113176758Y-86597142D01*
X113115471Y-86745101D01*
X113026501Y-86878255D01*
X112913255Y-86991501D01*
X112780101Y-87080471D01*
X112632142Y-87141758D01*
X112475075Y-87173000D01*
X112314925Y-87173000D01*
X112157858Y-87141758D01*
X112009899Y-87080471D01*
X111876745Y-86991501D01*
X111763499Y-86878255D01*
X111674529Y-86745101D01*
X111613242Y-86597142D01*
X111582000Y-86440075D01*
X111582000Y-86279925D01*
X111613242Y-86122858D01*
X111674529Y-85974899D01*
X111763499Y-85841745D01*
X111876745Y-85728499D01*
X112009899Y-85639529D01*
X112157858Y-85578242D01*
X112314925Y-85547000D01*
X112475075Y-85547000D01*
X112632142Y-85578242D01*
X112632142Y-85578242D01*
G37*
G36*
X115172142Y-85578242D02*
G01*
X115320101Y-85639529D01*
X115453255Y-85728499D01*
X115566501Y-85841745D01*
X115655471Y-85974899D01*
X115716758Y-86122858D01*
X115748000Y-86279925D01*
X115748000Y-86440075D01*
X115716758Y-86597142D01*
X115655471Y-86745101D01*
X115566501Y-86878255D01*
X115453255Y-86991501D01*
X115320101Y-87080471D01*
X115172142Y-87141758D01*
X115015075Y-87173000D01*
X114854925Y-87173000D01*
X114697858Y-87141758D01*
X114549899Y-87080471D01*
X114416745Y-86991501D01*
X114303499Y-86878255D01*
X114214529Y-86745101D01*
X114153242Y-86597142D01*
X114122000Y-86440075D01*
X114122000Y-86279925D01*
X114153242Y-86122858D01*
X114214529Y-85974899D01*
X114303499Y-85841745D01*
X114416745Y-85728499D01*
X114549899Y-85639529D01*
X114697858Y-85578242D01*
X114854925Y-85547000D01*
X115015075Y-85547000D01*
X115172142Y-85578242D01*
X115172142Y-85578242D01*
G37*
G36*
X117712142Y-85578242D02*
G01*
X117860101Y-85639529D01*
X117993255Y-85728499D01*
X118106501Y-85841745D01*
X118195471Y-85974899D01*
X118256758Y-86122858D01*
X118288000Y-86279925D01*
X118288000Y-86440075D01*
X118256758Y-86597142D01*
X118195471Y-86745101D01*
X118106501Y-86878255D01*
X117993255Y-86991501D01*
X117860101Y-87080471D01*
X117712142Y-87141758D01*
X117555075Y-87173000D01*
X117394925Y-87173000D01*
X117237858Y-87141758D01*
X117089899Y-87080471D01*
X116956745Y-86991501D01*
X116843499Y-86878255D01*
X116754529Y-86745101D01*
X116693242Y-86597142D01*
X116662000Y-86440075D01*
X116662000Y-86279925D01*
X116693242Y-86122858D01*
X116754529Y-85974899D01*
X116843499Y-85841745D01*
X116956745Y-85728499D01*
X117089899Y-85639529D01*
X117237858Y-85578242D01*
X117394925Y-85547000D01*
X117555075Y-85547000D01*
X117712142Y-85578242D01*
X117712142Y-85578242D01*
G37*
G36*
X120252142Y-85578242D02*
G01*
X120400101Y-85639529D01*
X120533255Y-85728499D01*
X120646501Y-85841745D01*
X120735471Y-85974899D01*
X120796758Y-86122858D01*
X120828000Y-86279925D01*
X120828000Y-86440075D01*
X120796758Y-86597142D01*
X120735471Y-86745101D01*
X120646501Y-86878255D01*
X120533255Y-86991501D01*
X120400101Y-87080471D01*
X120252142Y-87141758D01*
X120095075Y-87173000D01*
X119934925Y-87173000D01*
X119777858Y-87141758D01*
X119629899Y-87080471D01*
X119496745Y-86991501D01*
X119383499Y-86878255D01*
X119294529Y-86745101D01*
X119233242Y-86597142D01*
X119202000Y-86440075D01*
X119202000Y-86279925D01*
X119233242Y-86122858D01*
X119294529Y-85974899D01*
X119383499Y-85841745D01*
X119496745Y-85728499D01*
X119629899Y-85639529D01*
X119777858Y-85578242D01*
X119934925Y-85547000D01*
X120095075Y-85547000D01*
X120252142Y-85578242D01*
X120252142Y-85578242D01*
G37*
G36*
X122792142Y-85578242D02*
G01*
X122940101Y-85639529D01*
X123073255Y-85728499D01*
X123186501Y-85841745D01*
X123275471Y-85974899D01*
X123336758Y-86122858D01*
X123368000Y-86279925D01*
X123368000Y-86440075D01*
X123336758Y-86597142D01*
X123275471Y-86745101D01*
X123186501Y-86878255D01*
X123073255Y-86991501D01*
X122940101Y-87080471D01*
X122792142Y-87141758D01*
X122635075Y-87173000D01*
X122474925Y-87173000D01*
X122317858Y-87141758D01*
X122169899Y-87080471D01*
X122036745Y-86991501D01*
X121923499Y-86878255D01*
X121834529Y-86745101D01*
X121773242Y-86597142D01*
X121742000Y-86440075D01*
X121742000Y-86279925D01*
X121773242Y-86122858D01*
X121834529Y-85974899D01*
X121923499Y-85841745D01*
X122036745Y-85728499D01*
X122169899Y-85639529D01*
X122317858Y-85578242D01*
X122474925Y-85547000D01*
X122635075Y-85547000D01*
X122792142Y-85578242D01*
X122792142Y-85578242D01*
G37*
G36*
X125332142Y-85578242D02*
G01*
X125480101Y-85639529D01*
X125613255Y-85728499D01*
X125726501Y-85841745D01*
X125815471Y-85974899D01*
X125876758Y-86122858D01*
X125908000Y-86279925D01*
X125908000Y-86440075D01*
X125876758Y-86597142D01*
X125815471Y-86745101D01*
X125726501Y-86878255D01*
X125613255Y-86991501D01*
X125480101Y-87080471D01*
X125332142Y-87141758D01*
X125175075Y-87173000D01*
X125014925Y-87173000D01*
X124857858Y-87141758D01*
X124709899Y-87080471D01*
X124576745Y-86991501D01*
X124463499Y-86878255D01*
X124374529Y-86745101D01*
X124313242Y-86597142D01*
X124282000Y-86440075D01*
X124282000Y-86279925D01*
X124313242Y-86122858D01*
X124374529Y-85974899D01*
X124463499Y-85841745D01*
X124576745Y-85728499D01*
X124709899Y-85639529D01*
X124857858Y-85578242D01*
X125014925Y-85547000D01*
X125175075Y-85547000D01*
X125332142Y-85578242D01*
X125332142Y-85578242D01*
G37*
G36*
X127872142Y-85578242D02*
G01*
X128020101Y-85639529D01*
X128153255Y-85728499D01*
X128266501Y-85841745D01*
X128355471Y-85974899D01*
X128416758Y-86122858D01*
X128448000Y-86279925D01*
X128448000Y-86440075D01*
X128416758Y-86597142D01*
X128355471Y-86745101D01*
X128266501Y-86878255D01*
X128153255Y-86991501D01*
X128020101Y-87080471D01*
X127872142Y-87141758D01*
X127715075Y-87173000D01*
X127554925Y-87173000D01*
X127397858Y-87141758D01*
X127249899Y-87080471D01*
X127116745Y-86991501D01*
X127003499Y-86878255D01*
X126914529Y-86745101D01*
X126853242Y-86597142D01*
X126822000Y-86440075D01*
X126822000Y-86279925D01*
X126853242Y-86122858D01*
X126914529Y-85974899D01*
X127003499Y-85841745D01*
X127116745Y-85728499D01*
X127249899Y-85639529D01*
X127397858Y-85578242D01*
X127554925Y-85547000D01*
X127715075Y-85547000D01*
X127872142Y-85578242D01*
X127872142Y-85578242D01*
G37*
G36*
X130412142Y-85578242D02*
G01*
X130560101Y-85639529D01*
X130693255Y-85728499D01*
X130806501Y-85841745D01*
X130895471Y-85974899D01*
X130956758Y-86122858D01*
X130988000Y-86279925D01*
X130988000Y-86440075D01*
X130956758Y-86597142D01*
X130895471Y-86745101D01*
X130806501Y-86878255D01*
X130693255Y-86991501D01*
X130560101Y-87080471D01*
X130412142Y-87141758D01*
X130255075Y-87173000D01*
X130094925Y-87173000D01*
X129937858Y-87141758D01*
X129789899Y-87080471D01*
X129656745Y-86991501D01*
X129543499Y-86878255D01*
X129454529Y-86745101D01*
X129393242Y-86597142D01*
X129362000Y-86440075D01*
X129362000Y-86279925D01*
X129393242Y-86122858D01*
X129454529Y-85974899D01*
X129543499Y-85841745D01*
X129656745Y-85728499D01*
X129789899Y-85639529D01*
X129937858Y-85578242D01*
X130094925Y-85547000D01*
X130255075Y-85547000D01*
X130412142Y-85578242D01*
X130412142Y-85578242D01*
G37*
G36*
X132952142Y-85578242D02*
G01*
X133100101Y-85639529D01*
X133233255Y-85728499D01*
X133346501Y-85841745D01*
X133435471Y-85974899D01*
X133496758Y-86122858D01*
X133528000Y-86279925D01*
X133528000Y-86440075D01*
X133496758Y-86597142D01*
X133435471Y-86745101D01*
X133346501Y-86878255D01*
X133233255Y-86991501D01*
X133100101Y-87080471D01*
X132952142Y-87141758D01*
X132795075Y-87173000D01*
X132634925Y-87173000D01*
X132477858Y-87141758D01*
X132329899Y-87080471D01*
X132196745Y-86991501D01*
X132083499Y-86878255D01*
X131994529Y-86745101D01*
X131933242Y-86597142D01*
X131902000Y-86440075D01*
X131902000Y-86279925D01*
X131933242Y-86122858D01*
X131994529Y-85974899D01*
X132083499Y-85841745D01*
X132196745Y-85728499D01*
X132329899Y-85639529D01*
X132477858Y-85578242D01*
X132634925Y-85547000D01*
X132795075Y-85547000D01*
X132952142Y-85578242D01*
X132952142Y-85578242D01*
G37*
G36*
X138032142Y-85578242D02*
G01*
X138180101Y-85639529D01*
X138313255Y-85728499D01*
X138426501Y-85841745D01*
X138515471Y-85974899D01*
X138576758Y-86122858D01*
X138608000Y-86279925D01*
X138608000Y-86440075D01*
X138576758Y-86597142D01*
X138515471Y-86745101D01*
X138426501Y-86878255D01*
X138313255Y-86991501D01*
X138180101Y-87080471D01*
X138032142Y-87141758D01*
X137875075Y-87173000D01*
X137714925Y-87173000D01*
X137557858Y-87141758D01*
X137409899Y-87080471D01*
X137276745Y-86991501D01*
X137163499Y-86878255D01*
X137074529Y-86745101D01*
X137013242Y-86597142D01*
X136982000Y-86440075D01*
X136982000Y-86279925D01*
X137013242Y-86122858D01*
X137074529Y-85974899D01*
X137163499Y-85841745D01*
X137276745Y-85728499D01*
X137409899Y-85639529D01*
X137557858Y-85578242D01*
X137714925Y-85547000D01*
X137875075Y-85547000D01*
X138032142Y-85578242D01*
X138032142Y-85578242D01*
G37*
G36*
X144648228Y-77571703D02*
G01*
X144803100Y-77635853D01*
X144942481Y-77728985D01*
X145061015Y-77847519D01*
X145154147Y-77986900D01*
X145218297Y-78141772D01*
X145251000Y-78306184D01*
X145251000Y-78473816D01*
X145218297Y-78638228D01*
X145154147Y-78793100D01*
X145061015Y-78932481D01*
X144942481Y-79051015D01*
X144803100Y-79144147D01*
X144648228Y-79208297D01*
X144483816Y-79241000D01*
X144316184Y-79241000D01*
X144151772Y-79208297D01*
X143996900Y-79144147D01*
X143857519Y-79051015D01*
X143738985Y-78932481D01*
X143645853Y-78793100D01*
X143581703Y-78638228D01*
X143549000Y-78473816D01*
X143549000Y-78306184D01*
X143581703Y-78141772D01*
X143645853Y-77986900D01*
X143738985Y-77847519D01*
X143857519Y-77728985D01*
X143996900Y-77635853D01*
X144151772Y-77571703D01*
X144316184Y-77539000D01*
X144483816Y-77539000D01*
X144648228Y-77571703D01*
X144648228Y-77571703D01*
G37*
G36*
X152648228Y-77571703D02*
G01*
X152803100Y-77635853D01*
X152942481Y-77728985D01*
X153061015Y-77847519D01*
X153154147Y-77986900D01*
X153218297Y-78141772D01*
X153251000Y-78306184D01*
X153251000Y-78473816D01*
X153218297Y-78638228D01*
X153154147Y-78793100D01*
X153061015Y-78932481D01*
X152942481Y-79051015D01*
X152803100Y-79144147D01*
X152648228Y-79208297D01*
X152483816Y-79241000D01*
X152316184Y-79241000D01*
X152151772Y-79208297D01*
X151996900Y-79144147D01*
X151857519Y-79051015D01*
X151738985Y-78932481D01*
X151645853Y-78793100D01*
X151581703Y-78638228D01*
X151549000Y-78473816D01*
X151549000Y-78306184D01*
X151581703Y-78141772D01*
X151645853Y-77986900D01*
X151738985Y-77847519D01*
X151857519Y-77728985D01*
X151996900Y-77635853D01*
X152151772Y-77571703D01*
X152316184Y-77539000D01*
X152483816Y-77539000D01*
X152648228Y-77571703D01*
X152648228Y-77571703D01*
G37*
G36*
X147488228Y-76186703D02*
G01*
X147643100Y-76250853D01*
X147782481Y-76343985D01*
X147901015Y-76462519D01*
X147994147Y-76601900D01*
X148058297Y-76756772D01*
X148091000Y-76921184D01*
X148091000Y-77088816D01*
X148058297Y-77253228D01*
X147994147Y-77408100D01*
X147901015Y-77547481D01*
X147782481Y-77666015D01*
X147643100Y-77759147D01*
X147488228Y-77823297D01*
X147323816Y-77856000D01*
X147156184Y-77856000D01*
X146991772Y-77823297D01*
X146836900Y-77759147D01*
X146697519Y-77666015D01*
X146578985Y-77547481D01*
X146485853Y-77408100D01*
X146421703Y-77253228D01*
X146389000Y-77088816D01*
X146389000Y-76921184D01*
X146421703Y-76756772D01*
X146485853Y-76601900D01*
X146578985Y-76462519D01*
X146697519Y-76343985D01*
X146836900Y-76250853D01*
X146991772Y-76186703D01*
X147156184Y-76154000D01*
X147323816Y-76154000D01*
X147488228Y-76186703D01*
X147488228Y-76186703D01*
G37*
G36*
X155488228Y-76186703D02*
G01*
X155643100Y-76250853D01*
X155782481Y-76343985D01*
X155901015Y-76462519D01*
X155994147Y-76601900D01*
X156058297Y-76756772D01*
X156091000Y-76921184D01*
X156091000Y-77088816D01*
X156058297Y-77253228D01*
X155994147Y-77408100D01*
X155901015Y-77547481D01*
X155782481Y-77666015D01*
X155643100Y-77759147D01*
X155488228Y-77823297D01*
X155323816Y-77856000D01*
X155156184Y-77856000D01*
X154991772Y-77823297D01*
X154836900Y-77759147D01*
X154697519Y-77666015D01*
X154578985Y-77547481D01*
X154485853Y-77408100D01*
X154421703Y-77253228D01*
X154389000Y-77088816D01*
X154389000Y-76921184D01*
X154421703Y-76756772D01*
X154485853Y-76601900D01*
X154578985Y-76462519D01*
X154697519Y-76343985D01*
X154836900Y-76250853D01*
X154991772Y-76186703D01*
X155156184Y-76154000D01*
X155323816Y-76154000D01*
X155488228Y-76186703D01*
X155488228Y-76186703D01*
G37*
G36*
X152648228Y-74801703D02*
G01*
X152803100Y-74865853D01*
X152942481Y-74958985D01*
X153061015Y-75077519D01*
X153154147Y-75216900D01*
X153218297Y-75371772D01*
X153251000Y-75536184D01*
X153251000Y-75703816D01*
X153218297Y-75868228D01*
X153154147Y-76023100D01*
X153061015Y-76162481D01*
X152942481Y-76281015D01*
X152803100Y-76374147D01*
X152648228Y-76438297D01*
X152483816Y-76471000D01*
X152316184Y-76471000D01*
X152151772Y-76438297D01*
X151996900Y-76374147D01*
X151857519Y-76281015D01*
X151738985Y-76162481D01*
X151645853Y-76023100D01*
X151581703Y-75868228D01*
X151549000Y-75703816D01*
X151549000Y-75536184D01*
X151581703Y-75371772D01*
X151645853Y-75216900D01*
X151738985Y-75077519D01*
X151857519Y-74958985D01*
X151996900Y-74865853D01*
X152151772Y-74801703D01*
X152316184Y-74769000D01*
X152483816Y-74769000D01*
X152648228Y-74801703D01*
X152648228Y-74801703D01*
G37*
G36*
X144648228Y-74801703D02*
G01*
X144803100Y-74865853D01*
X144942481Y-74958985D01*
X145061015Y-75077519D01*
X145154147Y-75216900D01*
X145218297Y-75371772D01*
X145251000Y-75536184D01*
X145251000Y-75703816D01*
X145218297Y-75868228D01*
X145154147Y-76023100D01*
X145061015Y-76162481D01*
X144942481Y-76281015D01*
X144803100Y-76374147D01*
X144648228Y-76438297D01*
X144483816Y-76471000D01*
X144316184Y-76471000D01*
X144151772Y-76438297D01*
X143996900Y-76374147D01*
X143857519Y-76281015D01*
X143738985Y-76162481D01*
X143645853Y-76023100D01*
X143581703Y-75868228D01*
X143549000Y-75703816D01*
X143549000Y-75536184D01*
X143581703Y-75371772D01*
X143645853Y-75216900D01*
X143738985Y-75077519D01*
X143857519Y-74958985D01*
X143996900Y-74865853D01*
X144151772Y-74801703D01*
X144316184Y-74769000D01*
X144483816Y-74769000D01*
X144648228Y-74801703D01*
X144648228Y-74801703D01*
G37*
G36*
X155488228Y-73416703D02*
G01*
X155643100Y-73480853D01*
X155782481Y-73573985D01*
X155901015Y-73692519D01*
X155994147Y-73831900D01*
X156058297Y-73986772D01*
X156091000Y-74151184D01*
X156091000Y-74318816D01*
X156058297Y-74483228D01*
X155994147Y-74638100D01*
X155901015Y-74777481D01*
X155782481Y-74896015D01*
X155643100Y-74989147D01*
X155488228Y-75053297D01*
X155323816Y-75086000D01*
X155156184Y-75086000D01*
X154991772Y-75053297D01*
X154836900Y-74989147D01*
X154697519Y-74896015D01*
X154578985Y-74777481D01*
X154485853Y-74638100D01*
X154421703Y-74483228D01*
X154389000Y-74318816D01*
X154389000Y-74151184D01*
X154421703Y-73986772D01*
X154485853Y-73831900D01*
X154578985Y-73692519D01*
X154697519Y-73573985D01*
X154836900Y-73480853D01*
X154991772Y-73416703D01*
X155156184Y-73384000D01*
X155323816Y-73384000D01*
X155488228Y-73416703D01*
X155488228Y-73416703D01*
G37*
G36*
X147488228Y-73416703D02*
G01*
X147643100Y-73480853D01*
X147782481Y-73573985D01*
X147901015Y-73692519D01*
X147994147Y-73831900D01*
X148058297Y-73986772D01*
X148091000Y-74151184D01*
X148091000Y-74318816D01*
X148058297Y-74483228D01*
X147994147Y-74638100D01*
X147901015Y-74777481D01*
X147782481Y-74896015D01*
X147643100Y-74989147D01*
X147488228Y-75053297D01*
X147323816Y-75086000D01*
X147156184Y-75086000D01*
X146991772Y-75053297D01*
X146836900Y-74989147D01*
X146697519Y-74896015D01*
X146578985Y-74777481D01*
X146485853Y-74638100D01*
X146421703Y-74483228D01*
X146389000Y-74318816D01*
X146389000Y-74151184D01*
X146421703Y-73986772D01*
X146485853Y-73831900D01*
X146578985Y-73692519D01*
X146697519Y-73573985D01*
X146836900Y-73480853D01*
X146991772Y-73416703D01*
X147156184Y-73384000D01*
X147323816Y-73384000D01*
X147488228Y-73416703D01*
X147488228Y-73416703D01*
G37*
G36*
X144648228Y-72031703D02*
G01*
X144803100Y-72095853D01*
X144942481Y-72188985D01*
X145061015Y-72307519D01*
X145154147Y-72446900D01*
X145218297Y-72601772D01*
X145251000Y-72766184D01*
X145251000Y-72933816D01*
X145218297Y-73098228D01*
X145154147Y-73253100D01*
X145061015Y-73392481D01*
X144942481Y-73511015D01*
X144803100Y-73604147D01*
X144648228Y-73668297D01*
X144483816Y-73701000D01*
X144316184Y-73701000D01*
X144151772Y-73668297D01*
X143996900Y-73604147D01*
X143857519Y-73511015D01*
X143738985Y-73392481D01*
X143645853Y-73253100D01*
X143581703Y-73098228D01*
X143549000Y-72933816D01*
X143549000Y-72766184D01*
X143581703Y-72601772D01*
X143645853Y-72446900D01*
X143738985Y-72307519D01*
X143857519Y-72188985D01*
X143996900Y-72095853D01*
X144151772Y-72031703D01*
X144316184Y-71999000D01*
X144483816Y-71999000D01*
X144648228Y-72031703D01*
X144648228Y-72031703D01*
G37*
G36*
X152648228Y-72031703D02*
G01*
X152803100Y-72095853D01*
X152942481Y-72188985D01*
X153061015Y-72307519D01*
X153154147Y-72446900D01*
X153218297Y-72601772D01*
X153251000Y-72766184D01*
X153251000Y-72933816D01*
X153218297Y-73098228D01*
X153154147Y-73253100D01*
X153061015Y-73392481D01*
X152942481Y-73511015D01*
X152803100Y-73604147D01*
X152648228Y-73668297D01*
X152483816Y-73701000D01*
X152316184Y-73701000D01*
X152151772Y-73668297D01*
X151996900Y-73604147D01*
X151857519Y-73511015D01*
X151738985Y-73392481D01*
X151645853Y-73253100D01*
X151581703Y-73098228D01*
X151549000Y-72933816D01*
X151549000Y-72766184D01*
X151581703Y-72601772D01*
X151645853Y-72446900D01*
X151738985Y-72307519D01*
X151857519Y-72188985D01*
X151996900Y-72095853D01*
X152151772Y-72031703D01*
X152316184Y-71999000D01*
X152483816Y-71999000D01*
X152648228Y-72031703D01*
X152648228Y-72031703D01*
G37*
G36*
X155488228Y-70646703D02*
G01*
X155643100Y-70710853D01*
X155782481Y-70803985D01*
X155901015Y-70922519D01*
X155994147Y-71061900D01*
X156058297Y-71216772D01*
X156091000Y-71381184D01*
X156091000Y-71548816D01*
X156058297Y-71713228D01*
X155994147Y-71868100D01*
X155901015Y-72007481D01*
X155782481Y-72126015D01*
X155643100Y-72219147D01*
X155488228Y-72283297D01*
X155323816Y-72316000D01*
X155156184Y-72316000D01*
X154991772Y-72283297D01*
X154836900Y-72219147D01*
X154697519Y-72126015D01*
X154578985Y-72007481D01*
X154485853Y-71868100D01*
X154421703Y-71713228D01*
X154389000Y-71548816D01*
X154389000Y-71381184D01*
X154421703Y-71216772D01*
X154485853Y-71061900D01*
X154578985Y-70922519D01*
X154697519Y-70803985D01*
X154836900Y-70710853D01*
X154991772Y-70646703D01*
X155156184Y-70614000D01*
X155323816Y-70614000D01*
X155488228Y-70646703D01*
X155488228Y-70646703D01*
G37*
G36*
X147488228Y-70646703D02*
G01*
X147643100Y-70710853D01*
X147782481Y-70803985D01*
X147901015Y-70922519D01*
X147994147Y-71061900D01*
X148058297Y-71216772D01*
X148091000Y-71381184D01*
X148091000Y-71548816D01*
X148058297Y-71713228D01*
X147994147Y-71868100D01*
X147901015Y-72007481D01*
X147782481Y-72126015D01*
X147643100Y-72219147D01*
X147488228Y-72283297D01*
X147323816Y-72316000D01*
X147156184Y-72316000D01*
X146991772Y-72283297D01*
X146836900Y-72219147D01*
X146697519Y-72126015D01*
X146578985Y-72007481D01*
X146485853Y-71868100D01*
X146421703Y-71713228D01*
X146389000Y-71548816D01*
X146389000Y-71381184D01*
X146421703Y-71216772D01*
X146485853Y-71061900D01*
X146578985Y-70922519D01*
X146697519Y-70803985D01*
X146836900Y-70710853D01*
X146991772Y-70646703D01*
X147156184Y-70614000D01*
X147323816Y-70614000D01*
X147488228Y-70646703D01*
X147488228Y-70646703D01*
G37*
G36*
X152648228Y-69261703D02*
G01*
X152803100Y-69325853D01*
X152942481Y-69418985D01*
X153061015Y-69537519D01*
X153154147Y-69676900D01*
X153218297Y-69831772D01*
X153251000Y-69996184D01*
X153251000Y-70163816D01*
X153218297Y-70328228D01*
X153154147Y-70483100D01*
X153061015Y-70622481D01*
X152942481Y-70741015D01*
X152803100Y-70834147D01*
X152648228Y-70898297D01*
X152483816Y-70931000D01*
X152316184Y-70931000D01*
X152151772Y-70898297D01*
X151996900Y-70834147D01*
X151857519Y-70741015D01*
X151738985Y-70622481D01*
X151645853Y-70483100D01*
X151581703Y-70328228D01*
X151549000Y-70163816D01*
X151549000Y-69996184D01*
X151581703Y-69831772D01*
X151645853Y-69676900D01*
X151738985Y-69537519D01*
X151857519Y-69418985D01*
X151996900Y-69325853D01*
X152151772Y-69261703D01*
X152316184Y-69229000D01*
X152483816Y-69229000D01*
X152648228Y-69261703D01*
X152648228Y-69261703D01*
G37*
G36*
X144648228Y-69261703D02*
G01*
X144803100Y-69325853D01*
X144942481Y-69418985D01*
X145061015Y-69537519D01*
X145154147Y-69676900D01*
X145218297Y-69831772D01*
X145251000Y-69996184D01*
X145251000Y-70163816D01*
X145218297Y-70328228D01*
X145154147Y-70483100D01*
X145061015Y-70622481D01*
X144942481Y-70741015D01*
X144803100Y-70834147D01*
X144648228Y-70898297D01*
X144483816Y-70931000D01*
X144316184Y-70931000D01*
X144151772Y-70898297D01*
X143996900Y-70834147D01*
X143857519Y-70741015D01*
X143738985Y-70622481D01*
X143645853Y-70483100D01*
X143581703Y-70328228D01*
X143549000Y-70163816D01*
X143549000Y-69996184D01*
X143581703Y-69831772D01*
X143645853Y-69676900D01*
X143738985Y-69537519D01*
X143857519Y-69418985D01*
X143996900Y-69325853D01*
X144151772Y-69261703D01*
X144316184Y-69229000D01*
X144483816Y-69229000D01*
X144648228Y-69261703D01*
X144648228Y-69261703D01*
G37*
G36*
X155488228Y-67876703D02*
G01*
X155643100Y-67940853D01*
X155782481Y-68033985D01*
X155901015Y-68152519D01*
X155994147Y-68291900D01*
X156058297Y-68446772D01*
X156091000Y-68611184D01*
X156091000Y-68778816D01*
X156058297Y-68943228D01*
X155994147Y-69098100D01*
X155901015Y-69237481D01*
X155782481Y-69356015D01*
X155643100Y-69449147D01*
X155488228Y-69513297D01*
X155323816Y-69546000D01*
X155156184Y-69546000D01*
X154991772Y-69513297D01*
X154836900Y-69449147D01*
X154697519Y-69356015D01*
X154578985Y-69237481D01*
X154485853Y-69098100D01*
X154421703Y-68943228D01*
X154389000Y-68778816D01*
X154389000Y-68611184D01*
X154421703Y-68446772D01*
X154485853Y-68291900D01*
X154578985Y-68152519D01*
X154697519Y-68033985D01*
X154836900Y-67940853D01*
X154991772Y-67876703D01*
X155156184Y-67844000D01*
X155323816Y-67844000D01*
X155488228Y-67876703D01*
X155488228Y-67876703D01*
G37*
G36*
X147488228Y-67876703D02*
G01*
X147643100Y-67940853D01*
X147782481Y-68033985D01*
X147901015Y-68152519D01*
X147994147Y-68291900D01*
X148058297Y-68446772D01*
X148091000Y-68611184D01*
X148091000Y-68778816D01*
X148058297Y-68943228D01*
X147994147Y-69098100D01*
X147901015Y-69237481D01*
X147782481Y-69356015D01*
X147643100Y-69449147D01*
X147488228Y-69513297D01*
X147323816Y-69546000D01*
X147156184Y-69546000D01*
X146991772Y-69513297D01*
X146836900Y-69449147D01*
X146697519Y-69356015D01*
X146578985Y-69237481D01*
X146485853Y-69098100D01*
X146421703Y-68943228D01*
X146389000Y-68778816D01*
X146389000Y-68611184D01*
X146421703Y-68446772D01*
X146485853Y-68291900D01*
X146578985Y-68152519D01*
X146697519Y-68033985D01*
X146836900Y-67940853D01*
X146991772Y-67876703D01*
X147156184Y-67844000D01*
X147323816Y-67844000D01*
X147488228Y-67876703D01*
X147488228Y-67876703D01*
G37*
G36*
X153251000Y-68161000D02*
G01*
X151549000Y-68161000D01*
X151549000Y-66459000D01*
X153251000Y-66459000D01*
X153251000Y-68161000D01*
X153251000Y-68161000D01*
G37*
G36*
X145251000Y-68161000D02*
G01*
X143549000Y-68161000D01*
X143549000Y-66459000D01*
X145251000Y-66459000D01*
X145251000Y-68161000D01*
X145251000Y-68161000D01*
G37*
G36*
X155838254Y-58377818D02*
G01*
X156211511Y-58532426D01*
X156211513Y-58532427D01*
X156547436Y-58756884D01*
X156833116Y-59042564D01*
X157047830Y-59363905D01*
X157057574Y-59378489D01*
X157212182Y-59751746D01*
X157291000Y-60147993D01*
X157291000Y-60552007D01*
X157212182Y-60948254D01*
X157057574Y-61321511D01*
X157057573Y-61321513D01*
X156833116Y-61657436D01*
X156547436Y-61943116D01*
X156211513Y-62167573D01*
X156211512Y-62167574D01*
X156211511Y-62167574D01*
X155838254Y-62322182D01*
X155442007Y-62401000D01*
X155037993Y-62401000D01*
X154641746Y-62322182D01*
X154268489Y-62167574D01*
X154268488Y-62167574D01*
X154268487Y-62167573D01*
X153932564Y-61943116D01*
X153646884Y-61657436D01*
X153422427Y-61321513D01*
X153422426Y-61321511D01*
X153267818Y-60948254D01*
X153189000Y-60552007D01*
X153189000Y-60147993D01*
X153267818Y-59751746D01*
X153422426Y-59378489D01*
X153432171Y-59363905D01*
X153646884Y-59042564D01*
X153932564Y-58756884D01*
X154268487Y-58532427D01*
X154268489Y-58532426D01*
X154641746Y-58377818D01*
X155037993Y-58299000D01*
X155442007Y-58299000D01*
X155838254Y-58377818D01*
X155838254Y-58377818D01*
G37*
G36*
X147838254Y-58377818D02*
G01*
X148211511Y-58532426D01*
X148211513Y-58532427D01*
X148547436Y-58756884D01*
X148833116Y-59042564D01*
X149047830Y-59363905D01*
X149057574Y-59378489D01*
X149212182Y-59751746D01*
X149291000Y-60147993D01*
X149291000Y-60552007D01*
X149212182Y-60948254D01*
X149057574Y-61321511D01*
X149057573Y-61321513D01*
X148833116Y-61657436D01*
X148547436Y-61943116D01*
X148211513Y-62167573D01*
X148211512Y-62167574D01*
X148211511Y-62167574D01*
X147838254Y-62322182D01*
X147442007Y-62401000D01*
X147037993Y-62401000D01*
X146641746Y-62322182D01*
X146268489Y-62167574D01*
X146268488Y-62167574D01*
X146268487Y-62167573D01*
X145932564Y-61943116D01*
X145646884Y-61657436D01*
X145422427Y-61321513D01*
X145422426Y-61321511D01*
X145267818Y-60948254D01*
X145189000Y-60552007D01*
X145189000Y-60147993D01*
X145267818Y-59751746D01*
X145422426Y-59378489D01*
X145432171Y-59363905D01*
X145646884Y-59042564D01*
X145932564Y-58756884D01*
X146268487Y-58532427D01*
X146268489Y-58532426D01*
X146641746Y-58377818D01*
X147037993Y-58299000D01*
X147442007Y-58299000D01*
X147838254Y-58377818D01*
X147838254Y-58377818D01*
G37*
G36*
X137922617Y-57378420D02*
G01*
X138013403Y-57405960D01*
X138045335Y-57415646D01*
X138158424Y-57476094D01*
X138257554Y-57557447D01*
X138338906Y-57656575D01*
X138399354Y-57769664D01*
X138405067Y-57788499D01*
X138436580Y-57892382D01*
X138446000Y-57988027D01*
X138446000Y-58851973D01*
X138436580Y-58947618D01*
X138409040Y-59038404D01*
X138399354Y-59070336D01*
X138338906Y-59183425D01*
X138257554Y-59282554D01*
X138158425Y-59363906D01*
X138045336Y-59424354D01*
X138013404Y-59434040D01*
X137922618Y-59461580D01*
X137795000Y-59474149D01*
X137667383Y-59461580D01*
X137576597Y-59434040D01*
X137544665Y-59424354D01*
X137431576Y-59363906D01*
X137332447Y-59282554D01*
X137251095Y-59183425D01*
X137190647Y-59070336D01*
X137184933Y-59051499D01*
X137153420Y-58947618D01*
X137144000Y-58851973D01*
X137144000Y-57988028D01*
X137153420Y-57892383D01*
X137190645Y-57769669D01*
X137190646Y-57769665D01*
X137251094Y-57656576D01*
X137332447Y-57557446D01*
X137431575Y-57476094D01*
X137544664Y-57415646D01*
X137576596Y-57405960D01*
X137667382Y-57378420D01*
X137795000Y-57365851D01*
X137922617Y-57378420D01*
X137922617Y-57378420D01*
G37*
G36*
X112632142Y-57638242D02*
G01*
X112780101Y-57699529D01*
X112913255Y-57788499D01*
X113026501Y-57901745D01*
X113115471Y-58034899D01*
X113176758Y-58182858D01*
X113208000Y-58339925D01*
X113208000Y-58500075D01*
X113176758Y-58657142D01*
X113115471Y-58805101D01*
X113026501Y-58938255D01*
X112913255Y-59051501D01*
X112780101Y-59140471D01*
X112632142Y-59201758D01*
X112475075Y-59233000D01*
X112314925Y-59233000D01*
X112157858Y-59201758D01*
X112009899Y-59140471D01*
X111876745Y-59051501D01*
X111763499Y-58938255D01*
X111674529Y-58805101D01*
X111613242Y-58657142D01*
X111582000Y-58500075D01*
X111582000Y-58339925D01*
X111613242Y-58182858D01*
X111674529Y-58034899D01*
X111763499Y-57901745D01*
X111876745Y-57788499D01*
X112009899Y-57699529D01*
X112157858Y-57638242D01*
X112314925Y-57607000D01*
X112475075Y-57607000D01*
X112632142Y-57638242D01*
X112632142Y-57638242D01*
G37*
G36*
X82152142Y-57638242D02*
G01*
X82300101Y-57699529D01*
X82433255Y-57788499D01*
X82546501Y-57901745D01*
X82635471Y-58034899D01*
X82696758Y-58182858D01*
X82728000Y-58339925D01*
X82728000Y-58500075D01*
X82696758Y-58657142D01*
X82635471Y-58805101D01*
X82546501Y-58938255D01*
X82433255Y-59051501D01*
X82300101Y-59140471D01*
X82152142Y-59201758D01*
X81995075Y-59233000D01*
X81834925Y-59233000D01*
X81677858Y-59201758D01*
X81529899Y-59140471D01*
X81396745Y-59051501D01*
X81283499Y-58938255D01*
X81194529Y-58805101D01*
X81133242Y-58657142D01*
X81102000Y-58500075D01*
X81102000Y-58339925D01*
X81133242Y-58182858D01*
X81194529Y-58034899D01*
X81283499Y-57901745D01*
X81396745Y-57788499D01*
X81529899Y-57699529D01*
X81677858Y-57638242D01*
X81834925Y-57607000D01*
X81995075Y-57607000D01*
X82152142Y-57638242D01*
X82152142Y-57638242D01*
G37*
G36*
X79612142Y-57638242D02*
G01*
X79760101Y-57699529D01*
X79893255Y-57788499D01*
X80006501Y-57901745D01*
X80095471Y-58034899D01*
X80156758Y-58182858D01*
X80188000Y-58339925D01*
X80188000Y-58500075D01*
X80156758Y-58657142D01*
X80095471Y-58805101D01*
X80006501Y-58938255D01*
X79893255Y-59051501D01*
X79760101Y-59140471D01*
X79612142Y-59201758D01*
X79455075Y-59233000D01*
X79294925Y-59233000D01*
X79137858Y-59201758D01*
X78989899Y-59140471D01*
X78856745Y-59051501D01*
X78743499Y-58938255D01*
X78654529Y-58805101D01*
X78593242Y-58657142D01*
X78562000Y-58500075D01*
X78562000Y-58339925D01*
X78593242Y-58182858D01*
X78654529Y-58034899D01*
X78743499Y-57901745D01*
X78856745Y-57788499D01*
X78989899Y-57699529D01*
X79137858Y-57638242D01*
X79294925Y-57607000D01*
X79455075Y-57607000D01*
X79612142Y-57638242D01*
X79612142Y-57638242D01*
G37*
G36*
X77072142Y-57638242D02*
G01*
X77220101Y-57699529D01*
X77353255Y-57788499D01*
X77466501Y-57901745D01*
X77555471Y-58034899D01*
X77616758Y-58182858D01*
X77648000Y-58339925D01*
X77648000Y-58500075D01*
X77616758Y-58657142D01*
X77555471Y-58805101D01*
X77466501Y-58938255D01*
X77353255Y-59051501D01*
X77220101Y-59140471D01*
X77072142Y-59201758D01*
X76915075Y-59233000D01*
X76754925Y-59233000D01*
X76597858Y-59201758D01*
X76449899Y-59140471D01*
X76316745Y-59051501D01*
X76203499Y-58938255D01*
X76114529Y-58805101D01*
X76053242Y-58657142D01*
X76022000Y-58500075D01*
X76022000Y-58339925D01*
X76053242Y-58182858D01*
X76114529Y-58034899D01*
X76203499Y-57901745D01*
X76316745Y-57788499D01*
X76449899Y-57699529D01*
X76597858Y-57638242D01*
X76754925Y-57607000D01*
X76915075Y-57607000D01*
X77072142Y-57638242D01*
X77072142Y-57638242D01*
G37*
G36*
X94852142Y-57638242D02*
G01*
X95000101Y-57699529D01*
X95133255Y-57788499D01*
X95246501Y-57901745D01*
X95335471Y-58034899D01*
X95396758Y-58182858D01*
X95428000Y-58339925D01*
X95428000Y-58500075D01*
X95396758Y-58657142D01*
X95335471Y-58805101D01*
X95246501Y-58938255D01*
X95133255Y-59051501D01*
X95000101Y-59140471D01*
X94852142Y-59201758D01*
X94695075Y-59233000D01*
X94534925Y-59233000D01*
X94377858Y-59201758D01*
X94229899Y-59140471D01*
X94096745Y-59051501D01*
X93983499Y-58938255D01*
X93894529Y-58805101D01*
X93833242Y-58657142D01*
X93802000Y-58500075D01*
X93802000Y-58339925D01*
X93833242Y-58182858D01*
X93894529Y-58034899D01*
X93983499Y-57901745D01*
X94096745Y-57788499D01*
X94229899Y-57699529D01*
X94377858Y-57638242D01*
X94534925Y-57607000D01*
X94695075Y-57607000D01*
X94852142Y-57638242D01*
X94852142Y-57638242D01*
G37*
G36*
X92312142Y-57638242D02*
G01*
X92460101Y-57699529D01*
X92593255Y-57788499D01*
X92706501Y-57901745D01*
X92795471Y-58034899D01*
X92856758Y-58182858D01*
X92888000Y-58339925D01*
X92888000Y-58500075D01*
X92856758Y-58657142D01*
X92795471Y-58805101D01*
X92706501Y-58938255D01*
X92593255Y-59051501D01*
X92460101Y-59140471D01*
X92312142Y-59201758D01*
X92155075Y-59233000D01*
X91994925Y-59233000D01*
X91837858Y-59201758D01*
X91689899Y-59140471D01*
X91556745Y-59051501D01*
X91443499Y-58938255D01*
X91354529Y-58805101D01*
X91293242Y-58657142D01*
X91262000Y-58500075D01*
X91262000Y-58339925D01*
X91293242Y-58182858D01*
X91354529Y-58034899D01*
X91443499Y-57901745D01*
X91556745Y-57788499D01*
X91689899Y-57699529D01*
X91837858Y-57638242D01*
X91994925Y-57607000D01*
X92155075Y-57607000D01*
X92312142Y-57638242D01*
X92312142Y-57638242D01*
G37*
G36*
X89772142Y-57638242D02*
G01*
X89920101Y-57699529D01*
X90053255Y-57788499D01*
X90166501Y-57901745D01*
X90255471Y-58034899D01*
X90316758Y-58182858D01*
X90348000Y-58339925D01*
X90348000Y-58500075D01*
X90316758Y-58657142D01*
X90255471Y-58805101D01*
X90166501Y-58938255D01*
X90053255Y-59051501D01*
X89920101Y-59140471D01*
X89772142Y-59201758D01*
X89615075Y-59233000D01*
X89454925Y-59233000D01*
X89297858Y-59201758D01*
X89149899Y-59140471D01*
X89016745Y-59051501D01*
X88903499Y-58938255D01*
X88814529Y-58805101D01*
X88753242Y-58657142D01*
X88722000Y-58500075D01*
X88722000Y-58339925D01*
X88753242Y-58182858D01*
X88814529Y-58034899D01*
X88903499Y-57901745D01*
X89016745Y-57788499D01*
X89149899Y-57699529D01*
X89297858Y-57638242D01*
X89454925Y-57607000D01*
X89615075Y-57607000D01*
X89772142Y-57638242D01*
X89772142Y-57638242D01*
G37*
G36*
X87232142Y-57638242D02*
G01*
X87380101Y-57699529D01*
X87513255Y-57788499D01*
X87626501Y-57901745D01*
X87715471Y-58034899D01*
X87776758Y-58182858D01*
X87808000Y-58339925D01*
X87808000Y-58500075D01*
X87776758Y-58657142D01*
X87715471Y-58805101D01*
X87626501Y-58938255D01*
X87513255Y-59051501D01*
X87380101Y-59140471D01*
X87232142Y-59201758D01*
X87075075Y-59233000D01*
X86914925Y-59233000D01*
X86757858Y-59201758D01*
X86609899Y-59140471D01*
X86476745Y-59051501D01*
X86363499Y-58938255D01*
X86274529Y-58805101D01*
X86213242Y-58657142D01*
X86182000Y-58500075D01*
X86182000Y-58339925D01*
X86213242Y-58182858D01*
X86274529Y-58034899D01*
X86363499Y-57901745D01*
X86476745Y-57788499D01*
X86609899Y-57699529D01*
X86757858Y-57638242D01*
X86914925Y-57607000D01*
X87075075Y-57607000D01*
X87232142Y-57638242D01*
X87232142Y-57638242D01*
G37*
G36*
X84692142Y-57638242D02*
G01*
X84840101Y-57699529D01*
X84973255Y-57788499D01*
X85086501Y-57901745D01*
X85175471Y-58034899D01*
X85236758Y-58182858D01*
X85268000Y-58339925D01*
X85268000Y-58500075D01*
X85236758Y-58657142D01*
X85175471Y-58805101D01*
X85086501Y-58938255D01*
X84973255Y-59051501D01*
X84840101Y-59140471D01*
X84692142Y-59201758D01*
X84535075Y-59233000D01*
X84374925Y-59233000D01*
X84217858Y-59201758D01*
X84069899Y-59140471D01*
X83936745Y-59051501D01*
X83823499Y-58938255D01*
X83734529Y-58805101D01*
X83673242Y-58657142D01*
X83642000Y-58500075D01*
X83642000Y-58339925D01*
X83673242Y-58182858D01*
X83734529Y-58034899D01*
X83823499Y-57901745D01*
X83936745Y-57788499D01*
X84069899Y-57699529D01*
X84217858Y-57638242D01*
X84374925Y-57607000D01*
X84535075Y-57607000D01*
X84692142Y-57638242D01*
X84692142Y-57638242D01*
G37*
G36*
X110092142Y-57638242D02*
G01*
X110240101Y-57699529D01*
X110373255Y-57788499D01*
X110486501Y-57901745D01*
X110575471Y-58034899D01*
X110636758Y-58182858D01*
X110668000Y-58339925D01*
X110668000Y-58500075D01*
X110636758Y-58657142D01*
X110575471Y-58805101D01*
X110486501Y-58938255D01*
X110373255Y-59051501D01*
X110240101Y-59140471D01*
X110092142Y-59201758D01*
X109935075Y-59233000D01*
X109774925Y-59233000D01*
X109617858Y-59201758D01*
X109469899Y-59140471D01*
X109336745Y-59051501D01*
X109223499Y-58938255D01*
X109134529Y-58805101D01*
X109073242Y-58657142D01*
X109042000Y-58500075D01*
X109042000Y-58339925D01*
X109073242Y-58182858D01*
X109134529Y-58034899D01*
X109223499Y-57901745D01*
X109336745Y-57788499D01*
X109469899Y-57699529D01*
X109617858Y-57638242D01*
X109774925Y-57607000D01*
X109935075Y-57607000D01*
X110092142Y-57638242D01*
X110092142Y-57638242D01*
G37*
G36*
X130412142Y-57638242D02*
G01*
X130560101Y-57699529D01*
X130693255Y-57788499D01*
X130806501Y-57901745D01*
X130895471Y-58034899D01*
X130956758Y-58182858D01*
X130988000Y-58339925D01*
X130988000Y-58500075D01*
X130956758Y-58657142D01*
X130895471Y-58805101D01*
X130806501Y-58938255D01*
X130693255Y-59051501D01*
X130560101Y-59140471D01*
X130412142Y-59201758D01*
X130255075Y-59233000D01*
X130094925Y-59233000D01*
X129937858Y-59201758D01*
X129789899Y-59140471D01*
X129656745Y-59051501D01*
X129543499Y-58938255D01*
X129454529Y-58805101D01*
X129393242Y-58657142D01*
X129362000Y-58500075D01*
X129362000Y-58339925D01*
X129393242Y-58182858D01*
X129454529Y-58034899D01*
X129543499Y-57901745D01*
X129656745Y-57788499D01*
X129789899Y-57699529D01*
X129937858Y-57638242D01*
X130094925Y-57607000D01*
X130255075Y-57607000D01*
X130412142Y-57638242D01*
X130412142Y-57638242D01*
G37*
G36*
X127872142Y-57638242D02*
G01*
X128020101Y-57699529D01*
X128153255Y-57788499D01*
X128266501Y-57901745D01*
X128355471Y-58034899D01*
X128416758Y-58182858D01*
X128448000Y-58339925D01*
X128448000Y-58500075D01*
X128416758Y-58657142D01*
X128355471Y-58805101D01*
X128266501Y-58938255D01*
X128153255Y-59051501D01*
X128020101Y-59140471D01*
X127872142Y-59201758D01*
X127715075Y-59233000D01*
X127554925Y-59233000D01*
X127397858Y-59201758D01*
X127249899Y-59140471D01*
X127116745Y-59051501D01*
X127003499Y-58938255D01*
X126914529Y-58805101D01*
X126853242Y-58657142D01*
X126822000Y-58500075D01*
X126822000Y-58339925D01*
X126853242Y-58182858D01*
X126914529Y-58034899D01*
X127003499Y-57901745D01*
X127116745Y-57788499D01*
X127249899Y-57699529D01*
X127397858Y-57638242D01*
X127554925Y-57607000D01*
X127715075Y-57607000D01*
X127872142Y-57638242D01*
X127872142Y-57638242D01*
G37*
G36*
X122792142Y-57638242D02*
G01*
X122940101Y-57699529D01*
X123073255Y-57788499D01*
X123186501Y-57901745D01*
X123275471Y-58034899D01*
X123336758Y-58182858D01*
X123368000Y-58339925D01*
X123368000Y-58500075D01*
X123336758Y-58657142D01*
X123275471Y-58805101D01*
X123186501Y-58938255D01*
X123073255Y-59051501D01*
X122940101Y-59140471D01*
X122792142Y-59201758D01*
X122635075Y-59233000D01*
X122474925Y-59233000D01*
X122317858Y-59201758D01*
X122169899Y-59140471D01*
X122036745Y-59051501D01*
X121923499Y-58938255D01*
X121834529Y-58805101D01*
X121773242Y-58657142D01*
X121742000Y-58500075D01*
X121742000Y-58339925D01*
X121773242Y-58182858D01*
X121834529Y-58034899D01*
X121923499Y-57901745D01*
X122036745Y-57788499D01*
X122169899Y-57699529D01*
X122317858Y-57638242D01*
X122474925Y-57607000D01*
X122635075Y-57607000D01*
X122792142Y-57638242D01*
X122792142Y-57638242D01*
G37*
G36*
X132952142Y-57638242D02*
G01*
X133100101Y-57699529D01*
X133233255Y-57788499D01*
X133346501Y-57901745D01*
X133435471Y-58034899D01*
X133496758Y-58182858D01*
X133528000Y-58339925D01*
X133528000Y-58500075D01*
X133496758Y-58657142D01*
X133435471Y-58805101D01*
X133346501Y-58938255D01*
X133233255Y-59051501D01*
X133100101Y-59140471D01*
X132952142Y-59201758D01*
X132795075Y-59233000D01*
X132634925Y-59233000D01*
X132477858Y-59201758D01*
X132329899Y-59140471D01*
X132196745Y-59051501D01*
X132083499Y-58938255D01*
X131994529Y-58805101D01*
X131933242Y-58657142D01*
X131902000Y-58500075D01*
X131902000Y-58339925D01*
X131933242Y-58182858D01*
X131994529Y-58034899D01*
X132083499Y-57901745D01*
X132196745Y-57788499D01*
X132329899Y-57699529D01*
X132477858Y-57638242D01*
X132634925Y-57607000D01*
X132795075Y-57607000D01*
X132952142Y-57638242D01*
X132952142Y-57638242D01*
G37*
G36*
X135492142Y-57638242D02*
G01*
X135640101Y-57699529D01*
X135773255Y-57788499D01*
X135886501Y-57901745D01*
X135975471Y-58034899D01*
X136036758Y-58182858D01*
X136068000Y-58339925D01*
X136068000Y-58500075D01*
X136036758Y-58657142D01*
X135975471Y-58805101D01*
X135886501Y-58938255D01*
X135773255Y-59051501D01*
X135640101Y-59140471D01*
X135492142Y-59201758D01*
X135335075Y-59233000D01*
X135174925Y-59233000D01*
X135017858Y-59201758D01*
X134869899Y-59140471D01*
X134736745Y-59051501D01*
X134623499Y-58938255D01*
X134534529Y-58805101D01*
X134473242Y-58657142D01*
X134442000Y-58500075D01*
X134442000Y-58339925D01*
X134473242Y-58182858D01*
X134534529Y-58034899D01*
X134623499Y-57901745D01*
X134736745Y-57788499D01*
X134869899Y-57699529D01*
X135017858Y-57638242D01*
X135174925Y-57607000D01*
X135335075Y-57607000D01*
X135492142Y-57638242D01*
X135492142Y-57638242D01*
G37*
G36*
X97392142Y-57638242D02*
G01*
X97540101Y-57699529D01*
X97673255Y-57788499D01*
X97786501Y-57901745D01*
X97875471Y-58034899D01*
X97936758Y-58182858D01*
X97968000Y-58339925D01*
X97968000Y-58500075D01*
X97936758Y-58657142D01*
X97875471Y-58805101D01*
X97786501Y-58938255D01*
X97673255Y-59051501D01*
X97540101Y-59140471D01*
X97392142Y-59201758D01*
X97235075Y-59233000D01*
X97074925Y-59233000D01*
X96917858Y-59201758D01*
X96769899Y-59140471D01*
X96636745Y-59051501D01*
X96523499Y-58938255D01*
X96434529Y-58805101D01*
X96373242Y-58657142D01*
X96342000Y-58500075D01*
X96342000Y-58339925D01*
X96373242Y-58182858D01*
X96434529Y-58034899D01*
X96523499Y-57901745D01*
X96636745Y-57788499D01*
X96769899Y-57699529D01*
X96917858Y-57638242D01*
X97074925Y-57607000D01*
X97235075Y-57607000D01*
X97392142Y-57638242D01*
X97392142Y-57638242D01*
G37*
G36*
X99932142Y-57638242D02*
G01*
X100080101Y-57699529D01*
X100213255Y-57788499D01*
X100326501Y-57901745D01*
X100415471Y-58034899D01*
X100476758Y-58182858D01*
X100508000Y-58339925D01*
X100508000Y-58500075D01*
X100476758Y-58657142D01*
X100415471Y-58805101D01*
X100326501Y-58938255D01*
X100213255Y-59051501D01*
X100080101Y-59140471D01*
X99932142Y-59201758D01*
X99775075Y-59233000D01*
X99614925Y-59233000D01*
X99457858Y-59201758D01*
X99309899Y-59140471D01*
X99176745Y-59051501D01*
X99063499Y-58938255D01*
X98974529Y-58805101D01*
X98913242Y-58657142D01*
X98882000Y-58500075D01*
X98882000Y-58339925D01*
X98913242Y-58182858D01*
X98974529Y-58034899D01*
X99063499Y-57901745D01*
X99176745Y-57788499D01*
X99309899Y-57699529D01*
X99457858Y-57638242D01*
X99614925Y-57607000D01*
X99775075Y-57607000D01*
X99932142Y-57638242D01*
X99932142Y-57638242D01*
G37*
G36*
X102472142Y-57638242D02*
G01*
X102620101Y-57699529D01*
X102753255Y-57788499D01*
X102866501Y-57901745D01*
X102955471Y-58034899D01*
X103016758Y-58182858D01*
X103048000Y-58339925D01*
X103048000Y-58500075D01*
X103016758Y-58657142D01*
X102955471Y-58805101D01*
X102866501Y-58938255D01*
X102753255Y-59051501D01*
X102620101Y-59140471D01*
X102472142Y-59201758D01*
X102315075Y-59233000D01*
X102154925Y-59233000D01*
X101997858Y-59201758D01*
X101849899Y-59140471D01*
X101716745Y-59051501D01*
X101603499Y-58938255D01*
X101514529Y-58805101D01*
X101453242Y-58657142D01*
X101422000Y-58500075D01*
X101422000Y-58339925D01*
X101453242Y-58182858D01*
X101514529Y-58034899D01*
X101603499Y-57901745D01*
X101716745Y-57788499D01*
X101849899Y-57699529D01*
X101997858Y-57638242D01*
X102154925Y-57607000D01*
X102315075Y-57607000D01*
X102472142Y-57638242D01*
X102472142Y-57638242D01*
G37*
G36*
X105012142Y-57638242D02*
G01*
X105160101Y-57699529D01*
X105293255Y-57788499D01*
X105406501Y-57901745D01*
X105495471Y-58034899D01*
X105556758Y-58182858D01*
X105588000Y-58339925D01*
X105588000Y-58500075D01*
X105556758Y-58657142D01*
X105495471Y-58805101D01*
X105406501Y-58938255D01*
X105293255Y-59051501D01*
X105160101Y-59140471D01*
X105012142Y-59201758D01*
X104855075Y-59233000D01*
X104694925Y-59233000D01*
X104537858Y-59201758D01*
X104389899Y-59140471D01*
X104256745Y-59051501D01*
X104143499Y-58938255D01*
X104054529Y-58805101D01*
X103993242Y-58657142D01*
X103962000Y-58500075D01*
X103962000Y-58339925D01*
X103993242Y-58182858D01*
X104054529Y-58034899D01*
X104143499Y-57901745D01*
X104256745Y-57788499D01*
X104389899Y-57699529D01*
X104537858Y-57638242D01*
X104694925Y-57607000D01*
X104855075Y-57607000D01*
X105012142Y-57638242D01*
X105012142Y-57638242D01*
G37*
G36*
X107552142Y-57638242D02*
G01*
X107700101Y-57699529D01*
X107833255Y-57788499D01*
X107946501Y-57901745D01*
X108035471Y-58034899D01*
X108096758Y-58182858D01*
X108128000Y-58339925D01*
X108128000Y-58500075D01*
X108096758Y-58657142D01*
X108035471Y-58805101D01*
X107946501Y-58938255D01*
X107833255Y-59051501D01*
X107700101Y-59140471D01*
X107552142Y-59201758D01*
X107395075Y-59233000D01*
X107234925Y-59233000D01*
X107077858Y-59201758D01*
X106929899Y-59140471D01*
X106796745Y-59051501D01*
X106683499Y-58938255D01*
X106594529Y-58805101D01*
X106533242Y-58657142D01*
X106502000Y-58500075D01*
X106502000Y-58339925D01*
X106533242Y-58182858D01*
X106594529Y-58034899D01*
X106683499Y-57901745D01*
X106796745Y-57788499D01*
X106929899Y-57699529D01*
X107077858Y-57638242D01*
X107234925Y-57607000D01*
X107395075Y-57607000D01*
X107552142Y-57638242D01*
X107552142Y-57638242D01*
G37*
G36*
X115172142Y-57638242D02*
G01*
X115320101Y-57699529D01*
X115453255Y-57788499D01*
X115566501Y-57901745D01*
X115655471Y-58034899D01*
X115716758Y-58182858D01*
X115748000Y-58339925D01*
X115748000Y-58500075D01*
X115716758Y-58657142D01*
X115655471Y-58805101D01*
X115566501Y-58938255D01*
X115453255Y-59051501D01*
X115320101Y-59140471D01*
X115172142Y-59201758D01*
X115015075Y-59233000D01*
X114854925Y-59233000D01*
X114697858Y-59201758D01*
X114549899Y-59140471D01*
X114416745Y-59051501D01*
X114303499Y-58938255D01*
X114214529Y-58805101D01*
X114153242Y-58657142D01*
X114122000Y-58500075D01*
X114122000Y-58339925D01*
X114153242Y-58182858D01*
X114214529Y-58034899D01*
X114303499Y-57901745D01*
X114416745Y-57788499D01*
X114549899Y-57699529D01*
X114697858Y-57638242D01*
X114854925Y-57607000D01*
X115015075Y-57607000D01*
X115172142Y-57638242D01*
X115172142Y-57638242D01*
G37*
G36*
X117712142Y-57638242D02*
G01*
X117860101Y-57699529D01*
X117993255Y-57788499D01*
X118106501Y-57901745D01*
X118195471Y-58034899D01*
X118256758Y-58182858D01*
X118288000Y-58339925D01*
X118288000Y-58500075D01*
X118256758Y-58657142D01*
X118195471Y-58805101D01*
X118106501Y-58938255D01*
X117993255Y-59051501D01*
X117860101Y-59140471D01*
X117712142Y-59201758D01*
X117555075Y-59233000D01*
X117394925Y-59233000D01*
X117237858Y-59201758D01*
X117089899Y-59140471D01*
X116956745Y-59051501D01*
X116843499Y-58938255D01*
X116754529Y-58805101D01*
X116693242Y-58657142D01*
X116662000Y-58500075D01*
X116662000Y-58339925D01*
X116693242Y-58182858D01*
X116754529Y-58034899D01*
X116843499Y-57901745D01*
X116956745Y-57788499D01*
X117089899Y-57699529D01*
X117237858Y-57638242D01*
X117394925Y-57607000D01*
X117555075Y-57607000D01*
X117712142Y-57638242D01*
X117712142Y-57638242D01*
G37*
G36*
X120252142Y-57638242D02*
G01*
X120400101Y-57699529D01*
X120533255Y-57788499D01*
X120646501Y-57901745D01*
X120735471Y-58034899D01*
X120796758Y-58182858D01*
X120828000Y-58339925D01*
X120828000Y-58500075D01*
X120796758Y-58657142D01*
X120735471Y-58805101D01*
X120646501Y-58938255D01*
X120533255Y-59051501D01*
X120400101Y-59140471D01*
X120252142Y-59201758D01*
X120095075Y-59233000D01*
X119934925Y-59233000D01*
X119777858Y-59201758D01*
X119629899Y-59140471D01*
X119496745Y-59051501D01*
X119383499Y-58938255D01*
X119294529Y-58805101D01*
X119233242Y-58657142D01*
X119202000Y-58500075D01*
X119202000Y-58339925D01*
X119233242Y-58182858D01*
X119294529Y-58034899D01*
X119383499Y-57901745D01*
X119496745Y-57788499D01*
X119629899Y-57699529D01*
X119777858Y-57638242D01*
X119934925Y-57607000D01*
X120095075Y-57607000D01*
X120252142Y-57638242D01*
X120252142Y-57638242D01*
G37*
G36*
X125332142Y-57638242D02*
G01*
X125480101Y-57699529D01*
X125613255Y-57788499D01*
X125726501Y-57901745D01*
X125815471Y-58034899D01*
X125876758Y-58182858D01*
X125908000Y-58339925D01*
X125908000Y-58500075D01*
X125876758Y-58657142D01*
X125815471Y-58805101D01*
X125726501Y-58938255D01*
X125613255Y-59051501D01*
X125480101Y-59140471D01*
X125332142Y-59201758D01*
X125175075Y-59233000D01*
X125014925Y-59233000D01*
X124857858Y-59201758D01*
X124709899Y-59140471D01*
X124576745Y-59051501D01*
X124463499Y-58938255D01*
X124374529Y-58805101D01*
X124313242Y-58657142D01*
X124282000Y-58500075D01*
X124282000Y-58339925D01*
X124313242Y-58182858D01*
X124374529Y-58034899D01*
X124463499Y-57901745D01*
X124576745Y-57788499D01*
X124709899Y-57699529D01*
X124857858Y-57638242D01*
X125014925Y-57607000D01*
X125175075Y-57607000D01*
X125332142Y-57638242D01*
X125332142Y-57638242D01*
G37*
G36*
X156687932Y-50494466D02*
G01*
X156986119Y-50617979D01*
X156986121Y-50617980D01*
X157254483Y-50797294D01*
X157482706Y-51025517D01*
X157620656Y-51231974D01*
X157662021Y-51293881D01*
X157785534Y-51592068D01*
X157848500Y-51908620D01*
X157848500Y-52231380D01*
X157785534Y-52547932D01*
X157662021Y-52846119D01*
X157662020Y-52846121D01*
X157482706Y-53114483D01*
X157254483Y-53342706D01*
X156986121Y-53522020D01*
X156986120Y-53522021D01*
X156986119Y-53522021D01*
X156687932Y-53645534D01*
X156371380Y-53708500D01*
X156048620Y-53708500D01*
X155732068Y-53645534D01*
X155433881Y-53522021D01*
X155433880Y-53522021D01*
X155433879Y-53522020D01*
X155165517Y-53342706D01*
X154937294Y-53114483D01*
X154757980Y-52846121D01*
X154757979Y-52846119D01*
X154634466Y-52547932D01*
X154571500Y-52231380D01*
X154571500Y-51908620D01*
X154634466Y-51592068D01*
X154757979Y-51293881D01*
X154799344Y-51231974D01*
X154937294Y-51025517D01*
X155165517Y-50797294D01*
X155433879Y-50617980D01*
X155433881Y-50617979D01*
X155732068Y-50494466D01*
X156048620Y-50431500D01*
X156371380Y-50431500D01*
X156687932Y-50494466D01*
X156687932Y-50494466D01*
G37*
G36*
X78867617Y-49758420D02*
G01*
X78944245Y-49781665D01*
X78990335Y-49795646D01*
X79103424Y-49856094D01*
X79202554Y-49937447D01*
X79283906Y-50036575D01*
X79344354Y-50149664D01*
X79347944Y-50161499D01*
X79381580Y-50272382D01*
X79391000Y-50368027D01*
X79391000Y-51231973D01*
X79381580Y-51327618D01*
X79354040Y-51418404D01*
X79344354Y-51450336D01*
X79283906Y-51563425D01*
X79202554Y-51662554D01*
X79103425Y-51743906D01*
X78990336Y-51804354D01*
X78958404Y-51814040D01*
X78867618Y-51841580D01*
X78740000Y-51854149D01*
X78612383Y-51841580D01*
X78521597Y-51814040D01*
X78489665Y-51804354D01*
X78376576Y-51743906D01*
X78277447Y-51662554D01*
X78196095Y-51563425D01*
X78135647Y-51450336D01*
X78129933Y-51431499D01*
X78098420Y-51327618D01*
X78089000Y-51231973D01*
X78089000Y-50368028D01*
X78098420Y-50272383D01*
X78135645Y-50149669D01*
X78135646Y-50149665D01*
X78196094Y-50036576D01*
X78277447Y-49937446D01*
X78376575Y-49856094D01*
X78489664Y-49795646D01*
X78535754Y-49781665D01*
X78612382Y-49758420D01*
X78740000Y-49745851D01*
X78867617Y-49758420D01*
X78867617Y-49758420D01*
G37*
G36*
X99187617Y-49758420D02*
G01*
X99264245Y-49781665D01*
X99310335Y-49795646D01*
X99423424Y-49856094D01*
X99522554Y-49937447D01*
X99603906Y-50036575D01*
X99664354Y-50149664D01*
X99667944Y-50161499D01*
X99701580Y-50272382D01*
X99711000Y-50368027D01*
X99711000Y-51231973D01*
X99701580Y-51327618D01*
X99674040Y-51418404D01*
X99664354Y-51450336D01*
X99603906Y-51563425D01*
X99522554Y-51662554D01*
X99423425Y-51743906D01*
X99310336Y-51804354D01*
X99278404Y-51814040D01*
X99187618Y-51841580D01*
X99060000Y-51854149D01*
X98932383Y-51841580D01*
X98841597Y-51814040D01*
X98809665Y-51804354D01*
X98696576Y-51743906D01*
X98597447Y-51662554D01*
X98516095Y-51563425D01*
X98455647Y-51450336D01*
X98449933Y-51431499D01*
X98418420Y-51327618D01*
X98409000Y-51231973D01*
X98409000Y-50368028D01*
X98418420Y-50272383D01*
X98455645Y-50149669D01*
X98455646Y-50149665D01*
X98516094Y-50036576D01*
X98597447Y-49937446D01*
X98696575Y-49856094D01*
X98809664Y-49795646D01*
X98855754Y-49781665D01*
X98932382Y-49758420D01*
X99060000Y-49745851D01*
X99187617Y-49758420D01*
X99187617Y-49758420D01*
G37*
G36*
X81407617Y-49758420D02*
G01*
X81484245Y-49781665D01*
X81530335Y-49795646D01*
X81643424Y-49856094D01*
X81742554Y-49937447D01*
X81823906Y-50036575D01*
X81884354Y-50149664D01*
X81887944Y-50161499D01*
X81921580Y-50272382D01*
X81931000Y-50368027D01*
X81931000Y-51231973D01*
X81921580Y-51327618D01*
X81894040Y-51418404D01*
X81884354Y-51450336D01*
X81823906Y-51563425D01*
X81742554Y-51662554D01*
X81643425Y-51743906D01*
X81530336Y-51804354D01*
X81498404Y-51814040D01*
X81407618Y-51841580D01*
X81280000Y-51854149D01*
X81152383Y-51841580D01*
X81061597Y-51814040D01*
X81029665Y-51804354D01*
X80916576Y-51743906D01*
X80817447Y-51662554D01*
X80736095Y-51563425D01*
X80675647Y-51450336D01*
X80669933Y-51431499D01*
X80638420Y-51327618D01*
X80629000Y-51231973D01*
X80629000Y-50368028D01*
X80638420Y-50272383D01*
X80675645Y-50149669D01*
X80675646Y-50149665D01*
X80736094Y-50036576D01*
X80817447Y-49937446D01*
X80916575Y-49856094D01*
X81029664Y-49795646D01*
X81075754Y-49781665D01*
X81152382Y-49758420D01*
X81280000Y-49745851D01*
X81407617Y-49758420D01*
X81407617Y-49758420D01*
G37*
G36*
X83947617Y-49758420D02*
G01*
X84024245Y-49781665D01*
X84070335Y-49795646D01*
X84183424Y-49856094D01*
X84282554Y-49937447D01*
X84363906Y-50036575D01*
X84424354Y-50149664D01*
X84427944Y-50161499D01*
X84461580Y-50272382D01*
X84471000Y-50368027D01*
X84471000Y-51231973D01*
X84461580Y-51327618D01*
X84434040Y-51418404D01*
X84424354Y-51450336D01*
X84363906Y-51563425D01*
X84282554Y-51662554D01*
X84183425Y-51743906D01*
X84070336Y-51804354D01*
X84038404Y-51814040D01*
X83947618Y-51841580D01*
X83820000Y-51854149D01*
X83692383Y-51841580D01*
X83601597Y-51814040D01*
X83569665Y-51804354D01*
X83456576Y-51743906D01*
X83357447Y-51662554D01*
X83276095Y-51563425D01*
X83215647Y-51450336D01*
X83209933Y-51431499D01*
X83178420Y-51327618D01*
X83169000Y-51231973D01*
X83169000Y-50368028D01*
X83178420Y-50272383D01*
X83215645Y-50149669D01*
X83215646Y-50149665D01*
X83276094Y-50036576D01*
X83357447Y-49937446D01*
X83456575Y-49856094D01*
X83569664Y-49795646D01*
X83615754Y-49781665D01*
X83692382Y-49758420D01*
X83820000Y-49745851D01*
X83947617Y-49758420D01*
X83947617Y-49758420D01*
G37*
G36*
X96647617Y-49758420D02*
G01*
X96724245Y-49781665D01*
X96770335Y-49795646D01*
X96883424Y-49856094D01*
X96982554Y-49937447D01*
X97063906Y-50036575D01*
X97124354Y-50149664D01*
X97127944Y-50161499D01*
X97161580Y-50272382D01*
X97171000Y-50368027D01*
X97171000Y-51231973D01*
X97161580Y-51327618D01*
X97134040Y-51418404D01*
X97124354Y-51450336D01*
X97063906Y-51563425D01*
X96982554Y-51662554D01*
X96883425Y-51743906D01*
X96770336Y-51804354D01*
X96738404Y-51814040D01*
X96647618Y-51841580D01*
X96520000Y-51854149D01*
X96392383Y-51841580D01*
X96301597Y-51814040D01*
X96269665Y-51804354D01*
X96156576Y-51743906D01*
X96057447Y-51662554D01*
X95976095Y-51563425D01*
X95915647Y-51450336D01*
X95909933Y-51431499D01*
X95878420Y-51327618D01*
X95869000Y-51231973D01*
X95869000Y-50368028D01*
X95878420Y-50272383D01*
X95915645Y-50149669D01*
X95915646Y-50149665D01*
X95976094Y-50036576D01*
X96057447Y-49937446D01*
X96156575Y-49856094D01*
X96269664Y-49795646D01*
X96315754Y-49781665D01*
X96392382Y-49758420D01*
X96520000Y-49745851D01*
X96647617Y-49758420D01*
X96647617Y-49758420D01*
G37*
G36*
X94107617Y-49758420D02*
G01*
X94184245Y-49781665D01*
X94230335Y-49795646D01*
X94343424Y-49856094D01*
X94442554Y-49937447D01*
X94523906Y-50036575D01*
X94584354Y-50149664D01*
X94587944Y-50161499D01*
X94621580Y-50272382D01*
X94631000Y-50368027D01*
X94631000Y-51231973D01*
X94621580Y-51327618D01*
X94594040Y-51418404D01*
X94584354Y-51450336D01*
X94523906Y-51563425D01*
X94442554Y-51662554D01*
X94343425Y-51743906D01*
X94230336Y-51804354D01*
X94198404Y-51814040D01*
X94107618Y-51841580D01*
X93980000Y-51854149D01*
X93852383Y-51841580D01*
X93761597Y-51814040D01*
X93729665Y-51804354D01*
X93616576Y-51743906D01*
X93517447Y-51662554D01*
X93436095Y-51563425D01*
X93375647Y-51450336D01*
X93369933Y-51431499D01*
X93338420Y-51327618D01*
X93329000Y-51231973D01*
X93329000Y-50368028D01*
X93338420Y-50272383D01*
X93375645Y-50149669D01*
X93375646Y-50149665D01*
X93436094Y-50036576D01*
X93517447Y-49937446D01*
X93616575Y-49856094D01*
X93729664Y-49795646D01*
X93775754Y-49781665D01*
X93852382Y-49758420D01*
X93980000Y-49745851D01*
X94107617Y-49758420D01*
X94107617Y-49758420D01*
G37*
G36*
X91567617Y-49758420D02*
G01*
X91644245Y-49781665D01*
X91690335Y-49795646D01*
X91803424Y-49856094D01*
X91902554Y-49937447D01*
X91983906Y-50036575D01*
X92044354Y-50149664D01*
X92047944Y-50161499D01*
X92081580Y-50272382D01*
X92091000Y-50368027D01*
X92091000Y-51231973D01*
X92081580Y-51327618D01*
X92054040Y-51418404D01*
X92044354Y-51450336D01*
X91983906Y-51563425D01*
X91902554Y-51662554D01*
X91803425Y-51743906D01*
X91690336Y-51804354D01*
X91658404Y-51814040D01*
X91567618Y-51841580D01*
X91440000Y-51854149D01*
X91312383Y-51841580D01*
X91221597Y-51814040D01*
X91189665Y-51804354D01*
X91076576Y-51743906D01*
X90977447Y-51662554D01*
X90896095Y-51563425D01*
X90835647Y-51450336D01*
X90829933Y-51431499D01*
X90798420Y-51327618D01*
X90789000Y-51231973D01*
X90789000Y-50368028D01*
X90798420Y-50272383D01*
X90835645Y-50149669D01*
X90835646Y-50149665D01*
X90896094Y-50036576D01*
X90977447Y-49937446D01*
X91076575Y-49856094D01*
X91189664Y-49795646D01*
X91235754Y-49781665D01*
X91312382Y-49758420D01*
X91440000Y-49745851D01*
X91567617Y-49758420D01*
X91567617Y-49758420D01*
G37*
G36*
X89027617Y-49758420D02*
G01*
X89104245Y-49781665D01*
X89150335Y-49795646D01*
X89263424Y-49856094D01*
X89362554Y-49937447D01*
X89443906Y-50036575D01*
X89504354Y-50149664D01*
X89507944Y-50161499D01*
X89541580Y-50272382D01*
X89551000Y-50368027D01*
X89551000Y-51231973D01*
X89541580Y-51327618D01*
X89514040Y-51418404D01*
X89504354Y-51450336D01*
X89443906Y-51563425D01*
X89362554Y-51662554D01*
X89263425Y-51743906D01*
X89150336Y-51804354D01*
X89118404Y-51814040D01*
X89027618Y-51841580D01*
X88900000Y-51854149D01*
X88772383Y-51841580D01*
X88681597Y-51814040D01*
X88649665Y-51804354D01*
X88536576Y-51743906D01*
X88437447Y-51662554D01*
X88356095Y-51563425D01*
X88295647Y-51450336D01*
X88289933Y-51431499D01*
X88258420Y-51327618D01*
X88249000Y-51231973D01*
X88249000Y-50368028D01*
X88258420Y-50272383D01*
X88295645Y-50149669D01*
X88295646Y-50149665D01*
X88356094Y-50036576D01*
X88437447Y-49937446D01*
X88536575Y-49856094D01*
X88649664Y-49795646D01*
X88695754Y-49781665D01*
X88772382Y-49758420D01*
X88900000Y-49745851D01*
X89027617Y-49758420D01*
X89027617Y-49758420D01*
G37*
G36*
X86487617Y-49758420D02*
G01*
X86564245Y-49781665D01*
X86610335Y-49795646D01*
X86723424Y-49856094D01*
X86822554Y-49937447D01*
X86903906Y-50036575D01*
X86964354Y-50149664D01*
X86967944Y-50161499D01*
X87001580Y-50272382D01*
X87011000Y-50368027D01*
X87011000Y-51231973D01*
X87001580Y-51327618D01*
X86974040Y-51418404D01*
X86964354Y-51450336D01*
X86903906Y-51563425D01*
X86822554Y-51662554D01*
X86723425Y-51743906D01*
X86610336Y-51804354D01*
X86578404Y-51814040D01*
X86487618Y-51841580D01*
X86360000Y-51854149D01*
X86232383Y-51841580D01*
X86141597Y-51814040D01*
X86109665Y-51804354D01*
X85996576Y-51743906D01*
X85897447Y-51662554D01*
X85816095Y-51563425D01*
X85755647Y-51450336D01*
X85749933Y-51431499D01*
X85718420Y-51327618D01*
X85709000Y-51231973D01*
X85709000Y-50368028D01*
X85718420Y-50272383D01*
X85755645Y-50149669D01*
X85755646Y-50149665D01*
X85816094Y-50036576D01*
X85897447Y-49937446D01*
X85996575Y-49856094D01*
X86109664Y-49795646D01*
X86155754Y-49781665D01*
X86232382Y-49758420D01*
X86360000Y-49745851D01*
X86487617Y-49758420D01*
X86487617Y-49758420D01*
G37*
G36*
X147557142Y-50018242D02*
G01*
X147705101Y-50079529D01*
X147838255Y-50168499D01*
X147951501Y-50281745D01*
X148040471Y-50414899D01*
X148101758Y-50562858D01*
X148133000Y-50719925D01*
X148133000Y-50880075D01*
X148101758Y-51037142D01*
X148040471Y-51185101D01*
X147951501Y-51318255D01*
X147838255Y-51431501D01*
X147705101Y-51520471D01*
X147557142Y-51581758D01*
X147400075Y-51613000D01*
X147239925Y-51613000D01*
X147082858Y-51581758D01*
X146934899Y-51520471D01*
X146801745Y-51431501D01*
X146688499Y-51318255D01*
X146599529Y-51185101D01*
X146538242Y-51037142D01*
X146507000Y-50880075D01*
X146507000Y-50719925D01*
X146538242Y-50562858D01*
X146599529Y-50414899D01*
X146688499Y-50281745D01*
X146801745Y-50168499D01*
X146934899Y-50079529D01*
X147082858Y-50018242D01*
X147239925Y-49987000D01*
X147400075Y-49987000D01*
X147557142Y-50018242D01*
X147557142Y-50018242D01*
G37*
G36*
X150097142Y-48748242D02*
G01*
X150245101Y-48809529D01*
X150378255Y-48898499D01*
X150491501Y-49011745D01*
X150580471Y-49144899D01*
X150641758Y-49292858D01*
X150673000Y-49449925D01*
X150673000Y-49610075D01*
X150641758Y-49767142D01*
X150580471Y-49915101D01*
X150491501Y-50048255D01*
X150378255Y-50161501D01*
X150245101Y-50250471D01*
X150097142Y-50311758D01*
X149940075Y-50343000D01*
X149779925Y-50343000D01*
X149622858Y-50311758D01*
X149474899Y-50250471D01*
X149341745Y-50161501D01*
X149228499Y-50048255D01*
X149139529Y-49915101D01*
X149078242Y-49767142D01*
X149047000Y-49610075D01*
X149047000Y-49449925D01*
X149078242Y-49292858D01*
X149139529Y-49144899D01*
X149228499Y-49011745D01*
X149341745Y-48898499D01*
X149474899Y-48809529D01*
X149622858Y-48748242D01*
X149779925Y-48717000D01*
X149940075Y-48717000D01*
X150097142Y-48748242D01*
X150097142Y-48748242D01*
G37*
G36*
X137857890Y-47150017D02*
G01*
X137976364Y-47199091D01*
X138082988Y-47270335D01*
X138173665Y-47361012D01*
X138244910Y-47467638D01*
X138293983Y-47586110D01*
X138318720Y-47710471D01*
X138319000Y-47711882D01*
X138319000Y-47840118D01*
X138293983Y-47965890D01*
X138244909Y-48084364D01*
X138173665Y-48190988D01*
X138082988Y-48281665D01*
X137976364Y-48352909D01*
X137857890Y-48401983D01*
X137850751Y-48403403D01*
X137827302Y-48410516D01*
X137805691Y-48422067D01*
X137786749Y-48437612D01*
X137771203Y-48456554D01*
X137759652Y-48478164D01*
X137752539Y-48501613D01*
X137750137Y-48525999D01*
X137752539Y-48550385D01*
X137759652Y-48573834D01*
X137771203Y-48595445D01*
X137786748Y-48614387D01*
X137805690Y-48629933D01*
X137827300Y-48641484D01*
X137850751Y-48648597D01*
X137857890Y-48650017D01*
X137976364Y-48699091D01*
X138049925Y-48748243D01*
X138082988Y-48770335D01*
X138173665Y-48861012D01*
X138244910Y-48967638D01*
X138263179Y-49011743D01*
X138293983Y-49086110D01*
X138319000Y-49211882D01*
X138319000Y-49340118D01*
X138293983Y-49465890D01*
X138244909Y-49584364D01*
X138173665Y-49690988D01*
X138082988Y-49781665D01*
X137976364Y-49852909D01*
X137976363Y-49852910D01*
X137976362Y-49852910D01*
X137857890Y-49901983D01*
X137732119Y-49927000D01*
X137603881Y-49927000D01*
X137478110Y-49901983D01*
X137359638Y-49852910D01*
X137359637Y-49852910D01*
X137359636Y-49852909D01*
X137253012Y-49781665D01*
X137162335Y-49690988D01*
X137091091Y-49584364D01*
X137042017Y-49465890D01*
X137017000Y-49340118D01*
X137017000Y-49211882D01*
X137042017Y-49086110D01*
X137072821Y-49011743D01*
X137091090Y-48967638D01*
X137162335Y-48861012D01*
X137253012Y-48770335D01*
X137286075Y-48748243D01*
X137359636Y-48699091D01*
X137478110Y-48650017D01*
X137485249Y-48648597D01*
X137508698Y-48641484D01*
X137530309Y-48629933D01*
X137549251Y-48614388D01*
X137564797Y-48595446D01*
X137576348Y-48573836D01*
X137583461Y-48550387D01*
X137585863Y-48526001D01*
X137583461Y-48501615D01*
X137576348Y-48478166D01*
X137564797Y-48456555D01*
X137549252Y-48437613D01*
X137530310Y-48422067D01*
X137508700Y-48410516D01*
X137485249Y-48403403D01*
X137478110Y-48401983D01*
X137359636Y-48352909D01*
X137253012Y-48281665D01*
X137162335Y-48190988D01*
X137091091Y-48084364D01*
X137042017Y-47965890D01*
X137017000Y-47840118D01*
X137017000Y-47711882D01*
X137017281Y-47710471D01*
X137042017Y-47586110D01*
X137091090Y-47467638D01*
X137162335Y-47361012D01*
X137253012Y-47270335D01*
X137359636Y-47199091D01*
X137478110Y-47150017D01*
X137603881Y-47125000D01*
X137732119Y-47125000D01*
X137857890Y-47150017D01*
X137857890Y-47150017D01*
G37*
G36*
X111743142Y-47478242D02*
G01*
X111891101Y-47539529D01*
X112024255Y-47628499D01*
X112137501Y-47741745D01*
X112226471Y-47874899D01*
X112287758Y-48022858D01*
X112319000Y-48179925D01*
X112319000Y-48340075D01*
X112287758Y-48497142D01*
X112226471Y-48645101D01*
X112137501Y-48778255D01*
X112024255Y-48891501D01*
X111891101Y-48980471D01*
X111743142Y-49041758D01*
X111586075Y-49073000D01*
X111425925Y-49073000D01*
X111268858Y-49041758D01*
X111120899Y-48980471D01*
X110987745Y-48891501D01*
X110874499Y-48778255D01*
X110785529Y-48645101D01*
X110724242Y-48497142D01*
X110693000Y-48340075D01*
X110693000Y-48179925D01*
X110724242Y-48022858D01*
X110785529Y-47874899D01*
X110874499Y-47741745D01*
X110987745Y-47628499D01*
X111120899Y-47539529D01*
X111268858Y-47478242D01*
X111425925Y-47447000D01*
X111586075Y-47447000D01*
X111743142Y-47478242D01*
X111743142Y-47478242D01*
G37*
G36*
X106663142Y-47478242D02*
G01*
X106811101Y-47539529D01*
X106944255Y-47628499D01*
X107057501Y-47741745D01*
X107146471Y-47874899D01*
X107207758Y-48022858D01*
X107239000Y-48179925D01*
X107239000Y-48340075D01*
X107207758Y-48497142D01*
X107146471Y-48645101D01*
X107057501Y-48778255D01*
X106944255Y-48891501D01*
X106811101Y-48980471D01*
X106663142Y-49041758D01*
X106506075Y-49073000D01*
X106345925Y-49073000D01*
X106188858Y-49041758D01*
X106040899Y-48980471D01*
X105907745Y-48891501D01*
X105794499Y-48778255D01*
X105705529Y-48645101D01*
X105644242Y-48497142D01*
X105613000Y-48340075D01*
X105613000Y-48179925D01*
X105644242Y-48022858D01*
X105705529Y-47874899D01*
X105794499Y-47741745D01*
X105907745Y-47628499D01*
X106040899Y-47539529D01*
X106188858Y-47478242D01*
X106345925Y-47447000D01*
X106506075Y-47447000D01*
X106663142Y-47478242D01*
X106663142Y-47478242D01*
G37*
G36*
X109203142Y-47478242D02*
G01*
X109351101Y-47539529D01*
X109484255Y-47628499D01*
X109597501Y-47741745D01*
X109686471Y-47874899D01*
X109747758Y-48022858D01*
X109779000Y-48179925D01*
X109779000Y-48340075D01*
X109747758Y-48497142D01*
X109686471Y-48645101D01*
X109597501Y-48778255D01*
X109484255Y-48891501D01*
X109351101Y-48980471D01*
X109203142Y-49041758D01*
X109046075Y-49073000D01*
X108885925Y-49073000D01*
X108728858Y-49041758D01*
X108580899Y-48980471D01*
X108447745Y-48891501D01*
X108334499Y-48778255D01*
X108245529Y-48645101D01*
X108184242Y-48497142D01*
X108153000Y-48340075D01*
X108153000Y-48179925D01*
X108184242Y-48022858D01*
X108245529Y-47874899D01*
X108334499Y-47741745D01*
X108447745Y-47628499D01*
X108580899Y-47539529D01*
X108728858Y-47478242D01*
X108885925Y-47447000D01*
X109046075Y-47447000D01*
X109203142Y-47478242D01*
X109203142Y-47478242D01*
G37*
G36*
X114283142Y-47478242D02*
G01*
X114431101Y-47539529D01*
X114564255Y-47628499D01*
X114677501Y-47741745D01*
X114766471Y-47874899D01*
X114827758Y-48022858D01*
X114859000Y-48179925D01*
X114859000Y-48340075D01*
X114827758Y-48497142D01*
X114766471Y-48645101D01*
X114677501Y-48778255D01*
X114564255Y-48891501D01*
X114431101Y-48980471D01*
X114283142Y-49041758D01*
X114126075Y-49073000D01*
X113965925Y-49073000D01*
X113808858Y-49041758D01*
X113660899Y-48980471D01*
X113527745Y-48891501D01*
X113414499Y-48778255D01*
X113325529Y-48645101D01*
X113264242Y-48497142D01*
X113233000Y-48340075D01*
X113233000Y-48179925D01*
X113264242Y-48022858D01*
X113325529Y-47874899D01*
X113414499Y-47741745D01*
X113527745Y-47628499D01*
X113660899Y-47539529D01*
X113808858Y-47478242D01*
X113965925Y-47447000D01*
X114126075Y-47447000D01*
X114283142Y-47478242D01*
X114283142Y-47478242D01*
G37*
G36*
X116823142Y-47478242D02*
G01*
X116971101Y-47539529D01*
X117104255Y-47628499D01*
X117217501Y-47741745D01*
X117306471Y-47874899D01*
X117367758Y-48022858D01*
X117399000Y-48179925D01*
X117399000Y-48340075D01*
X117367758Y-48497142D01*
X117306471Y-48645101D01*
X117217501Y-48778255D01*
X117104255Y-48891501D01*
X116971101Y-48980471D01*
X116823142Y-49041758D01*
X116666075Y-49073000D01*
X116505925Y-49073000D01*
X116348858Y-49041758D01*
X116200899Y-48980471D01*
X116067745Y-48891501D01*
X115954499Y-48778255D01*
X115865529Y-48645101D01*
X115804242Y-48497142D01*
X115773000Y-48340075D01*
X115773000Y-48179925D01*
X115804242Y-48022858D01*
X115865529Y-47874899D01*
X115954499Y-47741745D01*
X116067745Y-47628499D01*
X116200899Y-47539529D01*
X116348858Y-47478242D01*
X116505925Y-47447000D01*
X116666075Y-47447000D01*
X116823142Y-47478242D01*
X116823142Y-47478242D01*
G37*
G36*
X119363142Y-47478242D02*
G01*
X119511101Y-47539529D01*
X119644255Y-47628499D01*
X119757501Y-47741745D01*
X119846471Y-47874899D01*
X119907758Y-48022858D01*
X119939000Y-48179925D01*
X119939000Y-48340075D01*
X119907758Y-48497142D01*
X119846471Y-48645101D01*
X119757501Y-48778255D01*
X119644255Y-48891501D01*
X119511101Y-48980471D01*
X119363142Y-49041758D01*
X119206075Y-49073000D01*
X119045925Y-49073000D01*
X118888858Y-49041758D01*
X118740899Y-48980471D01*
X118607745Y-48891501D01*
X118494499Y-48778255D01*
X118405529Y-48645101D01*
X118344242Y-48497142D01*
X118313000Y-48340075D01*
X118313000Y-48179925D01*
X118344242Y-48022858D01*
X118405529Y-47874899D01*
X118494499Y-47741745D01*
X118607745Y-47628499D01*
X118740899Y-47539529D01*
X118888858Y-47478242D01*
X119045925Y-47447000D01*
X119206075Y-47447000D01*
X119363142Y-47478242D01*
X119363142Y-47478242D01*
G37*
G36*
X126983142Y-47478242D02*
G01*
X127131101Y-47539529D01*
X127264255Y-47628499D01*
X127377501Y-47741745D01*
X127466471Y-47874899D01*
X127527758Y-48022858D01*
X127559000Y-48179925D01*
X127559000Y-48340075D01*
X127527758Y-48497142D01*
X127466471Y-48645101D01*
X127377501Y-48778255D01*
X127264255Y-48891501D01*
X127131101Y-48980471D01*
X126983142Y-49041758D01*
X126826075Y-49073000D01*
X126665925Y-49073000D01*
X126508858Y-49041758D01*
X126360899Y-48980471D01*
X126227745Y-48891501D01*
X126114499Y-48778255D01*
X126025529Y-48645101D01*
X125964242Y-48497142D01*
X125933000Y-48340075D01*
X125933000Y-48179925D01*
X125964242Y-48022858D01*
X126025529Y-47874899D01*
X126114499Y-47741745D01*
X126227745Y-47628499D01*
X126360899Y-47539529D01*
X126508858Y-47478242D01*
X126665925Y-47447000D01*
X126826075Y-47447000D01*
X126983142Y-47478242D01*
X126983142Y-47478242D01*
G37*
G36*
X124443142Y-47478242D02*
G01*
X124591101Y-47539529D01*
X124724255Y-47628499D01*
X124837501Y-47741745D01*
X124926471Y-47874899D01*
X124987758Y-48022858D01*
X125019000Y-48179925D01*
X125019000Y-48340075D01*
X124987758Y-48497142D01*
X124926471Y-48645101D01*
X124837501Y-48778255D01*
X124724255Y-48891501D01*
X124591101Y-48980471D01*
X124443142Y-49041758D01*
X124286075Y-49073000D01*
X124125925Y-49073000D01*
X123968858Y-49041758D01*
X123820899Y-48980471D01*
X123687745Y-48891501D01*
X123574499Y-48778255D01*
X123485529Y-48645101D01*
X123424242Y-48497142D01*
X123393000Y-48340075D01*
X123393000Y-48179925D01*
X123424242Y-48022858D01*
X123485529Y-47874899D01*
X123574499Y-47741745D01*
X123687745Y-47628499D01*
X123820899Y-47539529D01*
X123968858Y-47478242D01*
X124125925Y-47447000D01*
X124286075Y-47447000D01*
X124443142Y-47478242D01*
X124443142Y-47478242D01*
G37*
G36*
X129523142Y-47478242D02*
G01*
X129671101Y-47539529D01*
X129804255Y-47628499D01*
X129917501Y-47741745D01*
X130006471Y-47874899D01*
X130067758Y-48022858D01*
X130099000Y-48179925D01*
X130099000Y-48340075D01*
X130067758Y-48497142D01*
X130006471Y-48645101D01*
X129917501Y-48778255D01*
X129804255Y-48891501D01*
X129671101Y-48980471D01*
X129523142Y-49041758D01*
X129366075Y-49073000D01*
X129205925Y-49073000D01*
X129048858Y-49041758D01*
X128900899Y-48980471D01*
X128767745Y-48891501D01*
X128654499Y-48778255D01*
X128565529Y-48645101D01*
X128504242Y-48497142D01*
X128473000Y-48340075D01*
X128473000Y-48179925D01*
X128504242Y-48022858D01*
X128565529Y-47874899D01*
X128654499Y-47741745D01*
X128767745Y-47628499D01*
X128900899Y-47539529D01*
X129048858Y-47478242D01*
X129205925Y-47447000D01*
X129366075Y-47447000D01*
X129523142Y-47478242D01*
X129523142Y-47478242D01*
G37*
G36*
X121903142Y-47478242D02*
G01*
X122051101Y-47539529D01*
X122184255Y-47628499D01*
X122297501Y-47741745D01*
X122386471Y-47874899D01*
X122447758Y-48022858D01*
X122479000Y-48179925D01*
X122479000Y-48340075D01*
X122447758Y-48497142D01*
X122386471Y-48645101D01*
X122297501Y-48778255D01*
X122184255Y-48891501D01*
X122051101Y-48980471D01*
X121903142Y-49041758D01*
X121746075Y-49073000D01*
X121585925Y-49073000D01*
X121428858Y-49041758D01*
X121280899Y-48980471D01*
X121147745Y-48891501D01*
X121034499Y-48778255D01*
X120945529Y-48645101D01*
X120884242Y-48497142D01*
X120853000Y-48340075D01*
X120853000Y-48179925D01*
X120884242Y-48022858D01*
X120945529Y-47874899D01*
X121034499Y-47741745D01*
X121147745Y-47628499D01*
X121280899Y-47539529D01*
X121428858Y-47478242D01*
X121585925Y-47447000D01*
X121746075Y-47447000D01*
X121903142Y-47478242D01*
X121903142Y-47478242D01*
G37*
G36*
X147557142Y-47478242D02*
G01*
X147705101Y-47539529D01*
X147838255Y-47628499D01*
X147951501Y-47741745D01*
X148040471Y-47874899D01*
X148101758Y-48022858D01*
X148133000Y-48179925D01*
X148133000Y-48340075D01*
X148101758Y-48497142D01*
X148040471Y-48645101D01*
X147951501Y-48778255D01*
X147838255Y-48891501D01*
X147705101Y-48980471D01*
X147557142Y-49041758D01*
X147400075Y-49073000D01*
X147239925Y-49073000D01*
X147082858Y-49041758D01*
X146934899Y-48980471D01*
X146801745Y-48891501D01*
X146688499Y-48778255D01*
X146599529Y-48645101D01*
X146538242Y-48497142D01*
X146507000Y-48340075D01*
X146507000Y-48179925D01*
X146538242Y-48022858D01*
X146599529Y-47874899D01*
X146688499Y-47741745D01*
X146801745Y-47628499D01*
X146934899Y-47539529D01*
X147082858Y-47478242D01*
X147239925Y-47447000D01*
X147400075Y-47447000D01*
X147557142Y-47478242D01*
X147557142Y-47478242D01*
G37*
G36*
X150097142Y-46208242D02*
G01*
X150245101Y-46269529D01*
X150378255Y-46358499D01*
X150491501Y-46471745D01*
X150580471Y-46604899D01*
X150641758Y-46752858D01*
X150673000Y-46909925D01*
X150673000Y-47070075D01*
X150641758Y-47227142D01*
X150580471Y-47375101D01*
X150491501Y-47508255D01*
X150378255Y-47621501D01*
X150245101Y-47710471D01*
X150097142Y-47771758D01*
X149940075Y-47803000D01*
X149779925Y-47803000D01*
X149622858Y-47771758D01*
X149474899Y-47710471D01*
X149341745Y-47621501D01*
X149228499Y-47508255D01*
X149139529Y-47375101D01*
X149078242Y-47227142D01*
X149047000Y-47070075D01*
X149047000Y-46909925D01*
X149078242Y-46752858D01*
X149139529Y-46604899D01*
X149228499Y-46471745D01*
X149341745Y-46358499D01*
X149474899Y-46269529D01*
X149622858Y-46208242D01*
X149779925Y-46177000D01*
X149940075Y-46177000D01*
X150097142Y-46208242D01*
X150097142Y-46208242D01*
G37*
G36*
X147557142Y-44938242D02*
G01*
X147705101Y-44999529D01*
X147838255Y-45088499D01*
X147951501Y-45201745D01*
X148040471Y-45334899D01*
X148101758Y-45482858D01*
X148133000Y-45639925D01*
X148133000Y-45800075D01*
X148101758Y-45957142D01*
X148040471Y-46105101D01*
X147951501Y-46238255D01*
X147838255Y-46351501D01*
X147705101Y-46440471D01*
X147557142Y-46501758D01*
X147400075Y-46533000D01*
X147239925Y-46533000D01*
X147082858Y-46501758D01*
X146934899Y-46440471D01*
X146801745Y-46351501D01*
X146688499Y-46238255D01*
X146599529Y-46105101D01*
X146538242Y-45957142D01*
X146507000Y-45800075D01*
X146507000Y-45639925D01*
X146538242Y-45482858D01*
X146599529Y-45334899D01*
X146688499Y-45201745D01*
X146801745Y-45088499D01*
X146934899Y-44999529D01*
X147082858Y-44938242D01*
X147239925Y-44907000D01*
X147400075Y-44907000D01*
X147557142Y-44938242D01*
X147557142Y-44938242D01*
G37*
G36*
X150097142Y-43668242D02*
G01*
X150245101Y-43729529D01*
X150378255Y-43818499D01*
X150491501Y-43931745D01*
X150580471Y-44064899D01*
X150641758Y-44212858D01*
X150673000Y-44369925D01*
X150673000Y-44530075D01*
X150641758Y-44687142D01*
X150580471Y-44835101D01*
X150491501Y-44968255D01*
X150378255Y-45081501D01*
X150245101Y-45170471D01*
X150097142Y-45231758D01*
X149940075Y-45263000D01*
X149779925Y-45263000D01*
X149622858Y-45231758D01*
X149474899Y-45170471D01*
X149341745Y-45081501D01*
X149228499Y-44968255D01*
X149139529Y-44835101D01*
X149078242Y-44687142D01*
X149047000Y-44530075D01*
X149047000Y-44369925D01*
X149078242Y-44212858D01*
X149139529Y-44064899D01*
X149228499Y-43931745D01*
X149341745Y-43818499D01*
X149474899Y-43729529D01*
X149622858Y-43668242D01*
X149779925Y-43637000D01*
X149940075Y-43637000D01*
X150097142Y-43668242D01*
X150097142Y-43668242D01*
G37*
G36*
X156687932Y-41604466D02*
G01*
X156986119Y-41727979D01*
X156986121Y-41727980D01*
X157254483Y-41907294D01*
X157482706Y-42135517D01*
X157482707Y-42135519D01*
X157662021Y-42403881D01*
X157785534Y-42702068D01*
X157848500Y-43018620D01*
X157848500Y-43341380D01*
X157785534Y-43657932D01*
X157719025Y-43818499D01*
X157662020Y-43956121D01*
X157482706Y-44224483D01*
X157254483Y-44452706D01*
X156986121Y-44632020D01*
X156986120Y-44632021D01*
X156986119Y-44632021D01*
X156687932Y-44755534D01*
X156371380Y-44818500D01*
X156048620Y-44818500D01*
X155732068Y-44755534D01*
X155433881Y-44632021D01*
X155433880Y-44632021D01*
X155433879Y-44632020D01*
X155165517Y-44452706D01*
X154937294Y-44224483D01*
X154757980Y-43956121D01*
X154700975Y-43818499D01*
X154634466Y-43657932D01*
X154571500Y-43341380D01*
X154571500Y-43018620D01*
X154634466Y-42702068D01*
X154757979Y-42403881D01*
X154937293Y-42135519D01*
X154937294Y-42135517D01*
X155165517Y-41907294D01*
X155433879Y-41727980D01*
X155433881Y-41727979D01*
X155732068Y-41604466D01*
X156048620Y-41541500D01*
X156371380Y-41541500D01*
X156687932Y-41604466D01*
X156687932Y-41604466D01*
G37*
G36*
X118728142Y-36429242D02*
G01*
X118876101Y-36490529D01*
X119009255Y-36579499D01*
X119122501Y-36692745D01*
X119211471Y-36825899D01*
X119272758Y-36973858D01*
X119304000Y-37130925D01*
X119304000Y-37291075D01*
X119272758Y-37448142D01*
X119211471Y-37596101D01*
X119122501Y-37729255D01*
X119009255Y-37842501D01*
X118876101Y-37931471D01*
X118728142Y-37992758D01*
X118571075Y-38024000D01*
X118410925Y-38024000D01*
X118253858Y-37992758D01*
X118105899Y-37931471D01*
X117972745Y-37842501D01*
X117859499Y-37729255D01*
X117770529Y-37596101D01*
X117709242Y-37448142D01*
X117678000Y-37291075D01*
X117678000Y-37130925D01*
X117709242Y-36973858D01*
X117770529Y-36825899D01*
X117859499Y-36692745D01*
X117972745Y-36579499D01*
X118105899Y-36490529D01*
X118253858Y-36429242D01*
X118410925Y-36398000D01*
X118571075Y-36398000D01*
X118728142Y-36429242D01*
X118728142Y-36429242D01*
G37*
G36*
X108187142Y-36429242D02*
G01*
X108335101Y-36490529D01*
X108468255Y-36579499D01*
X108581501Y-36692745D01*
X108670471Y-36825899D01*
X108731758Y-36973858D01*
X108763000Y-37130925D01*
X108763000Y-37291075D01*
X108731758Y-37448142D01*
X108670471Y-37596101D01*
X108581501Y-37729255D01*
X108468255Y-37842501D01*
X108335101Y-37931471D01*
X108187142Y-37992758D01*
X108030075Y-38024000D01*
X107869925Y-38024000D01*
X107712858Y-37992758D01*
X107564899Y-37931471D01*
X107431745Y-37842501D01*
X107318499Y-37729255D01*
X107229529Y-37596101D01*
X107168242Y-37448142D01*
X107137000Y-37291075D01*
X107137000Y-37130925D01*
X107168242Y-36973858D01*
X107229529Y-36825899D01*
X107318499Y-36692745D01*
X107431745Y-36579499D01*
X107564899Y-36490529D01*
X107712858Y-36429242D01*
X107869925Y-36398000D01*
X108030075Y-36398000D01*
X108187142Y-36429242D01*
X108187142Y-36429242D01*
G37*
G36*
X134476142Y-36429242D02*
G01*
X134624101Y-36490529D01*
X134757255Y-36579499D01*
X134870501Y-36692745D01*
X134959471Y-36825899D01*
X135020758Y-36973858D01*
X135052000Y-37130925D01*
X135052000Y-37291075D01*
X135020758Y-37448142D01*
X134959471Y-37596101D01*
X134870501Y-37729255D01*
X134757255Y-37842501D01*
X134624101Y-37931471D01*
X134476142Y-37992758D01*
X134319075Y-38024000D01*
X134158925Y-38024000D01*
X134001858Y-37992758D01*
X133853899Y-37931471D01*
X133720745Y-37842501D01*
X133607499Y-37729255D01*
X133518529Y-37596101D01*
X133457242Y-37448142D01*
X133426000Y-37291075D01*
X133426000Y-37130925D01*
X133457242Y-36973858D01*
X133518529Y-36825899D01*
X133607499Y-36692745D01*
X133720745Y-36579499D01*
X133853899Y-36490529D01*
X134001858Y-36429242D01*
X134158925Y-36398000D01*
X134319075Y-36398000D01*
X134476142Y-36429242D01*
X134476142Y-36429242D01*
G37*
G36*
X132190142Y-36429242D02*
G01*
X132338101Y-36490529D01*
X132471255Y-36579499D01*
X132584501Y-36692745D01*
X132673471Y-36825899D01*
X132734758Y-36973858D01*
X132766000Y-37130925D01*
X132766000Y-37291075D01*
X132734758Y-37448142D01*
X132673471Y-37596101D01*
X132584501Y-37729255D01*
X132471255Y-37842501D01*
X132338101Y-37931471D01*
X132190142Y-37992758D01*
X132033075Y-38024000D01*
X131872925Y-38024000D01*
X131715858Y-37992758D01*
X131567899Y-37931471D01*
X131434745Y-37842501D01*
X131321499Y-37729255D01*
X131232529Y-37596101D01*
X131171242Y-37448142D01*
X131140000Y-37291075D01*
X131140000Y-37130925D01*
X131171242Y-36973858D01*
X131232529Y-36825899D01*
X131321499Y-36692745D01*
X131434745Y-36579499D01*
X131567899Y-36490529D01*
X131715858Y-36429242D01*
X131872925Y-36398000D01*
X132033075Y-36398000D01*
X132190142Y-36429242D01*
X132190142Y-36429242D01*
G37*
G36*
X124697142Y-36429242D02*
G01*
X124845101Y-36490529D01*
X124978255Y-36579499D01*
X125091501Y-36692745D01*
X125180471Y-36825899D01*
X125241758Y-36973858D01*
X125273000Y-37130925D01*
X125273000Y-37291075D01*
X125241758Y-37448142D01*
X125180471Y-37596101D01*
X125091501Y-37729255D01*
X124978255Y-37842501D01*
X124845101Y-37931471D01*
X124697142Y-37992758D01*
X124540075Y-38024000D01*
X124379925Y-38024000D01*
X124222858Y-37992758D01*
X124074899Y-37931471D01*
X123941745Y-37842501D01*
X123828499Y-37729255D01*
X123739529Y-37596101D01*
X123678242Y-37448142D01*
X123647000Y-37291075D01*
X123647000Y-37130925D01*
X123678242Y-36973858D01*
X123739529Y-36825899D01*
X123828499Y-36692745D01*
X123941745Y-36579499D01*
X124074899Y-36490529D01*
X124222858Y-36429242D01*
X124379925Y-36398000D01*
X124540075Y-36398000D01*
X124697142Y-36429242D01*
X124697142Y-36429242D01*
G37*
G36*
X116442142Y-36429242D02*
G01*
X116590101Y-36490529D01*
X116723255Y-36579499D01*
X116836501Y-36692745D01*
X116925471Y-36825899D01*
X116986758Y-36973858D01*
X117018000Y-37130925D01*
X117018000Y-37291075D01*
X116986758Y-37448142D01*
X116925471Y-37596101D01*
X116836501Y-37729255D01*
X116723255Y-37842501D01*
X116590101Y-37931471D01*
X116442142Y-37992758D01*
X116285075Y-38024000D01*
X116124925Y-38024000D01*
X115967858Y-37992758D01*
X115819899Y-37931471D01*
X115686745Y-37842501D01*
X115573499Y-37729255D01*
X115484529Y-37596101D01*
X115423242Y-37448142D01*
X115392000Y-37291075D01*
X115392000Y-37130925D01*
X115423242Y-36973858D01*
X115484529Y-36825899D01*
X115573499Y-36692745D01*
X115686745Y-36579499D01*
X115819899Y-36490529D01*
X115967858Y-36429242D01*
X116124925Y-36398000D01*
X116285075Y-36398000D01*
X116442142Y-36429242D01*
X116442142Y-36429242D01*
G37*
G36*
X110473142Y-36429242D02*
G01*
X110621101Y-36490529D01*
X110754255Y-36579499D01*
X110867501Y-36692745D01*
X110956471Y-36825899D01*
X111017758Y-36973858D01*
X111049000Y-37130925D01*
X111049000Y-37291075D01*
X111017758Y-37448142D01*
X110956471Y-37596101D01*
X110867501Y-37729255D01*
X110754255Y-37842501D01*
X110621101Y-37931471D01*
X110473142Y-37992758D01*
X110316075Y-38024000D01*
X110155925Y-38024000D01*
X109998858Y-37992758D01*
X109850899Y-37931471D01*
X109717745Y-37842501D01*
X109604499Y-37729255D01*
X109515529Y-37596101D01*
X109454242Y-37448142D01*
X109423000Y-37291075D01*
X109423000Y-37130925D01*
X109454242Y-36973858D01*
X109515529Y-36825899D01*
X109604499Y-36692745D01*
X109717745Y-36579499D01*
X109850899Y-36490529D01*
X109998858Y-36429242D01*
X110155925Y-36398000D01*
X110316075Y-36398000D01*
X110473142Y-36429242D01*
X110473142Y-36429242D01*
G37*
G36*
X126983142Y-36429242D02*
G01*
X127131101Y-36490529D01*
X127264255Y-36579499D01*
X127377501Y-36692745D01*
X127466471Y-36825899D01*
X127527758Y-36973858D01*
X127559000Y-37130925D01*
X127559000Y-37291075D01*
X127527758Y-37448142D01*
X127466471Y-37596101D01*
X127377501Y-37729255D01*
X127264255Y-37842501D01*
X127131101Y-37931471D01*
X126983142Y-37992758D01*
X126826075Y-38024000D01*
X126665925Y-38024000D01*
X126508858Y-37992758D01*
X126360899Y-37931471D01*
X126227745Y-37842501D01*
X126114499Y-37729255D01*
X126025529Y-37596101D01*
X125964242Y-37448142D01*
X125933000Y-37291075D01*
X125933000Y-37130925D01*
X125964242Y-36973858D01*
X126025529Y-36825899D01*
X126114499Y-36692745D01*
X126227745Y-36579499D01*
X126360899Y-36490529D01*
X126508858Y-36429242D01*
X126665925Y-36398000D01*
X126826075Y-36398000D01*
X126983142Y-36429242D01*
X126983142Y-36429242D01*
G37*
G36*
X91567617Y-31978420D02*
G01*
X91658403Y-32005960D01*
X91690335Y-32015646D01*
X91803424Y-32076094D01*
X91902554Y-32157447D01*
X91983906Y-32256575D01*
X92044354Y-32369664D01*
X92054040Y-32401596D01*
X92081580Y-32492382D01*
X92091000Y-32588027D01*
X92091000Y-33451973D01*
X92081580Y-33547618D01*
X92054040Y-33638404D01*
X92044354Y-33670336D01*
X91983906Y-33783425D01*
X91902554Y-33882554D01*
X91803425Y-33963906D01*
X91690336Y-34024354D01*
X91658404Y-34034040D01*
X91567618Y-34061580D01*
X91440000Y-34074149D01*
X91312383Y-34061580D01*
X91221597Y-34034040D01*
X91189665Y-34024354D01*
X91076576Y-33963906D01*
X90977447Y-33882554D01*
X90896095Y-33783425D01*
X90835647Y-33670336D01*
X90831282Y-33655946D01*
X90798420Y-33547618D01*
X90789000Y-33451973D01*
X90789000Y-32588028D01*
X90798420Y-32492383D01*
X90835645Y-32369669D01*
X90835646Y-32369665D01*
X90896094Y-32256576D01*
X90977447Y-32157446D01*
X91076575Y-32076094D01*
X91189664Y-32015646D01*
X91221596Y-32005960D01*
X91312382Y-31978420D01*
X91440000Y-31965851D01*
X91567617Y-31978420D01*
X91567617Y-31978420D01*
G37*
G36*
X89027617Y-31978420D02*
G01*
X89118403Y-32005960D01*
X89150335Y-32015646D01*
X89263424Y-32076094D01*
X89362554Y-32157447D01*
X89443906Y-32256575D01*
X89504354Y-32369664D01*
X89514040Y-32401596D01*
X89541580Y-32492382D01*
X89551000Y-32588027D01*
X89551000Y-33451973D01*
X89541580Y-33547618D01*
X89514040Y-33638404D01*
X89504354Y-33670336D01*
X89443906Y-33783425D01*
X89362554Y-33882554D01*
X89263425Y-33963906D01*
X89150336Y-34024354D01*
X89118404Y-34034040D01*
X89027618Y-34061580D01*
X88900000Y-34074149D01*
X88772383Y-34061580D01*
X88681597Y-34034040D01*
X88649665Y-34024354D01*
X88536576Y-33963906D01*
X88437447Y-33882554D01*
X88356095Y-33783425D01*
X88295647Y-33670336D01*
X88291282Y-33655946D01*
X88258420Y-33547618D01*
X88249000Y-33451973D01*
X88249000Y-32588028D01*
X88258420Y-32492383D01*
X88295645Y-32369669D01*
X88295646Y-32369665D01*
X88356094Y-32256576D01*
X88437447Y-32157446D01*
X88536575Y-32076094D01*
X88649664Y-32015646D01*
X88681596Y-32005960D01*
X88772382Y-31978420D01*
X88900000Y-31965851D01*
X89027617Y-31978420D01*
X89027617Y-31978420D01*
G37*
G36*
X94107617Y-31978420D02*
G01*
X94198403Y-32005960D01*
X94230335Y-32015646D01*
X94343424Y-32076094D01*
X94442554Y-32157447D01*
X94523906Y-32256575D01*
X94584354Y-32369664D01*
X94594040Y-32401596D01*
X94621580Y-32492382D01*
X94631000Y-32588027D01*
X94631000Y-33451973D01*
X94621580Y-33547618D01*
X94594040Y-33638404D01*
X94584354Y-33670336D01*
X94523906Y-33783425D01*
X94442554Y-33882554D01*
X94343425Y-33963906D01*
X94230336Y-34024354D01*
X94198404Y-34034040D01*
X94107618Y-34061580D01*
X93980000Y-34074149D01*
X93852383Y-34061580D01*
X93761597Y-34034040D01*
X93729665Y-34024354D01*
X93616576Y-33963906D01*
X93517447Y-33882554D01*
X93436095Y-33783425D01*
X93375647Y-33670336D01*
X93371282Y-33655946D01*
X93338420Y-33547618D01*
X93329000Y-33451973D01*
X93329000Y-32588028D01*
X93338420Y-32492383D01*
X93375645Y-32369669D01*
X93375646Y-32369665D01*
X93436094Y-32256576D01*
X93517447Y-32157446D01*
X93616575Y-32076094D01*
X93729664Y-32015646D01*
X93761596Y-32005960D01*
X93852382Y-31978420D01*
X93980000Y-31965851D01*
X94107617Y-31978420D01*
X94107617Y-31978420D01*
G37*
G36*
X96647617Y-31978420D02*
G01*
X96738403Y-32005960D01*
X96770335Y-32015646D01*
X96883424Y-32076094D01*
X96982554Y-32157447D01*
X97063906Y-32256575D01*
X97124354Y-32369664D01*
X97134040Y-32401596D01*
X97161580Y-32492382D01*
X97171000Y-32588027D01*
X97171000Y-33451973D01*
X97161580Y-33547618D01*
X97134040Y-33638404D01*
X97124354Y-33670336D01*
X97063906Y-33783425D01*
X96982554Y-33882554D01*
X96883425Y-33963906D01*
X96770336Y-34024354D01*
X96738404Y-34034040D01*
X96647618Y-34061580D01*
X96520000Y-34074149D01*
X96392383Y-34061580D01*
X96301597Y-34034040D01*
X96269665Y-34024354D01*
X96156576Y-33963906D01*
X96057447Y-33882554D01*
X95976095Y-33783425D01*
X95915647Y-33670336D01*
X95911282Y-33655946D01*
X95878420Y-33547618D01*
X95869000Y-33451973D01*
X95869000Y-32588028D01*
X95878420Y-32492383D01*
X95915645Y-32369669D01*
X95915646Y-32369665D01*
X95976094Y-32256576D01*
X96057447Y-32157446D01*
X96156575Y-32076094D01*
X96269664Y-32015646D01*
X96301596Y-32005960D01*
X96392382Y-31978420D01*
X96520000Y-31965851D01*
X96647617Y-31978420D01*
X96647617Y-31978420D01*
G37*
G36*
X86487617Y-31978420D02*
G01*
X86578403Y-32005960D01*
X86610335Y-32015646D01*
X86723424Y-32076094D01*
X86822554Y-32157447D01*
X86903906Y-32256575D01*
X86964354Y-32369664D01*
X86974040Y-32401596D01*
X87001580Y-32492382D01*
X87011000Y-32588027D01*
X87011000Y-33451973D01*
X87001580Y-33547618D01*
X86974040Y-33638404D01*
X86964354Y-33670336D01*
X86903906Y-33783425D01*
X86822554Y-33882554D01*
X86723425Y-33963906D01*
X86610336Y-34024354D01*
X86578404Y-34034040D01*
X86487618Y-34061580D01*
X86360000Y-34074149D01*
X86232383Y-34061580D01*
X86141597Y-34034040D01*
X86109665Y-34024354D01*
X85996576Y-33963906D01*
X85897447Y-33882554D01*
X85816095Y-33783425D01*
X85755647Y-33670336D01*
X85751282Y-33655946D01*
X85718420Y-33547618D01*
X85709000Y-33451973D01*
X85709000Y-32588028D01*
X85718420Y-32492383D01*
X85755645Y-32369669D01*
X85755646Y-32369665D01*
X85816094Y-32256576D01*
X85897447Y-32157446D01*
X85996575Y-32076094D01*
X86109664Y-32015646D01*
X86141596Y-32005960D01*
X86232382Y-31978420D01*
X86360000Y-31965851D01*
X86487617Y-31978420D01*
X86487617Y-31978420D01*
G37*
G36*
X83947617Y-31978420D02*
G01*
X84038403Y-32005960D01*
X84070335Y-32015646D01*
X84183424Y-32076094D01*
X84282554Y-32157447D01*
X84363906Y-32256575D01*
X84424354Y-32369664D01*
X84434040Y-32401596D01*
X84461580Y-32492382D01*
X84471000Y-32588027D01*
X84471000Y-33451973D01*
X84461580Y-33547618D01*
X84434040Y-33638404D01*
X84424354Y-33670336D01*
X84363906Y-33783425D01*
X84282554Y-33882554D01*
X84183425Y-33963906D01*
X84070336Y-34024354D01*
X84038404Y-34034040D01*
X83947618Y-34061580D01*
X83820000Y-34074149D01*
X83692383Y-34061580D01*
X83601597Y-34034040D01*
X83569665Y-34024354D01*
X83456576Y-33963906D01*
X83357447Y-33882554D01*
X83276095Y-33783425D01*
X83215647Y-33670336D01*
X83211282Y-33655946D01*
X83178420Y-33547618D01*
X83169000Y-33451973D01*
X83169000Y-32588028D01*
X83178420Y-32492383D01*
X83215645Y-32369669D01*
X83215646Y-32369665D01*
X83276094Y-32256576D01*
X83357447Y-32157446D01*
X83456575Y-32076094D01*
X83569664Y-32015646D01*
X83601596Y-32005960D01*
X83692382Y-31978420D01*
X83820000Y-31965851D01*
X83947617Y-31978420D01*
X83947617Y-31978420D01*
G37*
G36*
X81407617Y-31978420D02*
G01*
X81498403Y-32005960D01*
X81530335Y-32015646D01*
X81643424Y-32076094D01*
X81742554Y-32157447D01*
X81823906Y-32256575D01*
X81884354Y-32369664D01*
X81894040Y-32401596D01*
X81921580Y-32492382D01*
X81931000Y-32588027D01*
X81931000Y-33451973D01*
X81921580Y-33547618D01*
X81894040Y-33638404D01*
X81884354Y-33670336D01*
X81823906Y-33783425D01*
X81742554Y-33882554D01*
X81643425Y-33963906D01*
X81530336Y-34024354D01*
X81498404Y-34034040D01*
X81407618Y-34061580D01*
X81280000Y-34074149D01*
X81152383Y-34061580D01*
X81061597Y-34034040D01*
X81029665Y-34024354D01*
X80916576Y-33963906D01*
X80817447Y-33882554D01*
X80736095Y-33783425D01*
X80675647Y-33670336D01*
X80671282Y-33655946D01*
X80638420Y-33547618D01*
X80629000Y-33451973D01*
X80629000Y-32588028D01*
X80638420Y-32492383D01*
X80675645Y-32369669D01*
X80675646Y-32369665D01*
X80736094Y-32256576D01*
X80817447Y-32157446D01*
X80916575Y-32076094D01*
X81029664Y-32015646D01*
X81061596Y-32005960D01*
X81152382Y-31978420D01*
X81280000Y-31965851D01*
X81407617Y-31978420D01*
X81407617Y-31978420D01*
G37*
G36*
X78867617Y-31978420D02*
G01*
X78958403Y-32005960D01*
X78990335Y-32015646D01*
X79103424Y-32076094D01*
X79202554Y-32157447D01*
X79283906Y-32256575D01*
X79344354Y-32369664D01*
X79354040Y-32401596D01*
X79381580Y-32492382D01*
X79391000Y-32588027D01*
X79391000Y-33451973D01*
X79381580Y-33547618D01*
X79354040Y-33638404D01*
X79344354Y-33670336D01*
X79283906Y-33783425D01*
X79202554Y-33882554D01*
X79103425Y-33963906D01*
X78990336Y-34024354D01*
X78958404Y-34034040D01*
X78867618Y-34061580D01*
X78740000Y-34074149D01*
X78612383Y-34061580D01*
X78521597Y-34034040D01*
X78489665Y-34024354D01*
X78376576Y-33963906D01*
X78277447Y-33882554D01*
X78196095Y-33783425D01*
X78135647Y-33670336D01*
X78131282Y-33655946D01*
X78098420Y-33547618D01*
X78089000Y-33451973D01*
X78089000Y-32588028D01*
X78098420Y-32492383D01*
X78135645Y-32369669D01*
X78135646Y-32369665D01*
X78196094Y-32256576D01*
X78277447Y-32157446D01*
X78376575Y-32076094D01*
X78489664Y-32015646D01*
X78521596Y-32005960D01*
X78612382Y-31978420D01*
X78740000Y-31965851D01*
X78867617Y-31978420D01*
X78867617Y-31978420D01*
G37*
G36*
X99187617Y-31978420D02*
G01*
X99278403Y-32005960D01*
X99310335Y-32015646D01*
X99423424Y-32076094D01*
X99522554Y-32157447D01*
X99603906Y-32256575D01*
X99664354Y-32369664D01*
X99674040Y-32401596D01*
X99701580Y-32492382D01*
X99711000Y-32588027D01*
X99711000Y-33451973D01*
X99701580Y-33547618D01*
X99674040Y-33638404D01*
X99664354Y-33670336D01*
X99603906Y-33783425D01*
X99522554Y-33882554D01*
X99423425Y-33963906D01*
X99310336Y-34024354D01*
X99278404Y-34034040D01*
X99187618Y-34061580D01*
X99060000Y-34074149D01*
X98932383Y-34061580D01*
X98841597Y-34034040D01*
X98809665Y-34024354D01*
X98696576Y-33963906D01*
X98597447Y-33882554D01*
X98516095Y-33783425D01*
X98455647Y-33670336D01*
X98451282Y-33655946D01*
X98418420Y-33547618D01*
X98409000Y-33451973D01*
X98409000Y-32588028D01*
X98418420Y-32492383D01*
X98455645Y-32369669D01*
X98455646Y-32369665D01*
X98516094Y-32256576D01*
X98597447Y-32157446D01*
X98696575Y-32076094D01*
X98809664Y-32015646D01*
X98841596Y-32005960D01*
X98932382Y-31978420D01*
X99060000Y-31965851D01*
X99187617Y-31978420D01*
X99187617Y-31978420D01*
G37*
G36*
X160830585Y-28450802D02*
G01*
X160980410Y-28480604D01*
X161262674Y-28597521D01*
X161516705Y-28767259D01*
X161732741Y-28983295D01*
X161902479Y-29237326D01*
X162019396Y-29519590D01*
X162079000Y-29819240D01*
X162079000Y-30124760D01*
X162019396Y-30424410D01*
X161902479Y-30706674D01*
X161732741Y-30960705D01*
X161516705Y-31176741D01*
X161262674Y-31346479D01*
X160980410Y-31463396D01*
X160830585Y-31493198D01*
X160680761Y-31523000D01*
X160375239Y-31523000D01*
X160225415Y-31493198D01*
X160075590Y-31463396D01*
X159793326Y-31346479D01*
X159539295Y-31176741D01*
X159323259Y-30960705D01*
X159153521Y-30706674D01*
X159036604Y-30424410D01*
X158977000Y-30124760D01*
X158977000Y-29819240D01*
X159036604Y-29519590D01*
X159153521Y-29237326D01*
X159323259Y-28983295D01*
X159539295Y-28767259D01*
X159793326Y-28597521D01*
X160075590Y-28480604D01*
X160225415Y-28450802D01*
X160375239Y-28421000D01*
X160680761Y-28421000D01*
X160830585Y-28450802D01*
X160830585Y-28450802D01*
G37*
G36*
X74978585Y-28450802D02*
G01*
X75128410Y-28480604D01*
X75410674Y-28597521D01*
X75664705Y-28767259D01*
X75880741Y-28983295D01*
X76050479Y-29237326D01*
X76167396Y-29519590D01*
X76227000Y-29819240D01*
X76227000Y-30124760D01*
X76167396Y-30424410D01*
X76050479Y-30706674D01*
X75880741Y-30960705D01*
X75664705Y-31176741D01*
X75410674Y-31346479D01*
X75128410Y-31463396D01*
X74978585Y-31493198D01*
X74828761Y-31523000D01*
X74523239Y-31523000D01*
X74373415Y-31493198D01*
X74223590Y-31463396D01*
X73941326Y-31346479D01*
X73687295Y-31176741D01*
X73471259Y-30960705D01*
X73301521Y-30706674D01*
X73184604Y-30424410D01*
X73125000Y-30124760D01*
X73125000Y-29819240D01*
X73184604Y-29519590D01*
X73301521Y-29237326D01*
X73471259Y-28983295D01*
X73687295Y-28767259D01*
X73941326Y-28597521D01*
X74223590Y-28480604D01*
X74373415Y-28450802D01*
X74523239Y-28421000D01*
X74828761Y-28421000D01*
X74978585Y-28450802D01*
X74978585Y-28450802D01*
G37*
G36*
X105901142Y-28682242D02*
G01*
X106049101Y-28743529D01*
X106182255Y-28832499D01*
X106295501Y-28945745D01*
X106384471Y-29078899D01*
X106445758Y-29226858D01*
X106477000Y-29383925D01*
X106477000Y-29544075D01*
X106445758Y-29701142D01*
X106384471Y-29849101D01*
X106295501Y-29982255D01*
X106182255Y-30095501D01*
X106049101Y-30184471D01*
X105901142Y-30245758D01*
X105744075Y-30277000D01*
X105583925Y-30277000D01*
X105426858Y-30245758D01*
X105278899Y-30184471D01*
X105145745Y-30095501D01*
X105032499Y-29982255D01*
X104943529Y-29849101D01*
X104882242Y-29701142D01*
X104851000Y-29544075D01*
X104851000Y-29383925D01*
X104882242Y-29226858D01*
X104943529Y-29078899D01*
X105032499Y-28945745D01*
X105145745Y-28832499D01*
X105278899Y-28743529D01*
X105426858Y-28682242D01*
X105583925Y-28651000D01*
X105744075Y-28651000D01*
X105901142Y-28682242D01*
X105901142Y-28682242D01*
G37*
G36*
X131809142Y-28682242D02*
G01*
X131957101Y-28743529D01*
X132090255Y-28832499D01*
X132203501Y-28945745D01*
X132292471Y-29078899D01*
X132353758Y-29226858D01*
X132385000Y-29383925D01*
X132385000Y-29544075D01*
X132353758Y-29701142D01*
X132292471Y-29849101D01*
X132203501Y-29982255D01*
X132090255Y-30095501D01*
X131957101Y-30184471D01*
X131809142Y-30245758D01*
X131652075Y-30277000D01*
X131491925Y-30277000D01*
X131334858Y-30245758D01*
X131186899Y-30184471D01*
X131053745Y-30095501D01*
X130940499Y-29982255D01*
X130851529Y-29849101D01*
X130790242Y-29701142D01*
X130759000Y-29544075D01*
X130759000Y-29383925D01*
X130790242Y-29226858D01*
X130851529Y-29078899D01*
X130940499Y-28945745D01*
X131053745Y-28832499D01*
X131186899Y-28743529D01*
X131334858Y-28682242D01*
X131491925Y-28651000D01*
X131652075Y-28651000D01*
X131809142Y-28682242D01*
X131809142Y-28682242D01*
G37*
G36*
X129523142Y-28682242D02*
G01*
X129671101Y-28743529D01*
X129804255Y-28832499D01*
X129917501Y-28945745D01*
X130006471Y-29078899D01*
X130067758Y-29226858D01*
X130099000Y-29383925D01*
X130099000Y-29544075D01*
X130067758Y-29701142D01*
X130006471Y-29849101D01*
X129917501Y-29982255D01*
X129804255Y-30095501D01*
X129671101Y-30184471D01*
X129523142Y-30245758D01*
X129366075Y-30277000D01*
X129205925Y-30277000D01*
X129048858Y-30245758D01*
X128900899Y-30184471D01*
X128767745Y-30095501D01*
X128654499Y-29982255D01*
X128565529Y-29849101D01*
X128504242Y-29701142D01*
X128473000Y-29544075D01*
X128473000Y-29383925D01*
X128504242Y-29226858D01*
X128565529Y-29078899D01*
X128654499Y-28945745D01*
X128767745Y-28832499D01*
X128900899Y-28743529D01*
X129048858Y-28682242D01*
X129205925Y-28651000D01*
X129366075Y-28651000D01*
X129523142Y-28682242D01*
X129523142Y-28682242D01*
G37*
G36*
X123935142Y-28682242D02*
G01*
X124083101Y-28743529D01*
X124216255Y-28832499D01*
X124329501Y-28945745D01*
X124418471Y-29078899D01*
X124479758Y-29226858D01*
X124511000Y-29383925D01*
X124511000Y-29544075D01*
X124479758Y-29701142D01*
X124418471Y-29849101D01*
X124329501Y-29982255D01*
X124216255Y-30095501D01*
X124083101Y-30184471D01*
X123935142Y-30245758D01*
X123778075Y-30277000D01*
X123617925Y-30277000D01*
X123460858Y-30245758D01*
X123312899Y-30184471D01*
X123179745Y-30095501D01*
X123066499Y-29982255D01*
X122977529Y-29849101D01*
X122916242Y-29701142D01*
X122885000Y-29544075D01*
X122885000Y-29383925D01*
X122916242Y-29226858D01*
X122977529Y-29078899D01*
X123066499Y-28945745D01*
X123179745Y-28832499D01*
X123312899Y-28743529D01*
X123460858Y-28682242D01*
X123617925Y-28651000D01*
X123778075Y-28651000D01*
X123935142Y-28682242D01*
X123935142Y-28682242D01*
G37*
G36*
X121649142Y-28682242D02*
G01*
X121797101Y-28743529D01*
X121930255Y-28832499D01*
X122043501Y-28945745D01*
X122132471Y-29078899D01*
X122193758Y-29226858D01*
X122225000Y-29383925D01*
X122225000Y-29544075D01*
X122193758Y-29701142D01*
X122132471Y-29849101D01*
X122043501Y-29982255D01*
X121930255Y-30095501D01*
X121797101Y-30184471D01*
X121649142Y-30245758D01*
X121492075Y-30277000D01*
X121331925Y-30277000D01*
X121174858Y-30245758D01*
X121026899Y-30184471D01*
X120893745Y-30095501D01*
X120780499Y-29982255D01*
X120691529Y-29849101D01*
X120630242Y-29701142D01*
X120599000Y-29544075D01*
X120599000Y-29383925D01*
X120630242Y-29226858D01*
X120691529Y-29078899D01*
X120780499Y-28945745D01*
X120893745Y-28832499D01*
X121026899Y-28743529D01*
X121174858Y-28682242D01*
X121331925Y-28651000D01*
X121492075Y-28651000D01*
X121649142Y-28682242D01*
X121649142Y-28682242D01*
G37*
G36*
X108187142Y-28682242D02*
G01*
X108335101Y-28743529D01*
X108468255Y-28832499D01*
X108581501Y-28945745D01*
X108670471Y-29078899D01*
X108731758Y-29226858D01*
X108763000Y-29383925D01*
X108763000Y-29544075D01*
X108731758Y-29701142D01*
X108670471Y-29849101D01*
X108581501Y-29982255D01*
X108468255Y-30095501D01*
X108335101Y-30184471D01*
X108187142Y-30245758D01*
X108030075Y-30277000D01*
X107869925Y-30277000D01*
X107712858Y-30245758D01*
X107564899Y-30184471D01*
X107431745Y-30095501D01*
X107318499Y-29982255D01*
X107229529Y-29849101D01*
X107168242Y-29701142D01*
X107137000Y-29544075D01*
X107137000Y-29383925D01*
X107168242Y-29226858D01*
X107229529Y-29078899D01*
X107318499Y-28945745D01*
X107431745Y-28832499D01*
X107564899Y-28743529D01*
X107712858Y-28682242D01*
X107869925Y-28651000D01*
X108030075Y-28651000D01*
X108187142Y-28682242D01*
X108187142Y-28682242D01*
G37*
G36*
X113775142Y-28682242D02*
G01*
X113923101Y-28743529D01*
X114056255Y-28832499D01*
X114169501Y-28945745D01*
X114258471Y-29078899D01*
X114319758Y-29226858D01*
X114351000Y-29383925D01*
X114351000Y-29544075D01*
X114319758Y-29701142D01*
X114258471Y-29849101D01*
X114169501Y-29982255D01*
X114056255Y-30095501D01*
X113923101Y-30184471D01*
X113775142Y-30245758D01*
X113618075Y-30277000D01*
X113457925Y-30277000D01*
X113300858Y-30245758D01*
X113152899Y-30184471D01*
X113019745Y-30095501D01*
X112906499Y-29982255D01*
X112817529Y-29849101D01*
X112756242Y-29701142D01*
X112725000Y-29544075D01*
X112725000Y-29383925D01*
X112756242Y-29226858D01*
X112817529Y-29078899D01*
X112906499Y-28945745D01*
X113019745Y-28832499D01*
X113152899Y-28743529D01*
X113300858Y-28682242D01*
X113457925Y-28651000D01*
X113618075Y-28651000D01*
X113775142Y-28682242D01*
X113775142Y-28682242D01*
G37*
G36*
X116061142Y-28682242D02*
G01*
X116209101Y-28743529D01*
X116342255Y-28832499D01*
X116455501Y-28945745D01*
X116544471Y-29078899D01*
X116605758Y-29226858D01*
X116637000Y-29383925D01*
X116637000Y-29544075D01*
X116605758Y-29701142D01*
X116544471Y-29849101D01*
X116455501Y-29982255D01*
X116342255Y-30095501D01*
X116209101Y-30184471D01*
X116061142Y-30245758D01*
X115904075Y-30277000D01*
X115743925Y-30277000D01*
X115586858Y-30245758D01*
X115438899Y-30184471D01*
X115305745Y-30095501D01*
X115192499Y-29982255D01*
X115103529Y-29849101D01*
X115042242Y-29701142D01*
X115011000Y-29544075D01*
X115011000Y-29383925D01*
X115042242Y-29226858D01*
X115103529Y-29078899D01*
X115192499Y-28945745D01*
X115305745Y-28832499D01*
X115438899Y-28743529D01*
X115586858Y-28682242D01*
X115743925Y-28651000D01*
X115904075Y-28651000D01*
X116061142Y-28682242D01*
X116061142Y-28682242D01*
G37*
M02*
