G04 #@! TF.GenerationSoftware,KiCad,Pcbnew,5.1.2-f72e74a~84~ubuntu18.04.1*
G04 #@! TF.CreationDate,2019-06-03T17:04:17-04:00*
G04 #@! TF.ProjectId,temperature board,74656d70-6572-4617-9475-726520626f61,v01*
G04 #@! TF.SameCoordinates,Original*
G04 #@! TF.FileFunction,Legend,Bot*
G04 #@! TF.FilePolarity,Positive*
%FSLAX46Y46*%
G04 Gerber Fmt 4.6, Leading zero omitted, Abs format (unit mm)*
G04 Created by KiCad (PCBNEW 5.1.2-f72e74a~84~ubuntu18.04.1) date 2019-06-03 17:04:17*
%MOMM*%
%LPD*%
G04 APERTURE LIST*
%ADD10C,0.120000*%
G04 APERTURE END LIST*
D10*
X150368000Y-87884000D02*
X150622000Y-87884000D01*
X151384000Y-87884000D02*
X151892000Y-87884000D01*
X151384000Y-88138000D02*
X151384000Y-87884000D01*
X151892000Y-88646000D02*
X151384000Y-88138000D01*
X151892000Y-88900000D02*
X151892000Y-88646000D01*
X151384000Y-88900000D02*
X151892000Y-88900000D01*
X150876000Y-87884000D02*
X150622000Y-87884000D01*
X151130000Y-88138000D02*
X150876000Y-87884000D01*
X150876000Y-88392000D02*
X151130000Y-88138000D01*
X150622000Y-88392000D02*
X150876000Y-88392000D01*
X150368000Y-88646000D02*
X150622000Y-88392000D01*
X150622000Y-88900000D02*
X150368000Y-88646000D01*
X150876000Y-88900000D02*
X150622000Y-88900000D01*
X107188000Y-68072000D02*
X106680000Y-68580000D01*
X110744000Y-70612000D02*
X109728000Y-70612000D01*
X107188000Y-70104000D02*
X107188000Y-69088000D01*
X88900000Y-69596000D02*
X88900000Y-68580000D01*
X111252000Y-65532000D02*
X111760000Y-66040000D01*
X104140000Y-65532000D02*
X104140000Y-70612000D01*
X104140000Y-65532000D02*
X106172000Y-65532000D01*
X122936000Y-68580000D02*
X120904000Y-70612000D01*
X104140000Y-70612000D02*
X106680000Y-70612000D01*
X106680000Y-70612000D02*
X107188000Y-70104000D01*
X118872000Y-65532000D02*
X118872000Y-68072000D01*
X92964000Y-70104000D02*
X94488000Y-68580000D01*
X90932000Y-70104000D02*
X89408000Y-70104000D01*
X89916000Y-67564000D02*
X90932000Y-67564000D01*
X117348000Y-70612000D02*
X116840000Y-70104000D01*
X115316000Y-68072000D02*
X115316000Y-70104000D01*
X86360000Y-69088000D02*
X86360000Y-65532000D01*
X114300000Y-70104000D02*
X112776000Y-68580000D01*
X118364000Y-68580000D02*
X118872000Y-69088000D01*
X113284000Y-67564000D02*
X115316000Y-67564000D01*
X99568000Y-68072000D02*
X99060000Y-67564000D01*
X101600000Y-69596000D02*
X101600000Y-68580000D01*
X115824000Y-65532000D02*
X115824000Y-67564000D01*
X107188000Y-66548000D02*
X107188000Y-68072000D01*
X119888000Y-66040000D02*
X120396000Y-65532000D01*
X120904000Y-70612000D02*
X119888000Y-70612000D01*
X109728000Y-65532000D02*
X111252000Y-65532000D01*
X117856000Y-70612000D02*
X117348000Y-70612000D01*
X119888000Y-70612000D02*
X119888000Y-66040000D01*
X108204000Y-69088000D02*
X108204000Y-67056000D01*
X97028000Y-68580000D02*
X97028000Y-65532000D01*
X120396000Y-65532000D02*
X120904000Y-65532000D01*
X88900000Y-66548000D02*
X88900000Y-68580000D01*
X106680000Y-68580000D02*
X104648000Y-68580000D01*
X118364000Y-68580000D02*
X117348000Y-68580000D01*
X115824000Y-67564000D02*
X115316000Y-68072000D01*
X109728000Y-70612000D02*
X108204000Y-69088000D01*
X101092000Y-70104000D02*
X101600000Y-69596000D01*
X120904000Y-65532000D02*
X122428000Y-65532000D01*
X107188000Y-69088000D02*
X106680000Y-68580000D01*
X85852000Y-69596000D02*
X86360000Y-70104000D01*
X89408000Y-70104000D02*
X88900000Y-69596000D01*
X106172000Y-65532000D02*
X107188000Y-66548000D01*
X88900000Y-66548000D02*
X88900000Y-66040000D01*
X111760000Y-66040000D02*
X111760000Y-69596000D01*
X92964000Y-65532000D02*
X92964000Y-70104000D01*
X89408000Y-65532000D02*
X91440000Y-65532000D01*
X99060000Y-65532000D02*
X99060000Y-69596000D01*
X122428000Y-65532000D02*
X122936000Y-66040000D01*
X101092000Y-68072000D02*
X99568000Y-68072000D01*
X118872000Y-69596000D02*
X117856000Y-70612000D01*
X116840000Y-70104000D02*
X116840000Y-65532000D01*
X88900000Y-68580000D02*
X89916000Y-67564000D01*
X86360000Y-70104000D02*
X88392000Y-70104000D01*
X118872000Y-68072000D02*
X118364000Y-68580000D01*
X115316000Y-70104000D02*
X114300000Y-70104000D01*
X99060000Y-69596000D02*
X99568000Y-70104000D01*
X111760000Y-69596000D02*
X110744000Y-70612000D01*
X118872000Y-69088000D02*
X118872000Y-69596000D01*
X94488000Y-65532000D02*
X94488000Y-68580000D01*
X83312000Y-69596000D02*
X85852000Y-69596000D01*
X94488000Y-68580000D02*
X95504000Y-69596000D01*
X88900000Y-66040000D02*
X89408000Y-65532000D01*
X101600000Y-68580000D02*
X101092000Y-68072000D01*
X122936000Y-66040000D02*
X122936000Y-68580000D01*
X112776000Y-68580000D02*
X112776000Y-65532000D01*
X112776000Y-68072000D02*
X113284000Y-67564000D01*
X85852000Y-69596000D02*
X86360000Y-69088000D01*
X99568000Y-70104000D02*
X101092000Y-70104000D01*
X108204000Y-67056000D02*
X109728000Y-65532000D01*
X95504000Y-69596000D02*
X96012000Y-69596000D01*
X96012000Y-69596000D02*
X97028000Y-68580000D01*
M02*
