G04 #@! TF.GenerationSoftware,KiCad,Pcbnew,5.1.2-f72e74a~84~ubuntu18.04.1*
G04 #@! TF.CreationDate,2019-06-18T14:55:53-04:00*
G04 #@! TF.ProjectId,temperature board,74656d70-6572-4617-9475-726520626f61,v01*
G04 #@! TF.SameCoordinates,Original*
G04 #@! TF.FileFunction,Legend,Top*
G04 #@! TF.FilePolarity,Positive*
%FSLAX46Y46*%
G04 Gerber Fmt 4.6, Leading zero omitted, Abs format (unit mm)*
G04 Created by KiCad (PCBNEW 5.1.2-f72e74a~84~ubuntu18.04.1) date 2019-06-18 14:55:53*
%MOMM*%
%LPD*%
G04 APERTURE LIST*
%ADD10C,0.150000*%
%ADD11C,0.120000*%
G04 APERTURE END LIST*
D10*
X167887828Y-58939180D02*
X168506876Y-58939180D01*
X168173542Y-59320133D01*
X168316400Y-59320133D01*
X168411638Y-59367752D01*
X168459257Y-59415371D01*
X168506876Y-59510609D01*
X168506876Y-59748704D01*
X168459257Y-59843942D01*
X168411638Y-59891561D01*
X168316400Y-59939180D01*
X168030685Y-59939180D01*
X167935447Y-59891561D01*
X167887828Y-59843942D01*
X168935447Y-59843942D02*
X168983066Y-59891561D01*
X168935447Y-59939180D01*
X168887828Y-59891561D01*
X168935447Y-59843942D01*
X168935447Y-59939180D01*
X169316400Y-58939180D02*
X169935447Y-58939180D01*
X169602114Y-59320133D01*
X169744971Y-59320133D01*
X169840209Y-59367752D01*
X169887828Y-59415371D01*
X169935447Y-59510609D01*
X169935447Y-59748704D01*
X169887828Y-59843942D01*
X169840209Y-59891561D01*
X169744971Y-59939180D01*
X169459257Y-59939180D01*
X169364019Y-59891561D01*
X169316400Y-59843942D01*
X170268780Y-59272514D02*
X170506876Y-59939180D01*
X170744971Y-59272514D01*
X104235428Y-102576380D02*
X104854476Y-102576380D01*
X104521142Y-102957333D01*
X104664000Y-102957333D01*
X104759238Y-103004952D01*
X104806857Y-103052571D01*
X104854476Y-103147809D01*
X104854476Y-103385904D01*
X104806857Y-103481142D01*
X104759238Y-103528761D01*
X104664000Y-103576380D01*
X104378285Y-103576380D01*
X104283047Y-103528761D01*
X104235428Y-103481142D01*
X105283047Y-103481142D02*
X105330666Y-103528761D01*
X105283047Y-103576380D01*
X105235428Y-103528761D01*
X105283047Y-103481142D01*
X105283047Y-103576380D01*
X105664000Y-102576380D02*
X106283047Y-102576380D01*
X105949714Y-102957333D01*
X106092571Y-102957333D01*
X106187809Y-103004952D01*
X106235428Y-103052571D01*
X106283047Y-103147809D01*
X106283047Y-103385904D01*
X106235428Y-103481142D01*
X106187809Y-103528761D01*
X106092571Y-103576380D01*
X105806857Y-103576380D01*
X105711619Y-103528761D01*
X105664000Y-103481142D01*
X106616380Y-102909714D02*
X106854476Y-103576380D01*
X107092571Y-102909714D01*
X105911142Y-47283714D02*
X106292095Y-47283714D01*
X106054000Y-46950380D02*
X106054000Y-47807523D01*
X106101619Y-47902761D01*
X106196857Y-47950380D01*
X106292095Y-47950380D01*
X107006380Y-47902761D02*
X106911142Y-47950380D01*
X106720666Y-47950380D01*
X106625428Y-47902761D01*
X106577809Y-47807523D01*
X106577809Y-47426571D01*
X106625428Y-47331333D01*
X106720666Y-47283714D01*
X106911142Y-47283714D01*
X107006380Y-47331333D01*
X107054000Y-47426571D01*
X107054000Y-47521809D01*
X106577809Y-47617047D01*
X107482571Y-47950380D02*
X107482571Y-47283714D01*
X107482571Y-47378952D02*
X107530190Y-47331333D01*
X107625428Y-47283714D01*
X107768285Y-47283714D01*
X107863523Y-47331333D01*
X107911142Y-47426571D01*
X107911142Y-47950380D01*
X107911142Y-47426571D02*
X107958761Y-47331333D01*
X108054000Y-47283714D01*
X108196857Y-47283714D01*
X108292095Y-47331333D01*
X108339714Y-47426571D01*
X108339714Y-47950380D01*
X108815904Y-47283714D02*
X108815904Y-48283714D01*
X108815904Y-47331333D02*
X108911142Y-47283714D01*
X109101619Y-47283714D01*
X109196857Y-47331333D01*
X109244476Y-47378952D01*
X109292095Y-47474190D01*
X109292095Y-47759904D01*
X109244476Y-47855142D01*
X109196857Y-47902761D01*
X109101619Y-47950380D01*
X108911142Y-47950380D01*
X108815904Y-47902761D01*
X110911142Y-47902761D02*
X110815904Y-47950380D01*
X110625428Y-47950380D01*
X110530190Y-47902761D01*
X110482571Y-47855142D01*
X110434952Y-47759904D01*
X110434952Y-47474190D01*
X110482571Y-47378952D01*
X110530190Y-47331333D01*
X110625428Y-47283714D01*
X110815904Y-47283714D01*
X110911142Y-47331333D01*
X111768285Y-47950380D02*
X111768285Y-47426571D01*
X111720666Y-47331333D01*
X111625428Y-47283714D01*
X111434952Y-47283714D01*
X111339714Y-47331333D01*
X111768285Y-47902761D02*
X111673047Y-47950380D01*
X111434952Y-47950380D01*
X111339714Y-47902761D01*
X111292095Y-47807523D01*
X111292095Y-47712285D01*
X111339714Y-47617047D01*
X111434952Y-47569428D01*
X111673047Y-47569428D01*
X111768285Y-47521809D01*
X112387333Y-47950380D02*
X112292095Y-47902761D01*
X112244476Y-47807523D01*
X112244476Y-46950380D01*
X112768285Y-47950380D02*
X112768285Y-47283714D01*
X112768285Y-46950380D02*
X112720666Y-46998000D01*
X112768285Y-47045619D01*
X112815904Y-46998000D01*
X112768285Y-46950380D01*
X112768285Y-47045619D01*
X113244476Y-47950380D02*
X113244476Y-46950380D01*
X113244476Y-47331333D02*
X113339714Y-47283714D01*
X113530190Y-47283714D01*
X113625428Y-47331333D01*
X113673047Y-47378952D01*
X113720666Y-47474190D01*
X113720666Y-47759904D01*
X113673047Y-47855142D01*
X113625428Y-47902761D01*
X113530190Y-47950380D01*
X113339714Y-47950380D01*
X113244476Y-47902761D01*
X114149238Y-47950380D02*
X114149238Y-47283714D01*
X114149238Y-47474190D02*
X114196857Y-47378952D01*
X114244476Y-47331333D01*
X114339714Y-47283714D01*
X114434952Y-47283714D01*
X115196857Y-47950380D02*
X115196857Y-47426571D01*
X115149238Y-47331333D01*
X115054000Y-47283714D01*
X114863523Y-47283714D01*
X114768285Y-47331333D01*
X115196857Y-47902761D02*
X115101619Y-47950380D01*
X114863523Y-47950380D01*
X114768285Y-47902761D01*
X114720666Y-47807523D01*
X114720666Y-47712285D01*
X114768285Y-47617047D01*
X114863523Y-47569428D01*
X115101619Y-47569428D01*
X115196857Y-47521809D01*
X115530190Y-47283714D02*
X115911142Y-47283714D01*
X115673047Y-46950380D02*
X115673047Y-47807523D01*
X115720666Y-47902761D01*
X115815904Y-47950380D01*
X115911142Y-47950380D01*
X116244476Y-47950380D02*
X116244476Y-47283714D01*
X116244476Y-46950380D02*
X116196857Y-46998000D01*
X116244476Y-47045619D01*
X116292095Y-46998000D01*
X116244476Y-46950380D01*
X116244476Y-47045619D01*
X116863523Y-47950380D02*
X116768285Y-47902761D01*
X116720666Y-47855142D01*
X116673047Y-47759904D01*
X116673047Y-47474190D01*
X116720666Y-47378952D01*
X116768285Y-47331333D01*
X116863523Y-47283714D01*
X117006380Y-47283714D01*
X117101619Y-47331333D01*
X117149238Y-47378952D01*
X117196857Y-47474190D01*
X117196857Y-47759904D01*
X117149238Y-47855142D01*
X117101619Y-47902761D01*
X117006380Y-47950380D01*
X116863523Y-47950380D01*
X117625428Y-47283714D02*
X117625428Y-47950380D01*
X117625428Y-47378952D02*
X117673047Y-47331333D01*
X117768285Y-47283714D01*
X117911142Y-47283714D01*
X118006380Y-47331333D01*
X118054000Y-47426571D01*
X118054000Y-47950380D01*
X119292095Y-47950380D02*
X119292095Y-46950380D01*
X119292095Y-47331333D02*
X119387333Y-47283714D01*
X119577809Y-47283714D01*
X119673047Y-47331333D01*
X119720666Y-47378952D01*
X119768285Y-47474190D01*
X119768285Y-47759904D01*
X119720666Y-47855142D01*
X119673047Y-47902761D01*
X119577809Y-47950380D01*
X119387333Y-47950380D01*
X119292095Y-47902761D01*
X120339714Y-47950380D02*
X120244476Y-47902761D01*
X120196857Y-47855142D01*
X120149238Y-47759904D01*
X120149238Y-47474190D01*
X120196857Y-47378952D01*
X120244476Y-47331333D01*
X120339714Y-47283714D01*
X120482571Y-47283714D01*
X120577809Y-47331333D01*
X120625428Y-47378952D01*
X120673047Y-47474190D01*
X120673047Y-47759904D01*
X120625428Y-47855142D01*
X120577809Y-47902761D01*
X120482571Y-47950380D01*
X120339714Y-47950380D01*
X121530190Y-47950380D02*
X121530190Y-47426571D01*
X121482571Y-47331333D01*
X121387333Y-47283714D01*
X121196857Y-47283714D01*
X121101619Y-47331333D01*
X121530190Y-47902761D02*
X121434952Y-47950380D01*
X121196857Y-47950380D01*
X121101619Y-47902761D01*
X121054000Y-47807523D01*
X121054000Y-47712285D01*
X121101619Y-47617047D01*
X121196857Y-47569428D01*
X121434952Y-47569428D01*
X121530190Y-47521809D01*
X122006380Y-47950380D02*
X122006380Y-47283714D01*
X122006380Y-47474190D02*
X122054000Y-47378952D01*
X122101619Y-47331333D01*
X122196857Y-47283714D01*
X122292095Y-47283714D01*
X123054000Y-47950380D02*
X123054000Y-46950380D01*
X123054000Y-47902761D02*
X122958761Y-47950380D01*
X122768285Y-47950380D01*
X122673047Y-47902761D01*
X122625428Y-47855142D01*
X122577809Y-47759904D01*
X122577809Y-47474190D01*
X122625428Y-47378952D01*
X122673047Y-47331333D01*
X122768285Y-47283714D01*
X122958761Y-47283714D01*
X123054000Y-47331333D01*
D11*
X124714000Y-46939200D02*
G75*
G02X125222000Y-47447200I508000J0D01*
G01*
X125222000Y-47447200D02*
X124714000Y-47955200D01*
X125222000Y-47955200D02*
X125730000Y-47955200D01*
X124714000Y-47955200D02*
X125222000Y-47955200D01*
X124206000Y-47955200D02*
X124460000Y-47447200D01*
X123952000Y-47447200D02*
X124206000Y-47955200D01*
X187370000Y-73240000D02*
X179370000Y-73240000D01*
X187370000Y-104210000D02*
X179370000Y-104210000D01*
X186908675Y-83185000D02*
X186475662Y-83435000D01*
X186475662Y-82935000D02*
X186908675Y-83185000D01*
X186475662Y-83435000D02*
X186475662Y-82935000D01*
X187370000Y-73240000D02*
X199710000Y-73240000D01*
X179370000Y-104210000D02*
X179370000Y-73240000D01*
X199710000Y-104210000D02*
X187370000Y-104210000D01*
X194230000Y-96185000D02*
X199230000Y-96185000D01*
X199230000Y-96185000D02*
X197230000Y-95185000D01*
X197230000Y-95185000D02*
X199230000Y-96185000D01*
X197230000Y-97185000D02*
X199230000Y-96185000D01*
X101572000Y-61848999D02*
X101572000Y-97328999D01*
X171732000Y-72882334D02*
X171732000Y-61849000D01*
X171732000Y-86375666D02*
X171732000Y-97329000D01*
X171372000Y-72882334D02*
X171732000Y-72882334D01*
X171372000Y-86375666D02*
X171372000Y-72882334D01*
X171732000Y-86375666D02*
X171372000Y-86375666D01*
X101572000Y-97328999D02*
X171732000Y-97329000D01*
X171732000Y-61849000D02*
X101572000Y-61848999D01*
X201085000Y-57245000D02*
X197275000Y-57245000D01*
X197275000Y-35465000D02*
X201085000Y-35465000D01*
X169755000Y-35465000D02*
X165735000Y-35465000D01*
X165735000Y-57245000D02*
X169755000Y-57245000D01*
X198755000Y-37465000D02*
X200025000Y-38735000D01*
X200025000Y-36195000D02*
X198755000Y-37465000D01*
X200025000Y-38735000D02*
X200025000Y-36195000D01*
X201085000Y-42725001D02*
X201085000Y-35465000D01*
X200725000Y-42725001D02*
X201085000Y-42725001D01*
X200725000Y-49985000D02*
X200725000Y-42725001D01*
X201085000Y-49985000D02*
X200725000Y-49985000D01*
X201085000Y-57245000D02*
X201085000Y-49985000D01*
X169755000Y-57245000D02*
X197275000Y-57245000D01*
X165735000Y-35465000D02*
X165735000Y-57245000D01*
X197275000Y-35465000D02*
X169755000Y-35465000D01*
X198770000Y-112443000D02*
X197770000Y-111443000D01*
X197770000Y-113443000D02*
X198770000Y-112443000D01*
X198770000Y-112443000D02*
X197770000Y-113443000D01*
X194770000Y-112443000D02*
X198770000Y-112443000D01*
X183770000Y-116443000D02*
X199770000Y-116443000D01*
X183770000Y-108443000D02*
X183770000Y-116443000D01*
X199770000Y-108443000D02*
X183770000Y-108443000D01*
X199770000Y-109443000D02*
X199770000Y-108443000D01*
X199770000Y-116443000D02*
X199770000Y-109443000D01*
X102408000Y-111506000D02*
X102408000Y-106506000D01*
X108158000Y-111506000D02*
X108158000Y-106506000D01*
X102408000Y-111506000D02*
X108158000Y-111506000D01*
X102408000Y-106506000D02*
X108158000Y-106506000D01*
X160609000Y-47117000D02*
X160609000Y-52117000D01*
X154859000Y-47117000D02*
X154859000Y-52117000D01*
X160609000Y-47117000D02*
X154859000Y-47117000D01*
X160609000Y-52117000D02*
X154859000Y-52117000D01*
X158242000Y-114935000D02*
G75*
G03X158242000Y-114935000I-1270000J0D01*
G01*
X158242000Y-112395000D02*
G75*
G03X158242000Y-112395000I-1270000J0D01*
G01*
X142367000Y-104775000D02*
X172847000Y-104775000D01*
X142367000Y-122555000D02*
X142367000Y-104775000D01*
X172847000Y-122555000D02*
X142367000Y-122555000D01*
X172847000Y-114935000D02*
X172847000Y-122555000D01*
X171577000Y-114935000D02*
X172847000Y-114935000D01*
X171577000Y-112395000D02*
X171577000Y-114935000D01*
X172847000Y-112395000D02*
X171577000Y-112395000D01*
X172847000Y-104775000D02*
X172847000Y-112395000D01*
X144226000Y-47117000D02*
X144226000Y-52117000D01*
X138476000Y-47117000D02*
X138476000Y-52117000D01*
X144226000Y-47117000D02*
X138476000Y-47117000D01*
X144226000Y-52117000D02*
X138476000Y-52117000D01*
X108077000Y-98425000D02*
X110617000Y-98425000D01*
X108077000Y-99695000D02*
X108077000Y-98425000D01*
X109347000Y-99695000D02*
X108077000Y-99695000D01*
X109347000Y-102235000D02*
X109347000Y-99695000D01*
X108077000Y-102235000D02*
X109347000Y-102235000D01*
X108077000Y-103505000D02*
X108077000Y-102235000D01*
X110617000Y-103505000D02*
X108077000Y-103505000D01*
X137287000Y-103505000D02*
X110617000Y-103505000D01*
X137287000Y-98425000D02*
X137287000Y-103505000D01*
X110617000Y-98425000D02*
X137287000Y-98425000D01*
X155067000Y-58293000D02*
X152527000Y-58293000D01*
X155067000Y-57023000D02*
X155067000Y-58293000D01*
X153797000Y-57023000D02*
X155067000Y-57023000D01*
X153797000Y-54483000D02*
X153797000Y-57023000D01*
X155067000Y-54483000D02*
X153797000Y-54483000D01*
X155067000Y-53213000D02*
X155067000Y-54483000D01*
X152527000Y-53213000D02*
X155067000Y-53213000D01*
X125857000Y-53213000D02*
X152527000Y-53213000D01*
X125857000Y-58293000D02*
X125857000Y-53213000D01*
X152527000Y-58293000D02*
X125857000Y-58293000D01*
X114219000Y-119380000D02*
X114219000Y-114380000D01*
X119969000Y-119380000D02*
X119969000Y-114380000D01*
X114219000Y-119380000D02*
X119969000Y-119380000D01*
X114219000Y-114380000D02*
X119969000Y-114380000D01*
X106345000Y-119380000D02*
X106345000Y-114380000D01*
X112095000Y-119380000D02*
X112095000Y-114380000D01*
X106345000Y-119380000D02*
X112095000Y-119380000D01*
X106345000Y-114380000D02*
X112095000Y-114380000D01*
X118283000Y-111506000D02*
X118283000Y-106506000D01*
X124033000Y-111506000D02*
X124033000Y-106506000D01*
X118283000Y-111506000D02*
X124033000Y-111506000D01*
X118283000Y-106506000D02*
X124033000Y-106506000D01*
X136225000Y-47117000D02*
X136225000Y-52117000D01*
X130475000Y-47117000D02*
X130475000Y-52117000D01*
X136225000Y-47117000D02*
X130475000Y-47117000D01*
X136225000Y-52117000D02*
X130475000Y-52117000D01*
X152227000Y-47244000D02*
X152227000Y-52244000D01*
X146477000Y-47244000D02*
X146477000Y-52244000D01*
X152227000Y-47244000D02*
X146477000Y-47244000D01*
X152227000Y-52244000D02*
X146477000Y-52244000D01*
X182245000Y-58420000D02*
X182245000Y-72390000D01*
X200025000Y-58420000D02*
X182245000Y-58420000D01*
X200025000Y-72390000D02*
X200025000Y-58420000D01*
X182245000Y-72390000D02*
X200025000Y-72390000D01*
X195274946Y-69850000D02*
G75*
G03X195274946Y-69850000I-1599946J0D01*
G01*
X195274946Y-60960000D02*
G75*
G03X195274946Y-60960000I-1599946J0D01*
G01*
X129967000Y-119380000D02*
X129967000Y-114380000D01*
X135717000Y-119380000D02*
X135717000Y-114380000D01*
X129967000Y-119380000D02*
X135717000Y-119380000D01*
X129967000Y-114380000D02*
X135717000Y-114380000D01*
X126411000Y-111506000D02*
X126411000Y-106506000D01*
X132161000Y-111506000D02*
X132161000Y-106506000D01*
X126411000Y-111506000D02*
X132161000Y-111506000D01*
X126411000Y-106506000D02*
X132161000Y-106506000D01*
X122347000Y-119380000D02*
X122347000Y-114380000D01*
X128097000Y-119380000D02*
X128097000Y-114380000D01*
X122347000Y-119380000D02*
X128097000Y-119380000D01*
X122347000Y-114380000D02*
X128097000Y-114380000D01*
X109901000Y-111506000D02*
X109901000Y-106506000D01*
X115651000Y-111506000D02*
X115651000Y-106506000D01*
X109901000Y-111506000D02*
X115651000Y-111506000D01*
X109901000Y-106506000D02*
X115651000Y-106506000D01*
X132034000Y-40259000D02*
X132034000Y-45259000D01*
X126284000Y-40259000D02*
X126284000Y-45259000D01*
X132034000Y-40259000D02*
X126284000Y-40259000D01*
X132034000Y-45259000D02*
X126284000Y-45259000D01*
X140416000Y-40259000D02*
X140416000Y-45259000D01*
X134666000Y-40259000D02*
X134666000Y-45259000D01*
X140416000Y-40259000D02*
X134666000Y-40259000D01*
X140416000Y-45259000D02*
X134666000Y-45259000D01*
X148163000Y-40259000D02*
X148163000Y-45259000D01*
X142413000Y-40259000D02*
X142413000Y-45259000D01*
X148163000Y-40259000D02*
X142413000Y-40259000D01*
X148163000Y-45259000D02*
X142413000Y-45259000D01*
X156418000Y-40259000D02*
X156418000Y-45259000D01*
X150668000Y-40259000D02*
X150668000Y-45259000D01*
X156418000Y-40259000D02*
X150668000Y-40259000D01*
X156418000Y-45259000D02*
X150668000Y-45259000D01*
X179920000Y-119114000D02*
G75*
G03X179920000Y-119114000I-2120000J0D01*
G01*
X166978000Y-100584000D02*
G75*
G03X166978000Y-100584000I-2120000J0D01*
G01*
X159967600Y-55219600D02*
G75*
G03X159967600Y-55219600I-2120000J0D01*
G01*
X107428400Y-100088000D02*
G75*
G03X107428400Y-100088000I-2120000J0D01*
G01*
D10*
X185882380Y-89534523D02*
X186596666Y-89534523D01*
X186739523Y-89582142D01*
X186834761Y-89677380D01*
X186882380Y-89820238D01*
X186882380Y-89915476D01*
X185977619Y-89105952D02*
X185930000Y-89058333D01*
X185882380Y-88963095D01*
X185882380Y-88725000D01*
X185930000Y-88629761D01*
X185977619Y-88582142D01*
X186072857Y-88534523D01*
X186168095Y-88534523D01*
X186310952Y-88582142D01*
X186882380Y-89153571D01*
X186882380Y-88534523D01*
X185977619Y-88153571D02*
X185930000Y-88105952D01*
X185882380Y-88010714D01*
X185882380Y-87772619D01*
X185930000Y-87677380D01*
X185977619Y-87629761D01*
X186072857Y-87582142D01*
X186168095Y-87582142D01*
X186310952Y-87629761D01*
X186882380Y-88201190D01*
X186882380Y-87582142D01*
X169251380Y-80438523D02*
X169965666Y-80438523D01*
X170108523Y-80486142D01*
X170203761Y-80581380D01*
X170251380Y-80724238D01*
X170251380Y-80819476D01*
X170251380Y-79438523D02*
X170251380Y-80009952D01*
X170251380Y-79724238D02*
X169251380Y-79724238D01*
X169394238Y-79819476D01*
X169489476Y-79914714D01*
X169537095Y-80009952D01*
X169251380Y-78819476D02*
X169251380Y-78724238D01*
X169299000Y-78629000D01*
X169346619Y-78581380D01*
X169441857Y-78533761D01*
X169632333Y-78486142D01*
X169870428Y-78486142D01*
X170060904Y-78533761D01*
X170156142Y-78581380D01*
X170203761Y-78629000D01*
X170251380Y-78724238D01*
X170251380Y-78819476D01*
X170203761Y-78914714D01*
X170156142Y-78962333D01*
X170060904Y-79009952D01*
X169870428Y-79057571D01*
X169632333Y-79057571D01*
X169441857Y-79009952D01*
X169346619Y-78962333D01*
X169299000Y-78914714D01*
X169251380Y-78819476D01*
X195159380Y-47164523D02*
X195873666Y-47164523D01*
X196016523Y-47212142D01*
X196111761Y-47307380D01*
X196159380Y-47450238D01*
X196159380Y-47545476D01*
X195254619Y-46735952D02*
X195207000Y-46688333D01*
X195159380Y-46593095D01*
X195159380Y-46355000D01*
X195207000Y-46259761D01*
X195254619Y-46212142D01*
X195349857Y-46164523D01*
X195445095Y-46164523D01*
X195587952Y-46212142D01*
X196159380Y-46783571D01*
X196159380Y-46164523D01*
X196159380Y-45212142D02*
X196159380Y-45783571D01*
X196159380Y-45497857D02*
X195159380Y-45497857D01*
X195302238Y-45593095D01*
X195397476Y-45688333D01*
X195445095Y-45783571D01*
X191436666Y-117895380D02*
X191436666Y-118609666D01*
X191389047Y-118752523D01*
X191293809Y-118847761D01*
X191150952Y-118895380D01*
X191055714Y-118895380D01*
X192436666Y-118895380D02*
X191865238Y-118895380D01*
X192150952Y-118895380D02*
X192150952Y-117895380D01*
X192055714Y-118038238D01*
X191960476Y-118133476D01*
X191865238Y-118181095D01*
X106132380Y-105838523D02*
X106846666Y-105838523D01*
X106989523Y-105886142D01*
X107084761Y-105981380D01*
X107132380Y-106124238D01*
X107132380Y-106219476D01*
X107132380Y-104838523D02*
X107132380Y-105409952D01*
X107132380Y-105124238D02*
X106132380Y-105124238D01*
X106275238Y-105219476D01*
X106370476Y-105314714D01*
X106418095Y-105409952D01*
X106227619Y-104457571D02*
X106180000Y-104409952D01*
X106132380Y-104314714D01*
X106132380Y-104076619D01*
X106180000Y-103981380D01*
X106227619Y-103933761D01*
X106322857Y-103886142D01*
X106418095Y-103886142D01*
X106560952Y-103933761D01*
X107132380Y-104505190D01*
X107132380Y-103886142D01*
X156551380Y-47704333D02*
X157265666Y-47704333D01*
X157408523Y-47751952D01*
X157503761Y-47847190D01*
X157551380Y-47990047D01*
X157551380Y-48085285D01*
X156646619Y-47275761D02*
X156599000Y-47228142D01*
X156551380Y-47132904D01*
X156551380Y-46894809D01*
X156599000Y-46799571D01*
X156646619Y-46751952D01*
X156741857Y-46704333D01*
X156837095Y-46704333D01*
X156979952Y-46751952D01*
X157551380Y-47323380D01*
X157551380Y-46704333D01*
X169759380Y-114474523D02*
X170473666Y-114474523D01*
X170616523Y-114522142D01*
X170711761Y-114617380D01*
X170759380Y-114760238D01*
X170759380Y-114855476D01*
X169854619Y-114045952D02*
X169807000Y-113998333D01*
X169759380Y-113903095D01*
X169759380Y-113665000D01*
X169807000Y-113569761D01*
X169854619Y-113522142D01*
X169949857Y-113474523D01*
X170045095Y-113474523D01*
X170187952Y-113522142D01*
X170759380Y-114093571D01*
X170759380Y-113474523D01*
X169759380Y-112855476D02*
X169759380Y-112760238D01*
X169807000Y-112665000D01*
X169854619Y-112617380D01*
X169949857Y-112569761D01*
X170140333Y-112522142D01*
X170378428Y-112522142D01*
X170568904Y-112569761D01*
X170664142Y-112617380D01*
X170711761Y-112665000D01*
X170759380Y-112760238D01*
X170759380Y-112855476D01*
X170711761Y-112950714D01*
X170664142Y-112998333D01*
X170568904Y-113045952D01*
X170378428Y-113093571D01*
X170140333Y-113093571D01*
X169949857Y-113045952D01*
X169854619Y-112998333D01*
X169807000Y-112950714D01*
X169759380Y-112855476D01*
X141311380Y-47704333D02*
X142025666Y-47704333D01*
X142168523Y-47751952D01*
X142263761Y-47847190D01*
X142311380Y-47990047D01*
X142311380Y-48085285D01*
X141311380Y-46799571D02*
X141311380Y-46990047D01*
X141359000Y-47085285D01*
X141406619Y-47132904D01*
X141549476Y-47228142D01*
X141739952Y-47275761D01*
X142120904Y-47275761D01*
X142216142Y-47228142D01*
X142263761Y-47180523D01*
X142311380Y-47085285D01*
X142311380Y-46894809D01*
X142263761Y-46799571D01*
X142216142Y-46751952D01*
X142120904Y-46704333D01*
X141882809Y-46704333D01*
X141787571Y-46751952D01*
X141739952Y-46799571D01*
X141692333Y-46894809D01*
X141692333Y-47085285D01*
X141739952Y-47180523D01*
X141787571Y-47228142D01*
X141882809Y-47275761D01*
X138199880Y-101409404D02*
X139009404Y-101409404D01*
X139104642Y-101361785D01*
X139152261Y-101314166D01*
X139199880Y-101218928D01*
X139199880Y-101028452D01*
X139152261Y-100933214D01*
X139104642Y-100885595D01*
X139009404Y-100837976D01*
X138199880Y-100837976D01*
X138295119Y-100409404D02*
X138247500Y-100361785D01*
X138199880Y-100266547D01*
X138199880Y-100028452D01*
X138247500Y-99933214D01*
X138295119Y-99885595D01*
X138390357Y-99837976D01*
X138485595Y-99837976D01*
X138628452Y-99885595D01*
X139199880Y-100457023D01*
X139199880Y-99837976D01*
X124318780Y-56438704D02*
X125128304Y-56438704D01*
X125223542Y-56391085D01*
X125271161Y-56343466D01*
X125318780Y-56248228D01*
X125318780Y-56057752D01*
X125271161Y-55962514D01*
X125223542Y-55914895D01*
X125128304Y-55867276D01*
X124318780Y-55867276D01*
X125318780Y-54867276D02*
X125318780Y-55438704D01*
X125318780Y-55152990D02*
X124318780Y-55152990D01*
X124461638Y-55248228D01*
X124556876Y-55343466D01*
X124604495Y-55438704D01*
X116673380Y-113839523D02*
X117387666Y-113839523D01*
X117530523Y-113887142D01*
X117625761Y-113982380D01*
X117673380Y-114125238D01*
X117673380Y-114220476D01*
X117673380Y-112839523D02*
X117673380Y-113410952D01*
X117673380Y-113125238D02*
X116673380Y-113125238D01*
X116816238Y-113220476D01*
X116911476Y-113315714D01*
X116959095Y-113410952D01*
X116673380Y-111934761D02*
X116673380Y-112410952D01*
X117149571Y-112458571D01*
X117101952Y-112410952D01*
X117054333Y-112315714D01*
X117054333Y-112077619D01*
X117101952Y-111982380D01*
X117149571Y-111934761D01*
X117244809Y-111887142D01*
X117482904Y-111887142D01*
X117578142Y-111934761D01*
X117625761Y-111982380D01*
X117673380Y-112077619D01*
X117673380Y-112315714D01*
X117625761Y-112410952D01*
X117578142Y-112458571D01*
X108545380Y-113839523D02*
X109259666Y-113839523D01*
X109402523Y-113887142D01*
X109497761Y-113982380D01*
X109545380Y-114125238D01*
X109545380Y-114220476D01*
X109545380Y-112839523D02*
X109545380Y-113410952D01*
X109545380Y-113125238D02*
X108545380Y-113125238D01*
X108688238Y-113220476D01*
X108783476Y-113315714D01*
X108831095Y-113410952D01*
X108545380Y-112506190D02*
X108545380Y-111887142D01*
X108926333Y-112220476D01*
X108926333Y-112077619D01*
X108973952Y-111982380D01*
X109021571Y-111934761D01*
X109116809Y-111887142D01*
X109354904Y-111887142D01*
X109450142Y-111934761D01*
X109497761Y-111982380D01*
X109545380Y-112077619D01*
X109545380Y-112363333D01*
X109497761Y-112458571D01*
X109450142Y-112506190D01*
X120229380Y-105838523D02*
X120943666Y-105838523D01*
X121086523Y-105886142D01*
X121181761Y-105981380D01*
X121229380Y-106124238D01*
X121229380Y-106219476D01*
X121229380Y-104838523D02*
X121229380Y-105409952D01*
X121229380Y-105124238D02*
X120229380Y-105124238D01*
X120372238Y-105219476D01*
X120467476Y-105314714D01*
X120515095Y-105409952D01*
X120229380Y-103981380D02*
X120229380Y-104171857D01*
X120277000Y-104267095D01*
X120324619Y-104314714D01*
X120467476Y-104409952D01*
X120657952Y-104457571D01*
X121038904Y-104457571D01*
X121134142Y-104409952D01*
X121181761Y-104362333D01*
X121229380Y-104267095D01*
X121229380Y-104076619D01*
X121181761Y-103981380D01*
X121134142Y-103933761D01*
X121038904Y-103886142D01*
X120800809Y-103886142D01*
X120705571Y-103933761D01*
X120657952Y-103981380D01*
X120610333Y-104076619D01*
X120610333Y-104267095D01*
X120657952Y-104362333D01*
X120705571Y-104409952D01*
X120800809Y-104457571D01*
X132675380Y-47704333D02*
X133389666Y-47704333D01*
X133532523Y-47751952D01*
X133627761Y-47847190D01*
X133675380Y-47990047D01*
X133675380Y-48085285D01*
X133103952Y-47085285D02*
X133056333Y-47180523D01*
X133008714Y-47228142D01*
X132913476Y-47275761D01*
X132865857Y-47275761D01*
X132770619Y-47228142D01*
X132723000Y-47180523D01*
X132675380Y-47085285D01*
X132675380Y-46894809D01*
X132723000Y-46799571D01*
X132770619Y-46751952D01*
X132865857Y-46704333D01*
X132913476Y-46704333D01*
X133008714Y-46751952D01*
X133056333Y-46799571D01*
X133103952Y-46894809D01*
X133103952Y-47085285D01*
X133151571Y-47180523D01*
X133199190Y-47228142D01*
X133294428Y-47275761D01*
X133484904Y-47275761D01*
X133580142Y-47228142D01*
X133627761Y-47180523D01*
X133675380Y-47085285D01*
X133675380Y-46894809D01*
X133627761Y-46799571D01*
X133580142Y-46751952D01*
X133484904Y-46704333D01*
X133294428Y-46704333D01*
X133199190Y-46751952D01*
X133151571Y-46799571D01*
X133103952Y-46894809D01*
X148423380Y-47704333D02*
X149137666Y-47704333D01*
X149280523Y-47751952D01*
X149375761Y-47847190D01*
X149423380Y-47990047D01*
X149423380Y-48085285D01*
X148756714Y-46799571D02*
X149423380Y-46799571D01*
X148375761Y-47037666D02*
X149090047Y-47275761D01*
X149090047Y-46656714D01*
X180927380Y-63039523D02*
X181641666Y-63039523D01*
X181784523Y-63087142D01*
X181879761Y-63182380D01*
X181927380Y-63325238D01*
X181927380Y-63420476D01*
X181927380Y-62039523D02*
X181927380Y-62610952D01*
X181927380Y-62325238D02*
X180927380Y-62325238D01*
X181070238Y-62420476D01*
X181165476Y-62515714D01*
X181213095Y-62610952D01*
X181927380Y-61087142D02*
X181927380Y-61658571D01*
X181927380Y-61372857D02*
X180927380Y-61372857D01*
X181070238Y-61468095D01*
X181165476Y-61563333D01*
X181213095Y-61658571D01*
X132167380Y-113585523D02*
X132881666Y-113585523D01*
X133024523Y-113633142D01*
X133119761Y-113728380D01*
X133167380Y-113871238D01*
X133167380Y-113966476D01*
X133167380Y-112585523D02*
X133167380Y-113156952D01*
X133167380Y-112871238D02*
X132167380Y-112871238D01*
X132310238Y-112966476D01*
X132405476Y-113061714D01*
X132453095Y-113156952D01*
X133167380Y-112109333D02*
X133167380Y-111918857D01*
X133119761Y-111823619D01*
X133072142Y-111776000D01*
X132929285Y-111680761D01*
X132738809Y-111633142D01*
X132357857Y-111633142D01*
X132262619Y-111680761D01*
X132215000Y-111728380D01*
X132167380Y-111823619D01*
X132167380Y-112014095D01*
X132215000Y-112109333D01*
X132262619Y-112156952D01*
X132357857Y-112204571D01*
X132595952Y-112204571D01*
X132691190Y-112156952D01*
X132738809Y-112109333D01*
X132786428Y-112014095D01*
X132786428Y-111823619D01*
X132738809Y-111728380D01*
X132691190Y-111680761D01*
X132595952Y-111633142D01*
X128484380Y-105330523D02*
X129198666Y-105330523D01*
X129341523Y-105378142D01*
X129436761Y-105473380D01*
X129484380Y-105616238D01*
X129484380Y-105711476D01*
X129484380Y-104330523D02*
X129484380Y-104901952D01*
X129484380Y-104616238D02*
X128484380Y-104616238D01*
X128627238Y-104711476D01*
X128722476Y-104806714D01*
X128770095Y-104901952D01*
X128912952Y-103759095D02*
X128865333Y-103854333D01*
X128817714Y-103901952D01*
X128722476Y-103949571D01*
X128674857Y-103949571D01*
X128579619Y-103901952D01*
X128532000Y-103854333D01*
X128484380Y-103759095D01*
X128484380Y-103568619D01*
X128532000Y-103473380D01*
X128579619Y-103425761D01*
X128674857Y-103378142D01*
X128722476Y-103378142D01*
X128817714Y-103425761D01*
X128865333Y-103473380D01*
X128912952Y-103568619D01*
X128912952Y-103759095D01*
X128960571Y-103854333D01*
X129008190Y-103901952D01*
X129103428Y-103949571D01*
X129293904Y-103949571D01*
X129389142Y-103901952D01*
X129436761Y-103854333D01*
X129484380Y-103759095D01*
X129484380Y-103568619D01*
X129436761Y-103473380D01*
X129389142Y-103425761D01*
X129293904Y-103378142D01*
X129103428Y-103378142D01*
X129008190Y-103425761D01*
X128960571Y-103473380D01*
X128912952Y-103568619D01*
X124174380Y-113839523D02*
X124888666Y-113839523D01*
X125031523Y-113887142D01*
X125126761Y-113982380D01*
X125174380Y-114125238D01*
X125174380Y-114220476D01*
X125174380Y-112839523D02*
X125174380Y-113410952D01*
X125174380Y-113125238D02*
X124174380Y-113125238D01*
X124317238Y-113220476D01*
X124412476Y-113315714D01*
X124460095Y-113410952D01*
X124174380Y-112506190D02*
X124174380Y-111839523D01*
X125174380Y-112268095D01*
X112101380Y-105838523D02*
X112815666Y-105838523D01*
X112958523Y-105886142D01*
X113053761Y-105981380D01*
X113101380Y-106124238D01*
X113101380Y-106219476D01*
X113101380Y-104838523D02*
X113101380Y-105409952D01*
X113101380Y-105124238D02*
X112101380Y-105124238D01*
X112244238Y-105219476D01*
X112339476Y-105314714D01*
X112387095Y-105409952D01*
X112434714Y-103981380D02*
X113101380Y-103981380D01*
X112053761Y-104219476D02*
X112768047Y-104457571D01*
X112768047Y-103838523D01*
X128611380Y-45164333D02*
X129325666Y-45164333D01*
X129468523Y-45211952D01*
X129563761Y-45307190D01*
X129611380Y-45450047D01*
X129611380Y-45545285D01*
X129611380Y-44640523D02*
X129611380Y-44450047D01*
X129563761Y-44354809D01*
X129516142Y-44307190D01*
X129373285Y-44211952D01*
X129182809Y-44164333D01*
X128801857Y-44164333D01*
X128706619Y-44211952D01*
X128659000Y-44259571D01*
X128611380Y-44354809D01*
X128611380Y-44545285D01*
X128659000Y-44640523D01*
X128706619Y-44688142D01*
X128801857Y-44735761D01*
X129039952Y-44735761D01*
X129135190Y-44688142D01*
X129182809Y-44640523D01*
X129230428Y-44545285D01*
X129230428Y-44354809D01*
X129182809Y-44259571D01*
X129135190Y-44211952D01*
X129039952Y-44164333D01*
X136739380Y-45672333D02*
X137453666Y-45672333D01*
X137596523Y-45719952D01*
X137691761Y-45815190D01*
X137739380Y-45958047D01*
X137739380Y-46053285D01*
X136739380Y-45291380D02*
X136739380Y-44624714D01*
X137739380Y-45053285D01*
X144359380Y-45164333D02*
X145073666Y-45164333D01*
X145216523Y-45211952D01*
X145311761Y-45307190D01*
X145359380Y-45450047D01*
X145359380Y-45545285D01*
X144359380Y-44211952D02*
X144359380Y-44688142D01*
X144835571Y-44735761D01*
X144787952Y-44688142D01*
X144740333Y-44592904D01*
X144740333Y-44354809D01*
X144787952Y-44259571D01*
X144835571Y-44211952D01*
X144930809Y-44164333D01*
X145168904Y-44164333D01*
X145264142Y-44211952D01*
X145311761Y-44259571D01*
X145359380Y-44354809D01*
X145359380Y-44592904D01*
X145311761Y-44688142D01*
X145264142Y-44735761D01*
X152995380Y-45164333D02*
X153709666Y-45164333D01*
X153852523Y-45211952D01*
X153947761Y-45307190D01*
X153995380Y-45450047D01*
X153995380Y-45545285D01*
X152995380Y-44783380D02*
X152995380Y-44164333D01*
X153376333Y-44497666D01*
X153376333Y-44354809D01*
X153423952Y-44259571D01*
X153471571Y-44211952D01*
X153566809Y-44164333D01*
X153804904Y-44164333D01*
X153900142Y-44211952D01*
X153947761Y-44259571D01*
X153995380Y-44354809D01*
X153995380Y-44640523D01*
X153947761Y-44735761D01*
X153900142Y-44783380D01*
X178411142Y-123356666D02*
X178458761Y-123404285D01*
X178506380Y-123547142D01*
X178506380Y-123642380D01*
X178458761Y-123785238D01*
X178363523Y-123880476D01*
X178268285Y-123928095D01*
X178077809Y-123975714D01*
X177934952Y-123975714D01*
X177744476Y-123928095D01*
X177649238Y-123880476D01*
X177554000Y-123785238D01*
X177506380Y-123642380D01*
X177506380Y-123547142D01*
X177554000Y-123404285D01*
X177601619Y-123356666D01*
X178506380Y-122404285D02*
X178506380Y-122975714D01*
X178506380Y-122690000D02*
X177506380Y-122690000D01*
X177649238Y-122785238D01*
X177744476Y-122880476D01*
X177792095Y-122975714D01*
X164691333Y-104191142D02*
X164643714Y-104238761D01*
X164500857Y-104286380D01*
X164405619Y-104286380D01*
X164262761Y-104238761D01*
X164167523Y-104143523D01*
X164119904Y-104048285D01*
X164072285Y-103857809D01*
X164072285Y-103714952D01*
X164119904Y-103524476D01*
X164167523Y-103429238D01*
X164262761Y-103334000D01*
X164405619Y-103286380D01*
X164500857Y-103286380D01*
X164643714Y-103334000D01*
X164691333Y-103381619D01*
X165072285Y-103381619D02*
X165119904Y-103334000D01*
X165215142Y-103286380D01*
X165453238Y-103286380D01*
X165548476Y-103334000D01*
X165596095Y-103381619D01*
X165643714Y-103476857D01*
X165643714Y-103572095D01*
X165596095Y-103714952D01*
X165024666Y-104286380D01*
X165643714Y-104286380D01*
X161240742Y-55386266D02*
X161288361Y-55433885D01*
X161335980Y-55576742D01*
X161335980Y-55671980D01*
X161288361Y-55814838D01*
X161193123Y-55910076D01*
X161097885Y-55957695D01*
X160907409Y-56005314D01*
X160764552Y-56005314D01*
X160574076Y-55957695D01*
X160478838Y-55910076D01*
X160383600Y-55814838D01*
X160335980Y-55671980D01*
X160335980Y-55576742D01*
X160383600Y-55433885D01*
X160431219Y-55386266D01*
X160335980Y-55052933D02*
X160335980Y-54433885D01*
X160716933Y-54767219D01*
X160716933Y-54624361D01*
X160764552Y-54529123D01*
X160812171Y-54481504D01*
X160907409Y-54433885D01*
X161145504Y-54433885D01*
X161240742Y-54481504D01*
X161288361Y-54529123D01*
X161335980Y-54624361D01*
X161335980Y-54910076D01*
X161288361Y-55005314D01*
X161240742Y-55052933D01*
X102388942Y-99733266D02*
X102436561Y-99780885D01*
X102484180Y-99923742D01*
X102484180Y-100018980D01*
X102436561Y-100161838D01*
X102341323Y-100257076D01*
X102246085Y-100304695D01*
X102055609Y-100352314D01*
X101912752Y-100352314D01*
X101722276Y-100304695D01*
X101627038Y-100257076D01*
X101531800Y-100161838D01*
X101484180Y-100018980D01*
X101484180Y-99923742D01*
X101531800Y-99780885D01*
X101579419Y-99733266D01*
X101817514Y-98876123D02*
X102484180Y-98876123D01*
X101436561Y-99114219D02*
X102150847Y-99352314D01*
X102150847Y-98733266D01*
M02*
