G04 #@! TF.GenerationSoftware,KiCad,Pcbnew,5.1.2-f72e74a~84~ubuntu18.04.1*
G04 #@! TF.CreationDate,2019-05-24T12:09:12-04:00*
G04 #@! TF.ProjectId,temperature board,74656d70-6572-4617-9475-726520626f61,v01*
G04 #@! TF.SameCoordinates,Original*
G04 #@! TF.FileFunction,Soldermask,Bot*
G04 #@! TF.FilePolarity,Negative*
%FSLAX46Y46*%
G04 Gerber Fmt 4.6, Leading zero omitted, Abs format (unit mm)*
G04 Created by KiCad (PCBNEW 5.1.2-f72e74a~84~ubuntu18.04.1) date 2019-05-24 12:09:12*
%MOMM*%
%LPD*%
G04 APERTURE LIST*
%ADD10C,0.100000*%
G04 APERTURE END LIST*
D10*
G36*
X138667142Y-107168242D02*
G01*
X138815101Y-107229529D01*
X138948255Y-107318499D01*
X139061501Y-107431745D01*
X139150471Y-107564899D01*
X139211758Y-107712858D01*
X139243000Y-107869925D01*
X139243000Y-108030075D01*
X139211758Y-108187142D01*
X139150471Y-108335101D01*
X139061501Y-108468255D01*
X138948255Y-108581501D01*
X138815101Y-108670471D01*
X138667142Y-108731758D01*
X138510075Y-108763000D01*
X138349925Y-108763000D01*
X138192858Y-108731758D01*
X138044899Y-108670471D01*
X137911745Y-108581501D01*
X137798499Y-108468255D01*
X137709529Y-108335101D01*
X137648242Y-108187142D01*
X137617000Y-108030075D01*
X137617000Y-107869925D01*
X137648242Y-107712858D01*
X137709529Y-107564899D01*
X137798499Y-107431745D01*
X137911745Y-107318499D01*
X138044899Y-107229529D01*
X138192858Y-107168242D01*
X138349925Y-107137000D01*
X138510075Y-107137000D01*
X138667142Y-107168242D01*
X138667142Y-107168242D01*
G37*
G36*
X136127142Y-107168242D02*
G01*
X136275101Y-107229529D01*
X136408255Y-107318499D01*
X136521501Y-107431745D01*
X136610471Y-107564899D01*
X136671758Y-107712858D01*
X136703000Y-107869925D01*
X136703000Y-108030075D01*
X136671758Y-108187142D01*
X136610471Y-108335101D01*
X136521501Y-108468255D01*
X136408255Y-108581501D01*
X136275101Y-108670471D01*
X136127142Y-108731758D01*
X135970075Y-108763000D01*
X135809925Y-108763000D01*
X135652858Y-108731758D01*
X135504899Y-108670471D01*
X135371745Y-108581501D01*
X135258499Y-108468255D01*
X135169529Y-108335101D01*
X135108242Y-108187142D01*
X135077000Y-108030075D01*
X135077000Y-107869925D01*
X135108242Y-107712858D01*
X135169529Y-107564899D01*
X135258499Y-107431745D01*
X135371745Y-107318499D01*
X135504899Y-107229529D01*
X135652858Y-107168242D01*
X135809925Y-107137000D01*
X135970075Y-107137000D01*
X136127142Y-107168242D01*
X136127142Y-107168242D01*
G37*
G36*
X133587142Y-107168242D02*
G01*
X133735101Y-107229529D01*
X133868255Y-107318499D01*
X133981501Y-107431745D01*
X134070471Y-107564899D01*
X134131758Y-107712858D01*
X134163000Y-107869925D01*
X134163000Y-108030075D01*
X134131758Y-108187142D01*
X134070471Y-108335101D01*
X133981501Y-108468255D01*
X133868255Y-108581501D01*
X133735101Y-108670471D01*
X133587142Y-108731758D01*
X133430075Y-108763000D01*
X133269925Y-108763000D01*
X133112858Y-108731758D01*
X132964899Y-108670471D01*
X132831745Y-108581501D01*
X132718499Y-108468255D01*
X132629529Y-108335101D01*
X132568242Y-108187142D01*
X132537000Y-108030075D01*
X132537000Y-107869925D01*
X132568242Y-107712858D01*
X132629529Y-107564899D01*
X132718499Y-107431745D01*
X132831745Y-107318499D01*
X132964899Y-107229529D01*
X133112858Y-107168242D01*
X133269925Y-107137000D01*
X133430075Y-107137000D01*
X133587142Y-107168242D01*
X133587142Y-107168242D01*
G37*
G36*
X131047142Y-107168242D02*
G01*
X131195101Y-107229529D01*
X131328255Y-107318499D01*
X131441501Y-107431745D01*
X131530471Y-107564899D01*
X131591758Y-107712858D01*
X131623000Y-107869925D01*
X131623000Y-108030075D01*
X131591758Y-108187142D01*
X131530471Y-108335101D01*
X131441501Y-108468255D01*
X131328255Y-108581501D01*
X131195101Y-108670471D01*
X131047142Y-108731758D01*
X130890075Y-108763000D01*
X130729925Y-108763000D01*
X130572858Y-108731758D01*
X130424899Y-108670471D01*
X130291745Y-108581501D01*
X130178499Y-108468255D01*
X130089529Y-108335101D01*
X130028242Y-108187142D01*
X129997000Y-108030075D01*
X129997000Y-107869925D01*
X130028242Y-107712858D01*
X130089529Y-107564899D01*
X130178499Y-107431745D01*
X130291745Y-107318499D01*
X130424899Y-107229529D01*
X130572858Y-107168242D01*
X130729925Y-107137000D01*
X130890075Y-107137000D01*
X131047142Y-107168242D01*
X131047142Y-107168242D01*
G37*
G36*
X128507142Y-107168242D02*
G01*
X128655101Y-107229529D01*
X128788255Y-107318499D01*
X128901501Y-107431745D01*
X128990471Y-107564899D01*
X129051758Y-107712858D01*
X129083000Y-107869925D01*
X129083000Y-108030075D01*
X129051758Y-108187142D01*
X128990471Y-108335101D01*
X128901501Y-108468255D01*
X128788255Y-108581501D01*
X128655101Y-108670471D01*
X128507142Y-108731758D01*
X128350075Y-108763000D01*
X128189925Y-108763000D01*
X128032858Y-108731758D01*
X127884899Y-108670471D01*
X127751745Y-108581501D01*
X127638499Y-108468255D01*
X127549529Y-108335101D01*
X127488242Y-108187142D01*
X127457000Y-108030075D01*
X127457000Y-107869925D01*
X127488242Y-107712858D01*
X127549529Y-107564899D01*
X127638499Y-107431745D01*
X127751745Y-107318499D01*
X127884899Y-107229529D01*
X128032858Y-107168242D01*
X128189925Y-107137000D01*
X128350075Y-107137000D01*
X128507142Y-107168242D01*
X128507142Y-107168242D01*
G37*
G36*
X125967142Y-107168242D02*
G01*
X126115101Y-107229529D01*
X126248255Y-107318499D01*
X126361501Y-107431745D01*
X126450471Y-107564899D01*
X126511758Y-107712858D01*
X126543000Y-107869925D01*
X126543000Y-108030075D01*
X126511758Y-108187142D01*
X126450471Y-108335101D01*
X126361501Y-108468255D01*
X126248255Y-108581501D01*
X126115101Y-108670471D01*
X125967142Y-108731758D01*
X125810075Y-108763000D01*
X125649925Y-108763000D01*
X125492858Y-108731758D01*
X125344899Y-108670471D01*
X125211745Y-108581501D01*
X125098499Y-108468255D01*
X125009529Y-108335101D01*
X124948242Y-108187142D01*
X124917000Y-108030075D01*
X124917000Y-107869925D01*
X124948242Y-107712858D01*
X125009529Y-107564899D01*
X125098499Y-107431745D01*
X125211745Y-107318499D01*
X125344899Y-107229529D01*
X125492858Y-107168242D01*
X125649925Y-107137000D01*
X125810075Y-107137000D01*
X125967142Y-107168242D01*
X125967142Y-107168242D01*
G37*
G36*
X123427142Y-107168242D02*
G01*
X123575101Y-107229529D01*
X123708255Y-107318499D01*
X123821501Y-107431745D01*
X123910471Y-107564899D01*
X123971758Y-107712858D01*
X124003000Y-107869925D01*
X124003000Y-108030075D01*
X123971758Y-108187142D01*
X123910471Y-108335101D01*
X123821501Y-108468255D01*
X123708255Y-108581501D01*
X123575101Y-108670471D01*
X123427142Y-108731758D01*
X123270075Y-108763000D01*
X123109925Y-108763000D01*
X122952858Y-108731758D01*
X122804899Y-108670471D01*
X122671745Y-108581501D01*
X122558499Y-108468255D01*
X122469529Y-108335101D01*
X122408242Y-108187142D01*
X122377000Y-108030075D01*
X122377000Y-107869925D01*
X122408242Y-107712858D01*
X122469529Y-107564899D01*
X122558499Y-107431745D01*
X122671745Y-107318499D01*
X122804899Y-107229529D01*
X122952858Y-107168242D01*
X123109925Y-107137000D01*
X123270075Y-107137000D01*
X123427142Y-107168242D01*
X123427142Y-107168242D01*
G37*
G36*
X118347142Y-107168242D02*
G01*
X118495101Y-107229529D01*
X118628255Y-107318499D01*
X118741501Y-107431745D01*
X118830471Y-107564899D01*
X118891758Y-107712858D01*
X118923000Y-107869925D01*
X118923000Y-108030075D01*
X118891758Y-108187142D01*
X118830471Y-108335101D01*
X118741501Y-108468255D01*
X118628255Y-108581501D01*
X118495101Y-108670471D01*
X118347142Y-108731758D01*
X118190075Y-108763000D01*
X118029925Y-108763000D01*
X117872858Y-108731758D01*
X117724899Y-108670471D01*
X117591745Y-108581501D01*
X117478499Y-108468255D01*
X117389529Y-108335101D01*
X117328242Y-108187142D01*
X117297000Y-108030075D01*
X117297000Y-107869925D01*
X117328242Y-107712858D01*
X117389529Y-107564899D01*
X117478499Y-107431745D01*
X117591745Y-107318499D01*
X117724899Y-107229529D01*
X117872858Y-107168242D01*
X118029925Y-107137000D01*
X118190075Y-107137000D01*
X118347142Y-107168242D01*
X118347142Y-107168242D01*
G37*
G36*
X115807142Y-107168242D02*
G01*
X115955101Y-107229529D01*
X116088255Y-107318499D01*
X116201501Y-107431745D01*
X116290471Y-107564899D01*
X116351758Y-107712858D01*
X116383000Y-107869925D01*
X116383000Y-108030075D01*
X116351758Y-108187142D01*
X116290471Y-108335101D01*
X116201501Y-108468255D01*
X116088255Y-108581501D01*
X115955101Y-108670471D01*
X115807142Y-108731758D01*
X115650075Y-108763000D01*
X115489925Y-108763000D01*
X115332858Y-108731758D01*
X115184899Y-108670471D01*
X115051745Y-108581501D01*
X114938499Y-108468255D01*
X114849529Y-108335101D01*
X114788242Y-108187142D01*
X114757000Y-108030075D01*
X114757000Y-107869925D01*
X114788242Y-107712858D01*
X114849529Y-107564899D01*
X114938499Y-107431745D01*
X115051745Y-107318499D01*
X115184899Y-107229529D01*
X115332858Y-107168242D01*
X115489925Y-107137000D01*
X115650075Y-107137000D01*
X115807142Y-107168242D01*
X115807142Y-107168242D01*
G37*
G36*
X113267142Y-107168242D02*
G01*
X113415101Y-107229529D01*
X113548255Y-107318499D01*
X113661501Y-107431745D01*
X113750471Y-107564899D01*
X113811758Y-107712858D01*
X113843000Y-107869925D01*
X113843000Y-108030075D01*
X113811758Y-108187142D01*
X113750471Y-108335101D01*
X113661501Y-108468255D01*
X113548255Y-108581501D01*
X113415101Y-108670471D01*
X113267142Y-108731758D01*
X113110075Y-108763000D01*
X112949925Y-108763000D01*
X112792858Y-108731758D01*
X112644899Y-108670471D01*
X112511745Y-108581501D01*
X112398499Y-108468255D01*
X112309529Y-108335101D01*
X112248242Y-108187142D01*
X112217000Y-108030075D01*
X112217000Y-107869925D01*
X112248242Y-107712858D01*
X112309529Y-107564899D01*
X112398499Y-107431745D01*
X112511745Y-107318499D01*
X112644899Y-107229529D01*
X112792858Y-107168242D01*
X112949925Y-107137000D01*
X113110075Y-107137000D01*
X113267142Y-107168242D01*
X113267142Y-107168242D01*
G37*
G36*
X110727142Y-107168242D02*
G01*
X110875101Y-107229529D01*
X111008255Y-107318499D01*
X111121501Y-107431745D01*
X111210471Y-107564899D01*
X111271758Y-107712858D01*
X111303000Y-107869925D01*
X111303000Y-108030075D01*
X111271758Y-108187142D01*
X111210471Y-108335101D01*
X111121501Y-108468255D01*
X111008255Y-108581501D01*
X110875101Y-108670471D01*
X110727142Y-108731758D01*
X110570075Y-108763000D01*
X110409925Y-108763000D01*
X110252858Y-108731758D01*
X110104899Y-108670471D01*
X109971745Y-108581501D01*
X109858499Y-108468255D01*
X109769529Y-108335101D01*
X109708242Y-108187142D01*
X109677000Y-108030075D01*
X109677000Y-107869925D01*
X109708242Y-107712858D01*
X109769529Y-107564899D01*
X109858499Y-107431745D01*
X109971745Y-107318499D01*
X110104899Y-107229529D01*
X110252858Y-107168242D01*
X110409925Y-107137000D01*
X110570075Y-107137000D01*
X110727142Y-107168242D01*
X110727142Y-107168242D01*
G37*
G36*
X120887142Y-107168242D02*
G01*
X121035101Y-107229529D01*
X121168255Y-107318499D01*
X121281501Y-107431745D01*
X121370471Y-107564899D01*
X121431758Y-107712858D01*
X121463000Y-107869925D01*
X121463000Y-108030075D01*
X121431758Y-108187142D01*
X121370471Y-108335101D01*
X121281501Y-108468255D01*
X121168255Y-108581501D01*
X121035101Y-108670471D01*
X120887142Y-108731758D01*
X120730075Y-108763000D01*
X120569925Y-108763000D01*
X120412858Y-108731758D01*
X120264899Y-108670471D01*
X120131745Y-108581501D01*
X120018499Y-108468255D01*
X119929529Y-108335101D01*
X119868242Y-108187142D01*
X119837000Y-108030075D01*
X119837000Y-107869925D01*
X119868242Y-107712858D01*
X119929529Y-107564899D01*
X120018499Y-107431745D01*
X120131745Y-107318499D01*
X120264899Y-107229529D01*
X120412858Y-107168242D01*
X120569925Y-107137000D01*
X120730075Y-107137000D01*
X120887142Y-107168242D01*
X120887142Y-107168242D01*
G37*
G36*
X99932142Y-105644242D02*
G01*
X100080101Y-105705529D01*
X100213255Y-105794499D01*
X100326501Y-105907745D01*
X100415471Y-106040899D01*
X100476758Y-106188858D01*
X100508000Y-106345925D01*
X100508000Y-106506075D01*
X100476758Y-106663142D01*
X100415471Y-106811101D01*
X100326501Y-106944255D01*
X100213255Y-107057501D01*
X100080101Y-107146471D01*
X99932142Y-107207758D01*
X99775075Y-107239000D01*
X99614925Y-107239000D01*
X99457858Y-107207758D01*
X99309899Y-107146471D01*
X99176745Y-107057501D01*
X99063499Y-106944255D01*
X98974529Y-106811101D01*
X98913242Y-106663142D01*
X98882000Y-106506075D01*
X98882000Y-106345925D01*
X98913242Y-106188858D01*
X98974529Y-106040899D01*
X99063499Y-105907745D01*
X99176745Y-105794499D01*
X99309899Y-105705529D01*
X99457858Y-105644242D01*
X99614925Y-105613000D01*
X99775075Y-105613000D01*
X99932142Y-105644242D01*
X99932142Y-105644242D01*
G37*
G36*
X93582142Y-105644242D02*
G01*
X93730101Y-105705529D01*
X93863255Y-105794499D01*
X93976501Y-105907745D01*
X94065471Y-106040899D01*
X94126758Y-106188858D01*
X94158000Y-106345925D01*
X94158000Y-106506075D01*
X94126758Y-106663142D01*
X94065471Y-106811101D01*
X93976501Y-106944255D01*
X93863255Y-107057501D01*
X93730101Y-107146471D01*
X93582142Y-107207758D01*
X93425075Y-107239000D01*
X93264925Y-107239000D01*
X93107858Y-107207758D01*
X92959899Y-107146471D01*
X92826745Y-107057501D01*
X92713499Y-106944255D01*
X92624529Y-106811101D01*
X92563242Y-106663142D01*
X92532000Y-106506075D01*
X92532000Y-106345925D01*
X92563242Y-106188858D01*
X92624529Y-106040899D01*
X92713499Y-105907745D01*
X92826745Y-105794499D01*
X92959899Y-105705529D01*
X93107858Y-105644242D01*
X93264925Y-105613000D01*
X93425075Y-105613000D01*
X93582142Y-105644242D01*
X93582142Y-105644242D01*
G37*
G36*
X87232142Y-105644242D02*
G01*
X87380101Y-105705529D01*
X87513255Y-105794499D01*
X87626501Y-105907745D01*
X87715471Y-106040899D01*
X87776758Y-106188858D01*
X87808000Y-106345925D01*
X87808000Y-106506075D01*
X87776758Y-106663142D01*
X87715471Y-106811101D01*
X87626501Y-106944255D01*
X87513255Y-107057501D01*
X87380101Y-107146471D01*
X87232142Y-107207758D01*
X87075075Y-107239000D01*
X86914925Y-107239000D01*
X86757858Y-107207758D01*
X86609899Y-107146471D01*
X86476745Y-107057501D01*
X86363499Y-106944255D01*
X86274529Y-106811101D01*
X86213242Y-106663142D01*
X86182000Y-106506075D01*
X86182000Y-106345925D01*
X86213242Y-106188858D01*
X86274529Y-106040899D01*
X86363499Y-105907745D01*
X86476745Y-105794499D01*
X86609899Y-105705529D01*
X86757858Y-105644242D01*
X86914925Y-105613000D01*
X87075075Y-105613000D01*
X87232142Y-105644242D01*
X87232142Y-105644242D01*
G37*
G36*
X80247142Y-105644242D02*
G01*
X80395101Y-105705529D01*
X80528255Y-105794499D01*
X80641501Y-105907745D01*
X80730471Y-106040899D01*
X80791758Y-106188858D01*
X80823000Y-106345925D01*
X80823000Y-106506075D01*
X80791758Y-106663142D01*
X80730471Y-106811101D01*
X80641501Y-106944255D01*
X80528255Y-107057501D01*
X80395101Y-107146471D01*
X80247142Y-107207758D01*
X80090075Y-107239000D01*
X79929925Y-107239000D01*
X79772858Y-107207758D01*
X79624899Y-107146471D01*
X79491745Y-107057501D01*
X79378499Y-106944255D01*
X79289529Y-106811101D01*
X79228242Y-106663142D01*
X79197000Y-106506075D01*
X79197000Y-106345925D01*
X79228242Y-106188858D01*
X79289529Y-106040899D01*
X79378499Y-105907745D01*
X79491745Y-105794499D01*
X79624899Y-105705529D01*
X79772858Y-105644242D01*
X79929925Y-105613000D01*
X80090075Y-105613000D01*
X80247142Y-105644242D01*
X80247142Y-105644242D01*
G37*
G36*
X74484890Y-104149017D02*
G01*
X74603364Y-104198091D01*
X74636265Y-104220075D01*
X74709988Y-104269335D01*
X74800665Y-104360012D01*
X74871910Y-104466638D01*
X74920983Y-104585110D01*
X74946000Y-104710881D01*
X74946000Y-104839119D01*
X74929562Y-104921758D01*
X74920983Y-104964890D01*
X74871909Y-105083364D01*
X74800665Y-105189988D01*
X74709988Y-105280665D01*
X74603364Y-105351909D01*
X74484890Y-105400983D01*
X74477751Y-105402403D01*
X74454302Y-105409516D01*
X74432691Y-105421067D01*
X74413749Y-105436612D01*
X74398203Y-105455554D01*
X74386652Y-105477164D01*
X74379539Y-105500613D01*
X74377137Y-105524999D01*
X74379539Y-105549385D01*
X74386652Y-105572834D01*
X74398203Y-105594445D01*
X74413748Y-105613387D01*
X74432690Y-105628933D01*
X74454300Y-105640484D01*
X74477751Y-105647597D01*
X74484890Y-105649017D01*
X74603364Y-105698091D01*
X74709988Y-105769335D01*
X74800665Y-105860012D01*
X74871910Y-105966638D01*
X74920983Y-106085110D01*
X74946000Y-106210881D01*
X74946000Y-106339119D01*
X74920983Y-106464890D01*
X74903924Y-106506075D01*
X74871909Y-106583364D01*
X74800665Y-106689988D01*
X74709988Y-106780665D01*
X74603364Y-106851909D01*
X74603363Y-106851910D01*
X74603362Y-106851910D01*
X74484890Y-106900983D01*
X74359119Y-106926000D01*
X74230881Y-106926000D01*
X74105110Y-106900983D01*
X73986638Y-106851910D01*
X73986637Y-106851910D01*
X73986636Y-106851909D01*
X73880012Y-106780665D01*
X73789335Y-106689988D01*
X73718091Y-106583364D01*
X73686077Y-106506075D01*
X73669017Y-106464890D01*
X73644000Y-106339119D01*
X73644000Y-106210881D01*
X73669017Y-106085110D01*
X73718090Y-105966638D01*
X73789335Y-105860012D01*
X73880012Y-105769335D01*
X73986636Y-105698091D01*
X74105110Y-105649017D01*
X74112249Y-105647597D01*
X74135698Y-105640484D01*
X74157309Y-105628933D01*
X74176251Y-105613388D01*
X74191797Y-105594446D01*
X74203348Y-105572836D01*
X74210461Y-105549387D01*
X74212863Y-105525001D01*
X74210461Y-105500615D01*
X74203348Y-105477166D01*
X74191797Y-105455555D01*
X74176252Y-105436613D01*
X74157310Y-105421067D01*
X74135700Y-105409516D01*
X74112249Y-105402403D01*
X74105110Y-105400983D01*
X73986636Y-105351909D01*
X73880012Y-105280665D01*
X73789335Y-105189988D01*
X73718091Y-105083364D01*
X73669017Y-104964890D01*
X73660438Y-104921758D01*
X73644000Y-104839119D01*
X73644000Y-104710881D01*
X73669017Y-104585110D01*
X73718090Y-104466638D01*
X73789335Y-104360012D01*
X73880012Y-104269335D01*
X73953735Y-104220075D01*
X73986636Y-104198091D01*
X74105110Y-104149017D01*
X74230881Y-104124000D01*
X74359119Y-104124000D01*
X74484890Y-104149017D01*
X74484890Y-104149017D01*
G37*
G36*
X99932142Y-103358242D02*
G01*
X100080101Y-103419529D01*
X100213255Y-103508499D01*
X100326501Y-103621745D01*
X100415471Y-103754899D01*
X100476758Y-103902858D01*
X100508000Y-104059925D01*
X100508000Y-104220075D01*
X100476758Y-104377142D01*
X100415471Y-104525101D01*
X100326501Y-104658255D01*
X100213255Y-104771501D01*
X100080101Y-104860471D01*
X99932142Y-104921758D01*
X99775075Y-104953000D01*
X99614925Y-104953000D01*
X99457858Y-104921758D01*
X99309899Y-104860471D01*
X99176745Y-104771501D01*
X99063499Y-104658255D01*
X98974529Y-104525101D01*
X98913242Y-104377142D01*
X98882000Y-104220075D01*
X98882000Y-104059925D01*
X98913242Y-103902858D01*
X98974529Y-103754899D01*
X99063499Y-103621745D01*
X99176745Y-103508499D01*
X99309899Y-103419529D01*
X99457858Y-103358242D01*
X99614925Y-103327000D01*
X99775075Y-103327000D01*
X99932142Y-103358242D01*
X99932142Y-103358242D01*
G37*
G36*
X93582142Y-103358242D02*
G01*
X93730101Y-103419529D01*
X93863255Y-103508499D01*
X93976501Y-103621745D01*
X94065471Y-103754899D01*
X94126758Y-103902858D01*
X94158000Y-104059925D01*
X94158000Y-104220075D01*
X94126758Y-104377142D01*
X94065471Y-104525101D01*
X93976501Y-104658255D01*
X93863255Y-104771501D01*
X93730101Y-104860471D01*
X93582142Y-104921758D01*
X93425075Y-104953000D01*
X93264925Y-104953000D01*
X93107858Y-104921758D01*
X92959899Y-104860471D01*
X92826745Y-104771501D01*
X92713499Y-104658255D01*
X92624529Y-104525101D01*
X92563242Y-104377142D01*
X92532000Y-104220075D01*
X92532000Y-104059925D01*
X92563242Y-103902858D01*
X92624529Y-103754899D01*
X92713499Y-103621745D01*
X92826745Y-103508499D01*
X92959899Y-103419529D01*
X93107858Y-103358242D01*
X93264925Y-103327000D01*
X93425075Y-103327000D01*
X93582142Y-103358242D01*
X93582142Y-103358242D01*
G37*
G36*
X80247142Y-103358242D02*
G01*
X80395101Y-103419529D01*
X80528255Y-103508499D01*
X80641501Y-103621745D01*
X80730471Y-103754899D01*
X80791758Y-103902858D01*
X80823000Y-104059925D01*
X80823000Y-104220075D01*
X80791758Y-104377142D01*
X80730471Y-104525101D01*
X80641501Y-104658255D01*
X80528255Y-104771501D01*
X80395101Y-104860471D01*
X80247142Y-104921758D01*
X80090075Y-104953000D01*
X79929925Y-104953000D01*
X79772858Y-104921758D01*
X79624899Y-104860471D01*
X79491745Y-104771501D01*
X79378499Y-104658255D01*
X79289529Y-104525101D01*
X79228242Y-104377142D01*
X79197000Y-104220075D01*
X79197000Y-104059925D01*
X79228242Y-103902858D01*
X79289529Y-103754899D01*
X79378499Y-103621745D01*
X79491745Y-103508499D01*
X79624899Y-103419529D01*
X79772858Y-103358242D01*
X79929925Y-103327000D01*
X80090075Y-103327000D01*
X80247142Y-103358242D01*
X80247142Y-103358242D01*
G37*
G36*
X87232142Y-103358242D02*
G01*
X87380101Y-103419529D01*
X87513255Y-103508499D01*
X87626501Y-103621745D01*
X87715471Y-103754899D01*
X87776758Y-103902858D01*
X87808000Y-104059925D01*
X87808000Y-104220075D01*
X87776758Y-104377142D01*
X87715471Y-104525101D01*
X87626501Y-104658255D01*
X87513255Y-104771501D01*
X87380101Y-104860471D01*
X87232142Y-104921758D01*
X87075075Y-104953000D01*
X86914925Y-104953000D01*
X86757858Y-104921758D01*
X86609899Y-104860471D01*
X86476745Y-104771501D01*
X86363499Y-104658255D01*
X86274529Y-104525101D01*
X86213242Y-104377142D01*
X86182000Y-104220075D01*
X86182000Y-104059925D01*
X86213242Y-103902858D01*
X86274529Y-103754899D01*
X86363499Y-103621745D01*
X86476745Y-103508499D01*
X86609899Y-103419529D01*
X86757858Y-103358242D01*
X86914925Y-103327000D01*
X87075075Y-103327000D01*
X87232142Y-103358242D01*
X87232142Y-103358242D01*
G37*
G36*
X145585000Y-103143000D02*
G01*
X144483000Y-103143000D01*
X144483000Y-99041000D01*
X145585000Y-99041000D01*
X145585000Y-103143000D01*
X145585000Y-103143000D01*
G37*
G36*
X151681000Y-102643000D02*
G01*
X150579000Y-102643000D01*
X150579000Y-99541000D01*
X151681000Y-99541000D01*
X151681000Y-102643000D01*
X151681000Y-102643000D01*
G37*
G36*
X90407142Y-99929242D02*
G01*
X90555101Y-99990529D01*
X90688255Y-100079499D01*
X90801501Y-100192745D01*
X90890471Y-100325899D01*
X90951758Y-100473858D01*
X90983000Y-100630925D01*
X90983000Y-100791075D01*
X90951758Y-100948142D01*
X90890471Y-101096101D01*
X90801501Y-101229255D01*
X90688255Y-101342501D01*
X90555101Y-101431471D01*
X90407142Y-101492758D01*
X90250075Y-101524000D01*
X90089925Y-101524000D01*
X89932858Y-101492758D01*
X89784899Y-101431471D01*
X89651745Y-101342501D01*
X89538499Y-101229255D01*
X89449529Y-101096101D01*
X89388242Y-100948142D01*
X89357000Y-100791075D01*
X89357000Y-100630925D01*
X89388242Y-100473858D01*
X89449529Y-100325899D01*
X89538499Y-100192745D01*
X89651745Y-100079499D01*
X89784899Y-99990529D01*
X89932858Y-99929242D01*
X90089925Y-99898000D01*
X90250075Y-99898000D01*
X90407142Y-99929242D01*
X90407142Y-99929242D01*
G37*
G36*
X96757142Y-99929242D02*
G01*
X96905101Y-99990529D01*
X97038255Y-100079499D01*
X97151501Y-100192745D01*
X97240471Y-100325899D01*
X97301758Y-100473858D01*
X97333000Y-100630925D01*
X97333000Y-100791075D01*
X97301758Y-100948142D01*
X97240471Y-101096101D01*
X97151501Y-101229255D01*
X97038255Y-101342501D01*
X96905101Y-101431471D01*
X96757142Y-101492758D01*
X96600075Y-101524000D01*
X96439925Y-101524000D01*
X96282858Y-101492758D01*
X96134899Y-101431471D01*
X96001745Y-101342501D01*
X95888499Y-101229255D01*
X95799529Y-101096101D01*
X95738242Y-100948142D01*
X95707000Y-100791075D01*
X95707000Y-100630925D01*
X95738242Y-100473858D01*
X95799529Y-100325899D01*
X95888499Y-100192745D01*
X96001745Y-100079499D01*
X96134899Y-99990529D01*
X96282858Y-99929242D01*
X96439925Y-99898000D01*
X96600075Y-99898000D01*
X96757142Y-99929242D01*
X96757142Y-99929242D01*
G37*
G36*
X84057142Y-99929242D02*
G01*
X84205101Y-99990529D01*
X84338255Y-100079499D01*
X84451501Y-100192745D01*
X84540471Y-100325899D01*
X84601758Y-100473858D01*
X84633000Y-100630925D01*
X84633000Y-100791075D01*
X84601758Y-100948142D01*
X84540471Y-101096101D01*
X84451501Y-101229255D01*
X84338255Y-101342501D01*
X84205101Y-101431471D01*
X84057142Y-101492758D01*
X83900075Y-101524000D01*
X83739925Y-101524000D01*
X83582858Y-101492758D01*
X83434899Y-101431471D01*
X83301745Y-101342501D01*
X83188499Y-101229255D01*
X83099529Y-101096101D01*
X83038242Y-100948142D01*
X83007000Y-100791075D01*
X83007000Y-100630925D01*
X83038242Y-100473858D01*
X83099529Y-100325899D01*
X83188499Y-100192745D01*
X83301745Y-100079499D01*
X83434899Y-99990529D01*
X83582858Y-99929242D01*
X83739925Y-99898000D01*
X83900075Y-99898000D01*
X84057142Y-99929242D01*
X84057142Y-99929242D01*
G37*
G36*
X77072142Y-99929242D02*
G01*
X77220101Y-99990529D01*
X77353255Y-100079499D01*
X77466501Y-100192745D01*
X77555471Y-100325899D01*
X77616758Y-100473858D01*
X77648000Y-100630925D01*
X77648000Y-100791075D01*
X77616758Y-100948142D01*
X77555471Y-101096101D01*
X77466501Y-101229255D01*
X77353255Y-101342501D01*
X77220101Y-101431471D01*
X77072142Y-101492758D01*
X76915075Y-101524000D01*
X76754925Y-101524000D01*
X76597858Y-101492758D01*
X76449899Y-101431471D01*
X76316745Y-101342501D01*
X76203499Y-101229255D01*
X76114529Y-101096101D01*
X76053242Y-100948142D01*
X76022000Y-100791075D01*
X76022000Y-100630925D01*
X76053242Y-100473858D01*
X76114529Y-100325899D01*
X76203499Y-100192745D01*
X76316745Y-100079499D01*
X76449899Y-99990529D01*
X76597858Y-99929242D01*
X76754925Y-99898000D01*
X76915075Y-99898000D01*
X77072142Y-99929242D01*
X77072142Y-99929242D01*
G37*
G36*
X105599890Y-99704017D02*
G01*
X105718364Y-99753091D01*
X105824988Y-99824335D01*
X105915665Y-99915012D01*
X105986910Y-100021638D01*
X106035983Y-100140111D01*
X106037403Y-100147249D01*
X106044516Y-100170698D01*
X106056067Y-100192309D01*
X106071612Y-100211251D01*
X106090554Y-100226797D01*
X106112164Y-100238348D01*
X106135613Y-100245461D01*
X106159999Y-100247863D01*
X106184385Y-100245461D01*
X106207834Y-100238348D01*
X106229445Y-100226797D01*
X106248387Y-100211252D01*
X106263933Y-100192310D01*
X106275484Y-100170700D01*
X106282597Y-100147249D01*
X106284017Y-100140111D01*
X106333090Y-100021638D01*
X106404335Y-99915012D01*
X106495012Y-99824335D01*
X106601636Y-99753091D01*
X106720110Y-99704017D01*
X106845881Y-99679000D01*
X106974119Y-99679000D01*
X107099890Y-99704017D01*
X107218364Y-99753091D01*
X107324988Y-99824335D01*
X107415665Y-99915012D01*
X107486910Y-100021638D01*
X107535983Y-100140110D01*
X107561000Y-100265881D01*
X107561000Y-100394119D01*
X107535983Y-100519890D01*
X107489991Y-100630925D01*
X107486909Y-100638364D01*
X107415665Y-100744988D01*
X107324988Y-100835665D01*
X107218364Y-100906909D01*
X107218363Y-100906910D01*
X107218362Y-100906910D01*
X107099890Y-100955983D01*
X106974119Y-100981000D01*
X106845881Y-100981000D01*
X106720110Y-100955983D01*
X106601638Y-100906910D01*
X106601637Y-100906910D01*
X106601636Y-100906909D01*
X106495012Y-100835665D01*
X106404335Y-100744988D01*
X106333091Y-100638364D01*
X106284017Y-100519890D01*
X106282597Y-100512751D01*
X106275484Y-100489302D01*
X106263933Y-100467691D01*
X106248388Y-100448749D01*
X106229446Y-100433203D01*
X106207836Y-100421652D01*
X106184387Y-100414539D01*
X106160001Y-100412137D01*
X106135615Y-100414539D01*
X106112166Y-100421652D01*
X106090555Y-100433203D01*
X106071613Y-100448748D01*
X106056067Y-100467690D01*
X106044516Y-100489300D01*
X106037403Y-100512751D01*
X106035983Y-100519890D01*
X105986909Y-100638364D01*
X105915665Y-100744988D01*
X105824988Y-100835665D01*
X105718364Y-100906909D01*
X105718363Y-100906910D01*
X105718362Y-100906910D01*
X105599890Y-100955983D01*
X105474119Y-100981000D01*
X105345881Y-100981000D01*
X105220110Y-100955983D01*
X105101638Y-100906910D01*
X105101637Y-100906910D01*
X105101636Y-100906909D01*
X104995012Y-100835665D01*
X104904335Y-100744988D01*
X104833091Y-100638364D01*
X104830010Y-100630925D01*
X104784017Y-100519890D01*
X104759000Y-100394119D01*
X104759000Y-100265881D01*
X104784017Y-100140110D01*
X104833090Y-100021638D01*
X104904335Y-99915012D01*
X104995012Y-99824335D01*
X105101636Y-99753091D01*
X105220110Y-99704017D01*
X105345881Y-99679000D01*
X105474119Y-99679000D01*
X105599890Y-99704017D01*
X105599890Y-99704017D01*
G37*
G36*
X96757142Y-97643242D02*
G01*
X96905101Y-97704529D01*
X97038255Y-97793499D01*
X97151501Y-97906745D01*
X97240471Y-98039899D01*
X97301758Y-98187858D01*
X97333000Y-98344925D01*
X97333000Y-98505075D01*
X97301758Y-98662142D01*
X97240471Y-98810101D01*
X97151501Y-98943255D01*
X97038255Y-99056501D01*
X96905101Y-99145471D01*
X96757142Y-99206758D01*
X96600075Y-99238000D01*
X96439925Y-99238000D01*
X96282858Y-99206758D01*
X96134899Y-99145471D01*
X96001745Y-99056501D01*
X95888499Y-98943255D01*
X95799529Y-98810101D01*
X95738242Y-98662142D01*
X95707000Y-98505075D01*
X95707000Y-98344925D01*
X95738242Y-98187858D01*
X95799529Y-98039899D01*
X95888499Y-97906745D01*
X96001745Y-97793499D01*
X96134899Y-97704529D01*
X96282858Y-97643242D01*
X96439925Y-97612000D01*
X96600075Y-97612000D01*
X96757142Y-97643242D01*
X96757142Y-97643242D01*
G37*
G36*
X77072142Y-97643242D02*
G01*
X77220101Y-97704529D01*
X77353255Y-97793499D01*
X77466501Y-97906745D01*
X77555471Y-98039899D01*
X77616758Y-98187858D01*
X77648000Y-98344925D01*
X77648000Y-98505075D01*
X77616758Y-98662142D01*
X77555471Y-98810101D01*
X77466501Y-98943255D01*
X77353255Y-99056501D01*
X77220101Y-99145471D01*
X77072142Y-99206758D01*
X76915075Y-99238000D01*
X76754925Y-99238000D01*
X76597858Y-99206758D01*
X76449899Y-99145471D01*
X76316745Y-99056501D01*
X76203499Y-98943255D01*
X76114529Y-98810101D01*
X76053242Y-98662142D01*
X76022000Y-98505075D01*
X76022000Y-98344925D01*
X76053242Y-98187858D01*
X76114529Y-98039899D01*
X76203499Y-97906745D01*
X76316745Y-97793499D01*
X76449899Y-97704529D01*
X76597858Y-97643242D01*
X76754925Y-97612000D01*
X76915075Y-97612000D01*
X77072142Y-97643242D01*
X77072142Y-97643242D01*
G37*
G36*
X90407142Y-97643242D02*
G01*
X90555101Y-97704529D01*
X90688255Y-97793499D01*
X90801501Y-97906745D01*
X90890471Y-98039899D01*
X90951758Y-98187858D01*
X90983000Y-98344925D01*
X90983000Y-98505075D01*
X90951758Y-98662142D01*
X90890471Y-98810101D01*
X90801501Y-98943255D01*
X90688255Y-99056501D01*
X90555101Y-99145471D01*
X90407142Y-99206758D01*
X90250075Y-99238000D01*
X90089925Y-99238000D01*
X89932858Y-99206758D01*
X89784899Y-99145471D01*
X89651745Y-99056501D01*
X89538499Y-98943255D01*
X89449529Y-98810101D01*
X89388242Y-98662142D01*
X89357000Y-98505075D01*
X89357000Y-98344925D01*
X89388242Y-98187858D01*
X89449529Y-98039899D01*
X89538499Y-97906745D01*
X89651745Y-97793499D01*
X89784899Y-97704529D01*
X89932858Y-97643242D01*
X90089925Y-97612000D01*
X90250075Y-97612000D01*
X90407142Y-97643242D01*
X90407142Y-97643242D01*
G37*
G36*
X84057142Y-97643242D02*
G01*
X84205101Y-97704529D01*
X84338255Y-97793499D01*
X84451501Y-97906745D01*
X84540471Y-98039899D01*
X84601758Y-98187858D01*
X84633000Y-98344925D01*
X84633000Y-98505075D01*
X84601758Y-98662142D01*
X84540471Y-98810101D01*
X84451501Y-98943255D01*
X84338255Y-99056501D01*
X84205101Y-99145471D01*
X84057142Y-99206758D01*
X83900075Y-99238000D01*
X83739925Y-99238000D01*
X83582858Y-99206758D01*
X83434899Y-99145471D01*
X83301745Y-99056501D01*
X83188499Y-98943255D01*
X83099529Y-98810101D01*
X83038242Y-98662142D01*
X83007000Y-98505075D01*
X83007000Y-98344925D01*
X83038242Y-98187858D01*
X83099529Y-98039899D01*
X83188499Y-97906745D01*
X83301745Y-97793499D01*
X83434899Y-97704529D01*
X83582858Y-97643242D01*
X83739925Y-97612000D01*
X83900075Y-97612000D01*
X84057142Y-97643242D01*
X84057142Y-97643242D01*
G37*
G36*
X82787142Y-93198242D02*
G01*
X82935101Y-93259529D01*
X83068255Y-93348499D01*
X83181501Y-93461745D01*
X83270471Y-93594899D01*
X83331758Y-93742858D01*
X83363000Y-93899925D01*
X83363000Y-94060075D01*
X83331758Y-94217142D01*
X83270471Y-94365101D01*
X83181501Y-94498255D01*
X83068255Y-94611501D01*
X82935101Y-94700471D01*
X82787142Y-94761758D01*
X82630075Y-94793000D01*
X82469925Y-94793000D01*
X82312858Y-94761758D01*
X82164899Y-94700471D01*
X82031745Y-94611501D01*
X81918499Y-94498255D01*
X81829529Y-94365101D01*
X81768242Y-94217142D01*
X81737000Y-94060075D01*
X81737000Y-93899925D01*
X81768242Y-93742858D01*
X81829529Y-93594899D01*
X81918499Y-93461745D01*
X82031745Y-93348499D01*
X82164899Y-93259529D01*
X82312858Y-93198242D01*
X82469925Y-93167000D01*
X82630075Y-93167000D01*
X82787142Y-93198242D01*
X82787142Y-93198242D01*
G37*
G36*
X80247142Y-93198242D02*
G01*
X80395101Y-93259529D01*
X80528255Y-93348499D01*
X80641501Y-93461745D01*
X80730471Y-93594899D01*
X80791758Y-93742858D01*
X80823000Y-93899925D01*
X80823000Y-94060075D01*
X80791758Y-94217142D01*
X80730471Y-94365101D01*
X80641501Y-94498255D01*
X80528255Y-94611501D01*
X80395101Y-94700471D01*
X80247142Y-94761758D01*
X80090075Y-94793000D01*
X79929925Y-94793000D01*
X79772858Y-94761758D01*
X79624899Y-94700471D01*
X79491745Y-94611501D01*
X79378499Y-94498255D01*
X79289529Y-94365101D01*
X79228242Y-94217142D01*
X79197000Y-94060075D01*
X79197000Y-93899925D01*
X79228242Y-93742858D01*
X79289529Y-93594899D01*
X79378499Y-93461745D01*
X79491745Y-93348499D01*
X79624899Y-93259529D01*
X79772858Y-93198242D01*
X79929925Y-93167000D01*
X80090075Y-93167000D01*
X80247142Y-93198242D01*
X80247142Y-93198242D01*
G37*
G36*
X85327142Y-93198242D02*
G01*
X85475101Y-93259529D01*
X85608255Y-93348499D01*
X85721501Y-93461745D01*
X85810471Y-93594899D01*
X85871758Y-93742858D01*
X85903000Y-93899925D01*
X85903000Y-94060075D01*
X85871758Y-94217142D01*
X85810471Y-94365101D01*
X85721501Y-94498255D01*
X85608255Y-94611501D01*
X85475101Y-94700471D01*
X85327142Y-94761758D01*
X85170075Y-94793000D01*
X85009925Y-94793000D01*
X84852858Y-94761758D01*
X84704899Y-94700471D01*
X84571745Y-94611501D01*
X84458499Y-94498255D01*
X84369529Y-94365101D01*
X84308242Y-94217142D01*
X84277000Y-94060075D01*
X84277000Y-93899925D01*
X84308242Y-93742858D01*
X84369529Y-93594899D01*
X84458499Y-93461745D01*
X84571745Y-93348499D01*
X84704899Y-93259529D01*
X84852858Y-93198242D01*
X85009925Y-93167000D01*
X85170075Y-93167000D01*
X85327142Y-93198242D01*
X85327142Y-93198242D01*
G37*
G36*
X87867142Y-93198242D02*
G01*
X88015101Y-93259529D01*
X88148255Y-93348499D01*
X88261501Y-93461745D01*
X88350471Y-93594899D01*
X88411758Y-93742858D01*
X88443000Y-93899925D01*
X88443000Y-94060075D01*
X88411758Y-94217142D01*
X88350471Y-94365101D01*
X88261501Y-94498255D01*
X88148255Y-94611501D01*
X88015101Y-94700471D01*
X87867142Y-94761758D01*
X87710075Y-94793000D01*
X87549925Y-94793000D01*
X87392858Y-94761758D01*
X87244899Y-94700471D01*
X87111745Y-94611501D01*
X86998499Y-94498255D01*
X86909529Y-94365101D01*
X86848242Y-94217142D01*
X86817000Y-94060075D01*
X86817000Y-93899925D01*
X86848242Y-93742858D01*
X86909529Y-93594899D01*
X86998499Y-93461745D01*
X87111745Y-93348499D01*
X87244899Y-93259529D01*
X87392858Y-93198242D01*
X87549925Y-93167000D01*
X87710075Y-93167000D01*
X87867142Y-93198242D01*
X87867142Y-93198242D01*
G37*
G36*
X90407142Y-93198242D02*
G01*
X90555101Y-93259529D01*
X90688255Y-93348499D01*
X90801501Y-93461745D01*
X90890471Y-93594899D01*
X90951758Y-93742858D01*
X90983000Y-93899925D01*
X90983000Y-94060075D01*
X90951758Y-94217142D01*
X90890471Y-94365101D01*
X90801501Y-94498255D01*
X90688255Y-94611501D01*
X90555101Y-94700471D01*
X90407142Y-94761758D01*
X90250075Y-94793000D01*
X90089925Y-94793000D01*
X89932858Y-94761758D01*
X89784899Y-94700471D01*
X89651745Y-94611501D01*
X89538499Y-94498255D01*
X89449529Y-94365101D01*
X89388242Y-94217142D01*
X89357000Y-94060075D01*
X89357000Y-93899925D01*
X89388242Y-93742858D01*
X89449529Y-93594899D01*
X89538499Y-93461745D01*
X89651745Y-93348499D01*
X89784899Y-93259529D01*
X89932858Y-93198242D01*
X90089925Y-93167000D01*
X90250075Y-93167000D01*
X90407142Y-93198242D01*
X90407142Y-93198242D01*
G37*
G36*
X92947142Y-93198242D02*
G01*
X93095101Y-93259529D01*
X93228255Y-93348499D01*
X93341501Y-93461745D01*
X93430471Y-93594899D01*
X93491758Y-93742858D01*
X93523000Y-93899925D01*
X93523000Y-94060075D01*
X93491758Y-94217142D01*
X93430471Y-94365101D01*
X93341501Y-94498255D01*
X93228255Y-94611501D01*
X93095101Y-94700471D01*
X92947142Y-94761758D01*
X92790075Y-94793000D01*
X92629925Y-94793000D01*
X92472858Y-94761758D01*
X92324899Y-94700471D01*
X92191745Y-94611501D01*
X92078499Y-94498255D01*
X91989529Y-94365101D01*
X91928242Y-94217142D01*
X91897000Y-94060075D01*
X91897000Y-93899925D01*
X91928242Y-93742858D01*
X91989529Y-93594899D01*
X92078499Y-93461745D01*
X92191745Y-93348499D01*
X92324899Y-93259529D01*
X92472858Y-93198242D01*
X92629925Y-93167000D01*
X92790075Y-93167000D01*
X92947142Y-93198242D01*
X92947142Y-93198242D01*
G37*
G36*
X95487142Y-93198242D02*
G01*
X95635101Y-93259529D01*
X95768255Y-93348499D01*
X95881501Y-93461745D01*
X95970471Y-93594899D01*
X96031758Y-93742858D01*
X96063000Y-93899925D01*
X96063000Y-94060075D01*
X96031758Y-94217142D01*
X95970471Y-94365101D01*
X95881501Y-94498255D01*
X95768255Y-94611501D01*
X95635101Y-94700471D01*
X95487142Y-94761758D01*
X95330075Y-94793000D01*
X95169925Y-94793000D01*
X95012858Y-94761758D01*
X94864899Y-94700471D01*
X94731745Y-94611501D01*
X94618499Y-94498255D01*
X94529529Y-94365101D01*
X94468242Y-94217142D01*
X94437000Y-94060075D01*
X94437000Y-93899925D01*
X94468242Y-93742858D01*
X94529529Y-93594899D01*
X94618499Y-93461745D01*
X94731745Y-93348499D01*
X94864899Y-93259529D01*
X95012858Y-93198242D01*
X95169925Y-93167000D01*
X95330075Y-93167000D01*
X95487142Y-93198242D01*
X95487142Y-93198242D01*
G37*
G36*
X98027142Y-93198242D02*
G01*
X98175101Y-93259529D01*
X98308255Y-93348499D01*
X98421501Y-93461745D01*
X98510471Y-93594899D01*
X98571758Y-93742858D01*
X98603000Y-93899925D01*
X98603000Y-94060075D01*
X98571758Y-94217142D01*
X98510471Y-94365101D01*
X98421501Y-94498255D01*
X98308255Y-94611501D01*
X98175101Y-94700471D01*
X98027142Y-94761758D01*
X97870075Y-94793000D01*
X97709925Y-94793000D01*
X97552858Y-94761758D01*
X97404899Y-94700471D01*
X97271745Y-94611501D01*
X97158499Y-94498255D01*
X97069529Y-94365101D01*
X97008242Y-94217142D01*
X96977000Y-94060075D01*
X96977000Y-93899925D01*
X97008242Y-93742858D01*
X97069529Y-93594899D01*
X97158499Y-93461745D01*
X97271745Y-93348499D01*
X97404899Y-93259529D01*
X97552858Y-93198242D01*
X97709925Y-93167000D01*
X97870075Y-93167000D01*
X98027142Y-93198242D01*
X98027142Y-93198242D01*
G37*
G36*
X100567142Y-93198242D02*
G01*
X100715101Y-93259529D01*
X100848255Y-93348499D01*
X100961501Y-93461745D01*
X101050471Y-93594899D01*
X101111758Y-93742858D01*
X101143000Y-93899925D01*
X101143000Y-94060075D01*
X101111758Y-94217142D01*
X101050471Y-94365101D01*
X100961501Y-94498255D01*
X100848255Y-94611501D01*
X100715101Y-94700471D01*
X100567142Y-94761758D01*
X100410075Y-94793000D01*
X100249925Y-94793000D01*
X100092858Y-94761758D01*
X99944899Y-94700471D01*
X99811745Y-94611501D01*
X99698499Y-94498255D01*
X99609529Y-94365101D01*
X99548242Y-94217142D01*
X99517000Y-94060075D01*
X99517000Y-93899925D01*
X99548242Y-93742858D01*
X99609529Y-93594899D01*
X99698499Y-93461745D01*
X99811745Y-93348499D01*
X99944899Y-93259529D01*
X100092858Y-93198242D01*
X100249925Y-93167000D01*
X100410075Y-93167000D01*
X100567142Y-93198242D01*
X100567142Y-93198242D01*
G37*
G36*
X77707142Y-93198242D02*
G01*
X77855101Y-93259529D01*
X77988255Y-93348499D01*
X78101501Y-93461745D01*
X78190471Y-93594899D01*
X78251758Y-93742858D01*
X78283000Y-93899925D01*
X78283000Y-94060075D01*
X78251758Y-94217142D01*
X78190471Y-94365101D01*
X78101501Y-94498255D01*
X77988255Y-94611501D01*
X77855101Y-94700471D01*
X77707142Y-94761758D01*
X77550075Y-94793000D01*
X77389925Y-94793000D01*
X77232858Y-94761758D01*
X77084899Y-94700471D01*
X76951745Y-94611501D01*
X76838499Y-94498255D01*
X76749529Y-94365101D01*
X76688242Y-94217142D01*
X76657000Y-94060075D01*
X76657000Y-93899925D01*
X76688242Y-93742858D01*
X76749529Y-93594899D01*
X76838499Y-93461745D01*
X76951745Y-93348499D01*
X77084899Y-93259529D01*
X77232858Y-93198242D01*
X77389925Y-93167000D01*
X77550075Y-93167000D01*
X77707142Y-93198242D01*
X77707142Y-93198242D01*
G37*
G36*
X147482159Y-93348501D02*
G01*
X147509890Y-93354017D01*
X147628364Y-93403091D01*
X147734988Y-93474335D01*
X147825665Y-93565012D01*
X147845636Y-93594900D01*
X147896910Y-93671638D01*
X147945983Y-93790111D01*
X147947403Y-93797249D01*
X147954516Y-93820698D01*
X147966067Y-93842309D01*
X147981612Y-93861251D01*
X148000554Y-93876797D01*
X148022164Y-93888348D01*
X148045613Y-93895461D01*
X148069999Y-93897863D01*
X148094385Y-93895461D01*
X148117834Y-93888348D01*
X148139445Y-93876797D01*
X148158387Y-93861252D01*
X148173933Y-93842310D01*
X148185484Y-93820700D01*
X148192597Y-93797249D01*
X148194017Y-93790111D01*
X148243090Y-93671638D01*
X148294365Y-93594900D01*
X148314335Y-93565012D01*
X148405012Y-93474335D01*
X148511636Y-93403091D01*
X148630110Y-93354017D01*
X148657841Y-93348501D01*
X148755881Y-93329000D01*
X148884119Y-93329000D01*
X148982159Y-93348501D01*
X149009890Y-93354017D01*
X149128364Y-93403091D01*
X149234988Y-93474335D01*
X149325665Y-93565012D01*
X149345636Y-93594900D01*
X149396910Y-93671638D01*
X149445983Y-93790110D01*
X149471000Y-93915881D01*
X149471000Y-94044119D01*
X149456366Y-94117690D01*
X149445983Y-94169890D01*
X149396909Y-94288364D01*
X149325665Y-94394988D01*
X149234988Y-94485665D01*
X149128364Y-94556909D01*
X149128363Y-94556910D01*
X149128362Y-94556910D01*
X149009890Y-94605983D01*
X148884119Y-94631000D01*
X148755881Y-94631000D01*
X148630110Y-94605983D01*
X148511638Y-94556910D01*
X148511637Y-94556910D01*
X148511636Y-94556909D01*
X148405012Y-94485665D01*
X148314335Y-94394988D01*
X148243091Y-94288364D01*
X148194017Y-94169890D01*
X148192597Y-94162751D01*
X148185484Y-94139302D01*
X148173933Y-94117691D01*
X148158388Y-94098749D01*
X148139446Y-94083203D01*
X148117836Y-94071652D01*
X148094387Y-94064539D01*
X148070001Y-94062137D01*
X148045615Y-94064539D01*
X148022166Y-94071652D01*
X148000555Y-94083203D01*
X147981613Y-94098748D01*
X147966067Y-94117690D01*
X147954516Y-94139300D01*
X147947403Y-94162751D01*
X147945983Y-94169890D01*
X147896909Y-94288364D01*
X147825665Y-94394988D01*
X147734988Y-94485665D01*
X147628364Y-94556909D01*
X147628363Y-94556910D01*
X147628362Y-94556910D01*
X147509890Y-94605983D01*
X147384119Y-94631000D01*
X147255881Y-94631000D01*
X147130110Y-94605983D01*
X147011638Y-94556910D01*
X147011637Y-94556910D01*
X147011636Y-94556909D01*
X146905012Y-94485665D01*
X146814335Y-94394988D01*
X146743091Y-94288364D01*
X146694017Y-94169890D01*
X146683634Y-94117690D01*
X146669000Y-94044119D01*
X146669000Y-93915881D01*
X146694017Y-93790110D01*
X146743090Y-93671638D01*
X146794365Y-93594900D01*
X146814335Y-93565012D01*
X146905012Y-93474335D01*
X147011636Y-93403091D01*
X147130110Y-93354017D01*
X147157841Y-93348501D01*
X147255881Y-93329000D01*
X147384119Y-93329000D01*
X147482159Y-93348501D01*
X147482159Y-93348501D01*
G37*
G36*
X138667142Y-91928242D02*
G01*
X138815101Y-91989529D01*
X138948255Y-92078499D01*
X139061501Y-92191745D01*
X139150471Y-92324899D01*
X139211758Y-92472858D01*
X139243000Y-92629925D01*
X139243000Y-92790075D01*
X139211758Y-92947142D01*
X139150471Y-93095101D01*
X139061501Y-93228255D01*
X138948255Y-93341501D01*
X138815101Y-93430471D01*
X138667142Y-93491758D01*
X138510075Y-93523000D01*
X138349925Y-93523000D01*
X138192858Y-93491758D01*
X138044899Y-93430471D01*
X137911745Y-93341501D01*
X137798499Y-93228255D01*
X137709529Y-93095101D01*
X137648242Y-92947142D01*
X137617000Y-92790075D01*
X137617000Y-92629925D01*
X137648242Y-92472858D01*
X137709529Y-92324899D01*
X137798499Y-92191745D01*
X137911745Y-92078499D01*
X138044899Y-91989529D01*
X138192858Y-91928242D01*
X138349925Y-91897000D01*
X138510075Y-91897000D01*
X138667142Y-91928242D01*
X138667142Y-91928242D01*
G37*
G36*
X113267142Y-91928242D02*
G01*
X113415101Y-91989529D01*
X113548255Y-92078499D01*
X113661501Y-92191745D01*
X113750471Y-92324899D01*
X113811758Y-92472858D01*
X113843000Y-92629925D01*
X113843000Y-92790075D01*
X113811758Y-92947142D01*
X113750471Y-93095101D01*
X113661501Y-93228255D01*
X113548255Y-93341501D01*
X113415101Y-93430471D01*
X113267142Y-93491758D01*
X113110075Y-93523000D01*
X112949925Y-93523000D01*
X112792858Y-93491758D01*
X112644899Y-93430471D01*
X112511745Y-93341501D01*
X112398499Y-93228255D01*
X112309529Y-93095101D01*
X112248242Y-92947142D01*
X112217000Y-92790075D01*
X112217000Y-92629925D01*
X112248242Y-92472858D01*
X112309529Y-92324899D01*
X112398499Y-92191745D01*
X112511745Y-92078499D01*
X112644899Y-91989529D01*
X112792858Y-91928242D01*
X112949925Y-91897000D01*
X113110075Y-91897000D01*
X113267142Y-91928242D01*
X113267142Y-91928242D01*
G37*
G36*
X115807142Y-91928242D02*
G01*
X115955101Y-91989529D01*
X116088255Y-92078499D01*
X116201501Y-92191745D01*
X116290471Y-92324899D01*
X116351758Y-92472858D01*
X116383000Y-92629925D01*
X116383000Y-92790075D01*
X116351758Y-92947142D01*
X116290471Y-93095101D01*
X116201501Y-93228255D01*
X116088255Y-93341501D01*
X115955101Y-93430471D01*
X115807142Y-93491758D01*
X115650075Y-93523000D01*
X115489925Y-93523000D01*
X115332858Y-93491758D01*
X115184899Y-93430471D01*
X115051745Y-93341501D01*
X114938499Y-93228255D01*
X114849529Y-93095101D01*
X114788242Y-92947142D01*
X114757000Y-92790075D01*
X114757000Y-92629925D01*
X114788242Y-92472858D01*
X114849529Y-92324899D01*
X114938499Y-92191745D01*
X115051745Y-92078499D01*
X115184899Y-91989529D01*
X115332858Y-91928242D01*
X115489925Y-91897000D01*
X115650075Y-91897000D01*
X115807142Y-91928242D01*
X115807142Y-91928242D01*
G37*
G36*
X125967142Y-91928242D02*
G01*
X126115101Y-91989529D01*
X126248255Y-92078499D01*
X126361501Y-92191745D01*
X126450471Y-92324899D01*
X126511758Y-92472858D01*
X126543000Y-92629925D01*
X126543000Y-92790075D01*
X126511758Y-92947142D01*
X126450471Y-93095101D01*
X126361501Y-93228255D01*
X126248255Y-93341501D01*
X126115101Y-93430471D01*
X125967142Y-93491758D01*
X125810075Y-93523000D01*
X125649925Y-93523000D01*
X125492858Y-93491758D01*
X125344899Y-93430471D01*
X125211745Y-93341501D01*
X125098499Y-93228255D01*
X125009529Y-93095101D01*
X124948242Y-92947142D01*
X124917000Y-92790075D01*
X124917000Y-92629925D01*
X124948242Y-92472858D01*
X125009529Y-92324899D01*
X125098499Y-92191745D01*
X125211745Y-92078499D01*
X125344899Y-91989529D01*
X125492858Y-91928242D01*
X125649925Y-91897000D01*
X125810075Y-91897000D01*
X125967142Y-91928242D01*
X125967142Y-91928242D01*
G37*
G36*
X118347142Y-91928242D02*
G01*
X118495101Y-91989529D01*
X118628255Y-92078499D01*
X118741501Y-92191745D01*
X118830471Y-92324899D01*
X118891758Y-92472858D01*
X118923000Y-92629925D01*
X118923000Y-92790075D01*
X118891758Y-92947142D01*
X118830471Y-93095101D01*
X118741501Y-93228255D01*
X118628255Y-93341501D01*
X118495101Y-93430471D01*
X118347142Y-93491758D01*
X118190075Y-93523000D01*
X118029925Y-93523000D01*
X117872858Y-93491758D01*
X117724899Y-93430471D01*
X117591745Y-93341501D01*
X117478499Y-93228255D01*
X117389529Y-93095101D01*
X117328242Y-92947142D01*
X117297000Y-92790075D01*
X117297000Y-92629925D01*
X117328242Y-92472858D01*
X117389529Y-92324899D01*
X117478499Y-92191745D01*
X117591745Y-92078499D01*
X117724899Y-91989529D01*
X117872858Y-91928242D01*
X118029925Y-91897000D01*
X118190075Y-91897000D01*
X118347142Y-91928242D01*
X118347142Y-91928242D01*
G37*
G36*
X136127142Y-91928242D02*
G01*
X136275101Y-91989529D01*
X136408255Y-92078499D01*
X136521501Y-92191745D01*
X136610471Y-92324899D01*
X136671758Y-92472858D01*
X136703000Y-92629925D01*
X136703000Y-92790075D01*
X136671758Y-92947142D01*
X136610471Y-93095101D01*
X136521501Y-93228255D01*
X136408255Y-93341501D01*
X136275101Y-93430471D01*
X136127142Y-93491758D01*
X135970075Y-93523000D01*
X135809925Y-93523000D01*
X135652858Y-93491758D01*
X135504899Y-93430471D01*
X135371745Y-93341501D01*
X135258499Y-93228255D01*
X135169529Y-93095101D01*
X135108242Y-92947142D01*
X135077000Y-92790075D01*
X135077000Y-92629925D01*
X135108242Y-92472858D01*
X135169529Y-92324899D01*
X135258499Y-92191745D01*
X135371745Y-92078499D01*
X135504899Y-91989529D01*
X135652858Y-91928242D01*
X135809925Y-91897000D01*
X135970075Y-91897000D01*
X136127142Y-91928242D01*
X136127142Y-91928242D01*
G37*
G36*
X131047142Y-91928242D02*
G01*
X131195101Y-91989529D01*
X131328255Y-92078499D01*
X131441501Y-92191745D01*
X131530471Y-92324899D01*
X131591758Y-92472858D01*
X131623000Y-92629925D01*
X131623000Y-92790075D01*
X131591758Y-92947142D01*
X131530471Y-93095101D01*
X131441501Y-93228255D01*
X131328255Y-93341501D01*
X131195101Y-93430471D01*
X131047142Y-93491758D01*
X130890075Y-93523000D01*
X130729925Y-93523000D01*
X130572858Y-93491758D01*
X130424899Y-93430471D01*
X130291745Y-93341501D01*
X130178499Y-93228255D01*
X130089529Y-93095101D01*
X130028242Y-92947142D01*
X129997000Y-92790075D01*
X129997000Y-92629925D01*
X130028242Y-92472858D01*
X130089529Y-92324899D01*
X130178499Y-92191745D01*
X130291745Y-92078499D01*
X130424899Y-91989529D01*
X130572858Y-91928242D01*
X130729925Y-91897000D01*
X130890075Y-91897000D01*
X131047142Y-91928242D01*
X131047142Y-91928242D01*
G37*
G36*
X128507142Y-91928242D02*
G01*
X128655101Y-91989529D01*
X128788255Y-92078499D01*
X128901501Y-92191745D01*
X128990471Y-92324899D01*
X129051758Y-92472858D01*
X129083000Y-92629925D01*
X129083000Y-92790075D01*
X129051758Y-92947142D01*
X128990471Y-93095101D01*
X128901501Y-93228255D01*
X128788255Y-93341501D01*
X128655101Y-93430471D01*
X128507142Y-93491758D01*
X128350075Y-93523000D01*
X128189925Y-93523000D01*
X128032858Y-93491758D01*
X127884899Y-93430471D01*
X127751745Y-93341501D01*
X127638499Y-93228255D01*
X127549529Y-93095101D01*
X127488242Y-92947142D01*
X127457000Y-92790075D01*
X127457000Y-92629925D01*
X127488242Y-92472858D01*
X127549529Y-92324899D01*
X127638499Y-92191745D01*
X127751745Y-92078499D01*
X127884899Y-91989529D01*
X128032858Y-91928242D01*
X128189925Y-91897000D01*
X128350075Y-91897000D01*
X128507142Y-91928242D01*
X128507142Y-91928242D01*
G37*
G36*
X123427142Y-91928242D02*
G01*
X123575101Y-91989529D01*
X123708255Y-92078499D01*
X123821501Y-92191745D01*
X123910471Y-92324899D01*
X123971758Y-92472858D01*
X124003000Y-92629925D01*
X124003000Y-92790075D01*
X123971758Y-92947142D01*
X123910471Y-93095101D01*
X123821501Y-93228255D01*
X123708255Y-93341501D01*
X123575101Y-93430471D01*
X123427142Y-93491758D01*
X123270075Y-93523000D01*
X123109925Y-93523000D01*
X122952858Y-93491758D01*
X122804899Y-93430471D01*
X122671745Y-93341501D01*
X122558499Y-93228255D01*
X122469529Y-93095101D01*
X122408242Y-92947142D01*
X122377000Y-92790075D01*
X122377000Y-92629925D01*
X122408242Y-92472858D01*
X122469529Y-92324899D01*
X122558499Y-92191745D01*
X122671745Y-92078499D01*
X122804899Y-91989529D01*
X122952858Y-91928242D01*
X123109925Y-91897000D01*
X123270075Y-91897000D01*
X123427142Y-91928242D01*
X123427142Y-91928242D01*
G37*
G36*
X110727142Y-91928242D02*
G01*
X110875101Y-91989529D01*
X111008255Y-92078499D01*
X111121501Y-92191745D01*
X111210471Y-92324899D01*
X111271758Y-92472858D01*
X111303000Y-92629925D01*
X111303000Y-92790075D01*
X111271758Y-92947142D01*
X111210471Y-93095101D01*
X111121501Y-93228255D01*
X111008255Y-93341501D01*
X110875101Y-93430471D01*
X110727142Y-93491758D01*
X110570075Y-93523000D01*
X110409925Y-93523000D01*
X110252858Y-93491758D01*
X110104899Y-93430471D01*
X109971745Y-93341501D01*
X109858499Y-93228255D01*
X109769529Y-93095101D01*
X109708242Y-92947142D01*
X109677000Y-92790075D01*
X109677000Y-92629925D01*
X109708242Y-92472858D01*
X109769529Y-92324899D01*
X109858499Y-92191745D01*
X109971745Y-92078499D01*
X110104899Y-91989529D01*
X110252858Y-91928242D01*
X110409925Y-91897000D01*
X110570075Y-91897000D01*
X110727142Y-91928242D01*
X110727142Y-91928242D01*
G37*
G36*
X120887142Y-91928242D02*
G01*
X121035101Y-91989529D01*
X121168255Y-92078499D01*
X121281501Y-92191745D01*
X121370471Y-92324899D01*
X121431758Y-92472858D01*
X121463000Y-92629925D01*
X121463000Y-92790075D01*
X121431758Y-92947142D01*
X121370471Y-93095101D01*
X121281501Y-93228255D01*
X121168255Y-93341501D01*
X121035101Y-93430471D01*
X120887142Y-93491758D01*
X120730075Y-93523000D01*
X120569925Y-93523000D01*
X120412858Y-93491758D01*
X120264899Y-93430471D01*
X120131745Y-93341501D01*
X120018499Y-93228255D01*
X119929529Y-93095101D01*
X119868242Y-92947142D01*
X119837000Y-92790075D01*
X119837000Y-92629925D01*
X119868242Y-92472858D01*
X119929529Y-92324899D01*
X120018499Y-92191745D01*
X120131745Y-92078499D01*
X120264899Y-91989529D01*
X120412858Y-91928242D01*
X120569925Y-91897000D01*
X120730075Y-91897000D01*
X120887142Y-91928242D01*
X120887142Y-91928242D01*
G37*
G36*
X133587142Y-91928242D02*
G01*
X133735101Y-91989529D01*
X133868255Y-92078499D01*
X133981501Y-92191745D01*
X134070471Y-92324899D01*
X134131758Y-92472858D01*
X134163000Y-92629925D01*
X134163000Y-92790075D01*
X134131758Y-92947142D01*
X134070471Y-93095101D01*
X133981501Y-93228255D01*
X133868255Y-93341501D01*
X133735101Y-93430471D01*
X133587142Y-93491758D01*
X133430075Y-93523000D01*
X133269925Y-93523000D01*
X133112858Y-93491758D01*
X132964899Y-93430471D01*
X132831745Y-93341501D01*
X132718499Y-93228255D01*
X132629529Y-93095101D01*
X132568242Y-92947142D01*
X132537000Y-92790075D01*
X132537000Y-92629925D01*
X132568242Y-92472858D01*
X132629529Y-92324899D01*
X132718499Y-92191745D01*
X132831745Y-92078499D01*
X132964899Y-91989529D01*
X133112858Y-91928242D01*
X133269925Y-91897000D01*
X133430075Y-91897000D01*
X133587142Y-91928242D01*
X133587142Y-91928242D01*
G37*
G36*
X76962617Y-85318420D02*
G01*
X77053403Y-85345960D01*
X77085335Y-85355646D01*
X77198424Y-85416094D01*
X77297554Y-85497447D01*
X77378906Y-85596575D01*
X77439354Y-85709664D01*
X77449040Y-85741596D01*
X77476580Y-85832382D01*
X77486000Y-85928027D01*
X77486000Y-86791973D01*
X77476580Y-86887618D01*
X77459745Y-86943116D01*
X77439354Y-87010336D01*
X77378906Y-87123425D01*
X77297554Y-87222554D01*
X77198425Y-87303906D01*
X77085336Y-87364354D01*
X77053404Y-87374040D01*
X76962618Y-87401580D01*
X76835000Y-87414149D01*
X76707383Y-87401580D01*
X76616597Y-87374040D01*
X76584665Y-87364354D01*
X76471576Y-87303906D01*
X76372447Y-87222554D01*
X76291095Y-87123425D01*
X76230647Y-87010336D01*
X76210256Y-86943116D01*
X76193420Y-86887618D01*
X76184000Y-86791973D01*
X76184000Y-85928028D01*
X76193420Y-85832383D01*
X76230645Y-85709669D01*
X76230646Y-85709665D01*
X76291094Y-85596576D01*
X76372447Y-85497446D01*
X76471575Y-85416094D01*
X76584664Y-85355646D01*
X76616596Y-85345960D01*
X76707382Y-85318420D01*
X76835000Y-85305851D01*
X76962617Y-85318420D01*
X76962617Y-85318420D01*
G37*
G36*
X125222617Y-85318420D02*
G01*
X125313403Y-85345960D01*
X125345335Y-85355646D01*
X125458424Y-85416094D01*
X125557554Y-85497447D01*
X125638906Y-85596575D01*
X125699354Y-85709664D01*
X125709040Y-85741596D01*
X125736580Y-85832382D01*
X125746000Y-85928027D01*
X125746000Y-86791973D01*
X125736580Y-86887618D01*
X125719745Y-86943116D01*
X125699354Y-87010336D01*
X125638906Y-87123425D01*
X125557554Y-87222554D01*
X125458425Y-87303906D01*
X125345336Y-87364354D01*
X125313404Y-87374040D01*
X125222618Y-87401580D01*
X125095000Y-87414149D01*
X124967383Y-87401580D01*
X124876597Y-87374040D01*
X124844665Y-87364354D01*
X124731576Y-87303906D01*
X124632447Y-87222554D01*
X124551095Y-87123425D01*
X124490647Y-87010336D01*
X124470256Y-86943116D01*
X124453420Y-86887618D01*
X124444000Y-86791973D01*
X124444000Y-85928028D01*
X124453420Y-85832383D01*
X124490645Y-85709669D01*
X124490646Y-85709665D01*
X124551094Y-85596576D01*
X124632447Y-85497446D01*
X124731575Y-85416094D01*
X124844664Y-85355646D01*
X124876596Y-85345960D01*
X124967382Y-85318420D01*
X125095000Y-85305851D01*
X125222617Y-85318420D01*
X125222617Y-85318420D01*
G37*
G36*
X79502617Y-85318420D02*
G01*
X79593403Y-85345960D01*
X79625335Y-85355646D01*
X79738424Y-85416094D01*
X79837554Y-85497447D01*
X79918906Y-85596575D01*
X79979354Y-85709664D01*
X79989040Y-85741596D01*
X80016580Y-85832382D01*
X80026000Y-85928027D01*
X80026000Y-86791973D01*
X80016580Y-86887618D01*
X79999745Y-86943116D01*
X79979354Y-87010336D01*
X79918906Y-87123425D01*
X79837554Y-87222554D01*
X79738425Y-87303906D01*
X79625336Y-87364354D01*
X79593404Y-87374040D01*
X79502618Y-87401580D01*
X79375000Y-87414149D01*
X79247383Y-87401580D01*
X79156597Y-87374040D01*
X79124665Y-87364354D01*
X79011576Y-87303906D01*
X78912447Y-87222554D01*
X78831095Y-87123425D01*
X78770647Y-87010336D01*
X78750256Y-86943116D01*
X78733420Y-86887618D01*
X78724000Y-86791973D01*
X78724000Y-85928028D01*
X78733420Y-85832383D01*
X78770645Y-85709669D01*
X78770646Y-85709665D01*
X78831094Y-85596576D01*
X78912447Y-85497446D01*
X79011575Y-85416094D01*
X79124664Y-85355646D01*
X79156596Y-85345960D01*
X79247382Y-85318420D01*
X79375000Y-85305851D01*
X79502617Y-85318420D01*
X79502617Y-85318420D01*
G37*
G36*
X92202617Y-85318420D02*
G01*
X92293403Y-85345960D01*
X92325335Y-85355646D01*
X92438424Y-85416094D01*
X92537554Y-85497447D01*
X92618906Y-85596575D01*
X92679354Y-85709664D01*
X92689040Y-85741596D01*
X92716580Y-85832382D01*
X92726000Y-85928027D01*
X92726000Y-86791973D01*
X92716580Y-86887618D01*
X92699745Y-86943116D01*
X92679354Y-87010336D01*
X92618906Y-87123425D01*
X92537554Y-87222554D01*
X92438425Y-87303906D01*
X92325336Y-87364354D01*
X92293404Y-87374040D01*
X92202618Y-87401580D01*
X92075000Y-87414149D01*
X91947383Y-87401580D01*
X91856597Y-87374040D01*
X91824665Y-87364354D01*
X91711576Y-87303906D01*
X91612447Y-87222554D01*
X91531095Y-87123425D01*
X91470647Y-87010336D01*
X91450256Y-86943116D01*
X91433420Y-86887618D01*
X91424000Y-86791973D01*
X91424000Y-85928028D01*
X91433420Y-85832383D01*
X91470645Y-85709669D01*
X91470646Y-85709665D01*
X91531094Y-85596576D01*
X91612447Y-85497446D01*
X91711575Y-85416094D01*
X91824664Y-85355646D01*
X91856596Y-85345960D01*
X91947382Y-85318420D01*
X92075000Y-85305851D01*
X92202617Y-85318420D01*
X92202617Y-85318420D01*
G37*
G36*
X82042617Y-85318420D02*
G01*
X82133403Y-85345960D01*
X82165335Y-85355646D01*
X82278424Y-85416094D01*
X82377554Y-85497447D01*
X82458906Y-85596575D01*
X82519354Y-85709664D01*
X82529040Y-85741596D01*
X82556580Y-85832382D01*
X82566000Y-85928027D01*
X82566000Y-86791973D01*
X82556580Y-86887618D01*
X82539745Y-86943116D01*
X82519354Y-87010336D01*
X82458906Y-87123425D01*
X82377554Y-87222554D01*
X82278425Y-87303906D01*
X82165336Y-87364354D01*
X82133404Y-87374040D01*
X82042618Y-87401580D01*
X81915000Y-87414149D01*
X81787383Y-87401580D01*
X81696597Y-87374040D01*
X81664665Y-87364354D01*
X81551576Y-87303906D01*
X81452447Y-87222554D01*
X81371095Y-87123425D01*
X81310647Y-87010336D01*
X81290256Y-86943116D01*
X81273420Y-86887618D01*
X81264000Y-86791973D01*
X81264000Y-85928028D01*
X81273420Y-85832383D01*
X81310645Y-85709669D01*
X81310646Y-85709665D01*
X81371094Y-85596576D01*
X81452447Y-85497446D01*
X81551575Y-85416094D01*
X81664664Y-85355646D01*
X81696596Y-85345960D01*
X81787382Y-85318420D01*
X81915000Y-85305851D01*
X82042617Y-85318420D01*
X82042617Y-85318420D01*
G37*
G36*
X120142617Y-85318420D02*
G01*
X120233403Y-85345960D01*
X120265335Y-85355646D01*
X120378424Y-85416094D01*
X120477554Y-85497447D01*
X120558906Y-85596575D01*
X120619354Y-85709664D01*
X120629040Y-85741596D01*
X120656580Y-85832382D01*
X120666000Y-85928027D01*
X120666000Y-86791973D01*
X120656580Y-86887618D01*
X120639745Y-86943116D01*
X120619354Y-87010336D01*
X120558906Y-87123425D01*
X120477554Y-87222554D01*
X120378425Y-87303906D01*
X120265336Y-87364354D01*
X120233404Y-87374040D01*
X120142618Y-87401580D01*
X120015000Y-87414149D01*
X119887383Y-87401580D01*
X119796597Y-87374040D01*
X119764665Y-87364354D01*
X119651576Y-87303906D01*
X119552447Y-87222554D01*
X119471095Y-87123425D01*
X119410647Y-87010336D01*
X119390256Y-86943116D01*
X119373420Y-86887618D01*
X119364000Y-86791973D01*
X119364000Y-85928028D01*
X119373420Y-85832383D01*
X119410645Y-85709669D01*
X119410646Y-85709665D01*
X119471094Y-85596576D01*
X119552447Y-85497446D01*
X119651575Y-85416094D01*
X119764664Y-85355646D01*
X119796596Y-85345960D01*
X119887382Y-85318420D01*
X120015000Y-85305851D01*
X120142617Y-85318420D01*
X120142617Y-85318420D01*
G37*
G36*
X84582617Y-85318420D02*
G01*
X84673403Y-85345960D01*
X84705335Y-85355646D01*
X84818424Y-85416094D01*
X84917554Y-85497447D01*
X84998906Y-85596575D01*
X85059354Y-85709664D01*
X85069040Y-85741596D01*
X85096580Y-85832382D01*
X85106000Y-85928027D01*
X85106000Y-86791973D01*
X85096580Y-86887618D01*
X85079745Y-86943116D01*
X85059354Y-87010336D01*
X84998906Y-87123425D01*
X84917554Y-87222554D01*
X84818425Y-87303906D01*
X84705336Y-87364354D01*
X84673404Y-87374040D01*
X84582618Y-87401580D01*
X84455000Y-87414149D01*
X84327383Y-87401580D01*
X84236597Y-87374040D01*
X84204665Y-87364354D01*
X84091576Y-87303906D01*
X83992447Y-87222554D01*
X83911095Y-87123425D01*
X83850647Y-87010336D01*
X83830256Y-86943116D01*
X83813420Y-86887618D01*
X83804000Y-86791973D01*
X83804000Y-85928028D01*
X83813420Y-85832383D01*
X83850645Y-85709669D01*
X83850646Y-85709665D01*
X83911094Y-85596576D01*
X83992447Y-85497446D01*
X84091575Y-85416094D01*
X84204664Y-85355646D01*
X84236596Y-85345960D01*
X84327382Y-85318420D01*
X84455000Y-85305851D01*
X84582617Y-85318420D01*
X84582617Y-85318420D01*
G37*
G36*
X117602617Y-85318420D02*
G01*
X117693403Y-85345960D01*
X117725335Y-85355646D01*
X117838424Y-85416094D01*
X117937554Y-85497447D01*
X118018906Y-85596575D01*
X118079354Y-85709664D01*
X118089040Y-85741596D01*
X118116580Y-85832382D01*
X118126000Y-85928027D01*
X118126000Y-86791973D01*
X118116580Y-86887618D01*
X118099745Y-86943116D01*
X118079354Y-87010336D01*
X118018906Y-87123425D01*
X117937554Y-87222554D01*
X117838425Y-87303906D01*
X117725336Y-87364354D01*
X117693404Y-87374040D01*
X117602618Y-87401580D01*
X117475000Y-87414149D01*
X117347383Y-87401580D01*
X117256597Y-87374040D01*
X117224665Y-87364354D01*
X117111576Y-87303906D01*
X117012447Y-87222554D01*
X116931095Y-87123425D01*
X116870647Y-87010336D01*
X116850256Y-86943116D01*
X116833420Y-86887618D01*
X116824000Y-86791973D01*
X116824000Y-85928028D01*
X116833420Y-85832383D01*
X116870645Y-85709669D01*
X116870646Y-85709665D01*
X116931094Y-85596576D01*
X117012447Y-85497446D01*
X117111575Y-85416094D01*
X117224664Y-85355646D01*
X117256596Y-85345960D01*
X117347382Y-85318420D01*
X117475000Y-85305851D01*
X117602617Y-85318420D01*
X117602617Y-85318420D01*
G37*
G36*
X87122617Y-85318420D02*
G01*
X87213403Y-85345960D01*
X87245335Y-85355646D01*
X87358424Y-85416094D01*
X87457554Y-85497447D01*
X87538906Y-85596575D01*
X87599354Y-85709664D01*
X87609040Y-85741596D01*
X87636580Y-85832382D01*
X87646000Y-85928027D01*
X87646000Y-86791973D01*
X87636580Y-86887618D01*
X87619745Y-86943116D01*
X87599354Y-87010336D01*
X87538906Y-87123425D01*
X87457554Y-87222554D01*
X87358425Y-87303906D01*
X87245336Y-87364354D01*
X87213404Y-87374040D01*
X87122618Y-87401580D01*
X86995000Y-87414149D01*
X86867383Y-87401580D01*
X86776597Y-87374040D01*
X86744665Y-87364354D01*
X86631576Y-87303906D01*
X86532447Y-87222554D01*
X86451095Y-87123425D01*
X86390647Y-87010336D01*
X86370256Y-86943116D01*
X86353420Y-86887618D01*
X86344000Y-86791973D01*
X86344000Y-85928028D01*
X86353420Y-85832383D01*
X86390645Y-85709669D01*
X86390646Y-85709665D01*
X86451094Y-85596576D01*
X86532447Y-85497446D01*
X86631575Y-85416094D01*
X86744664Y-85355646D01*
X86776596Y-85345960D01*
X86867382Y-85318420D01*
X86995000Y-85305851D01*
X87122617Y-85318420D01*
X87122617Y-85318420D01*
G37*
G36*
X115062617Y-85318420D02*
G01*
X115153403Y-85345960D01*
X115185335Y-85355646D01*
X115298424Y-85416094D01*
X115397554Y-85497447D01*
X115478906Y-85596575D01*
X115539354Y-85709664D01*
X115549040Y-85741596D01*
X115576580Y-85832382D01*
X115586000Y-85928027D01*
X115586000Y-86791973D01*
X115576580Y-86887618D01*
X115559745Y-86943116D01*
X115539354Y-87010336D01*
X115478906Y-87123425D01*
X115397554Y-87222554D01*
X115298425Y-87303906D01*
X115185336Y-87364354D01*
X115153404Y-87374040D01*
X115062618Y-87401580D01*
X114935000Y-87414149D01*
X114807383Y-87401580D01*
X114716597Y-87374040D01*
X114684665Y-87364354D01*
X114571576Y-87303906D01*
X114472447Y-87222554D01*
X114391095Y-87123425D01*
X114330647Y-87010336D01*
X114310256Y-86943116D01*
X114293420Y-86887618D01*
X114284000Y-86791973D01*
X114284000Y-85928028D01*
X114293420Y-85832383D01*
X114330645Y-85709669D01*
X114330646Y-85709665D01*
X114391094Y-85596576D01*
X114472447Y-85497446D01*
X114571575Y-85416094D01*
X114684664Y-85355646D01*
X114716596Y-85345960D01*
X114807382Y-85318420D01*
X114935000Y-85305851D01*
X115062617Y-85318420D01*
X115062617Y-85318420D01*
G37*
G36*
X89662617Y-85318420D02*
G01*
X89753403Y-85345960D01*
X89785335Y-85355646D01*
X89898424Y-85416094D01*
X89997554Y-85497447D01*
X90078906Y-85596575D01*
X90139354Y-85709664D01*
X90149040Y-85741596D01*
X90176580Y-85832382D01*
X90186000Y-85928027D01*
X90186000Y-86791973D01*
X90176580Y-86887618D01*
X90159745Y-86943116D01*
X90139354Y-87010336D01*
X90078906Y-87123425D01*
X89997554Y-87222554D01*
X89898425Y-87303906D01*
X89785336Y-87364354D01*
X89753404Y-87374040D01*
X89662618Y-87401580D01*
X89535000Y-87414149D01*
X89407383Y-87401580D01*
X89316597Y-87374040D01*
X89284665Y-87364354D01*
X89171576Y-87303906D01*
X89072447Y-87222554D01*
X88991095Y-87123425D01*
X88930647Y-87010336D01*
X88910256Y-86943116D01*
X88893420Y-86887618D01*
X88884000Y-86791973D01*
X88884000Y-85928028D01*
X88893420Y-85832383D01*
X88930645Y-85709669D01*
X88930646Y-85709665D01*
X88991094Y-85596576D01*
X89072447Y-85497446D01*
X89171575Y-85416094D01*
X89284664Y-85355646D01*
X89316596Y-85345960D01*
X89407382Y-85318420D01*
X89535000Y-85305851D01*
X89662617Y-85318420D01*
X89662617Y-85318420D01*
G37*
G36*
X112522617Y-85318420D02*
G01*
X112613403Y-85345960D01*
X112645335Y-85355646D01*
X112758424Y-85416094D01*
X112857554Y-85497447D01*
X112938906Y-85596575D01*
X112999354Y-85709664D01*
X113009040Y-85741596D01*
X113036580Y-85832382D01*
X113046000Y-85928027D01*
X113046000Y-86791973D01*
X113036580Y-86887618D01*
X113019745Y-86943116D01*
X112999354Y-87010336D01*
X112938906Y-87123425D01*
X112857554Y-87222554D01*
X112758425Y-87303906D01*
X112645336Y-87364354D01*
X112613404Y-87374040D01*
X112522618Y-87401580D01*
X112395000Y-87414149D01*
X112267383Y-87401580D01*
X112176597Y-87374040D01*
X112144665Y-87364354D01*
X112031576Y-87303906D01*
X111932447Y-87222554D01*
X111851095Y-87123425D01*
X111790647Y-87010336D01*
X111770256Y-86943116D01*
X111753420Y-86887618D01*
X111744000Y-86791973D01*
X111744000Y-85928028D01*
X111753420Y-85832383D01*
X111790645Y-85709669D01*
X111790646Y-85709665D01*
X111851094Y-85596576D01*
X111932447Y-85497446D01*
X112031575Y-85416094D01*
X112144664Y-85355646D01*
X112176596Y-85345960D01*
X112267382Y-85318420D01*
X112395000Y-85305851D01*
X112522617Y-85318420D01*
X112522617Y-85318420D01*
G37*
G36*
X130302617Y-85318420D02*
G01*
X130393403Y-85345960D01*
X130425335Y-85355646D01*
X130538424Y-85416094D01*
X130637554Y-85497447D01*
X130718906Y-85596575D01*
X130779354Y-85709664D01*
X130789040Y-85741596D01*
X130816580Y-85832382D01*
X130826000Y-85928027D01*
X130826000Y-86791973D01*
X130816580Y-86887618D01*
X130799745Y-86943116D01*
X130779354Y-87010336D01*
X130718906Y-87123425D01*
X130637554Y-87222554D01*
X130538425Y-87303906D01*
X130425336Y-87364354D01*
X130393404Y-87374040D01*
X130302618Y-87401580D01*
X130175000Y-87414149D01*
X130047383Y-87401580D01*
X129956597Y-87374040D01*
X129924665Y-87364354D01*
X129811576Y-87303906D01*
X129712447Y-87222554D01*
X129631095Y-87123425D01*
X129570647Y-87010336D01*
X129550256Y-86943116D01*
X129533420Y-86887618D01*
X129524000Y-86791973D01*
X129524000Y-85928028D01*
X129533420Y-85832383D01*
X129570645Y-85709669D01*
X129570646Y-85709665D01*
X129631094Y-85596576D01*
X129712447Y-85497446D01*
X129811575Y-85416094D01*
X129924664Y-85355646D01*
X129956596Y-85345960D01*
X130047382Y-85318420D01*
X130175000Y-85305851D01*
X130302617Y-85318420D01*
X130302617Y-85318420D01*
G37*
G36*
X109982617Y-85318420D02*
G01*
X110073403Y-85345960D01*
X110105335Y-85355646D01*
X110218424Y-85416094D01*
X110317554Y-85497447D01*
X110398906Y-85596575D01*
X110459354Y-85709664D01*
X110469040Y-85741596D01*
X110496580Y-85832382D01*
X110506000Y-85928027D01*
X110506000Y-86791973D01*
X110496580Y-86887618D01*
X110479745Y-86943116D01*
X110459354Y-87010336D01*
X110398906Y-87123425D01*
X110317554Y-87222554D01*
X110218425Y-87303906D01*
X110105336Y-87364354D01*
X110073404Y-87374040D01*
X109982618Y-87401580D01*
X109855000Y-87414149D01*
X109727383Y-87401580D01*
X109636597Y-87374040D01*
X109604665Y-87364354D01*
X109491576Y-87303906D01*
X109392447Y-87222554D01*
X109311095Y-87123425D01*
X109250647Y-87010336D01*
X109230256Y-86943116D01*
X109213420Y-86887618D01*
X109204000Y-86791973D01*
X109204000Y-85928028D01*
X109213420Y-85832383D01*
X109250645Y-85709669D01*
X109250646Y-85709665D01*
X109311094Y-85596576D01*
X109392447Y-85497446D01*
X109491575Y-85416094D01*
X109604664Y-85355646D01*
X109636596Y-85345960D01*
X109727382Y-85318420D01*
X109855000Y-85305851D01*
X109982617Y-85318420D01*
X109982617Y-85318420D01*
G37*
G36*
X99822617Y-85318420D02*
G01*
X99913403Y-85345960D01*
X99945335Y-85355646D01*
X100058424Y-85416094D01*
X100157554Y-85497447D01*
X100238906Y-85596575D01*
X100299354Y-85709664D01*
X100309040Y-85741596D01*
X100336580Y-85832382D01*
X100346000Y-85928027D01*
X100346000Y-86791973D01*
X100336580Y-86887618D01*
X100319745Y-86943116D01*
X100299354Y-87010336D01*
X100238906Y-87123425D01*
X100157554Y-87222554D01*
X100058425Y-87303906D01*
X99945336Y-87364354D01*
X99913404Y-87374040D01*
X99822618Y-87401580D01*
X99695000Y-87414149D01*
X99567383Y-87401580D01*
X99476597Y-87374040D01*
X99444665Y-87364354D01*
X99331576Y-87303906D01*
X99232447Y-87222554D01*
X99151095Y-87123425D01*
X99090647Y-87010336D01*
X99070256Y-86943116D01*
X99053420Y-86887618D01*
X99044000Y-86791973D01*
X99044000Y-85928028D01*
X99053420Y-85832383D01*
X99090645Y-85709669D01*
X99090646Y-85709665D01*
X99151094Y-85596576D01*
X99232447Y-85497446D01*
X99331575Y-85416094D01*
X99444664Y-85355646D01*
X99476596Y-85345960D01*
X99567382Y-85318420D01*
X99695000Y-85305851D01*
X99822617Y-85318420D01*
X99822617Y-85318420D01*
G37*
G36*
X104902617Y-85318420D02*
G01*
X104993403Y-85345960D01*
X105025335Y-85355646D01*
X105138424Y-85416094D01*
X105237554Y-85497447D01*
X105318906Y-85596575D01*
X105379354Y-85709664D01*
X105389040Y-85741596D01*
X105416580Y-85832382D01*
X105426000Y-85928027D01*
X105426000Y-86791973D01*
X105416580Y-86887618D01*
X105399745Y-86943116D01*
X105379354Y-87010336D01*
X105318906Y-87123425D01*
X105237554Y-87222554D01*
X105138425Y-87303906D01*
X105025336Y-87364354D01*
X104993404Y-87374040D01*
X104902618Y-87401580D01*
X104775000Y-87414149D01*
X104647383Y-87401580D01*
X104556597Y-87374040D01*
X104524665Y-87364354D01*
X104411576Y-87303906D01*
X104312447Y-87222554D01*
X104231095Y-87123425D01*
X104170647Y-87010336D01*
X104150256Y-86943116D01*
X104133420Y-86887618D01*
X104124000Y-86791973D01*
X104124000Y-85928028D01*
X104133420Y-85832383D01*
X104170645Y-85709669D01*
X104170646Y-85709665D01*
X104231094Y-85596576D01*
X104312447Y-85497446D01*
X104411575Y-85416094D01*
X104524664Y-85355646D01*
X104556596Y-85345960D01*
X104647382Y-85318420D01*
X104775000Y-85305851D01*
X104902617Y-85318420D01*
X104902617Y-85318420D01*
G37*
G36*
X97282617Y-85318420D02*
G01*
X97373403Y-85345960D01*
X97405335Y-85355646D01*
X97518424Y-85416094D01*
X97617554Y-85497447D01*
X97698906Y-85596575D01*
X97759354Y-85709664D01*
X97769040Y-85741596D01*
X97796580Y-85832382D01*
X97806000Y-85928027D01*
X97806000Y-86791973D01*
X97796580Y-86887618D01*
X97779745Y-86943116D01*
X97759354Y-87010336D01*
X97698906Y-87123425D01*
X97617554Y-87222554D01*
X97518425Y-87303906D01*
X97405336Y-87364354D01*
X97373404Y-87374040D01*
X97282618Y-87401580D01*
X97155000Y-87414149D01*
X97027383Y-87401580D01*
X96936597Y-87374040D01*
X96904665Y-87364354D01*
X96791576Y-87303906D01*
X96692447Y-87222554D01*
X96611095Y-87123425D01*
X96550647Y-87010336D01*
X96530256Y-86943116D01*
X96513420Y-86887618D01*
X96504000Y-86791973D01*
X96504000Y-85928028D01*
X96513420Y-85832383D01*
X96550645Y-85709669D01*
X96550646Y-85709665D01*
X96611094Y-85596576D01*
X96692447Y-85497446D01*
X96791575Y-85416094D01*
X96904664Y-85355646D01*
X96936596Y-85345960D01*
X97027382Y-85318420D01*
X97155000Y-85305851D01*
X97282617Y-85318420D01*
X97282617Y-85318420D01*
G37*
G36*
X107442617Y-85318420D02*
G01*
X107533403Y-85345960D01*
X107565335Y-85355646D01*
X107678424Y-85416094D01*
X107777554Y-85497447D01*
X107858906Y-85596575D01*
X107919354Y-85709664D01*
X107929040Y-85741596D01*
X107956580Y-85832382D01*
X107966000Y-85928027D01*
X107966000Y-86791973D01*
X107956580Y-86887618D01*
X107939745Y-86943116D01*
X107919354Y-87010336D01*
X107858906Y-87123425D01*
X107777554Y-87222554D01*
X107678425Y-87303906D01*
X107565336Y-87364354D01*
X107533404Y-87374040D01*
X107442618Y-87401580D01*
X107315000Y-87414149D01*
X107187383Y-87401580D01*
X107096597Y-87374040D01*
X107064665Y-87364354D01*
X106951576Y-87303906D01*
X106852447Y-87222554D01*
X106771095Y-87123425D01*
X106710647Y-87010336D01*
X106690256Y-86943116D01*
X106673420Y-86887618D01*
X106664000Y-86791973D01*
X106664000Y-85928028D01*
X106673420Y-85832383D01*
X106710645Y-85709669D01*
X106710646Y-85709665D01*
X106771094Y-85596576D01*
X106852447Y-85497446D01*
X106951575Y-85416094D01*
X107064664Y-85355646D01*
X107096596Y-85345960D01*
X107187382Y-85318420D01*
X107315000Y-85305851D01*
X107442617Y-85318420D01*
X107442617Y-85318420D01*
G37*
G36*
X94742617Y-85318420D02*
G01*
X94833403Y-85345960D01*
X94865335Y-85355646D01*
X94978424Y-85416094D01*
X95077554Y-85497447D01*
X95158906Y-85596575D01*
X95219354Y-85709664D01*
X95229040Y-85741596D01*
X95256580Y-85832382D01*
X95266000Y-85928027D01*
X95266000Y-86791973D01*
X95256580Y-86887618D01*
X95239745Y-86943116D01*
X95219354Y-87010336D01*
X95158906Y-87123425D01*
X95077554Y-87222554D01*
X94978425Y-87303906D01*
X94865336Y-87364354D01*
X94833404Y-87374040D01*
X94742618Y-87401580D01*
X94615000Y-87414149D01*
X94487383Y-87401580D01*
X94396597Y-87374040D01*
X94364665Y-87364354D01*
X94251576Y-87303906D01*
X94152447Y-87222554D01*
X94071095Y-87123425D01*
X94010647Y-87010336D01*
X93990256Y-86943116D01*
X93973420Y-86887618D01*
X93964000Y-86791973D01*
X93964000Y-85928028D01*
X93973420Y-85832383D01*
X94010645Y-85709669D01*
X94010646Y-85709665D01*
X94071094Y-85596576D01*
X94152447Y-85497446D01*
X94251575Y-85416094D01*
X94364664Y-85355646D01*
X94396596Y-85345960D01*
X94487382Y-85318420D01*
X94615000Y-85305851D01*
X94742617Y-85318420D01*
X94742617Y-85318420D01*
G37*
G36*
X102362617Y-85318420D02*
G01*
X102453403Y-85345960D01*
X102485335Y-85355646D01*
X102598424Y-85416094D01*
X102697554Y-85497447D01*
X102778906Y-85596575D01*
X102839354Y-85709664D01*
X102849040Y-85741596D01*
X102876580Y-85832382D01*
X102886000Y-85928027D01*
X102886000Y-86791973D01*
X102876580Y-86887618D01*
X102859745Y-86943116D01*
X102839354Y-87010336D01*
X102778906Y-87123425D01*
X102697554Y-87222554D01*
X102598425Y-87303906D01*
X102485336Y-87364354D01*
X102453404Y-87374040D01*
X102362618Y-87401580D01*
X102235000Y-87414149D01*
X102107383Y-87401580D01*
X102016597Y-87374040D01*
X101984665Y-87364354D01*
X101871576Y-87303906D01*
X101772447Y-87222554D01*
X101691095Y-87123425D01*
X101630647Y-87010336D01*
X101610256Y-86943116D01*
X101593420Y-86887618D01*
X101584000Y-86791973D01*
X101584000Y-85928028D01*
X101593420Y-85832383D01*
X101630645Y-85709669D01*
X101630646Y-85709665D01*
X101691094Y-85596576D01*
X101772447Y-85497446D01*
X101871575Y-85416094D01*
X101984664Y-85355646D01*
X102016596Y-85345960D01*
X102107382Y-85318420D01*
X102235000Y-85305851D01*
X102362617Y-85318420D01*
X102362617Y-85318420D01*
G37*
G36*
X122682617Y-85318420D02*
G01*
X122773403Y-85345960D01*
X122805335Y-85355646D01*
X122918424Y-85416094D01*
X123017554Y-85497447D01*
X123098906Y-85596575D01*
X123159354Y-85709664D01*
X123169040Y-85741596D01*
X123196580Y-85832382D01*
X123206000Y-85928027D01*
X123206000Y-86791973D01*
X123196580Y-86887618D01*
X123179745Y-86943116D01*
X123159354Y-87010336D01*
X123098906Y-87123425D01*
X123017554Y-87222554D01*
X122918425Y-87303906D01*
X122805336Y-87364354D01*
X122773404Y-87374040D01*
X122682618Y-87401580D01*
X122555000Y-87414149D01*
X122427383Y-87401580D01*
X122336597Y-87374040D01*
X122304665Y-87364354D01*
X122191576Y-87303906D01*
X122092447Y-87222554D01*
X122011095Y-87123425D01*
X121950647Y-87010336D01*
X121930256Y-86943116D01*
X121913420Y-86887618D01*
X121904000Y-86791973D01*
X121904000Y-85928028D01*
X121913420Y-85832383D01*
X121950645Y-85709669D01*
X121950646Y-85709665D01*
X122011094Y-85596576D01*
X122092447Y-85497446D01*
X122191575Y-85416094D01*
X122304664Y-85355646D01*
X122336596Y-85345960D01*
X122427382Y-85318420D01*
X122555000Y-85305851D01*
X122682617Y-85318420D01*
X122682617Y-85318420D01*
G37*
G36*
X137922617Y-85318420D02*
G01*
X138013403Y-85345960D01*
X138045335Y-85355646D01*
X138158424Y-85416094D01*
X138257554Y-85497447D01*
X138338906Y-85596575D01*
X138399354Y-85709664D01*
X138409040Y-85741596D01*
X138436580Y-85832382D01*
X138446000Y-85928027D01*
X138446000Y-86791973D01*
X138436580Y-86887618D01*
X138419745Y-86943116D01*
X138399354Y-87010336D01*
X138338906Y-87123425D01*
X138257554Y-87222554D01*
X138158425Y-87303906D01*
X138045336Y-87364354D01*
X138013404Y-87374040D01*
X137922618Y-87401580D01*
X137795000Y-87414149D01*
X137667383Y-87401580D01*
X137576597Y-87374040D01*
X137544665Y-87364354D01*
X137431576Y-87303906D01*
X137332447Y-87222554D01*
X137251095Y-87123425D01*
X137190647Y-87010336D01*
X137170256Y-86943116D01*
X137153420Y-86887618D01*
X137144000Y-86791973D01*
X137144000Y-85928028D01*
X137153420Y-85832383D01*
X137190645Y-85709669D01*
X137190646Y-85709665D01*
X137251094Y-85596576D01*
X137332447Y-85497446D01*
X137431575Y-85416094D01*
X137544664Y-85355646D01*
X137576596Y-85345960D01*
X137667382Y-85318420D01*
X137795000Y-85305851D01*
X137922617Y-85318420D01*
X137922617Y-85318420D01*
G37*
G36*
X135382617Y-85318420D02*
G01*
X135473403Y-85345960D01*
X135505335Y-85355646D01*
X135618424Y-85416094D01*
X135717554Y-85497447D01*
X135798906Y-85596575D01*
X135859354Y-85709664D01*
X135869040Y-85741596D01*
X135896580Y-85832382D01*
X135906000Y-85928027D01*
X135906000Y-86791973D01*
X135896580Y-86887618D01*
X135879745Y-86943116D01*
X135859354Y-87010336D01*
X135798906Y-87123425D01*
X135717554Y-87222554D01*
X135618425Y-87303906D01*
X135505336Y-87364354D01*
X135473404Y-87374040D01*
X135382618Y-87401580D01*
X135255000Y-87414149D01*
X135127383Y-87401580D01*
X135036597Y-87374040D01*
X135004665Y-87364354D01*
X134891576Y-87303906D01*
X134792447Y-87222554D01*
X134711095Y-87123425D01*
X134650647Y-87010336D01*
X134630256Y-86943116D01*
X134613420Y-86887618D01*
X134604000Y-86791973D01*
X134604000Y-85928028D01*
X134613420Y-85832383D01*
X134650645Y-85709669D01*
X134650646Y-85709665D01*
X134711094Y-85596576D01*
X134792447Y-85497446D01*
X134891575Y-85416094D01*
X135004664Y-85355646D01*
X135036596Y-85345960D01*
X135127382Y-85318420D01*
X135255000Y-85305851D01*
X135382617Y-85318420D01*
X135382617Y-85318420D01*
G37*
G36*
X132842617Y-85318420D02*
G01*
X132933403Y-85345960D01*
X132965335Y-85355646D01*
X133078424Y-85416094D01*
X133177554Y-85497447D01*
X133258906Y-85596575D01*
X133319354Y-85709664D01*
X133329040Y-85741596D01*
X133356580Y-85832382D01*
X133366000Y-85928027D01*
X133366000Y-86791973D01*
X133356580Y-86887618D01*
X133339745Y-86943116D01*
X133319354Y-87010336D01*
X133258906Y-87123425D01*
X133177554Y-87222554D01*
X133078425Y-87303906D01*
X132965336Y-87364354D01*
X132933404Y-87374040D01*
X132842618Y-87401580D01*
X132715000Y-87414149D01*
X132587383Y-87401580D01*
X132496597Y-87374040D01*
X132464665Y-87364354D01*
X132351576Y-87303906D01*
X132252447Y-87222554D01*
X132171095Y-87123425D01*
X132110647Y-87010336D01*
X132090256Y-86943116D01*
X132073420Y-86887618D01*
X132064000Y-86791973D01*
X132064000Y-85928028D01*
X132073420Y-85832383D01*
X132110645Y-85709669D01*
X132110646Y-85709665D01*
X132171094Y-85596576D01*
X132252447Y-85497446D01*
X132351575Y-85416094D01*
X132464664Y-85355646D01*
X132496596Y-85345960D01*
X132587382Y-85318420D01*
X132715000Y-85305851D01*
X132842617Y-85318420D01*
X132842617Y-85318420D01*
G37*
G36*
X127762617Y-85318420D02*
G01*
X127853403Y-85345960D01*
X127885335Y-85355646D01*
X127998424Y-85416094D01*
X128097554Y-85497447D01*
X128178906Y-85596575D01*
X128239354Y-85709664D01*
X128249040Y-85741596D01*
X128276580Y-85832382D01*
X128286000Y-85928027D01*
X128286000Y-86791973D01*
X128276580Y-86887618D01*
X128259745Y-86943116D01*
X128239354Y-87010336D01*
X128178906Y-87123425D01*
X128097554Y-87222554D01*
X127998425Y-87303906D01*
X127885336Y-87364354D01*
X127853404Y-87374040D01*
X127762618Y-87401580D01*
X127635000Y-87414149D01*
X127507383Y-87401580D01*
X127416597Y-87374040D01*
X127384665Y-87364354D01*
X127271576Y-87303906D01*
X127172447Y-87222554D01*
X127091095Y-87123425D01*
X127030647Y-87010336D01*
X127010256Y-86943116D01*
X126993420Y-86887618D01*
X126984000Y-86791973D01*
X126984000Y-85928028D01*
X126993420Y-85832383D01*
X127030645Y-85709669D01*
X127030646Y-85709665D01*
X127091094Y-85596576D01*
X127172447Y-85497446D01*
X127271575Y-85416094D01*
X127384664Y-85355646D01*
X127416596Y-85345960D01*
X127507382Y-85318420D01*
X127635000Y-85305851D01*
X127762617Y-85318420D01*
X127762617Y-85318420D01*
G37*
G36*
X155838254Y-83377818D02*
G01*
X156211511Y-83532426D01*
X156211513Y-83532427D01*
X156547436Y-83756884D01*
X156833116Y-84042564D01*
X157057574Y-84378489D01*
X157212182Y-84751746D01*
X157291000Y-85147993D01*
X157291000Y-85552007D01*
X157212182Y-85948254D01*
X157057574Y-86321511D01*
X157057573Y-86321513D01*
X156833116Y-86657436D01*
X156547436Y-86943116D01*
X156211513Y-87167573D01*
X156211512Y-87167574D01*
X156211511Y-87167574D01*
X155838254Y-87322182D01*
X155442007Y-87401000D01*
X155037993Y-87401000D01*
X154641746Y-87322182D01*
X154268489Y-87167574D01*
X154268488Y-87167574D01*
X154268487Y-87167573D01*
X153932564Y-86943116D01*
X153646884Y-86657436D01*
X153422427Y-86321513D01*
X153422426Y-86321511D01*
X153267818Y-85948254D01*
X153189000Y-85552007D01*
X153189000Y-85147993D01*
X153267818Y-84751746D01*
X153422426Y-84378489D01*
X153646884Y-84042564D01*
X153932564Y-83756884D01*
X154268487Y-83532427D01*
X154268489Y-83532426D01*
X154641746Y-83377818D01*
X155037993Y-83299000D01*
X155442007Y-83299000D01*
X155838254Y-83377818D01*
X155838254Y-83377818D01*
G37*
G36*
X147838254Y-83377818D02*
G01*
X148211511Y-83532426D01*
X148211513Y-83532427D01*
X148547436Y-83756884D01*
X148833116Y-84042564D01*
X149057574Y-84378489D01*
X149212182Y-84751746D01*
X149291000Y-85147993D01*
X149291000Y-85552007D01*
X149212182Y-85948254D01*
X149057574Y-86321511D01*
X149057573Y-86321513D01*
X148833116Y-86657436D01*
X148547436Y-86943116D01*
X148211513Y-87167573D01*
X148211512Y-87167574D01*
X148211511Y-87167574D01*
X147838254Y-87322182D01*
X147442007Y-87401000D01*
X147037993Y-87401000D01*
X146641746Y-87322182D01*
X146268489Y-87167574D01*
X146268488Y-87167574D01*
X146268487Y-87167573D01*
X145932564Y-86943116D01*
X145646884Y-86657436D01*
X145422427Y-86321513D01*
X145422426Y-86321511D01*
X145267818Y-85948254D01*
X145189000Y-85552007D01*
X145189000Y-85147993D01*
X145267818Y-84751746D01*
X145422426Y-84378489D01*
X145646884Y-84042564D01*
X145932564Y-83756884D01*
X146268487Y-83532427D01*
X146268489Y-83532426D01*
X146641746Y-83377818D01*
X147037993Y-83299000D01*
X147442007Y-83299000D01*
X147838254Y-83377818D01*
X147838254Y-83377818D01*
G37*
G36*
X144648228Y-77571703D02*
G01*
X144803100Y-77635853D01*
X144942481Y-77728985D01*
X145061015Y-77847519D01*
X145154147Y-77986900D01*
X145218297Y-78141772D01*
X145251000Y-78306184D01*
X145251000Y-78473816D01*
X145218297Y-78638228D01*
X145154147Y-78793100D01*
X145061015Y-78932481D01*
X144942481Y-79051015D01*
X144803100Y-79144147D01*
X144648228Y-79208297D01*
X144483816Y-79241000D01*
X144316184Y-79241000D01*
X144151772Y-79208297D01*
X143996900Y-79144147D01*
X143857519Y-79051015D01*
X143738985Y-78932481D01*
X143645853Y-78793100D01*
X143581703Y-78638228D01*
X143549000Y-78473816D01*
X143549000Y-78306184D01*
X143581703Y-78141772D01*
X143645853Y-77986900D01*
X143738985Y-77847519D01*
X143857519Y-77728985D01*
X143996900Y-77635853D01*
X144151772Y-77571703D01*
X144316184Y-77539000D01*
X144483816Y-77539000D01*
X144648228Y-77571703D01*
X144648228Y-77571703D01*
G37*
G36*
X152648228Y-77571703D02*
G01*
X152803100Y-77635853D01*
X152942481Y-77728985D01*
X153061015Y-77847519D01*
X153154147Y-77986900D01*
X153218297Y-78141772D01*
X153251000Y-78306184D01*
X153251000Y-78473816D01*
X153218297Y-78638228D01*
X153154147Y-78793100D01*
X153061015Y-78932481D01*
X152942481Y-79051015D01*
X152803100Y-79144147D01*
X152648228Y-79208297D01*
X152483816Y-79241000D01*
X152316184Y-79241000D01*
X152151772Y-79208297D01*
X151996900Y-79144147D01*
X151857519Y-79051015D01*
X151738985Y-78932481D01*
X151645853Y-78793100D01*
X151581703Y-78638228D01*
X151549000Y-78473816D01*
X151549000Y-78306184D01*
X151581703Y-78141772D01*
X151645853Y-77986900D01*
X151738985Y-77847519D01*
X151857519Y-77728985D01*
X151996900Y-77635853D01*
X152151772Y-77571703D01*
X152316184Y-77539000D01*
X152483816Y-77539000D01*
X152648228Y-77571703D01*
X152648228Y-77571703D01*
G37*
G36*
X147488228Y-76186703D02*
G01*
X147643100Y-76250853D01*
X147782481Y-76343985D01*
X147901015Y-76462519D01*
X147994147Y-76601900D01*
X148058297Y-76756772D01*
X148091000Y-76921184D01*
X148091000Y-77088816D01*
X148058297Y-77253228D01*
X147994147Y-77408100D01*
X147901015Y-77547481D01*
X147782481Y-77666015D01*
X147643100Y-77759147D01*
X147488228Y-77823297D01*
X147323816Y-77856000D01*
X147156184Y-77856000D01*
X146991772Y-77823297D01*
X146836900Y-77759147D01*
X146697519Y-77666015D01*
X146578985Y-77547481D01*
X146485853Y-77408100D01*
X146421703Y-77253228D01*
X146389000Y-77088816D01*
X146389000Y-76921184D01*
X146421703Y-76756772D01*
X146485853Y-76601900D01*
X146578985Y-76462519D01*
X146697519Y-76343985D01*
X146836900Y-76250853D01*
X146991772Y-76186703D01*
X147156184Y-76154000D01*
X147323816Y-76154000D01*
X147488228Y-76186703D01*
X147488228Y-76186703D01*
G37*
G36*
X155488228Y-76186703D02*
G01*
X155643100Y-76250853D01*
X155782481Y-76343985D01*
X155901015Y-76462519D01*
X155994147Y-76601900D01*
X156058297Y-76756772D01*
X156091000Y-76921184D01*
X156091000Y-77088816D01*
X156058297Y-77253228D01*
X155994147Y-77408100D01*
X155901015Y-77547481D01*
X155782481Y-77666015D01*
X155643100Y-77759147D01*
X155488228Y-77823297D01*
X155323816Y-77856000D01*
X155156184Y-77856000D01*
X154991772Y-77823297D01*
X154836900Y-77759147D01*
X154697519Y-77666015D01*
X154578985Y-77547481D01*
X154485853Y-77408100D01*
X154421703Y-77253228D01*
X154389000Y-77088816D01*
X154389000Y-76921184D01*
X154421703Y-76756772D01*
X154485853Y-76601900D01*
X154578985Y-76462519D01*
X154697519Y-76343985D01*
X154836900Y-76250853D01*
X154991772Y-76186703D01*
X155156184Y-76154000D01*
X155323816Y-76154000D01*
X155488228Y-76186703D01*
X155488228Y-76186703D01*
G37*
G36*
X152648228Y-74801703D02*
G01*
X152803100Y-74865853D01*
X152942481Y-74958985D01*
X153061015Y-75077519D01*
X153154147Y-75216900D01*
X153218297Y-75371772D01*
X153251000Y-75536184D01*
X153251000Y-75703816D01*
X153218297Y-75868228D01*
X153154147Y-76023100D01*
X153061015Y-76162481D01*
X152942481Y-76281015D01*
X152803100Y-76374147D01*
X152648228Y-76438297D01*
X152483816Y-76471000D01*
X152316184Y-76471000D01*
X152151772Y-76438297D01*
X151996900Y-76374147D01*
X151857519Y-76281015D01*
X151738985Y-76162481D01*
X151645853Y-76023100D01*
X151581703Y-75868228D01*
X151549000Y-75703816D01*
X151549000Y-75536184D01*
X151581703Y-75371772D01*
X151645853Y-75216900D01*
X151738985Y-75077519D01*
X151857519Y-74958985D01*
X151996900Y-74865853D01*
X152151772Y-74801703D01*
X152316184Y-74769000D01*
X152483816Y-74769000D01*
X152648228Y-74801703D01*
X152648228Y-74801703D01*
G37*
G36*
X144648228Y-74801703D02*
G01*
X144803100Y-74865853D01*
X144942481Y-74958985D01*
X145061015Y-75077519D01*
X145154147Y-75216900D01*
X145218297Y-75371772D01*
X145251000Y-75536184D01*
X145251000Y-75703816D01*
X145218297Y-75868228D01*
X145154147Y-76023100D01*
X145061015Y-76162481D01*
X144942481Y-76281015D01*
X144803100Y-76374147D01*
X144648228Y-76438297D01*
X144483816Y-76471000D01*
X144316184Y-76471000D01*
X144151772Y-76438297D01*
X143996900Y-76374147D01*
X143857519Y-76281015D01*
X143738985Y-76162481D01*
X143645853Y-76023100D01*
X143581703Y-75868228D01*
X143549000Y-75703816D01*
X143549000Y-75536184D01*
X143581703Y-75371772D01*
X143645853Y-75216900D01*
X143738985Y-75077519D01*
X143857519Y-74958985D01*
X143996900Y-74865853D01*
X144151772Y-74801703D01*
X144316184Y-74769000D01*
X144483816Y-74769000D01*
X144648228Y-74801703D01*
X144648228Y-74801703D01*
G37*
G36*
X147488228Y-73416703D02*
G01*
X147643100Y-73480853D01*
X147782481Y-73573985D01*
X147901015Y-73692519D01*
X147994147Y-73831900D01*
X148058297Y-73986772D01*
X148091000Y-74151184D01*
X148091000Y-74318816D01*
X148058297Y-74483228D01*
X147994147Y-74638100D01*
X147901015Y-74777481D01*
X147782481Y-74896015D01*
X147643100Y-74989147D01*
X147488228Y-75053297D01*
X147323816Y-75086000D01*
X147156184Y-75086000D01*
X146991772Y-75053297D01*
X146836900Y-74989147D01*
X146697519Y-74896015D01*
X146578985Y-74777481D01*
X146485853Y-74638100D01*
X146421703Y-74483228D01*
X146389000Y-74318816D01*
X146389000Y-74151184D01*
X146421703Y-73986772D01*
X146485853Y-73831900D01*
X146578985Y-73692519D01*
X146697519Y-73573985D01*
X146836900Y-73480853D01*
X146991772Y-73416703D01*
X147156184Y-73384000D01*
X147323816Y-73384000D01*
X147488228Y-73416703D01*
X147488228Y-73416703D01*
G37*
G36*
X155488228Y-73416703D02*
G01*
X155643100Y-73480853D01*
X155782481Y-73573985D01*
X155901015Y-73692519D01*
X155994147Y-73831900D01*
X156058297Y-73986772D01*
X156091000Y-74151184D01*
X156091000Y-74318816D01*
X156058297Y-74483228D01*
X155994147Y-74638100D01*
X155901015Y-74777481D01*
X155782481Y-74896015D01*
X155643100Y-74989147D01*
X155488228Y-75053297D01*
X155323816Y-75086000D01*
X155156184Y-75086000D01*
X154991772Y-75053297D01*
X154836900Y-74989147D01*
X154697519Y-74896015D01*
X154578985Y-74777481D01*
X154485853Y-74638100D01*
X154421703Y-74483228D01*
X154389000Y-74318816D01*
X154389000Y-74151184D01*
X154421703Y-73986772D01*
X154485853Y-73831900D01*
X154578985Y-73692519D01*
X154697519Y-73573985D01*
X154836900Y-73480853D01*
X154991772Y-73416703D01*
X155156184Y-73384000D01*
X155323816Y-73384000D01*
X155488228Y-73416703D01*
X155488228Y-73416703D01*
G37*
G36*
X152648228Y-72031703D02*
G01*
X152803100Y-72095853D01*
X152942481Y-72188985D01*
X153061015Y-72307519D01*
X153154147Y-72446900D01*
X153218297Y-72601772D01*
X153251000Y-72766184D01*
X153251000Y-72933816D01*
X153218297Y-73098228D01*
X153154147Y-73253100D01*
X153061015Y-73392481D01*
X152942481Y-73511015D01*
X152803100Y-73604147D01*
X152648228Y-73668297D01*
X152483816Y-73701000D01*
X152316184Y-73701000D01*
X152151772Y-73668297D01*
X151996900Y-73604147D01*
X151857519Y-73511015D01*
X151738985Y-73392481D01*
X151645853Y-73253100D01*
X151581703Y-73098228D01*
X151549000Y-72933816D01*
X151549000Y-72766184D01*
X151581703Y-72601772D01*
X151645853Y-72446900D01*
X151738985Y-72307519D01*
X151857519Y-72188985D01*
X151996900Y-72095853D01*
X152151772Y-72031703D01*
X152316184Y-71999000D01*
X152483816Y-71999000D01*
X152648228Y-72031703D01*
X152648228Y-72031703D01*
G37*
G36*
X144648228Y-72031703D02*
G01*
X144803100Y-72095853D01*
X144942481Y-72188985D01*
X145061015Y-72307519D01*
X145154147Y-72446900D01*
X145218297Y-72601772D01*
X145251000Y-72766184D01*
X145251000Y-72933816D01*
X145218297Y-73098228D01*
X145154147Y-73253100D01*
X145061015Y-73392481D01*
X144942481Y-73511015D01*
X144803100Y-73604147D01*
X144648228Y-73668297D01*
X144483816Y-73701000D01*
X144316184Y-73701000D01*
X144151772Y-73668297D01*
X143996900Y-73604147D01*
X143857519Y-73511015D01*
X143738985Y-73392481D01*
X143645853Y-73253100D01*
X143581703Y-73098228D01*
X143549000Y-72933816D01*
X143549000Y-72766184D01*
X143581703Y-72601772D01*
X143645853Y-72446900D01*
X143738985Y-72307519D01*
X143857519Y-72188985D01*
X143996900Y-72095853D01*
X144151772Y-72031703D01*
X144316184Y-71999000D01*
X144483816Y-71999000D01*
X144648228Y-72031703D01*
X144648228Y-72031703D01*
G37*
G36*
X147488228Y-70646703D02*
G01*
X147643100Y-70710853D01*
X147782481Y-70803985D01*
X147901015Y-70922519D01*
X147994147Y-71061900D01*
X148058297Y-71216772D01*
X148091000Y-71381184D01*
X148091000Y-71548816D01*
X148058297Y-71713228D01*
X147994147Y-71868100D01*
X147901015Y-72007481D01*
X147782481Y-72126015D01*
X147643100Y-72219147D01*
X147488228Y-72283297D01*
X147323816Y-72316000D01*
X147156184Y-72316000D01*
X146991772Y-72283297D01*
X146836900Y-72219147D01*
X146697519Y-72126015D01*
X146578985Y-72007481D01*
X146485853Y-71868100D01*
X146421703Y-71713228D01*
X146389000Y-71548816D01*
X146389000Y-71381184D01*
X146421703Y-71216772D01*
X146485853Y-71061900D01*
X146578985Y-70922519D01*
X146697519Y-70803985D01*
X146836900Y-70710853D01*
X146991772Y-70646703D01*
X147156184Y-70614000D01*
X147323816Y-70614000D01*
X147488228Y-70646703D01*
X147488228Y-70646703D01*
G37*
G36*
X155488228Y-70646703D02*
G01*
X155643100Y-70710853D01*
X155782481Y-70803985D01*
X155901015Y-70922519D01*
X155994147Y-71061900D01*
X156058297Y-71216772D01*
X156091000Y-71381184D01*
X156091000Y-71548816D01*
X156058297Y-71713228D01*
X155994147Y-71868100D01*
X155901015Y-72007481D01*
X155782481Y-72126015D01*
X155643100Y-72219147D01*
X155488228Y-72283297D01*
X155323816Y-72316000D01*
X155156184Y-72316000D01*
X154991772Y-72283297D01*
X154836900Y-72219147D01*
X154697519Y-72126015D01*
X154578985Y-72007481D01*
X154485853Y-71868100D01*
X154421703Y-71713228D01*
X154389000Y-71548816D01*
X154389000Y-71381184D01*
X154421703Y-71216772D01*
X154485853Y-71061900D01*
X154578985Y-70922519D01*
X154697519Y-70803985D01*
X154836900Y-70710853D01*
X154991772Y-70646703D01*
X155156184Y-70614000D01*
X155323816Y-70614000D01*
X155488228Y-70646703D01*
X155488228Y-70646703D01*
G37*
G36*
X144648228Y-69261703D02*
G01*
X144803100Y-69325853D01*
X144942481Y-69418985D01*
X145061015Y-69537519D01*
X145154147Y-69676900D01*
X145218297Y-69831772D01*
X145251000Y-69996184D01*
X145251000Y-70163816D01*
X145218297Y-70328228D01*
X145154147Y-70483100D01*
X145061015Y-70622481D01*
X144942481Y-70741015D01*
X144803100Y-70834147D01*
X144648228Y-70898297D01*
X144483816Y-70931000D01*
X144316184Y-70931000D01*
X144151772Y-70898297D01*
X143996900Y-70834147D01*
X143857519Y-70741015D01*
X143738985Y-70622481D01*
X143645853Y-70483100D01*
X143581703Y-70328228D01*
X143549000Y-70163816D01*
X143549000Y-69996184D01*
X143581703Y-69831772D01*
X143645853Y-69676900D01*
X143738985Y-69537519D01*
X143857519Y-69418985D01*
X143996900Y-69325853D01*
X144151772Y-69261703D01*
X144316184Y-69229000D01*
X144483816Y-69229000D01*
X144648228Y-69261703D01*
X144648228Y-69261703D01*
G37*
G36*
X152648228Y-69261703D02*
G01*
X152803100Y-69325853D01*
X152942481Y-69418985D01*
X153061015Y-69537519D01*
X153154147Y-69676900D01*
X153218297Y-69831772D01*
X153251000Y-69996184D01*
X153251000Y-70163816D01*
X153218297Y-70328228D01*
X153154147Y-70483100D01*
X153061015Y-70622481D01*
X152942481Y-70741015D01*
X152803100Y-70834147D01*
X152648228Y-70898297D01*
X152483816Y-70931000D01*
X152316184Y-70931000D01*
X152151772Y-70898297D01*
X151996900Y-70834147D01*
X151857519Y-70741015D01*
X151738985Y-70622481D01*
X151645853Y-70483100D01*
X151581703Y-70328228D01*
X151549000Y-70163816D01*
X151549000Y-69996184D01*
X151581703Y-69831772D01*
X151645853Y-69676900D01*
X151738985Y-69537519D01*
X151857519Y-69418985D01*
X151996900Y-69325853D01*
X152151772Y-69261703D01*
X152316184Y-69229000D01*
X152483816Y-69229000D01*
X152648228Y-69261703D01*
X152648228Y-69261703D01*
G37*
G36*
X155488228Y-67876703D02*
G01*
X155643100Y-67940853D01*
X155782481Y-68033985D01*
X155901015Y-68152519D01*
X155994147Y-68291900D01*
X156058297Y-68446772D01*
X156091000Y-68611184D01*
X156091000Y-68778816D01*
X156058297Y-68943228D01*
X155994147Y-69098100D01*
X155901015Y-69237481D01*
X155782481Y-69356015D01*
X155643100Y-69449147D01*
X155488228Y-69513297D01*
X155323816Y-69546000D01*
X155156184Y-69546000D01*
X154991772Y-69513297D01*
X154836900Y-69449147D01*
X154697519Y-69356015D01*
X154578985Y-69237481D01*
X154485853Y-69098100D01*
X154421703Y-68943228D01*
X154389000Y-68778816D01*
X154389000Y-68611184D01*
X154421703Y-68446772D01*
X154485853Y-68291900D01*
X154578985Y-68152519D01*
X154697519Y-68033985D01*
X154836900Y-67940853D01*
X154991772Y-67876703D01*
X155156184Y-67844000D01*
X155323816Y-67844000D01*
X155488228Y-67876703D01*
X155488228Y-67876703D01*
G37*
G36*
X147488228Y-67876703D02*
G01*
X147643100Y-67940853D01*
X147782481Y-68033985D01*
X147901015Y-68152519D01*
X147994147Y-68291900D01*
X148058297Y-68446772D01*
X148091000Y-68611184D01*
X148091000Y-68778816D01*
X148058297Y-68943228D01*
X147994147Y-69098100D01*
X147901015Y-69237481D01*
X147782481Y-69356015D01*
X147643100Y-69449147D01*
X147488228Y-69513297D01*
X147323816Y-69546000D01*
X147156184Y-69546000D01*
X146991772Y-69513297D01*
X146836900Y-69449147D01*
X146697519Y-69356015D01*
X146578985Y-69237481D01*
X146485853Y-69098100D01*
X146421703Y-68943228D01*
X146389000Y-68778816D01*
X146389000Y-68611184D01*
X146421703Y-68446772D01*
X146485853Y-68291900D01*
X146578985Y-68152519D01*
X146697519Y-68033985D01*
X146836900Y-67940853D01*
X146991772Y-67876703D01*
X147156184Y-67844000D01*
X147323816Y-67844000D01*
X147488228Y-67876703D01*
X147488228Y-67876703D01*
G37*
G36*
X145251000Y-68161000D02*
G01*
X143549000Y-68161000D01*
X143549000Y-66459000D01*
X145251000Y-66459000D01*
X145251000Y-68161000D01*
X145251000Y-68161000D01*
G37*
G36*
X153251000Y-68161000D02*
G01*
X151549000Y-68161000D01*
X151549000Y-66459000D01*
X153251000Y-66459000D01*
X153251000Y-68161000D01*
X153251000Y-68161000D01*
G37*
G36*
X147838254Y-58377818D02*
G01*
X148211511Y-58532426D01*
X148211513Y-58532427D01*
X148547436Y-58756884D01*
X148833116Y-59042564D01*
X149057574Y-59378489D01*
X149212182Y-59751746D01*
X149291000Y-60147993D01*
X149291000Y-60552007D01*
X149212182Y-60948254D01*
X149057574Y-61321511D01*
X149057573Y-61321513D01*
X148833116Y-61657436D01*
X148547436Y-61943116D01*
X148211513Y-62167573D01*
X148211512Y-62167574D01*
X148211511Y-62167574D01*
X147838254Y-62322182D01*
X147442007Y-62401000D01*
X147037993Y-62401000D01*
X146641746Y-62322182D01*
X146268489Y-62167574D01*
X146268488Y-62167574D01*
X146268487Y-62167573D01*
X145932564Y-61943116D01*
X145646884Y-61657436D01*
X145422427Y-61321513D01*
X145422426Y-61321511D01*
X145267818Y-60948254D01*
X145189000Y-60552007D01*
X145189000Y-60147993D01*
X145267818Y-59751746D01*
X145422426Y-59378489D01*
X145646884Y-59042564D01*
X145932564Y-58756884D01*
X146268487Y-58532427D01*
X146268489Y-58532426D01*
X146641746Y-58377818D01*
X147037993Y-58299000D01*
X147442007Y-58299000D01*
X147838254Y-58377818D01*
X147838254Y-58377818D01*
G37*
G36*
X155838254Y-58377818D02*
G01*
X156211511Y-58532426D01*
X156211513Y-58532427D01*
X156547436Y-58756884D01*
X156833116Y-59042564D01*
X157057574Y-59378489D01*
X157212182Y-59751746D01*
X157291000Y-60147993D01*
X157291000Y-60552007D01*
X157212182Y-60948254D01*
X157057574Y-61321511D01*
X157057573Y-61321513D01*
X156833116Y-61657436D01*
X156547436Y-61943116D01*
X156211513Y-62167573D01*
X156211512Y-62167574D01*
X156211511Y-62167574D01*
X155838254Y-62322182D01*
X155442007Y-62401000D01*
X155037993Y-62401000D01*
X154641746Y-62322182D01*
X154268489Y-62167574D01*
X154268488Y-62167574D01*
X154268487Y-62167573D01*
X153932564Y-61943116D01*
X153646884Y-61657436D01*
X153422427Y-61321513D01*
X153422426Y-61321511D01*
X153267818Y-60948254D01*
X153189000Y-60552007D01*
X153189000Y-60147993D01*
X153267818Y-59751746D01*
X153422426Y-59378489D01*
X153646884Y-59042564D01*
X153932564Y-58756884D01*
X154268487Y-58532427D01*
X154268489Y-58532426D01*
X154641746Y-58377818D01*
X155037993Y-58299000D01*
X155442007Y-58299000D01*
X155838254Y-58377818D01*
X155838254Y-58377818D01*
G37*
G36*
X112522617Y-54838420D02*
G01*
X112613403Y-54865960D01*
X112645335Y-54875646D01*
X112758424Y-54936094D01*
X112857554Y-55017447D01*
X112938906Y-55116575D01*
X112999354Y-55229664D01*
X113009040Y-55261596D01*
X113036580Y-55352382D01*
X113046000Y-55448027D01*
X113046000Y-56311973D01*
X113036580Y-56407618D01*
X113009040Y-56498404D01*
X112999354Y-56530336D01*
X112938906Y-56643425D01*
X112857554Y-56742554D01*
X112758425Y-56823906D01*
X112645336Y-56884354D01*
X112613404Y-56894040D01*
X112522618Y-56921580D01*
X112395000Y-56934149D01*
X112267383Y-56921580D01*
X112176597Y-56894040D01*
X112144665Y-56884354D01*
X112031576Y-56823906D01*
X111932447Y-56742554D01*
X111851095Y-56643425D01*
X111790647Y-56530336D01*
X111786282Y-56515946D01*
X111753420Y-56407618D01*
X111744000Y-56311973D01*
X111744000Y-55448028D01*
X111753420Y-55352383D01*
X111790645Y-55229669D01*
X111790646Y-55229665D01*
X111851094Y-55116576D01*
X111932447Y-55017446D01*
X112031575Y-54936094D01*
X112144664Y-54875646D01*
X112176596Y-54865960D01*
X112267382Y-54838420D01*
X112395000Y-54825851D01*
X112522617Y-54838420D01*
X112522617Y-54838420D01*
G37*
G36*
X79502617Y-54838420D02*
G01*
X79593403Y-54865960D01*
X79625335Y-54875646D01*
X79738424Y-54936094D01*
X79837554Y-55017447D01*
X79918906Y-55116575D01*
X79979354Y-55229664D01*
X79989040Y-55261596D01*
X80016580Y-55352382D01*
X80026000Y-55448027D01*
X80026000Y-56311973D01*
X80016580Y-56407618D01*
X79989040Y-56498404D01*
X79979354Y-56530336D01*
X79918906Y-56643425D01*
X79837554Y-56742554D01*
X79738425Y-56823906D01*
X79625336Y-56884354D01*
X79593404Y-56894040D01*
X79502618Y-56921580D01*
X79375000Y-56934149D01*
X79247383Y-56921580D01*
X79156597Y-56894040D01*
X79124665Y-56884354D01*
X79011576Y-56823906D01*
X78912447Y-56742554D01*
X78831095Y-56643425D01*
X78770647Y-56530336D01*
X78766282Y-56515946D01*
X78733420Y-56407618D01*
X78724000Y-56311973D01*
X78724000Y-55448028D01*
X78733420Y-55352383D01*
X78770645Y-55229669D01*
X78770646Y-55229665D01*
X78831094Y-55116576D01*
X78912447Y-55017446D01*
X79011575Y-54936094D01*
X79124664Y-54875646D01*
X79156596Y-54865960D01*
X79247382Y-54838420D01*
X79375000Y-54825851D01*
X79502617Y-54838420D01*
X79502617Y-54838420D01*
G37*
G36*
X115062617Y-54838420D02*
G01*
X115153403Y-54865960D01*
X115185335Y-54875646D01*
X115298424Y-54936094D01*
X115397554Y-55017447D01*
X115478906Y-55116575D01*
X115539354Y-55229664D01*
X115549040Y-55261596D01*
X115576580Y-55352382D01*
X115586000Y-55448027D01*
X115586000Y-56311973D01*
X115576580Y-56407618D01*
X115549040Y-56498404D01*
X115539354Y-56530336D01*
X115478906Y-56643425D01*
X115397554Y-56742554D01*
X115298425Y-56823906D01*
X115185336Y-56884354D01*
X115153404Y-56894040D01*
X115062618Y-56921580D01*
X114935000Y-56934149D01*
X114807383Y-56921580D01*
X114716597Y-56894040D01*
X114684665Y-56884354D01*
X114571576Y-56823906D01*
X114472447Y-56742554D01*
X114391095Y-56643425D01*
X114330647Y-56530336D01*
X114326282Y-56515946D01*
X114293420Y-56407618D01*
X114284000Y-56311973D01*
X114284000Y-55448028D01*
X114293420Y-55352383D01*
X114330645Y-55229669D01*
X114330646Y-55229665D01*
X114391094Y-55116576D01*
X114472447Y-55017446D01*
X114571575Y-54936094D01*
X114684664Y-54875646D01*
X114716596Y-54865960D01*
X114807382Y-54838420D01*
X114935000Y-54825851D01*
X115062617Y-54838420D01*
X115062617Y-54838420D01*
G37*
G36*
X117602617Y-54838420D02*
G01*
X117693403Y-54865960D01*
X117725335Y-54875646D01*
X117838424Y-54936094D01*
X117937554Y-55017447D01*
X118018906Y-55116575D01*
X118079354Y-55229664D01*
X118089040Y-55261596D01*
X118116580Y-55352382D01*
X118126000Y-55448027D01*
X118126000Y-56311973D01*
X118116580Y-56407618D01*
X118089040Y-56498404D01*
X118079354Y-56530336D01*
X118018906Y-56643425D01*
X117937554Y-56742554D01*
X117838425Y-56823906D01*
X117725336Y-56884354D01*
X117693404Y-56894040D01*
X117602618Y-56921580D01*
X117475000Y-56934149D01*
X117347383Y-56921580D01*
X117256597Y-56894040D01*
X117224665Y-56884354D01*
X117111576Y-56823906D01*
X117012447Y-56742554D01*
X116931095Y-56643425D01*
X116870647Y-56530336D01*
X116866282Y-56515946D01*
X116833420Y-56407618D01*
X116824000Y-56311973D01*
X116824000Y-55448028D01*
X116833420Y-55352383D01*
X116870645Y-55229669D01*
X116870646Y-55229665D01*
X116931094Y-55116576D01*
X117012447Y-55017446D01*
X117111575Y-54936094D01*
X117224664Y-54875646D01*
X117256596Y-54865960D01*
X117347382Y-54838420D01*
X117475000Y-54825851D01*
X117602617Y-54838420D01*
X117602617Y-54838420D01*
G37*
G36*
X120142617Y-54838420D02*
G01*
X120233403Y-54865960D01*
X120265335Y-54875646D01*
X120378424Y-54936094D01*
X120477554Y-55017447D01*
X120558906Y-55116575D01*
X120619354Y-55229664D01*
X120629040Y-55261596D01*
X120656580Y-55352382D01*
X120666000Y-55448027D01*
X120666000Y-56311973D01*
X120656580Y-56407618D01*
X120629040Y-56498404D01*
X120619354Y-56530336D01*
X120558906Y-56643425D01*
X120477554Y-56742554D01*
X120378425Y-56823906D01*
X120265336Y-56884354D01*
X120233404Y-56894040D01*
X120142618Y-56921580D01*
X120015000Y-56934149D01*
X119887383Y-56921580D01*
X119796597Y-56894040D01*
X119764665Y-56884354D01*
X119651576Y-56823906D01*
X119552447Y-56742554D01*
X119471095Y-56643425D01*
X119410647Y-56530336D01*
X119406282Y-56515946D01*
X119373420Y-56407618D01*
X119364000Y-56311973D01*
X119364000Y-55448028D01*
X119373420Y-55352383D01*
X119410645Y-55229669D01*
X119410646Y-55229665D01*
X119471094Y-55116576D01*
X119552447Y-55017446D01*
X119651575Y-54936094D01*
X119764664Y-54875646D01*
X119796596Y-54865960D01*
X119887382Y-54838420D01*
X120015000Y-54825851D01*
X120142617Y-54838420D01*
X120142617Y-54838420D01*
G37*
G36*
X122682617Y-54838420D02*
G01*
X122773403Y-54865960D01*
X122805335Y-54875646D01*
X122918424Y-54936094D01*
X123017554Y-55017447D01*
X123098906Y-55116575D01*
X123159354Y-55229664D01*
X123169040Y-55261596D01*
X123196580Y-55352382D01*
X123206000Y-55448027D01*
X123206000Y-56311973D01*
X123196580Y-56407618D01*
X123169040Y-56498404D01*
X123159354Y-56530336D01*
X123098906Y-56643425D01*
X123017554Y-56742554D01*
X122918425Y-56823906D01*
X122805336Y-56884354D01*
X122773404Y-56894040D01*
X122682618Y-56921580D01*
X122555000Y-56934149D01*
X122427383Y-56921580D01*
X122336597Y-56894040D01*
X122304665Y-56884354D01*
X122191576Y-56823906D01*
X122092447Y-56742554D01*
X122011095Y-56643425D01*
X121950647Y-56530336D01*
X121946282Y-56515946D01*
X121913420Y-56407618D01*
X121904000Y-56311973D01*
X121904000Y-55448028D01*
X121913420Y-55352383D01*
X121950645Y-55229669D01*
X121950646Y-55229665D01*
X122011094Y-55116576D01*
X122092447Y-55017446D01*
X122191575Y-54936094D01*
X122304664Y-54875646D01*
X122336596Y-54865960D01*
X122427382Y-54838420D01*
X122555000Y-54825851D01*
X122682617Y-54838420D01*
X122682617Y-54838420D01*
G37*
G36*
X125222617Y-54838420D02*
G01*
X125313403Y-54865960D01*
X125345335Y-54875646D01*
X125458424Y-54936094D01*
X125557554Y-55017447D01*
X125638906Y-55116575D01*
X125699354Y-55229664D01*
X125709040Y-55261596D01*
X125736580Y-55352382D01*
X125746000Y-55448027D01*
X125746000Y-56311973D01*
X125736580Y-56407618D01*
X125709040Y-56498404D01*
X125699354Y-56530336D01*
X125638906Y-56643425D01*
X125557554Y-56742554D01*
X125458425Y-56823906D01*
X125345336Y-56884354D01*
X125313404Y-56894040D01*
X125222618Y-56921580D01*
X125095000Y-56934149D01*
X124967383Y-56921580D01*
X124876597Y-56894040D01*
X124844665Y-56884354D01*
X124731576Y-56823906D01*
X124632447Y-56742554D01*
X124551095Y-56643425D01*
X124490647Y-56530336D01*
X124486282Y-56515946D01*
X124453420Y-56407618D01*
X124444000Y-56311973D01*
X124444000Y-55448028D01*
X124453420Y-55352383D01*
X124490645Y-55229669D01*
X124490646Y-55229665D01*
X124551094Y-55116576D01*
X124632447Y-55017446D01*
X124731575Y-54936094D01*
X124844664Y-54875646D01*
X124876596Y-54865960D01*
X124967382Y-54838420D01*
X125095000Y-54825851D01*
X125222617Y-54838420D01*
X125222617Y-54838420D01*
G37*
G36*
X127762617Y-54838420D02*
G01*
X127853403Y-54865960D01*
X127885335Y-54875646D01*
X127998424Y-54936094D01*
X128097554Y-55017447D01*
X128178906Y-55116575D01*
X128239354Y-55229664D01*
X128249040Y-55261596D01*
X128276580Y-55352382D01*
X128286000Y-55448027D01*
X128286000Y-56311973D01*
X128276580Y-56407618D01*
X128249040Y-56498404D01*
X128239354Y-56530336D01*
X128178906Y-56643425D01*
X128097554Y-56742554D01*
X127998425Y-56823906D01*
X127885336Y-56884354D01*
X127853404Y-56894040D01*
X127762618Y-56921580D01*
X127635000Y-56934149D01*
X127507383Y-56921580D01*
X127416597Y-56894040D01*
X127384665Y-56884354D01*
X127271576Y-56823906D01*
X127172447Y-56742554D01*
X127091095Y-56643425D01*
X127030647Y-56530336D01*
X127026282Y-56515946D01*
X126993420Y-56407618D01*
X126984000Y-56311973D01*
X126984000Y-55448028D01*
X126993420Y-55352383D01*
X127030645Y-55229669D01*
X127030646Y-55229665D01*
X127091094Y-55116576D01*
X127172447Y-55017446D01*
X127271575Y-54936094D01*
X127384664Y-54875646D01*
X127416596Y-54865960D01*
X127507382Y-54838420D01*
X127635000Y-54825851D01*
X127762617Y-54838420D01*
X127762617Y-54838420D01*
G37*
G36*
X130302617Y-54838420D02*
G01*
X130393403Y-54865960D01*
X130425335Y-54875646D01*
X130538424Y-54936094D01*
X130637554Y-55017447D01*
X130718906Y-55116575D01*
X130779354Y-55229664D01*
X130789040Y-55261596D01*
X130816580Y-55352382D01*
X130826000Y-55448027D01*
X130826000Y-56311973D01*
X130816580Y-56407618D01*
X130789040Y-56498404D01*
X130779354Y-56530336D01*
X130718906Y-56643425D01*
X130637554Y-56742554D01*
X130538425Y-56823906D01*
X130425336Y-56884354D01*
X130393404Y-56894040D01*
X130302618Y-56921580D01*
X130175000Y-56934149D01*
X130047383Y-56921580D01*
X129956597Y-56894040D01*
X129924665Y-56884354D01*
X129811576Y-56823906D01*
X129712447Y-56742554D01*
X129631095Y-56643425D01*
X129570647Y-56530336D01*
X129566282Y-56515946D01*
X129533420Y-56407618D01*
X129524000Y-56311973D01*
X129524000Y-55448028D01*
X129533420Y-55352383D01*
X129570645Y-55229669D01*
X129570646Y-55229665D01*
X129631094Y-55116576D01*
X129712447Y-55017446D01*
X129811575Y-54936094D01*
X129924664Y-54875646D01*
X129956596Y-54865960D01*
X130047382Y-54838420D01*
X130175000Y-54825851D01*
X130302617Y-54838420D01*
X130302617Y-54838420D01*
G37*
G36*
X132842617Y-54838420D02*
G01*
X132933403Y-54865960D01*
X132965335Y-54875646D01*
X133078424Y-54936094D01*
X133177554Y-55017447D01*
X133258906Y-55116575D01*
X133319354Y-55229664D01*
X133329040Y-55261596D01*
X133356580Y-55352382D01*
X133366000Y-55448027D01*
X133366000Y-56311973D01*
X133356580Y-56407618D01*
X133329040Y-56498404D01*
X133319354Y-56530336D01*
X133258906Y-56643425D01*
X133177554Y-56742554D01*
X133078425Y-56823906D01*
X132965336Y-56884354D01*
X132933404Y-56894040D01*
X132842618Y-56921580D01*
X132715000Y-56934149D01*
X132587383Y-56921580D01*
X132496597Y-56894040D01*
X132464665Y-56884354D01*
X132351576Y-56823906D01*
X132252447Y-56742554D01*
X132171095Y-56643425D01*
X132110647Y-56530336D01*
X132106282Y-56515946D01*
X132073420Y-56407618D01*
X132064000Y-56311973D01*
X132064000Y-55448028D01*
X132073420Y-55352383D01*
X132110645Y-55229669D01*
X132110646Y-55229665D01*
X132171094Y-55116576D01*
X132252447Y-55017446D01*
X132351575Y-54936094D01*
X132464664Y-54875646D01*
X132496596Y-54865960D01*
X132587382Y-54838420D01*
X132715000Y-54825851D01*
X132842617Y-54838420D01*
X132842617Y-54838420D01*
G37*
G36*
X135382617Y-54838420D02*
G01*
X135473403Y-54865960D01*
X135505335Y-54875646D01*
X135618424Y-54936094D01*
X135717554Y-55017447D01*
X135798906Y-55116575D01*
X135859354Y-55229664D01*
X135869040Y-55261596D01*
X135896580Y-55352382D01*
X135906000Y-55448027D01*
X135906000Y-56311973D01*
X135896580Y-56407618D01*
X135869040Y-56498404D01*
X135859354Y-56530336D01*
X135798906Y-56643425D01*
X135717554Y-56742554D01*
X135618425Y-56823906D01*
X135505336Y-56884354D01*
X135473404Y-56894040D01*
X135382618Y-56921580D01*
X135255000Y-56934149D01*
X135127383Y-56921580D01*
X135036597Y-56894040D01*
X135004665Y-56884354D01*
X134891576Y-56823906D01*
X134792447Y-56742554D01*
X134711095Y-56643425D01*
X134650647Y-56530336D01*
X134646282Y-56515946D01*
X134613420Y-56407618D01*
X134604000Y-56311973D01*
X134604000Y-55448028D01*
X134613420Y-55352383D01*
X134650645Y-55229669D01*
X134650646Y-55229665D01*
X134711094Y-55116576D01*
X134792447Y-55017446D01*
X134891575Y-54936094D01*
X135004664Y-54875646D01*
X135036596Y-54865960D01*
X135127382Y-54838420D01*
X135255000Y-54825851D01*
X135382617Y-54838420D01*
X135382617Y-54838420D01*
G37*
G36*
X137922617Y-54838420D02*
G01*
X138013403Y-54865960D01*
X138045335Y-54875646D01*
X138158424Y-54936094D01*
X138257554Y-55017447D01*
X138338906Y-55116575D01*
X138399354Y-55229664D01*
X138409040Y-55261596D01*
X138436580Y-55352382D01*
X138446000Y-55448027D01*
X138446000Y-56311973D01*
X138436580Y-56407618D01*
X138409040Y-56498404D01*
X138399354Y-56530336D01*
X138338906Y-56643425D01*
X138257554Y-56742554D01*
X138158425Y-56823906D01*
X138045336Y-56884354D01*
X138013404Y-56894040D01*
X137922618Y-56921580D01*
X137795000Y-56934149D01*
X137667383Y-56921580D01*
X137576597Y-56894040D01*
X137544665Y-56884354D01*
X137431576Y-56823906D01*
X137332447Y-56742554D01*
X137251095Y-56643425D01*
X137190647Y-56530336D01*
X137186282Y-56515946D01*
X137153420Y-56407618D01*
X137144000Y-56311973D01*
X137144000Y-55448028D01*
X137153420Y-55352383D01*
X137190645Y-55229669D01*
X137190646Y-55229665D01*
X137251094Y-55116576D01*
X137332447Y-55017446D01*
X137431575Y-54936094D01*
X137544664Y-54875646D01*
X137576596Y-54865960D01*
X137667382Y-54838420D01*
X137795000Y-54825851D01*
X137922617Y-54838420D01*
X137922617Y-54838420D01*
G37*
G36*
X107442617Y-54838420D02*
G01*
X107533403Y-54865960D01*
X107565335Y-54875646D01*
X107678424Y-54936094D01*
X107777554Y-55017447D01*
X107858906Y-55116575D01*
X107919354Y-55229664D01*
X107929040Y-55261596D01*
X107956580Y-55352382D01*
X107966000Y-55448027D01*
X107966000Y-56311973D01*
X107956580Y-56407618D01*
X107929040Y-56498404D01*
X107919354Y-56530336D01*
X107858906Y-56643425D01*
X107777554Y-56742554D01*
X107678425Y-56823906D01*
X107565336Y-56884354D01*
X107533404Y-56894040D01*
X107442618Y-56921580D01*
X107315000Y-56934149D01*
X107187383Y-56921580D01*
X107096597Y-56894040D01*
X107064665Y-56884354D01*
X106951576Y-56823906D01*
X106852447Y-56742554D01*
X106771095Y-56643425D01*
X106710647Y-56530336D01*
X106706282Y-56515946D01*
X106673420Y-56407618D01*
X106664000Y-56311973D01*
X106664000Y-55448028D01*
X106673420Y-55352383D01*
X106710645Y-55229669D01*
X106710646Y-55229665D01*
X106771094Y-55116576D01*
X106852447Y-55017446D01*
X106951575Y-54936094D01*
X107064664Y-54875646D01*
X107096596Y-54865960D01*
X107187382Y-54838420D01*
X107315000Y-54825851D01*
X107442617Y-54838420D01*
X107442617Y-54838420D01*
G37*
G36*
X76962617Y-54838420D02*
G01*
X77053403Y-54865960D01*
X77085335Y-54875646D01*
X77198424Y-54936094D01*
X77297554Y-55017447D01*
X77378906Y-55116575D01*
X77439354Y-55229664D01*
X77449040Y-55261596D01*
X77476580Y-55352382D01*
X77486000Y-55448027D01*
X77486000Y-56311973D01*
X77476580Y-56407618D01*
X77449040Y-56498404D01*
X77439354Y-56530336D01*
X77378906Y-56643425D01*
X77297554Y-56742554D01*
X77198425Y-56823906D01*
X77085336Y-56884354D01*
X77053404Y-56894040D01*
X76962618Y-56921580D01*
X76835000Y-56934149D01*
X76707383Y-56921580D01*
X76616597Y-56894040D01*
X76584665Y-56884354D01*
X76471576Y-56823906D01*
X76372447Y-56742554D01*
X76291095Y-56643425D01*
X76230647Y-56530336D01*
X76226282Y-56515946D01*
X76193420Y-56407618D01*
X76184000Y-56311973D01*
X76184000Y-55448028D01*
X76193420Y-55352383D01*
X76230645Y-55229669D01*
X76230646Y-55229665D01*
X76291094Y-55116576D01*
X76372447Y-55017446D01*
X76471575Y-54936094D01*
X76584664Y-54875646D01*
X76616596Y-54865960D01*
X76707382Y-54838420D01*
X76835000Y-54825851D01*
X76962617Y-54838420D01*
X76962617Y-54838420D01*
G37*
G36*
X104902617Y-54838420D02*
G01*
X104993403Y-54865960D01*
X105025335Y-54875646D01*
X105138424Y-54936094D01*
X105237554Y-55017447D01*
X105318906Y-55116575D01*
X105379354Y-55229664D01*
X105389040Y-55261596D01*
X105416580Y-55352382D01*
X105426000Y-55448027D01*
X105426000Y-56311973D01*
X105416580Y-56407618D01*
X105389040Y-56498404D01*
X105379354Y-56530336D01*
X105318906Y-56643425D01*
X105237554Y-56742554D01*
X105138425Y-56823906D01*
X105025336Y-56884354D01*
X104993404Y-56894040D01*
X104902618Y-56921580D01*
X104775000Y-56934149D01*
X104647383Y-56921580D01*
X104556597Y-56894040D01*
X104524665Y-56884354D01*
X104411576Y-56823906D01*
X104312447Y-56742554D01*
X104231095Y-56643425D01*
X104170647Y-56530336D01*
X104166282Y-56515946D01*
X104133420Y-56407618D01*
X104124000Y-56311973D01*
X104124000Y-55448028D01*
X104133420Y-55352383D01*
X104170645Y-55229669D01*
X104170646Y-55229665D01*
X104231094Y-55116576D01*
X104312447Y-55017446D01*
X104411575Y-54936094D01*
X104524664Y-54875646D01*
X104556596Y-54865960D01*
X104647382Y-54838420D01*
X104775000Y-54825851D01*
X104902617Y-54838420D01*
X104902617Y-54838420D01*
G37*
G36*
X82042617Y-54838420D02*
G01*
X82133403Y-54865960D01*
X82165335Y-54875646D01*
X82278424Y-54936094D01*
X82377554Y-55017447D01*
X82458906Y-55116575D01*
X82519354Y-55229664D01*
X82529040Y-55261596D01*
X82556580Y-55352382D01*
X82566000Y-55448027D01*
X82566000Y-56311973D01*
X82556580Y-56407618D01*
X82529040Y-56498404D01*
X82519354Y-56530336D01*
X82458906Y-56643425D01*
X82377554Y-56742554D01*
X82278425Y-56823906D01*
X82165336Y-56884354D01*
X82133404Y-56894040D01*
X82042618Y-56921580D01*
X81915000Y-56934149D01*
X81787383Y-56921580D01*
X81696597Y-56894040D01*
X81664665Y-56884354D01*
X81551576Y-56823906D01*
X81452447Y-56742554D01*
X81371095Y-56643425D01*
X81310647Y-56530336D01*
X81306282Y-56515946D01*
X81273420Y-56407618D01*
X81264000Y-56311973D01*
X81264000Y-55448028D01*
X81273420Y-55352383D01*
X81310645Y-55229669D01*
X81310646Y-55229665D01*
X81371094Y-55116576D01*
X81452447Y-55017446D01*
X81551575Y-54936094D01*
X81664664Y-54875646D01*
X81696596Y-54865960D01*
X81787382Y-54838420D01*
X81915000Y-54825851D01*
X82042617Y-54838420D01*
X82042617Y-54838420D01*
G37*
G36*
X84582617Y-54838420D02*
G01*
X84673403Y-54865960D01*
X84705335Y-54875646D01*
X84818424Y-54936094D01*
X84917554Y-55017447D01*
X84998906Y-55116575D01*
X85059354Y-55229664D01*
X85069040Y-55261596D01*
X85096580Y-55352382D01*
X85106000Y-55448027D01*
X85106000Y-56311973D01*
X85096580Y-56407618D01*
X85069040Y-56498404D01*
X85059354Y-56530336D01*
X84998906Y-56643425D01*
X84917554Y-56742554D01*
X84818425Y-56823906D01*
X84705336Y-56884354D01*
X84673404Y-56894040D01*
X84582618Y-56921580D01*
X84455000Y-56934149D01*
X84327383Y-56921580D01*
X84236597Y-56894040D01*
X84204665Y-56884354D01*
X84091576Y-56823906D01*
X83992447Y-56742554D01*
X83911095Y-56643425D01*
X83850647Y-56530336D01*
X83846282Y-56515946D01*
X83813420Y-56407618D01*
X83804000Y-56311973D01*
X83804000Y-55448028D01*
X83813420Y-55352383D01*
X83850645Y-55229669D01*
X83850646Y-55229665D01*
X83911094Y-55116576D01*
X83992447Y-55017446D01*
X84091575Y-54936094D01*
X84204664Y-54875646D01*
X84236596Y-54865960D01*
X84327382Y-54838420D01*
X84455000Y-54825851D01*
X84582617Y-54838420D01*
X84582617Y-54838420D01*
G37*
G36*
X87122617Y-54838420D02*
G01*
X87213403Y-54865960D01*
X87245335Y-54875646D01*
X87358424Y-54936094D01*
X87457554Y-55017447D01*
X87538906Y-55116575D01*
X87599354Y-55229664D01*
X87609040Y-55261596D01*
X87636580Y-55352382D01*
X87646000Y-55448027D01*
X87646000Y-56311973D01*
X87636580Y-56407618D01*
X87609040Y-56498404D01*
X87599354Y-56530336D01*
X87538906Y-56643425D01*
X87457554Y-56742554D01*
X87358425Y-56823906D01*
X87245336Y-56884354D01*
X87213404Y-56894040D01*
X87122618Y-56921580D01*
X86995000Y-56934149D01*
X86867383Y-56921580D01*
X86776597Y-56894040D01*
X86744665Y-56884354D01*
X86631576Y-56823906D01*
X86532447Y-56742554D01*
X86451095Y-56643425D01*
X86390647Y-56530336D01*
X86386282Y-56515946D01*
X86353420Y-56407618D01*
X86344000Y-56311973D01*
X86344000Y-55448028D01*
X86353420Y-55352383D01*
X86390645Y-55229669D01*
X86390646Y-55229665D01*
X86451094Y-55116576D01*
X86532447Y-55017446D01*
X86631575Y-54936094D01*
X86744664Y-54875646D01*
X86776596Y-54865960D01*
X86867382Y-54838420D01*
X86995000Y-54825851D01*
X87122617Y-54838420D01*
X87122617Y-54838420D01*
G37*
G36*
X89662617Y-54838420D02*
G01*
X89753403Y-54865960D01*
X89785335Y-54875646D01*
X89898424Y-54936094D01*
X89997554Y-55017447D01*
X90078906Y-55116575D01*
X90139354Y-55229664D01*
X90149040Y-55261596D01*
X90176580Y-55352382D01*
X90186000Y-55448027D01*
X90186000Y-56311973D01*
X90176580Y-56407618D01*
X90149040Y-56498404D01*
X90139354Y-56530336D01*
X90078906Y-56643425D01*
X89997554Y-56742554D01*
X89898425Y-56823906D01*
X89785336Y-56884354D01*
X89753404Y-56894040D01*
X89662618Y-56921580D01*
X89535000Y-56934149D01*
X89407383Y-56921580D01*
X89316597Y-56894040D01*
X89284665Y-56884354D01*
X89171576Y-56823906D01*
X89072447Y-56742554D01*
X88991095Y-56643425D01*
X88930647Y-56530336D01*
X88926282Y-56515946D01*
X88893420Y-56407618D01*
X88884000Y-56311973D01*
X88884000Y-55448028D01*
X88893420Y-55352383D01*
X88930645Y-55229669D01*
X88930646Y-55229665D01*
X88991094Y-55116576D01*
X89072447Y-55017446D01*
X89171575Y-54936094D01*
X89284664Y-54875646D01*
X89316596Y-54865960D01*
X89407382Y-54838420D01*
X89535000Y-54825851D01*
X89662617Y-54838420D01*
X89662617Y-54838420D01*
G37*
G36*
X92202617Y-54838420D02*
G01*
X92293403Y-54865960D01*
X92325335Y-54875646D01*
X92438424Y-54936094D01*
X92537554Y-55017447D01*
X92618906Y-55116575D01*
X92679354Y-55229664D01*
X92689040Y-55261596D01*
X92716580Y-55352382D01*
X92726000Y-55448027D01*
X92726000Y-56311973D01*
X92716580Y-56407618D01*
X92689040Y-56498404D01*
X92679354Y-56530336D01*
X92618906Y-56643425D01*
X92537554Y-56742554D01*
X92438425Y-56823906D01*
X92325336Y-56884354D01*
X92293404Y-56894040D01*
X92202618Y-56921580D01*
X92075000Y-56934149D01*
X91947383Y-56921580D01*
X91856597Y-56894040D01*
X91824665Y-56884354D01*
X91711576Y-56823906D01*
X91612447Y-56742554D01*
X91531095Y-56643425D01*
X91470647Y-56530336D01*
X91466282Y-56515946D01*
X91433420Y-56407618D01*
X91424000Y-56311973D01*
X91424000Y-55448028D01*
X91433420Y-55352383D01*
X91470645Y-55229669D01*
X91470646Y-55229665D01*
X91531094Y-55116576D01*
X91612447Y-55017446D01*
X91711575Y-54936094D01*
X91824664Y-54875646D01*
X91856596Y-54865960D01*
X91947382Y-54838420D01*
X92075000Y-54825851D01*
X92202617Y-54838420D01*
X92202617Y-54838420D01*
G37*
G36*
X94742617Y-54838420D02*
G01*
X94833403Y-54865960D01*
X94865335Y-54875646D01*
X94978424Y-54936094D01*
X95077554Y-55017447D01*
X95158906Y-55116575D01*
X95219354Y-55229664D01*
X95229040Y-55261596D01*
X95256580Y-55352382D01*
X95266000Y-55448027D01*
X95266000Y-56311973D01*
X95256580Y-56407618D01*
X95229040Y-56498404D01*
X95219354Y-56530336D01*
X95158906Y-56643425D01*
X95077554Y-56742554D01*
X94978425Y-56823906D01*
X94865336Y-56884354D01*
X94833404Y-56894040D01*
X94742618Y-56921580D01*
X94615000Y-56934149D01*
X94487383Y-56921580D01*
X94396597Y-56894040D01*
X94364665Y-56884354D01*
X94251576Y-56823906D01*
X94152447Y-56742554D01*
X94071095Y-56643425D01*
X94010647Y-56530336D01*
X94006282Y-56515946D01*
X93973420Y-56407618D01*
X93964000Y-56311973D01*
X93964000Y-55448028D01*
X93973420Y-55352383D01*
X94010645Y-55229669D01*
X94010646Y-55229665D01*
X94071094Y-55116576D01*
X94152447Y-55017446D01*
X94251575Y-54936094D01*
X94364664Y-54875646D01*
X94396596Y-54865960D01*
X94487382Y-54838420D01*
X94615000Y-54825851D01*
X94742617Y-54838420D01*
X94742617Y-54838420D01*
G37*
G36*
X97282617Y-54838420D02*
G01*
X97373403Y-54865960D01*
X97405335Y-54875646D01*
X97518424Y-54936094D01*
X97617554Y-55017447D01*
X97698906Y-55116575D01*
X97759354Y-55229664D01*
X97769040Y-55261596D01*
X97796580Y-55352382D01*
X97806000Y-55448027D01*
X97806000Y-56311973D01*
X97796580Y-56407618D01*
X97769040Y-56498404D01*
X97759354Y-56530336D01*
X97698906Y-56643425D01*
X97617554Y-56742554D01*
X97518425Y-56823906D01*
X97405336Y-56884354D01*
X97373404Y-56894040D01*
X97282618Y-56921580D01*
X97155000Y-56934149D01*
X97027383Y-56921580D01*
X96936597Y-56894040D01*
X96904665Y-56884354D01*
X96791576Y-56823906D01*
X96692447Y-56742554D01*
X96611095Y-56643425D01*
X96550647Y-56530336D01*
X96546282Y-56515946D01*
X96513420Y-56407618D01*
X96504000Y-56311973D01*
X96504000Y-55448028D01*
X96513420Y-55352383D01*
X96550645Y-55229669D01*
X96550646Y-55229665D01*
X96611094Y-55116576D01*
X96692447Y-55017446D01*
X96791575Y-54936094D01*
X96904664Y-54875646D01*
X96936596Y-54865960D01*
X97027382Y-54838420D01*
X97155000Y-54825851D01*
X97282617Y-54838420D01*
X97282617Y-54838420D01*
G37*
G36*
X99822617Y-54838420D02*
G01*
X99913403Y-54865960D01*
X99945335Y-54875646D01*
X100058424Y-54936094D01*
X100157554Y-55017447D01*
X100238906Y-55116575D01*
X100299354Y-55229664D01*
X100309040Y-55261596D01*
X100336580Y-55352382D01*
X100346000Y-55448027D01*
X100346000Y-56311973D01*
X100336580Y-56407618D01*
X100309040Y-56498404D01*
X100299354Y-56530336D01*
X100238906Y-56643425D01*
X100157554Y-56742554D01*
X100058425Y-56823906D01*
X99945336Y-56884354D01*
X99913404Y-56894040D01*
X99822618Y-56921580D01*
X99695000Y-56934149D01*
X99567383Y-56921580D01*
X99476597Y-56894040D01*
X99444665Y-56884354D01*
X99331576Y-56823906D01*
X99232447Y-56742554D01*
X99151095Y-56643425D01*
X99090647Y-56530336D01*
X99086282Y-56515946D01*
X99053420Y-56407618D01*
X99044000Y-56311973D01*
X99044000Y-55448028D01*
X99053420Y-55352383D01*
X99090645Y-55229669D01*
X99090646Y-55229665D01*
X99151094Y-55116576D01*
X99232447Y-55017446D01*
X99331575Y-54936094D01*
X99444664Y-54875646D01*
X99476596Y-54865960D01*
X99567382Y-54838420D01*
X99695000Y-54825851D01*
X99822617Y-54838420D01*
X99822617Y-54838420D01*
G37*
G36*
X102362617Y-54838420D02*
G01*
X102453403Y-54865960D01*
X102485335Y-54875646D01*
X102598424Y-54936094D01*
X102697554Y-55017447D01*
X102778906Y-55116575D01*
X102839354Y-55229664D01*
X102849040Y-55261596D01*
X102876580Y-55352382D01*
X102886000Y-55448027D01*
X102886000Y-56311973D01*
X102876580Y-56407618D01*
X102849040Y-56498404D01*
X102839354Y-56530336D01*
X102778906Y-56643425D01*
X102697554Y-56742554D01*
X102598425Y-56823906D01*
X102485336Y-56884354D01*
X102453404Y-56894040D01*
X102362618Y-56921580D01*
X102235000Y-56934149D01*
X102107383Y-56921580D01*
X102016597Y-56894040D01*
X101984665Y-56884354D01*
X101871576Y-56823906D01*
X101772447Y-56742554D01*
X101691095Y-56643425D01*
X101630647Y-56530336D01*
X101626282Y-56515946D01*
X101593420Y-56407618D01*
X101584000Y-56311973D01*
X101584000Y-55448028D01*
X101593420Y-55352383D01*
X101630645Y-55229669D01*
X101630646Y-55229665D01*
X101691094Y-55116576D01*
X101772447Y-55017446D01*
X101871575Y-54936094D01*
X101984664Y-54875646D01*
X102016596Y-54865960D01*
X102107382Y-54838420D01*
X102235000Y-54825851D01*
X102362617Y-54838420D01*
X102362617Y-54838420D01*
G37*
G36*
X109982617Y-54838420D02*
G01*
X110073403Y-54865960D01*
X110105335Y-54875646D01*
X110218424Y-54936094D01*
X110317554Y-55017447D01*
X110398906Y-55116575D01*
X110459354Y-55229664D01*
X110469040Y-55261596D01*
X110496580Y-55352382D01*
X110506000Y-55448027D01*
X110506000Y-56311973D01*
X110496580Y-56407618D01*
X110469040Y-56498404D01*
X110459354Y-56530336D01*
X110398906Y-56643425D01*
X110317554Y-56742554D01*
X110218425Y-56823906D01*
X110105336Y-56884354D01*
X110073404Y-56894040D01*
X109982618Y-56921580D01*
X109855000Y-56934149D01*
X109727383Y-56921580D01*
X109636597Y-56894040D01*
X109604665Y-56884354D01*
X109491576Y-56823906D01*
X109392447Y-56742554D01*
X109311095Y-56643425D01*
X109250647Y-56530336D01*
X109246282Y-56515946D01*
X109213420Y-56407618D01*
X109204000Y-56311973D01*
X109204000Y-55448028D01*
X109213420Y-55352383D01*
X109250645Y-55229669D01*
X109250646Y-55229665D01*
X109311094Y-55116576D01*
X109392447Y-55017446D01*
X109491575Y-54936094D01*
X109604664Y-54875646D01*
X109636596Y-54865960D01*
X109727382Y-54838420D01*
X109855000Y-54825851D01*
X109982617Y-54838420D01*
X109982617Y-54838420D01*
G37*
G36*
X156687932Y-50494466D02*
G01*
X156986119Y-50617979D01*
X156986121Y-50617980D01*
X157254483Y-50797294D01*
X157482706Y-51025517D01*
X157662020Y-51293879D01*
X157662021Y-51293881D01*
X157785534Y-51592068D01*
X157848500Y-51908620D01*
X157848500Y-52231380D01*
X157785534Y-52547932D01*
X157662021Y-52846119D01*
X157662020Y-52846121D01*
X157482706Y-53114483D01*
X157254483Y-53342706D01*
X156986121Y-53522020D01*
X156986120Y-53522021D01*
X156986119Y-53522021D01*
X156687932Y-53645534D01*
X156371380Y-53708500D01*
X156048620Y-53708500D01*
X155732068Y-53645534D01*
X155433881Y-53522021D01*
X155433880Y-53522021D01*
X155433879Y-53522020D01*
X155165517Y-53342706D01*
X154937294Y-53114483D01*
X154757980Y-52846121D01*
X154757979Y-52846119D01*
X154634466Y-52547932D01*
X154571500Y-52231380D01*
X154571500Y-51908620D01*
X154634466Y-51592068D01*
X154757979Y-51293881D01*
X154757980Y-51293879D01*
X154937294Y-51025517D01*
X155165517Y-50797294D01*
X155433879Y-50617980D01*
X155433881Y-50617979D01*
X155732068Y-50494466D01*
X156048620Y-50431500D01*
X156371380Y-50431500D01*
X156687932Y-50494466D01*
X156687932Y-50494466D01*
G37*
G36*
X147557142Y-50018242D02*
G01*
X147705101Y-50079529D01*
X147838255Y-50168499D01*
X147951501Y-50281745D01*
X148040471Y-50414899D01*
X148101758Y-50562858D01*
X148133000Y-50719925D01*
X148133000Y-50880075D01*
X148101758Y-51037142D01*
X148040471Y-51185101D01*
X147951501Y-51318255D01*
X147838255Y-51431501D01*
X147705101Y-51520471D01*
X147557142Y-51581758D01*
X147400075Y-51613000D01*
X147239925Y-51613000D01*
X147082858Y-51581758D01*
X146934899Y-51520471D01*
X146801745Y-51431501D01*
X146688499Y-51318255D01*
X146599529Y-51185101D01*
X146538242Y-51037142D01*
X146507000Y-50880075D01*
X146507000Y-50719925D01*
X146538242Y-50562858D01*
X146599529Y-50414899D01*
X146688499Y-50281745D01*
X146801745Y-50168499D01*
X146934899Y-50079529D01*
X147082858Y-50018242D01*
X147239925Y-49987000D01*
X147400075Y-49987000D01*
X147557142Y-50018242D01*
X147557142Y-50018242D01*
G37*
G36*
X150097142Y-48748242D02*
G01*
X150245101Y-48809529D01*
X150378255Y-48898499D01*
X150491501Y-49011745D01*
X150580471Y-49144899D01*
X150641758Y-49292858D01*
X150673000Y-49449925D01*
X150673000Y-49610075D01*
X150641758Y-49767142D01*
X150580471Y-49915101D01*
X150491501Y-50048255D01*
X150378255Y-50161501D01*
X150245101Y-50250471D01*
X150097142Y-50311758D01*
X149940075Y-50343000D01*
X149779925Y-50343000D01*
X149622858Y-50311758D01*
X149474899Y-50250471D01*
X149341745Y-50161501D01*
X149228499Y-50048255D01*
X149139529Y-49915101D01*
X149078242Y-49767142D01*
X149047000Y-49610075D01*
X149047000Y-49449925D01*
X149078242Y-49292858D01*
X149139529Y-49144899D01*
X149228499Y-49011745D01*
X149341745Y-48898499D01*
X149474899Y-48809529D01*
X149622858Y-48748242D01*
X149779925Y-48717000D01*
X149940075Y-48717000D01*
X150097142Y-48748242D01*
X150097142Y-48748242D01*
G37*
G36*
X76327617Y-47218420D02*
G01*
X76418403Y-47245960D01*
X76450335Y-47255646D01*
X76563424Y-47316094D01*
X76662554Y-47397447D01*
X76743906Y-47496575D01*
X76804354Y-47609664D01*
X76807944Y-47621499D01*
X76841580Y-47732382D01*
X76851000Y-47828027D01*
X76851000Y-48691973D01*
X76841580Y-48787618D01*
X76834933Y-48809529D01*
X76804354Y-48910336D01*
X76743906Y-49023425D01*
X76662554Y-49122554D01*
X76563425Y-49203906D01*
X76450336Y-49264354D01*
X76418404Y-49274040D01*
X76327618Y-49301580D01*
X76200000Y-49314149D01*
X76072383Y-49301580D01*
X75981597Y-49274040D01*
X75949665Y-49264354D01*
X75836576Y-49203906D01*
X75737447Y-49122554D01*
X75656095Y-49023425D01*
X75595647Y-48910336D01*
X75589933Y-48891499D01*
X75558420Y-48787618D01*
X75549000Y-48691973D01*
X75549000Y-47828028D01*
X75558420Y-47732383D01*
X75595645Y-47609669D01*
X75595646Y-47609665D01*
X75656094Y-47496576D01*
X75737447Y-47397446D01*
X75836575Y-47316094D01*
X75949664Y-47255646D01*
X75981596Y-47245960D01*
X76072382Y-47218420D01*
X76200000Y-47205851D01*
X76327617Y-47218420D01*
X76327617Y-47218420D01*
G37*
G36*
X83947617Y-47218420D02*
G01*
X84038403Y-47245960D01*
X84070335Y-47255646D01*
X84183424Y-47316094D01*
X84282554Y-47397447D01*
X84363906Y-47496575D01*
X84424354Y-47609664D01*
X84427944Y-47621499D01*
X84461580Y-47732382D01*
X84471000Y-47828027D01*
X84471000Y-48691973D01*
X84461580Y-48787618D01*
X84454933Y-48809529D01*
X84424354Y-48910336D01*
X84363906Y-49023425D01*
X84282554Y-49122554D01*
X84183425Y-49203906D01*
X84070336Y-49264354D01*
X84038404Y-49274040D01*
X83947618Y-49301580D01*
X83820000Y-49314149D01*
X83692383Y-49301580D01*
X83601597Y-49274040D01*
X83569665Y-49264354D01*
X83456576Y-49203906D01*
X83357447Y-49122554D01*
X83276095Y-49023425D01*
X83215647Y-48910336D01*
X83209933Y-48891499D01*
X83178420Y-48787618D01*
X83169000Y-48691973D01*
X83169000Y-47828028D01*
X83178420Y-47732383D01*
X83215645Y-47609669D01*
X83215646Y-47609665D01*
X83276094Y-47496576D01*
X83357447Y-47397446D01*
X83456575Y-47316094D01*
X83569664Y-47255646D01*
X83601596Y-47245960D01*
X83692382Y-47218420D01*
X83820000Y-47205851D01*
X83947617Y-47218420D01*
X83947617Y-47218420D01*
G37*
G36*
X89027617Y-47218420D02*
G01*
X89118403Y-47245960D01*
X89150335Y-47255646D01*
X89263424Y-47316094D01*
X89362554Y-47397447D01*
X89443906Y-47496575D01*
X89504354Y-47609664D01*
X89507944Y-47621499D01*
X89541580Y-47732382D01*
X89551000Y-47828027D01*
X89551000Y-48691973D01*
X89541580Y-48787618D01*
X89534933Y-48809529D01*
X89504354Y-48910336D01*
X89443906Y-49023425D01*
X89362554Y-49122554D01*
X89263425Y-49203906D01*
X89150336Y-49264354D01*
X89118404Y-49274040D01*
X89027618Y-49301580D01*
X88900000Y-49314149D01*
X88772383Y-49301580D01*
X88681597Y-49274040D01*
X88649665Y-49264354D01*
X88536576Y-49203906D01*
X88437447Y-49122554D01*
X88356095Y-49023425D01*
X88295647Y-48910336D01*
X88289933Y-48891499D01*
X88258420Y-48787618D01*
X88249000Y-48691973D01*
X88249000Y-47828028D01*
X88258420Y-47732383D01*
X88295645Y-47609669D01*
X88295646Y-47609665D01*
X88356094Y-47496576D01*
X88437447Y-47397446D01*
X88536575Y-47316094D01*
X88649664Y-47255646D01*
X88681596Y-47245960D01*
X88772382Y-47218420D01*
X88900000Y-47205851D01*
X89027617Y-47218420D01*
X89027617Y-47218420D01*
G37*
G36*
X86487617Y-47218420D02*
G01*
X86578403Y-47245960D01*
X86610335Y-47255646D01*
X86723424Y-47316094D01*
X86822554Y-47397447D01*
X86903906Y-47496575D01*
X86964354Y-47609664D01*
X86967944Y-47621499D01*
X87001580Y-47732382D01*
X87011000Y-47828027D01*
X87011000Y-48691973D01*
X87001580Y-48787618D01*
X86994933Y-48809529D01*
X86964354Y-48910336D01*
X86903906Y-49023425D01*
X86822554Y-49122554D01*
X86723425Y-49203906D01*
X86610336Y-49264354D01*
X86578404Y-49274040D01*
X86487618Y-49301580D01*
X86360000Y-49314149D01*
X86232383Y-49301580D01*
X86141597Y-49274040D01*
X86109665Y-49264354D01*
X85996576Y-49203906D01*
X85897447Y-49122554D01*
X85816095Y-49023425D01*
X85755647Y-48910336D01*
X85749933Y-48891499D01*
X85718420Y-48787618D01*
X85709000Y-48691973D01*
X85709000Y-47828028D01*
X85718420Y-47732383D01*
X85755645Y-47609669D01*
X85755646Y-47609665D01*
X85816094Y-47496576D01*
X85897447Y-47397446D01*
X85996575Y-47316094D01*
X86109664Y-47255646D01*
X86141596Y-47245960D01*
X86232382Y-47218420D01*
X86360000Y-47205851D01*
X86487617Y-47218420D01*
X86487617Y-47218420D01*
G37*
G36*
X96647617Y-47218420D02*
G01*
X96738403Y-47245960D01*
X96770335Y-47255646D01*
X96883424Y-47316094D01*
X96982554Y-47397447D01*
X97063906Y-47496575D01*
X97124354Y-47609664D01*
X97127944Y-47621499D01*
X97161580Y-47732382D01*
X97171000Y-47828027D01*
X97171000Y-48691973D01*
X97161580Y-48787618D01*
X97154933Y-48809529D01*
X97124354Y-48910336D01*
X97063906Y-49023425D01*
X96982554Y-49122554D01*
X96883425Y-49203906D01*
X96770336Y-49264354D01*
X96738404Y-49274040D01*
X96647618Y-49301580D01*
X96520000Y-49314149D01*
X96392383Y-49301580D01*
X96301597Y-49274040D01*
X96269665Y-49264354D01*
X96156576Y-49203906D01*
X96057447Y-49122554D01*
X95976095Y-49023425D01*
X95915647Y-48910336D01*
X95909933Y-48891499D01*
X95878420Y-48787618D01*
X95869000Y-48691973D01*
X95869000Y-47828028D01*
X95878420Y-47732383D01*
X95915645Y-47609669D01*
X95915646Y-47609665D01*
X95976094Y-47496576D01*
X96057447Y-47397446D01*
X96156575Y-47316094D01*
X96269664Y-47255646D01*
X96301596Y-47245960D01*
X96392382Y-47218420D01*
X96520000Y-47205851D01*
X96647617Y-47218420D01*
X96647617Y-47218420D01*
G37*
G36*
X94107617Y-47218420D02*
G01*
X94198403Y-47245960D01*
X94230335Y-47255646D01*
X94343424Y-47316094D01*
X94442554Y-47397447D01*
X94523906Y-47496575D01*
X94584354Y-47609664D01*
X94587944Y-47621499D01*
X94621580Y-47732382D01*
X94631000Y-47828027D01*
X94631000Y-48691973D01*
X94621580Y-48787618D01*
X94614933Y-48809529D01*
X94584354Y-48910336D01*
X94523906Y-49023425D01*
X94442554Y-49122554D01*
X94343425Y-49203906D01*
X94230336Y-49264354D01*
X94198404Y-49274040D01*
X94107618Y-49301580D01*
X93980000Y-49314149D01*
X93852383Y-49301580D01*
X93761597Y-49274040D01*
X93729665Y-49264354D01*
X93616576Y-49203906D01*
X93517447Y-49122554D01*
X93436095Y-49023425D01*
X93375647Y-48910336D01*
X93369933Y-48891499D01*
X93338420Y-48787618D01*
X93329000Y-48691973D01*
X93329000Y-47828028D01*
X93338420Y-47732383D01*
X93375645Y-47609669D01*
X93375646Y-47609665D01*
X93436094Y-47496576D01*
X93517447Y-47397446D01*
X93616575Y-47316094D01*
X93729664Y-47255646D01*
X93761596Y-47245960D01*
X93852382Y-47218420D01*
X93980000Y-47205851D01*
X94107617Y-47218420D01*
X94107617Y-47218420D01*
G37*
G36*
X81407617Y-47218420D02*
G01*
X81498403Y-47245960D01*
X81530335Y-47255646D01*
X81643424Y-47316094D01*
X81742554Y-47397447D01*
X81823906Y-47496575D01*
X81884354Y-47609664D01*
X81887944Y-47621499D01*
X81921580Y-47732382D01*
X81931000Y-47828027D01*
X81931000Y-48691973D01*
X81921580Y-48787618D01*
X81914933Y-48809529D01*
X81884354Y-48910336D01*
X81823906Y-49023425D01*
X81742554Y-49122554D01*
X81643425Y-49203906D01*
X81530336Y-49264354D01*
X81498404Y-49274040D01*
X81407618Y-49301580D01*
X81280000Y-49314149D01*
X81152383Y-49301580D01*
X81061597Y-49274040D01*
X81029665Y-49264354D01*
X80916576Y-49203906D01*
X80817447Y-49122554D01*
X80736095Y-49023425D01*
X80675647Y-48910336D01*
X80669933Y-48891499D01*
X80638420Y-48787618D01*
X80629000Y-48691973D01*
X80629000Y-47828028D01*
X80638420Y-47732383D01*
X80675645Y-47609669D01*
X80675646Y-47609665D01*
X80736094Y-47496576D01*
X80817447Y-47397446D01*
X80916575Y-47316094D01*
X81029664Y-47255646D01*
X81061596Y-47245960D01*
X81152382Y-47218420D01*
X81280000Y-47205851D01*
X81407617Y-47218420D01*
X81407617Y-47218420D01*
G37*
G36*
X91567617Y-47218420D02*
G01*
X91658403Y-47245960D01*
X91690335Y-47255646D01*
X91803424Y-47316094D01*
X91902554Y-47397447D01*
X91983906Y-47496575D01*
X92044354Y-47609664D01*
X92047944Y-47621499D01*
X92081580Y-47732382D01*
X92091000Y-47828027D01*
X92091000Y-48691973D01*
X92081580Y-48787618D01*
X92074933Y-48809529D01*
X92044354Y-48910336D01*
X91983906Y-49023425D01*
X91902554Y-49122554D01*
X91803425Y-49203906D01*
X91690336Y-49264354D01*
X91658404Y-49274040D01*
X91567618Y-49301580D01*
X91440000Y-49314149D01*
X91312383Y-49301580D01*
X91221597Y-49274040D01*
X91189665Y-49264354D01*
X91076576Y-49203906D01*
X90977447Y-49122554D01*
X90896095Y-49023425D01*
X90835647Y-48910336D01*
X90829933Y-48891499D01*
X90798420Y-48787618D01*
X90789000Y-48691973D01*
X90789000Y-47828028D01*
X90798420Y-47732383D01*
X90835645Y-47609669D01*
X90835646Y-47609665D01*
X90896094Y-47496576D01*
X90977447Y-47397446D01*
X91076575Y-47316094D01*
X91189664Y-47255646D01*
X91221596Y-47245960D01*
X91312382Y-47218420D01*
X91440000Y-47205851D01*
X91567617Y-47218420D01*
X91567617Y-47218420D01*
G37*
G36*
X78867617Y-47218420D02*
G01*
X78958403Y-47245960D01*
X78990335Y-47255646D01*
X79103424Y-47316094D01*
X79202554Y-47397447D01*
X79283906Y-47496575D01*
X79344354Y-47609664D01*
X79347944Y-47621499D01*
X79381580Y-47732382D01*
X79391000Y-47828027D01*
X79391000Y-48691973D01*
X79381580Y-48787618D01*
X79374933Y-48809529D01*
X79344354Y-48910336D01*
X79283906Y-49023425D01*
X79202554Y-49122554D01*
X79103425Y-49203906D01*
X78990336Y-49264354D01*
X78958404Y-49274040D01*
X78867618Y-49301580D01*
X78740000Y-49314149D01*
X78612383Y-49301580D01*
X78521597Y-49274040D01*
X78489665Y-49264354D01*
X78376576Y-49203906D01*
X78277447Y-49122554D01*
X78196095Y-49023425D01*
X78135647Y-48910336D01*
X78129933Y-48891499D01*
X78098420Y-48787618D01*
X78089000Y-48691973D01*
X78089000Y-47828028D01*
X78098420Y-47732383D01*
X78135645Y-47609669D01*
X78135646Y-47609665D01*
X78196094Y-47496576D01*
X78277447Y-47397446D01*
X78376575Y-47316094D01*
X78489664Y-47255646D01*
X78521596Y-47245960D01*
X78612382Y-47218420D01*
X78740000Y-47205851D01*
X78867617Y-47218420D01*
X78867617Y-47218420D01*
G37*
G36*
X147557142Y-47478242D02*
G01*
X147705101Y-47539529D01*
X147838255Y-47628499D01*
X147951501Y-47741745D01*
X148040471Y-47874899D01*
X148101758Y-48022858D01*
X148133000Y-48179925D01*
X148133000Y-48340075D01*
X148101758Y-48497142D01*
X148040471Y-48645101D01*
X147951501Y-48778255D01*
X147838255Y-48891501D01*
X147705101Y-48980471D01*
X147557142Y-49041758D01*
X147400075Y-49073000D01*
X147239925Y-49073000D01*
X147082858Y-49041758D01*
X146934899Y-48980471D01*
X146801745Y-48891501D01*
X146688499Y-48778255D01*
X146599529Y-48645101D01*
X146538242Y-48497142D01*
X146507000Y-48340075D01*
X146507000Y-48179925D01*
X146538242Y-48022858D01*
X146599529Y-47874899D01*
X146688499Y-47741745D01*
X146801745Y-47628499D01*
X146934899Y-47539529D01*
X147082858Y-47478242D01*
X147239925Y-47447000D01*
X147400075Y-47447000D01*
X147557142Y-47478242D01*
X147557142Y-47478242D01*
G37*
G36*
X123427142Y-47478242D02*
G01*
X123575101Y-47539529D01*
X123708255Y-47628499D01*
X123821501Y-47741745D01*
X123910471Y-47874899D01*
X123971758Y-48022858D01*
X124003000Y-48179925D01*
X124003000Y-48340075D01*
X123971758Y-48497142D01*
X123910471Y-48645101D01*
X123821501Y-48778255D01*
X123708255Y-48891501D01*
X123575101Y-48980471D01*
X123427142Y-49041758D01*
X123270075Y-49073000D01*
X123109925Y-49073000D01*
X122952858Y-49041758D01*
X122804899Y-48980471D01*
X122671745Y-48891501D01*
X122558499Y-48778255D01*
X122469529Y-48645101D01*
X122408242Y-48497142D01*
X122377000Y-48340075D01*
X122377000Y-48179925D01*
X122408242Y-48022858D01*
X122469529Y-47874899D01*
X122558499Y-47741745D01*
X122671745Y-47628499D01*
X122804899Y-47539529D01*
X122952858Y-47478242D01*
X123109925Y-47447000D01*
X123270075Y-47447000D01*
X123427142Y-47478242D01*
X123427142Y-47478242D01*
G37*
G36*
X120887142Y-47478242D02*
G01*
X121035101Y-47539529D01*
X121168255Y-47628499D01*
X121281501Y-47741745D01*
X121370471Y-47874899D01*
X121431758Y-48022858D01*
X121463000Y-48179925D01*
X121463000Y-48340075D01*
X121431758Y-48497142D01*
X121370471Y-48645101D01*
X121281501Y-48778255D01*
X121168255Y-48891501D01*
X121035101Y-48980471D01*
X120887142Y-49041758D01*
X120730075Y-49073000D01*
X120569925Y-49073000D01*
X120412858Y-49041758D01*
X120264899Y-48980471D01*
X120131745Y-48891501D01*
X120018499Y-48778255D01*
X119929529Y-48645101D01*
X119868242Y-48497142D01*
X119837000Y-48340075D01*
X119837000Y-48179925D01*
X119868242Y-48022858D01*
X119929529Y-47874899D01*
X120018499Y-47741745D01*
X120131745Y-47628499D01*
X120264899Y-47539529D01*
X120412858Y-47478242D01*
X120569925Y-47447000D01*
X120730075Y-47447000D01*
X120887142Y-47478242D01*
X120887142Y-47478242D01*
G37*
G36*
X118347142Y-47478242D02*
G01*
X118495101Y-47539529D01*
X118628255Y-47628499D01*
X118741501Y-47741745D01*
X118830471Y-47874899D01*
X118891758Y-48022858D01*
X118923000Y-48179925D01*
X118923000Y-48340075D01*
X118891758Y-48497142D01*
X118830471Y-48645101D01*
X118741501Y-48778255D01*
X118628255Y-48891501D01*
X118495101Y-48980471D01*
X118347142Y-49041758D01*
X118190075Y-49073000D01*
X118029925Y-49073000D01*
X117872858Y-49041758D01*
X117724899Y-48980471D01*
X117591745Y-48891501D01*
X117478499Y-48778255D01*
X117389529Y-48645101D01*
X117328242Y-48497142D01*
X117297000Y-48340075D01*
X117297000Y-48179925D01*
X117328242Y-48022858D01*
X117389529Y-47874899D01*
X117478499Y-47741745D01*
X117591745Y-47628499D01*
X117724899Y-47539529D01*
X117872858Y-47478242D01*
X118029925Y-47447000D01*
X118190075Y-47447000D01*
X118347142Y-47478242D01*
X118347142Y-47478242D01*
G37*
G36*
X115807142Y-47478242D02*
G01*
X115955101Y-47539529D01*
X116088255Y-47628499D01*
X116201501Y-47741745D01*
X116290471Y-47874899D01*
X116351758Y-48022858D01*
X116383000Y-48179925D01*
X116383000Y-48340075D01*
X116351758Y-48497142D01*
X116290471Y-48645101D01*
X116201501Y-48778255D01*
X116088255Y-48891501D01*
X115955101Y-48980471D01*
X115807142Y-49041758D01*
X115650075Y-49073000D01*
X115489925Y-49073000D01*
X115332858Y-49041758D01*
X115184899Y-48980471D01*
X115051745Y-48891501D01*
X114938499Y-48778255D01*
X114849529Y-48645101D01*
X114788242Y-48497142D01*
X114757000Y-48340075D01*
X114757000Y-48179925D01*
X114788242Y-48022858D01*
X114849529Y-47874899D01*
X114938499Y-47741745D01*
X115051745Y-47628499D01*
X115184899Y-47539529D01*
X115332858Y-47478242D01*
X115489925Y-47447000D01*
X115650075Y-47447000D01*
X115807142Y-47478242D01*
X115807142Y-47478242D01*
G37*
G36*
X113267142Y-47478242D02*
G01*
X113415101Y-47539529D01*
X113548255Y-47628499D01*
X113661501Y-47741745D01*
X113750471Y-47874899D01*
X113811758Y-48022858D01*
X113843000Y-48179925D01*
X113843000Y-48340075D01*
X113811758Y-48497142D01*
X113750471Y-48645101D01*
X113661501Y-48778255D01*
X113548255Y-48891501D01*
X113415101Y-48980471D01*
X113267142Y-49041758D01*
X113110075Y-49073000D01*
X112949925Y-49073000D01*
X112792858Y-49041758D01*
X112644899Y-48980471D01*
X112511745Y-48891501D01*
X112398499Y-48778255D01*
X112309529Y-48645101D01*
X112248242Y-48497142D01*
X112217000Y-48340075D01*
X112217000Y-48179925D01*
X112248242Y-48022858D01*
X112309529Y-47874899D01*
X112398499Y-47741745D01*
X112511745Y-47628499D01*
X112644899Y-47539529D01*
X112792858Y-47478242D01*
X112949925Y-47447000D01*
X113110075Y-47447000D01*
X113267142Y-47478242D01*
X113267142Y-47478242D01*
G37*
G36*
X110727142Y-47478242D02*
G01*
X110875101Y-47539529D01*
X111008255Y-47628499D01*
X111121501Y-47741745D01*
X111210471Y-47874899D01*
X111271758Y-48022858D01*
X111303000Y-48179925D01*
X111303000Y-48340075D01*
X111271758Y-48497142D01*
X111210471Y-48645101D01*
X111121501Y-48778255D01*
X111008255Y-48891501D01*
X110875101Y-48980471D01*
X110727142Y-49041758D01*
X110570075Y-49073000D01*
X110409925Y-49073000D01*
X110252858Y-49041758D01*
X110104899Y-48980471D01*
X109971745Y-48891501D01*
X109858499Y-48778255D01*
X109769529Y-48645101D01*
X109708242Y-48497142D01*
X109677000Y-48340075D01*
X109677000Y-48179925D01*
X109708242Y-48022858D01*
X109769529Y-47874899D01*
X109858499Y-47741745D01*
X109971745Y-47628499D01*
X110104899Y-47539529D01*
X110252858Y-47478242D01*
X110409925Y-47447000D01*
X110570075Y-47447000D01*
X110727142Y-47478242D01*
X110727142Y-47478242D01*
G37*
G36*
X108187142Y-47478242D02*
G01*
X108335101Y-47539529D01*
X108468255Y-47628499D01*
X108581501Y-47741745D01*
X108670471Y-47874899D01*
X108731758Y-48022858D01*
X108763000Y-48179925D01*
X108763000Y-48340075D01*
X108731758Y-48497142D01*
X108670471Y-48645101D01*
X108581501Y-48778255D01*
X108468255Y-48891501D01*
X108335101Y-48980471D01*
X108187142Y-49041758D01*
X108030075Y-49073000D01*
X107869925Y-49073000D01*
X107712858Y-49041758D01*
X107564899Y-48980471D01*
X107431745Y-48891501D01*
X107318499Y-48778255D01*
X107229529Y-48645101D01*
X107168242Y-48497142D01*
X107137000Y-48340075D01*
X107137000Y-48179925D01*
X107168242Y-48022858D01*
X107229529Y-47874899D01*
X107318499Y-47741745D01*
X107431745Y-47628499D01*
X107564899Y-47539529D01*
X107712858Y-47478242D01*
X107869925Y-47447000D01*
X108030075Y-47447000D01*
X108187142Y-47478242D01*
X108187142Y-47478242D01*
G37*
G36*
X105647142Y-47478242D02*
G01*
X105795101Y-47539529D01*
X105928255Y-47628499D01*
X106041501Y-47741745D01*
X106130471Y-47874899D01*
X106191758Y-48022858D01*
X106223000Y-48179925D01*
X106223000Y-48340075D01*
X106191758Y-48497142D01*
X106130471Y-48645101D01*
X106041501Y-48778255D01*
X105928255Y-48891501D01*
X105795101Y-48980471D01*
X105647142Y-49041758D01*
X105490075Y-49073000D01*
X105329925Y-49073000D01*
X105172858Y-49041758D01*
X105024899Y-48980471D01*
X104891745Y-48891501D01*
X104778499Y-48778255D01*
X104689529Y-48645101D01*
X104628242Y-48497142D01*
X104597000Y-48340075D01*
X104597000Y-48179925D01*
X104628242Y-48022858D01*
X104689529Y-47874899D01*
X104778499Y-47741745D01*
X104891745Y-47628499D01*
X105024899Y-47539529D01*
X105172858Y-47478242D01*
X105329925Y-47447000D01*
X105490075Y-47447000D01*
X105647142Y-47478242D01*
X105647142Y-47478242D01*
G37*
G36*
X103107142Y-47478242D02*
G01*
X103255101Y-47539529D01*
X103388255Y-47628499D01*
X103501501Y-47741745D01*
X103590471Y-47874899D01*
X103651758Y-48022858D01*
X103683000Y-48179925D01*
X103683000Y-48340075D01*
X103651758Y-48497142D01*
X103590471Y-48645101D01*
X103501501Y-48778255D01*
X103388255Y-48891501D01*
X103255101Y-48980471D01*
X103107142Y-49041758D01*
X102950075Y-49073000D01*
X102789925Y-49073000D01*
X102632858Y-49041758D01*
X102484899Y-48980471D01*
X102351745Y-48891501D01*
X102238499Y-48778255D01*
X102149529Y-48645101D01*
X102088242Y-48497142D01*
X102057000Y-48340075D01*
X102057000Y-48179925D01*
X102088242Y-48022858D01*
X102149529Y-47874899D01*
X102238499Y-47741745D01*
X102351745Y-47628499D01*
X102484899Y-47539529D01*
X102632858Y-47478242D01*
X102789925Y-47447000D01*
X102950075Y-47447000D01*
X103107142Y-47478242D01*
X103107142Y-47478242D01*
G37*
G36*
X125967142Y-47478242D02*
G01*
X126115101Y-47539529D01*
X126248255Y-47628499D01*
X126361501Y-47741745D01*
X126450471Y-47874899D01*
X126511758Y-48022858D01*
X126543000Y-48179925D01*
X126543000Y-48340075D01*
X126511758Y-48497142D01*
X126450471Y-48645101D01*
X126361501Y-48778255D01*
X126248255Y-48891501D01*
X126115101Y-48980471D01*
X125967142Y-49041758D01*
X125810075Y-49073000D01*
X125649925Y-49073000D01*
X125492858Y-49041758D01*
X125344899Y-48980471D01*
X125211745Y-48891501D01*
X125098499Y-48778255D01*
X125009529Y-48645101D01*
X124948242Y-48497142D01*
X124917000Y-48340075D01*
X124917000Y-48179925D01*
X124948242Y-48022858D01*
X125009529Y-47874899D01*
X125098499Y-47741745D01*
X125211745Y-47628499D01*
X125344899Y-47539529D01*
X125492858Y-47478242D01*
X125649925Y-47447000D01*
X125810075Y-47447000D01*
X125967142Y-47478242D01*
X125967142Y-47478242D01*
G37*
G36*
X150097142Y-46208242D02*
G01*
X150245101Y-46269529D01*
X150378255Y-46358499D01*
X150491501Y-46471745D01*
X150580471Y-46604899D01*
X150641758Y-46752858D01*
X150673000Y-46909925D01*
X150673000Y-47070075D01*
X150641758Y-47227142D01*
X150580471Y-47375101D01*
X150491501Y-47508255D01*
X150378255Y-47621501D01*
X150245101Y-47710471D01*
X150097142Y-47771758D01*
X149940075Y-47803000D01*
X149779925Y-47803000D01*
X149622858Y-47771758D01*
X149474899Y-47710471D01*
X149341745Y-47621501D01*
X149228499Y-47508255D01*
X149139529Y-47375101D01*
X149078242Y-47227142D01*
X149047000Y-47070075D01*
X149047000Y-46909925D01*
X149078242Y-46752858D01*
X149139529Y-46604899D01*
X149228499Y-46471745D01*
X149341745Y-46358499D01*
X149474899Y-46269529D01*
X149622858Y-46208242D01*
X149779925Y-46177000D01*
X149940075Y-46177000D01*
X150097142Y-46208242D01*
X150097142Y-46208242D01*
G37*
G36*
X147557142Y-44938242D02*
G01*
X147705101Y-44999529D01*
X147838255Y-45088499D01*
X147951501Y-45201745D01*
X148040471Y-45334899D01*
X148101758Y-45482858D01*
X148133000Y-45639925D01*
X148133000Y-45800075D01*
X148101758Y-45957142D01*
X148040471Y-46105101D01*
X147951501Y-46238255D01*
X147838255Y-46351501D01*
X147705101Y-46440471D01*
X147557142Y-46501758D01*
X147400075Y-46533000D01*
X147239925Y-46533000D01*
X147082858Y-46501758D01*
X146934899Y-46440471D01*
X146801745Y-46351501D01*
X146688499Y-46238255D01*
X146599529Y-46105101D01*
X146538242Y-45957142D01*
X146507000Y-45800075D01*
X146507000Y-45639925D01*
X146538242Y-45482858D01*
X146599529Y-45334899D01*
X146688499Y-45201745D01*
X146801745Y-45088499D01*
X146934899Y-44999529D01*
X147082858Y-44938242D01*
X147239925Y-44907000D01*
X147400075Y-44907000D01*
X147557142Y-44938242D01*
X147557142Y-44938242D01*
G37*
G36*
X150097142Y-43668242D02*
G01*
X150245101Y-43729529D01*
X150378255Y-43818499D01*
X150491501Y-43931745D01*
X150580471Y-44064899D01*
X150641758Y-44212858D01*
X150673000Y-44369925D01*
X150673000Y-44530075D01*
X150641758Y-44687142D01*
X150580471Y-44835101D01*
X150491501Y-44968255D01*
X150378255Y-45081501D01*
X150245101Y-45170471D01*
X150097142Y-45231758D01*
X149940075Y-45263000D01*
X149779925Y-45263000D01*
X149622858Y-45231758D01*
X149474899Y-45170471D01*
X149341745Y-45081501D01*
X149228499Y-44968255D01*
X149139529Y-44835101D01*
X149078242Y-44687142D01*
X149047000Y-44530075D01*
X149047000Y-44369925D01*
X149078242Y-44212858D01*
X149139529Y-44064899D01*
X149228499Y-43931745D01*
X149341745Y-43818499D01*
X149474899Y-43729529D01*
X149622858Y-43668242D01*
X149779925Y-43637000D01*
X149940075Y-43637000D01*
X150097142Y-43668242D01*
X150097142Y-43668242D01*
G37*
G36*
X156687932Y-41604466D02*
G01*
X156892056Y-41689017D01*
X156986121Y-41727980D01*
X157254483Y-41907294D01*
X157482706Y-42135517D01*
X157645475Y-42379118D01*
X157662021Y-42403881D01*
X157785534Y-42702068D01*
X157848500Y-43018620D01*
X157848500Y-43341380D01*
X157785534Y-43657932D01*
X157719025Y-43818499D01*
X157662020Y-43956121D01*
X157482706Y-44224483D01*
X157254483Y-44452706D01*
X156986121Y-44632020D01*
X156986120Y-44632021D01*
X156986119Y-44632021D01*
X156687932Y-44755534D01*
X156371380Y-44818500D01*
X156048620Y-44818500D01*
X155732068Y-44755534D01*
X155433881Y-44632021D01*
X155433880Y-44632021D01*
X155433879Y-44632020D01*
X155165517Y-44452706D01*
X154937294Y-44224483D01*
X154757980Y-43956121D01*
X154700975Y-43818499D01*
X154634466Y-43657932D01*
X154571500Y-43341380D01*
X154571500Y-43018620D01*
X154634466Y-42702068D01*
X154757979Y-42403881D01*
X154774525Y-42379118D01*
X154937294Y-42135517D01*
X155165517Y-41907294D01*
X155433879Y-41727980D01*
X155527944Y-41689017D01*
X155732068Y-41604466D01*
X156048620Y-41541500D01*
X156371380Y-41541500D01*
X156687932Y-41604466D01*
X156687932Y-41604466D01*
G37*
G36*
X124649890Y-41689017D02*
G01*
X124768364Y-41738091D01*
X124874988Y-41809335D01*
X124965665Y-41900012D01*
X125036910Y-42006638D01*
X125085983Y-42125110D01*
X125111000Y-42250881D01*
X125111000Y-42379119D01*
X125085983Y-42504890D01*
X125036909Y-42623364D01*
X124965665Y-42729988D01*
X124874988Y-42820665D01*
X124768364Y-42891909D01*
X124649890Y-42940983D01*
X124642751Y-42942403D01*
X124619302Y-42949516D01*
X124597691Y-42961067D01*
X124578749Y-42976612D01*
X124563203Y-42995554D01*
X124551652Y-43017164D01*
X124544539Y-43040613D01*
X124542137Y-43064999D01*
X124544539Y-43089385D01*
X124551652Y-43112834D01*
X124563203Y-43134445D01*
X124578748Y-43153387D01*
X124597690Y-43168933D01*
X124619300Y-43180484D01*
X124642751Y-43187597D01*
X124649890Y-43189017D01*
X124768364Y-43238091D01*
X124874988Y-43309335D01*
X124965665Y-43400012D01*
X125036910Y-43506638D01*
X125085983Y-43625110D01*
X125111000Y-43750881D01*
X125111000Y-43879119D01*
X125100532Y-43931745D01*
X125085983Y-44004890D01*
X125036909Y-44123364D01*
X124965665Y-44229988D01*
X124874988Y-44320665D01*
X124768364Y-44391909D01*
X124768363Y-44391910D01*
X124768362Y-44391910D01*
X124649890Y-44440983D01*
X124524119Y-44466000D01*
X124395881Y-44466000D01*
X124270110Y-44440983D01*
X124151638Y-44391910D01*
X124151637Y-44391910D01*
X124151636Y-44391909D01*
X124045012Y-44320665D01*
X123954335Y-44229988D01*
X123883091Y-44123364D01*
X123834017Y-44004890D01*
X123819468Y-43931745D01*
X123809000Y-43879119D01*
X123809000Y-43750881D01*
X123834017Y-43625110D01*
X123883090Y-43506638D01*
X123954335Y-43400012D01*
X124045012Y-43309335D01*
X124151636Y-43238091D01*
X124270110Y-43189017D01*
X124277249Y-43187597D01*
X124300698Y-43180484D01*
X124322309Y-43168933D01*
X124341251Y-43153388D01*
X124356797Y-43134446D01*
X124368348Y-43112836D01*
X124375461Y-43089387D01*
X124377863Y-43065001D01*
X124375461Y-43040615D01*
X124368348Y-43017166D01*
X124356797Y-42995555D01*
X124341252Y-42976613D01*
X124322310Y-42961067D01*
X124300700Y-42949516D01*
X124277249Y-42942403D01*
X124270110Y-42940983D01*
X124151636Y-42891909D01*
X124045012Y-42820665D01*
X123954335Y-42729988D01*
X123883091Y-42623364D01*
X123834017Y-42504890D01*
X123809000Y-42379119D01*
X123809000Y-42250881D01*
X123834017Y-42125110D01*
X123883090Y-42006638D01*
X123954335Y-41900012D01*
X124045012Y-41809335D01*
X124151636Y-41738091D01*
X124270110Y-41689017D01*
X124395881Y-41664000D01*
X124524119Y-41664000D01*
X124649890Y-41689017D01*
X124649890Y-41689017D01*
G37*
G36*
X124062142Y-37953242D02*
G01*
X124210101Y-38014529D01*
X124343255Y-38103499D01*
X124456501Y-38216745D01*
X124545471Y-38349899D01*
X124606758Y-38497858D01*
X124638000Y-38654925D01*
X124638000Y-38815075D01*
X124606758Y-38972142D01*
X124545471Y-39120101D01*
X124456501Y-39253255D01*
X124343255Y-39366501D01*
X124210101Y-39455471D01*
X124062142Y-39516758D01*
X123905075Y-39548000D01*
X123744925Y-39548000D01*
X123587858Y-39516758D01*
X123439899Y-39455471D01*
X123306745Y-39366501D01*
X123193499Y-39253255D01*
X123104529Y-39120101D01*
X123043242Y-38972142D01*
X123012000Y-38815075D01*
X123012000Y-38654925D01*
X123043242Y-38497858D01*
X123104529Y-38349899D01*
X123193499Y-38216745D01*
X123306745Y-38103499D01*
X123439899Y-38014529D01*
X123587858Y-37953242D01*
X123744925Y-37922000D01*
X123905075Y-37922000D01*
X124062142Y-37953242D01*
X124062142Y-37953242D01*
G37*
G36*
X104377142Y-37953242D02*
G01*
X104525101Y-38014529D01*
X104658255Y-38103499D01*
X104771501Y-38216745D01*
X104860471Y-38349899D01*
X104921758Y-38497858D01*
X104953000Y-38654925D01*
X104953000Y-38815075D01*
X104921758Y-38972142D01*
X104860471Y-39120101D01*
X104771501Y-39253255D01*
X104658255Y-39366501D01*
X104525101Y-39455471D01*
X104377142Y-39516758D01*
X104220075Y-39548000D01*
X104059925Y-39548000D01*
X103902858Y-39516758D01*
X103754899Y-39455471D01*
X103621745Y-39366501D01*
X103508499Y-39253255D01*
X103419529Y-39120101D01*
X103358242Y-38972142D01*
X103327000Y-38815075D01*
X103327000Y-38654925D01*
X103358242Y-38497858D01*
X103419529Y-38349899D01*
X103508499Y-38216745D01*
X103621745Y-38103499D01*
X103754899Y-38014529D01*
X103902858Y-37953242D01*
X104059925Y-37922000D01*
X104220075Y-37922000D01*
X104377142Y-37953242D01*
X104377142Y-37953242D01*
G37*
G36*
X117712142Y-37953242D02*
G01*
X117860101Y-38014529D01*
X117993255Y-38103499D01*
X118106501Y-38216745D01*
X118195471Y-38349899D01*
X118256758Y-38497858D01*
X118288000Y-38654925D01*
X118288000Y-38815075D01*
X118256758Y-38972142D01*
X118195471Y-39120101D01*
X118106501Y-39253255D01*
X117993255Y-39366501D01*
X117860101Y-39455471D01*
X117712142Y-39516758D01*
X117555075Y-39548000D01*
X117394925Y-39548000D01*
X117237858Y-39516758D01*
X117089899Y-39455471D01*
X116956745Y-39366501D01*
X116843499Y-39253255D01*
X116754529Y-39120101D01*
X116693242Y-38972142D01*
X116662000Y-38815075D01*
X116662000Y-38654925D01*
X116693242Y-38497858D01*
X116754529Y-38349899D01*
X116843499Y-38216745D01*
X116956745Y-38103499D01*
X117089899Y-38014529D01*
X117237858Y-37953242D01*
X117394925Y-37922000D01*
X117555075Y-37922000D01*
X117712142Y-37953242D01*
X117712142Y-37953242D01*
G37*
G36*
X111362142Y-37953242D02*
G01*
X111510101Y-38014529D01*
X111643255Y-38103499D01*
X111756501Y-38216745D01*
X111845471Y-38349899D01*
X111906758Y-38497858D01*
X111938000Y-38654925D01*
X111938000Y-38815075D01*
X111906758Y-38972142D01*
X111845471Y-39120101D01*
X111756501Y-39253255D01*
X111643255Y-39366501D01*
X111510101Y-39455471D01*
X111362142Y-39516758D01*
X111205075Y-39548000D01*
X111044925Y-39548000D01*
X110887858Y-39516758D01*
X110739899Y-39455471D01*
X110606745Y-39366501D01*
X110493499Y-39253255D01*
X110404529Y-39120101D01*
X110343242Y-38972142D01*
X110312000Y-38815075D01*
X110312000Y-38654925D01*
X110343242Y-38497858D01*
X110404529Y-38349899D01*
X110493499Y-38216745D01*
X110606745Y-38103499D01*
X110739899Y-38014529D01*
X110887858Y-37953242D01*
X111044925Y-37922000D01*
X111205075Y-37922000D01*
X111362142Y-37953242D01*
X111362142Y-37953242D01*
G37*
G36*
X124062142Y-35667242D02*
G01*
X124210101Y-35728529D01*
X124343255Y-35817499D01*
X124456501Y-35930745D01*
X124545471Y-36063899D01*
X124606758Y-36211858D01*
X124638000Y-36368925D01*
X124638000Y-36529075D01*
X124606758Y-36686142D01*
X124545471Y-36834101D01*
X124456501Y-36967255D01*
X124343255Y-37080501D01*
X124210101Y-37169471D01*
X124062142Y-37230758D01*
X123905075Y-37262000D01*
X123744925Y-37262000D01*
X123587858Y-37230758D01*
X123439899Y-37169471D01*
X123306745Y-37080501D01*
X123193499Y-36967255D01*
X123104529Y-36834101D01*
X123043242Y-36686142D01*
X123012000Y-36529075D01*
X123012000Y-36368925D01*
X123043242Y-36211858D01*
X123104529Y-36063899D01*
X123193499Y-35930745D01*
X123306745Y-35817499D01*
X123439899Y-35728529D01*
X123587858Y-35667242D01*
X123744925Y-35636000D01*
X123905075Y-35636000D01*
X124062142Y-35667242D01*
X124062142Y-35667242D01*
G37*
G36*
X104377142Y-35667242D02*
G01*
X104525101Y-35728529D01*
X104658255Y-35817499D01*
X104771501Y-35930745D01*
X104860471Y-36063899D01*
X104921758Y-36211858D01*
X104953000Y-36368925D01*
X104953000Y-36529075D01*
X104921758Y-36686142D01*
X104860471Y-36834101D01*
X104771501Y-36967255D01*
X104658255Y-37080501D01*
X104525101Y-37169471D01*
X104377142Y-37230758D01*
X104220075Y-37262000D01*
X104059925Y-37262000D01*
X103902858Y-37230758D01*
X103754899Y-37169471D01*
X103621745Y-37080501D01*
X103508499Y-36967255D01*
X103419529Y-36834101D01*
X103358242Y-36686142D01*
X103327000Y-36529075D01*
X103327000Y-36368925D01*
X103358242Y-36211858D01*
X103419529Y-36063899D01*
X103508499Y-35930745D01*
X103621745Y-35817499D01*
X103754899Y-35728529D01*
X103902858Y-35667242D01*
X104059925Y-35636000D01*
X104220075Y-35636000D01*
X104377142Y-35667242D01*
X104377142Y-35667242D01*
G37*
G36*
X111362142Y-35667242D02*
G01*
X111510101Y-35728529D01*
X111643255Y-35817499D01*
X111756501Y-35930745D01*
X111845471Y-36063899D01*
X111906758Y-36211858D01*
X111938000Y-36368925D01*
X111938000Y-36529075D01*
X111906758Y-36686142D01*
X111845471Y-36834101D01*
X111756501Y-36967255D01*
X111643255Y-37080501D01*
X111510101Y-37169471D01*
X111362142Y-37230758D01*
X111205075Y-37262000D01*
X111044925Y-37262000D01*
X110887858Y-37230758D01*
X110739899Y-37169471D01*
X110606745Y-37080501D01*
X110493499Y-36967255D01*
X110404529Y-36834101D01*
X110343242Y-36686142D01*
X110312000Y-36529075D01*
X110312000Y-36368925D01*
X110343242Y-36211858D01*
X110404529Y-36063899D01*
X110493499Y-35930745D01*
X110606745Y-35817499D01*
X110739899Y-35728529D01*
X110887858Y-35667242D01*
X111044925Y-35636000D01*
X111205075Y-35636000D01*
X111362142Y-35667242D01*
X111362142Y-35667242D01*
G37*
G36*
X117712142Y-35667242D02*
G01*
X117860101Y-35728529D01*
X117993255Y-35817499D01*
X118106501Y-35930745D01*
X118195471Y-36063899D01*
X118256758Y-36211858D01*
X118288000Y-36368925D01*
X118288000Y-36529075D01*
X118256758Y-36686142D01*
X118195471Y-36834101D01*
X118106501Y-36967255D01*
X117993255Y-37080501D01*
X117860101Y-37169471D01*
X117712142Y-37230758D01*
X117555075Y-37262000D01*
X117394925Y-37262000D01*
X117237858Y-37230758D01*
X117089899Y-37169471D01*
X116956745Y-37080501D01*
X116843499Y-36967255D01*
X116754529Y-36834101D01*
X116693242Y-36686142D01*
X116662000Y-36529075D01*
X116662000Y-36368925D01*
X116693242Y-36211858D01*
X116754529Y-36063899D01*
X116843499Y-35930745D01*
X116956745Y-35817499D01*
X117089899Y-35728529D01*
X117237858Y-35667242D01*
X117394925Y-35636000D01*
X117555075Y-35636000D01*
X117712142Y-35667242D01*
X117712142Y-35667242D01*
G37*
G36*
X110092142Y-32238242D02*
G01*
X110240101Y-32299529D01*
X110373255Y-32388499D01*
X110486501Y-32501745D01*
X110575471Y-32634899D01*
X110636758Y-32782858D01*
X110668000Y-32939925D01*
X110668000Y-33100075D01*
X110636758Y-33257142D01*
X110575471Y-33405101D01*
X110486501Y-33538255D01*
X110373255Y-33651501D01*
X110240101Y-33740471D01*
X110092142Y-33801758D01*
X109935075Y-33833000D01*
X109774925Y-33833000D01*
X109617858Y-33801758D01*
X109469899Y-33740471D01*
X109336745Y-33651501D01*
X109223499Y-33538255D01*
X109134529Y-33405101D01*
X109073242Y-33257142D01*
X109042000Y-33100075D01*
X109042000Y-32939925D01*
X109073242Y-32782858D01*
X109134529Y-32634899D01*
X109223499Y-32501745D01*
X109336745Y-32388499D01*
X109469899Y-32299529D01*
X109617858Y-32238242D01*
X109774925Y-32207000D01*
X109935075Y-32207000D01*
X110092142Y-32238242D01*
X110092142Y-32238242D01*
G37*
G36*
X116442142Y-32238242D02*
G01*
X116590101Y-32299529D01*
X116723255Y-32388499D01*
X116836501Y-32501745D01*
X116925471Y-32634899D01*
X116986758Y-32782858D01*
X117018000Y-32939925D01*
X117018000Y-33100075D01*
X116986758Y-33257142D01*
X116925471Y-33405101D01*
X116836501Y-33538255D01*
X116723255Y-33651501D01*
X116590101Y-33740471D01*
X116442142Y-33801758D01*
X116285075Y-33833000D01*
X116124925Y-33833000D01*
X115967858Y-33801758D01*
X115819899Y-33740471D01*
X115686745Y-33651501D01*
X115573499Y-33538255D01*
X115484529Y-33405101D01*
X115423242Y-33257142D01*
X115392000Y-33100075D01*
X115392000Y-32939925D01*
X115423242Y-32782858D01*
X115484529Y-32634899D01*
X115573499Y-32501745D01*
X115686745Y-32388499D01*
X115819899Y-32299529D01*
X115967858Y-32238242D01*
X116124925Y-32207000D01*
X116285075Y-32207000D01*
X116442142Y-32238242D01*
X116442142Y-32238242D01*
G37*
G36*
X122792142Y-32238242D02*
G01*
X122940101Y-32299529D01*
X123073255Y-32388499D01*
X123186501Y-32501745D01*
X123275471Y-32634899D01*
X123336758Y-32782858D01*
X123368000Y-32939925D01*
X123368000Y-33100075D01*
X123336758Y-33257142D01*
X123275471Y-33405101D01*
X123186501Y-33538255D01*
X123073255Y-33651501D01*
X122940101Y-33740471D01*
X122792142Y-33801758D01*
X122635075Y-33833000D01*
X122474925Y-33833000D01*
X122317858Y-33801758D01*
X122169899Y-33740471D01*
X122036745Y-33651501D01*
X121923499Y-33538255D01*
X121834529Y-33405101D01*
X121773242Y-33257142D01*
X121742000Y-33100075D01*
X121742000Y-32939925D01*
X121773242Y-32782858D01*
X121834529Y-32634899D01*
X121923499Y-32501745D01*
X122036745Y-32388499D01*
X122169899Y-32299529D01*
X122317858Y-32238242D01*
X122474925Y-32207000D01*
X122635075Y-32207000D01*
X122792142Y-32238242D01*
X122792142Y-32238242D01*
G37*
G36*
X103742142Y-32238242D02*
G01*
X103890101Y-32299529D01*
X104023255Y-32388499D01*
X104136501Y-32501745D01*
X104225471Y-32634899D01*
X104286758Y-32782858D01*
X104318000Y-32939925D01*
X104318000Y-33100075D01*
X104286758Y-33257142D01*
X104225471Y-33405101D01*
X104136501Y-33538255D01*
X104023255Y-33651501D01*
X103890101Y-33740471D01*
X103742142Y-33801758D01*
X103585075Y-33833000D01*
X103424925Y-33833000D01*
X103267858Y-33801758D01*
X103119899Y-33740471D01*
X102986745Y-33651501D01*
X102873499Y-33538255D01*
X102784529Y-33405101D01*
X102723242Y-33257142D01*
X102692000Y-33100075D01*
X102692000Y-32939925D01*
X102723242Y-32782858D01*
X102784529Y-32634899D01*
X102873499Y-32501745D01*
X102986745Y-32388499D01*
X103119899Y-32299529D01*
X103267858Y-32238242D01*
X103424925Y-32207000D01*
X103585075Y-32207000D01*
X103742142Y-32238242D01*
X103742142Y-32238242D01*
G37*
G36*
X116442142Y-29952242D02*
G01*
X116590101Y-30013529D01*
X116723255Y-30102499D01*
X116836501Y-30215745D01*
X116925471Y-30348899D01*
X116986758Y-30496858D01*
X117018000Y-30653925D01*
X117018000Y-30814075D01*
X116986758Y-30971142D01*
X116925471Y-31119101D01*
X116836501Y-31252255D01*
X116723255Y-31365501D01*
X116590101Y-31454471D01*
X116442142Y-31515758D01*
X116285075Y-31547000D01*
X116124925Y-31547000D01*
X115967858Y-31515758D01*
X115819899Y-31454471D01*
X115686745Y-31365501D01*
X115573499Y-31252255D01*
X115484529Y-31119101D01*
X115423242Y-30971142D01*
X115392000Y-30814075D01*
X115392000Y-30653925D01*
X115423242Y-30496858D01*
X115484529Y-30348899D01*
X115573499Y-30215745D01*
X115686745Y-30102499D01*
X115819899Y-30013529D01*
X115967858Y-29952242D01*
X116124925Y-29921000D01*
X116285075Y-29921000D01*
X116442142Y-29952242D01*
X116442142Y-29952242D01*
G37*
G36*
X122792142Y-29952242D02*
G01*
X122940101Y-30013529D01*
X123073255Y-30102499D01*
X123186501Y-30215745D01*
X123275471Y-30348899D01*
X123336758Y-30496858D01*
X123368000Y-30653925D01*
X123368000Y-30814075D01*
X123336758Y-30971142D01*
X123275471Y-31119101D01*
X123186501Y-31252255D01*
X123073255Y-31365501D01*
X122940101Y-31454471D01*
X122792142Y-31515758D01*
X122635075Y-31547000D01*
X122474925Y-31547000D01*
X122317858Y-31515758D01*
X122169899Y-31454471D01*
X122036745Y-31365501D01*
X121923499Y-31252255D01*
X121834529Y-31119101D01*
X121773242Y-30971142D01*
X121742000Y-30814075D01*
X121742000Y-30653925D01*
X121773242Y-30496858D01*
X121834529Y-30348899D01*
X121923499Y-30215745D01*
X122036745Y-30102499D01*
X122169899Y-30013529D01*
X122317858Y-29952242D01*
X122474925Y-29921000D01*
X122635075Y-29921000D01*
X122792142Y-29952242D01*
X122792142Y-29952242D01*
G37*
G36*
X103742142Y-29952242D02*
G01*
X103890101Y-30013529D01*
X104023255Y-30102499D01*
X104136501Y-30215745D01*
X104225471Y-30348899D01*
X104286758Y-30496858D01*
X104318000Y-30653925D01*
X104318000Y-30814075D01*
X104286758Y-30971142D01*
X104225471Y-31119101D01*
X104136501Y-31252255D01*
X104023255Y-31365501D01*
X103890101Y-31454471D01*
X103742142Y-31515758D01*
X103585075Y-31547000D01*
X103424925Y-31547000D01*
X103267858Y-31515758D01*
X103119899Y-31454471D01*
X102986745Y-31365501D01*
X102873499Y-31252255D01*
X102784529Y-31119101D01*
X102723242Y-30971142D01*
X102692000Y-30814075D01*
X102692000Y-30653925D01*
X102723242Y-30496858D01*
X102784529Y-30348899D01*
X102873499Y-30215745D01*
X102986745Y-30102499D01*
X103119899Y-30013529D01*
X103267858Y-29952242D01*
X103424925Y-29921000D01*
X103585075Y-29921000D01*
X103742142Y-29952242D01*
X103742142Y-29952242D01*
G37*
G36*
X110092142Y-29952242D02*
G01*
X110240101Y-30013529D01*
X110373255Y-30102499D01*
X110486501Y-30215745D01*
X110575471Y-30348899D01*
X110636758Y-30496858D01*
X110668000Y-30653925D01*
X110668000Y-30814075D01*
X110636758Y-30971142D01*
X110575471Y-31119101D01*
X110486501Y-31252255D01*
X110373255Y-31365501D01*
X110240101Y-31454471D01*
X110092142Y-31515758D01*
X109935075Y-31547000D01*
X109774925Y-31547000D01*
X109617858Y-31515758D01*
X109469899Y-31454471D01*
X109336745Y-31365501D01*
X109223499Y-31252255D01*
X109134529Y-31119101D01*
X109073242Y-30971142D01*
X109042000Y-30814075D01*
X109042000Y-30653925D01*
X109073242Y-30496858D01*
X109134529Y-30348899D01*
X109223499Y-30215745D01*
X109336745Y-30102499D01*
X109469899Y-30013529D01*
X109617858Y-29952242D01*
X109774925Y-29921000D01*
X109935075Y-29921000D01*
X110092142Y-29952242D01*
X110092142Y-29952242D01*
G37*
G36*
X78867617Y-29438420D02*
G01*
X78958403Y-29465960D01*
X78990335Y-29475646D01*
X79103424Y-29536094D01*
X79202554Y-29617447D01*
X79283906Y-29716575D01*
X79344354Y-29829664D01*
X79354040Y-29861596D01*
X79381580Y-29952382D01*
X79391000Y-30048027D01*
X79391000Y-30911973D01*
X79381580Y-31007618D01*
X79354040Y-31098404D01*
X79344354Y-31130336D01*
X79283906Y-31243425D01*
X79202554Y-31342554D01*
X79103425Y-31423906D01*
X78990336Y-31484354D01*
X78958404Y-31494040D01*
X78867618Y-31521580D01*
X78740000Y-31534149D01*
X78612383Y-31521580D01*
X78521597Y-31494040D01*
X78489665Y-31484354D01*
X78376576Y-31423906D01*
X78277447Y-31342554D01*
X78196095Y-31243425D01*
X78135647Y-31130336D01*
X78131282Y-31115946D01*
X78098420Y-31007618D01*
X78089000Y-30911973D01*
X78089000Y-30048028D01*
X78098420Y-29952383D01*
X78135645Y-29829669D01*
X78135646Y-29829665D01*
X78196094Y-29716576D01*
X78277447Y-29617446D01*
X78376575Y-29536094D01*
X78489664Y-29475646D01*
X78521596Y-29465960D01*
X78612382Y-29438420D01*
X78740000Y-29425851D01*
X78867617Y-29438420D01*
X78867617Y-29438420D01*
G37*
G36*
X96647617Y-29438420D02*
G01*
X96738403Y-29465960D01*
X96770335Y-29475646D01*
X96883424Y-29536094D01*
X96982554Y-29617447D01*
X97063906Y-29716575D01*
X97124354Y-29829664D01*
X97134040Y-29861596D01*
X97161580Y-29952382D01*
X97171000Y-30048027D01*
X97171000Y-30911973D01*
X97161580Y-31007618D01*
X97134040Y-31098404D01*
X97124354Y-31130336D01*
X97063906Y-31243425D01*
X96982554Y-31342554D01*
X96883425Y-31423906D01*
X96770336Y-31484354D01*
X96738404Y-31494040D01*
X96647618Y-31521580D01*
X96520000Y-31534149D01*
X96392383Y-31521580D01*
X96301597Y-31494040D01*
X96269665Y-31484354D01*
X96156576Y-31423906D01*
X96057447Y-31342554D01*
X95976095Y-31243425D01*
X95915647Y-31130336D01*
X95911282Y-31115946D01*
X95878420Y-31007618D01*
X95869000Y-30911973D01*
X95869000Y-30048028D01*
X95878420Y-29952383D01*
X95915645Y-29829669D01*
X95915646Y-29829665D01*
X95976094Y-29716576D01*
X96057447Y-29617446D01*
X96156575Y-29536094D01*
X96269664Y-29475646D01*
X96301596Y-29465960D01*
X96392382Y-29438420D01*
X96520000Y-29425851D01*
X96647617Y-29438420D01*
X96647617Y-29438420D01*
G37*
G36*
X94107617Y-29438420D02*
G01*
X94198403Y-29465960D01*
X94230335Y-29475646D01*
X94343424Y-29536094D01*
X94442554Y-29617447D01*
X94523906Y-29716575D01*
X94584354Y-29829664D01*
X94594040Y-29861596D01*
X94621580Y-29952382D01*
X94631000Y-30048027D01*
X94631000Y-30911973D01*
X94621580Y-31007618D01*
X94594040Y-31098404D01*
X94584354Y-31130336D01*
X94523906Y-31243425D01*
X94442554Y-31342554D01*
X94343425Y-31423906D01*
X94230336Y-31484354D01*
X94198404Y-31494040D01*
X94107618Y-31521580D01*
X93980000Y-31534149D01*
X93852383Y-31521580D01*
X93761597Y-31494040D01*
X93729665Y-31484354D01*
X93616576Y-31423906D01*
X93517447Y-31342554D01*
X93436095Y-31243425D01*
X93375647Y-31130336D01*
X93371282Y-31115946D01*
X93338420Y-31007618D01*
X93329000Y-30911973D01*
X93329000Y-30048028D01*
X93338420Y-29952383D01*
X93375645Y-29829669D01*
X93375646Y-29829665D01*
X93436094Y-29716576D01*
X93517447Y-29617446D01*
X93616575Y-29536094D01*
X93729664Y-29475646D01*
X93761596Y-29465960D01*
X93852382Y-29438420D01*
X93980000Y-29425851D01*
X94107617Y-29438420D01*
X94107617Y-29438420D01*
G37*
G36*
X91567617Y-29438420D02*
G01*
X91658403Y-29465960D01*
X91690335Y-29475646D01*
X91803424Y-29536094D01*
X91902554Y-29617447D01*
X91983906Y-29716575D01*
X92044354Y-29829664D01*
X92054040Y-29861596D01*
X92081580Y-29952382D01*
X92091000Y-30048027D01*
X92091000Y-30911973D01*
X92081580Y-31007618D01*
X92054040Y-31098404D01*
X92044354Y-31130336D01*
X91983906Y-31243425D01*
X91902554Y-31342554D01*
X91803425Y-31423906D01*
X91690336Y-31484354D01*
X91658404Y-31494040D01*
X91567618Y-31521580D01*
X91440000Y-31534149D01*
X91312383Y-31521580D01*
X91221597Y-31494040D01*
X91189665Y-31484354D01*
X91076576Y-31423906D01*
X90977447Y-31342554D01*
X90896095Y-31243425D01*
X90835647Y-31130336D01*
X90831282Y-31115946D01*
X90798420Y-31007618D01*
X90789000Y-30911973D01*
X90789000Y-30048028D01*
X90798420Y-29952383D01*
X90835645Y-29829669D01*
X90835646Y-29829665D01*
X90896094Y-29716576D01*
X90977447Y-29617446D01*
X91076575Y-29536094D01*
X91189664Y-29475646D01*
X91221596Y-29465960D01*
X91312382Y-29438420D01*
X91440000Y-29425851D01*
X91567617Y-29438420D01*
X91567617Y-29438420D01*
G37*
G36*
X89027617Y-29438420D02*
G01*
X89118403Y-29465960D01*
X89150335Y-29475646D01*
X89263424Y-29536094D01*
X89362554Y-29617447D01*
X89443906Y-29716575D01*
X89504354Y-29829664D01*
X89514040Y-29861596D01*
X89541580Y-29952382D01*
X89551000Y-30048027D01*
X89551000Y-30911973D01*
X89541580Y-31007618D01*
X89514040Y-31098404D01*
X89504354Y-31130336D01*
X89443906Y-31243425D01*
X89362554Y-31342554D01*
X89263425Y-31423906D01*
X89150336Y-31484354D01*
X89118404Y-31494040D01*
X89027618Y-31521580D01*
X88900000Y-31534149D01*
X88772383Y-31521580D01*
X88681597Y-31494040D01*
X88649665Y-31484354D01*
X88536576Y-31423906D01*
X88437447Y-31342554D01*
X88356095Y-31243425D01*
X88295647Y-31130336D01*
X88291282Y-31115946D01*
X88258420Y-31007618D01*
X88249000Y-30911973D01*
X88249000Y-30048028D01*
X88258420Y-29952383D01*
X88295645Y-29829669D01*
X88295646Y-29829665D01*
X88356094Y-29716576D01*
X88437447Y-29617446D01*
X88536575Y-29536094D01*
X88649664Y-29475646D01*
X88681596Y-29465960D01*
X88772382Y-29438420D01*
X88900000Y-29425851D01*
X89027617Y-29438420D01*
X89027617Y-29438420D01*
G37*
G36*
X86487617Y-29438420D02*
G01*
X86578403Y-29465960D01*
X86610335Y-29475646D01*
X86723424Y-29536094D01*
X86822554Y-29617447D01*
X86903906Y-29716575D01*
X86964354Y-29829664D01*
X86974040Y-29861596D01*
X87001580Y-29952382D01*
X87011000Y-30048027D01*
X87011000Y-30911973D01*
X87001580Y-31007618D01*
X86974040Y-31098404D01*
X86964354Y-31130336D01*
X86903906Y-31243425D01*
X86822554Y-31342554D01*
X86723425Y-31423906D01*
X86610336Y-31484354D01*
X86578404Y-31494040D01*
X86487618Y-31521580D01*
X86360000Y-31534149D01*
X86232383Y-31521580D01*
X86141597Y-31494040D01*
X86109665Y-31484354D01*
X85996576Y-31423906D01*
X85897447Y-31342554D01*
X85816095Y-31243425D01*
X85755647Y-31130336D01*
X85751282Y-31115946D01*
X85718420Y-31007618D01*
X85709000Y-30911973D01*
X85709000Y-30048028D01*
X85718420Y-29952383D01*
X85755645Y-29829669D01*
X85755646Y-29829665D01*
X85816094Y-29716576D01*
X85897447Y-29617446D01*
X85996575Y-29536094D01*
X86109664Y-29475646D01*
X86141596Y-29465960D01*
X86232382Y-29438420D01*
X86360000Y-29425851D01*
X86487617Y-29438420D01*
X86487617Y-29438420D01*
G37*
G36*
X83947617Y-29438420D02*
G01*
X84038403Y-29465960D01*
X84070335Y-29475646D01*
X84183424Y-29536094D01*
X84282554Y-29617447D01*
X84363906Y-29716575D01*
X84424354Y-29829664D01*
X84434040Y-29861596D01*
X84461580Y-29952382D01*
X84471000Y-30048027D01*
X84471000Y-30911973D01*
X84461580Y-31007618D01*
X84434040Y-31098404D01*
X84424354Y-31130336D01*
X84363906Y-31243425D01*
X84282554Y-31342554D01*
X84183425Y-31423906D01*
X84070336Y-31484354D01*
X84038404Y-31494040D01*
X83947618Y-31521580D01*
X83820000Y-31534149D01*
X83692383Y-31521580D01*
X83601597Y-31494040D01*
X83569665Y-31484354D01*
X83456576Y-31423906D01*
X83357447Y-31342554D01*
X83276095Y-31243425D01*
X83215647Y-31130336D01*
X83211282Y-31115946D01*
X83178420Y-31007618D01*
X83169000Y-30911973D01*
X83169000Y-30048028D01*
X83178420Y-29952383D01*
X83215645Y-29829669D01*
X83215646Y-29829665D01*
X83276094Y-29716576D01*
X83357447Y-29617446D01*
X83456575Y-29536094D01*
X83569664Y-29475646D01*
X83601596Y-29465960D01*
X83692382Y-29438420D01*
X83820000Y-29425851D01*
X83947617Y-29438420D01*
X83947617Y-29438420D01*
G37*
G36*
X81407617Y-29438420D02*
G01*
X81498403Y-29465960D01*
X81530335Y-29475646D01*
X81643424Y-29536094D01*
X81742554Y-29617447D01*
X81823906Y-29716575D01*
X81884354Y-29829664D01*
X81894040Y-29861596D01*
X81921580Y-29952382D01*
X81931000Y-30048027D01*
X81931000Y-30911973D01*
X81921580Y-31007618D01*
X81894040Y-31098404D01*
X81884354Y-31130336D01*
X81823906Y-31243425D01*
X81742554Y-31342554D01*
X81643425Y-31423906D01*
X81530336Y-31484354D01*
X81498404Y-31494040D01*
X81407618Y-31521580D01*
X81280000Y-31534149D01*
X81152383Y-31521580D01*
X81061597Y-31494040D01*
X81029665Y-31484354D01*
X80916576Y-31423906D01*
X80817447Y-31342554D01*
X80736095Y-31243425D01*
X80675647Y-31130336D01*
X80671282Y-31115946D01*
X80638420Y-31007618D01*
X80629000Y-30911973D01*
X80629000Y-30048028D01*
X80638420Y-29952383D01*
X80675645Y-29829669D01*
X80675646Y-29829665D01*
X80736094Y-29716576D01*
X80817447Y-29617446D01*
X80916575Y-29536094D01*
X81029664Y-29475646D01*
X81061596Y-29465960D01*
X81152382Y-29438420D01*
X81280000Y-29425851D01*
X81407617Y-29438420D01*
X81407617Y-29438420D01*
G37*
G36*
X76327617Y-29438420D02*
G01*
X76418403Y-29465960D01*
X76450335Y-29475646D01*
X76563424Y-29536094D01*
X76662554Y-29617447D01*
X76743906Y-29716575D01*
X76804354Y-29829664D01*
X76814040Y-29861596D01*
X76841580Y-29952382D01*
X76851000Y-30048027D01*
X76851000Y-30911973D01*
X76841580Y-31007618D01*
X76814040Y-31098404D01*
X76804354Y-31130336D01*
X76743906Y-31243425D01*
X76662554Y-31342554D01*
X76563425Y-31423906D01*
X76450336Y-31484354D01*
X76418404Y-31494040D01*
X76327618Y-31521580D01*
X76200000Y-31534149D01*
X76072383Y-31521580D01*
X75981597Y-31494040D01*
X75949665Y-31484354D01*
X75836576Y-31423906D01*
X75737447Y-31342554D01*
X75656095Y-31243425D01*
X75595647Y-31130336D01*
X75591282Y-31115946D01*
X75558420Y-31007618D01*
X75549000Y-30911973D01*
X75549000Y-30048028D01*
X75558420Y-29952383D01*
X75595645Y-29829669D01*
X75595646Y-29829665D01*
X75656094Y-29716576D01*
X75737447Y-29617446D01*
X75836575Y-29536094D01*
X75949664Y-29475646D01*
X75981596Y-29465960D01*
X76072382Y-29438420D01*
X76200000Y-29425851D01*
X76327617Y-29438420D01*
X76327617Y-29438420D01*
G37*
M02*
