G04 #@! TF.GenerationSoftware,KiCad,Pcbnew,5.1.2-f72e74a~84~ubuntu18.04.1*
G04 #@! TF.CreationDate,2019-06-04T17:18:25-04:00*
G04 #@! TF.ProjectId,temperature board,74656d70-6572-4617-9475-726520626f61,v01*
G04 #@! TF.SameCoordinates,Original*
G04 #@! TF.FileFunction,Copper,L1,Top*
G04 #@! TF.FilePolarity,Positive*
%FSLAX46Y46*%
G04 Gerber Fmt 4.6, Leading zero omitted, Abs format (unit mm)*
G04 Created by KiCad (PCBNEW 5.1.2-f72e74a~84~ubuntu18.04.1) date 2019-06-04 17:18:25*
%MOMM*%
%LPD*%
G04 APERTURE LIST*
%ADD10C,1.524000*%
%ADD11O,1.200000X2.000000*%
%ADD12R,1.100000X4.100000*%
%ADD13R,1.000000X3.100000*%
%ADD14C,3.175000*%
%ADD15C,1.200000*%
%ADD16C,1.600000*%
%ADD17C,4.000000*%
%ADD18R,1.600000X1.600000*%
%ADD19C,0.800000*%
%ADD20C,0.250000*%
G04 APERTURE END LIST*
D10*
X131953000Y-37211000D03*
X134239000Y-37211000D03*
X77216000Y-99822000D03*
X74930000Y-99822000D03*
X137795000Y-86360000D03*
X135255000Y-86360000D03*
X132715000Y-86360000D03*
X130175000Y-86360000D03*
X127635000Y-86360000D03*
X125095000Y-86360000D03*
X122555000Y-86360000D03*
X120015000Y-86360000D03*
X117475000Y-86360000D03*
X114935000Y-86360000D03*
X112395000Y-86360000D03*
X109855000Y-86360000D03*
X107315000Y-86360000D03*
X104775000Y-86360000D03*
X102235000Y-86360000D03*
X99695000Y-86360000D03*
X97155000Y-86360000D03*
X94615000Y-86360000D03*
X92075000Y-86360000D03*
X89535000Y-86360000D03*
X86995000Y-86360000D03*
X84455000Y-86360000D03*
X81915000Y-86360000D03*
X76835000Y-86360000D03*
X79375000Y-86360000D03*
X76835000Y-58420000D03*
X79375000Y-58420000D03*
X81915000Y-58420000D03*
X84455000Y-58420000D03*
X86995000Y-58420000D03*
X89535000Y-58420000D03*
X92075000Y-58420000D03*
X94615000Y-58420000D03*
X97155000Y-58420000D03*
X99695000Y-58420000D03*
X102235000Y-58420000D03*
X104775000Y-58420000D03*
X107315000Y-58420000D03*
X109855000Y-58420000D03*
X112395000Y-58420000D03*
X114935000Y-58420000D03*
X117475000Y-58420000D03*
X120015000Y-58420000D03*
X122555000Y-58420000D03*
X125095000Y-58420000D03*
X127635000Y-58420000D03*
X130175000Y-58420000D03*
X132715000Y-58420000D03*
X135255000Y-58420000D03*
D11*
X137795000Y-58420000D03*
D12*
X149702000Y-93218000D03*
D13*
X155702000Y-93218000D03*
D11*
X99060000Y-50800000D03*
X99060000Y-33020000D03*
X96520000Y-50800000D03*
X96520000Y-33020000D03*
X93980000Y-50800000D03*
X93980000Y-33020000D03*
X91440000Y-50800000D03*
X91440000Y-33020000D03*
X88900000Y-50800000D03*
X88900000Y-33020000D03*
X86360000Y-50800000D03*
X86360000Y-33020000D03*
X83820000Y-50800000D03*
X83820000Y-33020000D03*
X81280000Y-50800000D03*
X81280000Y-33020000D03*
X78740000Y-50800000D03*
X78740000Y-33020000D03*
D10*
X110490000Y-92456000D03*
X113030000Y-92456000D03*
X115570000Y-92456000D03*
X118110000Y-92456000D03*
X120650000Y-92456000D03*
X123190000Y-92456000D03*
X125730000Y-92456000D03*
X128270000Y-92456000D03*
X130810000Y-92456000D03*
X133350000Y-92456000D03*
X135890000Y-92456000D03*
X135890000Y-107696000D03*
X133350000Y-107696000D03*
X130810000Y-107696000D03*
X128270000Y-107696000D03*
X125730000Y-107696000D03*
X123190000Y-107696000D03*
X120650000Y-107696000D03*
X118110000Y-107696000D03*
X115570000Y-107696000D03*
X113030000Y-107696000D03*
X110490000Y-107696000D03*
X138430000Y-92456000D03*
X138430000Y-107696000D03*
X93599000Y-99822000D03*
X91313000Y-99822000D03*
X106426000Y-48260000D03*
X108966000Y-48260000D03*
X111506000Y-48260000D03*
X114046000Y-48260000D03*
X116586000Y-48260000D03*
X119126000Y-48260000D03*
X121666000Y-48260000D03*
X124206000Y-48260000D03*
X126746000Y-48260000D03*
X129286000Y-48260000D03*
X105410000Y-93726000D03*
X102870000Y-93726000D03*
X100330000Y-93726000D03*
X97790000Y-93726000D03*
X95250000Y-93726000D03*
X92710000Y-93726000D03*
X90170000Y-93726000D03*
X87630000Y-93726000D03*
X85090000Y-93726000D03*
X82550000Y-93726000D03*
X121412000Y-29464000D03*
X123698000Y-29464000D03*
X129286000Y-29464000D03*
X131572000Y-29464000D03*
X116205000Y-37211000D03*
X118491000Y-37211000D03*
X101600000Y-99822000D03*
X99314000Y-99822000D03*
X85598000Y-99695000D03*
X83312000Y-99695000D03*
D14*
X156210000Y-52070000D03*
X156210000Y-43180000D03*
D10*
X149860000Y-49530000D03*
X147320000Y-50800000D03*
X147320000Y-48260000D03*
X149860000Y-46990000D03*
X147320000Y-45720000D03*
X149860000Y-44450000D03*
X105664000Y-29464000D03*
X107950000Y-29464000D03*
X107950000Y-37211000D03*
X110236000Y-37211000D03*
X113538000Y-29464000D03*
X115824000Y-29464000D03*
X124460000Y-37211000D03*
X126746000Y-37211000D03*
X105791000Y-106680000D03*
X103505000Y-106680000D03*
X97409000Y-106680000D03*
X95123000Y-106680000D03*
X89662000Y-106680000D03*
X87376000Y-106680000D03*
X81407000Y-106680000D03*
X79121000Y-106680000D03*
D15*
X154408000Y-99568000D03*
X152908000Y-99568000D03*
X106934000Y-101346000D03*
X105434000Y-101346000D03*
X77470000Y-94718000D03*
X77470000Y-93218000D03*
X137668000Y-47776000D03*
X137668000Y-49276000D03*
D16*
X144400000Y-72850000D03*
X144400000Y-75620000D03*
X147240000Y-71465000D03*
X144400000Y-70080000D03*
D17*
X147240000Y-60350000D03*
D16*
X147240000Y-68695000D03*
D18*
X144400000Y-67310000D03*
D16*
X144400000Y-78390000D03*
X147240000Y-74235000D03*
D17*
X147240000Y-85350000D03*
D16*
X147240000Y-77005000D03*
D17*
X155240000Y-60350000D03*
X155240000Y-85350000D03*
D16*
X155240000Y-77005000D03*
X155240000Y-74235000D03*
X155240000Y-71465000D03*
X155240000Y-68695000D03*
X152400000Y-78390000D03*
X152400000Y-75620000D03*
X152400000Y-72850000D03*
X152400000Y-70080000D03*
D18*
X152400000Y-67310000D03*
D19*
X83312000Y-71374000D03*
X86106000Y-71628000D03*
X86360000Y-84582000D03*
X79248000Y-48514000D03*
X75438000Y-53086000D03*
D20*
X154408000Y-99568000D02*
X153482999Y-98642999D01*
X86360000Y-33420000D02*
X86360000Y-33020000D01*
X82676999Y-37103001D02*
X86360000Y-33420000D01*
X82676999Y-57658001D02*
X82676999Y-37103001D01*
X81915000Y-58420000D02*
X82676999Y-57658001D01*
X123642001Y-85838239D02*
X119337762Y-81534000D01*
X123642001Y-86515763D02*
X123642001Y-85838239D01*
X124277001Y-87150763D02*
X123642001Y-86515763D01*
X124277001Y-95321001D02*
X124277001Y-87150763D01*
X153482999Y-98642999D02*
X127598999Y-98642999D01*
X127598999Y-98642999D02*
X124277001Y-95321001D01*
X119337762Y-81534000D02*
X92964000Y-81534000D01*
X92964000Y-81534000D02*
X85090000Y-73660000D01*
X121102001Y-85838239D02*
X118067762Y-82804000D01*
X121102001Y-87247759D02*
X121102001Y-85838239D01*
X110490000Y-92456000D02*
X111577001Y-91368999D01*
X116980761Y-91368999D02*
X121102001Y-87247759D01*
X111577001Y-91368999D02*
X116980761Y-91368999D01*
X118067762Y-82804000D02*
X91948000Y-82804000D01*
X91948000Y-82804000D02*
X83312000Y-74168000D01*
X83312000Y-74168000D02*
X83312000Y-71374000D01*
X85090000Y-73660000D02*
X85090000Y-72644000D01*
X85090000Y-72644000D02*
X86106000Y-71628000D01*
X138267999Y-48676001D02*
X137668000Y-49276000D01*
X105791000Y-101703000D02*
X105434000Y-101346000D01*
X77216000Y-94972000D02*
X77470000Y-94718000D01*
X81280000Y-50800000D02*
X81280000Y-33020000D01*
X78740000Y-50800000D02*
X81280000Y-50800000D01*
X78740000Y-56515000D02*
X76835000Y-58420000D01*
X78740000Y-50800000D02*
X78740000Y-56515000D01*
X109855000Y-86995000D02*
X109855000Y-86360000D01*
X93599000Y-98744370D02*
X93599000Y-99822000D01*
X81915000Y-86360000D02*
X83693000Y-84582000D01*
X83693000Y-84582000D02*
X86360000Y-84582000D01*
X78613000Y-84582000D02*
X76835000Y-86360000D01*
X86360000Y-84582000D02*
X78613000Y-84582000D01*
X131953001Y-57658001D02*
X132715000Y-58420000D01*
X126873001Y-57658001D02*
X127635000Y-58420000D01*
X129286000Y-29464000D02*
X128524001Y-30225999D01*
X121793001Y-57658001D02*
X122555000Y-58420000D01*
X117475000Y-58420000D02*
X118038999Y-57856001D01*
X109855000Y-57342370D02*
X109855000Y-58420000D01*
X104775000Y-57342370D02*
X104775000Y-58420000D01*
X107950000Y-37211000D02*
X107950000Y-38288630D01*
X106934000Y-102194528D02*
X106934000Y-101346000D01*
X110297630Y-101346000D02*
X107782528Y-101346000D01*
X107782528Y-101346000D02*
X106934000Y-101346000D01*
X115570000Y-106618370D02*
X110297630Y-101346000D01*
X115570000Y-107696000D02*
X115570000Y-106618370D01*
X137184000Y-48260000D02*
X137668000Y-47776000D01*
X129286000Y-48260000D02*
X137184000Y-48260000D01*
X82042000Y-93218000D02*
X82550000Y-93726000D01*
X77470000Y-93218000D02*
X82042000Y-93218000D01*
X80010000Y-86995000D02*
X79375000Y-86360000D01*
X80136999Y-87121999D02*
X79375000Y-86360000D01*
X80138409Y-87121999D02*
X80136999Y-87121999D01*
X85090000Y-92073590D02*
X80138409Y-87121999D01*
X85090000Y-93726000D02*
X85090000Y-92073590D01*
X75691999Y-99060001D02*
X74930000Y-99822000D01*
X77793010Y-96958990D02*
X75691999Y-99060001D01*
X81857010Y-96958990D02*
X77793010Y-96958990D01*
X85090000Y-93726000D02*
X81857010Y-96958990D01*
X87630000Y-89535000D02*
X84455000Y-86360000D01*
X87630000Y-93726000D02*
X87630000Y-89535000D01*
X79121000Y-101219000D02*
X79121000Y-104013000D01*
X79121000Y-104013000D02*
X79121000Y-106680000D01*
X83566000Y-96774000D02*
X79121000Y-101219000D01*
X84582000Y-96774000D02*
X83566000Y-96774000D01*
X87630000Y-93726000D02*
X84582000Y-96774000D01*
X85090000Y-97917000D02*
X83312000Y-99695000D01*
X85979000Y-97917000D02*
X90170000Y-93726000D01*
X85090000Y-97917000D02*
X85979000Y-97917000D01*
X90170000Y-86995000D02*
X89535000Y-86360000D01*
X90170000Y-93726000D02*
X90170000Y-86995000D01*
X94615000Y-86995000D02*
X94615000Y-86360000D01*
X87630000Y-106426000D02*
X87376000Y-106680000D01*
X88137999Y-98298001D02*
X91948001Y-94487999D01*
X91948001Y-94487999D02*
X92710000Y-93726000D01*
X88137999Y-105918001D02*
X88137999Y-98298001D01*
X87376000Y-106680000D02*
X88137999Y-105918001D01*
X94615000Y-91821000D02*
X92710000Y-93726000D01*
X94615000Y-86360000D02*
X94615000Y-91821000D01*
X91313000Y-97663000D02*
X95250000Y-93726000D01*
X91313000Y-99822000D02*
X91313000Y-97663000D01*
X102235000Y-86741000D02*
X102235000Y-86360000D01*
X95250000Y-93726000D02*
X102235000Y-86741000D01*
X104267000Y-89408000D02*
X107315000Y-86360000D01*
X98551999Y-93218001D02*
X97790000Y-93980000D01*
X95123000Y-96393000D02*
X97790000Y-93726000D01*
X95123000Y-106680000D02*
X95123000Y-96393000D01*
X102108000Y-89408000D02*
X104140000Y-89408000D01*
X97790000Y-93726000D02*
X102108000Y-89408000D01*
X104140000Y-89408000D02*
X104267000Y-89408000D01*
X99314000Y-94742000D02*
X100330000Y-93726000D01*
X99314000Y-99822000D02*
X99314000Y-94742000D01*
X112395000Y-86360000D02*
X110871000Y-87884000D01*
X108966000Y-87884000D02*
X106680000Y-90170000D01*
X110871000Y-87884000D02*
X108966000Y-87884000D01*
X100330000Y-93726000D02*
X102616000Y-91440000D01*
X104394000Y-91440000D02*
X105664000Y-90170000D01*
X102616000Y-91440000D02*
X104394000Y-91440000D01*
X106680000Y-90170000D02*
X105664000Y-90170000D01*
X100401001Y-96194999D02*
X102870000Y-93726000D01*
X103505000Y-106680000D02*
X100401001Y-103576001D01*
X100401001Y-103576001D02*
X100401001Y-96194999D01*
X115443000Y-88392000D02*
X117475000Y-86360000D01*
X110363000Y-88392000D02*
X115443000Y-88392000D01*
X107823000Y-90932000D02*
X110363000Y-88392000D01*
X102870000Y-93726000D02*
X105664000Y-90932000D01*
X105664000Y-90932000D02*
X107823000Y-90932000D01*
X129087999Y-91892001D02*
X129087999Y-77017999D01*
X128270000Y-92710000D02*
X129087999Y-91892001D01*
X129087999Y-77017999D02*
X112776000Y-60706000D01*
X89281000Y-60706000D02*
X86995000Y-58420000D01*
X112776000Y-60706000D02*
X89281000Y-60706000D01*
X106227999Y-49347001D02*
X97916999Y-57658001D01*
X107878999Y-49347001D02*
X106227999Y-49347001D01*
X97916999Y-57658001D02*
X97155000Y-58420000D01*
X108966000Y-48260000D02*
X107878999Y-49347001D01*
X107188001Y-30225999D02*
X107950000Y-29464000D01*
X106862999Y-45079369D02*
X106862999Y-30551001D01*
X106862999Y-30551001D02*
X107188001Y-30225999D01*
X108966000Y-47182370D02*
X106862999Y-45079369D01*
X108966000Y-48260000D02*
X108966000Y-47182370D01*
X102235000Y-57531000D02*
X102235000Y-58420000D01*
X111506000Y-48260000D02*
X102235000Y-57531000D01*
X111506000Y-38481000D02*
X110236000Y-37211000D01*
X111506000Y-48260000D02*
X111506000Y-38481000D01*
X107315000Y-54991000D02*
X107315000Y-58420000D01*
X114046000Y-48260000D02*
X107315000Y-54991000D01*
X114046000Y-31242000D02*
X114046000Y-48260000D01*
X115824000Y-29464000D02*
X114046000Y-31242000D01*
X112395000Y-52451000D02*
X116586000Y-48260000D01*
X112395000Y-58420000D02*
X112395000Y-52451000D01*
X116586000Y-39116000D02*
X118491000Y-37211000D01*
X116586000Y-48260000D02*
X116586000Y-39116000D01*
X120015000Y-55245000D02*
X119126000Y-54356000D01*
X120015000Y-58420000D02*
X120015000Y-55245000D01*
X119126000Y-48260000D02*
X119126000Y-54356000D01*
X123698000Y-30541630D02*
X123698000Y-29464000D01*
X123698000Y-36364238D02*
X123698000Y-30541630D01*
X119126000Y-40936238D02*
X123698000Y-36364238D01*
X119126000Y-48260000D02*
X119126000Y-40936238D01*
X121666000Y-54991000D02*
X125095000Y-58420000D01*
X121666000Y-48260000D02*
X121666000Y-54991000D01*
X126746000Y-43180000D02*
X121666000Y-48260000D01*
X126746000Y-37211000D02*
X126746000Y-43180000D01*
X124206000Y-52451000D02*
X124206000Y-51816000D01*
X130175000Y-58420000D02*
X124206000Y-52451000D01*
X124206000Y-51816000D02*
X124206000Y-48260000D01*
X130810001Y-30225999D02*
X131572000Y-29464000D01*
X129032000Y-32004000D02*
X130810001Y-30225999D01*
X129032000Y-43434000D02*
X129032000Y-32004000D01*
X124206000Y-48260000D02*
X129032000Y-43434000D01*
X132715000Y-86995000D02*
X132715000Y-86360000D01*
X138430000Y-92710000D02*
X132715000Y-86995000D01*
X126746000Y-49911000D02*
X135255000Y-58420000D01*
X126746000Y-48260000D02*
X126746000Y-49911000D01*
X134239000Y-40767000D02*
X134239000Y-37211000D01*
X126746000Y-48260000D02*
X134239000Y-40767000D01*
X143274999Y-73975001D02*
X143600001Y-73649999D01*
X143274999Y-76160001D02*
X143274999Y-73975001D01*
X144330998Y-77216000D02*
X143274999Y-76160001D01*
X144891002Y-77216000D02*
X144330998Y-77216000D01*
X145805003Y-78130001D02*
X144891002Y-77216000D01*
X148251369Y-78130001D02*
X145805003Y-78130001D01*
X143600001Y-73649999D02*
X144400000Y-72850000D01*
X152400000Y-73981370D02*
X148251369Y-78130001D01*
X152400000Y-72850000D02*
X152400000Y-73981370D01*
X153525001Y-71724999D02*
X152400000Y-72850000D01*
X153525001Y-66249999D02*
X153525001Y-71724999D01*
X151638000Y-64362998D02*
X153525001Y-66249999D01*
X149860000Y-46990000D02*
X151638000Y-48768000D01*
X151638000Y-48768000D02*
X151638000Y-64362998D01*
X149860000Y-46990000D02*
X148772999Y-45902999D01*
X148772999Y-44013001D02*
X148772999Y-41330999D01*
X148772999Y-44013001D02*
X148772999Y-43616999D01*
X148772999Y-45902999D02*
X148772999Y-44013001D01*
X148772999Y-41330999D02*
X134874000Y-27432000D01*
X78740000Y-32620000D02*
X78740000Y-33020000D01*
X83928000Y-27432000D02*
X78740000Y-32620000D01*
X134874000Y-27432000D02*
X83928000Y-27432000D01*
X151600001Y-70879999D02*
X152400000Y-70080000D01*
X151600001Y-71540001D02*
X151600001Y-70879999D01*
X147520002Y-75620000D02*
X151600001Y-71540001D01*
X144400000Y-75620000D02*
X147520002Y-75620000D01*
X149860000Y-67540000D02*
X149860000Y-49530000D01*
X152400000Y-70080000D02*
X149860000Y-67540000D01*
X132093761Y-28376999D02*
X113101001Y-28376999D01*
X132659001Y-28942239D02*
X132093761Y-28376999D01*
X113101001Y-28376999D02*
X113030000Y-28448000D01*
X149098001Y-48063241D02*
X147841761Y-46807001D01*
X149098001Y-48768001D02*
X149098001Y-48063241D01*
X149860000Y-49530000D02*
X149098001Y-48768001D01*
X147841761Y-46807001D02*
X146798239Y-46807001D01*
X146798239Y-46807001D02*
X132659001Y-32667763D01*
X132659001Y-32667763D02*
X132659001Y-28942239D01*
X83820000Y-32620000D02*
X83820000Y-33020000D01*
X88063001Y-28376999D02*
X83820000Y-32620000D01*
X113101001Y-28376999D02*
X88063001Y-28376999D01*
X109518981Y-108667019D02*
X73107019Y-108667019D01*
X110490000Y-107696000D02*
X109518981Y-108667019D01*
X73107019Y-108667019D02*
X71882000Y-107442000D01*
X78936998Y-48514000D02*
X79248000Y-48514000D01*
X71882000Y-107442000D02*
X71882000Y-55568998D01*
X71882000Y-55568998D02*
X78936998Y-48514000D01*
X72701990Y-55822010D02*
X75438000Y-53086000D01*
X72701990Y-100516400D02*
X72701990Y-55822010D01*
X113030000Y-107696000D02*
X110048780Y-104714780D01*
X110048780Y-104714780D02*
X109364982Y-104714780D01*
X109364982Y-104714780D02*
X105862752Y-108217010D01*
X76501001Y-104315411D02*
X72701990Y-100516400D01*
X76501001Y-105668763D02*
X76501001Y-104315411D01*
X79049248Y-108217010D02*
X76501001Y-105668763D01*
X105862752Y-108217010D02*
X79049248Y-108217010D01*
X93980000Y-52050000D02*
X93980000Y-50800000D01*
X93527999Y-52502001D02*
X93980000Y-52050000D01*
X94488000Y-60198000D02*
X93527999Y-59237999D01*
X131627999Y-77271999D02*
X114554000Y-60198000D01*
X93527999Y-59237999D02*
X93527999Y-52502001D01*
X114554000Y-60198000D02*
X94488000Y-60198000D01*
X131627999Y-90987999D02*
X131627999Y-77271999D01*
X133350000Y-92710000D02*
X131627999Y-90987999D01*
M02*
