G04 #@! TF.GenerationSoftware,KiCad,Pcbnew,5.1.2-f72e74a~84~ubuntu18.04.1*
G04 #@! TF.CreationDate,2019-06-03T17:04:17-04:00*
G04 #@! TF.ProjectId,temperature board,74656d70-6572-4617-9475-726520626f61,v01*
G04 #@! TF.SameCoordinates,Original*
G04 #@! TF.FileFunction,Legend,Top*
G04 #@! TF.FilePolarity,Positive*
%FSLAX46Y46*%
G04 Gerber Fmt 4.6, Leading zero omitted, Abs format (unit mm)*
G04 Created by KiCad (PCBNEW 5.1.2-f72e74a~84~ubuntu18.04.1) date 2019-06-03 17:04:17*
%MOMM*%
%LPD*%
G04 APERTURE LIST*
%ADD10C,0.150000*%
%ADD11C,0.120000*%
%ADD12C,0.100000*%
G04 APERTURE END LIST*
D10*
X143503142Y-37631714D02*
X143884095Y-37631714D01*
X143646000Y-37298380D02*
X143646000Y-38155523D01*
X143693619Y-38250761D01*
X143788857Y-38298380D01*
X143884095Y-38298380D01*
X144598380Y-38250761D02*
X144503142Y-38298380D01*
X144312666Y-38298380D01*
X144217428Y-38250761D01*
X144169809Y-38155523D01*
X144169809Y-37774571D01*
X144217428Y-37679333D01*
X144312666Y-37631714D01*
X144503142Y-37631714D01*
X144598380Y-37679333D01*
X144646000Y-37774571D01*
X144646000Y-37869809D01*
X144169809Y-37965047D01*
X145074571Y-38298380D02*
X145074571Y-37631714D01*
X145074571Y-37726952D02*
X145122190Y-37679333D01*
X145217428Y-37631714D01*
X145360285Y-37631714D01*
X145455523Y-37679333D01*
X145503142Y-37774571D01*
X145503142Y-38298380D01*
X145503142Y-37774571D02*
X145550761Y-37679333D01*
X145646000Y-37631714D01*
X145788857Y-37631714D01*
X145884095Y-37679333D01*
X145931714Y-37774571D01*
X145931714Y-38298380D01*
X146407904Y-37631714D02*
X146407904Y-38631714D01*
X146407904Y-37679333D02*
X146503142Y-37631714D01*
X146693619Y-37631714D01*
X146788857Y-37679333D01*
X146836476Y-37726952D01*
X146884095Y-37822190D01*
X146884095Y-38107904D01*
X146836476Y-38203142D01*
X146788857Y-38250761D01*
X146693619Y-38298380D01*
X146503142Y-38298380D01*
X146407904Y-38250761D01*
X148503142Y-38250761D02*
X148407904Y-38298380D01*
X148217428Y-38298380D01*
X148122190Y-38250761D01*
X148074571Y-38203142D01*
X148026952Y-38107904D01*
X148026952Y-37822190D01*
X148074571Y-37726952D01*
X148122190Y-37679333D01*
X148217428Y-37631714D01*
X148407904Y-37631714D01*
X148503142Y-37679333D01*
X149360285Y-38298380D02*
X149360285Y-37774571D01*
X149312666Y-37679333D01*
X149217428Y-37631714D01*
X149026952Y-37631714D01*
X148931714Y-37679333D01*
X149360285Y-38250761D02*
X149265047Y-38298380D01*
X149026952Y-38298380D01*
X148931714Y-38250761D01*
X148884095Y-38155523D01*
X148884095Y-38060285D01*
X148931714Y-37965047D01*
X149026952Y-37917428D01*
X149265047Y-37917428D01*
X149360285Y-37869809D01*
X149979333Y-38298380D02*
X149884095Y-38250761D01*
X149836476Y-38155523D01*
X149836476Y-37298380D01*
X150360285Y-38298380D02*
X150360285Y-37631714D01*
X150360285Y-37298380D02*
X150312666Y-37346000D01*
X150360285Y-37393619D01*
X150407904Y-37346000D01*
X150360285Y-37298380D01*
X150360285Y-37393619D01*
X150836476Y-38298380D02*
X150836476Y-37298380D01*
X150836476Y-37679333D02*
X150931714Y-37631714D01*
X151122190Y-37631714D01*
X151217428Y-37679333D01*
X151265047Y-37726952D01*
X151312666Y-37822190D01*
X151312666Y-38107904D01*
X151265047Y-38203142D01*
X151217428Y-38250761D01*
X151122190Y-38298380D01*
X150931714Y-38298380D01*
X150836476Y-38250761D01*
X151741238Y-38298380D02*
X151741238Y-37631714D01*
X151741238Y-37822190D02*
X151788857Y-37726952D01*
X151836476Y-37679333D01*
X151931714Y-37631714D01*
X152026952Y-37631714D01*
X152788857Y-38298380D02*
X152788857Y-37774571D01*
X152741238Y-37679333D01*
X152646000Y-37631714D01*
X152455523Y-37631714D01*
X152360285Y-37679333D01*
X152788857Y-38250761D02*
X152693619Y-38298380D01*
X152455523Y-38298380D01*
X152360285Y-38250761D01*
X152312666Y-38155523D01*
X152312666Y-38060285D01*
X152360285Y-37965047D01*
X152455523Y-37917428D01*
X152693619Y-37917428D01*
X152788857Y-37869809D01*
X153122190Y-37631714D02*
X153503142Y-37631714D01*
X153265047Y-37298380D02*
X153265047Y-38155523D01*
X153312666Y-38250761D01*
X153407904Y-38298380D01*
X153503142Y-38298380D01*
X153836476Y-38298380D02*
X153836476Y-37631714D01*
X153836476Y-37298380D02*
X153788857Y-37346000D01*
X153836476Y-37393619D01*
X153884095Y-37346000D01*
X153836476Y-37298380D01*
X153836476Y-37393619D01*
X154455523Y-38298380D02*
X154360285Y-38250761D01*
X154312666Y-38203142D01*
X154265047Y-38107904D01*
X154265047Y-37822190D01*
X154312666Y-37726952D01*
X154360285Y-37679333D01*
X154455523Y-37631714D01*
X154598380Y-37631714D01*
X154693619Y-37679333D01*
X154741238Y-37726952D01*
X154788857Y-37822190D01*
X154788857Y-38107904D01*
X154741238Y-38203142D01*
X154693619Y-38250761D01*
X154598380Y-38298380D01*
X154455523Y-38298380D01*
X155217428Y-37631714D02*
X155217428Y-38298380D01*
X155217428Y-37726952D02*
X155265047Y-37679333D01*
X155360285Y-37631714D01*
X155503142Y-37631714D01*
X155598380Y-37679333D01*
X155646000Y-37774571D01*
X155646000Y-38298380D01*
X156884095Y-38298380D02*
X156884095Y-37298380D01*
X156884095Y-37679333D02*
X156979333Y-37631714D01*
X157169809Y-37631714D01*
X157265047Y-37679333D01*
X157312666Y-37726952D01*
X157360285Y-37822190D01*
X157360285Y-38107904D01*
X157312666Y-38203142D01*
X157265047Y-38250761D01*
X157169809Y-38298380D01*
X156979333Y-38298380D01*
X156884095Y-38250761D01*
X157931714Y-38298380D02*
X157836476Y-38250761D01*
X157788857Y-38203142D01*
X157741238Y-38107904D01*
X157741238Y-37822190D01*
X157788857Y-37726952D01*
X157836476Y-37679333D01*
X157931714Y-37631714D01*
X158074571Y-37631714D01*
X158169809Y-37679333D01*
X158217428Y-37726952D01*
X158265047Y-37822190D01*
X158265047Y-38107904D01*
X158217428Y-38203142D01*
X158169809Y-38250761D01*
X158074571Y-38298380D01*
X157931714Y-38298380D01*
X159122190Y-38298380D02*
X159122190Y-37774571D01*
X159074571Y-37679333D01*
X158979333Y-37631714D01*
X158788857Y-37631714D01*
X158693619Y-37679333D01*
X159122190Y-38250761D02*
X159026952Y-38298380D01*
X158788857Y-38298380D01*
X158693619Y-38250761D01*
X158646000Y-38155523D01*
X158646000Y-38060285D01*
X158693619Y-37965047D01*
X158788857Y-37917428D01*
X159026952Y-37917428D01*
X159122190Y-37869809D01*
X159598380Y-38298380D02*
X159598380Y-37631714D01*
X159598380Y-37822190D02*
X159646000Y-37726952D01*
X159693619Y-37679333D01*
X159788857Y-37631714D01*
X159884095Y-37631714D01*
X160646000Y-38298380D02*
X160646000Y-37298380D01*
X160646000Y-38250761D02*
X160550761Y-38298380D01*
X160360285Y-38298380D01*
X160265047Y-38250761D01*
X160217428Y-38203142D01*
X160169809Y-38107904D01*
X160169809Y-37822190D01*
X160217428Y-37726952D01*
X160265047Y-37679333D01*
X160360285Y-37631714D01*
X160550761Y-37631714D01*
X160646000Y-37679333D01*
D11*
X97536000Y-68580000D02*
X97536000Y-70104000D01*
X95504000Y-66040000D02*
X97536000Y-68580000D01*
X93980000Y-66040000D02*
X95504000Y-66040000D01*
X93472000Y-69596000D02*
X93980000Y-69088000D01*
X97536000Y-70104000D02*
X97536000Y-74676000D01*
X93980000Y-69088000D02*
X93980000Y-66040000D01*
X96520000Y-70104000D02*
X93980000Y-70104000D01*
X97536000Y-71120000D02*
X96520000Y-70104000D01*
X93472000Y-71120000D02*
X93472000Y-69596000D01*
X93472000Y-74676000D02*
X93472000Y-74168000D01*
X101600000Y-66040000D02*
X101600000Y-74676000D01*
X104648000Y-66040000D02*
X101600000Y-66040000D01*
X106680000Y-68072000D02*
X104648000Y-66040000D01*
X106680000Y-73660000D02*
X106680000Y-68072000D01*
X105664000Y-74676000D02*
X106680000Y-73660000D01*
X102108000Y-74676000D02*
X105664000Y-74676000D01*
X109728000Y-74676000D02*
X113284000Y-74676000D01*
X108712000Y-73660000D02*
X109728000Y-74676000D01*
X108712000Y-68072000D02*
X108712000Y-73660000D01*
X110236000Y-66548000D02*
X108712000Y-68072000D01*
X113284000Y-66548000D02*
X110236000Y-66548000D01*
X93472000Y-74168000D02*
X93472000Y-71120000D01*
X162306000Y-37287200D02*
G75*
G02X162814000Y-37795200I508000J0D01*
G01*
X162814000Y-37795200D02*
X162306000Y-38303200D01*
X162814000Y-38303200D02*
X163322000Y-38303200D01*
X162306000Y-38303200D02*
X162814000Y-38303200D01*
X161798000Y-38303200D02*
X162052000Y-37795200D01*
X161544000Y-37795200D02*
X161798000Y-38303200D01*
X127508000Y-70104000D02*
X126238000Y-71374000D01*
X127762000Y-68580000D02*
X127762000Y-63246000D01*
X129032000Y-69850000D02*
X127762000Y-68580000D01*
X132080000Y-69850000D02*
X129032000Y-69850000D01*
X133604000Y-68326000D02*
X132080000Y-69850000D01*
X133604000Y-63246000D02*
X133604000Y-68326000D01*
X132334000Y-61976000D02*
X133604000Y-63246000D01*
X129032000Y-61976000D02*
X132334000Y-61976000D01*
X127762000Y-63246000D02*
X129032000Y-61976000D01*
X127508000Y-62230000D02*
X125984000Y-60706000D01*
X124524000Y-66048000D02*
X126524000Y-66048000D01*
X130556000Y-60960000D02*
X130556000Y-59436000D01*
X134112000Y-61976000D02*
X135636000Y-60452000D01*
X135636000Y-66040000D02*
X137160000Y-66040000D01*
X133604000Y-70104000D02*
X135128000Y-71628000D01*
X131064000Y-73152000D02*
X131064000Y-71120000D01*
D12*
G36*
X155702000Y-33655000D02*
G01*
X158242000Y-33655000D01*
X158877000Y-32385000D01*
X159512000Y-32385000D01*
X159512000Y-33655000D01*
X158242000Y-34925000D01*
X155702000Y-34925000D01*
X154432000Y-33655000D01*
X154432000Y-32385000D01*
X155067000Y-32385000D01*
X155702000Y-33655000D01*
G37*
X155702000Y-33655000D02*
X158242000Y-33655000D01*
X158877000Y-32385000D01*
X159512000Y-32385000D01*
X159512000Y-33655000D01*
X158242000Y-34925000D01*
X155702000Y-34925000D01*
X154432000Y-33655000D01*
X154432000Y-32385000D01*
X155067000Y-32385000D01*
X155702000Y-33655000D01*
G36*
X159512000Y-31115000D02*
G01*
X158242000Y-31115000D01*
X158242000Y-29845000D01*
X159512000Y-29845000D01*
X159512000Y-31115000D01*
G37*
X159512000Y-31115000D02*
X158242000Y-31115000D01*
X158242000Y-29845000D01*
X159512000Y-29845000D01*
X159512000Y-31115000D01*
G36*
X155702000Y-31115000D02*
G01*
X154432000Y-31115000D01*
X154432000Y-29845000D01*
X155702000Y-29845000D01*
X155702000Y-31115000D01*
G37*
X155702000Y-31115000D02*
X154432000Y-31115000D01*
X154432000Y-29845000D01*
X155702000Y-29845000D01*
X155702000Y-31115000D01*
D11*
X163830000Y-26670000D02*
X163830000Y-29210000D01*
X162702000Y-93266000D02*
X161702000Y-92266000D01*
X161702000Y-94266000D02*
X162702000Y-93266000D01*
X162702000Y-93266000D02*
X161702000Y-94266000D01*
X158702000Y-93266000D02*
X162702000Y-93266000D01*
X147702000Y-97266000D02*
X163702000Y-97266000D01*
X147702000Y-89266000D02*
X147702000Y-97266000D01*
X163702000Y-89266000D02*
X147702000Y-89266000D01*
X163702000Y-90266000D02*
X163702000Y-89266000D01*
X163702000Y-97266000D02*
X163702000Y-90266000D01*
X75140000Y-45539999D02*
X75140000Y-52800000D01*
X75500000Y-45539999D02*
X75140000Y-45539999D01*
X75500000Y-38280000D02*
X75500000Y-45539999D01*
X75140000Y-38280000D02*
X75500000Y-38280000D01*
X75140000Y-31020000D02*
X75140000Y-38280000D01*
X102660000Y-31020000D02*
X75140000Y-31020000D01*
X102660000Y-52800000D02*
X102660000Y-31020000D01*
X75140000Y-52800000D02*
X102660000Y-52800000D01*
X142395000Y-88900001D02*
X142395000Y-53420001D01*
X72235000Y-77866666D02*
X72235000Y-88900000D01*
X72235000Y-64373334D02*
X72235000Y-53420000D01*
X72595000Y-77866666D02*
X72235000Y-77866666D01*
X72595000Y-64373334D02*
X72595000Y-77866666D01*
X72235000Y-64373334D02*
X72595000Y-64373334D01*
X142395000Y-53420001D02*
X72235000Y-53420000D01*
X72235000Y-88900000D02*
X142395000Y-88900001D01*
X126365000Y-99060000D02*
G75*
G03X126365000Y-99060000I-1270000J0D01*
G01*
X126365000Y-101600000D02*
G75*
G03X126365000Y-101600000I-1270000J0D01*
G01*
X139700000Y-109220000D02*
X109220000Y-109220000D01*
X139700000Y-91440000D02*
X139700000Y-109220000D01*
X109220000Y-91440000D02*
X139700000Y-91440000D01*
X109220000Y-99060000D02*
X109220000Y-91440000D01*
X110490000Y-99060000D02*
X109220000Y-99060000D01*
X110490000Y-101600000D02*
X110490000Y-99060000D01*
X109220000Y-101600000D02*
X110490000Y-101600000D01*
X109220000Y-109220000D02*
X109220000Y-101600000D01*
X89581000Y-102362000D02*
X89581000Y-97362000D01*
X95331000Y-102362000D02*
X95331000Y-97362000D01*
X89581000Y-102362000D02*
X95331000Y-102362000D01*
X89581000Y-97362000D02*
X95331000Y-97362000D01*
X133096000Y-50800000D02*
X130556000Y-50800000D01*
X133096000Y-49530000D02*
X133096000Y-50800000D01*
X131826000Y-49530000D02*
X133096000Y-49530000D01*
X131826000Y-46990000D02*
X131826000Y-49530000D01*
X133096000Y-46990000D02*
X131826000Y-46990000D01*
X133096000Y-45720000D02*
X133096000Y-46990000D01*
X130556000Y-45720000D02*
X133096000Y-45720000D01*
X103886000Y-45720000D02*
X130556000Y-45720000D01*
X103886000Y-50800000D02*
X103886000Y-45720000D01*
X130556000Y-50800000D02*
X103886000Y-50800000D01*
X73660000Y-91440000D02*
X76200000Y-91440000D01*
X73660000Y-92710000D02*
X73660000Y-91440000D01*
X74930000Y-92710000D02*
X73660000Y-92710000D01*
X74930000Y-95250000D02*
X74930000Y-92710000D01*
X73660000Y-95250000D02*
X74930000Y-95250000D01*
X73660000Y-96520000D02*
X73660000Y-95250000D01*
X76200000Y-96520000D02*
X73660000Y-96520000D01*
X102870000Y-96520000D02*
X76200000Y-96520000D01*
X102870000Y-91440000D02*
X102870000Y-96520000D01*
X76200000Y-91440000D02*
X102870000Y-91440000D01*
X125430000Y-26924000D02*
X125430000Y-31924000D01*
X119680000Y-26924000D02*
X119680000Y-31924000D01*
X125430000Y-26924000D02*
X119680000Y-26924000D01*
X125430000Y-31924000D02*
X119680000Y-31924000D01*
X133304000Y-26924000D02*
X133304000Y-31924000D01*
X127554000Y-26924000D02*
X127554000Y-31924000D01*
X133304000Y-26924000D02*
X127554000Y-26924000D01*
X133304000Y-31924000D02*
X127554000Y-31924000D01*
X120223000Y-34671000D02*
X120223000Y-39671000D01*
X114473000Y-34671000D02*
X114473000Y-39671000D01*
X120223000Y-34671000D02*
X114473000Y-34671000D01*
X120223000Y-39671000D02*
X114473000Y-39671000D01*
X97582000Y-102362000D02*
X97582000Y-97362000D01*
X103332000Y-102362000D02*
X103332000Y-97362000D01*
X97582000Y-102362000D02*
X103332000Y-102362000D01*
X97582000Y-97362000D02*
X103332000Y-97362000D01*
X73198000Y-102362000D02*
X73198000Y-97362000D01*
X78948000Y-102362000D02*
X78948000Y-97362000D01*
X73198000Y-102362000D02*
X78948000Y-102362000D01*
X73198000Y-97362000D02*
X78948000Y-97362000D01*
X81580000Y-102235000D02*
X81580000Y-97235000D01*
X87330000Y-102235000D02*
X87330000Y-97235000D01*
X81580000Y-102235000D02*
X87330000Y-102235000D01*
X81580000Y-97235000D02*
X87330000Y-97235000D01*
X144780000Y-40640000D02*
X144780000Y-54610000D01*
X162560000Y-40640000D02*
X144780000Y-40640000D01*
X162560000Y-54610000D02*
X162560000Y-40640000D01*
X144780000Y-54610000D02*
X162560000Y-54610000D01*
X157809946Y-52070000D02*
G75*
G03X157809946Y-52070000I-1599946J0D01*
G01*
X157809946Y-43180000D02*
G75*
G03X157809946Y-43180000I-1599946J0D01*
G01*
X135971000Y-34671000D02*
X135971000Y-39671000D01*
X130221000Y-34671000D02*
X130221000Y-39671000D01*
X135971000Y-34671000D02*
X130221000Y-34671000D01*
X135971000Y-39671000D02*
X130221000Y-39671000D01*
X109682000Y-26924000D02*
X109682000Y-31924000D01*
X103932000Y-26924000D02*
X103932000Y-31924000D01*
X109682000Y-26924000D02*
X103932000Y-26924000D01*
X109682000Y-31924000D02*
X103932000Y-31924000D01*
X111968000Y-34671000D02*
X111968000Y-39671000D01*
X106218000Y-34671000D02*
X106218000Y-39671000D01*
X111968000Y-34671000D02*
X106218000Y-34671000D01*
X111968000Y-39671000D02*
X106218000Y-39671000D01*
X117556000Y-26924000D02*
X117556000Y-31924000D01*
X111806000Y-26924000D02*
X111806000Y-31924000D01*
X117556000Y-26924000D02*
X111806000Y-26924000D01*
X117556000Y-31924000D02*
X111806000Y-31924000D01*
X128478000Y-34671000D02*
X128478000Y-39671000D01*
X122728000Y-34671000D02*
X122728000Y-39671000D01*
X128478000Y-34671000D02*
X122728000Y-34671000D01*
X128478000Y-39671000D02*
X122728000Y-39671000D01*
X101773000Y-109220000D02*
X101773000Y-104220000D01*
X107523000Y-109220000D02*
X107523000Y-104220000D01*
X101773000Y-109220000D02*
X107523000Y-109220000D01*
X101773000Y-104220000D02*
X107523000Y-104220000D01*
X93391000Y-109220000D02*
X93391000Y-104220000D01*
X99141000Y-109220000D02*
X99141000Y-104220000D01*
X93391000Y-109220000D02*
X99141000Y-109220000D01*
X93391000Y-104220000D02*
X99141000Y-104220000D01*
X85644000Y-109220000D02*
X85644000Y-104220000D01*
X91394000Y-109220000D02*
X91394000Y-104220000D01*
X85644000Y-109220000D02*
X91394000Y-109220000D01*
X85644000Y-104220000D02*
X91394000Y-104220000D01*
X77389000Y-109220000D02*
X77389000Y-104220000D01*
X83139000Y-109220000D02*
X83139000Y-104220000D01*
X77389000Y-109220000D02*
X83139000Y-109220000D01*
X77389000Y-104220000D02*
X83139000Y-104220000D01*
X155778000Y-99568000D02*
G75*
G03X155778000Y-99568000I-2120000J0D01*
G01*
X108026000Y-101346000D02*
G75*
G03X108026000Y-101346000I-2120000J0D01*
G01*
X107784000Y-94246000D02*
G75*
G03X107784000Y-94246000I-2120000J0D01*
G01*
X130136000Y-43065000D02*
G75*
G03X130136000Y-43065000I-2120000J0D01*
G01*
X150540000Y-57365000D02*
X142540000Y-57365000D01*
X150540000Y-88335000D02*
X142540000Y-88335000D01*
X150078675Y-67310000D02*
X149645662Y-67560000D01*
X149645662Y-67060000D02*
X150078675Y-67310000D01*
X149645662Y-67560000D02*
X149645662Y-67060000D01*
X150540000Y-57365000D02*
X162880000Y-57365000D01*
X142540000Y-88335000D02*
X142540000Y-57365000D01*
X162880000Y-88335000D02*
X150540000Y-88335000D01*
X157400000Y-80310000D02*
X162400000Y-80310000D01*
X162400000Y-80310000D02*
X160400000Y-79310000D01*
X160400000Y-79310000D02*
X162400000Y-80310000D01*
X160400000Y-81310000D02*
X162400000Y-80310000D01*
D10*
X160194666Y-97496380D02*
X160194666Y-98210666D01*
X160147047Y-98353523D01*
X160051809Y-98448761D01*
X159908952Y-98496380D01*
X159813714Y-98496380D01*
X161194666Y-98496380D02*
X160623238Y-98496380D01*
X160908952Y-98496380D02*
X160908952Y-97496380D01*
X160813714Y-97639238D01*
X160718476Y-97734476D01*
X160623238Y-97782095D01*
X76160380Y-42719523D02*
X76874666Y-42719523D01*
X77017523Y-42767142D01*
X77112761Y-42862380D01*
X77160380Y-43005238D01*
X77160380Y-43100476D01*
X76255619Y-42290952D02*
X76208000Y-42243333D01*
X76160380Y-42148095D01*
X76160380Y-41910000D01*
X76208000Y-41814761D01*
X76255619Y-41767142D01*
X76350857Y-41719523D01*
X76446095Y-41719523D01*
X76588952Y-41767142D01*
X77160380Y-42338571D01*
X77160380Y-41719523D01*
X77160380Y-40767142D02*
X77160380Y-41338571D01*
X77160380Y-41052857D02*
X76160380Y-41052857D01*
X76303238Y-41148095D01*
X76398476Y-41243333D01*
X76446095Y-41338571D01*
X72898095Y-32154761D02*
X73040952Y-32202380D01*
X73279047Y-32202380D01*
X73374285Y-32154761D01*
X73421904Y-32107142D01*
X73469523Y-32011904D01*
X73469523Y-31916666D01*
X73421904Y-31821428D01*
X73374285Y-31773809D01*
X73279047Y-31726190D01*
X73088571Y-31678571D01*
X72993333Y-31630952D01*
X72945714Y-31583333D01*
X72898095Y-31488095D01*
X72898095Y-31392857D01*
X72945714Y-31297619D01*
X72993333Y-31250000D01*
X73088571Y-31202380D01*
X73326666Y-31202380D01*
X73469523Y-31250000D01*
X74326666Y-31535714D02*
X74326666Y-32202380D01*
X74088571Y-31154761D02*
X73850476Y-31869047D01*
X74469523Y-31869047D01*
X72644095Y-104798761D02*
X72786952Y-104846380D01*
X73025047Y-104846380D01*
X73120285Y-104798761D01*
X73167904Y-104751142D01*
X73215523Y-104655904D01*
X73215523Y-104560666D01*
X73167904Y-104465428D01*
X73120285Y-104417809D01*
X73025047Y-104370190D01*
X72834571Y-104322571D01*
X72739333Y-104274952D01*
X72691714Y-104227333D01*
X72644095Y-104132095D01*
X72644095Y-104036857D01*
X72691714Y-103941619D01*
X72739333Y-103894000D01*
X72834571Y-103846380D01*
X73072666Y-103846380D01*
X73215523Y-103894000D01*
X73548857Y-103846380D02*
X74167904Y-103846380D01*
X73834571Y-104227333D01*
X73977428Y-104227333D01*
X74072666Y-104274952D01*
X74120285Y-104322571D01*
X74167904Y-104417809D01*
X74167904Y-104655904D01*
X74120285Y-104751142D01*
X74072666Y-104798761D01*
X73977428Y-104846380D01*
X73691714Y-104846380D01*
X73596476Y-104798761D01*
X73548857Y-104751142D01*
X160274095Y-104544761D02*
X160416952Y-104592380D01*
X160655047Y-104592380D01*
X160750285Y-104544761D01*
X160797904Y-104497142D01*
X160845523Y-104401904D01*
X160845523Y-104306666D01*
X160797904Y-104211428D01*
X160750285Y-104163809D01*
X160655047Y-104116190D01*
X160464571Y-104068571D01*
X160369333Y-104020952D01*
X160321714Y-103973333D01*
X160274095Y-103878095D01*
X160274095Y-103782857D01*
X160321714Y-103687619D01*
X160369333Y-103640000D01*
X160464571Y-103592380D01*
X160702666Y-103592380D01*
X160845523Y-103640000D01*
X161226476Y-103687619D02*
X161274095Y-103640000D01*
X161369333Y-103592380D01*
X161607428Y-103592380D01*
X161702666Y-103640000D01*
X161750285Y-103687619D01*
X161797904Y-103782857D01*
X161797904Y-103878095D01*
X161750285Y-104020952D01*
X161178857Y-104592380D01*
X161797904Y-104592380D01*
X160782095Y-32154761D02*
X160924952Y-32202380D01*
X161163047Y-32202380D01*
X161258285Y-32154761D01*
X161305904Y-32107142D01*
X161353523Y-32011904D01*
X161353523Y-31916666D01*
X161305904Y-31821428D01*
X161258285Y-31773809D01*
X161163047Y-31726190D01*
X160972571Y-31678571D01*
X160877333Y-31630952D01*
X160829714Y-31583333D01*
X160782095Y-31488095D01*
X160782095Y-31392857D01*
X160829714Y-31297619D01*
X160877333Y-31250000D01*
X160972571Y-31202380D01*
X161210666Y-31202380D01*
X161353523Y-31250000D01*
X162305904Y-32202380D02*
X161734476Y-32202380D01*
X162020190Y-32202380D02*
X162020190Y-31202380D01*
X161924952Y-31345238D01*
X161829714Y-31440476D01*
X161734476Y-31488095D01*
X73620380Y-71929523D02*
X74334666Y-71929523D01*
X74477523Y-71977142D01*
X74572761Y-72072380D01*
X74620380Y-72215238D01*
X74620380Y-72310476D01*
X74620380Y-70929523D02*
X74620380Y-71500952D01*
X74620380Y-71215238D02*
X73620380Y-71215238D01*
X73763238Y-71310476D01*
X73858476Y-71405714D01*
X73906095Y-71500952D01*
X73620380Y-70310476D02*
X73620380Y-70215238D01*
X73668000Y-70120000D01*
X73715619Y-70072380D01*
X73810857Y-70024761D01*
X74001333Y-69977142D01*
X74239428Y-69977142D01*
X74429904Y-70024761D01*
X74525142Y-70072380D01*
X74572761Y-70120000D01*
X74620380Y-70215238D01*
X74620380Y-70310476D01*
X74572761Y-70405714D01*
X74525142Y-70453333D01*
X74429904Y-70500952D01*
X74239428Y-70548571D01*
X74001333Y-70548571D01*
X73810857Y-70500952D01*
X73715619Y-70453333D01*
X73668000Y-70405714D01*
X73620380Y-70310476D01*
X111212380Y-101139523D02*
X111926666Y-101139523D01*
X112069523Y-101187142D01*
X112164761Y-101282380D01*
X112212380Y-101425238D01*
X112212380Y-101520476D01*
X111307619Y-100710952D02*
X111260000Y-100663333D01*
X111212380Y-100568095D01*
X111212380Y-100330000D01*
X111260000Y-100234761D01*
X111307619Y-100187142D01*
X111402857Y-100139523D01*
X111498095Y-100139523D01*
X111640952Y-100187142D01*
X112212380Y-100758571D01*
X112212380Y-100139523D01*
X111212380Y-99520476D02*
X111212380Y-99425238D01*
X111260000Y-99330000D01*
X111307619Y-99282380D01*
X111402857Y-99234761D01*
X111593333Y-99187142D01*
X111831428Y-99187142D01*
X112021904Y-99234761D01*
X112117142Y-99282380D01*
X112164761Y-99330000D01*
X112212380Y-99425238D01*
X112212380Y-99520476D01*
X112164761Y-99615714D01*
X112117142Y-99663333D01*
X112021904Y-99710952D01*
X111831428Y-99758571D01*
X111593333Y-99758571D01*
X111402857Y-99710952D01*
X111307619Y-99663333D01*
X111260000Y-99615714D01*
X111212380Y-99520476D01*
X91400380Y-102441333D02*
X92114666Y-102441333D01*
X92257523Y-102488952D01*
X92352761Y-102584190D01*
X92400380Y-102727047D01*
X92400380Y-102822285D01*
X91400380Y-101536571D02*
X91400380Y-101727047D01*
X91448000Y-101822285D01*
X91495619Y-101869904D01*
X91638476Y-101965142D01*
X91828952Y-102012761D01*
X92209904Y-102012761D01*
X92305142Y-101965142D01*
X92352761Y-101917523D01*
X92400380Y-101822285D01*
X92400380Y-101631809D01*
X92352761Y-101536571D01*
X92305142Y-101488952D01*
X92209904Y-101441333D01*
X91971809Y-101441333D01*
X91876571Y-101488952D01*
X91828952Y-101536571D01*
X91781333Y-101631809D01*
X91781333Y-101822285D01*
X91828952Y-101917523D01*
X91876571Y-101965142D01*
X91971809Y-102012761D01*
X133818380Y-49021904D02*
X134627904Y-49021904D01*
X134723142Y-48974285D01*
X134770761Y-48926666D01*
X134818380Y-48831428D01*
X134818380Y-48640952D01*
X134770761Y-48545714D01*
X134723142Y-48498095D01*
X134627904Y-48450476D01*
X133818380Y-48450476D01*
X133913619Y-48021904D02*
X133866000Y-47974285D01*
X133818380Y-47879047D01*
X133818380Y-47640952D01*
X133866000Y-47545714D01*
X133913619Y-47498095D01*
X134008857Y-47450476D01*
X134104095Y-47450476D01*
X134246952Y-47498095D01*
X134818380Y-48069523D01*
X134818380Y-47450476D01*
X71842380Y-94741904D02*
X72651904Y-94741904D01*
X72747142Y-94694285D01*
X72794761Y-94646666D01*
X72842380Y-94551428D01*
X72842380Y-94360952D01*
X72794761Y-94265714D01*
X72747142Y-94218095D01*
X72651904Y-94170476D01*
X71842380Y-94170476D01*
X72842380Y-93170476D02*
X72842380Y-93741904D01*
X72842380Y-93456190D02*
X71842380Y-93456190D01*
X71985238Y-93551428D01*
X72080476Y-93646666D01*
X72128095Y-93741904D01*
X121880380Y-34083523D02*
X122594666Y-34083523D01*
X122737523Y-34131142D01*
X122832761Y-34226380D01*
X122880380Y-34369238D01*
X122880380Y-34464476D01*
X122880380Y-33083523D02*
X122880380Y-33654952D01*
X122880380Y-33369238D02*
X121880380Y-33369238D01*
X122023238Y-33464476D01*
X122118476Y-33559714D01*
X122166095Y-33654952D01*
X121880380Y-32178761D02*
X121880380Y-32654952D01*
X122356571Y-32702571D01*
X122308952Y-32654952D01*
X122261333Y-32559714D01*
X122261333Y-32321619D01*
X122308952Y-32226380D01*
X122356571Y-32178761D01*
X122451809Y-32131142D01*
X122689904Y-32131142D01*
X122785142Y-32178761D01*
X122832761Y-32226380D01*
X122880380Y-32321619D01*
X122880380Y-32559714D01*
X122832761Y-32654952D01*
X122785142Y-32702571D01*
X130008380Y-34083523D02*
X130722666Y-34083523D01*
X130865523Y-34131142D01*
X130960761Y-34226380D01*
X131008380Y-34369238D01*
X131008380Y-34464476D01*
X131008380Y-33083523D02*
X131008380Y-33654952D01*
X131008380Y-33369238D02*
X130008380Y-33369238D01*
X130151238Y-33464476D01*
X130246476Y-33559714D01*
X130294095Y-33654952D01*
X130008380Y-32750190D02*
X130008380Y-32131142D01*
X130389333Y-32464476D01*
X130389333Y-32321619D01*
X130436952Y-32226380D01*
X130484571Y-32178761D01*
X130579809Y-32131142D01*
X130817904Y-32131142D01*
X130913142Y-32178761D01*
X130960761Y-32226380D01*
X131008380Y-32321619D01*
X131008380Y-32607333D01*
X130960761Y-32702571D01*
X130913142Y-32750190D01*
X117181380Y-41957523D02*
X117895666Y-41957523D01*
X118038523Y-42005142D01*
X118133761Y-42100380D01*
X118181380Y-42243238D01*
X118181380Y-42338476D01*
X118181380Y-40957523D02*
X118181380Y-41528952D01*
X118181380Y-41243238D02*
X117181380Y-41243238D01*
X117324238Y-41338476D01*
X117419476Y-41433714D01*
X117467095Y-41528952D01*
X117181380Y-40100380D02*
X117181380Y-40290857D01*
X117229000Y-40386095D01*
X117276619Y-40433714D01*
X117419476Y-40528952D01*
X117609952Y-40576571D01*
X117990904Y-40576571D01*
X118086142Y-40528952D01*
X118133761Y-40481333D01*
X118181380Y-40386095D01*
X118181380Y-40195619D01*
X118133761Y-40100380D01*
X118086142Y-40052761D01*
X117990904Y-40005142D01*
X117752809Y-40005142D01*
X117657571Y-40052761D01*
X117609952Y-40100380D01*
X117562333Y-40195619D01*
X117562333Y-40386095D01*
X117609952Y-40481333D01*
X117657571Y-40528952D01*
X117752809Y-40576571D01*
X100036380Y-102441333D02*
X100750666Y-102441333D01*
X100893523Y-102488952D01*
X100988761Y-102584190D01*
X101036380Y-102727047D01*
X101036380Y-102822285D01*
X100464952Y-101822285D02*
X100417333Y-101917523D01*
X100369714Y-101965142D01*
X100274476Y-102012761D01*
X100226857Y-102012761D01*
X100131619Y-101965142D01*
X100084000Y-101917523D01*
X100036380Y-101822285D01*
X100036380Y-101631809D01*
X100084000Y-101536571D01*
X100131619Y-101488952D01*
X100226857Y-101441333D01*
X100274476Y-101441333D01*
X100369714Y-101488952D01*
X100417333Y-101536571D01*
X100464952Y-101631809D01*
X100464952Y-101822285D01*
X100512571Y-101917523D01*
X100560190Y-101965142D01*
X100655428Y-102012761D01*
X100845904Y-102012761D01*
X100941142Y-101965142D01*
X100988761Y-101917523D01*
X101036380Y-101822285D01*
X101036380Y-101631809D01*
X100988761Y-101536571D01*
X100941142Y-101488952D01*
X100845904Y-101441333D01*
X100655428Y-101441333D01*
X100560190Y-101488952D01*
X100512571Y-101536571D01*
X100464952Y-101631809D01*
X76160380Y-102441333D02*
X76874666Y-102441333D01*
X77017523Y-102488952D01*
X77112761Y-102584190D01*
X77160380Y-102727047D01*
X77160380Y-102822285D01*
X76255619Y-102012761D02*
X76208000Y-101965142D01*
X76160380Y-101869904D01*
X76160380Y-101631809D01*
X76208000Y-101536571D01*
X76255619Y-101488952D01*
X76350857Y-101441333D01*
X76446095Y-101441333D01*
X76588952Y-101488952D01*
X77160380Y-102060380D01*
X77160380Y-101441333D01*
X84288380Y-102441333D02*
X85002666Y-102441333D01*
X85145523Y-102488952D01*
X85240761Y-102584190D01*
X85288380Y-102727047D01*
X85288380Y-102822285D01*
X84621714Y-101536571D02*
X85288380Y-101536571D01*
X84240761Y-101774666D02*
X84955047Y-102012761D01*
X84955047Y-101393714D01*
X143462380Y-45259523D02*
X144176666Y-45259523D01*
X144319523Y-45307142D01*
X144414761Y-45402380D01*
X144462380Y-45545238D01*
X144462380Y-45640476D01*
X144462380Y-44259523D02*
X144462380Y-44830952D01*
X144462380Y-44545238D02*
X143462380Y-44545238D01*
X143605238Y-44640476D01*
X143700476Y-44735714D01*
X143748095Y-44830952D01*
X144462380Y-43307142D02*
X144462380Y-43878571D01*
X144462380Y-43592857D02*
X143462380Y-43592857D01*
X143605238Y-43688095D01*
X143700476Y-43783333D01*
X143748095Y-43878571D01*
X131151380Y-41957523D02*
X131865666Y-41957523D01*
X132008523Y-42005142D01*
X132103761Y-42100380D01*
X132151380Y-42243238D01*
X132151380Y-42338476D01*
X132151380Y-40957523D02*
X132151380Y-41528952D01*
X132151380Y-41243238D02*
X131151380Y-41243238D01*
X131294238Y-41338476D01*
X131389476Y-41433714D01*
X131437095Y-41528952D01*
X131246619Y-40576571D02*
X131199000Y-40528952D01*
X131151380Y-40433714D01*
X131151380Y-40195619D01*
X131199000Y-40100380D01*
X131246619Y-40052761D01*
X131341857Y-40005142D01*
X131437095Y-40005142D01*
X131579952Y-40052761D01*
X132151380Y-40624190D01*
X132151380Y-40005142D01*
X106386380Y-34337523D02*
X107100666Y-34337523D01*
X107243523Y-34385142D01*
X107338761Y-34480380D01*
X107386380Y-34623238D01*
X107386380Y-34718476D01*
X107386380Y-33337523D02*
X107386380Y-33908952D01*
X107386380Y-33623238D02*
X106386380Y-33623238D01*
X106529238Y-33718476D01*
X106624476Y-33813714D01*
X106672095Y-33908952D01*
X107386380Y-32861333D02*
X107386380Y-32670857D01*
X107338761Y-32575619D01*
X107291142Y-32528000D01*
X107148285Y-32432761D01*
X106957809Y-32385142D01*
X106576857Y-32385142D01*
X106481619Y-32432761D01*
X106434000Y-32480380D01*
X106386380Y-32575619D01*
X106386380Y-32766095D01*
X106434000Y-32861333D01*
X106481619Y-32908952D01*
X106576857Y-32956571D01*
X106814952Y-32956571D01*
X106910190Y-32908952D01*
X106957809Y-32861333D01*
X107005428Y-32766095D01*
X107005428Y-32575619D01*
X106957809Y-32480380D01*
X106910190Y-32432761D01*
X106814952Y-32385142D01*
X108799380Y-42465523D02*
X109513666Y-42465523D01*
X109656523Y-42513142D01*
X109751761Y-42608380D01*
X109799380Y-42751238D01*
X109799380Y-42846476D01*
X109799380Y-41465523D02*
X109799380Y-42036952D01*
X109799380Y-41751238D02*
X108799380Y-41751238D01*
X108942238Y-41846476D01*
X109037476Y-41941714D01*
X109085095Y-42036952D01*
X109227952Y-40894095D02*
X109180333Y-40989333D01*
X109132714Y-41036952D01*
X109037476Y-41084571D01*
X108989857Y-41084571D01*
X108894619Y-41036952D01*
X108847000Y-40989333D01*
X108799380Y-40894095D01*
X108799380Y-40703619D01*
X108847000Y-40608380D01*
X108894619Y-40560761D01*
X108989857Y-40513142D01*
X109037476Y-40513142D01*
X109132714Y-40560761D01*
X109180333Y-40608380D01*
X109227952Y-40703619D01*
X109227952Y-40894095D01*
X109275571Y-40989333D01*
X109323190Y-41036952D01*
X109418428Y-41084571D01*
X109608904Y-41084571D01*
X109704142Y-41036952D01*
X109751761Y-40989333D01*
X109799380Y-40894095D01*
X109799380Y-40703619D01*
X109751761Y-40608380D01*
X109704142Y-40560761D01*
X109608904Y-40513142D01*
X109418428Y-40513142D01*
X109323190Y-40560761D01*
X109275571Y-40608380D01*
X109227952Y-40703619D01*
X114633380Y-34083523D02*
X115347666Y-34083523D01*
X115490523Y-34131142D01*
X115585761Y-34226380D01*
X115633380Y-34369238D01*
X115633380Y-34464476D01*
X115633380Y-33083523D02*
X115633380Y-33654952D01*
X115633380Y-33369238D02*
X114633380Y-33369238D01*
X114776238Y-33464476D01*
X114871476Y-33559714D01*
X114919095Y-33654952D01*
X114633380Y-32750190D02*
X114633380Y-32083523D01*
X115633380Y-32512095D01*
X125182380Y-41957523D02*
X125896666Y-41957523D01*
X126039523Y-42005142D01*
X126134761Y-42100380D01*
X126182380Y-42243238D01*
X126182380Y-42338476D01*
X126182380Y-40957523D02*
X126182380Y-41528952D01*
X126182380Y-41243238D02*
X125182380Y-41243238D01*
X125325238Y-41338476D01*
X125420476Y-41433714D01*
X125468095Y-41528952D01*
X125515714Y-40100380D02*
X126182380Y-40100380D01*
X125134761Y-40338476D02*
X125849047Y-40576571D01*
X125849047Y-39957523D01*
X104100380Y-104981333D02*
X104814666Y-104981333D01*
X104957523Y-105028952D01*
X105052761Y-105124190D01*
X105100380Y-105267047D01*
X105100380Y-105362285D01*
X105100380Y-104457523D02*
X105100380Y-104267047D01*
X105052761Y-104171809D01*
X105005142Y-104124190D01*
X104862285Y-104028952D01*
X104671809Y-103981333D01*
X104290857Y-103981333D01*
X104195619Y-104028952D01*
X104148000Y-104076571D01*
X104100380Y-104171809D01*
X104100380Y-104362285D01*
X104148000Y-104457523D01*
X104195619Y-104505142D01*
X104290857Y-104552761D01*
X104528952Y-104552761D01*
X104624190Y-104505142D01*
X104671809Y-104457523D01*
X104719428Y-104362285D01*
X104719428Y-104171809D01*
X104671809Y-104076571D01*
X104624190Y-104028952D01*
X104528952Y-103981333D01*
X95972380Y-104473333D02*
X96686666Y-104473333D01*
X96829523Y-104520952D01*
X96924761Y-104616190D01*
X96972380Y-104759047D01*
X96972380Y-104854285D01*
X95972380Y-104092380D02*
X95972380Y-103425714D01*
X96972380Y-103854285D01*
X88352380Y-104981333D02*
X89066666Y-104981333D01*
X89209523Y-105028952D01*
X89304761Y-105124190D01*
X89352380Y-105267047D01*
X89352380Y-105362285D01*
X88352380Y-104028952D02*
X88352380Y-104505142D01*
X88828571Y-104552761D01*
X88780952Y-104505142D01*
X88733333Y-104409904D01*
X88733333Y-104171809D01*
X88780952Y-104076571D01*
X88828571Y-104028952D01*
X88923809Y-103981333D01*
X89161904Y-103981333D01*
X89257142Y-104028952D01*
X89304761Y-104076571D01*
X89352380Y-104171809D01*
X89352380Y-104409904D01*
X89304761Y-104505142D01*
X89257142Y-104552761D01*
X79716380Y-104981333D02*
X80430666Y-104981333D01*
X80573523Y-105028952D01*
X80668761Y-105124190D01*
X80716380Y-105267047D01*
X80716380Y-105362285D01*
X79716380Y-104600380D02*
X79716380Y-103981333D01*
X80097333Y-104314666D01*
X80097333Y-104171809D01*
X80144952Y-104076571D01*
X80192571Y-104028952D01*
X80287809Y-103981333D01*
X80525904Y-103981333D01*
X80621142Y-104028952D01*
X80668761Y-104076571D01*
X80716380Y-104171809D01*
X80716380Y-104457523D01*
X80668761Y-104552761D01*
X80621142Y-104600380D01*
X157567333Y-99671142D02*
X157519714Y-99718761D01*
X157376857Y-99766380D01*
X157281619Y-99766380D01*
X157138761Y-99718761D01*
X157043523Y-99623523D01*
X156995904Y-99528285D01*
X156948285Y-99337809D01*
X156948285Y-99194952D01*
X156995904Y-99004476D01*
X157043523Y-98909238D01*
X157138761Y-98814000D01*
X157281619Y-98766380D01*
X157376857Y-98766380D01*
X157519714Y-98814000D01*
X157567333Y-98861619D01*
X158519714Y-99766380D02*
X157948285Y-99766380D01*
X158234000Y-99766380D02*
X158234000Y-98766380D01*
X158138761Y-98909238D01*
X158043523Y-99004476D01*
X157948285Y-99052095D01*
X105739333Y-98453142D02*
X105691714Y-98500761D01*
X105548857Y-98548380D01*
X105453619Y-98548380D01*
X105310761Y-98500761D01*
X105215523Y-98405523D01*
X105167904Y-98310285D01*
X105120285Y-98119809D01*
X105120285Y-97976952D01*
X105167904Y-97786476D01*
X105215523Y-97691238D01*
X105310761Y-97596000D01*
X105453619Y-97548380D01*
X105548857Y-97548380D01*
X105691714Y-97596000D01*
X105739333Y-97643619D01*
X106120285Y-97643619D02*
X106167904Y-97596000D01*
X106263142Y-97548380D01*
X106501238Y-97548380D01*
X106596476Y-97596000D01*
X106644095Y-97643619D01*
X106691714Y-97738857D01*
X106691714Y-97834095D01*
X106644095Y-97976952D01*
X106072666Y-98548380D01*
X106691714Y-98548380D01*
X104497142Y-94654666D02*
X104544761Y-94702285D01*
X104592380Y-94845142D01*
X104592380Y-94940380D01*
X104544761Y-95083238D01*
X104449523Y-95178476D01*
X104354285Y-95226095D01*
X104163809Y-95273714D01*
X104020952Y-95273714D01*
X103830476Y-95226095D01*
X103735238Y-95178476D01*
X103640000Y-95083238D01*
X103592380Y-94940380D01*
X103592380Y-94845142D01*
X103640000Y-94702285D01*
X103687619Y-94654666D01*
X103592380Y-94321333D02*
X103592380Y-93702285D01*
X103973333Y-94035619D01*
X103973333Y-93892761D01*
X104020952Y-93797523D01*
X104068571Y-93749904D01*
X104163809Y-93702285D01*
X104401904Y-93702285D01*
X104497142Y-93749904D01*
X104544761Y-93797523D01*
X104592380Y-93892761D01*
X104592380Y-94178476D01*
X104544761Y-94273714D01*
X104497142Y-94321333D01*
X128373142Y-40171666D02*
X128420761Y-40219285D01*
X128468380Y-40362142D01*
X128468380Y-40457380D01*
X128420761Y-40600238D01*
X128325523Y-40695476D01*
X128230285Y-40743095D01*
X128039809Y-40790714D01*
X127896952Y-40790714D01*
X127706476Y-40743095D01*
X127611238Y-40695476D01*
X127516000Y-40600238D01*
X127468380Y-40457380D01*
X127468380Y-40362142D01*
X127516000Y-40219285D01*
X127563619Y-40171666D01*
X127801714Y-39314523D02*
X128468380Y-39314523D01*
X127420761Y-39552619D02*
X128135047Y-39790714D01*
X128135047Y-39171666D01*
X149052380Y-73659523D02*
X149766666Y-73659523D01*
X149909523Y-73707142D01*
X150004761Y-73802380D01*
X150052380Y-73945238D01*
X150052380Y-74040476D01*
X149147619Y-73230952D02*
X149100000Y-73183333D01*
X149052380Y-73088095D01*
X149052380Y-72850000D01*
X149100000Y-72754761D01*
X149147619Y-72707142D01*
X149242857Y-72659523D01*
X149338095Y-72659523D01*
X149480952Y-72707142D01*
X150052380Y-73278571D01*
X150052380Y-72659523D01*
X149147619Y-72278571D02*
X149100000Y-72230952D01*
X149052380Y-72135714D01*
X149052380Y-71897619D01*
X149100000Y-71802380D01*
X149147619Y-71754761D01*
X149242857Y-71707142D01*
X149338095Y-71707142D01*
X149480952Y-71754761D01*
X150052380Y-72326190D01*
X150052380Y-71707142D01*
M02*
