G04 #@! TF.GenerationSoftware,KiCad,Pcbnew,5.1.2-f72e74a~84~ubuntu18.04.1*
G04 #@! TF.CreationDate,2019-06-07T12:08:10-04:00*
G04 #@! TF.ProjectId,temperature board,74656d70-6572-4617-9475-726520626f61,v01*
G04 #@! TF.SameCoordinates,Original*
G04 #@! TF.FileFunction,Copper,L1,Top*
G04 #@! TF.FilePolarity,Positive*
%FSLAX46Y46*%
G04 Gerber Fmt 4.6, Leading zero omitted, Abs format (unit mm)*
G04 Created by KiCad (PCBNEW 5.1.2-f72e74a~84~ubuntu18.04.1) date 2019-06-07 12:08:10*
%MOMM*%
%LPD*%
G04 APERTURE LIST*
%ADD10C,1.524000*%
%ADD11O,1.200000X2.000000*%
%ADD12C,1.600000*%
%ADD13C,4.000000*%
%ADD14R,1.600000X1.600000*%
%ADD15R,1.100000X4.100000*%
%ADD16R,1.000000X3.100000*%
%ADD17O,2.000000X1.200000*%
%ADD18C,3.175000*%
%ADD19C,1.200000*%
%ADD20C,0.800000*%
%ADD21C,0.508000*%
%ADD22C,0.250000*%
%ADD23C,0.254000*%
G04 APERTURE END LIST*
D10*
X106172000Y-64389000D03*
X108712000Y-64389000D03*
X111252000Y-64389000D03*
X113792000Y-64389000D03*
X116332000Y-64389000D03*
X118872000Y-64389000D03*
X121412000Y-64389000D03*
X123952000Y-64389000D03*
X126492000Y-64389000D03*
X129032000Y-64389000D03*
X131572000Y-64389000D03*
X134112000Y-64389000D03*
X136652000Y-64389000D03*
X139192000Y-64389000D03*
X141732000Y-64389000D03*
X144272000Y-64389000D03*
X146812000Y-64389000D03*
X149352000Y-64389000D03*
X151892000Y-64389000D03*
X154432000Y-64389000D03*
X156972000Y-64389000D03*
X159512000Y-64389000D03*
X162052000Y-64389000D03*
X167132000Y-64389000D03*
X164592000Y-64389000D03*
X167132000Y-92329000D03*
X164592000Y-92329000D03*
X162052000Y-92329000D03*
X159512000Y-92329000D03*
X156972000Y-92329000D03*
X154432000Y-92329000D03*
X151892000Y-92329000D03*
X149352000Y-92329000D03*
X146812000Y-92329000D03*
X144272000Y-92329000D03*
X141732000Y-92329000D03*
X139192000Y-92329000D03*
X136652000Y-92329000D03*
X134112000Y-92329000D03*
X131572000Y-92329000D03*
X129032000Y-92329000D03*
X126492000Y-92329000D03*
X123952000Y-92329000D03*
X121412000Y-92329000D03*
X118872000Y-92329000D03*
X116332000Y-92329000D03*
X113792000Y-92329000D03*
X111252000Y-92329000D03*
X108712000Y-92329000D03*
D11*
X106172000Y-92329000D03*
D12*
X180976000Y-65484000D03*
X180976000Y-68254000D03*
X183816000Y-64099000D03*
X180976000Y-62714000D03*
D13*
X183816000Y-52984000D03*
D12*
X183816000Y-61329000D03*
D14*
X180976000Y-59944000D03*
D12*
X180976000Y-71024000D03*
X183816000Y-66869000D03*
D13*
X183816000Y-77984000D03*
D12*
X183816000Y-69639000D03*
D13*
X191816000Y-52984000D03*
X191816000Y-77984000D03*
D12*
X191816000Y-69639000D03*
X191816000Y-66869000D03*
X191816000Y-64099000D03*
X191816000Y-61329000D03*
X188976000Y-71024000D03*
X188976000Y-68254000D03*
X188976000Y-65484000D03*
X188976000Y-62714000D03*
D14*
X188976000Y-59944000D03*
D15*
X184373000Y-114935000D03*
D16*
X190373000Y-114935000D03*
D10*
X106426000Y-108966000D03*
X104140000Y-108966000D03*
X166751000Y-50927000D03*
X169037000Y-50927000D03*
D17*
X179578000Y-106172000D03*
X197358000Y-106172000D03*
X179578000Y-103632000D03*
X197358000Y-103632000D03*
X179578000Y-101092000D03*
X197358000Y-101092000D03*
X179578000Y-98552000D03*
X197358000Y-98552000D03*
X179578000Y-96012000D03*
X197358000Y-96012000D03*
X179578000Y-93472000D03*
X197358000Y-93472000D03*
X179578000Y-90932000D03*
X197358000Y-90932000D03*
X179578000Y-88392000D03*
X197358000Y-88392000D03*
X179578000Y-85852000D03*
X197358000Y-85852000D03*
D10*
X171577000Y-119380000D03*
X169037000Y-119380000D03*
X166497000Y-119380000D03*
X163957000Y-119380000D03*
X161417000Y-119380000D03*
X158877000Y-119380000D03*
X156337000Y-119380000D03*
X153797000Y-119380000D03*
X151257000Y-119380000D03*
X148717000Y-119380000D03*
X146177000Y-119380000D03*
X146177000Y-104140000D03*
X148717000Y-104140000D03*
X151257000Y-104140000D03*
X153797000Y-104140000D03*
X156337000Y-104140000D03*
X158877000Y-104140000D03*
X161417000Y-104140000D03*
X163957000Y-104140000D03*
X166497000Y-104140000D03*
X169037000Y-104140000D03*
X171577000Y-104140000D03*
X143637000Y-119380000D03*
X143637000Y-104140000D03*
X150368000Y-50927000D03*
X152654000Y-50927000D03*
X134747000Y-100965000D03*
X132207000Y-100965000D03*
X129667000Y-100965000D03*
X127127000Y-100965000D03*
X124587000Y-100965000D03*
X122047000Y-100965000D03*
X119507000Y-100965000D03*
X116967000Y-100965000D03*
X114427000Y-100965000D03*
X111887000Y-100965000D03*
X138557000Y-57023000D03*
X141097000Y-57023000D03*
X143637000Y-57023000D03*
X146177000Y-57023000D03*
X148717000Y-57023000D03*
X151257000Y-57023000D03*
X153797000Y-57023000D03*
X156337000Y-57023000D03*
X158877000Y-57023000D03*
X161417000Y-57023000D03*
X118237000Y-116713000D03*
X115951000Y-116713000D03*
X110363000Y-116713000D03*
X108077000Y-116713000D03*
X122174000Y-108966000D03*
X119888000Y-108966000D03*
X142367000Y-50927000D03*
X144653000Y-50927000D03*
X158369000Y-51054000D03*
X160655000Y-51054000D03*
D18*
X193040000Y-46228000D03*
X193040000Y-37338000D03*
D10*
X186690000Y-43688000D03*
X184150000Y-44958000D03*
X184150000Y-42418000D03*
X186690000Y-41148000D03*
X184150000Y-39878000D03*
X186690000Y-38608000D03*
X133985000Y-116713000D03*
X131699000Y-116713000D03*
X130429000Y-108966000D03*
X128143000Y-108966000D03*
X124841000Y-116713000D03*
X122555000Y-116713000D03*
X113919000Y-108966000D03*
X111633000Y-108966000D03*
X138176000Y-44069000D03*
X140462000Y-44069000D03*
X146558000Y-44069000D03*
X148844000Y-44069000D03*
X154305000Y-44069000D03*
X156591000Y-44069000D03*
X162560000Y-44069000D03*
X164846000Y-44069000D03*
D19*
X177800000Y-119864000D03*
X177800000Y-118364000D03*
X165608000Y-100584000D03*
X164108000Y-100584000D03*
X167640000Y-56031000D03*
X167640000Y-57531000D03*
X105283000Y-98933000D03*
X105283000Y-100433000D03*
D20*
X155956000Y-82804000D03*
D21*
X164592000Y-92329000D02*
X173609000Y-83312000D01*
X173609000Y-83312000D02*
X184404000Y-83312000D01*
X194564000Y-93472000D02*
X197358000Y-93472000D01*
X184404000Y-83312000D02*
X194564000Y-93472000D01*
X171704000Y-52832000D02*
X171704000Y-47752000D01*
X171704000Y-47752000D02*
X165608000Y-41656000D01*
X107388001Y-63913317D02*
X107388001Y-98244001D01*
X165608000Y-41656000D02*
X129645318Y-41656000D01*
X129645318Y-41656000D02*
X107388001Y-63913317D01*
D22*
X165608000Y-103251000D02*
X166497000Y-104140000D01*
X165608000Y-100584000D02*
X165608000Y-103251000D01*
D21*
X167096999Y-58130999D02*
X166497000Y-57531000D01*
X171704000Y-52832000D02*
X170688000Y-53848000D01*
X102108000Y-105156000D02*
X104140000Y-103124000D01*
X106680000Y-118872000D02*
X102108000Y-114300000D01*
X135128000Y-118872000D02*
X106680000Y-118872000D01*
X137668000Y-116332000D02*
X135128000Y-118872000D01*
X152765989Y-93995011D02*
X147304989Y-93995011D01*
X154432000Y-92329000D02*
X152765989Y-93995011D01*
X102108000Y-114300000D02*
X102108000Y-105156000D01*
X147304989Y-93995011D02*
X146812000Y-94488000D01*
X146812000Y-94488000D02*
X142748000Y-94488000D01*
X142748000Y-94488000D02*
X137668000Y-99568000D01*
X137668000Y-99568000D02*
X137668000Y-116332000D01*
D22*
X168275001Y-50165001D02*
X169037000Y-50927000D01*
X167949999Y-49839999D02*
X168275001Y-50165001D01*
X166060001Y-49839999D02*
X167949999Y-49839999D01*
X158877000Y-57023000D02*
X166060001Y-49839999D01*
X158115001Y-57784999D02*
X158877000Y-57023000D01*
X158115001Y-59816999D02*
X158115001Y-57784999D01*
X159131001Y-60832999D02*
X158115001Y-59816999D01*
X161035999Y-60832999D02*
X159131001Y-60832999D01*
X164592000Y-64389000D02*
X161035999Y-60832999D01*
X156337000Y-61214000D02*
X159512000Y-64389000D01*
X156337000Y-57023000D02*
X156337000Y-61214000D01*
X164846000Y-48514000D02*
X164846000Y-44069000D01*
X156337000Y-57023000D02*
X164846000Y-48514000D01*
X154432000Y-57658000D02*
X153797000Y-57023000D01*
X154432000Y-64389000D02*
X154432000Y-57658000D01*
X154686000Y-57023000D02*
X153797000Y-57023000D01*
X160655000Y-51054000D02*
X154686000Y-57023000D01*
X149352000Y-58928000D02*
X149352000Y-64389000D01*
X151257000Y-57023000D02*
X149352000Y-58928000D01*
X156591000Y-51689000D02*
X156591000Y-44069000D01*
X151257000Y-57023000D02*
X156591000Y-51689000D01*
X148717000Y-54864000D02*
X148717000Y-57023000D01*
X152654000Y-50927000D02*
X148717000Y-54864000D01*
X148717000Y-57404000D02*
X148717000Y-57023000D01*
X141732000Y-64389000D02*
X148717000Y-57404000D01*
X146177000Y-46736000D02*
X146177000Y-57023000D01*
X148844000Y-44069000D02*
X146177000Y-46736000D01*
X137583238Y-64389000D02*
X141520238Y-60452000D01*
X136652000Y-64389000D02*
X137583238Y-64389000D01*
X142748000Y-60452000D02*
X146177000Y-57023000D01*
X141520238Y-60452000D02*
X142748000Y-60452000D01*
X143637000Y-51943000D02*
X144653000Y-50927000D01*
X143637000Y-57023000D02*
X143637000Y-51943000D01*
X142875001Y-57784999D02*
X143637000Y-57023000D01*
X133985000Y-61976000D02*
X136144000Y-61976000D01*
X131572000Y-64389000D02*
X133985000Y-61976000D01*
X138684000Y-59436000D02*
X141224000Y-59436000D01*
X136144000Y-61976000D02*
X138684000Y-59436000D01*
X141224000Y-59436000D02*
X142875001Y-57784999D01*
X127253999Y-63627001D02*
X126492000Y-64389000D01*
X132770999Y-58110001D02*
X127253999Y-63627001D01*
X140009999Y-58110001D02*
X132770999Y-58110001D01*
X141097000Y-57023000D02*
X140009999Y-58110001D01*
X140462000Y-56388000D02*
X141097000Y-57023000D01*
X140462000Y-44069000D02*
X140462000Y-56388000D01*
X131699000Y-101473000D02*
X132207000Y-100965000D01*
X131699000Y-116713000D02*
X131699000Y-101473000D01*
X146812000Y-92329000D02*
X145724999Y-93416001D01*
X134112000Y-99060000D02*
X132207000Y-100965000D01*
X134112000Y-99060000D02*
X136652000Y-99060000D01*
X142295999Y-93416001D02*
X144216001Y-93416001D01*
X136652000Y-99060000D02*
X142295999Y-93416001D01*
X145724999Y-93416001D02*
X144216001Y-93416001D01*
X144216001Y-93416001D02*
X143819999Y-93416001D01*
X128143000Y-102489000D02*
X129667000Y-100965000D01*
X128143000Y-108966000D02*
X128143000Y-102489000D01*
X140970001Y-93090999D02*
X141732000Y-92329000D01*
X135451010Y-98609990D02*
X140970001Y-93090999D01*
X132022010Y-98609990D02*
X135451010Y-98609990D01*
X129667000Y-100965000D02*
X132022010Y-98609990D01*
X123316999Y-115951001D02*
X122555000Y-116713000D01*
X126365001Y-112902999D02*
X123316999Y-115951001D01*
X126365001Y-101726999D02*
X126365001Y-112902999D01*
X127127000Y-100965000D02*
X126365001Y-101726999D01*
X133667500Y-94424500D02*
X134556500Y-94424500D01*
X127127000Y-100965000D02*
X133667500Y-94424500D01*
X136652000Y-92329000D02*
X134556500Y-94424500D01*
X119888000Y-105664000D02*
X124587000Y-100965000D01*
X119888000Y-108966000D02*
X119888000Y-105664000D01*
X124587000Y-99314000D02*
X131572000Y-92329000D01*
X124587000Y-100965000D02*
X124587000Y-99314000D01*
X115951000Y-107061000D02*
X115951000Y-116713000D01*
X122047000Y-100965000D02*
X115951000Y-107061000D01*
X123952000Y-99060000D02*
X122047000Y-100965000D01*
X123952000Y-92329000D02*
X123952000Y-99060000D01*
X119507000Y-101092000D02*
X119507000Y-100965000D01*
X111633000Y-108966000D02*
X119507000Y-101092000D01*
X119507000Y-92964000D02*
X118872000Y-92329000D01*
X119507000Y-100965000D02*
X119507000Y-92964000D01*
X127825500Y-73342500D02*
X146494500Y-73342500D01*
X127825500Y-73342500D02*
X128143000Y-73660000D01*
X146494500Y-73342500D02*
X155956000Y-82804000D01*
X118872000Y-64389000D02*
X127825500Y-73342500D01*
X117093999Y-65150999D02*
X116332000Y-64389000D01*
X163139001Y-91807239D02*
X163139001Y-92850761D01*
X146261762Y-74930000D02*
X163139001Y-91807239D01*
X126873000Y-74930000D02*
X146261762Y-74930000D01*
X126555500Y-74612500D02*
X117093999Y-65150999D01*
X163139001Y-92850761D02*
X157945762Y-98044000D01*
X126873000Y-74930000D02*
X126555500Y-74612500D01*
X152273000Y-98044000D02*
X146177000Y-104140000D01*
X157945762Y-98044000D02*
X152273000Y-98044000D01*
X108077000Y-110932630D02*
X108077000Y-116713000D01*
X116967000Y-100965000D02*
X116967000Y-102042630D01*
X116967000Y-102042630D02*
X108077000Y-110932630D01*
X116967000Y-97155000D02*
X113792000Y-93980000D01*
X116967000Y-100965000D02*
X116967000Y-97155000D01*
X113792000Y-92329000D02*
X113792000Y-93980000D01*
X160599001Y-91807239D02*
X152103762Y-83312000D01*
X160599001Y-92850761D02*
X160599001Y-91807239D01*
X156929762Y-96520000D02*
X160599001Y-92850761D01*
X143637000Y-104140000D02*
X151257000Y-96520000D01*
X151257000Y-96520000D02*
X156929762Y-96520000D01*
X132715000Y-83312000D02*
X126047500Y-76644500D01*
X152103762Y-83312000D02*
X132715000Y-83312000D01*
X126492000Y-77089000D02*
X126047500Y-76644500D01*
X126047500Y-76644500D02*
X113792000Y-64389000D01*
X111252000Y-64389000D02*
X131318000Y-84455000D01*
X158059001Y-91807239D02*
X150706762Y-84455000D01*
X158059001Y-92850761D02*
X158059001Y-91807239D01*
X150706762Y-84455000D02*
X131318000Y-84455000D01*
X157966881Y-92942881D02*
X158059001Y-92850761D01*
X143637000Y-116205000D02*
X143637000Y-119380000D01*
X139700000Y-112268000D02*
X143637000Y-116205000D01*
X157966881Y-92942881D02*
X155405762Y-95504000D01*
X155405762Y-95504000D02*
X150368000Y-95504000D01*
X148844000Y-97028000D02*
X143256000Y-97028000D01*
X143256000Y-97028000D02*
X139700000Y-100584000D01*
X139700000Y-100584000D02*
X139700000Y-112268000D01*
X150368000Y-95504000D02*
X148844000Y-97028000D01*
X113665001Y-101726999D02*
X114427000Y-100965000D01*
X105227001Y-107878999D02*
X107513001Y-107878999D01*
X107513001Y-107878999D02*
X113665001Y-101726999D01*
X104140000Y-108966000D02*
X105227001Y-107878999D01*
X114427000Y-100965000D02*
X114427000Y-97155000D01*
X111696500Y-94424500D02*
X110807500Y-94424500D01*
X114427000Y-97155000D02*
X111696500Y-94424500D01*
X110807500Y-94424500D02*
X108712000Y-92329000D01*
X129228010Y-84905010D02*
X108712000Y-64389000D01*
X130048000Y-85852000D02*
X129228010Y-85032010D01*
X149860000Y-85852000D02*
X130048000Y-85852000D01*
X129228010Y-85032010D02*
X129228010Y-84905010D01*
X155680881Y-92688881D02*
X155680881Y-91672881D01*
X153431753Y-94938009D02*
X155680881Y-92688881D01*
X147320000Y-95504000D02*
X147885991Y-94938009D01*
X146177000Y-119380000D02*
X145089999Y-120467001D01*
X145089999Y-120467001D02*
X143115239Y-120467001D01*
X143115239Y-120467001D02*
X138684000Y-116035762D01*
X138684000Y-116035762D02*
X138684000Y-100076000D01*
X155680881Y-91672881D02*
X149860000Y-85852000D01*
X147885991Y-94938009D02*
X153431753Y-94938009D01*
X138684000Y-100076000D02*
X143256000Y-95504000D01*
X143256000Y-95504000D02*
X147320000Y-95504000D01*
X188176001Y-66283999D02*
X188976000Y-65484000D01*
X187850999Y-66609001D02*
X188176001Y-66283999D01*
X196108000Y-85852000D02*
X187850999Y-77594999D01*
X197358000Y-85852000D02*
X196108000Y-85852000D01*
X185559001Y-66946999D02*
X184096002Y-65484000D01*
X184096002Y-65484000D02*
X182107370Y-65484000D01*
X187850999Y-66946999D02*
X187850999Y-66609001D01*
X182107370Y-65484000D02*
X180976000Y-65484000D01*
X187850999Y-66946999D02*
X185559001Y-66946999D01*
X187850999Y-77594999D02*
X187850999Y-66946999D01*
X190101001Y-58883999D02*
X190101001Y-64358999D01*
X187777001Y-56559999D02*
X190101001Y-58883999D01*
X190101001Y-64358999D02*
X189775999Y-64684001D01*
X187777001Y-42235001D02*
X187777001Y-56559999D01*
X189775999Y-64684001D02*
X188976000Y-65484000D01*
X186690000Y-41148000D02*
X187777001Y-42235001D01*
X182107370Y-68254000D02*
X180976000Y-68254000D01*
X186141001Y-80965001D02*
X186141001Y-70298999D01*
X184096002Y-68254000D02*
X182107370Y-68254000D01*
X196108000Y-90932000D02*
X186141001Y-80965001D01*
X186141001Y-70298999D02*
X184096002Y-68254000D01*
X197358000Y-90932000D02*
X196108000Y-90932000D01*
X183535998Y-62714000D02*
X187844630Y-62714000D01*
X181890999Y-64358999D02*
X183535998Y-62714000D01*
X180435999Y-64358999D02*
X181890999Y-64358999D01*
X179850999Y-64943999D02*
X180435999Y-64358999D01*
X187844630Y-62714000D02*
X188976000Y-62714000D01*
X179850999Y-67128999D02*
X179850999Y-64943999D01*
X180976000Y-68254000D02*
X179850999Y-67128999D01*
X186690000Y-60428000D02*
X186690000Y-43688000D01*
X188976000Y-62714000D02*
X186690000Y-60428000D01*
X179178000Y-90932000D02*
X179578000Y-90932000D01*
X167949999Y-102160001D02*
X179178000Y-90932000D01*
X167949999Y-104661761D02*
X167949999Y-102160001D01*
X168515239Y-105227001D02*
X167949999Y-104661761D01*
X170489999Y-105227001D02*
X168515239Y-105227001D01*
X171577000Y-104140000D02*
X170489999Y-105227001D01*
X177165000Y-96012000D02*
X179578000Y-96012000D01*
X169037000Y-104140000D02*
X177165000Y-96012000D01*
X179178000Y-101092000D02*
X179578000Y-101092000D01*
X161977001Y-118292999D02*
X179178000Y-101092000D01*
X149804001Y-118292999D02*
X161977001Y-118292999D01*
X148717000Y-119380000D02*
X149804001Y-118292999D01*
D23*
G36*
X170942000Y-59817000D02*
G01*
X160274000Y-59817000D01*
X160274000Y-57988565D01*
X160631040Y-57988565D01*
X160698020Y-58228656D01*
X160947048Y-58345756D01*
X161214135Y-58412023D01*
X161489017Y-58424910D01*
X161761133Y-58383922D01*
X161769897Y-58380764D01*
X166969841Y-58380764D01*
X167017148Y-58604348D01*
X167238516Y-58705237D01*
X167475313Y-58761000D01*
X167718438Y-58769495D01*
X167958549Y-58730395D01*
X168186418Y-58645202D01*
X168262852Y-58604348D01*
X168310159Y-58380764D01*
X167640000Y-57710605D01*
X166969841Y-58380764D01*
X161769897Y-58380764D01*
X162020023Y-58290636D01*
X162135980Y-58228656D01*
X162202960Y-57988565D01*
X161417000Y-57202605D01*
X160631040Y-57988565D01*
X160274000Y-57988565D01*
X160274000Y-57759460D01*
X160451435Y-57808960D01*
X161237395Y-57023000D01*
X161596605Y-57023000D01*
X162382565Y-57808960D01*
X162622656Y-57741980D01*
X162684980Y-57609438D01*
X166401505Y-57609438D01*
X166440605Y-57849549D01*
X166525798Y-58077418D01*
X166566652Y-58153852D01*
X166790236Y-58201159D01*
X167460395Y-57531000D01*
X167446253Y-57516858D01*
X167625858Y-57337253D01*
X167640000Y-57351395D01*
X167654143Y-57337253D01*
X167833748Y-57516858D01*
X167819605Y-57531000D01*
X168489764Y-58201159D01*
X168713348Y-58153852D01*
X168814237Y-57932484D01*
X168870000Y-57695687D01*
X168878495Y-57452562D01*
X168839395Y-57212451D01*
X168754202Y-56984582D01*
X168713348Y-56908148D01*
X168545021Y-56872533D01*
X168599287Y-56818267D01*
X168734443Y-56615992D01*
X168827540Y-56391236D01*
X168875000Y-56152637D01*
X168875000Y-55909363D01*
X168827540Y-55670764D01*
X168734443Y-55446008D01*
X168599287Y-55243733D01*
X168427267Y-55071713D01*
X168224992Y-54936557D01*
X168000236Y-54843460D01*
X167761637Y-54796000D01*
X167518363Y-54796000D01*
X167279764Y-54843460D01*
X167055008Y-54936557D01*
X166852733Y-55071713D01*
X166680713Y-55243733D01*
X166545557Y-55446008D01*
X166452460Y-55670764D01*
X166405000Y-55909363D01*
X166405000Y-56152637D01*
X166452460Y-56391236D01*
X166545557Y-56615992D01*
X166680713Y-56818267D01*
X166734979Y-56872533D01*
X166566652Y-56908148D01*
X166465763Y-57129516D01*
X166410000Y-57366313D01*
X166401505Y-57609438D01*
X162684980Y-57609438D01*
X162739756Y-57492952D01*
X162806023Y-57225865D01*
X162818910Y-56950983D01*
X162777922Y-56678867D01*
X162684636Y-56419977D01*
X162622656Y-56304020D01*
X162382565Y-56237040D01*
X161596605Y-57023000D01*
X161237395Y-57023000D01*
X161223253Y-57008858D01*
X161402858Y-56829253D01*
X161417000Y-56843395D01*
X162202960Y-56057435D01*
X162135980Y-55817344D01*
X161886952Y-55700244D01*
X161619865Y-55633977D01*
X161353321Y-55621481D01*
X163634802Y-53340000D01*
X170942000Y-53340000D01*
X170942000Y-59817000D01*
X170942000Y-59817000D01*
G37*
X170942000Y-59817000D02*
X160274000Y-59817000D01*
X160274000Y-57988565D01*
X160631040Y-57988565D01*
X160698020Y-58228656D01*
X160947048Y-58345756D01*
X161214135Y-58412023D01*
X161489017Y-58424910D01*
X161761133Y-58383922D01*
X161769897Y-58380764D01*
X166969841Y-58380764D01*
X167017148Y-58604348D01*
X167238516Y-58705237D01*
X167475313Y-58761000D01*
X167718438Y-58769495D01*
X167958549Y-58730395D01*
X168186418Y-58645202D01*
X168262852Y-58604348D01*
X168310159Y-58380764D01*
X167640000Y-57710605D01*
X166969841Y-58380764D01*
X161769897Y-58380764D01*
X162020023Y-58290636D01*
X162135980Y-58228656D01*
X162202960Y-57988565D01*
X161417000Y-57202605D01*
X160631040Y-57988565D01*
X160274000Y-57988565D01*
X160274000Y-57759460D01*
X160451435Y-57808960D01*
X161237395Y-57023000D01*
X161596605Y-57023000D01*
X162382565Y-57808960D01*
X162622656Y-57741980D01*
X162684980Y-57609438D01*
X166401505Y-57609438D01*
X166440605Y-57849549D01*
X166525798Y-58077418D01*
X166566652Y-58153852D01*
X166790236Y-58201159D01*
X167460395Y-57531000D01*
X167446253Y-57516858D01*
X167625858Y-57337253D01*
X167640000Y-57351395D01*
X167654143Y-57337253D01*
X167833748Y-57516858D01*
X167819605Y-57531000D01*
X168489764Y-58201159D01*
X168713348Y-58153852D01*
X168814237Y-57932484D01*
X168870000Y-57695687D01*
X168878495Y-57452562D01*
X168839395Y-57212451D01*
X168754202Y-56984582D01*
X168713348Y-56908148D01*
X168545021Y-56872533D01*
X168599287Y-56818267D01*
X168734443Y-56615992D01*
X168827540Y-56391236D01*
X168875000Y-56152637D01*
X168875000Y-55909363D01*
X168827540Y-55670764D01*
X168734443Y-55446008D01*
X168599287Y-55243733D01*
X168427267Y-55071713D01*
X168224992Y-54936557D01*
X168000236Y-54843460D01*
X167761637Y-54796000D01*
X167518363Y-54796000D01*
X167279764Y-54843460D01*
X167055008Y-54936557D01*
X166852733Y-55071713D01*
X166680713Y-55243733D01*
X166545557Y-55446008D01*
X166452460Y-55670764D01*
X166405000Y-55909363D01*
X166405000Y-56152637D01*
X166452460Y-56391236D01*
X166545557Y-56615992D01*
X166680713Y-56818267D01*
X166734979Y-56872533D01*
X166566652Y-56908148D01*
X166465763Y-57129516D01*
X166410000Y-57366313D01*
X166401505Y-57609438D01*
X162684980Y-57609438D01*
X162739756Y-57492952D01*
X162806023Y-57225865D01*
X162818910Y-56950983D01*
X162777922Y-56678867D01*
X162684636Y-56419977D01*
X162622656Y-56304020D01*
X162382565Y-56237040D01*
X161596605Y-57023000D01*
X161237395Y-57023000D01*
X161223253Y-57008858D01*
X161402858Y-56829253D01*
X161417000Y-56843395D01*
X162202960Y-56057435D01*
X162135980Y-55817344D01*
X161886952Y-55700244D01*
X161619865Y-55633977D01*
X161353321Y-55621481D01*
X163634802Y-53340000D01*
X170942000Y-53340000D01*
X170942000Y-59817000D01*
G36*
X113157000Y-96959802D02*
G01*
X113157000Y-100368538D01*
X113154636Y-100361977D01*
X113092656Y-100246020D01*
X112852565Y-100179040D01*
X112066605Y-100965000D01*
X112080748Y-100979143D01*
X111901143Y-101158748D01*
X111887000Y-101144605D01*
X111101040Y-101930565D01*
X111168020Y-102170656D01*
X111417048Y-102287756D01*
X111684135Y-102354023D01*
X111950679Y-102366519D01*
X110177198Y-104140000D01*
X102997000Y-104140000D01*
X102997000Y-99011438D01*
X104044505Y-99011438D01*
X104083605Y-99251549D01*
X104168798Y-99479418D01*
X104209652Y-99555852D01*
X104377979Y-99591467D01*
X104323713Y-99645733D01*
X104188557Y-99848008D01*
X104095460Y-100072764D01*
X104048000Y-100311363D01*
X104048000Y-100554637D01*
X104095460Y-100793236D01*
X104188557Y-101017992D01*
X104323713Y-101220267D01*
X104495733Y-101392287D01*
X104698008Y-101527443D01*
X104922764Y-101620540D01*
X105161363Y-101668000D01*
X105404637Y-101668000D01*
X105643236Y-101620540D01*
X105867992Y-101527443D01*
X106070267Y-101392287D01*
X106242287Y-101220267D01*
X106364730Y-101037017D01*
X110485090Y-101037017D01*
X110526078Y-101309133D01*
X110619364Y-101568023D01*
X110681344Y-101683980D01*
X110921435Y-101750960D01*
X111707395Y-100965000D01*
X110921435Y-100179040D01*
X110681344Y-100246020D01*
X110564244Y-100495048D01*
X110497977Y-100762135D01*
X110485090Y-101037017D01*
X106364730Y-101037017D01*
X106377443Y-101017992D01*
X106470540Y-100793236D01*
X106518000Y-100554637D01*
X106518000Y-100311363D01*
X106470540Y-100072764D01*
X106440167Y-99999435D01*
X111101040Y-99999435D01*
X111887000Y-100785395D01*
X112672960Y-99999435D01*
X112605980Y-99759344D01*
X112356952Y-99642244D01*
X112089865Y-99575977D01*
X111814983Y-99563090D01*
X111542867Y-99604078D01*
X111283977Y-99697364D01*
X111168020Y-99759344D01*
X111101040Y-99999435D01*
X106440167Y-99999435D01*
X106377443Y-99848008D01*
X106242287Y-99645733D01*
X106188021Y-99591467D01*
X106356348Y-99555852D01*
X106457237Y-99334484D01*
X106513000Y-99097687D01*
X106521495Y-98854562D01*
X106482395Y-98614451D01*
X106397202Y-98386582D01*
X106356348Y-98310148D01*
X106132764Y-98262841D01*
X105462605Y-98933000D01*
X105476748Y-98947143D01*
X105297143Y-99126748D01*
X105283000Y-99112605D01*
X105268858Y-99126748D01*
X105089253Y-98947143D01*
X105103395Y-98933000D01*
X104433236Y-98262841D01*
X104209652Y-98310148D01*
X104108763Y-98531516D01*
X104053000Y-98768313D01*
X104044505Y-99011438D01*
X102997000Y-99011438D01*
X102997000Y-98083236D01*
X104612841Y-98083236D01*
X105283000Y-98753395D01*
X105953159Y-98083236D01*
X105905852Y-97859652D01*
X105684484Y-97758763D01*
X105447687Y-97703000D01*
X105204562Y-97694505D01*
X104964451Y-97733605D01*
X104736582Y-97818798D01*
X104660148Y-97859652D01*
X104612841Y-98083236D01*
X102997000Y-98083236D01*
X102997000Y-96901000D01*
X113098198Y-96901000D01*
X113157000Y-96959802D01*
X113157000Y-96959802D01*
G37*
X113157000Y-96959802D02*
X113157000Y-100368538D01*
X113154636Y-100361977D01*
X113092656Y-100246020D01*
X112852565Y-100179040D01*
X112066605Y-100965000D01*
X112080748Y-100979143D01*
X111901143Y-101158748D01*
X111887000Y-101144605D01*
X111101040Y-101930565D01*
X111168020Y-102170656D01*
X111417048Y-102287756D01*
X111684135Y-102354023D01*
X111950679Y-102366519D01*
X110177198Y-104140000D01*
X102997000Y-104140000D01*
X102997000Y-99011438D01*
X104044505Y-99011438D01*
X104083605Y-99251549D01*
X104168798Y-99479418D01*
X104209652Y-99555852D01*
X104377979Y-99591467D01*
X104323713Y-99645733D01*
X104188557Y-99848008D01*
X104095460Y-100072764D01*
X104048000Y-100311363D01*
X104048000Y-100554637D01*
X104095460Y-100793236D01*
X104188557Y-101017992D01*
X104323713Y-101220267D01*
X104495733Y-101392287D01*
X104698008Y-101527443D01*
X104922764Y-101620540D01*
X105161363Y-101668000D01*
X105404637Y-101668000D01*
X105643236Y-101620540D01*
X105867992Y-101527443D01*
X106070267Y-101392287D01*
X106242287Y-101220267D01*
X106364730Y-101037017D01*
X110485090Y-101037017D01*
X110526078Y-101309133D01*
X110619364Y-101568023D01*
X110681344Y-101683980D01*
X110921435Y-101750960D01*
X111707395Y-100965000D01*
X110921435Y-100179040D01*
X110681344Y-100246020D01*
X110564244Y-100495048D01*
X110497977Y-100762135D01*
X110485090Y-101037017D01*
X106364730Y-101037017D01*
X106377443Y-101017992D01*
X106470540Y-100793236D01*
X106518000Y-100554637D01*
X106518000Y-100311363D01*
X106470540Y-100072764D01*
X106440167Y-99999435D01*
X111101040Y-99999435D01*
X111887000Y-100785395D01*
X112672960Y-99999435D01*
X112605980Y-99759344D01*
X112356952Y-99642244D01*
X112089865Y-99575977D01*
X111814983Y-99563090D01*
X111542867Y-99604078D01*
X111283977Y-99697364D01*
X111168020Y-99759344D01*
X111101040Y-99999435D01*
X106440167Y-99999435D01*
X106377443Y-99848008D01*
X106242287Y-99645733D01*
X106188021Y-99591467D01*
X106356348Y-99555852D01*
X106457237Y-99334484D01*
X106513000Y-99097687D01*
X106521495Y-98854562D01*
X106482395Y-98614451D01*
X106397202Y-98386582D01*
X106356348Y-98310148D01*
X106132764Y-98262841D01*
X105462605Y-98933000D01*
X105476748Y-98947143D01*
X105297143Y-99126748D01*
X105283000Y-99112605D01*
X105268858Y-99126748D01*
X105089253Y-98947143D01*
X105103395Y-98933000D01*
X104433236Y-98262841D01*
X104209652Y-98310148D01*
X104108763Y-98531516D01*
X104053000Y-98768313D01*
X104044505Y-99011438D01*
X102997000Y-99011438D01*
X102997000Y-98083236D01*
X104612841Y-98083236D01*
X105283000Y-98753395D01*
X105953159Y-98083236D01*
X105905852Y-97859652D01*
X105684484Y-97758763D01*
X105447687Y-97703000D01*
X105204562Y-97694505D01*
X104964451Y-97733605D01*
X104736582Y-97818798D01*
X104660148Y-97859652D01*
X104612841Y-98083236D01*
X102997000Y-98083236D01*
X102997000Y-96901000D01*
X113098198Y-96901000D01*
X113157000Y-96959802D01*
M02*
