M48
; DRILL file {KiCad 5.1.2-f72e74a~84~ubuntu18.04.1} date Tue 04 Jun 2019 02:03:30 PM EDT
; FORMAT={-:-/ absolute / inch / decimal}
; #@! TF.CreationDate,2019-06-04T14:03:30-04:00
; #@! TF.GenerationSoftware,Kicad,Pcbnew,5.1.2-f72e74a~84~ubuntu18.04.1
; #@! TF.FileFunction,Plated,1,2,PTH
FMAT,2
INCH
T1C0.0157
T2C0.0236
T3C0.0300
T4C0.0315
T5C0.0394
T6C0.0394
T7C0.0433
T8C0.1220
T9C0.1250
%
G90
G05
T1
X2.97Y-2.09
X3.48Y-3.47
T2
X5.42Y-1.8809
X5.42Y-1.94
X4.1509Y-3.99
X4.21Y-3.99
X3.05Y-3.67
X3.05Y-3.7291
X6.02Y-3.92
X6.0791Y-3.92
T3
X5.8Y-1.8
X5.8Y-1.9
X5.8Y-2.0
X5.9Y-1.75
X5.9Y-1.85
X5.9Y-1.95
X4.35Y-3.64
X4.35Y-4.24
X4.45Y-3.64
X4.45Y-4.24
X4.55Y-3.64
X4.55Y-4.24
X4.65Y-3.64
X4.65Y-4.24
X4.75Y-3.64
X4.75Y-4.24
X4.85Y-3.64
X4.85Y-4.24
X4.95Y-3.64
X4.95Y-4.24
X5.05Y-3.64
X5.05Y-4.24
X5.15Y-3.64
X5.15Y-4.24
X5.25Y-3.64
X5.25Y-4.24
X5.35Y-3.64
X5.35Y-4.24
X5.45Y-3.64
X5.45Y-4.24
T4
X5.425Y-2.3
T5
X4.575Y-1.465
X4.665Y-1.465
X4.25Y-1.465
X4.34Y-1.465
X4.9Y-1.465
X4.99Y-1.465
X3.595Y-3.93
X3.685Y-3.93
X4.47Y-1.16
X4.56Y-1.16
X4.78Y-1.16
X4.87Y-1.16
X5.195Y-1.465
X5.285Y-1.465
X3.115Y-4.2
X3.205Y-4.2
X3.745Y-4.2
X3.835Y-4.2
X3.28Y-3.925
X3.37Y-3.925
X3.44Y-4.2
X3.53Y-4.2
X5.09Y-1.16
X5.18Y-1.16
X4.075Y-4.2
X4.165Y-4.2
X4.16Y-1.16
X4.25Y-1.16
X3.91Y-3.93
X4.0Y-3.93
X2.95Y-3.93
X3.04Y-3.93
T6
X3.025Y-2.3
X3.025Y-3.4
X3.125Y-2.3
X3.125Y-3.4
X3.225Y-2.3
X3.225Y-3.4
X3.325Y-2.3
X3.325Y-3.4
X3.425Y-2.3
X3.425Y-3.4
X3.525Y-2.3
X3.525Y-3.4
X3.625Y-2.3
X3.625Y-3.4
X3.725Y-2.3
X3.725Y-3.4
X3.825Y-2.3
X3.825Y-3.4
X3.925Y-2.3
X3.925Y-3.4
X4.025Y-2.3
X4.025Y-3.4
X4.125Y-2.3
X4.125Y-3.4
X4.225Y-2.3
X4.225Y-3.4
X4.325Y-2.3
X4.325Y-3.4
X4.425Y-2.3
X4.425Y-3.4
X4.525Y-2.3
X4.525Y-3.4
X4.625Y-2.3
X4.625Y-3.4
X4.725Y-2.3
X4.725Y-3.4
X4.825Y-2.3
X4.825Y-3.4
X4.925Y-2.3
X4.925Y-3.4
X5.025Y-2.3
X5.025Y-3.4
X5.125Y-2.3
X5.125Y-3.4
X5.225Y-2.3
X5.225Y-3.4
X5.325Y-2.3
X5.325Y-3.4
X5.425Y-3.4
X3.25Y-3.69
X3.35Y-3.69
X3.45Y-3.69
X3.55Y-3.69
X3.65Y-3.69
X3.75Y-3.69
X3.85Y-3.69
X3.95Y-3.69
X4.05Y-3.69
X4.15Y-3.69
X4.19Y-1.9
X4.29Y-1.9
X4.39Y-1.9
X4.49Y-1.9
X4.59Y-1.9
X4.69Y-1.9
X4.79Y-1.9
X4.89Y-1.9
X4.99Y-1.9
X5.09Y-1.9
X3.1Y-1.3
X3.1Y-2.0
X3.2Y-1.3
X3.2Y-2.0
X3.3Y-1.3
X3.3Y-2.0
X3.4Y-1.3
X3.4Y-2.0
X3.5Y-1.3
X3.5Y-2.0
X3.6Y-1.3
X3.6Y-2.0
X3.7Y-1.3
X3.7Y-2.0
X3.8Y-1.3
X3.8Y-2.0
X3.9Y-1.3
X3.9Y-2.0
T7
X5.685Y-2.65
X5.685Y-2.7591
X5.685Y-2.8681
X5.685Y-2.9772
X5.685Y-3.0862
X5.7969Y-2.7045
X5.7969Y-2.8136
X5.7969Y-2.9226
X5.7969Y-3.0317
X6.0Y-2.65
X6.0Y-2.7591
X6.0Y-2.8681
X6.0Y-2.9772
X6.0Y-3.0862
X6.1118Y-2.7045
X6.1118Y-2.8136
X6.1118Y-2.9226
X6.1118Y-3.0317
T8
X5.7969Y-2.376
X5.7969Y-3.3602
X6.1118Y-2.376
X6.1118Y-3.3602
T9
X6.15Y-1.7
X6.15Y-2.05
T6
G00X5.8938Y-3.7291
M15
G01X5.8938Y-3.6109
M16
G05
G00X6.13Y-3.7094
M15
G01X6.13Y-3.6306
M16
G05
T0
M30
