G04 #@! TF.GenerationSoftware,KiCad,Pcbnew,5.1.2-f72e74a~84~ubuntu18.04.1*
G04 #@! TF.CreationDate,2019-06-05T15:18:55-04:00*
G04 #@! TF.ProjectId,temperature board,74656d70-6572-4617-9475-726520626f61,v01*
G04 #@! TF.SameCoordinates,Original*
G04 #@! TF.FileFunction,Legend,Top*
G04 #@! TF.FilePolarity,Positive*
%FSLAX46Y46*%
G04 Gerber Fmt 4.6, Leading zero omitted, Abs format (unit mm)*
G04 Created by KiCad (PCBNEW 5.1.2-f72e74a~84~ubuntu18.04.1) date 2019-06-05 15:18:55*
%MOMM*%
%LPD*%
G04 APERTURE LIST*
%ADD10C,0.150000*%
%ADD11C,0.120000*%
G04 APERTURE END LIST*
D10*
X74288142Y-38520714D02*
X74669095Y-38520714D01*
X74431000Y-38187380D02*
X74431000Y-39044523D01*
X74478619Y-39139761D01*
X74573857Y-39187380D01*
X74669095Y-39187380D01*
X75383380Y-39139761D02*
X75288142Y-39187380D01*
X75097666Y-39187380D01*
X75002428Y-39139761D01*
X74954809Y-39044523D01*
X74954809Y-38663571D01*
X75002428Y-38568333D01*
X75097666Y-38520714D01*
X75288142Y-38520714D01*
X75383380Y-38568333D01*
X75431000Y-38663571D01*
X75431000Y-38758809D01*
X74954809Y-38854047D01*
X75859571Y-39187380D02*
X75859571Y-38520714D01*
X75859571Y-38615952D02*
X75907190Y-38568333D01*
X76002428Y-38520714D01*
X76145285Y-38520714D01*
X76240523Y-38568333D01*
X76288142Y-38663571D01*
X76288142Y-39187380D01*
X76288142Y-38663571D02*
X76335761Y-38568333D01*
X76431000Y-38520714D01*
X76573857Y-38520714D01*
X76669095Y-38568333D01*
X76716714Y-38663571D01*
X76716714Y-39187380D01*
X77192904Y-38520714D02*
X77192904Y-39520714D01*
X77192904Y-38568333D02*
X77288142Y-38520714D01*
X77478619Y-38520714D01*
X77573857Y-38568333D01*
X77621476Y-38615952D01*
X77669095Y-38711190D01*
X77669095Y-38996904D01*
X77621476Y-39092142D01*
X77573857Y-39139761D01*
X77478619Y-39187380D01*
X77288142Y-39187380D01*
X77192904Y-39139761D01*
X79288142Y-39139761D02*
X79192904Y-39187380D01*
X79002428Y-39187380D01*
X78907190Y-39139761D01*
X78859571Y-39092142D01*
X78811952Y-38996904D01*
X78811952Y-38711190D01*
X78859571Y-38615952D01*
X78907190Y-38568333D01*
X79002428Y-38520714D01*
X79192904Y-38520714D01*
X79288142Y-38568333D01*
X80145285Y-39187380D02*
X80145285Y-38663571D01*
X80097666Y-38568333D01*
X80002428Y-38520714D01*
X79811952Y-38520714D01*
X79716714Y-38568333D01*
X80145285Y-39139761D02*
X80050047Y-39187380D01*
X79811952Y-39187380D01*
X79716714Y-39139761D01*
X79669095Y-39044523D01*
X79669095Y-38949285D01*
X79716714Y-38854047D01*
X79811952Y-38806428D01*
X80050047Y-38806428D01*
X80145285Y-38758809D01*
X80764333Y-39187380D02*
X80669095Y-39139761D01*
X80621476Y-39044523D01*
X80621476Y-38187380D01*
X81145285Y-39187380D02*
X81145285Y-38520714D01*
X81145285Y-38187380D02*
X81097666Y-38235000D01*
X81145285Y-38282619D01*
X81192904Y-38235000D01*
X81145285Y-38187380D01*
X81145285Y-38282619D01*
X81621476Y-39187380D02*
X81621476Y-38187380D01*
X81621476Y-38568333D02*
X81716714Y-38520714D01*
X81907190Y-38520714D01*
X82002428Y-38568333D01*
X82050047Y-38615952D01*
X82097666Y-38711190D01*
X82097666Y-38996904D01*
X82050047Y-39092142D01*
X82002428Y-39139761D01*
X81907190Y-39187380D01*
X81716714Y-39187380D01*
X81621476Y-39139761D01*
X82526238Y-39187380D02*
X82526238Y-38520714D01*
X82526238Y-38711190D02*
X82573857Y-38615952D01*
X82621476Y-38568333D01*
X82716714Y-38520714D01*
X82811952Y-38520714D01*
X83573857Y-39187380D02*
X83573857Y-38663571D01*
X83526238Y-38568333D01*
X83431000Y-38520714D01*
X83240523Y-38520714D01*
X83145285Y-38568333D01*
X83573857Y-39139761D02*
X83478619Y-39187380D01*
X83240523Y-39187380D01*
X83145285Y-39139761D01*
X83097666Y-39044523D01*
X83097666Y-38949285D01*
X83145285Y-38854047D01*
X83240523Y-38806428D01*
X83478619Y-38806428D01*
X83573857Y-38758809D01*
X83907190Y-38520714D02*
X84288142Y-38520714D01*
X84050047Y-38187380D02*
X84050047Y-39044523D01*
X84097666Y-39139761D01*
X84192904Y-39187380D01*
X84288142Y-39187380D01*
X84621476Y-39187380D02*
X84621476Y-38520714D01*
X84621476Y-38187380D02*
X84573857Y-38235000D01*
X84621476Y-38282619D01*
X84669095Y-38235000D01*
X84621476Y-38187380D01*
X84621476Y-38282619D01*
X85240523Y-39187380D02*
X85145285Y-39139761D01*
X85097666Y-39092142D01*
X85050047Y-38996904D01*
X85050047Y-38711190D01*
X85097666Y-38615952D01*
X85145285Y-38568333D01*
X85240523Y-38520714D01*
X85383380Y-38520714D01*
X85478619Y-38568333D01*
X85526238Y-38615952D01*
X85573857Y-38711190D01*
X85573857Y-38996904D01*
X85526238Y-39092142D01*
X85478619Y-39139761D01*
X85383380Y-39187380D01*
X85240523Y-39187380D01*
X86002428Y-38520714D02*
X86002428Y-39187380D01*
X86002428Y-38615952D02*
X86050047Y-38568333D01*
X86145285Y-38520714D01*
X86288142Y-38520714D01*
X86383380Y-38568333D01*
X86431000Y-38663571D01*
X86431000Y-39187380D01*
X87669095Y-39187380D02*
X87669095Y-38187380D01*
X87669095Y-38568333D02*
X87764333Y-38520714D01*
X87954809Y-38520714D01*
X88050047Y-38568333D01*
X88097666Y-38615952D01*
X88145285Y-38711190D01*
X88145285Y-38996904D01*
X88097666Y-39092142D01*
X88050047Y-39139761D01*
X87954809Y-39187380D01*
X87764333Y-39187380D01*
X87669095Y-39139761D01*
X88716714Y-39187380D02*
X88621476Y-39139761D01*
X88573857Y-39092142D01*
X88526238Y-38996904D01*
X88526238Y-38711190D01*
X88573857Y-38615952D01*
X88621476Y-38568333D01*
X88716714Y-38520714D01*
X88859571Y-38520714D01*
X88954809Y-38568333D01*
X89002428Y-38615952D01*
X89050047Y-38711190D01*
X89050047Y-38996904D01*
X89002428Y-39092142D01*
X88954809Y-39139761D01*
X88859571Y-39187380D01*
X88716714Y-39187380D01*
X89907190Y-39187380D02*
X89907190Y-38663571D01*
X89859571Y-38568333D01*
X89764333Y-38520714D01*
X89573857Y-38520714D01*
X89478619Y-38568333D01*
X89907190Y-39139761D02*
X89811952Y-39187380D01*
X89573857Y-39187380D01*
X89478619Y-39139761D01*
X89431000Y-39044523D01*
X89431000Y-38949285D01*
X89478619Y-38854047D01*
X89573857Y-38806428D01*
X89811952Y-38806428D01*
X89907190Y-38758809D01*
X90383380Y-39187380D02*
X90383380Y-38520714D01*
X90383380Y-38711190D02*
X90431000Y-38615952D01*
X90478619Y-38568333D01*
X90573857Y-38520714D01*
X90669095Y-38520714D01*
X91431000Y-39187380D02*
X91431000Y-38187380D01*
X91431000Y-39139761D02*
X91335761Y-39187380D01*
X91145285Y-39187380D01*
X91050047Y-39139761D01*
X91002428Y-39092142D01*
X90954809Y-38996904D01*
X90954809Y-38711190D01*
X91002428Y-38615952D01*
X91050047Y-38568333D01*
X91145285Y-38520714D01*
X91335761Y-38520714D01*
X91431000Y-38568333D01*
D11*
X93091000Y-38176200D02*
G75*
G02X93599000Y-38684200I508000J0D01*
G01*
X93599000Y-38684200D02*
X93091000Y-39192200D01*
X93599000Y-39192200D02*
X94107000Y-39192200D01*
X93091000Y-39192200D02*
X93599000Y-39192200D01*
X92583000Y-39192200D02*
X92837000Y-38684200D01*
X92329000Y-38684200D02*
X92583000Y-39192200D01*
X69949000Y-53085999D02*
X69949000Y-88565999D01*
X140109000Y-64119334D02*
X140109000Y-53086000D01*
X140109000Y-77612666D02*
X140109000Y-88566000D01*
X139749000Y-64119334D02*
X140109000Y-64119334D01*
X139749000Y-77612666D02*
X139749000Y-64119334D01*
X140109000Y-77612666D02*
X139749000Y-77612666D01*
X69949000Y-88565999D02*
X140109000Y-88566000D01*
X140109000Y-53086000D02*
X69949000Y-53085999D01*
X70785000Y-102743000D02*
X70785000Y-97743000D01*
X76535000Y-102743000D02*
X76535000Y-97743000D01*
X70785000Y-102743000D02*
X76535000Y-102743000D01*
X70785000Y-97743000D02*
X76535000Y-97743000D01*
X139146000Y-39624000D02*
X139146000Y-44624000D01*
X133396000Y-39624000D02*
X133396000Y-44624000D01*
X139146000Y-39624000D02*
X133396000Y-39624000D01*
X139146000Y-44624000D02*
X133396000Y-44624000D01*
X163210000Y-83868000D02*
X162210000Y-82868000D01*
X162210000Y-84868000D02*
X163210000Y-83868000D01*
X163210000Y-83868000D02*
X162210000Y-84868000D01*
X159210000Y-83868000D02*
X163210000Y-83868000D01*
X148210000Y-87868000D02*
X164210000Y-87868000D01*
X148210000Y-79868000D02*
X148210000Y-87868000D01*
X164210000Y-79868000D02*
X148210000Y-79868000D01*
X164210000Y-80868000D02*
X164210000Y-79868000D01*
X164210000Y-87868000D02*
X164210000Y-80868000D01*
X105874000Y-104213999D02*
X105874000Y-111474000D01*
X106234000Y-104213999D02*
X105874000Y-104213999D01*
X106234000Y-96954000D02*
X106234000Y-104213999D01*
X105874000Y-96954000D02*
X106234000Y-96954000D01*
X105874000Y-89694000D02*
X105874000Y-96954000D01*
X133394000Y-89694000D02*
X105874000Y-89694000D01*
X133394000Y-111474000D02*
X133394000Y-89694000D01*
X105874000Y-111474000D02*
X133394000Y-111474000D01*
X151130000Y-97155000D02*
G75*
G03X151130000Y-97155000I-1270000J0D01*
G01*
X151130000Y-99695000D02*
G75*
G03X151130000Y-99695000I-1270000J0D01*
G01*
X164465000Y-107315000D02*
X133985000Y-107315000D01*
X164465000Y-89535000D02*
X164465000Y-107315000D01*
X133985000Y-89535000D02*
X164465000Y-89535000D01*
X133985000Y-97155000D02*
X133985000Y-89535000D01*
X135255000Y-97155000D02*
X133985000Y-97155000D01*
X135255000Y-99695000D02*
X135255000Y-97155000D01*
X133985000Y-99695000D02*
X135255000Y-99695000D01*
X133985000Y-107315000D02*
X133985000Y-99695000D01*
X122763000Y-39624000D02*
X122763000Y-44624000D01*
X117013000Y-39624000D02*
X117013000Y-44624000D01*
X122763000Y-39624000D02*
X117013000Y-39624000D01*
X122763000Y-44624000D02*
X117013000Y-44624000D01*
X76454000Y-89662000D02*
X78994000Y-89662000D01*
X76454000Y-90932000D02*
X76454000Y-89662000D01*
X77724000Y-90932000D02*
X76454000Y-90932000D01*
X77724000Y-93472000D02*
X77724000Y-90932000D01*
X76454000Y-93472000D02*
X77724000Y-93472000D01*
X76454000Y-94742000D02*
X76454000Y-93472000D01*
X78994000Y-94742000D02*
X76454000Y-94742000D01*
X105664000Y-94742000D02*
X78994000Y-94742000D01*
X105664000Y-89662000D02*
X105664000Y-94742000D01*
X78994000Y-89662000D02*
X105664000Y-89662000D01*
X133604000Y-50800000D02*
X131064000Y-50800000D01*
X133604000Y-49530000D02*
X133604000Y-50800000D01*
X132334000Y-49530000D02*
X133604000Y-49530000D01*
X132334000Y-46990000D02*
X132334000Y-49530000D01*
X133604000Y-46990000D02*
X132334000Y-46990000D01*
X133604000Y-45720000D02*
X133604000Y-46990000D01*
X131064000Y-45720000D02*
X133604000Y-45720000D01*
X104394000Y-45720000D02*
X131064000Y-45720000D01*
X104394000Y-50800000D02*
X104394000Y-45720000D01*
X131064000Y-50800000D02*
X104394000Y-50800000D01*
X82596000Y-110490000D02*
X82596000Y-105490000D01*
X88346000Y-110490000D02*
X88346000Y-105490000D01*
X82596000Y-110490000D02*
X88346000Y-110490000D01*
X82596000Y-105490000D02*
X88346000Y-105490000D01*
X74722000Y-110490000D02*
X74722000Y-105490000D01*
X80472000Y-110490000D02*
X80472000Y-105490000D01*
X74722000Y-110490000D02*
X80472000Y-110490000D01*
X74722000Y-105490000D02*
X80472000Y-105490000D01*
X86533000Y-102743000D02*
X86533000Y-97743000D01*
X92283000Y-102743000D02*
X92283000Y-97743000D01*
X86533000Y-102743000D02*
X92283000Y-102743000D01*
X86533000Y-97743000D02*
X92283000Y-97743000D01*
X114762000Y-39624000D02*
X114762000Y-44624000D01*
X109012000Y-39624000D02*
X109012000Y-44624000D01*
X114762000Y-39624000D02*
X109012000Y-39624000D01*
X114762000Y-44624000D02*
X109012000Y-44624000D01*
X130764000Y-39751000D02*
X130764000Y-44751000D01*
X125014000Y-39751000D02*
X125014000Y-44751000D01*
X130764000Y-39751000D02*
X125014000Y-39751000D01*
X130764000Y-44751000D02*
X125014000Y-44751000D01*
X145415000Y-31115000D02*
X145415000Y-45085000D01*
X163195000Y-31115000D02*
X145415000Y-31115000D01*
X163195000Y-45085000D02*
X163195000Y-31115000D01*
X145415000Y-45085000D02*
X163195000Y-45085000D01*
X158444946Y-42545000D02*
G75*
G03X158444946Y-42545000I-1599946J0D01*
G01*
X158444946Y-33655000D02*
G75*
G03X158444946Y-33655000I-1599946J0D01*
G01*
X98344000Y-110490000D02*
X98344000Y-105490000D01*
X104094000Y-110490000D02*
X104094000Y-105490000D01*
X98344000Y-110490000D02*
X104094000Y-110490000D01*
X98344000Y-105490000D02*
X104094000Y-105490000D01*
X94788000Y-102743000D02*
X94788000Y-97743000D01*
X100538000Y-102743000D02*
X100538000Y-97743000D01*
X94788000Y-102743000D02*
X100538000Y-102743000D01*
X94788000Y-97743000D02*
X100538000Y-97743000D01*
X89200000Y-110490000D02*
X89200000Y-105490000D01*
X94950000Y-110490000D02*
X94950000Y-105490000D01*
X89200000Y-110490000D02*
X94950000Y-110490000D01*
X89200000Y-105490000D02*
X94950000Y-105490000D01*
X78278000Y-102743000D02*
X78278000Y-97743000D01*
X84028000Y-102743000D02*
X84028000Y-97743000D01*
X78278000Y-102743000D02*
X84028000Y-102743000D01*
X78278000Y-97743000D02*
X84028000Y-97743000D01*
X110571000Y-32766000D02*
X110571000Y-37766000D01*
X104821000Y-32766000D02*
X104821000Y-37766000D01*
X110571000Y-32766000D02*
X104821000Y-32766000D01*
X110571000Y-37766000D02*
X104821000Y-37766000D01*
X118953000Y-32766000D02*
X118953000Y-37766000D01*
X113203000Y-32766000D02*
X113203000Y-37766000D01*
X118953000Y-32766000D02*
X113203000Y-32766000D01*
X118953000Y-37766000D02*
X113203000Y-37766000D01*
X126700000Y-32766000D02*
X126700000Y-37766000D01*
X120950000Y-32766000D02*
X120950000Y-37766000D01*
X126700000Y-32766000D02*
X120950000Y-32766000D01*
X126700000Y-37766000D02*
X120950000Y-37766000D01*
X134955000Y-32766000D02*
X134955000Y-37766000D01*
X129205000Y-32766000D02*
X129205000Y-37766000D01*
X134955000Y-32766000D02*
X129205000Y-32766000D01*
X134955000Y-37766000D02*
X129205000Y-37766000D01*
X146392000Y-85864000D02*
G75*
G03X146392000Y-85864000I-2120000J0D01*
G01*
X143737000Y-109601000D02*
G75*
G03X143737000Y-109601000I-2120000J0D01*
G01*
X136994000Y-48018000D02*
G75*
G03X136994000Y-48018000I-2120000J0D01*
G01*
X75780000Y-90920000D02*
G75*
G03X75780000Y-90920000I-2120000J0D01*
G01*
X151048000Y-47713000D02*
X143048000Y-47713000D01*
X151048000Y-78683000D02*
X143048000Y-78683000D01*
X150586675Y-57658000D02*
X150153662Y-57908000D01*
X150153662Y-57408000D02*
X150586675Y-57658000D01*
X150153662Y-57908000D02*
X150153662Y-57408000D01*
X151048000Y-47713000D02*
X163388000Y-47713000D01*
X143048000Y-78683000D02*
X143048000Y-47713000D01*
X163388000Y-78683000D02*
X151048000Y-78683000D01*
X157908000Y-70658000D02*
X162908000Y-70658000D01*
X162908000Y-70658000D02*
X160908000Y-69658000D01*
X160908000Y-69658000D02*
X162908000Y-70658000D01*
X160908000Y-71658000D02*
X162908000Y-70658000D01*
D10*
X137628380Y-71675523D02*
X138342666Y-71675523D01*
X138485523Y-71723142D01*
X138580761Y-71818380D01*
X138628380Y-71961238D01*
X138628380Y-72056476D01*
X138628380Y-70675523D02*
X138628380Y-71246952D01*
X138628380Y-70961238D02*
X137628380Y-70961238D01*
X137771238Y-71056476D01*
X137866476Y-71151714D01*
X137914095Y-71246952D01*
X137628380Y-70056476D02*
X137628380Y-69961238D01*
X137676000Y-69866000D01*
X137723619Y-69818380D01*
X137818857Y-69770761D01*
X138009333Y-69723142D01*
X138247428Y-69723142D01*
X138437904Y-69770761D01*
X138533142Y-69818380D01*
X138580761Y-69866000D01*
X138628380Y-69961238D01*
X138628380Y-70056476D01*
X138580761Y-70151714D01*
X138533142Y-70199333D01*
X138437904Y-70246952D01*
X138247428Y-70294571D01*
X138009333Y-70294571D01*
X137818857Y-70246952D01*
X137723619Y-70199333D01*
X137676000Y-70151714D01*
X137628380Y-70056476D01*
X74509380Y-97075523D02*
X75223666Y-97075523D01*
X75366523Y-97123142D01*
X75461761Y-97218380D01*
X75509380Y-97361238D01*
X75509380Y-97456476D01*
X75509380Y-96075523D02*
X75509380Y-96646952D01*
X75509380Y-96361238D02*
X74509380Y-96361238D01*
X74652238Y-96456476D01*
X74747476Y-96551714D01*
X74795095Y-96646952D01*
X74604619Y-95694571D02*
X74557000Y-95646952D01*
X74509380Y-95551714D01*
X74509380Y-95313619D01*
X74557000Y-95218380D01*
X74604619Y-95170761D01*
X74699857Y-95123142D01*
X74795095Y-95123142D01*
X74937952Y-95170761D01*
X75509380Y-95742190D01*
X75509380Y-95123142D01*
X135088380Y-40211333D02*
X135802666Y-40211333D01*
X135945523Y-40258952D01*
X136040761Y-40354190D01*
X136088380Y-40497047D01*
X136088380Y-40592285D01*
X135183619Y-39782761D02*
X135136000Y-39735142D01*
X135088380Y-39639904D01*
X135088380Y-39401809D01*
X135136000Y-39306571D01*
X135183619Y-39258952D01*
X135278857Y-39211333D01*
X135374095Y-39211333D01*
X135516952Y-39258952D01*
X136088380Y-39830380D01*
X136088380Y-39211333D01*
X160702666Y-88098380D02*
X160702666Y-88812666D01*
X160655047Y-88955523D01*
X160559809Y-89050761D01*
X160416952Y-89098380D01*
X160321714Y-89098380D01*
X161702666Y-89098380D02*
X161131238Y-89098380D01*
X161416952Y-89098380D02*
X161416952Y-88098380D01*
X161321714Y-88241238D01*
X161226476Y-88336476D01*
X161131238Y-88384095D01*
X106894380Y-101393523D02*
X107608666Y-101393523D01*
X107751523Y-101441142D01*
X107846761Y-101536380D01*
X107894380Y-101679238D01*
X107894380Y-101774476D01*
X106989619Y-100964952D02*
X106942000Y-100917333D01*
X106894380Y-100822095D01*
X106894380Y-100584000D01*
X106942000Y-100488761D01*
X106989619Y-100441142D01*
X107084857Y-100393523D01*
X107180095Y-100393523D01*
X107322952Y-100441142D01*
X107894380Y-101012571D01*
X107894380Y-100393523D01*
X107894380Y-99441142D02*
X107894380Y-100012571D01*
X107894380Y-99726857D02*
X106894380Y-99726857D01*
X107037238Y-99822095D01*
X107132476Y-99917333D01*
X107180095Y-100012571D01*
X135977380Y-99234523D02*
X136691666Y-99234523D01*
X136834523Y-99282142D01*
X136929761Y-99377380D01*
X136977380Y-99520238D01*
X136977380Y-99615476D01*
X136072619Y-98805952D02*
X136025000Y-98758333D01*
X135977380Y-98663095D01*
X135977380Y-98425000D01*
X136025000Y-98329761D01*
X136072619Y-98282142D01*
X136167857Y-98234523D01*
X136263095Y-98234523D01*
X136405952Y-98282142D01*
X136977380Y-98853571D01*
X136977380Y-98234523D01*
X135977380Y-97615476D02*
X135977380Y-97520238D01*
X136025000Y-97425000D01*
X136072619Y-97377380D01*
X136167857Y-97329761D01*
X136358333Y-97282142D01*
X136596428Y-97282142D01*
X136786904Y-97329761D01*
X136882142Y-97377380D01*
X136929761Y-97425000D01*
X136977380Y-97520238D01*
X136977380Y-97615476D01*
X136929761Y-97710714D01*
X136882142Y-97758333D01*
X136786904Y-97805952D01*
X136596428Y-97853571D01*
X136358333Y-97853571D01*
X136167857Y-97805952D01*
X136072619Y-97758333D01*
X136025000Y-97710714D01*
X135977380Y-97615476D01*
X119848380Y-40211333D02*
X120562666Y-40211333D01*
X120705523Y-40258952D01*
X120800761Y-40354190D01*
X120848380Y-40497047D01*
X120848380Y-40592285D01*
X119848380Y-39306571D02*
X119848380Y-39497047D01*
X119896000Y-39592285D01*
X119943619Y-39639904D01*
X120086476Y-39735142D01*
X120276952Y-39782761D01*
X120657904Y-39782761D01*
X120753142Y-39735142D01*
X120800761Y-39687523D01*
X120848380Y-39592285D01*
X120848380Y-39401809D01*
X120800761Y-39306571D01*
X120753142Y-39258952D01*
X120657904Y-39211333D01*
X120419809Y-39211333D01*
X120324571Y-39258952D01*
X120276952Y-39306571D01*
X120229333Y-39401809D01*
X120229333Y-39592285D01*
X120276952Y-39687523D01*
X120324571Y-39735142D01*
X120419809Y-39782761D01*
X75017380Y-93471904D02*
X75826904Y-93471904D01*
X75922142Y-93424285D01*
X75969761Y-93376666D01*
X76017380Y-93281428D01*
X76017380Y-93090952D01*
X75969761Y-92995714D01*
X75922142Y-92948095D01*
X75826904Y-92900476D01*
X75017380Y-92900476D01*
X75112619Y-92471904D02*
X75065000Y-92424285D01*
X75017380Y-92329047D01*
X75017380Y-92090952D01*
X75065000Y-91995714D01*
X75112619Y-91948095D01*
X75207857Y-91900476D01*
X75303095Y-91900476D01*
X75445952Y-91948095D01*
X76017380Y-92519523D01*
X76017380Y-91900476D01*
X134326380Y-49021904D02*
X135135904Y-49021904D01*
X135231142Y-48974285D01*
X135278761Y-48926666D01*
X135326380Y-48831428D01*
X135326380Y-48640952D01*
X135278761Y-48545714D01*
X135231142Y-48498095D01*
X135135904Y-48450476D01*
X134326380Y-48450476D01*
X135326380Y-47450476D02*
X135326380Y-48021904D01*
X135326380Y-47736190D02*
X134326380Y-47736190D01*
X134469238Y-47831428D01*
X134564476Y-47926666D01*
X134612095Y-48021904D01*
X85050380Y-104949523D02*
X85764666Y-104949523D01*
X85907523Y-104997142D01*
X86002761Y-105092380D01*
X86050380Y-105235238D01*
X86050380Y-105330476D01*
X86050380Y-103949523D02*
X86050380Y-104520952D01*
X86050380Y-104235238D02*
X85050380Y-104235238D01*
X85193238Y-104330476D01*
X85288476Y-104425714D01*
X85336095Y-104520952D01*
X85050380Y-103044761D02*
X85050380Y-103520952D01*
X85526571Y-103568571D01*
X85478952Y-103520952D01*
X85431333Y-103425714D01*
X85431333Y-103187619D01*
X85478952Y-103092380D01*
X85526571Y-103044761D01*
X85621809Y-102997142D01*
X85859904Y-102997142D01*
X85955142Y-103044761D01*
X86002761Y-103092380D01*
X86050380Y-103187619D01*
X86050380Y-103425714D01*
X86002761Y-103520952D01*
X85955142Y-103568571D01*
X76922380Y-104949523D02*
X77636666Y-104949523D01*
X77779523Y-104997142D01*
X77874761Y-105092380D01*
X77922380Y-105235238D01*
X77922380Y-105330476D01*
X77922380Y-103949523D02*
X77922380Y-104520952D01*
X77922380Y-104235238D02*
X76922380Y-104235238D01*
X77065238Y-104330476D01*
X77160476Y-104425714D01*
X77208095Y-104520952D01*
X76922380Y-103616190D02*
X76922380Y-102997142D01*
X77303333Y-103330476D01*
X77303333Y-103187619D01*
X77350952Y-103092380D01*
X77398571Y-103044761D01*
X77493809Y-102997142D01*
X77731904Y-102997142D01*
X77827142Y-103044761D01*
X77874761Y-103092380D01*
X77922380Y-103187619D01*
X77922380Y-103473333D01*
X77874761Y-103568571D01*
X77827142Y-103616190D01*
X88479380Y-97075523D02*
X89193666Y-97075523D01*
X89336523Y-97123142D01*
X89431761Y-97218380D01*
X89479380Y-97361238D01*
X89479380Y-97456476D01*
X89479380Y-96075523D02*
X89479380Y-96646952D01*
X89479380Y-96361238D02*
X88479380Y-96361238D01*
X88622238Y-96456476D01*
X88717476Y-96551714D01*
X88765095Y-96646952D01*
X88479380Y-95218380D02*
X88479380Y-95408857D01*
X88527000Y-95504095D01*
X88574619Y-95551714D01*
X88717476Y-95646952D01*
X88907952Y-95694571D01*
X89288904Y-95694571D01*
X89384142Y-95646952D01*
X89431761Y-95599333D01*
X89479380Y-95504095D01*
X89479380Y-95313619D01*
X89431761Y-95218380D01*
X89384142Y-95170761D01*
X89288904Y-95123142D01*
X89050809Y-95123142D01*
X88955571Y-95170761D01*
X88907952Y-95218380D01*
X88860333Y-95313619D01*
X88860333Y-95504095D01*
X88907952Y-95599333D01*
X88955571Y-95646952D01*
X89050809Y-95694571D01*
X111212380Y-40211333D02*
X111926666Y-40211333D01*
X112069523Y-40258952D01*
X112164761Y-40354190D01*
X112212380Y-40497047D01*
X112212380Y-40592285D01*
X111640952Y-39592285D02*
X111593333Y-39687523D01*
X111545714Y-39735142D01*
X111450476Y-39782761D01*
X111402857Y-39782761D01*
X111307619Y-39735142D01*
X111260000Y-39687523D01*
X111212380Y-39592285D01*
X111212380Y-39401809D01*
X111260000Y-39306571D01*
X111307619Y-39258952D01*
X111402857Y-39211333D01*
X111450476Y-39211333D01*
X111545714Y-39258952D01*
X111593333Y-39306571D01*
X111640952Y-39401809D01*
X111640952Y-39592285D01*
X111688571Y-39687523D01*
X111736190Y-39735142D01*
X111831428Y-39782761D01*
X112021904Y-39782761D01*
X112117142Y-39735142D01*
X112164761Y-39687523D01*
X112212380Y-39592285D01*
X112212380Y-39401809D01*
X112164761Y-39306571D01*
X112117142Y-39258952D01*
X112021904Y-39211333D01*
X111831428Y-39211333D01*
X111736190Y-39258952D01*
X111688571Y-39306571D01*
X111640952Y-39401809D01*
X126960380Y-40211333D02*
X127674666Y-40211333D01*
X127817523Y-40258952D01*
X127912761Y-40354190D01*
X127960380Y-40497047D01*
X127960380Y-40592285D01*
X127293714Y-39306571D02*
X127960380Y-39306571D01*
X126912761Y-39544666D02*
X127627047Y-39782761D01*
X127627047Y-39163714D01*
X144097380Y-35734523D02*
X144811666Y-35734523D01*
X144954523Y-35782142D01*
X145049761Y-35877380D01*
X145097380Y-36020238D01*
X145097380Y-36115476D01*
X145097380Y-34734523D02*
X145097380Y-35305952D01*
X145097380Y-35020238D02*
X144097380Y-35020238D01*
X144240238Y-35115476D01*
X144335476Y-35210714D01*
X144383095Y-35305952D01*
X145097380Y-33782142D02*
X145097380Y-34353571D01*
X145097380Y-34067857D02*
X144097380Y-34067857D01*
X144240238Y-34163095D01*
X144335476Y-34258333D01*
X144383095Y-34353571D01*
X100544380Y-104695523D02*
X101258666Y-104695523D01*
X101401523Y-104743142D01*
X101496761Y-104838380D01*
X101544380Y-104981238D01*
X101544380Y-105076476D01*
X101544380Y-103695523D02*
X101544380Y-104266952D01*
X101544380Y-103981238D02*
X100544380Y-103981238D01*
X100687238Y-104076476D01*
X100782476Y-104171714D01*
X100830095Y-104266952D01*
X101544380Y-103219333D02*
X101544380Y-103028857D01*
X101496761Y-102933619D01*
X101449142Y-102886000D01*
X101306285Y-102790761D01*
X101115809Y-102743142D01*
X100734857Y-102743142D01*
X100639619Y-102790761D01*
X100592000Y-102838380D01*
X100544380Y-102933619D01*
X100544380Y-103124095D01*
X100592000Y-103219333D01*
X100639619Y-103266952D01*
X100734857Y-103314571D01*
X100972952Y-103314571D01*
X101068190Y-103266952D01*
X101115809Y-103219333D01*
X101163428Y-103124095D01*
X101163428Y-102933619D01*
X101115809Y-102838380D01*
X101068190Y-102790761D01*
X100972952Y-102743142D01*
X96861380Y-96567523D02*
X97575666Y-96567523D01*
X97718523Y-96615142D01*
X97813761Y-96710380D01*
X97861380Y-96853238D01*
X97861380Y-96948476D01*
X97861380Y-95567523D02*
X97861380Y-96138952D01*
X97861380Y-95853238D02*
X96861380Y-95853238D01*
X97004238Y-95948476D01*
X97099476Y-96043714D01*
X97147095Y-96138952D01*
X97289952Y-94996095D02*
X97242333Y-95091333D01*
X97194714Y-95138952D01*
X97099476Y-95186571D01*
X97051857Y-95186571D01*
X96956619Y-95138952D01*
X96909000Y-95091333D01*
X96861380Y-94996095D01*
X96861380Y-94805619D01*
X96909000Y-94710380D01*
X96956619Y-94662761D01*
X97051857Y-94615142D01*
X97099476Y-94615142D01*
X97194714Y-94662761D01*
X97242333Y-94710380D01*
X97289952Y-94805619D01*
X97289952Y-94996095D01*
X97337571Y-95091333D01*
X97385190Y-95138952D01*
X97480428Y-95186571D01*
X97670904Y-95186571D01*
X97766142Y-95138952D01*
X97813761Y-95091333D01*
X97861380Y-94996095D01*
X97861380Y-94805619D01*
X97813761Y-94710380D01*
X97766142Y-94662761D01*
X97670904Y-94615142D01*
X97480428Y-94615142D01*
X97385190Y-94662761D01*
X97337571Y-94710380D01*
X97289952Y-94805619D01*
X91027380Y-104949523D02*
X91741666Y-104949523D01*
X91884523Y-104997142D01*
X91979761Y-105092380D01*
X92027380Y-105235238D01*
X92027380Y-105330476D01*
X92027380Y-103949523D02*
X92027380Y-104520952D01*
X92027380Y-104235238D02*
X91027380Y-104235238D01*
X91170238Y-104330476D01*
X91265476Y-104425714D01*
X91313095Y-104520952D01*
X91027380Y-103616190D02*
X91027380Y-102949523D01*
X92027380Y-103378095D01*
X80478380Y-97075523D02*
X81192666Y-97075523D01*
X81335523Y-97123142D01*
X81430761Y-97218380D01*
X81478380Y-97361238D01*
X81478380Y-97456476D01*
X81478380Y-96075523D02*
X81478380Y-96646952D01*
X81478380Y-96361238D02*
X80478380Y-96361238D01*
X80621238Y-96456476D01*
X80716476Y-96551714D01*
X80764095Y-96646952D01*
X80811714Y-95218380D02*
X81478380Y-95218380D01*
X80430761Y-95456476D02*
X81145047Y-95694571D01*
X81145047Y-95075523D01*
X107148380Y-37671333D02*
X107862666Y-37671333D01*
X108005523Y-37718952D01*
X108100761Y-37814190D01*
X108148380Y-37957047D01*
X108148380Y-38052285D01*
X108148380Y-37147523D02*
X108148380Y-36957047D01*
X108100761Y-36861809D01*
X108053142Y-36814190D01*
X107910285Y-36718952D01*
X107719809Y-36671333D01*
X107338857Y-36671333D01*
X107243619Y-36718952D01*
X107196000Y-36766571D01*
X107148380Y-36861809D01*
X107148380Y-37052285D01*
X107196000Y-37147523D01*
X107243619Y-37195142D01*
X107338857Y-37242761D01*
X107576952Y-37242761D01*
X107672190Y-37195142D01*
X107719809Y-37147523D01*
X107767428Y-37052285D01*
X107767428Y-36861809D01*
X107719809Y-36766571D01*
X107672190Y-36718952D01*
X107576952Y-36671333D01*
X115276380Y-38179333D02*
X115990666Y-38179333D01*
X116133523Y-38226952D01*
X116228761Y-38322190D01*
X116276380Y-38465047D01*
X116276380Y-38560285D01*
X115276380Y-37798380D02*
X115276380Y-37131714D01*
X116276380Y-37560285D01*
X122896380Y-37671333D02*
X123610666Y-37671333D01*
X123753523Y-37718952D01*
X123848761Y-37814190D01*
X123896380Y-37957047D01*
X123896380Y-38052285D01*
X122896380Y-36718952D02*
X122896380Y-37195142D01*
X123372571Y-37242761D01*
X123324952Y-37195142D01*
X123277333Y-37099904D01*
X123277333Y-36861809D01*
X123324952Y-36766571D01*
X123372571Y-36718952D01*
X123467809Y-36671333D01*
X123705904Y-36671333D01*
X123801142Y-36718952D01*
X123848761Y-36766571D01*
X123896380Y-36861809D01*
X123896380Y-37099904D01*
X123848761Y-37195142D01*
X123801142Y-37242761D01*
X131532380Y-37671333D02*
X132246666Y-37671333D01*
X132389523Y-37718952D01*
X132484761Y-37814190D01*
X132532380Y-37957047D01*
X132532380Y-38052285D01*
X131532380Y-37290380D02*
X131532380Y-36671333D01*
X131913333Y-37004666D01*
X131913333Y-36861809D01*
X131960952Y-36766571D01*
X132008571Y-36718952D01*
X132103809Y-36671333D01*
X132341904Y-36671333D01*
X132437142Y-36718952D01*
X132484761Y-36766571D01*
X132532380Y-36861809D01*
X132532380Y-37147523D01*
X132484761Y-37242761D01*
X132437142Y-37290380D01*
X144883142Y-90106666D02*
X144930761Y-90154285D01*
X144978380Y-90297142D01*
X144978380Y-90392380D01*
X144930761Y-90535238D01*
X144835523Y-90630476D01*
X144740285Y-90678095D01*
X144549809Y-90725714D01*
X144406952Y-90725714D01*
X144216476Y-90678095D01*
X144121238Y-90630476D01*
X144026000Y-90535238D01*
X143978380Y-90392380D01*
X143978380Y-90297142D01*
X144026000Y-90154285D01*
X144073619Y-90106666D01*
X144978380Y-89154285D02*
X144978380Y-89725714D01*
X144978380Y-89440000D02*
X143978380Y-89440000D01*
X144121238Y-89535238D01*
X144216476Y-89630476D01*
X144264095Y-89725714D01*
X141450333Y-106708142D02*
X141402714Y-106755761D01*
X141259857Y-106803380D01*
X141164619Y-106803380D01*
X141021761Y-106755761D01*
X140926523Y-106660523D01*
X140878904Y-106565285D01*
X140831285Y-106374809D01*
X140831285Y-106231952D01*
X140878904Y-106041476D01*
X140926523Y-105946238D01*
X141021761Y-105851000D01*
X141164619Y-105803380D01*
X141259857Y-105803380D01*
X141402714Y-105851000D01*
X141450333Y-105898619D01*
X141831285Y-105898619D02*
X141878904Y-105851000D01*
X141974142Y-105803380D01*
X142212238Y-105803380D01*
X142307476Y-105851000D01*
X142355095Y-105898619D01*
X142402714Y-105993857D01*
X142402714Y-106089095D01*
X142355095Y-106231952D01*
X141783666Y-106803380D01*
X142402714Y-106803380D01*
X136755142Y-47942666D02*
X136802761Y-47990285D01*
X136850380Y-48133142D01*
X136850380Y-48228380D01*
X136802761Y-48371238D01*
X136707523Y-48466476D01*
X136612285Y-48514095D01*
X136421809Y-48561714D01*
X136278952Y-48561714D01*
X136088476Y-48514095D01*
X135993238Y-48466476D01*
X135898000Y-48371238D01*
X135850380Y-48228380D01*
X135850380Y-48133142D01*
X135898000Y-47990285D01*
X135945619Y-47942666D01*
X135850380Y-47609333D02*
X135850380Y-46990285D01*
X136231333Y-47323619D01*
X136231333Y-47180761D01*
X136278952Y-47085523D01*
X136326571Y-47037904D01*
X136421809Y-46990285D01*
X136659904Y-46990285D01*
X136755142Y-47037904D01*
X136802761Y-47085523D01*
X136850380Y-47180761D01*
X136850380Y-47466476D01*
X136802761Y-47561714D01*
X136755142Y-47609333D01*
X74017142Y-94146666D02*
X74064761Y-94194285D01*
X74112380Y-94337142D01*
X74112380Y-94432380D01*
X74064761Y-94575238D01*
X73969523Y-94670476D01*
X73874285Y-94718095D01*
X73683809Y-94765714D01*
X73540952Y-94765714D01*
X73350476Y-94718095D01*
X73255238Y-94670476D01*
X73160000Y-94575238D01*
X73112380Y-94432380D01*
X73112380Y-94337142D01*
X73160000Y-94194285D01*
X73207619Y-94146666D01*
X73445714Y-93289523D02*
X74112380Y-93289523D01*
X73064761Y-93527619D02*
X73779047Y-93765714D01*
X73779047Y-93146666D01*
X149560380Y-64007523D02*
X150274666Y-64007523D01*
X150417523Y-64055142D01*
X150512761Y-64150380D01*
X150560380Y-64293238D01*
X150560380Y-64388476D01*
X149655619Y-63578952D02*
X149608000Y-63531333D01*
X149560380Y-63436095D01*
X149560380Y-63198000D01*
X149608000Y-63102761D01*
X149655619Y-63055142D01*
X149750857Y-63007523D01*
X149846095Y-63007523D01*
X149988952Y-63055142D01*
X150560380Y-63626571D01*
X150560380Y-63007523D01*
X149655619Y-62626571D02*
X149608000Y-62578952D01*
X149560380Y-62483714D01*
X149560380Y-62245619D01*
X149608000Y-62150380D01*
X149655619Y-62102761D01*
X149750857Y-62055142D01*
X149846095Y-62055142D01*
X149988952Y-62102761D01*
X150560380Y-62674190D01*
X150560380Y-62055142D01*
M02*
