M48
; DRILL file {KiCad 5.1.2-f72e74a~84~ubuntu18.04.1} date Tue 25 Jun 2019 09:41:26 AM EDT
; FORMAT={-:-/ absolute / inch / decimal}
; #@! TF.CreationDate,2019-06-25T09:41:26-04:00
; #@! TF.GenerationSoftware,Kicad,Pcbnew,5.1.2-f72e74a~84~ubuntu18.04.1
; #@! TF.FileFunction,Plated,1,2,PTH
FMAT,2
INCH
T1C0.0157
T2C0.0236
T3C0.0300
T4C0.0394
T5C0.0394
T6C0.0433
T7C0.1220
T8C0.1250
%
G90
G05
T1
X4.28Y-2.44
X4.56Y-2.64
X6.655Y-4.6
T2
X6.1849Y-2.174
X6.244Y-2.174
X6.4609Y-3.96
X6.52Y-3.96
X7.0Y-4.66
X7.0Y-4.7191
X5.875Y-3.95
X5.9341Y-3.95
T3
X5.655Y-4.175
X5.655Y-4.775
X5.755Y-4.175
X5.755Y-4.775
X5.855Y-4.175
X5.855Y-4.775
X5.955Y-4.175
X5.955Y-4.775
X6.055Y-4.175
X6.055Y-4.775
X6.155Y-4.175
X6.155Y-4.775
X6.255Y-4.175
X6.255Y-4.775
X6.355Y-4.175
X6.355Y-4.775
X6.455Y-4.175
X6.455Y-4.775
X6.555Y-4.175
X6.555Y-4.775
X6.655Y-4.175
X6.655Y-4.775
X6.755Y-4.175
X6.755Y-4.775
X7.275Y-2.5
X7.275Y-2.6
X7.275Y-2.7
X7.375Y-2.45
X7.375Y-2.55
X7.375Y-2.65
T4
X4.83Y-4.575
X4.92Y-4.575
X5.155Y-4.575
X5.245Y-4.575
X5.04Y-1.685
X5.13Y-1.685
X5.37Y-1.685
X5.46Y-1.685
X6.165Y-1.955
X6.255Y-1.955
X4.66Y-4.29
X4.75Y-4.29
X5.52Y-1.955
X5.61Y-1.955
X6.0Y-1.685
X6.09Y-1.685
X4.335Y-4.29
X4.425Y-4.29
X5.835Y-1.96
X5.925Y-1.96
X4.98Y-4.29
X5.07Y-4.29
X5.675Y-1.685
X5.765Y-1.685
X5.205Y-1.955
X5.295Y-1.955
X4.51Y-4.575
X4.6Y-4.575
X4.18Y-4.575
X4.27Y-4.575
X5.3Y-4.29
X5.39Y-4.29
T5
X5.055Y-2.195
X5.155Y-2.195
X5.255Y-2.195
X5.355Y-2.195
X5.455Y-2.195
X5.555Y-2.195
X5.655Y-2.195
X5.755Y-2.195
X5.855Y-2.195
X5.955Y-2.195
X6.825Y-1.475
X6.825Y-2.175
X6.925Y-1.475
X6.925Y-2.175
X7.025Y-1.475
X7.025Y-2.175
X7.125Y-1.475
X7.125Y-2.175
X7.225Y-1.475
X7.225Y-2.175
X7.325Y-1.475
X7.325Y-2.175
X7.425Y-1.475
X7.425Y-2.175
X7.525Y-1.475
X7.525Y-2.175
X7.625Y-1.475
X7.625Y-2.175
X4.18Y-2.535
X4.18Y-3.635
X4.28Y-2.535
X4.28Y-3.635
X4.38Y-2.535
X4.38Y-3.635
X4.48Y-2.535
X4.48Y-3.635
X4.58Y-2.535
X4.58Y-3.635
X4.68Y-2.535
X4.68Y-3.635
X4.78Y-2.535
X4.78Y-3.635
X4.88Y-2.535
X4.88Y-3.635
X4.98Y-2.535
X4.98Y-3.635
X5.08Y-2.535
X5.08Y-3.635
X5.18Y-2.535
X5.18Y-3.635
X5.28Y-2.535
X5.28Y-3.635
X5.38Y-2.535
X5.38Y-3.635
X5.48Y-2.535
X5.48Y-3.635
X5.58Y-2.535
X5.58Y-3.635
X5.68Y-2.535
X5.68Y-3.635
X5.78Y-2.535
X5.78Y-3.635
X5.88Y-2.535
X5.88Y-3.635
X5.98Y-2.535
X5.98Y-3.635
X6.08Y-2.535
X6.08Y-3.635
X6.18Y-2.535
X6.18Y-3.635
X6.28Y-2.535
X6.28Y-3.635
X6.38Y-2.535
X6.38Y-3.635
X6.48Y-2.535
X6.48Y-3.635
X6.58Y-2.535
X6.58Y-3.635
X4.675Y-3.975
X4.775Y-3.975
X4.875Y-3.975
X4.975Y-3.975
X5.075Y-3.975
X5.175Y-3.975
X5.275Y-3.975
X5.375Y-3.975
X5.475Y-3.975
X5.575Y-3.975
T6
X7.135Y-3.275
X7.135Y-3.3841
X7.135Y-3.4931
X7.135Y-3.6022
X7.135Y-3.7112
X7.2469Y-3.3295
X7.2469Y-3.4386
X7.2469Y-3.5476
X7.2469Y-3.6567
X7.45Y-3.275
X7.45Y-3.3841
X7.45Y-3.4931
X7.45Y-3.6022
X7.45Y-3.7112
X7.5618Y-3.3295
X7.5618Y-3.4386
X7.5618Y-3.5476
X7.5618Y-3.6567
T7
X7.2469Y-3.001
X7.2469Y-3.9852
X7.5618Y-3.001
X7.5618Y-3.9852
T8
X7.625Y-2.4
X7.625Y-2.75
T5
G00X7.3138Y-4.4841
M15
G01X7.3138Y-4.3659
M16
G05
G00X7.55Y-4.4644
M15
G01X7.55Y-4.3856
M16
G05
T0
M30
