<?xml version="1.0" encoding="utf-8"?>
<!-- Generator: Adobe Illustrator 27.2.0, SVG Export Plug-In . SVG Version: 6.00 Build 0)  -->
<svg version="1.1" id="Layer_1" xmlns="http://www.w3.org/2000/svg" xmlns:xlink="http://www.w3.org/1999/xlink" x="0px" y="0px"
	 viewBox="0 0 1728 864" style="enable-background:new 0 0 1728 864;" xml:space="preserve">
<style type="text/css">
	.st0{fill:none;stroke:#000000;stroke-width:0.1;stroke-linecap:round;stroke-linejoin:round;stroke-miterlimit:10;}
	.st1{fill:none;stroke:#000000;stroke-width:0.1;stroke-linecap:round;stroke-miterlimit:288;}
</style>
<g>
	<path class="st0" d="M371.9,304.1c0,1.8-1.4,3.2-3.2,3.2s-3.2-1.4-3.2-3.2c0-1.8,1.4-3.2,3.2-3.2S371.9,302.3,371.9,304.1z"/>
	<path class="st0" d="M231.3,304.3c0,1.8-1.4,3.2-3.2,3.2c-1.8,0-3.2-1.4-3.2-3.2c0-1.8,1.4-3.2,3.2-3.2
		C229.9,301.1,231.3,302.6,231.3,304.3z"/>
	<path class="st0" d="M371,168.9c0,1.8-1.4,3.2-3.2,3.2c-1.8,0-3.2-1.4-3.2-3.2c0-1.8,1.4-3.2,3.2-3.2
		C369.6,165.7,371,167.1,371,168.9z"/>
	<path class="st0" d="M230.4,169.1c0,1.8-1.4,3.2-3.2,3.2c-1.8,0-3.2-1.4-3.2-3.2c0-1.8,1.4-3.2,3.2-3.2
		C229,165.9,230.4,167.3,230.4,169.1z"/>
	<path class="st0" d="M349.4,102c0,1.8-1.4,3.2-3.2,3.2c-1.8,0-3.2-1.4-3.2-3.2c0-1.8,1.4-3.2,3.2-3.2
		C348,98.8,349.4,100.2,349.4,102z"/>
	<path class="st0" d="M350.8,235.1c0,1.8-1.4,3.2-3.2,3.2c-1.8,0-3.2-1.4-3.2-3.2c0-1.8,1.4-3.2,3.2-3.2
		C349.4,231.9,350.8,233.4,350.8,235.1z"/>
	<path class="st0" d="M468.7,305.1c0,1.8-1.4,3.2-3.2,3.2c-1.8,0-3.2-1.4-3.2-3.2c0-1.8,1.4-3.2,3.2-3.2
		C467.3,301.9,468.7,303.3,468.7,305.1z"/>
	<path class="st0" d="M468.9,169.4c0,1.8-1.4,3.2-3.2,3.2c-1.8,0-3.2-1.4-3.2-3.2c0-1.8,1.4-3.2,3.2-3.2
		C467.5,166.2,468.9,167.7,468.9,169.4z"/>
	<path class="st0" d="M344.5,304c0,25.4-20.6,46.1-46.1,46.1c-25.5,0-46.1-20.6-46.1-46.1c0-25.4,20.6-46.1,46.1-46.1
		C323.9,257.9,344.5,278.5,344.5,304z"/>
	<path class="st0" d="M343.6,168.7c0,25.4-20.6,46.1-46.1,46.1c-25.5,0-46.1-20.6-46.1-46.1c0-25.4,20.6-46.1,46.1-46.1
		C323,122.7,343.6,143.3,343.6,168.7z"/>
	<path class="st0" d="M464,235c0,25.4-20.6,46.1-46.1,46.1c-25.5,0-46.1-20.6-46.1-46.1c0-25.4,20.6-46.1,46.1-46.1
		C443.4,188.9,464,209.5,464,235z"/>
	<path class="st0" d="M462.6,101.8c0,25.4-20.6,46.1-46.1,46.1c-25.5,0-46.1-20.6-46.1-46.1c0-25.4,20.6-46.1,46.1-46.1
		C442,55.8,462.6,76.4,462.6,101.8z"/>
	<path class="st0" d="M489.9,102c0,1.8-1.4,3.2-3.2,3.2s-3.2-1.4-3.2-3.2c0-1.8,1.4-3.2,3.2-3.2S489.9,100.2,489.9,102z"/>
	<path class="st0" d="M491.3,235.1c0,1.8-1.4,3.2-3.2,3.2c-1.8,0-3.2-1.4-3.2-3.2c0-1.8,1.4-3.2,3.2-3.2
		C489.9,231.9,491.3,233.4,491.3,235.1z"/>
	<path class="st0" d="M609.2,305.1c0,1.8-1.4,3.2-3.2,3.2c-1.8,0-3.2-1.4-3.2-3.2c0-1.8,1.4-3.2,3.2-3.2
		C607.8,301.9,609.2,303.3,609.2,305.1z"/>
	<path class="st0" d="M609.4,169.4c0,1.8-1.4,3.2-3.2,3.2c-1.8,0-3.2-1.4-3.2-3.2c0-1.8,1.4-3.2,3.2-3.2
		C608,166.2,609.4,167.7,609.4,169.4z"/>
	<path class="st0" d="M581.8,304.9c0,25.4-20.6,46.1-46.1,46.1c-25.5,0-46.1-20.6-46.1-46.1c0-25.4,20.6-46.1,46.1-46.1
		C561.2,258.8,581.8,279.5,581.8,304.9z"/>
	<path class="st0" d="M582,169.4c0,25.4-20.6,46.1-46.1,46.1c-25.5,0-46.1-20.6-46.1-46.1c0-25.4,20.6-46.1,46.1-46.1
		C561.4,123.4,582,144,582,169.4z"/>
</g>
<rect x="186.3" y="409.7" transform="matrix(4.552555e-07 1 -1 4.552555e-07 727.9517 246.5169)" class="st1" width="108.8" height="155.2"/>
<path id="front_outsideCutPath" vector-effect="non-scaling-stroke" class="st1" d="M122.9,744.7h78.6v17l78.6,0v-17h78.6v17
	l103.2,0V711l-17,0l0-78.6h17l0-50.7l-103.2,0v17H280l0-17l-78.6,0l0,17l-78.6,0l0-17l-103.2,0l0,50.7h17l0,78.6h-17l0,50.7l103.2,0
	L122.9,744.7z"/>
<path id="left_outsideCutPath" vector-effect="non-scaling-stroke" class="st1" d="M800.8,321.2v-78.6h17v-78.6h-17V85.5h17V31
	h-50.7V14h-78.6v17h-50.7v54.5h17v78.6h-17v78.6h17v78.6h-17v54.5h50.7v17h78.6v-17h50.7v-54.5H800.8z"/>
<path id="top_outsideCutPath" vector-effect="non-scaling-stroke" class="st1" d="M827.1,657.6V579h17v-78.6h-17v-86.2h-54.5v-17
	h-78.6v17h-78.6v-17h-78.6v17h-54.5v86.2h-17V579h17v78.6h-17v78.6h17v86.2h54.5v17h78.6v-17h78.6v17h78.6v-17h54.5v-86.2h17v-78.6
	H827.1z"/>
<path id="back_outsideCutPath" vector-effect="non-scaling-stroke" class="st1" d="M122.9,560.2h78.6v17H280v-17h78.6v17h103.2
	v-50.7h-17v-78.6h17v-50.7H358.6v17H280v-17h-78.6v17h-78.6v-17H19.7v50.7h17v78.6h-17v50.7h103.2V560.2z"/>
<path id="right_outsideCutPath" vector-effect="non-scaling-stroke" class="st1" d="M32.7,85.5l0,78.6h-17l0,78.6h17v78.6h-17
	l0,54.5h50.7v17H145v-17h50.7v-54.5h-17l0-78.6h17v-78.6h-17V85.5h17V31H145V14l-78.6,0v17l-50.7,0l0,54.5H32.7z"/>
<path id="bottom_outsideCutPath" vector-effect="non-scaling-stroke" class="st1" d="M377.4,375.7H456v17h78.6v-17h86.2v-54.5h17
	v-78.6h-17v-78.6h17V85.5h-17V31h-86.2V14H456v17h-78.6V14h-78.6v17h-86.2v54.5h-17v78.6h17v78.6h-17v78.6h17v54.5h86.2v17h78.6
	V375.7z"/>
<path class="st0" d="M632.5,125.1c0,2.4-1.9,4.3-4.3,4.3c-2.4,0-4.3-1.9-4.3-4.3c0-2.4,1.9-4.3,4.3-4.3
	C630.6,120.8,632.5,122.7,632.5,125.1z"/>
<polygon class="st1" points="665.9,116.1 665.9,121.1 654.7,121.1 654.7,129 665.9,129 665.9,134.1 673.1,134.1 673.1,116.1 "/>
<path class="st0" d="M209.6,281.5c0,2.4-1.9,4.3-4.3,4.3c-2.4,0-4.3-1.9-4.3-4.3c0-2.4,1.9-4.3,4.3-4.3
	C207.7,277.2,209.6,279.1,209.6,281.5z"/>
<polygon class="st1" points="167.7,290.5 167.7,285.4 178.8,285.4 178.8,277.5 167.7,277.5 167.7,272.5 160.5,272.5 160.5,290.5 "/>
</svg>
