<?xml version="1.0" encoding="utf-8"?>
<!-- Generator: Adobe Illustrator 27.2.0, SVG Export Plug-In . SVG Version: 6.00 Build 0)  -->
<svg version="1.1" id="Layer_1" xmlns="http://www.w3.org/2000/svg" xmlns:xlink="http://www.w3.org/1999/xlink" x="0px" y="0px"
	 viewBox="0 0 1728 864" style="enable-background:new 0 0 1728 864;" xml:space="preserve">
<style type="text/css">
	.st0{fill:none;stroke:#231F20;stroke-width:0.1;stroke-linecap:round;stroke-linejoin:round;stroke-miterlimit:10;}
	.st1{fill:none;stroke:#231F20;stroke-width:0.1;stroke-linecap:round;stroke-miterlimit:288;}
</style>
<g>
	<path class="st0" d="M371.9,304.1c0,1.8-1.4,3.2-3.2,3.2s-3.2-1.4-3.2-3.2c0-1.8,1.4-3.2,3.2-3.2S371.9,302.3,371.9,304.1z"/>
	<path class="st0" d="M231.3,304.3c0,1.8-1.4,3.2-3.2,3.2c-1.8,0-3.2-1.4-3.2-3.2c0-1.8,1.4-3.2,3.2-3.2
		C229.9,301.1,231.3,302.6,231.3,304.3z"/>
	<path class="st0" d="M371,168.9c0,1.8-1.4,3.2-3.2,3.2c-1.8,0-3.2-1.4-3.2-3.2c0-1.8,1.4-3.2,3.2-3.2
		C369.6,165.7,371,167.1,371,168.9z"/>
	<path class="st0" d="M230.4,169.1c0,1.8-1.4,3.2-3.2,3.2c-1.8,0-3.2-1.4-3.2-3.2c0-1.8,1.4-3.2,3.2-3.2
		C229,165.9,230.4,167.3,230.4,169.1z"/>
	<path class="st0" d="M349.4,102c0,1.8-1.4,3.2-3.2,3.2c-1.8,0-3.2-1.4-3.2-3.2c0-1.8,1.4-3.2,3.2-3.2
		C348,98.8,349.4,100.2,349.4,102z"/>
	<path class="st0" d="M350.8,235.1c0,1.8-1.4,3.2-3.2,3.2c-1.8,0-3.2-1.4-3.2-3.2c0-1.8,1.4-3.2,3.2-3.2
		C349.4,231.9,350.8,233.4,350.8,235.1z"/>
	<path class="st0" d="M468.7,305.1c0,1.8-1.4,3.2-3.2,3.2c-1.8,0-3.2-1.4-3.2-3.2c0-1.8,1.4-3.2,3.2-3.2
		C467.3,301.9,468.7,303.3,468.7,305.1z"/>
	<path class="st0" d="M468.9,169.4c0,1.8-1.4,3.2-3.2,3.2c-1.8,0-3.2-1.4-3.2-3.2c0-1.8,1.4-3.2,3.2-3.2
		C467.5,166.2,468.9,167.7,468.9,169.4z"/>
	<path class="st0" d="M344.5,304c0,25.4-20.6,46.1-46.1,46.1c-25.5,0-46.1-20.6-46.1-46.1c0-25.4,20.6-46.1,46.1-46.1
		C323.9,257.9,344.5,278.5,344.5,304z"/>
	<path class="st0" d="M343.6,168.7c0,25.4-20.6,46.1-46.1,46.1c-25.5,0-46.1-20.6-46.1-46.1c0-25.4,20.6-46.1,46.1-46.1
		C323,122.7,343.6,143.3,343.6,168.7z"/>
	<path class="st0" d="M464,235c0,25.4-20.6,46.1-46.1,46.1c-25.5,0-46.1-20.6-46.1-46.1c0-25.4,20.6-46.1,46.1-46.1
		C443.4,188.9,464,209.5,464,235z"/>
	<path class="st0" d="M462.6,101.8c0,25.4-20.6,46.1-46.1,46.1c-25.5,0-46.1-20.6-46.1-46.1c0-25.4,20.6-46.1,46.1-46.1
		C442,55.8,462.6,76.4,462.6,101.8z"/>
	<path class="st0" d="M489.9,102c0,1.8-1.4,3.2-3.2,3.2s-3.2-1.4-3.2-3.2c0-1.8,1.4-3.2,3.2-3.2S489.9,100.2,489.9,102z"/>
	<path class="st0" d="M491.3,235.1c0,1.8-1.4,3.2-3.2,3.2c-1.8,0-3.2-1.4-3.2-3.2c0-1.8,1.4-3.2,3.2-3.2
		C489.9,231.9,491.3,233.4,491.3,235.1z"/>
	<path class="st0" d="M609.2,305.1c0,1.8-1.4,3.2-3.2,3.2c-1.8,0-3.2-1.4-3.2-3.2c0-1.8,1.4-3.2,3.2-3.2
		C607.8,301.9,609.2,303.3,609.2,305.1z"/>
	<path class="st0" d="M609.4,169.4c0,1.8-1.4,3.2-3.2,3.2c-1.8,0-3.2-1.4-3.2-3.2c0-1.8,1.4-3.2,3.2-3.2
		C608,166.2,609.4,167.7,609.4,169.4z"/>
	<path class="st0" d="M581.8,304.9c0,25.4-20.6,46.1-46.1,46.1c-25.5,0-46.1-20.6-46.1-46.1c0-25.4,20.6-46.1,46.1-46.1
		C561.2,258.8,581.8,279.5,581.8,304.9z"/>
	<path class="st0" d="M582,169.4c0,25.4-20.6,46.1-46.1,46.1c-25.5,0-46.1-20.6-46.1-46.1c0-25.4,20.6-46.1,46.1-46.1
		C561.4,123.4,582,144,582,169.4z"/>
</g>
<rect x="673.1" y="536.2" transform="matrix(-1 4.552555e-07 -4.552555e-07 -1 1455.0791 1227.5486)" class="st1" width="108.8" height="155.2"/>
<path class="st0" d="M632.5,199.1c0,2.4-1.9,4.3-4.3,4.3c-2.4,0-4.3-1.9-4.3-4.3c0-2.4,1.9-4.3,4.3-4.3
	C630.6,194.7,632.5,196.7,632.5,199.1z"/>
<polygon class="st1" points="666.7,190.1 666.7,195.1 655.5,195.1 655.5,203 666.7,203 666.7,208.1 673.9,208.1 673.9,190.1 "/>
<path class="st0" d="M209.6,203.4c0,2.4-1.9,4.3-4.3,4.3c-2.4,0-4.3-1.9-4.3-4.3c0-2.4,1.9-4.3,4.3-4.3
	C207.7,199.1,209.6,201,209.6,203.4z"/>
<polygon class="st1" points="166.3,212.4 166.3,207.3 177.5,207.3 177.5,199.4 166.3,199.4 166.3,194.4 159.1,194.4 159.1,212.4 "/>
<path id="front_outsideCutPath_00000133514205703498431720000011194633565840576946_" vector-effect="non-scaling-stroke" class="st1" d="
	M195.5,771.5h103.2v-18h78.6v18h78.6v-18h78.6v18H613h24.6V700h-18v-78.6h18v-78.6h-18v-78.6h18v-71.5H534.4v18h-78.6v-18h-78.6v18
	h-78.6v-18H220h-24.6v71.5h18v78.6h-18v78.6h18V700h-18V771.5z"/>
<path id="left_outsideCutPath_00000003808166962545317480000011811134876674367155_" vector-effect="non-scaling-stroke" class="st1" d="
	M655.5,392.7v103.2h-18v78.6h18v78.6h-18v78.6h18v78.6v24.6h32.7v-18h78.6v18h32.7V731.6h18v-78.6h-18v-78.6h18v-78.6h-18v-78.6
	v-24.6h-32.7v18h-78.6v-18H655.5z"/>
<path id="back_outsideCutPath_00000140736527002387427960000017714566112048296600_" vector-effect="non-scaling-stroke" class="st1" d="
	M195.5,392.7h103.2v-18h78.6v18h78.6v-18h78.6v18H613h24.6v-71.5h-18v-78.6h18v-78.6h-18V85.5h18V14H534.4v18h-78.6V14h-78.6v18
	h-78.6V14H220h-24.6v71.5h18v78.6h-18v78.6h18v78.6h-18V392.7z"/>
<path id="bottom_outsideCutPath_00000155113819383884714480000006414455075211786654_" vector-effect="non-scaling-stroke" class="st1" d="
	M655.5,374.7h32.7v18l78.6,0v-18h32.7v-53.5h18v-78.6l-18,0l0-78.6h18V85.5l-18,0V32l-32.7,0V14l-78.6,0v18l-32.7,0v53.5l-18,0
	l0,78.6l18,0v78.6h-18l0,78.6l18,0V374.7z"/>
<path id="left_outsideCutPath_00000048493012219634786590000005172041063531566262_" vector-effect="non-scaling-stroke" class="st1" d="
	M33.5,392.7v103.2h-18v78.6h18v78.6h-18v78.6h18v78.6v24.6h32.7v-18h78.6v18h32.7V731.6h18v-78.6h-18v-78.6h18v-78.6h-18v-78.6
	v-24.6h-32.7v18H66.1v-18H33.5z"/>
<path id="bottom_outsideCutPath_00000083047954198886784260000002683821337120883609_" vector-effect="non-scaling-stroke" class="st1" d="
	M33.5,374.7h32.7l0,18l78.6,0l0-18h32.7l0-53.5h18l0-78.6l-18,0l0-78.6h18l0-78.6l-18,0l0-53.5l-32.7,0V14l-78.6,0l0,18l-32.7,0
	l0,53.5l-18,0l0,78.6l18,0l0,78.6h-18l0,78.6l18,0L33.5,374.7z"/>
</svg>
