G04 #@! TF.FileFunction,Drawing*
%FSLAX46Y46*%
G04 Gerber Fmt 4.6, Leading zero omitted, Abs format (unit mm)*
G04 Created by KiCad (PCBNEW 4.0.6-e0-6349~53~ubuntu16.04.1) date Tue Mar  6 11:00:27 2018*
%MOMM*%
%LPD*%
G01*
G04 APERTURE LIST*
%ADD10C,0.100000*%
%ADD11C,0.300000*%
%ADD12C,0.203200*%
%ADD13C,0.150000*%
G04 APERTURE END LIST*
D10*
D11*
X192528571Y-98890001D02*
X192600000Y-98961430D01*
X192671429Y-99104287D01*
X192671429Y-99461430D01*
X192600000Y-99604287D01*
X192528571Y-99675716D01*
X192385714Y-99747144D01*
X192242857Y-99747144D01*
X192028571Y-99675716D01*
X191171429Y-98818573D01*
X191171429Y-99747144D01*
X191314286Y-100390001D02*
X191242857Y-100461429D01*
X191171429Y-100390001D01*
X191242857Y-100318572D01*
X191314286Y-100390001D01*
X191171429Y-100390001D01*
X192671429Y-101747144D02*
X192671429Y-101461430D01*
X192600000Y-101318573D01*
X192528571Y-101247144D01*
X192314286Y-101104287D01*
X192028571Y-101032858D01*
X191457143Y-101032858D01*
X191314286Y-101104287D01*
X191242857Y-101175715D01*
X191171429Y-101318573D01*
X191171429Y-101604287D01*
X191242857Y-101747144D01*
X191314286Y-101818573D01*
X191457143Y-101890001D01*
X191814286Y-101890001D01*
X191957143Y-101818573D01*
X192028571Y-101747144D01*
X192100000Y-101604287D01*
X192100000Y-101318573D01*
X192028571Y-101175715D01*
X191957143Y-101104287D01*
X191814286Y-101032858D01*
X192671429Y-102818572D02*
X192671429Y-102961429D01*
X192600000Y-103104286D01*
X192528571Y-103175715D01*
X192385714Y-103247144D01*
X192100000Y-103318572D01*
X191742857Y-103318572D01*
X191457143Y-103247144D01*
X191314286Y-103175715D01*
X191242857Y-103104286D01*
X191171429Y-102961429D01*
X191171429Y-102818572D01*
X191242857Y-102675715D01*
X191314286Y-102604286D01*
X191457143Y-102532858D01*
X191742857Y-102461429D01*
X192100000Y-102461429D01*
X192385714Y-102532858D01*
X192528571Y-102604286D01*
X192600000Y-102675715D01*
X192671429Y-102818572D01*
X192671429Y-104247143D02*
X192671429Y-104390000D01*
X192600000Y-104532857D01*
X192528571Y-104604286D01*
X192385714Y-104675715D01*
X192100000Y-104747143D01*
X191742857Y-104747143D01*
X191457143Y-104675715D01*
X191314286Y-104604286D01*
X191242857Y-104532857D01*
X191171429Y-104390000D01*
X191171429Y-104247143D01*
X191242857Y-104104286D01*
X191314286Y-104032857D01*
X191457143Y-103961429D01*
X191742857Y-103890000D01*
X192100000Y-103890000D01*
X192385714Y-103961429D01*
X192528571Y-104032857D01*
X192600000Y-104104286D01*
X192671429Y-104247143D01*
X192671429Y-105675714D02*
X192671429Y-105818571D01*
X192600000Y-105961428D01*
X192528571Y-106032857D01*
X192385714Y-106104286D01*
X192100000Y-106175714D01*
X191742857Y-106175714D01*
X191457143Y-106104286D01*
X191314286Y-106032857D01*
X191242857Y-105961428D01*
X191171429Y-105818571D01*
X191171429Y-105675714D01*
X191242857Y-105532857D01*
X191314286Y-105461428D01*
X191457143Y-105390000D01*
X191742857Y-105318571D01*
X192100000Y-105318571D01*
X192385714Y-105390000D01*
X192528571Y-105461428D01*
X192600000Y-105532857D01*
X192671429Y-105675714D01*
X191171429Y-107961428D02*
X192171429Y-107961428D01*
X192671429Y-107961428D02*
X192600000Y-107889999D01*
X192528571Y-107961428D01*
X192600000Y-108032856D01*
X192671429Y-107961428D01*
X192528571Y-107961428D01*
X192171429Y-108675714D02*
X191171429Y-108675714D01*
X192028571Y-108675714D02*
X192100000Y-108747142D01*
X192171429Y-108890000D01*
X192171429Y-109104285D01*
X192100000Y-109247142D01*
X191957143Y-109318571D01*
X191171429Y-109318571D01*
X190500000Y-71120000D02*
X190500000Y-137160000D01*
X187960000Y-71120000D02*
X193200000Y-71120000D01*
X187960000Y-137160000D02*
X193200000Y-137160000D01*
X190500000Y-137160000D02*
X189913579Y-136033496D01*
X190500000Y-137160000D02*
X191086421Y-136033496D01*
X190500000Y-71120000D02*
X189913579Y-72246504D01*
X190500000Y-71120000D02*
X191086421Y-72246504D01*
X165787144Y-65368571D02*
X164930001Y-65368571D01*
X165358573Y-65368571D02*
X165358573Y-63868571D01*
X165215716Y-64082857D01*
X165072858Y-64225714D01*
X164930001Y-64297143D01*
X166430001Y-65225714D02*
X166501429Y-65297143D01*
X166430001Y-65368571D01*
X166358572Y-65297143D01*
X166430001Y-65225714D01*
X166430001Y-65368571D01*
X167001430Y-63868571D02*
X167930001Y-63868571D01*
X167430001Y-64440000D01*
X167644287Y-64440000D01*
X167787144Y-64511429D01*
X167858573Y-64582857D01*
X167930001Y-64725714D01*
X167930001Y-65082857D01*
X167858573Y-65225714D01*
X167787144Y-65297143D01*
X167644287Y-65368571D01*
X167215715Y-65368571D01*
X167072858Y-65297143D01*
X167001430Y-65225714D01*
X168858572Y-63868571D02*
X169001429Y-63868571D01*
X169144286Y-63940000D01*
X169215715Y-64011429D01*
X169287144Y-64154286D01*
X169358572Y-64440000D01*
X169358572Y-64797143D01*
X169287144Y-65082857D01*
X169215715Y-65225714D01*
X169144286Y-65297143D01*
X169001429Y-65368571D01*
X168858572Y-65368571D01*
X168715715Y-65297143D01*
X168644286Y-65225714D01*
X168572858Y-65082857D01*
X168501429Y-64797143D01*
X168501429Y-64440000D01*
X168572858Y-64154286D01*
X168644286Y-64011429D01*
X168715715Y-63940000D01*
X168858572Y-63868571D01*
X170287143Y-63868571D02*
X170430000Y-63868571D01*
X170572857Y-63940000D01*
X170644286Y-64011429D01*
X170715715Y-64154286D01*
X170787143Y-64440000D01*
X170787143Y-64797143D01*
X170715715Y-65082857D01*
X170644286Y-65225714D01*
X170572857Y-65297143D01*
X170430000Y-65368571D01*
X170287143Y-65368571D01*
X170144286Y-65297143D01*
X170072857Y-65225714D01*
X170001429Y-65082857D01*
X169930000Y-64797143D01*
X169930000Y-64440000D01*
X170001429Y-64154286D01*
X170072857Y-64011429D01*
X170144286Y-63940000D01*
X170287143Y-63868571D01*
X171715714Y-63868571D02*
X171858571Y-63868571D01*
X172001428Y-63940000D01*
X172072857Y-64011429D01*
X172144286Y-64154286D01*
X172215714Y-64440000D01*
X172215714Y-64797143D01*
X172144286Y-65082857D01*
X172072857Y-65225714D01*
X172001428Y-65297143D01*
X171858571Y-65368571D01*
X171715714Y-65368571D01*
X171572857Y-65297143D01*
X171501428Y-65225714D01*
X171430000Y-65082857D01*
X171358571Y-64797143D01*
X171358571Y-64440000D01*
X171430000Y-64154286D01*
X171501428Y-64011429D01*
X171572857Y-63940000D01*
X171715714Y-63868571D01*
X174001428Y-65368571D02*
X174001428Y-64368571D01*
X174001428Y-63868571D02*
X173929999Y-63940000D01*
X174001428Y-64011429D01*
X174072856Y-63940000D01*
X174001428Y-63868571D01*
X174001428Y-64011429D01*
X174715714Y-64368571D02*
X174715714Y-65368571D01*
X174715714Y-64511429D02*
X174787142Y-64440000D01*
X174930000Y-64368571D01*
X175144285Y-64368571D01*
X175287142Y-64440000D01*
X175358571Y-64582857D01*
X175358571Y-65368571D01*
X153670000Y-66040000D02*
X186690000Y-66040000D01*
X153670000Y-69850000D02*
X153670000Y-63340000D01*
X186690000Y-69850000D02*
X186690000Y-63340000D01*
X186690000Y-66040000D02*
X185563496Y-66626421D01*
X186690000Y-66040000D02*
X185563496Y-65453579D01*
X153670000Y-66040000D02*
X154796504Y-66626421D01*
X153670000Y-66040000D02*
X154796504Y-65453579D01*
D12*
X202787143Y-71360057D02*
X203001429Y-71431486D01*
X203072857Y-71502914D01*
X203144286Y-71645771D01*
X203144286Y-71860057D01*
X203072857Y-72002914D01*
X203001429Y-72074343D01*
X202858571Y-72145771D01*
X202287143Y-72145771D01*
X202287143Y-70645771D01*
X202787143Y-70645771D01*
X202930000Y-70717200D01*
X203001429Y-70788629D01*
X203072857Y-70931486D01*
X203072857Y-71074343D01*
X203001429Y-71217200D01*
X202930000Y-71288629D01*
X202787143Y-71360057D01*
X202287143Y-71360057D01*
X204072857Y-70645771D02*
X204358571Y-70645771D01*
X204501429Y-70717200D01*
X204644286Y-70860057D01*
X204715714Y-71145771D01*
X204715714Y-71645771D01*
X204644286Y-71931486D01*
X204501429Y-72074343D01*
X204358571Y-72145771D01*
X204072857Y-72145771D01*
X203930000Y-72074343D01*
X203787143Y-71931486D01*
X203715714Y-71645771D01*
X203715714Y-71145771D01*
X203787143Y-70860057D01*
X203930000Y-70717200D01*
X204072857Y-70645771D01*
X205287143Y-72074343D02*
X205501429Y-72145771D01*
X205858572Y-72145771D01*
X206001429Y-72074343D01*
X206072858Y-72002914D01*
X206144286Y-71860057D01*
X206144286Y-71717200D01*
X206072858Y-71574343D01*
X206001429Y-71502914D01*
X205858572Y-71431486D01*
X205572858Y-71360057D01*
X205430000Y-71288629D01*
X205358572Y-71217200D01*
X205287143Y-71074343D01*
X205287143Y-70931486D01*
X205358572Y-70788629D01*
X205430000Y-70717200D01*
X205572858Y-70645771D01*
X205930000Y-70645771D01*
X206144286Y-70717200D01*
X206572857Y-70645771D02*
X207430000Y-70645771D01*
X207001429Y-72145771D02*
X207001429Y-70645771D01*
X208215714Y-70645771D02*
X208501428Y-70645771D01*
X208644286Y-70717200D01*
X208787143Y-70860057D01*
X208858571Y-71145771D01*
X208858571Y-71645771D01*
X208787143Y-71931486D01*
X208644286Y-72074343D01*
X208501428Y-72145771D01*
X208215714Y-72145771D01*
X208072857Y-72074343D01*
X207930000Y-71931486D01*
X207858571Y-71645771D01*
X207858571Y-71145771D01*
X207930000Y-70860057D01*
X208072857Y-70717200D01*
X208215714Y-70645771D01*
X209501429Y-72145771D02*
X209501429Y-70645771D01*
X210358572Y-72145771D01*
X210358572Y-70645771D01*
X212215715Y-70645771D02*
X212215715Y-71860057D01*
X212287143Y-72002914D01*
X212358572Y-72074343D01*
X212501429Y-72145771D01*
X212787143Y-72145771D01*
X212930001Y-72074343D01*
X213001429Y-72002914D01*
X213072858Y-71860057D01*
X213072858Y-70645771D01*
X213787144Y-72145771D02*
X213787144Y-70645771D01*
X214644287Y-72145771D01*
X214644287Y-70645771D01*
X215358573Y-72145771D02*
X215358573Y-70645771D01*
X215858573Y-70645771D02*
X216358573Y-72145771D01*
X216858573Y-70645771D01*
X217358573Y-71360057D02*
X217858573Y-71360057D01*
X218072859Y-72145771D02*
X217358573Y-72145771D01*
X217358573Y-70645771D01*
X218072859Y-70645771D01*
X219572859Y-72145771D02*
X219072859Y-71431486D01*
X218715716Y-72145771D02*
X218715716Y-70645771D01*
X219287144Y-70645771D01*
X219430002Y-70717200D01*
X219501430Y-70788629D01*
X219572859Y-70931486D01*
X219572859Y-71145771D01*
X219501430Y-71288629D01*
X219430002Y-71360057D01*
X219287144Y-71431486D01*
X218715716Y-71431486D01*
X220144287Y-72074343D02*
X220358573Y-72145771D01*
X220715716Y-72145771D01*
X220858573Y-72074343D01*
X220930002Y-72002914D01*
X221001430Y-71860057D01*
X221001430Y-71717200D01*
X220930002Y-71574343D01*
X220858573Y-71502914D01*
X220715716Y-71431486D01*
X220430002Y-71360057D01*
X220287144Y-71288629D01*
X220215716Y-71217200D01*
X220144287Y-71074343D01*
X220144287Y-70931486D01*
X220215716Y-70788629D01*
X220287144Y-70717200D01*
X220430002Y-70645771D01*
X220787144Y-70645771D01*
X221001430Y-70717200D01*
X221644287Y-72145771D02*
X221644287Y-70645771D01*
X222144287Y-70645771D02*
X223001430Y-70645771D01*
X222572859Y-72145771D02*
X222572859Y-70645771D01*
X223787144Y-71431486D02*
X223787144Y-72145771D01*
X223287144Y-70645771D02*
X223787144Y-71431486D01*
X224287144Y-70645771D01*
X225930001Y-71360057D02*
X226430001Y-71360057D01*
X226644287Y-72145771D02*
X225930001Y-72145771D01*
X225930001Y-70645771D01*
X226644287Y-70645771D01*
X227287144Y-72145771D02*
X227287144Y-70645771D01*
X227644287Y-70645771D01*
X227858572Y-70717200D01*
X228001430Y-70860057D01*
X228072858Y-71002914D01*
X228144287Y-71288629D01*
X228144287Y-71502914D01*
X228072858Y-71788629D01*
X228001430Y-71931486D01*
X227858572Y-72074343D01*
X227644287Y-72145771D01*
X227287144Y-72145771D01*
X229287144Y-71360057D02*
X228787144Y-71360057D01*
X228787144Y-72145771D02*
X228787144Y-70645771D01*
X229501430Y-70645771D01*
X202858571Y-74527543D02*
X202715714Y-74598971D01*
X202430000Y-74598971D01*
X202287143Y-74527543D01*
X202215714Y-74384686D01*
X202215714Y-73813257D01*
X202287143Y-73670400D01*
X202430000Y-73598971D01*
X202715714Y-73598971D01*
X202858571Y-73670400D01*
X202930000Y-73813257D01*
X202930000Y-73956114D01*
X202215714Y-74098971D01*
X203358571Y-73098971D02*
X203858571Y-74598971D01*
X204358571Y-73098971D01*
X205144285Y-73098971D02*
X205429999Y-73098971D01*
X205572857Y-73170400D01*
X205715714Y-73313257D01*
X205787142Y-73598971D01*
X205787142Y-74098971D01*
X205715714Y-74384686D01*
X205572857Y-74527543D01*
X205429999Y-74598971D01*
X205144285Y-74598971D01*
X205001428Y-74527543D01*
X204858571Y-74384686D01*
X204787142Y-74098971D01*
X204787142Y-73598971D01*
X204858571Y-73313257D01*
X205001428Y-73170400D01*
X205144285Y-73098971D01*
X207144286Y-74598971D02*
X206430000Y-74598971D01*
X206430000Y-73098971D01*
X207430000Y-73098971D02*
X207930000Y-74598971D01*
X208430000Y-73098971D01*
X208930000Y-73813257D02*
X209430000Y-73813257D01*
X209644286Y-74598971D02*
X208930000Y-74598971D01*
X208930000Y-73098971D01*
X209644286Y-73098971D01*
X211144286Y-74598971D02*
X210644286Y-73884686D01*
X210287143Y-74598971D02*
X210287143Y-73098971D01*
X210858571Y-73098971D01*
X211001429Y-73170400D01*
X211072857Y-73241829D01*
X211144286Y-73384686D01*
X211144286Y-73598971D01*
X211072857Y-73741829D01*
X211001429Y-73813257D01*
X210858571Y-73884686D01*
X210287143Y-73884686D01*
X212858571Y-74527543D02*
X213072857Y-74598971D01*
X213430000Y-74598971D01*
X213572857Y-74527543D01*
X213644286Y-74456114D01*
X213715714Y-74313257D01*
X213715714Y-74170400D01*
X213644286Y-74027543D01*
X213572857Y-73956114D01*
X213430000Y-73884686D01*
X213144286Y-73813257D01*
X213001428Y-73741829D01*
X212930000Y-73670400D01*
X212858571Y-73527543D01*
X212858571Y-73384686D01*
X212930000Y-73241829D01*
X213001428Y-73170400D01*
X213144286Y-73098971D01*
X213501428Y-73098971D01*
X213715714Y-73170400D01*
X214215714Y-73598971D02*
X214572857Y-74598971D01*
X214929999Y-73598971D02*
X214572857Y-74598971D01*
X214429999Y-74956114D01*
X214358571Y-75027543D01*
X214215714Y-75098971D01*
X215429999Y-74527543D02*
X215572856Y-74598971D01*
X215858571Y-74598971D01*
X216001428Y-74527543D01*
X216072856Y-74384686D01*
X216072856Y-74313257D01*
X216001428Y-74170400D01*
X215858571Y-74098971D01*
X215644285Y-74098971D01*
X215501428Y-74027543D01*
X215429999Y-73884686D01*
X215429999Y-73813257D01*
X215501428Y-73670400D01*
X215644285Y-73598971D01*
X215858571Y-73598971D01*
X216001428Y-73670400D01*
X216501428Y-73598971D02*
X217072857Y-73598971D01*
X216715714Y-73098971D02*
X216715714Y-74384686D01*
X216787142Y-74527543D01*
X216930000Y-74598971D01*
X217072857Y-74598971D01*
X218144285Y-74527543D02*
X218001428Y-74598971D01*
X217715714Y-74598971D01*
X217572857Y-74527543D01*
X217501428Y-74384686D01*
X217501428Y-73813257D01*
X217572857Y-73670400D01*
X217715714Y-73598971D01*
X218001428Y-73598971D01*
X218144285Y-73670400D01*
X218215714Y-73813257D01*
X218215714Y-73956114D01*
X217501428Y-74098971D01*
X218858571Y-74598971D02*
X218858571Y-73598971D01*
X218858571Y-73741829D02*
X218929999Y-73670400D01*
X219072857Y-73598971D01*
X219287142Y-73598971D01*
X219429999Y-73670400D01*
X219501428Y-73813257D01*
X219501428Y-74598971D01*
X219501428Y-73813257D02*
X219572857Y-73670400D01*
X219715714Y-73598971D01*
X219929999Y-73598971D01*
X220072857Y-73670400D01*
X220144285Y-73813257D01*
X220144285Y-74598971D01*
X202287143Y-79505371D02*
X202287143Y-78005371D01*
X202858571Y-78005371D01*
X203001429Y-78076800D01*
X203072857Y-78148229D01*
X203144286Y-78291086D01*
X203144286Y-78505371D01*
X203072857Y-78648229D01*
X203001429Y-78719657D01*
X202858571Y-78791086D01*
X202287143Y-78791086D01*
X204858571Y-77933943D02*
X203572857Y-79862514D01*
X205358572Y-79505371D02*
X205358572Y-78005371D01*
X206215715Y-79505371D01*
X206215715Y-78005371D01*
X208072858Y-78719657D02*
X208572858Y-78719657D01*
X208787144Y-79505371D02*
X208072858Y-79505371D01*
X208072858Y-78005371D01*
X208787144Y-78005371D01*
X209215715Y-78005371D02*
X209715715Y-79505371D01*
X210215715Y-78005371D01*
X210715715Y-78933943D02*
X211858572Y-78933943D01*
X212572858Y-79505371D02*
X212572858Y-78005371D01*
X213144286Y-78005371D01*
X213287144Y-78076800D01*
X213358572Y-78148229D01*
X213430001Y-78291086D01*
X213430001Y-78505371D01*
X213358572Y-78648229D01*
X213287144Y-78719657D01*
X213144286Y-78791086D01*
X212572858Y-78791086D01*
X213930001Y-78005371D02*
X214287144Y-79505371D01*
X214572858Y-78433943D01*
X214858572Y-79505371D01*
X215215715Y-78005371D01*
X215787144Y-79505371D02*
X215787144Y-78005371D01*
X216287144Y-79076800D01*
X216787144Y-78005371D01*
X216787144Y-79505371D01*
X219501430Y-79505371D02*
X219001430Y-78791086D01*
X218644287Y-79505371D02*
X218644287Y-78005371D01*
X219215715Y-78005371D01*
X219358573Y-78076800D01*
X219430001Y-78148229D01*
X219501430Y-78291086D01*
X219501430Y-78505371D01*
X219430001Y-78648229D01*
X219358573Y-78719657D01*
X219215715Y-78791086D01*
X218644287Y-78791086D01*
X220715715Y-79433943D02*
X220572858Y-79505371D01*
X220287144Y-79505371D01*
X220144287Y-79433943D01*
X220072858Y-79291086D01*
X220072858Y-78719657D01*
X220144287Y-78576800D01*
X220287144Y-78505371D01*
X220572858Y-78505371D01*
X220715715Y-78576800D01*
X220787144Y-78719657D01*
X220787144Y-78862514D01*
X220072858Y-79005371D01*
X221287144Y-78505371D02*
X221644287Y-79505371D01*
X222001429Y-78505371D01*
X224572858Y-79362514D02*
X224501429Y-79433943D01*
X224287143Y-79505371D01*
X224144286Y-79505371D01*
X223930001Y-79433943D01*
X223787143Y-79291086D01*
X223715715Y-79148229D01*
X223644286Y-78862514D01*
X223644286Y-78648229D01*
X223715715Y-78362514D01*
X223787143Y-78219657D01*
X223930001Y-78076800D01*
X224144286Y-78005371D01*
X224287143Y-78005371D01*
X224501429Y-78076800D01*
X224572858Y-78148229D01*
X203072857Y-81958571D02*
X202215714Y-81958571D01*
X202644286Y-81958571D02*
X202644286Y-80458571D01*
X202501429Y-80672857D01*
X202358571Y-80815714D01*
X202215714Y-80887143D01*
X205072857Y-81958571D02*
X204929999Y-81887143D01*
X204858571Y-81815714D01*
X204787142Y-81672857D01*
X204787142Y-81244286D01*
X204858571Y-81101429D01*
X204929999Y-81030000D01*
X205072857Y-80958571D01*
X205287142Y-80958571D01*
X205429999Y-81030000D01*
X205501428Y-81101429D01*
X205572857Y-81244286D01*
X205572857Y-81672857D01*
X205501428Y-81815714D01*
X205429999Y-81887143D01*
X205287142Y-81958571D01*
X205072857Y-81958571D01*
X206072857Y-80958571D02*
X206858571Y-80958571D01*
X206072857Y-81958571D01*
X206858571Y-81958571D01*
X209215714Y-81887143D02*
X209072857Y-81958571D01*
X208787143Y-81958571D01*
X208644285Y-81887143D01*
X208572857Y-81815714D01*
X208501428Y-81672857D01*
X208501428Y-81244286D01*
X208572857Y-81101429D01*
X208644285Y-81030000D01*
X208787143Y-80958571D01*
X209072857Y-80958571D01*
X209215714Y-81030000D01*
X210072857Y-81958571D02*
X209929999Y-81887143D01*
X209858571Y-81815714D01*
X209787142Y-81672857D01*
X209787142Y-81244286D01*
X209858571Y-81101429D01*
X209929999Y-81030000D01*
X210072857Y-80958571D01*
X210287142Y-80958571D01*
X210429999Y-81030000D01*
X210501428Y-81101429D01*
X210572857Y-81244286D01*
X210572857Y-81672857D01*
X210501428Y-81815714D01*
X210429999Y-81887143D01*
X210287142Y-81958571D01*
X210072857Y-81958571D01*
X211215714Y-80958571D02*
X211215714Y-82458571D01*
X211215714Y-81030000D02*
X211358571Y-80958571D01*
X211644285Y-80958571D01*
X211787142Y-81030000D01*
X211858571Y-81101429D01*
X211930000Y-81244286D01*
X211930000Y-81672857D01*
X211858571Y-81815714D01*
X211787142Y-81887143D01*
X211644285Y-81958571D01*
X211358571Y-81958571D01*
X211215714Y-81887143D01*
X212572857Y-80958571D02*
X212572857Y-82458571D01*
X212572857Y-81030000D02*
X212715714Y-80958571D01*
X213001428Y-80958571D01*
X213144285Y-81030000D01*
X213215714Y-81101429D01*
X213287143Y-81244286D01*
X213287143Y-81672857D01*
X213215714Y-81815714D01*
X213144285Y-81887143D01*
X213001428Y-81958571D01*
X212715714Y-81958571D01*
X212572857Y-81887143D01*
X214501428Y-81887143D02*
X214358571Y-81958571D01*
X214072857Y-81958571D01*
X213930000Y-81887143D01*
X213858571Y-81744286D01*
X213858571Y-81172857D01*
X213930000Y-81030000D01*
X214072857Y-80958571D01*
X214358571Y-80958571D01*
X214501428Y-81030000D01*
X214572857Y-81172857D01*
X214572857Y-81315714D01*
X213858571Y-81458571D01*
X215215714Y-81958571D02*
X215215714Y-80958571D01*
X215215714Y-81244286D02*
X215287142Y-81101429D01*
X215358571Y-81030000D01*
X215501428Y-80958571D01*
X215644285Y-80958571D01*
X202930000Y-83411771D02*
X202930000Y-84411771D01*
X202572857Y-82840343D02*
X202215714Y-83911771D01*
X203144286Y-83911771D01*
X205572857Y-84411771D02*
X204858571Y-84411771D01*
X204858571Y-82911771D01*
X206715714Y-84411771D02*
X206715714Y-83626057D01*
X206644285Y-83483200D01*
X206501428Y-83411771D01*
X206215714Y-83411771D01*
X206072857Y-83483200D01*
X206715714Y-84340343D02*
X206572857Y-84411771D01*
X206215714Y-84411771D01*
X206072857Y-84340343D01*
X206001428Y-84197486D01*
X206001428Y-84054629D01*
X206072857Y-83911771D01*
X206215714Y-83840343D01*
X206572857Y-83840343D01*
X206715714Y-83768914D01*
X207287143Y-83411771D02*
X207644286Y-84411771D01*
X208001428Y-83411771D02*
X207644286Y-84411771D01*
X207501428Y-84768914D01*
X207430000Y-84840343D01*
X207287143Y-84911771D01*
X209144285Y-84340343D02*
X209001428Y-84411771D01*
X208715714Y-84411771D01*
X208572857Y-84340343D01*
X208501428Y-84197486D01*
X208501428Y-83626057D01*
X208572857Y-83483200D01*
X208715714Y-83411771D01*
X209001428Y-83411771D01*
X209144285Y-83483200D01*
X209215714Y-83626057D01*
X209215714Y-83768914D01*
X208501428Y-83911771D01*
X209858571Y-84411771D02*
X209858571Y-83411771D01*
X209858571Y-83697486D02*
X209929999Y-83554629D01*
X210001428Y-83483200D01*
X210144285Y-83411771D01*
X210287142Y-83411771D01*
X210715713Y-84340343D02*
X210858570Y-84411771D01*
X211144285Y-84411771D01*
X211287142Y-84340343D01*
X211358570Y-84197486D01*
X211358570Y-84126057D01*
X211287142Y-83983200D01*
X211144285Y-83911771D01*
X210929999Y-83911771D01*
X210787142Y-83840343D01*
X210715713Y-83697486D01*
X210715713Y-83626057D01*
X210787142Y-83483200D01*
X210929999Y-83411771D01*
X211144285Y-83411771D01*
X211287142Y-83483200D01*
X213644285Y-83626057D02*
X213144285Y-83626057D01*
X213144285Y-84411771D02*
X213144285Y-82911771D01*
X213858571Y-82911771D01*
X215287142Y-84411771D02*
X214787142Y-83697486D01*
X214429999Y-84411771D02*
X214429999Y-82911771D01*
X215001427Y-82911771D01*
X215144285Y-82983200D01*
X215215713Y-83054629D01*
X215287142Y-83197486D01*
X215287142Y-83411771D01*
X215215713Y-83554629D01*
X215144285Y-83626057D01*
X215001427Y-83697486D01*
X214429999Y-83697486D01*
X215929999Y-83840343D02*
X217072856Y-83840343D01*
X218429999Y-83411771D02*
X218429999Y-84411771D01*
X218072856Y-82840343D02*
X217715713Y-83911771D01*
X218644285Y-83911771D01*
X202572857Y-85364971D02*
X202715714Y-85364971D01*
X202858571Y-85436400D01*
X202930000Y-85507829D01*
X203001429Y-85650686D01*
X203072857Y-85936400D01*
X203072857Y-86293543D01*
X203001429Y-86579257D01*
X202930000Y-86722114D01*
X202858571Y-86793543D01*
X202715714Y-86864971D01*
X202572857Y-86864971D01*
X202430000Y-86793543D01*
X202358571Y-86722114D01*
X202287143Y-86579257D01*
X202215714Y-86293543D01*
X202215714Y-85936400D01*
X202287143Y-85650686D01*
X202358571Y-85507829D01*
X202430000Y-85436400D01*
X202572857Y-85364971D01*
X203715714Y-86722114D02*
X203787142Y-86793543D01*
X203715714Y-86864971D01*
X203644285Y-86793543D01*
X203715714Y-86722114D01*
X203715714Y-86864971D01*
X204715714Y-85364971D02*
X204858571Y-85364971D01*
X205001428Y-85436400D01*
X205072857Y-85507829D01*
X205144286Y-85650686D01*
X205215714Y-85936400D01*
X205215714Y-86293543D01*
X205144286Y-86579257D01*
X205072857Y-86722114D01*
X205001428Y-86793543D01*
X204858571Y-86864971D01*
X204715714Y-86864971D01*
X204572857Y-86793543D01*
X204501428Y-86722114D01*
X204430000Y-86579257D01*
X204358571Y-86293543D01*
X204358571Y-85936400D01*
X204430000Y-85650686D01*
X204501428Y-85507829D01*
X204572857Y-85436400D01*
X204715714Y-85364971D01*
X206501428Y-85364971D02*
X206215714Y-85364971D01*
X206072857Y-85436400D01*
X206001428Y-85507829D01*
X205858571Y-85722114D01*
X205787142Y-86007829D01*
X205787142Y-86579257D01*
X205858571Y-86722114D01*
X205929999Y-86793543D01*
X206072857Y-86864971D01*
X206358571Y-86864971D01*
X206501428Y-86793543D01*
X206572857Y-86722114D01*
X206644285Y-86579257D01*
X206644285Y-86222114D01*
X206572857Y-86079257D01*
X206501428Y-86007829D01*
X206358571Y-85936400D01*
X206072857Y-85936400D01*
X205929999Y-86007829D01*
X205858571Y-86079257D01*
X205787142Y-86222114D01*
X207144285Y-85364971D02*
X208072856Y-85364971D01*
X207572856Y-85936400D01*
X207787142Y-85936400D01*
X207929999Y-86007829D01*
X208001428Y-86079257D01*
X208072856Y-86222114D01*
X208072856Y-86579257D01*
X208001428Y-86722114D01*
X207929999Y-86793543D01*
X207787142Y-86864971D01*
X207358570Y-86864971D01*
X207215713Y-86793543D01*
X207144285Y-86722114D01*
X209644284Y-85864971D02*
X210215713Y-85864971D01*
X209858570Y-86864971D02*
X209858570Y-85579257D01*
X209929998Y-85436400D01*
X210072856Y-85364971D01*
X210215713Y-85364971D01*
X210715713Y-86864971D02*
X210715713Y-85864971D01*
X210715713Y-85364971D02*
X210644284Y-85436400D01*
X210715713Y-85507829D01*
X210787141Y-85436400D01*
X210715713Y-85364971D01*
X210715713Y-85507829D01*
X211429999Y-85864971D02*
X211429999Y-86864971D01*
X211429999Y-86007829D02*
X211501427Y-85936400D01*
X211644285Y-85864971D01*
X211858570Y-85864971D01*
X212001427Y-85936400D01*
X212072856Y-86079257D01*
X212072856Y-86864971D01*
X213429999Y-86864971D02*
X213429999Y-86079257D01*
X213358570Y-85936400D01*
X213215713Y-85864971D01*
X212929999Y-85864971D01*
X212787142Y-85936400D01*
X213429999Y-86793543D02*
X213287142Y-86864971D01*
X212929999Y-86864971D01*
X212787142Y-86793543D01*
X212715713Y-86650686D01*
X212715713Y-86507829D01*
X212787142Y-86364971D01*
X212929999Y-86293543D01*
X213287142Y-86293543D01*
X213429999Y-86222114D01*
X214358571Y-86864971D02*
X214215713Y-86793543D01*
X214144285Y-86650686D01*
X214144285Y-85364971D01*
X215858570Y-85864971D02*
X216429999Y-85864971D01*
X216072856Y-85364971D02*
X216072856Y-86650686D01*
X216144284Y-86793543D01*
X216287142Y-86864971D01*
X216429999Y-86864971D01*
X216929999Y-86864971D02*
X216929999Y-85364971D01*
X217572856Y-86864971D02*
X217572856Y-86079257D01*
X217501427Y-85936400D01*
X217358570Y-85864971D01*
X217144285Y-85864971D01*
X217001427Y-85936400D01*
X216929999Y-86007829D01*
X218287142Y-86864971D02*
X218287142Y-85864971D01*
X218287142Y-85364971D02*
X218215713Y-85436400D01*
X218287142Y-85507829D01*
X218358570Y-85436400D01*
X218287142Y-85364971D01*
X218287142Y-85507829D01*
X219644285Y-86793543D02*
X219501428Y-86864971D01*
X219215714Y-86864971D01*
X219072856Y-86793543D01*
X219001428Y-86722114D01*
X218929999Y-86579257D01*
X218929999Y-86150686D01*
X219001428Y-86007829D01*
X219072856Y-85936400D01*
X219215714Y-85864971D01*
X219501428Y-85864971D01*
X219644285Y-85936400D01*
X220287142Y-86864971D02*
X220287142Y-85364971D01*
X220429999Y-86293543D02*
X220858570Y-86864971D01*
X220858570Y-85864971D02*
X220287142Y-86436400D01*
X221501428Y-85864971D02*
X221501428Y-86864971D01*
X221501428Y-86007829D02*
X221572856Y-85936400D01*
X221715714Y-85864971D01*
X221929999Y-85864971D01*
X222072856Y-85936400D01*
X222144285Y-86079257D01*
X222144285Y-86864971D01*
X223429999Y-86793543D02*
X223287142Y-86864971D01*
X223001428Y-86864971D01*
X222858571Y-86793543D01*
X222787142Y-86650686D01*
X222787142Y-86079257D01*
X222858571Y-85936400D01*
X223001428Y-85864971D01*
X223287142Y-85864971D01*
X223429999Y-85936400D01*
X223501428Y-86079257D01*
X223501428Y-86222114D01*
X222787142Y-86364971D01*
X224072856Y-86793543D02*
X224215713Y-86864971D01*
X224501428Y-86864971D01*
X224644285Y-86793543D01*
X224715713Y-86650686D01*
X224715713Y-86579257D01*
X224644285Y-86436400D01*
X224501428Y-86364971D01*
X224287142Y-86364971D01*
X224144285Y-86293543D01*
X224072856Y-86150686D01*
X224072856Y-86079257D01*
X224144285Y-85936400D01*
X224287142Y-85864971D01*
X224501428Y-85864971D01*
X224644285Y-85936400D01*
X225287142Y-86793543D02*
X225429999Y-86864971D01*
X225715714Y-86864971D01*
X225858571Y-86793543D01*
X225929999Y-86650686D01*
X225929999Y-86579257D01*
X225858571Y-86436400D01*
X225715714Y-86364971D01*
X225501428Y-86364971D01*
X225358571Y-86293543D01*
X225287142Y-86150686D01*
X225287142Y-86079257D01*
X225358571Y-85936400D01*
X225501428Y-85864971D01*
X225715714Y-85864971D01*
X225858571Y-85936400D01*
X202215714Y-89246743D02*
X202358571Y-89318171D01*
X202644286Y-89318171D01*
X202787143Y-89246743D01*
X202858571Y-89103886D01*
X202858571Y-89032457D01*
X202787143Y-88889600D01*
X202644286Y-88818171D01*
X202430000Y-88818171D01*
X202287143Y-88746743D01*
X202215714Y-88603886D01*
X202215714Y-88532457D01*
X202287143Y-88389600D01*
X202430000Y-88318171D01*
X202644286Y-88318171D01*
X202787143Y-88389600D01*
X203715715Y-89318171D02*
X203572857Y-89246743D01*
X203501429Y-89175314D01*
X203430000Y-89032457D01*
X203430000Y-88603886D01*
X203501429Y-88461029D01*
X203572857Y-88389600D01*
X203715715Y-88318171D01*
X203930000Y-88318171D01*
X204072857Y-88389600D01*
X204144286Y-88461029D01*
X204215715Y-88603886D01*
X204215715Y-89032457D01*
X204144286Y-89175314D01*
X204072857Y-89246743D01*
X203930000Y-89318171D01*
X203715715Y-89318171D01*
X205072858Y-89318171D02*
X204930000Y-89246743D01*
X204858572Y-89103886D01*
X204858572Y-87818171D01*
X206287143Y-89318171D02*
X206287143Y-87818171D01*
X206287143Y-89246743D02*
X206144286Y-89318171D01*
X205858572Y-89318171D01*
X205715714Y-89246743D01*
X205644286Y-89175314D01*
X205572857Y-89032457D01*
X205572857Y-88603886D01*
X205644286Y-88461029D01*
X205715714Y-88389600D01*
X205858572Y-88318171D01*
X206144286Y-88318171D01*
X206287143Y-88389600D01*
X207572857Y-89246743D02*
X207430000Y-89318171D01*
X207144286Y-89318171D01*
X207001429Y-89246743D01*
X206930000Y-89103886D01*
X206930000Y-88532457D01*
X207001429Y-88389600D01*
X207144286Y-88318171D01*
X207430000Y-88318171D01*
X207572857Y-88389600D01*
X207644286Y-88532457D01*
X207644286Y-88675314D01*
X206930000Y-88818171D01*
X208287143Y-89318171D02*
X208287143Y-88318171D01*
X208287143Y-88603886D02*
X208358571Y-88461029D01*
X208430000Y-88389600D01*
X208572857Y-88318171D01*
X208715714Y-88318171D01*
X209215714Y-89318171D02*
X209215714Y-88318171D01*
X209215714Y-88461029D02*
X209287142Y-88389600D01*
X209430000Y-88318171D01*
X209644285Y-88318171D01*
X209787142Y-88389600D01*
X209858571Y-88532457D01*
X209858571Y-89318171D01*
X209858571Y-88532457D02*
X209930000Y-88389600D01*
X210072857Y-88318171D01*
X210287142Y-88318171D01*
X210430000Y-88389600D01*
X210501428Y-88532457D01*
X210501428Y-89318171D01*
X211858571Y-89318171D02*
X211858571Y-88532457D01*
X211787142Y-88389600D01*
X211644285Y-88318171D01*
X211358571Y-88318171D01*
X211215714Y-88389600D01*
X211858571Y-89246743D02*
X211715714Y-89318171D01*
X211358571Y-89318171D01*
X211215714Y-89246743D01*
X211144285Y-89103886D01*
X211144285Y-88961029D01*
X211215714Y-88818171D01*
X211358571Y-88746743D01*
X211715714Y-88746743D01*
X211858571Y-88675314D01*
X212501428Y-89246743D02*
X212644285Y-89318171D01*
X212930000Y-89318171D01*
X213072857Y-89246743D01*
X213144285Y-89103886D01*
X213144285Y-89032457D01*
X213072857Y-88889600D01*
X212930000Y-88818171D01*
X212715714Y-88818171D01*
X212572857Y-88746743D01*
X212501428Y-88603886D01*
X212501428Y-88532457D01*
X212572857Y-88389600D01*
X212715714Y-88318171D01*
X212930000Y-88318171D01*
X213072857Y-88389600D01*
X213787143Y-89318171D02*
X213787143Y-87818171D01*
X213930000Y-88746743D02*
X214358571Y-89318171D01*
X214358571Y-88318171D02*
X213787143Y-88889600D01*
X216144286Y-89318171D02*
X216144286Y-87818171D01*
X216144286Y-88389600D02*
X216287143Y-88318171D01*
X216572857Y-88318171D01*
X216715714Y-88389600D01*
X216787143Y-88461029D01*
X216858572Y-88603886D01*
X216858572Y-89032457D01*
X216787143Y-89175314D01*
X216715714Y-89246743D01*
X216572857Y-89318171D01*
X216287143Y-89318171D01*
X216144286Y-89246743D01*
X217715715Y-89318171D02*
X217572857Y-89246743D01*
X217501429Y-89175314D01*
X217430000Y-89032457D01*
X217430000Y-88603886D01*
X217501429Y-88461029D01*
X217572857Y-88389600D01*
X217715715Y-88318171D01*
X217930000Y-88318171D01*
X218072857Y-88389600D01*
X218144286Y-88461029D01*
X218215715Y-88603886D01*
X218215715Y-89032457D01*
X218144286Y-89175314D01*
X218072857Y-89246743D01*
X217930000Y-89318171D01*
X217715715Y-89318171D01*
X218644286Y-88318171D02*
X219215715Y-88318171D01*
X218858572Y-87818171D02*
X218858572Y-89103886D01*
X218930000Y-89246743D01*
X219072858Y-89318171D01*
X219215715Y-89318171D01*
X219715715Y-89318171D02*
X219715715Y-87818171D01*
X220358572Y-89318171D02*
X220358572Y-88532457D01*
X220287143Y-88389600D01*
X220144286Y-88318171D01*
X219930001Y-88318171D01*
X219787143Y-88389600D01*
X219715715Y-88461029D01*
X222144286Y-89246743D02*
X222287143Y-89318171D01*
X222572858Y-89318171D01*
X222715715Y-89246743D01*
X222787143Y-89103886D01*
X222787143Y-89032457D01*
X222715715Y-88889600D01*
X222572858Y-88818171D01*
X222358572Y-88818171D01*
X222215715Y-88746743D01*
X222144286Y-88603886D01*
X222144286Y-88532457D01*
X222215715Y-88389600D01*
X222358572Y-88318171D01*
X222572858Y-88318171D01*
X222715715Y-88389600D01*
X223430001Y-89318171D02*
X223430001Y-88318171D01*
X223430001Y-87818171D02*
X223358572Y-87889600D01*
X223430001Y-87961029D01*
X223501429Y-87889600D01*
X223430001Y-87818171D01*
X223430001Y-87961029D01*
X224787144Y-89318171D02*
X224787144Y-87818171D01*
X224787144Y-89246743D02*
X224644287Y-89318171D01*
X224358573Y-89318171D01*
X224215715Y-89246743D01*
X224144287Y-89175314D01*
X224072858Y-89032457D01*
X224072858Y-88603886D01*
X224144287Y-88461029D01*
X224215715Y-88389600D01*
X224358573Y-88318171D01*
X224644287Y-88318171D01*
X224787144Y-88389600D01*
X226072858Y-89246743D02*
X225930001Y-89318171D01*
X225644287Y-89318171D01*
X225501430Y-89246743D01*
X225430001Y-89103886D01*
X225430001Y-88532457D01*
X225501430Y-88389600D01*
X225644287Y-88318171D01*
X225930001Y-88318171D01*
X226072858Y-88389600D01*
X226144287Y-88532457D01*
X226144287Y-88675314D01*
X225430001Y-88818171D01*
X226715715Y-89246743D02*
X226858572Y-89318171D01*
X227144287Y-89318171D01*
X227287144Y-89246743D01*
X227358572Y-89103886D01*
X227358572Y-89032457D01*
X227287144Y-88889600D01*
X227144287Y-88818171D01*
X226930001Y-88818171D01*
X226787144Y-88746743D01*
X226715715Y-88603886D01*
X226715715Y-88532457D01*
X226787144Y-88389600D01*
X226930001Y-88318171D01*
X227144287Y-88318171D01*
X227287144Y-88389600D01*
X229572858Y-89889600D02*
X229501430Y-89818171D01*
X229358573Y-89603886D01*
X229287144Y-89461029D01*
X229215715Y-89246743D01*
X229144287Y-88889600D01*
X229144287Y-88603886D01*
X229215715Y-88246743D01*
X229287144Y-88032457D01*
X229358573Y-87889600D01*
X229501430Y-87675314D01*
X229572858Y-87603886D01*
X230787144Y-88318171D02*
X230787144Y-89532457D01*
X230715715Y-89675314D01*
X230644287Y-89746743D01*
X230501430Y-89818171D01*
X230287144Y-89818171D01*
X230144287Y-89746743D01*
X230787144Y-89246743D02*
X230644287Y-89318171D01*
X230358573Y-89318171D01*
X230215715Y-89246743D01*
X230144287Y-89175314D01*
X230072858Y-89032457D01*
X230072858Y-88603886D01*
X230144287Y-88461029D01*
X230215715Y-88389600D01*
X230358573Y-88318171D01*
X230644287Y-88318171D01*
X230787144Y-88389600D01*
X231501430Y-89318171D02*
X231501430Y-88318171D01*
X231501430Y-88603886D02*
X231572858Y-88461029D01*
X231644287Y-88389600D01*
X231787144Y-88318171D01*
X231930001Y-88318171D01*
X233001429Y-89246743D02*
X232858572Y-89318171D01*
X232572858Y-89318171D01*
X232430001Y-89246743D01*
X232358572Y-89103886D01*
X232358572Y-88532457D01*
X232430001Y-88389600D01*
X232572858Y-88318171D01*
X232858572Y-88318171D01*
X233001429Y-88389600D01*
X233072858Y-88532457D01*
X233072858Y-88675314D01*
X232358572Y-88818171D01*
X234287143Y-89246743D02*
X234144286Y-89318171D01*
X233858572Y-89318171D01*
X233715715Y-89246743D01*
X233644286Y-89103886D01*
X233644286Y-88532457D01*
X233715715Y-88389600D01*
X233858572Y-88318171D01*
X234144286Y-88318171D01*
X234287143Y-88389600D01*
X234358572Y-88532457D01*
X234358572Y-88675314D01*
X233644286Y-88818171D01*
X235001429Y-88318171D02*
X235001429Y-89318171D01*
X235001429Y-88461029D02*
X235072857Y-88389600D01*
X235215715Y-88318171D01*
X235430000Y-88318171D01*
X235572857Y-88389600D01*
X235644286Y-88532457D01*
X235644286Y-89318171D01*
X236215715Y-89889600D02*
X236287143Y-89818171D01*
X236430000Y-89603886D01*
X236501429Y-89461029D01*
X236572858Y-89246743D01*
X236644286Y-88889600D01*
X236644286Y-88603886D01*
X236572858Y-88246743D01*
X236501429Y-88032457D01*
X236430000Y-87889600D01*
X236287143Y-87675314D01*
X236215715Y-87603886D01*
X202215714Y-91699943D02*
X202358571Y-91771371D01*
X202644286Y-91771371D01*
X202787143Y-91699943D01*
X202858571Y-91557086D01*
X202858571Y-91485657D01*
X202787143Y-91342800D01*
X202644286Y-91271371D01*
X202430000Y-91271371D01*
X202287143Y-91199943D01*
X202215714Y-91057086D01*
X202215714Y-90985657D01*
X202287143Y-90842800D01*
X202430000Y-90771371D01*
X202644286Y-90771371D01*
X202787143Y-90842800D01*
X203501429Y-91771371D02*
X203501429Y-90771371D01*
X203501429Y-90271371D02*
X203430000Y-90342800D01*
X203501429Y-90414229D01*
X203572857Y-90342800D01*
X203501429Y-90271371D01*
X203501429Y-90414229D01*
X204430001Y-91771371D02*
X204287143Y-91699943D01*
X204215715Y-91557086D01*
X204215715Y-90271371D01*
X205001429Y-91771371D02*
X205001429Y-90271371D01*
X205144286Y-91199943D02*
X205572857Y-91771371D01*
X205572857Y-90771371D02*
X205001429Y-91342800D01*
X206144286Y-91699943D02*
X206287143Y-91771371D01*
X206572858Y-91771371D01*
X206715715Y-91699943D01*
X206787143Y-91557086D01*
X206787143Y-91485657D01*
X206715715Y-91342800D01*
X206572858Y-91271371D01*
X206358572Y-91271371D01*
X206215715Y-91199943D01*
X206144286Y-91057086D01*
X206144286Y-90985657D01*
X206215715Y-90842800D01*
X206358572Y-90771371D01*
X206572858Y-90771371D01*
X206715715Y-90842800D01*
X208072858Y-91699943D02*
X207930001Y-91771371D01*
X207644287Y-91771371D01*
X207501429Y-91699943D01*
X207430001Y-91628514D01*
X207358572Y-91485657D01*
X207358572Y-91057086D01*
X207430001Y-90914229D01*
X207501429Y-90842800D01*
X207644287Y-90771371D01*
X207930001Y-90771371D01*
X208072858Y-90842800D01*
X208715715Y-91771371D02*
X208715715Y-90771371D01*
X208715715Y-91057086D02*
X208787143Y-90914229D01*
X208858572Y-90842800D01*
X209001429Y-90771371D01*
X209144286Y-90771371D01*
X210215714Y-91699943D02*
X210072857Y-91771371D01*
X209787143Y-91771371D01*
X209644286Y-91699943D01*
X209572857Y-91557086D01*
X209572857Y-90985657D01*
X209644286Y-90842800D01*
X209787143Y-90771371D01*
X210072857Y-90771371D01*
X210215714Y-90842800D01*
X210287143Y-90985657D01*
X210287143Y-91128514D01*
X209572857Y-91271371D01*
X211501428Y-91699943D02*
X211358571Y-91771371D01*
X211072857Y-91771371D01*
X210930000Y-91699943D01*
X210858571Y-91557086D01*
X210858571Y-90985657D01*
X210930000Y-90842800D01*
X211072857Y-90771371D01*
X211358571Y-90771371D01*
X211501428Y-90842800D01*
X211572857Y-90985657D01*
X211572857Y-91128514D01*
X210858571Y-91271371D01*
X212215714Y-90771371D02*
X212215714Y-91771371D01*
X212215714Y-90914229D02*
X212287142Y-90842800D01*
X212430000Y-90771371D01*
X212644285Y-90771371D01*
X212787142Y-90842800D01*
X212858571Y-90985657D01*
X212858571Y-91771371D01*
X214930000Y-91771371D02*
X214787142Y-91699943D01*
X214715714Y-91557086D01*
X214715714Y-90271371D01*
X216072856Y-91699943D02*
X215929999Y-91771371D01*
X215644285Y-91771371D01*
X215501428Y-91699943D01*
X215429999Y-91557086D01*
X215429999Y-90985657D01*
X215501428Y-90842800D01*
X215644285Y-90771371D01*
X215929999Y-90771371D01*
X216072856Y-90842800D01*
X216144285Y-90985657D01*
X216144285Y-91128514D01*
X215429999Y-91271371D01*
X217429999Y-90771371D02*
X217429999Y-91985657D01*
X217358570Y-92128514D01*
X217287142Y-92199943D01*
X217144285Y-92271371D01*
X216929999Y-92271371D01*
X216787142Y-92199943D01*
X217429999Y-91699943D02*
X217287142Y-91771371D01*
X217001428Y-91771371D01*
X216858570Y-91699943D01*
X216787142Y-91628514D01*
X216715713Y-91485657D01*
X216715713Y-91057086D01*
X216787142Y-90914229D01*
X216858570Y-90842800D01*
X217001428Y-90771371D01*
X217287142Y-90771371D01*
X217429999Y-90842800D01*
X218715713Y-91699943D02*
X218572856Y-91771371D01*
X218287142Y-91771371D01*
X218144285Y-91699943D01*
X218072856Y-91557086D01*
X218072856Y-90985657D01*
X218144285Y-90842800D01*
X218287142Y-90771371D01*
X218572856Y-90771371D01*
X218715713Y-90842800D01*
X218787142Y-90985657D01*
X218787142Y-91128514D01*
X218072856Y-91271371D01*
X219429999Y-90771371D02*
X219429999Y-91771371D01*
X219429999Y-90914229D02*
X219501427Y-90842800D01*
X219644285Y-90771371D01*
X219858570Y-90771371D01*
X220001427Y-90842800D01*
X220072856Y-90985657D01*
X220072856Y-91771371D01*
X221429999Y-91771371D02*
X221429999Y-90271371D01*
X221429999Y-91699943D02*
X221287142Y-91771371D01*
X221001428Y-91771371D01*
X220858570Y-91699943D01*
X220787142Y-91628514D01*
X220715713Y-91485657D01*
X220715713Y-91057086D01*
X220787142Y-90914229D01*
X220858570Y-90842800D01*
X221001428Y-90771371D01*
X221287142Y-90771371D01*
X221429999Y-90842800D01*
X223287142Y-91771371D02*
X223287142Y-90271371D01*
X223287142Y-90842800D02*
X223429999Y-90771371D01*
X223715713Y-90771371D01*
X223858570Y-90842800D01*
X223929999Y-90914229D01*
X224001428Y-91057086D01*
X224001428Y-91485657D01*
X223929999Y-91628514D01*
X223858570Y-91699943D01*
X223715713Y-91771371D01*
X223429999Y-91771371D01*
X223287142Y-91699943D01*
X224858571Y-91771371D02*
X224715713Y-91699943D01*
X224644285Y-91628514D01*
X224572856Y-91485657D01*
X224572856Y-91057086D01*
X224644285Y-90914229D01*
X224715713Y-90842800D01*
X224858571Y-90771371D01*
X225072856Y-90771371D01*
X225215713Y-90842800D01*
X225287142Y-90914229D01*
X225358571Y-91057086D01*
X225358571Y-91485657D01*
X225287142Y-91628514D01*
X225215713Y-91699943D01*
X225072856Y-91771371D01*
X224858571Y-91771371D01*
X225787142Y-90771371D02*
X226358571Y-90771371D01*
X226001428Y-90271371D02*
X226001428Y-91557086D01*
X226072856Y-91699943D01*
X226215714Y-91771371D01*
X226358571Y-91771371D01*
X226858571Y-91771371D02*
X226858571Y-90271371D01*
X227501428Y-91771371D02*
X227501428Y-90985657D01*
X227429999Y-90842800D01*
X227287142Y-90771371D01*
X227072857Y-90771371D01*
X226929999Y-90842800D01*
X226858571Y-90914229D01*
X229287142Y-91699943D02*
X229429999Y-91771371D01*
X229715714Y-91771371D01*
X229858571Y-91699943D01*
X229929999Y-91557086D01*
X229929999Y-91485657D01*
X229858571Y-91342800D01*
X229715714Y-91271371D01*
X229501428Y-91271371D01*
X229358571Y-91199943D01*
X229287142Y-91057086D01*
X229287142Y-90985657D01*
X229358571Y-90842800D01*
X229501428Y-90771371D01*
X229715714Y-90771371D01*
X229858571Y-90842800D01*
X230572857Y-91771371D02*
X230572857Y-90771371D01*
X230572857Y-90271371D02*
X230501428Y-90342800D01*
X230572857Y-90414229D01*
X230644285Y-90342800D01*
X230572857Y-90271371D01*
X230572857Y-90414229D01*
X231930000Y-91771371D02*
X231930000Y-90271371D01*
X231930000Y-91699943D02*
X231787143Y-91771371D01*
X231501429Y-91771371D01*
X231358571Y-91699943D01*
X231287143Y-91628514D01*
X231215714Y-91485657D01*
X231215714Y-91057086D01*
X231287143Y-90914229D01*
X231358571Y-90842800D01*
X231501429Y-90771371D01*
X231787143Y-90771371D01*
X231930000Y-90842800D01*
X233215714Y-91699943D02*
X233072857Y-91771371D01*
X232787143Y-91771371D01*
X232644286Y-91699943D01*
X232572857Y-91557086D01*
X232572857Y-90985657D01*
X232644286Y-90842800D01*
X232787143Y-90771371D01*
X233072857Y-90771371D01*
X233215714Y-90842800D01*
X233287143Y-90985657D01*
X233287143Y-91128514D01*
X232572857Y-91271371D01*
X233858571Y-91699943D02*
X234001428Y-91771371D01*
X234287143Y-91771371D01*
X234430000Y-91699943D01*
X234501428Y-91557086D01*
X234501428Y-91485657D01*
X234430000Y-91342800D01*
X234287143Y-91271371D01*
X234072857Y-91271371D01*
X233930000Y-91199943D01*
X233858571Y-91057086D01*
X233858571Y-90985657D01*
X233930000Y-90842800D01*
X234072857Y-90771371D01*
X234287143Y-90771371D01*
X234430000Y-90842800D01*
X236715714Y-92342800D02*
X236644286Y-92271371D01*
X236501429Y-92057086D01*
X236430000Y-91914229D01*
X236358571Y-91699943D01*
X236287143Y-91342800D01*
X236287143Y-91057086D01*
X236358571Y-90699943D01*
X236430000Y-90485657D01*
X236501429Y-90342800D01*
X236644286Y-90128514D01*
X236715714Y-90057086D01*
X237144286Y-90771371D02*
X237430000Y-91771371D01*
X237715714Y-91057086D01*
X238001429Y-91771371D01*
X238287143Y-90771371D01*
X238858572Y-91771371D02*
X238858572Y-90271371D01*
X239501429Y-91771371D02*
X239501429Y-90985657D01*
X239430000Y-90842800D01*
X239287143Y-90771371D01*
X239072858Y-90771371D01*
X238930000Y-90842800D01*
X238858572Y-90914229D01*
X240215715Y-91771371D02*
X240215715Y-90771371D01*
X240215715Y-90271371D02*
X240144286Y-90342800D01*
X240215715Y-90414229D01*
X240287143Y-90342800D01*
X240215715Y-90271371D01*
X240215715Y-90414229D01*
X240715715Y-90771371D02*
X241287144Y-90771371D01*
X240930001Y-90271371D02*
X240930001Y-91557086D01*
X241001429Y-91699943D01*
X241144287Y-91771371D01*
X241287144Y-91771371D01*
X242358572Y-91699943D02*
X242215715Y-91771371D01*
X241930001Y-91771371D01*
X241787144Y-91699943D01*
X241715715Y-91557086D01*
X241715715Y-90985657D01*
X241787144Y-90842800D01*
X241930001Y-90771371D01*
X242215715Y-90771371D01*
X242358572Y-90842800D01*
X242430001Y-90985657D01*
X242430001Y-91128514D01*
X241715715Y-91271371D01*
X242930001Y-92342800D02*
X243001429Y-92271371D01*
X243144286Y-92057086D01*
X243215715Y-91914229D01*
X243287144Y-91699943D01*
X243358572Y-91342800D01*
X243358572Y-91057086D01*
X243287144Y-90699943D01*
X243215715Y-90485657D01*
X243144286Y-90342800D01*
X243001429Y-90128514D01*
X242930001Y-90057086D01*
D13*
X153670000Y-71120000D02*
X186690000Y-71120000D01*
X153670000Y-137160000D02*
X186690000Y-137160000D01*
X153670000Y-137160000D02*
X153670000Y-71120000D01*
X186690000Y-71120000D02*
X186690000Y-137160000D01*
M02*
