G04 #@! TF.FileFunction,Copper,L2,Inr,Plane*
%FSLAX46Y46*%
G04 Gerber Fmt 4.6, Leading zero omitted, Abs format (unit mm)*
G04 Created by KiCad (PCBNEW 4.0.6-e0-6349~53~ubuntu16.04.1) date Tue Mar  6 11:00:27 2018*
%MOMM*%
%LPD*%
G01*
G04 APERTURE LIST*
%ADD10C,0.100000*%
%ADD11C,0.150000*%
%ADD12C,1.397000*%
%ADD13C,1.270000*%
%ADD14C,0.406400*%
%ADD15C,0.635000*%
%ADD16C,0.889000*%
%ADD17C,0.127000*%
G04 APERTURE END LIST*
D10*
D11*
X153670000Y-71120000D02*
X186690000Y-71120000D01*
X153670000Y-137160000D02*
X186690000Y-137160000D01*
X153670000Y-137160000D02*
X153670000Y-71120000D01*
X186690000Y-71120000D02*
X186690000Y-137160000D01*
D12*
X156210000Y-73660000D03*
X156210000Y-76200000D03*
X156210000Y-78740000D03*
X156210000Y-81280000D03*
X156210000Y-83820000D03*
X156210000Y-86360000D03*
X156210000Y-88900000D03*
X156210000Y-91440000D03*
X156210000Y-93980000D03*
X156210000Y-96520000D03*
X156210000Y-99060000D03*
X156210000Y-101600000D03*
X156210000Y-104140000D03*
X156210000Y-106680000D03*
X156210000Y-109220000D03*
D13*
X156210000Y-111760000D03*
D12*
X156210000Y-114300000D03*
X156210000Y-116840000D03*
X156210000Y-119380000D03*
X156210000Y-121920000D03*
X156210000Y-124460000D03*
X156210000Y-127000000D03*
X156210000Y-129540000D03*
X156210000Y-132080000D03*
X156210000Y-134620000D03*
X184150000Y-73660000D03*
X184150000Y-76200000D03*
X184150000Y-78740000D03*
X184150000Y-81280000D03*
X184150000Y-83820000D03*
X184150000Y-86360000D03*
X184150000Y-88900000D03*
X184150000Y-91440000D03*
X184150000Y-93980000D03*
X184150000Y-96520000D03*
X184150000Y-99060000D03*
X184150000Y-101600000D03*
X184150000Y-104140000D03*
X184150000Y-106680000D03*
X184150000Y-109220000D03*
D13*
X184150000Y-111760000D03*
D12*
X184150000Y-114300000D03*
X184150000Y-116840000D03*
X184150000Y-119380000D03*
X184150000Y-121920000D03*
X184150000Y-124460000D03*
X184150000Y-127000000D03*
X184150000Y-129540000D03*
X184150000Y-132080000D03*
X184150000Y-134620000D03*
X171450000Y-132080000D03*
X181610000Y-132080000D03*
X179070000Y-132080000D03*
X176530000Y-132080000D03*
X173990000Y-132080000D03*
X168910000Y-132080000D03*
X166370000Y-132080000D03*
X163830000Y-132080000D03*
X161290000Y-132080000D03*
X158750000Y-132080000D03*
X168910000Y-134620000D03*
X158750000Y-134620000D03*
X161290000Y-134620000D03*
X163830000Y-134620000D03*
X166370000Y-134620000D03*
X171450000Y-134620000D03*
X173990000Y-134620000D03*
X176530000Y-134620000D03*
X179070000Y-134620000D03*
X181610000Y-134620000D03*
D14*
X166370000Y-127508000D03*
X166370000Y-130175000D03*
D15*
X170180000Y-114935000D03*
X170180000Y-121285000D03*
X170180000Y-125730000D03*
D16*
X172720000Y-125730000D03*
X173990000Y-125730000D03*
X171450000Y-125730000D03*
X172720000Y-120650000D03*
X171450000Y-120650000D03*
X173990000Y-120650000D03*
D15*
X168021000Y-71882000D03*
X167640000Y-94234000D03*
X159639000Y-130175000D03*
X173736000Y-114427000D03*
X179070000Y-127000000D03*
X177800000Y-127000000D03*
X180340000Y-127000000D03*
X179705000Y-130175000D03*
X178435000Y-130175000D03*
X168910000Y-123190000D03*
D14*
X167640000Y-118110000D03*
X164465000Y-118110000D03*
D15*
X174371000Y-130175000D03*
X170307000Y-130175000D03*
X167640000Y-110490000D03*
X167640000Y-105410000D03*
X167640000Y-100330000D03*
X172720000Y-113030000D03*
X172720000Y-107950000D03*
X172720000Y-102870000D03*
X172720000Y-97790000D03*
X167640000Y-95250000D03*
X172720000Y-87630000D03*
X172720000Y-92710000D03*
X167640000Y-90170000D03*
X167640000Y-85090000D03*
X167640000Y-80010000D03*
X172720000Y-82550000D03*
X172720000Y-77470000D03*
X167640000Y-74930000D03*
X181610000Y-102870000D03*
X181610000Y-72390000D03*
X181610000Y-77470000D03*
X181610000Y-82550000D03*
X181610000Y-87630000D03*
X181610000Y-92710000D03*
X181610000Y-97790000D03*
X181610000Y-107950000D03*
X158750000Y-102870000D03*
X158750000Y-97790000D03*
X158750000Y-92710000D03*
X158750000Y-87630000D03*
X158750000Y-82550000D03*
X158750000Y-77470000D03*
X158750000Y-72390000D03*
X158750000Y-107950000D03*
D14*
X163830000Y-130175000D03*
X165735000Y-127508000D03*
X165735000Y-122555000D03*
X166370000Y-123190000D03*
X166370000Y-118110000D03*
X158750000Y-121920000D03*
X165735000Y-121920000D03*
X165735000Y-118110000D03*
X158750000Y-123190000D03*
X165100000Y-123190000D03*
X165100000Y-118110000D03*
X164973000Y-127508000D03*
X159385000Y-128905000D03*
X167005000Y-130175000D03*
X167005000Y-127508000D03*
X163830000Y-78740000D03*
X163830000Y-118110000D03*
X176530000Y-117475000D03*
X176530000Y-73660000D03*
X162560000Y-83820000D03*
X162560000Y-118110000D03*
X177800000Y-116840000D03*
X177800000Y-78740000D03*
X161290000Y-118110000D03*
X161290000Y-88900000D03*
X179070000Y-116205000D03*
X179070000Y-83820000D03*
X160020000Y-118110000D03*
X160020000Y-93980000D03*
X180340000Y-115570000D03*
X180340000Y-88900000D03*
X159385000Y-127508000D03*
X159385000Y-99060000D03*
X180975000Y-93980000D03*
X180975000Y-129540000D03*
X160655000Y-104140000D03*
X160655000Y-127508000D03*
X179705000Y-129032000D03*
X179705000Y-99060000D03*
X161925000Y-109220000D03*
X161925000Y-127508000D03*
X178435000Y-104140000D03*
X178435000Y-128524000D03*
X163195000Y-114300000D03*
X163195000Y-127508000D03*
X177165000Y-109220000D03*
X177165000Y-128016000D03*
X168910000Y-121602500D03*
X168910000Y-118110000D03*
X182880000Y-117475000D03*
D17*
G36*
X158390772Y-71851360D02*
X158211987Y-72029832D01*
X158115111Y-72263137D01*
X158114890Y-72515755D01*
X158211360Y-72749228D01*
X158389832Y-72928013D01*
X158623137Y-73024889D01*
X158875755Y-73025110D01*
X159109228Y-72928640D01*
X159288013Y-72750168D01*
X159384889Y-72516863D01*
X159385110Y-72264245D01*
X159288640Y-72030772D01*
X159110168Y-71851987D01*
X159029522Y-71818500D01*
X181330299Y-71818500D01*
X181250772Y-71851360D01*
X181071987Y-72029832D01*
X180975111Y-72263137D01*
X180974890Y-72515755D01*
X181071360Y-72749228D01*
X181249832Y-72928013D01*
X181483137Y-73024889D01*
X181735755Y-73025110D01*
X181941197Y-72940222D01*
X183520024Y-72940222D01*
X184150000Y-73570197D01*
X184779976Y-72940222D01*
X184706372Y-72786186D01*
X184329627Y-72639787D01*
X183925535Y-72648706D01*
X183593628Y-72786186D01*
X183520024Y-72940222D01*
X181941197Y-72940222D01*
X181969228Y-72928640D01*
X182148013Y-72750168D01*
X182244889Y-72516863D01*
X182245110Y-72264245D01*
X182148640Y-72030772D01*
X181970168Y-71851987D01*
X181889522Y-71818500D01*
X185991500Y-71818500D01*
X185991500Y-136461500D01*
X154368500Y-136461500D01*
X154368500Y-135339778D01*
X155580024Y-135339778D01*
X155653628Y-135493814D01*
X156030373Y-135640213D01*
X156434465Y-135631294D01*
X156766372Y-135493814D01*
X156839976Y-135339778D01*
X158120024Y-135339778D01*
X158193628Y-135493814D01*
X158570373Y-135640213D01*
X158974465Y-135631294D01*
X159306372Y-135493814D01*
X159379976Y-135339778D01*
X160660024Y-135339778D01*
X160733628Y-135493814D01*
X161110373Y-135640213D01*
X161514465Y-135631294D01*
X161846372Y-135493814D01*
X161919976Y-135339778D01*
X163200024Y-135339778D01*
X163273628Y-135493814D01*
X163650373Y-135640213D01*
X164054465Y-135631294D01*
X164386372Y-135493814D01*
X164459976Y-135339778D01*
X165740024Y-135339778D01*
X165813628Y-135493814D01*
X166190373Y-135640213D01*
X166594465Y-135631294D01*
X166926372Y-135493814D01*
X166999976Y-135339778D01*
X168280024Y-135339778D01*
X168353628Y-135493814D01*
X168730373Y-135640213D01*
X169134465Y-135631294D01*
X169466372Y-135493814D01*
X169539976Y-135339778D01*
X170820024Y-135339778D01*
X170893628Y-135493814D01*
X171270373Y-135640213D01*
X171674465Y-135631294D01*
X172006372Y-135493814D01*
X172079976Y-135339778D01*
X173360024Y-135339778D01*
X173433628Y-135493814D01*
X173810373Y-135640213D01*
X174214465Y-135631294D01*
X174546372Y-135493814D01*
X174619976Y-135339778D01*
X175900024Y-135339778D01*
X175973628Y-135493814D01*
X176350373Y-135640213D01*
X176754465Y-135631294D01*
X177086372Y-135493814D01*
X177159976Y-135339778D01*
X178440024Y-135339778D01*
X178513628Y-135493814D01*
X178890373Y-135640213D01*
X179294465Y-135631294D01*
X179626372Y-135493814D01*
X179699976Y-135339778D01*
X180980024Y-135339778D01*
X181053628Y-135493814D01*
X181430373Y-135640213D01*
X181834465Y-135631294D01*
X182166372Y-135493814D01*
X182239976Y-135339778D01*
X183520024Y-135339778D01*
X183593628Y-135493814D01*
X183970373Y-135640213D01*
X184374465Y-135631294D01*
X184706372Y-135493814D01*
X184779976Y-135339778D01*
X184150000Y-134709803D01*
X183520024Y-135339778D01*
X182239976Y-135339778D01*
X181610000Y-134709803D01*
X180980024Y-135339778D01*
X179699976Y-135339778D01*
X179070000Y-134709803D01*
X178440024Y-135339778D01*
X177159976Y-135339778D01*
X176530000Y-134709803D01*
X175900024Y-135339778D01*
X174619976Y-135339778D01*
X173990000Y-134709803D01*
X173360024Y-135339778D01*
X172079976Y-135339778D01*
X171450000Y-134709803D01*
X170820024Y-135339778D01*
X169539976Y-135339778D01*
X168910000Y-134709803D01*
X168280024Y-135339778D01*
X166999976Y-135339778D01*
X166370000Y-134709803D01*
X165740024Y-135339778D01*
X164459976Y-135339778D01*
X163830000Y-134709803D01*
X163200024Y-135339778D01*
X161919976Y-135339778D01*
X161290000Y-134709803D01*
X160660024Y-135339778D01*
X159379976Y-135339778D01*
X158750000Y-134709803D01*
X158120024Y-135339778D01*
X156839976Y-135339778D01*
X156210000Y-134709803D01*
X155580024Y-135339778D01*
X154368500Y-135339778D01*
X154368500Y-134440373D01*
X155189787Y-134440373D01*
X155198706Y-134844465D01*
X155336186Y-135176372D01*
X155490222Y-135249976D01*
X156120197Y-134620000D01*
X156299803Y-134620000D01*
X156929778Y-135249976D01*
X157083814Y-135176372D01*
X157230213Y-134799627D01*
X157222284Y-134440373D01*
X157729787Y-134440373D01*
X157738706Y-134844465D01*
X157876186Y-135176372D01*
X158030222Y-135249976D01*
X158660197Y-134620000D01*
X158839803Y-134620000D01*
X159469778Y-135249976D01*
X159623814Y-135176372D01*
X159770213Y-134799627D01*
X159762284Y-134440373D01*
X160269787Y-134440373D01*
X160278706Y-134844465D01*
X160416186Y-135176372D01*
X160570222Y-135249976D01*
X161200197Y-134620000D01*
X161379803Y-134620000D01*
X162009778Y-135249976D01*
X162163814Y-135176372D01*
X162310213Y-134799627D01*
X162302284Y-134440373D01*
X162809787Y-134440373D01*
X162818706Y-134844465D01*
X162956186Y-135176372D01*
X163110222Y-135249976D01*
X163740197Y-134620000D01*
X163919803Y-134620000D01*
X164549778Y-135249976D01*
X164703814Y-135176372D01*
X164850213Y-134799627D01*
X164842284Y-134440373D01*
X165349787Y-134440373D01*
X165358706Y-134844465D01*
X165496186Y-135176372D01*
X165650222Y-135249976D01*
X166280197Y-134620000D01*
X166459803Y-134620000D01*
X167089778Y-135249976D01*
X167243814Y-135176372D01*
X167390213Y-134799627D01*
X167382284Y-134440373D01*
X167889787Y-134440373D01*
X167898706Y-134844465D01*
X168036186Y-135176372D01*
X168190222Y-135249976D01*
X168820197Y-134620000D01*
X168999803Y-134620000D01*
X169629778Y-135249976D01*
X169783814Y-135176372D01*
X169930213Y-134799627D01*
X169922284Y-134440373D01*
X170429787Y-134440373D01*
X170438706Y-134844465D01*
X170576186Y-135176372D01*
X170730222Y-135249976D01*
X171360197Y-134620000D01*
X171539803Y-134620000D01*
X172169778Y-135249976D01*
X172323814Y-135176372D01*
X172470213Y-134799627D01*
X172462284Y-134440373D01*
X172969787Y-134440373D01*
X172978706Y-134844465D01*
X173116186Y-135176372D01*
X173270222Y-135249976D01*
X173900197Y-134620000D01*
X174079803Y-134620000D01*
X174709778Y-135249976D01*
X174863814Y-135176372D01*
X175010213Y-134799627D01*
X175002284Y-134440373D01*
X175509787Y-134440373D01*
X175518706Y-134844465D01*
X175656186Y-135176372D01*
X175810222Y-135249976D01*
X176440197Y-134620000D01*
X176619803Y-134620000D01*
X177249778Y-135249976D01*
X177403814Y-135176372D01*
X177550213Y-134799627D01*
X177542284Y-134440373D01*
X178049787Y-134440373D01*
X178058706Y-134844465D01*
X178196186Y-135176372D01*
X178350222Y-135249976D01*
X178980197Y-134620000D01*
X179159803Y-134620000D01*
X179789778Y-135249976D01*
X179943814Y-135176372D01*
X180090213Y-134799627D01*
X180082284Y-134440373D01*
X180589787Y-134440373D01*
X180598706Y-134844465D01*
X180736186Y-135176372D01*
X180890222Y-135249976D01*
X181520197Y-134620000D01*
X181699803Y-134620000D01*
X182329778Y-135249976D01*
X182483814Y-135176372D01*
X182630213Y-134799627D01*
X182622284Y-134440373D01*
X183129787Y-134440373D01*
X183138706Y-134844465D01*
X183276186Y-135176372D01*
X183430222Y-135249976D01*
X184060197Y-134620000D01*
X184239803Y-134620000D01*
X184869778Y-135249976D01*
X185023814Y-135176372D01*
X185170213Y-134799627D01*
X185161294Y-134395535D01*
X185023814Y-134063628D01*
X184869778Y-133990024D01*
X184239803Y-134620000D01*
X184060197Y-134620000D01*
X183430222Y-133990024D01*
X183276186Y-134063628D01*
X183129787Y-134440373D01*
X182622284Y-134440373D01*
X182621294Y-134395535D01*
X182483814Y-134063628D01*
X182329778Y-133990024D01*
X181699803Y-134620000D01*
X181520197Y-134620000D01*
X180890222Y-133990024D01*
X180736186Y-134063628D01*
X180589787Y-134440373D01*
X180082284Y-134440373D01*
X180081294Y-134395535D01*
X179943814Y-134063628D01*
X179789778Y-133990024D01*
X179159803Y-134620000D01*
X178980197Y-134620000D01*
X178350222Y-133990024D01*
X178196186Y-134063628D01*
X178049787Y-134440373D01*
X177542284Y-134440373D01*
X177541294Y-134395535D01*
X177403814Y-134063628D01*
X177249778Y-133990024D01*
X176619803Y-134620000D01*
X176440197Y-134620000D01*
X175810222Y-133990024D01*
X175656186Y-134063628D01*
X175509787Y-134440373D01*
X175002284Y-134440373D01*
X175001294Y-134395535D01*
X174863814Y-134063628D01*
X174709778Y-133990024D01*
X174079803Y-134620000D01*
X173900197Y-134620000D01*
X173270222Y-133990024D01*
X173116186Y-134063628D01*
X172969787Y-134440373D01*
X172462284Y-134440373D01*
X172461294Y-134395535D01*
X172323814Y-134063628D01*
X172169778Y-133990024D01*
X171539803Y-134620000D01*
X171360197Y-134620000D01*
X170730222Y-133990024D01*
X170576186Y-134063628D01*
X170429787Y-134440373D01*
X169922284Y-134440373D01*
X169921294Y-134395535D01*
X169783814Y-134063628D01*
X169629778Y-133990024D01*
X168999803Y-134620000D01*
X168820197Y-134620000D01*
X168190222Y-133990024D01*
X168036186Y-134063628D01*
X167889787Y-134440373D01*
X167382284Y-134440373D01*
X167381294Y-134395535D01*
X167243814Y-134063628D01*
X167089778Y-133990024D01*
X166459803Y-134620000D01*
X166280197Y-134620000D01*
X165650222Y-133990024D01*
X165496186Y-134063628D01*
X165349787Y-134440373D01*
X164842284Y-134440373D01*
X164841294Y-134395535D01*
X164703814Y-134063628D01*
X164549778Y-133990024D01*
X163919803Y-134620000D01*
X163740197Y-134620000D01*
X163110222Y-133990024D01*
X162956186Y-134063628D01*
X162809787Y-134440373D01*
X162302284Y-134440373D01*
X162301294Y-134395535D01*
X162163814Y-134063628D01*
X162009778Y-133990024D01*
X161379803Y-134620000D01*
X161200197Y-134620000D01*
X160570222Y-133990024D01*
X160416186Y-134063628D01*
X160269787Y-134440373D01*
X159762284Y-134440373D01*
X159761294Y-134395535D01*
X159623814Y-134063628D01*
X159469778Y-133990024D01*
X158839803Y-134620000D01*
X158660197Y-134620000D01*
X158030222Y-133990024D01*
X157876186Y-134063628D01*
X157729787Y-134440373D01*
X157222284Y-134440373D01*
X157221294Y-134395535D01*
X157083814Y-134063628D01*
X156929778Y-133990024D01*
X156299803Y-134620000D01*
X156120197Y-134620000D01*
X155490222Y-133990024D01*
X155336186Y-134063628D01*
X155189787Y-134440373D01*
X154368500Y-134440373D01*
X154368500Y-133900222D01*
X155580024Y-133900222D01*
X156210000Y-134530197D01*
X156839976Y-133900222D01*
X158120024Y-133900222D01*
X158750000Y-134530197D01*
X159379976Y-133900222D01*
X160660024Y-133900222D01*
X161290000Y-134530197D01*
X161919976Y-133900222D01*
X163200024Y-133900222D01*
X163830000Y-134530197D01*
X164459976Y-133900222D01*
X165740024Y-133900222D01*
X166370000Y-134530197D01*
X166999976Y-133900222D01*
X168280024Y-133900222D01*
X168910000Y-134530197D01*
X169539976Y-133900222D01*
X170820024Y-133900222D01*
X171450000Y-134530197D01*
X172079976Y-133900222D01*
X173360024Y-133900222D01*
X173990000Y-134530197D01*
X174619976Y-133900222D01*
X175900024Y-133900222D01*
X176530000Y-134530197D01*
X177159976Y-133900222D01*
X178440024Y-133900222D01*
X179070000Y-134530197D01*
X179699976Y-133900222D01*
X180980024Y-133900222D01*
X181610000Y-134530197D01*
X182239976Y-133900222D01*
X183520024Y-133900222D01*
X184150000Y-134530197D01*
X184779976Y-133900222D01*
X184706372Y-133746186D01*
X184329627Y-133599787D01*
X183925535Y-133608706D01*
X183593628Y-133746186D01*
X183520024Y-133900222D01*
X182239976Y-133900222D01*
X182166372Y-133746186D01*
X181789627Y-133599787D01*
X181385535Y-133608706D01*
X181053628Y-133746186D01*
X180980024Y-133900222D01*
X179699976Y-133900222D01*
X179626372Y-133746186D01*
X179249627Y-133599787D01*
X178845535Y-133608706D01*
X178513628Y-133746186D01*
X178440024Y-133900222D01*
X177159976Y-133900222D01*
X177086372Y-133746186D01*
X176709627Y-133599787D01*
X176305535Y-133608706D01*
X175973628Y-133746186D01*
X175900024Y-133900222D01*
X174619976Y-133900222D01*
X174546372Y-133746186D01*
X174169627Y-133599787D01*
X173765535Y-133608706D01*
X173433628Y-133746186D01*
X173360024Y-133900222D01*
X172079976Y-133900222D01*
X172006372Y-133746186D01*
X171629627Y-133599787D01*
X171225535Y-133608706D01*
X170893628Y-133746186D01*
X170820024Y-133900222D01*
X169539976Y-133900222D01*
X169466372Y-133746186D01*
X169089627Y-133599787D01*
X168685535Y-133608706D01*
X168353628Y-133746186D01*
X168280024Y-133900222D01*
X166999976Y-133900222D01*
X166926372Y-133746186D01*
X166549627Y-133599787D01*
X166145535Y-133608706D01*
X165813628Y-133746186D01*
X165740024Y-133900222D01*
X164459976Y-133900222D01*
X164386372Y-133746186D01*
X164009627Y-133599787D01*
X163605535Y-133608706D01*
X163273628Y-133746186D01*
X163200024Y-133900222D01*
X161919976Y-133900222D01*
X161846372Y-133746186D01*
X161469627Y-133599787D01*
X161065535Y-133608706D01*
X160733628Y-133746186D01*
X160660024Y-133900222D01*
X159379976Y-133900222D01*
X159306372Y-133746186D01*
X158929627Y-133599787D01*
X158525535Y-133608706D01*
X158193628Y-133746186D01*
X158120024Y-133900222D01*
X156839976Y-133900222D01*
X156766372Y-133746186D01*
X156389627Y-133599787D01*
X155985535Y-133608706D01*
X155653628Y-133746186D01*
X155580024Y-133900222D01*
X154368500Y-133900222D01*
X154368500Y-132281208D01*
X155193824Y-132281208D01*
X155348175Y-132654766D01*
X155633731Y-132940821D01*
X156007018Y-133095824D01*
X156411208Y-133096176D01*
X156784766Y-132941825D01*
X157070821Y-132656269D01*
X157225824Y-132282982D01*
X157225825Y-132281208D01*
X157733824Y-132281208D01*
X157888175Y-132654766D01*
X158173731Y-132940821D01*
X158547018Y-133095824D01*
X158951208Y-133096176D01*
X159324766Y-132941825D01*
X159610821Y-132656269D01*
X159765824Y-132282982D01*
X159765825Y-132281208D01*
X160273824Y-132281208D01*
X160428175Y-132654766D01*
X160713731Y-132940821D01*
X161087018Y-133095824D01*
X161491208Y-133096176D01*
X161864766Y-132941825D01*
X162150821Y-132656269D01*
X162305824Y-132282982D01*
X162305825Y-132281208D01*
X162813824Y-132281208D01*
X162968175Y-132654766D01*
X163253731Y-132940821D01*
X163627018Y-133095824D01*
X164031208Y-133096176D01*
X164404766Y-132941825D01*
X164690821Y-132656269D01*
X164845824Y-132282982D01*
X164845825Y-132281208D01*
X165353824Y-132281208D01*
X165508175Y-132654766D01*
X165793731Y-132940821D01*
X166167018Y-133095824D01*
X166571208Y-133096176D01*
X166944766Y-132941825D01*
X167230821Y-132656269D01*
X167385824Y-132282982D01*
X167385825Y-132281208D01*
X167893824Y-132281208D01*
X168048175Y-132654766D01*
X168333731Y-132940821D01*
X168707018Y-133095824D01*
X169111208Y-133096176D01*
X169484766Y-132941825D01*
X169770821Y-132656269D01*
X169925824Y-132282982D01*
X169925825Y-132281208D01*
X170433824Y-132281208D01*
X170588175Y-132654766D01*
X170873731Y-132940821D01*
X171247018Y-133095824D01*
X171651208Y-133096176D01*
X172024766Y-132941825D01*
X172310821Y-132656269D01*
X172465824Y-132282982D01*
X172465825Y-132281208D01*
X172973824Y-132281208D01*
X173128175Y-132654766D01*
X173413731Y-132940821D01*
X173787018Y-133095824D01*
X174191208Y-133096176D01*
X174564766Y-132941825D01*
X174850821Y-132656269D01*
X175005824Y-132282982D01*
X175005825Y-132281208D01*
X175513824Y-132281208D01*
X175668175Y-132654766D01*
X175953731Y-132940821D01*
X176327018Y-133095824D01*
X176731208Y-133096176D01*
X177104766Y-132941825D01*
X177390821Y-132656269D01*
X177545824Y-132282982D01*
X177545825Y-132281208D01*
X178053824Y-132281208D01*
X178208175Y-132654766D01*
X178493731Y-132940821D01*
X178867018Y-133095824D01*
X179271208Y-133096176D01*
X179644766Y-132941825D01*
X179930821Y-132656269D01*
X180085824Y-132282982D01*
X180085825Y-132281208D01*
X180593824Y-132281208D01*
X180748175Y-132654766D01*
X181033731Y-132940821D01*
X181407018Y-133095824D01*
X181811208Y-133096176D01*
X182184766Y-132941825D01*
X182470821Y-132656269D01*
X182625824Y-132282982D01*
X182625825Y-132281208D01*
X183133824Y-132281208D01*
X183288175Y-132654766D01*
X183573731Y-132940821D01*
X183947018Y-133095824D01*
X184351208Y-133096176D01*
X184724766Y-132941825D01*
X185010821Y-132656269D01*
X185165824Y-132282982D01*
X185166176Y-131878792D01*
X185011825Y-131505234D01*
X184726269Y-131219179D01*
X184352982Y-131064176D01*
X183948792Y-131063824D01*
X183575234Y-131218175D01*
X183289179Y-131503731D01*
X183134176Y-131877018D01*
X183133824Y-132281208D01*
X182625825Y-132281208D01*
X182626176Y-131878792D01*
X182471825Y-131505234D01*
X182186269Y-131219179D01*
X181812982Y-131064176D01*
X181408792Y-131063824D01*
X181035234Y-131218175D01*
X180749179Y-131503731D01*
X180594176Y-131877018D01*
X180593824Y-132281208D01*
X180085825Y-132281208D01*
X180086176Y-131878792D01*
X179931825Y-131505234D01*
X179646269Y-131219179D01*
X179272982Y-131064176D01*
X178868792Y-131063824D01*
X178495234Y-131218175D01*
X178209179Y-131503731D01*
X178054176Y-131877018D01*
X178053824Y-132281208D01*
X177545825Y-132281208D01*
X177546176Y-131878792D01*
X177391825Y-131505234D01*
X177106269Y-131219179D01*
X176732982Y-131064176D01*
X176328792Y-131063824D01*
X175955234Y-131218175D01*
X175669179Y-131503731D01*
X175514176Y-131877018D01*
X175513824Y-132281208D01*
X175005825Y-132281208D01*
X175006176Y-131878792D01*
X174851825Y-131505234D01*
X174566269Y-131219179D01*
X174192982Y-131064176D01*
X173788792Y-131063824D01*
X173415234Y-131218175D01*
X173129179Y-131503731D01*
X172974176Y-131877018D01*
X172973824Y-132281208D01*
X172465825Y-132281208D01*
X172466176Y-131878792D01*
X172311825Y-131505234D01*
X172026269Y-131219179D01*
X171652982Y-131064176D01*
X171248792Y-131063824D01*
X170875234Y-131218175D01*
X170589179Y-131503731D01*
X170434176Y-131877018D01*
X170433824Y-132281208D01*
X169925825Y-132281208D01*
X169926176Y-131878792D01*
X169771825Y-131505234D01*
X169486269Y-131219179D01*
X169112982Y-131064176D01*
X168708792Y-131063824D01*
X168335234Y-131218175D01*
X168049179Y-131503731D01*
X167894176Y-131877018D01*
X167893824Y-132281208D01*
X167385825Y-132281208D01*
X167386176Y-131878792D01*
X167231825Y-131505234D01*
X166946269Y-131219179D01*
X166572982Y-131064176D01*
X166168792Y-131063824D01*
X165795234Y-131218175D01*
X165509179Y-131503731D01*
X165354176Y-131877018D01*
X165353824Y-132281208D01*
X164845825Y-132281208D01*
X164846176Y-131878792D01*
X164691825Y-131505234D01*
X164406269Y-131219179D01*
X164032982Y-131064176D01*
X163628792Y-131063824D01*
X163255234Y-131218175D01*
X162969179Y-131503731D01*
X162814176Y-131877018D01*
X162813824Y-132281208D01*
X162305825Y-132281208D01*
X162306176Y-131878792D01*
X162151825Y-131505234D01*
X161866269Y-131219179D01*
X161492982Y-131064176D01*
X161088792Y-131063824D01*
X160715234Y-131218175D01*
X160429179Y-131503731D01*
X160274176Y-131877018D01*
X160273824Y-132281208D01*
X159765825Y-132281208D01*
X159766176Y-131878792D01*
X159611825Y-131505234D01*
X159326269Y-131219179D01*
X158952982Y-131064176D01*
X158548792Y-131063824D01*
X158175234Y-131218175D01*
X157889179Y-131503731D01*
X157734176Y-131877018D01*
X157733824Y-132281208D01*
X157225825Y-132281208D01*
X157226176Y-131878792D01*
X157071825Y-131505234D01*
X156786269Y-131219179D01*
X156412982Y-131064176D01*
X156008792Y-131063824D01*
X155635234Y-131218175D01*
X155349179Y-131503731D01*
X155194176Y-131877018D01*
X155193824Y-132281208D01*
X154368500Y-132281208D01*
X154368500Y-129741208D01*
X155193824Y-129741208D01*
X155348175Y-130114766D01*
X155633731Y-130400821D01*
X156007018Y-130555824D01*
X156411208Y-130556176D01*
X156784766Y-130401825D01*
X156908688Y-130278119D01*
X163309210Y-130278119D01*
X163388315Y-130469567D01*
X163534662Y-130616170D01*
X163725972Y-130695609D01*
X163933119Y-130695790D01*
X164124567Y-130616685D01*
X164271170Y-130470338D01*
X164350609Y-130279028D01*
X164350609Y-130278119D01*
X165849210Y-130278119D01*
X165928315Y-130469567D01*
X166074662Y-130616170D01*
X166265972Y-130695609D01*
X166473119Y-130695790D01*
X166664567Y-130616685D01*
X166687411Y-130593880D01*
X166709662Y-130616170D01*
X166900972Y-130695609D01*
X167108119Y-130695790D01*
X167299567Y-130616685D01*
X167446170Y-130470338D01*
X167525609Y-130279028D01*
X167525790Y-130071881D01*
X167446685Y-129880433D01*
X167300338Y-129733830D01*
X167109028Y-129654391D01*
X166901881Y-129654210D01*
X166710433Y-129733315D01*
X166687589Y-129756120D01*
X166665338Y-129733830D01*
X166474028Y-129654391D01*
X166266881Y-129654210D01*
X166075433Y-129733315D01*
X165928830Y-129879662D01*
X165849391Y-130070972D01*
X165849210Y-130278119D01*
X164350609Y-130278119D01*
X164350790Y-130071881D01*
X164271685Y-129880433D01*
X164125338Y-129733830D01*
X163934028Y-129654391D01*
X163726881Y-129654210D01*
X163535433Y-129733315D01*
X163388830Y-129879662D01*
X163309391Y-130070972D01*
X163309210Y-130278119D01*
X156908688Y-130278119D01*
X157070821Y-130116269D01*
X157225824Y-129742982D01*
X157225910Y-129643119D01*
X180454210Y-129643119D01*
X180533315Y-129834567D01*
X180679662Y-129981170D01*
X180870972Y-130060609D01*
X181078119Y-130060790D01*
X181269567Y-129981685D01*
X181416170Y-129835338D01*
X181455256Y-129741208D01*
X183133824Y-129741208D01*
X183288175Y-130114766D01*
X183573731Y-130400821D01*
X183947018Y-130555824D01*
X184351208Y-130556176D01*
X184724766Y-130401825D01*
X185010821Y-130116269D01*
X185165824Y-129742982D01*
X185166176Y-129338792D01*
X185011825Y-128965234D01*
X184726269Y-128679179D01*
X184352982Y-128524176D01*
X183948792Y-128523824D01*
X183575234Y-128678175D01*
X183289179Y-128963731D01*
X183134176Y-129337018D01*
X183133824Y-129741208D01*
X181455256Y-129741208D01*
X181495609Y-129644028D01*
X181495790Y-129436881D01*
X181416685Y-129245433D01*
X181270338Y-129098830D01*
X181079028Y-129019391D01*
X180871881Y-129019210D01*
X180680433Y-129098315D01*
X180533830Y-129244662D01*
X180454391Y-129435972D01*
X180454210Y-129643119D01*
X157225910Y-129643119D01*
X157226176Y-129338792D01*
X157089545Y-129008119D01*
X158864210Y-129008119D01*
X158943315Y-129199567D01*
X159089662Y-129346170D01*
X159280972Y-129425609D01*
X159488119Y-129425790D01*
X159679567Y-129346685D01*
X159826170Y-129200338D01*
X159853251Y-129135119D01*
X179184210Y-129135119D01*
X179263315Y-129326567D01*
X179409662Y-129473170D01*
X179600972Y-129552609D01*
X179808119Y-129552790D01*
X179999567Y-129473685D01*
X180146170Y-129327338D01*
X180225609Y-129136028D01*
X180225790Y-128928881D01*
X180146685Y-128737433D01*
X180000338Y-128590830D01*
X179809028Y-128511391D01*
X179601881Y-128511210D01*
X179410433Y-128590315D01*
X179263830Y-128736662D01*
X179184391Y-128927972D01*
X179184210Y-129135119D01*
X159853251Y-129135119D01*
X159905609Y-129009028D01*
X159905790Y-128801881D01*
X159833580Y-128627119D01*
X177914210Y-128627119D01*
X177993315Y-128818567D01*
X178139662Y-128965170D01*
X178330972Y-129044609D01*
X178538119Y-129044790D01*
X178729567Y-128965685D01*
X178876170Y-128819338D01*
X178955609Y-128628028D01*
X178955790Y-128420881D01*
X178876685Y-128229433D01*
X178730338Y-128082830D01*
X178539028Y-128003391D01*
X178331881Y-128003210D01*
X178140433Y-128082315D01*
X177993830Y-128228662D01*
X177914391Y-128419972D01*
X177914210Y-128627119D01*
X159833580Y-128627119D01*
X159826685Y-128610433D01*
X159680338Y-128463830D01*
X159489028Y-128384391D01*
X159281881Y-128384210D01*
X159090433Y-128463315D01*
X158943830Y-128609662D01*
X158864391Y-128800972D01*
X158864210Y-129008119D01*
X157089545Y-129008119D01*
X157071825Y-128965234D01*
X156786269Y-128679179D01*
X156412982Y-128524176D01*
X156008792Y-128523824D01*
X155635234Y-128678175D01*
X155349179Y-128963731D01*
X155194176Y-129337018D01*
X155193824Y-129741208D01*
X154368500Y-129741208D01*
X154368500Y-128119119D01*
X176644210Y-128119119D01*
X176723315Y-128310567D01*
X176869662Y-128457170D01*
X177060972Y-128536609D01*
X177268119Y-128536790D01*
X177459567Y-128457685D01*
X177606170Y-128311338D01*
X177685609Y-128120028D01*
X177685790Y-127912881D01*
X177606685Y-127721433D01*
X177460338Y-127574830D01*
X177269028Y-127495391D01*
X177061881Y-127495210D01*
X176870433Y-127574315D01*
X176723830Y-127720662D01*
X176644391Y-127911972D01*
X176644210Y-128119119D01*
X154368500Y-128119119D01*
X154368500Y-127201208D01*
X155193824Y-127201208D01*
X155348175Y-127574766D01*
X155633731Y-127860821D01*
X156007018Y-128015824D01*
X156411208Y-128016176D01*
X156784766Y-127861825D01*
X157035910Y-127611119D01*
X158864210Y-127611119D01*
X158943315Y-127802567D01*
X159089662Y-127949170D01*
X159280972Y-128028609D01*
X159488119Y-128028790D01*
X159679567Y-127949685D01*
X159826170Y-127803338D01*
X159905609Y-127612028D01*
X159905609Y-127611119D01*
X160134210Y-127611119D01*
X160213315Y-127802567D01*
X160359662Y-127949170D01*
X160550972Y-128028609D01*
X160758119Y-128028790D01*
X160949567Y-127949685D01*
X161096170Y-127803338D01*
X161175609Y-127612028D01*
X161175609Y-127611119D01*
X161404210Y-127611119D01*
X161483315Y-127802567D01*
X161629662Y-127949170D01*
X161820972Y-128028609D01*
X162028119Y-128028790D01*
X162219567Y-127949685D01*
X162366170Y-127803338D01*
X162445609Y-127612028D01*
X162445609Y-127611119D01*
X162674210Y-127611119D01*
X162753315Y-127802567D01*
X162899662Y-127949170D01*
X163090972Y-128028609D01*
X163298119Y-128028790D01*
X163489567Y-127949685D01*
X163636170Y-127803338D01*
X163715609Y-127612028D01*
X163715609Y-127611119D01*
X164452210Y-127611119D01*
X164531315Y-127802567D01*
X164677662Y-127949170D01*
X164868972Y-128028609D01*
X165076119Y-128028790D01*
X165267567Y-127949685D01*
X165354022Y-127863381D01*
X165439662Y-127949170D01*
X165630972Y-128028609D01*
X165838119Y-128028790D01*
X166029567Y-127949685D01*
X166052411Y-127926880D01*
X166074662Y-127949170D01*
X166265972Y-128028609D01*
X166473119Y-128028790D01*
X166664567Y-127949685D01*
X166687411Y-127926880D01*
X166709662Y-127949170D01*
X166900972Y-128028609D01*
X167108119Y-128028790D01*
X167299567Y-127949685D01*
X167446170Y-127803338D01*
X167525609Y-127612028D01*
X167525790Y-127404881D01*
X167446685Y-127213433D01*
X167434482Y-127201208D01*
X183133824Y-127201208D01*
X183288175Y-127574766D01*
X183573731Y-127860821D01*
X183947018Y-128015824D01*
X184351208Y-128016176D01*
X184724766Y-127861825D01*
X185010821Y-127576269D01*
X185165824Y-127202982D01*
X185166176Y-126798792D01*
X185011825Y-126425234D01*
X184726269Y-126139179D01*
X184352982Y-125984176D01*
X183948792Y-125983824D01*
X183575234Y-126138175D01*
X183289179Y-126423731D01*
X183134176Y-126797018D01*
X183133824Y-127201208D01*
X167434482Y-127201208D01*
X167300338Y-127066830D01*
X167109028Y-126987391D01*
X166901881Y-126987210D01*
X166710433Y-127066315D01*
X166687589Y-127089120D01*
X166665338Y-127066830D01*
X166474028Y-126987391D01*
X166266881Y-126987210D01*
X166075433Y-127066315D01*
X166052589Y-127089120D01*
X166030338Y-127066830D01*
X165839028Y-126987391D01*
X165631881Y-126987210D01*
X165440433Y-127066315D01*
X165353978Y-127152619D01*
X165268338Y-127066830D01*
X165077028Y-126987391D01*
X164869881Y-126987210D01*
X164678433Y-127066315D01*
X164531830Y-127212662D01*
X164452391Y-127403972D01*
X164452210Y-127611119D01*
X163715609Y-127611119D01*
X163715790Y-127404881D01*
X163636685Y-127213433D01*
X163490338Y-127066830D01*
X163299028Y-126987391D01*
X163091881Y-126987210D01*
X162900433Y-127066315D01*
X162753830Y-127212662D01*
X162674391Y-127403972D01*
X162674210Y-127611119D01*
X162445609Y-127611119D01*
X162445790Y-127404881D01*
X162366685Y-127213433D01*
X162220338Y-127066830D01*
X162029028Y-126987391D01*
X161821881Y-126987210D01*
X161630433Y-127066315D01*
X161483830Y-127212662D01*
X161404391Y-127403972D01*
X161404210Y-127611119D01*
X161175609Y-127611119D01*
X161175790Y-127404881D01*
X161096685Y-127213433D01*
X160950338Y-127066830D01*
X160759028Y-126987391D01*
X160551881Y-126987210D01*
X160360433Y-127066315D01*
X160213830Y-127212662D01*
X160134391Y-127403972D01*
X160134210Y-127611119D01*
X159905609Y-127611119D01*
X159905790Y-127404881D01*
X159826685Y-127213433D01*
X159680338Y-127066830D01*
X159489028Y-126987391D01*
X159281881Y-126987210D01*
X159090433Y-127066315D01*
X158943830Y-127212662D01*
X158864391Y-127403972D01*
X158864210Y-127611119D01*
X157035910Y-127611119D01*
X157070821Y-127576269D01*
X157225824Y-127202982D01*
X157226176Y-126798792D01*
X157071825Y-126425234D01*
X156786269Y-126139179D01*
X156412982Y-125984176D01*
X156008792Y-125983824D01*
X155635234Y-126138175D01*
X155349179Y-126423731D01*
X155194176Y-126797018D01*
X155193824Y-127201208D01*
X154368500Y-127201208D01*
X154368500Y-125855755D01*
X169544890Y-125855755D01*
X169641360Y-126089228D01*
X169819832Y-126268013D01*
X170053137Y-126364889D01*
X170305755Y-126365110D01*
X170539228Y-126268640D01*
X170718013Y-126090168D01*
X170746243Y-126022183D01*
X170803632Y-126161074D01*
X171017798Y-126375615D01*
X171297764Y-126491867D01*
X171600906Y-126492132D01*
X171881074Y-126376368D01*
X172085168Y-126172630D01*
X172287798Y-126375615D01*
X172567764Y-126491867D01*
X172870906Y-126492132D01*
X173151074Y-126376368D01*
X173355168Y-126172630D01*
X173557798Y-126375615D01*
X173837764Y-126491867D01*
X174140906Y-126492132D01*
X174421074Y-126376368D01*
X174635615Y-126162202D01*
X174751867Y-125882236D01*
X174752132Y-125579094D01*
X174636368Y-125298926D01*
X174422202Y-125084385D01*
X174142236Y-124968133D01*
X173839094Y-124967868D01*
X173558926Y-125083632D01*
X173354832Y-125287370D01*
X173152202Y-125084385D01*
X172872236Y-124968133D01*
X172569094Y-124967868D01*
X172288926Y-125083632D01*
X172084832Y-125287370D01*
X171882202Y-125084385D01*
X171602236Y-124968133D01*
X171299094Y-124967868D01*
X171018926Y-125083632D01*
X170804385Y-125297798D01*
X170746293Y-125437698D01*
X170718640Y-125370772D01*
X170540168Y-125191987D01*
X170306863Y-125095111D01*
X170054245Y-125094890D01*
X169820772Y-125191360D01*
X169641987Y-125369832D01*
X169545111Y-125603137D01*
X169544890Y-125855755D01*
X154368500Y-125855755D01*
X154368500Y-124661208D01*
X155193824Y-124661208D01*
X155348175Y-125034766D01*
X155633731Y-125320821D01*
X156007018Y-125475824D01*
X156411208Y-125476176D01*
X156784766Y-125321825D01*
X157070821Y-125036269D01*
X157225824Y-124662982D01*
X157225825Y-124661208D01*
X183133824Y-124661208D01*
X183288175Y-125034766D01*
X183573731Y-125320821D01*
X183947018Y-125475824D01*
X184351208Y-125476176D01*
X184724766Y-125321825D01*
X185010821Y-125036269D01*
X185165824Y-124662982D01*
X185166176Y-124258792D01*
X185011825Y-123885234D01*
X184726269Y-123599179D01*
X184352982Y-123444176D01*
X183948792Y-123443824D01*
X183575234Y-123598175D01*
X183289179Y-123883731D01*
X183134176Y-124257018D01*
X183133824Y-124661208D01*
X157225825Y-124661208D01*
X157226176Y-124258792D01*
X157071825Y-123885234D01*
X156786269Y-123599179D01*
X156412982Y-123444176D01*
X156008792Y-123443824D01*
X155635234Y-123598175D01*
X155349179Y-123883731D01*
X155194176Y-124257018D01*
X155193824Y-124661208D01*
X154368500Y-124661208D01*
X154368500Y-123293119D01*
X158229210Y-123293119D01*
X158308315Y-123484567D01*
X158454662Y-123631170D01*
X158645972Y-123710609D01*
X158853119Y-123710790D01*
X159044567Y-123631685D01*
X159191170Y-123485338D01*
X159270609Y-123294028D01*
X159270609Y-123293119D01*
X164579210Y-123293119D01*
X164658315Y-123484567D01*
X164804662Y-123631170D01*
X164995972Y-123710609D01*
X165203119Y-123710790D01*
X165394567Y-123631685D01*
X165541170Y-123485338D01*
X165620609Y-123294028D01*
X165620790Y-123086881D01*
X165613059Y-123068171D01*
X165630972Y-123075609D01*
X165838119Y-123075790D01*
X165856829Y-123068059D01*
X165849391Y-123085972D01*
X165849210Y-123293119D01*
X165928315Y-123484567D01*
X166074662Y-123631170D01*
X166265972Y-123710609D01*
X166473119Y-123710790D01*
X166664567Y-123631685D01*
X166811170Y-123485338D01*
X166890609Y-123294028D01*
X166890790Y-123086881D01*
X166811685Y-122895433D01*
X166665338Y-122748830D01*
X166474028Y-122669391D01*
X166266881Y-122669210D01*
X166248171Y-122676941D01*
X166255609Y-122659028D01*
X166255790Y-122451881D01*
X166176685Y-122260433D01*
X166153880Y-122237589D01*
X166176170Y-122215338D01*
X166255609Y-122024028D01*
X166255790Y-121816881D01*
X166209818Y-121705619D01*
X168389210Y-121705619D01*
X168468315Y-121897067D01*
X168614662Y-122043670D01*
X168805972Y-122123109D01*
X169013119Y-122123290D01*
X169018157Y-122121208D01*
X183133824Y-122121208D01*
X183288175Y-122494766D01*
X183573731Y-122780821D01*
X183947018Y-122935824D01*
X184351208Y-122936176D01*
X184724766Y-122781825D01*
X185010821Y-122496269D01*
X185165824Y-122122982D01*
X185166176Y-121718792D01*
X185011825Y-121345234D01*
X184726269Y-121059179D01*
X184352982Y-120904176D01*
X183948792Y-120903824D01*
X183575234Y-121058175D01*
X183289179Y-121343731D01*
X183134176Y-121717018D01*
X183133824Y-122121208D01*
X169018157Y-122121208D01*
X169204567Y-122044185D01*
X169351170Y-121897838D01*
X169430609Y-121706528D01*
X169430790Y-121499381D01*
X169394171Y-121410755D01*
X169544890Y-121410755D01*
X169641360Y-121644228D01*
X169819832Y-121823013D01*
X170053137Y-121919889D01*
X170305755Y-121920110D01*
X170539228Y-121823640D01*
X170718013Y-121645168D01*
X170814889Y-121411863D01*
X170815110Y-121159245D01*
X170718640Y-120925772D01*
X170593993Y-120800906D01*
X170687868Y-120800906D01*
X170803632Y-121081074D01*
X171017798Y-121295615D01*
X171297764Y-121411867D01*
X171600906Y-121412132D01*
X171881074Y-121296368D01*
X172085168Y-121092630D01*
X172287798Y-121295615D01*
X172567764Y-121411867D01*
X172870906Y-121412132D01*
X173151074Y-121296368D01*
X173355168Y-121092630D01*
X173557798Y-121295615D01*
X173837764Y-121411867D01*
X174140906Y-121412132D01*
X174421074Y-121296368D01*
X174635615Y-121082202D01*
X174751867Y-120802236D01*
X174752132Y-120499094D01*
X174636368Y-120218926D01*
X174517429Y-120099778D01*
X183520024Y-120099778D01*
X183593628Y-120253814D01*
X183970373Y-120400213D01*
X184374465Y-120391294D01*
X184706372Y-120253814D01*
X184779976Y-120099778D01*
X184150000Y-119469803D01*
X183520024Y-120099778D01*
X174517429Y-120099778D01*
X174422202Y-120004385D01*
X174142236Y-119888133D01*
X173839094Y-119887868D01*
X173558926Y-120003632D01*
X173354832Y-120207370D01*
X173152202Y-120004385D01*
X172872236Y-119888133D01*
X172569094Y-119887868D01*
X172288926Y-120003632D01*
X172084832Y-120207370D01*
X171882202Y-120004385D01*
X171602236Y-119888133D01*
X171299094Y-119887868D01*
X171018926Y-120003632D01*
X170804385Y-120217798D01*
X170688133Y-120497764D01*
X170687868Y-120800906D01*
X170593993Y-120800906D01*
X170540168Y-120746987D01*
X170306863Y-120650111D01*
X170054245Y-120649890D01*
X169820772Y-120746360D01*
X169641987Y-120924832D01*
X169545111Y-121158137D01*
X169544890Y-121410755D01*
X169394171Y-121410755D01*
X169351685Y-121307933D01*
X169205338Y-121161330D01*
X169014028Y-121081891D01*
X168806881Y-121081710D01*
X168615433Y-121160815D01*
X168468830Y-121307162D01*
X168389391Y-121498472D01*
X168389210Y-121705619D01*
X166209818Y-121705619D01*
X166176685Y-121625433D01*
X166030338Y-121478830D01*
X165839028Y-121399391D01*
X165631881Y-121399210D01*
X165440433Y-121478315D01*
X165293830Y-121624662D01*
X165214391Y-121815972D01*
X165214210Y-122023119D01*
X165293315Y-122214567D01*
X165316120Y-122237411D01*
X165293830Y-122259662D01*
X165214391Y-122450972D01*
X165214210Y-122658119D01*
X165221941Y-122676829D01*
X165204028Y-122669391D01*
X164996881Y-122669210D01*
X164805433Y-122748315D01*
X164658830Y-122894662D01*
X164579391Y-123085972D01*
X164579210Y-123293119D01*
X159270609Y-123293119D01*
X159270790Y-123086881D01*
X159191685Y-122895433D01*
X159045338Y-122748830D01*
X158854028Y-122669391D01*
X158646881Y-122669210D01*
X158455433Y-122748315D01*
X158308830Y-122894662D01*
X158229391Y-123085972D01*
X158229210Y-123293119D01*
X154368500Y-123293119D01*
X154368500Y-122121208D01*
X155193824Y-122121208D01*
X155348175Y-122494766D01*
X155633731Y-122780821D01*
X156007018Y-122935824D01*
X156411208Y-122936176D01*
X156784766Y-122781825D01*
X157070821Y-122496269D01*
X157225824Y-122122982D01*
X157225910Y-122023119D01*
X158229210Y-122023119D01*
X158308315Y-122214567D01*
X158454662Y-122361170D01*
X158645972Y-122440609D01*
X158853119Y-122440790D01*
X159044567Y-122361685D01*
X159191170Y-122215338D01*
X159270609Y-122024028D01*
X159270790Y-121816881D01*
X159191685Y-121625433D01*
X159045338Y-121478830D01*
X158854028Y-121399391D01*
X158646881Y-121399210D01*
X158455433Y-121478315D01*
X158308830Y-121624662D01*
X158229391Y-121815972D01*
X158229210Y-122023119D01*
X157225910Y-122023119D01*
X157226176Y-121718792D01*
X157071825Y-121345234D01*
X156786269Y-121059179D01*
X156412982Y-120904176D01*
X156008792Y-120903824D01*
X155635234Y-121058175D01*
X155349179Y-121343731D01*
X155194176Y-121717018D01*
X155193824Y-122121208D01*
X154368500Y-122121208D01*
X154368500Y-120099778D01*
X155580024Y-120099778D01*
X155653628Y-120253814D01*
X156030373Y-120400213D01*
X156434465Y-120391294D01*
X156766372Y-120253814D01*
X156839976Y-120099778D01*
X156210000Y-119469803D01*
X155580024Y-120099778D01*
X154368500Y-120099778D01*
X154368500Y-119200373D01*
X155189787Y-119200373D01*
X155198706Y-119604465D01*
X155336186Y-119936372D01*
X155490222Y-120009976D01*
X156120197Y-119380000D01*
X156299803Y-119380000D01*
X156929778Y-120009976D01*
X157083814Y-119936372D01*
X157230213Y-119559627D01*
X157222284Y-119200373D01*
X183129787Y-119200373D01*
X183138706Y-119604465D01*
X183276186Y-119936372D01*
X183430222Y-120009976D01*
X184060197Y-119380000D01*
X184239803Y-119380000D01*
X184869778Y-120009976D01*
X185023814Y-119936372D01*
X185170213Y-119559627D01*
X185161294Y-119155535D01*
X185023814Y-118823628D01*
X184869778Y-118750024D01*
X184239803Y-119380000D01*
X184060197Y-119380000D01*
X183430222Y-118750024D01*
X183276186Y-118823628D01*
X183129787Y-119200373D01*
X157222284Y-119200373D01*
X157221294Y-119155535D01*
X157083814Y-118823628D01*
X156929778Y-118750024D01*
X156299803Y-119380000D01*
X156120197Y-119380000D01*
X155490222Y-118750024D01*
X155336186Y-118823628D01*
X155189787Y-119200373D01*
X154368500Y-119200373D01*
X154368500Y-118660222D01*
X155580024Y-118660222D01*
X156210000Y-119290197D01*
X156839976Y-118660222D01*
X183520024Y-118660222D01*
X184150000Y-119290197D01*
X184779976Y-118660222D01*
X184706372Y-118506186D01*
X184329627Y-118359787D01*
X183925535Y-118368706D01*
X183593628Y-118506186D01*
X183520024Y-118660222D01*
X156839976Y-118660222D01*
X156766372Y-118506186D01*
X156389627Y-118359787D01*
X155985535Y-118368706D01*
X155653628Y-118506186D01*
X155580024Y-118660222D01*
X154368500Y-118660222D01*
X154368500Y-118213119D01*
X159499210Y-118213119D01*
X159578315Y-118404567D01*
X159724662Y-118551170D01*
X159915972Y-118630609D01*
X160123119Y-118630790D01*
X160314567Y-118551685D01*
X160461170Y-118405338D01*
X160540609Y-118214028D01*
X160540609Y-118213119D01*
X160769210Y-118213119D01*
X160848315Y-118404567D01*
X160994662Y-118551170D01*
X161185972Y-118630609D01*
X161393119Y-118630790D01*
X161584567Y-118551685D01*
X161731170Y-118405338D01*
X161810609Y-118214028D01*
X161810609Y-118213119D01*
X162039210Y-118213119D01*
X162118315Y-118404567D01*
X162264662Y-118551170D01*
X162455972Y-118630609D01*
X162663119Y-118630790D01*
X162854567Y-118551685D01*
X163001170Y-118405338D01*
X163080609Y-118214028D01*
X163080609Y-118213119D01*
X163309210Y-118213119D01*
X163388315Y-118404567D01*
X163534662Y-118551170D01*
X163725972Y-118630609D01*
X163933119Y-118630790D01*
X164124567Y-118551685D01*
X164271170Y-118405338D01*
X164350609Y-118214028D01*
X164350609Y-118213119D01*
X164579210Y-118213119D01*
X164658315Y-118404567D01*
X164804662Y-118551170D01*
X164995972Y-118630609D01*
X165203119Y-118630790D01*
X165394567Y-118551685D01*
X165417411Y-118528880D01*
X165439662Y-118551170D01*
X165630972Y-118630609D01*
X165838119Y-118630790D01*
X166029567Y-118551685D01*
X166052411Y-118528880D01*
X166074662Y-118551170D01*
X166265972Y-118630609D01*
X166473119Y-118630790D01*
X166664567Y-118551685D01*
X166811170Y-118405338D01*
X166890609Y-118214028D01*
X166890609Y-118213119D01*
X168389210Y-118213119D01*
X168468315Y-118404567D01*
X168614662Y-118551170D01*
X168805972Y-118630609D01*
X169013119Y-118630790D01*
X169204567Y-118551685D01*
X169351170Y-118405338D01*
X169430609Y-118214028D01*
X169430790Y-118006881D01*
X169351685Y-117815433D01*
X169205338Y-117668830D01*
X169014028Y-117589391D01*
X168806881Y-117589210D01*
X168615433Y-117668315D01*
X168468830Y-117814662D01*
X168389391Y-118005972D01*
X168389210Y-118213119D01*
X166890609Y-118213119D01*
X166890790Y-118006881D01*
X166811685Y-117815433D01*
X166665338Y-117668830D01*
X166474028Y-117589391D01*
X166266881Y-117589210D01*
X166075433Y-117668315D01*
X166052589Y-117691120D01*
X166030338Y-117668830D01*
X165839028Y-117589391D01*
X165631881Y-117589210D01*
X165440433Y-117668315D01*
X165417589Y-117691120D01*
X165395338Y-117668830D01*
X165204028Y-117589391D01*
X164996881Y-117589210D01*
X164805433Y-117668315D01*
X164658830Y-117814662D01*
X164579391Y-118005972D01*
X164579210Y-118213119D01*
X164350609Y-118213119D01*
X164350790Y-118006881D01*
X164271685Y-117815433D01*
X164125338Y-117668830D01*
X163934028Y-117589391D01*
X163726881Y-117589210D01*
X163535433Y-117668315D01*
X163388830Y-117814662D01*
X163309391Y-118005972D01*
X163309210Y-118213119D01*
X163080609Y-118213119D01*
X163080790Y-118006881D01*
X163001685Y-117815433D01*
X162855338Y-117668830D01*
X162664028Y-117589391D01*
X162456881Y-117589210D01*
X162265433Y-117668315D01*
X162118830Y-117814662D01*
X162039391Y-118005972D01*
X162039210Y-118213119D01*
X161810609Y-118213119D01*
X161810790Y-118006881D01*
X161731685Y-117815433D01*
X161585338Y-117668830D01*
X161394028Y-117589391D01*
X161186881Y-117589210D01*
X160995433Y-117668315D01*
X160848830Y-117814662D01*
X160769391Y-118005972D01*
X160769210Y-118213119D01*
X160540609Y-118213119D01*
X160540790Y-118006881D01*
X160461685Y-117815433D01*
X160315338Y-117668830D01*
X160124028Y-117589391D01*
X159916881Y-117589210D01*
X159725433Y-117668315D01*
X159578830Y-117814662D01*
X159499391Y-118005972D01*
X159499210Y-118213119D01*
X154368500Y-118213119D01*
X154368500Y-117041208D01*
X155193824Y-117041208D01*
X155348175Y-117414766D01*
X155633731Y-117700821D01*
X156007018Y-117855824D01*
X156411208Y-117856176D01*
X156784766Y-117701825D01*
X156908688Y-117578119D01*
X176009210Y-117578119D01*
X176088315Y-117769567D01*
X176234662Y-117916170D01*
X176425972Y-117995609D01*
X176633119Y-117995790D01*
X176824567Y-117916685D01*
X176971170Y-117770338D01*
X177050609Y-117579028D01*
X177050609Y-117578119D01*
X182359210Y-117578119D01*
X182438315Y-117769567D01*
X182584662Y-117916170D01*
X182775972Y-117995609D01*
X182983119Y-117995790D01*
X183174567Y-117916685D01*
X183321170Y-117770338D01*
X183400609Y-117579028D01*
X183400654Y-117527442D01*
X183573731Y-117700821D01*
X183947018Y-117855824D01*
X184351208Y-117856176D01*
X184724766Y-117701825D01*
X185010821Y-117416269D01*
X185165824Y-117042982D01*
X185166176Y-116638792D01*
X185011825Y-116265234D01*
X184726269Y-115979179D01*
X184352982Y-115824176D01*
X183948792Y-115823824D01*
X183575234Y-115978175D01*
X183289179Y-116263731D01*
X183134176Y-116637018D01*
X183133845Y-117016601D01*
X182984028Y-116954391D01*
X182776881Y-116954210D01*
X182585433Y-117033315D01*
X182438830Y-117179662D01*
X182359391Y-117370972D01*
X182359210Y-117578119D01*
X177050609Y-117578119D01*
X177050790Y-117371881D01*
X176971685Y-117180433D01*
X176825338Y-117033830D01*
X176634028Y-116954391D01*
X176426881Y-116954210D01*
X176235433Y-117033315D01*
X176088830Y-117179662D01*
X176009391Y-117370972D01*
X176009210Y-117578119D01*
X156908688Y-117578119D01*
X157070821Y-117416269D01*
X157225824Y-117042982D01*
X157225910Y-116943119D01*
X177279210Y-116943119D01*
X177358315Y-117134567D01*
X177504662Y-117281170D01*
X177695972Y-117360609D01*
X177903119Y-117360790D01*
X178094567Y-117281685D01*
X178241170Y-117135338D01*
X178320609Y-116944028D01*
X178320790Y-116736881D01*
X178241685Y-116545433D01*
X178095338Y-116398830D01*
X177904028Y-116319391D01*
X177696881Y-116319210D01*
X177505433Y-116398315D01*
X177358830Y-116544662D01*
X177279391Y-116735972D01*
X177279210Y-116943119D01*
X157225910Y-116943119D01*
X157226176Y-116638792D01*
X157089545Y-116308119D01*
X178549210Y-116308119D01*
X178628315Y-116499567D01*
X178774662Y-116646170D01*
X178965972Y-116725609D01*
X179173119Y-116725790D01*
X179364567Y-116646685D01*
X179511170Y-116500338D01*
X179590609Y-116309028D01*
X179590790Y-116101881D01*
X179511685Y-115910433D01*
X179365338Y-115763830D01*
X179174028Y-115684391D01*
X178966881Y-115684210D01*
X178775433Y-115763315D01*
X178628830Y-115909662D01*
X178549391Y-116100972D01*
X178549210Y-116308119D01*
X157089545Y-116308119D01*
X157071825Y-116265234D01*
X156786269Y-115979179D01*
X156412982Y-115824176D01*
X156008792Y-115823824D01*
X155635234Y-115978175D01*
X155349179Y-116263731D01*
X155194176Y-116637018D01*
X155193824Y-117041208D01*
X154368500Y-117041208D01*
X154368500Y-115673119D01*
X179819210Y-115673119D01*
X179898315Y-115864567D01*
X180044662Y-116011170D01*
X180235972Y-116090609D01*
X180443119Y-116090790D01*
X180634567Y-116011685D01*
X180781170Y-115865338D01*
X180860609Y-115674028D01*
X180860790Y-115466881D01*
X180781685Y-115275433D01*
X180635338Y-115128830D01*
X180444028Y-115049391D01*
X180236881Y-115049210D01*
X180045433Y-115128315D01*
X179898830Y-115274662D01*
X179819391Y-115465972D01*
X179819210Y-115673119D01*
X154368500Y-115673119D01*
X154368500Y-114501208D01*
X155193824Y-114501208D01*
X155348175Y-114874766D01*
X155633731Y-115160821D01*
X156007018Y-115315824D01*
X156411208Y-115316176D01*
X156784766Y-115161825D01*
X156886012Y-115060755D01*
X169544890Y-115060755D01*
X169641360Y-115294228D01*
X169819832Y-115473013D01*
X170053137Y-115569889D01*
X170305755Y-115570110D01*
X170539228Y-115473640D01*
X170718013Y-115295168D01*
X170814889Y-115061863D01*
X170815110Y-114809245D01*
X170718640Y-114575772D01*
X170644207Y-114501208D01*
X183133824Y-114501208D01*
X183288175Y-114874766D01*
X183573731Y-115160821D01*
X183947018Y-115315824D01*
X184351208Y-115316176D01*
X184724766Y-115161825D01*
X185010821Y-114876269D01*
X185165824Y-114502982D01*
X185166176Y-114098792D01*
X185011825Y-113725234D01*
X184726269Y-113439179D01*
X184352982Y-113284176D01*
X183948792Y-113283824D01*
X183575234Y-113438175D01*
X183289179Y-113723731D01*
X183134176Y-114097018D01*
X183133824Y-114501208D01*
X170644207Y-114501208D01*
X170540168Y-114396987D01*
X170306863Y-114300111D01*
X170054245Y-114299890D01*
X169820772Y-114396360D01*
X169641987Y-114574832D01*
X169545111Y-114808137D01*
X169544890Y-115060755D01*
X156886012Y-115060755D01*
X157070821Y-114876269D01*
X157225824Y-114502982D01*
X157225910Y-114403119D01*
X162674210Y-114403119D01*
X162753315Y-114594567D01*
X162899662Y-114741170D01*
X163090972Y-114820609D01*
X163298119Y-114820790D01*
X163489567Y-114741685D01*
X163636170Y-114595338D01*
X163715609Y-114404028D01*
X163715790Y-114196881D01*
X163636685Y-114005433D01*
X163490338Y-113858830D01*
X163299028Y-113779391D01*
X163091881Y-113779210D01*
X162900433Y-113858315D01*
X162753830Y-114004662D01*
X162674391Y-114195972D01*
X162674210Y-114403119D01*
X157225910Y-114403119D01*
X157226176Y-114098792D01*
X157071825Y-113725234D01*
X156786269Y-113439179D01*
X156412982Y-113284176D01*
X156008792Y-113283824D01*
X155635234Y-113438175D01*
X155349179Y-113723731D01*
X155194176Y-114097018D01*
X155193824Y-114501208D01*
X154368500Y-114501208D01*
X154368500Y-111948633D01*
X155257335Y-111948633D01*
X155402039Y-112298843D01*
X155669747Y-112567020D01*
X156019705Y-112712335D01*
X156398633Y-112712665D01*
X156748843Y-112567961D01*
X157017020Y-112300253D01*
X157162335Y-111950295D01*
X157162336Y-111948633D01*
X183197335Y-111948633D01*
X183342039Y-112298843D01*
X183609747Y-112567020D01*
X183959705Y-112712335D01*
X184338633Y-112712665D01*
X184688843Y-112567961D01*
X184957020Y-112300253D01*
X185102335Y-111950295D01*
X185102665Y-111571367D01*
X184957961Y-111221157D01*
X184690253Y-110952980D01*
X184340295Y-110807665D01*
X183961367Y-110807335D01*
X183611157Y-110952039D01*
X183342980Y-111219747D01*
X183197665Y-111569705D01*
X183197335Y-111948633D01*
X157162336Y-111948633D01*
X157162665Y-111571367D01*
X157017961Y-111221157D01*
X156750253Y-110952980D01*
X156400295Y-110807665D01*
X156021367Y-110807335D01*
X155671157Y-110952039D01*
X155402980Y-111219747D01*
X155257665Y-111569705D01*
X155257335Y-111948633D01*
X154368500Y-111948633D01*
X154368500Y-109421208D01*
X155193824Y-109421208D01*
X155348175Y-109794766D01*
X155633731Y-110080821D01*
X156007018Y-110235824D01*
X156411208Y-110236176D01*
X156784766Y-110081825D01*
X157070821Y-109796269D01*
X157225824Y-109422982D01*
X157225910Y-109323119D01*
X161404210Y-109323119D01*
X161483315Y-109514567D01*
X161629662Y-109661170D01*
X161820972Y-109740609D01*
X162028119Y-109740790D01*
X162219567Y-109661685D01*
X162366170Y-109515338D01*
X162445609Y-109324028D01*
X162445609Y-109323119D01*
X176644210Y-109323119D01*
X176723315Y-109514567D01*
X176869662Y-109661170D01*
X177060972Y-109740609D01*
X177268119Y-109740790D01*
X177459567Y-109661685D01*
X177606170Y-109515338D01*
X177645256Y-109421208D01*
X183133824Y-109421208D01*
X183288175Y-109794766D01*
X183573731Y-110080821D01*
X183947018Y-110235824D01*
X184351208Y-110236176D01*
X184724766Y-110081825D01*
X185010821Y-109796269D01*
X185165824Y-109422982D01*
X185166176Y-109018792D01*
X185011825Y-108645234D01*
X184726269Y-108359179D01*
X184352982Y-108204176D01*
X183948792Y-108203824D01*
X183575234Y-108358175D01*
X183289179Y-108643731D01*
X183134176Y-109017018D01*
X183133824Y-109421208D01*
X177645256Y-109421208D01*
X177685609Y-109324028D01*
X177685790Y-109116881D01*
X177606685Y-108925433D01*
X177460338Y-108778830D01*
X177269028Y-108699391D01*
X177061881Y-108699210D01*
X176870433Y-108778315D01*
X176723830Y-108924662D01*
X176644391Y-109115972D01*
X176644210Y-109323119D01*
X162445609Y-109323119D01*
X162445790Y-109116881D01*
X162366685Y-108925433D01*
X162220338Y-108778830D01*
X162029028Y-108699391D01*
X161821881Y-108699210D01*
X161630433Y-108778315D01*
X161483830Y-108924662D01*
X161404391Y-109115972D01*
X161404210Y-109323119D01*
X157225910Y-109323119D01*
X157226176Y-109018792D01*
X157071825Y-108645234D01*
X156786269Y-108359179D01*
X156412982Y-108204176D01*
X156008792Y-108203824D01*
X155635234Y-108358175D01*
X155349179Y-108643731D01*
X155194176Y-109017018D01*
X155193824Y-109421208D01*
X154368500Y-109421208D01*
X154368500Y-108075755D01*
X158114890Y-108075755D01*
X158211360Y-108309228D01*
X158389832Y-108488013D01*
X158623137Y-108584889D01*
X158875755Y-108585110D01*
X159109228Y-108488640D01*
X159288013Y-108310168D01*
X159384889Y-108076863D01*
X159384889Y-108075755D01*
X180974890Y-108075755D01*
X181071360Y-108309228D01*
X181249832Y-108488013D01*
X181483137Y-108584889D01*
X181735755Y-108585110D01*
X181969228Y-108488640D01*
X182148013Y-108310168D01*
X182244889Y-108076863D01*
X182245110Y-107824245D01*
X182148640Y-107590772D01*
X181970168Y-107411987D01*
X181736863Y-107315111D01*
X181484245Y-107314890D01*
X181250772Y-107411360D01*
X181071987Y-107589832D01*
X180975111Y-107823137D01*
X180974890Y-108075755D01*
X159384889Y-108075755D01*
X159385110Y-107824245D01*
X159288640Y-107590772D01*
X159110168Y-107411987D01*
X158876863Y-107315111D01*
X158624245Y-107314890D01*
X158390772Y-107411360D01*
X158211987Y-107589832D01*
X158115111Y-107823137D01*
X158114890Y-108075755D01*
X154368500Y-108075755D01*
X154368500Y-106881208D01*
X155193824Y-106881208D01*
X155348175Y-107254766D01*
X155633731Y-107540821D01*
X156007018Y-107695824D01*
X156411208Y-107696176D01*
X156784766Y-107541825D01*
X157070821Y-107256269D01*
X157225824Y-106882982D01*
X157225825Y-106881208D01*
X183133824Y-106881208D01*
X183288175Y-107254766D01*
X183573731Y-107540821D01*
X183947018Y-107695824D01*
X184351208Y-107696176D01*
X184724766Y-107541825D01*
X185010821Y-107256269D01*
X185165824Y-106882982D01*
X185166176Y-106478792D01*
X185011825Y-106105234D01*
X184726269Y-105819179D01*
X184352982Y-105664176D01*
X183948792Y-105663824D01*
X183575234Y-105818175D01*
X183289179Y-106103731D01*
X183134176Y-106477018D01*
X183133824Y-106881208D01*
X157225825Y-106881208D01*
X157226176Y-106478792D01*
X157071825Y-106105234D01*
X156786269Y-105819179D01*
X156412982Y-105664176D01*
X156008792Y-105663824D01*
X155635234Y-105818175D01*
X155349179Y-106103731D01*
X155194176Y-106477018D01*
X155193824Y-106881208D01*
X154368500Y-106881208D01*
X154368500Y-104341208D01*
X155193824Y-104341208D01*
X155348175Y-104714766D01*
X155633731Y-105000821D01*
X156007018Y-105155824D01*
X156411208Y-105156176D01*
X156784766Y-105001825D01*
X157070821Y-104716269D01*
X157225824Y-104342982D01*
X157225910Y-104243119D01*
X160134210Y-104243119D01*
X160213315Y-104434567D01*
X160359662Y-104581170D01*
X160550972Y-104660609D01*
X160758119Y-104660790D01*
X160949567Y-104581685D01*
X161096170Y-104435338D01*
X161175609Y-104244028D01*
X161175609Y-104243119D01*
X177914210Y-104243119D01*
X177993315Y-104434567D01*
X178139662Y-104581170D01*
X178330972Y-104660609D01*
X178538119Y-104660790D01*
X178729567Y-104581685D01*
X178876170Y-104435338D01*
X178915256Y-104341208D01*
X183133824Y-104341208D01*
X183288175Y-104714766D01*
X183573731Y-105000821D01*
X183947018Y-105155824D01*
X184351208Y-105156176D01*
X184724766Y-105001825D01*
X185010821Y-104716269D01*
X185165824Y-104342982D01*
X185166176Y-103938792D01*
X185011825Y-103565234D01*
X184726269Y-103279179D01*
X184352982Y-103124176D01*
X183948792Y-103123824D01*
X183575234Y-103278175D01*
X183289179Y-103563731D01*
X183134176Y-103937018D01*
X183133824Y-104341208D01*
X178915256Y-104341208D01*
X178955609Y-104244028D01*
X178955790Y-104036881D01*
X178876685Y-103845433D01*
X178730338Y-103698830D01*
X178539028Y-103619391D01*
X178331881Y-103619210D01*
X178140433Y-103698315D01*
X177993830Y-103844662D01*
X177914391Y-104035972D01*
X177914210Y-104243119D01*
X161175609Y-104243119D01*
X161175790Y-104036881D01*
X161096685Y-103845433D01*
X160950338Y-103698830D01*
X160759028Y-103619391D01*
X160551881Y-103619210D01*
X160360433Y-103698315D01*
X160213830Y-103844662D01*
X160134391Y-104035972D01*
X160134210Y-104243119D01*
X157225910Y-104243119D01*
X157226176Y-103938792D01*
X157071825Y-103565234D01*
X156786269Y-103279179D01*
X156412982Y-103124176D01*
X156008792Y-103123824D01*
X155635234Y-103278175D01*
X155349179Y-103563731D01*
X155194176Y-103937018D01*
X155193824Y-104341208D01*
X154368500Y-104341208D01*
X154368500Y-102995755D01*
X158114890Y-102995755D01*
X158211360Y-103229228D01*
X158389832Y-103408013D01*
X158623137Y-103504889D01*
X158875755Y-103505110D01*
X159109228Y-103408640D01*
X159288013Y-103230168D01*
X159384889Y-102996863D01*
X159384889Y-102995755D01*
X180974890Y-102995755D01*
X181071360Y-103229228D01*
X181249832Y-103408013D01*
X181483137Y-103504889D01*
X181735755Y-103505110D01*
X181969228Y-103408640D01*
X182148013Y-103230168D01*
X182244889Y-102996863D01*
X182245110Y-102744245D01*
X182148640Y-102510772D01*
X181970168Y-102331987D01*
X181736863Y-102235111D01*
X181484245Y-102234890D01*
X181250772Y-102331360D01*
X181071987Y-102509832D01*
X180975111Y-102743137D01*
X180974890Y-102995755D01*
X159384889Y-102995755D01*
X159385110Y-102744245D01*
X159288640Y-102510772D01*
X159110168Y-102331987D01*
X158876863Y-102235111D01*
X158624245Y-102234890D01*
X158390772Y-102331360D01*
X158211987Y-102509832D01*
X158115111Y-102743137D01*
X158114890Y-102995755D01*
X154368500Y-102995755D01*
X154368500Y-101801208D01*
X155193824Y-101801208D01*
X155348175Y-102174766D01*
X155633731Y-102460821D01*
X156007018Y-102615824D01*
X156411208Y-102616176D01*
X156784766Y-102461825D01*
X157070821Y-102176269D01*
X157225824Y-101802982D01*
X157225825Y-101801208D01*
X183133824Y-101801208D01*
X183288175Y-102174766D01*
X183573731Y-102460821D01*
X183947018Y-102615824D01*
X184351208Y-102616176D01*
X184724766Y-102461825D01*
X185010821Y-102176269D01*
X185165824Y-101802982D01*
X185166176Y-101398792D01*
X185011825Y-101025234D01*
X184726269Y-100739179D01*
X184352982Y-100584176D01*
X183948792Y-100583824D01*
X183575234Y-100738175D01*
X183289179Y-101023731D01*
X183134176Y-101397018D01*
X183133824Y-101801208D01*
X157225825Y-101801208D01*
X157226176Y-101398792D01*
X157071825Y-101025234D01*
X156786269Y-100739179D01*
X156412982Y-100584176D01*
X156008792Y-100583824D01*
X155635234Y-100738175D01*
X155349179Y-101023731D01*
X155194176Y-101397018D01*
X155193824Y-101801208D01*
X154368500Y-101801208D01*
X154368500Y-99261208D01*
X155193824Y-99261208D01*
X155348175Y-99634766D01*
X155633731Y-99920821D01*
X156007018Y-100075824D01*
X156411208Y-100076176D01*
X156784766Y-99921825D01*
X157070821Y-99636269D01*
X157225824Y-99262982D01*
X157225910Y-99163119D01*
X158864210Y-99163119D01*
X158943315Y-99354567D01*
X159089662Y-99501170D01*
X159280972Y-99580609D01*
X159488119Y-99580790D01*
X159679567Y-99501685D01*
X159826170Y-99355338D01*
X159905609Y-99164028D01*
X159905609Y-99163119D01*
X179184210Y-99163119D01*
X179263315Y-99354567D01*
X179409662Y-99501170D01*
X179600972Y-99580609D01*
X179808119Y-99580790D01*
X179999567Y-99501685D01*
X180146170Y-99355338D01*
X180185256Y-99261208D01*
X183133824Y-99261208D01*
X183288175Y-99634766D01*
X183573731Y-99920821D01*
X183947018Y-100075824D01*
X184351208Y-100076176D01*
X184724766Y-99921825D01*
X185010821Y-99636269D01*
X185165824Y-99262982D01*
X185166176Y-98858792D01*
X185011825Y-98485234D01*
X184726269Y-98199179D01*
X184352982Y-98044176D01*
X183948792Y-98043824D01*
X183575234Y-98198175D01*
X183289179Y-98483731D01*
X183134176Y-98857018D01*
X183133824Y-99261208D01*
X180185256Y-99261208D01*
X180225609Y-99164028D01*
X180225790Y-98956881D01*
X180146685Y-98765433D01*
X180000338Y-98618830D01*
X179809028Y-98539391D01*
X179601881Y-98539210D01*
X179410433Y-98618315D01*
X179263830Y-98764662D01*
X179184391Y-98955972D01*
X179184210Y-99163119D01*
X159905609Y-99163119D01*
X159905790Y-98956881D01*
X159826685Y-98765433D01*
X159680338Y-98618830D01*
X159489028Y-98539391D01*
X159281881Y-98539210D01*
X159090433Y-98618315D01*
X158943830Y-98764662D01*
X158864391Y-98955972D01*
X158864210Y-99163119D01*
X157225910Y-99163119D01*
X157226176Y-98858792D01*
X157071825Y-98485234D01*
X156786269Y-98199179D01*
X156412982Y-98044176D01*
X156008792Y-98043824D01*
X155635234Y-98198175D01*
X155349179Y-98483731D01*
X155194176Y-98857018D01*
X155193824Y-99261208D01*
X154368500Y-99261208D01*
X154368500Y-97915755D01*
X158114890Y-97915755D01*
X158211360Y-98149228D01*
X158389832Y-98328013D01*
X158623137Y-98424889D01*
X158875755Y-98425110D01*
X159109228Y-98328640D01*
X159288013Y-98150168D01*
X159384889Y-97916863D01*
X159384889Y-97915755D01*
X180974890Y-97915755D01*
X181071360Y-98149228D01*
X181249832Y-98328013D01*
X181483137Y-98424889D01*
X181735755Y-98425110D01*
X181969228Y-98328640D01*
X182148013Y-98150168D01*
X182244889Y-97916863D01*
X182245110Y-97664245D01*
X182148640Y-97430772D01*
X181970168Y-97251987D01*
X181940766Y-97239778D01*
X183520024Y-97239778D01*
X183593628Y-97393814D01*
X183970373Y-97540213D01*
X184374465Y-97531294D01*
X184706372Y-97393814D01*
X184779976Y-97239778D01*
X184150000Y-96609803D01*
X183520024Y-97239778D01*
X181940766Y-97239778D01*
X181736863Y-97155111D01*
X181484245Y-97154890D01*
X181250772Y-97251360D01*
X181071987Y-97429832D01*
X180975111Y-97663137D01*
X180974890Y-97915755D01*
X159384889Y-97915755D01*
X159385110Y-97664245D01*
X159288640Y-97430772D01*
X159110168Y-97251987D01*
X158876863Y-97155111D01*
X158624245Y-97154890D01*
X158390772Y-97251360D01*
X158211987Y-97429832D01*
X158115111Y-97663137D01*
X158114890Y-97915755D01*
X154368500Y-97915755D01*
X154368500Y-97239778D01*
X155580024Y-97239778D01*
X155653628Y-97393814D01*
X156030373Y-97540213D01*
X156434465Y-97531294D01*
X156766372Y-97393814D01*
X156839976Y-97239778D01*
X156210000Y-96609803D01*
X155580024Y-97239778D01*
X154368500Y-97239778D01*
X154368500Y-96340373D01*
X155189787Y-96340373D01*
X155198706Y-96744465D01*
X155336186Y-97076372D01*
X155490222Y-97149976D01*
X156120197Y-96520000D01*
X156299803Y-96520000D01*
X156929778Y-97149976D01*
X157083814Y-97076372D01*
X157230213Y-96699627D01*
X157222284Y-96340373D01*
X183129787Y-96340373D01*
X183138706Y-96744465D01*
X183276186Y-97076372D01*
X183430222Y-97149976D01*
X184060197Y-96520000D01*
X184239803Y-96520000D01*
X184869778Y-97149976D01*
X185023814Y-97076372D01*
X185170213Y-96699627D01*
X185161294Y-96295535D01*
X185023814Y-95963628D01*
X184869778Y-95890024D01*
X184239803Y-96520000D01*
X184060197Y-96520000D01*
X183430222Y-95890024D01*
X183276186Y-95963628D01*
X183129787Y-96340373D01*
X157222284Y-96340373D01*
X157221294Y-96295535D01*
X157083814Y-95963628D01*
X156929778Y-95890024D01*
X156299803Y-96520000D01*
X156120197Y-96520000D01*
X155490222Y-95890024D01*
X155336186Y-95963628D01*
X155189787Y-96340373D01*
X154368500Y-96340373D01*
X154368500Y-95800222D01*
X155580024Y-95800222D01*
X156210000Y-96430197D01*
X156839976Y-95800222D01*
X183520024Y-95800222D01*
X184150000Y-96430197D01*
X184779976Y-95800222D01*
X184706372Y-95646186D01*
X184329627Y-95499787D01*
X183925535Y-95508706D01*
X183593628Y-95646186D01*
X183520024Y-95800222D01*
X156839976Y-95800222D01*
X156766372Y-95646186D01*
X156389627Y-95499787D01*
X155985535Y-95508706D01*
X155653628Y-95646186D01*
X155580024Y-95800222D01*
X154368500Y-95800222D01*
X154368500Y-94181208D01*
X155193824Y-94181208D01*
X155348175Y-94554766D01*
X155633731Y-94840821D01*
X156007018Y-94995824D01*
X156411208Y-94996176D01*
X156784766Y-94841825D01*
X157070821Y-94556269D01*
X157225824Y-94182982D01*
X157225910Y-94083119D01*
X159499210Y-94083119D01*
X159578315Y-94274567D01*
X159724662Y-94421170D01*
X159915972Y-94500609D01*
X160123119Y-94500790D01*
X160314567Y-94421685D01*
X160461170Y-94275338D01*
X160540609Y-94084028D01*
X160540609Y-94083119D01*
X180454210Y-94083119D01*
X180533315Y-94274567D01*
X180679662Y-94421170D01*
X180870972Y-94500609D01*
X181078119Y-94500790D01*
X181269567Y-94421685D01*
X181416170Y-94275338D01*
X181455256Y-94181208D01*
X183133824Y-94181208D01*
X183288175Y-94554766D01*
X183573731Y-94840821D01*
X183947018Y-94995824D01*
X184351208Y-94996176D01*
X184724766Y-94841825D01*
X185010821Y-94556269D01*
X185165824Y-94182982D01*
X185166176Y-93778792D01*
X185011825Y-93405234D01*
X184726269Y-93119179D01*
X184352982Y-92964176D01*
X183948792Y-92963824D01*
X183575234Y-93118175D01*
X183289179Y-93403731D01*
X183134176Y-93777018D01*
X183133824Y-94181208D01*
X181455256Y-94181208D01*
X181495609Y-94084028D01*
X181495790Y-93876881D01*
X181416685Y-93685433D01*
X181270338Y-93538830D01*
X181079028Y-93459391D01*
X180871881Y-93459210D01*
X180680433Y-93538315D01*
X180533830Y-93684662D01*
X180454391Y-93875972D01*
X180454210Y-94083119D01*
X160540609Y-94083119D01*
X160540790Y-93876881D01*
X160461685Y-93685433D01*
X160315338Y-93538830D01*
X160124028Y-93459391D01*
X159916881Y-93459210D01*
X159725433Y-93538315D01*
X159578830Y-93684662D01*
X159499391Y-93875972D01*
X159499210Y-94083119D01*
X157225910Y-94083119D01*
X157226176Y-93778792D01*
X157071825Y-93405234D01*
X156786269Y-93119179D01*
X156412982Y-92964176D01*
X156008792Y-92963824D01*
X155635234Y-93118175D01*
X155349179Y-93403731D01*
X155194176Y-93777018D01*
X155193824Y-94181208D01*
X154368500Y-94181208D01*
X154368500Y-92835755D01*
X158114890Y-92835755D01*
X158211360Y-93069228D01*
X158389832Y-93248013D01*
X158623137Y-93344889D01*
X158875755Y-93345110D01*
X159109228Y-93248640D01*
X159288013Y-93070168D01*
X159384889Y-92836863D01*
X159384889Y-92835755D01*
X180974890Y-92835755D01*
X181071360Y-93069228D01*
X181249832Y-93248013D01*
X181483137Y-93344889D01*
X181735755Y-93345110D01*
X181969228Y-93248640D01*
X182148013Y-93070168D01*
X182244889Y-92836863D01*
X182245110Y-92584245D01*
X182148640Y-92350772D01*
X181970168Y-92171987D01*
X181736863Y-92075111D01*
X181484245Y-92074890D01*
X181250772Y-92171360D01*
X181071987Y-92349832D01*
X180975111Y-92583137D01*
X180974890Y-92835755D01*
X159384889Y-92835755D01*
X159385110Y-92584245D01*
X159288640Y-92350772D01*
X159110168Y-92171987D01*
X158876863Y-92075111D01*
X158624245Y-92074890D01*
X158390772Y-92171360D01*
X158211987Y-92349832D01*
X158115111Y-92583137D01*
X158114890Y-92835755D01*
X154368500Y-92835755D01*
X154368500Y-91641208D01*
X155193824Y-91641208D01*
X155348175Y-92014766D01*
X155633731Y-92300821D01*
X156007018Y-92455824D01*
X156411208Y-92456176D01*
X156784766Y-92301825D01*
X157070821Y-92016269D01*
X157225824Y-91642982D01*
X157225825Y-91641208D01*
X183133824Y-91641208D01*
X183288175Y-92014766D01*
X183573731Y-92300821D01*
X183947018Y-92455824D01*
X184351208Y-92456176D01*
X184724766Y-92301825D01*
X185010821Y-92016269D01*
X185165824Y-91642982D01*
X185166176Y-91238792D01*
X185011825Y-90865234D01*
X184726269Y-90579179D01*
X184352982Y-90424176D01*
X183948792Y-90423824D01*
X183575234Y-90578175D01*
X183289179Y-90863731D01*
X183134176Y-91237018D01*
X183133824Y-91641208D01*
X157225825Y-91641208D01*
X157226176Y-91238792D01*
X157071825Y-90865234D01*
X156786269Y-90579179D01*
X156412982Y-90424176D01*
X156008792Y-90423824D01*
X155635234Y-90578175D01*
X155349179Y-90863731D01*
X155194176Y-91237018D01*
X155193824Y-91641208D01*
X154368500Y-91641208D01*
X154368500Y-89101208D01*
X155193824Y-89101208D01*
X155348175Y-89474766D01*
X155633731Y-89760821D01*
X156007018Y-89915824D01*
X156411208Y-89916176D01*
X156784766Y-89761825D01*
X157070821Y-89476269D01*
X157225824Y-89102982D01*
X157225910Y-89003119D01*
X160769210Y-89003119D01*
X160848315Y-89194567D01*
X160994662Y-89341170D01*
X161185972Y-89420609D01*
X161393119Y-89420790D01*
X161584567Y-89341685D01*
X161731170Y-89195338D01*
X161810609Y-89004028D01*
X161810609Y-89003119D01*
X179819210Y-89003119D01*
X179898315Y-89194567D01*
X180044662Y-89341170D01*
X180235972Y-89420609D01*
X180443119Y-89420790D01*
X180634567Y-89341685D01*
X180781170Y-89195338D01*
X180820256Y-89101208D01*
X183133824Y-89101208D01*
X183288175Y-89474766D01*
X183573731Y-89760821D01*
X183947018Y-89915824D01*
X184351208Y-89916176D01*
X184724766Y-89761825D01*
X185010821Y-89476269D01*
X185165824Y-89102982D01*
X185166176Y-88698792D01*
X185011825Y-88325234D01*
X184726269Y-88039179D01*
X184352982Y-87884176D01*
X183948792Y-87883824D01*
X183575234Y-88038175D01*
X183289179Y-88323731D01*
X183134176Y-88697018D01*
X183133824Y-89101208D01*
X180820256Y-89101208D01*
X180860609Y-89004028D01*
X180860790Y-88796881D01*
X180781685Y-88605433D01*
X180635338Y-88458830D01*
X180444028Y-88379391D01*
X180236881Y-88379210D01*
X180045433Y-88458315D01*
X179898830Y-88604662D01*
X179819391Y-88795972D01*
X179819210Y-89003119D01*
X161810609Y-89003119D01*
X161810790Y-88796881D01*
X161731685Y-88605433D01*
X161585338Y-88458830D01*
X161394028Y-88379391D01*
X161186881Y-88379210D01*
X160995433Y-88458315D01*
X160848830Y-88604662D01*
X160769391Y-88795972D01*
X160769210Y-89003119D01*
X157225910Y-89003119D01*
X157226176Y-88698792D01*
X157071825Y-88325234D01*
X156786269Y-88039179D01*
X156412982Y-87884176D01*
X156008792Y-87883824D01*
X155635234Y-88038175D01*
X155349179Y-88323731D01*
X155194176Y-88697018D01*
X155193824Y-89101208D01*
X154368500Y-89101208D01*
X154368500Y-87755755D01*
X158114890Y-87755755D01*
X158211360Y-87989228D01*
X158389832Y-88168013D01*
X158623137Y-88264889D01*
X158875755Y-88265110D01*
X159109228Y-88168640D01*
X159288013Y-87990168D01*
X159384889Y-87756863D01*
X159384889Y-87755755D01*
X180974890Y-87755755D01*
X181071360Y-87989228D01*
X181249832Y-88168013D01*
X181483137Y-88264889D01*
X181735755Y-88265110D01*
X181969228Y-88168640D01*
X182148013Y-87990168D01*
X182244889Y-87756863D01*
X182245110Y-87504245D01*
X182148640Y-87270772D01*
X181970168Y-87091987D01*
X181736863Y-86995111D01*
X181484245Y-86994890D01*
X181250772Y-87091360D01*
X181071987Y-87269832D01*
X180975111Y-87503137D01*
X180974890Y-87755755D01*
X159384889Y-87755755D01*
X159385110Y-87504245D01*
X159288640Y-87270772D01*
X159110168Y-87091987D01*
X158876863Y-86995111D01*
X158624245Y-86994890D01*
X158390772Y-87091360D01*
X158211987Y-87269832D01*
X158115111Y-87503137D01*
X158114890Y-87755755D01*
X154368500Y-87755755D01*
X154368500Y-86561208D01*
X155193824Y-86561208D01*
X155348175Y-86934766D01*
X155633731Y-87220821D01*
X156007018Y-87375824D01*
X156411208Y-87376176D01*
X156784766Y-87221825D01*
X157070821Y-86936269D01*
X157225824Y-86562982D01*
X157225825Y-86561208D01*
X183133824Y-86561208D01*
X183288175Y-86934766D01*
X183573731Y-87220821D01*
X183947018Y-87375824D01*
X184351208Y-87376176D01*
X184724766Y-87221825D01*
X185010821Y-86936269D01*
X185165824Y-86562982D01*
X185166176Y-86158792D01*
X185011825Y-85785234D01*
X184726269Y-85499179D01*
X184352982Y-85344176D01*
X183948792Y-85343824D01*
X183575234Y-85498175D01*
X183289179Y-85783731D01*
X183134176Y-86157018D01*
X183133824Y-86561208D01*
X157225825Y-86561208D01*
X157226176Y-86158792D01*
X157071825Y-85785234D01*
X156786269Y-85499179D01*
X156412982Y-85344176D01*
X156008792Y-85343824D01*
X155635234Y-85498175D01*
X155349179Y-85783731D01*
X155194176Y-86157018D01*
X155193824Y-86561208D01*
X154368500Y-86561208D01*
X154368500Y-84021208D01*
X155193824Y-84021208D01*
X155348175Y-84394766D01*
X155633731Y-84680821D01*
X156007018Y-84835824D01*
X156411208Y-84836176D01*
X156784766Y-84681825D01*
X157070821Y-84396269D01*
X157225824Y-84022982D01*
X157225910Y-83923119D01*
X162039210Y-83923119D01*
X162118315Y-84114567D01*
X162264662Y-84261170D01*
X162455972Y-84340609D01*
X162663119Y-84340790D01*
X162854567Y-84261685D01*
X163001170Y-84115338D01*
X163080609Y-83924028D01*
X163080609Y-83923119D01*
X178549210Y-83923119D01*
X178628315Y-84114567D01*
X178774662Y-84261170D01*
X178965972Y-84340609D01*
X179173119Y-84340790D01*
X179364567Y-84261685D01*
X179511170Y-84115338D01*
X179550256Y-84021208D01*
X183133824Y-84021208D01*
X183288175Y-84394766D01*
X183573731Y-84680821D01*
X183947018Y-84835824D01*
X184351208Y-84836176D01*
X184724766Y-84681825D01*
X185010821Y-84396269D01*
X185165824Y-84022982D01*
X185166176Y-83618792D01*
X185011825Y-83245234D01*
X184726269Y-82959179D01*
X184352982Y-82804176D01*
X183948792Y-82803824D01*
X183575234Y-82958175D01*
X183289179Y-83243731D01*
X183134176Y-83617018D01*
X183133824Y-84021208D01*
X179550256Y-84021208D01*
X179590609Y-83924028D01*
X179590790Y-83716881D01*
X179511685Y-83525433D01*
X179365338Y-83378830D01*
X179174028Y-83299391D01*
X178966881Y-83299210D01*
X178775433Y-83378315D01*
X178628830Y-83524662D01*
X178549391Y-83715972D01*
X178549210Y-83923119D01*
X163080609Y-83923119D01*
X163080790Y-83716881D01*
X163001685Y-83525433D01*
X162855338Y-83378830D01*
X162664028Y-83299391D01*
X162456881Y-83299210D01*
X162265433Y-83378315D01*
X162118830Y-83524662D01*
X162039391Y-83715972D01*
X162039210Y-83923119D01*
X157225910Y-83923119D01*
X157226176Y-83618792D01*
X157071825Y-83245234D01*
X156786269Y-82959179D01*
X156412982Y-82804176D01*
X156008792Y-82803824D01*
X155635234Y-82958175D01*
X155349179Y-83243731D01*
X155194176Y-83617018D01*
X155193824Y-84021208D01*
X154368500Y-84021208D01*
X154368500Y-82675755D01*
X158114890Y-82675755D01*
X158211360Y-82909228D01*
X158389832Y-83088013D01*
X158623137Y-83184889D01*
X158875755Y-83185110D01*
X159109228Y-83088640D01*
X159288013Y-82910168D01*
X159384889Y-82676863D01*
X159384889Y-82675755D01*
X180974890Y-82675755D01*
X181071360Y-82909228D01*
X181249832Y-83088013D01*
X181483137Y-83184889D01*
X181735755Y-83185110D01*
X181969228Y-83088640D01*
X182148013Y-82910168D01*
X182244889Y-82676863D01*
X182245110Y-82424245D01*
X182148640Y-82190772D01*
X181970168Y-82011987D01*
X181736863Y-81915111D01*
X181484245Y-81914890D01*
X181250772Y-82011360D01*
X181071987Y-82189832D01*
X180975111Y-82423137D01*
X180974890Y-82675755D01*
X159384889Y-82675755D01*
X159385110Y-82424245D01*
X159288640Y-82190772D01*
X159110168Y-82011987D01*
X158876863Y-81915111D01*
X158624245Y-81914890D01*
X158390772Y-82011360D01*
X158211987Y-82189832D01*
X158115111Y-82423137D01*
X158114890Y-82675755D01*
X154368500Y-82675755D01*
X154368500Y-81481208D01*
X155193824Y-81481208D01*
X155348175Y-81854766D01*
X155633731Y-82140821D01*
X156007018Y-82295824D01*
X156411208Y-82296176D01*
X156784766Y-82141825D01*
X157070821Y-81856269D01*
X157225824Y-81482982D01*
X157225825Y-81481208D01*
X183133824Y-81481208D01*
X183288175Y-81854766D01*
X183573731Y-82140821D01*
X183947018Y-82295824D01*
X184351208Y-82296176D01*
X184724766Y-82141825D01*
X185010821Y-81856269D01*
X185165824Y-81482982D01*
X185166176Y-81078792D01*
X185011825Y-80705234D01*
X184726269Y-80419179D01*
X184352982Y-80264176D01*
X183948792Y-80263824D01*
X183575234Y-80418175D01*
X183289179Y-80703731D01*
X183134176Y-81077018D01*
X183133824Y-81481208D01*
X157225825Y-81481208D01*
X157226176Y-81078792D01*
X157071825Y-80705234D01*
X156786269Y-80419179D01*
X156412982Y-80264176D01*
X156008792Y-80263824D01*
X155635234Y-80418175D01*
X155349179Y-80703731D01*
X155194176Y-81077018D01*
X155193824Y-81481208D01*
X154368500Y-81481208D01*
X154368500Y-78941208D01*
X155193824Y-78941208D01*
X155348175Y-79314766D01*
X155633731Y-79600821D01*
X156007018Y-79755824D01*
X156411208Y-79756176D01*
X156784766Y-79601825D01*
X157070821Y-79316269D01*
X157225824Y-78942982D01*
X157225910Y-78843119D01*
X163309210Y-78843119D01*
X163388315Y-79034567D01*
X163534662Y-79181170D01*
X163725972Y-79260609D01*
X163933119Y-79260790D01*
X164124567Y-79181685D01*
X164271170Y-79035338D01*
X164350609Y-78844028D01*
X164350609Y-78843119D01*
X177279210Y-78843119D01*
X177358315Y-79034567D01*
X177504662Y-79181170D01*
X177695972Y-79260609D01*
X177903119Y-79260790D01*
X178094567Y-79181685D01*
X178241170Y-79035338D01*
X178280256Y-78941208D01*
X183133824Y-78941208D01*
X183288175Y-79314766D01*
X183573731Y-79600821D01*
X183947018Y-79755824D01*
X184351208Y-79756176D01*
X184724766Y-79601825D01*
X185010821Y-79316269D01*
X185165824Y-78942982D01*
X185166176Y-78538792D01*
X185011825Y-78165234D01*
X184726269Y-77879179D01*
X184352982Y-77724176D01*
X183948792Y-77723824D01*
X183575234Y-77878175D01*
X183289179Y-78163731D01*
X183134176Y-78537018D01*
X183133824Y-78941208D01*
X178280256Y-78941208D01*
X178320609Y-78844028D01*
X178320790Y-78636881D01*
X178241685Y-78445433D01*
X178095338Y-78298830D01*
X177904028Y-78219391D01*
X177696881Y-78219210D01*
X177505433Y-78298315D01*
X177358830Y-78444662D01*
X177279391Y-78635972D01*
X177279210Y-78843119D01*
X164350609Y-78843119D01*
X164350790Y-78636881D01*
X164271685Y-78445433D01*
X164125338Y-78298830D01*
X163934028Y-78219391D01*
X163726881Y-78219210D01*
X163535433Y-78298315D01*
X163388830Y-78444662D01*
X163309391Y-78635972D01*
X163309210Y-78843119D01*
X157225910Y-78843119D01*
X157226176Y-78538792D01*
X157071825Y-78165234D01*
X156786269Y-77879179D01*
X156412982Y-77724176D01*
X156008792Y-77723824D01*
X155635234Y-77878175D01*
X155349179Y-78163731D01*
X155194176Y-78537018D01*
X155193824Y-78941208D01*
X154368500Y-78941208D01*
X154368500Y-77595755D01*
X158114890Y-77595755D01*
X158211360Y-77829228D01*
X158389832Y-78008013D01*
X158623137Y-78104889D01*
X158875755Y-78105110D01*
X159109228Y-78008640D01*
X159288013Y-77830168D01*
X159384889Y-77596863D01*
X159384889Y-77595755D01*
X180974890Y-77595755D01*
X181071360Y-77829228D01*
X181249832Y-78008013D01*
X181483137Y-78104889D01*
X181735755Y-78105110D01*
X181969228Y-78008640D01*
X182148013Y-77830168D01*
X182244889Y-77596863D01*
X182245110Y-77344245D01*
X182148640Y-77110772D01*
X181970168Y-76931987D01*
X181736863Y-76835111D01*
X181484245Y-76834890D01*
X181250772Y-76931360D01*
X181071987Y-77109832D01*
X180975111Y-77343137D01*
X180974890Y-77595755D01*
X159384889Y-77595755D01*
X159385110Y-77344245D01*
X159288640Y-77110772D01*
X159110168Y-76931987D01*
X158876863Y-76835111D01*
X158624245Y-76834890D01*
X158390772Y-76931360D01*
X158211987Y-77109832D01*
X158115111Y-77343137D01*
X158114890Y-77595755D01*
X154368500Y-77595755D01*
X154368500Y-76401208D01*
X155193824Y-76401208D01*
X155348175Y-76774766D01*
X155633731Y-77060821D01*
X156007018Y-77215824D01*
X156411208Y-77216176D01*
X156784766Y-77061825D01*
X157070821Y-76776269D01*
X157225824Y-76402982D01*
X157225825Y-76401208D01*
X183133824Y-76401208D01*
X183288175Y-76774766D01*
X183573731Y-77060821D01*
X183947018Y-77215824D01*
X184351208Y-77216176D01*
X184724766Y-77061825D01*
X185010821Y-76776269D01*
X185165824Y-76402982D01*
X185166176Y-75998792D01*
X185011825Y-75625234D01*
X184726269Y-75339179D01*
X184352982Y-75184176D01*
X183948792Y-75183824D01*
X183575234Y-75338175D01*
X183289179Y-75623731D01*
X183134176Y-75997018D01*
X183133824Y-76401208D01*
X157225825Y-76401208D01*
X157226176Y-75998792D01*
X157071825Y-75625234D01*
X156786269Y-75339179D01*
X156412982Y-75184176D01*
X156008792Y-75183824D01*
X155635234Y-75338175D01*
X155349179Y-75623731D01*
X155194176Y-75997018D01*
X155193824Y-76401208D01*
X154368500Y-76401208D01*
X154368500Y-74379778D01*
X155580024Y-74379778D01*
X155653628Y-74533814D01*
X156030373Y-74680213D01*
X156434465Y-74671294D01*
X156766372Y-74533814D01*
X156839976Y-74379778D01*
X183520024Y-74379778D01*
X183593628Y-74533814D01*
X183970373Y-74680213D01*
X184374465Y-74671294D01*
X184706372Y-74533814D01*
X184779976Y-74379778D01*
X184150000Y-73749803D01*
X183520024Y-74379778D01*
X156839976Y-74379778D01*
X156210000Y-73749803D01*
X155580024Y-74379778D01*
X154368500Y-74379778D01*
X154368500Y-73480373D01*
X155189787Y-73480373D01*
X155198706Y-73884465D01*
X155336186Y-74216372D01*
X155490222Y-74289976D01*
X156120197Y-73660000D01*
X156299803Y-73660000D01*
X156929778Y-74289976D01*
X157083814Y-74216372D01*
X157230213Y-73839627D01*
X157228525Y-73763119D01*
X176009210Y-73763119D01*
X176088315Y-73954567D01*
X176234662Y-74101170D01*
X176425972Y-74180609D01*
X176633119Y-74180790D01*
X176824567Y-74101685D01*
X176971170Y-73955338D01*
X177050609Y-73764028D01*
X177050790Y-73556881D01*
X177019178Y-73480373D01*
X183129787Y-73480373D01*
X183138706Y-73884465D01*
X183276186Y-74216372D01*
X183430222Y-74289976D01*
X184060197Y-73660000D01*
X184239803Y-73660000D01*
X184869778Y-74289976D01*
X185023814Y-74216372D01*
X185170213Y-73839627D01*
X185161294Y-73435535D01*
X185023814Y-73103628D01*
X184869778Y-73030024D01*
X184239803Y-73660000D01*
X184060197Y-73660000D01*
X183430222Y-73030024D01*
X183276186Y-73103628D01*
X183129787Y-73480373D01*
X177019178Y-73480373D01*
X176971685Y-73365433D01*
X176825338Y-73218830D01*
X176634028Y-73139391D01*
X176426881Y-73139210D01*
X176235433Y-73218315D01*
X176088830Y-73364662D01*
X176009391Y-73555972D01*
X176009210Y-73763119D01*
X157228525Y-73763119D01*
X157221294Y-73435535D01*
X157083814Y-73103628D01*
X156929778Y-73030024D01*
X156299803Y-73660000D01*
X156120197Y-73660000D01*
X155490222Y-73030024D01*
X155336186Y-73103628D01*
X155189787Y-73480373D01*
X154368500Y-73480373D01*
X154368500Y-72940222D01*
X155580024Y-72940222D01*
X156210000Y-73570197D01*
X156839976Y-72940222D01*
X156766372Y-72786186D01*
X156389627Y-72639787D01*
X155985535Y-72648706D01*
X155653628Y-72786186D01*
X155580024Y-72940222D01*
X154368500Y-72940222D01*
X154368500Y-71818500D01*
X158470299Y-71818500D01*
X158390772Y-71851360D01*
X158390772Y-71851360D01*
G37*
X158390772Y-71851360D02*
X158211987Y-72029832D01*
X158115111Y-72263137D01*
X158114890Y-72515755D01*
X158211360Y-72749228D01*
X158389832Y-72928013D01*
X158623137Y-73024889D01*
X158875755Y-73025110D01*
X159109228Y-72928640D01*
X159288013Y-72750168D01*
X159384889Y-72516863D01*
X159385110Y-72264245D01*
X159288640Y-72030772D01*
X159110168Y-71851987D01*
X159029522Y-71818500D01*
X181330299Y-71818500D01*
X181250772Y-71851360D01*
X181071987Y-72029832D01*
X180975111Y-72263137D01*
X180974890Y-72515755D01*
X181071360Y-72749228D01*
X181249832Y-72928013D01*
X181483137Y-73024889D01*
X181735755Y-73025110D01*
X181941197Y-72940222D01*
X183520024Y-72940222D01*
X184150000Y-73570197D01*
X184779976Y-72940222D01*
X184706372Y-72786186D01*
X184329627Y-72639787D01*
X183925535Y-72648706D01*
X183593628Y-72786186D01*
X183520024Y-72940222D01*
X181941197Y-72940222D01*
X181969228Y-72928640D01*
X182148013Y-72750168D01*
X182244889Y-72516863D01*
X182245110Y-72264245D01*
X182148640Y-72030772D01*
X181970168Y-71851987D01*
X181889522Y-71818500D01*
X185991500Y-71818500D01*
X185991500Y-136461500D01*
X154368500Y-136461500D01*
X154368500Y-135339778D01*
X155580024Y-135339778D01*
X155653628Y-135493814D01*
X156030373Y-135640213D01*
X156434465Y-135631294D01*
X156766372Y-135493814D01*
X156839976Y-135339778D01*
X158120024Y-135339778D01*
X158193628Y-135493814D01*
X158570373Y-135640213D01*
X158974465Y-135631294D01*
X159306372Y-135493814D01*
X159379976Y-135339778D01*
X160660024Y-135339778D01*
X160733628Y-135493814D01*
X161110373Y-135640213D01*
X161514465Y-135631294D01*
X161846372Y-135493814D01*
X161919976Y-135339778D01*
X163200024Y-135339778D01*
X163273628Y-135493814D01*
X163650373Y-135640213D01*
X164054465Y-135631294D01*
X164386372Y-135493814D01*
X164459976Y-135339778D01*
X165740024Y-135339778D01*
X165813628Y-135493814D01*
X166190373Y-135640213D01*
X166594465Y-135631294D01*
X166926372Y-135493814D01*
X166999976Y-135339778D01*
X168280024Y-135339778D01*
X168353628Y-135493814D01*
X168730373Y-135640213D01*
X169134465Y-135631294D01*
X169466372Y-135493814D01*
X169539976Y-135339778D01*
X170820024Y-135339778D01*
X170893628Y-135493814D01*
X171270373Y-135640213D01*
X171674465Y-135631294D01*
X172006372Y-135493814D01*
X172079976Y-135339778D01*
X173360024Y-135339778D01*
X173433628Y-135493814D01*
X173810373Y-135640213D01*
X174214465Y-135631294D01*
X174546372Y-135493814D01*
X174619976Y-135339778D01*
X175900024Y-135339778D01*
X175973628Y-135493814D01*
X176350373Y-135640213D01*
X176754465Y-135631294D01*
X177086372Y-135493814D01*
X177159976Y-135339778D01*
X178440024Y-135339778D01*
X178513628Y-135493814D01*
X178890373Y-135640213D01*
X179294465Y-135631294D01*
X179626372Y-135493814D01*
X179699976Y-135339778D01*
X180980024Y-135339778D01*
X181053628Y-135493814D01*
X181430373Y-135640213D01*
X181834465Y-135631294D01*
X182166372Y-135493814D01*
X182239976Y-135339778D01*
X183520024Y-135339778D01*
X183593628Y-135493814D01*
X183970373Y-135640213D01*
X184374465Y-135631294D01*
X184706372Y-135493814D01*
X184779976Y-135339778D01*
X184150000Y-134709803D01*
X183520024Y-135339778D01*
X182239976Y-135339778D01*
X181610000Y-134709803D01*
X180980024Y-135339778D01*
X179699976Y-135339778D01*
X179070000Y-134709803D01*
X178440024Y-135339778D01*
X177159976Y-135339778D01*
X176530000Y-134709803D01*
X175900024Y-135339778D01*
X174619976Y-135339778D01*
X173990000Y-134709803D01*
X173360024Y-135339778D01*
X172079976Y-135339778D01*
X171450000Y-134709803D01*
X170820024Y-135339778D01*
X169539976Y-135339778D01*
X168910000Y-134709803D01*
X168280024Y-135339778D01*
X166999976Y-135339778D01*
X166370000Y-134709803D01*
X165740024Y-135339778D01*
X164459976Y-135339778D01*
X163830000Y-134709803D01*
X163200024Y-135339778D01*
X161919976Y-135339778D01*
X161290000Y-134709803D01*
X160660024Y-135339778D01*
X159379976Y-135339778D01*
X158750000Y-134709803D01*
X158120024Y-135339778D01*
X156839976Y-135339778D01*
X156210000Y-134709803D01*
X155580024Y-135339778D01*
X154368500Y-135339778D01*
X154368500Y-134440373D01*
X155189787Y-134440373D01*
X155198706Y-134844465D01*
X155336186Y-135176372D01*
X155490222Y-135249976D01*
X156120197Y-134620000D01*
X156299803Y-134620000D01*
X156929778Y-135249976D01*
X157083814Y-135176372D01*
X157230213Y-134799627D01*
X157222284Y-134440373D01*
X157729787Y-134440373D01*
X157738706Y-134844465D01*
X157876186Y-135176372D01*
X158030222Y-135249976D01*
X158660197Y-134620000D01*
X158839803Y-134620000D01*
X159469778Y-135249976D01*
X159623814Y-135176372D01*
X159770213Y-134799627D01*
X159762284Y-134440373D01*
X160269787Y-134440373D01*
X160278706Y-134844465D01*
X160416186Y-135176372D01*
X160570222Y-135249976D01*
X161200197Y-134620000D01*
X161379803Y-134620000D01*
X162009778Y-135249976D01*
X162163814Y-135176372D01*
X162310213Y-134799627D01*
X162302284Y-134440373D01*
X162809787Y-134440373D01*
X162818706Y-134844465D01*
X162956186Y-135176372D01*
X163110222Y-135249976D01*
X163740197Y-134620000D01*
X163919803Y-134620000D01*
X164549778Y-135249976D01*
X164703814Y-135176372D01*
X164850213Y-134799627D01*
X164842284Y-134440373D01*
X165349787Y-134440373D01*
X165358706Y-134844465D01*
X165496186Y-135176372D01*
X165650222Y-135249976D01*
X166280197Y-134620000D01*
X166459803Y-134620000D01*
X167089778Y-135249976D01*
X167243814Y-135176372D01*
X167390213Y-134799627D01*
X167382284Y-134440373D01*
X167889787Y-134440373D01*
X167898706Y-134844465D01*
X168036186Y-135176372D01*
X168190222Y-135249976D01*
X168820197Y-134620000D01*
X168999803Y-134620000D01*
X169629778Y-135249976D01*
X169783814Y-135176372D01*
X169930213Y-134799627D01*
X169922284Y-134440373D01*
X170429787Y-134440373D01*
X170438706Y-134844465D01*
X170576186Y-135176372D01*
X170730222Y-135249976D01*
X171360197Y-134620000D01*
X171539803Y-134620000D01*
X172169778Y-135249976D01*
X172323814Y-135176372D01*
X172470213Y-134799627D01*
X172462284Y-134440373D01*
X172969787Y-134440373D01*
X172978706Y-134844465D01*
X173116186Y-135176372D01*
X173270222Y-135249976D01*
X173900197Y-134620000D01*
X174079803Y-134620000D01*
X174709778Y-135249976D01*
X174863814Y-135176372D01*
X175010213Y-134799627D01*
X175002284Y-134440373D01*
X175509787Y-134440373D01*
X175518706Y-134844465D01*
X175656186Y-135176372D01*
X175810222Y-135249976D01*
X176440197Y-134620000D01*
X176619803Y-134620000D01*
X177249778Y-135249976D01*
X177403814Y-135176372D01*
X177550213Y-134799627D01*
X177542284Y-134440373D01*
X178049787Y-134440373D01*
X178058706Y-134844465D01*
X178196186Y-135176372D01*
X178350222Y-135249976D01*
X178980197Y-134620000D01*
X179159803Y-134620000D01*
X179789778Y-135249976D01*
X179943814Y-135176372D01*
X180090213Y-134799627D01*
X180082284Y-134440373D01*
X180589787Y-134440373D01*
X180598706Y-134844465D01*
X180736186Y-135176372D01*
X180890222Y-135249976D01*
X181520197Y-134620000D01*
X181699803Y-134620000D01*
X182329778Y-135249976D01*
X182483814Y-135176372D01*
X182630213Y-134799627D01*
X182622284Y-134440373D01*
X183129787Y-134440373D01*
X183138706Y-134844465D01*
X183276186Y-135176372D01*
X183430222Y-135249976D01*
X184060197Y-134620000D01*
X184239803Y-134620000D01*
X184869778Y-135249976D01*
X185023814Y-135176372D01*
X185170213Y-134799627D01*
X185161294Y-134395535D01*
X185023814Y-134063628D01*
X184869778Y-133990024D01*
X184239803Y-134620000D01*
X184060197Y-134620000D01*
X183430222Y-133990024D01*
X183276186Y-134063628D01*
X183129787Y-134440373D01*
X182622284Y-134440373D01*
X182621294Y-134395535D01*
X182483814Y-134063628D01*
X182329778Y-133990024D01*
X181699803Y-134620000D01*
X181520197Y-134620000D01*
X180890222Y-133990024D01*
X180736186Y-134063628D01*
X180589787Y-134440373D01*
X180082284Y-134440373D01*
X180081294Y-134395535D01*
X179943814Y-134063628D01*
X179789778Y-133990024D01*
X179159803Y-134620000D01*
X178980197Y-134620000D01*
X178350222Y-133990024D01*
X178196186Y-134063628D01*
X178049787Y-134440373D01*
X177542284Y-134440373D01*
X177541294Y-134395535D01*
X177403814Y-134063628D01*
X177249778Y-133990024D01*
X176619803Y-134620000D01*
X176440197Y-134620000D01*
X175810222Y-133990024D01*
X175656186Y-134063628D01*
X175509787Y-134440373D01*
X175002284Y-134440373D01*
X175001294Y-134395535D01*
X174863814Y-134063628D01*
X174709778Y-133990024D01*
X174079803Y-134620000D01*
X173900197Y-134620000D01*
X173270222Y-133990024D01*
X173116186Y-134063628D01*
X172969787Y-134440373D01*
X172462284Y-134440373D01*
X172461294Y-134395535D01*
X172323814Y-134063628D01*
X172169778Y-133990024D01*
X171539803Y-134620000D01*
X171360197Y-134620000D01*
X170730222Y-133990024D01*
X170576186Y-134063628D01*
X170429787Y-134440373D01*
X169922284Y-134440373D01*
X169921294Y-134395535D01*
X169783814Y-134063628D01*
X169629778Y-133990024D01*
X168999803Y-134620000D01*
X168820197Y-134620000D01*
X168190222Y-133990024D01*
X168036186Y-134063628D01*
X167889787Y-134440373D01*
X167382284Y-134440373D01*
X167381294Y-134395535D01*
X167243814Y-134063628D01*
X167089778Y-133990024D01*
X166459803Y-134620000D01*
X166280197Y-134620000D01*
X165650222Y-133990024D01*
X165496186Y-134063628D01*
X165349787Y-134440373D01*
X164842284Y-134440373D01*
X164841294Y-134395535D01*
X164703814Y-134063628D01*
X164549778Y-133990024D01*
X163919803Y-134620000D01*
X163740197Y-134620000D01*
X163110222Y-133990024D01*
X162956186Y-134063628D01*
X162809787Y-134440373D01*
X162302284Y-134440373D01*
X162301294Y-134395535D01*
X162163814Y-134063628D01*
X162009778Y-133990024D01*
X161379803Y-134620000D01*
X161200197Y-134620000D01*
X160570222Y-133990024D01*
X160416186Y-134063628D01*
X160269787Y-134440373D01*
X159762284Y-134440373D01*
X159761294Y-134395535D01*
X159623814Y-134063628D01*
X159469778Y-133990024D01*
X158839803Y-134620000D01*
X158660197Y-134620000D01*
X158030222Y-133990024D01*
X157876186Y-134063628D01*
X157729787Y-134440373D01*
X157222284Y-134440373D01*
X157221294Y-134395535D01*
X157083814Y-134063628D01*
X156929778Y-133990024D01*
X156299803Y-134620000D01*
X156120197Y-134620000D01*
X155490222Y-133990024D01*
X155336186Y-134063628D01*
X155189787Y-134440373D01*
X154368500Y-134440373D01*
X154368500Y-133900222D01*
X155580024Y-133900222D01*
X156210000Y-134530197D01*
X156839976Y-133900222D01*
X158120024Y-133900222D01*
X158750000Y-134530197D01*
X159379976Y-133900222D01*
X160660024Y-133900222D01*
X161290000Y-134530197D01*
X161919976Y-133900222D01*
X163200024Y-133900222D01*
X163830000Y-134530197D01*
X164459976Y-133900222D01*
X165740024Y-133900222D01*
X166370000Y-134530197D01*
X166999976Y-133900222D01*
X168280024Y-133900222D01*
X168910000Y-134530197D01*
X169539976Y-133900222D01*
X170820024Y-133900222D01*
X171450000Y-134530197D01*
X172079976Y-133900222D01*
X173360024Y-133900222D01*
X173990000Y-134530197D01*
X174619976Y-133900222D01*
X175900024Y-133900222D01*
X176530000Y-134530197D01*
X177159976Y-133900222D01*
X178440024Y-133900222D01*
X179070000Y-134530197D01*
X179699976Y-133900222D01*
X180980024Y-133900222D01*
X181610000Y-134530197D01*
X182239976Y-133900222D01*
X183520024Y-133900222D01*
X184150000Y-134530197D01*
X184779976Y-133900222D01*
X184706372Y-133746186D01*
X184329627Y-133599787D01*
X183925535Y-133608706D01*
X183593628Y-133746186D01*
X183520024Y-133900222D01*
X182239976Y-133900222D01*
X182166372Y-133746186D01*
X181789627Y-133599787D01*
X181385535Y-133608706D01*
X181053628Y-133746186D01*
X180980024Y-133900222D01*
X179699976Y-133900222D01*
X179626372Y-133746186D01*
X179249627Y-133599787D01*
X178845535Y-133608706D01*
X178513628Y-133746186D01*
X178440024Y-133900222D01*
X177159976Y-133900222D01*
X177086372Y-133746186D01*
X176709627Y-133599787D01*
X176305535Y-133608706D01*
X175973628Y-133746186D01*
X175900024Y-133900222D01*
X174619976Y-133900222D01*
X174546372Y-133746186D01*
X174169627Y-133599787D01*
X173765535Y-133608706D01*
X173433628Y-133746186D01*
X173360024Y-133900222D01*
X172079976Y-133900222D01*
X172006372Y-133746186D01*
X171629627Y-133599787D01*
X171225535Y-133608706D01*
X170893628Y-133746186D01*
X170820024Y-133900222D01*
X169539976Y-133900222D01*
X169466372Y-133746186D01*
X169089627Y-133599787D01*
X168685535Y-133608706D01*
X168353628Y-133746186D01*
X168280024Y-133900222D01*
X166999976Y-133900222D01*
X166926372Y-133746186D01*
X166549627Y-133599787D01*
X166145535Y-133608706D01*
X165813628Y-133746186D01*
X165740024Y-133900222D01*
X164459976Y-133900222D01*
X164386372Y-133746186D01*
X164009627Y-133599787D01*
X163605535Y-133608706D01*
X163273628Y-133746186D01*
X163200024Y-133900222D01*
X161919976Y-133900222D01*
X161846372Y-133746186D01*
X161469627Y-133599787D01*
X161065535Y-133608706D01*
X160733628Y-133746186D01*
X160660024Y-133900222D01*
X159379976Y-133900222D01*
X159306372Y-133746186D01*
X158929627Y-133599787D01*
X158525535Y-133608706D01*
X158193628Y-133746186D01*
X158120024Y-133900222D01*
X156839976Y-133900222D01*
X156766372Y-133746186D01*
X156389627Y-133599787D01*
X155985535Y-133608706D01*
X155653628Y-133746186D01*
X155580024Y-133900222D01*
X154368500Y-133900222D01*
X154368500Y-132281208D01*
X155193824Y-132281208D01*
X155348175Y-132654766D01*
X155633731Y-132940821D01*
X156007018Y-133095824D01*
X156411208Y-133096176D01*
X156784766Y-132941825D01*
X157070821Y-132656269D01*
X157225824Y-132282982D01*
X157225825Y-132281208D01*
X157733824Y-132281208D01*
X157888175Y-132654766D01*
X158173731Y-132940821D01*
X158547018Y-133095824D01*
X158951208Y-133096176D01*
X159324766Y-132941825D01*
X159610821Y-132656269D01*
X159765824Y-132282982D01*
X159765825Y-132281208D01*
X160273824Y-132281208D01*
X160428175Y-132654766D01*
X160713731Y-132940821D01*
X161087018Y-133095824D01*
X161491208Y-133096176D01*
X161864766Y-132941825D01*
X162150821Y-132656269D01*
X162305824Y-132282982D01*
X162305825Y-132281208D01*
X162813824Y-132281208D01*
X162968175Y-132654766D01*
X163253731Y-132940821D01*
X163627018Y-133095824D01*
X164031208Y-133096176D01*
X164404766Y-132941825D01*
X164690821Y-132656269D01*
X164845824Y-132282982D01*
X164845825Y-132281208D01*
X165353824Y-132281208D01*
X165508175Y-132654766D01*
X165793731Y-132940821D01*
X166167018Y-133095824D01*
X166571208Y-133096176D01*
X166944766Y-132941825D01*
X167230821Y-132656269D01*
X167385824Y-132282982D01*
X167385825Y-132281208D01*
X167893824Y-132281208D01*
X168048175Y-132654766D01*
X168333731Y-132940821D01*
X168707018Y-133095824D01*
X169111208Y-133096176D01*
X169484766Y-132941825D01*
X169770821Y-132656269D01*
X169925824Y-132282982D01*
X169925825Y-132281208D01*
X170433824Y-132281208D01*
X170588175Y-132654766D01*
X170873731Y-132940821D01*
X171247018Y-133095824D01*
X171651208Y-133096176D01*
X172024766Y-132941825D01*
X172310821Y-132656269D01*
X172465824Y-132282982D01*
X172465825Y-132281208D01*
X172973824Y-132281208D01*
X173128175Y-132654766D01*
X173413731Y-132940821D01*
X173787018Y-133095824D01*
X174191208Y-133096176D01*
X174564766Y-132941825D01*
X174850821Y-132656269D01*
X175005824Y-132282982D01*
X175005825Y-132281208D01*
X175513824Y-132281208D01*
X175668175Y-132654766D01*
X175953731Y-132940821D01*
X176327018Y-133095824D01*
X176731208Y-133096176D01*
X177104766Y-132941825D01*
X177390821Y-132656269D01*
X177545824Y-132282982D01*
X177545825Y-132281208D01*
X178053824Y-132281208D01*
X178208175Y-132654766D01*
X178493731Y-132940821D01*
X178867018Y-133095824D01*
X179271208Y-133096176D01*
X179644766Y-132941825D01*
X179930821Y-132656269D01*
X180085824Y-132282982D01*
X180085825Y-132281208D01*
X180593824Y-132281208D01*
X180748175Y-132654766D01*
X181033731Y-132940821D01*
X181407018Y-133095824D01*
X181811208Y-133096176D01*
X182184766Y-132941825D01*
X182470821Y-132656269D01*
X182625824Y-132282982D01*
X182625825Y-132281208D01*
X183133824Y-132281208D01*
X183288175Y-132654766D01*
X183573731Y-132940821D01*
X183947018Y-133095824D01*
X184351208Y-133096176D01*
X184724766Y-132941825D01*
X185010821Y-132656269D01*
X185165824Y-132282982D01*
X185166176Y-131878792D01*
X185011825Y-131505234D01*
X184726269Y-131219179D01*
X184352982Y-131064176D01*
X183948792Y-131063824D01*
X183575234Y-131218175D01*
X183289179Y-131503731D01*
X183134176Y-131877018D01*
X183133824Y-132281208D01*
X182625825Y-132281208D01*
X182626176Y-131878792D01*
X182471825Y-131505234D01*
X182186269Y-131219179D01*
X181812982Y-131064176D01*
X181408792Y-131063824D01*
X181035234Y-131218175D01*
X180749179Y-131503731D01*
X180594176Y-131877018D01*
X180593824Y-132281208D01*
X180085825Y-132281208D01*
X180086176Y-131878792D01*
X179931825Y-131505234D01*
X179646269Y-131219179D01*
X179272982Y-131064176D01*
X178868792Y-131063824D01*
X178495234Y-131218175D01*
X178209179Y-131503731D01*
X178054176Y-131877018D01*
X178053824Y-132281208D01*
X177545825Y-132281208D01*
X177546176Y-131878792D01*
X177391825Y-131505234D01*
X177106269Y-131219179D01*
X176732982Y-131064176D01*
X176328792Y-131063824D01*
X175955234Y-131218175D01*
X175669179Y-131503731D01*
X175514176Y-131877018D01*
X175513824Y-132281208D01*
X175005825Y-132281208D01*
X175006176Y-131878792D01*
X174851825Y-131505234D01*
X174566269Y-131219179D01*
X174192982Y-131064176D01*
X173788792Y-131063824D01*
X173415234Y-131218175D01*
X173129179Y-131503731D01*
X172974176Y-131877018D01*
X172973824Y-132281208D01*
X172465825Y-132281208D01*
X172466176Y-131878792D01*
X172311825Y-131505234D01*
X172026269Y-131219179D01*
X171652982Y-131064176D01*
X171248792Y-131063824D01*
X170875234Y-131218175D01*
X170589179Y-131503731D01*
X170434176Y-131877018D01*
X170433824Y-132281208D01*
X169925825Y-132281208D01*
X169926176Y-131878792D01*
X169771825Y-131505234D01*
X169486269Y-131219179D01*
X169112982Y-131064176D01*
X168708792Y-131063824D01*
X168335234Y-131218175D01*
X168049179Y-131503731D01*
X167894176Y-131877018D01*
X167893824Y-132281208D01*
X167385825Y-132281208D01*
X167386176Y-131878792D01*
X167231825Y-131505234D01*
X166946269Y-131219179D01*
X166572982Y-131064176D01*
X166168792Y-131063824D01*
X165795234Y-131218175D01*
X165509179Y-131503731D01*
X165354176Y-131877018D01*
X165353824Y-132281208D01*
X164845825Y-132281208D01*
X164846176Y-131878792D01*
X164691825Y-131505234D01*
X164406269Y-131219179D01*
X164032982Y-131064176D01*
X163628792Y-131063824D01*
X163255234Y-131218175D01*
X162969179Y-131503731D01*
X162814176Y-131877018D01*
X162813824Y-132281208D01*
X162305825Y-132281208D01*
X162306176Y-131878792D01*
X162151825Y-131505234D01*
X161866269Y-131219179D01*
X161492982Y-131064176D01*
X161088792Y-131063824D01*
X160715234Y-131218175D01*
X160429179Y-131503731D01*
X160274176Y-131877018D01*
X160273824Y-132281208D01*
X159765825Y-132281208D01*
X159766176Y-131878792D01*
X159611825Y-131505234D01*
X159326269Y-131219179D01*
X158952982Y-131064176D01*
X158548792Y-131063824D01*
X158175234Y-131218175D01*
X157889179Y-131503731D01*
X157734176Y-131877018D01*
X157733824Y-132281208D01*
X157225825Y-132281208D01*
X157226176Y-131878792D01*
X157071825Y-131505234D01*
X156786269Y-131219179D01*
X156412982Y-131064176D01*
X156008792Y-131063824D01*
X155635234Y-131218175D01*
X155349179Y-131503731D01*
X155194176Y-131877018D01*
X155193824Y-132281208D01*
X154368500Y-132281208D01*
X154368500Y-129741208D01*
X155193824Y-129741208D01*
X155348175Y-130114766D01*
X155633731Y-130400821D01*
X156007018Y-130555824D01*
X156411208Y-130556176D01*
X156784766Y-130401825D01*
X156908688Y-130278119D01*
X163309210Y-130278119D01*
X163388315Y-130469567D01*
X163534662Y-130616170D01*
X163725972Y-130695609D01*
X163933119Y-130695790D01*
X164124567Y-130616685D01*
X164271170Y-130470338D01*
X164350609Y-130279028D01*
X164350609Y-130278119D01*
X165849210Y-130278119D01*
X165928315Y-130469567D01*
X166074662Y-130616170D01*
X166265972Y-130695609D01*
X166473119Y-130695790D01*
X166664567Y-130616685D01*
X166687411Y-130593880D01*
X166709662Y-130616170D01*
X166900972Y-130695609D01*
X167108119Y-130695790D01*
X167299567Y-130616685D01*
X167446170Y-130470338D01*
X167525609Y-130279028D01*
X167525790Y-130071881D01*
X167446685Y-129880433D01*
X167300338Y-129733830D01*
X167109028Y-129654391D01*
X166901881Y-129654210D01*
X166710433Y-129733315D01*
X166687589Y-129756120D01*
X166665338Y-129733830D01*
X166474028Y-129654391D01*
X166266881Y-129654210D01*
X166075433Y-129733315D01*
X165928830Y-129879662D01*
X165849391Y-130070972D01*
X165849210Y-130278119D01*
X164350609Y-130278119D01*
X164350790Y-130071881D01*
X164271685Y-129880433D01*
X164125338Y-129733830D01*
X163934028Y-129654391D01*
X163726881Y-129654210D01*
X163535433Y-129733315D01*
X163388830Y-129879662D01*
X163309391Y-130070972D01*
X163309210Y-130278119D01*
X156908688Y-130278119D01*
X157070821Y-130116269D01*
X157225824Y-129742982D01*
X157225910Y-129643119D01*
X180454210Y-129643119D01*
X180533315Y-129834567D01*
X180679662Y-129981170D01*
X180870972Y-130060609D01*
X181078119Y-130060790D01*
X181269567Y-129981685D01*
X181416170Y-129835338D01*
X181455256Y-129741208D01*
X183133824Y-129741208D01*
X183288175Y-130114766D01*
X183573731Y-130400821D01*
X183947018Y-130555824D01*
X184351208Y-130556176D01*
X184724766Y-130401825D01*
X185010821Y-130116269D01*
X185165824Y-129742982D01*
X185166176Y-129338792D01*
X185011825Y-128965234D01*
X184726269Y-128679179D01*
X184352982Y-128524176D01*
X183948792Y-128523824D01*
X183575234Y-128678175D01*
X183289179Y-128963731D01*
X183134176Y-129337018D01*
X183133824Y-129741208D01*
X181455256Y-129741208D01*
X181495609Y-129644028D01*
X181495790Y-129436881D01*
X181416685Y-129245433D01*
X181270338Y-129098830D01*
X181079028Y-129019391D01*
X180871881Y-129019210D01*
X180680433Y-129098315D01*
X180533830Y-129244662D01*
X180454391Y-129435972D01*
X180454210Y-129643119D01*
X157225910Y-129643119D01*
X157226176Y-129338792D01*
X157089545Y-129008119D01*
X158864210Y-129008119D01*
X158943315Y-129199567D01*
X159089662Y-129346170D01*
X159280972Y-129425609D01*
X159488119Y-129425790D01*
X159679567Y-129346685D01*
X159826170Y-129200338D01*
X159853251Y-129135119D01*
X179184210Y-129135119D01*
X179263315Y-129326567D01*
X179409662Y-129473170D01*
X179600972Y-129552609D01*
X179808119Y-129552790D01*
X179999567Y-129473685D01*
X180146170Y-129327338D01*
X180225609Y-129136028D01*
X180225790Y-128928881D01*
X180146685Y-128737433D01*
X180000338Y-128590830D01*
X179809028Y-128511391D01*
X179601881Y-128511210D01*
X179410433Y-128590315D01*
X179263830Y-128736662D01*
X179184391Y-128927972D01*
X179184210Y-129135119D01*
X159853251Y-129135119D01*
X159905609Y-129009028D01*
X159905790Y-128801881D01*
X159833580Y-128627119D01*
X177914210Y-128627119D01*
X177993315Y-128818567D01*
X178139662Y-128965170D01*
X178330972Y-129044609D01*
X178538119Y-129044790D01*
X178729567Y-128965685D01*
X178876170Y-128819338D01*
X178955609Y-128628028D01*
X178955790Y-128420881D01*
X178876685Y-128229433D01*
X178730338Y-128082830D01*
X178539028Y-128003391D01*
X178331881Y-128003210D01*
X178140433Y-128082315D01*
X177993830Y-128228662D01*
X177914391Y-128419972D01*
X177914210Y-128627119D01*
X159833580Y-128627119D01*
X159826685Y-128610433D01*
X159680338Y-128463830D01*
X159489028Y-128384391D01*
X159281881Y-128384210D01*
X159090433Y-128463315D01*
X158943830Y-128609662D01*
X158864391Y-128800972D01*
X158864210Y-129008119D01*
X157089545Y-129008119D01*
X157071825Y-128965234D01*
X156786269Y-128679179D01*
X156412982Y-128524176D01*
X156008792Y-128523824D01*
X155635234Y-128678175D01*
X155349179Y-128963731D01*
X155194176Y-129337018D01*
X155193824Y-129741208D01*
X154368500Y-129741208D01*
X154368500Y-128119119D01*
X176644210Y-128119119D01*
X176723315Y-128310567D01*
X176869662Y-128457170D01*
X177060972Y-128536609D01*
X177268119Y-128536790D01*
X177459567Y-128457685D01*
X177606170Y-128311338D01*
X177685609Y-128120028D01*
X177685790Y-127912881D01*
X177606685Y-127721433D01*
X177460338Y-127574830D01*
X177269028Y-127495391D01*
X177061881Y-127495210D01*
X176870433Y-127574315D01*
X176723830Y-127720662D01*
X176644391Y-127911972D01*
X176644210Y-128119119D01*
X154368500Y-128119119D01*
X154368500Y-127201208D01*
X155193824Y-127201208D01*
X155348175Y-127574766D01*
X155633731Y-127860821D01*
X156007018Y-128015824D01*
X156411208Y-128016176D01*
X156784766Y-127861825D01*
X157035910Y-127611119D01*
X158864210Y-127611119D01*
X158943315Y-127802567D01*
X159089662Y-127949170D01*
X159280972Y-128028609D01*
X159488119Y-128028790D01*
X159679567Y-127949685D01*
X159826170Y-127803338D01*
X159905609Y-127612028D01*
X159905609Y-127611119D01*
X160134210Y-127611119D01*
X160213315Y-127802567D01*
X160359662Y-127949170D01*
X160550972Y-128028609D01*
X160758119Y-128028790D01*
X160949567Y-127949685D01*
X161096170Y-127803338D01*
X161175609Y-127612028D01*
X161175609Y-127611119D01*
X161404210Y-127611119D01*
X161483315Y-127802567D01*
X161629662Y-127949170D01*
X161820972Y-128028609D01*
X162028119Y-128028790D01*
X162219567Y-127949685D01*
X162366170Y-127803338D01*
X162445609Y-127612028D01*
X162445609Y-127611119D01*
X162674210Y-127611119D01*
X162753315Y-127802567D01*
X162899662Y-127949170D01*
X163090972Y-128028609D01*
X163298119Y-128028790D01*
X163489567Y-127949685D01*
X163636170Y-127803338D01*
X163715609Y-127612028D01*
X163715609Y-127611119D01*
X164452210Y-127611119D01*
X164531315Y-127802567D01*
X164677662Y-127949170D01*
X164868972Y-128028609D01*
X165076119Y-128028790D01*
X165267567Y-127949685D01*
X165354022Y-127863381D01*
X165439662Y-127949170D01*
X165630972Y-128028609D01*
X165838119Y-128028790D01*
X166029567Y-127949685D01*
X166052411Y-127926880D01*
X166074662Y-127949170D01*
X166265972Y-128028609D01*
X166473119Y-128028790D01*
X166664567Y-127949685D01*
X166687411Y-127926880D01*
X166709662Y-127949170D01*
X166900972Y-128028609D01*
X167108119Y-128028790D01*
X167299567Y-127949685D01*
X167446170Y-127803338D01*
X167525609Y-127612028D01*
X167525790Y-127404881D01*
X167446685Y-127213433D01*
X167434482Y-127201208D01*
X183133824Y-127201208D01*
X183288175Y-127574766D01*
X183573731Y-127860821D01*
X183947018Y-128015824D01*
X184351208Y-128016176D01*
X184724766Y-127861825D01*
X185010821Y-127576269D01*
X185165824Y-127202982D01*
X185166176Y-126798792D01*
X185011825Y-126425234D01*
X184726269Y-126139179D01*
X184352982Y-125984176D01*
X183948792Y-125983824D01*
X183575234Y-126138175D01*
X183289179Y-126423731D01*
X183134176Y-126797018D01*
X183133824Y-127201208D01*
X167434482Y-127201208D01*
X167300338Y-127066830D01*
X167109028Y-126987391D01*
X166901881Y-126987210D01*
X166710433Y-127066315D01*
X166687589Y-127089120D01*
X166665338Y-127066830D01*
X166474028Y-126987391D01*
X166266881Y-126987210D01*
X166075433Y-127066315D01*
X166052589Y-127089120D01*
X166030338Y-127066830D01*
X165839028Y-126987391D01*
X165631881Y-126987210D01*
X165440433Y-127066315D01*
X165353978Y-127152619D01*
X165268338Y-127066830D01*
X165077028Y-126987391D01*
X164869881Y-126987210D01*
X164678433Y-127066315D01*
X164531830Y-127212662D01*
X164452391Y-127403972D01*
X164452210Y-127611119D01*
X163715609Y-127611119D01*
X163715790Y-127404881D01*
X163636685Y-127213433D01*
X163490338Y-127066830D01*
X163299028Y-126987391D01*
X163091881Y-126987210D01*
X162900433Y-127066315D01*
X162753830Y-127212662D01*
X162674391Y-127403972D01*
X162674210Y-127611119D01*
X162445609Y-127611119D01*
X162445790Y-127404881D01*
X162366685Y-127213433D01*
X162220338Y-127066830D01*
X162029028Y-126987391D01*
X161821881Y-126987210D01*
X161630433Y-127066315D01*
X161483830Y-127212662D01*
X161404391Y-127403972D01*
X161404210Y-127611119D01*
X161175609Y-127611119D01*
X161175790Y-127404881D01*
X161096685Y-127213433D01*
X160950338Y-127066830D01*
X160759028Y-126987391D01*
X160551881Y-126987210D01*
X160360433Y-127066315D01*
X160213830Y-127212662D01*
X160134391Y-127403972D01*
X160134210Y-127611119D01*
X159905609Y-127611119D01*
X159905790Y-127404881D01*
X159826685Y-127213433D01*
X159680338Y-127066830D01*
X159489028Y-126987391D01*
X159281881Y-126987210D01*
X159090433Y-127066315D01*
X158943830Y-127212662D01*
X158864391Y-127403972D01*
X158864210Y-127611119D01*
X157035910Y-127611119D01*
X157070821Y-127576269D01*
X157225824Y-127202982D01*
X157226176Y-126798792D01*
X157071825Y-126425234D01*
X156786269Y-126139179D01*
X156412982Y-125984176D01*
X156008792Y-125983824D01*
X155635234Y-126138175D01*
X155349179Y-126423731D01*
X155194176Y-126797018D01*
X155193824Y-127201208D01*
X154368500Y-127201208D01*
X154368500Y-125855755D01*
X169544890Y-125855755D01*
X169641360Y-126089228D01*
X169819832Y-126268013D01*
X170053137Y-126364889D01*
X170305755Y-126365110D01*
X170539228Y-126268640D01*
X170718013Y-126090168D01*
X170746243Y-126022183D01*
X170803632Y-126161074D01*
X171017798Y-126375615D01*
X171297764Y-126491867D01*
X171600906Y-126492132D01*
X171881074Y-126376368D01*
X172085168Y-126172630D01*
X172287798Y-126375615D01*
X172567764Y-126491867D01*
X172870906Y-126492132D01*
X173151074Y-126376368D01*
X173355168Y-126172630D01*
X173557798Y-126375615D01*
X173837764Y-126491867D01*
X174140906Y-126492132D01*
X174421074Y-126376368D01*
X174635615Y-126162202D01*
X174751867Y-125882236D01*
X174752132Y-125579094D01*
X174636368Y-125298926D01*
X174422202Y-125084385D01*
X174142236Y-124968133D01*
X173839094Y-124967868D01*
X173558926Y-125083632D01*
X173354832Y-125287370D01*
X173152202Y-125084385D01*
X172872236Y-124968133D01*
X172569094Y-124967868D01*
X172288926Y-125083632D01*
X172084832Y-125287370D01*
X171882202Y-125084385D01*
X171602236Y-124968133D01*
X171299094Y-124967868D01*
X171018926Y-125083632D01*
X170804385Y-125297798D01*
X170746293Y-125437698D01*
X170718640Y-125370772D01*
X170540168Y-125191987D01*
X170306863Y-125095111D01*
X170054245Y-125094890D01*
X169820772Y-125191360D01*
X169641987Y-125369832D01*
X169545111Y-125603137D01*
X169544890Y-125855755D01*
X154368500Y-125855755D01*
X154368500Y-124661208D01*
X155193824Y-124661208D01*
X155348175Y-125034766D01*
X155633731Y-125320821D01*
X156007018Y-125475824D01*
X156411208Y-125476176D01*
X156784766Y-125321825D01*
X157070821Y-125036269D01*
X157225824Y-124662982D01*
X157225825Y-124661208D01*
X183133824Y-124661208D01*
X183288175Y-125034766D01*
X183573731Y-125320821D01*
X183947018Y-125475824D01*
X184351208Y-125476176D01*
X184724766Y-125321825D01*
X185010821Y-125036269D01*
X185165824Y-124662982D01*
X185166176Y-124258792D01*
X185011825Y-123885234D01*
X184726269Y-123599179D01*
X184352982Y-123444176D01*
X183948792Y-123443824D01*
X183575234Y-123598175D01*
X183289179Y-123883731D01*
X183134176Y-124257018D01*
X183133824Y-124661208D01*
X157225825Y-124661208D01*
X157226176Y-124258792D01*
X157071825Y-123885234D01*
X156786269Y-123599179D01*
X156412982Y-123444176D01*
X156008792Y-123443824D01*
X155635234Y-123598175D01*
X155349179Y-123883731D01*
X155194176Y-124257018D01*
X155193824Y-124661208D01*
X154368500Y-124661208D01*
X154368500Y-123293119D01*
X158229210Y-123293119D01*
X158308315Y-123484567D01*
X158454662Y-123631170D01*
X158645972Y-123710609D01*
X158853119Y-123710790D01*
X159044567Y-123631685D01*
X159191170Y-123485338D01*
X159270609Y-123294028D01*
X159270609Y-123293119D01*
X164579210Y-123293119D01*
X164658315Y-123484567D01*
X164804662Y-123631170D01*
X164995972Y-123710609D01*
X165203119Y-123710790D01*
X165394567Y-123631685D01*
X165541170Y-123485338D01*
X165620609Y-123294028D01*
X165620790Y-123086881D01*
X165613059Y-123068171D01*
X165630972Y-123075609D01*
X165838119Y-123075790D01*
X165856829Y-123068059D01*
X165849391Y-123085972D01*
X165849210Y-123293119D01*
X165928315Y-123484567D01*
X166074662Y-123631170D01*
X166265972Y-123710609D01*
X166473119Y-123710790D01*
X166664567Y-123631685D01*
X166811170Y-123485338D01*
X166890609Y-123294028D01*
X166890790Y-123086881D01*
X166811685Y-122895433D01*
X166665338Y-122748830D01*
X166474028Y-122669391D01*
X166266881Y-122669210D01*
X166248171Y-122676941D01*
X166255609Y-122659028D01*
X166255790Y-122451881D01*
X166176685Y-122260433D01*
X166153880Y-122237589D01*
X166176170Y-122215338D01*
X166255609Y-122024028D01*
X166255790Y-121816881D01*
X166209818Y-121705619D01*
X168389210Y-121705619D01*
X168468315Y-121897067D01*
X168614662Y-122043670D01*
X168805972Y-122123109D01*
X169013119Y-122123290D01*
X169018157Y-122121208D01*
X183133824Y-122121208D01*
X183288175Y-122494766D01*
X183573731Y-122780821D01*
X183947018Y-122935824D01*
X184351208Y-122936176D01*
X184724766Y-122781825D01*
X185010821Y-122496269D01*
X185165824Y-122122982D01*
X185166176Y-121718792D01*
X185011825Y-121345234D01*
X184726269Y-121059179D01*
X184352982Y-120904176D01*
X183948792Y-120903824D01*
X183575234Y-121058175D01*
X183289179Y-121343731D01*
X183134176Y-121717018D01*
X183133824Y-122121208D01*
X169018157Y-122121208D01*
X169204567Y-122044185D01*
X169351170Y-121897838D01*
X169430609Y-121706528D01*
X169430790Y-121499381D01*
X169394171Y-121410755D01*
X169544890Y-121410755D01*
X169641360Y-121644228D01*
X169819832Y-121823013D01*
X170053137Y-121919889D01*
X170305755Y-121920110D01*
X170539228Y-121823640D01*
X170718013Y-121645168D01*
X170814889Y-121411863D01*
X170815110Y-121159245D01*
X170718640Y-120925772D01*
X170593993Y-120800906D01*
X170687868Y-120800906D01*
X170803632Y-121081074D01*
X171017798Y-121295615D01*
X171297764Y-121411867D01*
X171600906Y-121412132D01*
X171881074Y-121296368D01*
X172085168Y-121092630D01*
X172287798Y-121295615D01*
X172567764Y-121411867D01*
X172870906Y-121412132D01*
X173151074Y-121296368D01*
X173355168Y-121092630D01*
X173557798Y-121295615D01*
X173837764Y-121411867D01*
X174140906Y-121412132D01*
X174421074Y-121296368D01*
X174635615Y-121082202D01*
X174751867Y-120802236D01*
X174752132Y-120499094D01*
X174636368Y-120218926D01*
X174517429Y-120099778D01*
X183520024Y-120099778D01*
X183593628Y-120253814D01*
X183970373Y-120400213D01*
X184374465Y-120391294D01*
X184706372Y-120253814D01*
X184779976Y-120099778D01*
X184150000Y-119469803D01*
X183520024Y-120099778D01*
X174517429Y-120099778D01*
X174422202Y-120004385D01*
X174142236Y-119888133D01*
X173839094Y-119887868D01*
X173558926Y-120003632D01*
X173354832Y-120207370D01*
X173152202Y-120004385D01*
X172872236Y-119888133D01*
X172569094Y-119887868D01*
X172288926Y-120003632D01*
X172084832Y-120207370D01*
X171882202Y-120004385D01*
X171602236Y-119888133D01*
X171299094Y-119887868D01*
X171018926Y-120003632D01*
X170804385Y-120217798D01*
X170688133Y-120497764D01*
X170687868Y-120800906D01*
X170593993Y-120800906D01*
X170540168Y-120746987D01*
X170306863Y-120650111D01*
X170054245Y-120649890D01*
X169820772Y-120746360D01*
X169641987Y-120924832D01*
X169545111Y-121158137D01*
X169544890Y-121410755D01*
X169394171Y-121410755D01*
X169351685Y-121307933D01*
X169205338Y-121161330D01*
X169014028Y-121081891D01*
X168806881Y-121081710D01*
X168615433Y-121160815D01*
X168468830Y-121307162D01*
X168389391Y-121498472D01*
X168389210Y-121705619D01*
X166209818Y-121705619D01*
X166176685Y-121625433D01*
X166030338Y-121478830D01*
X165839028Y-121399391D01*
X165631881Y-121399210D01*
X165440433Y-121478315D01*
X165293830Y-121624662D01*
X165214391Y-121815972D01*
X165214210Y-122023119D01*
X165293315Y-122214567D01*
X165316120Y-122237411D01*
X165293830Y-122259662D01*
X165214391Y-122450972D01*
X165214210Y-122658119D01*
X165221941Y-122676829D01*
X165204028Y-122669391D01*
X164996881Y-122669210D01*
X164805433Y-122748315D01*
X164658830Y-122894662D01*
X164579391Y-123085972D01*
X164579210Y-123293119D01*
X159270609Y-123293119D01*
X159270790Y-123086881D01*
X159191685Y-122895433D01*
X159045338Y-122748830D01*
X158854028Y-122669391D01*
X158646881Y-122669210D01*
X158455433Y-122748315D01*
X158308830Y-122894662D01*
X158229391Y-123085972D01*
X158229210Y-123293119D01*
X154368500Y-123293119D01*
X154368500Y-122121208D01*
X155193824Y-122121208D01*
X155348175Y-122494766D01*
X155633731Y-122780821D01*
X156007018Y-122935824D01*
X156411208Y-122936176D01*
X156784766Y-122781825D01*
X157070821Y-122496269D01*
X157225824Y-122122982D01*
X157225910Y-122023119D01*
X158229210Y-122023119D01*
X158308315Y-122214567D01*
X158454662Y-122361170D01*
X158645972Y-122440609D01*
X158853119Y-122440790D01*
X159044567Y-122361685D01*
X159191170Y-122215338D01*
X159270609Y-122024028D01*
X159270790Y-121816881D01*
X159191685Y-121625433D01*
X159045338Y-121478830D01*
X158854028Y-121399391D01*
X158646881Y-121399210D01*
X158455433Y-121478315D01*
X158308830Y-121624662D01*
X158229391Y-121815972D01*
X158229210Y-122023119D01*
X157225910Y-122023119D01*
X157226176Y-121718792D01*
X157071825Y-121345234D01*
X156786269Y-121059179D01*
X156412982Y-120904176D01*
X156008792Y-120903824D01*
X155635234Y-121058175D01*
X155349179Y-121343731D01*
X155194176Y-121717018D01*
X155193824Y-122121208D01*
X154368500Y-122121208D01*
X154368500Y-120099778D01*
X155580024Y-120099778D01*
X155653628Y-120253814D01*
X156030373Y-120400213D01*
X156434465Y-120391294D01*
X156766372Y-120253814D01*
X156839976Y-120099778D01*
X156210000Y-119469803D01*
X155580024Y-120099778D01*
X154368500Y-120099778D01*
X154368500Y-119200373D01*
X155189787Y-119200373D01*
X155198706Y-119604465D01*
X155336186Y-119936372D01*
X155490222Y-120009976D01*
X156120197Y-119380000D01*
X156299803Y-119380000D01*
X156929778Y-120009976D01*
X157083814Y-119936372D01*
X157230213Y-119559627D01*
X157222284Y-119200373D01*
X183129787Y-119200373D01*
X183138706Y-119604465D01*
X183276186Y-119936372D01*
X183430222Y-120009976D01*
X184060197Y-119380000D01*
X184239803Y-119380000D01*
X184869778Y-120009976D01*
X185023814Y-119936372D01*
X185170213Y-119559627D01*
X185161294Y-119155535D01*
X185023814Y-118823628D01*
X184869778Y-118750024D01*
X184239803Y-119380000D01*
X184060197Y-119380000D01*
X183430222Y-118750024D01*
X183276186Y-118823628D01*
X183129787Y-119200373D01*
X157222284Y-119200373D01*
X157221294Y-119155535D01*
X157083814Y-118823628D01*
X156929778Y-118750024D01*
X156299803Y-119380000D01*
X156120197Y-119380000D01*
X155490222Y-118750024D01*
X155336186Y-118823628D01*
X155189787Y-119200373D01*
X154368500Y-119200373D01*
X154368500Y-118660222D01*
X155580024Y-118660222D01*
X156210000Y-119290197D01*
X156839976Y-118660222D01*
X183520024Y-118660222D01*
X184150000Y-119290197D01*
X184779976Y-118660222D01*
X184706372Y-118506186D01*
X184329627Y-118359787D01*
X183925535Y-118368706D01*
X183593628Y-118506186D01*
X183520024Y-118660222D01*
X156839976Y-118660222D01*
X156766372Y-118506186D01*
X156389627Y-118359787D01*
X155985535Y-118368706D01*
X155653628Y-118506186D01*
X155580024Y-118660222D01*
X154368500Y-118660222D01*
X154368500Y-118213119D01*
X159499210Y-118213119D01*
X159578315Y-118404567D01*
X159724662Y-118551170D01*
X159915972Y-118630609D01*
X160123119Y-118630790D01*
X160314567Y-118551685D01*
X160461170Y-118405338D01*
X160540609Y-118214028D01*
X160540609Y-118213119D01*
X160769210Y-118213119D01*
X160848315Y-118404567D01*
X160994662Y-118551170D01*
X161185972Y-118630609D01*
X161393119Y-118630790D01*
X161584567Y-118551685D01*
X161731170Y-118405338D01*
X161810609Y-118214028D01*
X161810609Y-118213119D01*
X162039210Y-118213119D01*
X162118315Y-118404567D01*
X162264662Y-118551170D01*
X162455972Y-118630609D01*
X162663119Y-118630790D01*
X162854567Y-118551685D01*
X163001170Y-118405338D01*
X163080609Y-118214028D01*
X163080609Y-118213119D01*
X163309210Y-118213119D01*
X163388315Y-118404567D01*
X163534662Y-118551170D01*
X163725972Y-118630609D01*
X163933119Y-118630790D01*
X164124567Y-118551685D01*
X164271170Y-118405338D01*
X164350609Y-118214028D01*
X164350609Y-118213119D01*
X164579210Y-118213119D01*
X164658315Y-118404567D01*
X164804662Y-118551170D01*
X164995972Y-118630609D01*
X165203119Y-118630790D01*
X165394567Y-118551685D01*
X165417411Y-118528880D01*
X165439662Y-118551170D01*
X165630972Y-118630609D01*
X165838119Y-118630790D01*
X166029567Y-118551685D01*
X166052411Y-118528880D01*
X166074662Y-118551170D01*
X166265972Y-118630609D01*
X166473119Y-118630790D01*
X166664567Y-118551685D01*
X166811170Y-118405338D01*
X166890609Y-118214028D01*
X166890609Y-118213119D01*
X168389210Y-118213119D01*
X168468315Y-118404567D01*
X168614662Y-118551170D01*
X168805972Y-118630609D01*
X169013119Y-118630790D01*
X169204567Y-118551685D01*
X169351170Y-118405338D01*
X169430609Y-118214028D01*
X169430790Y-118006881D01*
X169351685Y-117815433D01*
X169205338Y-117668830D01*
X169014028Y-117589391D01*
X168806881Y-117589210D01*
X168615433Y-117668315D01*
X168468830Y-117814662D01*
X168389391Y-118005972D01*
X168389210Y-118213119D01*
X166890609Y-118213119D01*
X166890790Y-118006881D01*
X166811685Y-117815433D01*
X166665338Y-117668830D01*
X166474028Y-117589391D01*
X166266881Y-117589210D01*
X166075433Y-117668315D01*
X166052589Y-117691120D01*
X166030338Y-117668830D01*
X165839028Y-117589391D01*
X165631881Y-117589210D01*
X165440433Y-117668315D01*
X165417589Y-117691120D01*
X165395338Y-117668830D01*
X165204028Y-117589391D01*
X164996881Y-117589210D01*
X164805433Y-117668315D01*
X164658830Y-117814662D01*
X164579391Y-118005972D01*
X164579210Y-118213119D01*
X164350609Y-118213119D01*
X164350790Y-118006881D01*
X164271685Y-117815433D01*
X164125338Y-117668830D01*
X163934028Y-117589391D01*
X163726881Y-117589210D01*
X163535433Y-117668315D01*
X163388830Y-117814662D01*
X163309391Y-118005972D01*
X163309210Y-118213119D01*
X163080609Y-118213119D01*
X163080790Y-118006881D01*
X163001685Y-117815433D01*
X162855338Y-117668830D01*
X162664028Y-117589391D01*
X162456881Y-117589210D01*
X162265433Y-117668315D01*
X162118830Y-117814662D01*
X162039391Y-118005972D01*
X162039210Y-118213119D01*
X161810609Y-118213119D01*
X161810790Y-118006881D01*
X161731685Y-117815433D01*
X161585338Y-117668830D01*
X161394028Y-117589391D01*
X161186881Y-117589210D01*
X160995433Y-117668315D01*
X160848830Y-117814662D01*
X160769391Y-118005972D01*
X160769210Y-118213119D01*
X160540609Y-118213119D01*
X160540790Y-118006881D01*
X160461685Y-117815433D01*
X160315338Y-117668830D01*
X160124028Y-117589391D01*
X159916881Y-117589210D01*
X159725433Y-117668315D01*
X159578830Y-117814662D01*
X159499391Y-118005972D01*
X159499210Y-118213119D01*
X154368500Y-118213119D01*
X154368500Y-117041208D01*
X155193824Y-117041208D01*
X155348175Y-117414766D01*
X155633731Y-117700821D01*
X156007018Y-117855824D01*
X156411208Y-117856176D01*
X156784766Y-117701825D01*
X156908688Y-117578119D01*
X176009210Y-117578119D01*
X176088315Y-117769567D01*
X176234662Y-117916170D01*
X176425972Y-117995609D01*
X176633119Y-117995790D01*
X176824567Y-117916685D01*
X176971170Y-117770338D01*
X177050609Y-117579028D01*
X177050609Y-117578119D01*
X182359210Y-117578119D01*
X182438315Y-117769567D01*
X182584662Y-117916170D01*
X182775972Y-117995609D01*
X182983119Y-117995790D01*
X183174567Y-117916685D01*
X183321170Y-117770338D01*
X183400609Y-117579028D01*
X183400654Y-117527442D01*
X183573731Y-117700821D01*
X183947018Y-117855824D01*
X184351208Y-117856176D01*
X184724766Y-117701825D01*
X185010821Y-117416269D01*
X185165824Y-117042982D01*
X185166176Y-116638792D01*
X185011825Y-116265234D01*
X184726269Y-115979179D01*
X184352982Y-115824176D01*
X183948792Y-115823824D01*
X183575234Y-115978175D01*
X183289179Y-116263731D01*
X183134176Y-116637018D01*
X183133845Y-117016601D01*
X182984028Y-116954391D01*
X182776881Y-116954210D01*
X182585433Y-117033315D01*
X182438830Y-117179662D01*
X182359391Y-117370972D01*
X182359210Y-117578119D01*
X177050609Y-117578119D01*
X177050790Y-117371881D01*
X176971685Y-117180433D01*
X176825338Y-117033830D01*
X176634028Y-116954391D01*
X176426881Y-116954210D01*
X176235433Y-117033315D01*
X176088830Y-117179662D01*
X176009391Y-117370972D01*
X176009210Y-117578119D01*
X156908688Y-117578119D01*
X157070821Y-117416269D01*
X157225824Y-117042982D01*
X157225910Y-116943119D01*
X177279210Y-116943119D01*
X177358315Y-117134567D01*
X177504662Y-117281170D01*
X177695972Y-117360609D01*
X177903119Y-117360790D01*
X178094567Y-117281685D01*
X178241170Y-117135338D01*
X178320609Y-116944028D01*
X178320790Y-116736881D01*
X178241685Y-116545433D01*
X178095338Y-116398830D01*
X177904028Y-116319391D01*
X177696881Y-116319210D01*
X177505433Y-116398315D01*
X177358830Y-116544662D01*
X177279391Y-116735972D01*
X177279210Y-116943119D01*
X157225910Y-116943119D01*
X157226176Y-116638792D01*
X157089545Y-116308119D01*
X178549210Y-116308119D01*
X178628315Y-116499567D01*
X178774662Y-116646170D01*
X178965972Y-116725609D01*
X179173119Y-116725790D01*
X179364567Y-116646685D01*
X179511170Y-116500338D01*
X179590609Y-116309028D01*
X179590790Y-116101881D01*
X179511685Y-115910433D01*
X179365338Y-115763830D01*
X179174028Y-115684391D01*
X178966881Y-115684210D01*
X178775433Y-115763315D01*
X178628830Y-115909662D01*
X178549391Y-116100972D01*
X178549210Y-116308119D01*
X157089545Y-116308119D01*
X157071825Y-116265234D01*
X156786269Y-115979179D01*
X156412982Y-115824176D01*
X156008792Y-115823824D01*
X155635234Y-115978175D01*
X155349179Y-116263731D01*
X155194176Y-116637018D01*
X155193824Y-117041208D01*
X154368500Y-117041208D01*
X154368500Y-115673119D01*
X179819210Y-115673119D01*
X179898315Y-115864567D01*
X180044662Y-116011170D01*
X180235972Y-116090609D01*
X180443119Y-116090790D01*
X180634567Y-116011685D01*
X180781170Y-115865338D01*
X180860609Y-115674028D01*
X180860790Y-115466881D01*
X180781685Y-115275433D01*
X180635338Y-115128830D01*
X180444028Y-115049391D01*
X180236881Y-115049210D01*
X180045433Y-115128315D01*
X179898830Y-115274662D01*
X179819391Y-115465972D01*
X179819210Y-115673119D01*
X154368500Y-115673119D01*
X154368500Y-114501208D01*
X155193824Y-114501208D01*
X155348175Y-114874766D01*
X155633731Y-115160821D01*
X156007018Y-115315824D01*
X156411208Y-115316176D01*
X156784766Y-115161825D01*
X156886012Y-115060755D01*
X169544890Y-115060755D01*
X169641360Y-115294228D01*
X169819832Y-115473013D01*
X170053137Y-115569889D01*
X170305755Y-115570110D01*
X170539228Y-115473640D01*
X170718013Y-115295168D01*
X170814889Y-115061863D01*
X170815110Y-114809245D01*
X170718640Y-114575772D01*
X170644207Y-114501208D01*
X183133824Y-114501208D01*
X183288175Y-114874766D01*
X183573731Y-115160821D01*
X183947018Y-115315824D01*
X184351208Y-115316176D01*
X184724766Y-115161825D01*
X185010821Y-114876269D01*
X185165824Y-114502982D01*
X185166176Y-114098792D01*
X185011825Y-113725234D01*
X184726269Y-113439179D01*
X184352982Y-113284176D01*
X183948792Y-113283824D01*
X183575234Y-113438175D01*
X183289179Y-113723731D01*
X183134176Y-114097018D01*
X183133824Y-114501208D01*
X170644207Y-114501208D01*
X170540168Y-114396987D01*
X170306863Y-114300111D01*
X170054245Y-114299890D01*
X169820772Y-114396360D01*
X169641987Y-114574832D01*
X169545111Y-114808137D01*
X169544890Y-115060755D01*
X156886012Y-115060755D01*
X157070821Y-114876269D01*
X157225824Y-114502982D01*
X157225910Y-114403119D01*
X162674210Y-114403119D01*
X162753315Y-114594567D01*
X162899662Y-114741170D01*
X163090972Y-114820609D01*
X163298119Y-114820790D01*
X163489567Y-114741685D01*
X163636170Y-114595338D01*
X163715609Y-114404028D01*
X163715790Y-114196881D01*
X163636685Y-114005433D01*
X163490338Y-113858830D01*
X163299028Y-113779391D01*
X163091881Y-113779210D01*
X162900433Y-113858315D01*
X162753830Y-114004662D01*
X162674391Y-114195972D01*
X162674210Y-114403119D01*
X157225910Y-114403119D01*
X157226176Y-114098792D01*
X157071825Y-113725234D01*
X156786269Y-113439179D01*
X156412982Y-113284176D01*
X156008792Y-113283824D01*
X155635234Y-113438175D01*
X155349179Y-113723731D01*
X155194176Y-114097018D01*
X155193824Y-114501208D01*
X154368500Y-114501208D01*
X154368500Y-111948633D01*
X155257335Y-111948633D01*
X155402039Y-112298843D01*
X155669747Y-112567020D01*
X156019705Y-112712335D01*
X156398633Y-112712665D01*
X156748843Y-112567961D01*
X157017020Y-112300253D01*
X157162335Y-111950295D01*
X157162336Y-111948633D01*
X183197335Y-111948633D01*
X183342039Y-112298843D01*
X183609747Y-112567020D01*
X183959705Y-112712335D01*
X184338633Y-112712665D01*
X184688843Y-112567961D01*
X184957020Y-112300253D01*
X185102335Y-111950295D01*
X185102665Y-111571367D01*
X184957961Y-111221157D01*
X184690253Y-110952980D01*
X184340295Y-110807665D01*
X183961367Y-110807335D01*
X183611157Y-110952039D01*
X183342980Y-111219747D01*
X183197665Y-111569705D01*
X183197335Y-111948633D01*
X157162336Y-111948633D01*
X157162665Y-111571367D01*
X157017961Y-111221157D01*
X156750253Y-110952980D01*
X156400295Y-110807665D01*
X156021367Y-110807335D01*
X155671157Y-110952039D01*
X155402980Y-111219747D01*
X155257665Y-111569705D01*
X155257335Y-111948633D01*
X154368500Y-111948633D01*
X154368500Y-109421208D01*
X155193824Y-109421208D01*
X155348175Y-109794766D01*
X155633731Y-110080821D01*
X156007018Y-110235824D01*
X156411208Y-110236176D01*
X156784766Y-110081825D01*
X157070821Y-109796269D01*
X157225824Y-109422982D01*
X157225910Y-109323119D01*
X161404210Y-109323119D01*
X161483315Y-109514567D01*
X161629662Y-109661170D01*
X161820972Y-109740609D01*
X162028119Y-109740790D01*
X162219567Y-109661685D01*
X162366170Y-109515338D01*
X162445609Y-109324028D01*
X162445609Y-109323119D01*
X176644210Y-109323119D01*
X176723315Y-109514567D01*
X176869662Y-109661170D01*
X177060972Y-109740609D01*
X177268119Y-109740790D01*
X177459567Y-109661685D01*
X177606170Y-109515338D01*
X177645256Y-109421208D01*
X183133824Y-109421208D01*
X183288175Y-109794766D01*
X183573731Y-110080821D01*
X183947018Y-110235824D01*
X184351208Y-110236176D01*
X184724766Y-110081825D01*
X185010821Y-109796269D01*
X185165824Y-109422982D01*
X185166176Y-109018792D01*
X185011825Y-108645234D01*
X184726269Y-108359179D01*
X184352982Y-108204176D01*
X183948792Y-108203824D01*
X183575234Y-108358175D01*
X183289179Y-108643731D01*
X183134176Y-109017018D01*
X183133824Y-109421208D01*
X177645256Y-109421208D01*
X177685609Y-109324028D01*
X177685790Y-109116881D01*
X177606685Y-108925433D01*
X177460338Y-108778830D01*
X177269028Y-108699391D01*
X177061881Y-108699210D01*
X176870433Y-108778315D01*
X176723830Y-108924662D01*
X176644391Y-109115972D01*
X176644210Y-109323119D01*
X162445609Y-109323119D01*
X162445790Y-109116881D01*
X162366685Y-108925433D01*
X162220338Y-108778830D01*
X162029028Y-108699391D01*
X161821881Y-108699210D01*
X161630433Y-108778315D01*
X161483830Y-108924662D01*
X161404391Y-109115972D01*
X161404210Y-109323119D01*
X157225910Y-109323119D01*
X157226176Y-109018792D01*
X157071825Y-108645234D01*
X156786269Y-108359179D01*
X156412982Y-108204176D01*
X156008792Y-108203824D01*
X155635234Y-108358175D01*
X155349179Y-108643731D01*
X155194176Y-109017018D01*
X155193824Y-109421208D01*
X154368500Y-109421208D01*
X154368500Y-108075755D01*
X158114890Y-108075755D01*
X158211360Y-108309228D01*
X158389832Y-108488013D01*
X158623137Y-108584889D01*
X158875755Y-108585110D01*
X159109228Y-108488640D01*
X159288013Y-108310168D01*
X159384889Y-108076863D01*
X159384889Y-108075755D01*
X180974890Y-108075755D01*
X181071360Y-108309228D01*
X181249832Y-108488013D01*
X181483137Y-108584889D01*
X181735755Y-108585110D01*
X181969228Y-108488640D01*
X182148013Y-108310168D01*
X182244889Y-108076863D01*
X182245110Y-107824245D01*
X182148640Y-107590772D01*
X181970168Y-107411987D01*
X181736863Y-107315111D01*
X181484245Y-107314890D01*
X181250772Y-107411360D01*
X181071987Y-107589832D01*
X180975111Y-107823137D01*
X180974890Y-108075755D01*
X159384889Y-108075755D01*
X159385110Y-107824245D01*
X159288640Y-107590772D01*
X159110168Y-107411987D01*
X158876863Y-107315111D01*
X158624245Y-107314890D01*
X158390772Y-107411360D01*
X158211987Y-107589832D01*
X158115111Y-107823137D01*
X158114890Y-108075755D01*
X154368500Y-108075755D01*
X154368500Y-106881208D01*
X155193824Y-106881208D01*
X155348175Y-107254766D01*
X155633731Y-107540821D01*
X156007018Y-107695824D01*
X156411208Y-107696176D01*
X156784766Y-107541825D01*
X157070821Y-107256269D01*
X157225824Y-106882982D01*
X157225825Y-106881208D01*
X183133824Y-106881208D01*
X183288175Y-107254766D01*
X183573731Y-107540821D01*
X183947018Y-107695824D01*
X184351208Y-107696176D01*
X184724766Y-107541825D01*
X185010821Y-107256269D01*
X185165824Y-106882982D01*
X185166176Y-106478792D01*
X185011825Y-106105234D01*
X184726269Y-105819179D01*
X184352982Y-105664176D01*
X183948792Y-105663824D01*
X183575234Y-105818175D01*
X183289179Y-106103731D01*
X183134176Y-106477018D01*
X183133824Y-106881208D01*
X157225825Y-106881208D01*
X157226176Y-106478792D01*
X157071825Y-106105234D01*
X156786269Y-105819179D01*
X156412982Y-105664176D01*
X156008792Y-105663824D01*
X155635234Y-105818175D01*
X155349179Y-106103731D01*
X155194176Y-106477018D01*
X155193824Y-106881208D01*
X154368500Y-106881208D01*
X154368500Y-104341208D01*
X155193824Y-104341208D01*
X155348175Y-104714766D01*
X155633731Y-105000821D01*
X156007018Y-105155824D01*
X156411208Y-105156176D01*
X156784766Y-105001825D01*
X157070821Y-104716269D01*
X157225824Y-104342982D01*
X157225910Y-104243119D01*
X160134210Y-104243119D01*
X160213315Y-104434567D01*
X160359662Y-104581170D01*
X160550972Y-104660609D01*
X160758119Y-104660790D01*
X160949567Y-104581685D01*
X161096170Y-104435338D01*
X161175609Y-104244028D01*
X161175609Y-104243119D01*
X177914210Y-104243119D01*
X177993315Y-104434567D01*
X178139662Y-104581170D01*
X178330972Y-104660609D01*
X178538119Y-104660790D01*
X178729567Y-104581685D01*
X178876170Y-104435338D01*
X178915256Y-104341208D01*
X183133824Y-104341208D01*
X183288175Y-104714766D01*
X183573731Y-105000821D01*
X183947018Y-105155824D01*
X184351208Y-105156176D01*
X184724766Y-105001825D01*
X185010821Y-104716269D01*
X185165824Y-104342982D01*
X185166176Y-103938792D01*
X185011825Y-103565234D01*
X184726269Y-103279179D01*
X184352982Y-103124176D01*
X183948792Y-103123824D01*
X183575234Y-103278175D01*
X183289179Y-103563731D01*
X183134176Y-103937018D01*
X183133824Y-104341208D01*
X178915256Y-104341208D01*
X178955609Y-104244028D01*
X178955790Y-104036881D01*
X178876685Y-103845433D01*
X178730338Y-103698830D01*
X178539028Y-103619391D01*
X178331881Y-103619210D01*
X178140433Y-103698315D01*
X177993830Y-103844662D01*
X177914391Y-104035972D01*
X177914210Y-104243119D01*
X161175609Y-104243119D01*
X161175790Y-104036881D01*
X161096685Y-103845433D01*
X160950338Y-103698830D01*
X160759028Y-103619391D01*
X160551881Y-103619210D01*
X160360433Y-103698315D01*
X160213830Y-103844662D01*
X160134391Y-104035972D01*
X160134210Y-104243119D01*
X157225910Y-104243119D01*
X157226176Y-103938792D01*
X157071825Y-103565234D01*
X156786269Y-103279179D01*
X156412982Y-103124176D01*
X156008792Y-103123824D01*
X155635234Y-103278175D01*
X155349179Y-103563731D01*
X155194176Y-103937018D01*
X155193824Y-104341208D01*
X154368500Y-104341208D01*
X154368500Y-102995755D01*
X158114890Y-102995755D01*
X158211360Y-103229228D01*
X158389832Y-103408013D01*
X158623137Y-103504889D01*
X158875755Y-103505110D01*
X159109228Y-103408640D01*
X159288013Y-103230168D01*
X159384889Y-102996863D01*
X159384889Y-102995755D01*
X180974890Y-102995755D01*
X181071360Y-103229228D01*
X181249832Y-103408013D01*
X181483137Y-103504889D01*
X181735755Y-103505110D01*
X181969228Y-103408640D01*
X182148013Y-103230168D01*
X182244889Y-102996863D01*
X182245110Y-102744245D01*
X182148640Y-102510772D01*
X181970168Y-102331987D01*
X181736863Y-102235111D01*
X181484245Y-102234890D01*
X181250772Y-102331360D01*
X181071987Y-102509832D01*
X180975111Y-102743137D01*
X180974890Y-102995755D01*
X159384889Y-102995755D01*
X159385110Y-102744245D01*
X159288640Y-102510772D01*
X159110168Y-102331987D01*
X158876863Y-102235111D01*
X158624245Y-102234890D01*
X158390772Y-102331360D01*
X158211987Y-102509832D01*
X158115111Y-102743137D01*
X158114890Y-102995755D01*
X154368500Y-102995755D01*
X154368500Y-101801208D01*
X155193824Y-101801208D01*
X155348175Y-102174766D01*
X155633731Y-102460821D01*
X156007018Y-102615824D01*
X156411208Y-102616176D01*
X156784766Y-102461825D01*
X157070821Y-102176269D01*
X157225824Y-101802982D01*
X157225825Y-101801208D01*
X183133824Y-101801208D01*
X183288175Y-102174766D01*
X183573731Y-102460821D01*
X183947018Y-102615824D01*
X184351208Y-102616176D01*
X184724766Y-102461825D01*
X185010821Y-102176269D01*
X185165824Y-101802982D01*
X185166176Y-101398792D01*
X185011825Y-101025234D01*
X184726269Y-100739179D01*
X184352982Y-100584176D01*
X183948792Y-100583824D01*
X183575234Y-100738175D01*
X183289179Y-101023731D01*
X183134176Y-101397018D01*
X183133824Y-101801208D01*
X157225825Y-101801208D01*
X157226176Y-101398792D01*
X157071825Y-101025234D01*
X156786269Y-100739179D01*
X156412982Y-100584176D01*
X156008792Y-100583824D01*
X155635234Y-100738175D01*
X155349179Y-101023731D01*
X155194176Y-101397018D01*
X155193824Y-101801208D01*
X154368500Y-101801208D01*
X154368500Y-99261208D01*
X155193824Y-99261208D01*
X155348175Y-99634766D01*
X155633731Y-99920821D01*
X156007018Y-100075824D01*
X156411208Y-100076176D01*
X156784766Y-99921825D01*
X157070821Y-99636269D01*
X157225824Y-99262982D01*
X157225910Y-99163119D01*
X158864210Y-99163119D01*
X158943315Y-99354567D01*
X159089662Y-99501170D01*
X159280972Y-99580609D01*
X159488119Y-99580790D01*
X159679567Y-99501685D01*
X159826170Y-99355338D01*
X159905609Y-99164028D01*
X159905609Y-99163119D01*
X179184210Y-99163119D01*
X179263315Y-99354567D01*
X179409662Y-99501170D01*
X179600972Y-99580609D01*
X179808119Y-99580790D01*
X179999567Y-99501685D01*
X180146170Y-99355338D01*
X180185256Y-99261208D01*
X183133824Y-99261208D01*
X183288175Y-99634766D01*
X183573731Y-99920821D01*
X183947018Y-100075824D01*
X184351208Y-100076176D01*
X184724766Y-99921825D01*
X185010821Y-99636269D01*
X185165824Y-99262982D01*
X185166176Y-98858792D01*
X185011825Y-98485234D01*
X184726269Y-98199179D01*
X184352982Y-98044176D01*
X183948792Y-98043824D01*
X183575234Y-98198175D01*
X183289179Y-98483731D01*
X183134176Y-98857018D01*
X183133824Y-99261208D01*
X180185256Y-99261208D01*
X180225609Y-99164028D01*
X180225790Y-98956881D01*
X180146685Y-98765433D01*
X180000338Y-98618830D01*
X179809028Y-98539391D01*
X179601881Y-98539210D01*
X179410433Y-98618315D01*
X179263830Y-98764662D01*
X179184391Y-98955972D01*
X179184210Y-99163119D01*
X159905609Y-99163119D01*
X159905790Y-98956881D01*
X159826685Y-98765433D01*
X159680338Y-98618830D01*
X159489028Y-98539391D01*
X159281881Y-98539210D01*
X159090433Y-98618315D01*
X158943830Y-98764662D01*
X158864391Y-98955972D01*
X158864210Y-99163119D01*
X157225910Y-99163119D01*
X157226176Y-98858792D01*
X157071825Y-98485234D01*
X156786269Y-98199179D01*
X156412982Y-98044176D01*
X156008792Y-98043824D01*
X155635234Y-98198175D01*
X155349179Y-98483731D01*
X155194176Y-98857018D01*
X155193824Y-99261208D01*
X154368500Y-99261208D01*
X154368500Y-97915755D01*
X158114890Y-97915755D01*
X158211360Y-98149228D01*
X158389832Y-98328013D01*
X158623137Y-98424889D01*
X158875755Y-98425110D01*
X159109228Y-98328640D01*
X159288013Y-98150168D01*
X159384889Y-97916863D01*
X159384889Y-97915755D01*
X180974890Y-97915755D01*
X181071360Y-98149228D01*
X181249832Y-98328013D01*
X181483137Y-98424889D01*
X181735755Y-98425110D01*
X181969228Y-98328640D01*
X182148013Y-98150168D01*
X182244889Y-97916863D01*
X182245110Y-97664245D01*
X182148640Y-97430772D01*
X181970168Y-97251987D01*
X181940766Y-97239778D01*
X183520024Y-97239778D01*
X183593628Y-97393814D01*
X183970373Y-97540213D01*
X184374465Y-97531294D01*
X184706372Y-97393814D01*
X184779976Y-97239778D01*
X184150000Y-96609803D01*
X183520024Y-97239778D01*
X181940766Y-97239778D01*
X181736863Y-97155111D01*
X181484245Y-97154890D01*
X181250772Y-97251360D01*
X181071987Y-97429832D01*
X180975111Y-97663137D01*
X180974890Y-97915755D01*
X159384889Y-97915755D01*
X159385110Y-97664245D01*
X159288640Y-97430772D01*
X159110168Y-97251987D01*
X158876863Y-97155111D01*
X158624245Y-97154890D01*
X158390772Y-97251360D01*
X158211987Y-97429832D01*
X158115111Y-97663137D01*
X158114890Y-97915755D01*
X154368500Y-97915755D01*
X154368500Y-97239778D01*
X155580024Y-97239778D01*
X155653628Y-97393814D01*
X156030373Y-97540213D01*
X156434465Y-97531294D01*
X156766372Y-97393814D01*
X156839976Y-97239778D01*
X156210000Y-96609803D01*
X155580024Y-97239778D01*
X154368500Y-97239778D01*
X154368500Y-96340373D01*
X155189787Y-96340373D01*
X155198706Y-96744465D01*
X155336186Y-97076372D01*
X155490222Y-97149976D01*
X156120197Y-96520000D01*
X156299803Y-96520000D01*
X156929778Y-97149976D01*
X157083814Y-97076372D01*
X157230213Y-96699627D01*
X157222284Y-96340373D01*
X183129787Y-96340373D01*
X183138706Y-96744465D01*
X183276186Y-97076372D01*
X183430222Y-97149976D01*
X184060197Y-96520000D01*
X184239803Y-96520000D01*
X184869778Y-97149976D01*
X185023814Y-97076372D01*
X185170213Y-96699627D01*
X185161294Y-96295535D01*
X185023814Y-95963628D01*
X184869778Y-95890024D01*
X184239803Y-96520000D01*
X184060197Y-96520000D01*
X183430222Y-95890024D01*
X183276186Y-95963628D01*
X183129787Y-96340373D01*
X157222284Y-96340373D01*
X157221294Y-96295535D01*
X157083814Y-95963628D01*
X156929778Y-95890024D01*
X156299803Y-96520000D01*
X156120197Y-96520000D01*
X155490222Y-95890024D01*
X155336186Y-95963628D01*
X155189787Y-96340373D01*
X154368500Y-96340373D01*
X154368500Y-95800222D01*
X155580024Y-95800222D01*
X156210000Y-96430197D01*
X156839976Y-95800222D01*
X183520024Y-95800222D01*
X184150000Y-96430197D01*
X184779976Y-95800222D01*
X184706372Y-95646186D01*
X184329627Y-95499787D01*
X183925535Y-95508706D01*
X183593628Y-95646186D01*
X183520024Y-95800222D01*
X156839976Y-95800222D01*
X156766372Y-95646186D01*
X156389627Y-95499787D01*
X155985535Y-95508706D01*
X155653628Y-95646186D01*
X155580024Y-95800222D01*
X154368500Y-95800222D01*
X154368500Y-94181208D01*
X155193824Y-94181208D01*
X155348175Y-94554766D01*
X155633731Y-94840821D01*
X156007018Y-94995824D01*
X156411208Y-94996176D01*
X156784766Y-94841825D01*
X157070821Y-94556269D01*
X157225824Y-94182982D01*
X157225910Y-94083119D01*
X159499210Y-94083119D01*
X159578315Y-94274567D01*
X159724662Y-94421170D01*
X159915972Y-94500609D01*
X160123119Y-94500790D01*
X160314567Y-94421685D01*
X160461170Y-94275338D01*
X160540609Y-94084028D01*
X160540609Y-94083119D01*
X180454210Y-94083119D01*
X180533315Y-94274567D01*
X180679662Y-94421170D01*
X180870972Y-94500609D01*
X181078119Y-94500790D01*
X181269567Y-94421685D01*
X181416170Y-94275338D01*
X181455256Y-94181208D01*
X183133824Y-94181208D01*
X183288175Y-94554766D01*
X183573731Y-94840821D01*
X183947018Y-94995824D01*
X184351208Y-94996176D01*
X184724766Y-94841825D01*
X185010821Y-94556269D01*
X185165824Y-94182982D01*
X185166176Y-93778792D01*
X185011825Y-93405234D01*
X184726269Y-93119179D01*
X184352982Y-92964176D01*
X183948792Y-92963824D01*
X183575234Y-93118175D01*
X183289179Y-93403731D01*
X183134176Y-93777018D01*
X183133824Y-94181208D01*
X181455256Y-94181208D01*
X181495609Y-94084028D01*
X181495790Y-93876881D01*
X181416685Y-93685433D01*
X181270338Y-93538830D01*
X181079028Y-93459391D01*
X180871881Y-93459210D01*
X180680433Y-93538315D01*
X180533830Y-93684662D01*
X180454391Y-93875972D01*
X180454210Y-94083119D01*
X160540609Y-94083119D01*
X160540790Y-93876881D01*
X160461685Y-93685433D01*
X160315338Y-93538830D01*
X160124028Y-93459391D01*
X159916881Y-93459210D01*
X159725433Y-93538315D01*
X159578830Y-93684662D01*
X159499391Y-93875972D01*
X159499210Y-94083119D01*
X157225910Y-94083119D01*
X157226176Y-93778792D01*
X157071825Y-93405234D01*
X156786269Y-93119179D01*
X156412982Y-92964176D01*
X156008792Y-92963824D01*
X155635234Y-93118175D01*
X155349179Y-93403731D01*
X155194176Y-93777018D01*
X155193824Y-94181208D01*
X154368500Y-94181208D01*
X154368500Y-92835755D01*
X158114890Y-92835755D01*
X158211360Y-93069228D01*
X158389832Y-93248013D01*
X158623137Y-93344889D01*
X158875755Y-93345110D01*
X159109228Y-93248640D01*
X159288013Y-93070168D01*
X159384889Y-92836863D01*
X159384889Y-92835755D01*
X180974890Y-92835755D01*
X181071360Y-93069228D01*
X181249832Y-93248013D01*
X181483137Y-93344889D01*
X181735755Y-93345110D01*
X181969228Y-93248640D01*
X182148013Y-93070168D01*
X182244889Y-92836863D01*
X182245110Y-92584245D01*
X182148640Y-92350772D01*
X181970168Y-92171987D01*
X181736863Y-92075111D01*
X181484245Y-92074890D01*
X181250772Y-92171360D01*
X181071987Y-92349832D01*
X180975111Y-92583137D01*
X180974890Y-92835755D01*
X159384889Y-92835755D01*
X159385110Y-92584245D01*
X159288640Y-92350772D01*
X159110168Y-92171987D01*
X158876863Y-92075111D01*
X158624245Y-92074890D01*
X158390772Y-92171360D01*
X158211987Y-92349832D01*
X158115111Y-92583137D01*
X158114890Y-92835755D01*
X154368500Y-92835755D01*
X154368500Y-91641208D01*
X155193824Y-91641208D01*
X155348175Y-92014766D01*
X155633731Y-92300821D01*
X156007018Y-92455824D01*
X156411208Y-92456176D01*
X156784766Y-92301825D01*
X157070821Y-92016269D01*
X157225824Y-91642982D01*
X157225825Y-91641208D01*
X183133824Y-91641208D01*
X183288175Y-92014766D01*
X183573731Y-92300821D01*
X183947018Y-92455824D01*
X184351208Y-92456176D01*
X184724766Y-92301825D01*
X185010821Y-92016269D01*
X185165824Y-91642982D01*
X185166176Y-91238792D01*
X185011825Y-90865234D01*
X184726269Y-90579179D01*
X184352982Y-90424176D01*
X183948792Y-90423824D01*
X183575234Y-90578175D01*
X183289179Y-90863731D01*
X183134176Y-91237018D01*
X183133824Y-91641208D01*
X157225825Y-91641208D01*
X157226176Y-91238792D01*
X157071825Y-90865234D01*
X156786269Y-90579179D01*
X156412982Y-90424176D01*
X156008792Y-90423824D01*
X155635234Y-90578175D01*
X155349179Y-90863731D01*
X155194176Y-91237018D01*
X155193824Y-91641208D01*
X154368500Y-91641208D01*
X154368500Y-89101208D01*
X155193824Y-89101208D01*
X155348175Y-89474766D01*
X155633731Y-89760821D01*
X156007018Y-89915824D01*
X156411208Y-89916176D01*
X156784766Y-89761825D01*
X157070821Y-89476269D01*
X157225824Y-89102982D01*
X157225910Y-89003119D01*
X160769210Y-89003119D01*
X160848315Y-89194567D01*
X160994662Y-89341170D01*
X161185972Y-89420609D01*
X161393119Y-89420790D01*
X161584567Y-89341685D01*
X161731170Y-89195338D01*
X161810609Y-89004028D01*
X161810609Y-89003119D01*
X179819210Y-89003119D01*
X179898315Y-89194567D01*
X180044662Y-89341170D01*
X180235972Y-89420609D01*
X180443119Y-89420790D01*
X180634567Y-89341685D01*
X180781170Y-89195338D01*
X180820256Y-89101208D01*
X183133824Y-89101208D01*
X183288175Y-89474766D01*
X183573731Y-89760821D01*
X183947018Y-89915824D01*
X184351208Y-89916176D01*
X184724766Y-89761825D01*
X185010821Y-89476269D01*
X185165824Y-89102982D01*
X185166176Y-88698792D01*
X185011825Y-88325234D01*
X184726269Y-88039179D01*
X184352982Y-87884176D01*
X183948792Y-87883824D01*
X183575234Y-88038175D01*
X183289179Y-88323731D01*
X183134176Y-88697018D01*
X183133824Y-89101208D01*
X180820256Y-89101208D01*
X180860609Y-89004028D01*
X180860790Y-88796881D01*
X180781685Y-88605433D01*
X180635338Y-88458830D01*
X180444028Y-88379391D01*
X180236881Y-88379210D01*
X180045433Y-88458315D01*
X179898830Y-88604662D01*
X179819391Y-88795972D01*
X179819210Y-89003119D01*
X161810609Y-89003119D01*
X161810790Y-88796881D01*
X161731685Y-88605433D01*
X161585338Y-88458830D01*
X161394028Y-88379391D01*
X161186881Y-88379210D01*
X160995433Y-88458315D01*
X160848830Y-88604662D01*
X160769391Y-88795972D01*
X160769210Y-89003119D01*
X157225910Y-89003119D01*
X157226176Y-88698792D01*
X157071825Y-88325234D01*
X156786269Y-88039179D01*
X156412982Y-87884176D01*
X156008792Y-87883824D01*
X155635234Y-88038175D01*
X155349179Y-88323731D01*
X155194176Y-88697018D01*
X155193824Y-89101208D01*
X154368500Y-89101208D01*
X154368500Y-87755755D01*
X158114890Y-87755755D01*
X158211360Y-87989228D01*
X158389832Y-88168013D01*
X158623137Y-88264889D01*
X158875755Y-88265110D01*
X159109228Y-88168640D01*
X159288013Y-87990168D01*
X159384889Y-87756863D01*
X159384889Y-87755755D01*
X180974890Y-87755755D01*
X181071360Y-87989228D01*
X181249832Y-88168013D01*
X181483137Y-88264889D01*
X181735755Y-88265110D01*
X181969228Y-88168640D01*
X182148013Y-87990168D01*
X182244889Y-87756863D01*
X182245110Y-87504245D01*
X182148640Y-87270772D01*
X181970168Y-87091987D01*
X181736863Y-86995111D01*
X181484245Y-86994890D01*
X181250772Y-87091360D01*
X181071987Y-87269832D01*
X180975111Y-87503137D01*
X180974890Y-87755755D01*
X159384889Y-87755755D01*
X159385110Y-87504245D01*
X159288640Y-87270772D01*
X159110168Y-87091987D01*
X158876863Y-86995111D01*
X158624245Y-86994890D01*
X158390772Y-87091360D01*
X158211987Y-87269832D01*
X158115111Y-87503137D01*
X158114890Y-87755755D01*
X154368500Y-87755755D01*
X154368500Y-86561208D01*
X155193824Y-86561208D01*
X155348175Y-86934766D01*
X155633731Y-87220821D01*
X156007018Y-87375824D01*
X156411208Y-87376176D01*
X156784766Y-87221825D01*
X157070821Y-86936269D01*
X157225824Y-86562982D01*
X157225825Y-86561208D01*
X183133824Y-86561208D01*
X183288175Y-86934766D01*
X183573731Y-87220821D01*
X183947018Y-87375824D01*
X184351208Y-87376176D01*
X184724766Y-87221825D01*
X185010821Y-86936269D01*
X185165824Y-86562982D01*
X185166176Y-86158792D01*
X185011825Y-85785234D01*
X184726269Y-85499179D01*
X184352982Y-85344176D01*
X183948792Y-85343824D01*
X183575234Y-85498175D01*
X183289179Y-85783731D01*
X183134176Y-86157018D01*
X183133824Y-86561208D01*
X157225825Y-86561208D01*
X157226176Y-86158792D01*
X157071825Y-85785234D01*
X156786269Y-85499179D01*
X156412982Y-85344176D01*
X156008792Y-85343824D01*
X155635234Y-85498175D01*
X155349179Y-85783731D01*
X155194176Y-86157018D01*
X155193824Y-86561208D01*
X154368500Y-86561208D01*
X154368500Y-84021208D01*
X155193824Y-84021208D01*
X155348175Y-84394766D01*
X155633731Y-84680821D01*
X156007018Y-84835824D01*
X156411208Y-84836176D01*
X156784766Y-84681825D01*
X157070821Y-84396269D01*
X157225824Y-84022982D01*
X157225910Y-83923119D01*
X162039210Y-83923119D01*
X162118315Y-84114567D01*
X162264662Y-84261170D01*
X162455972Y-84340609D01*
X162663119Y-84340790D01*
X162854567Y-84261685D01*
X163001170Y-84115338D01*
X163080609Y-83924028D01*
X163080609Y-83923119D01*
X178549210Y-83923119D01*
X178628315Y-84114567D01*
X178774662Y-84261170D01*
X178965972Y-84340609D01*
X179173119Y-84340790D01*
X179364567Y-84261685D01*
X179511170Y-84115338D01*
X179550256Y-84021208D01*
X183133824Y-84021208D01*
X183288175Y-84394766D01*
X183573731Y-84680821D01*
X183947018Y-84835824D01*
X184351208Y-84836176D01*
X184724766Y-84681825D01*
X185010821Y-84396269D01*
X185165824Y-84022982D01*
X185166176Y-83618792D01*
X185011825Y-83245234D01*
X184726269Y-82959179D01*
X184352982Y-82804176D01*
X183948792Y-82803824D01*
X183575234Y-82958175D01*
X183289179Y-83243731D01*
X183134176Y-83617018D01*
X183133824Y-84021208D01*
X179550256Y-84021208D01*
X179590609Y-83924028D01*
X179590790Y-83716881D01*
X179511685Y-83525433D01*
X179365338Y-83378830D01*
X179174028Y-83299391D01*
X178966881Y-83299210D01*
X178775433Y-83378315D01*
X178628830Y-83524662D01*
X178549391Y-83715972D01*
X178549210Y-83923119D01*
X163080609Y-83923119D01*
X163080790Y-83716881D01*
X163001685Y-83525433D01*
X162855338Y-83378830D01*
X162664028Y-83299391D01*
X162456881Y-83299210D01*
X162265433Y-83378315D01*
X162118830Y-83524662D01*
X162039391Y-83715972D01*
X162039210Y-83923119D01*
X157225910Y-83923119D01*
X157226176Y-83618792D01*
X157071825Y-83245234D01*
X156786269Y-82959179D01*
X156412982Y-82804176D01*
X156008792Y-82803824D01*
X155635234Y-82958175D01*
X155349179Y-83243731D01*
X155194176Y-83617018D01*
X155193824Y-84021208D01*
X154368500Y-84021208D01*
X154368500Y-82675755D01*
X158114890Y-82675755D01*
X158211360Y-82909228D01*
X158389832Y-83088013D01*
X158623137Y-83184889D01*
X158875755Y-83185110D01*
X159109228Y-83088640D01*
X159288013Y-82910168D01*
X159384889Y-82676863D01*
X159384889Y-82675755D01*
X180974890Y-82675755D01*
X181071360Y-82909228D01*
X181249832Y-83088013D01*
X181483137Y-83184889D01*
X181735755Y-83185110D01*
X181969228Y-83088640D01*
X182148013Y-82910168D01*
X182244889Y-82676863D01*
X182245110Y-82424245D01*
X182148640Y-82190772D01*
X181970168Y-82011987D01*
X181736863Y-81915111D01*
X181484245Y-81914890D01*
X181250772Y-82011360D01*
X181071987Y-82189832D01*
X180975111Y-82423137D01*
X180974890Y-82675755D01*
X159384889Y-82675755D01*
X159385110Y-82424245D01*
X159288640Y-82190772D01*
X159110168Y-82011987D01*
X158876863Y-81915111D01*
X158624245Y-81914890D01*
X158390772Y-82011360D01*
X158211987Y-82189832D01*
X158115111Y-82423137D01*
X158114890Y-82675755D01*
X154368500Y-82675755D01*
X154368500Y-81481208D01*
X155193824Y-81481208D01*
X155348175Y-81854766D01*
X155633731Y-82140821D01*
X156007018Y-82295824D01*
X156411208Y-82296176D01*
X156784766Y-82141825D01*
X157070821Y-81856269D01*
X157225824Y-81482982D01*
X157225825Y-81481208D01*
X183133824Y-81481208D01*
X183288175Y-81854766D01*
X183573731Y-82140821D01*
X183947018Y-82295824D01*
X184351208Y-82296176D01*
X184724766Y-82141825D01*
X185010821Y-81856269D01*
X185165824Y-81482982D01*
X185166176Y-81078792D01*
X185011825Y-80705234D01*
X184726269Y-80419179D01*
X184352982Y-80264176D01*
X183948792Y-80263824D01*
X183575234Y-80418175D01*
X183289179Y-80703731D01*
X183134176Y-81077018D01*
X183133824Y-81481208D01*
X157225825Y-81481208D01*
X157226176Y-81078792D01*
X157071825Y-80705234D01*
X156786269Y-80419179D01*
X156412982Y-80264176D01*
X156008792Y-80263824D01*
X155635234Y-80418175D01*
X155349179Y-80703731D01*
X155194176Y-81077018D01*
X155193824Y-81481208D01*
X154368500Y-81481208D01*
X154368500Y-78941208D01*
X155193824Y-78941208D01*
X155348175Y-79314766D01*
X155633731Y-79600821D01*
X156007018Y-79755824D01*
X156411208Y-79756176D01*
X156784766Y-79601825D01*
X157070821Y-79316269D01*
X157225824Y-78942982D01*
X157225910Y-78843119D01*
X163309210Y-78843119D01*
X163388315Y-79034567D01*
X163534662Y-79181170D01*
X163725972Y-79260609D01*
X163933119Y-79260790D01*
X164124567Y-79181685D01*
X164271170Y-79035338D01*
X164350609Y-78844028D01*
X164350609Y-78843119D01*
X177279210Y-78843119D01*
X177358315Y-79034567D01*
X177504662Y-79181170D01*
X177695972Y-79260609D01*
X177903119Y-79260790D01*
X178094567Y-79181685D01*
X178241170Y-79035338D01*
X178280256Y-78941208D01*
X183133824Y-78941208D01*
X183288175Y-79314766D01*
X183573731Y-79600821D01*
X183947018Y-79755824D01*
X184351208Y-79756176D01*
X184724766Y-79601825D01*
X185010821Y-79316269D01*
X185165824Y-78942982D01*
X185166176Y-78538792D01*
X185011825Y-78165234D01*
X184726269Y-77879179D01*
X184352982Y-77724176D01*
X183948792Y-77723824D01*
X183575234Y-77878175D01*
X183289179Y-78163731D01*
X183134176Y-78537018D01*
X183133824Y-78941208D01*
X178280256Y-78941208D01*
X178320609Y-78844028D01*
X178320790Y-78636881D01*
X178241685Y-78445433D01*
X178095338Y-78298830D01*
X177904028Y-78219391D01*
X177696881Y-78219210D01*
X177505433Y-78298315D01*
X177358830Y-78444662D01*
X177279391Y-78635972D01*
X177279210Y-78843119D01*
X164350609Y-78843119D01*
X164350790Y-78636881D01*
X164271685Y-78445433D01*
X164125338Y-78298830D01*
X163934028Y-78219391D01*
X163726881Y-78219210D01*
X163535433Y-78298315D01*
X163388830Y-78444662D01*
X163309391Y-78635972D01*
X163309210Y-78843119D01*
X157225910Y-78843119D01*
X157226176Y-78538792D01*
X157071825Y-78165234D01*
X156786269Y-77879179D01*
X156412982Y-77724176D01*
X156008792Y-77723824D01*
X155635234Y-77878175D01*
X155349179Y-78163731D01*
X155194176Y-78537018D01*
X155193824Y-78941208D01*
X154368500Y-78941208D01*
X154368500Y-77595755D01*
X158114890Y-77595755D01*
X158211360Y-77829228D01*
X158389832Y-78008013D01*
X158623137Y-78104889D01*
X158875755Y-78105110D01*
X159109228Y-78008640D01*
X159288013Y-77830168D01*
X159384889Y-77596863D01*
X159384889Y-77595755D01*
X180974890Y-77595755D01*
X181071360Y-77829228D01*
X181249832Y-78008013D01*
X181483137Y-78104889D01*
X181735755Y-78105110D01*
X181969228Y-78008640D01*
X182148013Y-77830168D01*
X182244889Y-77596863D01*
X182245110Y-77344245D01*
X182148640Y-77110772D01*
X181970168Y-76931987D01*
X181736863Y-76835111D01*
X181484245Y-76834890D01*
X181250772Y-76931360D01*
X181071987Y-77109832D01*
X180975111Y-77343137D01*
X180974890Y-77595755D01*
X159384889Y-77595755D01*
X159385110Y-77344245D01*
X159288640Y-77110772D01*
X159110168Y-76931987D01*
X158876863Y-76835111D01*
X158624245Y-76834890D01*
X158390772Y-76931360D01*
X158211987Y-77109832D01*
X158115111Y-77343137D01*
X158114890Y-77595755D01*
X154368500Y-77595755D01*
X154368500Y-76401208D01*
X155193824Y-76401208D01*
X155348175Y-76774766D01*
X155633731Y-77060821D01*
X156007018Y-77215824D01*
X156411208Y-77216176D01*
X156784766Y-77061825D01*
X157070821Y-76776269D01*
X157225824Y-76402982D01*
X157225825Y-76401208D01*
X183133824Y-76401208D01*
X183288175Y-76774766D01*
X183573731Y-77060821D01*
X183947018Y-77215824D01*
X184351208Y-77216176D01*
X184724766Y-77061825D01*
X185010821Y-76776269D01*
X185165824Y-76402982D01*
X185166176Y-75998792D01*
X185011825Y-75625234D01*
X184726269Y-75339179D01*
X184352982Y-75184176D01*
X183948792Y-75183824D01*
X183575234Y-75338175D01*
X183289179Y-75623731D01*
X183134176Y-75997018D01*
X183133824Y-76401208D01*
X157225825Y-76401208D01*
X157226176Y-75998792D01*
X157071825Y-75625234D01*
X156786269Y-75339179D01*
X156412982Y-75184176D01*
X156008792Y-75183824D01*
X155635234Y-75338175D01*
X155349179Y-75623731D01*
X155194176Y-75997018D01*
X155193824Y-76401208D01*
X154368500Y-76401208D01*
X154368500Y-74379778D01*
X155580024Y-74379778D01*
X155653628Y-74533814D01*
X156030373Y-74680213D01*
X156434465Y-74671294D01*
X156766372Y-74533814D01*
X156839976Y-74379778D01*
X183520024Y-74379778D01*
X183593628Y-74533814D01*
X183970373Y-74680213D01*
X184374465Y-74671294D01*
X184706372Y-74533814D01*
X184779976Y-74379778D01*
X184150000Y-73749803D01*
X183520024Y-74379778D01*
X156839976Y-74379778D01*
X156210000Y-73749803D01*
X155580024Y-74379778D01*
X154368500Y-74379778D01*
X154368500Y-73480373D01*
X155189787Y-73480373D01*
X155198706Y-73884465D01*
X155336186Y-74216372D01*
X155490222Y-74289976D01*
X156120197Y-73660000D01*
X156299803Y-73660000D01*
X156929778Y-74289976D01*
X157083814Y-74216372D01*
X157230213Y-73839627D01*
X157228525Y-73763119D01*
X176009210Y-73763119D01*
X176088315Y-73954567D01*
X176234662Y-74101170D01*
X176425972Y-74180609D01*
X176633119Y-74180790D01*
X176824567Y-74101685D01*
X176971170Y-73955338D01*
X177050609Y-73764028D01*
X177050790Y-73556881D01*
X177019178Y-73480373D01*
X183129787Y-73480373D01*
X183138706Y-73884465D01*
X183276186Y-74216372D01*
X183430222Y-74289976D01*
X184060197Y-73660000D01*
X184239803Y-73660000D01*
X184869778Y-74289976D01*
X185023814Y-74216372D01*
X185170213Y-73839627D01*
X185161294Y-73435535D01*
X185023814Y-73103628D01*
X184869778Y-73030024D01*
X184239803Y-73660000D01*
X184060197Y-73660000D01*
X183430222Y-73030024D01*
X183276186Y-73103628D01*
X183129787Y-73480373D01*
X177019178Y-73480373D01*
X176971685Y-73365433D01*
X176825338Y-73218830D01*
X176634028Y-73139391D01*
X176426881Y-73139210D01*
X176235433Y-73218315D01*
X176088830Y-73364662D01*
X176009391Y-73555972D01*
X176009210Y-73763119D01*
X157228525Y-73763119D01*
X157221294Y-73435535D01*
X157083814Y-73103628D01*
X156929778Y-73030024D01*
X156299803Y-73660000D01*
X156120197Y-73660000D01*
X155490222Y-73030024D01*
X155336186Y-73103628D01*
X155189787Y-73480373D01*
X154368500Y-73480373D01*
X154368500Y-72940222D01*
X155580024Y-72940222D01*
X156210000Y-73570197D01*
X156839976Y-72940222D01*
X156766372Y-72786186D01*
X156389627Y-72639787D01*
X155985535Y-72648706D01*
X155653628Y-72786186D01*
X155580024Y-72940222D01*
X154368500Y-72940222D01*
X154368500Y-71818500D01*
X158470299Y-71818500D01*
X158390772Y-71851360D01*
M02*
