M48
;DRILL file {KiCad 4.0.6-e0-6349~53~ubuntu16.04.1} date Tue Mar  6 11:00:29 2018
;FORMAT={-:-/ absolute / inch / decimal}
FMAT,2
INCH,TZ
T1C0.006
T2C0.012
T3C0.025
T4C0.032
%
G90
G05
M72
T1
X6.25Y-4.8
X6.25Y-4.85
X6.275Y-3.9
X6.275Y-5.02
X6.275Y-5.075
X6.3Y-3.7
X6.3Y-4.65
X6.325Y-4.1
X6.325Y-5.02
X6.35Y-3.5
X6.35Y-4.65
X6.375Y-4.3
X6.375Y-5.02
X6.4Y-3.3
X6.4Y-4.65
X6.425Y-4.5
X6.425Y-5.02
X6.45Y-3.1
X6.45Y-4.65
X6.45Y-5.125
X6.475Y-4.65
X6.495Y-5.02
X6.5Y-4.65
X6.5Y-4.85
X6.525Y-4.65
X6.525Y-4.8
X6.525Y-4.825
X6.525Y-5.02
X6.55Y-4.65
X6.55Y-4.85
X6.55Y-5.02
X6.55Y-5.125
X6.575Y-5.02
X6.575Y-5.125
X6.6Y-4.65
X6.65Y-4.65
X6.65Y-4.7875
X6.95Y-2.9
X6.95Y-4.625
X6.975Y-4.3
X6.975Y-5.04
X7.Y-3.1
X7.Y-4.6
X7.025Y-4.1
X7.025Y-5.06
X7.05Y-3.3
X7.05Y-4.575
X7.075Y-3.9
X7.075Y-5.08
X7.1Y-3.5
X7.1Y-4.55
X7.125Y-3.7
X7.125Y-5.1
X7.2Y-4.625
T2
X6.25Y-2.85
X6.25Y-3.05
X6.25Y-3.25
X6.25Y-3.45
X6.25Y-3.65
X6.25Y-3.85
X6.25Y-4.05
X6.25Y-4.25
X6.285Y-5.125
X6.6Y-2.95
X6.6Y-3.15
X6.6Y-3.35
X6.6Y-3.55
X6.6Y-3.71
X6.6Y-3.75
X6.6Y-3.95
X6.6Y-4.15
X6.6Y-4.35
X6.615Y-2.83
X6.65Y-4.85
X6.7Y-4.525
X6.7Y-4.775
X6.7Y-4.95
X6.705Y-5.125
X6.8Y-3.05
X6.8Y-3.25
X6.8Y-3.45
X6.8Y-3.65
X6.8Y-3.85
X6.8Y-4.05
X6.8Y-4.25
X6.8Y-4.45
X6.84Y-4.505
X6.865Y-5.125
X7.Y-5.
X7.025Y-5.125
X7.05Y-5.
X7.075Y-5.125
X7.1Y-5.
X7.15Y-2.85
X7.15Y-3.05
X7.15Y-3.25
X7.15Y-3.45
X7.15Y-3.65
X7.15Y-3.85
X7.15Y-4.05
X7.15Y-4.25
T3
X6.75Y-4.75
X6.75Y-4.95
X6.8Y-4.75
X6.8Y-4.95
X6.85Y-4.75
X6.85Y-4.95
T4
X6.15Y-2.9
X6.15Y-3.
X6.15Y-3.1
X6.15Y-3.2
X6.15Y-3.3
X6.15Y-3.4
X6.15Y-3.5
X6.15Y-3.6
X6.15Y-3.7
X6.15Y-3.8
X6.15Y-3.9
X6.15Y-4.
X6.15Y-4.1
X6.15Y-4.2
X6.15Y-4.3
X6.15Y-4.4
X6.15Y-4.5
X6.15Y-4.6
X6.15Y-4.7
X6.15Y-4.8
X6.15Y-4.9
X6.15Y-5.
X6.15Y-5.1
X6.15Y-5.2
X6.15Y-5.3
X6.25Y-5.2
X6.25Y-5.3
X6.35Y-5.2
X6.35Y-5.3
X6.45Y-5.2
X6.45Y-5.3
X6.55Y-5.2
X6.55Y-5.3
X6.65Y-5.2
X6.65Y-5.3
X6.75Y-5.2
X6.75Y-5.3
X6.85Y-5.2
X6.85Y-5.3
X6.95Y-5.2
X6.95Y-5.3
X7.05Y-5.2
X7.05Y-5.3
X7.15Y-5.2
X7.15Y-5.3
X7.25Y-2.9
X7.25Y-3.
X7.25Y-3.1
X7.25Y-3.2
X7.25Y-3.3
X7.25Y-3.4
X7.25Y-3.5
X7.25Y-3.6
X7.25Y-3.7
X7.25Y-3.8
X7.25Y-3.9
X7.25Y-4.
X7.25Y-4.1
X7.25Y-4.2
X7.25Y-4.3
X7.25Y-4.4
X7.25Y-4.5
X7.25Y-4.6
X7.25Y-4.7
X7.25Y-4.8
X7.25Y-4.9
X7.25Y-5.
X7.25Y-5.1
X7.25Y-5.2
X7.25Y-5.3
T0
M30
