M48
; DRILL file {KiCad (6.0.7-1)-1} date Thursday, September 01, 2022 at 03:03:27 PM
; FORMAT={-:-/ absolute / metric / decimal}
; #@! TF.CreationDate,2022-09-01T15:03:27-04:00
; #@! TF.GenerationSoftware,Kicad,Pcbnew,(6.0.7-1)-1
; #@! TF.FileFunction,Plated,1,4,PTH
FMAT,2
METRIC
; #@! TA.AperFunction,Plated,PTH,ViaDrill
T1C0.254
; #@! TA.AperFunction,Plated,PTH,ViaDrill
T2C0.305
; #@! TA.AperFunction,Plated,PTH,ViaDrill
T3C0.635
; #@! TA.AperFunction,Plated,PTH,ComponentDrill
T4C1.020
%
G90
G05
T1
X158.369Y-121.92
X158.369Y-129.286
X159.385Y-99.06
X159.385Y-128.905
X160.02Y-93.98
X160.147Y-120.777
X160.147Y-122.809
X160.147Y-124.46
X160.655Y-104.14
X161.29Y-88.9
X161.412Y-118.584
X161.925Y-109.22
X162.179Y-125.603
X162.56Y-83.82
X162.56Y-118.11
X163.195Y-114.3
X163.195Y-125.603
X163.83Y-78.74
X163.83Y-118.11
X163.83Y-130.175
X164.211Y-118.745
X164.973Y-127.508
X165.735Y-127.508
X166.37Y-125.603
X166.37Y-127.508
X166.37Y-130.175
X166.751Y-120.269
X166.751Y-121.285
X167.005Y-127.508
X167.005Y-130.175
X167.513Y-120.142
X167.64Y-125.603
X168.021Y-118.618
X176.53Y-73.66
X176.53Y-117.475
X177.165Y-109.22
X177.165Y-128.016
X177.8Y-78.74
X177.8Y-116.84
X178.435Y-104.14
X178.435Y-128.524
X179.07Y-83.82
X179.07Y-116.205
X179.705Y-99.06
X179.705Y-129.032
X180.34Y-88.9
X180.34Y-115.57
X180.975Y-93.98
X180.975Y-129.54
X182.88Y-117.475
T2
X158.75Y-72.39
X158.75Y-77.47
X158.75Y-82.55
X158.75Y-87.63
X158.75Y-92.71
X158.75Y-97.79
X158.75Y-102.87
X158.75Y-107.95
X159.639Y-130.175
X167.64Y-74.93
X167.64Y-80.01
X167.64Y-85.09
X167.64Y-90.17
X167.64Y-94.234
X167.64Y-95.25
X167.64Y-100.33
X167.64Y-105.41
X167.64Y-110.49
X168.021Y-71.882
X168.91Y-123.19
X170.18Y-114.935
X170.18Y-121.285
X170.18Y-125.73
X170.307Y-130.175
X172.72Y-77.47
X172.72Y-82.55
X172.72Y-87.63
X172.72Y-92.71
X172.72Y-97.79
X172.72Y-102.87
X172.72Y-107.95
X172.72Y-113.03
X173.736Y-114.427
X174.371Y-130.175
X177.8Y-127.0
X178.435Y-130.175
X179.07Y-127.0
X179.705Y-130.175
X180.34Y-127.0
X181.61Y-72.39
X181.61Y-77.47
X181.61Y-82.55
X181.61Y-87.63
X181.61Y-92.71
X181.61Y-97.79
X181.61Y-102.87
X181.61Y-107.95
T3
X171.45Y-120.65
X171.45Y-125.73
X172.72Y-120.65
X172.72Y-125.73
X173.99Y-120.65
X173.99Y-125.73
T4
X156.21Y-73.66
X156.21Y-76.2
X156.21Y-78.74
X156.21Y-81.28
X156.21Y-83.82
X156.21Y-86.36
X156.21Y-88.9
X156.21Y-91.44
X156.21Y-93.98
X156.21Y-96.52
X156.21Y-99.06
X156.21Y-101.6
X156.21Y-104.14
X156.21Y-106.68
X156.21Y-109.22
X156.21Y-111.76
X156.21Y-114.3
X156.21Y-116.84
X156.21Y-119.38
X156.21Y-121.92
X156.21Y-124.46
X156.21Y-127.0
X156.21Y-129.54
X156.21Y-132.08
X156.21Y-134.62
X158.75Y-132.08
X158.75Y-134.62
X161.29Y-132.08
X161.29Y-134.62
X163.83Y-132.08
X163.83Y-134.62
X166.37Y-132.08
X166.37Y-134.62
X168.91Y-132.08
X168.91Y-134.62
X171.45Y-132.08
X171.45Y-134.62
X173.99Y-132.08
X173.99Y-134.62
X176.53Y-132.08
X176.53Y-134.62
X179.07Y-132.08
X179.07Y-134.62
X181.61Y-132.08
X181.61Y-134.62
X184.15Y-73.66
X184.15Y-76.2
X184.15Y-78.74
X184.15Y-81.28
X184.15Y-83.82
X184.15Y-86.36
X184.15Y-88.9
X184.15Y-91.44
X184.15Y-93.98
X184.15Y-96.52
X184.15Y-99.06
X184.15Y-101.6
X184.15Y-104.14
X184.15Y-106.68
X184.15Y-109.22
X184.15Y-111.76
X184.15Y-114.3
X184.15Y-116.84
X184.15Y-119.38
X184.15Y-121.92
X184.15Y-124.46
X184.15Y-127.0
X184.15Y-129.54
X184.15Y-132.08
X184.15Y-134.62
T0
M30
