%TF.GenerationSoftware,KiCad,Pcbnew,(6.0.4)*%
%TF.CreationDate,2022-08-30T15:40:43-04:00*%
%TF.ProjectId,eVolver_pwm,65566f6c-7665-4725-9f70-776d2e6b6963,rev?*%
%TF.SameCoordinates,Original*%
%TF.FileFunction,Legend,Bot*%
%TF.FilePolarity,Positive*%
%FSLAX46Y46*%
G04 Gerber Fmt 4.6, Leading zero omitted, Abs format (unit mm)*
G04 Created by KiCad (PCBNEW (6.0.4)) date 2022-08-30 15:40:43*
%MOMM*%
%LPD*%
G01*
G04 APERTURE LIST*
%ADD10C,0.200000*%
%ADD11C,0.150000*%
G04 APERTURE END LIST*
D10*
X157480000Y-71882000D02*
G75*
G03*
X157480000Y-71882000I-127000J0D01*
G01*
D11*
%TO.C,P1*%
X159202380Y-100861904D02*
X158202380Y-100861904D01*
X158202380Y-101242857D01*
X158250000Y-101338095D01*
X158297619Y-101385714D01*
X158392857Y-101433333D01*
X158535714Y-101433333D01*
X158630952Y-101385714D01*
X158678571Y-101338095D01*
X158726190Y-101242857D01*
X158726190Y-100861904D01*
X159202380Y-102385714D02*
X159202380Y-101814285D01*
X159202380Y-102100000D02*
X158202380Y-102100000D01*
X158345238Y-102004761D01*
X158440476Y-101909523D01*
X158488095Y-101814285D01*
%TO.C,P2*%
X187142380Y-100861904D02*
X186142380Y-100861904D01*
X186142380Y-101242857D01*
X186190000Y-101338095D01*
X186237619Y-101385714D01*
X186332857Y-101433333D01*
X186475714Y-101433333D01*
X186570952Y-101385714D01*
X186618571Y-101338095D01*
X186666190Y-101242857D01*
X186666190Y-100861904D01*
X186237619Y-101814285D02*
X186190000Y-101861904D01*
X186142380Y-101957142D01*
X186142380Y-102195238D01*
X186190000Y-102290476D01*
X186237619Y-102338095D01*
X186332857Y-102385714D01*
X186428095Y-102385714D01*
X186570952Y-102338095D01*
X187142380Y-101766666D01*
X187142380Y-102385714D01*
%TO.C,P3*%
X172188095Y-135072380D02*
X172188095Y-134072380D01*
X171807142Y-134072380D01*
X171711904Y-134120000D01*
X171664285Y-134167619D01*
X171616666Y-134262857D01*
X171616666Y-134405714D01*
X171664285Y-134500952D01*
X171711904Y-134548571D01*
X171807142Y-134596190D01*
X172188095Y-134596190D01*
X171283333Y-134072380D02*
X170664285Y-134072380D01*
X170997619Y-134453333D01*
X170854761Y-134453333D01*
X170759523Y-134500952D01*
X170711904Y-134548571D01*
X170664285Y-134643809D01*
X170664285Y-134881904D01*
X170711904Y-134977142D01*
X170759523Y-135024761D01*
X170854761Y-135072380D01*
X171140476Y-135072380D01*
X171235714Y-135024761D01*
X171283333Y-134977142D01*
%TO.C,P4*%
X169648095Y-132532380D02*
X169648095Y-131532380D01*
X169267142Y-131532380D01*
X169171904Y-131580000D01*
X169124285Y-131627619D01*
X169076666Y-131722857D01*
X169076666Y-131865714D01*
X169124285Y-131960952D01*
X169171904Y-132008571D01*
X169267142Y-132056190D01*
X169648095Y-132056190D01*
X168219523Y-131865714D02*
X168219523Y-132532380D01*
X168457619Y-131484761D02*
X168695714Y-132199047D01*
X168076666Y-132199047D01*
%TO.C,P1*%
X157480000Y-72390000D02*
X157480000Y-135890000D01*
X154940000Y-135890000D02*
X154940000Y-72390000D01*
X157480000Y-72390000D02*
X154940000Y-72390000D01*
X157480000Y-135890000D02*
X154940000Y-135890000D01*
%TO.C,P2*%
X185420000Y-72390000D02*
X185420000Y-135890000D01*
X182880000Y-135890000D02*
X182880000Y-72390000D01*
X185420000Y-72390000D02*
X182880000Y-72390000D01*
X185420000Y-135890000D02*
X182880000Y-135890000D01*
%TO.C,P3*%
X182880000Y-133350000D02*
X157480000Y-133350000D01*
X157480000Y-130810000D02*
X182880000Y-130810000D01*
X157480000Y-133350000D02*
X157480000Y-130810000D01*
X182880000Y-133350000D02*
X182880000Y-130810000D01*
%TO.C,P4*%
X157480000Y-133350000D02*
X182880000Y-133350000D01*
X182880000Y-135890000D02*
X157480000Y-135890000D01*
X182880000Y-133350000D02*
X182880000Y-135890000D01*
X157480000Y-133350000D02*
X157480000Y-135890000D01*
%TD*%
M02*
