%TF.GenerationSoftware,KiCad,Pcbnew,(6.0.4)*%
%TF.CreationDate,2022-08-30T15:40:43-04:00*%
%TF.ProjectId,eVolver_pwm,65566f6c-7665-4725-9f70-776d2e6b6963,rev?*%
%TF.SameCoordinates,Original*%
%TF.FileFunction,OtherDrawing,Comment*%
%FSLAX46Y46*%
G04 Gerber Fmt 4.6, Leading zero omitted, Abs format (unit mm)*
G04 Created by KiCad (PCBNEW (6.0.4)) date 2022-08-30 15:40:43*
%MOMM*%
%LPD*%
G01*
G04 APERTURE LIST*
%ADD10C,0.300000*%
%ADD11C,0.203200*%
G04 APERTURE END LIST*
D10*
X188021428Y-109390000D02*
X187950000Y-109318571D01*
X187878571Y-109175714D01*
X187878571Y-108818571D01*
X187950000Y-108675714D01*
X188021428Y-108604285D01*
X188164285Y-108532857D01*
X188307142Y-108532857D01*
X188521428Y-108604285D01*
X189378571Y-109461428D01*
X189378571Y-108532857D01*
X189235714Y-107890000D02*
X189307142Y-107818571D01*
X189378571Y-107890000D01*
X189307142Y-107961428D01*
X189235714Y-107890000D01*
X189378571Y-107890000D01*
X187878571Y-106532857D02*
X187878571Y-106818571D01*
X187950000Y-106961428D01*
X188021428Y-107032857D01*
X188235714Y-107175714D01*
X188521428Y-107247142D01*
X189092857Y-107247142D01*
X189235714Y-107175714D01*
X189307142Y-107104285D01*
X189378571Y-106961428D01*
X189378571Y-106675714D01*
X189307142Y-106532857D01*
X189235714Y-106461428D01*
X189092857Y-106390000D01*
X188735714Y-106390000D01*
X188592857Y-106461428D01*
X188521428Y-106532857D01*
X188450000Y-106675714D01*
X188450000Y-106961428D01*
X188521428Y-107104285D01*
X188592857Y-107175714D01*
X188735714Y-107247142D01*
X187878571Y-105461428D02*
X187878571Y-105318571D01*
X187950000Y-105175714D01*
X188021428Y-105104285D01*
X188164285Y-105032857D01*
X188450000Y-104961428D01*
X188807142Y-104961428D01*
X189092857Y-105032857D01*
X189235714Y-105104285D01*
X189307142Y-105175714D01*
X189378571Y-105318571D01*
X189378571Y-105461428D01*
X189307142Y-105604285D01*
X189235714Y-105675714D01*
X189092857Y-105747142D01*
X188807142Y-105818571D01*
X188450000Y-105818571D01*
X188164285Y-105747142D01*
X188021428Y-105675714D01*
X187950000Y-105604285D01*
X187878571Y-105461428D01*
X187878571Y-104032857D02*
X187878571Y-103890000D01*
X187950000Y-103747142D01*
X188021428Y-103675714D01*
X188164285Y-103604285D01*
X188450000Y-103532857D01*
X188807142Y-103532857D01*
X189092857Y-103604285D01*
X189235714Y-103675714D01*
X189307142Y-103747142D01*
X189378571Y-103890000D01*
X189378571Y-104032857D01*
X189307142Y-104175714D01*
X189235714Y-104247142D01*
X189092857Y-104318571D01*
X188807142Y-104390000D01*
X188450000Y-104390000D01*
X188164285Y-104318571D01*
X188021428Y-104247142D01*
X187950000Y-104175714D01*
X187878571Y-104032857D01*
X187878571Y-102604285D02*
X187878571Y-102461428D01*
X187950000Y-102318571D01*
X188021428Y-102247142D01*
X188164285Y-102175714D01*
X188450000Y-102104285D01*
X188807142Y-102104285D01*
X189092857Y-102175714D01*
X189235714Y-102247142D01*
X189307142Y-102318571D01*
X189378571Y-102461428D01*
X189378571Y-102604285D01*
X189307142Y-102747142D01*
X189235714Y-102818571D01*
X189092857Y-102890000D01*
X188807142Y-102961428D01*
X188450000Y-102961428D01*
X188164285Y-102890000D01*
X188021428Y-102818571D01*
X187950000Y-102747142D01*
X187878571Y-102604285D01*
X189378571Y-100318571D02*
X188378571Y-100318571D01*
X187878571Y-100318571D02*
X187950000Y-100390000D01*
X188021428Y-100318571D01*
X187950000Y-100247142D01*
X187878571Y-100318571D01*
X188021428Y-100318571D01*
X188378571Y-99604285D02*
X189378571Y-99604285D01*
X188521428Y-99604285D02*
X188450000Y-99532857D01*
X188378571Y-99390000D01*
X188378571Y-99175714D01*
X188450000Y-99032857D01*
X188592857Y-98961428D01*
X189378571Y-98961428D01*
X187960000Y-137160000D02*
X191086420Y-137160000D01*
X187960000Y-71120000D02*
X191086420Y-71120000D01*
X190500000Y-137160000D02*
X190500000Y-71120000D01*
X190500000Y-137160000D02*
X190500000Y-71120000D01*
X190500000Y-137160000D02*
X191086421Y-136033496D01*
X190500000Y-137160000D02*
X189913579Y-136033496D01*
X190500000Y-71120000D02*
X189913579Y-72246504D01*
X190500000Y-71120000D02*
X191086421Y-72246504D01*
X165787142Y-64918571D02*
X164930000Y-64918571D01*
X165358571Y-64918571D02*
X165358571Y-63418571D01*
X165215714Y-63632857D01*
X165072857Y-63775714D01*
X164930000Y-63847142D01*
X166430000Y-64775714D02*
X166501428Y-64847142D01*
X166430000Y-64918571D01*
X166358571Y-64847142D01*
X166430000Y-64775714D01*
X166430000Y-64918571D01*
X167001428Y-63418571D02*
X167930000Y-63418571D01*
X167430000Y-63990000D01*
X167644285Y-63990000D01*
X167787142Y-64061428D01*
X167858571Y-64132857D01*
X167930000Y-64275714D01*
X167930000Y-64632857D01*
X167858571Y-64775714D01*
X167787142Y-64847142D01*
X167644285Y-64918571D01*
X167215714Y-64918571D01*
X167072857Y-64847142D01*
X167001428Y-64775714D01*
X168858571Y-63418571D02*
X169001428Y-63418571D01*
X169144285Y-63490000D01*
X169215714Y-63561428D01*
X169287142Y-63704285D01*
X169358571Y-63990000D01*
X169358571Y-64347142D01*
X169287142Y-64632857D01*
X169215714Y-64775714D01*
X169144285Y-64847142D01*
X169001428Y-64918571D01*
X168858571Y-64918571D01*
X168715714Y-64847142D01*
X168644285Y-64775714D01*
X168572857Y-64632857D01*
X168501428Y-64347142D01*
X168501428Y-63990000D01*
X168572857Y-63704285D01*
X168644285Y-63561428D01*
X168715714Y-63490000D01*
X168858571Y-63418571D01*
X170287142Y-63418571D02*
X170430000Y-63418571D01*
X170572857Y-63490000D01*
X170644285Y-63561428D01*
X170715714Y-63704285D01*
X170787142Y-63990000D01*
X170787142Y-64347142D01*
X170715714Y-64632857D01*
X170644285Y-64775714D01*
X170572857Y-64847142D01*
X170430000Y-64918571D01*
X170287142Y-64918571D01*
X170144285Y-64847142D01*
X170072857Y-64775714D01*
X170001428Y-64632857D01*
X169930000Y-64347142D01*
X169930000Y-63990000D01*
X170001428Y-63704285D01*
X170072857Y-63561428D01*
X170144285Y-63490000D01*
X170287142Y-63418571D01*
X171715714Y-63418571D02*
X171858571Y-63418571D01*
X172001428Y-63490000D01*
X172072857Y-63561428D01*
X172144285Y-63704285D01*
X172215714Y-63990000D01*
X172215714Y-64347142D01*
X172144285Y-64632857D01*
X172072857Y-64775714D01*
X172001428Y-64847142D01*
X171858571Y-64918571D01*
X171715714Y-64918571D01*
X171572857Y-64847142D01*
X171501428Y-64775714D01*
X171430000Y-64632857D01*
X171358571Y-64347142D01*
X171358571Y-63990000D01*
X171430000Y-63704285D01*
X171501428Y-63561428D01*
X171572857Y-63490000D01*
X171715714Y-63418571D01*
X174001428Y-64918571D02*
X174001428Y-63918571D01*
X174001428Y-63418571D02*
X173930000Y-63490000D01*
X174001428Y-63561428D01*
X174072857Y-63490000D01*
X174001428Y-63418571D01*
X174001428Y-63561428D01*
X174715714Y-63918571D02*
X174715714Y-64918571D01*
X174715714Y-64061428D02*
X174787142Y-63990000D01*
X174930000Y-63918571D01*
X175144285Y-63918571D01*
X175287142Y-63990000D01*
X175358571Y-64132857D01*
X175358571Y-64918571D01*
X186690000Y-69850000D02*
X186690000Y-65453580D01*
X153670000Y-69850000D02*
X153670000Y-65453580D01*
X186690000Y-66040000D02*
X153670000Y-66040000D01*
X186690000Y-66040000D02*
X153670000Y-66040000D01*
X186690000Y-66040000D02*
X185563496Y-65453579D01*
X186690000Y-66040000D02*
X185563496Y-66626421D01*
X153670000Y-66040000D02*
X154796504Y-66626421D01*
X153670000Y-66040000D02*
X154796504Y-65453579D01*
D11*
X202919222Y-71512857D02*
X203133508Y-71584285D01*
X203204937Y-71655714D01*
X203276365Y-71798571D01*
X203276365Y-72012857D01*
X203204937Y-72155714D01*
X203133508Y-72227142D01*
X202990651Y-72298571D01*
X202419222Y-72298571D01*
X202419222Y-70798571D01*
X202919222Y-70798571D01*
X203062080Y-70870000D01*
X203133508Y-70941428D01*
X203204937Y-71084285D01*
X203204937Y-71227142D01*
X203133508Y-71370000D01*
X203062080Y-71441428D01*
X202919222Y-71512857D01*
X202419222Y-71512857D01*
X204204937Y-70798571D02*
X204490651Y-70798571D01*
X204633508Y-70870000D01*
X204776365Y-71012857D01*
X204847794Y-71298571D01*
X204847794Y-71798571D01*
X204776365Y-72084285D01*
X204633508Y-72227142D01*
X204490651Y-72298571D01*
X204204937Y-72298571D01*
X204062080Y-72227142D01*
X203919222Y-72084285D01*
X203847794Y-71798571D01*
X203847794Y-71298571D01*
X203919222Y-71012857D01*
X204062080Y-70870000D01*
X204204937Y-70798571D01*
X205419222Y-72227142D02*
X205633508Y-72298571D01*
X205990651Y-72298571D01*
X206133508Y-72227142D01*
X206204937Y-72155714D01*
X206276365Y-72012857D01*
X206276365Y-71870000D01*
X206204937Y-71727142D01*
X206133508Y-71655714D01*
X205990651Y-71584285D01*
X205704937Y-71512857D01*
X205562080Y-71441428D01*
X205490651Y-71370000D01*
X205419222Y-71227142D01*
X205419222Y-71084285D01*
X205490651Y-70941428D01*
X205562080Y-70870000D01*
X205704937Y-70798571D01*
X206062080Y-70798571D01*
X206276365Y-70870000D01*
X206704937Y-70798571D02*
X207562080Y-70798571D01*
X207133508Y-72298571D02*
X207133508Y-70798571D01*
X208347794Y-70798571D02*
X208633508Y-70798571D01*
X208776365Y-70870000D01*
X208919222Y-71012857D01*
X208990651Y-71298571D01*
X208990651Y-71798571D01*
X208919222Y-72084285D01*
X208776365Y-72227142D01*
X208633508Y-72298571D01*
X208347794Y-72298571D01*
X208204937Y-72227142D01*
X208062080Y-72084285D01*
X207990651Y-71798571D01*
X207990651Y-71298571D01*
X208062080Y-71012857D01*
X208204937Y-70870000D01*
X208347794Y-70798571D01*
X209633508Y-72298571D02*
X209633508Y-70798571D01*
X210490651Y-72298571D01*
X210490651Y-70798571D01*
X212347794Y-70798571D02*
X212347794Y-72012857D01*
X212419222Y-72155714D01*
X212490651Y-72227142D01*
X212633508Y-72298571D01*
X212919222Y-72298571D01*
X213062080Y-72227142D01*
X213133508Y-72155714D01*
X213204937Y-72012857D01*
X213204937Y-70798571D01*
X213919222Y-72298571D02*
X213919222Y-70798571D01*
X214776365Y-72298571D01*
X214776365Y-70798571D01*
X215490651Y-72298571D02*
X215490651Y-70798571D01*
X215990651Y-70798571D02*
X216490651Y-72298571D01*
X216990651Y-70798571D01*
X217490651Y-71512857D02*
X217990651Y-71512857D01*
X218204937Y-72298571D02*
X217490651Y-72298571D01*
X217490651Y-70798571D01*
X218204937Y-70798571D01*
X219704937Y-72298571D02*
X219204937Y-71584285D01*
X218847794Y-72298571D02*
X218847794Y-70798571D01*
X219419222Y-70798571D01*
X219562080Y-70870000D01*
X219633508Y-70941428D01*
X219704937Y-71084285D01*
X219704937Y-71298571D01*
X219633508Y-71441428D01*
X219562080Y-71512857D01*
X219419222Y-71584285D01*
X218847794Y-71584285D01*
X220276365Y-72227142D02*
X220490651Y-72298571D01*
X220847794Y-72298571D01*
X220990651Y-72227142D01*
X221062080Y-72155714D01*
X221133508Y-72012857D01*
X221133508Y-71870000D01*
X221062080Y-71727142D01*
X220990651Y-71655714D01*
X220847794Y-71584285D01*
X220562080Y-71512857D01*
X220419222Y-71441428D01*
X220347794Y-71370000D01*
X220276365Y-71227142D01*
X220276365Y-71084285D01*
X220347794Y-70941428D01*
X220419222Y-70870000D01*
X220562080Y-70798571D01*
X220919222Y-70798571D01*
X221133508Y-70870000D01*
X221776365Y-72298571D02*
X221776365Y-70798571D01*
X222276365Y-70798571D02*
X223133508Y-70798571D01*
X222704937Y-72298571D02*
X222704937Y-70798571D01*
X223919222Y-71584285D02*
X223919222Y-72298571D01*
X223419222Y-70798571D02*
X223919222Y-71584285D01*
X224419222Y-70798571D01*
X226062080Y-71512857D02*
X226562080Y-71512857D01*
X226776365Y-72298571D02*
X226062080Y-72298571D01*
X226062080Y-70798571D01*
X226776365Y-70798571D01*
X227419222Y-72298571D02*
X227419222Y-70798571D01*
X227776365Y-70798571D01*
X227990651Y-70870000D01*
X228133508Y-71012857D01*
X228204937Y-71155714D01*
X228276365Y-71441428D01*
X228276365Y-71655714D01*
X228204937Y-71941428D01*
X228133508Y-72084285D01*
X227990651Y-72227142D01*
X227776365Y-72298571D01*
X227419222Y-72298571D01*
X229419222Y-71512857D02*
X228919222Y-71512857D01*
X228919222Y-72298571D02*
X228919222Y-70798571D01*
X229633508Y-70798571D01*
X202990651Y-74642142D02*
X202847794Y-74713571D01*
X202562080Y-74713571D01*
X202419222Y-74642142D01*
X202347794Y-74499285D01*
X202347794Y-73927857D01*
X202419222Y-73785000D01*
X202562080Y-73713571D01*
X202847794Y-73713571D01*
X202990651Y-73785000D01*
X203062080Y-73927857D01*
X203062080Y-74070714D01*
X202347794Y-74213571D01*
X203490651Y-73213571D02*
X203990651Y-74713571D01*
X204490651Y-73213571D01*
X205276365Y-73213571D02*
X205562080Y-73213571D01*
X205704937Y-73285000D01*
X205847794Y-73427857D01*
X205919222Y-73713571D01*
X205919222Y-74213571D01*
X205847794Y-74499285D01*
X205704937Y-74642142D01*
X205562080Y-74713571D01*
X205276365Y-74713571D01*
X205133508Y-74642142D01*
X204990651Y-74499285D01*
X204919222Y-74213571D01*
X204919222Y-73713571D01*
X204990651Y-73427857D01*
X205133508Y-73285000D01*
X205276365Y-73213571D01*
X207276365Y-74713571D02*
X206562080Y-74713571D01*
X206562080Y-73213571D01*
X207562080Y-73213571D02*
X208062080Y-74713571D01*
X208562080Y-73213571D01*
X209062080Y-73927857D02*
X209562080Y-73927857D01*
X209776365Y-74713571D02*
X209062080Y-74713571D01*
X209062080Y-73213571D01*
X209776365Y-73213571D01*
X211276365Y-74713571D02*
X210776365Y-73999285D01*
X210419222Y-74713571D02*
X210419222Y-73213571D01*
X210990651Y-73213571D01*
X211133508Y-73285000D01*
X211204937Y-73356428D01*
X211276365Y-73499285D01*
X211276365Y-73713571D01*
X211204937Y-73856428D01*
X211133508Y-73927857D01*
X210990651Y-73999285D01*
X210419222Y-73999285D01*
X212990651Y-74642142D02*
X213204937Y-74713571D01*
X213562080Y-74713571D01*
X213704937Y-74642142D01*
X213776365Y-74570714D01*
X213847794Y-74427857D01*
X213847794Y-74285000D01*
X213776365Y-74142142D01*
X213704937Y-74070714D01*
X213562080Y-73999285D01*
X213276365Y-73927857D01*
X213133508Y-73856428D01*
X213062080Y-73785000D01*
X212990651Y-73642142D01*
X212990651Y-73499285D01*
X213062080Y-73356428D01*
X213133508Y-73285000D01*
X213276365Y-73213571D01*
X213633508Y-73213571D01*
X213847794Y-73285000D01*
X214347794Y-73713571D02*
X214704937Y-74713571D01*
X215062080Y-73713571D02*
X214704937Y-74713571D01*
X214562080Y-75070714D01*
X214490651Y-75142142D01*
X214347794Y-75213571D01*
X215562080Y-74642142D02*
X215704937Y-74713571D01*
X215990651Y-74713571D01*
X216133508Y-74642142D01*
X216204937Y-74499285D01*
X216204937Y-74427857D01*
X216133508Y-74285000D01*
X215990651Y-74213571D01*
X215776365Y-74213571D01*
X215633508Y-74142142D01*
X215562080Y-73999285D01*
X215562080Y-73927857D01*
X215633508Y-73785000D01*
X215776365Y-73713571D01*
X215990651Y-73713571D01*
X216133508Y-73785000D01*
X216633508Y-73713571D02*
X217204937Y-73713571D01*
X216847794Y-73213571D02*
X216847794Y-74499285D01*
X216919222Y-74642142D01*
X217062080Y-74713571D01*
X217204937Y-74713571D01*
X218276365Y-74642142D02*
X218133508Y-74713571D01*
X217847794Y-74713571D01*
X217704937Y-74642142D01*
X217633508Y-74499285D01*
X217633508Y-73927857D01*
X217704937Y-73785000D01*
X217847794Y-73713571D01*
X218133508Y-73713571D01*
X218276365Y-73785000D01*
X218347794Y-73927857D01*
X218347794Y-74070714D01*
X217633508Y-74213571D01*
X218990651Y-74713571D02*
X218990651Y-73713571D01*
X218990651Y-73856428D02*
X219062080Y-73785000D01*
X219204937Y-73713571D01*
X219419222Y-73713571D01*
X219562080Y-73785000D01*
X219633508Y-73927857D01*
X219633508Y-74713571D01*
X219633508Y-73927857D02*
X219704937Y-73785000D01*
X219847794Y-73713571D01*
X220062080Y-73713571D01*
X220204937Y-73785000D01*
X220276365Y-73927857D01*
X220276365Y-74713571D01*
X202419222Y-79543571D02*
X202419222Y-78043571D01*
X202990651Y-78043571D01*
X203133508Y-78115000D01*
X203204937Y-78186428D01*
X203276365Y-78329285D01*
X203276365Y-78543571D01*
X203204937Y-78686428D01*
X203133508Y-78757857D01*
X202990651Y-78829285D01*
X202419222Y-78829285D01*
X204990651Y-77972142D02*
X203704937Y-79900714D01*
X205490651Y-79543571D02*
X205490651Y-78043571D01*
X206347794Y-79543571D01*
X206347794Y-78043571D01*
X208204937Y-78757857D02*
X208704937Y-78757857D01*
X208919222Y-79543571D02*
X208204937Y-79543571D01*
X208204937Y-78043571D01*
X208919222Y-78043571D01*
X209347794Y-78043571D02*
X209847794Y-79543571D01*
X210347794Y-78043571D01*
X210847794Y-78972142D02*
X211990651Y-78972142D01*
X212704937Y-79543571D02*
X212704937Y-78043571D01*
X213276365Y-78043571D01*
X213419222Y-78115000D01*
X213490651Y-78186428D01*
X213562080Y-78329285D01*
X213562080Y-78543571D01*
X213490651Y-78686428D01*
X213419222Y-78757857D01*
X213276365Y-78829285D01*
X212704937Y-78829285D01*
X214062080Y-78043571D02*
X214419222Y-79543571D01*
X214704937Y-78472142D01*
X214990651Y-79543571D01*
X215347794Y-78043571D01*
X215919222Y-79543571D02*
X215919222Y-78043571D01*
X216419222Y-79115000D01*
X216919222Y-78043571D01*
X216919222Y-79543571D01*
X219633508Y-79543571D02*
X219133508Y-78829285D01*
X218776365Y-79543571D02*
X218776365Y-78043571D01*
X219347794Y-78043571D01*
X219490651Y-78115000D01*
X219562080Y-78186428D01*
X219633508Y-78329285D01*
X219633508Y-78543571D01*
X219562080Y-78686428D01*
X219490651Y-78757857D01*
X219347794Y-78829285D01*
X218776365Y-78829285D01*
X220847794Y-79472142D02*
X220704937Y-79543571D01*
X220419222Y-79543571D01*
X220276365Y-79472142D01*
X220204937Y-79329285D01*
X220204937Y-78757857D01*
X220276365Y-78615000D01*
X220419222Y-78543571D01*
X220704937Y-78543571D01*
X220847794Y-78615000D01*
X220919222Y-78757857D01*
X220919222Y-78900714D01*
X220204937Y-79043571D01*
X221419222Y-78543571D02*
X221776365Y-79543571D01*
X222133508Y-78543571D01*
X224704937Y-79400714D02*
X224633508Y-79472142D01*
X224419222Y-79543571D01*
X224276365Y-79543571D01*
X224062080Y-79472142D01*
X223919222Y-79329285D01*
X223847794Y-79186428D01*
X223776365Y-78900714D01*
X223776365Y-78686428D01*
X223847794Y-78400714D01*
X223919222Y-78257857D01*
X224062080Y-78115000D01*
X224276365Y-78043571D01*
X224419222Y-78043571D01*
X224633508Y-78115000D01*
X224704937Y-78186428D01*
X203204937Y-81958571D02*
X202347794Y-81958571D01*
X202776365Y-81958571D02*
X202776365Y-80458571D01*
X202633508Y-80672857D01*
X202490651Y-80815714D01*
X202347794Y-80887142D01*
X205204937Y-81958571D02*
X205062080Y-81887142D01*
X204990651Y-81815714D01*
X204919222Y-81672857D01*
X204919222Y-81244285D01*
X204990651Y-81101428D01*
X205062080Y-81030000D01*
X205204937Y-80958571D01*
X205419222Y-80958571D01*
X205562080Y-81030000D01*
X205633508Y-81101428D01*
X205704937Y-81244285D01*
X205704937Y-81672857D01*
X205633508Y-81815714D01*
X205562080Y-81887142D01*
X205419222Y-81958571D01*
X205204937Y-81958571D01*
X206204937Y-80958571D02*
X206990651Y-80958571D01*
X206204937Y-81958571D01*
X206990651Y-81958571D01*
X209347794Y-81887142D02*
X209204937Y-81958571D01*
X208919222Y-81958571D01*
X208776365Y-81887142D01*
X208704937Y-81815714D01*
X208633508Y-81672857D01*
X208633508Y-81244285D01*
X208704937Y-81101428D01*
X208776365Y-81030000D01*
X208919222Y-80958571D01*
X209204937Y-80958571D01*
X209347794Y-81030000D01*
X210204937Y-81958571D02*
X210062080Y-81887142D01*
X209990651Y-81815714D01*
X209919222Y-81672857D01*
X209919222Y-81244285D01*
X209990651Y-81101428D01*
X210062080Y-81030000D01*
X210204937Y-80958571D01*
X210419222Y-80958571D01*
X210562080Y-81030000D01*
X210633508Y-81101428D01*
X210704937Y-81244285D01*
X210704937Y-81672857D01*
X210633508Y-81815714D01*
X210562080Y-81887142D01*
X210419222Y-81958571D01*
X210204937Y-81958571D01*
X211347794Y-80958571D02*
X211347794Y-82458571D01*
X211347794Y-81030000D02*
X211490651Y-80958571D01*
X211776365Y-80958571D01*
X211919222Y-81030000D01*
X211990651Y-81101428D01*
X212062080Y-81244285D01*
X212062080Y-81672857D01*
X211990651Y-81815714D01*
X211919222Y-81887142D01*
X211776365Y-81958571D01*
X211490651Y-81958571D01*
X211347794Y-81887142D01*
X212704937Y-80958571D02*
X212704937Y-82458571D01*
X212704937Y-81030000D02*
X212847794Y-80958571D01*
X213133508Y-80958571D01*
X213276365Y-81030000D01*
X213347794Y-81101428D01*
X213419222Y-81244285D01*
X213419222Y-81672857D01*
X213347794Y-81815714D01*
X213276365Y-81887142D01*
X213133508Y-81958571D01*
X212847794Y-81958571D01*
X212704937Y-81887142D01*
X214633508Y-81887142D02*
X214490651Y-81958571D01*
X214204937Y-81958571D01*
X214062080Y-81887142D01*
X213990651Y-81744285D01*
X213990651Y-81172857D01*
X214062080Y-81030000D01*
X214204937Y-80958571D01*
X214490651Y-80958571D01*
X214633508Y-81030000D01*
X214704937Y-81172857D01*
X214704937Y-81315714D01*
X213990651Y-81458571D01*
X215347794Y-81958571D02*
X215347794Y-80958571D01*
X215347794Y-81244285D02*
X215419222Y-81101428D01*
X215490651Y-81030000D01*
X215633508Y-80958571D01*
X215776365Y-80958571D01*
X203062080Y-83373571D02*
X203062080Y-84373571D01*
X202704937Y-82802142D02*
X202347794Y-83873571D01*
X203276365Y-83873571D01*
X205704937Y-84373571D02*
X204990651Y-84373571D01*
X204990651Y-82873571D01*
X206847794Y-84373571D02*
X206847794Y-83587857D01*
X206776365Y-83445000D01*
X206633508Y-83373571D01*
X206347794Y-83373571D01*
X206204937Y-83445000D01*
X206847794Y-84302142D02*
X206704937Y-84373571D01*
X206347794Y-84373571D01*
X206204937Y-84302142D01*
X206133508Y-84159285D01*
X206133508Y-84016428D01*
X206204937Y-83873571D01*
X206347794Y-83802142D01*
X206704937Y-83802142D01*
X206847794Y-83730714D01*
X207419222Y-83373571D02*
X207776365Y-84373571D01*
X208133508Y-83373571D02*
X207776365Y-84373571D01*
X207633508Y-84730714D01*
X207562080Y-84802142D01*
X207419222Y-84873571D01*
X209276365Y-84302142D02*
X209133508Y-84373571D01*
X208847794Y-84373571D01*
X208704937Y-84302142D01*
X208633508Y-84159285D01*
X208633508Y-83587857D01*
X208704937Y-83445000D01*
X208847794Y-83373571D01*
X209133508Y-83373571D01*
X209276365Y-83445000D01*
X209347794Y-83587857D01*
X209347794Y-83730714D01*
X208633508Y-83873571D01*
X209990651Y-84373571D02*
X209990651Y-83373571D01*
X209990651Y-83659285D02*
X210062080Y-83516428D01*
X210133508Y-83445000D01*
X210276365Y-83373571D01*
X210419222Y-83373571D01*
X210847794Y-84302142D02*
X210990651Y-84373571D01*
X211276365Y-84373571D01*
X211419222Y-84302142D01*
X211490651Y-84159285D01*
X211490651Y-84087857D01*
X211419222Y-83945000D01*
X211276365Y-83873571D01*
X211062080Y-83873571D01*
X210919222Y-83802142D01*
X210847794Y-83659285D01*
X210847794Y-83587857D01*
X210919222Y-83445000D01*
X211062080Y-83373571D01*
X211276365Y-83373571D01*
X211419222Y-83445000D01*
X213776365Y-83587857D02*
X213276365Y-83587857D01*
X213276365Y-84373571D02*
X213276365Y-82873571D01*
X213990651Y-82873571D01*
X215419222Y-84373571D02*
X214919222Y-83659285D01*
X214562080Y-84373571D02*
X214562080Y-82873571D01*
X215133508Y-82873571D01*
X215276365Y-82945000D01*
X215347794Y-83016428D01*
X215419222Y-83159285D01*
X215419222Y-83373571D01*
X215347794Y-83516428D01*
X215276365Y-83587857D01*
X215133508Y-83659285D01*
X214562080Y-83659285D01*
X216062080Y-83802142D02*
X217204937Y-83802142D01*
X218562080Y-83373571D02*
X218562080Y-84373571D01*
X218204937Y-82802142D02*
X217847794Y-83873571D01*
X218776365Y-83873571D01*
X202704937Y-85288571D02*
X202847794Y-85288571D01*
X202990651Y-85360000D01*
X203062080Y-85431428D01*
X203133508Y-85574285D01*
X203204937Y-85860000D01*
X203204937Y-86217142D01*
X203133508Y-86502857D01*
X203062080Y-86645714D01*
X202990651Y-86717142D01*
X202847794Y-86788571D01*
X202704937Y-86788571D01*
X202562080Y-86717142D01*
X202490651Y-86645714D01*
X202419222Y-86502857D01*
X202347794Y-86217142D01*
X202347794Y-85860000D01*
X202419222Y-85574285D01*
X202490651Y-85431428D01*
X202562080Y-85360000D01*
X202704937Y-85288571D01*
X203847794Y-86645714D02*
X203919222Y-86717142D01*
X203847794Y-86788571D01*
X203776365Y-86717142D01*
X203847794Y-86645714D01*
X203847794Y-86788571D01*
X204847794Y-85288571D02*
X204990651Y-85288571D01*
X205133508Y-85360000D01*
X205204937Y-85431428D01*
X205276365Y-85574285D01*
X205347794Y-85860000D01*
X205347794Y-86217142D01*
X205276365Y-86502857D01*
X205204937Y-86645714D01*
X205133508Y-86717142D01*
X204990651Y-86788571D01*
X204847794Y-86788571D01*
X204704937Y-86717142D01*
X204633508Y-86645714D01*
X204562080Y-86502857D01*
X204490651Y-86217142D01*
X204490651Y-85860000D01*
X204562080Y-85574285D01*
X204633508Y-85431428D01*
X204704937Y-85360000D01*
X204847794Y-85288571D01*
X206633508Y-85288571D02*
X206347794Y-85288571D01*
X206204937Y-85360000D01*
X206133508Y-85431428D01*
X205990651Y-85645714D01*
X205919222Y-85931428D01*
X205919222Y-86502857D01*
X205990651Y-86645714D01*
X206062080Y-86717142D01*
X206204937Y-86788571D01*
X206490651Y-86788571D01*
X206633508Y-86717142D01*
X206704937Y-86645714D01*
X206776365Y-86502857D01*
X206776365Y-86145714D01*
X206704937Y-86002857D01*
X206633508Y-85931428D01*
X206490651Y-85860000D01*
X206204937Y-85860000D01*
X206062080Y-85931428D01*
X205990651Y-86002857D01*
X205919222Y-86145714D01*
X207276365Y-85288571D02*
X208204937Y-85288571D01*
X207704937Y-85860000D01*
X207919222Y-85860000D01*
X208062080Y-85931428D01*
X208133508Y-86002857D01*
X208204937Y-86145714D01*
X208204937Y-86502857D01*
X208133508Y-86645714D01*
X208062080Y-86717142D01*
X207919222Y-86788571D01*
X207490651Y-86788571D01*
X207347794Y-86717142D01*
X207276365Y-86645714D01*
X209776365Y-85788571D02*
X210347794Y-85788571D01*
X209990651Y-86788571D02*
X209990651Y-85502857D01*
X210062080Y-85360000D01*
X210204937Y-85288571D01*
X210347794Y-85288571D01*
X210847794Y-86788571D02*
X210847794Y-85788571D01*
X210847794Y-85288571D02*
X210776365Y-85360000D01*
X210847794Y-85431428D01*
X210919222Y-85360000D01*
X210847794Y-85288571D01*
X210847794Y-85431428D01*
X211562080Y-85788571D02*
X211562080Y-86788571D01*
X211562080Y-85931428D02*
X211633508Y-85860000D01*
X211776365Y-85788571D01*
X211990651Y-85788571D01*
X212133508Y-85860000D01*
X212204937Y-86002857D01*
X212204937Y-86788571D01*
X213562080Y-86788571D02*
X213562080Y-86002857D01*
X213490651Y-85860000D01*
X213347794Y-85788571D01*
X213062080Y-85788571D01*
X212919222Y-85860000D01*
X213562080Y-86717142D02*
X213419222Y-86788571D01*
X213062080Y-86788571D01*
X212919222Y-86717142D01*
X212847794Y-86574285D01*
X212847794Y-86431428D01*
X212919222Y-86288571D01*
X213062080Y-86217142D01*
X213419222Y-86217142D01*
X213562080Y-86145714D01*
X214490651Y-86788571D02*
X214347794Y-86717142D01*
X214276365Y-86574285D01*
X214276365Y-85288571D01*
X215990651Y-85788571D02*
X216562080Y-85788571D01*
X216204937Y-85288571D02*
X216204937Y-86574285D01*
X216276365Y-86717142D01*
X216419222Y-86788571D01*
X216562080Y-86788571D01*
X217062080Y-86788571D02*
X217062080Y-85288571D01*
X217704937Y-86788571D02*
X217704937Y-86002857D01*
X217633508Y-85860000D01*
X217490651Y-85788571D01*
X217276365Y-85788571D01*
X217133508Y-85860000D01*
X217062080Y-85931428D01*
X218419222Y-86788571D02*
X218419222Y-85788571D01*
X218419222Y-85288571D02*
X218347794Y-85360000D01*
X218419222Y-85431428D01*
X218490651Y-85360000D01*
X218419222Y-85288571D01*
X218419222Y-85431428D01*
X219776365Y-86717142D02*
X219633508Y-86788571D01*
X219347794Y-86788571D01*
X219204937Y-86717142D01*
X219133508Y-86645714D01*
X219062080Y-86502857D01*
X219062080Y-86074285D01*
X219133508Y-85931428D01*
X219204937Y-85860000D01*
X219347794Y-85788571D01*
X219633508Y-85788571D01*
X219776365Y-85860000D01*
X220419222Y-86788571D02*
X220419222Y-85288571D01*
X220562080Y-86217142D02*
X220990651Y-86788571D01*
X220990651Y-85788571D02*
X220419222Y-86360000D01*
X221633508Y-85788571D02*
X221633508Y-86788571D01*
X221633508Y-85931428D02*
X221704937Y-85860000D01*
X221847794Y-85788571D01*
X222062080Y-85788571D01*
X222204937Y-85860000D01*
X222276365Y-86002857D01*
X222276365Y-86788571D01*
X223562080Y-86717142D02*
X223419222Y-86788571D01*
X223133508Y-86788571D01*
X222990651Y-86717142D01*
X222919222Y-86574285D01*
X222919222Y-86002857D01*
X222990651Y-85860000D01*
X223133508Y-85788571D01*
X223419222Y-85788571D01*
X223562080Y-85860000D01*
X223633508Y-86002857D01*
X223633508Y-86145714D01*
X222919222Y-86288571D01*
X224204937Y-86717142D02*
X224347794Y-86788571D01*
X224633508Y-86788571D01*
X224776365Y-86717142D01*
X224847794Y-86574285D01*
X224847794Y-86502857D01*
X224776365Y-86360000D01*
X224633508Y-86288571D01*
X224419222Y-86288571D01*
X224276365Y-86217142D01*
X224204937Y-86074285D01*
X224204937Y-86002857D01*
X224276365Y-85860000D01*
X224419222Y-85788571D01*
X224633508Y-85788571D01*
X224776365Y-85860000D01*
X225419222Y-86717142D02*
X225562080Y-86788571D01*
X225847794Y-86788571D01*
X225990651Y-86717142D01*
X226062080Y-86574285D01*
X226062080Y-86502857D01*
X225990651Y-86360000D01*
X225847794Y-86288571D01*
X225633508Y-86288571D01*
X225490651Y-86217142D01*
X225419222Y-86074285D01*
X225419222Y-86002857D01*
X225490651Y-85860000D01*
X225633508Y-85788571D01*
X225847794Y-85788571D01*
X225990651Y-85860000D01*
X202347794Y-89132142D02*
X202490651Y-89203571D01*
X202776365Y-89203571D01*
X202919222Y-89132142D01*
X202990651Y-88989285D01*
X202990651Y-88917857D01*
X202919222Y-88775000D01*
X202776365Y-88703571D01*
X202562080Y-88703571D01*
X202419222Y-88632142D01*
X202347794Y-88489285D01*
X202347794Y-88417857D01*
X202419222Y-88275000D01*
X202562080Y-88203571D01*
X202776365Y-88203571D01*
X202919222Y-88275000D01*
X203847794Y-89203571D02*
X203704937Y-89132142D01*
X203633508Y-89060714D01*
X203562080Y-88917857D01*
X203562080Y-88489285D01*
X203633508Y-88346428D01*
X203704937Y-88275000D01*
X203847794Y-88203571D01*
X204062080Y-88203571D01*
X204204937Y-88275000D01*
X204276365Y-88346428D01*
X204347794Y-88489285D01*
X204347794Y-88917857D01*
X204276365Y-89060714D01*
X204204937Y-89132142D01*
X204062080Y-89203571D01*
X203847794Y-89203571D01*
X205204937Y-89203571D02*
X205062080Y-89132142D01*
X204990651Y-88989285D01*
X204990651Y-87703571D01*
X206419222Y-89203571D02*
X206419222Y-87703571D01*
X206419222Y-89132142D02*
X206276365Y-89203571D01*
X205990651Y-89203571D01*
X205847794Y-89132142D01*
X205776365Y-89060714D01*
X205704937Y-88917857D01*
X205704937Y-88489285D01*
X205776365Y-88346428D01*
X205847794Y-88275000D01*
X205990651Y-88203571D01*
X206276365Y-88203571D01*
X206419222Y-88275000D01*
X207704937Y-89132142D02*
X207562080Y-89203571D01*
X207276365Y-89203571D01*
X207133508Y-89132142D01*
X207062080Y-88989285D01*
X207062080Y-88417857D01*
X207133508Y-88275000D01*
X207276365Y-88203571D01*
X207562080Y-88203571D01*
X207704937Y-88275000D01*
X207776365Y-88417857D01*
X207776365Y-88560714D01*
X207062080Y-88703571D01*
X208419222Y-89203571D02*
X208419222Y-88203571D01*
X208419222Y-88489285D02*
X208490651Y-88346428D01*
X208562080Y-88275000D01*
X208704937Y-88203571D01*
X208847794Y-88203571D01*
X209347794Y-89203571D02*
X209347794Y-88203571D01*
X209347794Y-88346428D02*
X209419222Y-88275000D01*
X209562080Y-88203571D01*
X209776365Y-88203571D01*
X209919222Y-88275000D01*
X209990651Y-88417857D01*
X209990651Y-89203571D01*
X209990651Y-88417857D02*
X210062080Y-88275000D01*
X210204937Y-88203571D01*
X210419222Y-88203571D01*
X210562080Y-88275000D01*
X210633508Y-88417857D01*
X210633508Y-89203571D01*
X211990651Y-89203571D02*
X211990651Y-88417857D01*
X211919222Y-88275000D01*
X211776365Y-88203571D01*
X211490651Y-88203571D01*
X211347794Y-88275000D01*
X211990651Y-89132142D02*
X211847794Y-89203571D01*
X211490651Y-89203571D01*
X211347794Y-89132142D01*
X211276365Y-88989285D01*
X211276365Y-88846428D01*
X211347794Y-88703571D01*
X211490651Y-88632142D01*
X211847794Y-88632142D01*
X211990651Y-88560714D01*
X212633508Y-89132142D02*
X212776365Y-89203571D01*
X213062080Y-89203571D01*
X213204937Y-89132142D01*
X213276365Y-88989285D01*
X213276365Y-88917857D01*
X213204937Y-88775000D01*
X213062080Y-88703571D01*
X212847794Y-88703571D01*
X212704937Y-88632142D01*
X212633508Y-88489285D01*
X212633508Y-88417857D01*
X212704937Y-88275000D01*
X212847794Y-88203571D01*
X213062080Y-88203571D01*
X213204937Y-88275000D01*
X213919222Y-89203571D02*
X213919222Y-87703571D01*
X214062080Y-88632142D02*
X214490651Y-89203571D01*
X214490651Y-88203571D02*
X213919222Y-88775000D01*
X216276365Y-89203571D02*
X216276365Y-87703571D01*
X216276365Y-88275000D02*
X216419222Y-88203571D01*
X216704937Y-88203571D01*
X216847794Y-88275000D01*
X216919222Y-88346428D01*
X216990651Y-88489285D01*
X216990651Y-88917857D01*
X216919222Y-89060714D01*
X216847794Y-89132142D01*
X216704937Y-89203571D01*
X216419222Y-89203571D01*
X216276365Y-89132142D01*
X217847794Y-89203571D02*
X217704937Y-89132142D01*
X217633508Y-89060714D01*
X217562080Y-88917857D01*
X217562080Y-88489285D01*
X217633508Y-88346428D01*
X217704937Y-88275000D01*
X217847794Y-88203571D01*
X218062080Y-88203571D01*
X218204937Y-88275000D01*
X218276365Y-88346428D01*
X218347794Y-88489285D01*
X218347794Y-88917857D01*
X218276365Y-89060714D01*
X218204937Y-89132142D01*
X218062080Y-89203571D01*
X217847794Y-89203571D01*
X218776365Y-88203571D02*
X219347794Y-88203571D01*
X218990651Y-87703571D02*
X218990651Y-88989285D01*
X219062080Y-89132142D01*
X219204937Y-89203571D01*
X219347794Y-89203571D01*
X219847794Y-89203571D02*
X219847794Y-87703571D01*
X220490651Y-89203571D02*
X220490651Y-88417857D01*
X220419222Y-88275000D01*
X220276365Y-88203571D01*
X220062080Y-88203571D01*
X219919222Y-88275000D01*
X219847794Y-88346428D01*
X222276365Y-89132142D02*
X222419222Y-89203571D01*
X222704937Y-89203571D01*
X222847794Y-89132142D01*
X222919222Y-88989285D01*
X222919222Y-88917857D01*
X222847794Y-88775000D01*
X222704937Y-88703571D01*
X222490651Y-88703571D01*
X222347794Y-88632142D01*
X222276365Y-88489285D01*
X222276365Y-88417857D01*
X222347794Y-88275000D01*
X222490651Y-88203571D01*
X222704937Y-88203571D01*
X222847794Y-88275000D01*
X223562080Y-89203571D02*
X223562080Y-88203571D01*
X223562080Y-87703571D02*
X223490651Y-87775000D01*
X223562080Y-87846428D01*
X223633508Y-87775000D01*
X223562080Y-87703571D01*
X223562080Y-87846428D01*
X224919222Y-89203571D02*
X224919222Y-87703571D01*
X224919222Y-89132142D02*
X224776365Y-89203571D01*
X224490651Y-89203571D01*
X224347794Y-89132142D01*
X224276365Y-89060714D01*
X224204937Y-88917857D01*
X224204937Y-88489285D01*
X224276365Y-88346428D01*
X224347794Y-88275000D01*
X224490651Y-88203571D01*
X224776365Y-88203571D01*
X224919222Y-88275000D01*
X226204937Y-89132142D02*
X226062080Y-89203571D01*
X225776365Y-89203571D01*
X225633508Y-89132142D01*
X225562080Y-88989285D01*
X225562080Y-88417857D01*
X225633508Y-88275000D01*
X225776365Y-88203571D01*
X226062080Y-88203571D01*
X226204937Y-88275000D01*
X226276365Y-88417857D01*
X226276365Y-88560714D01*
X225562080Y-88703571D01*
X226847794Y-89132142D02*
X226990651Y-89203571D01*
X227276365Y-89203571D01*
X227419222Y-89132142D01*
X227490651Y-88989285D01*
X227490651Y-88917857D01*
X227419222Y-88775000D01*
X227276365Y-88703571D01*
X227062080Y-88703571D01*
X226919222Y-88632142D01*
X226847794Y-88489285D01*
X226847794Y-88417857D01*
X226919222Y-88275000D01*
X227062080Y-88203571D01*
X227276365Y-88203571D01*
X227419222Y-88275000D01*
X229704937Y-89775000D02*
X229633508Y-89703571D01*
X229490651Y-89489285D01*
X229419222Y-89346428D01*
X229347794Y-89132142D01*
X229276365Y-88775000D01*
X229276365Y-88489285D01*
X229347794Y-88132142D01*
X229419222Y-87917857D01*
X229490651Y-87775000D01*
X229633508Y-87560714D01*
X229704937Y-87489285D01*
X230919222Y-88203571D02*
X230919222Y-89417857D01*
X230847794Y-89560714D01*
X230776365Y-89632142D01*
X230633508Y-89703571D01*
X230419222Y-89703571D01*
X230276365Y-89632142D01*
X230919222Y-89132142D02*
X230776365Y-89203571D01*
X230490651Y-89203571D01*
X230347794Y-89132142D01*
X230276365Y-89060714D01*
X230204937Y-88917857D01*
X230204937Y-88489285D01*
X230276365Y-88346428D01*
X230347794Y-88275000D01*
X230490651Y-88203571D01*
X230776365Y-88203571D01*
X230919222Y-88275000D01*
X231633508Y-89203571D02*
X231633508Y-88203571D01*
X231633508Y-88489285D02*
X231704937Y-88346428D01*
X231776365Y-88275000D01*
X231919222Y-88203571D01*
X232062080Y-88203571D01*
X233133508Y-89132142D02*
X232990651Y-89203571D01*
X232704937Y-89203571D01*
X232562080Y-89132142D01*
X232490651Y-88989285D01*
X232490651Y-88417857D01*
X232562080Y-88275000D01*
X232704937Y-88203571D01*
X232990651Y-88203571D01*
X233133508Y-88275000D01*
X233204937Y-88417857D01*
X233204937Y-88560714D01*
X232490651Y-88703571D01*
X234419222Y-89132142D02*
X234276365Y-89203571D01*
X233990651Y-89203571D01*
X233847794Y-89132142D01*
X233776365Y-88989285D01*
X233776365Y-88417857D01*
X233847794Y-88275000D01*
X233990651Y-88203571D01*
X234276365Y-88203571D01*
X234419222Y-88275000D01*
X234490651Y-88417857D01*
X234490651Y-88560714D01*
X233776365Y-88703571D01*
X235133508Y-88203571D02*
X235133508Y-89203571D01*
X235133508Y-88346428D02*
X235204937Y-88275000D01*
X235347794Y-88203571D01*
X235562080Y-88203571D01*
X235704937Y-88275000D01*
X235776365Y-88417857D01*
X235776365Y-89203571D01*
X236347794Y-89775000D02*
X236419222Y-89703571D01*
X236562080Y-89489285D01*
X236633508Y-89346428D01*
X236704937Y-89132142D01*
X236776365Y-88775000D01*
X236776365Y-88489285D01*
X236704937Y-88132142D01*
X236633508Y-87917857D01*
X236562080Y-87775000D01*
X236419222Y-87560714D01*
X236347794Y-87489285D01*
X202347794Y-91547142D02*
X202490651Y-91618571D01*
X202776365Y-91618571D01*
X202919222Y-91547142D01*
X202990651Y-91404285D01*
X202990651Y-91332857D01*
X202919222Y-91190000D01*
X202776365Y-91118571D01*
X202562080Y-91118571D01*
X202419222Y-91047142D01*
X202347794Y-90904285D01*
X202347794Y-90832857D01*
X202419222Y-90690000D01*
X202562080Y-90618571D01*
X202776365Y-90618571D01*
X202919222Y-90690000D01*
X203633508Y-91618571D02*
X203633508Y-90618571D01*
X203633508Y-90118571D02*
X203562080Y-90190000D01*
X203633508Y-90261428D01*
X203704937Y-90190000D01*
X203633508Y-90118571D01*
X203633508Y-90261428D01*
X204562080Y-91618571D02*
X204419222Y-91547142D01*
X204347794Y-91404285D01*
X204347794Y-90118571D01*
X205133508Y-91618571D02*
X205133508Y-90118571D01*
X205276365Y-91047142D02*
X205704937Y-91618571D01*
X205704937Y-90618571D02*
X205133508Y-91190000D01*
X206276365Y-91547142D02*
X206419222Y-91618571D01*
X206704937Y-91618571D01*
X206847794Y-91547142D01*
X206919222Y-91404285D01*
X206919222Y-91332857D01*
X206847794Y-91190000D01*
X206704937Y-91118571D01*
X206490651Y-91118571D01*
X206347794Y-91047142D01*
X206276365Y-90904285D01*
X206276365Y-90832857D01*
X206347794Y-90690000D01*
X206490651Y-90618571D01*
X206704937Y-90618571D01*
X206847794Y-90690000D01*
X208204937Y-91547142D02*
X208062080Y-91618571D01*
X207776365Y-91618571D01*
X207633508Y-91547142D01*
X207562080Y-91475714D01*
X207490651Y-91332857D01*
X207490651Y-90904285D01*
X207562080Y-90761428D01*
X207633508Y-90690000D01*
X207776365Y-90618571D01*
X208062080Y-90618571D01*
X208204937Y-90690000D01*
X208847794Y-91618571D02*
X208847794Y-90618571D01*
X208847794Y-90904285D02*
X208919222Y-90761428D01*
X208990651Y-90690000D01*
X209133508Y-90618571D01*
X209276365Y-90618571D01*
X210347794Y-91547142D02*
X210204937Y-91618571D01*
X209919222Y-91618571D01*
X209776365Y-91547142D01*
X209704937Y-91404285D01*
X209704937Y-90832857D01*
X209776365Y-90690000D01*
X209919222Y-90618571D01*
X210204937Y-90618571D01*
X210347794Y-90690000D01*
X210419222Y-90832857D01*
X210419222Y-90975714D01*
X209704937Y-91118571D01*
X211633508Y-91547142D02*
X211490651Y-91618571D01*
X211204937Y-91618571D01*
X211062080Y-91547142D01*
X210990651Y-91404285D01*
X210990651Y-90832857D01*
X211062080Y-90690000D01*
X211204937Y-90618571D01*
X211490651Y-90618571D01*
X211633508Y-90690000D01*
X211704937Y-90832857D01*
X211704937Y-90975714D01*
X210990651Y-91118571D01*
X212347794Y-90618571D02*
X212347794Y-91618571D01*
X212347794Y-90761428D02*
X212419222Y-90690000D01*
X212562080Y-90618571D01*
X212776365Y-90618571D01*
X212919222Y-90690000D01*
X212990651Y-90832857D01*
X212990651Y-91618571D01*
X215062080Y-91618571D02*
X214919222Y-91547142D01*
X214847794Y-91404285D01*
X214847794Y-90118571D01*
X216204937Y-91547142D02*
X216062080Y-91618571D01*
X215776365Y-91618571D01*
X215633508Y-91547142D01*
X215562080Y-91404285D01*
X215562080Y-90832857D01*
X215633508Y-90690000D01*
X215776365Y-90618571D01*
X216062080Y-90618571D01*
X216204937Y-90690000D01*
X216276365Y-90832857D01*
X216276365Y-90975714D01*
X215562080Y-91118571D01*
X217562080Y-90618571D02*
X217562080Y-91832857D01*
X217490651Y-91975714D01*
X217419222Y-92047142D01*
X217276365Y-92118571D01*
X217062080Y-92118571D01*
X216919222Y-92047142D01*
X217562080Y-91547142D02*
X217419222Y-91618571D01*
X217133508Y-91618571D01*
X216990651Y-91547142D01*
X216919222Y-91475714D01*
X216847794Y-91332857D01*
X216847794Y-90904285D01*
X216919222Y-90761428D01*
X216990651Y-90690000D01*
X217133508Y-90618571D01*
X217419222Y-90618571D01*
X217562080Y-90690000D01*
X218847794Y-91547142D02*
X218704937Y-91618571D01*
X218419222Y-91618571D01*
X218276365Y-91547142D01*
X218204937Y-91404285D01*
X218204937Y-90832857D01*
X218276365Y-90690000D01*
X218419222Y-90618571D01*
X218704937Y-90618571D01*
X218847794Y-90690000D01*
X218919222Y-90832857D01*
X218919222Y-90975714D01*
X218204937Y-91118571D01*
X219562080Y-90618571D02*
X219562080Y-91618571D01*
X219562080Y-90761428D02*
X219633508Y-90690000D01*
X219776365Y-90618571D01*
X219990651Y-90618571D01*
X220133508Y-90690000D01*
X220204937Y-90832857D01*
X220204937Y-91618571D01*
X221562080Y-91618571D02*
X221562080Y-90118571D01*
X221562080Y-91547142D02*
X221419222Y-91618571D01*
X221133508Y-91618571D01*
X220990651Y-91547142D01*
X220919222Y-91475714D01*
X220847794Y-91332857D01*
X220847794Y-90904285D01*
X220919222Y-90761428D01*
X220990651Y-90690000D01*
X221133508Y-90618571D01*
X221419222Y-90618571D01*
X221562080Y-90690000D01*
X223419222Y-91618571D02*
X223419222Y-90118571D01*
X223419222Y-90690000D02*
X223562080Y-90618571D01*
X223847794Y-90618571D01*
X223990651Y-90690000D01*
X224062080Y-90761428D01*
X224133508Y-90904285D01*
X224133508Y-91332857D01*
X224062080Y-91475714D01*
X223990651Y-91547142D01*
X223847794Y-91618571D01*
X223562080Y-91618571D01*
X223419222Y-91547142D01*
X224990651Y-91618571D02*
X224847794Y-91547142D01*
X224776365Y-91475714D01*
X224704937Y-91332857D01*
X224704937Y-90904285D01*
X224776365Y-90761428D01*
X224847794Y-90690000D01*
X224990651Y-90618571D01*
X225204937Y-90618571D01*
X225347794Y-90690000D01*
X225419222Y-90761428D01*
X225490651Y-90904285D01*
X225490651Y-91332857D01*
X225419222Y-91475714D01*
X225347794Y-91547142D01*
X225204937Y-91618571D01*
X224990651Y-91618571D01*
X225919222Y-90618571D02*
X226490651Y-90618571D01*
X226133508Y-90118571D02*
X226133508Y-91404285D01*
X226204937Y-91547142D01*
X226347794Y-91618571D01*
X226490651Y-91618571D01*
X226990651Y-91618571D02*
X226990651Y-90118571D01*
X227633508Y-91618571D02*
X227633508Y-90832857D01*
X227562080Y-90690000D01*
X227419222Y-90618571D01*
X227204937Y-90618571D01*
X227062080Y-90690000D01*
X226990651Y-90761428D01*
X229419222Y-91547142D02*
X229562080Y-91618571D01*
X229847794Y-91618571D01*
X229990651Y-91547142D01*
X230062080Y-91404285D01*
X230062080Y-91332857D01*
X229990651Y-91190000D01*
X229847794Y-91118571D01*
X229633508Y-91118571D01*
X229490651Y-91047142D01*
X229419222Y-90904285D01*
X229419222Y-90832857D01*
X229490651Y-90690000D01*
X229633508Y-90618571D01*
X229847794Y-90618571D01*
X229990651Y-90690000D01*
X230704937Y-91618571D02*
X230704937Y-90618571D01*
X230704937Y-90118571D02*
X230633508Y-90190000D01*
X230704937Y-90261428D01*
X230776365Y-90190000D01*
X230704937Y-90118571D01*
X230704937Y-90261428D01*
X232062080Y-91618571D02*
X232062080Y-90118571D01*
X232062080Y-91547142D02*
X231919222Y-91618571D01*
X231633508Y-91618571D01*
X231490651Y-91547142D01*
X231419222Y-91475714D01*
X231347794Y-91332857D01*
X231347794Y-90904285D01*
X231419222Y-90761428D01*
X231490651Y-90690000D01*
X231633508Y-90618571D01*
X231919222Y-90618571D01*
X232062080Y-90690000D01*
X233347794Y-91547142D02*
X233204937Y-91618571D01*
X232919222Y-91618571D01*
X232776365Y-91547142D01*
X232704937Y-91404285D01*
X232704937Y-90832857D01*
X232776365Y-90690000D01*
X232919222Y-90618571D01*
X233204937Y-90618571D01*
X233347794Y-90690000D01*
X233419222Y-90832857D01*
X233419222Y-90975714D01*
X232704937Y-91118571D01*
X233990651Y-91547142D02*
X234133508Y-91618571D01*
X234419222Y-91618571D01*
X234562080Y-91547142D01*
X234633508Y-91404285D01*
X234633508Y-91332857D01*
X234562080Y-91190000D01*
X234419222Y-91118571D01*
X234204937Y-91118571D01*
X234062080Y-91047142D01*
X233990651Y-90904285D01*
X233990651Y-90832857D01*
X234062080Y-90690000D01*
X234204937Y-90618571D01*
X234419222Y-90618571D01*
X234562080Y-90690000D01*
X236847794Y-92190000D02*
X236776365Y-92118571D01*
X236633508Y-91904285D01*
X236562080Y-91761428D01*
X236490651Y-91547142D01*
X236419222Y-91190000D01*
X236419222Y-90904285D01*
X236490651Y-90547142D01*
X236562080Y-90332857D01*
X236633508Y-90190000D01*
X236776365Y-89975714D01*
X236847794Y-89904285D01*
X237276365Y-90618571D02*
X237562080Y-91618571D01*
X237847794Y-90904285D01*
X238133508Y-91618571D01*
X238419222Y-90618571D01*
X238990651Y-91618571D02*
X238990651Y-90118571D01*
X239633508Y-91618571D02*
X239633508Y-90832857D01*
X239562080Y-90690000D01*
X239419222Y-90618571D01*
X239204937Y-90618571D01*
X239062080Y-90690000D01*
X238990651Y-90761428D01*
X240347794Y-91618571D02*
X240347794Y-90618571D01*
X240347794Y-90118571D02*
X240276365Y-90190000D01*
X240347794Y-90261428D01*
X240419222Y-90190000D01*
X240347794Y-90118571D01*
X240347794Y-90261428D01*
X240847794Y-90618571D02*
X241419222Y-90618571D01*
X241062080Y-90118571D02*
X241062080Y-91404285D01*
X241133508Y-91547142D01*
X241276365Y-91618571D01*
X241419222Y-91618571D01*
X242490651Y-91547142D02*
X242347794Y-91618571D01*
X242062080Y-91618571D01*
X241919222Y-91547142D01*
X241847794Y-91404285D01*
X241847794Y-90832857D01*
X241919222Y-90690000D01*
X242062080Y-90618571D01*
X242347794Y-90618571D01*
X242490651Y-90690000D01*
X242562080Y-90832857D01*
X242562080Y-90975714D01*
X241847794Y-91118571D01*
X243062080Y-92190000D02*
X243133508Y-92118571D01*
X243276365Y-91904285D01*
X243347794Y-91761428D01*
X243419222Y-91547142D01*
X243490651Y-91190000D01*
X243490651Y-90904285D01*
X243419222Y-90547142D01*
X243347794Y-90332857D01*
X243276365Y-90190000D01*
X243133508Y-89975714D01*
X243062080Y-89904285D01*
M02*
