%TF.GenerationSoftware,KiCad,Pcbnew,(6.0.7-1)-1*%
%TF.CreationDate,2022-09-01T15:03:24-04:00*%
%TF.ProjectId,eVolver_pwm,65566f6c-7665-4725-9f70-776d2e6b6963,rev?*%
%TF.SameCoordinates,Original*%
%TF.FileFunction,Soldermask,Top*%
%TF.FilePolarity,Negative*%
%FSLAX46Y46*%
G04 Gerber Fmt 4.6, Leading zero omitted, Abs format (unit mm)*
G04 Created by KiCad (PCBNEW (6.0.7-1)-1) date 2022-09-01 15:03:24*
%MOMM*%
%LPD*%
G01*
G04 APERTURE LIST*
G04 Aperture macros list*
%AMRoundRect*
0 Rectangle with rounded corners*
0 $1 Rounding radius*
0 $2 $3 $4 $5 $6 $7 $8 $9 X,Y pos of 4 corners*
0 Add a 4 corners polygon primitive as box body*
4,1,4,$2,$3,$4,$5,$6,$7,$8,$9,$2,$3,0*
0 Add four circle primitives for the rounded corners*
1,1,$1+$1,$2,$3*
1,1,$1+$1,$4,$5*
1,1,$1+$1,$6,$7*
1,1,$1+$1,$8,$9*
0 Add four rect primitives between the rounded corners*
20,1,$1+$1,$2,$3,$4,$5,0*
20,1,$1+$1,$4,$5,$6,$7,0*
20,1,$1+$1,$6,$7,$8,$9,0*
20,1,$1+$1,$8,$9,$2,$3,0*%
G04 Aperture macros list end*
%ADD10RoundRect,0.025400X0.300000X0.250000X-0.300000X0.250000X-0.300000X-0.250000X0.300000X-0.250000X0*%
%ADD11RoundRect,0.025400X0.250000X-0.300000X0.250000X0.300000X-0.250000X0.300000X-0.250000X-0.300000X0*%
%ADD12RoundRect,0.025400X-0.300000X-0.250000X0.300000X-0.250000X0.300000X0.250000X-0.300000X0.250000X0*%
%ADD13RoundRect,0.025400X0.200000X0.300000X-0.200000X0.300000X-0.200000X-0.300000X0.200000X-0.300000X0*%
%ADD14RoundRect,0.025400X-0.200000X-0.300000X0.200000X-0.300000X0.200000X0.300000X-0.200000X0.300000X0*%
%ADD15RoundRect,0.025400X1.250000X-0.475000X1.250000X0.475000X-1.250000X0.475000X-1.250000X-0.475000X0*%
%ADD16RoundRect,0.025400X1.250000X-1.650000X1.250000X1.650000X-1.250000X1.650000X-1.250000X-1.650000X0*%
%ADD17RoundRect,0.025400X-0.400000X-0.500000X0.400000X-0.500000X0.400000X0.500000X-0.400000X0.500000X0*%
%ADD18RoundRect,0.025400X0.500000X-0.400000X0.500000X0.400000X-0.500000X0.400000X-0.500000X-0.400000X0*%
%ADD19RoundRect,0.025400X-0.500000X0.400000X-0.500000X-0.400000X0.500000X-0.400000X0.500000X0.400000X0*%
%ADD20RoundRect,0.087900X-0.062500X0.375000X-0.062500X-0.375000X0.062500X-0.375000X0.062500X0.375000X0*%
%ADD21RoundRect,0.087900X-0.375000X0.062500X-0.375000X-0.062500X0.375000X-0.062500X0.375000X0.062500X0*%
%ADD22RoundRect,0.025400X-1.550000X1.550000X-1.550000X-1.550000X1.550000X-1.550000X1.550000X1.550000X0*%
%ADD23C,1.750800*%
G04 APERTURE END LIST*
D10*
%TO.C,C1*%
X169079000Y-73152000D03*
X167979000Y-73152000D03*
%TD*%
D11*
%TO.C,C2*%
X168910000Y-125645000D03*
X168910000Y-124545000D03*
%TD*%
D12*
%TO.C,C3*%
X180425000Y-119253000D03*
X181525000Y-119253000D03*
%TD*%
%TO.C,C4*%
X174964000Y-127000000D03*
X176064000Y-127000000D03*
%TD*%
D13*
%TO.C,R1*%
X169106000Y-77470000D03*
X168206000Y-77470000D03*
%TD*%
D14*
%TO.C,R2*%
X171254000Y-75565000D03*
X172154000Y-75565000D03*
%TD*%
D13*
%TO.C,R3*%
X169106000Y-82550000D03*
X168206000Y-82550000D03*
%TD*%
D14*
%TO.C,R4*%
X171254000Y-80645000D03*
X172154000Y-80645000D03*
%TD*%
D13*
%TO.C,R5*%
X169106000Y-87630000D03*
X168206000Y-87630000D03*
%TD*%
D14*
%TO.C,R6*%
X171254000Y-85725000D03*
X172154000Y-85725000D03*
%TD*%
D13*
%TO.C,R7*%
X169106000Y-92710000D03*
X168206000Y-92710000D03*
%TD*%
D14*
%TO.C,R8*%
X171254000Y-90805000D03*
X172154000Y-90805000D03*
%TD*%
D13*
%TO.C,R9*%
X169106000Y-97790000D03*
X168206000Y-97790000D03*
%TD*%
D14*
%TO.C,R10*%
X171254000Y-95885000D03*
X172154000Y-95885000D03*
%TD*%
D13*
%TO.C,R11*%
X169106000Y-102870000D03*
X168206000Y-102870000D03*
%TD*%
D14*
%TO.C,R12*%
X171254000Y-100965000D03*
X172154000Y-100965000D03*
%TD*%
D13*
%TO.C,R13*%
X169106000Y-107950000D03*
X168206000Y-107950000D03*
%TD*%
D14*
%TO.C,R14*%
X171254000Y-106045000D03*
X172154000Y-106045000D03*
%TD*%
D13*
%TO.C,R15*%
X169106000Y-113030000D03*
X168206000Y-113030000D03*
%TD*%
D14*
%TO.C,R16*%
X171254000Y-111125000D03*
X172154000Y-111125000D03*
%TD*%
%TO.C,R17*%
X168460000Y-130175000D03*
X169360000Y-130175000D03*
%TD*%
D15*
%TO.C,U1*%
X178435000Y-125490000D03*
X178435000Y-123190000D03*
X178435000Y-120890000D03*
D16*
X172635000Y-123190000D03*
%TD*%
D17*
%TO.C,D1*%
X160020000Y-72530000D03*
X160970000Y-74930000D03*
X159070000Y-74930000D03*
%TD*%
%TO.C,D2*%
X180340000Y-72530000D03*
X181290000Y-74930000D03*
X179390000Y-74930000D03*
%TD*%
%TO.C,D3*%
X160020000Y-77610000D03*
X160970000Y-80010000D03*
X159070000Y-80010000D03*
%TD*%
%TO.C,D5*%
X160020000Y-82690000D03*
X160970000Y-85090000D03*
X159070000Y-85090000D03*
%TD*%
%TO.C,D6*%
X180340000Y-82690000D03*
X181290000Y-85090000D03*
X179390000Y-85090000D03*
%TD*%
%TO.C,D7*%
X160020000Y-87770000D03*
X160970000Y-90170000D03*
X159070000Y-90170000D03*
%TD*%
%TO.C,D8*%
X180340000Y-87770000D03*
X181290000Y-90170000D03*
X179390000Y-90170000D03*
%TD*%
%TO.C,D9*%
X160020000Y-92850000D03*
X160970000Y-95250000D03*
X159070000Y-95250000D03*
%TD*%
%TO.C,D10*%
X180340000Y-92850000D03*
X181290000Y-95250000D03*
X179390000Y-95250000D03*
%TD*%
%TO.C,D11*%
X160020000Y-97930000D03*
X160970000Y-100330000D03*
X159070000Y-100330000D03*
%TD*%
%TO.C,D12*%
X180340000Y-97930000D03*
X181290000Y-100330000D03*
X179390000Y-100330000D03*
%TD*%
%TO.C,D13*%
X160020000Y-103010000D03*
X160970000Y-105410000D03*
X159070000Y-105410000D03*
%TD*%
%TO.C,D15*%
X160020000Y-108090000D03*
X160970000Y-110490000D03*
X159070000Y-110490000D03*
%TD*%
%TO.C,D16*%
X180340000Y-108090000D03*
X181290000Y-110490000D03*
X179390000Y-110490000D03*
%TD*%
D18*
%TO.C,Q1*%
X166370000Y-77150000D03*
X166370000Y-75250000D03*
X163970000Y-76200000D03*
%TD*%
D19*
%TO.C,Q2*%
X173990000Y-75250000D03*
X173990000Y-77150000D03*
X176390000Y-76200000D03*
%TD*%
D18*
%TO.C,Q3*%
X166370000Y-82230000D03*
X166370000Y-80330000D03*
X163970000Y-81280000D03*
%TD*%
D19*
%TO.C,Q4*%
X173990000Y-80330000D03*
X173990000Y-82230000D03*
X176390000Y-81280000D03*
%TD*%
D18*
%TO.C,Q5*%
X166370000Y-87310000D03*
X166370000Y-85410000D03*
X163970000Y-86360000D03*
%TD*%
D19*
%TO.C,Q6*%
X173990000Y-85410000D03*
X173990000Y-87310000D03*
X176390000Y-86360000D03*
%TD*%
D18*
%TO.C,Q7*%
X166370000Y-92390000D03*
X166370000Y-90490000D03*
X163970000Y-91440000D03*
%TD*%
D19*
%TO.C,Q8*%
X173990000Y-90490000D03*
X173990000Y-92390000D03*
X176390000Y-91440000D03*
%TD*%
D18*
%TO.C,Q9*%
X166370000Y-97470000D03*
X166370000Y-95570000D03*
X163970000Y-96520000D03*
%TD*%
D19*
%TO.C,Q10*%
X173990000Y-95570000D03*
X173990000Y-97470000D03*
X176390000Y-96520000D03*
%TD*%
D18*
%TO.C,Q11*%
X166370000Y-102550000D03*
X166370000Y-100650000D03*
X163970000Y-101600000D03*
%TD*%
D19*
%TO.C,Q12*%
X173990000Y-100650000D03*
X173990000Y-102550000D03*
X176390000Y-101600000D03*
%TD*%
D18*
%TO.C,Q13*%
X166370000Y-107630000D03*
X166370000Y-105730000D03*
X163970000Y-106680000D03*
%TD*%
D19*
%TO.C,Q14*%
X173990000Y-105730000D03*
X173990000Y-107630000D03*
X176390000Y-106680000D03*
%TD*%
D18*
%TO.C,Q15*%
X166370000Y-112710000D03*
X166370000Y-110810000D03*
X163970000Y-111760000D03*
%TD*%
D19*
%TO.C,Q16*%
X173990000Y-110810000D03*
X173990000Y-112710000D03*
X176390000Y-111760000D03*
%TD*%
D10*
%TO.C,C5*%
X162094000Y-130175000D03*
X160994000Y-130175000D03*
%TD*%
D17*
%TO.C,D4*%
X180340000Y-77610000D03*
X181290000Y-80010000D03*
X179390000Y-80010000D03*
%TD*%
D12*
%TO.C,C6*%
X172170000Y-130175000D03*
X173270000Y-130175000D03*
%TD*%
D10*
%TO.C,C7*%
X182160000Y-130175000D03*
X181060000Y-130175000D03*
%TD*%
D12*
%TO.C,C8*%
X175980000Y-130175000D03*
X177080000Y-130175000D03*
%TD*%
%TO.C,C9*%
X171408000Y-114427000D03*
X172508000Y-114427000D03*
%TD*%
D17*
%TO.C,D14*%
X180340000Y-103010000D03*
X181290000Y-105410000D03*
X179390000Y-105410000D03*
%TD*%
D13*
%TO.C,R18*%
X165550000Y-130175000D03*
X164650000Y-130175000D03*
%TD*%
D11*
%TO.C,C10*%
X168910000Y-95165000D03*
X168910000Y-94065000D03*
%TD*%
D20*
%TO.C,U2*%
X165199000Y-119609500D03*
X164699000Y-119609500D03*
X164199000Y-119609500D03*
X163699000Y-119609500D03*
X163199000Y-119609500D03*
X162699000Y-119609500D03*
X162199000Y-119609500D03*
X161699000Y-119609500D03*
D21*
X161011500Y-120297000D03*
X161011500Y-120797000D03*
X161011500Y-121297000D03*
X161011500Y-121797000D03*
X161011500Y-122297000D03*
X161011500Y-122797000D03*
X161011500Y-123297000D03*
X161011500Y-123797000D03*
D20*
X161699000Y-124484500D03*
X162199000Y-124484500D03*
X162699000Y-124484500D03*
X163199000Y-124484500D03*
X163699000Y-124484500D03*
X164199000Y-124484500D03*
X164699000Y-124484500D03*
X165199000Y-124484500D03*
D21*
X165886500Y-123797000D03*
X165886500Y-123297000D03*
X165886500Y-122797000D03*
X165886500Y-122297000D03*
X165886500Y-121797000D03*
X165886500Y-121297000D03*
X165886500Y-120797000D03*
X165886500Y-120297000D03*
D22*
X163449000Y-122047000D03*
%TD*%
D23*
%TO.C,P1*%
X156210000Y-73660000D03*
X156210000Y-76200000D03*
X156210000Y-78740000D03*
X156210000Y-81280000D03*
X156210000Y-83820000D03*
X156210000Y-86360000D03*
X156210000Y-88900000D03*
X156210000Y-91440000D03*
X156210000Y-93980000D03*
X156210000Y-96520000D03*
X156210000Y-99060000D03*
X156210000Y-101600000D03*
X156210000Y-104140000D03*
X156210000Y-106680000D03*
X156210000Y-109220000D03*
X156210000Y-111760000D03*
X156210000Y-114300000D03*
X156210000Y-116840000D03*
X156210000Y-119380000D03*
X156210000Y-121920000D03*
X156210000Y-124460000D03*
X156210000Y-127000000D03*
X156210000Y-129540000D03*
X156210000Y-132080000D03*
X156210000Y-134620000D03*
%TD*%
%TO.C,P2*%
X184150000Y-73660000D03*
X184150000Y-76200000D03*
X184150000Y-78740000D03*
X184150000Y-81280000D03*
X184150000Y-83820000D03*
X184150000Y-86360000D03*
X184150000Y-88900000D03*
X184150000Y-91440000D03*
X184150000Y-93980000D03*
X184150000Y-96520000D03*
X184150000Y-99060000D03*
X184150000Y-101600000D03*
X184150000Y-104140000D03*
X184150000Y-106680000D03*
X184150000Y-109220000D03*
X184150000Y-111760000D03*
X184150000Y-114300000D03*
X184150000Y-116840000D03*
X184150000Y-119380000D03*
X184150000Y-121920000D03*
X184150000Y-124460000D03*
X184150000Y-127000000D03*
X184150000Y-129540000D03*
X184150000Y-132080000D03*
X184150000Y-134620000D03*
%TD*%
%TO.C,P3*%
X181610000Y-132080000D03*
X179070000Y-132080000D03*
X176530000Y-132080000D03*
X173990000Y-132080000D03*
X171450000Y-132080000D03*
X168910000Y-132080000D03*
X166370000Y-132080000D03*
X163830000Y-132080000D03*
X161290000Y-132080000D03*
X158750000Y-132080000D03*
%TD*%
%TO.C,P4*%
X158750000Y-134620000D03*
X161290000Y-134620000D03*
X163830000Y-134620000D03*
X166370000Y-134620000D03*
X168910000Y-134620000D03*
X171450000Y-134620000D03*
X173990000Y-134620000D03*
X176530000Y-134620000D03*
X179070000Y-134620000D03*
X181610000Y-134620000D03*
%TD*%
M02*
