G04 #@! TF.FileFunction,Copper,L3,Inr,Plane*
%FSLAX46Y46*%
G04 Gerber Fmt 4.6, Leading zero omitted, Abs format (unit mm)*
G04 Created by KiCad (PCBNEW 4.0.7) date Monday, October 08, 2018 'PMt' 05:16:59 PM*
%MOMM*%
%LPD*%
G01*
G04 APERTURE LIST*
%ADD10C,0.100000*%
%ADD11C,1.700000*%
%ADD12C,0.406400*%
%ADD13C,0.635000*%
%ADD14C,0.889000*%
%ADD15C,0.127000*%
G04 APERTURE END LIST*
D10*
D11*
X156210000Y-73660000D03*
X156210000Y-76200000D03*
X156210000Y-78740000D03*
X156210000Y-81280000D03*
X156210000Y-83820000D03*
X156210000Y-86360000D03*
X156210000Y-88900000D03*
X156210000Y-91440000D03*
X156210000Y-93980000D03*
X156210000Y-96520000D03*
X156210000Y-99060000D03*
X156210000Y-101600000D03*
X156210000Y-104140000D03*
X156210000Y-106680000D03*
X156210000Y-109220000D03*
X156210000Y-111760000D03*
X156210000Y-114300000D03*
X156210000Y-116840000D03*
X156210000Y-119380000D03*
X156210000Y-121920000D03*
X156210000Y-124460000D03*
X156210000Y-127000000D03*
X156210000Y-129540000D03*
X156210000Y-132080000D03*
X156210000Y-134620000D03*
X184150000Y-73660000D03*
X184150000Y-76200000D03*
X184150000Y-78740000D03*
X184150000Y-81280000D03*
X184150000Y-83820000D03*
X184150000Y-86360000D03*
X184150000Y-88900000D03*
X184150000Y-91440000D03*
X184150000Y-93980000D03*
X184150000Y-96520000D03*
X184150000Y-99060000D03*
X184150000Y-101600000D03*
X184150000Y-104140000D03*
X184150000Y-106680000D03*
X184150000Y-109220000D03*
X184150000Y-111760000D03*
X184150000Y-114300000D03*
X184150000Y-116840000D03*
X184150000Y-119380000D03*
X184150000Y-121920000D03*
X184150000Y-124460000D03*
X184150000Y-127000000D03*
X184150000Y-129540000D03*
X184150000Y-132080000D03*
X184150000Y-134620000D03*
X181610000Y-132080000D03*
X179070000Y-132080000D03*
X176530000Y-132080000D03*
X173990000Y-132080000D03*
X171450000Y-132080000D03*
X168910000Y-132080000D03*
X166370000Y-132080000D03*
X163830000Y-132080000D03*
X161290000Y-132080000D03*
X158750000Y-132080000D03*
X158750000Y-134620000D03*
X161290000Y-134620000D03*
X163830000Y-134620000D03*
X166370000Y-134620000D03*
X168910000Y-134620000D03*
X171450000Y-134620000D03*
X173990000Y-134620000D03*
X176530000Y-134620000D03*
X179070000Y-134620000D03*
X181610000Y-134620000D03*
D12*
X166370000Y-127508000D03*
X166370000Y-130175000D03*
D13*
X170180000Y-114935000D03*
X170180000Y-121285000D03*
X170180000Y-125730000D03*
D14*
X172720000Y-125730000D03*
X173990000Y-125730000D03*
X171450000Y-125730000D03*
X172720000Y-120650000D03*
X171450000Y-120650000D03*
X173990000Y-120650000D03*
D13*
X168021000Y-71882000D03*
X167640000Y-94234000D03*
X159639000Y-130175000D03*
X173736000Y-114427000D03*
X179070000Y-127000000D03*
X177800000Y-127000000D03*
X180340000Y-127000000D03*
X179705000Y-130175000D03*
X178435000Y-130175000D03*
X168910000Y-123190000D03*
D12*
X167640000Y-118110000D03*
X164465000Y-118110000D03*
D13*
X174371000Y-130175000D03*
X170307000Y-130175000D03*
X167640000Y-110490000D03*
X167640000Y-105410000D03*
X167640000Y-100330000D03*
X172720000Y-113030000D03*
X172720000Y-107950000D03*
X172720000Y-102870000D03*
X172720000Y-97790000D03*
X167640000Y-95250000D03*
X172720000Y-87630000D03*
X172720000Y-92710000D03*
X167640000Y-90170000D03*
X167640000Y-85090000D03*
X167640000Y-80010000D03*
X172720000Y-82550000D03*
X172720000Y-77470000D03*
X167640000Y-74930000D03*
X181610000Y-102870000D03*
X181610000Y-72390000D03*
X181610000Y-77470000D03*
X181610000Y-82550000D03*
X181610000Y-87630000D03*
X181610000Y-92710000D03*
X181610000Y-97790000D03*
X181610000Y-107950000D03*
X158750000Y-102870000D03*
X158750000Y-97790000D03*
X158750000Y-92710000D03*
X158750000Y-87630000D03*
X158750000Y-82550000D03*
X158750000Y-77470000D03*
X158750000Y-72390000D03*
X158750000Y-107950000D03*
D12*
X163830000Y-130175000D03*
X165735000Y-127508000D03*
X165735000Y-122555000D03*
X166370000Y-123190000D03*
X166370000Y-118110000D03*
X158750000Y-121920000D03*
X165735000Y-121920000D03*
X165735000Y-118110000D03*
X158750000Y-123190000D03*
X165100000Y-123190000D03*
X165100000Y-118110000D03*
X164973000Y-127508000D03*
X159385000Y-128905000D03*
X167005000Y-130175000D03*
X167005000Y-127508000D03*
X163830000Y-78740000D03*
X163830000Y-118110000D03*
X176530000Y-117475000D03*
X176530000Y-73660000D03*
X162560000Y-83820000D03*
X162560000Y-118110000D03*
X177800000Y-116840000D03*
X177800000Y-78740000D03*
X161290000Y-118110000D03*
X161290000Y-88900000D03*
X179070000Y-116205000D03*
X179070000Y-83820000D03*
X160020000Y-118110000D03*
X160020000Y-93980000D03*
X180340000Y-115570000D03*
X180340000Y-88900000D03*
X159385000Y-127508000D03*
X159385000Y-99060000D03*
X180975000Y-93980000D03*
X180975000Y-129540000D03*
X160655000Y-104140000D03*
X160655000Y-127508000D03*
X179705000Y-129032000D03*
X179705000Y-99060000D03*
X161925000Y-109220000D03*
X161925000Y-127508000D03*
X178435000Y-104140000D03*
X178435000Y-128524000D03*
X163195000Y-114300000D03*
X163195000Y-127508000D03*
X177165000Y-109220000D03*
X177165000Y-128016000D03*
X168910000Y-121602500D03*
X168910000Y-118110000D03*
X182880000Y-117475000D03*
D15*
G36*
X167385890Y-72007755D02*
X167482360Y-72241228D01*
X167660832Y-72420013D01*
X167894137Y-72516889D01*
X168146755Y-72517110D01*
X168380228Y-72420640D01*
X168559013Y-72242168D01*
X168655889Y-72008863D01*
X168656056Y-71818500D01*
X185991500Y-71818500D01*
X185991500Y-136461500D01*
X154368500Y-136461500D01*
X154368500Y-134851211D01*
X155042297Y-134851211D01*
X155219664Y-135280472D01*
X155547801Y-135609181D01*
X155976751Y-135787297D01*
X156441211Y-135787703D01*
X156870472Y-135610336D01*
X157199181Y-135282199D01*
X157377297Y-134853249D01*
X157377298Y-134851211D01*
X157582297Y-134851211D01*
X157759664Y-135280472D01*
X158087801Y-135609181D01*
X158516751Y-135787297D01*
X158981211Y-135787703D01*
X159410472Y-135610336D01*
X159739181Y-135282199D01*
X159917297Y-134853249D01*
X159917298Y-134851211D01*
X160122297Y-134851211D01*
X160299664Y-135280472D01*
X160627801Y-135609181D01*
X161056751Y-135787297D01*
X161521211Y-135787703D01*
X161950472Y-135610336D01*
X162279181Y-135282199D01*
X162457297Y-134853249D01*
X162457298Y-134851211D01*
X162662297Y-134851211D01*
X162839664Y-135280472D01*
X163167801Y-135609181D01*
X163596751Y-135787297D01*
X164061211Y-135787703D01*
X164490472Y-135610336D01*
X164819181Y-135282199D01*
X164997297Y-134853249D01*
X164997298Y-134851211D01*
X165202297Y-134851211D01*
X165379664Y-135280472D01*
X165707801Y-135609181D01*
X166136751Y-135787297D01*
X166601211Y-135787703D01*
X167030472Y-135610336D01*
X167359181Y-135282199D01*
X167537297Y-134853249D01*
X167537298Y-134851211D01*
X167742297Y-134851211D01*
X167919664Y-135280472D01*
X168247801Y-135609181D01*
X168676751Y-135787297D01*
X169141211Y-135787703D01*
X169570472Y-135610336D01*
X169899181Y-135282199D01*
X170077297Y-134853249D01*
X170077298Y-134851211D01*
X170282297Y-134851211D01*
X170459664Y-135280472D01*
X170787801Y-135609181D01*
X171216751Y-135787297D01*
X171681211Y-135787703D01*
X172110472Y-135610336D01*
X172439181Y-135282199D01*
X172617297Y-134853249D01*
X172617298Y-134851211D01*
X172822297Y-134851211D01*
X172999664Y-135280472D01*
X173327801Y-135609181D01*
X173756751Y-135787297D01*
X174221211Y-135787703D01*
X174650472Y-135610336D01*
X174979181Y-135282199D01*
X175157297Y-134853249D01*
X175157298Y-134851211D01*
X175362297Y-134851211D01*
X175539664Y-135280472D01*
X175867801Y-135609181D01*
X176296751Y-135787297D01*
X176761211Y-135787703D01*
X177190472Y-135610336D01*
X177519181Y-135282199D01*
X177697297Y-134853249D01*
X177697298Y-134851211D01*
X177902297Y-134851211D01*
X178079664Y-135280472D01*
X178407801Y-135609181D01*
X178836751Y-135787297D01*
X179301211Y-135787703D01*
X179730472Y-135610336D01*
X180059181Y-135282199D01*
X180237297Y-134853249D01*
X180237298Y-134851211D01*
X180442297Y-134851211D01*
X180619664Y-135280472D01*
X180947801Y-135609181D01*
X181376751Y-135787297D01*
X181841211Y-135787703D01*
X182270472Y-135610336D01*
X182599181Y-135282199D01*
X182777297Y-134853249D01*
X182777298Y-134851211D01*
X182982297Y-134851211D01*
X183159664Y-135280472D01*
X183487801Y-135609181D01*
X183916751Y-135787297D01*
X184381211Y-135787703D01*
X184810472Y-135610336D01*
X185139181Y-135282199D01*
X185317297Y-134853249D01*
X185317703Y-134388789D01*
X185140336Y-133959528D01*
X184812199Y-133630819D01*
X184383249Y-133452703D01*
X183918789Y-133452297D01*
X183489528Y-133629664D01*
X183160819Y-133957801D01*
X182982703Y-134386751D01*
X182982297Y-134851211D01*
X182777298Y-134851211D01*
X182777703Y-134388789D01*
X182600336Y-133959528D01*
X182272199Y-133630819D01*
X181843249Y-133452703D01*
X181378789Y-133452297D01*
X180949528Y-133629664D01*
X180620819Y-133957801D01*
X180442703Y-134386751D01*
X180442297Y-134851211D01*
X180237298Y-134851211D01*
X180237703Y-134388789D01*
X180060336Y-133959528D01*
X179732199Y-133630819D01*
X179303249Y-133452703D01*
X178838789Y-133452297D01*
X178409528Y-133629664D01*
X178080819Y-133957801D01*
X177902703Y-134386751D01*
X177902297Y-134851211D01*
X177697298Y-134851211D01*
X177697703Y-134388789D01*
X177520336Y-133959528D01*
X177192199Y-133630819D01*
X176763249Y-133452703D01*
X176298789Y-133452297D01*
X175869528Y-133629664D01*
X175540819Y-133957801D01*
X175362703Y-134386751D01*
X175362297Y-134851211D01*
X175157298Y-134851211D01*
X175157703Y-134388789D01*
X174980336Y-133959528D01*
X174652199Y-133630819D01*
X174223249Y-133452703D01*
X173758789Y-133452297D01*
X173329528Y-133629664D01*
X173000819Y-133957801D01*
X172822703Y-134386751D01*
X172822297Y-134851211D01*
X172617298Y-134851211D01*
X172617703Y-134388789D01*
X172440336Y-133959528D01*
X172112199Y-133630819D01*
X171683249Y-133452703D01*
X171218789Y-133452297D01*
X170789528Y-133629664D01*
X170460819Y-133957801D01*
X170282703Y-134386751D01*
X170282297Y-134851211D01*
X170077298Y-134851211D01*
X170077703Y-134388789D01*
X169900336Y-133959528D01*
X169572199Y-133630819D01*
X169143249Y-133452703D01*
X168678789Y-133452297D01*
X168249528Y-133629664D01*
X167920819Y-133957801D01*
X167742703Y-134386751D01*
X167742297Y-134851211D01*
X167537298Y-134851211D01*
X167537703Y-134388789D01*
X167360336Y-133959528D01*
X167032199Y-133630819D01*
X166603249Y-133452703D01*
X166138789Y-133452297D01*
X165709528Y-133629664D01*
X165380819Y-133957801D01*
X165202703Y-134386751D01*
X165202297Y-134851211D01*
X164997298Y-134851211D01*
X164997703Y-134388789D01*
X164820336Y-133959528D01*
X164492199Y-133630819D01*
X164063249Y-133452703D01*
X163598789Y-133452297D01*
X163169528Y-133629664D01*
X162840819Y-133957801D01*
X162662703Y-134386751D01*
X162662297Y-134851211D01*
X162457298Y-134851211D01*
X162457703Y-134388789D01*
X162280336Y-133959528D01*
X161952199Y-133630819D01*
X161523249Y-133452703D01*
X161058789Y-133452297D01*
X160629528Y-133629664D01*
X160300819Y-133957801D01*
X160122703Y-134386751D01*
X160122297Y-134851211D01*
X159917298Y-134851211D01*
X159917703Y-134388789D01*
X159740336Y-133959528D01*
X159412199Y-133630819D01*
X158983249Y-133452703D01*
X158518789Y-133452297D01*
X158089528Y-133629664D01*
X157760819Y-133957801D01*
X157582703Y-134386751D01*
X157582297Y-134851211D01*
X157377298Y-134851211D01*
X157377703Y-134388789D01*
X157200336Y-133959528D01*
X156872199Y-133630819D01*
X156443249Y-133452703D01*
X155978789Y-133452297D01*
X155549528Y-133629664D01*
X155220819Y-133957801D01*
X155042703Y-134386751D01*
X155042297Y-134851211D01*
X154368500Y-134851211D01*
X154368500Y-132311211D01*
X155042297Y-132311211D01*
X155219664Y-132740472D01*
X155547801Y-133069181D01*
X155976751Y-133247297D01*
X156441211Y-133247703D01*
X156870472Y-133070336D01*
X157031877Y-132909211D01*
X158010591Y-132909211D01*
X158102685Y-133078985D01*
X158534254Y-133250658D01*
X158998668Y-133244110D01*
X159397315Y-133078985D01*
X159489409Y-132909211D01*
X160550591Y-132909211D01*
X160642685Y-133078985D01*
X161074254Y-133250658D01*
X161538668Y-133244110D01*
X161937315Y-133078985D01*
X162029409Y-132909211D01*
X163090591Y-132909211D01*
X163182685Y-133078985D01*
X163614254Y-133250658D01*
X164078668Y-133244110D01*
X164477315Y-133078985D01*
X164569409Y-132909211D01*
X165630591Y-132909211D01*
X165722685Y-133078985D01*
X166154254Y-133250658D01*
X166618668Y-133244110D01*
X167017315Y-133078985D01*
X167109409Y-132909211D01*
X168170591Y-132909211D01*
X168262685Y-133078985D01*
X168694254Y-133250658D01*
X169158668Y-133244110D01*
X169557315Y-133078985D01*
X169649409Y-132909211D01*
X170710591Y-132909211D01*
X170802685Y-133078985D01*
X171234254Y-133250658D01*
X171698668Y-133244110D01*
X172097315Y-133078985D01*
X172189409Y-132909211D01*
X173250591Y-132909211D01*
X173342685Y-133078985D01*
X173774254Y-133250658D01*
X174238668Y-133244110D01*
X174637315Y-133078985D01*
X174729409Y-132909211D01*
X175790591Y-132909211D01*
X175882685Y-133078985D01*
X176314254Y-133250658D01*
X176778668Y-133244110D01*
X177177315Y-133078985D01*
X177269409Y-132909211D01*
X178330591Y-132909211D01*
X178422685Y-133078985D01*
X178854254Y-133250658D01*
X179318668Y-133244110D01*
X179717315Y-133078985D01*
X179809409Y-132909211D01*
X180870591Y-132909211D01*
X180962685Y-133078985D01*
X181394254Y-133250658D01*
X181858668Y-133244110D01*
X182257315Y-133078985D01*
X182349409Y-132909211D01*
X181610000Y-132169803D01*
X180870591Y-132909211D01*
X179809409Y-132909211D01*
X179070000Y-132169803D01*
X178330591Y-132909211D01*
X177269409Y-132909211D01*
X176530000Y-132169803D01*
X175790591Y-132909211D01*
X174729409Y-132909211D01*
X173990000Y-132169803D01*
X173250591Y-132909211D01*
X172189409Y-132909211D01*
X171450000Y-132169803D01*
X170710591Y-132909211D01*
X169649409Y-132909211D01*
X168910000Y-132169803D01*
X168170591Y-132909211D01*
X167109409Y-132909211D01*
X166370000Y-132169803D01*
X165630591Y-132909211D01*
X164569409Y-132909211D01*
X163830000Y-132169803D01*
X163090591Y-132909211D01*
X162029409Y-132909211D01*
X161290000Y-132169803D01*
X160550591Y-132909211D01*
X159489409Y-132909211D01*
X158750000Y-132169803D01*
X158010591Y-132909211D01*
X157031877Y-132909211D01*
X157199181Y-132742199D01*
X157377297Y-132313249D01*
X157377689Y-131864254D01*
X157579342Y-131864254D01*
X157585890Y-132328668D01*
X157751015Y-132727315D01*
X157920789Y-132819409D01*
X158660197Y-132080000D01*
X158839803Y-132080000D01*
X159579211Y-132819409D01*
X159748985Y-132727315D01*
X159920658Y-132295746D01*
X159914575Y-131864254D01*
X160119342Y-131864254D01*
X160125890Y-132328668D01*
X160291015Y-132727315D01*
X160460789Y-132819409D01*
X161200197Y-132080000D01*
X161379803Y-132080000D01*
X162119211Y-132819409D01*
X162288985Y-132727315D01*
X162460658Y-132295746D01*
X162454575Y-131864254D01*
X162659342Y-131864254D01*
X162665890Y-132328668D01*
X162831015Y-132727315D01*
X163000789Y-132819409D01*
X163740197Y-132080000D01*
X163919803Y-132080000D01*
X164659211Y-132819409D01*
X164828985Y-132727315D01*
X165000658Y-132295746D01*
X164994575Y-131864254D01*
X165199342Y-131864254D01*
X165205890Y-132328668D01*
X165371015Y-132727315D01*
X165540789Y-132819409D01*
X166280197Y-132080000D01*
X166459803Y-132080000D01*
X167199211Y-132819409D01*
X167368985Y-132727315D01*
X167540658Y-132295746D01*
X167534575Y-131864254D01*
X167739342Y-131864254D01*
X167745890Y-132328668D01*
X167911015Y-132727315D01*
X168080789Y-132819409D01*
X168820197Y-132080000D01*
X168999803Y-132080000D01*
X169739211Y-132819409D01*
X169908985Y-132727315D01*
X170080658Y-132295746D01*
X170074575Y-131864254D01*
X170279342Y-131864254D01*
X170285890Y-132328668D01*
X170451015Y-132727315D01*
X170620789Y-132819409D01*
X171360197Y-132080000D01*
X171539803Y-132080000D01*
X172279211Y-132819409D01*
X172448985Y-132727315D01*
X172620658Y-132295746D01*
X172614575Y-131864254D01*
X172819342Y-131864254D01*
X172825890Y-132328668D01*
X172991015Y-132727315D01*
X173160789Y-132819409D01*
X173900197Y-132080000D01*
X174079803Y-132080000D01*
X174819211Y-132819409D01*
X174988985Y-132727315D01*
X175160658Y-132295746D01*
X175154575Y-131864254D01*
X175359342Y-131864254D01*
X175365890Y-132328668D01*
X175531015Y-132727315D01*
X175700789Y-132819409D01*
X176440197Y-132080000D01*
X176619803Y-132080000D01*
X177359211Y-132819409D01*
X177528985Y-132727315D01*
X177700658Y-132295746D01*
X177694575Y-131864254D01*
X177899342Y-131864254D01*
X177905890Y-132328668D01*
X178071015Y-132727315D01*
X178240789Y-132819409D01*
X178980197Y-132080000D01*
X179159803Y-132080000D01*
X179899211Y-132819409D01*
X180068985Y-132727315D01*
X180240658Y-132295746D01*
X180234575Y-131864254D01*
X180439342Y-131864254D01*
X180445890Y-132328668D01*
X180611015Y-132727315D01*
X180780789Y-132819409D01*
X181520197Y-132080000D01*
X181699803Y-132080000D01*
X182439211Y-132819409D01*
X182608985Y-132727315D01*
X182774506Y-132311211D01*
X182982297Y-132311211D01*
X183159664Y-132740472D01*
X183487801Y-133069181D01*
X183916751Y-133247297D01*
X184381211Y-133247703D01*
X184810472Y-133070336D01*
X185139181Y-132742199D01*
X185317297Y-132313249D01*
X185317703Y-131848789D01*
X185140336Y-131419528D01*
X184812199Y-131090819D01*
X184383249Y-130912703D01*
X183918789Y-130912297D01*
X183489528Y-131089664D01*
X183160819Y-131417801D01*
X182982703Y-131846751D01*
X182982297Y-132311211D01*
X182774506Y-132311211D01*
X182780658Y-132295746D01*
X182774110Y-131831332D01*
X182608985Y-131432685D01*
X182439211Y-131340591D01*
X181699803Y-132080000D01*
X181520197Y-132080000D01*
X180780789Y-131340591D01*
X180611015Y-131432685D01*
X180439342Y-131864254D01*
X180234575Y-131864254D01*
X180234110Y-131831332D01*
X180068985Y-131432685D01*
X179899211Y-131340591D01*
X179159803Y-132080000D01*
X178980197Y-132080000D01*
X178240789Y-131340591D01*
X178071015Y-131432685D01*
X177899342Y-131864254D01*
X177694575Y-131864254D01*
X177694110Y-131831332D01*
X177528985Y-131432685D01*
X177359211Y-131340591D01*
X176619803Y-132080000D01*
X176440197Y-132080000D01*
X175700789Y-131340591D01*
X175531015Y-131432685D01*
X175359342Y-131864254D01*
X175154575Y-131864254D01*
X175154110Y-131831332D01*
X174988985Y-131432685D01*
X174819211Y-131340591D01*
X174079803Y-132080000D01*
X173900197Y-132080000D01*
X173160789Y-131340591D01*
X172991015Y-131432685D01*
X172819342Y-131864254D01*
X172614575Y-131864254D01*
X172614110Y-131831332D01*
X172448985Y-131432685D01*
X172279211Y-131340591D01*
X171539803Y-132080000D01*
X171360197Y-132080000D01*
X170620789Y-131340591D01*
X170451015Y-131432685D01*
X170279342Y-131864254D01*
X170074575Y-131864254D01*
X170074110Y-131831332D01*
X169908985Y-131432685D01*
X169739211Y-131340591D01*
X168999803Y-132080000D01*
X168820197Y-132080000D01*
X168080789Y-131340591D01*
X167911015Y-131432685D01*
X167739342Y-131864254D01*
X167534575Y-131864254D01*
X167534110Y-131831332D01*
X167368985Y-131432685D01*
X167199211Y-131340591D01*
X166459803Y-132080000D01*
X166280197Y-132080000D01*
X165540789Y-131340591D01*
X165371015Y-131432685D01*
X165199342Y-131864254D01*
X164994575Y-131864254D01*
X164994110Y-131831332D01*
X164828985Y-131432685D01*
X164659211Y-131340591D01*
X163919803Y-132080000D01*
X163740197Y-132080000D01*
X163000789Y-131340591D01*
X162831015Y-131432685D01*
X162659342Y-131864254D01*
X162454575Y-131864254D01*
X162454110Y-131831332D01*
X162288985Y-131432685D01*
X162119211Y-131340591D01*
X161379803Y-132080000D01*
X161200197Y-132080000D01*
X160460789Y-131340591D01*
X160291015Y-131432685D01*
X160119342Y-131864254D01*
X159914575Y-131864254D01*
X159914110Y-131831332D01*
X159748985Y-131432685D01*
X159579211Y-131340591D01*
X158839803Y-132080000D01*
X158660197Y-132080000D01*
X157920789Y-131340591D01*
X157751015Y-131432685D01*
X157579342Y-131864254D01*
X157377689Y-131864254D01*
X157377703Y-131848789D01*
X157200336Y-131419528D01*
X157031891Y-131250789D01*
X158010591Y-131250789D01*
X158750000Y-131990197D01*
X159489409Y-131250789D01*
X160550591Y-131250789D01*
X161290000Y-131990197D01*
X162029409Y-131250789D01*
X163090591Y-131250789D01*
X163830000Y-131990197D01*
X164569409Y-131250789D01*
X165630591Y-131250789D01*
X166370000Y-131990197D01*
X167109409Y-131250789D01*
X168170591Y-131250789D01*
X168910000Y-131990197D01*
X169649409Y-131250789D01*
X170710591Y-131250789D01*
X171450000Y-131990197D01*
X172189409Y-131250789D01*
X173250591Y-131250789D01*
X173990000Y-131990197D01*
X174729409Y-131250789D01*
X175790591Y-131250789D01*
X176530000Y-131990197D01*
X177269409Y-131250789D01*
X178330591Y-131250789D01*
X179070000Y-131990197D01*
X179809409Y-131250789D01*
X180870591Y-131250789D01*
X181610000Y-131990197D01*
X182349409Y-131250789D01*
X182257315Y-131081015D01*
X181825746Y-130909342D01*
X181361332Y-130915890D01*
X180962685Y-131081015D01*
X180870591Y-131250789D01*
X179809409Y-131250789D01*
X179717315Y-131081015D01*
X179285746Y-130909342D01*
X178821332Y-130915890D01*
X178422685Y-131081015D01*
X178330591Y-131250789D01*
X177269409Y-131250789D01*
X177177315Y-131081015D01*
X176745746Y-130909342D01*
X176281332Y-130915890D01*
X175882685Y-131081015D01*
X175790591Y-131250789D01*
X174729409Y-131250789D01*
X174637315Y-131081015D01*
X174205746Y-130909342D01*
X173741332Y-130915890D01*
X173342685Y-131081015D01*
X173250591Y-131250789D01*
X172189409Y-131250789D01*
X172097315Y-131081015D01*
X171665746Y-130909342D01*
X171201332Y-130915890D01*
X170802685Y-131081015D01*
X170710591Y-131250789D01*
X169649409Y-131250789D01*
X169557315Y-131081015D01*
X169125746Y-130909342D01*
X168661332Y-130915890D01*
X168262685Y-131081015D01*
X168170591Y-131250789D01*
X167109409Y-131250789D01*
X167017315Y-131081015D01*
X166585746Y-130909342D01*
X166121332Y-130915890D01*
X165722685Y-131081015D01*
X165630591Y-131250789D01*
X164569409Y-131250789D01*
X164477315Y-131081015D01*
X164045746Y-130909342D01*
X163581332Y-130915890D01*
X163182685Y-131081015D01*
X163090591Y-131250789D01*
X162029409Y-131250789D01*
X161937315Y-131081015D01*
X161505746Y-130909342D01*
X161041332Y-130915890D01*
X160642685Y-131081015D01*
X160550591Y-131250789D01*
X159489409Y-131250789D01*
X159397315Y-131081015D01*
X158965746Y-130909342D01*
X158501332Y-130915890D01*
X158102685Y-131081015D01*
X158010591Y-131250789D01*
X157031891Y-131250789D01*
X156872199Y-131090819D01*
X156443249Y-130912703D01*
X155978789Y-130912297D01*
X155549528Y-131089664D01*
X155220819Y-131417801D01*
X155042703Y-131846751D01*
X155042297Y-132311211D01*
X154368500Y-132311211D01*
X154368500Y-129771211D01*
X155042297Y-129771211D01*
X155219664Y-130200472D01*
X155547801Y-130529181D01*
X155976751Y-130707297D01*
X156441211Y-130707703D01*
X156870472Y-130530336D01*
X157100453Y-130300755D01*
X159003890Y-130300755D01*
X159100360Y-130534228D01*
X159278832Y-130713013D01*
X159512137Y-130809889D01*
X159764755Y-130810110D01*
X159998228Y-130713640D01*
X160177013Y-130535168D01*
X160273889Y-130301863D01*
X160273909Y-130278119D01*
X163309210Y-130278119D01*
X163388315Y-130469567D01*
X163534662Y-130616170D01*
X163725972Y-130695609D01*
X163933119Y-130695790D01*
X164124567Y-130616685D01*
X164271170Y-130470338D01*
X164350609Y-130279028D01*
X164350609Y-130278119D01*
X165849210Y-130278119D01*
X165928315Y-130469567D01*
X166074662Y-130616170D01*
X166265972Y-130695609D01*
X166473119Y-130695790D01*
X166664567Y-130616685D01*
X166687411Y-130593880D01*
X166709662Y-130616170D01*
X166900972Y-130695609D01*
X167108119Y-130695790D01*
X167299567Y-130616685D01*
X167446170Y-130470338D01*
X167516587Y-130300755D01*
X169671890Y-130300755D01*
X169768360Y-130534228D01*
X169946832Y-130713013D01*
X170180137Y-130809889D01*
X170432755Y-130810110D01*
X170666228Y-130713640D01*
X170845013Y-130535168D01*
X170941889Y-130301863D01*
X170941889Y-130300755D01*
X173735890Y-130300755D01*
X173832360Y-130534228D01*
X174010832Y-130713013D01*
X174244137Y-130809889D01*
X174496755Y-130810110D01*
X174730228Y-130713640D01*
X174909013Y-130535168D01*
X175005889Y-130301863D01*
X175005889Y-130300755D01*
X177799890Y-130300755D01*
X177896360Y-130534228D01*
X178074832Y-130713013D01*
X178308137Y-130809889D01*
X178560755Y-130810110D01*
X178794228Y-130713640D01*
X178973013Y-130535168D01*
X179069889Y-130301863D01*
X179069890Y-130300755D01*
X179166360Y-130534228D01*
X179344832Y-130713013D01*
X179578137Y-130809889D01*
X179830755Y-130810110D01*
X180064228Y-130713640D01*
X180243013Y-130535168D01*
X180339889Y-130301863D01*
X180340110Y-130049245D01*
X180243640Y-129815772D01*
X180071290Y-129643119D01*
X180454210Y-129643119D01*
X180533315Y-129834567D01*
X180679662Y-129981170D01*
X180870972Y-130060609D01*
X181078119Y-130060790D01*
X181269567Y-129981685D01*
X181416170Y-129835338D01*
X181442797Y-129771211D01*
X182982297Y-129771211D01*
X183159664Y-130200472D01*
X183487801Y-130529181D01*
X183916751Y-130707297D01*
X184381211Y-130707703D01*
X184810472Y-130530336D01*
X185139181Y-130202199D01*
X185317297Y-129773249D01*
X185317703Y-129308789D01*
X185140336Y-128879528D01*
X184812199Y-128550819D01*
X184383249Y-128372703D01*
X183918789Y-128372297D01*
X183489528Y-128549664D01*
X183160819Y-128877801D01*
X182982703Y-129306751D01*
X182982297Y-129771211D01*
X181442797Y-129771211D01*
X181495609Y-129644028D01*
X181495790Y-129436881D01*
X181416685Y-129245433D01*
X181270338Y-129098830D01*
X181079028Y-129019391D01*
X180871881Y-129019210D01*
X180680433Y-129098315D01*
X180533830Y-129244662D01*
X180454391Y-129435972D01*
X180454210Y-129643119D01*
X180071290Y-129643119D01*
X180065168Y-129636987D01*
X179835325Y-129541549D01*
X179999567Y-129473685D01*
X180146170Y-129327338D01*
X180225609Y-129136028D01*
X180225790Y-128928881D01*
X180146685Y-128737433D01*
X180000338Y-128590830D01*
X179809028Y-128511391D01*
X179601881Y-128511210D01*
X179410433Y-128590315D01*
X179263830Y-128736662D01*
X179184391Y-128927972D01*
X179184210Y-129135119D01*
X179263315Y-129326567D01*
X179409662Y-129473170D01*
X179574782Y-129541734D01*
X179345772Y-129636360D01*
X179166987Y-129814832D01*
X179070111Y-130048137D01*
X179070110Y-130049245D01*
X178973640Y-129815772D01*
X178795168Y-129636987D01*
X178561863Y-129540111D01*
X178309245Y-129539890D01*
X178075772Y-129636360D01*
X177896987Y-129814832D01*
X177800111Y-130048137D01*
X177799890Y-130300755D01*
X175005889Y-130300755D01*
X175006110Y-130049245D01*
X174909640Y-129815772D01*
X174731168Y-129636987D01*
X174497863Y-129540111D01*
X174245245Y-129539890D01*
X174011772Y-129636360D01*
X173832987Y-129814832D01*
X173736111Y-130048137D01*
X173735890Y-130300755D01*
X170941889Y-130300755D01*
X170942110Y-130049245D01*
X170845640Y-129815772D01*
X170667168Y-129636987D01*
X170433863Y-129540111D01*
X170181245Y-129539890D01*
X169947772Y-129636360D01*
X169768987Y-129814832D01*
X169672111Y-130048137D01*
X169671890Y-130300755D01*
X167516587Y-130300755D01*
X167525609Y-130279028D01*
X167525790Y-130071881D01*
X167446685Y-129880433D01*
X167300338Y-129733830D01*
X167109028Y-129654391D01*
X166901881Y-129654210D01*
X166710433Y-129733315D01*
X166687589Y-129756120D01*
X166665338Y-129733830D01*
X166474028Y-129654391D01*
X166266881Y-129654210D01*
X166075433Y-129733315D01*
X165928830Y-129879662D01*
X165849391Y-130070972D01*
X165849210Y-130278119D01*
X164350609Y-130278119D01*
X164350790Y-130071881D01*
X164271685Y-129880433D01*
X164125338Y-129733830D01*
X163934028Y-129654391D01*
X163726881Y-129654210D01*
X163535433Y-129733315D01*
X163388830Y-129879662D01*
X163309391Y-130070972D01*
X163309210Y-130278119D01*
X160273909Y-130278119D01*
X160274110Y-130049245D01*
X160177640Y-129815772D01*
X159999168Y-129636987D01*
X159765863Y-129540111D01*
X159513245Y-129539890D01*
X159279772Y-129636360D01*
X159100987Y-129814832D01*
X159004111Y-130048137D01*
X159003890Y-130300755D01*
X157100453Y-130300755D01*
X157199181Y-130202199D01*
X157377297Y-129773249D01*
X157377703Y-129308789D01*
X157253469Y-129008119D01*
X158864210Y-129008119D01*
X158943315Y-129199567D01*
X159089662Y-129346170D01*
X159280972Y-129425609D01*
X159488119Y-129425790D01*
X159679567Y-129346685D01*
X159826170Y-129200338D01*
X159905609Y-129009028D01*
X159905790Y-128801881D01*
X159833580Y-128627119D01*
X177914210Y-128627119D01*
X177993315Y-128818567D01*
X178139662Y-128965170D01*
X178330972Y-129044609D01*
X178538119Y-129044790D01*
X178729567Y-128965685D01*
X178876170Y-128819338D01*
X178955609Y-128628028D01*
X178955790Y-128420881D01*
X178876685Y-128229433D01*
X178730338Y-128082830D01*
X178539028Y-128003391D01*
X178331881Y-128003210D01*
X178140433Y-128082315D01*
X177993830Y-128228662D01*
X177914391Y-128419972D01*
X177914210Y-128627119D01*
X159833580Y-128627119D01*
X159826685Y-128610433D01*
X159680338Y-128463830D01*
X159489028Y-128384391D01*
X159281881Y-128384210D01*
X159090433Y-128463315D01*
X158943830Y-128609662D01*
X158864391Y-128800972D01*
X158864210Y-129008119D01*
X157253469Y-129008119D01*
X157200336Y-128879528D01*
X156872199Y-128550819D01*
X156443249Y-128372703D01*
X155978789Y-128372297D01*
X155549528Y-128549664D01*
X155220819Y-128877801D01*
X155042703Y-129306751D01*
X155042297Y-129771211D01*
X154368500Y-129771211D01*
X154368500Y-127231211D01*
X155042297Y-127231211D01*
X155219664Y-127660472D01*
X155547801Y-127989181D01*
X155976751Y-128167297D01*
X156441211Y-128167703D01*
X156558793Y-128119119D01*
X176644210Y-128119119D01*
X176723315Y-128310567D01*
X176869662Y-128457170D01*
X177060972Y-128536609D01*
X177268119Y-128536790D01*
X177459567Y-128457685D01*
X177606170Y-128311338D01*
X177685609Y-128120028D01*
X177685790Y-127912881D01*
X177606685Y-127721433D01*
X177460338Y-127574830D01*
X177269028Y-127495391D01*
X177061881Y-127495210D01*
X176870433Y-127574315D01*
X176723830Y-127720662D01*
X176644391Y-127911972D01*
X176644210Y-128119119D01*
X156558793Y-128119119D01*
X156870472Y-127990336D01*
X157199181Y-127662199D01*
X157220391Y-127611119D01*
X158864210Y-127611119D01*
X158943315Y-127802567D01*
X159089662Y-127949170D01*
X159280972Y-128028609D01*
X159488119Y-128028790D01*
X159679567Y-127949685D01*
X159826170Y-127803338D01*
X159905609Y-127612028D01*
X159905609Y-127611119D01*
X160134210Y-127611119D01*
X160213315Y-127802567D01*
X160359662Y-127949170D01*
X160550972Y-128028609D01*
X160758119Y-128028790D01*
X160949567Y-127949685D01*
X161096170Y-127803338D01*
X161175609Y-127612028D01*
X161175609Y-127611119D01*
X161404210Y-127611119D01*
X161483315Y-127802567D01*
X161629662Y-127949170D01*
X161820972Y-128028609D01*
X162028119Y-128028790D01*
X162219567Y-127949685D01*
X162366170Y-127803338D01*
X162445609Y-127612028D01*
X162445609Y-127611119D01*
X162674210Y-127611119D01*
X162753315Y-127802567D01*
X162899662Y-127949170D01*
X163090972Y-128028609D01*
X163298119Y-128028790D01*
X163489567Y-127949685D01*
X163636170Y-127803338D01*
X163715609Y-127612028D01*
X163715609Y-127611119D01*
X164452210Y-127611119D01*
X164531315Y-127802567D01*
X164677662Y-127949170D01*
X164868972Y-128028609D01*
X165076119Y-128028790D01*
X165267567Y-127949685D01*
X165354022Y-127863381D01*
X165439662Y-127949170D01*
X165630972Y-128028609D01*
X165838119Y-128028790D01*
X166029567Y-127949685D01*
X166052411Y-127926880D01*
X166074662Y-127949170D01*
X166265972Y-128028609D01*
X166473119Y-128028790D01*
X166664567Y-127949685D01*
X166687411Y-127926880D01*
X166709662Y-127949170D01*
X166900972Y-128028609D01*
X167108119Y-128028790D01*
X167299567Y-127949685D01*
X167446170Y-127803338D01*
X167525609Y-127612028D01*
X167525790Y-127404881D01*
X167446685Y-127213433D01*
X167359161Y-127125755D01*
X177164890Y-127125755D01*
X177261360Y-127359228D01*
X177439832Y-127538013D01*
X177673137Y-127634889D01*
X177925755Y-127635110D01*
X178159228Y-127538640D01*
X178338013Y-127360168D01*
X178434889Y-127126863D01*
X178434890Y-127125755D01*
X178531360Y-127359228D01*
X178709832Y-127538013D01*
X178943137Y-127634889D01*
X179195755Y-127635110D01*
X179429228Y-127538640D01*
X179608013Y-127360168D01*
X179704889Y-127126863D01*
X179704890Y-127125755D01*
X179801360Y-127359228D01*
X179979832Y-127538013D01*
X180213137Y-127634889D01*
X180465755Y-127635110D01*
X180699228Y-127538640D01*
X180878013Y-127360168D01*
X180931560Y-127231211D01*
X182982297Y-127231211D01*
X183159664Y-127660472D01*
X183487801Y-127989181D01*
X183916751Y-128167297D01*
X184381211Y-128167703D01*
X184810472Y-127990336D01*
X185139181Y-127662199D01*
X185317297Y-127233249D01*
X185317703Y-126768789D01*
X185140336Y-126339528D01*
X184812199Y-126010819D01*
X184383249Y-125832703D01*
X183918789Y-125832297D01*
X183489528Y-126009664D01*
X183160819Y-126337801D01*
X182982703Y-126766751D01*
X182982297Y-127231211D01*
X180931560Y-127231211D01*
X180974889Y-127126863D01*
X180975110Y-126874245D01*
X180878640Y-126640772D01*
X180700168Y-126461987D01*
X180466863Y-126365111D01*
X180214245Y-126364890D01*
X179980772Y-126461360D01*
X179801987Y-126639832D01*
X179705111Y-126873137D01*
X179705110Y-126874245D01*
X179608640Y-126640772D01*
X179430168Y-126461987D01*
X179196863Y-126365111D01*
X178944245Y-126364890D01*
X178710772Y-126461360D01*
X178531987Y-126639832D01*
X178435111Y-126873137D01*
X178435110Y-126874245D01*
X178338640Y-126640772D01*
X178160168Y-126461987D01*
X177926863Y-126365111D01*
X177674245Y-126364890D01*
X177440772Y-126461360D01*
X177261987Y-126639832D01*
X177165111Y-126873137D01*
X177164890Y-127125755D01*
X167359161Y-127125755D01*
X167300338Y-127066830D01*
X167109028Y-126987391D01*
X166901881Y-126987210D01*
X166710433Y-127066315D01*
X166687589Y-127089120D01*
X166665338Y-127066830D01*
X166474028Y-126987391D01*
X166266881Y-126987210D01*
X166075433Y-127066315D01*
X166052589Y-127089120D01*
X166030338Y-127066830D01*
X165839028Y-126987391D01*
X165631881Y-126987210D01*
X165440433Y-127066315D01*
X165353978Y-127152619D01*
X165268338Y-127066830D01*
X165077028Y-126987391D01*
X164869881Y-126987210D01*
X164678433Y-127066315D01*
X164531830Y-127212662D01*
X164452391Y-127403972D01*
X164452210Y-127611119D01*
X163715609Y-127611119D01*
X163715790Y-127404881D01*
X163636685Y-127213433D01*
X163490338Y-127066830D01*
X163299028Y-126987391D01*
X163091881Y-126987210D01*
X162900433Y-127066315D01*
X162753830Y-127212662D01*
X162674391Y-127403972D01*
X162674210Y-127611119D01*
X162445609Y-127611119D01*
X162445790Y-127404881D01*
X162366685Y-127213433D01*
X162220338Y-127066830D01*
X162029028Y-126987391D01*
X161821881Y-126987210D01*
X161630433Y-127066315D01*
X161483830Y-127212662D01*
X161404391Y-127403972D01*
X161404210Y-127611119D01*
X161175609Y-127611119D01*
X161175790Y-127404881D01*
X161096685Y-127213433D01*
X160950338Y-127066830D01*
X160759028Y-126987391D01*
X160551881Y-126987210D01*
X160360433Y-127066315D01*
X160213830Y-127212662D01*
X160134391Y-127403972D01*
X160134210Y-127611119D01*
X159905609Y-127611119D01*
X159905790Y-127404881D01*
X159826685Y-127213433D01*
X159680338Y-127066830D01*
X159489028Y-126987391D01*
X159281881Y-126987210D01*
X159090433Y-127066315D01*
X158943830Y-127212662D01*
X158864391Y-127403972D01*
X158864210Y-127611119D01*
X157220391Y-127611119D01*
X157377297Y-127233249D01*
X157377703Y-126768789D01*
X157200336Y-126339528D01*
X156872199Y-126010819D01*
X156498765Y-125855755D01*
X169544890Y-125855755D01*
X169641360Y-126089228D01*
X169819832Y-126268013D01*
X170053137Y-126364889D01*
X170305755Y-126365110D01*
X170539228Y-126268640D01*
X170718013Y-126090168D01*
X170746243Y-126022183D01*
X170803632Y-126161074D01*
X171017798Y-126375615D01*
X171297764Y-126491867D01*
X171600906Y-126492132D01*
X171881074Y-126376368D01*
X172085168Y-126172630D01*
X172287798Y-126375615D01*
X172567764Y-126491867D01*
X172870906Y-126492132D01*
X173151074Y-126376368D01*
X173355168Y-126172630D01*
X173557798Y-126375615D01*
X173837764Y-126491867D01*
X174140906Y-126492132D01*
X174421074Y-126376368D01*
X174635615Y-126162202D01*
X174751867Y-125882236D01*
X174752132Y-125579094D01*
X174636368Y-125298926D01*
X174422202Y-125084385D01*
X174142236Y-124968133D01*
X173839094Y-124967868D01*
X173558926Y-125083632D01*
X173354832Y-125287370D01*
X173152202Y-125084385D01*
X172872236Y-124968133D01*
X172569094Y-124967868D01*
X172288926Y-125083632D01*
X172084832Y-125287370D01*
X171882202Y-125084385D01*
X171602236Y-124968133D01*
X171299094Y-124967868D01*
X171018926Y-125083632D01*
X170804385Y-125297798D01*
X170746293Y-125437698D01*
X170718640Y-125370772D01*
X170540168Y-125191987D01*
X170306863Y-125095111D01*
X170054245Y-125094890D01*
X169820772Y-125191360D01*
X169641987Y-125369832D01*
X169545111Y-125603137D01*
X169544890Y-125855755D01*
X156498765Y-125855755D01*
X156443249Y-125832703D01*
X155978789Y-125832297D01*
X155549528Y-126009664D01*
X155220819Y-126337801D01*
X155042703Y-126766751D01*
X155042297Y-127231211D01*
X154368500Y-127231211D01*
X154368500Y-124691211D01*
X155042297Y-124691211D01*
X155219664Y-125120472D01*
X155547801Y-125449181D01*
X155976751Y-125627297D01*
X156441211Y-125627703D01*
X156870472Y-125450336D01*
X157199181Y-125122199D01*
X157377297Y-124693249D01*
X157377298Y-124691211D01*
X182982297Y-124691211D01*
X183159664Y-125120472D01*
X183487801Y-125449181D01*
X183916751Y-125627297D01*
X184381211Y-125627703D01*
X184810472Y-125450336D01*
X185139181Y-125122199D01*
X185317297Y-124693249D01*
X185317703Y-124228789D01*
X185140336Y-123799528D01*
X184812199Y-123470819D01*
X184383249Y-123292703D01*
X183918789Y-123292297D01*
X183489528Y-123469664D01*
X183160819Y-123797801D01*
X182982703Y-124226751D01*
X182982297Y-124691211D01*
X157377298Y-124691211D01*
X157377703Y-124228789D01*
X157200336Y-123799528D01*
X156872199Y-123470819D01*
X156444251Y-123293119D01*
X158229210Y-123293119D01*
X158308315Y-123484567D01*
X158454662Y-123631170D01*
X158645972Y-123710609D01*
X158853119Y-123710790D01*
X159044567Y-123631685D01*
X159191170Y-123485338D01*
X159270609Y-123294028D01*
X159270609Y-123293119D01*
X164579210Y-123293119D01*
X164658315Y-123484567D01*
X164804662Y-123631170D01*
X164995972Y-123710609D01*
X165203119Y-123710790D01*
X165394567Y-123631685D01*
X165541170Y-123485338D01*
X165620609Y-123294028D01*
X165620790Y-123086881D01*
X165613059Y-123068171D01*
X165630972Y-123075609D01*
X165838119Y-123075790D01*
X165856829Y-123068059D01*
X165849391Y-123085972D01*
X165849210Y-123293119D01*
X165928315Y-123484567D01*
X166074662Y-123631170D01*
X166265972Y-123710609D01*
X166473119Y-123710790D01*
X166664567Y-123631685D01*
X166811170Y-123485338D01*
X166881587Y-123315755D01*
X168274890Y-123315755D01*
X168371360Y-123549228D01*
X168549832Y-123728013D01*
X168783137Y-123824889D01*
X169035755Y-123825110D01*
X169269228Y-123728640D01*
X169448013Y-123550168D01*
X169544889Y-123316863D01*
X169545110Y-123064245D01*
X169448640Y-122830772D01*
X169270168Y-122651987D01*
X169036863Y-122555111D01*
X168784245Y-122554890D01*
X168550772Y-122651360D01*
X168371987Y-122829832D01*
X168275111Y-123063137D01*
X168274890Y-123315755D01*
X166881587Y-123315755D01*
X166890609Y-123294028D01*
X166890790Y-123086881D01*
X166811685Y-122895433D01*
X166665338Y-122748830D01*
X166474028Y-122669391D01*
X166266881Y-122669210D01*
X166248171Y-122676941D01*
X166255609Y-122659028D01*
X166255790Y-122451881D01*
X166176685Y-122260433D01*
X166153880Y-122237589D01*
X166176170Y-122215338D01*
X166202797Y-122151211D01*
X182982297Y-122151211D01*
X183159664Y-122580472D01*
X183487801Y-122909181D01*
X183916751Y-123087297D01*
X184381211Y-123087703D01*
X184810472Y-122910336D01*
X185139181Y-122582199D01*
X185317297Y-122153249D01*
X185317703Y-121688789D01*
X185140336Y-121259528D01*
X184812199Y-120930819D01*
X184383249Y-120752703D01*
X183918789Y-120752297D01*
X183489528Y-120929664D01*
X183160819Y-121257801D01*
X182982703Y-121686751D01*
X182982297Y-122151211D01*
X166202797Y-122151211D01*
X166255609Y-122024028D01*
X166255790Y-121816881D01*
X166209818Y-121705619D01*
X168389210Y-121705619D01*
X168468315Y-121897067D01*
X168614662Y-122043670D01*
X168805972Y-122123109D01*
X169013119Y-122123290D01*
X169204567Y-122044185D01*
X169351170Y-121897838D01*
X169430609Y-121706528D01*
X169430790Y-121499381D01*
X169394171Y-121410755D01*
X169544890Y-121410755D01*
X169641360Y-121644228D01*
X169819832Y-121823013D01*
X170053137Y-121919889D01*
X170305755Y-121920110D01*
X170539228Y-121823640D01*
X170718013Y-121645168D01*
X170814889Y-121411863D01*
X170815110Y-121159245D01*
X170718640Y-120925772D01*
X170593993Y-120800906D01*
X170687868Y-120800906D01*
X170803632Y-121081074D01*
X171017798Y-121295615D01*
X171297764Y-121411867D01*
X171600906Y-121412132D01*
X171881074Y-121296368D01*
X172085168Y-121092630D01*
X172287798Y-121295615D01*
X172567764Y-121411867D01*
X172870906Y-121412132D01*
X173151074Y-121296368D01*
X173355168Y-121092630D01*
X173557798Y-121295615D01*
X173837764Y-121411867D01*
X174140906Y-121412132D01*
X174421074Y-121296368D01*
X174635615Y-121082202D01*
X174751867Y-120802236D01*
X174752132Y-120499094D01*
X174636368Y-120218926D01*
X174422202Y-120004385D01*
X174142236Y-119888133D01*
X173839094Y-119887868D01*
X173558926Y-120003632D01*
X173354832Y-120207370D01*
X173152202Y-120004385D01*
X172872236Y-119888133D01*
X172569094Y-119887868D01*
X172288926Y-120003632D01*
X172084832Y-120207370D01*
X171882202Y-120004385D01*
X171602236Y-119888133D01*
X171299094Y-119887868D01*
X171018926Y-120003632D01*
X170804385Y-120217798D01*
X170688133Y-120497764D01*
X170687868Y-120800906D01*
X170593993Y-120800906D01*
X170540168Y-120746987D01*
X170306863Y-120650111D01*
X170054245Y-120649890D01*
X169820772Y-120746360D01*
X169641987Y-120924832D01*
X169545111Y-121158137D01*
X169544890Y-121410755D01*
X169394171Y-121410755D01*
X169351685Y-121307933D01*
X169205338Y-121161330D01*
X169014028Y-121081891D01*
X168806881Y-121081710D01*
X168615433Y-121160815D01*
X168468830Y-121307162D01*
X168389391Y-121498472D01*
X168389210Y-121705619D01*
X166209818Y-121705619D01*
X166176685Y-121625433D01*
X166030338Y-121478830D01*
X165839028Y-121399391D01*
X165631881Y-121399210D01*
X165440433Y-121478315D01*
X165293830Y-121624662D01*
X165214391Y-121815972D01*
X165214210Y-122023119D01*
X165293315Y-122214567D01*
X165316120Y-122237411D01*
X165293830Y-122259662D01*
X165214391Y-122450972D01*
X165214210Y-122658119D01*
X165221941Y-122676829D01*
X165204028Y-122669391D01*
X164996881Y-122669210D01*
X164805433Y-122748315D01*
X164658830Y-122894662D01*
X164579391Y-123085972D01*
X164579210Y-123293119D01*
X159270609Y-123293119D01*
X159270790Y-123086881D01*
X159191685Y-122895433D01*
X159045338Y-122748830D01*
X158854028Y-122669391D01*
X158646881Y-122669210D01*
X158455433Y-122748315D01*
X158308830Y-122894662D01*
X158229391Y-123085972D01*
X158229210Y-123293119D01*
X156444251Y-123293119D01*
X156443249Y-123292703D01*
X155978789Y-123292297D01*
X155549528Y-123469664D01*
X155220819Y-123797801D01*
X155042703Y-124226751D01*
X155042297Y-124691211D01*
X154368500Y-124691211D01*
X154368500Y-122151211D01*
X155042297Y-122151211D01*
X155219664Y-122580472D01*
X155547801Y-122909181D01*
X155976751Y-123087297D01*
X156441211Y-123087703D01*
X156870472Y-122910336D01*
X157199181Y-122582199D01*
X157377297Y-122153249D01*
X157377410Y-122023119D01*
X158229210Y-122023119D01*
X158308315Y-122214567D01*
X158454662Y-122361170D01*
X158645972Y-122440609D01*
X158853119Y-122440790D01*
X159044567Y-122361685D01*
X159191170Y-122215338D01*
X159270609Y-122024028D01*
X159270790Y-121816881D01*
X159191685Y-121625433D01*
X159045338Y-121478830D01*
X158854028Y-121399391D01*
X158646881Y-121399210D01*
X158455433Y-121478315D01*
X158308830Y-121624662D01*
X158229391Y-121815972D01*
X158229210Y-122023119D01*
X157377410Y-122023119D01*
X157377703Y-121688789D01*
X157200336Y-121259528D01*
X156872199Y-120930819D01*
X156443249Y-120752703D01*
X155978789Y-120752297D01*
X155549528Y-120929664D01*
X155220819Y-121257801D01*
X155042703Y-121686751D01*
X155042297Y-122151211D01*
X154368500Y-122151211D01*
X154368500Y-119611211D01*
X155042297Y-119611211D01*
X155219664Y-120040472D01*
X155547801Y-120369181D01*
X155976751Y-120547297D01*
X156441211Y-120547703D01*
X156870472Y-120370336D01*
X157199181Y-120042199D01*
X157377297Y-119613249D01*
X157377298Y-119611211D01*
X182982297Y-119611211D01*
X183159664Y-120040472D01*
X183487801Y-120369181D01*
X183916751Y-120547297D01*
X184381211Y-120547703D01*
X184810472Y-120370336D01*
X185139181Y-120042199D01*
X185317297Y-119613249D01*
X185317703Y-119148789D01*
X185140336Y-118719528D01*
X184812199Y-118390819D01*
X184383249Y-118212703D01*
X183918789Y-118212297D01*
X183489528Y-118389664D01*
X183160819Y-118717801D01*
X182982703Y-119146751D01*
X182982297Y-119611211D01*
X157377298Y-119611211D01*
X157377703Y-119148789D01*
X157200336Y-118719528D01*
X156872199Y-118390819D01*
X156444251Y-118213119D01*
X159499210Y-118213119D01*
X159578315Y-118404567D01*
X159724662Y-118551170D01*
X159915972Y-118630609D01*
X160123119Y-118630790D01*
X160314567Y-118551685D01*
X160461170Y-118405338D01*
X160540609Y-118214028D01*
X160540609Y-118213119D01*
X160769210Y-118213119D01*
X160848315Y-118404567D01*
X160994662Y-118551170D01*
X161185972Y-118630609D01*
X161393119Y-118630790D01*
X161584567Y-118551685D01*
X161731170Y-118405338D01*
X161810609Y-118214028D01*
X161810609Y-118213119D01*
X162039210Y-118213119D01*
X162118315Y-118404567D01*
X162264662Y-118551170D01*
X162455972Y-118630609D01*
X162663119Y-118630790D01*
X162854567Y-118551685D01*
X163001170Y-118405338D01*
X163080609Y-118214028D01*
X163080609Y-118213119D01*
X163309210Y-118213119D01*
X163388315Y-118404567D01*
X163534662Y-118551170D01*
X163725972Y-118630609D01*
X163933119Y-118630790D01*
X164124567Y-118551685D01*
X164147411Y-118528880D01*
X164169662Y-118551170D01*
X164360972Y-118630609D01*
X164568119Y-118630790D01*
X164759567Y-118551685D01*
X164782411Y-118528880D01*
X164804662Y-118551170D01*
X164995972Y-118630609D01*
X165203119Y-118630790D01*
X165394567Y-118551685D01*
X165417411Y-118528880D01*
X165439662Y-118551170D01*
X165630972Y-118630609D01*
X165838119Y-118630790D01*
X166029567Y-118551685D01*
X166052411Y-118528880D01*
X166074662Y-118551170D01*
X166265972Y-118630609D01*
X166473119Y-118630790D01*
X166664567Y-118551685D01*
X166811170Y-118405338D01*
X166890609Y-118214028D01*
X166890609Y-118213119D01*
X167119210Y-118213119D01*
X167198315Y-118404567D01*
X167344662Y-118551170D01*
X167535972Y-118630609D01*
X167743119Y-118630790D01*
X167934567Y-118551685D01*
X168081170Y-118405338D01*
X168160609Y-118214028D01*
X168160609Y-118213119D01*
X168389210Y-118213119D01*
X168468315Y-118404567D01*
X168614662Y-118551170D01*
X168805972Y-118630609D01*
X169013119Y-118630790D01*
X169204567Y-118551685D01*
X169351170Y-118405338D01*
X169430609Y-118214028D01*
X169430790Y-118006881D01*
X169351685Y-117815433D01*
X169205338Y-117668830D01*
X169014028Y-117589391D01*
X168806881Y-117589210D01*
X168615433Y-117668315D01*
X168468830Y-117814662D01*
X168389391Y-118005972D01*
X168389210Y-118213119D01*
X168160609Y-118213119D01*
X168160790Y-118006881D01*
X168081685Y-117815433D01*
X167935338Y-117668830D01*
X167744028Y-117589391D01*
X167536881Y-117589210D01*
X167345433Y-117668315D01*
X167198830Y-117814662D01*
X167119391Y-118005972D01*
X167119210Y-118213119D01*
X166890609Y-118213119D01*
X166890790Y-118006881D01*
X166811685Y-117815433D01*
X166665338Y-117668830D01*
X166474028Y-117589391D01*
X166266881Y-117589210D01*
X166075433Y-117668315D01*
X166052589Y-117691120D01*
X166030338Y-117668830D01*
X165839028Y-117589391D01*
X165631881Y-117589210D01*
X165440433Y-117668315D01*
X165417589Y-117691120D01*
X165395338Y-117668830D01*
X165204028Y-117589391D01*
X164996881Y-117589210D01*
X164805433Y-117668315D01*
X164782589Y-117691120D01*
X164760338Y-117668830D01*
X164569028Y-117589391D01*
X164361881Y-117589210D01*
X164170433Y-117668315D01*
X164147589Y-117691120D01*
X164125338Y-117668830D01*
X163934028Y-117589391D01*
X163726881Y-117589210D01*
X163535433Y-117668315D01*
X163388830Y-117814662D01*
X163309391Y-118005972D01*
X163309210Y-118213119D01*
X163080609Y-118213119D01*
X163080790Y-118006881D01*
X163001685Y-117815433D01*
X162855338Y-117668830D01*
X162664028Y-117589391D01*
X162456881Y-117589210D01*
X162265433Y-117668315D01*
X162118830Y-117814662D01*
X162039391Y-118005972D01*
X162039210Y-118213119D01*
X161810609Y-118213119D01*
X161810790Y-118006881D01*
X161731685Y-117815433D01*
X161585338Y-117668830D01*
X161394028Y-117589391D01*
X161186881Y-117589210D01*
X160995433Y-117668315D01*
X160848830Y-117814662D01*
X160769391Y-118005972D01*
X160769210Y-118213119D01*
X160540609Y-118213119D01*
X160540790Y-118006881D01*
X160461685Y-117815433D01*
X160315338Y-117668830D01*
X160124028Y-117589391D01*
X159916881Y-117589210D01*
X159725433Y-117668315D01*
X159578830Y-117814662D01*
X159499391Y-118005972D01*
X159499210Y-118213119D01*
X156444251Y-118213119D01*
X156443249Y-118212703D01*
X155978789Y-118212297D01*
X155549528Y-118389664D01*
X155220819Y-118717801D01*
X155042703Y-119146751D01*
X155042297Y-119611211D01*
X154368500Y-119611211D01*
X154368500Y-117669211D01*
X155470591Y-117669211D01*
X155562685Y-117838985D01*
X155994254Y-118010658D01*
X156458668Y-118004110D01*
X156857315Y-117838985D01*
X156949409Y-117669211D01*
X156210000Y-116929803D01*
X155470591Y-117669211D01*
X154368500Y-117669211D01*
X154368500Y-116624254D01*
X155039342Y-116624254D01*
X155045890Y-117088668D01*
X155211015Y-117487315D01*
X155380789Y-117579409D01*
X156120197Y-116840000D01*
X156299803Y-116840000D01*
X157039211Y-117579409D01*
X157041589Y-117578119D01*
X176009210Y-117578119D01*
X176088315Y-117769567D01*
X176234662Y-117916170D01*
X176425972Y-117995609D01*
X176633119Y-117995790D01*
X176824567Y-117916685D01*
X176971170Y-117770338D01*
X177050609Y-117579028D01*
X177050609Y-117578119D01*
X182359210Y-117578119D01*
X182438315Y-117769567D01*
X182584662Y-117916170D01*
X182775972Y-117995609D01*
X182983119Y-117995790D01*
X183174567Y-117916685D01*
X183321170Y-117770338D01*
X183343905Y-117715587D01*
X183354062Y-117725744D01*
X183410592Y-117669214D01*
X183502685Y-117838985D01*
X183934254Y-118010658D01*
X184398668Y-118004110D01*
X184797315Y-117838985D01*
X184889409Y-117669211D01*
X184150000Y-116929803D01*
X184135858Y-116943945D01*
X184046055Y-116854142D01*
X184060197Y-116840000D01*
X184239803Y-116840000D01*
X184979211Y-117579409D01*
X185148985Y-117487315D01*
X185320658Y-117055746D01*
X185314110Y-116591332D01*
X185148985Y-116192685D01*
X184979211Y-116100591D01*
X184239803Y-116840000D01*
X184060197Y-116840000D01*
X183320789Y-116100591D01*
X183151015Y-116192685D01*
X182979342Y-116624254D01*
X182983997Y-116954391D01*
X182776881Y-116954210D01*
X182585433Y-117033315D01*
X182438830Y-117179662D01*
X182359391Y-117370972D01*
X182359210Y-117578119D01*
X177050609Y-117578119D01*
X177050790Y-117371881D01*
X176971685Y-117180433D01*
X176825338Y-117033830D01*
X176634028Y-116954391D01*
X176426881Y-116954210D01*
X176235433Y-117033315D01*
X176088830Y-117179662D01*
X176009391Y-117370972D01*
X176009210Y-117578119D01*
X157041589Y-117578119D01*
X157208985Y-117487315D01*
X157380658Y-117055746D01*
X157379071Y-116943119D01*
X177279210Y-116943119D01*
X177358315Y-117134567D01*
X177504662Y-117281170D01*
X177695972Y-117360609D01*
X177903119Y-117360790D01*
X178094567Y-117281685D01*
X178241170Y-117135338D01*
X178320609Y-116944028D01*
X178320790Y-116736881D01*
X178241685Y-116545433D01*
X178095338Y-116398830D01*
X177904028Y-116319391D01*
X177696881Y-116319210D01*
X177505433Y-116398315D01*
X177358830Y-116544662D01*
X177279391Y-116735972D01*
X177279210Y-116943119D01*
X157379071Y-116943119D01*
X157374110Y-116591332D01*
X157256800Y-116308119D01*
X178549210Y-116308119D01*
X178628315Y-116499567D01*
X178774662Y-116646170D01*
X178965972Y-116725609D01*
X179173119Y-116725790D01*
X179364567Y-116646685D01*
X179511170Y-116500338D01*
X179590609Y-116309028D01*
X179590790Y-116101881D01*
X179511685Y-115910433D01*
X179365338Y-115763830D01*
X179174028Y-115684391D01*
X178966881Y-115684210D01*
X178775433Y-115763315D01*
X178628830Y-115909662D01*
X178549391Y-116100972D01*
X178549210Y-116308119D01*
X157256800Y-116308119D01*
X157208985Y-116192685D01*
X157039211Y-116100591D01*
X156299803Y-116840000D01*
X156120197Y-116840000D01*
X155380789Y-116100591D01*
X155211015Y-116192685D01*
X155039342Y-116624254D01*
X154368500Y-116624254D01*
X154368500Y-116010789D01*
X155470591Y-116010789D01*
X156210000Y-116750197D01*
X156949409Y-116010789D01*
X156857315Y-115841015D01*
X156435242Y-115673119D01*
X179819210Y-115673119D01*
X179898315Y-115864567D01*
X180044662Y-116011170D01*
X180235972Y-116090609D01*
X180443119Y-116090790D01*
X180634567Y-116011685D01*
X180635464Y-116010789D01*
X183410591Y-116010789D01*
X184150000Y-116750197D01*
X184889409Y-116010789D01*
X184797315Y-115841015D01*
X184365746Y-115669342D01*
X183901332Y-115675890D01*
X183502685Y-115841015D01*
X183410591Y-116010789D01*
X180635464Y-116010789D01*
X180781170Y-115865338D01*
X180860609Y-115674028D01*
X180860790Y-115466881D01*
X180781685Y-115275433D01*
X180635338Y-115128830D01*
X180444028Y-115049391D01*
X180236881Y-115049210D01*
X180045433Y-115128315D01*
X179898830Y-115274662D01*
X179819391Y-115465972D01*
X179819210Y-115673119D01*
X156435242Y-115673119D01*
X156425746Y-115669342D01*
X155961332Y-115675890D01*
X155562685Y-115841015D01*
X155470591Y-116010789D01*
X154368500Y-116010789D01*
X154368500Y-114531211D01*
X155042297Y-114531211D01*
X155219664Y-114960472D01*
X155547801Y-115289181D01*
X155976751Y-115467297D01*
X156441211Y-115467703D01*
X156870472Y-115290336D01*
X157100453Y-115060755D01*
X169544890Y-115060755D01*
X169641360Y-115294228D01*
X169819832Y-115473013D01*
X170053137Y-115569889D01*
X170305755Y-115570110D01*
X170539228Y-115473640D01*
X170718013Y-115295168D01*
X170814889Y-115061863D01*
X170815110Y-114809245D01*
X170718640Y-114575772D01*
X170695664Y-114552755D01*
X173100890Y-114552755D01*
X173197360Y-114786228D01*
X173375832Y-114965013D01*
X173609137Y-115061889D01*
X173861755Y-115062110D01*
X174095228Y-114965640D01*
X174274013Y-114787168D01*
X174370889Y-114553863D01*
X174370908Y-114531211D01*
X182982297Y-114531211D01*
X183159664Y-114960472D01*
X183487801Y-115289181D01*
X183916751Y-115467297D01*
X184381211Y-115467703D01*
X184810472Y-115290336D01*
X185139181Y-114962199D01*
X185317297Y-114533249D01*
X185317703Y-114068789D01*
X185140336Y-113639528D01*
X184812199Y-113310819D01*
X184383249Y-113132703D01*
X183918789Y-113132297D01*
X183489528Y-113309664D01*
X183160819Y-113637801D01*
X182982703Y-114066751D01*
X182982297Y-114531211D01*
X174370908Y-114531211D01*
X174371110Y-114301245D01*
X174274640Y-114067772D01*
X174096168Y-113888987D01*
X173862863Y-113792111D01*
X173610245Y-113791890D01*
X173376772Y-113888360D01*
X173197987Y-114066832D01*
X173101111Y-114300137D01*
X173100890Y-114552755D01*
X170695664Y-114552755D01*
X170540168Y-114396987D01*
X170306863Y-114300111D01*
X170054245Y-114299890D01*
X169820772Y-114396360D01*
X169641987Y-114574832D01*
X169545111Y-114808137D01*
X169544890Y-115060755D01*
X157100453Y-115060755D01*
X157199181Y-114962199D01*
X157377297Y-114533249D01*
X157377410Y-114403119D01*
X162674210Y-114403119D01*
X162753315Y-114594567D01*
X162899662Y-114741170D01*
X163090972Y-114820609D01*
X163298119Y-114820790D01*
X163489567Y-114741685D01*
X163636170Y-114595338D01*
X163715609Y-114404028D01*
X163715790Y-114196881D01*
X163636685Y-114005433D01*
X163490338Y-113858830D01*
X163299028Y-113779391D01*
X163091881Y-113779210D01*
X162900433Y-113858315D01*
X162753830Y-114004662D01*
X162674391Y-114195972D01*
X162674210Y-114403119D01*
X157377410Y-114403119D01*
X157377703Y-114068789D01*
X157200336Y-113639528D01*
X156872199Y-113310819D01*
X156498765Y-113155755D01*
X172084890Y-113155755D01*
X172181360Y-113389228D01*
X172359832Y-113568013D01*
X172593137Y-113664889D01*
X172845755Y-113665110D01*
X173079228Y-113568640D01*
X173258013Y-113390168D01*
X173354889Y-113156863D01*
X173355110Y-112904245D01*
X173258640Y-112670772D01*
X173177222Y-112589211D01*
X183410591Y-112589211D01*
X183502685Y-112758985D01*
X183934254Y-112930658D01*
X184398668Y-112924110D01*
X184797315Y-112758985D01*
X184889409Y-112589211D01*
X184150000Y-111849803D01*
X183410591Y-112589211D01*
X173177222Y-112589211D01*
X173080168Y-112491987D01*
X172846863Y-112395111D01*
X172594245Y-112394890D01*
X172360772Y-112491360D01*
X172181987Y-112669832D01*
X172085111Y-112903137D01*
X172084890Y-113155755D01*
X156498765Y-113155755D01*
X156443249Y-113132703D01*
X155978789Y-113132297D01*
X155549528Y-113309664D01*
X155220819Y-113637801D01*
X155042703Y-114066751D01*
X155042297Y-114531211D01*
X154368500Y-114531211D01*
X154368500Y-112589211D01*
X155470591Y-112589211D01*
X155562685Y-112758985D01*
X155994254Y-112930658D01*
X156458668Y-112924110D01*
X156857315Y-112758985D01*
X156949409Y-112589211D01*
X156210000Y-111849803D01*
X155470591Y-112589211D01*
X154368500Y-112589211D01*
X154368500Y-111544254D01*
X155039342Y-111544254D01*
X155045890Y-112008668D01*
X155211015Y-112407315D01*
X155380789Y-112499409D01*
X156120197Y-111760000D01*
X156299803Y-111760000D01*
X157039211Y-112499409D01*
X157208985Y-112407315D01*
X157380658Y-111975746D01*
X157374575Y-111544254D01*
X182979342Y-111544254D01*
X182985890Y-112008668D01*
X183151015Y-112407315D01*
X183320789Y-112499409D01*
X184060197Y-111760000D01*
X184239803Y-111760000D01*
X184979211Y-112499409D01*
X185148985Y-112407315D01*
X185320658Y-111975746D01*
X185314110Y-111511332D01*
X185148985Y-111112685D01*
X184979211Y-111020591D01*
X184239803Y-111760000D01*
X184060197Y-111760000D01*
X183320789Y-111020591D01*
X183151015Y-111112685D01*
X182979342Y-111544254D01*
X157374575Y-111544254D01*
X157374110Y-111511332D01*
X157208985Y-111112685D01*
X157039211Y-111020591D01*
X156299803Y-111760000D01*
X156120197Y-111760000D01*
X155380789Y-111020591D01*
X155211015Y-111112685D01*
X155039342Y-111544254D01*
X154368500Y-111544254D01*
X154368500Y-110930789D01*
X155470591Y-110930789D01*
X156210000Y-111670197D01*
X156949409Y-110930789D01*
X156857315Y-110761015D01*
X156492146Y-110615755D01*
X167004890Y-110615755D01*
X167101360Y-110849228D01*
X167279832Y-111028013D01*
X167513137Y-111124889D01*
X167765755Y-111125110D01*
X167999228Y-111028640D01*
X168097250Y-110930789D01*
X183410591Y-110930789D01*
X184150000Y-111670197D01*
X184889409Y-110930789D01*
X184797315Y-110761015D01*
X184365746Y-110589342D01*
X183901332Y-110595890D01*
X183502685Y-110761015D01*
X183410591Y-110930789D01*
X168097250Y-110930789D01*
X168178013Y-110850168D01*
X168274889Y-110616863D01*
X168275110Y-110364245D01*
X168178640Y-110130772D01*
X168000168Y-109951987D01*
X167766863Y-109855111D01*
X167514245Y-109854890D01*
X167280772Y-109951360D01*
X167101987Y-110129832D01*
X167005111Y-110363137D01*
X167004890Y-110615755D01*
X156492146Y-110615755D01*
X156425746Y-110589342D01*
X155961332Y-110595890D01*
X155562685Y-110761015D01*
X155470591Y-110930789D01*
X154368500Y-110930789D01*
X154368500Y-109451211D01*
X155042297Y-109451211D01*
X155219664Y-109880472D01*
X155547801Y-110209181D01*
X155976751Y-110387297D01*
X156441211Y-110387703D01*
X156870472Y-110210336D01*
X157199181Y-109882199D01*
X157377297Y-109453249D01*
X157377410Y-109323119D01*
X161404210Y-109323119D01*
X161483315Y-109514567D01*
X161629662Y-109661170D01*
X161820972Y-109740609D01*
X162028119Y-109740790D01*
X162219567Y-109661685D01*
X162366170Y-109515338D01*
X162445609Y-109324028D01*
X162445609Y-109323119D01*
X176644210Y-109323119D01*
X176723315Y-109514567D01*
X176869662Y-109661170D01*
X177060972Y-109740609D01*
X177268119Y-109740790D01*
X177459567Y-109661685D01*
X177606170Y-109515338D01*
X177632797Y-109451211D01*
X182982297Y-109451211D01*
X183159664Y-109880472D01*
X183487801Y-110209181D01*
X183916751Y-110387297D01*
X184381211Y-110387703D01*
X184810472Y-110210336D01*
X185139181Y-109882199D01*
X185317297Y-109453249D01*
X185317703Y-108988789D01*
X185140336Y-108559528D01*
X184812199Y-108230819D01*
X184383249Y-108052703D01*
X183918789Y-108052297D01*
X183489528Y-108229664D01*
X183160819Y-108557801D01*
X182982703Y-108986751D01*
X182982297Y-109451211D01*
X177632797Y-109451211D01*
X177685609Y-109324028D01*
X177685790Y-109116881D01*
X177606685Y-108925433D01*
X177460338Y-108778830D01*
X177269028Y-108699391D01*
X177061881Y-108699210D01*
X176870433Y-108778315D01*
X176723830Y-108924662D01*
X176644391Y-109115972D01*
X176644210Y-109323119D01*
X162445609Y-109323119D01*
X162445790Y-109116881D01*
X162366685Y-108925433D01*
X162220338Y-108778830D01*
X162029028Y-108699391D01*
X161821881Y-108699210D01*
X161630433Y-108778315D01*
X161483830Y-108924662D01*
X161404391Y-109115972D01*
X161404210Y-109323119D01*
X157377410Y-109323119D01*
X157377703Y-108988789D01*
X157200336Y-108559528D01*
X156872199Y-108230819D01*
X156498765Y-108075755D01*
X172084890Y-108075755D01*
X172181360Y-108309228D01*
X172359832Y-108488013D01*
X172593137Y-108584889D01*
X172845755Y-108585110D01*
X173079228Y-108488640D01*
X173258013Y-108310168D01*
X173354889Y-108076863D01*
X173355110Y-107824245D01*
X173258640Y-107590772D01*
X173177222Y-107509211D01*
X183410591Y-107509211D01*
X183502685Y-107678985D01*
X183934254Y-107850658D01*
X184398668Y-107844110D01*
X184797315Y-107678985D01*
X184889409Y-107509211D01*
X184150000Y-106769803D01*
X183410591Y-107509211D01*
X173177222Y-107509211D01*
X173080168Y-107411987D01*
X172846863Y-107315111D01*
X172594245Y-107314890D01*
X172360772Y-107411360D01*
X172181987Y-107589832D01*
X172085111Y-107823137D01*
X172084890Y-108075755D01*
X156498765Y-108075755D01*
X156443249Y-108052703D01*
X155978789Y-108052297D01*
X155549528Y-108229664D01*
X155220819Y-108557801D01*
X155042703Y-108986751D01*
X155042297Y-109451211D01*
X154368500Y-109451211D01*
X154368500Y-107509211D01*
X155470591Y-107509211D01*
X155562685Y-107678985D01*
X155994254Y-107850658D01*
X156458668Y-107844110D01*
X156857315Y-107678985D01*
X156949409Y-107509211D01*
X156210000Y-106769803D01*
X155470591Y-107509211D01*
X154368500Y-107509211D01*
X154368500Y-106464254D01*
X155039342Y-106464254D01*
X155045890Y-106928668D01*
X155211015Y-107327315D01*
X155380789Y-107419409D01*
X156120197Y-106680000D01*
X156299803Y-106680000D01*
X157039211Y-107419409D01*
X157208985Y-107327315D01*
X157380658Y-106895746D01*
X157374575Y-106464254D01*
X182979342Y-106464254D01*
X182985890Y-106928668D01*
X183151015Y-107327315D01*
X183320789Y-107419409D01*
X184060197Y-106680000D01*
X184239803Y-106680000D01*
X184979211Y-107419409D01*
X185148985Y-107327315D01*
X185320658Y-106895746D01*
X185314110Y-106431332D01*
X185148985Y-106032685D01*
X184979211Y-105940591D01*
X184239803Y-106680000D01*
X184060197Y-106680000D01*
X183320789Y-105940591D01*
X183151015Y-106032685D01*
X182979342Y-106464254D01*
X157374575Y-106464254D01*
X157374110Y-106431332D01*
X157208985Y-106032685D01*
X157039211Y-105940591D01*
X156299803Y-106680000D01*
X156120197Y-106680000D01*
X155380789Y-105940591D01*
X155211015Y-106032685D01*
X155039342Y-106464254D01*
X154368500Y-106464254D01*
X154368500Y-105850789D01*
X155470591Y-105850789D01*
X156210000Y-106590197D01*
X156949409Y-105850789D01*
X156857315Y-105681015D01*
X156492146Y-105535755D01*
X167004890Y-105535755D01*
X167101360Y-105769228D01*
X167279832Y-105948013D01*
X167513137Y-106044889D01*
X167765755Y-106045110D01*
X167999228Y-105948640D01*
X168097250Y-105850789D01*
X183410591Y-105850789D01*
X184150000Y-106590197D01*
X184889409Y-105850789D01*
X184797315Y-105681015D01*
X184365746Y-105509342D01*
X183901332Y-105515890D01*
X183502685Y-105681015D01*
X183410591Y-105850789D01*
X168097250Y-105850789D01*
X168178013Y-105770168D01*
X168274889Y-105536863D01*
X168275110Y-105284245D01*
X168178640Y-105050772D01*
X168000168Y-104871987D01*
X167766863Y-104775111D01*
X167514245Y-104774890D01*
X167280772Y-104871360D01*
X167101987Y-105049832D01*
X167005111Y-105283137D01*
X167004890Y-105535755D01*
X156492146Y-105535755D01*
X156425746Y-105509342D01*
X155961332Y-105515890D01*
X155562685Y-105681015D01*
X155470591Y-105850789D01*
X154368500Y-105850789D01*
X154368500Y-104371211D01*
X155042297Y-104371211D01*
X155219664Y-104800472D01*
X155547801Y-105129181D01*
X155976751Y-105307297D01*
X156441211Y-105307703D01*
X156870472Y-105130336D01*
X157199181Y-104802199D01*
X157377297Y-104373249D01*
X157377410Y-104243119D01*
X160134210Y-104243119D01*
X160213315Y-104434567D01*
X160359662Y-104581170D01*
X160550972Y-104660609D01*
X160758119Y-104660790D01*
X160949567Y-104581685D01*
X161096170Y-104435338D01*
X161175609Y-104244028D01*
X161175609Y-104243119D01*
X177914210Y-104243119D01*
X177993315Y-104434567D01*
X178139662Y-104581170D01*
X178330972Y-104660609D01*
X178538119Y-104660790D01*
X178729567Y-104581685D01*
X178876170Y-104435338D01*
X178902797Y-104371211D01*
X182982297Y-104371211D01*
X183159664Y-104800472D01*
X183487801Y-105129181D01*
X183916751Y-105307297D01*
X184381211Y-105307703D01*
X184810472Y-105130336D01*
X185139181Y-104802199D01*
X185317297Y-104373249D01*
X185317703Y-103908789D01*
X185140336Y-103479528D01*
X184812199Y-103150819D01*
X184383249Y-102972703D01*
X183918789Y-102972297D01*
X183489528Y-103149664D01*
X183160819Y-103477801D01*
X182982703Y-103906751D01*
X182982297Y-104371211D01*
X178902797Y-104371211D01*
X178955609Y-104244028D01*
X178955790Y-104036881D01*
X178876685Y-103845433D01*
X178730338Y-103698830D01*
X178539028Y-103619391D01*
X178331881Y-103619210D01*
X178140433Y-103698315D01*
X177993830Y-103844662D01*
X177914391Y-104035972D01*
X177914210Y-104243119D01*
X161175609Y-104243119D01*
X161175790Y-104036881D01*
X161096685Y-103845433D01*
X160950338Y-103698830D01*
X160759028Y-103619391D01*
X160551881Y-103619210D01*
X160360433Y-103698315D01*
X160213830Y-103844662D01*
X160134391Y-104035972D01*
X160134210Y-104243119D01*
X157377410Y-104243119D01*
X157377703Y-103908789D01*
X157200336Y-103479528D01*
X156872199Y-103150819D01*
X156498765Y-102995755D01*
X172084890Y-102995755D01*
X172181360Y-103229228D01*
X172359832Y-103408013D01*
X172593137Y-103504889D01*
X172845755Y-103505110D01*
X173079228Y-103408640D01*
X173258013Y-103230168D01*
X173354889Y-102996863D01*
X173355110Y-102744245D01*
X173258640Y-102510772D01*
X173177222Y-102429211D01*
X183410591Y-102429211D01*
X183502685Y-102598985D01*
X183934254Y-102770658D01*
X184398668Y-102764110D01*
X184797315Y-102598985D01*
X184889409Y-102429211D01*
X184150000Y-101689803D01*
X183410591Y-102429211D01*
X173177222Y-102429211D01*
X173080168Y-102331987D01*
X172846863Y-102235111D01*
X172594245Y-102234890D01*
X172360772Y-102331360D01*
X172181987Y-102509832D01*
X172085111Y-102743137D01*
X172084890Y-102995755D01*
X156498765Y-102995755D01*
X156443249Y-102972703D01*
X155978789Y-102972297D01*
X155549528Y-103149664D01*
X155220819Y-103477801D01*
X155042703Y-103906751D01*
X155042297Y-104371211D01*
X154368500Y-104371211D01*
X154368500Y-102429211D01*
X155470591Y-102429211D01*
X155562685Y-102598985D01*
X155994254Y-102770658D01*
X156458668Y-102764110D01*
X156857315Y-102598985D01*
X156949409Y-102429211D01*
X156210000Y-101689803D01*
X155470591Y-102429211D01*
X154368500Y-102429211D01*
X154368500Y-101384254D01*
X155039342Y-101384254D01*
X155045890Y-101848668D01*
X155211015Y-102247315D01*
X155380789Y-102339409D01*
X156120197Y-101600000D01*
X156299803Y-101600000D01*
X157039211Y-102339409D01*
X157208985Y-102247315D01*
X157380658Y-101815746D01*
X157374575Y-101384254D01*
X182979342Y-101384254D01*
X182985890Y-101848668D01*
X183151015Y-102247315D01*
X183320789Y-102339409D01*
X184060197Y-101600000D01*
X184239803Y-101600000D01*
X184979211Y-102339409D01*
X185148985Y-102247315D01*
X185320658Y-101815746D01*
X185314110Y-101351332D01*
X185148985Y-100952685D01*
X184979211Y-100860591D01*
X184239803Y-101600000D01*
X184060197Y-101600000D01*
X183320789Y-100860591D01*
X183151015Y-100952685D01*
X182979342Y-101384254D01*
X157374575Y-101384254D01*
X157374110Y-101351332D01*
X157208985Y-100952685D01*
X157039211Y-100860591D01*
X156299803Y-101600000D01*
X156120197Y-101600000D01*
X155380789Y-100860591D01*
X155211015Y-100952685D01*
X155039342Y-101384254D01*
X154368500Y-101384254D01*
X154368500Y-100770789D01*
X155470591Y-100770789D01*
X156210000Y-101510197D01*
X156949409Y-100770789D01*
X156857315Y-100601015D01*
X156492146Y-100455755D01*
X167004890Y-100455755D01*
X167101360Y-100689228D01*
X167279832Y-100868013D01*
X167513137Y-100964889D01*
X167765755Y-100965110D01*
X167999228Y-100868640D01*
X168097250Y-100770789D01*
X183410591Y-100770789D01*
X184150000Y-101510197D01*
X184889409Y-100770789D01*
X184797315Y-100601015D01*
X184365746Y-100429342D01*
X183901332Y-100435890D01*
X183502685Y-100601015D01*
X183410591Y-100770789D01*
X168097250Y-100770789D01*
X168178013Y-100690168D01*
X168274889Y-100456863D01*
X168275110Y-100204245D01*
X168178640Y-99970772D01*
X168000168Y-99791987D01*
X167766863Y-99695111D01*
X167514245Y-99694890D01*
X167280772Y-99791360D01*
X167101987Y-99969832D01*
X167005111Y-100203137D01*
X167004890Y-100455755D01*
X156492146Y-100455755D01*
X156425746Y-100429342D01*
X155961332Y-100435890D01*
X155562685Y-100601015D01*
X155470591Y-100770789D01*
X154368500Y-100770789D01*
X154368500Y-99291211D01*
X155042297Y-99291211D01*
X155219664Y-99720472D01*
X155547801Y-100049181D01*
X155976751Y-100227297D01*
X156441211Y-100227703D01*
X156870472Y-100050336D01*
X157199181Y-99722199D01*
X157377297Y-99293249D01*
X157377410Y-99163119D01*
X158864210Y-99163119D01*
X158943315Y-99354567D01*
X159089662Y-99501170D01*
X159280972Y-99580609D01*
X159488119Y-99580790D01*
X159679567Y-99501685D01*
X159826170Y-99355338D01*
X159905609Y-99164028D01*
X159905609Y-99163119D01*
X179184210Y-99163119D01*
X179263315Y-99354567D01*
X179409662Y-99501170D01*
X179600972Y-99580609D01*
X179808119Y-99580790D01*
X179999567Y-99501685D01*
X180146170Y-99355338D01*
X180172797Y-99291211D01*
X182982297Y-99291211D01*
X183159664Y-99720472D01*
X183487801Y-100049181D01*
X183916751Y-100227297D01*
X184381211Y-100227703D01*
X184810472Y-100050336D01*
X185139181Y-99722199D01*
X185317297Y-99293249D01*
X185317703Y-98828789D01*
X185140336Y-98399528D01*
X184812199Y-98070819D01*
X184383249Y-97892703D01*
X183918789Y-97892297D01*
X183489528Y-98069664D01*
X183160819Y-98397801D01*
X182982703Y-98826751D01*
X182982297Y-99291211D01*
X180172797Y-99291211D01*
X180225609Y-99164028D01*
X180225790Y-98956881D01*
X180146685Y-98765433D01*
X180000338Y-98618830D01*
X179809028Y-98539391D01*
X179601881Y-98539210D01*
X179410433Y-98618315D01*
X179263830Y-98764662D01*
X179184391Y-98955972D01*
X179184210Y-99163119D01*
X159905609Y-99163119D01*
X159905790Y-98956881D01*
X159826685Y-98765433D01*
X159680338Y-98618830D01*
X159489028Y-98539391D01*
X159281881Y-98539210D01*
X159090433Y-98618315D01*
X158943830Y-98764662D01*
X158864391Y-98955972D01*
X158864210Y-99163119D01*
X157377410Y-99163119D01*
X157377703Y-98828789D01*
X157200336Y-98399528D01*
X156872199Y-98070819D01*
X156498765Y-97915755D01*
X172084890Y-97915755D01*
X172181360Y-98149228D01*
X172359832Y-98328013D01*
X172593137Y-98424889D01*
X172845755Y-98425110D01*
X173079228Y-98328640D01*
X173258013Y-98150168D01*
X173354889Y-97916863D01*
X173355110Y-97664245D01*
X173258640Y-97430772D01*
X173080168Y-97251987D01*
X172846863Y-97155111D01*
X172594245Y-97154890D01*
X172360772Y-97251360D01*
X172181987Y-97429832D01*
X172085111Y-97663137D01*
X172084890Y-97915755D01*
X156498765Y-97915755D01*
X156443249Y-97892703D01*
X155978789Y-97892297D01*
X155549528Y-98069664D01*
X155220819Y-98397801D01*
X155042703Y-98826751D01*
X155042297Y-99291211D01*
X154368500Y-99291211D01*
X154368500Y-96751211D01*
X155042297Y-96751211D01*
X155219664Y-97180472D01*
X155547801Y-97509181D01*
X155976751Y-97687297D01*
X156441211Y-97687703D01*
X156870472Y-97510336D01*
X157199181Y-97182199D01*
X157377297Y-96753249D01*
X157377298Y-96751211D01*
X182982297Y-96751211D01*
X183159664Y-97180472D01*
X183487801Y-97509181D01*
X183916751Y-97687297D01*
X184381211Y-97687703D01*
X184810472Y-97510336D01*
X185139181Y-97182199D01*
X185317297Y-96753249D01*
X185317703Y-96288789D01*
X185140336Y-95859528D01*
X184812199Y-95530819D01*
X184383249Y-95352703D01*
X183918789Y-95352297D01*
X183489528Y-95529664D01*
X183160819Y-95857801D01*
X182982703Y-96286751D01*
X182982297Y-96751211D01*
X157377298Y-96751211D01*
X157377703Y-96288789D01*
X157200336Y-95859528D01*
X156872199Y-95530819D01*
X156443249Y-95352703D01*
X155978789Y-95352297D01*
X155549528Y-95529664D01*
X155220819Y-95857801D01*
X155042703Y-96286751D01*
X155042297Y-96751211D01*
X154368500Y-96751211D01*
X154368500Y-94809211D01*
X155470591Y-94809211D01*
X155562685Y-94978985D01*
X155994254Y-95150658D01*
X156458668Y-95144110D01*
X156857315Y-94978985D01*
X156949409Y-94809211D01*
X156210000Y-94069803D01*
X155470591Y-94809211D01*
X154368500Y-94809211D01*
X154368500Y-93764254D01*
X155039342Y-93764254D01*
X155045890Y-94228668D01*
X155211015Y-94627315D01*
X155380789Y-94719409D01*
X156120197Y-93980000D01*
X156299803Y-93980000D01*
X157039211Y-94719409D01*
X157208985Y-94627315D01*
X157380658Y-94195746D01*
X157379071Y-94083119D01*
X159499210Y-94083119D01*
X159578315Y-94274567D01*
X159724662Y-94421170D01*
X159915972Y-94500609D01*
X160123119Y-94500790D01*
X160314567Y-94421685D01*
X160376605Y-94359755D01*
X167004890Y-94359755D01*
X167101360Y-94593228D01*
X167249975Y-94742103D01*
X167101987Y-94889832D01*
X167005111Y-95123137D01*
X167004890Y-95375755D01*
X167101360Y-95609228D01*
X167279832Y-95788013D01*
X167513137Y-95884889D01*
X167765755Y-95885110D01*
X167999228Y-95788640D01*
X168178013Y-95610168D01*
X168274889Y-95376863D01*
X168275110Y-95124245D01*
X168178640Y-94890772D01*
X168097222Y-94809211D01*
X183410591Y-94809211D01*
X183502685Y-94978985D01*
X183934254Y-95150658D01*
X184398668Y-95144110D01*
X184797315Y-94978985D01*
X184889409Y-94809211D01*
X184150000Y-94069803D01*
X183410591Y-94809211D01*
X168097222Y-94809211D01*
X168030025Y-94741897D01*
X168178013Y-94594168D01*
X168274889Y-94360863D01*
X168275110Y-94108245D01*
X168264729Y-94083119D01*
X180454210Y-94083119D01*
X180533315Y-94274567D01*
X180679662Y-94421170D01*
X180870972Y-94500609D01*
X181078119Y-94500790D01*
X181269567Y-94421685D01*
X181416170Y-94275338D01*
X181495609Y-94084028D01*
X181495790Y-93876881D01*
X181449254Y-93764254D01*
X182979342Y-93764254D01*
X182985890Y-94228668D01*
X183151015Y-94627315D01*
X183320789Y-94719409D01*
X184060197Y-93980000D01*
X184239803Y-93980000D01*
X184979211Y-94719409D01*
X185148985Y-94627315D01*
X185320658Y-94195746D01*
X185314110Y-93731332D01*
X185148985Y-93332685D01*
X184979211Y-93240591D01*
X184239803Y-93980000D01*
X184060197Y-93980000D01*
X183320789Y-93240591D01*
X183151015Y-93332685D01*
X182979342Y-93764254D01*
X181449254Y-93764254D01*
X181416685Y-93685433D01*
X181270338Y-93538830D01*
X181079028Y-93459391D01*
X180871881Y-93459210D01*
X180680433Y-93538315D01*
X180533830Y-93684662D01*
X180454391Y-93875972D01*
X180454210Y-94083119D01*
X168264729Y-94083119D01*
X168178640Y-93874772D01*
X168000168Y-93695987D01*
X167766863Y-93599111D01*
X167514245Y-93598890D01*
X167280772Y-93695360D01*
X167101987Y-93873832D01*
X167005111Y-94107137D01*
X167004890Y-94359755D01*
X160376605Y-94359755D01*
X160461170Y-94275338D01*
X160540609Y-94084028D01*
X160540790Y-93876881D01*
X160461685Y-93685433D01*
X160315338Y-93538830D01*
X160124028Y-93459391D01*
X159916881Y-93459210D01*
X159725433Y-93538315D01*
X159578830Y-93684662D01*
X159499391Y-93875972D01*
X159499210Y-94083119D01*
X157379071Y-94083119D01*
X157374110Y-93731332D01*
X157208985Y-93332685D01*
X157039211Y-93240591D01*
X156299803Y-93980000D01*
X156120197Y-93980000D01*
X155380789Y-93240591D01*
X155211015Y-93332685D01*
X155039342Y-93764254D01*
X154368500Y-93764254D01*
X154368500Y-93150789D01*
X155470591Y-93150789D01*
X156210000Y-93890197D01*
X156949409Y-93150789D01*
X156857315Y-92981015D01*
X156492146Y-92835755D01*
X172084890Y-92835755D01*
X172181360Y-93069228D01*
X172359832Y-93248013D01*
X172593137Y-93344889D01*
X172845755Y-93345110D01*
X173079228Y-93248640D01*
X173177250Y-93150789D01*
X183410591Y-93150789D01*
X184150000Y-93890197D01*
X184889409Y-93150789D01*
X184797315Y-92981015D01*
X184365746Y-92809342D01*
X183901332Y-92815890D01*
X183502685Y-92981015D01*
X183410591Y-93150789D01*
X173177250Y-93150789D01*
X173258013Y-93070168D01*
X173354889Y-92836863D01*
X173355110Y-92584245D01*
X173258640Y-92350772D01*
X173080168Y-92171987D01*
X172846863Y-92075111D01*
X172594245Y-92074890D01*
X172360772Y-92171360D01*
X172181987Y-92349832D01*
X172085111Y-92583137D01*
X172084890Y-92835755D01*
X156492146Y-92835755D01*
X156425746Y-92809342D01*
X155961332Y-92815890D01*
X155562685Y-92981015D01*
X155470591Y-93150789D01*
X154368500Y-93150789D01*
X154368500Y-91671211D01*
X155042297Y-91671211D01*
X155219664Y-92100472D01*
X155547801Y-92429181D01*
X155976751Y-92607297D01*
X156441211Y-92607703D01*
X156870472Y-92430336D01*
X157199181Y-92102199D01*
X157377297Y-91673249D01*
X157377298Y-91671211D01*
X182982297Y-91671211D01*
X183159664Y-92100472D01*
X183487801Y-92429181D01*
X183916751Y-92607297D01*
X184381211Y-92607703D01*
X184810472Y-92430336D01*
X185139181Y-92102199D01*
X185317297Y-91673249D01*
X185317703Y-91208789D01*
X185140336Y-90779528D01*
X184812199Y-90450819D01*
X184383249Y-90272703D01*
X183918789Y-90272297D01*
X183489528Y-90449664D01*
X183160819Y-90777801D01*
X182982703Y-91206751D01*
X182982297Y-91671211D01*
X157377298Y-91671211D01*
X157377703Y-91208789D01*
X157200336Y-90779528D01*
X156872199Y-90450819D01*
X156498765Y-90295755D01*
X167004890Y-90295755D01*
X167101360Y-90529228D01*
X167279832Y-90708013D01*
X167513137Y-90804889D01*
X167765755Y-90805110D01*
X167999228Y-90708640D01*
X168178013Y-90530168D01*
X168274889Y-90296863D01*
X168275110Y-90044245D01*
X168178640Y-89810772D01*
X168097222Y-89729211D01*
X183410591Y-89729211D01*
X183502685Y-89898985D01*
X183934254Y-90070658D01*
X184398668Y-90064110D01*
X184797315Y-89898985D01*
X184889409Y-89729211D01*
X184150000Y-88989803D01*
X183410591Y-89729211D01*
X168097222Y-89729211D01*
X168000168Y-89631987D01*
X167766863Y-89535111D01*
X167514245Y-89534890D01*
X167280772Y-89631360D01*
X167101987Y-89809832D01*
X167005111Y-90043137D01*
X167004890Y-90295755D01*
X156498765Y-90295755D01*
X156443249Y-90272703D01*
X155978789Y-90272297D01*
X155549528Y-90449664D01*
X155220819Y-90777801D01*
X155042703Y-91206751D01*
X155042297Y-91671211D01*
X154368500Y-91671211D01*
X154368500Y-89729211D01*
X155470591Y-89729211D01*
X155562685Y-89898985D01*
X155994254Y-90070658D01*
X156458668Y-90064110D01*
X156857315Y-89898985D01*
X156949409Y-89729211D01*
X156210000Y-88989803D01*
X155470591Y-89729211D01*
X154368500Y-89729211D01*
X154368500Y-88684254D01*
X155039342Y-88684254D01*
X155045890Y-89148668D01*
X155211015Y-89547315D01*
X155380789Y-89639409D01*
X156120197Y-88900000D01*
X156299803Y-88900000D01*
X157039211Y-89639409D01*
X157208985Y-89547315D01*
X157380658Y-89115746D01*
X157379071Y-89003119D01*
X160769210Y-89003119D01*
X160848315Y-89194567D01*
X160994662Y-89341170D01*
X161185972Y-89420609D01*
X161393119Y-89420790D01*
X161584567Y-89341685D01*
X161731170Y-89195338D01*
X161810609Y-89004028D01*
X161810609Y-89003119D01*
X179819210Y-89003119D01*
X179898315Y-89194567D01*
X180044662Y-89341170D01*
X180235972Y-89420609D01*
X180443119Y-89420790D01*
X180634567Y-89341685D01*
X180781170Y-89195338D01*
X180860609Y-89004028D01*
X180860790Y-88796881D01*
X180814254Y-88684254D01*
X182979342Y-88684254D01*
X182985890Y-89148668D01*
X183151015Y-89547315D01*
X183320789Y-89639409D01*
X184060197Y-88900000D01*
X184239803Y-88900000D01*
X184979211Y-89639409D01*
X185148985Y-89547315D01*
X185320658Y-89115746D01*
X185314110Y-88651332D01*
X185148985Y-88252685D01*
X184979211Y-88160591D01*
X184239803Y-88900000D01*
X184060197Y-88900000D01*
X183320789Y-88160591D01*
X183151015Y-88252685D01*
X182979342Y-88684254D01*
X180814254Y-88684254D01*
X180781685Y-88605433D01*
X180635338Y-88458830D01*
X180444028Y-88379391D01*
X180236881Y-88379210D01*
X180045433Y-88458315D01*
X179898830Y-88604662D01*
X179819391Y-88795972D01*
X179819210Y-89003119D01*
X161810609Y-89003119D01*
X161810790Y-88796881D01*
X161731685Y-88605433D01*
X161585338Y-88458830D01*
X161394028Y-88379391D01*
X161186881Y-88379210D01*
X160995433Y-88458315D01*
X160848830Y-88604662D01*
X160769391Y-88795972D01*
X160769210Y-89003119D01*
X157379071Y-89003119D01*
X157374110Y-88651332D01*
X157208985Y-88252685D01*
X157039211Y-88160591D01*
X156299803Y-88900000D01*
X156120197Y-88900000D01*
X155380789Y-88160591D01*
X155211015Y-88252685D01*
X155039342Y-88684254D01*
X154368500Y-88684254D01*
X154368500Y-88070789D01*
X155470591Y-88070789D01*
X156210000Y-88810197D01*
X156949409Y-88070789D01*
X156857315Y-87901015D01*
X156492146Y-87755755D01*
X172084890Y-87755755D01*
X172181360Y-87989228D01*
X172359832Y-88168013D01*
X172593137Y-88264889D01*
X172845755Y-88265110D01*
X173079228Y-88168640D01*
X173177250Y-88070789D01*
X183410591Y-88070789D01*
X184150000Y-88810197D01*
X184889409Y-88070789D01*
X184797315Y-87901015D01*
X184365746Y-87729342D01*
X183901332Y-87735890D01*
X183502685Y-87901015D01*
X183410591Y-88070789D01*
X173177250Y-88070789D01*
X173258013Y-87990168D01*
X173354889Y-87756863D01*
X173355110Y-87504245D01*
X173258640Y-87270772D01*
X173080168Y-87091987D01*
X172846863Y-86995111D01*
X172594245Y-86994890D01*
X172360772Y-87091360D01*
X172181987Y-87269832D01*
X172085111Y-87503137D01*
X172084890Y-87755755D01*
X156492146Y-87755755D01*
X156425746Y-87729342D01*
X155961332Y-87735890D01*
X155562685Y-87901015D01*
X155470591Y-88070789D01*
X154368500Y-88070789D01*
X154368500Y-86591211D01*
X155042297Y-86591211D01*
X155219664Y-87020472D01*
X155547801Y-87349181D01*
X155976751Y-87527297D01*
X156441211Y-87527703D01*
X156870472Y-87350336D01*
X157199181Y-87022199D01*
X157377297Y-86593249D01*
X157377298Y-86591211D01*
X182982297Y-86591211D01*
X183159664Y-87020472D01*
X183487801Y-87349181D01*
X183916751Y-87527297D01*
X184381211Y-87527703D01*
X184810472Y-87350336D01*
X185139181Y-87022199D01*
X185317297Y-86593249D01*
X185317703Y-86128789D01*
X185140336Y-85699528D01*
X184812199Y-85370819D01*
X184383249Y-85192703D01*
X183918789Y-85192297D01*
X183489528Y-85369664D01*
X183160819Y-85697801D01*
X182982703Y-86126751D01*
X182982297Y-86591211D01*
X157377298Y-86591211D01*
X157377703Y-86128789D01*
X157200336Y-85699528D01*
X156872199Y-85370819D01*
X156498765Y-85215755D01*
X167004890Y-85215755D01*
X167101360Y-85449228D01*
X167279832Y-85628013D01*
X167513137Y-85724889D01*
X167765755Y-85725110D01*
X167999228Y-85628640D01*
X168178013Y-85450168D01*
X168274889Y-85216863D01*
X168275110Y-84964245D01*
X168178640Y-84730772D01*
X168097222Y-84649211D01*
X183410591Y-84649211D01*
X183502685Y-84818985D01*
X183934254Y-84990658D01*
X184398668Y-84984110D01*
X184797315Y-84818985D01*
X184889409Y-84649211D01*
X184150000Y-83909803D01*
X183410591Y-84649211D01*
X168097222Y-84649211D01*
X168000168Y-84551987D01*
X167766863Y-84455111D01*
X167514245Y-84454890D01*
X167280772Y-84551360D01*
X167101987Y-84729832D01*
X167005111Y-84963137D01*
X167004890Y-85215755D01*
X156498765Y-85215755D01*
X156443249Y-85192703D01*
X155978789Y-85192297D01*
X155549528Y-85369664D01*
X155220819Y-85697801D01*
X155042703Y-86126751D01*
X155042297Y-86591211D01*
X154368500Y-86591211D01*
X154368500Y-84649211D01*
X155470591Y-84649211D01*
X155562685Y-84818985D01*
X155994254Y-84990658D01*
X156458668Y-84984110D01*
X156857315Y-84818985D01*
X156949409Y-84649211D01*
X156210000Y-83909803D01*
X155470591Y-84649211D01*
X154368500Y-84649211D01*
X154368500Y-83604254D01*
X155039342Y-83604254D01*
X155045890Y-84068668D01*
X155211015Y-84467315D01*
X155380789Y-84559409D01*
X156120197Y-83820000D01*
X156299803Y-83820000D01*
X157039211Y-84559409D01*
X157208985Y-84467315D01*
X157380658Y-84035746D01*
X157379071Y-83923119D01*
X162039210Y-83923119D01*
X162118315Y-84114567D01*
X162264662Y-84261170D01*
X162455972Y-84340609D01*
X162663119Y-84340790D01*
X162854567Y-84261685D01*
X163001170Y-84115338D01*
X163080609Y-83924028D01*
X163080609Y-83923119D01*
X178549210Y-83923119D01*
X178628315Y-84114567D01*
X178774662Y-84261170D01*
X178965972Y-84340609D01*
X179173119Y-84340790D01*
X179364567Y-84261685D01*
X179511170Y-84115338D01*
X179590609Y-83924028D01*
X179590790Y-83716881D01*
X179544254Y-83604254D01*
X182979342Y-83604254D01*
X182985890Y-84068668D01*
X183151015Y-84467315D01*
X183320789Y-84559409D01*
X184060197Y-83820000D01*
X184239803Y-83820000D01*
X184979211Y-84559409D01*
X185148985Y-84467315D01*
X185320658Y-84035746D01*
X185314110Y-83571332D01*
X185148985Y-83172685D01*
X184979211Y-83080591D01*
X184239803Y-83820000D01*
X184060197Y-83820000D01*
X183320789Y-83080591D01*
X183151015Y-83172685D01*
X182979342Y-83604254D01*
X179544254Y-83604254D01*
X179511685Y-83525433D01*
X179365338Y-83378830D01*
X179174028Y-83299391D01*
X178966881Y-83299210D01*
X178775433Y-83378315D01*
X178628830Y-83524662D01*
X178549391Y-83715972D01*
X178549210Y-83923119D01*
X163080609Y-83923119D01*
X163080790Y-83716881D01*
X163001685Y-83525433D01*
X162855338Y-83378830D01*
X162664028Y-83299391D01*
X162456881Y-83299210D01*
X162265433Y-83378315D01*
X162118830Y-83524662D01*
X162039391Y-83715972D01*
X162039210Y-83923119D01*
X157379071Y-83923119D01*
X157374110Y-83571332D01*
X157208985Y-83172685D01*
X157039211Y-83080591D01*
X156299803Y-83820000D01*
X156120197Y-83820000D01*
X155380789Y-83080591D01*
X155211015Y-83172685D01*
X155039342Y-83604254D01*
X154368500Y-83604254D01*
X154368500Y-82990789D01*
X155470591Y-82990789D01*
X156210000Y-83730197D01*
X156949409Y-82990789D01*
X156857315Y-82821015D01*
X156492146Y-82675755D01*
X172084890Y-82675755D01*
X172181360Y-82909228D01*
X172359832Y-83088013D01*
X172593137Y-83184889D01*
X172845755Y-83185110D01*
X173079228Y-83088640D01*
X173177250Y-82990789D01*
X183410591Y-82990789D01*
X184150000Y-83730197D01*
X184889409Y-82990789D01*
X184797315Y-82821015D01*
X184365746Y-82649342D01*
X183901332Y-82655890D01*
X183502685Y-82821015D01*
X183410591Y-82990789D01*
X173177250Y-82990789D01*
X173258013Y-82910168D01*
X173354889Y-82676863D01*
X173355110Y-82424245D01*
X173258640Y-82190772D01*
X173080168Y-82011987D01*
X172846863Y-81915111D01*
X172594245Y-81914890D01*
X172360772Y-82011360D01*
X172181987Y-82189832D01*
X172085111Y-82423137D01*
X172084890Y-82675755D01*
X156492146Y-82675755D01*
X156425746Y-82649342D01*
X155961332Y-82655890D01*
X155562685Y-82821015D01*
X155470591Y-82990789D01*
X154368500Y-82990789D01*
X154368500Y-81511211D01*
X155042297Y-81511211D01*
X155219664Y-81940472D01*
X155547801Y-82269181D01*
X155976751Y-82447297D01*
X156441211Y-82447703D01*
X156870472Y-82270336D01*
X157199181Y-81942199D01*
X157377297Y-81513249D01*
X157377298Y-81511211D01*
X182982297Y-81511211D01*
X183159664Y-81940472D01*
X183487801Y-82269181D01*
X183916751Y-82447297D01*
X184381211Y-82447703D01*
X184810472Y-82270336D01*
X185139181Y-81942199D01*
X185317297Y-81513249D01*
X185317703Y-81048789D01*
X185140336Y-80619528D01*
X184812199Y-80290819D01*
X184383249Y-80112703D01*
X183918789Y-80112297D01*
X183489528Y-80289664D01*
X183160819Y-80617801D01*
X182982703Y-81046751D01*
X182982297Y-81511211D01*
X157377298Y-81511211D01*
X157377703Y-81048789D01*
X157200336Y-80619528D01*
X156872199Y-80290819D01*
X156498765Y-80135755D01*
X167004890Y-80135755D01*
X167101360Y-80369228D01*
X167279832Y-80548013D01*
X167513137Y-80644889D01*
X167765755Y-80645110D01*
X167999228Y-80548640D01*
X168178013Y-80370168D01*
X168274889Y-80136863D01*
X168275110Y-79884245D01*
X168178640Y-79650772D01*
X168097222Y-79569211D01*
X183410591Y-79569211D01*
X183502685Y-79738985D01*
X183934254Y-79910658D01*
X184398668Y-79904110D01*
X184797315Y-79738985D01*
X184889409Y-79569211D01*
X184150000Y-78829803D01*
X183410591Y-79569211D01*
X168097222Y-79569211D01*
X168000168Y-79471987D01*
X167766863Y-79375111D01*
X167514245Y-79374890D01*
X167280772Y-79471360D01*
X167101987Y-79649832D01*
X167005111Y-79883137D01*
X167004890Y-80135755D01*
X156498765Y-80135755D01*
X156443249Y-80112703D01*
X155978789Y-80112297D01*
X155549528Y-80289664D01*
X155220819Y-80617801D01*
X155042703Y-81046751D01*
X155042297Y-81511211D01*
X154368500Y-81511211D01*
X154368500Y-79569211D01*
X155470591Y-79569211D01*
X155562685Y-79738985D01*
X155994254Y-79910658D01*
X156458668Y-79904110D01*
X156857315Y-79738985D01*
X156949409Y-79569211D01*
X156210000Y-78829803D01*
X155470591Y-79569211D01*
X154368500Y-79569211D01*
X154368500Y-78524254D01*
X155039342Y-78524254D01*
X155045890Y-78988668D01*
X155211015Y-79387315D01*
X155380789Y-79479409D01*
X156120197Y-78740000D01*
X156299803Y-78740000D01*
X157039211Y-79479409D01*
X157208985Y-79387315D01*
X157380658Y-78955746D01*
X157379071Y-78843119D01*
X163309210Y-78843119D01*
X163388315Y-79034567D01*
X163534662Y-79181170D01*
X163725972Y-79260609D01*
X163933119Y-79260790D01*
X164124567Y-79181685D01*
X164271170Y-79035338D01*
X164350609Y-78844028D01*
X164350609Y-78843119D01*
X177279210Y-78843119D01*
X177358315Y-79034567D01*
X177504662Y-79181170D01*
X177695972Y-79260609D01*
X177903119Y-79260790D01*
X178094567Y-79181685D01*
X178241170Y-79035338D01*
X178320609Y-78844028D01*
X178320790Y-78636881D01*
X178274254Y-78524254D01*
X182979342Y-78524254D01*
X182985890Y-78988668D01*
X183151015Y-79387315D01*
X183320789Y-79479409D01*
X184060197Y-78740000D01*
X184239803Y-78740000D01*
X184979211Y-79479409D01*
X185148985Y-79387315D01*
X185320658Y-78955746D01*
X185314110Y-78491332D01*
X185148985Y-78092685D01*
X184979211Y-78000591D01*
X184239803Y-78740000D01*
X184060197Y-78740000D01*
X183320789Y-78000591D01*
X183151015Y-78092685D01*
X182979342Y-78524254D01*
X178274254Y-78524254D01*
X178241685Y-78445433D01*
X178095338Y-78298830D01*
X177904028Y-78219391D01*
X177696881Y-78219210D01*
X177505433Y-78298315D01*
X177358830Y-78444662D01*
X177279391Y-78635972D01*
X177279210Y-78843119D01*
X164350609Y-78843119D01*
X164350790Y-78636881D01*
X164271685Y-78445433D01*
X164125338Y-78298830D01*
X163934028Y-78219391D01*
X163726881Y-78219210D01*
X163535433Y-78298315D01*
X163388830Y-78444662D01*
X163309391Y-78635972D01*
X163309210Y-78843119D01*
X157379071Y-78843119D01*
X157374110Y-78491332D01*
X157208985Y-78092685D01*
X157039211Y-78000591D01*
X156299803Y-78740000D01*
X156120197Y-78740000D01*
X155380789Y-78000591D01*
X155211015Y-78092685D01*
X155039342Y-78524254D01*
X154368500Y-78524254D01*
X154368500Y-77910789D01*
X155470591Y-77910789D01*
X156210000Y-78650197D01*
X156949409Y-77910789D01*
X156857315Y-77741015D01*
X156492146Y-77595755D01*
X172084890Y-77595755D01*
X172181360Y-77829228D01*
X172359832Y-78008013D01*
X172593137Y-78104889D01*
X172845755Y-78105110D01*
X173079228Y-78008640D01*
X173177250Y-77910789D01*
X183410591Y-77910789D01*
X184150000Y-78650197D01*
X184889409Y-77910789D01*
X184797315Y-77741015D01*
X184365746Y-77569342D01*
X183901332Y-77575890D01*
X183502685Y-77741015D01*
X183410591Y-77910789D01*
X173177250Y-77910789D01*
X173258013Y-77830168D01*
X173354889Y-77596863D01*
X173355110Y-77344245D01*
X173258640Y-77110772D01*
X173080168Y-76931987D01*
X172846863Y-76835111D01*
X172594245Y-76834890D01*
X172360772Y-76931360D01*
X172181987Y-77109832D01*
X172085111Y-77343137D01*
X172084890Y-77595755D01*
X156492146Y-77595755D01*
X156425746Y-77569342D01*
X155961332Y-77575890D01*
X155562685Y-77741015D01*
X155470591Y-77910789D01*
X154368500Y-77910789D01*
X154368500Y-76431211D01*
X155042297Y-76431211D01*
X155219664Y-76860472D01*
X155547801Y-77189181D01*
X155976751Y-77367297D01*
X156441211Y-77367703D01*
X156870472Y-77190336D01*
X157199181Y-76862199D01*
X157377297Y-76433249D01*
X157377298Y-76431211D01*
X182982297Y-76431211D01*
X183159664Y-76860472D01*
X183487801Y-77189181D01*
X183916751Y-77367297D01*
X184381211Y-77367703D01*
X184810472Y-77190336D01*
X185139181Y-76862199D01*
X185317297Y-76433249D01*
X185317703Y-75968789D01*
X185140336Y-75539528D01*
X184812199Y-75210819D01*
X184383249Y-75032703D01*
X183918789Y-75032297D01*
X183489528Y-75209664D01*
X183160819Y-75537801D01*
X182982703Y-75966751D01*
X182982297Y-76431211D01*
X157377298Y-76431211D01*
X157377703Y-75968789D01*
X157200336Y-75539528D01*
X156872199Y-75210819D01*
X156498765Y-75055755D01*
X167004890Y-75055755D01*
X167101360Y-75289228D01*
X167279832Y-75468013D01*
X167513137Y-75564889D01*
X167765755Y-75565110D01*
X167999228Y-75468640D01*
X168178013Y-75290168D01*
X168274889Y-75056863D01*
X168275110Y-74804245D01*
X168178640Y-74570772D01*
X168000168Y-74391987D01*
X167766863Y-74295111D01*
X167514245Y-74294890D01*
X167280772Y-74391360D01*
X167101987Y-74569832D01*
X167005111Y-74803137D01*
X167004890Y-75055755D01*
X156498765Y-75055755D01*
X156443249Y-75032703D01*
X155978789Y-75032297D01*
X155549528Y-75209664D01*
X155220819Y-75537801D01*
X155042703Y-75966751D01*
X155042297Y-76431211D01*
X154368500Y-76431211D01*
X154368500Y-73891211D01*
X155042297Y-73891211D01*
X155219664Y-74320472D01*
X155547801Y-74649181D01*
X155976751Y-74827297D01*
X156441211Y-74827703D01*
X156870472Y-74650336D01*
X157199181Y-74322199D01*
X157377297Y-73893249D01*
X157377410Y-73763119D01*
X176009210Y-73763119D01*
X176088315Y-73954567D01*
X176234662Y-74101170D01*
X176425972Y-74180609D01*
X176633119Y-74180790D01*
X176824567Y-74101685D01*
X176971170Y-73955338D01*
X176997797Y-73891211D01*
X182982297Y-73891211D01*
X183159664Y-74320472D01*
X183487801Y-74649181D01*
X183916751Y-74827297D01*
X184381211Y-74827703D01*
X184810472Y-74650336D01*
X185139181Y-74322199D01*
X185317297Y-73893249D01*
X185317703Y-73428789D01*
X185140336Y-72999528D01*
X184812199Y-72670819D01*
X184383249Y-72492703D01*
X183918789Y-72492297D01*
X183489528Y-72669664D01*
X183160819Y-72997801D01*
X182982703Y-73426751D01*
X182982297Y-73891211D01*
X176997797Y-73891211D01*
X177050609Y-73764028D01*
X177050790Y-73556881D01*
X176971685Y-73365433D01*
X176825338Y-73218830D01*
X176634028Y-73139391D01*
X176426881Y-73139210D01*
X176235433Y-73218315D01*
X176088830Y-73364662D01*
X176009391Y-73555972D01*
X176009210Y-73763119D01*
X157377410Y-73763119D01*
X157377703Y-73428789D01*
X157200336Y-72999528D01*
X156872199Y-72670819D01*
X156443249Y-72492703D01*
X155978789Y-72492297D01*
X155549528Y-72669664D01*
X155220819Y-72997801D01*
X155042703Y-73426751D01*
X155042297Y-73891211D01*
X154368500Y-73891211D01*
X154368500Y-71818500D01*
X167386056Y-71818500D01*
X167385890Y-72007755D01*
X167385890Y-72007755D01*
G37*
X167385890Y-72007755D02*
X167482360Y-72241228D01*
X167660832Y-72420013D01*
X167894137Y-72516889D01*
X168146755Y-72517110D01*
X168380228Y-72420640D01*
X168559013Y-72242168D01*
X168655889Y-72008863D01*
X168656056Y-71818500D01*
X185991500Y-71818500D01*
X185991500Y-136461500D01*
X154368500Y-136461500D01*
X154368500Y-134851211D01*
X155042297Y-134851211D01*
X155219664Y-135280472D01*
X155547801Y-135609181D01*
X155976751Y-135787297D01*
X156441211Y-135787703D01*
X156870472Y-135610336D01*
X157199181Y-135282199D01*
X157377297Y-134853249D01*
X157377298Y-134851211D01*
X157582297Y-134851211D01*
X157759664Y-135280472D01*
X158087801Y-135609181D01*
X158516751Y-135787297D01*
X158981211Y-135787703D01*
X159410472Y-135610336D01*
X159739181Y-135282199D01*
X159917297Y-134853249D01*
X159917298Y-134851211D01*
X160122297Y-134851211D01*
X160299664Y-135280472D01*
X160627801Y-135609181D01*
X161056751Y-135787297D01*
X161521211Y-135787703D01*
X161950472Y-135610336D01*
X162279181Y-135282199D01*
X162457297Y-134853249D01*
X162457298Y-134851211D01*
X162662297Y-134851211D01*
X162839664Y-135280472D01*
X163167801Y-135609181D01*
X163596751Y-135787297D01*
X164061211Y-135787703D01*
X164490472Y-135610336D01*
X164819181Y-135282199D01*
X164997297Y-134853249D01*
X164997298Y-134851211D01*
X165202297Y-134851211D01*
X165379664Y-135280472D01*
X165707801Y-135609181D01*
X166136751Y-135787297D01*
X166601211Y-135787703D01*
X167030472Y-135610336D01*
X167359181Y-135282199D01*
X167537297Y-134853249D01*
X167537298Y-134851211D01*
X167742297Y-134851211D01*
X167919664Y-135280472D01*
X168247801Y-135609181D01*
X168676751Y-135787297D01*
X169141211Y-135787703D01*
X169570472Y-135610336D01*
X169899181Y-135282199D01*
X170077297Y-134853249D01*
X170077298Y-134851211D01*
X170282297Y-134851211D01*
X170459664Y-135280472D01*
X170787801Y-135609181D01*
X171216751Y-135787297D01*
X171681211Y-135787703D01*
X172110472Y-135610336D01*
X172439181Y-135282199D01*
X172617297Y-134853249D01*
X172617298Y-134851211D01*
X172822297Y-134851211D01*
X172999664Y-135280472D01*
X173327801Y-135609181D01*
X173756751Y-135787297D01*
X174221211Y-135787703D01*
X174650472Y-135610336D01*
X174979181Y-135282199D01*
X175157297Y-134853249D01*
X175157298Y-134851211D01*
X175362297Y-134851211D01*
X175539664Y-135280472D01*
X175867801Y-135609181D01*
X176296751Y-135787297D01*
X176761211Y-135787703D01*
X177190472Y-135610336D01*
X177519181Y-135282199D01*
X177697297Y-134853249D01*
X177697298Y-134851211D01*
X177902297Y-134851211D01*
X178079664Y-135280472D01*
X178407801Y-135609181D01*
X178836751Y-135787297D01*
X179301211Y-135787703D01*
X179730472Y-135610336D01*
X180059181Y-135282199D01*
X180237297Y-134853249D01*
X180237298Y-134851211D01*
X180442297Y-134851211D01*
X180619664Y-135280472D01*
X180947801Y-135609181D01*
X181376751Y-135787297D01*
X181841211Y-135787703D01*
X182270472Y-135610336D01*
X182599181Y-135282199D01*
X182777297Y-134853249D01*
X182777298Y-134851211D01*
X182982297Y-134851211D01*
X183159664Y-135280472D01*
X183487801Y-135609181D01*
X183916751Y-135787297D01*
X184381211Y-135787703D01*
X184810472Y-135610336D01*
X185139181Y-135282199D01*
X185317297Y-134853249D01*
X185317703Y-134388789D01*
X185140336Y-133959528D01*
X184812199Y-133630819D01*
X184383249Y-133452703D01*
X183918789Y-133452297D01*
X183489528Y-133629664D01*
X183160819Y-133957801D01*
X182982703Y-134386751D01*
X182982297Y-134851211D01*
X182777298Y-134851211D01*
X182777703Y-134388789D01*
X182600336Y-133959528D01*
X182272199Y-133630819D01*
X181843249Y-133452703D01*
X181378789Y-133452297D01*
X180949528Y-133629664D01*
X180620819Y-133957801D01*
X180442703Y-134386751D01*
X180442297Y-134851211D01*
X180237298Y-134851211D01*
X180237703Y-134388789D01*
X180060336Y-133959528D01*
X179732199Y-133630819D01*
X179303249Y-133452703D01*
X178838789Y-133452297D01*
X178409528Y-133629664D01*
X178080819Y-133957801D01*
X177902703Y-134386751D01*
X177902297Y-134851211D01*
X177697298Y-134851211D01*
X177697703Y-134388789D01*
X177520336Y-133959528D01*
X177192199Y-133630819D01*
X176763249Y-133452703D01*
X176298789Y-133452297D01*
X175869528Y-133629664D01*
X175540819Y-133957801D01*
X175362703Y-134386751D01*
X175362297Y-134851211D01*
X175157298Y-134851211D01*
X175157703Y-134388789D01*
X174980336Y-133959528D01*
X174652199Y-133630819D01*
X174223249Y-133452703D01*
X173758789Y-133452297D01*
X173329528Y-133629664D01*
X173000819Y-133957801D01*
X172822703Y-134386751D01*
X172822297Y-134851211D01*
X172617298Y-134851211D01*
X172617703Y-134388789D01*
X172440336Y-133959528D01*
X172112199Y-133630819D01*
X171683249Y-133452703D01*
X171218789Y-133452297D01*
X170789528Y-133629664D01*
X170460819Y-133957801D01*
X170282703Y-134386751D01*
X170282297Y-134851211D01*
X170077298Y-134851211D01*
X170077703Y-134388789D01*
X169900336Y-133959528D01*
X169572199Y-133630819D01*
X169143249Y-133452703D01*
X168678789Y-133452297D01*
X168249528Y-133629664D01*
X167920819Y-133957801D01*
X167742703Y-134386751D01*
X167742297Y-134851211D01*
X167537298Y-134851211D01*
X167537703Y-134388789D01*
X167360336Y-133959528D01*
X167032199Y-133630819D01*
X166603249Y-133452703D01*
X166138789Y-133452297D01*
X165709528Y-133629664D01*
X165380819Y-133957801D01*
X165202703Y-134386751D01*
X165202297Y-134851211D01*
X164997298Y-134851211D01*
X164997703Y-134388789D01*
X164820336Y-133959528D01*
X164492199Y-133630819D01*
X164063249Y-133452703D01*
X163598789Y-133452297D01*
X163169528Y-133629664D01*
X162840819Y-133957801D01*
X162662703Y-134386751D01*
X162662297Y-134851211D01*
X162457298Y-134851211D01*
X162457703Y-134388789D01*
X162280336Y-133959528D01*
X161952199Y-133630819D01*
X161523249Y-133452703D01*
X161058789Y-133452297D01*
X160629528Y-133629664D01*
X160300819Y-133957801D01*
X160122703Y-134386751D01*
X160122297Y-134851211D01*
X159917298Y-134851211D01*
X159917703Y-134388789D01*
X159740336Y-133959528D01*
X159412199Y-133630819D01*
X158983249Y-133452703D01*
X158518789Y-133452297D01*
X158089528Y-133629664D01*
X157760819Y-133957801D01*
X157582703Y-134386751D01*
X157582297Y-134851211D01*
X157377298Y-134851211D01*
X157377703Y-134388789D01*
X157200336Y-133959528D01*
X156872199Y-133630819D01*
X156443249Y-133452703D01*
X155978789Y-133452297D01*
X155549528Y-133629664D01*
X155220819Y-133957801D01*
X155042703Y-134386751D01*
X155042297Y-134851211D01*
X154368500Y-134851211D01*
X154368500Y-132311211D01*
X155042297Y-132311211D01*
X155219664Y-132740472D01*
X155547801Y-133069181D01*
X155976751Y-133247297D01*
X156441211Y-133247703D01*
X156870472Y-133070336D01*
X157031877Y-132909211D01*
X158010591Y-132909211D01*
X158102685Y-133078985D01*
X158534254Y-133250658D01*
X158998668Y-133244110D01*
X159397315Y-133078985D01*
X159489409Y-132909211D01*
X160550591Y-132909211D01*
X160642685Y-133078985D01*
X161074254Y-133250658D01*
X161538668Y-133244110D01*
X161937315Y-133078985D01*
X162029409Y-132909211D01*
X163090591Y-132909211D01*
X163182685Y-133078985D01*
X163614254Y-133250658D01*
X164078668Y-133244110D01*
X164477315Y-133078985D01*
X164569409Y-132909211D01*
X165630591Y-132909211D01*
X165722685Y-133078985D01*
X166154254Y-133250658D01*
X166618668Y-133244110D01*
X167017315Y-133078985D01*
X167109409Y-132909211D01*
X168170591Y-132909211D01*
X168262685Y-133078985D01*
X168694254Y-133250658D01*
X169158668Y-133244110D01*
X169557315Y-133078985D01*
X169649409Y-132909211D01*
X170710591Y-132909211D01*
X170802685Y-133078985D01*
X171234254Y-133250658D01*
X171698668Y-133244110D01*
X172097315Y-133078985D01*
X172189409Y-132909211D01*
X173250591Y-132909211D01*
X173342685Y-133078985D01*
X173774254Y-133250658D01*
X174238668Y-133244110D01*
X174637315Y-133078985D01*
X174729409Y-132909211D01*
X175790591Y-132909211D01*
X175882685Y-133078985D01*
X176314254Y-133250658D01*
X176778668Y-133244110D01*
X177177315Y-133078985D01*
X177269409Y-132909211D01*
X178330591Y-132909211D01*
X178422685Y-133078985D01*
X178854254Y-133250658D01*
X179318668Y-133244110D01*
X179717315Y-133078985D01*
X179809409Y-132909211D01*
X180870591Y-132909211D01*
X180962685Y-133078985D01*
X181394254Y-133250658D01*
X181858668Y-133244110D01*
X182257315Y-133078985D01*
X182349409Y-132909211D01*
X181610000Y-132169803D01*
X180870591Y-132909211D01*
X179809409Y-132909211D01*
X179070000Y-132169803D01*
X178330591Y-132909211D01*
X177269409Y-132909211D01*
X176530000Y-132169803D01*
X175790591Y-132909211D01*
X174729409Y-132909211D01*
X173990000Y-132169803D01*
X173250591Y-132909211D01*
X172189409Y-132909211D01*
X171450000Y-132169803D01*
X170710591Y-132909211D01*
X169649409Y-132909211D01*
X168910000Y-132169803D01*
X168170591Y-132909211D01*
X167109409Y-132909211D01*
X166370000Y-132169803D01*
X165630591Y-132909211D01*
X164569409Y-132909211D01*
X163830000Y-132169803D01*
X163090591Y-132909211D01*
X162029409Y-132909211D01*
X161290000Y-132169803D01*
X160550591Y-132909211D01*
X159489409Y-132909211D01*
X158750000Y-132169803D01*
X158010591Y-132909211D01*
X157031877Y-132909211D01*
X157199181Y-132742199D01*
X157377297Y-132313249D01*
X157377689Y-131864254D01*
X157579342Y-131864254D01*
X157585890Y-132328668D01*
X157751015Y-132727315D01*
X157920789Y-132819409D01*
X158660197Y-132080000D01*
X158839803Y-132080000D01*
X159579211Y-132819409D01*
X159748985Y-132727315D01*
X159920658Y-132295746D01*
X159914575Y-131864254D01*
X160119342Y-131864254D01*
X160125890Y-132328668D01*
X160291015Y-132727315D01*
X160460789Y-132819409D01*
X161200197Y-132080000D01*
X161379803Y-132080000D01*
X162119211Y-132819409D01*
X162288985Y-132727315D01*
X162460658Y-132295746D01*
X162454575Y-131864254D01*
X162659342Y-131864254D01*
X162665890Y-132328668D01*
X162831015Y-132727315D01*
X163000789Y-132819409D01*
X163740197Y-132080000D01*
X163919803Y-132080000D01*
X164659211Y-132819409D01*
X164828985Y-132727315D01*
X165000658Y-132295746D01*
X164994575Y-131864254D01*
X165199342Y-131864254D01*
X165205890Y-132328668D01*
X165371015Y-132727315D01*
X165540789Y-132819409D01*
X166280197Y-132080000D01*
X166459803Y-132080000D01*
X167199211Y-132819409D01*
X167368985Y-132727315D01*
X167540658Y-132295746D01*
X167534575Y-131864254D01*
X167739342Y-131864254D01*
X167745890Y-132328668D01*
X167911015Y-132727315D01*
X168080789Y-132819409D01*
X168820197Y-132080000D01*
X168999803Y-132080000D01*
X169739211Y-132819409D01*
X169908985Y-132727315D01*
X170080658Y-132295746D01*
X170074575Y-131864254D01*
X170279342Y-131864254D01*
X170285890Y-132328668D01*
X170451015Y-132727315D01*
X170620789Y-132819409D01*
X171360197Y-132080000D01*
X171539803Y-132080000D01*
X172279211Y-132819409D01*
X172448985Y-132727315D01*
X172620658Y-132295746D01*
X172614575Y-131864254D01*
X172819342Y-131864254D01*
X172825890Y-132328668D01*
X172991015Y-132727315D01*
X173160789Y-132819409D01*
X173900197Y-132080000D01*
X174079803Y-132080000D01*
X174819211Y-132819409D01*
X174988985Y-132727315D01*
X175160658Y-132295746D01*
X175154575Y-131864254D01*
X175359342Y-131864254D01*
X175365890Y-132328668D01*
X175531015Y-132727315D01*
X175700789Y-132819409D01*
X176440197Y-132080000D01*
X176619803Y-132080000D01*
X177359211Y-132819409D01*
X177528985Y-132727315D01*
X177700658Y-132295746D01*
X177694575Y-131864254D01*
X177899342Y-131864254D01*
X177905890Y-132328668D01*
X178071015Y-132727315D01*
X178240789Y-132819409D01*
X178980197Y-132080000D01*
X179159803Y-132080000D01*
X179899211Y-132819409D01*
X180068985Y-132727315D01*
X180240658Y-132295746D01*
X180234575Y-131864254D01*
X180439342Y-131864254D01*
X180445890Y-132328668D01*
X180611015Y-132727315D01*
X180780789Y-132819409D01*
X181520197Y-132080000D01*
X181699803Y-132080000D01*
X182439211Y-132819409D01*
X182608985Y-132727315D01*
X182774506Y-132311211D01*
X182982297Y-132311211D01*
X183159664Y-132740472D01*
X183487801Y-133069181D01*
X183916751Y-133247297D01*
X184381211Y-133247703D01*
X184810472Y-133070336D01*
X185139181Y-132742199D01*
X185317297Y-132313249D01*
X185317703Y-131848789D01*
X185140336Y-131419528D01*
X184812199Y-131090819D01*
X184383249Y-130912703D01*
X183918789Y-130912297D01*
X183489528Y-131089664D01*
X183160819Y-131417801D01*
X182982703Y-131846751D01*
X182982297Y-132311211D01*
X182774506Y-132311211D01*
X182780658Y-132295746D01*
X182774110Y-131831332D01*
X182608985Y-131432685D01*
X182439211Y-131340591D01*
X181699803Y-132080000D01*
X181520197Y-132080000D01*
X180780789Y-131340591D01*
X180611015Y-131432685D01*
X180439342Y-131864254D01*
X180234575Y-131864254D01*
X180234110Y-131831332D01*
X180068985Y-131432685D01*
X179899211Y-131340591D01*
X179159803Y-132080000D01*
X178980197Y-132080000D01*
X178240789Y-131340591D01*
X178071015Y-131432685D01*
X177899342Y-131864254D01*
X177694575Y-131864254D01*
X177694110Y-131831332D01*
X177528985Y-131432685D01*
X177359211Y-131340591D01*
X176619803Y-132080000D01*
X176440197Y-132080000D01*
X175700789Y-131340591D01*
X175531015Y-131432685D01*
X175359342Y-131864254D01*
X175154575Y-131864254D01*
X175154110Y-131831332D01*
X174988985Y-131432685D01*
X174819211Y-131340591D01*
X174079803Y-132080000D01*
X173900197Y-132080000D01*
X173160789Y-131340591D01*
X172991015Y-131432685D01*
X172819342Y-131864254D01*
X172614575Y-131864254D01*
X172614110Y-131831332D01*
X172448985Y-131432685D01*
X172279211Y-131340591D01*
X171539803Y-132080000D01*
X171360197Y-132080000D01*
X170620789Y-131340591D01*
X170451015Y-131432685D01*
X170279342Y-131864254D01*
X170074575Y-131864254D01*
X170074110Y-131831332D01*
X169908985Y-131432685D01*
X169739211Y-131340591D01*
X168999803Y-132080000D01*
X168820197Y-132080000D01*
X168080789Y-131340591D01*
X167911015Y-131432685D01*
X167739342Y-131864254D01*
X167534575Y-131864254D01*
X167534110Y-131831332D01*
X167368985Y-131432685D01*
X167199211Y-131340591D01*
X166459803Y-132080000D01*
X166280197Y-132080000D01*
X165540789Y-131340591D01*
X165371015Y-131432685D01*
X165199342Y-131864254D01*
X164994575Y-131864254D01*
X164994110Y-131831332D01*
X164828985Y-131432685D01*
X164659211Y-131340591D01*
X163919803Y-132080000D01*
X163740197Y-132080000D01*
X163000789Y-131340591D01*
X162831015Y-131432685D01*
X162659342Y-131864254D01*
X162454575Y-131864254D01*
X162454110Y-131831332D01*
X162288985Y-131432685D01*
X162119211Y-131340591D01*
X161379803Y-132080000D01*
X161200197Y-132080000D01*
X160460789Y-131340591D01*
X160291015Y-131432685D01*
X160119342Y-131864254D01*
X159914575Y-131864254D01*
X159914110Y-131831332D01*
X159748985Y-131432685D01*
X159579211Y-131340591D01*
X158839803Y-132080000D01*
X158660197Y-132080000D01*
X157920789Y-131340591D01*
X157751015Y-131432685D01*
X157579342Y-131864254D01*
X157377689Y-131864254D01*
X157377703Y-131848789D01*
X157200336Y-131419528D01*
X157031891Y-131250789D01*
X158010591Y-131250789D01*
X158750000Y-131990197D01*
X159489409Y-131250789D01*
X160550591Y-131250789D01*
X161290000Y-131990197D01*
X162029409Y-131250789D01*
X163090591Y-131250789D01*
X163830000Y-131990197D01*
X164569409Y-131250789D01*
X165630591Y-131250789D01*
X166370000Y-131990197D01*
X167109409Y-131250789D01*
X168170591Y-131250789D01*
X168910000Y-131990197D01*
X169649409Y-131250789D01*
X170710591Y-131250789D01*
X171450000Y-131990197D01*
X172189409Y-131250789D01*
X173250591Y-131250789D01*
X173990000Y-131990197D01*
X174729409Y-131250789D01*
X175790591Y-131250789D01*
X176530000Y-131990197D01*
X177269409Y-131250789D01*
X178330591Y-131250789D01*
X179070000Y-131990197D01*
X179809409Y-131250789D01*
X180870591Y-131250789D01*
X181610000Y-131990197D01*
X182349409Y-131250789D01*
X182257315Y-131081015D01*
X181825746Y-130909342D01*
X181361332Y-130915890D01*
X180962685Y-131081015D01*
X180870591Y-131250789D01*
X179809409Y-131250789D01*
X179717315Y-131081015D01*
X179285746Y-130909342D01*
X178821332Y-130915890D01*
X178422685Y-131081015D01*
X178330591Y-131250789D01*
X177269409Y-131250789D01*
X177177315Y-131081015D01*
X176745746Y-130909342D01*
X176281332Y-130915890D01*
X175882685Y-131081015D01*
X175790591Y-131250789D01*
X174729409Y-131250789D01*
X174637315Y-131081015D01*
X174205746Y-130909342D01*
X173741332Y-130915890D01*
X173342685Y-131081015D01*
X173250591Y-131250789D01*
X172189409Y-131250789D01*
X172097315Y-131081015D01*
X171665746Y-130909342D01*
X171201332Y-130915890D01*
X170802685Y-131081015D01*
X170710591Y-131250789D01*
X169649409Y-131250789D01*
X169557315Y-131081015D01*
X169125746Y-130909342D01*
X168661332Y-130915890D01*
X168262685Y-131081015D01*
X168170591Y-131250789D01*
X167109409Y-131250789D01*
X167017315Y-131081015D01*
X166585746Y-130909342D01*
X166121332Y-130915890D01*
X165722685Y-131081015D01*
X165630591Y-131250789D01*
X164569409Y-131250789D01*
X164477315Y-131081015D01*
X164045746Y-130909342D01*
X163581332Y-130915890D01*
X163182685Y-131081015D01*
X163090591Y-131250789D01*
X162029409Y-131250789D01*
X161937315Y-131081015D01*
X161505746Y-130909342D01*
X161041332Y-130915890D01*
X160642685Y-131081015D01*
X160550591Y-131250789D01*
X159489409Y-131250789D01*
X159397315Y-131081015D01*
X158965746Y-130909342D01*
X158501332Y-130915890D01*
X158102685Y-131081015D01*
X158010591Y-131250789D01*
X157031891Y-131250789D01*
X156872199Y-131090819D01*
X156443249Y-130912703D01*
X155978789Y-130912297D01*
X155549528Y-131089664D01*
X155220819Y-131417801D01*
X155042703Y-131846751D01*
X155042297Y-132311211D01*
X154368500Y-132311211D01*
X154368500Y-129771211D01*
X155042297Y-129771211D01*
X155219664Y-130200472D01*
X155547801Y-130529181D01*
X155976751Y-130707297D01*
X156441211Y-130707703D01*
X156870472Y-130530336D01*
X157100453Y-130300755D01*
X159003890Y-130300755D01*
X159100360Y-130534228D01*
X159278832Y-130713013D01*
X159512137Y-130809889D01*
X159764755Y-130810110D01*
X159998228Y-130713640D01*
X160177013Y-130535168D01*
X160273889Y-130301863D01*
X160273909Y-130278119D01*
X163309210Y-130278119D01*
X163388315Y-130469567D01*
X163534662Y-130616170D01*
X163725972Y-130695609D01*
X163933119Y-130695790D01*
X164124567Y-130616685D01*
X164271170Y-130470338D01*
X164350609Y-130279028D01*
X164350609Y-130278119D01*
X165849210Y-130278119D01*
X165928315Y-130469567D01*
X166074662Y-130616170D01*
X166265972Y-130695609D01*
X166473119Y-130695790D01*
X166664567Y-130616685D01*
X166687411Y-130593880D01*
X166709662Y-130616170D01*
X166900972Y-130695609D01*
X167108119Y-130695790D01*
X167299567Y-130616685D01*
X167446170Y-130470338D01*
X167516587Y-130300755D01*
X169671890Y-130300755D01*
X169768360Y-130534228D01*
X169946832Y-130713013D01*
X170180137Y-130809889D01*
X170432755Y-130810110D01*
X170666228Y-130713640D01*
X170845013Y-130535168D01*
X170941889Y-130301863D01*
X170941889Y-130300755D01*
X173735890Y-130300755D01*
X173832360Y-130534228D01*
X174010832Y-130713013D01*
X174244137Y-130809889D01*
X174496755Y-130810110D01*
X174730228Y-130713640D01*
X174909013Y-130535168D01*
X175005889Y-130301863D01*
X175005889Y-130300755D01*
X177799890Y-130300755D01*
X177896360Y-130534228D01*
X178074832Y-130713013D01*
X178308137Y-130809889D01*
X178560755Y-130810110D01*
X178794228Y-130713640D01*
X178973013Y-130535168D01*
X179069889Y-130301863D01*
X179069890Y-130300755D01*
X179166360Y-130534228D01*
X179344832Y-130713013D01*
X179578137Y-130809889D01*
X179830755Y-130810110D01*
X180064228Y-130713640D01*
X180243013Y-130535168D01*
X180339889Y-130301863D01*
X180340110Y-130049245D01*
X180243640Y-129815772D01*
X180071290Y-129643119D01*
X180454210Y-129643119D01*
X180533315Y-129834567D01*
X180679662Y-129981170D01*
X180870972Y-130060609D01*
X181078119Y-130060790D01*
X181269567Y-129981685D01*
X181416170Y-129835338D01*
X181442797Y-129771211D01*
X182982297Y-129771211D01*
X183159664Y-130200472D01*
X183487801Y-130529181D01*
X183916751Y-130707297D01*
X184381211Y-130707703D01*
X184810472Y-130530336D01*
X185139181Y-130202199D01*
X185317297Y-129773249D01*
X185317703Y-129308789D01*
X185140336Y-128879528D01*
X184812199Y-128550819D01*
X184383249Y-128372703D01*
X183918789Y-128372297D01*
X183489528Y-128549664D01*
X183160819Y-128877801D01*
X182982703Y-129306751D01*
X182982297Y-129771211D01*
X181442797Y-129771211D01*
X181495609Y-129644028D01*
X181495790Y-129436881D01*
X181416685Y-129245433D01*
X181270338Y-129098830D01*
X181079028Y-129019391D01*
X180871881Y-129019210D01*
X180680433Y-129098315D01*
X180533830Y-129244662D01*
X180454391Y-129435972D01*
X180454210Y-129643119D01*
X180071290Y-129643119D01*
X180065168Y-129636987D01*
X179835325Y-129541549D01*
X179999567Y-129473685D01*
X180146170Y-129327338D01*
X180225609Y-129136028D01*
X180225790Y-128928881D01*
X180146685Y-128737433D01*
X180000338Y-128590830D01*
X179809028Y-128511391D01*
X179601881Y-128511210D01*
X179410433Y-128590315D01*
X179263830Y-128736662D01*
X179184391Y-128927972D01*
X179184210Y-129135119D01*
X179263315Y-129326567D01*
X179409662Y-129473170D01*
X179574782Y-129541734D01*
X179345772Y-129636360D01*
X179166987Y-129814832D01*
X179070111Y-130048137D01*
X179070110Y-130049245D01*
X178973640Y-129815772D01*
X178795168Y-129636987D01*
X178561863Y-129540111D01*
X178309245Y-129539890D01*
X178075772Y-129636360D01*
X177896987Y-129814832D01*
X177800111Y-130048137D01*
X177799890Y-130300755D01*
X175005889Y-130300755D01*
X175006110Y-130049245D01*
X174909640Y-129815772D01*
X174731168Y-129636987D01*
X174497863Y-129540111D01*
X174245245Y-129539890D01*
X174011772Y-129636360D01*
X173832987Y-129814832D01*
X173736111Y-130048137D01*
X173735890Y-130300755D01*
X170941889Y-130300755D01*
X170942110Y-130049245D01*
X170845640Y-129815772D01*
X170667168Y-129636987D01*
X170433863Y-129540111D01*
X170181245Y-129539890D01*
X169947772Y-129636360D01*
X169768987Y-129814832D01*
X169672111Y-130048137D01*
X169671890Y-130300755D01*
X167516587Y-130300755D01*
X167525609Y-130279028D01*
X167525790Y-130071881D01*
X167446685Y-129880433D01*
X167300338Y-129733830D01*
X167109028Y-129654391D01*
X166901881Y-129654210D01*
X166710433Y-129733315D01*
X166687589Y-129756120D01*
X166665338Y-129733830D01*
X166474028Y-129654391D01*
X166266881Y-129654210D01*
X166075433Y-129733315D01*
X165928830Y-129879662D01*
X165849391Y-130070972D01*
X165849210Y-130278119D01*
X164350609Y-130278119D01*
X164350790Y-130071881D01*
X164271685Y-129880433D01*
X164125338Y-129733830D01*
X163934028Y-129654391D01*
X163726881Y-129654210D01*
X163535433Y-129733315D01*
X163388830Y-129879662D01*
X163309391Y-130070972D01*
X163309210Y-130278119D01*
X160273909Y-130278119D01*
X160274110Y-130049245D01*
X160177640Y-129815772D01*
X159999168Y-129636987D01*
X159765863Y-129540111D01*
X159513245Y-129539890D01*
X159279772Y-129636360D01*
X159100987Y-129814832D01*
X159004111Y-130048137D01*
X159003890Y-130300755D01*
X157100453Y-130300755D01*
X157199181Y-130202199D01*
X157377297Y-129773249D01*
X157377703Y-129308789D01*
X157253469Y-129008119D01*
X158864210Y-129008119D01*
X158943315Y-129199567D01*
X159089662Y-129346170D01*
X159280972Y-129425609D01*
X159488119Y-129425790D01*
X159679567Y-129346685D01*
X159826170Y-129200338D01*
X159905609Y-129009028D01*
X159905790Y-128801881D01*
X159833580Y-128627119D01*
X177914210Y-128627119D01*
X177993315Y-128818567D01*
X178139662Y-128965170D01*
X178330972Y-129044609D01*
X178538119Y-129044790D01*
X178729567Y-128965685D01*
X178876170Y-128819338D01*
X178955609Y-128628028D01*
X178955790Y-128420881D01*
X178876685Y-128229433D01*
X178730338Y-128082830D01*
X178539028Y-128003391D01*
X178331881Y-128003210D01*
X178140433Y-128082315D01*
X177993830Y-128228662D01*
X177914391Y-128419972D01*
X177914210Y-128627119D01*
X159833580Y-128627119D01*
X159826685Y-128610433D01*
X159680338Y-128463830D01*
X159489028Y-128384391D01*
X159281881Y-128384210D01*
X159090433Y-128463315D01*
X158943830Y-128609662D01*
X158864391Y-128800972D01*
X158864210Y-129008119D01*
X157253469Y-129008119D01*
X157200336Y-128879528D01*
X156872199Y-128550819D01*
X156443249Y-128372703D01*
X155978789Y-128372297D01*
X155549528Y-128549664D01*
X155220819Y-128877801D01*
X155042703Y-129306751D01*
X155042297Y-129771211D01*
X154368500Y-129771211D01*
X154368500Y-127231211D01*
X155042297Y-127231211D01*
X155219664Y-127660472D01*
X155547801Y-127989181D01*
X155976751Y-128167297D01*
X156441211Y-128167703D01*
X156558793Y-128119119D01*
X176644210Y-128119119D01*
X176723315Y-128310567D01*
X176869662Y-128457170D01*
X177060972Y-128536609D01*
X177268119Y-128536790D01*
X177459567Y-128457685D01*
X177606170Y-128311338D01*
X177685609Y-128120028D01*
X177685790Y-127912881D01*
X177606685Y-127721433D01*
X177460338Y-127574830D01*
X177269028Y-127495391D01*
X177061881Y-127495210D01*
X176870433Y-127574315D01*
X176723830Y-127720662D01*
X176644391Y-127911972D01*
X176644210Y-128119119D01*
X156558793Y-128119119D01*
X156870472Y-127990336D01*
X157199181Y-127662199D01*
X157220391Y-127611119D01*
X158864210Y-127611119D01*
X158943315Y-127802567D01*
X159089662Y-127949170D01*
X159280972Y-128028609D01*
X159488119Y-128028790D01*
X159679567Y-127949685D01*
X159826170Y-127803338D01*
X159905609Y-127612028D01*
X159905609Y-127611119D01*
X160134210Y-127611119D01*
X160213315Y-127802567D01*
X160359662Y-127949170D01*
X160550972Y-128028609D01*
X160758119Y-128028790D01*
X160949567Y-127949685D01*
X161096170Y-127803338D01*
X161175609Y-127612028D01*
X161175609Y-127611119D01*
X161404210Y-127611119D01*
X161483315Y-127802567D01*
X161629662Y-127949170D01*
X161820972Y-128028609D01*
X162028119Y-128028790D01*
X162219567Y-127949685D01*
X162366170Y-127803338D01*
X162445609Y-127612028D01*
X162445609Y-127611119D01*
X162674210Y-127611119D01*
X162753315Y-127802567D01*
X162899662Y-127949170D01*
X163090972Y-128028609D01*
X163298119Y-128028790D01*
X163489567Y-127949685D01*
X163636170Y-127803338D01*
X163715609Y-127612028D01*
X163715609Y-127611119D01*
X164452210Y-127611119D01*
X164531315Y-127802567D01*
X164677662Y-127949170D01*
X164868972Y-128028609D01*
X165076119Y-128028790D01*
X165267567Y-127949685D01*
X165354022Y-127863381D01*
X165439662Y-127949170D01*
X165630972Y-128028609D01*
X165838119Y-128028790D01*
X166029567Y-127949685D01*
X166052411Y-127926880D01*
X166074662Y-127949170D01*
X166265972Y-128028609D01*
X166473119Y-128028790D01*
X166664567Y-127949685D01*
X166687411Y-127926880D01*
X166709662Y-127949170D01*
X166900972Y-128028609D01*
X167108119Y-128028790D01*
X167299567Y-127949685D01*
X167446170Y-127803338D01*
X167525609Y-127612028D01*
X167525790Y-127404881D01*
X167446685Y-127213433D01*
X167359161Y-127125755D01*
X177164890Y-127125755D01*
X177261360Y-127359228D01*
X177439832Y-127538013D01*
X177673137Y-127634889D01*
X177925755Y-127635110D01*
X178159228Y-127538640D01*
X178338013Y-127360168D01*
X178434889Y-127126863D01*
X178434890Y-127125755D01*
X178531360Y-127359228D01*
X178709832Y-127538013D01*
X178943137Y-127634889D01*
X179195755Y-127635110D01*
X179429228Y-127538640D01*
X179608013Y-127360168D01*
X179704889Y-127126863D01*
X179704890Y-127125755D01*
X179801360Y-127359228D01*
X179979832Y-127538013D01*
X180213137Y-127634889D01*
X180465755Y-127635110D01*
X180699228Y-127538640D01*
X180878013Y-127360168D01*
X180931560Y-127231211D01*
X182982297Y-127231211D01*
X183159664Y-127660472D01*
X183487801Y-127989181D01*
X183916751Y-128167297D01*
X184381211Y-128167703D01*
X184810472Y-127990336D01*
X185139181Y-127662199D01*
X185317297Y-127233249D01*
X185317703Y-126768789D01*
X185140336Y-126339528D01*
X184812199Y-126010819D01*
X184383249Y-125832703D01*
X183918789Y-125832297D01*
X183489528Y-126009664D01*
X183160819Y-126337801D01*
X182982703Y-126766751D01*
X182982297Y-127231211D01*
X180931560Y-127231211D01*
X180974889Y-127126863D01*
X180975110Y-126874245D01*
X180878640Y-126640772D01*
X180700168Y-126461987D01*
X180466863Y-126365111D01*
X180214245Y-126364890D01*
X179980772Y-126461360D01*
X179801987Y-126639832D01*
X179705111Y-126873137D01*
X179705110Y-126874245D01*
X179608640Y-126640772D01*
X179430168Y-126461987D01*
X179196863Y-126365111D01*
X178944245Y-126364890D01*
X178710772Y-126461360D01*
X178531987Y-126639832D01*
X178435111Y-126873137D01*
X178435110Y-126874245D01*
X178338640Y-126640772D01*
X178160168Y-126461987D01*
X177926863Y-126365111D01*
X177674245Y-126364890D01*
X177440772Y-126461360D01*
X177261987Y-126639832D01*
X177165111Y-126873137D01*
X177164890Y-127125755D01*
X167359161Y-127125755D01*
X167300338Y-127066830D01*
X167109028Y-126987391D01*
X166901881Y-126987210D01*
X166710433Y-127066315D01*
X166687589Y-127089120D01*
X166665338Y-127066830D01*
X166474028Y-126987391D01*
X166266881Y-126987210D01*
X166075433Y-127066315D01*
X166052589Y-127089120D01*
X166030338Y-127066830D01*
X165839028Y-126987391D01*
X165631881Y-126987210D01*
X165440433Y-127066315D01*
X165353978Y-127152619D01*
X165268338Y-127066830D01*
X165077028Y-126987391D01*
X164869881Y-126987210D01*
X164678433Y-127066315D01*
X164531830Y-127212662D01*
X164452391Y-127403972D01*
X164452210Y-127611119D01*
X163715609Y-127611119D01*
X163715790Y-127404881D01*
X163636685Y-127213433D01*
X163490338Y-127066830D01*
X163299028Y-126987391D01*
X163091881Y-126987210D01*
X162900433Y-127066315D01*
X162753830Y-127212662D01*
X162674391Y-127403972D01*
X162674210Y-127611119D01*
X162445609Y-127611119D01*
X162445790Y-127404881D01*
X162366685Y-127213433D01*
X162220338Y-127066830D01*
X162029028Y-126987391D01*
X161821881Y-126987210D01*
X161630433Y-127066315D01*
X161483830Y-127212662D01*
X161404391Y-127403972D01*
X161404210Y-127611119D01*
X161175609Y-127611119D01*
X161175790Y-127404881D01*
X161096685Y-127213433D01*
X160950338Y-127066830D01*
X160759028Y-126987391D01*
X160551881Y-126987210D01*
X160360433Y-127066315D01*
X160213830Y-127212662D01*
X160134391Y-127403972D01*
X160134210Y-127611119D01*
X159905609Y-127611119D01*
X159905790Y-127404881D01*
X159826685Y-127213433D01*
X159680338Y-127066830D01*
X159489028Y-126987391D01*
X159281881Y-126987210D01*
X159090433Y-127066315D01*
X158943830Y-127212662D01*
X158864391Y-127403972D01*
X158864210Y-127611119D01*
X157220391Y-127611119D01*
X157377297Y-127233249D01*
X157377703Y-126768789D01*
X157200336Y-126339528D01*
X156872199Y-126010819D01*
X156498765Y-125855755D01*
X169544890Y-125855755D01*
X169641360Y-126089228D01*
X169819832Y-126268013D01*
X170053137Y-126364889D01*
X170305755Y-126365110D01*
X170539228Y-126268640D01*
X170718013Y-126090168D01*
X170746243Y-126022183D01*
X170803632Y-126161074D01*
X171017798Y-126375615D01*
X171297764Y-126491867D01*
X171600906Y-126492132D01*
X171881074Y-126376368D01*
X172085168Y-126172630D01*
X172287798Y-126375615D01*
X172567764Y-126491867D01*
X172870906Y-126492132D01*
X173151074Y-126376368D01*
X173355168Y-126172630D01*
X173557798Y-126375615D01*
X173837764Y-126491867D01*
X174140906Y-126492132D01*
X174421074Y-126376368D01*
X174635615Y-126162202D01*
X174751867Y-125882236D01*
X174752132Y-125579094D01*
X174636368Y-125298926D01*
X174422202Y-125084385D01*
X174142236Y-124968133D01*
X173839094Y-124967868D01*
X173558926Y-125083632D01*
X173354832Y-125287370D01*
X173152202Y-125084385D01*
X172872236Y-124968133D01*
X172569094Y-124967868D01*
X172288926Y-125083632D01*
X172084832Y-125287370D01*
X171882202Y-125084385D01*
X171602236Y-124968133D01*
X171299094Y-124967868D01*
X171018926Y-125083632D01*
X170804385Y-125297798D01*
X170746293Y-125437698D01*
X170718640Y-125370772D01*
X170540168Y-125191987D01*
X170306863Y-125095111D01*
X170054245Y-125094890D01*
X169820772Y-125191360D01*
X169641987Y-125369832D01*
X169545111Y-125603137D01*
X169544890Y-125855755D01*
X156498765Y-125855755D01*
X156443249Y-125832703D01*
X155978789Y-125832297D01*
X155549528Y-126009664D01*
X155220819Y-126337801D01*
X155042703Y-126766751D01*
X155042297Y-127231211D01*
X154368500Y-127231211D01*
X154368500Y-124691211D01*
X155042297Y-124691211D01*
X155219664Y-125120472D01*
X155547801Y-125449181D01*
X155976751Y-125627297D01*
X156441211Y-125627703D01*
X156870472Y-125450336D01*
X157199181Y-125122199D01*
X157377297Y-124693249D01*
X157377298Y-124691211D01*
X182982297Y-124691211D01*
X183159664Y-125120472D01*
X183487801Y-125449181D01*
X183916751Y-125627297D01*
X184381211Y-125627703D01*
X184810472Y-125450336D01*
X185139181Y-125122199D01*
X185317297Y-124693249D01*
X185317703Y-124228789D01*
X185140336Y-123799528D01*
X184812199Y-123470819D01*
X184383249Y-123292703D01*
X183918789Y-123292297D01*
X183489528Y-123469664D01*
X183160819Y-123797801D01*
X182982703Y-124226751D01*
X182982297Y-124691211D01*
X157377298Y-124691211D01*
X157377703Y-124228789D01*
X157200336Y-123799528D01*
X156872199Y-123470819D01*
X156444251Y-123293119D01*
X158229210Y-123293119D01*
X158308315Y-123484567D01*
X158454662Y-123631170D01*
X158645972Y-123710609D01*
X158853119Y-123710790D01*
X159044567Y-123631685D01*
X159191170Y-123485338D01*
X159270609Y-123294028D01*
X159270609Y-123293119D01*
X164579210Y-123293119D01*
X164658315Y-123484567D01*
X164804662Y-123631170D01*
X164995972Y-123710609D01*
X165203119Y-123710790D01*
X165394567Y-123631685D01*
X165541170Y-123485338D01*
X165620609Y-123294028D01*
X165620790Y-123086881D01*
X165613059Y-123068171D01*
X165630972Y-123075609D01*
X165838119Y-123075790D01*
X165856829Y-123068059D01*
X165849391Y-123085972D01*
X165849210Y-123293119D01*
X165928315Y-123484567D01*
X166074662Y-123631170D01*
X166265972Y-123710609D01*
X166473119Y-123710790D01*
X166664567Y-123631685D01*
X166811170Y-123485338D01*
X166881587Y-123315755D01*
X168274890Y-123315755D01*
X168371360Y-123549228D01*
X168549832Y-123728013D01*
X168783137Y-123824889D01*
X169035755Y-123825110D01*
X169269228Y-123728640D01*
X169448013Y-123550168D01*
X169544889Y-123316863D01*
X169545110Y-123064245D01*
X169448640Y-122830772D01*
X169270168Y-122651987D01*
X169036863Y-122555111D01*
X168784245Y-122554890D01*
X168550772Y-122651360D01*
X168371987Y-122829832D01*
X168275111Y-123063137D01*
X168274890Y-123315755D01*
X166881587Y-123315755D01*
X166890609Y-123294028D01*
X166890790Y-123086881D01*
X166811685Y-122895433D01*
X166665338Y-122748830D01*
X166474028Y-122669391D01*
X166266881Y-122669210D01*
X166248171Y-122676941D01*
X166255609Y-122659028D01*
X166255790Y-122451881D01*
X166176685Y-122260433D01*
X166153880Y-122237589D01*
X166176170Y-122215338D01*
X166202797Y-122151211D01*
X182982297Y-122151211D01*
X183159664Y-122580472D01*
X183487801Y-122909181D01*
X183916751Y-123087297D01*
X184381211Y-123087703D01*
X184810472Y-122910336D01*
X185139181Y-122582199D01*
X185317297Y-122153249D01*
X185317703Y-121688789D01*
X185140336Y-121259528D01*
X184812199Y-120930819D01*
X184383249Y-120752703D01*
X183918789Y-120752297D01*
X183489528Y-120929664D01*
X183160819Y-121257801D01*
X182982703Y-121686751D01*
X182982297Y-122151211D01*
X166202797Y-122151211D01*
X166255609Y-122024028D01*
X166255790Y-121816881D01*
X166209818Y-121705619D01*
X168389210Y-121705619D01*
X168468315Y-121897067D01*
X168614662Y-122043670D01*
X168805972Y-122123109D01*
X169013119Y-122123290D01*
X169204567Y-122044185D01*
X169351170Y-121897838D01*
X169430609Y-121706528D01*
X169430790Y-121499381D01*
X169394171Y-121410755D01*
X169544890Y-121410755D01*
X169641360Y-121644228D01*
X169819832Y-121823013D01*
X170053137Y-121919889D01*
X170305755Y-121920110D01*
X170539228Y-121823640D01*
X170718013Y-121645168D01*
X170814889Y-121411863D01*
X170815110Y-121159245D01*
X170718640Y-120925772D01*
X170593993Y-120800906D01*
X170687868Y-120800906D01*
X170803632Y-121081074D01*
X171017798Y-121295615D01*
X171297764Y-121411867D01*
X171600906Y-121412132D01*
X171881074Y-121296368D01*
X172085168Y-121092630D01*
X172287798Y-121295615D01*
X172567764Y-121411867D01*
X172870906Y-121412132D01*
X173151074Y-121296368D01*
X173355168Y-121092630D01*
X173557798Y-121295615D01*
X173837764Y-121411867D01*
X174140906Y-121412132D01*
X174421074Y-121296368D01*
X174635615Y-121082202D01*
X174751867Y-120802236D01*
X174752132Y-120499094D01*
X174636368Y-120218926D01*
X174422202Y-120004385D01*
X174142236Y-119888133D01*
X173839094Y-119887868D01*
X173558926Y-120003632D01*
X173354832Y-120207370D01*
X173152202Y-120004385D01*
X172872236Y-119888133D01*
X172569094Y-119887868D01*
X172288926Y-120003632D01*
X172084832Y-120207370D01*
X171882202Y-120004385D01*
X171602236Y-119888133D01*
X171299094Y-119887868D01*
X171018926Y-120003632D01*
X170804385Y-120217798D01*
X170688133Y-120497764D01*
X170687868Y-120800906D01*
X170593993Y-120800906D01*
X170540168Y-120746987D01*
X170306863Y-120650111D01*
X170054245Y-120649890D01*
X169820772Y-120746360D01*
X169641987Y-120924832D01*
X169545111Y-121158137D01*
X169544890Y-121410755D01*
X169394171Y-121410755D01*
X169351685Y-121307933D01*
X169205338Y-121161330D01*
X169014028Y-121081891D01*
X168806881Y-121081710D01*
X168615433Y-121160815D01*
X168468830Y-121307162D01*
X168389391Y-121498472D01*
X168389210Y-121705619D01*
X166209818Y-121705619D01*
X166176685Y-121625433D01*
X166030338Y-121478830D01*
X165839028Y-121399391D01*
X165631881Y-121399210D01*
X165440433Y-121478315D01*
X165293830Y-121624662D01*
X165214391Y-121815972D01*
X165214210Y-122023119D01*
X165293315Y-122214567D01*
X165316120Y-122237411D01*
X165293830Y-122259662D01*
X165214391Y-122450972D01*
X165214210Y-122658119D01*
X165221941Y-122676829D01*
X165204028Y-122669391D01*
X164996881Y-122669210D01*
X164805433Y-122748315D01*
X164658830Y-122894662D01*
X164579391Y-123085972D01*
X164579210Y-123293119D01*
X159270609Y-123293119D01*
X159270790Y-123086881D01*
X159191685Y-122895433D01*
X159045338Y-122748830D01*
X158854028Y-122669391D01*
X158646881Y-122669210D01*
X158455433Y-122748315D01*
X158308830Y-122894662D01*
X158229391Y-123085972D01*
X158229210Y-123293119D01*
X156444251Y-123293119D01*
X156443249Y-123292703D01*
X155978789Y-123292297D01*
X155549528Y-123469664D01*
X155220819Y-123797801D01*
X155042703Y-124226751D01*
X155042297Y-124691211D01*
X154368500Y-124691211D01*
X154368500Y-122151211D01*
X155042297Y-122151211D01*
X155219664Y-122580472D01*
X155547801Y-122909181D01*
X155976751Y-123087297D01*
X156441211Y-123087703D01*
X156870472Y-122910336D01*
X157199181Y-122582199D01*
X157377297Y-122153249D01*
X157377410Y-122023119D01*
X158229210Y-122023119D01*
X158308315Y-122214567D01*
X158454662Y-122361170D01*
X158645972Y-122440609D01*
X158853119Y-122440790D01*
X159044567Y-122361685D01*
X159191170Y-122215338D01*
X159270609Y-122024028D01*
X159270790Y-121816881D01*
X159191685Y-121625433D01*
X159045338Y-121478830D01*
X158854028Y-121399391D01*
X158646881Y-121399210D01*
X158455433Y-121478315D01*
X158308830Y-121624662D01*
X158229391Y-121815972D01*
X158229210Y-122023119D01*
X157377410Y-122023119D01*
X157377703Y-121688789D01*
X157200336Y-121259528D01*
X156872199Y-120930819D01*
X156443249Y-120752703D01*
X155978789Y-120752297D01*
X155549528Y-120929664D01*
X155220819Y-121257801D01*
X155042703Y-121686751D01*
X155042297Y-122151211D01*
X154368500Y-122151211D01*
X154368500Y-119611211D01*
X155042297Y-119611211D01*
X155219664Y-120040472D01*
X155547801Y-120369181D01*
X155976751Y-120547297D01*
X156441211Y-120547703D01*
X156870472Y-120370336D01*
X157199181Y-120042199D01*
X157377297Y-119613249D01*
X157377298Y-119611211D01*
X182982297Y-119611211D01*
X183159664Y-120040472D01*
X183487801Y-120369181D01*
X183916751Y-120547297D01*
X184381211Y-120547703D01*
X184810472Y-120370336D01*
X185139181Y-120042199D01*
X185317297Y-119613249D01*
X185317703Y-119148789D01*
X185140336Y-118719528D01*
X184812199Y-118390819D01*
X184383249Y-118212703D01*
X183918789Y-118212297D01*
X183489528Y-118389664D01*
X183160819Y-118717801D01*
X182982703Y-119146751D01*
X182982297Y-119611211D01*
X157377298Y-119611211D01*
X157377703Y-119148789D01*
X157200336Y-118719528D01*
X156872199Y-118390819D01*
X156444251Y-118213119D01*
X159499210Y-118213119D01*
X159578315Y-118404567D01*
X159724662Y-118551170D01*
X159915972Y-118630609D01*
X160123119Y-118630790D01*
X160314567Y-118551685D01*
X160461170Y-118405338D01*
X160540609Y-118214028D01*
X160540609Y-118213119D01*
X160769210Y-118213119D01*
X160848315Y-118404567D01*
X160994662Y-118551170D01*
X161185972Y-118630609D01*
X161393119Y-118630790D01*
X161584567Y-118551685D01*
X161731170Y-118405338D01*
X161810609Y-118214028D01*
X161810609Y-118213119D01*
X162039210Y-118213119D01*
X162118315Y-118404567D01*
X162264662Y-118551170D01*
X162455972Y-118630609D01*
X162663119Y-118630790D01*
X162854567Y-118551685D01*
X163001170Y-118405338D01*
X163080609Y-118214028D01*
X163080609Y-118213119D01*
X163309210Y-118213119D01*
X163388315Y-118404567D01*
X163534662Y-118551170D01*
X163725972Y-118630609D01*
X163933119Y-118630790D01*
X164124567Y-118551685D01*
X164147411Y-118528880D01*
X164169662Y-118551170D01*
X164360972Y-118630609D01*
X164568119Y-118630790D01*
X164759567Y-118551685D01*
X164782411Y-118528880D01*
X164804662Y-118551170D01*
X164995972Y-118630609D01*
X165203119Y-118630790D01*
X165394567Y-118551685D01*
X165417411Y-118528880D01*
X165439662Y-118551170D01*
X165630972Y-118630609D01*
X165838119Y-118630790D01*
X166029567Y-118551685D01*
X166052411Y-118528880D01*
X166074662Y-118551170D01*
X166265972Y-118630609D01*
X166473119Y-118630790D01*
X166664567Y-118551685D01*
X166811170Y-118405338D01*
X166890609Y-118214028D01*
X166890609Y-118213119D01*
X167119210Y-118213119D01*
X167198315Y-118404567D01*
X167344662Y-118551170D01*
X167535972Y-118630609D01*
X167743119Y-118630790D01*
X167934567Y-118551685D01*
X168081170Y-118405338D01*
X168160609Y-118214028D01*
X168160609Y-118213119D01*
X168389210Y-118213119D01*
X168468315Y-118404567D01*
X168614662Y-118551170D01*
X168805972Y-118630609D01*
X169013119Y-118630790D01*
X169204567Y-118551685D01*
X169351170Y-118405338D01*
X169430609Y-118214028D01*
X169430790Y-118006881D01*
X169351685Y-117815433D01*
X169205338Y-117668830D01*
X169014028Y-117589391D01*
X168806881Y-117589210D01*
X168615433Y-117668315D01*
X168468830Y-117814662D01*
X168389391Y-118005972D01*
X168389210Y-118213119D01*
X168160609Y-118213119D01*
X168160790Y-118006881D01*
X168081685Y-117815433D01*
X167935338Y-117668830D01*
X167744028Y-117589391D01*
X167536881Y-117589210D01*
X167345433Y-117668315D01*
X167198830Y-117814662D01*
X167119391Y-118005972D01*
X167119210Y-118213119D01*
X166890609Y-118213119D01*
X166890790Y-118006881D01*
X166811685Y-117815433D01*
X166665338Y-117668830D01*
X166474028Y-117589391D01*
X166266881Y-117589210D01*
X166075433Y-117668315D01*
X166052589Y-117691120D01*
X166030338Y-117668830D01*
X165839028Y-117589391D01*
X165631881Y-117589210D01*
X165440433Y-117668315D01*
X165417589Y-117691120D01*
X165395338Y-117668830D01*
X165204028Y-117589391D01*
X164996881Y-117589210D01*
X164805433Y-117668315D01*
X164782589Y-117691120D01*
X164760338Y-117668830D01*
X164569028Y-117589391D01*
X164361881Y-117589210D01*
X164170433Y-117668315D01*
X164147589Y-117691120D01*
X164125338Y-117668830D01*
X163934028Y-117589391D01*
X163726881Y-117589210D01*
X163535433Y-117668315D01*
X163388830Y-117814662D01*
X163309391Y-118005972D01*
X163309210Y-118213119D01*
X163080609Y-118213119D01*
X163080790Y-118006881D01*
X163001685Y-117815433D01*
X162855338Y-117668830D01*
X162664028Y-117589391D01*
X162456881Y-117589210D01*
X162265433Y-117668315D01*
X162118830Y-117814662D01*
X162039391Y-118005972D01*
X162039210Y-118213119D01*
X161810609Y-118213119D01*
X161810790Y-118006881D01*
X161731685Y-117815433D01*
X161585338Y-117668830D01*
X161394028Y-117589391D01*
X161186881Y-117589210D01*
X160995433Y-117668315D01*
X160848830Y-117814662D01*
X160769391Y-118005972D01*
X160769210Y-118213119D01*
X160540609Y-118213119D01*
X160540790Y-118006881D01*
X160461685Y-117815433D01*
X160315338Y-117668830D01*
X160124028Y-117589391D01*
X159916881Y-117589210D01*
X159725433Y-117668315D01*
X159578830Y-117814662D01*
X159499391Y-118005972D01*
X159499210Y-118213119D01*
X156444251Y-118213119D01*
X156443249Y-118212703D01*
X155978789Y-118212297D01*
X155549528Y-118389664D01*
X155220819Y-118717801D01*
X155042703Y-119146751D01*
X155042297Y-119611211D01*
X154368500Y-119611211D01*
X154368500Y-117669211D01*
X155470591Y-117669211D01*
X155562685Y-117838985D01*
X155994254Y-118010658D01*
X156458668Y-118004110D01*
X156857315Y-117838985D01*
X156949409Y-117669211D01*
X156210000Y-116929803D01*
X155470591Y-117669211D01*
X154368500Y-117669211D01*
X154368500Y-116624254D01*
X155039342Y-116624254D01*
X155045890Y-117088668D01*
X155211015Y-117487315D01*
X155380789Y-117579409D01*
X156120197Y-116840000D01*
X156299803Y-116840000D01*
X157039211Y-117579409D01*
X157041589Y-117578119D01*
X176009210Y-117578119D01*
X176088315Y-117769567D01*
X176234662Y-117916170D01*
X176425972Y-117995609D01*
X176633119Y-117995790D01*
X176824567Y-117916685D01*
X176971170Y-117770338D01*
X177050609Y-117579028D01*
X177050609Y-117578119D01*
X182359210Y-117578119D01*
X182438315Y-117769567D01*
X182584662Y-117916170D01*
X182775972Y-117995609D01*
X182983119Y-117995790D01*
X183174567Y-117916685D01*
X183321170Y-117770338D01*
X183343905Y-117715587D01*
X183354062Y-117725744D01*
X183410592Y-117669214D01*
X183502685Y-117838985D01*
X183934254Y-118010658D01*
X184398668Y-118004110D01*
X184797315Y-117838985D01*
X184889409Y-117669211D01*
X184150000Y-116929803D01*
X184135858Y-116943945D01*
X184046055Y-116854142D01*
X184060197Y-116840000D01*
X184239803Y-116840000D01*
X184979211Y-117579409D01*
X185148985Y-117487315D01*
X185320658Y-117055746D01*
X185314110Y-116591332D01*
X185148985Y-116192685D01*
X184979211Y-116100591D01*
X184239803Y-116840000D01*
X184060197Y-116840000D01*
X183320789Y-116100591D01*
X183151015Y-116192685D01*
X182979342Y-116624254D01*
X182983997Y-116954391D01*
X182776881Y-116954210D01*
X182585433Y-117033315D01*
X182438830Y-117179662D01*
X182359391Y-117370972D01*
X182359210Y-117578119D01*
X177050609Y-117578119D01*
X177050790Y-117371881D01*
X176971685Y-117180433D01*
X176825338Y-117033830D01*
X176634028Y-116954391D01*
X176426881Y-116954210D01*
X176235433Y-117033315D01*
X176088830Y-117179662D01*
X176009391Y-117370972D01*
X176009210Y-117578119D01*
X157041589Y-117578119D01*
X157208985Y-117487315D01*
X157380658Y-117055746D01*
X157379071Y-116943119D01*
X177279210Y-116943119D01*
X177358315Y-117134567D01*
X177504662Y-117281170D01*
X177695972Y-117360609D01*
X177903119Y-117360790D01*
X178094567Y-117281685D01*
X178241170Y-117135338D01*
X178320609Y-116944028D01*
X178320790Y-116736881D01*
X178241685Y-116545433D01*
X178095338Y-116398830D01*
X177904028Y-116319391D01*
X177696881Y-116319210D01*
X177505433Y-116398315D01*
X177358830Y-116544662D01*
X177279391Y-116735972D01*
X177279210Y-116943119D01*
X157379071Y-116943119D01*
X157374110Y-116591332D01*
X157256800Y-116308119D01*
X178549210Y-116308119D01*
X178628315Y-116499567D01*
X178774662Y-116646170D01*
X178965972Y-116725609D01*
X179173119Y-116725790D01*
X179364567Y-116646685D01*
X179511170Y-116500338D01*
X179590609Y-116309028D01*
X179590790Y-116101881D01*
X179511685Y-115910433D01*
X179365338Y-115763830D01*
X179174028Y-115684391D01*
X178966881Y-115684210D01*
X178775433Y-115763315D01*
X178628830Y-115909662D01*
X178549391Y-116100972D01*
X178549210Y-116308119D01*
X157256800Y-116308119D01*
X157208985Y-116192685D01*
X157039211Y-116100591D01*
X156299803Y-116840000D01*
X156120197Y-116840000D01*
X155380789Y-116100591D01*
X155211015Y-116192685D01*
X155039342Y-116624254D01*
X154368500Y-116624254D01*
X154368500Y-116010789D01*
X155470591Y-116010789D01*
X156210000Y-116750197D01*
X156949409Y-116010789D01*
X156857315Y-115841015D01*
X156435242Y-115673119D01*
X179819210Y-115673119D01*
X179898315Y-115864567D01*
X180044662Y-116011170D01*
X180235972Y-116090609D01*
X180443119Y-116090790D01*
X180634567Y-116011685D01*
X180635464Y-116010789D01*
X183410591Y-116010789D01*
X184150000Y-116750197D01*
X184889409Y-116010789D01*
X184797315Y-115841015D01*
X184365746Y-115669342D01*
X183901332Y-115675890D01*
X183502685Y-115841015D01*
X183410591Y-116010789D01*
X180635464Y-116010789D01*
X180781170Y-115865338D01*
X180860609Y-115674028D01*
X180860790Y-115466881D01*
X180781685Y-115275433D01*
X180635338Y-115128830D01*
X180444028Y-115049391D01*
X180236881Y-115049210D01*
X180045433Y-115128315D01*
X179898830Y-115274662D01*
X179819391Y-115465972D01*
X179819210Y-115673119D01*
X156435242Y-115673119D01*
X156425746Y-115669342D01*
X155961332Y-115675890D01*
X155562685Y-115841015D01*
X155470591Y-116010789D01*
X154368500Y-116010789D01*
X154368500Y-114531211D01*
X155042297Y-114531211D01*
X155219664Y-114960472D01*
X155547801Y-115289181D01*
X155976751Y-115467297D01*
X156441211Y-115467703D01*
X156870472Y-115290336D01*
X157100453Y-115060755D01*
X169544890Y-115060755D01*
X169641360Y-115294228D01*
X169819832Y-115473013D01*
X170053137Y-115569889D01*
X170305755Y-115570110D01*
X170539228Y-115473640D01*
X170718013Y-115295168D01*
X170814889Y-115061863D01*
X170815110Y-114809245D01*
X170718640Y-114575772D01*
X170695664Y-114552755D01*
X173100890Y-114552755D01*
X173197360Y-114786228D01*
X173375832Y-114965013D01*
X173609137Y-115061889D01*
X173861755Y-115062110D01*
X174095228Y-114965640D01*
X174274013Y-114787168D01*
X174370889Y-114553863D01*
X174370908Y-114531211D01*
X182982297Y-114531211D01*
X183159664Y-114960472D01*
X183487801Y-115289181D01*
X183916751Y-115467297D01*
X184381211Y-115467703D01*
X184810472Y-115290336D01*
X185139181Y-114962199D01*
X185317297Y-114533249D01*
X185317703Y-114068789D01*
X185140336Y-113639528D01*
X184812199Y-113310819D01*
X184383249Y-113132703D01*
X183918789Y-113132297D01*
X183489528Y-113309664D01*
X183160819Y-113637801D01*
X182982703Y-114066751D01*
X182982297Y-114531211D01*
X174370908Y-114531211D01*
X174371110Y-114301245D01*
X174274640Y-114067772D01*
X174096168Y-113888987D01*
X173862863Y-113792111D01*
X173610245Y-113791890D01*
X173376772Y-113888360D01*
X173197987Y-114066832D01*
X173101111Y-114300137D01*
X173100890Y-114552755D01*
X170695664Y-114552755D01*
X170540168Y-114396987D01*
X170306863Y-114300111D01*
X170054245Y-114299890D01*
X169820772Y-114396360D01*
X169641987Y-114574832D01*
X169545111Y-114808137D01*
X169544890Y-115060755D01*
X157100453Y-115060755D01*
X157199181Y-114962199D01*
X157377297Y-114533249D01*
X157377410Y-114403119D01*
X162674210Y-114403119D01*
X162753315Y-114594567D01*
X162899662Y-114741170D01*
X163090972Y-114820609D01*
X163298119Y-114820790D01*
X163489567Y-114741685D01*
X163636170Y-114595338D01*
X163715609Y-114404028D01*
X163715790Y-114196881D01*
X163636685Y-114005433D01*
X163490338Y-113858830D01*
X163299028Y-113779391D01*
X163091881Y-113779210D01*
X162900433Y-113858315D01*
X162753830Y-114004662D01*
X162674391Y-114195972D01*
X162674210Y-114403119D01*
X157377410Y-114403119D01*
X157377703Y-114068789D01*
X157200336Y-113639528D01*
X156872199Y-113310819D01*
X156498765Y-113155755D01*
X172084890Y-113155755D01*
X172181360Y-113389228D01*
X172359832Y-113568013D01*
X172593137Y-113664889D01*
X172845755Y-113665110D01*
X173079228Y-113568640D01*
X173258013Y-113390168D01*
X173354889Y-113156863D01*
X173355110Y-112904245D01*
X173258640Y-112670772D01*
X173177222Y-112589211D01*
X183410591Y-112589211D01*
X183502685Y-112758985D01*
X183934254Y-112930658D01*
X184398668Y-112924110D01*
X184797315Y-112758985D01*
X184889409Y-112589211D01*
X184150000Y-111849803D01*
X183410591Y-112589211D01*
X173177222Y-112589211D01*
X173080168Y-112491987D01*
X172846863Y-112395111D01*
X172594245Y-112394890D01*
X172360772Y-112491360D01*
X172181987Y-112669832D01*
X172085111Y-112903137D01*
X172084890Y-113155755D01*
X156498765Y-113155755D01*
X156443249Y-113132703D01*
X155978789Y-113132297D01*
X155549528Y-113309664D01*
X155220819Y-113637801D01*
X155042703Y-114066751D01*
X155042297Y-114531211D01*
X154368500Y-114531211D01*
X154368500Y-112589211D01*
X155470591Y-112589211D01*
X155562685Y-112758985D01*
X155994254Y-112930658D01*
X156458668Y-112924110D01*
X156857315Y-112758985D01*
X156949409Y-112589211D01*
X156210000Y-111849803D01*
X155470591Y-112589211D01*
X154368500Y-112589211D01*
X154368500Y-111544254D01*
X155039342Y-111544254D01*
X155045890Y-112008668D01*
X155211015Y-112407315D01*
X155380789Y-112499409D01*
X156120197Y-111760000D01*
X156299803Y-111760000D01*
X157039211Y-112499409D01*
X157208985Y-112407315D01*
X157380658Y-111975746D01*
X157374575Y-111544254D01*
X182979342Y-111544254D01*
X182985890Y-112008668D01*
X183151015Y-112407315D01*
X183320789Y-112499409D01*
X184060197Y-111760000D01*
X184239803Y-111760000D01*
X184979211Y-112499409D01*
X185148985Y-112407315D01*
X185320658Y-111975746D01*
X185314110Y-111511332D01*
X185148985Y-111112685D01*
X184979211Y-111020591D01*
X184239803Y-111760000D01*
X184060197Y-111760000D01*
X183320789Y-111020591D01*
X183151015Y-111112685D01*
X182979342Y-111544254D01*
X157374575Y-111544254D01*
X157374110Y-111511332D01*
X157208985Y-111112685D01*
X157039211Y-111020591D01*
X156299803Y-111760000D01*
X156120197Y-111760000D01*
X155380789Y-111020591D01*
X155211015Y-111112685D01*
X155039342Y-111544254D01*
X154368500Y-111544254D01*
X154368500Y-110930789D01*
X155470591Y-110930789D01*
X156210000Y-111670197D01*
X156949409Y-110930789D01*
X156857315Y-110761015D01*
X156492146Y-110615755D01*
X167004890Y-110615755D01*
X167101360Y-110849228D01*
X167279832Y-111028013D01*
X167513137Y-111124889D01*
X167765755Y-111125110D01*
X167999228Y-111028640D01*
X168097250Y-110930789D01*
X183410591Y-110930789D01*
X184150000Y-111670197D01*
X184889409Y-110930789D01*
X184797315Y-110761015D01*
X184365746Y-110589342D01*
X183901332Y-110595890D01*
X183502685Y-110761015D01*
X183410591Y-110930789D01*
X168097250Y-110930789D01*
X168178013Y-110850168D01*
X168274889Y-110616863D01*
X168275110Y-110364245D01*
X168178640Y-110130772D01*
X168000168Y-109951987D01*
X167766863Y-109855111D01*
X167514245Y-109854890D01*
X167280772Y-109951360D01*
X167101987Y-110129832D01*
X167005111Y-110363137D01*
X167004890Y-110615755D01*
X156492146Y-110615755D01*
X156425746Y-110589342D01*
X155961332Y-110595890D01*
X155562685Y-110761015D01*
X155470591Y-110930789D01*
X154368500Y-110930789D01*
X154368500Y-109451211D01*
X155042297Y-109451211D01*
X155219664Y-109880472D01*
X155547801Y-110209181D01*
X155976751Y-110387297D01*
X156441211Y-110387703D01*
X156870472Y-110210336D01*
X157199181Y-109882199D01*
X157377297Y-109453249D01*
X157377410Y-109323119D01*
X161404210Y-109323119D01*
X161483315Y-109514567D01*
X161629662Y-109661170D01*
X161820972Y-109740609D01*
X162028119Y-109740790D01*
X162219567Y-109661685D01*
X162366170Y-109515338D01*
X162445609Y-109324028D01*
X162445609Y-109323119D01*
X176644210Y-109323119D01*
X176723315Y-109514567D01*
X176869662Y-109661170D01*
X177060972Y-109740609D01*
X177268119Y-109740790D01*
X177459567Y-109661685D01*
X177606170Y-109515338D01*
X177632797Y-109451211D01*
X182982297Y-109451211D01*
X183159664Y-109880472D01*
X183487801Y-110209181D01*
X183916751Y-110387297D01*
X184381211Y-110387703D01*
X184810472Y-110210336D01*
X185139181Y-109882199D01*
X185317297Y-109453249D01*
X185317703Y-108988789D01*
X185140336Y-108559528D01*
X184812199Y-108230819D01*
X184383249Y-108052703D01*
X183918789Y-108052297D01*
X183489528Y-108229664D01*
X183160819Y-108557801D01*
X182982703Y-108986751D01*
X182982297Y-109451211D01*
X177632797Y-109451211D01*
X177685609Y-109324028D01*
X177685790Y-109116881D01*
X177606685Y-108925433D01*
X177460338Y-108778830D01*
X177269028Y-108699391D01*
X177061881Y-108699210D01*
X176870433Y-108778315D01*
X176723830Y-108924662D01*
X176644391Y-109115972D01*
X176644210Y-109323119D01*
X162445609Y-109323119D01*
X162445790Y-109116881D01*
X162366685Y-108925433D01*
X162220338Y-108778830D01*
X162029028Y-108699391D01*
X161821881Y-108699210D01*
X161630433Y-108778315D01*
X161483830Y-108924662D01*
X161404391Y-109115972D01*
X161404210Y-109323119D01*
X157377410Y-109323119D01*
X157377703Y-108988789D01*
X157200336Y-108559528D01*
X156872199Y-108230819D01*
X156498765Y-108075755D01*
X172084890Y-108075755D01*
X172181360Y-108309228D01*
X172359832Y-108488013D01*
X172593137Y-108584889D01*
X172845755Y-108585110D01*
X173079228Y-108488640D01*
X173258013Y-108310168D01*
X173354889Y-108076863D01*
X173355110Y-107824245D01*
X173258640Y-107590772D01*
X173177222Y-107509211D01*
X183410591Y-107509211D01*
X183502685Y-107678985D01*
X183934254Y-107850658D01*
X184398668Y-107844110D01*
X184797315Y-107678985D01*
X184889409Y-107509211D01*
X184150000Y-106769803D01*
X183410591Y-107509211D01*
X173177222Y-107509211D01*
X173080168Y-107411987D01*
X172846863Y-107315111D01*
X172594245Y-107314890D01*
X172360772Y-107411360D01*
X172181987Y-107589832D01*
X172085111Y-107823137D01*
X172084890Y-108075755D01*
X156498765Y-108075755D01*
X156443249Y-108052703D01*
X155978789Y-108052297D01*
X155549528Y-108229664D01*
X155220819Y-108557801D01*
X155042703Y-108986751D01*
X155042297Y-109451211D01*
X154368500Y-109451211D01*
X154368500Y-107509211D01*
X155470591Y-107509211D01*
X155562685Y-107678985D01*
X155994254Y-107850658D01*
X156458668Y-107844110D01*
X156857315Y-107678985D01*
X156949409Y-107509211D01*
X156210000Y-106769803D01*
X155470591Y-107509211D01*
X154368500Y-107509211D01*
X154368500Y-106464254D01*
X155039342Y-106464254D01*
X155045890Y-106928668D01*
X155211015Y-107327315D01*
X155380789Y-107419409D01*
X156120197Y-106680000D01*
X156299803Y-106680000D01*
X157039211Y-107419409D01*
X157208985Y-107327315D01*
X157380658Y-106895746D01*
X157374575Y-106464254D01*
X182979342Y-106464254D01*
X182985890Y-106928668D01*
X183151015Y-107327315D01*
X183320789Y-107419409D01*
X184060197Y-106680000D01*
X184239803Y-106680000D01*
X184979211Y-107419409D01*
X185148985Y-107327315D01*
X185320658Y-106895746D01*
X185314110Y-106431332D01*
X185148985Y-106032685D01*
X184979211Y-105940591D01*
X184239803Y-106680000D01*
X184060197Y-106680000D01*
X183320789Y-105940591D01*
X183151015Y-106032685D01*
X182979342Y-106464254D01*
X157374575Y-106464254D01*
X157374110Y-106431332D01*
X157208985Y-106032685D01*
X157039211Y-105940591D01*
X156299803Y-106680000D01*
X156120197Y-106680000D01*
X155380789Y-105940591D01*
X155211015Y-106032685D01*
X155039342Y-106464254D01*
X154368500Y-106464254D01*
X154368500Y-105850789D01*
X155470591Y-105850789D01*
X156210000Y-106590197D01*
X156949409Y-105850789D01*
X156857315Y-105681015D01*
X156492146Y-105535755D01*
X167004890Y-105535755D01*
X167101360Y-105769228D01*
X167279832Y-105948013D01*
X167513137Y-106044889D01*
X167765755Y-106045110D01*
X167999228Y-105948640D01*
X168097250Y-105850789D01*
X183410591Y-105850789D01*
X184150000Y-106590197D01*
X184889409Y-105850789D01*
X184797315Y-105681015D01*
X184365746Y-105509342D01*
X183901332Y-105515890D01*
X183502685Y-105681015D01*
X183410591Y-105850789D01*
X168097250Y-105850789D01*
X168178013Y-105770168D01*
X168274889Y-105536863D01*
X168275110Y-105284245D01*
X168178640Y-105050772D01*
X168000168Y-104871987D01*
X167766863Y-104775111D01*
X167514245Y-104774890D01*
X167280772Y-104871360D01*
X167101987Y-105049832D01*
X167005111Y-105283137D01*
X167004890Y-105535755D01*
X156492146Y-105535755D01*
X156425746Y-105509342D01*
X155961332Y-105515890D01*
X155562685Y-105681015D01*
X155470591Y-105850789D01*
X154368500Y-105850789D01*
X154368500Y-104371211D01*
X155042297Y-104371211D01*
X155219664Y-104800472D01*
X155547801Y-105129181D01*
X155976751Y-105307297D01*
X156441211Y-105307703D01*
X156870472Y-105130336D01*
X157199181Y-104802199D01*
X157377297Y-104373249D01*
X157377410Y-104243119D01*
X160134210Y-104243119D01*
X160213315Y-104434567D01*
X160359662Y-104581170D01*
X160550972Y-104660609D01*
X160758119Y-104660790D01*
X160949567Y-104581685D01*
X161096170Y-104435338D01*
X161175609Y-104244028D01*
X161175609Y-104243119D01*
X177914210Y-104243119D01*
X177993315Y-104434567D01*
X178139662Y-104581170D01*
X178330972Y-104660609D01*
X178538119Y-104660790D01*
X178729567Y-104581685D01*
X178876170Y-104435338D01*
X178902797Y-104371211D01*
X182982297Y-104371211D01*
X183159664Y-104800472D01*
X183487801Y-105129181D01*
X183916751Y-105307297D01*
X184381211Y-105307703D01*
X184810472Y-105130336D01*
X185139181Y-104802199D01*
X185317297Y-104373249D01*
X185317703Y-103908789D01*
X185140336Y-103479528D01*
X184812199Y-103150819D01*
X184383249Y-102972703D01*
X183918789Y-102972297D01*
X183489528Y-103149664D01*
X183160819Y-103477801D01*
X182982703Y-103906751D01*
X182982297Y-104371211D01*
X178902797Y-104371211D01*
X178955609Y-104244028D01*
X178955790Y-104036881D01*
X178876685Y-103845433D01*
X178730338Y-103698830D01*
X178539028Y-103619391D01*
X178331881Y-103619210D01*
X178140433Y-103698315D01*
X177993830Y-103844662D01*
X177914391Y-104035972D01*
X177914210Y-104243119D01*
X161175609Y-104243119D01*
X161175790Y-104036881D01*
X161096685Y-103845433D01*
X160950338Y-103698830D01*
X160759028Y-103619391D01*
X160551881Y-103619210D01*
X160360433Y-103698315D01*
X160213830Y-103844662D01*
X160134391Y-104035972D01*
X160134210Y-104243119D01*
X157377410Y-104243119D01*
X157377703Y-103908789D01*
X157200336Y-103479528D01*
X156872199Y-103150819D01*
X156498765Y-102995755D01*
X172084890Y-102995755D01*
X172181360Y-103229228D01*
X172359832Y-103408013D01*
X172593137Y-103504889D01*
X172845755Y-103505110D01*
X173079228Y-103408640D01*
X173258013Y-103230168D01*
X173354889Y-102996863D01*
X173355110Y-102744245D01*
X173258640Y-102510772D01*
X173177222Y-102429211D01*
X183410591Y-102429211D01*
X183502685Y-102598985D01*
X183934254Y-102770658D01*
X184398668Y-102764110D01*
X184797315Y-102598985D01*
X184889409Y-102429211D01*
X184150000Y-101689803D01*
X183410591Y-102429211D01*
X173177222Y-102429211D01*
X173080168Y-102331987D01*
X172846863Y-102235111D01*
X172594245Y-102234890D01*
X172360772Y-102331360D01*
X172181987Y-102509832D01*
X172085111Y-102743137D01*
X172084890Y-102995755D01*
X156498765Y-102995755D01*
X156443249Y-102972703D01*
X155978789Y-102972297D01*
X155549528Y-103149664D01*
X155220819Y-103477801D01*
X155042703Y-103906751D01*
X155042297Y-104371211D01*
X154368500Y-104371211D01*
X154368500Y-102429211D01*
X155470591Y-102429211D01*
X155562685Y-102598985D01*
X155994254Y-102770658D01*
X156458668Y-102764110D01*
X156857315Y-102598985D01*
X156949409Y-102429211D01*
X156210000Y-101689803D01*
X155470591Y-102429211D01*
X154368500Y-102429211D01*
X154368500Y-101384254D01*
X155039342Y-101384254D01*
X155045890Y-101848668D01*
X155211015Y-102247315D01*
X155380789Y-102339409D01*
X156120197Y-101600000D01*
X156299803Y-101600000D01*
X157039211Y-102339409D01*
X157208985Y-102247315D01*
X157380658Y-101815746D01*
X157374575Y-101384254D01*
X182979342Y-101384254D01*
X182985890Y-101848668D01*
X183151015Y-102247315D01*
X183320789Y-102339409D01*
X184060197Y-101600000D01*
X184239803Y-101600000D01*
X184979211Y-102339409D01*
X185148985Y-102247315D01*
X185320658Y-101815746D01*
X185314110Y-101351332D01*
X185148985Y-100952685D01*
X184979211Y-100860591D01*
X184239803Y-101600000D01*
X184060197Y-101600000D01*
X183320789Y-100860591D01*
X183151015Y-100952685D01*
X182979342Y-101384254D01*
X157374575Y-101384254D01*
X157374110Y-101351332D01*
X157208985Y-100952685D01*
X157039211Y-100860591D01*
X156299803Y-101600000D01*
X156120197Y-101600000D01*
X155380789Y-100860591D01*
X155211015Y-100952685D01*
X155039342Y-101384254D01*
X154368500Y-101384254D01*
X154368500Y-100770789D01*
X155470591Y-100770789D01*
X156210000Y-101510197D01*
X156949409Y-100770789D01*
X156857315Y-100601015D01*
X156492146Y-100455755D01*
X167004890Y-100455755D01*
X167101360Y-100689228D01*
X167279832Y-100868013D01*
X167513137Y-100964889D01*
X167765755Y-100965110D01*
X167999228Y-100868640D01*
X168097250Y-100770789D01*
X183410591Y-100770789D01*
X184150000Y-101510197D01*
X184889409Y-100770789D01*
X184797315Y-100601015D01*
X184365746Y-100429342D01*
X183901332Y-100435890D01*
X183502685Y-100601015D01*
X183410591Y-100770789D01*
X168097250Y-100770789D01*
X168178013Y-100690168D01*
X168274889Y-100456863D01*
X168275110Y-100204245D01*
X168178640Y-99970772D01*
X168000168Y-99791987D01*
X167766863Y-99695111D01*
X167514245Y-99694890D01*
X167280772Y-99791360D01*
X167101987Y-99969832D01*
X167005111Y-100203137D01*
X167004890Y-100455755D01*
X156492146Y-100455755D01*
X156425746Y-100429342D01*
X155961332Y-100435890D01*
X155562685Y-100601015D01*
X155470591Y-100770789D01*
X154368500Y-100770789D01*
X154368500Y-99291211D01*
X155042297Y-99291211D01*
X155219664Y-99720472D01*
X155547801Y-100049181D01*
X155976751Y-100227297D01*
X156441211Y-100227703D01*
X156870472Y-100050336D01*
X157199181Y-99722199D01*
X157377297Y-99293249D01*
X157377410Y-99163119D01*
X158864210Y-99163119D01*
X158943315Y-99354567D01*
X159089662Y-99501170D01*
X159280972Y-99580609D01*
X159488119Y-99580790D01*
X159679567Y-99501685D01*
X159826170Y-99355338D01*
X159905609Y-99164028D01*
X159905609Y-99163119D01*
X179184210Y-99163119D01*
X179263315Y-99354567D01*
X179409662Y-99501170D01*
X179600972Y-99580609D01*
X179808119Y-99580790D01*
X179999567Y-99501685D01*
X180146170Y-99355338D01*
X180172797Y-99291211D01*
X182982297Y-99291211D01*
X183159664Y-99720472D01*
X183487801Y-100049181D01*
X183916751Y-100227297D01*
X184381211Y-100227703D01*
X184810472Y-100050336D01*
X185139181Y-99722199D01*
X185317297Y-99293249D01*
X185317703Y-98828789D01*
X185140336Y-98399528D01*
X184812199Y-98070819D01*
X184383249Y-97892703D01*
X183918789Y-97892297D01*
X183489528Y-98069664D01*
X183160819Y-98397801D01*
X182982703Y-98826751D01*
X182982297Y-99291211D01*
X180172797Y-99291211D01*
X180225609Y-99164028D01*
X180225790Y-98956881D01*
X180146685Y-98765433D01*
X180000338Y-98618830D01*
X179809028Y-98539391D01*
X179601881Y-98539210D01*
X179410433Y-98618315D01*
X179263830Y-98764662D01*
X179184391Y-98955972D01*
X179184210Y-99163119D01*
X159905609Y-99163119D01*
X159905790Y-98956881D01*
X159826685Y-98765433D01*
X159680338Y-98618830D01*
X159489028Y-98539391D01*
X159281881Y-98539210D01*
X159090433Y-98618315D01*
X158943830Y-98764662D01*
X158864391Y-98955972D01*
X158864210Y-99163119D01*
X157377410Y-99163119D01*
X157377703Y-98828789D01*
X157200336Y-98399528D01*
X156872199Y-98070819D01*
X156498765Y-97915755D01*
X172084890Y-97915755D01*
X172181360Y-98149228D01*
X172359832Y-98328013D01*
X172593137Y-98424889D01*
X172845755Y-98425110D01*
X173079228Y-98328640D01*
X173258013Y-98150168D01*
X173354889Y-97916863D01*
X173355110Y-97664245D01*
X173258640Y-97430772D01*
X173080168Y-97251987D01*
X172846863Y-97155111D01*
X172594245Y-97154890D01*
X172360772Y-97251360D01*
X172181987Y-97429832D01*
X172085111Y-97663137D01*
X172084890Y-97915755D01*
X156498765Y-97915755D01*
X156443249Y-97892703D01*
X155978789Y-97892297D01*
X155549528Y-98069664D01*
X155220819Y-98397801D01*
X155042703Y-98826751D01*
X155042297Y-99291211D01*
X154368500Y-99291211D01*
X154368500Y-96751211D01*
X155042297Y-96751211D01*
X155219664Y-97180472D01*
X155547801Y-97509181D01*
X155976751Y-97687297D01*
X156441211Y-97687703D01*
X156870472Y-97510336D01*
X157199181Y-97182199D01*
X157377297Y-96753249D01*
X157377298Y-96751211D01*
X182982297Y-96751211D01*
X183159664Y-97180472D01*
X183487801Y-97509181D01*
X183916751Y-97687297D01*
X184381211Y-97687703D01*
X184810472Y-97510336D01*
X185139181Y-97182199D01*
X185317297Y-96753249D01*
X185317703Y-96288789D01*
X185140336Y-95859528D01*
X184812199Y-95530819D01*
X184383249Y-95352703D01*
X183918789Y-95352297D01*
X183489528Y-95529664D01*
X183160819Y-95857801D01*
X182982703Y-96286751D01*
X182982297Y-96751211D01*
X157377298Y-96751211D01*
X157377703Y-96288789D01*
X157200336Y-95859528D01*
X156872199Y-95530819D01*
X156443249Y-95352703D01*
X155978789Y-95352297D01*
X155549528Y-95529664D01*
X155220819Y-95857801D01*
X155042703Y-96286751D01*
X155042297Y-96751211D01*
X154368500Y-96751211D01*
X154368500Y-94809211D01*
X155470591Y-94809211D01*
X155562685Y-94978985D01*
X155994254Y-95150658D01*
X156458668Y-95144110D01*
X156857315Y-94978985D01*
X156949409Y-94809211D01*
X156210000Y-94069803D01*
X155470591Y-94809211D01*
X154368500Y-94809211D01*
X154368500Y-93764254D01*
X155039342Y-93764254D01*
X155045890Y-94228668D01*
X155211015Y-94627315D01*
X155380789Y-94719409D01*
X156120197Y-93980000D01*
X156299803Y-93980000D01*
X157039211Y-94719409D01*
X157208985Y-94627315D01*
X157380658Y-94195746D01*
X157379071Y-94083119D01*
X159499210Y-94083119D01*
X159578315Y-94274567D01*
X159724662Y-94421170D01*
X159915972Y-94500609D01*
X160123119Y-94500790D01*
X160314567Y-94421685D01*
X160376605Y-94359755D01*
X167004890Y-94359755D01*
X167101360Y-94593228D01*
X167249975Y-94742103D01*
X167101987Y-94889832D01*
X167005111Y-95123137D01*
X167004890Y-95375755D01*
X167101360Y-95609228D01*
X167279832Y-95788013D01*
X167513137Y-95884889D01*
X167765755Y-95885110D01*
X167999228Y-95788640D01*
X168178013Y-95610168D01*
X168274889Y-95376863D01*
X168275110Y-95124245D01*
X168178640Y-94890772D01*
X168097222Y-94809211D01*
X183410591Y-94809211D01*
X183502685Y-94978985D01*
X183934254Y-95150658D01*
X184398668Y-95144110D01*
X184797315Y-94978985D01*
X184889409Y-94809211D01*
X184150000Y-94069803D01*
X183410591Y-94809211D01*
X168097222Y-94809211D01*
X168030025Y-94741897D01*
X168178013Y-94594168D01*
X168274889Y-94360863D01*
X168275110Y-94108245D01*
X168264729Y-94083119D01*
X180454210Y-94083119D01*
X180533315Y-94274567D01*
X180679662Y-94421170D01*
X180870972Y-94500609D01*
X181078119Y-94500790D01*
X181269567Y-94421685D01*
X181416170Y-94275338D01*
X181495609Y-94084028D01*
X181495790Y-93876881D01*
X181449254Y-93764254D01*
X182979342Y-93764254D01*
X182985890Y-94228668D01*
X183151015Y-94627315D01*
X183320789Y-94719409D01*
X184060197Y-93980000D01*
X184239803Y-93980000D01*
X184979211Y-94719409D01*
X185148985Y-94627315D01*
X185320658Y-94195746D01*
X185314110Y-93731332D01*
X185148985Y-93332685D01*
X184979211Y-93240591D01*
X184239803Y-93980000D01*
X184060197Y-93980000D01*
X183320789Y-93240591D01*
X183151015Y-93332685D01*
X182979342Y-93764254D01*
X181449254Y-93764254D01*
X181416685Y-93685433D01*
X181270338Y-93538830D01*
X181079028Y-93459391D01*
X180871881Y-93459210D01*
X180680433Y-93538315D01*
X180533830Y-93684662D01*
X180454391Y-93875972D01*
X180454210Y-94083119D01*
X168264729Y-94083119D01*
X168178640Y-93874772D01*
X168000168Y-93695987D01*
X167766863Y-93599111D01*
X167514245Y-93598890D01*
X167280772Y-93695360D01*
X167101987Y-93873832D01*
X167005111Y-94107137D01*
X167004890Y-94359755D01*
X160376605Y-94359755D01*
X160461170Y-94275338D01*
X160540609Y-94084028D01*
X160540790Y-93876881D01*
X160461685Y-93685433D01*
X160315338Y-93538830D01*
X160124028Y-93459391D01*
X159916881Y-93459210D01*
X159725433Y-93538315D01*
X159578830Y-93684662D01*
X159499391Y-93875972D01*
X159499210Y-94083119D01*
X157379071Y-94083119D01*
X157374110Y-93731332D01*
X157208985Y-93332685D01*
X157039211Y-93240591D01*
X156299803Y-93980000D01*
X156120197Y-93980000D01*
X155380789Y-93240591D01*
X155211015Y-93332685D01*
X155039342Y-93764254D01*
X154368500Y-93764254D01*
X154368500Y-93150789D01*
X155470591Y-93150789D01*
X156210000Y-93890197D01*
X156949409Y-93150789D01*
X156857315Y-92981015D01*
X156492146Y-92835755D01*
X172084890Y-92835755D01*
X172181360Y-93069228D01*
X172359832Y-93248013D01*
X172593137Y-93344889D01*
X172845755Y-93345110D01*
X173079228Y-93248640D01*
X173177250Y-93150789D01*
X183410591Y-93150789D01*
X184150000Y-93890197D01*
X184889409Y-93150789D01*
X184797315Y-92981015D01*
X184365746Y-92809342D01*
X183901332Y-92815890D01*
X183502685Y-92981015D01*
X183410591Y-93150789D01*
X173177250Y-93150789D01*
X173258013Y-93070168D01*
X173354889Y-92836863D01*
X173355110Y-92584245D01*
X173258640Y-92350772D01*
X173080168Y-92171987D01*
X172846863Y-92075111D01*
X172594245Y-92074890D01*
X172360772Y-92171360D01*
X172181987Y-92349832D01*
X172085111Y-92583137D01*
X172084890Y-92835755D01*
X156492146Y-92835755D01*
X156425746Y-92809342D01*
X155961332Y-92815890D01*
X155562685Y-92981015D01*
X155470591Y-93150789D01*
X154368500Y-93150789D01*
X154368500Y-91671211D01*
X155042297Y-91671211D01*
X155219664Y-92100472D01*
X155547801Y-92429181D01*
X155976751Y-92607297D01*
X156441211Y-92607703D01*
X156870472Y-92430336D01*
X157199181Y-92102199D01*
X157377297Y-91673249D01*
X157377298Y-91671211D01*
X182982297Y-91671211D01*
X183159664Y-92100472D01*
X183487801Y-92429181D01*
X183916751Y-92607297D01*
X184381211Y-92607703D01*
X184810472Y-92430336D01*
X185139181Y-92102199D01*
X185317297Y-91673249D01*
X185317703Y-91208789D01*
X185140336Y-90779528D01*
X184812199Y-90450819D01*
X184383249Y-90272703D01*
X183918789Y-90272297D01*
X183489528Y-90449664D01*
X183160819Y-90777801D01*
X182982703Y-91206751D01*
X182982297Y-91671211D01*
X157377298Y-91671211D01*
X157377703Y-91208789D01*
X157200336Y-90779528D01*
X156872199Y-90450819D01*
X156498765Y-90295755D01*
X167004890Y-90295755D01*
X167101360Y-90529228D01*
X167279832Y-90708013D01*
X167513137Y-90804889D01*
X167765755Y-90805110D01*
X167999228Y-90708640D01*
X168178013Y-90530168D01*
X168274889Y-90296863D01*
X168275110Y-90044245D01*
X168178640Y-89810772D01*
X168097222Y-89729211D01*
X183410591Y-89729211D01*
X183502685Y-89898985D01*
X183934254Y-90070658D01*
X184398668Y-90064110D01*
X184797315Y-89898985D01*
X184889409Y-89729211D01*
X184150000Y-88989803D01*
X183410591Y-89729211D01*
X168097222Y-89729211D01*
X168000168Y-89631987D01*
X167766863Y-89535111D01*
X167514245Y-89534890D01*
X167280772Y-89631360D01*
X167101987Y-89809832D01*
X167005111Y-90043137D01*
X167004890Y-90295755D01*
X156498765Y-90295755D01*
X156443249Y-90272703D01*
X155978789Y-90272297D01*
X155549528Y-90449664D01*
X155220819Y-90777801D01*
X155042703Y-91206751D01*
X155042297Y-91671211D01*
X154368500Y-91671211D01*
X154368500Y-89729211D01*
X155470591Y-89729211D01*
X155562685Y-89898985D01*
X155994254Y-90070658D01*
X156458668Y-90064110D01*
X156857315Y-89898985D01*
X156949409Y-89729211D01*
X156210000Y-88989803D01*
X155470591Y-89729211D01*
X154368500Y-89729211D01*
X154368500Y-88684254D01*
X155039342Y-88684254D01*
X155045890Y-89148668D01*
X155211015Y-89547315D01*
X155380789Y-89639409D01*
X156120197Y-88900000D01*
X156299803Y-88900000D01*
X157039211Y-89639409D01*
X157208985Y-89547315D01*
X157380658Y-89115746D01*
X157379071Y-89003119D01*
X160769210Y-89003119D01*
X160848315Y-89194567D01*
X160994662Y-89341170D01*
X161185972Y-89420609D01*
X161393119Y-89420790D01*
X161584567Y-89341685D01*
X161731170Y-89195338D01*
X161810609Y-89004028D01*
X161810609Y-89003119D01*
X179819210Y-89003119D01*
X179898315Y-89194567D01*
X180044662Y-89341170D01*
X180235972Y-89420609D01*
X180443119Y-89420790D01*
X180634567Y-89341685D01*
X180781170Y-89195338D01*
X180860609Y-89004028D01*
X180860790Y-88796881D01*
X180814254Y-88684254D01*
X182979342Y-88684254D01*
X182985890Y-89148668D01*
X183151015Y-89547315D01*
X183320789Y-89639409D01*
X184060197Y-88900000D01*
X184239803Y-88900000D01*
X184979211Y-89639409D01*
X185148985Y-89547315D01*
X185320658Y-89115746D01*
X185314110Y-88651332D01*
X185148985Y-88252685D01*
X184979211Y-88160591D01*
X184239803Y-88900000D01*
X184060197Y-88900000D01*
X183320789Y-88160591D01*
X183151015Y-88252685D01*
X182979342Y-88684254D01*
X180814254Y-88684254D01*
X180781685Y-88605433D01*
X180635338Y-88458830D01*
X180444028Y-88379391D01*
X180236881Y-88379210D01*
X180045433Y-88458315D01*
X179898830Y-88604662D01*
X179819391Y-88795972D01*
X179819210Y-89003119D01*
X161810609Y-89003119D01*
X161810790Y-88796881D01*
X161731685Y-88605433D01*
X161585338Y-88458830D01*
X161394028Y-88379391D01*
X161186881Y-88379210D01*
X160995433Y-88458315D01*
X160848830Y-88604662D01*
X160769391Y-88795972D01*
X160769210Y-89003119D01*
X157379071Y-89003119D01*
X157374110Y-88651332D01*
X157208985Y-88252685D01*
X157039211Y-88160591D01*
X156299803Y-88900000D01*
X156120197Y-88900000D01*
X155380789Y-88160591D01*
X155211015Y-88252685D01*
X155039342Y-88684254D01*
X154368500Y-88684254D01*
X154368500Y-88070789D01*
X155470591Y-88070789D01*
X156210000Y-88810197D01*
X156949409Y-88070789D01*
X156857315Y-87901015D01*
X156492146Y-87755755D01*
X172084890Y-87755755D01*
X172181360Y-87989228D01*
X172359832Y-88168013D01*
X172593137Y-88264889D01*
X172845755Y-88265110D01*
X173079228Y-88168640D01*
X173177250Y-88070789D01*
X183410591Y-88070789D01*
X184150000Y-88810197D01*
X184889409Y-88070789D01*
X184797315Y-87901015D01*
X184365746Y-87729342D01*
X183901332Y-87735890D01*
X183502685Y-87901015D01*
X183410591Y-88070789D01*
X173177250Y-88070789D01*
X173258013Y-87990168D01*
X173354889Y-87756863D01*
X173355110Y-87504245D01*
X173258640Y-87270772D01*
X173080168Y-87091987D01*
X172846863Y-86995111D01*
X172594245Y-86994890D01*
X172360772Y-87091360D01*
X172181987Y-87269832D01*
X172085111Y-87503137D01*
X172084890Y-87755755D01*
X156492146Y-87755755D01*
X156425746Y-87729342D01*
X155961332Y-87735890D01*
X155562685Y-87901015D01*
X155470591Y-88070789D01*
X154368500Y-88070789D01*
X154368500Y-86591211D01*
X155042297Y-86591211D01*
X155219664Y-87020472D01*
X155547801Y-87349181D01*
X155976751Y-87527297D01*
X156441211Y-87527703D01*
X156870472Y-87350336D01*
X157199181Y-87022199D01*
X157377297Y-86593249D01*
X157377298Y-86591211D01*
X182982297Y-86591211D01*
X183159664Y-87020472D01*
X183487801Y-87349181D01*
X183916751Y-87527297D01*
X184381211Y-87527703D01*
X184810472Y-87350336D01*
X185139181Y-87022199D01*
X185317297Y-86593249D01*
X185317703Y-86128789D01*
X185140336Y-85699528D01*
X184812199Y-85370819D01*
X184383249Y-85192703D01*
X183918789Y-85192297D01*
X183489528Y-85369664D01*
X183160819Y-85697801D01*
X182982703Y-86126751D01*
X182982297Y-86591211D01*
X157377298Y-86591211D01*
X157377703Y-86128789D01*
X157200336Y-85699528D01*
X156872199Y-85370819D01*
X156498765Y-85215755D01*
X167004890Y-85215755D01*
X167101360Y-85449228D01*
X167279832Y-85628013D01*
X167513137Y-85724889D01*
X167765755Y-85725110D01*
X167999228Y-85628640D01*
X168178013Y-85450168D01*
X168274889Y-85216863D01*
X168275110Y-84964245D01*
X168178640Y-84730772D01*
X168097222Y-84649211D01*
X183410591Y-84649211D01*
X183502685Y-84818985D01*
X183934254Y-84990658D01*
X184398668Y-84984110D01*
X184797315Y-84818985D01*
X184889409Y-84649211D01*
X184150000Y-83909803D01*
X183410591Y-84649211D01*
X168097222Y-84649211D01*
X168000168Y-84551987D01*
X167766863Y-84455111D01*
X167514245Y-84454890D01*
X167280772Y-84551360D01*
X167101987Y-84729832D01*
X167005111Y-84963137D01*
X167004890Y-85215755D01*
X156498765Y-85215755D01*
X156443249Y-85192703D01*
X155978789Y-85192297D01*
X155549528Y-85369664D01*
X155220819Y-85697801D01*
X155042703Y-86126751D01*
X155042297Y-86591211D01*
X154368500Y-86591211D01*
X154368500Y-84649211D01*
X155470591Y-84649211D01*
X155562685Y-84818985D01*
X155994254Y-84990658D01*
X156458668Y-84984110D01*
X156857315Y-84818985D01*
X156949409Y-84649211D01*
X156210000Y-83909803D01*
X155470591Y-84649211D01*
X154368500Y-84649211D01*
X154368500Y-83604254D01*
X155039342Y-83604254D01*
X155045890Y-84068668D01*
X155211015Y-84467315D01*
X155380789Y-84559409D01*
X156120197Y-83820000D01*
X156299803Y-83820000D01*
X157039211Y-84559409D01*
X157208985Y-84467315D01*
X157380658Y-84035746D01*
X157379071Y-83923119D01*
X162039210Y-83923119D01*
X162118315Y-84114567D01*
X162264662Y-84261170D01*
X162455972Y-84340609D01*
X162663119Y-84340790D01*
X162854567Y-84261685D01*
X163001170Y-84115338D01*
X163080609Y-83924028D01*
X163080609Y-83923119D01*
X178549210Y-83923119D01*
X178628315Y-84114567D01*
X178774662Y-84261170D01*
X178965972Y-84340609D01*
X179173119Y-84340790D01*
X179364567Y-84261685D01*
X179511170Y-84115338D01*
X179590609Y-83924028D01*
X179590790Y-83716881D01*
X179544254Y-83604254D01*
X182979342Y-83604254D01*
X182985890Y-84068668D01*
X183151015Y-84467315D01*
X183320789Y-84559409D01*
X184060197Y-83820000D01*
X184239803Y-83820000D01*
X184979211Y-84559409D01*
X185148985Y-84467315D01*
X185320658Y-84035746D01*
X185314110Y-83571332D01*
X185148985Y-83172685D01*
X184979211Y-83080591D01*
X184239803Y-83820000D01*
X184060197Y-83820000D01*
X183320789Y-83080591D01*
X183151015Y-83172685D01*
X182979342Y-83604254D01*
X179544254Y-83604254D01*
X179511685Y-83525433D01*
X179365338Y-83378830D01*
X179174028Y-83299391D01*
X178966881Y-83299210D01*
X178775433Y-83378315D01*
X178628830Y-83524662D01*
X178549391Y-83715972D01*
X178549210Y-83923119D01*
X163080609Y-83923119D01*
X163080790Y-83716881D01*
X163001685Y-83525433D01*
X162855338Y-83378830D01*
X162664028Y-83299391D01*
X162456881Y-83299210D01*
X162265433Y-83378315D01*
X162118830Y-83524662D01*
X162039391Y-83715972D01*
X162039210Y-83923119D01*
X157379071Y-83923119D01*
X157374110Y-83571332D01*
X157208985Y-83172685D01*
X157039211Y-83080591D01*
X156299803Y-83820000D01*
X156120197Y-83820000D01*
X155380789Y-83080591D01*
X155211015Y-83172685D01*
X155039342Y-83604254D01*
X154368500Y-83604254D01*
X154368500Y-82990789D01*
X155470591Y-82990789D01*
X156210000Y-83730197D01*
X156949409Y-82990789D01*
X156857315Y-82821015D01*
X156492146Y-82675755D01*
X172084890Y-82675755D01*
X172181360Y-82909228D01*
X172359832Y-83088013D01*
X172593137Y-83184889D01*
X172845755Y-83185110D01*
X173079228Y-83088640D01*
X173177250Y-82990789D01*
X183410591Y-82990789D01*
X184150000Y-83730197D01*
X184889409Y-82990789D01*
X184797315Y-82821015D01*
X184365746Y-82649342D01*
X183901332Y-82655890D01*
X183502685Y-82821015D01*
X183410591Y-82990789D01*
X173177250Y-82990789D01*
X173258013Y-82910168D01*
X173354889Y-82676863D01*
X173355110Y-82424245D01*
X173258640Y-82190772D01*
X173080168Y-82011987D01*
X172846863Y-81915111D01*
X172594245Y-81914890D01*
X172360772Y-82011360D01*
X172181987Y-82189832D01*
X172085111Y-82423137D01*
X172084890Y-82675755D01*
X156492146Y-82675755D01*
X156425746Y-82649342D01*
X155961332Y-82655890D01*
X155562685Y-82821015D01*
X155470591Y-82990789D01*
X154368500Y-82990789D01*
X154368500Y-81511211D01*
X155042297Y-81511211D01*
X155219664Y-81940472D01*
X155547801Y-82269181D01*
X155976751Y-82447297D01*
X156441211Y-82447703D01*
X156870472Y-82270336D01*
X157199181Y-81942199D01*
X157377297Y-81513249D01*
X157377298Y-81511211D01*
X182982297Y-81511211D01*
X183159664Y-81940472D01*
X183487801Y-82269181D01*
X183916751Y-82447297D01*
X184381211Y-82447703D01*
X184810472Y-82270336D01*
X185139181Y-81942199D01*
X185317297Y-81513249D01*
X185317703Y-81048789D01*
X185140336Y-80619528D01*
X184812199Y-80290819D01*
X184383249Y-80112703D01*
X183918789Y-80112297D01*
X183489528Y-80289664D01*
X183160819Y-80617801D01*
X182982703Y-81046751D01*
X182982297Y-81511211D01*
X157377298Y-81511211D01*
X157377703Y-81048789D01*
X157200336Y-80619528D01*
X156872199Y-80290819D01*
X156498765Y-80135755D01*
X167004890Y-80135755D01*
X167101360Y-80369228D01*
X167279832Y-80548013D01*
X167513137Y-80644889D01*
X167765755Y-80645110D01*
X167999228Y-80548640D01*
X168178013Y-80370168D01*
X168274889Y-80136863D01*
X168275110Y-79884245D01*
X168178640Y-79650772D01*
X168097222Y-79569211D01*
X183410591Y-79569211D01*
X183502685Y-79738985D01*
X183934254Y-79910658D01*
X184398668Y-79904110D01*
X184797315Y-79738985D01*
X184889409Y-79569211D01*
X184150000Y-78829803D01*
X183410591Y-79569211D01*
X168097222Y-79569211D01*
X168000168Y-79471987D01*
X167766863Y-79375111D01*
X167514245Y-79374890D01*
X167280772Y-79471360D01*
X167101987Y-79649832D01*
X167005111Y-79883137D01*
X167004890Y-80135755D01*
X156498765Y-80135755D01*
X156443249Y-80112703D01*
X155978789Y-80112297D01*
X155549528Y-80289664D01*
X155220819Y-80617801D01*
X155042703Y-81046751D01*
X155042297Y-81511211D01*
X154368500Y-81511211D01*
X154368500Y-79569211D01*
X155470591Y-79569211D01*
X155562685Y-79738985D01*
X155994254Y-79910658D01*
X156458668Y-79904110D01*
X156857315Y-79738985D01*
X156949409Y-79569211D01*
X156210000Y-78829803D01*
X155470591Y-79569211D01*
X154368500Y-79569211D01*
X154368500Y-78524254D01*
X155039342Y-78524254D01*
X155045890Y-78988668D01*
X155211015Y-79387315D01*
X155380789Y-79479409D01*
X156120197Y-78740000D01*
X156299803Y-78740000D01*
X157039211Y-79479409D01*
X157208985Y-79387315D01*
X157380658Y-78955746D01*
X157379071Y-78843119D01*
X163309210Y-78843119D01*
X163388315Y-79034567D01*
X163534662Y-79181170D01*
X163725972Y-79260609D01*
X163933119Y-79260790D01*
X164124567Y-79181685D01*
X164271170Y-79035338D01*
X164350609Y-78844028D01*
X164350609Y-78843119D01*
X177279210Y-78843119D01*
X177358315Y-79034567D01*
X177504662Y-79181170D01*
X177695972Y-79260609D01*
X177903119Y-79260790D01*
X178094567Y-79181685D01*
X178241170Y-79035338D01*
X178320609Y-78844028D01*
X178320790Y-78636881D01*
X178274254Y-78524254D01*
X182979342Y-78524254D01*
X182985890Y-78988668D01*
X183151015Y-79387315D01*
X183320789Y-79479409D01*
X184060197Y-78740000D01*
X184239803Y-78740000D01*
X184979211Y-79479409D01*
X185148985Y-79387315D01*
X185320658Y-78955746D01*
X185314110Y-78491332D01*
X185148985Y-78092685D01*
X184979211Y-78000591D01*
X184239803Y-78740000D01*
X184060197Y-78740000D01*
X183320789Y-78000591D01*
X183151015Y-78092685D01*
X182979342Y-78524254D01*
X178274254Y-78524254D01*
X178241685Y-78445433D01*
X178095338Y-78298830D01*
X177904028Y-78219391D01*
X177696881Y-78219210D01*
X177505433Y-78298315D01*
X177358830Y-78444662D01*
X177279391Y-78635972D01*
X177279210Y-78843119D01*
X164350609Y-78843119D01*
X164350790Y-78636881D01*
X164271685Y-78445433D01*
X164125338Y-78298830D01*
X163934028Y-78219391D01*
X163726881Y-78219210D01*
X163535433Y-78298315D01*
X163388830Y-78444662D01*
X163309391Y-78635972D01*
X163309210Y-78843119D01*
X157379071Y-78843119D01*
X157374110Y-78491332D01*
X157208985Y-78092685D01*
X157039211Y-78000591D01*
X156299803Y-78740000D01*
X156120197Y-78740000D01*
X155380789Y-78000591D01*
X155211015Y-78092685D01*
X155039342Y-78524254D01*
X154368500Y-78524254D01*
X154368500Y-77910789D01*
X155470591Y-77910789D01*
X156210000Y-78650197D01*
X156949409Y-77910789D01*
X156857315Y-77741015D01*
X156492146Y-77595755D01*
X172084890Y-77595755D01*
X172181360Y-77829228D01*
X172359832Y-78008013D01*
X172593137Y-78104889D01*
X172845755Y-78105110D01*
X173079228Y-78008640D01*
X173177250Y-77910789D01*
X183410591Y-77910789D01*
X184150000Y-78650197D01*
X184889409Y-77910789D01*
X184797315Y-77741015D01*
X184365746Y-77569342D01*
X183901332Y-77575890D01*
X183502685Y-77741015D01*
X183410591Y-77910789D01*
X173177250Y-77910789D01*
X173258013Y-77830168D01*
X173354889Y-77596863D01*
X173355110Y-77344245D01*
X173258640Y-77110772D01*
X173080168Y-76931987D01*
X172846863Y-76835111D01*
X172594245Y-76834890D01*
X172360772Y-76931360D01*
X172181987Y-77109832D01*
X172085111Y-77343137D01*
X172084890Y-77595755D01*
X156492146Y-77595755D01*
X156425746Y-77569342D01*
X155961332Y-77575890D01*
X155562685Y-77741015D01*
X155470591Y-77910789D01*
X154368500Y-77910789D01*
X154368500Y-76431211D01*
X155042297Y-76431211D01*
X155219664Y-76860472D01*
X155547801Y-77189181D01*
X155976751Y-77367297D01*
X156441211Y-77367703D01*
X156870472Y-77190336D01*
X157199181Y-76862199D01*
X157377297Y-76433249D01*
X157377298Y-76431211D01*
X182982297Y-76431211D01*
X183159664Y-76860472D01*
X183487801Y-77189181D01*
X183916751Y-77367297D01*
X184381211Y-77367703D01*
X184810472Y-77190336D01*
X185139181Y-76862199D01*
X185317297Y-76433249D01*
X185317703Y-75968789D01*
X185140336Y-75539528D01*
X184812199Y-75210819D01*
X184383249Y-75032703D01*
X183918789Y-75032297D01*
X183489528Y-75209664D01*
X183160819Y-75537801D01*
X182982703Y-75966751D01*
X182982297Y-76431211D01*
X157377298Y-76431211D01*
X157377703Y-75968789D01*
X157200336Y-75539528D01*
X156872199Y-75210819D01*
X156498765Y-75055755D01*
X167004890Y-75055755D01*
X167101360Y-75289228D01*
X167279832Y-75468013D01*
X167513137Y-75564889D01*
X167765755Y-75565110D01*
X167999228Y-75468640D01*
X168178013Y-75290168D01*
X168274889Y-75056863D01*
X168275110Y-74804245D01*
X168178640Y-74570772D01*
X168000168Y-74391987D01*
X167766863Y-74295111D01*
X167514245Y-74294890D01*
X167280772Y-74391360D01*
X167101987Y-74569832D01*
X167005111Y-74803137D01*
X167004890Y-75055755D01*
X156498765Y-75055755D01*
X156443249Y-75032703D01*
X155978789Y-75032297D01*
X155549528Y-75209664D01*
X155220819Y-75537801D01*
X155042703Y-75966751D01*
X155042297Y-76431211D01*
X154368500Y-76431211D01*
X154368500Y-73891211D01*
X155042297Y-73891211D01*
X155219664Y-74320472D01*
X155547801Y-74649181D01*
X155976751Y-74827297D01*
X156441211Y-74827703D01*
X156870472Y-74650336D01*
X157199181Y-74322199D01*
X157377297Y-73893249D01*
X157377410Y-73763119D01*
X176009210Y-73763119D01*
X176088315Y-73954567D01*
X176234662Y-74101170D01*
X176425972Y-74180609D01*
X176633119Y-74180790D01*
X176824567Y-74101685D01*
X176971170Y-73955338D01*
X176997797Y-73891211D01*
X182982297Y-73891211D01*
X183159664Y-74320472D01*
X183487801Y-74649181D01*
X183916751Y-74827297D01*
X184381211Y-74827703D01*
X184810472Y-74650336D01*
X185139181Y-74322199D01*
X185317297Y-73893249D01*
X185317703Y-73428789D01*
X185140336Y-72999528D01*
X184812199Y-72670819D01*
X184383249Y-72492703D01*
X183918789Y-72492297D01*
X183489528Y-72669664D01*
X183160819Y-72997801D01*
X182982703Y-73426751D01*
X182982297Y-73891211D01*
X176997797Y-73891211D01*
X177050609Y-73764028D01*
X177050790Y-73556881D01*
X176971685Y-73365433D01*
X176825338Y-73218830D01*
X176634028Y-73139391D01*
X176426881Y-73139210D01*
X176235433Y-73218315D01*
X176088830Y-73364662D01*
X176009391Y-73555972D01*
X176009210Y-73763119D01*
X157377410Y-73763119D01*
X157377703Y-73428789D01*
X157200336Y-72999528D01*
X156872199Y-72670819D01*
X156443249Y-72492703D01*
X155978789Y-72492297D01*
X155549528Y-72669664D01*
X155220819Y-72997801D01*
X155042703Y-73426751D01*
X155042297Y-73891211D01*
X154368500Y-73891211D01*
X154368500Y-71818500D01*
X167386056Y-71818500D01*
X167385890Y-72007755D01*
M02*
