G04 #@! TF.FileFunction,Copper,L2,Inr,Plane*
%FSLAX46Y46*%
G04 Gerber Fmt 4.6, Leading zero omitted, Abs format (unit mm)*
G04 Created by KiCad (PCBNEW 4.0.7) date Monday, October 08, 2018 'PMt' 05:16:59 PM*
%MOMM*%
%LPD*%
G01*
G04 APERTURE LIST*
%ADD10C,0.100000*%
%ADD11C,1.700000*%
%ADD12C,0.406400*%
%ADD13C,0.635000*%
%ADD14C,0.889000*%
%ADD15C,0.127000*%
G04 APERTURE END LIST*
D10*
D11*
X156210000Y-73660000D03*
X156210000Y-76200000D03*
X156210000Y-78740000D03*
X156210000Y-81280000D03*
X156210000Y-83820000D03*
X156210000Y-86360000D03*
X156210000Y-88900000D03*
X156210000Y-91440000D03*
X156210000Y-93980000D03*
X156210000Y-96520000D03*
X156210000Y-99060000D03*
X156210000Y-101600000D03*
X156210000Y-104140000D03*
X156210000Y-106680000D03*
X156210000Y-109220000D03*
X156210000Y-111760000D03*
X156210000Y-114300000D03*
X156210000Y-116840000D03*
X156210000Y-119380000D03*
X156210000Y-121920000D03*
X156210000Y-124460000D03*
X156210000Y-127000000D03*
X156210000Y-129540000D03*
X156210000Y-132080000D03*
X156210000Y-134620000D03*
X184150000Y-73660000D03*
X184150000Y-76200000D03*
X184150000Y-78740000D03*
X184150000Y-81280000D03*
X184150000Y-83820000D03*
X184150000Y-86360000D03*
X184150000Y-88900000D03*
X184150000Y-91440000D03*
X184150000Y-93980000D03*
X184150000Y-96520000D03*
X184150000Y-99060000D03*
X184150000Y-101600000D03*
X184150000Y-104140000D03*
X184150000Y-106680000D03*
X184150000Y-109220000D03*
X184150000Y-111760000D03*
X184150000Y-114300000D03*
X184150000Y-116840000D03*
X184150000Y-119380000D03*
X184150000Y-121920000D03*
X184150000Y-124460000D03*
X184150000Y-127000000D03*
X184150000Y-129540000D03*
X184150000Y-132080000D03*
X184150000Y-134620000D03*
X181610000Y-132080000D03*
X179070000Y-132080000D03*
X176530000Y-132080000D03*
X173990000Y-132080000D03*
X171450000Y-132080000D03*
X168910000Y-132080000D03*
X166370000Y-132080000D03*
X163830000Y-132080000D03*
X161290000Y-132080000D03*
X158750000Y-132080000D03*
X158750000Y-134620000D03*
X161290000Y-134620000D03*
X163830000Y-134620000D03*
X166370000Y-134620000D03*
X168910000Y-134620000D03*
X171450000Y-134620000D03*
X173990000Y-134620000D03*
X176530000Y-134620000D03*
X179070000Y-134620000D03*
X181610000Y-134620000D03*
D12*
X166370000Y-127508000D03*
X166370000Y-130175000D03*
D13*
X170180000Y-114935000D03*
X170180000Y-121285000D03*
X170180000Y-125730000D03*
D14*
X172720000Y-125730000D03*
X173990000Y-125730000D03*
X171450000Y-125730000D03*
X172720000Y-120650000D03*
X171450000Y-120650000D03*
X173990000Y-120650000D03*
D13*
X168021000Y-71882000D03*
X167640000Y-94234000D03*
X159639000Y-130175000D03*
X173736000Y-114427000D03*
X179070000Y-127000000D03*
X177800000Y-127000000D03*
X180340000Y-127000000D03*
X179705000Y-130175000D03*
X178435000Y-130175000D03*
X168910000Y-123190000D03*
D12*
X167640000Y-118110000D03*
X164465000Y-118110000D03*
D13*
X174371000Y-130175000D03*
X170307000Y-130175000D03*
X167640000Y-110490000D03*
X167640000Y-105410000D03*
X167640000Y-100330000D03*
X172720000Y-113030000D03*
X172720000Y-107950000D03*
X172720000Y-102870000D03*
X172720000Y-97790000D03*
X167640000Y-95250000D03*
X172720000Y-87630000D03*
X172720000Y-92710000D03*
X167640000Y-90170000D03*
X167640000Y-85090000D03*
X167640000Y-80010000D03*
X172720000Y-82550000D03*
X172720000Y-77470000D03*
X167640000Y-74930000D03*
X181610000Y-102870000D03*
X181610000Y-72390000D03*
X181610000Y-77470000D03*
X181610000Y-82550000D03*
X181610000Y-87630000D03*
X181610000Y-92710000D03*
X181610000Y-97790000D03*
X181610000Y-107950000D03*
X158750000Y-102870000D03*
X158750000Y-97790000D03*
X158750000Y-92710000D03*
X158750000Y-87630000D03*
X158750000Y-82550000D03*
X158750000Y-77470000D03*
X158750000Y-72390000D03*
X158750000Y-107950000D03*
D12*
X163830000Y-130175000D03*
X165735000Y-127508000D03*
X165735000Y-122555000D03*
X166370000Y-123190000D03*
X166370000Y-118110000D03*
X158750000Y-121920000D03*
X165735000Y-121920000D03*
X165735000Y-118110000D03*
X158750000Y-123190000D03*
X165100000Y-123190000D03*
X165100000Y-118110000D03*
X164973000Y-127508000D03*
X159385000Y-128905000D03*
X167005000Y-130175000D03*
X167005000Y-127508000D03*
X163830000Y-78740000D03*
X163830000Y-118110000D03*
X176530000Y-117475000D03*
X176530000Y-73660000D03*
X162560000Y-83820000D03*
X162560000Y-118110000D03*
X177800000Y-116840000D03*
X177800000Y-78740000D03*
X161290000Y-118110000D03*
X161290000Y-88900000D03*
X179070000Y-116205000D03*
X179070000Y-83820000D03*
X160020000Y-118110000D03*
X160020000Y-93980000D03*
X180340000Y-115570000D03*
X180340000Y-88900000D03*
X159385000Y-127508000D03*
X159385000Y-99060000D03*
X180975000Y-93980000D03*
X180975000Y-129540000D03*
X160655000Y-104140000D03*
X160655000Y-127508000D03*
X179705000Y-129032000D03*
X179705000Y-99060000D03*
X161925000Y-109220000D03*
X161925000Y-127508000D03*
X178435000Y-104140000D03*
X178435000Y-128524000D03*
X163195000Y-114300000D03*
X163195000Y-127508000D03*
X177165000Y-109220000D03*
X177165000Y-128016000D03*
X168910000Y-121602500D03*
X168910000Y-118110000D03*
X182880000Y-117475000D03*
D15*
G36*
X158390772Y-71851360D02*
X158211987Y-72029832D01*
X158115111Y-72263137D01*
X158114890Y-72515755D01*
X158211360Y-72749228D01*
X158389832Y-72928013D01*
X158623137Y-73024889D01*
X158875755Y-73025110D01*
X159109228Y-72928640D01*
X159288013Y-72750168D01*
X159384889Y-72516863D01*
X159385110Y-72264245D01*
X159288640Y-72030772D01*
X159110168Y-71851987D01*
X159029522Y-71818500D01*
X181330299Y-71818500D01*
X181250772Y-71851360D01*
X181071987Y-72029832D01*
X180975111Y-72263137D01*
X180974890Y-72515755D01*
X181071360Y-72749228D01*
X181249832Y-72928013D01*
X181483137Y-73024889D01*
X181735755Y-73025110D01*
X181969228Y-72928640D01*
X182067250Y-72830789D01*
X183410591Y-72830789D01*
X184150000Y-73570197D01*
X184889409Y-72830789D01*
X184797315Y-72661015D01*
X184365746Y-72489342D01*
X183901332Y-72495890D01*
X183502685Y-72661015D01*
X183410591Y-72830789D01*
X182067250Y-72830789D01*
X182148013Y-72750168D01*
X182244889Y-72516863D01*
X182245110Y-72264245D01*
X182148640Y-72030772D01*
X181970168Y-71851987D01*
X181889522Y-71818500D01*
X185991500Y-71818500D01*
X185991500Y-136461500D01*
X154368500Y-136461500D01*
X154368500Y-135449211D01*
X155470591Y-135449211D01*
X155562685Y-135618985D01*
X155994254Y-135790658D01*
X156458668Y-135784110D01*
X156857315Y-135618985D01*
X156949409Y-135449211D01*
X158010591Y-135449211D01*
X158102685Y-135618985D01*
X158534254Y-135790658D01*
X158998668Y-135784110D01*
X159397315Y-135618985D01*
X159489409Y-135449211D01*
X160550591Y-135449211D01*
X160642685Y-135618985D01*
X161074254Y-135790658D01*
X161538668Y-135784110D01*
X161937315Y-135618985D01*
X162029409Y-135449211D01*
X163090591Y-135449211D01*
X163182685Y-135618985D01*
X163614254Y-135790658D01*
X164078668Y-135784110D01*
X164477315Y-135618985D01*
X164569409Y-135449211D01*
X165630591Y-135449211D01*
X165722685Y-135618985D01*
X166154254Y-135790658D01*
X166618668Y-135784110D01*
X167017315Y-135618985D01*
X167109409Y-135449211D01*
X168170591Y-135449211D01*
X168262685Y-135618985D01*
X168694254Y-135790658D01*
X169158668Y-135784110D01*
X169557315Y-135618985D01*
X169649409Y-135449211D01*
X170710591Y-135449211D01*
X170802685Y-135618985D01*
X171234254Y-135790658D01*
X171698668Y-135784110D01*
X172097315Y-135618985D01*
X172189409Y-135449211D01*
X173250591Y-135449211D01*
X173342685Y-135618985D01*
X173774254Y-135790658D01*
X174238668Y-135784110D01*
X174637315Y-135618985D01*
X174729409Y-135449211D01*
X175790591Y-135449211D01*
X175882685Y-135618985D01*
X176314254Y-135790658D01*
X176778668Y-135784110D01*
X177177315Y-135618985D01*
X177269409Y-135449211D01*
X178330591Y-135449211D01*
X178422685Y-135618985D01*
X178854254Y-135790658D01*
X179318668Y-135784110D01*
X179717315Y-135618985D01*
X179809409Y-135449211D01*
X180870591Y-135449211D01*
X180962685Y-135618985D01*
X181394254Y-135790658D01*
X181858668Y-135784110D01*
X182257315Y-135618985D01*
X182349409Y-135449211D01*
X183410591Y-135449211D01*
X183502685Y-135618985D01*
X183934254Y-135790658D01*
X184398668Y-135784110D01*
X184797315Y-135618985D01*
X184889409Y-135449211D01*
X184150000Y-134709803D01*
X183410591Y-135449211D01*
X182349409Y-135449211D01*
X181610000Y-134709803D01*
X180870591Y-135449211D01*
X179809409Y-135449211D01*
X179070000Y-134709803D01*
X178330591Y-135449211D01*
X177269409Y-135449211D01*
X176530000Y-134709803D01*
X175790591Y-135449211D01*
X174729409Y-135449211D01*
X173990000Y-134709803D01*
X173250591Y-135449211D01*
X172189409Y-135449211D01*
X171450000Y-134709803D01*
X170710591Y-135449211D01*
X169649409Y-135449211D01*
X168910000Y-134709803D01*
X168170591Y-135449211D01*
X167109409Y-135449211D01*
X166370000Y-134709803D01*
X165630591Y-135449211D01*
X164569409Y-135449211D01*
X163830000Y-134709803D01*
X163090591Y-135449211D01*
X162029409Y-135449211D01*
X161290000Y-134709803D01*
X160550591Y-135449211D01*
X159489409Y-135449211D01*
X158750000Y-134709803D01*
X158010591Y-135449211D01*
X156949409Y-135449211D01*
X156210000Y-134709803D01*
X155470591Y-135449211D01*
X154368500Y-135449211D01*
X154368500Y-134404254D01*
X155039342Y-134404254D01*
X155045890Y-134868668D01*
X155211015Y-135267315D01*
X155380789Y-135359409D01*
X156120197Y-134620000D01*
X156299803Y-134620000D01*
X157039211Y-135359409D01*
X157208985Y-135267315D01*
X157380658Y-134835746D01*
X157374575Y-134404254D01*
X157579342Y-134404254D01*
X157585890Y-134868668D01*
X157751015Y-135267315D01*
X157920789Y-135359409D01*
X158660197Y-134620000D01*
X158839803Y-134620000D01*
X159579211Y-135359409D01*
X159748985Y-135267315D01*
X159920658Y-134835746D01*
X159914575Y-134404254D01*
X160119342Y-134404254D01*
X160125890Y-134868668D01*
X160291015Y-135267315D01*
X160460789Y-135359409D01*
X161200197Y-134620000D01*
X161379803Y-134620000D01*
X162119211Y-135359409D01*
X162288985Y-135267315D01*
X162460658Y-134835746D01*
X162454575Y-134404254D01*
X162659342Y-134404254D01*
X162665890Y-134868668D01*
X162831015Y-135267315D01*
X163000789Y-135359409D01*
X163740197Y-134620000D01*
X163919803Y-134620000D01*
X164659211Y-135359409D01*
X164828985Y-135267315D01*
X165000658Y-134835746D01*
X164994575Y-134404254D01*
X165199342Y-134404254D01*
X165205890Y-134868668D01*
X165371015Y-135267315D01*
X165540789Y-135359409D01*
X166280197Y-134620000D01*
X166459803Y-134620000D01*
X167199211Y-135359409D01*
X167368985Y-135267315D01*
X167540658Y-134835746D01*
X167534575Y-134404254D01*
X167739342Y-134404254D01*
X167745890Y-134868668D01*
X167911015Y-135267315D01*
X168080789Y-135359409D01*
X168820197Y-134620000D01*
X168999803Y-134620000D01*
X169739211Y-135359409D01*
X169908985Y-135267315D01*
X170080658Y-134835746D01*
X170074575Y-134404254D01*
X170279342Y-134404254D01*
X170285890Y-134868668D01*
X170451015Y-135267315D01*
X170620789Y-135359409D01*
X171360197Y-134620000D01*
X171539803Y-134620000D01*
X172279211Y-135359409D01*
X172448985Y-135267315D01*
X172620658Y-134835746D01*
X172614575Y-134404254D01*
X172819342Y-134404254D01*
X172825890Y-134868668D01*
X172991015Y-135267315D01*
X173160789Y-135359409D01*
X173900197Y-134620000D01*
X174079803Y-134620000D01*
X174819211Y-135359409D01*
X174988985Y-135267315D01*
X175160658Y-134835746D01*
X175154575Y-134404254D01*
X175359342Y-134404254D01*
X175365890Y-134868668D01*
X175531015Y-135267315D01*
X175700789Y-135359409D01*
X176440197Y-134620000D01*
X176619803Y-134620000D01*
X177359211Y-135359409D01*
X177528985Y-135267315D01*
X177700658Y-134835746D01*
X177694575Y-134404254D01*
X177899342Y-134404254D01*
X177905890Y-134868668D01*
X178071015Y-135267315D01*
X178240789Y-135359409D01*
X178980197Y-134620000D01*
X179159803Y-134620000D01*
X179899211Y-135359409D01*
X180068985Y-135267315D01*
X180240658Y-134835746D01*
X180234575Y-134404254D01*
X180439342Y-134404254D01*
X180445890Y-134868668D01*
X180611015Y-135267315D01*
X180780789Y-135359409D01*
X181520197Y-134620000D01*
X181699803Y-134620000D01*
X182439211Y-135359409D01*
X182608985Y-135267315D01*
X182780658Y-134835746D01*
X182774575Y-134404254D01*
X182979342Y-134404254D01*
X182985890Y-134868668D01*
X183151015Y-135267315D01*
X183320789Y-135359409D01*
X184060197Y-134620000D01*
X184239803Y-134620000D01*
X184979211Y-135359409D01*
X185148985Y-135267315D01*
X185320658Y-134835746D01*
X185314110Y-134371332D01*
X185148985Y-133972685D01*
X184979211Y-133880591D01*
X184239803Y-134620000D01*
X184060197Y-134620000D01*
X183320789Y-133880591D01*
X183151015Y-133972685D01*
X182979342Y-134404254D01*
X182774575Y-134404254D01*
X182774110Y-134371332D01*
X182608985Y-133972685D01*
X182439211Y-133880591D01*
X181699803Y-134620000D01*
X181520197Y-134620000D01*
X180780789Y-133880591D01*
X180611015Y-133972685D01*
X180439342Y-134404254D01*
X180234575Y-134404254D01*
X180234110Y-134371332D01*
X180068985Y-133972685D01*
X179899211Y-133880591D01*
X179159803Y-134620000D01*
X178980197Y-134620000D01*
X178240789Y-133880591D01*
X178071015Y-133972685D01*
X177899342Y-134404254D01*
X177694575Y-134404254D01*
X177694110Y-134371332D01*
X177528985Y-133972685D01*
X177359211Y-133880591D01*
X176619803Y-134620000D01*
X176440197Y-134620000D01*
X175700789Y-133880591D01*
X175531015Y-133972685D01*
X175359342Y-134404254D01*
X175154575Y-134404254D01*
X175154110Y-134371332D01*
X174988985Y-133972685D01*
X174819211Y-133880591D01*
X174079803Y-134620000D01*
X173900197Y-134620000D01*
X173160789Y-133880591D01*
X172991015Y-133972685D01*
X172819342Y-134404254D01*
X172614575Y-134404254D01*
X172614110Y-134371332D01*
X172448985Y-133972685D01*
X172279211Y-133880591D01*
X171539803Y-134620000D01*
X171360197Y-134620000D01*
X170620789Y-133880591D01*
X170451015Y-133972685D01*
X170279342Y-134404254D01*
X170074575Y-134404254D01*
X170074110Y-134371332D01*
X169908985Y-133972685D01*
X169739211Y-133880591D01*
X168999803Y-134620000D01*
X168820197Y-134620000D01*
X168080789Y-133880591D01*
X167911015Y-133972685D01*
X167739342Y-134404254D01*
X167534575Y-134404254D01*
X167534110Y-134371332D01*
X167368985Y-133972685D01*
X167199211Y-133880591D01*
X166459803Y-134620000D01*
X166280197Y-134620000D01*
X165540789Y-133880591D01*
X165371015Y-133972685D01*
X165199342Y-134404254D01*
X164994575Y-134404254D01*
X164994110Y-134371332D01*
X164828985Y-133972685D01*
X164659211Y-133880591D01*
X163919803Y-134620000D01*
X163740197Y-134620000D01*
X163000789Y-133880591D01*
X162831015Y-133972685D01*
X162659342Y-134404254D01*
X162454575Y-134404254D01*
X162454110Y-134371332D01*
X162288985Y-133972685D01*
X162119211Y-133880591D01*
X161379803Y-134620000D01*
X161200197Y-134620000D01*
X160460789Y-133880591D01*
X160291015Y-133972685D01*
X160119342Y-134404254D01*
X159914575Y-134404254D01*
X159914110Y-134371332D01*
X159748985Y-133972685D01*
X159579211Y-133880591D01*
X158839803Y-134620000D01*
X158660197Y-134620000D01*
X157920789Y-133880591D01*
X157751015Y-133972685D01*
X157579342Y-134404254D01*
X157374575Y-134404254D01*
X157374110Y-134371332D01*
X157208985Y-133972685D01*
X157039211Y-133880591D01*
X156299803Y-134620000D01*
X156120197Y-134620000D01*
X155380789Y-133880591D01*
X155211015Y-133972685D01*
X155039342Y-134404254D01*
X154368500Y-134404254D01*
X154368500Y-133790789D01*
X155470591Y-133790789D01*
X156210000Y-134530197D01*
X156949409Y-133790789D01*
X158010591Y-133790789D01*
X158750000Y-134530197D01*
X159489409Y-133790789D01*
X160550591Y-133790789D01*
X161290000Y-134530197D01*
X162029409Y-133790789D01*
X163090591Y-133790789D01*
X163830000Y-134530197D01*
X164569409Y-133790789D01*
X165630591Y-133790789D01*
X166370000Y-134530197D01*
X167109409Y-133790789D01*
X168170591Y-133790789D01*
X168910000Y-134530197D01*
X169649409Y-133790789D01*
X170710591Y-133790789D01*
X171450000Y-134530197D01*
X172189409Y-133790789D01*
X173250591Y-133790789D01*
X173990000Y-134530197D01*
X174729409Y-133790789D01*
X175790591Y-133790789D01*
X176530000Y-134530197D01*
X177269409Y-133790789D01*
X178330591Y-133790789D01*
X179070000Y-134530197D01*
X179809409Y-133790789D01*
X180870591Y-133790789D01*
X181610000Y-134530197D01*
X182349409Y-133790789D01*
X183410591Y-133790789D01*
X184150000Y-134530197D01*
X184889409Y-133790789D01*
X184797315Y-133621015D01*
X184365746Y-133449342D01*
X183901332Y-133455890D01*
X183502685Y-133621015D01*
X183410591Y-133790789D01*
X182349409Y-133790789D01*
X182257315Y-133621015D01*
X181825746Y-133449342D01*
X181361332Y-133455890D01*
X180962685Y-133621015D01*
X180870591Y-133790789D01*
X179809409Y-133790789D01*
X179717315Y-133621015D01*
X179285746Y-133449342D01*
X178821332Y-133455890D01*
X178422685Y-133621015D01*
X178330591Y-133790789D01*
X177269409Y-133790789D01*
X177177315Y-133621015D01*
X176745746Y-133449342D01*
X176281332Y-133455890D01*
X175882685Y-133621015D01*
X175790591Y-133790789D01*
X174729409Y-133790789D01*
X174637315Y-133621015D01*
X174205746Y-133449342D01*
X173741332Y-133455890D01*
X173342685Y-133621015D01*
X173250591Y-133790789D01*
X172189409Y-133790789D01*
X172097315Y-133621015D01*
X171665746Y-133449342D01*
X171201332Y-133455890D01*
X170802685Y-133621015D01*
X170710591Y-133790789D01*
X169649409Y-133790789D01*
X169557315Y-133621015D01*
X169125746Y-133449342D01*
X168661332Y-133455890D01*
X168262685Y-133621015D01*
X168170591Y-133790789D01*
X167109409Y-133790789D01*
X167017315Y-133621015D01*
X166585746Y-133449342D01*
X166121332Y-133455890D01*
X165722685Y-133621015D01*
X165630591Y-133790789D01*
X164569409Y-133790789D01*
X164477315Y-133621015D01*
X164045746Y-133449342D01*
X163581332Y-133455890D01*
X163182685Y-133621015D01*
X163090591Y-133790789D01*
X162029409Y-133790789D01*
X161937315Y-133621015D01*
X161505746Y-133449342D01*
X161041332Y-133455890D01*
X160642685Y-133621015D01*
X160550591Y-133790789D01*
X159489409Y-133790789D01*
X159397315Y-133621015D01*
X158965746Y-133449342D01*
X158501332Y-133455890D01*
X158102685Y-133621015D01*
X158010591Y-133790789D01*
X156949409Y-133790789D01*
X156857315Y-133621015D01*
X156425746Y-133449342D01*
X155961332Y-133455890D01*
X155562685Y-133621015D01*
X155470591Y-133790789D01*
X154368500Y-133790789D01*
X154368500Y-132311211D01*
X155042297Y-132311211D01*
X155219664Y-132740472D01*
X155547801Y-133069181D01*
X155976751Y-133247297D01*
X156441211Y-133247703D01*
X156870472Y-133070336D01*
X157199181Y-132742199D01*
X157377297Y-132313249D01*
X157377298Y-132311211D01*
X157582297Y-132311211D01*
X157759664Y-132740472D01*
X158087801Y-133069181D01*
X158516751Y-133247297D01*
X158981211Y-133247703D01*
X159410472Y-133070336D01*
X159739181Y-132742199D01*
X159917297Y-132313249D01*
X159917298Y-132311211D01*
X160122297Y-132311211D01*
X160299664Y-132740472D01*
X160627801Y-133069181D01*
X161056751Y-133247297D01*
X161521211Y-133247703D01*
X161950472Y-133070336D01*
X162279181Y-132742199D01*
X162457297Y-132313249D01*
X162457298Y-132311211D01*
X162662297Y-132311211D01*
X162839664Y-132740472D01*
X163167801Y-133069181D01*
X163596751Y-133247297D01*
X164061211Y-133247703D01*
X164490472Y-133070336D01*
X164819181Y-132742199D01*
X164997297Y-132313249D01*
X164997298Y-132311211D01*
X165202297Y-132311211D01*
X165379664Y-132740472D01*
X165707801Y-133069181D01*
X166136751Y-133247297D01*
X166601211Y-133247703D01*
X167030472Y-133070336D01*
X167359181Y-132742199D01*
X167537297Y-132313249D01*
X167537298Y-132311211D01*
X167742297Y-132311211D01*
X167919664Y-132740472D01*
X168247801Y-133069181D01*
X168676751Y-133247297D01*
X169141211Y-133247703D01*
X169570472Y-133070336D01*
X169899181Y-132742199D01*
X170077297Y-132313249D01*
X170077298Y-132311211D01*
X170282297Y-132311211D01*
X170459664Y-132740472D01*
X170787801Y-133069181D01*
X171216751Y-133247297D01*
X171681211Y-133247703D01*
X172110472Y-133070336D01*
X172439181Y-132742199D01*
X172617297Y-132313249D01*
X172617298Y-132311211D01*
X172822297Y-132311211D01*
X172999664Y-132740472D01*
X173327801Y-133069181D01*
X173756751Y-133247297D01*
X174221211Y-133247703D01*
X174650472Y-133070336D01*
X174979181Y-132742199D01*
X175157297Y-132313249D01*
X175157298Y-132311211D01*
X175362297Y-132311211D01*
X175539664Y-132740472D01*
X175867801Y-133069181D01*
X176296751Y-133247297D01*
X176761211Y-133247703D01*
X177190472Y-133070336D01*
X177519181Y-132742199D01*
X177697297Y-132313249D01*
X177697298Y-132311211D01*
X177902297Y-132311211D01*
X178079664Y-132740472D01*
X178407801Y-133069181D01*
X178836751Y-133247297D01*
X179301211Y-133247703D01*
X179730472Y-133070336D01*
X180059181Y-132742199D01*
X180237297Y-132313249D01*
X180237298Y-132311211D01*
X180442297Y-132311211D01*
X180619664Y-132740472D01*
X180947801Y-133069181D01*
X181376751Y-133247297D01*
X181841211Y-133247703D01*
X182270472Y-133070336D01*
X182599181Y-132742199D01*
X182777297Y-132313249D01*
X182777298Y-132311211D01*
X182982297Y-132311211D01*
X183159664Y-132740472D01*
X183487801Y-133069181D01*
X183916751Y-133247297D01*
X184381211Y-133247703D01*
X184810472Y-133070336D01*
X185139181Y-132742199D01*
X185317297Y-132313249D01*
X185317703Y-131848789D01*
X185140336Y-131419528D01*
X184812199Y-131090819D01*
X184383249Y-130912703D01*
X183918789Y-130912297D01*
X183489528Y-131089664D01*
X183160819Y-131417801D01*
X182982703Y-131846751D01*
X182982297Y-132311211D01*
X182777298Y-132311211D01*
X182777703Y-131848789D01*
X182600336Y-131419528D01*
X182272199Y-131090819D01*
X181843249Y-130912703D01*
X181378789Y-130912297D01*
X180949528Y-131089664D01*
X180620819Y-131417801D01*
X180442703Y-131846751D01*
X180442297Y-132311211D01*
X180237298Y-132311211D01*
X180237703Y-131848789D01*
X180060336Y-131419528D01*
X179732199Y-131090819D01*
X179303249Y-130912703D01*
X178838789Y-130912297D01*
X178409528Y-131089664D01*
X178080819Y-131417801D01*
X177902703Y-131846751D01*
X177902297Y-132311211D01*
X177697298Y-132311211D01*
X177697703Y-131848789D01*
X177520336Y-131419528D01*
X177192199Y-131090819D01*
X176763249Y-130912703D01*
X176298789Y-130912297D01*
X175869528Y-131089664D01*
X175540819Y-131417801D01*
X175362703Y-131846751D01*
X175362297Y-132311211D01*
X175157298Y-132311211D01*
X175157703Y-131848789D01*
X174980336Y-131419528D01*
X174652199Y-131090819D01*
X174223249Y-130912703D01*
X173758789Y-130912297D01*
X173329528Y-131089664D01*
X173000819Y-131417801D01*
X172822703Y-131846751D01*
X172822297Y-132311211D01*
X172617298Y-132311211D01*
X172617703Y-131848789D01*
X172440336Y-131419528D01*
X172112199Y-131090819D01*
X171683249Y-130912703D01*
X171218789Y-130912297D01*
X170789528Y-131089664D01*
X170460819Y-131417801D01*
X170282703Y-131846751D01*
X170282297Y-132311211D01*
X170077298Y-132311211D01*
X170077703Y-131848789D01*
X169900336Y-131419528D01*
X169572199Y-131090819D01*
X169143249Y-130912703D01*
X168678789Y-130912297D01*
X168249528Y-131089664D01*
X167920819Y-131417801D01*
X167742703Y-131846751D01*
X167742297Y-132311211D01*
X167537298Y-132311211D01*
X167537703Y-131848789D01*
X167360336Y-131419528D01*
X167032199Y-131090819D01*
X166603249Y-130912703D01*
X166138789Y-130912297D01*
X165709528Y-131089664D01*
X165380819Y-131417801D01*
X165202703Y-131846751D01*
X165202297Y-132311211D01*
X164997298Y-132311211D01*
X164997703Y-131848789D01*
X164820336Y-131419528D01*
X164492199Y-131090819D01*
X164063249Y-130912703D01*
X163598789Y-130912297D01*
X163169528Y-131089664D01*
X162840819Y-131417801D01*
X162662703Y-131846751D01*
X162662297Y-132311211D01*
X162457298Y-132311211D01*
X162457703Y-131848789D01*
X162280336Y-131419528D01*
X161952199Y-131090819D01*
X161523249Y-130912703D01*
X161058789Y-130912297D01*
X160629528Y-131089664D01*
X160300819Y-131417801D01*
X160122703Y-131846751D01*
X160122297Y-132311211D01*
X159917298Y-132311211D01*
X159917703Y-131848789D01*
X159740336Y-131419528D01*
X159412199Y-131090819D01*
X158983249Y-130912703D01*
X158518789Y-130912297D01*
X158089528Y-131089664D01*
X157760819Y-131417801D01*
X157582703Y-131846751D01*
X157582297Y-132311211D01*
X157377298Y-132311211D01*
X157377703Y-131848789D01*
X157200336Y-131419528D01*
X156872199Y-131090819D01*
X156443249Y-130912703D01*
X155978789Y-130912297D01*
X155549528Y-131089664D01*
X155220819Y-131417801D01*
X155042703Y-131846751D01*
X155042297Y-132311211D01*
X154368500Y-132311211D01*
X154368500Y-129771211D01*
X155042297Y-129771211D01*
X155219664Y-130200472D01*
X155547801Y-130529181D01*
X155976751Y-130707297D01*
X156441211Y-130707703D01*
X156870472Y-130530336D01*
X157123128Y-130278119D01*
X163309210Y-130278119D01*
X163388315Y-130469567D01*
X163534662Y-130616170D01*
X163725972Y-130695609D01*
X163933119Y-130695790D01*
X164124567Y-130616685D01*
X164271170Y-130470338D01*
X164350609Y-130279028D01*
X164350609Y-130278119D01*
X165849210Y-130278119D01*
X165928315Y-130469567D01*
X166074662Y-130616170D01*
X166265972Y-130695609D01*
X166473119Y-130695790D01*
X166664567Y-130616685D01*
X166687411Y-130593880D01*
X166709662Y-130616170D01*
X166900972Y-130695609D01*
X167108119Y-130695790D01*
X167299567Y-130616685D01*
X167446170Y-130470338D01*
X167525609Y-130279028D01*
X167525790Y-130071881D01*
X167446685Y-129880433D01*
X167300338Y-129733830D01*
X167109028Y-129654391D01*
X166901881Y-129654210D01*
X166710433Y-129733315D01*
X166687589Y-129756120D01*
X166665338Y-129733830D01*
X166474028Y-129654391D01*
X166266881Y-129654210D01*
X166075433Y-129733315D01*
X165928830Y-129879662D01*
X165849391Y-130070972D01*
X165849210Y-130278119D01*
X164350609Y-130278119D01*
X164350790Y-130071881D01*
X164271685Y-129880433D01*
X164125338Y-129733830D01*
X163934028Y-129654391D01*
X163726881Y-129654210D01*
X163535433Y-129733315D01*
X163388830Y-129879662D01*
X163309391Y-130070972D01*
X163309210Y-130278119D01*
X157123128Y-130278119D01*
X157199181Y-130202199D01*
X157377297Y-129773249D01*
X157377410Y-129643119D01*
X180454210Y-129643119D01*
X180533315Y-129834567D01*
X180679662Y-129981170D01*
X180870972Y-130060609D01*
X181078119Y-130060790D01*
X181269567Y-129981685D01*
X181416170Y-129835338D01*
X181442797Y-129771211D01*
X182982297Y-129771211D01*
X183159664Y-130200472D01*
X183487801Y-130529181D01*
X183916751Y-130707297D01*
X184381211Y-130707703D01*
X184810472Y-130530336D01*
X185139181Y-130202199D01*
X185317297Y-129773249D01*
X185317703Y-129308789D01*
X185140336Y-128879528D01*
X184812199Y-128550819D01*
X184383249Y-128372703D01*
X183918789Y-128372297D01*
X183489528Y-128549664D01*
X183160819Y-128877801D01*
X182982703Y-129306751D01*
X182982297Y-129771211D01*
X181442797Y-129771211D01*
X181495609Y-129644028D01*
X181495790Y-129436881D01*
X181416685Y-129245433D01*
X181270338Y-129098830D01*
X181079028Y-129019391D01*
X180871881Y-129019210D01*
X180680433Y-129098315D01*
X180533830Y-129244662D01*
X180454391Y-129435972D01*
X180454210Y-129643119D01*
X157377410Y-129643119D01*
X157377703Y-129308789D01*
X157253469Y-129008119D01*
X158864210Y-129008119D01*
X158943315Y-129199567D01*
X159089662Y-129346170D01*
X159280972Y-129425609D01*
X159488119Y-129425790D01*
X159679567Y-129346685D01*
X159826170Y-129200338D01*
X159853251Y-129135119D01*
X179184210Y-129135119D01*
X179263315Y-129326567D01*
X179409662Y-129473170D01*
X179600972Y-129552609D01*
X179808119Y-129552790D01*
X179999567Y-129473685D01*
X180146170Y-129327338D01*
X180225609Y-129136028D01*
X180225790Y-128928881D01*
X180146685Y-128737433D01*
X180000338Y-128590830D01*
X179809028Y-128511391D01*
X179601881Y-128511210D01*
X179410433Y-128590315D01*
X179263830Y-128736662D01*
X179184391Y-128927972D01*
X179184210Y-129135119D01*
X159853251Y-129135119D01*
X159905609Y-129009028D01*
X159905790Y-128801881D01*
X159833580Y-128627119D01*
X177914210Y-128627119D01*
X177993315Y-128818567D01*
X178139662Y-128965170D01*
X178330972Y-129044609D01*
X178538119Y-129044790D01*
X178729567Y-128965685D01*
X178876170Y-128819338D01*
X178955609Y-128628028D01*
X178955790Y-128420881D01*
X178876685Y-128229433D01*
X178730338Y-128082830D01*
X178539028Y-128003391D01*
X178331881Y-128003210D01*
X178140433Y-128082315D01*
X177993830Y-128228662D01*
X177914391Y-128419972D01*
X177914210Y-128627119D01*
X159833580Y-128627119D01*
X159826685Y-128610433D01*
X159680338Y-128463830D01*
X159489028Y-128384391D01*
X159281881Y-128384210D01*
X159090433Y-128463315D01*
X158943830Y-128609662D01*
X158864391Y-128800972D01*
X158864210Y-129008119D01*
X157253469Y-129008119D01*
X157200336Y-128879528D01*
X156872199Y-128550819D01*
X156443249Y-128372703D01*
X155978789Y-128372297D01*
X155549528Y-128549664D01*
X155220819Y-128877801D01*
X155042703Y-129306751D01*
X155042297Y-129771211D01*
X154368500Y-129771211D01*
X154368500Y-127231211D01*
X155042297Y-127231211D01*
X155219664Y-127660472D01*
X155547801Y-127989181D01*
X155976751Y-128167297D01*
X156441211Y-128167703D01*
X156558793Y-128119119D01*
X176644210Y-128119119D01*
X176723315Y-128310567D01*
X176869662Y-128457170D01*
X177060972Y-128536609D01*
X177268119Y-128536790D01*
X177459567Y-128457685D01*
X177606170Y-128311338D01*
X177685609Y-128120028D01*
X177685790Y-127912881D01*
X177606685Y-127721433D01*
X177460338Y-127574830D01*
X177269028Y-127495391D01*
X177061881Y-127495210D01*
X176870433Y-127574315D01*
X176723830Y-127720662D01*
X176644391Y-127911972D01*
X176644210Y-128119119D01*
X156558793Y-128119119D01*
X156870472Y-127990336D01*
X157199181Y-127662199D01*
X157220391Y-127611119D01*
X158864210Y-127611119D01*
X158943315Y-127802567D01*
X159089662Y-127949170D01*
X159280972Y-128028609D01*
X159488119Y-128028790D01*
X159679567Y-127949685D01*
X159826170Y-127803338D01*
X159905609Y-127612028D01*
X159905609Y-127611119D01*
X160134210Y-127611119D01*
X160213315Y-127802567D01*
X160359662Y-127949170D01*
X160550972Y-128028609D01*
X160758119Y-128028790D01*
X160949567Y-127949685D01*
X161096170Y-127803338D01*
X161175609Y-127612028D01*
X161175609Y-127611119D01*
X161404210Y-127611119D01*
X161483315Y-127802567D01*
X161629662Y-127949170D01*
X161820972Y-128028609D01*
X162028119Y-128028790D01*
X162219567Y-127949685D01*
X162366170Y-127803338D01*
X162445609Y-127612028D01*
X162445609Y-127611119D01*
X162674210Y-127611119D01*
X162753315Y-127802567D01*
X162899662Y-127949170D01*
X163090972Y-128028609D01*
X163298119Y-128028790D01*
X163489567Y-127949685D01*
X163636170Y-127803338D01*
X163715609Y-127612028D01*
X163715609Y-127611119D01*
X164452210Y-127611119D01*
X164531315Y-127802567D01*
X164677662Y-127949170D01*
X164868972Y-128028609D01*
X165076119Y-128028790D01*
X165267567Y-127949685D01*
X165354022Y-127863381D01*
X165439662Y-127949170D01*
X165630972Y-128028609D01*
X165838119Y-128028790D01*
X166029567Y-127949685D01*
X166052411Y-127926880D01*
X166074662Y-127949170D01*
X166265972Y-128028609D01*
X166473119Y-128028790D01*
X166664567Y-127949685D01*
X166687411Y-127926880D01*
X166709662Y-127949170D01*
X166900972Y-128028609D01*
X167108119Y-128028790D01*
X167299567Y-127949685D01*
X167446170Y-127803338D01*
X167525609Y-127612028D01*
X167525790Y-127404881D01*
X167454031Y-127231211D01*
X182982297Y-127231211D01*
X183159664Y-127660472D01*
X183487801Y-127989181D01*
X183916751Y-128167297D01*
X184381211Y-128167703D01*
X184810472Y-127990336D01*
X185139181Y-127662199D01*
X185317297Y-127233249D01*
X185317703Y-126768789D01*
X185140336Y-126339528D01*
X184812199Y-126010819D01*
X184383249Y-125832703D01*
X183918789Y-125832297D01*
X183489528Y-126009664D01*
X183160819Y-126337801D01*
X182982703Y-126766751D01*
X182982297Y-127231211D01*
X167454031Y-127231211D01*
X167446685Y-127213433D01*
X167300338Y-127066830D01*
X167109028Y-126987391D01*
X166901881Y-126987210D01*
X166710433Y-127066315D01*
X166687589Y-127089120D01*
X166665338Y-127066830D01*
X166474028Y-126987391D01*
X166266881Y-126987210D01*
X166075433Y-127066315D01*
X166052589Y-127089120D01*
X166030338Y-127066830D01*
X165839028Y-126987391D01*
X165631881Y-126987210D01*
X165440433Y-127066315D01*
X165353978Y-127152619D01*
X165268338Y-127066830D01*
X165077028Y-126987391D01*
X164869881Y-126987210D01*
X164678433Y-127066315D01*
X164531830Y-127212662D01*
X164452391Y-127403972D01*
X164452210Y-127611119D01*
X163715609Y-127611119D01*
X163715790Y-127404881D01*
X163636685Y-127213433D01*
X163490338Y-127066830D01*
X163299028Y-126987391D01*
X163091881Y-126987210D01*
X162900433Y-127066315D01*
X162753830Y-127212662D01*
X162674391Y-127403972D01*
X162674210Y-127611119D01*
X162445609Y-127611119D01*
X162445790Y-127404881D01*
X162366685Y-127213433D01*
X162220338Y-127066830D01*
X162029028Y-126987391D01*
X161821881Y-126987210D01*
X161630433Y-127066315D01*
X161483830Y-127212662D01*
X161404391Y-127403972D01*
X161404210Y-127611119D01*
X161175609Y-127611119D01*
X161175790Y-127404881D01*
X161096685Y-127213433D01*
X160950338Y-127066830D01*
X160759028Y-126987391D01*
X160551881Y-126987210D01*
X160360433Y-127066315D01*
X160213830Y-127212662D01*
X160134391Y-127403972D01*
X160134210Y-127611119D01*
X159905609Y-127611119D01*
X159905790Y-127404881D01*
X159826685Y-127213433D01*
X159680338Y-127066830D01*
X159489028Y-126987391D01*
X159281881Y-126987210D01*
X159090433Y-127066315D01*
X158943830Y-127212662D01*
X158864391Y-127403972D01*
X158864210Y-127611119D01*
X157220391Y-127611119D01*
X157377297Y-127233249D01*
X157377703Y-126768789D01*
X157200336Y-126339528D01*
X156872199Y-126010819D01*
X156498765Y-125855755D01*
X169544890Y-125855755D01*
X169641360Y-126089228D01*
X169819832Y-126268013D01*
X170053137Y-126364889D01*
X170305755Y-126365110D01*
X170539228Y-126268640D01*
X170718013Y-126090168D01*
X170746243Y-126022183D01*
X170803632Y-126161074D01*
X171017798Y-126375615D01*
X171297764Y-126491867D01*
X171600906Y-126492132D01*
X171881074Y-126376368D01*
X172085168Y-126172630D01*
X172287798Y-126375615D01*
X172567764Y-126491867D01*
X172870906Y-126492132D01*
X173151074Y-126376368D01*
X173355168Y-126172630D01*
X173557798Y-126375615D01*
X173837764Y-126491867D01*
X174140906Y-126492132D01*
X174421074Y-126376368D01*
X174635615Y-126162202D01*
X174751867Y-125882236D01*
X174752132Y-125579094D01*
X174636368Y-125298926D01*
X174422202Y-125084385D01*
X174142236Y-124968133D01*
X173839094Y-124967868D01*
X173558926Y-125083632D01*
X173354832Y-125287370D01*
X173152202Y-125084385D01*
X172872236Y-124968133D01*
X172569094Y-124967868D01*
X172288926Y-125083632D01*
X172084832Y-125287370D01*
X171882202Y-125084385D01*
X171602236Y-124968133D01*
X171299094Y-124967868D01*
X171018926Y-125083632D01*
X170804385Y-125297798D01*
X170746293Y-125437698D01*
X170718640Y-125370772D01*
X170540168Y-125191987D01*
X170306863Y-125095111D01*
X170054245Y-125094890D01*
X169820772Y-125191360D01*
X169641987Y-125369832D01*
X169545111Y-125603137D01*
X169544890Y-125855755D01*
X156498765Y-125855755D01*
X156443249Y-125832703D01*
X155978789Y-125832297D01*
X155549528Y-126009664D01*
X155220819Y-126337801D01*
X155042703Y-126766751D01*
X155042297Y-127231211D01*
X154368500Y-127231211D01*
X154368500Y-124691211D01*
X155042297Y-124691211D01*
X155219664Y-125120472D01*
X155547801Y-125449181D01*
X155976751Y-125627297D01*
X156441211Y-125627703D01*
X156870472Y-125450336D01*
X157199181Y-125122199D01*
X157377297Y-124693249D01*
X157377298Y-124691211D01*
X182982297Y-124691211D01*
X183159664Y-125120472D01*
X183487801Y-125449181D01*
X183916751Y-125627297D01*
X184381211Y-125627703D01*
X184810472Y-125450336D01*
X185139181Y-125122199D01*
X185317297Y-124693249D01*
X185317703Y-124228789D01*
X185140336Y-123799528D01*
X184812199Y-123470819D01*
X184383249Y-123292703D01*
X183918789Y-123292297D01*
X183489528Y-123469664D01*
X183160819Y-123797801D01*
X182982703Y-124226751D01*
X182982297Y-124691211D01*
X157377298Y-124691211D01*
X157377703Y-124228789D01*
X157200336Y-123799528D01*
X156872199Y-123470819D01*
X156444251Y-123293119D01*
X158229210Y-123293119D01*
X158308315Y-123484567D01*
X158454662Y-123631170D01*
X158645972Y-123710609D01*
X158853119Y-123710790D01*
X159044567Y-123631685D01*
X159191170Y-123485338D01*
X159270609Y-123294028D01*
X159270609Y-123293119D01*
X164579210Y-123293119D01*
X164658315Y-123484567D01*
X164804662Y-123631170D01*
X164995972Y-123710609D01*
X165203119Y-123710790D01*
X165394567Y-123631685D01*
X165541170Y-123485338D01*
X165620609Y-123294028D01*
X165620790Y-123086881D01*
X165613059Y-123068171D01*
X165630972Y-123075609D01*
X165838119Y-123075790D01*
X165856829Y-123068059D01*
X165849391Y-123085972D01*
X165849210Y-123293119D01*
X165928315Y-123484567D01*
X166074662Y-123631170D01*
X166265972Y-123710609D01*
X166473119Y-123710790D01*
X166664567Y-123631685D01*
X166811170Y-123485338D01*
X166890609Y-123294028D01*
X166890790Y-123086881D01*
X166811685Y-122895433D01*
X166665338Y-122748830D01*
X166474028Y-122669391D01*
X166266881Y-122669210D01*
X166248171Y-122676941D01*
X166255609Y-122659028D01*
X166255790Y-122451881D01*
X166176685Y-122260433D01*
X166153880Y-122237589D01*
X166176170Y-122215338D01*
X166202797Y-122151211D01*
X182982297Y-122151211D01*
X183159664Y-122580472D01*
X183487801Y-122909181D01*
X183916751Y-123087297D01*
X184381211Y-123087703D01*
X184810472Y-122910336D01*
X185139181Y-122582199D01*
X185317297Y-122153249D01*
X185317703Y-121688789D01*
X185140336Y-121259528D01*
X184812199Y-120930819D01*
X184383249Y-120752703D01*
X183918789Y-120752297D01*
X183489528Y-120929664D01*
X183160819Y-121257801D01*
X182982703Y-121686751D01*
X182982297Y-122151211D01*
X166202797Y-122151211D01*
X166255609Y-122024028D01*
X166255790Y-121816881D01*
X166209818Y-121705619D01*
X168389210Y-121705619D01*
X168468315Y-121897067D01*
X168614662Y-122043670D01*
X168805972Y-122123109D01*
X169013119Y-122123290D01*
X169204567Y-122044185D01*
X169351170Y-121897838D01*
X169430609Y-121706528D01*
X169430790Y-121499381D01*
X169394171Y-121410755D01*
X169544890Y-121410755D01*
X169641360Y-121644228D01*
X169819832Y-121823013D01*
X170053137Y-121919889D01*
X170305755Y-121920110D01*
X170539228Y-121823640D01*
X170718013Y-121645168D01*
X170814889Y-121411863D01*
X170815110Y-121159245D01*
X170718640Y-120925772D01*
X170593993Y-120800906D01*
X170687868Y-120800906D01*
X170803632Y-121081074D01*
X171017798Y-121295615D01*
X171297764Y-121411867D01*
X171600906Y-121412132D01*
X171881074Y-121296368D01*
X172085168Y-121092630D01*
X172287798Y-121295615D01*
X172567764Y-121411867D01*
X172870906Y-121412132D01*
X173151074Y-121296368D01*
X173355168Y-121092630D01*
X173557798Y-121295615D01*
X173837764Y-121411867D01*
X174140906Y-121412132D01*
X174421074Y-121296368D01*
X174635615Y-121082202D01*
X174751867Y-120802236D01*
X174752132Y-120499094D01*
X174636368Y-120218926D01*
X174626670Y-120209211D01*
X183410591Y-120209211D01*
X183502685Y-120378985D01*
X183934254Y-120550658D01*
X184398668Y-120544110D01*
X184797315Y-120378985D01*
X184889409Y-120209211D01*
X184150000Y-119469803D01*
X183410591Y-120209211D01*
X174626670Y-120209211D01*
X174422202Y-120004385D01*
X174142236Y-119888133D01*
X173839094Y-119887868D01*
X173558926Y-120003632D01*
X173354832Y-120207370D01*
X173152202Y-120004385D01*
X172872236Y-119888133D01*
X172569094Y-119887868D01*
X172288926Y-120003632D01*
X172084832Y-120207370D01*
X171882202Y-120004385D01*
X171602236Y-119888133D01*
X171299094Y-119887868D01*
X171018926Y-120003632D01*
X170804385Y-120217798D01*
X170688133Y-120497764D01*
X170687868Y-120800906D01*
X170593993Y-120800906D01*
X170540168Y-120746987D01*
X170306863Y-120650111D01*
X170054245Y-120649890D01*
X169820772Y-120746360D01*
X169641987Y-120924832D01*
X169545111Y-121158137D01*
X169544890Y-121410755D01*
X169394171Y-121410755D01*
X169351685Y-121307933D01*
X169205338Y-121161330D01*
X169014028Y-121081891D01*
X168806881Y-121081710D01*
X168615433Y-121160815D01*
X168468830Y-121307162D01*
X168389391Y-121498472D01*
X168389210Y-121705619D01*
X166209818Y-121705619D01*
X166176685Y-121625433D01*
X166030338Y-121478830D01*
X165839028Y-121399391D01*
X165631881Y-121399210D01*
X165440433Y-121478315D01*
X165293830Y-121624662D01*
X165214391Y-121815972D01*
X165214210Y-122023119D01*
X165293315Y-122214567D01*
X165316120Y-122237411D01*
X165293830Y-122259662D01*
X165214391Y-122450972D01*
X165214210Y-122658119D01*
X165221941Y-122676829D01*
X165204028Y-122669391D01*
X164996881Y-122669210D01*
X164805433Y-122748315D01*
X164658830Y-122894662D01*
X164579391Y-123085972D01*
X164579210Y-123293119D01*
X159270609Y-123293119D01*
X159270790Y-123086881D01*
X159191685Y-122895433D01*
X159045338Y-122748830D01*
X158854028Y-122669391D01*
X158646881Y-122669210D01*
X158455433Y-122748315D01*
X158308830Y-122894662D01*
X158229391Y-123085972D01*
X158229210Y-123293119D01*
X156444251Y-123293119D01*
X156443249Y-123292703D01*
X155978789Y-123292297D01*
X155549528Y-123469664D01*
X155220819Y-123797801D01*
X155042703Y-124226751D01*
X155042297Y-124691211D01*
X154368500Y-124691211D01*
X154368500Y-122151211D01*
X155042297Y-122151211D01*
X155219664Y-122580472D01*
X155547801Y-122909181D01*
X155976751Y-123087297D01*
X156441211Y-123087703D01*
X156870472Y-122910336D01*
X157199181Y-122582199D01*
X157377297Y-122153249D01*
X157377410Y-122023119D01*
X158229210Y-122023119D01*
X158308315Y-122214567D01*
X158454662Y-122361170D01*
X158645972Y-122440609D01*
X158853119Y-122440790D01*
X159044567Y-122361685D01*
X159191170Y-122215338D01*
X159270609Y-122024028D01*
X159270790Y-121816881D01*
X159191685Y-121625433D01*
X159045338Y-121478830D01*
X158854028Y-121399391D01*
X158646881Y-121399210D01*
X158455433Y-121478315D01*
X158308830Y-121624662D01*
X158229391Y-121815972D01*
X158229210Y-122023119D01*
X157377410Y-122023119D01*
X157377703Y-121688789D01*
X157200336Y-121259528D01*
X156872199Y-120930819D01*
X156443249Y-120752703D01*
X155978789Y-120752297D01*
X155549528Y-120929664D01*
X155220819Y-121257801D01*
X155042703Y-121686751D01*
X155042297Y-122151211D01*
X154368500Y-122151211D01*
X154368500Y-120209211D01*
X155470591Y-120209211D01*
X155562685Y-120378985D01*
X155994254Y-120550658D01*
X156458668Y-120544110D01*
X156857315Y-120378985D01*
X156949409Y-120209211D01*
X156210000Y-119469803D01*
X155470591Y-120209211D01*
X154368500Y-120209211D01*
X154368500Y-119164254D01*
X155039342Y-119164254D01*
X155045890Y-119628668D01*
X155211015Y-120027315D01*
X155380789Y-120119409D01*
X156120197Y-119380000D01*
X156299803Y-119380000D01*
X157039211Y-120119409D01*
X157208985Y-120027315D01*
X157380658Y-119595746D01*
X157374575Y-119164254D01*
X182979342Y-119164254D01*
X182985890Y-119628668D01*
X183151015Y-120027315D01*
X183320789Y-120119409D01*
X184060197Y-119380000D01*
X184239803Y-119380000D01*
X184979211Y-120119409D01*
X185148985Y-120027315D01*
X185320658Y-119595746D01*
X185314110Y-119131332D01*
X185148985Y-118732685D01*
X184979211Y-118640591D01*
X184239803Y-119380000D01*
X184060197Y-119380000D01*
X183320789Y-118640591D01*
X183151015Y-118732685D01*
X182979342Y-119164254D01*
X157374575Y-119164254D01*
X157374110Y-119131332D01*
X157208985Y-118732685D01*
X157039211Y-118640591D01*
X156299803Y-119380000D01*
X156120197Y-119380000D01*
X155380789Y-118640591D01*
X155211015Y-118732685D01*
X155039342Y-119164254D01*
X154368500Y-119164254D01*
X154368500Y-118550789D01*
X155470591Y-118550789D01*
X156210000Y-119290197D01*
X156949409Y-118550789D01*
X156857315Y-118381015D01*
X156435242Y-118213119D01*
X159499210Y-118213119D01*
X159578315Y-118404567D01*
X159724662Y-118551170D01*
X159915972Y-118630609D01*
X160123119Y-118630790D01*
X160314567Y-118551685D01*
X160461170Y-118405338D01*
X160540609Y-118214028D01*
X160540609Y-118213119D01*
X160769210Y-118213119D01*
X160848315Y-118404567D01*
X160994662Y-118551170D01*
X161185972Y-118630609D01*
X161393119Y-118630790D01*
X161584567Y-118551685D01*
X161731170Y-118405338D01*
X161810609Y-118214028D01*
X161810609Y-118213119D01*
X162039210Y-118213119D01*
X162118315Y-118404567D01*
X162264662Y-118551170D01*
X162455972Y-118630609D01*
X162663119Y-118630790D01*
X162854567Y-118551685D01*
X163001170Y-118405338D01*
X163080609Y-118214028D01*
X163080609Y-118213119D01*
X163309210Y-118213119D01*
X163388315Y-118404567D01*
X163534662Y-118551170D01*
X163725972Y-118630609D01*
X163933119Y-118630790D01*
X164124567Y-118551685D01*
X164271170Y-118405338D01*
X164350609Y-118214028D01*
X164350609Y-118213119D01*
X164579210Y-118213119D01*
X164658315Y-118404567D01*
X164804662Y-118551170D01*
X164995972Y-118630609D01*
X165203119Y-118630790D01*
X165394567Y-118551685D01*
X165417411Y-118528880D01*
X165439662Y-118551170D01*
X165630972Y-118630609D01*
X165838119Y-118630790D01*
X166029567Y-118551685D01*
X166052411Y-118528880D01*
X166074662Y-118551170D01*
X166265972Y-118630609D01*
X166473119Y-118630790D01*
X166664567Y-118551685D01*
X166811170Y-118405338D01*
X166890609Y-118214028D01*
X166890609Y-118213119D01*
X168389210Y-118213119D01*
X168468315Y-118404567D01*
X168614662Y-118551170D01*
X168805972Y-118630609D01*
X169013119Y-118630790D01*
X169204567Y-118551685D01*
X169205464Y-118550789D01*
X183410591Y-118550789D01*
X184150000Y-119290197D01*
X184889409Y-118550789D01*
X184797315Y-118381015D01*
X184365746Y-118209342D01*
X183901332Y-118215890D01*
X183502685Y-118381015D01*
X183410591Y-118550789D01*
X169205464Y-118550789D01*
X169351170Y-118405338D01*
X169430609Y-118214028D01*
X169430790Y-118006881D01*
X169351685Y-117815433D01*
X169205338Y-117668830D01*
X169014028Y-117589391D01*
X168806881Y-117589210D01*
X168615433Y-117668315D01*
X168468830Y-117814662D01*
X168389391Y-118005972D01*
X168389210Y-118213119D01*
X166890609Y-118213119D01*
X166890790Y-118006881D01*
X166811685Y-117815433D01*
X166665338Y-117668830D01*
X166474028Y-117589391D01*
X166266881Y-117589210D01*
X166075433Y-117668315D01*
X166052589Y-117691120D01*
X166030338Y-117668830D01*
X165839028Y-117589391D01*
X165631881Y-117589210D01*
X165440433Y-117668315D01*
X165417589Y-117691120D01*
X165395338Y-117668830D01*
X165204028Y-117589391D01*
X164996881Y-117589210D01*
X164805433Y-117668315D01*
X164658830Y-117814662D01*
X164579391Y-118005972D01*
X164579210Y-118213119D01*
X164350609Y-118213119D01*
X164350790Y-118006881D01*
X164271685Y-117815433D01*
X164125338Y-117668830D01*
X163934028Y-117589391D01*
X163726881Y-117589210D01*
X163535433Y-117668315D01*
X163388830Y-117814662D01*
X163309391Y-118005972D01*
X163309210Y-118213119D01*
X163080609Y-118213119D01*
X163080790Y-118006881D01*
X163001685Y-117815433D01*
X162855338Y-117668830D01*
X162664028Y-117589391D01*
X162456881Y-117589210D01*
X162265433Y-117668315D01*
X162118830Y-117814662D01*
X162039391Y-118005972D01*
X162039210Y-118213119D01*
X161810609Y-118213119D01*
X161810790Y-118006881D01*
X161731685Y-117815433D01*
X161585338Y-117668830D01*
X161394028Y-117589391D01*
X161186881Y-117589210D01*
X160995433Y-117668315D01*
X160848830Y-117814662D01*
X160769391Y-118005972D01*
X160769210Y-118213119D01*
X160540609Y-118213119D01*
X160540790Y-118006881D01*
X160461685Y-117815433D01*
X160315338Y-117668830D01*
X160124028Y-117589391D01*
X159916881Y-117589210D01*
X159725433Y-117668315D01*
X159578830Y-117814662D01*
X159499391Y-118005972D01*
X159499210Y-118213119D01*
X156435242Y-118213119D01*
X156425746Y-118209342D01*
X155961332Y-118215890D01*
X155562685Y-118381015D01*
X155470591Y-118550789D01*
X154368500Y-118550789D01*
X154368500Y-117071211D01*
X155042297Y-117071211D01*
X155219664Y-117500472D01*
X155547801Y-117829181D01*
X155976751Y-118007297D01*
X156441211Y-118007703D01*
X156870472Y-117830336D01*
X157123128Y-117578119D01*
X176009210Y-117578119D01*
X176088315Y-117769567D01*
X176234662Y-117916170D01*
X176425972Y-117995609D01*
X176633119Y-117995790D01*
X176824567Y-117916685D01*
X176971170Y-117770338D01*
X177050609Y-117579028D01*
X177050609Y-117578119D01*
X182359210Y-117578119D01*
X182438315Y-117769567D01*
X182584662Y-117916170D01*
X182775972Y-117995609D01*
X182983119Y-117995790D01*
X183174567Y-117916685D01*
X183321170Y-117770338D01*
X183352865Y-117694009D01*
X183487801Y-117829181D01*
X183916751Y-118007297D01*
X184381211Y-118007703D01*
X184810472Y-117830336D01*
X185139181Y-117502199D01*
X185317297Y-117073249D01*
X185317703Y-116608789D01*
X185140336Y-116179528D01*
X184812199Y-115850819D01*
X184383249Y-115672703D01*
X183918789Y-115672297D01*
X183489528Y-115849664D01*
X183160819Y-116177801D01*
X182982703Y-116606751D01*
X182982399Y-116954390D01*
X182776881Y-116954210D01*
X182585433Y-117033315D01*
X182438830Y-117179662D01*
X182359391Y-117370972D01*
X182359210Y-117578119D01*
X177050609Y-117578119D01*
X177050790Y-117371881D01*
X176971685Y-117180433D01*
X176825338Y-117033830D01*
X176634028Y-116954391D01*
X176426881Y-116954210D01*
X176235433Y-117033315D01*
X176088830Y-117179662D01*
X176009391Y-117370972D01*
X176009210Y-117578119D01*
X157123128Y-117578119D01*
X157199181Y-117502199D01*
X157377297Y-117073249D01*
X157377410Y-116943119D01*
X177279210Y-116943119D01*
X177358315Y-117134567D01*
X177504662Y-117281170D01*
X177695972Y-117360609D01*
X177903119Y-117360790D01*
X178094567Y-117281685D01*
X178241170Y-117135338D01*
X178320609Y-116944028D01*
X178320790Y-116736881D01*
X178241685Y-116545433D01*
X178095338Y-116398830D01*
X177904028Y-116319391D01*
X177696881Y-116319210D01*
X177505433Y-116398315D01*
X177358830Y-116544662D01*
X177279391Y-116735972D01*
X177279210Y-116943119D01*
X157377410Y-116943119D01*
X157377703Y-116608789D01*
X157253469Y-116308119D01*
X178549210Y-116308119D01*
X178628315Y-116499567D01*
X178774662Y-116646170D01*
X178965972Y-116725609D01*
X179173119Y-116725790D01*
X179364567Y-116646685D01*
X179511170Y-116500338D01*
X179590609Y-116309028D01*
X179590790Y-116101881D01*
X179511685Y-115910433D01*
X179365338Y-115763830D01*
X179174028Y-115684391D01*
X178966881Y-115684210D01*
X178775433Y-115763315D01*
X178628830Y-115909662D01*
X178549391Y-116100972D01*
X178549210Y-116308119D01*
X157253469Y-116308119D01*
X157200336Y-116179528D01*
X156872199Y-115850819D01*
X156444251Y-115673119D01*
X179819210Y-115673119D01*
X179898315Y-115864567D01*
X180044662Y-116011170D01*
X180235972Y-116090609D01*
X180443119Y-116090790D01*
X180634567Y-116011685D01*
X180781170Y-115865338D01*
X180860609Y-115674028D01*
X180860790Y-115466881D01*
X180781685Y-115275433D01*
X180635338Y-115128830D01*
X180444028Y-115049391D01*
X180236881Y-115049210D01*
X180045433Y-115128315D01*
X179898830Y-115274662D01*
X179819391Y-115465972D01*
X179819210Y-115673119D01*
X156444251Y-115673119D01*
X156443249Y-115672703D01*
X155978789Y-115672297D01*
X155549528Y-115849664D01*
X155220819Y-116177801D01*
X155042703Y-116606751D01*
X155042297Y-117071211D01*
X154368500Y-117071211D01*
X154368500Y-114531211D01*
X155042297Y-114531211D01*
X155219664Y-114960472D01*
X155547801Y-115289181D01*
X155976751Y-115467297D01*
X156441211Y-115467703D01*
X156870472Y-115290336D01*
X157100453Y-115060755D01*
X169544890Y-115060755D01*
X169641360Y-115294228D01*
X169819832Y-115473013D01*
X170053137Y-115569889D01*
X170305755Y-115570110D01*
X170539228Y-115473640D01*
X170718013Y-115295168D01*
X170814889Y-115061863D01*
X170815110Y-114809245D01*
X170718640Y-114575772D01*
X170674158Y-114531211D01*
X182982297Y-114531211D01*
X183159664Y-114960472D01*
X183487801Y-115289181D01*
X183916751Y-115467297D01*
X184381211Y-115467703D01*
X184810472Y-115290336D01*
X185139181Y-114962199D01*
X185317297Y-114533249D01*
X185317703Y-114068789D01*
X185140336Y-113639528D01*
X184812199Y-113310819D01*
X184383249Y-113132703D01*
X183918789Y-113132297D01*
X183489528Y-113309664D01*
X183160819Y-113637801D01*
X182982703Y-114066751D01*
X182982297Y-114531211D01*
X170674158Y-114531211D01*
X170540168Y-114396987D01*
X170306863Y-114300111D01*
X170054245Y-114299890D01*
X169820772Y-114396360D01*
X169641987Y-114574832D01*
X169545111Y-114808137D01*
X169544890Y-115060755D01*
X157100453Y-115060755D01*
X157199181Y-114962199D01*
X157377297Y-114533249D01*
X157377410Y-114403119D01*
X162674210Y-114403119D01*
X162753315Y-114594567D01*
X162899662Y-114741170D01*
X163090972Y-114820609D01*
X163298119Y-114820790D01*
X163489567Y-114741685D01*
X163636170Y-114595338D01*
X163715609Y-114404028D01*
X163715790Y-114196881D01*
X163636685Y-114005433D01*
X163490338Y-113858830D01*
X163299028Y-113779391D01*
X163091881Y-113779210D01*
X162900433Y-113858315D01*
X162753830Y-114004662D01*
X162674391Y-114195972D01*
X162674210Y-114403119D01*
X157377410Y-114403119D01*
X157377703Y-114068789D01*
X157200336Y-113639528D01*
X156872199Y-113310819D01*
X156443249Y-113132703D01*
X155978789Y-113132297D01*
X155549528Y-113309664D01*
X155220819Y-113637801D01*
X155042703Y-114066751D01*
X155042297Y-114531211D01*
X154368500Y-114531211D01*
X154368500Y-111991211D01*
X155042297Y-111991211D01*
X155219664Y-112420472D01*
X155547801Y-112749181D01*
X155976751Y-112927297D01*
X156441211Y-112927703D01*
X156870472Y-112750336D01*
X157199181Y-112422199D01*
X157377297Y-111993249D01*
X157377298Y-111991211D01*
X182982297Y-111991211D01*
X183159664Y-112420472D01*
X183487801Y-112749181D01*
X183916751Y-112927297D01*
X184381211Y-112927703D01*
X184810472Y-112750336D01*
X185139181Y-112422199D01*
X185317297Y-111993249D01*
X185317703Y-111528789D01*
X185140336Y-111099528D01*
X184812199Y-110770819D01*
X184383249Y-110592703D01*
X183918789Y-110592297D01*
X183489528Y-110769664D01*
X183160819Y-111097801D01*
X182982703Y-111526751D01*
X182982297Y-111991211D01*
X157377298Y-111991211D01*
X157377703Y-111528789D01*
X157200336Y-111099528D01*
X156872199Y-110770819D01*
X156443249Y-110592703D01*
X155978789Y-110592297D01*
X155549528Y-110769664D01*
X155220819Y-111097801D01*
X155042703Y-111526751D01*
X155042297Y-111991211D01*
X154368500Y-111991211D01*
X154368500Y-109451211D01*
X155042297Y-109451211D01*
X155219664Y-109880472D01*
X155547801Y-110209181D01*
X155976751Y-110387297D01*
X156441211Y-110387703D01*
X156870472Y-110210336D01*
X157199181Y-109882199D01*
X157377297Y-109453249D01*
X157377410Y-109323119D01*
X161404210Y-109323119D01*
X161483315Y-109514567D01*
X161629662Y-109661170D01*
X161820972Y-109740609D01*
X162028119Y-109740790D01*
X162219567Y-109661685D01*
X162366170Y-109515338D01*
X162445609Y-109324028D01*
X162445609Y-109323119D01*
X176644210Y-109323119D01*
X176723315Y-109514567D01*
X176869662Y-109661170D01*
X177060972Y-109740609D01*
X177268119Y-109740790D01*
X177459567Y-109661685D01*
X177606170Y-109515338D01*
X177632797Y-109451211D01*
X182982297Y-109451211D01*
X183159664Y-109880472D01*
X183487801Y-110209181D01*
X183916751Y-110387297D01*
X184381211Y-110387703D01*
X184810472Y-110210336D01*
X185139181Y-109882199D01*
X185317297Y-109453249D01*
X185317703Y-108988789D01*
X185140336Y-108559528D01*
X184812199Y-108230819D01*
X184383249Y-108052703D01*
X183918789Y-108052297D01*
X183489528Y-108229664D01*
X183160819Y-108557801D01*
X182982703Y-108986751D01*
X182982297Y-109451211D01*
X177632797Y-109451211D01*
X177685609Y-109324028D01*
X177685790Y-109116881D01*
X177606685Y-108925433D01*
X177460338Y-108778830D01*
X177269028Y-108699391D01*
X177061881Y-108699210D01*
X176870433Y-108778315D01*
X176723830Y-108924662D01*
X176644391Y-109115972D01*
X176644210Y-109323119D01*
X162445609Y-109323119D01*
X162445790Y-109116881D01*
X162366685Y-108925433D01*
X162220338Y-108778830D01*
X162029028Y-108699391D01*
X161821881Y-108699210D01*
X161630433Y-108778315D01*
X161483830Y-108924662D01*
X161404391Y-109115972D01*
X161404210Y-109323119D01*
X157377410Y-109323119D01*
X157377703Y-108988789D01*
X157200336Y-108559528D01*
X156872199Y-108230819D01*
X156498765Y-108075755D01*
X158114890Y-108075755D01*
X158211360Y-108309228D01*
X158389832Y-108488013D01*
X158623137Y-108584889D01*
X158875755Y-108585110D01*
X159109228Y-108488640D01*
X159288013Y-108310168D01*
X159384889Y-108076863D01*
X159384889Y-108075755D01*
X180974890Y-108075755D01*
X181071360Y-108309228D01*
X181249832Y-108488013D01*
X181483137Y-108584889D01*
X181735755Y-108585110D01*
X181969228Y-108488640D01*
X182148013Y-108310168D01*
X182244889Y-108076863D01*
X182245110Y-107824245D01*
X182148640Y-107590772D01*
X181970168Y-107411987D01*
X181736863Y-107315111D01*
X181484245Y-107314890D01*
X181250772Y-107411360D01*
X181071987Y-107589832D01*
X180975111Y-107823137D01*
X180974890Y-108075755D01*
X159384889Y-108075755D01*
X159385110Y-107824245D01*
X159288640Y-107590772D01*
X159110168Y-107411987D01*
X158876863Y-107315111D01*
X158624245Y-107314890D01*
X158390772Y-107411360D01*
X158211987Y-107589832D01*
X158115111Y-107823137D01*
X158114890Y-108075755D01*
X156498765Y-108075755D01*
X156443249Y-108052703D01*
X155978789Y-108052297D01*
X155549528Y-108229664D01*
X155220819Y-108557801D01*
X155042703Y-108986751D01*
X155042297Y-109451211D01*
X154368500Y-109451211D01*
X154368500Y-106911211D01*
X155042297Y-106911211D01*
X155219664Y-107340472D01*
X155547801Y-107669181D01*
X155976751Y-107847297D01*
X156441211Y-107847703D01*
X156870472Y-107670336D01*
X157199181Y-107342199D01*
X157377297Y-106913249D01*
X157377298Y-106911211D01*
X182982297Y-106911211D01*
X183159664Y-107340472D01*
X183487801Y-107669181D01*
X183916751Y-107847297D01*
X184381211Y-107847703D01*
X184810472Y-107670336D01*
X185139181Y-107342199D01*
X185317297Y-106913249D01*
X185317703Y-106448789D01*
X185140336Y-106019528D01*
X184812199Y-105690819D01*
X184383249Y-105512703D01*
X183918789Y-105512297D01*
X183489528Y-105689664D01*
X183160819Y-106017801D01*
X182982703Y-106446751D01*
X182982297Y-106911211D01*
X157377298Y-106911211D01*
X157377703Y-106448789D01*
X157200336Y-106019528D01*
X156872199Y-105690819D01*
X156443249Y-105512703D01*
X155978789Y-105512297D01*
X155549528Y-105689664D01*
X155220819Y-106017801D01*
X155042703Y-106446751D01*
X155042297Y-106911211D01*
X154368500Y-106911211D01*
X154368500Y-104371211D01*
X155042297Y-104371211D01*
X155219664Y-104800472D01*
X155547801Y-105129181D01*
X155976751Y-105307297D01*
X156441211Y-105307703D01*
X156870472Y-105130336D01*
X157199181Y-104802199D01*
X157377297Y-104373249D01*
X157377410Y-104243119D01*
X160134210Y-104243119D01*
X160213315Y-104434567D01*
X160359662Y-104581170D01*
X160550972Y-104660609D01*
X160758119Y-104660790D01*
X160949567Y-104581685D01*
X161096170Y-104435338D01*
X161175609Y-104244028D01*
X161175609Y-104243119D01*
X177914210Y-104243119D01*
X177993315Y-104434567D01*
X178139662Y-104581170D01*
X178330972Y-104660609D01*
X178538119Y-104660790D01*
X178729567Y-104581685D01*
X178876170Y-104435338D01*
X178902797Y-104371211D01*
X182982297Y-104371211D01*
X183159664Y-104800472D01*
X183487801Y-105129181D01*
X183916751Y-105307297D01*
X184381211Y-105307703D01*
X184810472Y-105130336D01*
X185139181Y-104802199D01*
X185317297Y-104373249D01*
X185317703Y-103908789D01*
X185140336Y-103479528D01*
X184812199Y-103150819D01*
X184383249Y-102972703D01*
X183918789Y-102972297D01*
X183489528Y-103149664D01*
X183160819Y-103477801D01*
X182982703Y-103906751D01*
X182982297Y-104371211D01*
X178902797Y-104371211D01*
X178955609Y-104244028D01*
X178955790Y-104036881D01*
X178876685Y-103845433D01*
X178730338Y-103698830D01*
X178539028Y-103619391D01*
X178331881Y-103619210D01*
X178140433Y-103698315D01*
X177993830Y-103844662D01*
X177914391Y-104035972D01*
X177914210Y-104243119D01*
X161175609Y-104243119D01*
X161175790Y-104036881D01*
X161096685Y-103845433D01*
X160950338Y-103698830D01*
X160759028Y-103619391D01*
X160551881Y-103619210D01*
X160360433Y-103698315D01*
X160213830Y-103844662D01*
X160134391Y-104035972D01*
X160134210Y-104243119D01*
X157377410Y-104243119D01*
X157377703Y-103908789D01*
X157200336Y-103479528D01*
X156872199Y-103150819D01*
X156498765Y-102995755D01*
X158114890Y-102995755D01*
X158211360Y-103229228D01*
X158389832Y-103408013D01*
X158623137Y-103504889D01*
X158875755Y-103505110D01*
X159109228Y-103408640D01*
X159288013Y-103230168D01*
X159384889Y-102996863D01*
X159384889Y-102995755D01*
X180974890Y-102995755D01*
X181071360Y-103229228D01*
X181249832Y-103408013D01*
X181483137Y-103504889D01*
X181735755Y-103505110D01*
X181969228Y-103408640D01*
X182148013Y-103230168D01*
X182244889Y-102996863D01*
X182245110Y-102744245D01*
X182148640Y-102510772D01*
X181970168Y-102331987D01*
X181736863Y-102235111D01*
X181484245Y-102234890D01*
X181250772Y-102331360D01*
X181071987Y-102509832D01*
X180975111Y-102743137D01*
X180974890Y-102995755D01*
X159384889Y-102995755D01*
X159385110Y-102744245D01*
X159288640Y-102510772D01*
X159110168Y-102331987D01*
X158876863Y-102235111D01*
X158624245Y-102234890D01*
X158390772Y-102331360D01*
X158211987Y-102509832D01*
X158115111Y-102743137D01*
X158114890Y-102995755D01*
X156498765Y-102995755D01*
X156443249Y-102972703D01*
X155978789Y-102972297D01*
X155549528Y-103149664D01*
X155220819Y-103477801D01*
X155042703Y-103906751D01*
X155042297Y-104371211D01*
X154368500Y-104371211D01*
X154368500Y-101831211D01*
X155042297Y-101831211D01*
X155219664Y-102260472D01*
X155547801Y-102589181D01*
X155976751Y-102767297D01*
X156441211Y-102767703D01*
X156870472Y-102590336D01*
X157199181Y-102262199D01*
X157377297Y-101833249D01*
X157377298Y-101831211D01*
X182982297Y-101831211D01*
X183159664Y-102260472D01*
X183487801Y-102589181D01*
X183916751Y-102767297D01*
X184381211Y-102767703D01*
X184810472Y-102590336D01*
X185139181Y-102262199D01*
X185317297Y-101833249D01*
X185317703Y-101368789D01*
X185140336Y-100939528D01*
X184812199Y-100610819D01*
X184383249Y-100432703D01*
X183918789Y-100432297D01*
X183489528Y-100609664D01*
X183160819Y-100937801D01*
X182982703Y-101366751D01*
X182982297Y-101831211D01*
X157377298Y-101831211D01*
X157377703Y-101368789D01*
X157200336Y-100939528D01*
X156872199Y-100610819D01*
X156443249Y-100432703D01*
X155978789Y-100432297D01*
X155549528Y-100609664D01*
X155220819Y-100937801D01*
X155042703Y-101366751D01*
X155042297Y-101831211D01*
X154368500Y-101831211D01*
X154368500Y-99291211D01*
X155042297Y-99291211D01*
X155219664Y-99720472D01*
X155547801Y-100049181D01*
X155976751Y-100227297D01*
X156441211Y-100227703D01*
X156870472Y-100050336D01*
X157199181Y-99722199D01*
X157377297Y-99293249D01*
X157377410Y-99163119D01*
X158864210Y-99163119D01*
X158943315Y-99354567D01*
X159089662Y-99501170D01*
X159280972Y-99580609D01*
X159488119Y-99580790D01*
X159679567Y-99501685D01*
X159826170Y-99355338D01*
X159905609Y-99164028D01*
X159905609Y-99163119D01*
X179184210Y-99163119D01*
X179263315Y-99354567D01*
X179409662Y-99501170D01*
X179600972Y-99580609D01*
X179808119Y-99580790D01*
X179999567Y-99501685D01*
X180146170Y-99355338D01*
X180172797Y-99291211D01*
X182982297Y-99291211D01*
X183159664Y-99720472D01*
X183487801Y-100049181D01*
X183916751Y-100227297D01*
X184381211Y-100227703D01*
X184810472Y-100050336D01*
X185139181Y-99722199D01*
X185317297Y-99293249D01*
X185317703Y-98828789D01*
X185140336Y-98399528D01*
X184812199Y-98070819D01*
X184383249Y-97892703D01*
X183918789Y-97892297D01*
X183489528Y-98069664D01*
X183160819Y-98397801D01*
X182982703Y-98826751D01*
X182982297Y-99291211D01*
X180172797Y-99291211D01*
X180225609Y-99164028D01*
X180225790Y-98956881D01*
X180146685Y-98765433D01*
X180000338Y-98618830D01*
X179809028Y-98539391D01*
X179601881Y-98539210D01*
X179410433Y-98618315D01*
X179263830Y-98764662D01*
X179184391Y-98955972D01*
X179184210Y-99163119D01*
X159905609Y-99163119D01*
X159905790Y-98956881D01*
X159826685Y-98765433D01*
X159680338Y-98618830D01*
X159489028Y-98539391D01*
X159281881Y-98539210D01*
X159090433Y-98618315D01*
X158943830Y-98764662D01*
X158864391Y-98955972D01*
X158864210Y-99163119D01*
X157377410Y-99163119D01*
X157377703Y-98828789D01*
X157200336Y-98399528D01*
X156872199Y-98070819D01*
X156498765Y-97915755D01*
X158114890Y-97915755D01*
X158211360Y-98149228D01*
X158389832Y-98328013D01*
X158623137Y-98424889D01*
X158875755Y-98425110D01*
X159109228Y-98328640D01*
X159288013Y-98150168D01*
X159384889Y-97916863D01*
X159384889Y-97915755D01*
X180974890Y-97915755D01*
X181071360Y-98149228D01*
X181249832Y-98328013D01*
X181483137Y-98424889D01*
X181735755Y-98425110D01*
X181969228Y-98328640D01*
X182148013Y-98150168D01*
X182244889Y-97916863D01*
X182245110Y-97664245D01*
X182148640Y-97430772D01*
X182067222Y-97349211D01*
X183410591Y-97349211D01*
X183502685Y-97518985D01*
X183934254Y-97690658D01*
X184398668Y-97684110D01*
X184797315Y-97518985D01*
X184889409Y-97349211D01*
X184150000Y-96609803D01*
X183410591Y-97349211D01*
X182067222Y-97349211D01*
X181970168Y-97251987D01*
X181736863Y-97155111D01*
X181484245Y-97154890D01*
X181250772Y-97251360D01*
X181071987Y-97429832D01*
X180975111Y-97663137D01*
X180974890Y-97915755D01*
X159384889Y-97915755D01*
X159385110Y-97664245D01*
X159288640Y-97430772D01*
X159110168Y-97251987D01*
X158876863Y-97155111D01*
X158624245Y-97154890D01*
X158390772Y-97251360D01*
X158211987Y-97429832D01*
X158115111Y-97663137D01*
X158114890Y-97915755D01*
X156498765Y-97915755D01*
X156443249Y-97892703D01*
X155978789Y-97892297D01*
X155549528Y-98069664D01*
X155220819Y-98397801D01*
X155042703Y-98826751D01*
X155042297Y-99291211D01*
X154368500Y-99291211D01*
X154368500Y-97349211D01*
X155470591Y-97349211D01*
X155562685Y-97518985D01*
X155994254Y-97690658D01*
X156458668Y-97684110D01*
X156857315Y-97518985D01*
X156949409Y-97349211D01*
X156210000Y-96609803D01*
X155470591Y-97349211D01*
X154368500Y-97349211D01*
X154368500Y-96304254D01*
X155039342Y-96304254D01*
X155045890Y-96768668D01*
X155211015Y-97167315D01*
X155380789Y-97259409D01*
X156120197Y-96520000D01*
X156299803Y-96520000D01*
X157039211Y-97259409D01*
X157208985Y-97167315D01*
X157380658Y-96735746D01*
X157374575Y-96304254D01*
X182979342Y-96304254D01*
X182985890Y-96768668D01*
X183151015Y-97167315D01*
X183320789Y-97259409D01*
X184060197Y-96520000D01*
X184239803Y-96520000D01*
X184979211Y-97259409D01*
X185148985Y-97167315D01*
X185320658Y-96735746D01*
X185314110Y-96271332D01*
X185148985Y-95872685D01*
X184979211Y-95780591D01*
X184239803Y-96520000D01*
X184060197Y-96520000D01*
X183320789Y-95780591D01*
X183151015Y-95872685D01*
X182979342Y-96304254D01*
X157374575Y-96304254D01*
X157374110Y-96271332D01*
X157208985Y-95872685D01*
X157039211Y-95780591D01*
X156299803Y-96520000D01*
X156120197Y-96520000D01*
X155380789Y-95780591D01*
X155211015Y-95872685D01*
X155039342Y-96304254D01*
X154368500Y-96304254D01*
X154368500Y-95690789D01*
X155470591Y-95690789D01*
X156210000Y-96430197D01*
X156949409Y-95690789D01*
X183410591Y-95690789D01*
X184150000Y-96430197D01*
X184889409Y-95690789D01*
X184797315Y-95521015D01*
X184365746Y-95349342D01*
X183901332Y-95355890D01*
X183502685Y-95521015D01*
X183410591Y-95690789D01*
X156949409Y-95690789D01*
X156857315Y-95521015D01*
X156425746Y-95349342D01*
X155961332Y-95355890D01*
X155562685Y-95521015D01*
X155470591Y-95690789D01*
X154368500Y-95690789D01*
X154368500Y-94211211D01*
X155042297Y-94211211D01*
X155219664Y-94640472D01*
X155547801Y-94969181D01*
X155976751Y-95147297D01*
X156441211Y-95147703D01*
X156870472Y-94970336D01*
X157199181Y-94642199D01*
X157377297Y-94213249D01*
X157377410Y-94083119D01*
X159499210Y-94083119D01*
X159578315Y-94274567D01*
X159724662Y-94421170D01*
X159915972Y-94500609D01*
X160123119Y-94500790D01*
X160314567Y-94421685D01*
X160461170Y-94275338D01*
X160540609Y-94084028D01*
X160540609Y-94083119D01*
X180454210Y-94083119D01*
X180533315Y-94274567D01*
X180679662Y-94421170D01*
X180870972Y-94500609D01*
X181078119Y-94500790D01*
X181269567Y-94421685D01*
X181416170Y-94275338D01*
X181442797Y-94211211D01*
X182982297Y-94211211D01*
X183159664Y-94640472D01*
X183487801Y-94969181D01*
X183916751Y-95147297D01*
X184381211Y-95147703D01*
X184810472Y-94970336D01*
X185139181Y-94642199D01*
X185317297Y-94213249D01*
X185317703Y-93748789D01*
X185140336Y-93319528D01*
X184812199Y-92990819D01*
X184383249Y-92812703D01*
X183918789Y-92812297D01*
X183489528Y-92989664D01*
X183160819Y-93317801D01*
X182982703Y-93746751D01*
X182982297Y-94211211D01*
X181442797Y-94211211D01*
X181495609Y-94084028D01*
X181495790Y-93876881D01*
X181416685Y-93685433D01*
X181270338Y-93538830D01*
X181079028Y-93459391D01*
X180871881Y-93459210D01*
X180680433Y-93538315D01*
X180533830Y-93684662D01*
X180454391Y-93875972D01*
X180454210Y-94083119D01*
X160540609Y-94083119D01*
X160540790Y-93876881D01*
X160461685Y-93685433D01*
X160315338Y-93538830D01*
X160124028Y-93459391D01*
X159916881Y-93459210D01*
X159725433Y-93538315D01*
X159578830Y-93684662D01*
X159499391Y-93875972D01*
X159499210Y-94083119D01*
X157377410Y-94083119D01*
X157377703Y-93748789D01*
X157200336Y-93319528D01*
X156872199Y-92990819D01*
X156498765Y-92835755D01*
X158114890Y-92835755D01*
X158211360Y-93069228D01*
X158389832Y-93248013D01*
X158623137Y-93344889D01*
X158875755Y-93345110D01*
X159109228Y-93248640D01*
X159288013Y-93070168D01*
X159384889Y-92836863D01*
X159384889Y-92835755D01*
X180974890Y-92835755D01*
X181071360Y-93069228D01*
X181249832Y-93248013D01*
X181483137Y-93344889D01*
X181735755Y-93345110D01*
X181969228Y-93248640D01*
X182148013Y-93070168D01*
X182244889Y-92836863D01*
X182245110Y-92584245D01*
X182148640Y-92350772D01*
X181970168Y-92171987D01*
X181736863Y-92075111D01*
X181484245Y-92074890D01*
X181250772Y-92171360D01*
X181071987Y-92349832D01*
X180975111Y-92583137D01*
X180974890Y-92835755D01*
X159384889Y-92835755D01*
X159385110Y-92584245D01*
X159288640Y-92350772D01*
X159110168Y-92171987D01*
X158876863Y-92075111D01*
X158624245Y-92074890D01*
X158390772Y-92171360D01*
X158211987Y-92349832D01*
X158115111Y-92583137D01*
X158114890Y-92835755D01*
X156498765Y-92835755D01*
X156443249Y-92812703D01*
X155978789Y-92812297D01*
X155549528Y-92989664D01*
X155220819Y-93317801D01*
X155042703Y-93746751D01*
X155042297Y-94211211D01*
X154368500Y-94211211D01*
X154368500Y-91671211D01*
X155042297Y-91671211D01*
X155219664Y-92100472D01*
X155547801Y-92429181D01*
X155976751Y-92607297D01*
X156441211Y-92607703D01*
X156870472Y-92430336D01*
X157199181Y-92102199D01*
X157377297Y-91673249D01*
X157377298Y-91671211D01*
X182982297Y-91671211D01*
X183159664Y-92100472D01*
X183487801Y-92429181D01*
X183916751Y-92607297D01*
X184381211Y-92607703D01*
X184810472Y-92430336D01*
X185139181Y-92102199D01*
X185317297Y-91673249D01*
X185317703Y-91208789D01*
X185140336Y-90779528D01*
X184812199Y-90450819D01*
X184383249Y-90272703D01*
X183918789Y-90272297D01*
X183489528Y-90449664D01*
X183160819Y-90777801D01*
X182982703Y-91206751D01*
X182982297Y-91671211D01*
X157377298Y-91671211D01*
X157377703Y-91208789D01*
X157200336Y-90779528D01*
X156872199Y-90450819D01*
X156443249Y-90272703D01*
X155978789Y-90272297D01*
X155549528Y-90449664D01*
X155220819Y-90777801D01*
X155042703Y-91206751D01*
X155042297Y-91671211D01*
X154368500Y-91671211D01*
X154368500Y-89131211D01*
X155042297Y-89131211D01*
X155219664Y-89560472D01*
X155547801Y-89889181D01*
X155976751Y-90067297D01*
X156441211Y-90067703D01*
X156870472Y-89890336D01*
X157199181Y-89562199D01*
X157377297Y-89133249D01*
X157377410Y-89003119D01*
X160769210Y-89003119D01*
X160848315Y-89194567D01*
X160994662Y-89341170D01*
X161185972Y-89420609D01*
X161393119Y-89420790D01*
X161584567Y-89341685D01*
X161731170Y-89195338D01*
X161810609Y-89004028D01*
X161810609Y-89003119D01*
X179819210Y-89003119D01*
X179898315Y-89194567D01*
X180044662Y-89341170D01*
X180235972Y-89420609D01*
X180443119Y-89420790D01*
X180634567Y-89341685D01*
X180781170Y-89195338D01*
X180807797Y-89131211D01*
X182982297Y-89131211D01*
X183159664Y-89560472D01*
X183487801Y-89889181D01*
X183916751Y-90067297D01*
X184381211Y-90067703D01*
X184810472Y-89890336D01*
X185139181Y-89562199D01*
X185317297Y-89133249D01*
X185317703Y-88668789D01*
X185140336Y-88239528D01*
X184812199Y-87910819D01*
X184383249Y-87732703D01*
X183918789Y-87732297D01*
X183489528Y-87909664D01*
X183160819Y-88237801D01*
X182982703Y-88666751D01*
X182982297Y-89131211D01*
X180807797Y-89131211D01*
X180860609Y-89004028D01*
X180860790Y-88796881D01*
X180781685Y-88605433D01*
X180635338Y-88458830D01*
X180444028Y-88379391D01*
X180236881Y-88379210D01*
X180045433Y-88458315D01*
X179898830Y-88604662D01*
X179819391Y-88795972D01*
X179819210Y-89003119D01*
X161810609Y-89003119D01*
X161810790Y-88796881D01*
X161731685Y-88605433D01*
X161585338Y-88458830D01*
X161394028Y-88379391D01*
X161186881Y-88379210D01*
X160995433Y-88458315D01*
X160848830Y-88604662D01*
X160769391Y-88795972D01*
X160769210Y-89003119D01*
X157377410Y-89003119D01*
X157377703Y-88668789D01*
X157200336Y-88239528D01*
X156872199Y-87910819D01*
X156498765Y-87755755D01*
X158114890Y-87755755D01*
X158211360Y-87989228D01*
X158389832Y-88168013D01*
X158623137Y-88264889D01*
X158875755Y-88265110D01*
X159109228Y-88168640D01*
X159288013Y-87990168D01*
X159384889Y-87756863D01*
X159384889Y-87755755D01*
X180974890Y-87755755D01*
X181071360Y-87989228D01*
X181249832Y-88168013D01*
X181483137Y-88264889D01*
X181735755Y-88265110D01*
X181969228Y-88168640D01*
X182148013Y-87990168D01*
X182244889Y-87756863D01*
X182245110Y-87504245D01*
X182148640Y-87270772D01*
X181970168Y-87091987D01*
X181736863Y-86995111D01*
X181484245Y-86994890D01*
X181250772Y-87091360D01*
X181071987Y-87269832D01*
X180975111Y-87503137D01*
X180974890Y-87755755D01*
X159384889Y-87755755D01*
X159385110Y-87504245D01*
X159288640Y-87270772D01*
X159110168Y-87091987D01*
X158876863Y-86995111D01*
X158624245Y-86994890D01*
X158390772Y-87091360D01*
X158211987Y-87269832D01*
X158115111Y-87503137D01*
X158114890Y-87755755D01*
X156498765Y-87755755D01*
X156443249Y-87732703D01*
X155978789Y-87732297D01*
X155549528Y-87909664D01*
X155220819Y-88237801D01*
X155042703Y-88666751D01*
X155042297Y-89131211D01*
X154368500Y-89131211D01*
X154368500Y-86591211D01*
X155042297Y-86591211D01*
X155219664Y-87020472D01*
X155547801Y-87349181D01*
X155976751Y-87527297D01*
X156441211Y-87527703D01*
X156870472Y-87350336D01*
X157199181Y-87022199D01*
X157377297Y-86593249D01*
X157377298Y-86591211D01*
X182982297Y-86591211D01*
X183159664Y-87020472D01*
X183487801Y-87349181D01*
X183916751Y-87527297D01*
X184381211Y-87527703D01*
X184810472Y-87350336D01*
X185139181Y-87022199D01*
X185317297Y-86593249D01*
X185317703Y-86128789D01*
X185140336Y-85699528D01*
X184812199Y-85370819D01*
X184383249Y-85192703D01*
X183918789Y-85192297D01*
X183489528Y-85369664D01*
X183160819Y-85697801D01*
X182982703Y-86126751D01*
X182982297Y-86591211D01*
X157377298Y-86591211D01*
X157377703Y-86128789D01*
X157200336Y-85699528D01*
X156872199Y-85370819D01*
X156443249Y-85192703D01*
X155978789Y-85192297D01*
X155549528Y-85369664D01*
X155220819Y-85697801D01*
X155042703Y-86126751D01*
X155042297Y-86591211D01*
X154368500Y-86591211D01*
X154368500Y-84051211D01*
X155042297Y-84051211D01*
X155219664Y-84480472D01*
X155547801Y-84809181D01*
X155976751Y-84987297D01*
X156441211Y-84987703D01*
X156870472Y-84810336D01*
X157199181Y-84482199D01*
X157377297Y-84053249D01*
X157377410Y-83923119D01*
X162039210Y-83923119D01*
X162118315Y-84114567D01*
X162264662Y-84261170D01*
X162455972Y-84340609D01*
X162663119Y-84340790D01*
X162854567Y-84261685D01*
X163001170Y-84115338D01*
X163080609Y-83924028D01*
X163080609Y-83923119D01*
X178549210Y-83923119D01*
X178628315Y-84114567D01*
X178774662Y-84261170D01*
X178965972Y-84340609D01*
X179173119Y-84340790D01*
X179364567Y-84261685D01*
X179511170Y-84115338D01*
X179537797Y-84051211D01*
X182982297Y-84051211D01*
X183159664Y-84480472D01*
X183487801Y-84809181D01*
X183916751Y-84987297D01*
X184381211Y-84987703D01*
X184810472Y-84810336D01*
X185139181Y-84482199D01*
X185317297Y-84053249D01*
X185317703Y-83588789D01*
X185140336Y-83159528D01*
X184812199Y-82830819D01*
X184383249Y-82652703D01*
X183918789Y-82652297D01*
X183489528Y-82829664D01*
X183160819Y-83157801D01*
X182982703Y-83586751D01*
X182982297Y-84051211D01*
X179537797Y-84051211D01*
X179590609Y-83924028D01*
X179590790Y-83716881D01*
X179511685Y-83525433D01*
X179365338Y-83378830D01*
X179174028Y-83299391D01*
X178966881Y-83299210D01*
X178775433Y-83378315D01*
X178628830Y-83524662D01*
X178549391Y-83715972D01*
X178549210Y-83923119D01*
X163080609Y-83923119D01*
X163080790Y-83716881D01*
X163001685Y-83525433D01*
X162855338Y-83378830D01*
X162664028Y-83299391D01*
X162456881Y-83299210D01*
X162265433Y-83378315D01*
X162118830Y-83524662D01*
X162039391Y-83715972D01*
X162039210Y-83923119D01*
X157377410Y-83923119D01*
X157377703Y-83588789D01*
X157200336Y-83159528D01*
X156872199Y-82830819D01*
X156498765Y-82675755D01*
X158114890Y-82675755D01*
X158211360Y-82909228D01*
X158389832Y-83088013D01*
X158623137Y-83184889D01*
X158875755Y-83185110D01*
X159109228Y-83088640D01*
X159288013Y-82910168D01*
X159384889Y-82676863D01*
X159384889Y-82675755D01*
X180974890Y-82675755D01*
X181071360Y-82909228D01*
X181249832Y-83088013D01*
X181483137Y-83184889D01*
X181735755Y-83185110D01*
X181969228Y-83088640D01*
X182148013Y-82910168D01*
X182244889Y-82676863D01*
X182245110Y-82424245D01*
X182148640Y-82190772D01*
X181970168Y-82011987D01*
X181736863Y-81915111D01*
X181484245Y-81914890D01*
X181250772Y-82011360D01*
X181071987Y-82189832D01*
X180975111Y-82423137D01*
X180974890Y-82675755D01*
X159384889Y-82675755D01*
X159385110Y-82424245D01*
X159288640Y-82190772D01*
X159110168Y-82011987D01*
X158876863Y-81915111D01*
X158624245Y-81914890D01*
X158390772Y-82011360D01*
X158211987Y-82189832D01*
X158115111Y-82423137D01*
X158114890Y-82675755D01*
X156498765Y-82675755D01*
X156443249Y-82652703D01*
X155978789Y-82652297D01*
X155549528Y-82829664D01*
X155220819Y-83157801D01*
X155042703Y-83586751D01*
X155042297Y-84051211D01*
X154368500Y-84051211D01*
X154368500Y-81511211D01*
X155042297Y-81511211D01*
X155219664Y-81940472D01*
X155547801Y-82269181D01*
X155976751Y-82447297D01*
X156441211Y-82447703D01*
X156870472Y-82270336D01*
X157199181Y-81942199D01*
X157377297Y-81513249D01*
X157377298Y-81511211D01*
X182982297Y-81511211D01*
X183159664Y-81940472D01*
X183487801Y-82269181D01*
X183916751Y-82447297D01*
X184381211Y-82447703D01*
X184810472Y-82270336D01*
X185139181Y-81942199D01*
X185317297Y-81513249D01*
X185317703Y-81048789D01*
X185140336Y-80619528D01*
X184812199Y-80290819D01*
X184383249Y-80112703D01*
X183918789Y-80112297D01*
X183489528Y-80289664D01*
X183160819Y-80617801D01*
X182982703Y-81046751D01*
X182982297Y-81511211D01*
X157377298Y-81511211D01*
X157377703Y-81048789D01*
X157200336Y-80619528D01*
X156872199Y-80290819D01*
X156443249Y-80112703D01*
X155978789Y-80112297D01*
X155549528Y-80289664D01*
X155220819Y-80617801D01*
X155042703Y-81046751D01*
X155042297Y-81511211D01*
X154368500Y-81511211D01*
X154368500Y-78971211D01*
X155042297Y-78971211D01*
X155219664Y-79400472D01*
X155547801Y-79729181D01*
X155976751Y-79907297D01*
X156441211Y-79907703D01*
X156870472Y-79730336D01*
X157199181Y-79402199D01*
X157377297Y-78973249D01*
X157377410Y-78843119D01*
X163309210Y-78843119D01*
X163388315Y-79034567D01*
X163534662Y-79181170D01*
X163725972Y-79260609D01*
X163933119Y-79260790D01*
X164124567Y-79181685D01*
X164271170Y-79035338D01*
X164350609Y-78844028D01*
X164350609Y-78843119D01*
X177279210Y-78843119D01*
X177358315Y-79034567D01*
X177504662Y-79181170D01*
X177695972Y-79260609D01*
X177903119Y-79260790D01*
X178094567Y-79181685D01*
X178241170Y-79035338D01*
X178267797Y-78971211D01*
X182982297Y-78971211D01*
X183159664Y-79400472D01*
X183487801Y-79729181D01*
X183916751Y-79907297D01*
X184381211Y-79907703D01*
X184810472Y-79730336D01*
X185139181Y-79402199D01*
X185317297Y-78973249D01*
X185317703Y-78508789D01*
X185140336Y-78079528D01*
X184812199Y-77750819D01*
X184383249Y-77572703D01*
X183918789Y-77572297D01*
X183489528Y-77749664D01*
X183160819Y-78077801D01*
X182982703Y-78506751D01*
X182982297Y-78971211D01*
X178267797Y-78971211D01*
X178320609Y-78844028D01*
X178320790Y-78636881D01*
X178241685Y-78445433D01*
X178095338Y-78298830D01*
X177904028Y-78219391D01*
X177696881Y-78219210D01*
X177505433Y-78298315D01*
X177358830Y-78444662D01*
X177279391Y-78635972D01*
X177279210Y-78843119D01*
X164350609Y-78843119D01*
X164350790Y-78636881D01*
X164271685Y-78445433D01*
X164125338Y-78298830D01*
X163934028Y-78219391D01*
X163726881Y-78219210D01*
X163535433Y-78298315D01*
X163388830Y-78444662D01*
X163309391Y-78635972D01*
X163309210Y-78843119D01*
X157377410Y-78843119D01*
X157377703Y-78508789D01*
X157200336Y-78079528D01*
X156872199Y-77750819D01*
X156498765Y-77595755D01*
X158114890Y-77595755D01*
X158211360Y-77829228D01*
X158389832Y-78008013D01*
X158623137Y-78104889D01*
X158875755Y-78105110D01*
X159109228Y-78008640D01*
X159288013Y-77830168D01*
X159384889Y-77596863D01*
X159384889Y-77595755D01*
X180974890Y-77595755D01*
X181071360Y-77829228D01*
X181249832Y-78008013D01*
X181483137Y-78104889D01*
X181735755Y-78105110D01*
X181969228Y-78008640D01*
X182148013Y-77830168D01*
X182244889Y-77596863D01*
X182245110Y-77344245D01*
X182148640Y-77110772D01*
X181970168Y-76931987D01*
X181736863Y-76835111D01*
X181484245Y-76834890D01*
X181250772Y-76931360D01*
X181071987Y-77109832D01*
X180975111Y-77343137D01*
X180974890Y-77595755D01*
X159384889Y-77595755D01*
X159385110Y-77344245D01*
X159288640Y-77110772D01*
X159110168Y-76931987D01*
X158876863Y-76835111D01*
X158624245Y-76834890D01*
X158390772Y-76931360D01*
X158211987Y-77109832D01*
X158115111Y-77343137D01*
X158114890Y-77595755D01*
X156498765Y-77595755D01*
X156443249Y-77572703D01*
X155978789Y-77572297D01*
X155549528Y-77749664D01*
X155220819Y-78077801D01*
X155042703Y-78506751D01*
X155042297Y-78971211D01*
X154368500Y-78971211D01*
X154368500Y-76431211D01*
X155042297Y-76431211D01*
X155219664Y-76860472D01*
X155547801Y-77189181D01*
X155976751Y-77367297D01*
X156441211Y-77367703D01*
X156870472Y-77190336D01*
X157199181Y-76862199D01*
X157377297Y-76433249D01*
X157377298Y-76431211D01*
X182982297Y-76431211D01*
X183159664Y-76860472D01*
X183487801Y-77189181D01*
X183916751Y-77367297D01*
X184381211Y-77367703D01*
X184810472Y-77190336D01*
X185139181Y-76862199D01*
X185317297Y-76433249D01*
X185317703Y-75968789D01*
X185140336Y-75539528D01*
X184812199Y-75210819D01*
X184383249Y-75032703D01*
X183918789Y-75032297D01*
X183489528Y-75209664D01*
X183160819Y-75537801D01*
X182982703Y-75966751D01*
X182982297Y-76431211D01*
X157377298Y-76431211D01*
X157377703Y-75968789D01*
X157200336Y-75539528D01*
X156872199Y-75210819D01*
X156443249Y-75032703D01*
X155978789Y-75032297D01*
X155549528Y-75209664D01*
X155220819Y-75537801D01*
X155042703Y-75966751D01*
X155042297Y-76431211D01*
X154368500Y-76431211D01*
X154368500Y-74489211D01*
X155470591Y-74489211D01*
X155562685Y-74658985D01*
X155994254Y-74830658D01*
X156458668Y-74824110D01*
X156857315Y-74658985D01*
X156949409Y-74489211D01*
X183410591Y-74489211D01*
X183502685Y-74658985D01*
X183934254Y-74830658D01*
X184398668Y-74824110D01*
X184797315Y-74658985D01*
X184889409Y-74489211D01*
X184150000Y-73749803D01*
X183410591Y-74489211D01*
X156949409Y-74489211D01*
X156210000Y-73749803D01*
X155470591Y-74489211D01*
X154368500Y-74489211D01*
X154368500Y-73444254D01*
X155039342Y-73444254D01*
X155045890Y-73908668D01*
X155211015Y-74307315D01*
X155380789Y-74399409D01*
X156120197Y-73660000D01*
X156299803Y-73660000D01*
X157039211Y-74399409D01*
X157208985Y-74307315D01*
X157380658Y-73875746D01*
X157379071Y-73763119D01*
X176009210Y-73763119D01*
X176088315Y-73954567D01*
X176234662Y-74101170D01*
X176425972Y-74180609D01*
X176633119Y-74180790D01*
X176824567Y-74101685D01*
X176971170Y-73955338D01*
X177050609Y-73764028D01*
X177050790Y-73556881D01*
X177004254Y-73444254D01*
X182979342Y-73444254D01*
X182985890Y-73908668D01*
X183151015Y-74307315D01*
X183320789Y-74399409D01*
X184060197Y-73660000D01*
X184239803Y-73660000D01*
X184979211Y-74399409D01*
X185148985Y-74307315D01*
X185320658Y-73875746D01*
X185314110Y-73411332D01*
X185148985Y-73012685D01*
X184979211Y-72920591D01*
X184239803Y-73660000D01*
X184060197Y-73660000D01*
X183320789Y-72920591D01*
X183151015Y-73012685D01*
X182979342Y-73444254D01*
X177004254Y-73444254D01*
X176971685Y-73365433D01*
X176825338Y-73218830D01*
X176634028Y-73139391D01*
X176426881Y-73139210D01*
X176235433Y-73218315D01*
X176088830Y-73364662D01*
X176009391Y-73555972D01*
X176009210Y-73763119D01*
X157379071Y-73763119D01*
X157374110Y-73411332D01*
X157208985Y-73012685D01*
X157039211Y-72920591D01*
X156299803Y-73660000D01*
X156120197Y-73660000D01*
X155380789Y-72920591D01*
X155211015Y-73012685D01*
X155039342Y-73444254D01*
X154368500Y-73444254D01*
X154368500Y-72830789D01*
X155470591Y-72830789D01*
X156210000Y-73570197D01*
X156949409Y-72830789D01*
X156857315Y-72661015D01*
X156425746Y-72489342D01*
X155961332Y-72495890D01*
X155562685Y-72661015D01*
X155470591Y-72830789D01*
X154368500Y-72830789D01*
X154368500Y-71818500D01*
X158470299Y-71818500D01*
X158390772Y-71851360D01*
X158390772Y-71851360D01*
G37*
X158390772Y-71851360D02*
X158211987Y-72029832D01*
X158115111Y-72263137D01*
X158114890Y-72515755D01*
X158211360Y-72749228D01*
X158389832Y-72928013D01*
X158623137Y-73024889D01*
X158875755Y-73025110D01*
X159109228Y-72928640D01*
X159288013Y-72750168D01*
X159384889Y-72516863D01*
X159385110Y-72264245D01*
X159288640Y-72030772D01*
X159110168Y-71851987D01*
X159029522Y-71818500D01*
X181330299Y-71818500D01*
X181250772Y-71851360D01*
X181071987Y-72029832D01*
X180975111Y-72263137D01*
X180974890Y-72515755D01*
X181071360Y-72749228D01*
X181249832Y-72928013D01*
X181483137Y-73024889D01*
X181735755Y-73025110D01*
X181969228Y-72928640D01*
X182067250Y-72830789D01*
X183410591Y-72830789D01*
X184150000Y-73570197D01*
X184889409Y-72830789D01*
X184797315Y-72661015D01*
X184365746Y-72489342D01*
X183901332Y-72495890D01*
X183502685Y-72661015D01*
X183410591Y-72830789D01*
X182067250Y-72830789D01*
X182148013Y-72750168D01*
X182244889Y-72516863D01*
X182245110Y-72264245D01*
X182148640Y-72030772D01*
X181970168Y-71851987D01*
X181889522Y-71818500D01*
X185991500Y-71818500D01*
X185991500Y-136461500D01*
X154368500Y-136461500D01*
X154368500Y-135449211D01*
X155470591Y-135449211D01*
X155562685Y-135618985D01*
X155994254Y-135790658D01*
X156458668Y-135784110D01*
X156857315Y-135618985D01*
X156949409Y-135449211D01*
X158010591Y-135449211D01*
X158102685Y-135618985D01*
X158534254Y-135790658D01*
X158998668Y-135784110D01*
X159397315Y-135618985D01*
X159489409Y-135449211D01*
X160550591Y-135449211D01*
X160642685Y-135618985D01*
X161074254Y-135790658D01*
X161538668Y-135784110D01*
X161937315Y-135618985D01*
X162029409Y-135449211D01*
X163090591Y-135449211D01*
X163182685Y-135618985D01*
X163614254Y-135790658D01*
X164078668Y-135784110D01*
X164477315Y-135618985D01*
X164569409Y-135449211D01*
X165630591Y-135449211D01*
X165722685Y-135618985D01*
X166154254Y-135790658D01*
X166618668Y-135784110D01*
X167017315Y-135618985D01*
X167109409Y-135449211D01*
X168170591Y-135449211D01*
X168262685Y-135618985D01*
X168694254Y-135790658D01*
X169158668Y-135784110D01*
X169557315Y-135618985D01*
X169649409Y-135449211D01*
X170710591Y-135449211D01*
X170802685Y-135618985D01*
X171234254Y-135790658D01*
X171698668Y-135784110D01*
X172097315Y-135618985D01*
X172189409Y-135449211D01*
X173250591Y-135449211D01*
X173342685Y-135618985D01*
X173774254Y-135790658D01*
X174238668Y-135784110D01*
X174637315Y-135618985D01*
X174729409Y-135449211D01*
X175790591Y-135449211D01*
X175882685Y-135618985D01*
X176314254Y-135790658D01*
X176778668Y-135784110D01*
X177177315Y-135618985D01*
X177269409Y-135449211D01*
X178330591Y-135449211D01*
X178422685Y-135618985D01*
X178854254Y-135790658D01*
X179318668Y-135784110D01*
X179717315Y-135618985D01*
X179809409Y-135449211D01*
X180870591Y-135449211D01*
X180962685Y-135618985D01*
X181394254Y-135790658D01*
X181858668Y-135784110D01*
X182257315Y-135618985D01*
X182349409Y-135449211D01*
X183410591Y-135449211D01*
X183502685Y-135618985D01*
X183934254Y-135790658D01*
X184398668Y-135784110D01*
X184797315Y-135618985D01*
X184889409Y-135449211D01*
X184150000Y-134709803D01*
X183410591Y-135449211D01*
X182349409Y-135449211D01*
X181610000Y-134709803D01*
X180870591Y-135449211D01*
X179809409Y-135449211D01*
X179070000Y-134709803D01*
X178330591Y-135449211D01*
X177269409Y-135449211D01*
X176530000Y-134709803D01*
X175790591Y-135449211D01*
X174729409Y-135449211D01*
X173990000Y-134709803D01*
X173250591Y-135449211D01*
X172189409Y-135449211D01*
X171450000Y-134709803D01*
X170710591Y-135449211D01*
X169649409Y-135449211D01*
X168910000Y-134709803D01*
X168170591Y-135449211D01*
X167109409Y-135449211D01*
X166370000Y-134709803D01*
X165630591Y-135449211D01*
X164569409Y-135449211D01*
X163830000Y-134709803D01*
X163090591Y-135449211D01*
X162029409Y-135449211D01*
X161290000Y-134709803D01*
X160550591Y-135449211D01*
X159489409Y-135449211D01*
X158750000Y-134709803D01*
X158010591Y-135449211D01*
X156949409Y-135449211D01*
X156210000Y-134709803D01*
X155470591Y-135449211D01*
X154368500Y-135449211D01*
X154368500Y-134404254D01*
X155039342Y-134404254D01*
X155045890Y-134868668D01*
X155211015Y-135267315D01*
X155380789Y-135359409D01*
X156120197Y-134620000D01*
X156299803Y-134620000D01*
X157039211Y-135359409D01*
X157208985Y-135267315D01*
X157380658Y-134835746D01*
X157374575Y-134404254D01*
X157579342Y-134404254D01*
X157585890Y-134868668D01*
X157751015Y-135267315D01*
X157920789Y-135359409D01*
X158660197Y-134620000D01*
X158839803Y-134620000D01*
X159579211Y-135359409D01*
X159748985Y-135267315D01*
X159920658Y-134835746D01*
X159914575Y-134404254D01*
X160119342Y-134404254D01*
X160125890Y-134868668D01*
X160291015Y-135267315D01*
X160460789Y-135359409D01*
X161200197Y-134620000D01*
X161379803Y-134620000D01*
X162119211Y-135359409D01*
X162288985Y-135267315D01*
X162460658Y-134835746D01*
X162454575Y-134404254D01*
X162659342Y-134404254D01*
X162665890Y-134868668D01*
X162831015Y-135267315D01*
X163000789Y-135359409D01*
X163740197Y-134620000D01*
X163919803Y-134620000D01*
X164659211Y-135359409D01*
X164828985Y-135267315D01*
X165000658Y-134835746D01*
X164994575Y-134404254D01*
X165199342Y-134404254D01*
X165205890Y-134868668D01*
X165371015Y-135267315D01*
X165540789Y-135359409D01*
X166280197Y-134620000D01*
X166459803Y-134620000D01*
X167199211Y-135359409D01*
X167368985Y-135267315D01*
X167540658Y-134835746D01*
X167534575Y-134404254D01*
X167739342Y-134404254D01*
X167745890Y-134868668D01*
X167911015Y-135267315D01*
X168080789Y-135359409D01*
X168820197Y-134620000D01*
X168999803Y-134620000D01*
X169739211Y-135359409D01*
X169908985Y-135267315D01*
X170080658Y-134835746D01*
X170074575Y-134404254D01*
X170279342Y-134404254D01*
X170285890Y-134868668D01*
X170451015Y-135267315D01*
X170620789Y-135359409D01*
X171360197Y-134620000D01*
X171539803Y-134620000D01*
X172279211Y-135359409D01*
X172448985Y-135267315D01*
X172620658Y-134835746D01*
X172614575Y-134404254D01*
X172819342Y-134404254D01*
X172825890Y-134868668D01*
X172991015Y-135267315D01*
X173160789Y-135359409D01*
X173900197Y-134620000D01*
X174079803Y-134620000D01*
X174819211Y-135359409D01*
X174988985Y-135267315D01*
X175160658Y-134835746D01*
X175154575Y-134404254D01*
X175359342Y-134404254D01*
X175365890Y-134868668D01*
X175531015Y-135267315D01*
X175700789Y-135359409D01*
X176440197Y-134620000D01*
X176619803Y-134620000D01*
X177359211Y-135359409D01*
X177528985Y-135267315D01*
X177700658Y-134835746D01*
X177694575Y-134404254D01*
X177899342Y-134404254D01*
X177905890Y-134868668D01*
X178071015Y-135267315D01*
X178240789Y-135359409D01*
X178980197Y-134620000D01*
X179159803Y-134620000D01*
X179899211Y-135359409D01*
X180068985Y-135267315D01*
X180240658Y-134835746D01*
X180234575Y-134404254D01*
X180439342Y-134404254D01*
X180445890Y-134868668D01*
X180611015Y-135267315D01*
X180780789Y-135359409D01*
X181520197Y-134620000D01*
X181699803Y-134620000D01*
X182439211Y-135359409D01*
X182608985Y-135267315D01*
X182780658Y-134835746D01*
X182774575Y-134404254D01*
X182979342Y-134404254D01*
X182985890Y-134868668D01*
X183151015Y-135267315D01*
X183320789Y-135359409D01*
X184060197Y-134620000D01*
X184239803Y-134620000D01*
X184979211Y-135359409D01*
X185148985Y-135267315D01*
X185320658Y-134835746D01*
X185314110Y-134371332D01*
X185148985Y-133972685D01*
X184979211Y-133880591D01*
X184239803Y-134620000D01*
X184060197Y-134620000D01*
X183320789Y-133880591D01*
X183151015Y-133972685D01*
X182979342Y-134404254D01*
X182774575Y-134404254D01*
X182774110Y-134371332D01*
X182608985Y-133972685D01*
X182439211Y-133880591D01*
X181699803Y-134620000D01*
X181520197Y-134620000D01*
X180780789Y-133880591D01*
X180611015Y-133972685D01*
X180439342Y-134404254D01*
X180234575Y-134404254D01*
X180234110Y-134371332D01*
X180068985Y-133972685D01*
X179899211Y-133880591D01*
X179159803Y-134620000D01*
X178980197Y-134620000D01*
X178240789Y-133880591D01*
X178071015Y-133972685D01*
X177899342Y-134404254D01*
X177694575Y-134404254D01*
X177694110Y-134371332D01*
X177528985Y-133972685D01*
X177359211Y-133880591D01*
X176619803Y-134620000D01*
X176440197Y-134620000D01*
X175700789Y-133880591D01*
X175531015Y-133972685D01*
X175359342Y-134404254D01*
X175154575Y-134404254D01*
X175154110Y-134371332D01*
X174988985Y-133972685D01*
X174819211Y-133880591D01*
X174079803Y-134620000D01*
X173900197Y-134620000D01*
X173160789Y-133880591D01*
X172991015Y-133972685D01*
X172819342Y-134404254D01*
X172614575Y-134404254D01*
X172614110Y-134371332D01*
X172448985Y-133972685D01*
X172279211Y-133880591D01*
X171539803Y-134620000D01*
X171360197Y-134620000D01*
X170620789Y-133880591D01*
X170451015Y-133972685D01*
X170279342Y-134404254D01*
X170074575Y-134404254D01*
X170074110Y-134371332D01*
X169908985Y-133972685D01*
X169739211Y-133880591D01*
X168999803Y-134620000D01*
X168820197Y-134620000D01*
X168080789Y-133880591D01*
X167911015Y-133972685D01*
X167739342Y-134404254D01*
X167534575Y-134404254D01*
X167534110Y-134371332D01*
X167368985Y-133972685D01*
X167199211Y-133880591D01*
X166459803Y-134620000D01*
X166280197Y-134620000D01*
X165540789Y-133880591D01*
X165371015Y-133972685D01*
X165199342Y-134404254D01*
X164994575Y-134404254D01*
X164994110Y-134371332D01*
X164828985Y-133972685D01*
X164659211Y-133880591D01*
X163919803Y-134620000D01*
X163740197Y-134620000D01*
X163000789Y-133880591D01*
X162831015Y-133972685D01*
X162659342Y-134404254D01*
X162454575Y-134404254D01*
X162454110Y-134371332D01*
X162288985Y-133972685D01*
X162119211Y-133880591D01*
X161379803Y-134620000D01*
X161200197Y-134620000D01*
X160460789Y-133880591D01*
X160291015Y-133972685D01*
X160119342Y-134404254D01*
X159914575Y-134404254D01*
X159914110Y-134371332D01*
X159748985Y-133972685D01*
X159579211Y-133880591D01*
X158839803Y-134620000D01*
X158660197Y-134620000D01*
X157920789Y-133880591D01*
X157751015Y-133972685D01*
X157579342Y-134404254D01*
X157374575Y-134404254D01*
X157374110Y-134371332D01*
X157208985Y-133972685D01*
X157039211Y-133880591D01*
X156299803Y-134620000D01*
X156120197Y-134620000D01*
X155380789Y-133880591D01*
X155211015Y-133972685D01*
X155039342Y-134404254D01*
X154368500Y-134404254D01*
X154368500Y-133790789D01*
X155470591Y-133790789D01*
X156210000Y-134530197D01*
X156949409Y-133790789D01*
X158010591Y-133790789D01*
X158750000Y-134530197D01*
X159489409Y-133790789D01*
X160550591Y-133790789D01*
X161290000Y-134530197D01*
X162029409Y-133790789D01*
X163090591Y-133790789D01*
X163830000Y-134530197D01*
X164569409Y-133790789D01*
X165630591Y-133790789D01*
X166370000Y-134530197D01*
X167109409Y-133790789D01*
X168170591Y-133790789D01*
X168910000Y-134530197D01*
X169649409Y-133790789D01*
X170710591Y-133790789D01*
X171450000Y-134530197D01*
X172189409Y-133790789D01*
X173250591Y-133790789D01*
X173990000Y-134530197D01*
X174729409Y-133790789D01*
X175790591Y-133790789D01*
X176530000Y-134530197D01*
X177269409Y-133790789D01*
X178330591Y-133790789D01*
X179070000Y-134530197D01*
X179809409Y-133790789D01*
X180870591Y-133790789D01*
X181610000Y-134530197D01*
X182349409Y-133790789D01*
X183410591Y-133790789D01*
X184150000Y-134530197D01*
X184889409Y-133790789D01*
X184797315Y-133621015D01*
X184365746Y-133449342D01*
X183901332Y-133455890D01*
X183502685Y-133621015D01*
X183410591Y-133790789D01*
X182349409Y-133790789D01*
X182257315Y-133621015D01*
X181825746Y-133449342D01*
X181361332Y-133455890D01*
X180962685Y-133621015D01*
X180870591Y-133790789D01*
X179809409Y-133790789D01*
X179717315Y-133621015D01*
X179285746Y-133449342D01*
X178821332Y-133455890D01*
X178422685Y-133621015D01*
X178330591Y-133790789D01*
X177269409Y-133790789D01*
X177177315Y-133621015D01*
X176745746Y-133449342D01*
X176281332Y-133455890D01*
X175882685Y-133621015D01*
X175790591Y-133790789D01*
X174729409Y-133790789D01*
X174637315Y-133621015D01*
X174205746Y-133449342D01*
X173741332Y-133455890D01*
X173342685Y-133621015D01*
X173250591Y-133790789D01*
X172189409Y-133790789D01*
X172097315Y-133621015D01*
X171665746Y-133449342D01*
X171201332Y-133455890D01*
X170802685Y-133621015D01*
X170710591Y-133790789D01*
X169649409Y-133790789D01*
X169557315Y-133621015D01*
X169125746Y-133449342D01*
X168661332Y-133455890D01*
X168262685Y-133621015D01*
X168170591Y-133790789D01*
X167109409Y-133790789D01*
X167017315Y-133621015D01*
X166585746Y-133449342D01*
X166121332Y-133455890D01*
X165722685Y-133621015D01*
X165630591Y-133790789D01*
X164569409Y-133790789D01*
X164477315Y-133621015D01*
X164045746Y-133449342D01*
X163581332Y-133455890D01*
X163182685Y-133621015D01*
X163090591Y-133790789D01*
X162029409Y-133790789D01*
X161937315Y-133621015D01*
X161505746Y-133449342D01*
X161041332Y-133455890D01*
X160642685Y-133621015D01*
X160550591Y-133790789D01*
X159489409Y-133790789D01*
X159397315Y-133621015D01*
X158965746Y-133449342D01*
X158501332Y-133455890D01*
X158102685Y-133621015D01*
X158010591Y-133790789D01*
X156949409Y-133790789D01*
X156857315Y-133621015D01*
X156425746Y-133449342D01*
X155961332Y-133455890D01*
X155562685Y-133621015D01*
X155470591Y-133790789D01*
X154368500Y-133790789D01*
X154368500Y-132311211D01*
X155042297Y-132311211D01*
X155219664Y-132740472D01*
X155547801Y-133069181D01*
X155976751Y-133247297D01*
X156441211Y-133247703D01*
X156870472Y-133070336D01*
X157199181Y-132742199D01*
X157377297Y-132313249D01*
X157377298Y-132311211D01*
X157582297Y-132311211D01*
X157759664Y-132740472D01*
X158087801Y-133069181D01*
X158516751Y-133247297D01*
X158981211Y-133247703D01*
X159410472Y-133070336D01*
X159739181Y-132742199D01*
X159917297Y-132313249D01*
X159917298Y-132311211D01*
X160122297Y-132311211D01*
X160299664Y-132740472D01*
X160627801Y-133069181D01*
X161056751Y-133247297D01*
X161521211Y-133247703D01*
X161950472Y-133070336D01*
X162279181Y-132742199D01*
X162457297Y-132313249D01*
X162457298Y-132311211D01*
X162662297Y-132311211D01*
X162839664Y-132740472D01*
X163167801Y-133069181D01*
X163596751Y-133247297D01*
X164061211Y-133247703D01*
X164490472Y-133070336D01*
X164819181Y-132742199D01*
X164997297Y-132313249D01*
X164997298Y-132311211D01*
X165202297Y-132311211D01*
X165379664Y-132740472D01*
X165707801Y-133069181D01*
X166136751Y-133247297D01*
X166601211Y-133247703D01*
X167030472Y-133070336D01*
X167359181Y-132742199D01*
X167537297Y-132313249D01*
X167537298Y-132311211D01*
X167742297Y-132311211D01*
X167919664Y-132740472D01*
X168247801Y-133069181D01*
X168676751Y-133247297D01*
X169141211Y-133247703D01*
X169570472Y-133070336D01*
X169899181Y-132742199D01*
X170077297Y-132313249D01*
X170077298Y-132311211D01*
X170282297Y-132311211D01*
X170459664Y-132740472D01*
X170787801Y-133069181D01*
X171216751Y-133247297D01*
X171681211Y-133247703D01*
X172110472Y-133070336D01*
X172439181Y-132742199D01*
X172617297Y-132313249D01*
X172617298Y-132311211D01*
X172822297Y-132311211D01*
X172999664Y-132740472D01*
X173327801Y-133069181D01*
X173756751Y-133247297D01*
X174221211Y-133247703D01*
X174650472Y-133070336D01*
X174979181Y-132742199D01*
X175157297Y-132313249D01*
X175157298Y-132311211D01*
X175362297Y-132311211D01*
X175539664Y-132740472D01*
X175867801Y-133069181D01*
X176296751Y-133247297D01*
X176761211Y-133247703D01*
X177190472Y-133070336D01*
X177519181Y-132742199D01*
X177697297Y-132313249D01*
X177697298Y-132311211D01*
X177902297Y-132311211D01*
X178079664Y-132740472D01*
X178407801Y-133069181D01*
X178836751Y-133247297D01*
X179301211Y-133247703D01*
X179730472Y-133070336D01*
X180059181Y-132742199D01*
X180237297Y-132313249D01*
X180237298Y-132311211D01*
X180442297Y-132311211D01*
X180619664Y-132740472D01*
X180947801Y-133069181D01*
X181376751Y-133247297D01*
X181841211Y-133247703D01*
X182270472Y-133070336D01*
X182599181Y-132742199D01*
X182777297Y-132313249D01*
X182777298Y-132311211D01*
X182982297Y-132311211D01*
X183159664Y-132740472D01*
X183487801Y-133069181D01*
X183916751Y-133247297D01*
X184381211Y-133247703D01*
X184810472Y-133070336D01*
X185139181Y-132742199D01*
X185317297Y-132313249D01*
X185317703Y-131848789D01*
X185140336Y-131419528D01*
X184812199Y-131090819D01*
X184383249Y-130912703D01*
X183918789Y-130912297D01*
X183489528Y-131089664D01*
X183160819Y-131417801D01*
X182982703Y-131846751D01*
X182982297Y-132311211D01*
X182777298Y-132311211D01*
X182777703Y-131848789D01*
X182600336Y-131419528D01*
X182272199Y-131090819D01*
X181843249Y-130912703D01*
X181378789Y-130912297D01*
X180949528Y-131089664D01*
X180620819Y-131417801D01*
X180442703Y-131846751D01*
X180442297Y-132311211D01*
X180237298Y-132311211D01*
X180237703Y-131848789D01*
X180060336Y-131419528D01*
X179732199Y-131090819D01*
X179303249Y-130912703D01*
X178838789Y-130912297D01*
X178409528Y-131089664D01*
X178080819Y-131417801D01*
X177902703Y-131846751D01*
X177902297Y-132311211D01*
X177697298Y-132311211D01*
X177697703Y-131848789D01*
X177520336Y-131419528D01*
X177192199Y-131090819D01*
X176763249Y-130912703D01*
X176298789Y-130912297D01*
X175869528Y-131089664D01*
X175540819Y-131417801D01*
X175362703Y-131846751D01*
X175362297Y-132311211D01*
X175157298Y-132311211D01*
X175157703Y-131848789D01*
X174980336Y-131419528D01*
X174652199Y-131090819D01*
X174223249Y-130912703D01*
X173758789Y-130912297D01*
X173329528Y-131089664D01*
X173000819Y-131417801D01*
X172822703Y-131846751D01*
X172822297Y-132311211D01*
X172617298Y-132311211D01*
X172617703Y-131848789D01*
X172440336Y-131419528D01*
X172112199Y-131090819D01*
X171683249Y-130912703D01*
X171218789Y-130912297D01*
X170789528Y-131089664D01*
X170460819Y-131417801D01*
X170282703Y-131846751D01*
X170282297Y-132311211D01*
X170077298Y-132311211D01*
X170077703Y-131848789D01*
X169900336Y-131419528D01*
X169572199Y-131090819D01*
X169143249Y-130912703D01*
X168678789Y-130912297D01*
X168249528Y-131089664D01*
X167920819Y-131417801D01*
X167742703Y-131846751D01*
X167742297Y-132311211D01*
X167537298Y-132311211D01*
X167537703Y-131848789D01*
X167360336Y-131419528D01*
X167032199Y-131090819D01*
X166603249Y-130912703D01*
X166138789Y-130912297D01*
X165709528Y-131089664D01*
X165380819Y-131417801D01*
X165202703Y-131846751D01*
X165202297Y-132311211D01*
X164997298Y-132311211D01*
X164997703Y-131848789D01*
X164820336Y-131419528D01*
X164492199Y-131090819D01*
X164063249Y-130912703D01*
X163598789Y-130912297D01*
X163169528Y-131089664D01*
X162840819Y-131417801D01*
X162662703Y-131846751D01*
X162662297Y-132311211D01*
X162457298Y-132311211D01*
X162457703Y-131848789D01*
X162280336Y-131419528D01*
X161952199Y-131090819D01*
X161523249Y-130912703D01*
X161058789Y-130912297D01*
X160629528Y-131089664D01*
X160300819Y-131417801D01*
X160122703Y-131846751D01*
X160122297Y-132311211D01*
X159917298Y-132311211D01*
X159917703Y-131848789D01*
X159740336Y-131419528D01*
X159412199Y-131090819D01*
X158983249Y-130912703D01*
X158518789Y-130912297D01*
X158089528Y-131089664D01*
X157760819Y-131417801D01*
X157582703Y-131846751D01*
X157582297Y-132311211D01*
X157377298Y-132311211D01*
X157377703Y-131848789D01*
X157200336Y-131419528D01*
X156872199Y-131090819D01*
X156443249Y-130912703D01*
X155978789Y-130912297D01*
X155549528Y-131089664D01*
X155220819Y-131417801D01*
X155042703Y-131846751D01*
X155042297Y-132311211D01*
X154368500Y-132311211D01*
X154368500Y-129771211D01*
X155042297Y-129771211D01*
X155219664Y-130200472D01*
X155547801Y-130529181D01*
X155976751Y-130707297D01*
X156441211Y-130707703D01*
X156870472Y-130530336D01*
X157123128Y-130278119D01*
X163309210Y-130278119D01*
X163388315Y-130469567D01*
X163534662Y-130616170D01*
X163725972Y-130695609D01*
X163933119Y-130695790D01*
X164124567Y-130616685D01*
X164271170Y-130470338D01*
X164350609Y-130279028D01*
X164350609Y-130278119D01*
X165849210Y-130278119D01*
X165928315Y-130469567D01*
X166074662Y-130616170D01*
X166265972Y-130695609D01*
X166473119Y-130695790D01*
X166664567Y-130616685D01*
X166687411Y-130593880D01*
X166709662Y-130616170D01*
X166900972Y-130695609D01*
X167108119Y-130695790D01*
X167299567Y-130616685D01*
X167446170Y-130470338D01*
X167525609Y-130279028D01*
X167525790Y-130071881D01*
X167446685Y-129880433D01*
X167300338Y-129733830D01*
X167109028Y-129654391D01*
X166901881Y-129654210D01*
X166710433Y-129733315D01*
X166687589Y-129756120D01*
X166665338Y-129733830D01*
X166474028Y-129654391D01*
X166266881Y-129654210D01*
X166075433Y-129733315D01*
X165928830Y-129879662D01*
X165849391Y-130070972D01*
X165849210Y-130278119D01*
X164350609Y-130278119D01*
X164350790Y-130071881D01*
X164271685Y-129880433D01*
X164125338Y-129733830D01*
X163934028Y-129654391D01*
X163726881Y-129654210D01*
X163535433Y-129733315D01*
X163388830Y-129879662D01*
X163309391Y-130070972D01*
X163309210Y-130278119D01*
X157123128Y-130278119D01*
X157199181Y-130202199D01*
X157377297Y-129773249D01*
X157377410Y-129643119D01*
X180454210Y-129643119D01*
X180533315Y-129834567D01*
X180679662Y-129981170D01*
X180870972Y-130060609D01*
X181078119Y-130060790D01*
X181269567Y-129981685D01*
X181416170Y-129835338D01*
X181442797Y-129771211D01*
X182982297Y-129771211D01*
X183159664Y-130200472D01*
X183487801Y-130529181D01*
X183916751Y-130707297D01*
X184381211Y-130707703D01*
X184810472Y-130530336D01*
X185139181Y-130202199D01*
X185317297Y-129773249D01*
X185317703Y-129308789D01*
X185140336Y-128879528D01*
X184812199Y-128550819D01*
X184383249Y-128372703D01*
X183918789Y-128372297D01*
X183489528Y-128549664D01*
X183160819Y-128877801D01*
X182982703Y-129306751D01*
X182982297Y-129771211D01*
X181442797Y-129771211D01*
X181495609Y-129644028D01*
X181495790Y-129436881D01*
X181416685Y-129245433D01*
X181270338Y-129098830D01*
X181079028Y-129019391D01*
X180871881Y-129019210D01*
X180680433Y-129098315D01*
X180533830Y-129244662D01*
X180454391Y-129435972D01*
X180454210Y-129643119D01*
X157377410Y-129643119D01*
X157377703Y-129308789D01*
X157253469Y-129008119D01*
X158864210Y-129008119D01*
X158943315Y-129199567D01*
X159089662Y-129346170D01*
X159280972Y-129425609D01*
X159488119Y-129425790D01*
X159679567Y-129346685D01*
X159826170Y-129200338D01*
X159853251Y-129135119D01*
X179184210Y-129135119D01*
X179263315Y-129326567D01*
X179409662Y-129473170D01*
X179600972Y-129552609D01*
X179808119Y-129552790D01*
X179999567Y-129473685D01*
X180146170Y-129327338D01*
X180225609Y-129136028D01*
X180225790Y-128928881D01*
X180146685Y-128737433D01*
X180000338Y-128590830D01*
X179809028Y-128511391D01*
X179601881Y-128511210D01*
X179410433Y-128590315D01*
X179263830Y-128736662D01*
X179184391Y-128927972D01*
X179184210Y-129135119D01*
X159853251Y-129135119D01*
X159905609Y-129009028D01*
X159905790Y-128801881D01*
X159833580Y-128627119D01*
X177914210Y-128627119D01*
X177993315Y-128818567D01*
X178139662Y-128965170D01*
X178330972Y-129044609D01*
X178538119Y-129044790D01*
X178729567Y-128965685D01*
X178876170Y-128819338D01*
X178955609Y-128628028D01*
X178955790Y-128420881D01*
X178876685Y-128229433D01*
X178730338Y-128082830D01*
X178539028Y-128003391D01*
X178331881Y-128003210D01*
X178140433Y-128082315D01*
X177993830Y-128228662D01*
X177914391Y-128419972D01*
X177914210Y-128627119D01*
X159833580Y-128627119D01*
X159826685Y-128610433D01*
X159680338Y-128463830D01*
X159489028Y-128384391D01*
X159281881Y-128384210D01*
X159090433Y-128463315D01*
X158943830Y-128609662D01*
X158864391Y-128800972D01*
X158864210Y-129008119D01*
X157253469Y-129008119D01*
X157200336Y-128879528D01*
X156872199Y-128550819D01*
X156443249Y-128372703D01*
X155978789Y-128372297D01*
X155549528Y-128549664D01*
X155220819Y-128877801D01*
X155042703Y-129306751D01*
X155042297Y-129771211D01*
X154368500Y-129771211D01*
X154368500Y-127231211D01*
X155042297Y-127231211D01*
X155219664Y-127660472D01*
X155547801Y-127989181D01*
X155976751Y-128167297D01*
X156441211Y-128167703D01*
X156558793Y-128119119D01*
X176644210Y-128119119D01*
X176723315Y-128310567D01*
X176869662Y-128457170D01*
X177060972Y-128536609D01*
X177268119Y-128536790D01*
X177459567Y-128457685D01*
X177606170Y-128311338D01*
X177685609Y-128120028D01*
X177685790Y-127912881D01*
X177606685Y-127721433D01*
X177460338Y-127574830D01*
X177269028Y-127495391D01*
X177061881Y-127495210D01*
X176870433Y-127574315D01*
X176723830Y-127720662D01*
X176644391Y-127911972D01*
X176644210Y-128119119D01*
X156558793Y-128119119D01*
X156870472Y-127990336D01*
X157199181Y-127662199D01*
X157220391Y-127611119D01*
X158864210Y-127611119D01*
X158943315Y-127802567D01*
X159089662Y-127949170D01*
X159280972Y-128028609D01*
X159488119Y-128028790D01*
X159679567Y-127949685D01*
X159826170Y-127803338D01*
X159905609Y-127612028D01*
X159905609Y-127611119D01*
X160134210Y-127611119D01*
X160213315Y-127802567D01*
X160359662Y-127949170D01*
X160550972Y-128028609D01*
X160758119Y-128028790D01*
X160949567Y-127949685D01*
X161096170Y-127803338D01*
X161175609Y-127612028D01*
X161175609Y-127611119D01*
X161404210Y-127611119D01*
X161483315Y-127802567D01*
X161629662Y-127949170D01*
X161820972Y-128028609D01*
X162028119Y-128028790D01*
X162219567Y-127949685D01*
X162366170Y-127803338D01*
X162445609Y-127612028D01*
X162445609Y-127611119D01*
X162674210Y-127611119D01*
X162753315Y-127802567D01*
X162899662Y-127949170D01*
X163090972Y-128028609D01*
X163298119Y-128028790D01*
X163489567Y-127949685D01*
X163636170Y-127803338D01*
X163715609Y-127612028D01*
X163715609Y-127611119D01*
X164452210Y-127611119D01*
X164531315Y-127802567D01*
X164677662Y-127949170D01*
X164868972Y-128028609D01*
X165076119Y-128028790D01*
X165267567Y-127949685D01*
X165354022Y-127863381D01*
X165439662Y-127949170D01*
X165630972Y-128028609D01*
X165838119Y-128028790D01*
X166029567Y-127949685D01*
X166052411Y-127926880D01*
X166074662Y-127949170D01*
X166265972Y-128028609D01*
X166473119Y-128028790D01*
X166664567Y-127949685D01*
X166687411Y-127926880D01*
X166709662Y-127949170D01*
X166900972Y-128028609D01*
X167108119Y-128028790D01*
X167299567Y-127949685D01*
X167446170Y-127803338D01*
X167525609Y-127612028D01*
X167525790Y-127404881D01*
X167454031Y-127231211D01*
X182982297Y-127231211D01*
X183159664Y-127660472D01*
X183487801Y-127989181D01*
X183916751Y-128167297D01*
X184381211Y-128167703D01*
X184810472Y-127990336D01*
X185139181Y-127662199D01*
X185317297Y-127233249D01*
X185317703Y-126768789D01*
X185140336Y-126339528D01*
X184812199Y-126010819D01*
X184383249Y-125832703D01*
X183918789Y-125832297D01*
X183489528Y-126009664D01*
X183160819Y-126337801D01*
X182982703Y-126766751D01*
X182982297Y-127231211D01*
X167454031Y-127231211D01*
X167446685Y-127213433D01*
X167300338Y-127066830D01*
X167109028Y-126987391D01*
X166901881Y-126987210D01*
X166710433Y-127066315D01*
X166687589Y-127089120D01*
X166665338Y-127066830D01*
X166474028Y-126987391D01*
X166266881Y-126987210D01*
X166075433Y-127066315D01*
X166052589Y-127089120D01*
X166030338Y-127066830D01*
X165839028Y-126987391D01*
X165631881Y-126987210D01*
X165440433Y-127066315D01*
X165353978Y-127152619D01*
X165268338Y-127066830D01*
X165077028Y-126987391D01*
X164869881Y-126987210D01*
X164678433Y-127066315D01*
X164531830Y-127212662D01*
X164452391Y-127403972D01*
X164452210Y-127611119D01*
X163715609Y-127611119D01*
X163715790Y-127404881D01*
X163636685Y-127213433D01*
X163490338Y-127066830D01*
X163299028Y-126987391D01*
X163091881Y-126987210D01*
X162900433Y-127066315D01*
X162753830Y-127212662D01*
X162674391Y-127403972D01*
X162674210Y-127611119D01*
X162445609Y-127611119D01*
X162445790Y-127404881D01*
X162366685Y-127213433D01*
X162220338Y-127066830D01*
X162029028Y-126987391D01*
X161821881Y-126987210D01*
X161630433Y-127066315D01*
X161483830Y-127212662D01*
X161404391Y-127403972D01*
X161404210Y-127611119D01*
X161175609Y-127611119D01*
X161175790Y-127404881D01*
X161096685Y-127213433D01*
X160950338Y-127066830D01*
X160759028Y-126987391D01*
X160551881Y-126987210D01*
X160360433Y-127066315D01*
X160213830Y-127212662D01*
X160134391Y-127403972D01*
X160134210Y-127611119D01*
X159905609Y-127611119D01*
X159905790Y-127404881D01*
X159826685Y-127213433D01*
X159680338Y-127066830D01*
X159489028Y-126987391D01*
X159281881Y-126987210D01*
X159090433Y-127066315D01*
X158943830Y-127212662D01*
X158864391Y-127403972D01*
X158864210Y-127611119D01*
X157220391Y-127611119D01*
X157377297Y-127233249D01*
X157377703Y-126768789D01*
X157200336Y-126339528D01*
X156872199Y-126010819D01*
X156498765Y-125855755D01*
X169544890Y-125855755D01*
X169641360Y-126089228D01*
X169819832Y-126268013D01*
X170053137Y-126364889D01*
X170305755Y-126365110D01*
X170539228Y-126268640D01*
X170718013Y-126090168D01*
X170746243Y-126022183D01*
X170803632Y-126161074D01*
X171017798Y-126375615D01*
X171297764Y-126491867D01*
X171600906Y-126492132D01*
X171881074Y-126376368D01*
X172085168Y-126172630D01*
X172287798Y-126375615D01*
X172567764Y-126491867D01*
X172870906Y-126492132D01*
X173151074Y-126376368D01*
X173355168Y-126172630D01*
X173557798Y-126375615D01*
X173837764Y-126491867D01*
X174140906Y-126492132D01*
X174421074Y-126376368D01*
X174635615Y-126162202D01*
X174751867Y-125882236D01*
X174752132Y-125579094D01*
X174636368Y-125298926D01*
X174422202Y-125084385D01*
X174142236Y-124968133D01*
X173839094Y-124967868D01*
X173558926Y-125083632D01*
X173354832Y-125287370D01*
X173152202Y-125084385D01*
X172872236Y-124968133D01*
X172569094Y-124967868D01*
X172288926Y-125083632D01*
X172084832Y-125287370D01*
X171882202Y-125084385D01*
X171602236Y-124968133D01*
X171299094Y-124967868D01*
X171018926Y-125083632D01*
X170804385Y-125297798D01*
X170746293Y-125437698D01*
X170718640Y-125370772D01*
X170540168Y-125191987D01*
X170306863Y-125095111D01*
X170054245Y-125094890D01*
X169820772Y-125191360D01*
X169641987Y-125369832D01*
X169545111Y-125603137D01*
X169544890Y-125855755D01*
X156498765Y-125855755D01*
X156443249Y-125832703D01*
X155978789Y-125832297D01*
X155549528Y-126009664D01*
X155220819Y-126337801D01*
X155042703Y-126766751D01*
X155042297Y-127231211D01*
X154368500Y-127231211D01*
X154368500Y-124691211D01*
X155042297Y-124691211D01*
X155219664Y-125120472D01*
X155547801Y-125449181D01*
X155976751Y-125627297D01*
X156441211Y-125627703D01*
X156870472Y-125450336D01*
X157199181Y-125122199D01*
X157377297Y-124693249D01*
X157377298Y-124691211D01*
X182982297Y-124691211D01*
X183159664Y-125120472D01*
X183487801Y-125449181D01*
X183916751Y-125627297D01*
X184381211Y-125627703D01*
X184810472Y-125450336D01*
X185139181Y-125122199D01*
X185317297Y-124693249D01*
X185317703Y-124228789D01*
X185140336Y-123799528D01*
X184812199Y-123470819D01*
X184383249Y-123292703D01*
X183918789Y-123292297D01*
X183489528Y-123469664D01*
X183160819Y-123797801D01*
X182982703Y-124226751D01*
X182982297Y-124691211D01*
X157377298Y-124691211D01*
X157377703Y-124228789D01*
X157200336Y-123799528D01*
X156872199Y-123470819D01*
X156444251Y-123293119D01*
X158229210Y-123293119D01*
X158308315Y-123484567D01*
X158454662Y-123631170D01*
X158645972Y-123710609D01*
X158853119Y-123710790D01*
X159044567Y-123631685D01*
X159191170Y-123485338D01*
X159270609Y-123294028D01*
X159270609Y-123293119D01*
X164579210Y-123293119D01*
X164658315Y-123484567D01*
X164804662Y-123631170D01*
X164995972Y-123710609D01*
X165203119Y-123710790D01*
X165394567Y-123631685D01*
X165541170Y-123485338D01*
X165620609Y-123294028D01*
X165620790Y-123086881D01*
X165613059Y-123068171D01*
X165630972Y-123075609D01*
X165838119Y-123075790D01*
X165856829Y-123068059D01*
X165849391Y-123085972D01*
X165849210Y-123293119D01*
X165928315Y-123484567D01*
X166074662Y-123631170D01*
X166265972Y-123710609D01*
X166473119Y-123710790D01*
X166664567Y-123631685D01*
X166811170Y-123485338D01*
X166890609Y-123294028D01*
X166890790Y-123086881D01*
X166811685Y-122895433D01*
X166665338Y-122748830D01*
X166474028Y-122669391D01*
X166266881Y-122669210D01*
X166248171Y-122676941D01*
X166255609Y-122659028D01*
X166255790Y-122451881D01*
X166176685Y-122260433D01*
X166153880Y-122237589D01*
X166176170Y-122215338D01*
X166202797Y-122151211D01*
X182982297Y-122151211D01*
X183159664Y-122580472D01*
X183487801Y-122909181D01*
X183916751Y-123087297D01*
X184381211Y-123087703D01*
X184810472Y-122910336D01*
X185139181Y-122582199D01*
X185317297Y-122153249D01*
X185317703Y-121688789D01*
X185140336Y-121259528D01*
X184812199Y-120930819D01*
X184383249Y-120752703D01*
X183918789Y-120752297D01*
X183489528Y-120929664D01*
X183160819Y-121257801D01*
X182982703Y-121686751D01*
X182982297Y-122151211D01*
X166202797Y-122151211D01*
X166255609Y-122024028D01*
X166255790Y-121816881D01*
X166209818Y-121705619D01*
X168389210Y-121705619D01*
X168468315Y-121897067D01*
X168614662Y-122043670D01*
X168805972Y-122123109D01*
X169013119Y-122123290D01*
X169204567Y-122044185D01*
X169351170Y-121897838D01*
X169430609Y-121706528D01*
X169430790Y-121499381D01*
X169394171Y-121410755D01*
X169544890Y-121410755D01*
X169641360Y-121644228D01*
X169819832Y-121823013D01*
X170053137Y-121919889D01*
X170305755Y-121920110D01*
X170539228Y-121823640D01*
X170718013Y-121645168D01*
X170814889Y-121411863D01*
X170815110Y-121159245D01*
X170718640Y-120925772D01*
X170593993Y-120800906D01*
X170687868Y-120800906D01*
X170803632Y-121081074D01*
X171017798Y-121295615D01*
X171297764Y-121411867D01*
X171600906Y-121412132D01*
X171881074Y-121296368D01*
X172085168Y-121092630D01*
X172287798Y-121295615D01*
X172567764Y-121411867D01*
X172870906Y-121412132D01*
X173151074Y-121296368D01*
X173355168Y-121092630D01*
X173557798Y-121295615D01*
X173837764Y-121411867D01*
X174140906Y-121412132D01*
X174421074Y-121296368D01*
X174635615Y-121082202D01*
X174751867Y-120802236D01*
X174752132Y-120499094D01*
X174636368Y-120218926D01*
X174626670Y-120209211D01*
X183410591Y-120209211D01*
X183502685Y-120378985D01*
X183934254Y-120550658D01*
X184398668Y-120544110D01*
X184797315Y-120378985D01*
X184889409Y-120209211D01*
X184150000Y-119469803D01*
X183410591Y-120209211D01*
X174626670Y-120209211D01*
X174422202Y-120004385D01*
X174142236Y-119888133D01*
X173839094Y-119887868D01*
X173558926Y-120003632D01*
X173354832Y-120207370D01*
X173152202Y-120004385D01*
X172872236Y-119888133D01*
X172569094Y-119887868D01*
X172288926Y-120003632D01*
X172084832Y-120207370D01*
X171882202Y-120004385D01*
X171602236Y-119888133D01*
X171299094Y-119887868D01*
X171018926Y-120003632D01*
X170804385Y-120217798D01*
X170688133Y-120497764D01*
X170687868Y-120800906D01*
X170593993Y-120800906D01*
X170540168Y-120746987D01*
X170306863Y-120650111D01*
X170054245Y-120649890D01*
X169820772Y-120746360D01*
X169641987Y-120924832D01*
X169545111Y-121158137D01*
X169544890Y-121410755D01*
X169394171Y-121410755D01*
X169351685Y-121307933D01*
X169205338Y-121161330D01*
X169014028Y-121081891D01*
X168806881Y-121081710D01*
X168615433Y-121160815D01*
X168468830Y-121307162D01*
X168389391Y-121498472D01*
X168389210Y-121705619D01*
X166209818Y-121705619D01*
X166176685Y-121625433D01*
X166030338Y-121478830D01*
X165839028Y-121399391D01*
X165631881Y-121399210D01*
X165440433Y-121478315D01*
X165293830Y-121624662D01*
X165214391Y-121815972D01*
X165214210Y-122023119D01*
X165293315Y-122214567D01*
X165316120Y-122237411D01*
X165293830Y-122259662D01*
X165214391Y-122450972D01*
X165214210Y-122658119D01*
X165221941Y-122676829D01*
X165204028Y-122669391D01*
X164996881Y-122669210D01*
X164805433Y-122748315D01*
X164658830Y-122894662D01*
X164579391Y-123085972D01*
X164579210Y-123293119D01*
X159270609Y-123293119D01*
X159270790Y-123086881D01*
X159191685Y-122895433D01*
X159045338Y-122748830D01*
X158854028Y-122669391D01*
X158646881Y-122669210D01*
X158455433Y-122748315D01*
X158308830Y-122894662D01*
X158229391Y-123085972D01*
X158229210Y-123293119D01*
X156444251Y-123293119D01*
X156443249Y-123292703D01*
X155978789Y-123292297D01*
X155549528Y-123469664D01*
X155220819Y-123797801D01*
X155042703Y-124226751D01*
X155042297Y-124691211D01*
X154368500Y-124691211D01*
X154368500Y-122151211D01*
X155042297Y-122151211D01*
X155219664Y-122580472D01*
X155547801Y-122909181D01*
X155976751Y-123087297D01*
X156441211Y-123087703D01*
X156870472Y-122910336D01*
X157199181Y-122582199D01*
X157377297Y-122153249D01*
X157377410Y-122023119D01*
X158229210Y-122023119D01*
X158308315Y-122214567D01*
X158454662Y-122361170D01*
X158645972Y-122440609D01*
X158853119Y-122440790D01*
X159044567Y-122361685D01*
X159191170Y-122215338D01*
X159270609Y-122024028D01*
X159270790Y-121816881D01*
X159191685Y-121625433D01*
X159045338Y-121478830D01*
X158854028Y-121399391D01*
X158646881Y-121399210D01*
X158455433Y-121478315D01*
X158308830Y-121624662D01*
X158229391Y-121815972D01*
X158229210Y-122023119D01*
X157377410Y-122023119D01*
X157377703Y-121688789D01*
X157200336Y-121259528D01*
X156872199Y-120930819D01*
X156443249Y-120752703D01*
X155978789Y-120752297D01*
X155549528Y-120929664D01*
X155220819Y-121257801D01*
X155042703Y-121686751D01*
X155042297Y-122151211D01*
X154368500Y-122151211D01*
X154368500Y-120209211D01*
X155470591Y-120209211D01*
X155562685Y-120378985D01*
X155994254Y-120550658D01*
X156458668Y-120544110D01*
X156857315Y-120378985D01*
X156949409Y-120209211D01*
X156210000Y-119469803D01*
X155470591Y-120209211D01*
X154368500Y-120209211D01*
X154368500Y-119164254D01*
X155039342Y-119164254D01*
X155045890Y-119628668D01*
X155211015Y-120027315D01*
X155380789Y-120119409D01*
X156120197Y-119380000D01*
X156299803Y-119380000D01*
X157039211Y-120119409D01*
X157208985Y-120027315D01*
X157380658Y-119595746D01*
X157374575Y-119164254D01*
X182979342Y-119164254D01*
X182985890Y-119628668D01*
X183151015Y-120027315D01*
X183320789Y-120119409D01*
X184060197Y-119380000D01*
X184239803Y-119380000D01*
X184979211Y-120119409D01*
X185148985Y-120027315D01*
X185320658Y-119595746D01*
X185314110Y-119131332D01*
X185148985Y-118732685D01*
X184979211Y-118640591D01*
X184239803Y-119380000D01*
X184060197Y-119380000D01*
X183320789Y-118640591D01*
X183151015Y-118732685D01*
X182979342Y-119164254D01*
X157374575Y-119164254D01*
X157374110Y-119131332D01*
X157208985Y-118732685D01*
X157039211Y-118640591D01*
X156299803Y-119380000D01*
X156120197Y-119380000D01*
X155380789Y-118640591D01*
X155211015Y-118732685D01*
X155039342Y-119164254D01*
X154368500Y-119164254D01*
X154368500Y-118550789D01*
X155470591Y-118550789D01*
X156210000Y-119290197D01*
X156949409Y-118550789D01*
X156857315Y-118381015D01*
X156435242Y-118213119D01*
X159499210Y-118213119D01*
X159578315Y-118404567D01*
X159724662Y-118551170D01*
X159915972Y-118630609D01*
X160123119Y-118630790D01*
X160314567Y-118551685D01*
X160461170Y-118405338D01*
X160540609Y-118214028D01*
X160540609Y-118213119D01*
X160769210Y-118213119D01*
X160848315Y-118404567D01*
X160994662Y-118551170D01*
X161185972Y-118630609D01*
X161393119Y-118630790D01*
X161584567Y-118551685D01*
X161731170Y-118405338D01*
X161810609Y-118214028D01*
X161810609Y-118213119D01*
X162039210Y-118213119D01*
X162118315Y-118404567D01*
X162264662Y-118551170D01*
X162455972Y-118630609D01*
X162663119Y-118630790D01*
X162854567Y-118551685D01*
X163001170Y-118405338D01*
X163080609Y-118214028D01*
X163080609Y-118213119D01*
X163309210Y-118213119D01*
X163388315Y-118404567D01*
X163534662Y-118551170D01*
X163725972Y-118630609D01*
X163933119Y-118630790D01*
X164124567Y-118551685D01*
X164271170Y-118405338D01*
X164350609Y-118214028D01*
X164350609Y-118213119D01*
X164579210Y-118213119D01*
X164658315Y-118404567D01*
X164804662Y-118551170D01*
X164995972Y-118630609D01*
X165203119Y-118630790D01*
X165394567Y-118551685D01*
X165417411Y-118528880D01*
X165439662Y-118551170D01*
X165630972Y-118630609D01*
X165838119Y-118630790D01*
X166029567Y-118551685D01*
X166052411Y-118528880D01*
X166074662Y-118551170D01*
X166265972Y-118630609D01*
X166473119Y-118630790D01*
X166664567Y-118551685D01*
X166811170Y-118405338D01*
X166890609Y-118214028D01*
X166890609Y-118213119D01*
X168389210Y-118213119D01*
X168468315Y-118404567D01*
X168614662Y-118551170D01*
X168805972Y-118630609D01*
X169013119Y-118630790D01*
X169204567Y-118551685D01*
X169205464Y-118550789D01*
X183410591Y-118550789D01*
X184150000Y-119290197D01*
X184889409Y-118550789D01*
X184797315Y-118381015D01*
X184365746Y-118209342D01*
X183901332Y-118215890D01*
X183502685Y-118381015D01*
X183410591Y-118550789D01*
X169205464Y-118550789D01*
X169351170Y-118405338D01*
X169430609Y-118214028D01*
X169430790Y-118006881D01*
X169351685Y-117815433D01*
X169205338Y-117668830D01*
X169014028Y-117589391D01*
X168806881Y-117589210D01*
X168615433Y-117668315D01*
X168468830Y-117814662D01*
X168389391Y-118005972D01*
X168389210Y-118213119D01*
X166890609Y-118213119D01*
X166890790Y-118006881D01*
X166811685Y-117815433D01*
X166665338Y-117668830D01*
X166474028Y-117589391D01*
X166266881Y-117589210D01*
X166075433Y-117668315D01*
X166052589Y-117691120D01*
X166030338Y-117668830D01*
X165839028Y-117589391D01*
X165631881Y-117589210D01*
X165440433Y-117668315D01*
X165417589Y-117691120D01*
X165395338Y-117668830D01*
X165204028Y-117589391D01*
X164996881Y-117589210D01*
X164805433Y-117668315D01*
X164658830Y-117814662D01*
X164579391Y-118005972D01*
X164579210Y-118213119D01*
X164350609Y-118213119D01*
X164350790Y-118006881D01*
X164271685Y-117815433D01*
X164125338Y-117668830D01*
X163934028Y-117589391D01*
X163726881Y-117589210D01*
X163535433Y-117668315D01*
X163388830Y-117814662D01*
X163309391Y-118005972D01*
X163309210Y-118213119D01*
X163080609Y-118213119D01*
X163080790Y-118006881D01*
X163001685Y-117815433D01*
X162855338Y-117668830D01*
X162664028Y-117589391D01*
X162456881Y-117589210D01*
X162265433Y-117668315D01*
X162118830Y-117814662D01*
X162039391Y-118005972D01*
X162039210Y-118213119D01*
X161810609Y-118213119D01*
X161810790Y-118006881D01*
X161731685Y-117815433D01*
X161585338Y-117668830D01*
X161394028Y-117589391D01*
X161186881Y-117589210D01*
X160995433Y-117668315D01*
X160848830Y-117814662D01*
X160769391Y-118005972D01*
X160769210Y-118213119D01*
X160540609Y-118213119D01*
X160540790Y-118006881D01*
X160461685Y-117815433D01*
X160315338Y-117668830D01*
X160124028Y-117589391D01*
X159916881Y-117589210D01*
X159725433Y-117668315D01*
X159578830Y-117814662D01*
X159499391Y-118005972D01*
X159499210Y-118213119D01*
X156435242Y-118213119D01*
X156425746Y-118209342D01*
X155961332Y-118215890D01*
X155562685Y-118381015D01*
X155470591Y-118550789D01*
X154368500Y-118550789D01*
X154368500Y-117071211D01*
X155042297Y-117071211D01*
X155219664Y-117500472D01*
X155547801Y-117829181D01*
X155976751Y-118007297D01*
X156441211Y-118007703D01*
X156870472Y-117830336D01*
X157123128Y-117578119D01*
X176009210Y-117578119D01*
X176088315Y-117769567D01*
X176234662Y-117916170D01*
X176425972Y-117995609D01*
X176633119Y-117995790D01*
X176824567Y-117916685D01*
X176971170Y-117770338D01*
X177050609Y-117579028D01*
X177050609Y-117578119D01*
X182359210Y-117578119D01*
X182438315Y-117769567D01*
X182584662Y-117916170D01*
X182775972Y-117995609D01*
X182983119Y-117995790D01*
X183174567Y-117916685D01*
X183321170Y-117770338D01*
X183352865Y-117694009D01*
X183487801Y-117829181D01*
X183916751Y-118007297D01*
X184381211Y-118007703D01*
X184810472Y-117830336D01*
X185139181Y-117502199D01*
X185317297Y-117073249D01*
X185317703Y-116608789D01*
X185140336Y-116179528D01*
X184812199Y-115850819D01*
X184383249Y-115672703D01*
X183918789Y-115672297D01*
X183489528Y-115849664D01*
X183160819Y-116177801D01*
X182982703Y-116606751D01*
X182982399Y-116954390D01*
X182776881Y-116954210D01*
X182585433Y-117033315D01*
X182438830Y-117179662D01*
X182359391Y-117370972D01*
X182359210Y-117578119D01*
X177050609Y-117578119D01*
X177050790Y-117371881D01*
X176971685Y-117180433D01*
X176825338Y-117033830D01*
X176634028Y-116954391D01*
X176426881Y-116954210D01*
X176235433Y-117033315D01*
X176088830Y-117179662D01*
X176009391Y-117370972D01*
X176009210Y-117578119D01*
X157123128Y-117578119D01*
X157199181Y-117502199D01*
X157377297Y-117073249D01*
X157377410Y-116943119D01*
X177279210Y-116943119D01*
X177358315Y-117134567D01*
X177504662Y-117281170D01*
X177695972Y-117360609D01*
X177903119Y-117360790D01*
X178094567Y-117281685D01*
X178241170Y-117135338D01*
X178320609Y-116944028D01*
X178320790Y-116736881D01*
X178241685Y-116545433D01*
X178095338Y-116398830D01*
X177904028Y-116319391D01*
X177696881Y-116319210D01*
X177505433Y-116398315D01*
X177358830Y-116544662D01*
X177279391Y-116735972D01*
X177279210Y-116943119D01*
X157377410Y-116943119D01*
X157377703Y-116608789D01*
X157253469Y-116308119D01*
X178549210Y-116308119D01*
X178628315Y-116499567D01*
X178774662Y-116646170D01*
X178965972Y-116725609D01*
X179173119Y-116725790D01*
X179364567Y-116646685D01*
X179511170Y-116500338D01*
X179590609Y-116309028D01*
X179590790Y-116101881D01*
X179511685Y-115910433D01*
X179365338Y-115763830D01*
X179174028Y-115684391D01*
X178966881Y-115684210D01*
X178775433Y-115763315D01*
X178628830Y-115909662D01*
X178549391Y-116100972D01*
X178549210Y-116308119D01*
X157253469Y-116308119D01*
X157200336Y-116179528D01*
X156872199Y-115850819D01*
X156444251Y-115673119D01*
X179819210Y-115673119D01*
X179898315Y-115864567D01*
X180044662Y-116011170D01*
X180235972Y-116090609D01*
X180443119Y-116090790D01*
X180634567Y-116011685D01*
X180781170Y-115865338D01*
X180860609Y-115674028D01*
X180860790Y-115466881D01*
X180781685Y-115275433D01*
X180635338Y-115128830D01*
X180444028Y-115049391D01*
X180236881Y-115049210D01*
X180045433Y-115128315D01*
X179898830Y-115274662D01*
X179819391Y-115465972D01*
X179819210Y-115673119D01*
X156444251Y-115673119D01*
X156443249Y-115672703D01*
X155978789Y-115672297D01*
X155549528Y-115849664D01*
X155220819Y-116177801D01*
X155042703Y-116606751D01*
X155042297Y-117071211D01*
X154368500Y-117071211D01*
X154368500Y-114531211D01*
X155042297Y-114531211D01*
X155219664Y-114960472D01*
X155547801Y-115289181D01*
X155976751Y-115467297D01*
X156441211Y-115467703D01*
X156870472Y-115290336D01*
X157100453Y-115060755D01*
X169544890Y-115060755D01*
X169641360Y-115294228D01*
X169819832Y-115473013D01*
X170053137Y-115569889D01*
X170305755Y-115570110D01*
X170539228Y-115473640D01*
X170718013Y-115295168D01*
X170814889Y-115061863D01*
X170815110Y-114809245D01*
X170718640Y-114575772D01*
X170674158Y-114531211D01*
X182982297Y-114531211D01*
X183159664Y-114960472D01*
X183487801Y-115289181D01*
X183916751Y-115467297D01*
X184381211Y-115467703D01*
X184810472Y-115290336D01*
X185139181Y-114962199D01*
X185317297Y-114533249D01*
X185317703Y-114068789D01*
X185140336Y-113639528D01*
X184812199Y-113310819D01*
X184383249Y-113132703D01*
X183918789Y-113132297D01*
X183489528Y-113309664D01*
X183160819Y-113637801D01*
X182982703Y-114066751D01*
X182982297Y-114531211D01*
X170674158Y-114531211D01*
X170540168Y-114396987D01*
X170306863Y-114300111D01*
X170054245Y-114299890D01*
X169820772Y-114396360D01*
X169641987Y-114574832D01*
X169545111Y-114808137D01*
X169544890Y-115060755D01*
X157100453Y-115060755D01*
X157199181Y-114962199D01*
X157377297Y-114533249D01*
X157377410Y-114403119D01*
X162674210Y-114403119D01*
X162753315Y-114594567D01*
X162899662Y-114741170D01*
X163090972Y-114820609D01*
X163298119Y-114820790D01*
X163489567Y-114741685D01*
X163636170Y-114595338D01*
X163715609Y-114404028D01*
X163715790Y-114196881D01*
X163636685Y-114005433D01*
X163490338Y-113858830D01*
X163299028Y-113779391D01*
X163091881Y-113779210D01*
X162900433Y-113858315D01*
X162753830Y-114004662D01*
X162674391Y-114195972D01*
X162674210Y-114403119D01*
X157377410Y-114403119D01*
X157377703Y-114068789D01*
X157200336Y-113639528D01*
X156872199Y-113310819D01*
X156443249Y-113132703D01*
X155978789Y-113132297D01*
X155549528Y-113309664D01*
X155220819Y-113637801D01*
X155042703Y-114066751D01*
X155042297Y-114531211D01*
X154368500Y-114531211D01*
X154368500Y-111991211D01*
X155042297Y-111991211D01*
X155219664Y-112420472D01*
X155547801Y-112749181D01*
X155976751Y-112927297D01*
X156441211Y-112927703D01*
X156870472Y-112750336D01*
X157199181Y-112422199D01*
X157377297Y-111993249D01*
X157377298Y-111991211D01*
X182982297Y-111991211D01*
X183159664Y-112420472D01*
X183487801Y-112749181D01*
X183916751Y-112927297D01*
X184381211Y-112927703D01*
X184810472Y-112750336D01*
X185139181Y-112422199D01*
X185317297Y-111993249D01*
X185317703Y-111528789D01*
X185140336Y-111099528D01*
X184812199Y-110770819D01*
X184383249Y-110592703D01*
X183918789Y-110592297D01*
X183489528Y-110769664D01*
X183160819Y-111097801D01*
X182982703Y-111526751D01*
X182982297Y-111991211D01*
X157377298Y-111991211D01*
X157377703Y-111528789D01*
X157200336Y-111099528D01*
X156872199Y-110770819D01*
X156443249Y-110592703D01*
X155978789Y-110592297D01*
X155549528Y-110769664D01*
X155220819Y-111097801D01*
X155042703Y-111526751D01*
X155042297Y-111991211D01*
X154368500Y-111991211D01*
X154368500Y-109451211D01*
X155042297Y-109451211D01*
X155219664Y-109880472D01*
X155547801Y-110209181D01*
X155976751Y-110387297D01*
X156441211Y-110387703D01*
X156870472Y-110210336D01*
X157199181Y-109882199D01*
X157377297Y-109453249D01*
X157377410Y-109323119D01*
X161404210Y-109323119D01*
X161483315Y-109514567D01*
X161629662Y-109661170D01*
X161820972Y-109740609D01*
X162028119Y-109740790D01*
X162219567Y-109661685D01*
X162366170Y-109515338D01*
X162445609Y-109324028D01*
X162445609Y-109323119D01*
X176644210Y-109323119D01*
X176723315Y-109514567D01*
X176869662Y-109661170D01*
X177060972Y-109740609D01*
X177268119Y-109740790D01*
X177459567Y-109661685D01*
X177606170Y-109515338D01*
X177632797Y-109451211D01*
X182982297Y-109451211D01*
X183159664Y-109880472D01*
X183487801Y-110209181D01*
X183916751Y-110387297D01*
X184381211Y-110387703D01*
X184810472Y-110210336D01*
X185139181Y-109882199D01*
X185317297Y-109453249D01*
X185317703Y-108988789D01*
X185140336Y-108559528D01*
X184812199Y-108230819D01*
X184383249Y-108052703D01*
X183918789Y-108052297D01*
X183489528Y-108229664D01*
X183160819Y-108557801D01*
X182982703Y-108986751D01*
X182982297Y-109451211D01*
X177632797Y-109451211D01*
X177685609Y-109324028D01*
X177685790Y-109116881D01*
X177606685Y-108925433D01*
X177460338Y-108778830D01*
X177269028Y-108699391D01*
X177061881Y-108699210D01*
X176870433Y-108778315D01*
X176723830Y-108924662D01*
X176644391Y-109115972D01*
X176644210Y-109323119D01*
X162445609Y-109323119D01*
X162445790Y-109116881D01*
X162366685Y-108925433D01*
X162220338Y-108778830D01*
X162029028Y-108699391D01*
X161821881Y-108699210D01*
X161630433Y-108778315D01*
X161483830Y-108924662D01*
X161404391Y-109115972D01*
X161404210Y-109323119D01*
X157377410Y-109323119D01*
X157377703Y-108988789D01*
X157200336Y-108559528D01*
X156872199Y-108230819D01*
X156498765Y-108075755D01*
X158114890Y-108075755D01*
X158211360Y-108309228D01*
X158389832Y-108488013D01*
X158623137Y-108584889D01*
X158875755Y-108585110D01*
X159109228Y-108488640D01*
X159288013Y-108310168D01*
X159384889Y-108076863D01*
X159384889Y-108075755D01*
X180974890Y-108075755D01*
X181071360Y-108309228D01*
X181249832Y-108488013D01*
X181483137Y-108584889D01*
X181735755Y-108585110D01*
X181969228Y-108488640D01*
X182148013Y-108310168D01*
X182244889Y-108076863D01*
X182245110Y-107824245D01*
X182148640Y-107590772D01*
X181970168Y-107411987D01*
X181736863Y-107315111D01*
X181484245Y-107314890D01*
X181250772Y-107411360D01*
X181071987Y-107589832D01*
X180975111Y-107823137D01*
X180974890Y-108075755D01*
X159384889Y-108075755D01*
X159385110Y-107824245D01*
X159288640Y-107590772D01*
X159110168Y-107411987D01*
X158876863Y-107315111D01*
X158624245Y-107314890D01*
X158390772Y-107411360D01*
X158211987Y-107589832D01*
X158115111Y-107823137D01*
X158114890Y-108075755D01*
X156498765Y-108075755D01*
X156443249Y-108052703D01*
X155978789Y-108052297D01*
X155549528Y-108229664D01*
X155220819Y-108557801D01*
X155042703Y-108986751D01*
X155042297Y-109451211D01*
X154368500Y-109451211D01*
X154368500Y-106911211D01*
X155042297Y-106911211D01*
X155219664Y-107340472D01*
X155547801Y-107669181D01*
X155976751Y-107847297D01*
X156441211Y-107847703D01*
X156870472Y-107670336D01*
X157199181Y-107342199D01*
X157377297Y-106913249D01*
X157377298Y-106911211D01*
X182982297Y-106911211D01*
X183159664Y-107340472D01*
X183487801Y-107669181D01*
X183916751Y-107847297D01*
X184381211Y-107847703D01*
X184810472Y-107670336D01*
X185139181Y-107342199D01*
X185317297Y-106913249D01*
X185317703Y-106448789D01*
X185140336Y-106019528D01*
X184812199Y-105690819D01*
X184383249Y-105512703D01*
X183918789Y-105512297D01*
X183489528Y-105689664D01*
X183160819Y-106017801D01*
X182982703Y-106446751D01*
X182982297Y-106911211D01*
X157377298Y-106911211D01*
X157377703Y-106448789D01*
X157200336Y-106019528D01*
X156872199Y-105690819D01*
X156443249Y-105512703D01*
X155978789Y-105512297D01*
X155549528Y-105689664D01*
X155220819Y-106017801D01*
X155042703Y-106446751D01*
X155042297Y-106911211D01*
X154368500Y-106911211D01*
X154368500Y-104371211D01*
X155042297Y-104371211D01*
X155219664Y-104800472D01*
X155547801Y-105129181D01*
X155976751Y-105307297D01*
X156441211Y-105307703D01*
X156870472Y-105130336D01*
X157199181Y-104802199D01*
X157377297Y-104373249D01*
X157377410Y-104243119D01*
X160134210Y-104243119D01*
X160213315Y-104434567D01*
X160359662Y-104581170D01*
X160550972Y-104660609D01*
X160758119Y-104660790D01*
X160949567Y-104581685D01*
X161096170Y-104435338D01*
X161175609Y-104244028D01*
X161175609Y-104243119D01*
X177914210Y-104243119D01*
X177993315Y-104434567D01*
X178139662Y-104581170D01*
X178330972Y-104660609D01*
X178538119Y-104660790D01*
X178729567Y-104581685D01*
X178876170Y-104435338D01*
X178902797Y-104371211D01*
X182982297Y-104371211D01*
X183159664Y-104800472D01*
X183487801Y-105129181D01*
X183916751Y-105307297D01*
X184381211Y-105307703D01*
X184810472Y-105130336D01*
X185139181Y-104802199D01*
X185317297Y-104373249D01*
X185317703Y-103908789D01*
X185140336Y-103479528D01*
X184812199Y-103150819D01*
X184383249Y-102972703D01*
X183918789Y-102972297D01*
X183489528Y-103149664D01*
X183160819Y-103477801D01*
X182982703Y-103906751D01*
X182982297Y-104371211D01*
X178902797Y-104371211D01*
X178955609Y-104244028D01*
X178955790Y-104036881D01*
X178876685Y-103845433D01*
X178730338Y-103698830D01*
X178539028Y-103619391D01*
X178331881Y-103619210D01*
X178140433Y-103698315D01*
X177993830Y-103844662D01*
X177914391Y-104035972D01*
X177914210Y-104243119D01*
X161175609Y-104243119D01*
X161175790Y-104036881D01*
X161096685Y-103845433D01*
X160950338Y-103698830D01*
X160759028Y-103619391D01*
X160551881Y-103619210D01*
X160360433Y-103698315D01*
X160213830Y-103844662D01*
X160134391Y-104035972D01*
X160134210Y-104243119D01*
X157377410Y-104243119D01*
X157377703Y-103908789D01*
X157200336Y-103479528D01*
X156872199Y-103150819D01*
X156498765Y-102995755D01*
X158114890Y-102995755D01*
X158211360Y-103229228D01*
X158389832Y-103408013D01*
X158623137Y-103504889D01*
X158875755Y-103505110D01*
X159109228Y-103408640D01*
X159288013Y-103230168D01*
X159384889Y-102996863D01*
X159384889Y-102995755D01*
X180974890Y-102995755D01*
X181071360Y-103229228D01*
X181249832Y-103408013D01*
X181483137Y-103504889D01*
X181735755Y-103505110D01*
X181969228Y-103408640D01*
X182148013Y-103230168D01*
X182244889Y-102996863D01*
X182245110Y-102744245D01*
X182148640Y-102510772D01*
X181970168Y-102331987D01*
X181736863Y-102235111D01*
X181484245Y-102234890D01*
X181250772Y-102331360D01*
X181071987Y-102509832D01*
X180975111Y-102743137D01*
X180974890Y-102995755D01*
X159384889Y-102995755D01*
X159385110Y-102744245D01*
X159288640Y-102510772D01*
X159110168Y-102331987D01*
X158876863Y-102235111D01*
X158624245Y-102234890D01*
X158390772Y-102331360D01*
X158211987Y-102509832D01*
X158115111Y-102743137D01*
X158114890Y-102995755D01*
X156498765Y-102995755D01*
X156443249Y-102972703D01*
X155978789Y-102972297D01*
X155549528Y-103149664D01*
X155220819Y-103477801D01*
X155042703Y-103906751D01*
X155042297Y-104371211D01*
X154368500Y-104371211D01*
X154368500Y-101831211D01*
X155042297Y-101831211D01*
X155219664Y-102260472D01*
X155547801Y-102589181D01*
X155976751Y-102767297D01*
X156441211Y-102767703D01*
X156870472Y-102590336D01*
X157199181Y-102262199D01*
X157377297Y-101833249D01*
X157377298Y-101831211D01*
X182982297Y-101831211D01*
X183159664Y-102260472D01*
X183487801Y-102589181D01*
X183916751Y-102767297D01*
X184381211Y-102767703D01*
X184810472Y-102590336D01*
X185139181Y-102262199D01*
X185317297Y-101833249D01*
X185317703Y-101368789D01*
X185140336Y-100939528D01*
X184812199Y-100610819D01*
X184383249Y-100432703D01*
X183918789Y-100432297D01*
X183489528Y-100609664D01*
X183160819Y-100937801D01*
X182982703Y-101366751D01*
X182982297Y-101831211D01*
X157377298Y-101831211D01*
X157377703Y-101368789D01*
X157200336Y-100939528D01*
X156872199Y-100610819D01*
X156443249Y-100432703D01*
X155978789Y-100432297D01*
X155549528Y-100609664D01*
X155220819Y-100937801D01*
X155042703Y-101366751D01*
X155042297Y-101831211D01*
X154368500Y-101831211D01*
X154368500Y-99291211D01*
X155042297Y-99291211D01*
X155219664Y-99720472D01*
X155547801Y-100049181D01*
X155976751Y-100227297D01*
X156441211Y-100227703D01*
X156870472Y-100050336D01*
X157199181Y-99722199D01*
X157377297Y-99293249D01*
X157377410Y-99163119D01*
X158864210Y-99163119D01*
X158943315Y-99354567D01*
X159089662Y-99501170D01*
X159280972Y-99580609D01*
X159488119Y-99580790D01*
X159679567Y-99501685D01*
X159826170Y-99355338D01*
X159905609Y-99164028D01*
X159905609Y-99163119D01*
X179184210Y-99163119D01*
X179263315Y-99354567D01*
X179409662Y-99501170D01*
X179600972Y-99580609D01*
X179808119Y-99580790D01*
X179999567Y-99501685D01*
X180146170Y-99355338D01*
X180172797Y-99291211D01*
X182982297Y-99291211D01*
X183159664Y-99720472D01*
X183487801Y-100049181D01*
X183916751Y-100227297D01*
X184381211Y-100227703D01*
X184810472Y-100050336D01*
X185139181Y-99722199D01*
X185317297Y-99293249D01*
X185317703Y-98828789D01*
X185140336Y-98399528D01*
X184812199Y-98070819D01*
X184383249Y-97892703D01*
X183918789Y-97892297D01*
X183489528Y-98069664D01*
X183160819Y-98397801D01*
X182982703Y-98826751D01*
X182982297Y-99291211D01*
X180172797Y-99291211D01*
X180225609Y-99164028D01*
X180225790Y-98956881D01*
X180146685Y-98765433D01*
X180000338Y-98618830D01*
X179809028Y-98539391D01*
X179601881Y-98539210D01*
X179410433Y-98618315D01*
X179263830Y-98764662D01*
X179184391Y-98955972D01*
X179184210Y-99163119D01*
X159905609Y-99163119D01*
X159905790Y-98956881D01*
X159826685Y-98765433D01*
X159680338Y-98618830D01*
X159489028Y-98539391D01*
X159281881Y-98539210D01*
X159090433Y-98618315D01*
X158943830Y-98764662D01*
X158864391Y-98955972D01*
X158864210Y-99163119D01*
X157377410Y-99163119D01*
X157377703Y-98828789D01*
X157200336Y-98399528D01*
X156872199Y-98070819D01*
X156498765Y-97915755D01*
X158114890Y-97915755D01*
X158211360Y-98149228D01*
X158389832Y-98328013D01*
X158623137Y-98424889D01*
X158875755Y-98425110D01*
X159109228Y-98328640D01*
X159288013Y-98150168D01*
X159384889Y-97916863D01*
X159384889Y-97915755D01*
X180974890Y-97915755D01*
X181071360Y-98149228D01*
X181249832Y-98328013D01*
X181483137Y-98424889D01*
X181735755Y-98425110D01*
X181969228Y-98328640D01*
X182148013Y-98150168D01*
X182244889Y-97916863D01*
X182245110Y-97664245D01*
X182148640Y-97430772D01*
X182067222Y-97349211D01*
X183410591Y-97349211D01*
X183502685Y-97518985D01*
X183934254Y-97690658D01*
X184398668Y-97684110D01*
X184797315Y-97518985D01*
X184889409Y-97349211D01*
X184150000Y-96609803D01*
X183410591Y-97349211D01*
X182067222Y-97349211D01*
X181970168Y-97251987D01*
X181736863Y-97155111D01*
X181484245Y-97154890D01*
X181250772Y-97251360D01*
X181071987Y-97429832D01*
X180975111Y-97663137D01*
X180974890Y-97915755D01*
X159384889Y-97915755D01*
X159385110Y-97664245D01*
X159288640Y-97430772D01*
X159110168Y-97251987D01*
X158876863Y-97155111D01*
X158624245Y-97154890D01*
X158390772Y-97251360D01*
X158211987Y-97429832D01*
X158115111Y-97663137D01*
X158114890Y-97915755D01*
X156498765Y-97915755D01*
X156443249Y-97892703D01*
X155978789Y-97892297D01*
X155549528Y-98069664D01*
X155220819Y-98397801D01*
X155042703Y-98826751D01*
X155042297Y-99291211D01*
X154368500Y-99291211D01*
X154368500Y-97349211D01*
X155470591Y-97349211D01*
X155562685Y-97518985D01*
X155994254Y-97690658D01*
X156458668Y-97684110D01*
X156857315Y-97518985D01*
X156949409Y-97349211D01*
X156210000Y-96609803D01*
X155470591Y-97349211D01*
X154368500Y-97349211D01*
X154368500Y-96304254D01*
X155039342Y-96304254D01*
X155045890Y-96768668D01*
X155211015Y-97167315D01*
X155380789Y-97259409D01*
X156120197Y-96520000D01*
X156299803Y-96520000D01*
X157039211Y-97259409D01*
X157208985Y-97167315D01*
X157380658Y-96735746D01*
X157374575Y-96304254D01*
X182979342Y-96304254D01*
X182985890Y-96768668D01*
X183151015Y-97167315D01*
X183320789Y-97259409D01*
X184060197Y-96520000D01*
X184239803Y-96520000D01*
X184979211Y-97259409D01*
X185148985Y-97167315D01*
X185320658Y-96735746D01*
X185314110Y-96271332D01*
X185148985Y-95872685D01*
X184979211Y-95780591D01*
X184239803Y-96520000D01*
X184060197Y-96520000D01*
X183320789Y-95780591D01*
X183151015Y-95872685D01*
X182979342Y-96304254D01*
X157374575Y-96304254D01*
X157374110Y-96271332D01*
X157208985Y-95872685D01*
X157039211Y-95780591D01*
X156299803Y-96520000D01*
X156120197Y-96520000D01*
X155380789Y-95780591D01*
X155211015Y-95872685D01*
X155039342Y-96304254D01*
X154368500Y-96304254D01*
X154368500Y-95690789D01*
X155470591Y-95690789D01*
X156210000Y-96430197D01*
X156949409Y-95690789D01*
X183410591Y-95690789D01*
X184150000Y-96430197D01*
X184889409Y-95690789D01*
X184797315Y-95521015D01*
X184365746Y-95349342D01*
X183901332Y-95355890D01*
X183502685Y-95521015D01*
X183410591Y-95690789D01*
X156949409Y-95690789D01*
X156857315Y-95521015D01*
X156425746Y-95349342D01*
X155961332Y-95355890D01*
X155562685Y-95521015D01*
X155470591Y-95690789D01*
X154368500Y-95690789D01*
X154368500Y-94211211D01*
X155042297Y-94211211D01*
X155219664Y-94640472D01*
X155547801Y-94969181D01*
X155976751Y-95147297D01*
X156441211Y-95147703D01*
X156870472Y-94970336D01*
X157199181Y-94642199D01*
X157377297Y-94213249D01*
X157377410Y-94083119D01*
X159499210Y-94083119D01*
X159578315Y-94274567D01*
X159724662Y-94421170D01*
X159915972Y-94500609D01*
X160123119Y-94500790D01*
X160314567Y-94421685D01*
X160461170Y-94275338D01*
X160540609Y-94084028D01*
X160540609Y-94083119D01*
X180454210Y-94083119D01*
X180533315Y-94274567D01*
X180679662Y-94421170D01*
X180870972Y-94500609D01*
X181078119Y-94500790D01*
X181269567Y-94421685D01*
X181416170Y-94275338D01*
X181442797Y-94211211D01*
X182982297Y-94211211D01*
X183159664Y-94640472D01*
X183487801Y-94969181D01*
X183916751Y-95147297D01*
X184381211Y-95147703D01*
X184810472Y-94970336D01*
X185139181Y-94642199D01*
X185317297Y-94213249D01*
X185317703Y-93748789D01*
X185140336Y-93319528D01*
X184812199Y-92990819D01*
X184383249Y-92812703D01*
X183918789Y-92812297D01*
X183489528Y-92989664D01*
X183160819Y-93317801D01*
X182982703Y-93746751D01*
X182982297Y-94211211D01*
X181442797Y-94211211D01*
X181495609Y-94084028D01*
X181495790Y-93876881D01*
X181416685Y-93685433D01*
X181270338Y-93538830D01*
X181079028Y-93459391D01*
X180871881Y-93459210D01*
X180680433Y-93538315D01*
X180533830Y-93684662D01*
X180454391Y-93875972D01*
X180454210Y-94083119D01*
X160540609Y-94083119D01*
X160540790Y-93876881D01*
X160461685Y-93685433D01*
X160315338Y-93538830D01*
X160124028Y-93459391D01*
X159916881Y-93459210D01*
X159725433Y-93538315D01*
X159578830Y-93684662D01*
X159499391Y-93875972D01*
X159499210Y-94083119D01*
X157377410Y-94083119D01*
X157377703Y-93748789D01*
X157200336Y-93319528D01*
X156872199Y-92990819D01*
X156498765Y-92835755D01*
X158114890Y-92835755D01*
X158211360Y-93069228D01*
X158389832Y-93248013D01*
X158623137Y-93344889D01*
X158875755Y-93345110D01*
X159109228Y-93248640D01*
X159288013Y-93070168D01*
X159384889Y-92836863D01*
X159384889Y-92835755D01*
X180974890Y-92835755D01*
X181071360Y-93069228D01*
X181249832Y-93248013D01*
X181483137Y-93344889D01*
X181735755Y-93345110D01*
X181969228Y-93248640D01*
X182148013Y-93070168D01*
X182244889Y-92836863D01*
X182245110Y-92584245D01*
X182148640Y-92350772D01*
X181970168Y-92171987D01*
X181736863Y-92075111D01*
X181484245Y-92074890D01*
X181250772Y-92171360D01*
X181071987Y-92349832D01*
X180975111Y-92583137D01*
X180974890Y-92835755D01*
X159384889Y-92835755D01*
X159385110Y-92584245D01*
X159288640Y-92350772D01*
X159110168Y-92171987D01*
X158876863Y-92075111D01*
X158624245Y-92074890D01*
X158390772Y-92171360D01*
X158211987Y-92349832D01*
X158115111Y-92583137D01*
X158114890Y-92835755D01*
X156498765Y-92835755D01*
X156443249Y-92812703D01*
X155978789Y-92812297D01*
X155549528Y-92989664D01*
X155220819Y-93317801D01*
X155042703Y-93746751D01*
X155042297Y-94211211D01*
X154368500Y-94211211D01*
X154368500Y-91671211D01*
X155042297Y-91671211D01*
X155219664Y-92100472D01*
X155547801Y-92429181D01*
X155976751Y-92607297D01*
X156441211Y-92607703D01*
X156870472Y-92430336D01*
X157199181Y-92102199D01*
X157377297Y-91673249D01*
X157377298Y-91671211D01*
X182982297Y-91671211D01*
X183159664Y-92100472D01*
X183487801Y-92429181D01*
X183916751Y-92607297D01*
X184381211Y-92607703D01*
X184810472Y-92430336D01*
X185139181Y-92102199D01*
X185317297Y-91673249D01*
X185317703Y-91208789D01*
X185140336Y-90779528D01*
X184812199Y-90450819D01*
X184383249Y-90272703D01*
X183918789Y-90272297D01*
X183489528Y-90449664D01*
X183160819Y-90777801D01*
X182982703Y-91206751D01*
X182982297Y-91671211D01*
X157377298Y-91671211D01*
X157377703Y-91208789D01*
X157200336Y-90779528D01*
X156872199Y-90450819D01*
X156443249Y-90272703D01*
X155978789Y-90272297D01*
X155549528Y-90449664D01*
X155220819Y-90777801D01*
X155042703Y-91206751D01*
X155042297Y-91671211D01*
X154368500Y-91671211D01*
X154368500Y-89131211D01*
X155042297Y-89131211D01*
X155219664Y-89560472D01*
X155547801Y-89889181D01*
X155976751Y-90067297D01*
X156441211Y-90067703D01*
X156870472Y-89890336D01*
X157199181Y-89562199D01*
X157377297Y-89133249D01*
X157377410Y-89003119D01*
X160769210Y-89003119D01*
X160848315Y-89194567D01*
X160994662Y-89341170D01*
X161185972Y-89420609D01*
X161393119Y-89420790D01*
X161584567Y-89341685D01*
X161731170Y-89195338D01*
X161810609Y-89004028D01*
X161810609Y-89003119D01*
X179819210Y-89003119D01*
X179898315Y-89194567D01*
X180044662Y-89341170D01*
X180235972Y-89420609D01*
X180443119Y-89420790D01*
X180634567Y-89341685D01*
X180781170Y-89195338D01*
X180807797Y-89131211D01*
X182982297Y-89131211D01*
X183159664Y-89560472D01*
X183487801Y-89889181D01*
X183916751Y-90067297D01*
X184381211Y-90067703D01*
X184810472Y-89890336D01*
X185139181Y-89562199D01*
X185317297Y-89133249D01*
X185317703Y-88668789D01*
X185140336Y-88239528D01*
X184812199Y-87910819D01*
X184383249Y-87732703D01*
X183918789Y-87732297D01*
X183489528Y-87909664D01*
X183160819Y-88237801D01*
X182982703Y-88666751D01*
X182982297Y-89131211D01*
X180807797Y-89131211D01*
X180860609Y-89004028D01*
X180860790Y-88796881D01*
X180781685Y-88605433D01*
X180635338Y-88458830D01*
X180444028Y-88379391D01*
X180236881Y-88379210D01*
X180045433Y-88458315D01*
X179898830Y-88604662D01*
X179819391Y-88795972D01*
X179819210Y-89003119D01*
X161810609Y-89003119D01*
X161810790Y-88796881D01*
X161731685Y-88605433D01*
X161585338Y-88458830D01*
X161394028Y-88379391D01*
X161186881Y-88379210D01*
X160995433Y-88458315D01*
X160848830Y-88604662D01*
X160769391Y-88795972D01*
X160769210Y-89003119D01*
X157377410Y-89003119D01*
X157377703Y-88668789D01*
X157200336Y-88239528D01*
X156872199Y-87910819D01*
X156498765Y-87755755D01*
X158114890Y-87755755D01*
X158211360Y-87989228D01*
X158389832Y-88168013D01*
X158623137Y-88264889D01*
X158875755Y-88265110D01*
X159109228Y-88168640D01*
X159288013Y-87990168D01*
X159384889Y-87756863D01*
X159384889Y-87755755D01*
X180974890Y-87755755D01*
X181071360Y-87989228D01*
X181249832Y-88168013D01*
X181483137Y-88264889D01*
X181735755Y-88265110D01*
X181969228Y-88168640D01*
X182148013Y-87990168D01*
X182244889Y-87756863D01*
X182245110Y-87504245D01*
X182148640Y-87270772D01*
X181970168Y-87091987D01*
X181736863Y-86995111D01*
X181484245Y-86994890D01*
X181250772Y-87091360D01*
X181071987Y-87269832D01*
X180975111Y-87503137D01*
X180974890Y-87755755D01*
X159384889Y-87755755D01*
X159385110Y-87504245D01*
X159288640Y-87270772D01*
X159110168Y-87091987D01*
X158876863Y-86995111D01*
X158624245Y-86994890D01*
X158390772Y-87091360D01*
X158211987Y-87269832D01*
X158115111Y-87503137D01*
X158114890Y-87755755D01*
X156498765Y-87755755D01*
X156443249Y-87732703D01*
X155978789Y-87732297D01*
X155549528Y-87909664D01*
X155220819Y-88237801D01*
X155042703Y-88666751D01*
X155042297Y-89131211D01*
X154368500Y-89131211D01*
X154368500Y-86591211D01*
X155042297Y-86591211D01*
X155219664Y-87020472D01*
X155547801Y-87349181D01*
X155976751Y-87527297D01*
X156441211Y-87527703D01*
X156870472Y-87350336D01*
X157199181Y-87022199D01*
X157377297Y-86593249D01*
X157377298Y-86591211D01*
X182982297Y-86591211D01*
X183159664Y-87020472D01*
X183487801Y-87349181D01*
X183916751Y-87527297D01*
X184381211Y-87527703D01*
X184810472Y-87350336D01*
X185139181Y-87022199D01*
X185317297Y-86593249D01*
X185317703Y-86128789D01*
X185140336Y-85699528D01*
X184812199Y-85370819D01*
X184383249Y-85192703D01*
X183918789Y-85192297D01*
X183489528Y-85369664D01*
X183160819Y-85697801D01*
X182982703Y-86126751D01*
X182982297Y-86591211D01*
X157377298Y-86591211D01*
X157377703Y-86128789D01*
X157200336Y-85699528D01*
X156872199Y-85370819D01*
X156443249Y-85192703D01*
X155978789Y-85192297D01*
X155549528Y-85369664D01*
X155220819Y-85697801D01*
X155042703Y-86126751D01*
X155042297Y-86591211D01*
X154368500Y-86591211D01*
X154368500Y-84051211D01*
X155042297Y-84051211D01*
X155219664Y-84480472D01*
X155547801Y-84809181D01*
X155976751Y-84987297D01*
X156441211Y-84987703D01*
X156870472Y-84810336D01*
X157199181Y-84482199D01*
X157377297Y-84053249D01*
X157377410Y-83923119D01*
X162039210Y-83923119D01*
X162118315Y-84114567D01*
X162264662Y-84261170D01*
X162455972Y-84340609D01*
X162663119Y-84340790D01*
X162854567Y-84261685D01*
X163001170Y-84115338D01*
X163080609Y-83924028D01*
X163080609Y-83923119D01*
X178549210Y-83923119D01*
X178628315Y-84114567D01*
X178774662Y-84261170D01*
X178965972Y-84340609D01*
X179173119Y-84340790D01*
X179364567Y-84261685D01*
X179511170Y-84115338D01*
X179537797Y-84051211D01*
X182982297Y-84051211D01*
X183159664Y-84480472D01*
X183487801Y-84809181D01*
X183916751Y-84987297D01*
X184381211Y-84987703D01*
X184810472Y-84810336D01*
X185139181Y-84482199D01*
X185317297Y-84053249D01*
X185317703Y-83588789D01*
X185140336Y-83159528D01*
X184812199Y-82830819D01*
X184383249Y-82652703D01*
X183918789Y-82652297D01*
X183489528Y-82829664D01*
X183160819Y-83157801D01*
X182982703Y-83586751D01*
X182982297Y-84051211D01*
X179537797Y-84051211D01*
X179590609Y-83924028D01*
X179590790Y-83716881D01*
X179511685Y-83525433D01*
X179365338Y-83378830D01*
X179174028Y-83299391D01*
X178966881Y-83299210D01*
X178775433Y-83378315D01*
X178628830Y-83524662D01*
X178549391Y-83715972D01*
X178549210Y-83923119D01*
X163080609Y-83923119D01*
X163080790Y-83716881D01*
X163001685Y-83525433D01*
X162855338Y-83378830D01*
X162664028Y-83299391D01*
X162456881Y-83299210D01*
X162265433Y-83378315D01*
X162118830Y-83524662D01*
X162039391Y-83715972D01*
X162039210Y-83923119D01*
X157377410Y-83923119D01*
X157377703Y-83588789D01*
X157200336Y-83159528D01*
X156872199Y-82830819D01*
X156498765Y-82675755D01*
X158114890Y-82675755D01*
X158211360Y-82909228D01*
X158389832Y-83088013D01*
X158623137Y-83184889D01*
X158875755Y-83185110D01*
X159109228Y-83088640D01*
X159288013Y-82910168D01*
X159384889Y-82676863D01*
X159384889Y-82675755D01*
X180974890Y-82675755D01*
X181071360Y-82909228D01*
X181249832Y-83088013D01*
X181483137Y-83184889D01*
X181735755Y-83185110D01*
X181969228Y-83088640D01*
X182148013Y-82910168D01*
X182244889Y-82676863D01*
X182245110Y-82424245D01*
X182148640Y-82190772D01*
X181970168Y-82011987D01*
X181736863Y-81915111D01*
X181484245Y-81914890D01*
X181250772Y-82011360D01*
X181071987Y-82189832D01*
X180975111Y-82423137D01*
X180974890Y-82675755D01*
X159384889Y-82675755D01*
X159385110Y-82424245D01*
X159288640Y-82190772D01*
X159110168Y-82011987D01*
X158876863Y-81915111D01*
X158624245Y-81914890D01*
X158390772Y-82011360D01*
X158211987Y-82189832D01*
X158115111Y-82423137D01*
X158114890Y-82675755D01*
X156498765Y-82675755D01*
X156443249Y-82652703D01*
X155978789Y-82652297D01*
X155549528Y-82829664D01*
X155220819Y-83157801D01*
X155042703Y-83586751D01*
X155042297Y-84051211D01*
X154368500Y-84051211D01*
X154368500Y-81511211D01*
X155042297Y-81511211D01*
X155219664Y-81940472D01*
X155547801Y-82269181D01*
X155976751Y-82447297D01*
X156441211Y-82447703D01*
X156870472Y-82270336D01*
X157199181Y-81942199D01*
X157377297Y-81513249D01*
X157377298Y-81511211D01*
X182982297Y-81511211D01*
X183159664Y-81940472D01*
X183487801Y-82269181D01*
X183916751Y-82447297D01*
X184381211Y-82447703D01*
X184810472Y-82270336D01*
X185139181Y-81942199D01*
X185317297Y-81513249D01*
X185317703Y-81048789D01*
X185140336Y-80619528D01*
X184812199Y-80290819D01*
X184383249Y-80112703D01*
X183918789Y-80112297D01*
X183489528Y-80289664D01*
X183160819Y-80617801D01*
X182982703Y-81046751D01*
X182982297Y-81511211D01*
X157377298Y-81511211D01*
X157377703Y-81048789D01*
X157200336Y-80619528D01*
X156872199Y-80290819D01*
X156443249Y-80112703D01*
X155978789Y-80112297D01*
X155549528Y-80289664D01*
X155220819Y-80617801D01*
X155042703Y-81046751D01*
X155042297Y-81511211D01*
X154368500Y-81511211D01*
X154368500Y-78971211D01*
X155042297Y-78971211D01*
X155219664Y-79400472D01*
X155547801Y-79729181D01*
X155976751Y-79907297D01*
X156441211Y-79907703D01*
X156870472Y-79730336D01*
X157199181Y-79402199D01*
X157377297Y-78973249D01*
X157377410Y-78843119D01*
X163309210Y-78843119D01*
X163388315Y-79034567D01*
X163534662Y-79181170D01*
X163725972Y-79260609D01*
X163933119Y-79260790D01*
X164124567Y-79181685D01*
X164271170Y-79035338D01*
X164350609Y-78844028D01*
X164350609Y-78843119D01*
X177279210Y-78843119D01*
X177358315Y-79034567D01*
X177504662Y-79181170D01*
X177695972Y-79260609D01*
X177903119Y-79260790D01*
X178094567Y-79181685D01*
X178241170Y-79035338D01*
X178267797Y-78971211D01*
X182982297Y-78971211D01*
X183159664Y-79400472D01*
X183487801Y-79729181D01*
X183916751Y-79907297D01*
X184381211Y-79907703D01*
X184810472Y-79730336D01*
X185139181Y-79402199D01*
X185317297Y-78973249D01*
X185317703Y-78508789D01*
X185140336Y-78079528D01*
X184812199Y-77750819D01*
X184383249Y-77572703D01*
X183918789Y-77572297D01*
X183489528Y-77749664D01*
X183160819Y-78077801D01*
X182982703Y-78506751D01*
X182982297Y-78971211D01*
X178267797Y-78971211D01*
X178320609Y-78844028D01*
X178320790Y-78636881D01*
X178241685Y-78445433D01*
X178095338Y-78298830D01*
X177904028Y-78219391D01*
X177696881Y-78219210D01*
X177505433Y-78298315D01*
X177358830Y-78444662D01*
X177279391Y-78635972D01*
X177279210Y-78843119D01*
X164350609Y-78843119D01*
X164350790Y-78636881D01*
X164271685Y-78445433D01*
X164125338Y-78298830D01*
X163934028Y-78219391D01*
X163726881Y-78219210D01*
X163535433Y-78298315D01*
X163388830Y-78444662D01*
X163309391Y-78635972D01*
X163309210Y-78843119D01*
X157377410Y-78843119D01*
X157377703Y-78508789D01*
X157200336Y-78079528D01*
X156872199Y-77750819D01*
X156498765Y-77595755D01*
X158114890Y-77595755D01*
X158211360Y-77829228D01*
X158389832Y-78008013D01*
X158623137Y-78104889D01*
X158875755Y-78105110D01*
X159109228Y-78008640D01*
X159288013Y-77830168D01*
X159384889Y-77596863D01*
X159384889Y-77595755D01*
X180974890Y-77595755D01*
X181071360Y-77829228D01*
X181249832Y-78008013D01*
X181483137Y-78104889D01*
X181735755Y-78105110D01*
X181969228Y-78008640D01*
X182148013Y-77830168D01*
X182244889Y-77596863D01*
X182245110Y-77344245D01*
X182148640Y-77110772D01*
X181970168Y-76931987D01*
X181736863Y-76835111D01*
X181484245Y-76834890D01*
X181250772Y-76931360D01*
X181071987Y-77109832D01*
X180975111Y-77343137D01*
X180974890Y-77595755D01*
X159384889Y-77595755D01*
X159385110Y-77344245D01*
X159288640Y-77110772D01*
X159110168Y-76931987D01*
X158876863Y-76835111D01*
X158624245Y-76834890D01*
X158390772Y-76931360D01*
X158211987Y-77109832D01*
X158115111Y-77343137D01*
X158114890Y-77595755D01*
X156498765Y-77595755D01*
X156443249Y-77572703D01*
X155978789Y-77572297D01*
X155549528Y-77749664D01*
X155220819Y-78077801D01*
X155042703Y-78506751D01*
X155042297Y-78971211D01*
X154368500Y-78971211D01*
X154368500Y-76431211D01*
X155042297Y-76431211D01*
X155219664Y-76860472D01*
X155547801Y-77189181D01*
X155976751Y-77367297D01*
X156441211Y-77367703D01*
X156870472Y-77190336D01*
X157199181Y-76862199D01*
X157377297Y-76433249D01*
X157377298Y-76431211D01*
X182982297Y-76431211D01*
X183159664Y-76860472D01*
X183487801Y-77189181D01*
X183916751Y-77367297D01*
X184381211Y-77367703D01*
X184810472Y-77190336D01*
X185139181Y-76862199D01*
X185317297Y-76433249D01*
X185317703Y-75968789D01*
X185140336Y-75539528D01*
X184812199Y-75210819D01*
X184383249Y-75032703D01*
X183918789Y-75032297D01*
X183489528Y-75209664D01*
X183160819Y-75537801D01*
X182982703Y-75966751D01*
X182982297Y-76431211D01*
X157377298Y-76431211D01*
X157377703Y-75968789D01*
X157200336Y-75539528D01*
X156872199Y-75210819D01*
X156443249Y-75032703D01*
X155978789Y-75032297D01*
X155549528Y-75209664D01*
X155220819Y-75537801D01*
X155042703Y-75966751D01*
X155042297Y-76431211D01*
X154368500Y-76431211D01*
X154368500Y-74489211D01*
X155470591Y-74489211D01*
X155562685Y-74658985D01*
X155994254Y-74830658D01*
X156458668Y-74824110D01*
X156857315Y-74658985D01*
X156949409Y-74489211D01*
X183410591Y-74489211D01*
X183502685Y-74658985D01*
X183934254Y-74830658D01*
X184398668Y-74824110D01*
X184797315Y-74658985D01*
X184889409Y-74489211D01*
X184150000Y-73749803D01*
X183410591Y-74489211D01*
X156949409Y-74489211D01*
X156210000Y-73749803D01*
X155470591Y-74489211D01*
X154368500Y-74489211D01*
X154368500Y-73444254D01*
X155039342Y-73444254D01*
X155045890Y-73908668D01*
X155211015Y-74307315D01*
X155380789Y-74399409D01*
X156120197Y-73660000D01*
X156299803Y-73660000D01*
X157039211Y-74399409D01*
X157208985Y-74307315D01*
X157380658Y-73875746D01*
X157379071Y-73763119D01*
X176009210Y-73763119D01*
X176088315Y-73954567D01*
X176234662Y-74101170D01*
X176425972Y-74180609D01*
X176633119Y-74180790D01*
X176824567Y-74101685D01*
X176971170Y-73955338D01*
X177050609Y-73764028D01*
X177050790Y-73556881D01*
X177004254Y-73444254D01*
X182979342Y-73444254D01*
X182985890Y-73908668D01*
X183151015Y-74307315D01*
X183320789Y-74399409D01*
X184060197Y-73660000D01*
X184239803Y-73660000D01*
X184979211Y-74399409D01*
X185148985Y-74307315D01*
X185320658Y-73875746D01*
X185314110Y-73411332D01*
X185148985Y-73012685D01*
X184979211Y-72920591D01*
X184239803Y-73660000D01*
X184060197Y-73660000D01*
X183320789Y-72920591D01*
X183151015Y-73012685D01*
X182979342Y-73444254D01*
X177004254Y-73444254D01*
X176971685Y-73365433D01*
X176825338Y-73218830D01*
X176634028Y-73139391D01*
X176426881Y-73139210D01*
X176235433Y-73218315D01*
X176088830Y-73364662D01*
X176009391Y-73555972D01*
X176009210Y-73763119D01*
X157379071Y-73763119D01*
X157374110Y-73411332D01*
X157208985Y-73012685D01*
X157039211Y-72920591D01*
X156299803Y-73660000D01*
X156120197Y-73660000D01*
X155380789Y-72920591D01*
X155211015Y-73012685D01*
X155039342Y-73444254D01*
X154368500Y-73444254D01*
X154368500Y-72830789D01*
X155470591Y-72830789D01*
X156210000Y-73570197D01*
X156949409Y-72830789D01*
X156857315Y-72661015D01*
X156425746Y-72489342D01*
X155961332Y-72495890D01*
X155562685Y-72661015D01*
X155470591Y-72830789D01*
X154368500Y-72830789D01*
X154368500Y-71818500D01*
X158470299Y-71818500D01*
X158390772Y-71851360D01*
M02*
