M48
;DRILL file {KiCad 4.0.7} date Monday, October 08, 2018 'PMt' 05:16:33 PM
;FORMAT={2:4/ absolute / inch / suppress leading zeros}
FMAT,2
INCH,TZ
T1C0.006
T2C0.012
T3C0.025
T4C0.040
%
G90
G05
M72
T1
X62500Y-48000
X62500Y-48500
X62750Y-39000
X62750Y-50200
X62750Y-50750
X63000Y-37000
X63000Y-46500
X63250Y-41000
X63250Y-50200
X63500Y-35000
X63500Y-46500
X63750Y-43000
X63750Y-50200
X64000Y-33000
X64000Y-46500
X64250Y-45000
X64250Y-50200
X64500Y-31000
X64500Y-46500
X64500Y-51250
X64750Y-46500
X64950Y-50200
X65000Y-46500
X65000Y-48500
X65250Y-46500
X65250Y-48000
X65250Y-48250
X65250Y-50200
X65500Y-46500
X65500Y-48500
X65500Y-50200
X65500Y-51250
X65750Y-50200
X65750Y-51250
X66000Y-46500
X66500Y-46500
X66500Y-47875
X69500Y-29000
X69500Y-46250
X69750Y-43000
X69750Y-50400
X70000Y-31000
X70000Y-46000
X70250Y-41000
X70250Y-50600
X70500Y-33000
X70500Y-45750
X70750Y-39000
X70750Y-50800
X71000Y-35000
X71000Y-45500
X71250Y-37000
X71250Y-51000
X72000Y-46250
T2
X62500Y-28500
X62500Y-30500
X62500Y-32500
X62500Y-34500
X62500Y-36500
X62500Y-38500
X62500Y-40500
X62500Y-42500
X62850Y-51250
X66000Y-29500
X66000Y-31500
X66000Y-33500
X66000Y-35500
X66000Y-37100
X66000Y-37500
X66000Y-39500
X66000Y-41500
X66000Y-43500
X66150Y-28300
X66500Y-48500
X67000Y-45250
X67000Y-47750
X67000Y-49500
X67050Y-51250
X68000Y-30500
X68000Y-32500
X68000Y-34500
X68000Y-36500
X68000Y-38500
X68000Y-40500
X68000Y-42500
X68000Y-44500
X68400Y-45050
X68650Y-51250
X70000Y-50000
X70250Y-51250
X70500Y-50000
X70750Y-51250
X71000Y-50000
X71500Y-28500
X71500Y-30500
X71500Y-32500
X71500Y-34500
X71500Y-36500
X71500Y-38500
X71500Y-40500
X71500Y-42500
T3
X67500Y-47500
X67500Y-49500
X68000Y-47500
X68000Y-49500
X68500Y-47500
X68500Y-49500
T4
X61500Y-29000
X61500Y-30000
X61500Y-31000
X61500Y-32000
X61500Y-33000
X61500Y-34000
X61500Y-35000
X61500Y-36000
X61500Y-37000
X61500Y-38000
X61500Y-39000
X61500Y-40000
X61500Y-41000
X61500Y-42000
X61500Y-43000
X61500Y-44000
X61500Y-45000
X61500Y-46000
X61500Y-47000
X61500Y-48000
X61500Y-49000
X61500Y-50000
X61500Y-51000
X61500Y-52000
X61500Y-53000
X62500Y-52000
X62500Y-53000
X63500Y-52000
X63500Y-53000
X64500Y-52000
X64500Y-53000
X65500Y-52000
X65500Y-53000
X66500Y-52000
X66500Y-53000
X67500Y-52000
X67500Y-53000
X68500Y-52000
X68500Y-53000
X69500Y-52000
X69500Y-53000
X70500Y-52000
X70500Y-53000
X71500Y-52000
X71500Y-53000
X72500Y-29000
X72500Y-30000
X72500Y-31000
X72500Y-32000
X72500Y-33000
X72500Y-34000
X72500Y-35000
X72500Y-36000
X72500Y-37000
X72500Y-38000
X72500Y-39000
X72500Y-40000
X72500Y-41000
X72500Y-42000
X72500Y-43000
X72500Y-44000
X72500Y-45000
X72500Y-46000
X72500Y-47000
X72500Y-48000
X72500Y-49000
X72500Y-50000
X72500Y-51000
X72500Y-52000
X72500Y-53000
T0
M30
