G04 #@! TF.FileFunction,Copper,L4,Bot,Signal*
%FSLAX46Y46*%
G04 Gerber Fmt 4.6, Leading zero omitted, Abs format (unit mm)*
G04 Created by KiCad (PCBNEW 4.0.7) date Monday, October 08, 2018 'PMt' 05:16:59 PM*
%MOMM*%
%LPD*%
G01*
G04 APERTURE LIST*
%ADD10C,0.100000*%
%ADD11C,1.700000*%
%ADD12C,0.406400*%
%ADD13C,0.635000*%
%ADD14C,0.889000*%
%ADD15C,0.177800*%
%ADD16C,0.381000*%
G04 APERTURE END LIST*
D10*
D11*
X156210000Y-73660000D03*
X156210000Y-76200000D03*
X156210000Y-78740000D03*
X156210000Y-81280000D03*
X156210000Y-83820000D03*
X156210000Y-86360000D03*
X156210000Y-88900000D03*
X156210000Y-91440000D03*
X156210000Y-93980000D03*
X156210000Y-96520000D03*
X156210000Y-99060000D03*
X156210000Y-101600000D03*
X156210000Y-104140000D03*
X156210000Y-106680000D03*
X156210000Y-109220000D03*
X156210000Y-111760000D03*
X156210000Y-114300000D03*
X156210000Y-116840000D03*
X156210000Y-119380000D03*
X156210000Y-121920000D03*
X156210000Y-124460000D03*
X156210000Y-127000000D03*
X156210000Y-129540000D03*
X156210000Y-132080000D03*
X156210000Y-134620000D03*
X184150000Y-73660000D03*
X184150000Y-76200000D03*
X184150000Y-78740000D03*
X184150000Y-81280000D03*
X184150000Y-83820000D03*
X184150000Y-86360000D03*
X184150000Y-88900000D03*
X184150000Y-91440000D03*
X184150000Y-93980000D03*
X184150000Y-96520000D03*
X184150000Y-99060000D03*
X184150000Y-101600000D03*
X184150000Y-104140000D03*
X184150000Y-106680000D03*
X184150000Y-109220000D03*
X184150000Y-111760000D03*
X184150000Y-114300000D03*
X184150000Y-116840000D03*
X184150000Y-119380000D03*
X184150000Y-121920000D03*
X184150000Y-124460000D03*
X184150000Y-127000000D03*
X184150000Y-129540000D03*
X184150000Y-132080000D03*
X184150000Y-134620000D03*
X181610000Y-132080000D03*
X179070000Y-132080000D03*
X176530000Y-132080000D03*
X173990000Y-132080000D03*
X171450000Y-132080000D03*
X168910000Y-132080000D03*
X166370000Y-132080000D03*
X163830000Y-132080000D03*
X161290000Y-132080000D03*
X158750000Y-132080000D03*
X158750000Y-134620000D03*
X161290000Y-134620000D03*
X163830000Y-134620000D03*
X166370000Y-134620000D03*
X168910000Y-134620000D03*
X171450000Y-134620000D03*
X173990000Y-134620000D03*
X176530000Y-134620000D03*
X179070000Y-134620000D03*
X181610000Y-134620000D03*
D12*
X166370000Y-127508000D03*
X166370000Y-130175000D03*
D13*
X170180000Y-114935000D03*
X170180000Y-121285000D03*
X170180000Y-125730000D03*
D14*
X172720000Y-125730000D03*
X173990000Y-125730000D03*
X171450000Y-125730000D03*
X172720000Y-120650000D03*
X171450000Y-120650000D03*
X173990000Y-120650000D03*
D13*
X168021000Y-71882000D03*
X167640000Y-94234000D03*
X159639000Y-130175000D03*
X173736000Y-114427000D03*
X179070000Y-127000000D03*
X177800000Y-127000000D03*
X180340000Y-127000000D03*
X179705000Y-130175000D03*
X178435000Y-130175000D03*
X168910000Y-123190000D03*
D12*
X167640000Y-118110000D03*
X164465000Y-118110000D03*
D13*
X174371000Y-130175000D03*
X170307000Y-130175000D03*
X167640000Y-110490000D03*
X167640000Y-105410000D03*
X167640000Y-100330000D03*
X172720000Y-113030000D03*
X172720000Y-107950000D03*
X172720000Y-102870000D03*
X172720000Y-97790000D03*
X167640000Y-95250000D03*
X172720000Y-87630000D03*
X172720000Y-92710000D03*
X167640000Y-90170000D03*
X167640000Y-85090000D03*
X167640000Y-80010000D03*
X172720000Y-82550000D03*
X172720000Y-77470000D03*
X167640000Y-74930000D03*
X181610000Y-102870000D03*
X181610000Y-72390000D03*
X181610000Y-77470000D03*
X181610000Y-82550000D03*
X181610000Y-87630000D03*
X181610000Y-92710000D03*
X181610000Y-97790000D03*
X181610000Y-107950000D03*
X158750000Y-102870000D03*
X158750000Y-97790000D03*
X158750000Y-92710000D03*
X158750000Y-87630000D03*
X158750000Y-82550000D03*
X158750000Y-77470000D03*
X158750000Y-72390000D03*
X158750000Y-107950000D03*
D12*
X163830000Y-130175000D03*
X165735000Y-127508000D03*
X165735000Y-122555000D03*
X166370000Y-123190000D03*
X166370000Y-118110000D03*
X158750000Y-121920000D03*
X165735000Y-121920000D03*
X165735000Y-118110000D03*
X158750000Y-123190000D03*
X165100000Y-123190000D03*
X165100000Y-118110000D03*
X164973000Y-127508000D03*
X159385000Y-128905000D03*
X167005000Y-130175000D03*
X167005000Y-127508000D03*
X163830000Y-78740000D03*
X163830000Y-118110000D03*
X176530000Y-117475000D03*
X176530000Y-73660000D03*
X162560000Y-83820000D03*
X162560000Y-118110000D03*
X177800000Y-116840000D03*
X177800000Y-78740000D03*
X161290000Y-118110000D03*
X161290000Y-88900000D03*
X179070000Y-116205000D03*
X179070000Y-83820000D03*
X160020000Y-118110000D03*
X160020000Y-93980000D03*
X180340000Y-115570000D03*
X180340000Y-88900000D03*
X159385000Y-127508000D03*
X159385000Y-99060000D03*
X180975000Y-93980000D03*
X180975000Y-129540000D03*
X160655000Y-104140000D03*
X160655000Y-127508000D03*
X179705000Y-129032000D03*
X179705000Y-99060000D03*
X161925000Y-109220000D03*
X161925000Y-127508000D03*
X178435000Y-104140000D03*
X178435000Y-128524000D03*
X163195000Y-114300000D03*
X163195000Y-127508000D03*
X177165000Y-109220000D03*
X177165000Y-128016000D03*
X168910000Y-121602500D03*
X168910000Y-118110000D03*
X182880000Y-117475000D03*
D15*
X166370000Y-127508000D02*
X166370000Y-130175000D01*
D16*
X170180000Y-114935000D02*
X170180000Y-121285000D01*
D15*
X165735000Y-127508000D02*
X163830000Y-129413000D01*
X163830000Y-129413000D02*
X163830000Y-130175000D01*
X165735000Y-127508000D02*
X165735000Y-122555000D01*
X166370000Y-118110000D02*
X166370000Y-123190000D01*
X157480000Y-125730000D02*
X156210000Y-127000000D01*
X157480000Y-123190000D02*
X157480000Y-125730000D01*
X158750000Y-121920000D02*
X157480000Y-123190000D01*
X165735000Y-118110000D02*
X165735000Y-121920000D01*
X158115000Y-127635000D02*
X156210000Y-129540000D01*
X158115000Y-123825000D02*
X158115000Y-127635000D01*
X158750000Y-123190000D02*
X158115000Y-123825000D01*
X165100000Y-118110000D02*
X165100000Y-123190000D01*
X159385000Y-128905000D02*
X163449000Y-128905000D01*
X163576000Y-128905000D02*
X164973000Y-127508000D01*
X163449000Y-128905000D02*
X163576000Y-128905000D01*
X167005000Y-127508000D02*
X167005000Y-130175000D01*
X163830000Y-118110000D02*
X163830000Y-78740000D01*
X176530000Y-117475000D02*
X176530000Y-73660000D01*
X162560000Y-118110000D02*
X162560000Y-83820000D01*
X177800000Y-116840000D02*
X177800000Y-78740000D01*
X161290000Y-118110000D02*
X161290000Y-88900000D01*
X179070000Y-116205000D02*
X179070000Y-83820000D01*
X160020000Y-93980000D02*
X160020000Y-118110000D01*
X180340000Y-115570000D02*
X180340000Y-88900000D01*
X159385000Y-127508000D02*
X159385000Y-99060000D01*
X180975000Y-93980000D02*
X180975000Y-129540000D01*
X160655000Y-127508000D02*
X160655000Y-104140000D01*
X179705000Y-99060000D02*
X179705000Y-129032000D01*
X161925000Y-109220000D02*
X161925000Y-127508000D01*
X178435000Y-128524000D02*
X178435000Y-104140000D01*
X163195000Y-127508000D02*
X163195000Y-114300000D01*
X177165000Y-128016000D02*
X177165000Y-109220000D01*
X184150000Y-124460000D02*
X182880000Y-123190000D01*
X168910000Y-118110000D02*
X168910000Y-121602500D01*
X182880000Y-123190000D02*
X182880000Y-117475000D01*
M02*
