G04 #@! TF.FileFunction,Soldermask,Bot*
%FSLAX46Y46*%
G04 Gerber Fmt 4.6, Leading zero omitted, Abs format (unit mm)*
G04 Created by KiCad (PCBNEW 4.0.7) date Monday, October 08, 2018 'PMt' 05:16:59 PM*
%MOMM*%
%LPD*%
G01*
G04 APERTURE LIST*
%ADD10C,0.100000*%
G04 APERTURE END LIST*
D10*
G36*
X156301946Y-133745180D02*
X156470118Y-133779700D01*
X156628374Y-133846226D01*
X156770703Y-133942228D01*
X156891673Y-134064045D01*
X156986673Y-134207030D01*
X157052094Y-134365756D01*
X157085353Y-134533724D01*
X157085353Y-134533733D01*
X157085438Y-134534163D01*
X157082700Y-134730248D01*
X157082603Y-134730674D01*
X157082603Y-134730685D01*
X157044667Y-134897658D01*
X156974841Y-135054490D01*
X156875883Y-135194773D01*
X156751560Y-135313164D01*
X156606610Y-135405152D01*
X156446549Y-135467236D01*
X156277487Y-135497046D01*
X156105849Y-135493450D01*
X155938175Y-135456586D01*
X155780859Y-135387856D01*
X155639890Y-135289879D01*
X155520634Y-135166387D01*
X155427635Y-135022081D01*
X155364437Y-134862461D01*
X155333447Y-134693606D01*
X155335844Y-134521944D01*
X155371536Y-134354025D01*
X155439167Y-134196232D01*
X155536157Y-134054581D01*
X155658815Y-133934464D01*
X155802470Y-133840459D01*
X155961641Y-133776151D01*
X156130277Y-133743981D01*
X156301946Y-133745180D01*
X156301946Y-133745180D01*
G37*
G36*
X158841946Y-133745180D02*
X159010118Y-133779700D01*
X159168374Y-133846226D01*
X159310703Y-133942228D01*
X159431673Y-134064045D01*
X159526673Y-134207030D01*
X159592094Y-134365756D01*
X159625353Y-134533724D01*
X159625353Y-134533733D01*
X159625438Y-134534163D01*
X159622700Y-134730248D01*
X159622603Y-134730674D01*
X159622603Y-134730685D01*
X159584667Y-134897658D01*
X159514841Y-135054490D01*
X159415883Y-135194773D01*
X159291560Y-135313164D01*
X159146610Y-135405152D01*
X158986549Y-135467236D01*
X158817487Y-135497046D01*
X158645849Y-135493450D01*
X158478175Y-135456586D01*
X158320859Y-135387856D01*
X158179890Y-135289879D01*
X158060634Y-135166387D01*
X157967635Y-135022081D01*
X157904437Y-134862461D01*
X157873447Y-134693606D01*
X157875844Y-134521944D01*
X157911536Y-134354025D01*
X157979167Y-134196232D01*
X158076157Y-134054581D01*
X158198815Y-133934464D01*
X158342470Y-133840459D01*
X158501641Y-133776151D01*
X158670277Y-133743981D01*
X158841946Y-133745180D01*
X158841946Y-133745180D01*
G37*
G36*
X161381946Y-133745180D02*
X161550118Y-133779700D01*
X161708374Y-133846226D01*
X161850703Y-133942228D01*
X161971673Y-134064045D01*
X162066673Y-134207030D01*
X162132094Y-134365756D01*
X162165353Y-134533724D01*
X162165353Y-134533733D01*
X162165438Y-134534163D01*
X162162700Y-134730248D01*
X162162603Y-134730674D01*
X162162603Y-134730685D01*
X162124667Y-134897658D01*
X162054841Y-135054490D01*
X161955883Y-135194773D01*
X161831560Y-135313164D01*
X161686610Y-135405152D01*
X161526549Y-135467236D01*
X161357487Y-135497046D01*
X161185849Y-135493450D01*
X161018175Y-135456586D01*
X160860859Y-135387856D01*
X160719890Y-135289879D01*
X160600634Y-135166387D01*
X160507635Y-135022081D01*
X160444437Y-134862461D01*
X160413447Y-134693606D01*
X160415844Y-134521944D01*
X160451536Y-134354025D01*
X160519167Y-134196232D01*
X160616157Y-134054581D01*
X160738815Y-133934464D01*
X160882470Y-133840459D01*
X161041641Y-133776151D01*
X161210277Y-133743981D01*
X161381946Y-133745180D01*
X161381946Y-133745180D01*
G37*
G36*
X163921946Y-133745180D02*
X164090118Y-133779700D01*
X164248374Y-133846226D01*
X164390703Y-133942228D01*
X164511673Y-134064045D01*
X164606673Y-134207030D01*
X164672094Y-134365756D01*
X164705353Y-134533724D01*
X164705353Y-134533733D01*
X164705438Y-134534163D01*
X164702700Y-134730248D01*
X164702603Y-134730674D01*
X164702603Y-134730685D01*
X164664667Y-134897658D01*
X164594841Y-135054490D01*
X164495883Y-135194773D01*
X164371560Y-135313164D01*
X164226610Y-135405152D01*
X164066549Y-135467236D01*
X163897487Y-135497046D01*
X163725849Y-135493450D01*
X163558175Y-135456586D01*
X163400859Y-135387856D01*
X163259890Y-135289879D01*
X163140634Y-135166387D01*
X163047635Y-135022081D01*
X162984437Y-134862461D01*
X162953447Y-134693606D01*
X162955844Y-134521944D01*
X162991536Y-134354025D01*
X163059167Y-134196232D01*
X163156157Y-134054581D01*
X163278815Y-133934464D01*
X163422470Y-133840459D01*
X163581641Y-133776151D01*
X163750277Y-133743981D01*
X163921946Y-133745180D01*
X163921946Y-133745180D01*
G37*
G36*
X166461946Y-133745180D02*
X166630118Y-133779700D01*
X166788374Y-133846226D01*
X166930703Y-133942228D01*
X167051673Y-134064045D01*
X167146673Y-134207030D01*
X167212094Y-134365756D01*
X167245353Y-134533724D01*
X167245353Y-134533733D01*
X167245438Y-134534163D01*
X167242700Y-134730248D01*
X167242603Y-134730674D01*
X167242603Y-134730685D01*
X167204667Y-134897658D01*
X167134841Y-135054490D01*
X167035883Y-135194773D01*
X166911560Y-135313164D01*
X166766610Y-135405152D01*
X166606549Y-135467236D01*
X166437487Y-135497046D01*
X166265849Y-135493450D01*
X166098175Y-135456586D01*
X165940859Y-135387856D01*
X165799890Y-135289879D01*
X165680634Y-135166387D01*
X165587635Y-135022081D01*
X165524437Y-134862461D01*
X165493447Y-134693606D01*
X165495844Y-134521944D01*
X165531536Y-134354025D01*
X165599167Y-134196232D01*
X165696157Y-134054581D01*
X165818815Y-133934464D01*
X165962470Y-133840459D01*
X166121641Y-133776151D01*
X166290277Y-133743981D01*
X166461946Y-133745180D01*
X166461946Y-133745180D01*
G37*
G36*
X169001946Y-133745180D02*
X169170118Y-133779700D01*
X169328374Y-133846226D01*
X169470703Y-133942228D01*
X169591673Y-134064045D01*
X169686673Y-134207030D01*
X169752094Y-134365756D01*
X169785353Y-134533724D01*
X169785353Y-134533733D01*
X169785438Y-134534163D01*
X169782700Y-134730248D01*
X169782603Y-134730674D01*
X169782603Y-134730685D01*
X169744667Y-134897658D01*
X169674841Y-135054490D01*
X169575883Y-135194773D01*
X169451560Y-135313164D01*
X169306610Y-135405152D01*
X169146549Y-135467236D01*
X168977487Y-135497046D01*
X168805849Y-135493450D01*
X168638175Y-135456586D01*
X168480859Y-135387856D01*
X168339890Y-135289879D01*
X168220634Y-135166387D01*
X168127635Y-135022081D01*
X168064437Y-134862461D01*
X168033447Y-134693606D01*
X168035844Y-134521944D01*
X168071536Y-134354025D01*
X168139167Y-134196232D01*
X168236157Y-134054581D01*
X168358815Y-133934464D01*
X168502470Y-133840459D01*
X168661641Y-133776151D01*
X168830277Y-133743981D01*
X169001946Y-133745180D01*
X169001946Y-133745180D01*
G37*
G36*
X171541946Y-133745180D02*
X171710118Y-133779700D01*
X171868374Y-133846226D01*
X172010703Y-133942228D01*
X172131673Y-134064045D01*
X172226673Y-134207030D01*
X172292094Y-134365756D01*
X172325353Y-134533724D01*
X172325353Y-134533733D01*
X172325438Y-134534163D01*
X172322700Y-134730248D01*
X172322603Y-134730674D01*
X172322603Y-134730685D01*
X172284667Y-134897658D01*
X172214841Y-135054490D01*
X172115883Y-135194773D01*
X171991560Y-135313164D01*
X171846610Y-135405152D01*
X171686549Y-135467236D01*
X171517487Y-135497046D01*
X171345849Y-135493450D01*
X171178175Y-135456586D01*
X171020859Y-135387856D01*
X170879890Y-135289879D01*
X170760634Y-135166387D01*
X170667635Y-135022081D01*
X170604437Y-134862461D01*
X170573447Y-134693606D01*
X170575844Y-134521944D01*
X170611536Y-134354025D01*
X170679167Y-134196232D01*
X170776157Y-134054581D01*
X170898815Y-133934464D01*
X171042470Y-133840459D01*
X171201641Y-133776151D01*
X171370277Y-133743981D01*
X171541946Y-133745180D01*
X171541946Y-133745180D01*
G37*
G36*
X174081946Y-133745180D02*
X174250118Y-133779700D01*
X174408374Y-133846226D01*
X174550703Y-133942228D01*
X174671673Y-134064045D01*
X174766673Y-134207030D01*
X174832094Y-134365756D01*
X174865353Y-134533724D01*
X174865353Y-134533733D01*
X174865438Y-134534163D01*
X174862700Y-134730248D01*
X174862603Y-134730674D01*
X174862603Y-134730685D01*
X174824667Y-134897658D01*
X174754841Y-135054490D01*
X174655883Y-135194773D01*
X174531560Y-135313164D01*
X174386610Y-135405152D01*
X174226549Y-135467236D01*
X174057487Y-135497046D01*
X173885849Y-135493450D01*
X173718175Y-135456586D01*
X173560859Y-135387856D01*
X173419890Y-135289879D01*
X173300634Y-135166387D01*
X173207635Y-135022081D01*
X173144437Y-134862461D01*
X173113447Y-134693606D01*
X173115844Y-134521944D01*
X173151536Y-134354025D01*
X173219167Y-134196232D01*
X173316157Y-134054581D01*
X173438815Y-133934464D01*
X173582470Y-133840459D01*
X173741641Y-133776151D01*
X173910277Y-133743981D01*
X174081946Y-133745180D01*
X174081946Y-133745180D01*
G37*
G36*
X176621946Y-133745180D02*
X176790118Y-133779700D01*
X176948374Y-133846226D01*
X177090703Y-133942228D01*
X177211673Y-134064045D01*
X177306673Y-134207030D01*
X177372094Y-134365756D01*
X177405353Y-134533724D01*
X177405353Y-134533733D01*
X177405438Y-134534163D01*
X177402700Y-134730248D01*
X177402603Y-134730674D01*
X177402603Y-134730685D01*
X177364667Y-134897658D01*
X177294841Y-135054490D01*
X177195883Y-135194773D01*
X177071560Y-135313164D01*
X176926610Y-135405152D01*
X176766549Y-135467236D01*
X176597487Y-135497046D01*
X176425849Y-135493450D01*
X176258175Y-135456586D01*
X176100859Y-135387856D01*
X175959890Y-135289879D01*
X175840634Y-135166387D01*
X175747635Y-135022081D01*
X175684437Y-134862461D01*
X175653447Y-134693606D01*
X175655844Y-134521944D01*
X175691536Y-134354025D01*
X175759167Y-134196232D01*
X175856157Y-134054581D01*
X175978815Y-133934464D01*
X176122470Y-133840459D01*
X176281641Y-133776151D01*
X176450277Y-133743981D01*
X176621946Y-133745180D01*
X176621946Y-133745180D01*
G37*
G36*
X179161946Y-133745180D02*
X179330118Y-133779700D01*
X179488374Y-133846226D01*
X179630703Y-133942228D01*
X179751673Y-134064045D01*
X179846673Y-134207030D01*
X179912094Y-134365756D01*
X179945353Y-134533724D01*
X179945353Y-134533733D01*
X179945438Y-134534163D01*
X179942700Y-134730248D01*
X179942603Y-134730674D01*
X179942603Y-134730685D01*
X179904667Y-134897658D01*
X179834841Y-135054490D01*
X179735883Y-135194773D01*
X179611560Y-135313164D01*
X179466610Y-135405152D01*
X179306549Y-135467236D01*
X179137487Y-135497046D01*
X178965849Y-135493450D01*
X178798175Y-135456586D01*
X178640859Y-135387856D01*
X178499890Y-135289879D01*
X178380634Y-135166387D01*
X178287635Y-135022081D01*
X178224437Y-134862461D01*
X178193447Y-134693606D01*
X178195844Y-134521944D01*
X178231536Y-134354025D01*
X178299167Y-134196232D01*
X178396157Y-134054581D01*
X178518815Y-133934464D01*
X178662470Y-133840459D01*
X178821641Y-133776151D01*
X178990277Y-133743981D01*
X179161946Y-133745180D01*
X179161946Y-133745180D01*
G37*
G36*
X181701946Y-133745180D02*
X181870118Y-133779700D01*
X182028374Y-133846226D01*
X182170703Y-133942228D01*
X182291673Y-134064045D01*
X182386673Y-134207030D01*
X182452094Y-134365756D01*
X182485353Y-134533724D01*
X182485353Y-134533733D01*
X182485438Y-134534163D01*
X182482700Y-134730248D01*
X182482603Y-134730674D01*
X182482603Y-134730685D01*
X182444667Y-134897658D01*
X182374841Y-135054490D01*
X182275883Y-135194773D01*
X182151560Y-135313164D01*
X182006610Y-135405152D01*
X181846549Y-135467236D01*
X181677487Y-135497046D01*
X181505849Y-135493450D01*
X181338175Y-135456586D01*
X181180859Y-135387856D01*
X181039890Y-135289879D01*
X180920634Y-135166387D01*
X180827635Y-135022081D01*
X180764437Y-134862461D01*
X180733447Y-134693606D01*
X180735844Y-134521944D01*
X180771536Y-134354025D01*
X180839167Y-134196232D01*
X180936157Y-134054581D01*
X181058815Y-133934464D01*
X181202470Y-133840459D01*
X181361641Y-133776151D01*
X181530277Y-133743981D01*
X181701946Y-133745180D01*
X181701946Y-133745180D01*
G37*
G36*
X184241946Y-133745180D02*
X184410118Y-133779700D01*
X184568374Y-133846226D01*
X184710703Y-133942228D01*
X184831673Y-134064045D01*
X184926673Y-134207030D01*
X184992094Y-134365756D01*
X185025353Y-134533724D01*
X185025353Y-134533733D01*
X185025438Y-134534163D01*
X185022700Y-134730248D01*
X185022603Y-134730674D01*
X185022603Y-134730685D01*
X184984667Y-134897658D01*
X184914841Y-135054490D01*
X184815883Y-135194773D01*
X184691560Y-135313164D01*
X184546610Y-135405152D01*
X184386549Y-135467236D01*
X184217487Y-135497046D01*
X184045849Y-135493450D01*
X183878175Y-135456586D01*
X183720859Y-135387856D01*
X183579890Y-135289879D01*
X183460634Y-135166387D01*
X183367635Y-135022081D01*
X183304437Y-134862461D01*
X183273447Y-134693606D01*
X183275844Y-134521944D01*
X183311536Y-134354025D01*
X183379167Y-134196232D01*
X183476157Y-134054581D01*
X183598815Y-133934464D01*
X183742470Y-133840459D01*
X183901641Y-133776151D01*
X184070277Y-133743981D01*
X184241946Y-133745180D01*
X184241946Y-133745180D01*
G37*
G36*
X156301946Y-131205180D02*
X156470118Y-131239700D01*
X156628374Y-131306226D01*
X156770703Y-131402228D01*
X156891673Y-131524045D01*
X156986673Y-131667030D01*
X157052094Y-131825756D01*
X157085353Y-131993724D01*
X157085353Y-131993733D01*
X157085438Y-131994163D01*
X157082700Y-132190248D01*
X157082603Y-132190674D01*
X157082603Y-132190685D01*
X157044667Y-132357658D01*
X156974841Y-132514490D01*
X156875883Y-132654773D01*
X156751560Y-132773164D01*
X156606610Y-132865152D01*
X156446549Y-132927236D01*
X156277487Y-132957046D01*
X156105849Y-132953450D01*
X155938175Y-132916586D01*
X155780859Y-132847856D01*
X155639890Y-132749879D01*
X155520634Y-132626387D01*
X155427635Y-132482081D01*
X155364437Y-132322461D01*
X155333447Y-132153606D01*
X155335844Y-131981944D01*
X155371536Y-131814025D01*
X155439167Y-131656232D01*
X155536157Y-131514581D01*
X155658815Y-131394464D01*
X155802470Y-131300459D01*
X155961641Y-131236151D01*
X156130277Y-131203981D01*
X156301946Y-131205180D01*
X156301946Y-131205180D01*
G37*
G36*
X158841946Y-131205180D02*
X159010118Y-131239700D01*
X159168374Y-131306226D01*
X159310703Y-131402228D01*
X159431673Y-131524045D01*
X159526673Y-131667030D01*
X159592094Y-131825756D01*
X159625353Y-131993724D01*
X159625353Y-131993733D01*
X159625438Y-131994163D01*
X159622700Y-132190248D01*
X159622603Y-132190674D01*
X159622603Y-132190685D01*
X159584667Y-132357658D01*
X159514841Y-132514490D01*
X159415883Y-132654773D01*
X159291560Y-132773164D01*
X159146610Y-132865152D01*
X158986549Y-132927236D01*
X158817487Y-132957046D01*
X158645849Y-132953450D01*
X158478175Y-132916586D01*
X158320859Y-132847856D01*
X158179890Y-132749879D01*
X158060634Y-132626387D01*
X157967635Y-132482081D01*
X157904437Y-132322461D01*
X157873447Y-132153606D01*
X157875844Y-131981944D01*
X157911536Y-131814025D01*
X157979167Y-131656232D01*
X158076157Y-131514581D01*
X158198815Y-131394464D01*
X158342470Y-131300459D01*
X158501641Y-131236151D01*
X158670277Y-131203981D01*
X158841946Y-131205180D01*
X158841946Y-131205180D01*
G37*
G36*
X161381946Y-131205180D02*
X161550118Y-131239700D01*
X161708374Y-131306226D01*
X161850703Y-131402228D01*
X161971673Y-131524045D01*
X162066673Y-131667030D01*
X162132094Y-131825756D01*
X162165353Y-131993724D01*
X162165353Y-131993733D01*
X162165438Y-131994163D01*
X162162700Y-132190248D01*
X162162603Y-132190674D01*
X162162603Y-132190685D01*
X162124667Y-132357658D01*
X162054841Y-132514490D01*
X161955883Y-132654773D01*
X161831560Y-132773164D01*
X161686610Y-132865152D01*
X161526549Y-132927236D01*
X161357487Y-132957046D01*
X161185849Y-132953450D01*
X161018175Y-132916586D01*
X160860859Y-132847856D01*
X160719890Y-132749879D01*
X160600634Y-132626387D01*
X160507635Y-132482081D01*
X160444437Y-132322461D01*
X160413447Y-132153606D01*
X160415844Y-131981944D01*
X160451536Y-131814025D01*
X160519167Y-131656232D01*
X160616157Y-131514581D01*
X160738815Y-131394464D01*
X160882470Y-131300459D01*
X161041641Y-131236151D01*
X161210277Y-131203981D01*
X161381946Y-131205180D01*
X161381946Y-131205180D01*
G37*
G36*
X163921946Y-131205180D02*
X164090118Y-131239700D01*
X164248374Y-131306226D01*
X164390703Y-131402228D01*
X164511673Y-131524045D01*
X164606673Y-131667030D01*
X164672094Y-131825756D01*
X164705353Y-131993724D01*
X164705353Y-131993733D01*
X164705438Y-131994163D01*
X164702700Y-132190248D01*
X164702603Y-132190674D01*
X164702603Y-132190685D01*
X164664667Y-132357658D01*
X164594841Y-132514490D01*
X164495883Y-132654773D01*
X164371560Y-132773164D01*
X164226610Y-132865152D01*
X164066549Y-132927236D01*
X163897487Y-132957046D01*
X163725849Y-132953450D01*
X163558175Y-132916586D01*
X163400859Y-132847856D01*
X163259890Y-132749879D01*
X163140634Y-132626387D01*
X163047635Y-132482081D01*
X162984437Y-132322461D01*
X162953447Y-132153606D01*
X162955844Y-131981944D01*
X162991536Y-131814025D01*
X163059167Y-131656232D01*
X163156157Y-131514581D01*
X163278815Y-131394464D01*
X163422470Y-131300459D01*
X163581641Y-131236151D01*
X163750277Y-131203981D01*
X163921946Y-131205180D01*
X163921946Y-131205180D01*
G37*
G36*
X166461946Y-131205180D02*
X166630118Y-131239700D01*
X166788374Y-131306226D01*
X166930703Y-131402228D01*
X167051673Y-131524045D01*
X167146673Y-131667030D01*
X167212094Y-131825756D01*
X167245353Y-131993724D01*
X167245353Y-131993733D01*
X167245438Y-131994163D01*
X167242700Y-132190248D01*
X167242603Y-132190674D01*
X167242603Y-132190685D01*
X167204667Y-132357658D01*
X167134841Y-132514490D01*
X167035883Y-132654773D01*
X166911560Y-132773164D01*
X166766610Y-132865152D01*
X166606549Y-132927236D01*
X166437487Y-132957046D01*
X166265849Y-132953450D01*
X166098175Y-132916586D01*
X165940859Y-132847856D01*
X165799890Y-132749879D01*
X165680634Y-132626387D01*
X165587635Y-132482081D01*
X165524437Y-132322461D01*
X165493447Y-132153606D01*
X165495844Y-131981944D01*
X165531536Y-131814025D01*
X165599167Y-131656232D01*
X165696157Y-131514581D01*
X165818815Y-131394464D01*
X165962470Y-131300459D01*
X166121641Y-131236151D01*
X166290277Y-131203981D01*
X166461946Y-131205180D01*
X166461946Y-131205180D01*
G37*
G36*
X169001946Y-131205180D02*
X169170118Y-131239700D01*
X169328374Y-131306226D01*
X169470703Y-131402228D01*
X169591673Y-131524045D01*
X169686673Y-131667030D01*
X169752094Y-131825756D01*
X169785353Y-131993724D01*
X169785353Y-131993733D01*
X169785438Y-131994163D01*
X169782700Y-132190248D01*
X169782603Y-132190674D01*
X169782603Y-132190685D01*
X169744667Y-132357658D01*
X169674841Y-132514490D01*
X169575883Y-132654773D01*
X169451560Y-132773164D01*
X169306610Y-132865152D01*
X169146549Y-132927236D01*
X168977487Y-132957046D01*
X168805849Y-132953450D01*
X168638175Y-132916586D01*
X168480859Y-132847856D01*
X168339890Y-132749879D01*
X168220634Y-132626387D01*
X168127635Y-132482081D01*
X168064437Y-132322461D01*
X168033447Y-132153606D01*
X168035844Y-131981944D01*
X168071536Y-131814025D01*
X168139167Y-131656232D01*
X168236157Y-131514581D01*
X168358815Y-131394464D01*
X168502470Y-131300459D01*
X168661641Y-131236151D01*
X168830277Y-131203981D01*
X169001946Y-131205180D01*
X169001946Y-131205180D01*
G37*
G36*
X171541946Y-131205180D02*
X171710118Y-131239700D01*
X171868374Y-131306226D01*
X172010703Y-131402228D01*
X172131673Y-131524045D01*
X172226673Y-131667030D01*
X172292094Y-131825756D01*
X172325353Y-131993724D01*
X172325353Y-131993733D01*
X172325438Y-131994163D01*
X172322700Y-132190248D01*
X172322603Y-132190674D01*
X172322603Y-132190685D01*
X172284667Y-132357658D01*
X172214841Y-132514490D01*
X172115883Y-132654773D01*
X171991560Y-132773164D01*
X171846610Y-132865152D01*
X171686549Y-132927236D01*
X171517487Y-132957046D01*
X171345849Y-132953450D01*
X171178175Y-132916586D01*
X171020859Y-132847856D01*
X170879890Y-132749879D01*
X170760634Y-132626387D01*
X170667635Y-132482081D01*
X170604437Y-132322461D01*
X170573447Y-132153606D01*
X170575844Y-131981944D01*
X170611536Y-131814025D01*
X170679167Y-131656232D01*
X170776157Y-131514581D01*
X170898815Y-131394464D01*
X171042470Y-131300459D01*
X171201641Y-131236151D01*
X171370277Y-131203981D01*
X171541946Y-131205180D01*
X171541946Y-131205180D01*
G37*
G36*
X174081946Y-131205180D02*
X174250118Y-131239700D01*
X174408374Y-131306226D01*
X174550703Y-131402228D01*
X174671673Y-131524045D01*
X174766673Y-131667030D01*
X174832094Y-131825756D01*
X174865353Y-131993724D01*
X174865353Y-131993733D01*
X174865438Y-131994163D01*
X174862700Y-132190248D01*
X174862603Y-132190674D01*
X174862603Y-132190685D01*
X174824667Y-132357658D01*
X174754841Y-132514490D01*
X174655883Y-132654773D01*
X174531560Y-132773164D01*
X174386610Y-132865152D01*
X174226549Y-132927236D01*
X174057487Y-132957046D01*
X173885849Y-132953450D01*
X173718175Y-132916586D01*
X173560859Y-132847856D01*
X173419890Y-132749879D01*
X173300634Y-132626387D01*
X173207635Y-132482081D01*
X173144437Y-132322461D01*
X173113447Y-132153606D01*
X173115844Y-131981944D01*
X173151536Y-131814025D01*
X173219167Y-131656232D01*
X173316157Y-131514581D01*
X173438815Y-131394464D01*
X173582470Y-131300459D01*
X173741641Y-131236151D01*
X173910277Y-131203981D01*
X174081946Y-131205180D01*
X174081946Y-131205180D01*
G37*
G36*
X176621946Y-131205180D02*
X176790118Y-131239700D01*
X176948374Y-131306226D01*
X177090703Y-131402228D01*
X177211673Y-131524045D01*
X177306673Y-131667030D01*
X177372094Y-131825756D01*
X177405353Y-131993724D01*
X177405353Y-131993733D01*
X177405438Y-131994163D01*
X177402700Y-132190248D01*
X177402603Y-132190674D01*
X177402603Y-132190685D01*
X177364667Y-132357658D01*
X177294841Y-132514490D01*
X177195883Y-132654773D01*
X177071560Y-132773164D01*
X176926610Y-132865152D01*
X176766549Y-132927236D01*
X176597487Y-132957046D01*
X176425849Y-132953450D01*
X176258175Y-132916586D01*
X176100859Y-132847856D01*
X175959890Y-132749879D01*
X175840634Y-132626387D01*
X175747635Y-132482081D01*
X175684437Y-132322461D01*
X175653447Y-132153606D01*
X175655844Y-131981944D01*
X175691536Y-131814025D01*
X175759167Y-131656232D01*
X175856157Y-131514581D01*
X175978815Y-131394464D01*
X176122470Y-131300459D01*
X176281641Y-131236151D01*
X176450277Y-131203981D01*
X176621946Y-131205180D01*
X176621946Y-131205180D01*
G37*
G36*
X179161946Y-131205180D02*
X179330118Y-131239700D01*
X179488374Y-131306226D01*
X179630703Y-131402228D01*
X179751673Y-131524045D01*
X179846673Y-131667030D01*
X179912094Y-131825756D01*
X179945353Y-131993724D01*
X179945353Y-131993733D01*
X179945438Y-131994163D01*
X179942700Y-132190248D01*
X179942603Y-132190674D01*
X179942603Y-132190685D01*
X179904667Y-132357658D01*
X179834841Y-132514490D01*
X179735883Y-132654773D01*
X179611560Y-132773164D01*
X179466610Y-132865152D01*
X179306549Y-132927236D01*
X179137487Y-132957046D01*
X178965849Y-132953450D01*
X178798175Y-132916586D01*
X178640859Y-132847856D01*
X178499890Y-132749879D01*
X178380634Y-132626387D01*
X178287635Y-132482081D01*
X178224437Y-132322461D01*
X178193447Y-132153606D01*
X178195844Y-131981944D01*
X178231536Y-131814025D01*
X178299167Y-131656232D01*
X178396157Y-131514581D01*
X178518815Y-131394464D01*
X178662470Y-131300459D01*
X178821641Y-131236151D01*
X178990277Y-131203981D01*
X179161946Y-131205180D01*
X179161946Y-131205180D01*
G37*
G36*
X184241946Y-131205180D02*
X184410118Y-131239700D01*
X184568374Y-131306226D01*
X184710703Y-131402228D01*
X184831673Y-131524045D01*
X184926673Y-131667030D01*
X184992094Y-131825756D01*
X185025353Y-131993724D01*
X185025353Y-131993733D01*
X185025438Y-131994163D01*
X185022700Y-132190248D01*
X185022603Y-132190674D01*
X185022603Y-132190685D01*
X184984667Y-132357658D01*
X184914841Y-132514490D01*
X184815883Y-132654773D01*
X184691560Y-132773164D01*
X184546610Y-132865152D01*
X184386549Y-132927236D01*
X184217487Y-132957046D01*
X184045849Y-132953450D01*
X183878175Y-132916586D01*
X183720859Y-132847856D01*
X183579890Y-132749879D01*
X183460634Y-132626387D01*
X183367635Y-132482081D01*
X183304437Y-132322461D01*
X183273447Y-132153606D01*
X183275844Y-131981944D01*
X183311536Y-131814025D01*
X183379167Y-131656232D01*
X183476157Y-131514581D01*
X183598815Y-131394464D01*
X183742470Y-131300459D01*
X183901641Y-131236151D01*
X184070277Y-131203981D01*
X184241946Y-131205180D01*
X184241946Y-131205180D01*
G37*
G36*
X181701946Y-131205180D02*
X181870118Y-131239700D01*
X182028374Y-131306226D01*
X182170703Y-131402228D01*
X182291673Y-131524045D01*
X182386673Y-131667030D01*
X182452094Y-131825756D01*
X182485353Y-131993724D01*
X182485353Y-131993733D01*
X182485438Y-131994163D01*
X182482700Y-132190248D01*
X182482603Y-132190674D01*
X182482603Y-132190685D01*
X182444667Y-132357658D01*
X182374841Y-132514490D01*
X182275883Y-132654773D01*
X182151560Y-132773164D01*
X182006610Y-132865152D01*
X181846549Y-132927236D01*
X181677487Y-132957046D01*
X181505849Y-132953450D01*
X181338175Y-132916586D01*
X181180859Y-132847856D01*
X181039890Y-132749879D01*
X180920634Y-132626387D01*
X180827635Y-132482081D01*
X180764437Y-132322461D01*
X180733447Y-132153606D01*
X180735844Y-131981944D01*
X180771536Y-131814025D01*
X180839167Y-131656232D01*
X180936157Y-131514581D01*
X181058815Y-131394464D01*
X181202470Y-131300459D01*
X181361641Y-131236151D01*
X181530277Y-131203981D01*
X181701946Y-131205180D01*
X181701946Y-131205180D01*
G37*
G36*
X156301946Y-128665180D02*
X156470118Y-128699700D01*
X156628374Y-128766226D01*
X156770703Y-128862228D01*
X156891673Y-128984045D01*
X156986673Y-129127030D01*
X157052094Y-129285756D01*
X157085353Y-129453724D01*
X157085353Y-129453733D01*
X157085438Y-129454163D01*
X157082700Y-129650248D01*
X157082603Y-129650674D01*
X157082603Y-129650685D01*
X157044667Y-129817658D01*
X156974841Y-129974490D01*
X156875883Y-130114773D01*
X156751560Y-130233164D01*
X156606610Y-130325152D01*
X156446549Y-130387236D01*
X156277487Y-130417046D01*
X156105849Y-130413450D01*
X155938175Y-130376586D01*
X155780859Y-130307856D01*
X155639890Y-130209879D01*
X155520634Y-130086387D01*
X155427635Y-129942081D01*
X155364437Y-129782461D01*
X155333447Y-129613606D01*
X155335844Y-129441944D01*
X155371536Y-129274025D01*
X155439167Y-129116232D01*
X155536157Y-128974581D01*
X155658815Y-128854464D01*
X155802470Y-128760459D01*
X155961641Y-128696151D01*
X156130277Y-128663981D01*
X156301946Y-128665180D01*
X156301946Y-128665180D01*
G37*
G36*
X184241946Y-128665180D02*
X184410118Y-128699700D01*
X184568374Y-128766226D01*
X184710703Y-128862228D01*
X184831673Y-128984045D01*
X184926673Y-129127030D01*
X184992094Y-129285756D01*
X185025353Y-129453724D01*
X185025353Y-129453733D01*
X185025438Y-129454163D01*
X185022700Y-129650248D01*
X185022603Y-129650674D01*
X185022603Y-129650685D01*
X184984667Y-129817658D01*
X184914841Y-129974490D01*
X184815883Y-130114773D01*
X184691560Y-130233164D01*
X184546610Y-130325152D01*
X184386549Y-130387236D01*
X184217487Y-130417046D01*
X184045849Y-130413450D01*
X183878175Y-130376586D01*
X183720859Y-130307856D01*
X183579890Y-130209879D01*
X183460634Y-130086387D01*
X183367635Y-129942081D01*
X183304437Y-129782461D01*
X183273447Y-129613606D01*
X183275844Y-129441944D01*
X183311536Y-129274025D01*
X183379167Y-129116232D01*
X183476157Y-128974581D01*
X183598815Y-128854464D01*
X183742470Y-128760459D01*
X183901641Y-128696151D01*
X184070277Y-128663981D01*
X184241946Y-128665180D01*
X184241946Y-128665180D01*
G37*
G36*
X184241946Y-126125180D02*
X184410118Y-126159700D01*
X184568374Y-126226226D01*
X184710703Y-126322228D01*
X184831673Y-126444045D01*
X184926673Y-126587030D01*
X184992094Y-126745756D01*
X185025353Y-126913724D01*
X185025353Y-126913733D01*
X185025438Y-126914163D01*
X185022700Y-127110248D01*
X185022603Y-127110674D01*
X185022603Y-127110685D01*
X184984667Y-127277658D01*
X184914841Y-127434490D01*
X184815883Y-127574773D01*
X184691560Y-127693164D01*
X184546610Y-127785152D01*
X184386549Y-127847236D01*
X184217487Y-127877046D01*
X184045849Y-127873450D01*
X183878175Y-127836586D01*
X183720859Y-127767856D01*
X183579890Y-127669879D01*
X183460634Y-127546387D01*
X183367635Y-127402081D01*
X183304437Y-127242461D01*
X183273447Y-127073606D01*
X183275844Y-126901944D01*
X183311536Y-126734025D01*
X183379167Y-126576232D01*
X183476157Y-126434581D01*
X183598815Y-126314464D01*
X183742470Y-126220459D01*
X183901641Y-126156151D01*
X184070277Y-126123981D01*
X184241946Y-126125180D01*
X184241946Y-126125180D01*
G37*
G36*
X156301946Y-126125180D02*
X156470118Y-126159700D01*
X156628374Y-126226226D01*
X156770703Y-126322228D01*
X156891673Y-126444045D01*
X156986673Y-126587030D01*
X157052094Y-126745756D01*
X157085353Y-126913724D01*
X157085353Y-126913733D01*
X157085438Y-126914163D01*
X157082700Y-127110248D01*
X157082603Y-127110674D01*
X157082603Y-127110685D01*
X157044667Y-127277658D01*
X156974841Y-127434490D01*
X156875883Y-127574773D01*
X156751560Y-127693164D01*
X156606610Y-127785152D01*
X156446549Y-127847236D01*
X156277487Y-127877046D01*
X156105849Y-127873450D01*
X155938175Y-127836586D01*
X155780859Y-127767856D01*
X155639890Y-127669879D01*
X155520634Y-127546387D01*
X155427635Y-127402081D01*
X155364437Y-127242461D01*
X155333447Y-127073606D01*
X155335844Y-126901944D01*
X155371536Y-126734025D01*
X155439167Y-126576232D01*
X155536157Y-126434581D01*
X155658815Y-126314464D01*
X155802470Y-126220459D01*
X155961641Y-126156151D01*
X156130277Y-126123981D01*
X156301946Y-126125180D01*
X156301946Y-126125180D01*
G37*
G36*
X156301946Y-123585180D02*
X156470118Y-123619700D01*
X156628374Y-123686226D01*
X156770703Y-123782228D01*
X156891673Y-123904045D01*
X156986673Y-124047030D01*
X157052094Y-124205756D01*
X157085353Y-124373724D01*
X157085353Y-124373733D01*
X157085438Y-124374163D01*
X157082700Y-124570248D01*
X157082603Y-124570674D01*
X157082603Y-124570685D01*
X157044667Y-124737658D01*
X156974841Y-124894490D01*
X156875883Y-125034773D01*
X156751560Y-125153164D01*
X156606610Y-125245152D01*
X156446549Y-125307236D01*
X156277487Y-125337046D01*
X156105849Y-125333450D01*
X155938175Y-125296586D01*
X155780859Y-125227856D01*
X155639890Y-125129879D01*
X155520634Y-125006387D01*
X155427635Y-124862081D01*
X155364437Y-124702461D01*
X155333447Y-124533606D01*
X155335844Y-124361944D01*
X155371536Y-124194025D01*
X155439167Y-124036232D01*
X155536157Y-123894581D01*
X155658815Y-123774464D01*
X155802470Y-123680459D01*
X155961641Y-123616151D01*
X156130277Y-123583981D01*
X156301946Y-123585180D01*
X156301946Y-123585180D01*
G37*
G36*
X184241946Y-123585180D02*
X184410118Y-123619700D01*
X184568374Y-123686226D01*
X184710703Y-123782228D01*
X184831673Y-123904045D01*
X184926673Y-124047030D01*
X184992094Y-124205756D01*
X185025353Y-124373724D01*
X185025353Y-124373733D01*
X185025438Y-124374163D01*
X185022700Y-124570248D01*
X185022603Y-124570674D01*
X185022603Y-124570685D01*
X184984667Y-124737658D01*
X184914841Y-124894490D01*
X184815883Y-125034773D01*
X184691560Y-125153164D01*
X184546610Y-125245152D01*
X184386549Y-125307236D01*
X184217487Y-125337046D01*
X184045849Y-125333450D01*
X183878175Y-125296586D01*
X183720859Y-125227856D01*
X183579890Y-125129879D01*
X183460634Y-125006387D01*
X183367635Y-124862081D01*
X183304437Y-124702461D01*
X183273447Y-124533606D01*
X183275844Y-124361944D01*
X183311536Y-124194025D01*
X183379167Y-124036232D01*
X183476157Y-123894581D01*
X183598815Y-123774464D01*
X183742470Y-123680459D01*
X183901641Y-123616151D01*
X184070277Y-123583981D01*
X184241946Y-123585180D01*
X184241946Y-123585180D01*
G37*
G36*
X156301946Y-121045180D02*
X156470118Y-121079700D01*
X156628374Y-121146226D01*
X156770703Y-121242228D01*
X156891673Y-121364045D01*
X156986673Y-121507030D01*
X157052094Y-121665756D01*
X157085353Y-121833724D01*
X157085353Y-121833733D01*
X157085438Y-121834163D01*
X157082700Y-122030248D01*
X157082603Y-122030674D01*
X157082603Y-122030685D01*
X157044667Y-122197658D01*
X156974841Y-122354490D01*
X156875883Y-122494773D01*
X156751560Y-122613164D01*
X156606610Y-122705152D01*
X156446549Y-122767236D01*
X156277487Y-122797046D01*
X156105849Y-122793450D01*
X155938175Y-122756586D01*
X155780859Y-122687856D01*
X155639890Y-122589879D01*
X155520634Y-122466387D01*
X155427635Y-122322081D01*
X155364437Y-122162461D01*
X155333447Y-121993606D01*
X155335844Y-121821944D01*
X155371536Y-121654025D01*
X155439167Y-121496232D01*
X155536157Y-121354581D01*
X155658815Y-121234464D01*
X155802470Y-121140459D01*
X155961641Y-121076151D01*
X156130277Y-121043981D01*
X156301946Y-121045180D01*
X156301946Y-121045180D01*
G37*
G36*
X184241946Y-121045180D02*
X184410118Y-121079700D01*
X184568374Y-121146226D01*
X184710703Y-121242228D01*
X184831673Y-121364045D01*
X184926673Y-121507030D01*
X184992094Y-121665756D01*
X185025353Y-121833724D01*
X185025353Y-121833733D01*
X185025438Y-121834163D01*
X185022700Y-122030248D01*
X185022603Y-122030674D01*
X185022603Y-122030685D01*
X184984667Y-122197658D01*
X184914841Y-122354490D01*
X184815883Y-122494773D01*
X184691560Y-122613164D01*
X184546610Y-122705152D01*
X184386549Y-122767236D01*
X184217487Y-122797046D01*
X184045849Y-122793450D01*
X183878175Y-122756586D01*
X183720859Y-122687856D01*
X183579890Y-122589879D01*
X183460634Y-122466387D01*
X183367635Y-122322081D01*
X183304437Y-122162461D01*
X183273447Y-121993606D01*
X183275844Y-121821944D01*
X183311536Y-121654025D01*
X183379167Y-121496232D01*
X183476157Y-121354581D01*
X183598815Y-121234464D01*
X183742470Y-121140459D01*
X183901641Y-121076151D01*
X184070277Y-121043981D01*
X184241946Y-121045180D01*
X184241946Y-121045180D01*
G37*
G36*
X156301946Y-118505180D02*
X156470118Y-118539700D01*
X156628374Y-118606226D01*
X156770703Y-118702228D01*
X156891673Y-118824045D01*
X156986673Y-118967030D01*
X157052094Y-119125756D01*
X157085353Y-119293724D01*
X157085353Y-119293733D01*
X157085438Y-119294163D01*
X157082700Y-119490248D01*
X157082603Y-119490674D01*
X157082603Y-119490685D01*
X157044667Y-119657658D01*
X156974841Y-119814490D01*
X156875883Y-119954773D01*
X156751560Y-120073164D01*
X156606610Y-120165152D01*
X156446549Y-120227236D01*
X156277487Y-120257046D01*
X156105849Y-120253450D01*
X155938175Y-120216586D01*
X155780859Y-120147856D01*
X155639890Y-120049879D01*
X155520634Y-119926387D01*
X155427635Y-119782081D01*
X155364437Y-119622461D01*
X155333447Y-119453606D01*
X155335844Y-119281944D01*
X155371536Y-119114025D01*
X155439167Y-118956232D01*
X155536157Y-118814581D01*
X155658815Y-118694464D01*
X155802470Y-118600459D01*
X155961641Y-118536151D01*
X156130277Y-118503981D01*
X156301946Y-118505180D01*
X156301946Y-118505180D01*
G37*
G36*
X184241946Y-118505180D02*
X184410118Y-118539700D01*
X184568374Y-118606226D01*
X184710703Y-118702228D01*
X184831673Y-118824045D01*
X184926673Y-118967030D01*
X184992094Y-119125756D01*
X185025353Y-119293724D01*
X185025353Y-119293733D01*
X185025438Y-119294163D01*
X185022700Y-119490248D01*
X185022603Y-119490674D01*
X185022603Y-119490685D01*
X184984667Y-119657658D01*
X184914841Y-119814490D01*
X184815883Y-119954773D01*
X184691560Y-120073164D01*
X184546610Y-120165152D01*
X184386549Y-120227236D01*
X184217487Y-120257046D01*
X184045849Y-120253450D01*
X183878175Y-120216586D01*
X183720859Y-120147856D01*
X183579890Y-120049879D01*
X183460634Y-119926387D01*
X183367635Y-119782081D01*
X183304437Y-119622461D01*
X183273447Y-119453606D01*
X183275844Y-119281944D01*
X183311536Y-119114025D01*
X183379167Y-118956232D01*
X183476157Y-118814581D01*
X183598815Y-118694464D01*
X183742470Y-118600459D01*
X183901641Y-118536151D01*
X184070277Y-118503981D01*
X184241946Y-118505180D01*
X184241946Y-118505180D01*
G37*
G36*
X184241946Y-115965180D02*
X184410118Y-115999700D01*
X184568374Y-116066226D01*
X184710703Y-116162228D01*
X184831673Y-116284045D01*
X184926673Y-116427030D01*
X184992094Y-116585756D01*
X185025353Y-116753724D01*
X185025353Y-116753733D01*
X185025438Y-116754163D01*
X185022700Y-116950248D01*
X185022603Y-116950674D01*
X185022603Y-116950685D01*
X184984667Y-117117658D01*
X184914841Y-117274490D01*
X184815883Y-117414773D01*
X184691560Y-117533164D01*
X184546610Y-117625152D01*
X184386549Y-117687236D01*
X184217487Y-117717046D01*
X184045849Y-117713450D01*
X183878175Y-117676586D01*
X183720859Y-117607856D01*
X183579890Y-117509879D01*
X183460634Y-117386387D01*
X183367635Y-117242081D01*
X183304437Y-117082461D01*
X183273447Y-116913606D01*
X183275844Y-116741944D01*
X183311536Y-116574025D01*
X183379167Y-116416232D01*
X183476157Y-116274581D01*
X183598815Y-116154464D01*
X183742470Y-116060459D01*
X183901641Y-115996151D01*
X184070277Y-115963981D01*
X184241946Y-115965180D01*
X184241946Y-115965180D01*
G37*
G36*
X156301946Y-115965180D02*
X156470118Y-115999700D01*
X156628374Y-116066226D01*
X156770703Y-116162228D01*
X156891673Y-116284045D01*
X156986673Y-116427030D01*
X157052094Y-116585756D01*
X157085353Y-116753724D01*
X157085353Y-116753733D01*
X157085438Y-116754163D01*
X157082700Y-116950248D01*
X157082603Y-116950674D01*
X157082603Y-116950685D01*
X157044667Y-117117658D01*
X156974841Y-117274490D01*
X156875883Y-117414773D01*
X156751560Y-117533164D01*
X156606610Y-117625152D01*
X156446549Y-117687236D01*
X156277487Y-117717046D01*
X156105849Y-117713450D01*
X155938175Y-117676586D01*
X155780859Y-117607856D01*
X155639890Y-117509879D01*
X155520634Y-117386387D01*
X155427635Y-117242081D01*
X155364437Y-117082461D01*
X155333447Y-116913606D01*
X155335844Y-116741944D01*
X155371536Y-116574025D01*
X155439167Y-116416232D01*
X155536157Y-116274581D01*
X155658815Y-116154464D01*
X155802470Y-116060459D01*
X155961641Y-115996151D01*
X156130277Y-115963981D01*
X156301946Y-115965180D01*
X156301946Y-115965180D01*
G37*
G36*
X184241946Y-113425180D02*
X184410118Y-113459700D01*
X184568374Y-113526226D01*
X184710703Y-113622228D01*
X184831673Y-113744045D01*
X184926673Y-113887030D01*
X184992094Y-114045756D01*
X185025353Y-114213724D01*
X185025353Y-114213733D01*
X185025438Y-114214163D01*
X185022700Y-114410248D01*
X185022603Y-114410674D01*
X185022603Y-114410685D01*
X184984667Y-114577658D01*
X184914841Y-114734490D01*
X184815883Y-114874773D01*
X184691560Y-114993164D01*
X184546610Y-115085152D01*
X184386549Y-115147236D01*
X184217487Y-115177046D01*
X184045849Y-115173450D01*
X183878175Y-115136586D01*
X183720859Y-115067856D01*
X183579890Y-114969879D01*
X183460634Y-114846387D01*
X183367635Y-114702081D01*
X183304437Y-114542461D01*
X183273447Y-114373606D01*
X183275844Y-114201944D01*
X183311536Y-114034025D01*
X183379167Y-113876232D01*
X183476157Y-113734581D01*
X183598815Y-113614464D01*
X183742470Y-113520459D01*
X183901641Y-113456151D01*
X184070277Y-113423981D01*
X184241946Y-113425180D01*
X184241946Y-113425180D01*
G37*
G36*
X156301946Y-113425180D02*
X156470118Y-113459700D01*
X156628374Y-113526226D01*
X156770703Y-113622228D01*
X156891673Y-113744045D01*
X156986673Y-113887030D01*
X157052094Y-114045756D01*
X157085353Y-114213724D01*
X157085353Y-114213733D01*
X157085438Y-114214163D01*
X157082700Y-114410248D01*
X157082603Y-114410674D01*
X157082603Y-114410685D01*
X157044667Y-114577658D01*
X156974841Y-114734490D01*
X156875883Y-114874773D01*
X156751560Y-114993164D01*
X156606610Y-115085152D01*
X156446549Y-115147236D01*
X156277487Y-115177046D01*
X156105849Y-115173450D01*
X155938175Y-115136586D01*
X155780859Y-115067856D01*
X155639890Y-114969879D01*
X155520634Y-114846387D01*
X155427635Y-114702081D01*
X155364437Y-114542461D01*
X155333447Y-114373606D01*
X155335844Y-114201944D01*
X155371536Y-114034025D01*
X155439167Y-113876232D01*
X155536157Y-113734581D01*
X155658815Y-113614464D01*
X155802470Y-113520459D01*
X155961641Y-113456151D01*
X156130277Y-113423981D01*
X156301946Y-113425180D01*
X156301946Y-113425180D01*
G37*
G36*
X184241946Y-110885180D02*
X184410118Y-110919700D01*
X184568374Y-110986226D01*
X184710703Y-111082228D01*
X184831673Y-111204045D01*
X184926673Y-111347030D01*
X184992094Y-111505756D01*
X185025353Y-111673724D01*
X185025353Y-111673733D01*
X185025438Y-111674163D01*
X185022700Y-111870248D01*
X185022603Y-111870674D01*
X185022603Y-111870685D01*
X184984667Y-112037658D01*
X184914841Y-112194490D01*
X184815883Y-112334773D01*
X184691560Y-112453164D01*
X184546610Y-112545152D01*
X184386549Y-112607236D01*
X184217487Y-112637046D01*
X184045849Y-112633450D01*
X183878175Y-112596586D01*
X183720859Y-112527856D01*
X183579890Y-112429879D01*
X183460634Y-112306387D01*
X183367635Y-112162081D01*
X183304437Y-112002461D01*
X183273447Y-111833606D01*
X183275844Y-111661944D01*
X183311536Y-111494025D01*
X183379167Y-111336232D01*
X183476157Y-111194581D01*
X183598815Y-111074464D01*
X183742470Y-110980459D01*
X183901641Y-110916151D01*
X184070277Y-110883981D01*
X184241946Y-110885180D01*
X184241946Y-110885180D01*
G37*
G36*
X156301946Y-110885180D02*
X156470118Y-110919700D01*
X156628374Y-110986226D01*
X156770703Y-111082228D01*
X156891673Y-111204045D01*
X156986673Y-111347030D01*
X157052094Y-111505756D01*
X157085353Y-111673724D01*
X157085353Y-111673733D01*
X157085438Y-111674163D01*
X157082700Y-111870248D01*
X157082603Y-111870674D01*
X157082603Y-111870685D01*
X157044667Y-112037658D01*
X156974841Y-112194490D01*
X156875883Y-112334773D01*
X156751560Y-112453164D01*
X156606610Y-112545152D01*
X156446549Y-112607236D01*
X156277487Y-112637046D01*
X156105849Y-112633450D01*
X155938175Y-112596586D01*
X155780859Y-112527856D01*
X155639890Y-112429879D01*
X155520634Y-112306387D01*
X155427635Y-112162081D01*
X155364437Y-112002461D01*
X155333447Y-111833606D01*
X155335844Y-111661944D01*
X155371536Y-111494025D01*
X155439167Y-111336232D01*
X155536157Y-111194581D01*
X155658815Y-111074464D01*
X155802470Y-110980459D01*
X155961641Y-110916151D01*
X156130277Y-110883981D01*
X156301946Y-110885180D01*
X156301946Y-110885180D01*
G37*
G36*
X184241946Y-108345180D02*
X184410118Y-108379700D01*
X184568374Y-108446226D01*
X184710703Y-108542228D01*
X184831673Y-108664045D01*
X184926673Y-108807030D01*
X184992094Y-108965756D01*
X185025353Y-109133724D01*
X185025353Y-109133733D01*
X185025438Y-109134163D01*
X185022700Y-109330248D01*
X185022603Y-109330674D01*
X185022603Y-109330685D01*
X184984667Y-109497658D01*
X184914841Y-109654490D01*
X184815883Y-109794773D01*
X184691560Y-109913164D01*
X184546610Y-110005152D01*
X184386549Y-110067236D01*
X184217487Y-110097046D01*
X184045849Y-110093450D01*
X183878175Y-110056586D01*
X183720859Y-109987856D01*
X183579890Y-109889879D01*
X183460634Y-109766387D01*
X183367635Y-109622081D01*
X183304437Y-109462461D01*
X183273447Y-109293606D01*
X183275844Y-109121944D01*
X183311536Y-108954025D01*
X183379167Y-108796232D01*
X183476157Y-108654581D01*
X183598815Y-108534464D01*
X183742470Y-108440459D01*
X183901641Y-108376151D01*
X184070277Y-108343981D01*
X184241946Y-108345180D01*
X184241946Y-108345180D01*
G37*
G36*
X156301946Y-108345180D02*
X156470118Y-108379700D01*
X156628374Y-108446226D01*
X156770703Y-108542228D01*
X156891673Y-108664045D01*
X156986673Y-108807030D01*
X157052094Y-108965756D01*
X157085353Y-109133724D01*
X157085353Y-109133733D01*
X157085438Y-109134163D01*
X157082700Y-109330248D01*
X157082603Y-109330674D01*
X157082603Y-109330685D01*
X157044667Y-109497658D01*
X156974841Y-109654490D01*
X156875883Y-109794773D01*
X156751560Y-109913164D01*
X156606610Y-110005152D01*
X156446549Y-110067236D01*
X156277487Y-110097046D01*
X156105849Y-110093450D01*
X155938175Y-110056586D01*
X155780859Y-109987856D01*
X155639890Y-109889879D01*
X155520634Y-109766387D01*
X155427635Y-109622081D01*
X155364437Y-109462461D01*
X155333447Y-109293606D01*
X155335844Y-109121944D01*
X155371536Y-108954025D01*
X155439167Y-108796232D01*
X155536157Y-108654581D01*
X155658815Y-108534464D01*
X155802470Y-108440459D01*
X155961641Y-108376151D01*
X156130277Y-108343981D01*
X156301946Y-108345180D01*
X156301946Y-108345180D01*
G37*
G36*
X184241946Y-105805180D02*
X184410118Y-105839700D01*
X184568374Y-105906226D01*
X184710703Y-106002228D01*
X184831673Y-106124045D01*
X184926673Y-106267030D01*
X184992094Y-106425756D01*
X185025353Y-106593724D01*
X185025353Y-106593733D01*
X185025438Y-106594163D01*
X185022700Y-106790248D01*
X185022603Y-106790674D01*
X185022603Y-106790685D01*
X184984667Y-106957658D01*
X184914841Y-107114490D01*
X184815883Y-107254773D01*
X184691560Y-107373164D01*
X184546610Y-107465152D01*
X184386549Y-107527236D01*
X184217487Y-107557046D01*
X184045849Y-107553450D01*
X183878175Y-107516586D01*
X183720859Y-107447856D01*
X183579890Y-107349879D01*
X183460634Y-107226387D01*
X183367635Y-107082081D01*
X183304437Y-106922461D01*
X183273447Y-106753606D01*
X183275844Y-106581944D01*
X183311536Y-106414025D01*
X183379167Y-106256232D01*
X183476157Y-106114581D01*
X183598815Y-105994464D01*
X183742470Y-105900459D01*
X183901641Y-105836151D01*
X184070277Y-105803981D01*
X184241946Y-105805180D01*
X184241946Y-105805180D01*
G37*
G36*
X156301946Y-105805180D02*
X156470118Y-105839700D01*
X156628374Y-105906226D01*
X156770703Y-106002228D01*
X156891673Y-106124045D01*
X156986673Y-106267030D01*
X157052094Y-106425756D01*
X157085353Y-106593724D01*
X157085353Y-106593733D01*
X157085438Y-106594163D01*
X157082700Y-106790248D01*
X157082603Y-106790674D01*
X157082603Y-106790685D01*
X157044667Y-106957658D01*
X156974841Y-107114490D01*
X156875883Y-107254773D01*
X156751560Y-107373164D01*
X156606610Y-107465152D01*
X156446549Y-107527236D01*
X156277487Y-107557046D01*
X156105849Y-107553450D01*
X155938175Y-107516586D01*
X155780859Y-107447856D01*
X155639890Y-107349879D01*
X155520634Y-107226387D01*
X155427635Y-107082081D01*
X155364437Y-106922461D01*
X155333447Y-106753606D01*
X155335844Y-106581944D01*
X155371536Y-106414025D01*
X155439167Y-106256232D01*
X155536157Y-106114581D01*
X155658815Y-105994464D01*
X155802470Y-105900459D01*
X155961641Y-105836151D01*
X156130277Y-105803981D01*
X156301946Y-105805180D01*
X156301946Y-105805180D01*
G37*
G36*
X156301946Y-103265180D02*
X156470118Y-103299700D01*
X156628374Y-103366226D01*
X156770703Y-103462228D01*
X156891673Y-103584045D01*
X156986673Y-103727030D01*
X157052094Y-103885756D01*
X157085353Y-104053724D01*
X157085353Y-104053733D01*
X157085438Y-104054163D01*
X157082700Y-104250248D01*
X157082603Y-104250674D01*
X157082603Y-104250685D01*
X157044667Y-104417658D01*
X156974841Y-104574490D01*
X156875883Y-104714773D01*
X156751560Y-104833164D01*
X156606610Y-104925152D01*
X156446549Y-104987236D01*
X156277487Y-105017046D01*
X156105849Y-105013450D01*
X155938175Y-104976586D01*
X155780859Y-104907856D01*
X155639890Y-104809879D01*
X155520634Y-104686387D01*
X155427635Y-104542081D01*
X155364437Y-104382461D01*
X155333447Y-104213606D01*
X155335844Y-104041944D01*
X155371536Y-103874025D01*
X155439167Y-103716232D01*
X155536157Y-103574581D01*
X155658815Y-103454464D01*
X155802470Y-103360459D01*
X155961641Y-103296151D01*
X156130277Y-103263981D01*
X156301946Y-103265180D01*
X156301946Y-103265180D01*
G37*
G36*
X184241946Y-103265180D02*
X184410118Y-103299700D01*
X184568374Y-103366226D01*
X184710703Y-103462228D01*
X184831673Y-103584045D01*
X184926673Y-103727030D01*
X184992094Y-103885756D01*
X185025353Y-104053724D01*
X185025353Y-104053733D01*
X185025438Y-104054163D01*
X185022700Y-104250248D01*
X185022603Y-104250674D01*
X185022603Y-104250685D01*
X184984667Y-104417658D01*
X184914841Y-104574490D01*
X184815883Y-104714773D01*
X184691560Y-104833164D01*
X184546610Y-104925152D01*
X184386549Y-104987236D01*
X184217487Y-105017046D01*
X184045849Y-105013450D01*
X183878175Y-104976586D01*
X183720859Y-104907856D01*
X183579890Y-104809879D01*
X183460634Y-104686387D01*
X183367635Y-104542081D01*
X183304437Y-104382461D01*
X183273447Y-104213606D01*
X183275844Y-104041944D01*
X183311536Y-103874025D01*
X183379167Y-103716232D01*
X183476157Y-103574581D01*
X183598815Y-103454464D01*
X183742470Y-103360459D01*
X183901641Y-103296151D01*
X184070277Y-103263981D01*
X184241946Y-103265180D01*
X184241946Y-103265180D01*
G37*
G36*
X156301946Y-100725180D02*
X156470118Y-100759700D01*
X156628374Y-100826226D01*
X156770703Y-100922228D01*
X156891673Y-101044045D01*
X156986673Y-101187030D01*
X157052094Y-101345756D01*
X157085353Y-101513724D01*
X157085353Y-101513733D01*
X157085438Y-101514163D01*
X157082700Y-101710248D01*
X157082603Y-101710674D01*
X157082603Y-101710685D01*
X157044667Y-101877658D01*
X156974841Y-102034490D01*
X156875883Y-102174773D01*
X156751560Y-102293164D01*
X156606610Y-102385152D01*
X156446549Y-102447236D01*
X156277487Y-102477046D01*
X156105849Y-102473450D01*
X155938175Y-102436586D01*
X155780859Y-102367856D01*
X155639890Y-102269879D01*
X155520634Y-102146387D01*
X155427635Y-102002081D01*
X155364437Y-101842461D01*
X155333447Y-101673606D01*
X155335844Y-101501944D01*
X155371536Y-101334025D01*
X155439167Y-101176232D01*
X155536157Y-101034581D01*
X155658815Y-100914464D01*
X155802470Y-100820459D01*
X155961641Y-100756151D01*
X156130277Y-100723981D01*
X156301946Y-100725180D01*
X156301946Y-100725180D01*
G37*
G36*
X184241946Y-100725180D02*
X184410118Y-100759700D01*
X184568374Y-100826226D01*
X184710703Y-100922228D01*
X184831673Y-101044045D01*
X184926673Y-101187030D01*
X184992094Y-101345756D01*
X185025353Y-101513724D01*
X185025353Y-101513733D01*
X185025438Y-101514163D01*
X185022700Y-101710248D01*
X185022603Y-101710674D01*
X185022603Y-101710685D01*
X184984667Y-101877658D01*
X184914841Y-102034490D01*
X184815883Y-102174773D01*
X184691560Y-102293164D01*
X184546610Y-102385152D01*
X184386549Y-102447236D01*
X184217487Y-102477046D01*
X184045849Y-102473450D01*
X183878175Y-102436586D01*
X183720859Y-102367856D01*
X183579890Y-102269879D01*
X183460634Y-102146387D01*
X183367635Y-102002081D01*
X183304437Y-101842461D01*
X183273447Y-101673606D01*
X183275844Y-101501944D01*
X183311536Y-101334025D01*
X183379167Y-101176232D01*
X183476157Y-101034581D01*
X183598815Y-100914464D01*
X183742470Y-100820459D01*
X183901641Y-100756151D01*
X184070277Y-100723981D01*
X184241946Y-100725180D01*
X184241946Y-100725180D01*
G37*
G36*
X156301946Y-98185180D02*
X156470118Y-98219700D01*
X156628374Y-98286226D01*
X156770703Y-98382228D01*
X156891673Y-98504045D01*
X156986673Y-98647030D01*
X157052094Y-98805756D01*
X157085353Y-98973724D01*
X157085353Y-98973733D01*
X157085438Y-98974163D01*
X157082700Y-99170248D01*
X157082603Y-99170674D01*
X157082603Y-99170685D01*
X157044667Y-99337658D01*
X156974841Y-99494490D01*
X156875883Y-99634773D01*
X156751560Y-99753164D01*
X156606610Y-99845152D01*
X156446549Y-99907236D01*
X156277487Y-99937046D01*
X156105849Y-99933450D01*
X155938175Y-99896586D01*
X155780859Y-99827856D01*
X155639890Y-99729879D01*
X155520634Y-99606387D01*
X155427635Y-99462081D01*
X155364437Y-99302461D01*
X155333447Y-99133606D01*
X155335844Y-98961944D01*
X155371536Y-98794025D01*
X155439167Y-98636232D01*
X155536157Y-98494581D01*
X155658815Y-98374464D01*
X155802470Y-98280459D01*
X155961641Y-98216151D01*
X156130277Y-98183981D01*
X156301946Y-98185180D01*
X156301946Y-98185180D01*
G37*
G36*
X184241946Y-98185180D02*
X184410118Y-98219700D01*
X184568374Y-98286226D01*
X184710703Y-98382228D01*
X184831673Y-98504045D01*
X184926673Y-98647030D01*
X184992094Y-98805756D01*
X185025353Y-98973724D01*
X185025353Y-98973733D01*
X185025438Y-98974163D01*
X185022700Y-99170248D01*
X185022603Y-99170674D01*
X185022603Y-99170685D01*
X184984667Y-99337658D01*
X184914841Y-99494490D01*
X184815883Y-99634773D01*
X184691560Y-99753164D01*
X184546610Y-99845152D01*
X184386549Y-99907236D01*
X184217487Y-99937046D01*
X184045849Y-99933450D01*
X183878175Y-99896586D01*
X183720859Y-99827856D01*
X183579890Y-99729879D01*
X183460634Y-99606387D01*
X183367635Y-99462081D01*
X183304437Y-99302461D01*
X183273447Y-99133606D01*
X183275844Y-98961944D01*
X183311536Y-98794025D01*
X183379167Y-98636232D01*
X183476157Y-98494581D01*
X183598815Y-98374464D01*
X183742470Y-98280459D01*
X183901641Y-98216151D01*
X184070277Y-98183981D01*
X184241946Y-98185180D01*
X184241946Y-98185180D01*
G37*
G36*
X156301946Y-95645180D02*
X156470118Y-95679700D01*
X156628374Y-95746226D01*
X156770703Y-95842228D01*
X156891673Y-95964045D01*
X156986673Y-96107030D01*
X157052094Y-96265756D01*
X157085353Y-96433724D01*
X157085353Y-96433733D01*
X157085438Y-96434163D01*
X157082700Y-96630248D01*
X157082603Y-96630674D01*
X157082603Y-96630685D01*
X157044667Y-96797658D01*
X156974841Y-96954490D01*
X156875883Y-97094773D01*
X156751560Y-97213164D01*
X156606610Y-97305152D01*
X156446549Y-97367236D01*
X156277487Y-97397046D01*
X156105849Y-97393450D01*
X155938175Y-97356586D01*
X155780859Y-97287856D01*
X155639890Y-97189879D01*
X155520634Y-97066387D01*
X155427635Y-96922081D01*
X155364437Y-96762461D01*
X155333447Y-96593606D01*
X155335844Y-96421944D01*
X155371536Y-96254025D01*
X155439167Y-96096232D01*
X155536157Y-95954581D01*
X155658815Y-95834464D01*
X155802470Y-95740459D01*
X155961641Y-95676151D01*
X156130277Y-95643981D01*
X156301946Y-95645180D01*
X156301946Y-95645180D01*
G37*
G36*
X184241946Y-95645180D02*
X184410118Y-95679700D01*
X184568374Y-95746226D01*
X184710703Y-95842228D01*
X184831673Y-95964045D01*
X184926673Y-96107030D01*
X184992094Y-96265756D01*
X185025353Y-96433724D01*
X185025353Y-96433733D01*
X185025438Y-96434163D01*
X185022700Y-96630248D01*
X185022603Y-96630674D01*
X185022603Y-96630685D01*
X184984667Y-96797658D01*
X184914841Y-96954490D01*
X184815883Y-97094773D01*
X184691560Y-97213164D01*
X184546610Y-97305152D01*
X184386549Y-97367236D01*
X184217487Y-97397046D01*
X184045849Y-97393450D01*
X183878175Y-97356586D01*
X183720859Y-97287856D01*
X183579890Y-97189879D01*
X183460634Y-97066387D01*
X183367635Y-96922081D01*
X183304437Y-96762461D01*
X183273447Y-96593606D01*
X183275844Y-96421944D01*
X183311536Y-96254025D01*
X183379167Y-96096232D01*
X183476157Y-95954581D01*
X183598815Y-95834464D01*
X183742470Y-95740459D01*
X183901641Y-95676151D01*
X184070277Y-95643981D01*
X184241946Y-95645180D01*
X184241946Y-95645180D01*
G37*
G36*
X156301946Y-93105180D02*
X156470118Y-93139700D01*
X156628374Y-93206226D01*
X156770703Y-93302228D01*
X156891673Y-93424045D01*
X156986673Y-93567030D01*
X157052094Y-93725756D01*
X157085353Y-93893724D01*
X157085353Y-93893733D01*
X157085438Y-93894163D01*
X157082700Y-94090248D01*
X157082603Y-94090674D01*
X157082603Y-94090685D01*
X157044667Y-94257658D01*
X156974841Y-94414490D01*
X156875883Y-94554773D01*
X156751560Y-94673164D01*
X156606610Y-94765152D01*
X156446549Y-94827236D01*
X156277487Y-94857046D01*
X156105849Y-94853450D01*
X155938175Y-94816586D01*
X155780859Y-94747856D01*
X155639890Y-94649879D01*
X155520634Y-94526387D01*
X155427635Y-94382081D01*
X155364437Y-94222461D01*
X155333447Y-94053606D01*
X155335844Y-93881944D01*
X155371536Y-93714025D01*
X155439167Y-93556232D01*
X155536157Y-93414581D01*
X155658815Y-93294464D01*
X155802470Y-93200459D01*
X155961641Y-93136151D01*
X156130277Y-93103981D01*
X156301946Y-93105180D01*
X156301946Y-93105180D01*
G37*
G36*
X184241946Y-93105180D02*
X184410118Y-93139700D01*
X184568374Y-93206226D01*
X184710703Y-93302228D01*
X184831673Y-93424045D01*
X184926673Y-93567030D01*
X184992094Y-93725756D01*
X185025353Y-93893724D01*
X185025353Y-93893733D01*
X185025438Y-93894163D01*
X185022700Y-94090248D01*
X185022603Y-94090674D01*
X185022603Y-94090685D01*
X184984667Y-94257658D01*
X184914841Y-94414490D01*
X184815883Y-94554773D01*
X184691560Y-94673164D01*
X184546610Y-94765152D01*
X184386549Y-94827236D01*
X184217487Y-94857046D01*
X184045849Y-94853450D01*
X183878175Y-94816586D01*
X183720859Y-94747856D01*
X183579890Y-94649879D01*
X183460634Y-94526387D01*
X183367635Y-94382081D01*
X183304437Y-94222461D01*
X183273447Y-94053606D01*
X183275844Y-93881944D01*
X183311536Y-93714025D01*
X183379167Y-93556232D01*
X183476157Y-93414581D01*
X183598815Y-93294464D01*
X183742470Y-93200459D01*
X183901641Y-93136151D01*
X184070277Y-93103981D01*
X184241946Y-93105180D01*
X184241946Y-93105180D01*
G37*
G36*
X156301946Y-90565180D02*
X156470118Y-90599700D01*
X156628374Y-90666226D01*
X156770703Y-90762228D01*
X156891673Y-90884045D01*
X156986673Y-91027030D01*
X157052094Y-91185756D01*
X157085353Y-91353724D01*
X157085353Y-91353733D01*
X157085438Y-91354163D01*
X157082700Y-91550248D01*
X157082603Y-91550674D01*
X157082603Y-91550685D01*
X157044667Y-91717658D01*
X156974841Y-91874490D01*
X156875883Y-92014773D01*
X156751560Y-92133164D01*
X156606610Y-92225152D01*
X156446549Y-92287236D01*
X156277487Y-92317046D01*
X156105849Y-92313450D01*
X155938175Y-92276586D01*
X155780859Y-92207856D01*
X155639890Y-92109879D01*
X155520634Y-91986387D01*
X155427635Y-91842081D01*
X155364437Y-91682461D01*
X155333447Y-91513606D01*
X155335844Y-91341944D01*
X155371536Y-91174025D01*
X155439167Y-91016232D01*
X155536157Y-90874581D01*
X155658815Y-90754464D01*
X155802470Y-90660459D01*
X155961641Y-90596151D01*
X156130277Y-90563981D01*
X156301946Y-90565180D01*
X156301946Y-90565180D01*
G37*
G36*
X184241946Y-90565180D02*
X184410118Y-90599700D01*
X184568374Y-90666226D01*
X184710703Y-90762228D01*
X184831673Y-90884045D01*
X184926673Y-91027030D01*
X184992094Y-91185756D01*
X185025353Y-91353724D01*
X185025353Y-91353733D01*
X185025438Y-91354163D01*
X185022700Y-91550248D01*
X185022603Y-91550674D01*
X185022603Y-91550685D01*
X184984667Y-91717658D01*
X184914841Y-91874490D01*
X184815883Y-92014773D01*
X184691560Y-92133164D01*
X184546610Y-92225152D01*
X184386549Y-92287236D01*
X184217487Y-92317046D01*
X184045849Y-92313450D01*
X183878175Y-92276586D01*
X183720859Y-92207856D01*
X183579890Y-92109879D01*
X183460634Y-91986387D01*
X183367635Y-91842081D01*
X183304437Y-91682461D01*
X183273447Y-91513606D01*
X183275844Y-91341944D01*
X183311536Y-91174025D01*
X183379167Y-91016232D01*
X183476157Y-90874581D01*
X183598815Y-90754464D01*
X183742470Y-90660459D01*
X183901641Y-90596151D01*
X184070277Y-90563981D01*
X184241946Y-90565180D01*
X184241946Y-90565180D01*
G37*
G36*
X156301946Y-88025180D02*
X156470118Y-88059700D01*
X156628374Y-88126226D01*
X156770703Y-88222228D01*
X156891673Y-88344045D01*
X156986673Y-88487030D01*
X157052094Y-88645756D01*
X157085353Y-88813724D01*
X157085353Y-88813733D01*
X157085438Y-88814163D01*
X157082700Y-89010248D01*
X157082603Y-89010674D01*
X157082603Y-89010685D01*
X157044667Y-89177658D01*
X156974841Y-89334490D01*
X156875883Y-89474773D01*
X156751560Y-89593164D01*
X156606610Y-89685152D01*
X156446549Y-89747236D01*
X156277487Y-89777046D01*
X156105849Y-89773450D01*
X155938175Y-89736586D01*
X155780859Y-89667856D01*
X155639890Y-89569879D01*
X155520634Y-89446387D01*
X155427635Y-89302081D01*
X155364437Y-89142461D01*
X155333447Y-88973606D01*
X155335844Y-88801944D01*
X155371536Y-88634025D01*
X155439167Y-88476232D01*
X155536157Y-88334581D01*
X155658815Y-88214464D01*
X155802470Y-88120459D01*
X155961641Y-88056151D01*
X156130277Y-88023981D01*
X156301946Y-88025180D01*
X156301946Y-88025180D01*
G37*
G36*
X184241946Y-88025180D02*
X184410118Y-88059700D01*
X184568374Y-88126226D01*
X184710703Y-88222228D01*
X184831673Y-88344045D01*
X184926673Y-88487030D01*
X184992094Y-88645756D01*
X185025353Y-88813724D01*
X185025353Y-88813733D01*
X185025438Y-88814163D01*
X185022700Y-89010248D01*
X185022603Y-89010674D01*
X185022603Y-89010685D01*
X184984667Y-89177658D01*
X184914841Y-89334490D01*
X184815883Y-89474773D01*
X184691560Y-89593164D01*
X184546610Y-89685152D01*
X184386549Y-89747236D01*
X184217487Y-89777046D01*
X184045849Y-89773450D01*
X183878175Y-89736586D01*
X183720859Y-89667856D01*
X183579890Y-89569879D01*
X183460634Y-89446387D01*
X183367635Y-89302081D01*
X183304437Y-89142461D01*
X183273447Y-88973606D01*
X183275844Y-88801944D01*
X183311536Y-88634025D01*
X183379167Y-88476232D01*
X183476157Y-88334581D01*
X183598815Y-88214464D01*
X183742470Y-88120459D01*
X183901641Y-88056151D01*
X184070277Y-88023981D01*
X184241946Y-88025180D01*
X184241946Y-88025180D01*
G37*
G36*
X156301946Y-85485180D02*
X156470118Y-85519700D01*
X156628374Y-85586226D01*
X156770703Y-85682228D01*
X156891673Y-85804045D01*
X156986673Y-85947030D01*
X157052094Y-86105756D01*
X157085353Y-86273724D01*
X157085353Y-86273733D01*
X157085438Y-86274163D01*
X157082700Y-86470248D01*
X157082603Y-86470674D01*
X157082603Y-86470685D01*
X157044667Y-86637658D01*
X156974841Y-86794490D01*
X156875883Y-86934773D01*
X156751560Y-87053164D01*
X156606610Y-87145152D01*
X156446549Y-87207236D01*
X156277487Y-87237046D01*
X156105849Y-87233450D01*
X155938175Y-87196586D01*
X155780859Y-87127856D01*
X155639890Y-87029879D01*
X155520634Y-86906387D01*
X155427635Y-86762081D01*
X155364437Y-86602461D01*
X155333447Y-86433606D01*
X155335844Y-86261944D01*
X155371536Y-86094025D01*
X155439167Y-85936232D01*
X155536157Y-85794581D01*
X155658815Y-85674464D01*
X155802470Y-85580459D01*
X155961641Y-85516151D01*
X156130277Y-85483981D01*
X156301946Y-85485180D01*
X156301946Y-85485180D01*
G37*
G36*
X184241946Y-85485180D02*
X184410118Y-85519700D01*
X184568374Y-85586226D01*
X184710703Y-85682228D01*
X184831673Y-85804045D01*
X184926673Y-85947030D01*
X184992094Y-86105756D01*
X185025353Y-86273724D01*
X185025353Y-86273733D01*
X185025438Y-86274163D01*
X185022700Y-86470248D01*
X185022603Y-86470674D01*
X185022603Y-86470685D01*
X184984667Y-86637658D01*
X184914841Y-86794490D01*
X184815883Y-86934773D01*
X184691560Y-87053164D01*
X184546610Y-87145152D01*
X184386549Y-87207236D01*
X184217487Y-87237046D01*
X184045849Y-87233450D01*
X183878175Y-87196586D01*
X183720859Y-87127856D01*
X183579890Y-87029879D01*
X183460634Y-86906387D01*
X183367635Y-86762081D01*
X183304437Y-86602461D01*
X183273447Y-86433606D01*
X183275844Y-86261944D01*
X183311536Y-86094025D01*
X183379167Y-85936232D01*
X183476157Y-85794581D01*
X183598815Y-85674464D01*
X183742470Y-85580459D01*
X183901641Y-85516151D01*
X184070277Y-85483981D01*
X184241946Y-85485180D01*
X184241946Y-85485180D01*
G37*
G36*
X184241946Y-82945180D02*
X184410118Y-82979700D01*
X184568374Y-83046226D01*
X184710703Y-83142228D01*
X184831673Y-83264045D01*
X184926673Y-83407030D01*
X184992094Y-83565756D01*
X185025353Y-83733724D01*
X185025353Y-83733733D01*
X185025438Y-83734163D01*
X185022700Y-83930248D01*
X185022603Y-83930674D01*
X185022603Y-83930685D01*
X184984667Y-84097658D01*
X184914841Y-84254490D01*
X184815883Y-84394773D01*
X184691560Y-84513164D01*
X184546610Y-84605152D01*
X184386549Y-84667236D01*
X184217487Y-84697046D01*
X184045849Y-84693450D01*
X183878175Y-84656586D01*
X183720859Y-84587856D01*
X183579890Y-84489879D01*
X183460634Y-84366387D01*
X183367635Y-84222081D01*
X183304437Y-84062461D01*
X183273447Y-83893606D01*
X183275844Y-83721944D01*
X183311536Y-83554025D01*
X183379167Y-83396232D01*
X183476157Y-83254581D01*
X183598815Y-83134464D01*
X183742470Y-83040459D01*
X183901641Y-82976151D01*
X184070277Y-82943981D01*
X184241946Y-82945180D01*
X184241946Y-82945180D01*
G37*
G36*
X156301946Y-82945180D02*
X156470118Y-82979700D01*
X156628374Y-83046226D01*
X156770703Y-83142228D01*
X156891673Y-83264045D01*
X156986673Y-83407030D01*
X157052094Y-83565756D01*
X157085353Y-83733724D01*
X157085353Y-83733733D01*
X157085438Y-83734163D01*
X157082700Y-83930248D01*
X157082603Y-83930674D01*
X157082603Y-83930685D01*
X157044667Y-84097658D01*
X156974841Y-84254490D01*
X156875883Y-84394773D01*
X156751560Y-84513164D01*
X156606610Y-84605152D01*
X156446549Y-84667236D01*
X156277487Y-84697046D01*
X156105849Y-84693450D01*
X155938175Y-84656586D01*
X155780859Y-84587856D01*
X155639890Y-84489879D01*
X155520634Y-84366387D01*
X155427635Y-84222081D01*
X155364437Y-84062461D01*
X155333447Y-83893606D01*
X155335844Y-83721944D01*
X155371536Y-83554025D01*
X155439167Y-83396232D01*
X155536157Y-83254581D01*
X155658815Y-83134464D01*
X155802470Y-83040459D01*
X155961641Y-82976151D01*
X156130277Y-82943981D01*
X156301946Y-82945180D01*
X156301946Y-82945180D01*
G37*
G36*
X184241946Y-80405180D02*
X184410118Y-80439700D01*
X184568374Y-80506226D01*
X184710703Y-80602228D01*
X184831673Y-80724045D01*
X184926673Y-80867030D01*
X184992094Y-81025756D01*
X185025353Y-81193724D01*
X185025353Y-81193733D01*
X185025438Y-81194163D01*
X185022700Y-81390248D01*
X185022603Y-81390674D01*
X185022603Y-81390685D01*
X184984667Y-81557658D01*
X184914841Y-81714490D01*
X184815883Y-81854773D01*
X184691560Y-81973164D01*
X184546610Y-82065152D01*
X184386549Y-82127236D01*
X184217487Y-82157046D01*
X184045849Y-82153450D01*
X183878175Y-82116586D01*
X183720859Y-82047856D01*
X183579890Y-81949879D01*
X183460634Y-81826387D01*
X183367635Y-81682081D01*
X183304437Y-81522461D01*
X183273447Y-81353606D01*
X183275844Y-81181944D01*
X183311536Y-81014025D01*
X183379167Y-80856232D01*
X183476157Y-80714581D01*
X183598815Y-80594464D01*
X183742470Y-80500459D01*
X183901641Y-80436151D01*
X184070277Y-80403981D01*
X184241946Y-80405180D01*
X184241946Y-80405180D01*
G37*
G36*
X156301946Y-80405180D02*
X156470118Y-80439700D01*
X156628374Y-80506226D01*
X156770703Y-80602228D01*
X156891673Y-80724045D01*
X156986673Y-80867030D01*
X157052094Y-81025756D01*
X157085353Y-81193724D01*
X157085353Y-81193733D01*
X157085438Y-81194163D01*
X157082700Y-81390248D01*
X157082603Y-81390674D01*
X157082603Y-81390685D01*
X157044667Y-81557658D01*
X156974841Y-81714490D01*
X156875883Y-81854773D01*
X156751560Y-81973164D01*
X156606610Y-82065152D01*
X156446549Y-82127236D01*
X156277487Y-82157046D01*
X156105849Y-82153450D01*
X155938175Y-82116586D01*
X155780859Y-82047856D01*
X155639890Y-81949879D01*
X155520634Y-81826387D01*
X155427635Y-81682081D01*
X155364437Y-81522461D01*
X155333447Y-81353606D01*
X155335844Y-81181944D01*
X155371536Y-81014025D01*
X155439167Y-80856232D01*
X155536157Y-80714581D01*
X155658815Y-80594464D01*
X155802470Y-80500459D01*
X155961641Y-80436151D01*
X156130277Y-80403981D01*
X156301946Y-80405180D01*
X156301946Y-80405180D01*
G37*
G36*
X156301946Y-77865180D02*
X156470118Y-77899700D01*
X156628374Y-77966226D01*
X156770703Y-78062228D01*
X156891673Y-78184045D01*
X156986673Y-78327030D01*
X157052094Y-78485756D01*
X157085353Y-78653724D01*
X157085353Y-78653733D01*
X157085438Y-78654163D01*
X157082700Y-78850248D01*
X157082603Y-78850674D01*
X157082603Y-78850685D01*
X157044667Y-79017658D01*
X156974841Y-79174490D01*
X156875883Y-79314773D01*
X156751560Y-79433164D01*
X156606610Y-79525152D01*
X156446549Y-79587236D01*
X156277487Y-79617046D01*
X156105849Y-79613450D01*
X155938175Y-79576586D01*
X155780859Y-79507856D01*
X155639890Y-79409879D01*
X155520634Y-79286387D01*
X155427635Y-79142081D01*
X155364437Y-78982461D01*
X155333447Y-78813606D01*
X155335844Y-78641944D01*
X155371536Y-78474025D01*
X155439167Y-78316232D01*
X155536157Y-78174581D01*
X155658815Y-78054464D01*
X155802470Y-77960459D01*
X155961641Y-77896151D01*
X156130277Y-77863981D01*
X156301946Y-77865180D01*
X156301946Y-77865180D01*
G37*
G36*
X184241946Y-77865180D02*
X184410118Y-77899700D01*
X184568374Y-77966226D01*
X184710703Y-78062228D01*
X184831673Y-78184045D01*
X184926673Y-78327030D01*
X184992094Y-78485756D01*
X185025353Y-78653724D01*
X185025353Y-78653733D01*
X185025438Y-78654163D01*
X185022700Y-78850248D01*
X185022603Y-78850674D01*
X185022603Y-78850685D01*
X184984667Y-79017658D01*
X184914841Y-79174490D01*
X184815883Y-79314773D01*
X184691560Y-79433164D01*
X184546610Y-79525152D01*
X184386549Y-79587236D01*
X184217487Y-79617046D01*
X184045849Y-79613450D01*
X183878175Y-79576586D01*
X183720859Y-79507856D01*
X183579890Y-79409879D01*
X183460634Y-79286387D01*
X183367635Y-79142081D01*
X183304437Y-78982461D01*
X183273447Y-78813606D01*
X183275844Y-78641944D01*
X183311536Y-78474025D01*
X183379167Y-78316232D01*
X183476157Y-78174581D01*
X183598815Y-78054464D01*
X183742470Y-77960459D01*
X183901641Y-77896151D01*
X184070277Y-77863981D01*
X184241946Y-77865180D01*
X184241946Y-77865180D01*
G37*
G36*
X156301946Y-75325180D02*
X156470118Y-75359700D01*
X156628374Y-75426226D01*
X156770703Y-75522228D01*
X156891673Y-75644045D01*
X156986673Y-75787030D01*
X157052094Y-75945756D01*
X157085353Y-76113724D01*
X157085353Y-76113733D01*
X157085438Y-76114163D01*
X157082700Y-76310248D01*
X157082603Y-76310674D01*
X157082603Y-76310685D01*
X157044667Y-76477658D01*
X156974841Y-76634490D01*
X156875883Y-76774773D01*
X156751560Y-76893164D01*
X156606610Y-76985152D01*
X156446549Y-77047236D01*
X156277487Y-77077046D01*
X156105849Y-77073450D01*
X155938175Y-77036586D01*
X155780859Y-76967856D01*
X155639890Y-76869879D01*
X155520634Y-76746387D01*
X155427635Y-76602081D01*
X155364437Y-76442461D01*
X155333447Y-76273606D01*
X155335844Y-76101944D01*
X155371536Y-75934025D01*
X155439167Y-75776232D01*
X155536157Y-75634581D01*
X155658815Y-75514464D01*
X155802470Y-75420459D01*
X155961641Y-75356151D01*
X156130277Y-75323981D01*
X156301946Y-75325180D01*
X156301946Y-75325180D01*
G37*
G36*
X184241946Y-75325180D02*
X184410118Y-75359700D01*
X184568374Y-75426226D01*
X184710703Y-75522228D01*
X184831673Y-75644045D01*
X184926673Y-75787030D01*
X184992094Y-75945756D01*
X185025353Y-76113724D01*
X185025353Y-76113733D01*
X185025438Y-76114163D01*
X185022700Y-76310248D01*
X185022603Y-76310674D01*
X185022603Y-76310685D01*
X184984667Y-76477658D01*
X184914841Y-76634490D01*
X184815883Y-76774773D01*
X184691560Y-76893164D01*
X184546610Y-76985152D01*
X184386549Y-77047236D01*
X184217487Y-77077046D01*
X184045849Y-77073450D01*
X183878175Y-77036586D01*
X183720859Y-76967856D01*
X183579890Y-76869879D01*
X183460634Y-76746387D01*
X183367635Y-76602081D01*
X183304437Y-76442461D01*
X183273447Y-76273606D01*
X183275844Y-76101944D01*
X183311536Y-75934025D01*
X183379167Y-75776232D01*
X183476157Y-75634581D01*
X183598815Y-75514464D01*
X183742470Y-75420459D01*
X183901641Y-75356151D01*
X184070277Y-75323981D01*
X184241946Y-75325180D01*
X184241946Y-75325180D01*
G37*
G36*
X156301946Y-72785180D02*
X156470118Y-72819700D01*
X156628374Y-72886226D01*
X156770703Y-72982228D01*
X156891673Y-73104045D01*
X156986673Y-73247030D01*
X157052094Y-73405756D01*
X157085353Y-73573724D01*
X157085353Y-73573733D01*
X157085438Y-73574163D01*
X157082700Y-73770248D01*
X157082603Y-73770674D01*
X157082603Y-73770685D01*
X157044667Y-73937658D01*
X156974841Y-74094490D01*
X156875883Y-74234773D01*
X156751560Y-74353164D01*
X156606610Y-74445152D01*
X156446549Y-74507236D01*
X156277487Y-74537046D01*
X156105849Y-74533450D01*
X155938175Y-74496586D01*
X155780859Y-74427856D01*
X155639890Y-74329879D01*
X155520634Y-74206387D01*
X155427635Y-74062081D01*
X155364437Y-73902461D01*
X155333447Y-73733606D01*
X155335844Y-73561944D01*
X155371536Y-73394025D01*
X155439167Y-73236232D01*
X155536157Y-73094581D01*
X155658815Y-72974464D01*
X155802470Y-72880459D01*
X155961641Y-72816151D01*
X156130277Y-72783981D01*
X156301946Y-72785180D01*
X156301946Y-72785180D01*
G37*
G36*
X184241946Y-72785180D02*
X184410118Y-72819700D01*
X184568374Y-72886226D01*
X184710703Y-72982228D01*
X184831673Y-73104045D01*
X184926673Y-73247030D01*
X184992094Y-73405756D01*
X185025353Y-73573724D01*
X185025353Y-73573733D01*
X185025438Y-73574163D01*
X185022700Y-73770248D01*
X185022603Y-73770674D01*
X185022603Y-73770685D01*
X184984667Y-73937658D01*
X184914841Y-74094490D01*
X184815883Y-74234773D01*
X184691560Y-74353164D01*
X184546610Y-74445152D01*
X184386549Y-74507236D01*
X184217487Y-74537046D01*
X184045849Y-74533450D01*
X183878175Y-74496586D01*
X183720859Y-74427856D01*
X183579890Y-74329879D01*
X183460634Y-74206387D01*
X183367635Y-74062081D01*
X183304437Y-73902461D01*
X183273447Y-73733606D01*
X183275844Y-73561944D01*
X183311536Y-73394025D01*
X183379167Y-73236232D01*
X183476157Y-73094581D01*
X183598815Y-72974464D01*
X183742470Y-72880459D01*
X183901641Y-72816151D01*
X184070277Y-72783981D01*
X184241946Y-72785180D01*
X184241946Y-72785180D01*
G37*
M02*
