G04 #@! TF.FileFunction,Copper,L1,Top,Signal*
%FSLAX46Y46*%
G04 Gerber Fmt 4.6, Leading zero omitted, Abs format (unit mm)*
G04 Created by KiCad (PCBNEW 4.0.7) date Monday, October 08, 2018 'PMt' 05:16:59 PM*
%MOMM*%
%LPD*%
G01*
G04 APERTURE LIST*
%ADD10C,0.100000*%
%ADD11R,0.400000X0.600000*%
%ADD12R,0.300000X2.000000*%
%ADD13R,0.800000X1.000000*%
%ADD14R,0.600000X0.500000*%
%ADD15R,0.500000X0.600000*%
%ADD16R,2.500000X3.300000*%
%ADD17R,2.500000X0.950000*%
%ADD18R,1.000000X0.800000*%
%ADD19C,1.700000*%
%ADD20C,0.406400*%
%ADD21C,0.635000*%
%ADD22C,0.889000*%
%ADD23C,0.381000*%
%ADD24C,0.177800*%
%ADD25C,0.127000*%
G04 APERTURE END LIST*
D10*
D11*
X171254000Y-90805000D03*
X172154000Y-90805000D03*
D12*
X167640000Y-120015000D03*
X166990000Y-120015000D03*
X166340000Y-120015000D03*
X165690000Y-120015000D03*
X165040000Y-120015000D03*
X164390000Y-120015000D03*
X163740000Y-120015000D03*
X163090000Y-120015000D03*
X162440000Y-120015000D03*
X161790000Y-120015000D03*
X161140000Y-120015000D03*
X160490000Y-120015000D03*
X159840000Y-120015000D03*
X159190000Y-120015000D03*
X159190000Y-125615000D03*
X159840000Y-125615000D03*
X160490000Y-125615000D03*
X161140000Y-125615000D03*
X161790000Y-125615000D03*
X162440000Y-125615000D03*
X163090000Y-125615000D03*
X163740000Y-125615000D03*
X164390000Y-125615000D03*
X165040000Y-125615000D03*
X165690000Y-125615000D03*
X166340000Y-125615000D03*
X166990000Y-125615000D03*
X167640000Y-125615000D03*
D13*
X159070000Y-80010000D03*
X160020000Y-77610000D03*
X160970000Y-80010000D03*
D11*
X169106000Y-82550000D03*
X168206000Y-82550000D03*
D14*
X169079000Y-73152000D03*
X167979000Y-73152000D03*
D15*
X168910000Y-125645000D03*
X168910000Y-124545000D03*
D14*
X180425000Y-119253000D03*
X181525000Y-119253000D03*
X174964000Y-127000000D03*
X176064000Y-127000000D03*
D11*
X169106000Y-77470000D03*
X168206000Y-77470000D03*
X171254000Y-75565000D03*
X172154000Y-75565000D03*
X171254000Y-80645000D03*
X172154000Y-80645000D03*
X169106000Y-87630000D03*
X168206000Y-87630000D03*
X171254000Y-85725000D03*
X172154000Y-85725000D03*
X169106000Y-92710000D03*
X168206000Y-92710000D03*
X169106000Y-97790000D03*
X168206000Y-97790000D03*
X171254000Y-95885000D03*
X172154000Y-95885000D03*
X169106000Y-102870000D03*
X168206000Y-102870000D03*
X171254000Y-100965000D03*
X172154000Y-100965000D03*
X169106000Y-107950000D03*
X168206000Y-107950000D03*
X171254000Y-106045000D03*
X172154000Y-106045000D03*
X169106000Y-113030000D03*
X168206000Y-113030000D03*
X171254000Y-111125000D03*
X172154000Y-111125000D03*
X168460000Y-130175000D03*
X169360000Y-130175000D03*
D16*
X172635000Y-123190000D03*
D17*
X178435000Y-123190000D03*
X178435000Y-120890000D03*
X178435000Y-125490000D03*
D13*
X159070000Y-74930000D03*
X160020000Y-72530000D03*
X160970000Y-74930000D03*
X179390000Y-74930000D03*
X180340000Y-72530000D03*
X181290000Y-74930000D03*
X159070000Y-85090000D03*
X160020000Y-82690000D03*
X160970000Y-85090000D03*
X179390000Y-85090000D03*
X180340000Y-82690000D03*
X181290000Y-85090000D03*
X159070000Y-90170000D03*
X160020000Y-87770000D03*
X160970000Y-90170000D03*
X179390000Y-90170000D03*
X180340000Y-87770000D03*
X181290000Y-90170000D03*
X159070000Y-95250000D03*
X160020000Y-92850000D03*
X160970000Y-95250000D03*
X179390000Y-95250000D03*
X180340000Y-92850000D03*
X181290000Y-95250000D03*
X159070000Y-100330000D03*
X160020000Y-97930000D03*
X160970000Y-100330000D03*
X179390000Y-100330000D03*
X180340000Y-97930000D03*
X181290000Y-100330000D03*
X159070000Y-105410000D03*
X160020000Y-103010000D03*
X160970000Y-105410000D03*
X159070000Y-110490000D03*
X160020000Y-108090000D03*
X160970000Y-110490000D03*
X179390000Y-110490000D03*
X180340000Y-108090000D03*
X181290000Y-110490000D03*
D18*
X166370000Y-77150000D03*
X163970000Y-76200000D03*
X166370000Y-75250000D03*
X173990000Y-75250000D03*
X176390000Y-76200000D03*
X173990000Y-77150000D03*
X166370000Y-82230000D03*
X163970000Y-81280000D03*
X166370000Y-80330000D03*
X173990000Y-80330000D03*
X176390000Y-81280000D03*
X173990000Y-82230000D03*
X166370000Y-87310000D03*
X163970000Y-86360000D03*
X166370000Y-85410000D03*
X173990000Y-85410000D03*
X176390000Y-86360000D03*
X173990000Y-87310000D03*
X166370000Y-92390000D03*
X163970000Y-91440000D03*
X166370000Y-90490000D03*
X173990000Y-90490000D03*
X176390000Y-91440000D03*
X173990000Y-92390000D03*
X166370000Y-97470000D03*
X163970000Y-96520000D03*
X166370000Y-95570000D03*
X173990000Y-95570000D03*
X176390000Y-96520000D03*
X173990000Y-97470000D03*
X166370000Y-102550000D03*
X163970000Y-101600000D03*
X166370000Y-100650000D03*
X173990000Y-100650000D03*
X176390000Y-101600000D03*
X173990000Y-102550000D03*
X166370000Y-107630000D03*
X163970000Y-106680000D03*
X166370000Y-105730000D03*
X173990000Y-105730000D03*
X176390000Y-106680000D03*
X173990000Y-107630000D03*
X166370000Y-112710000D03*
X163970000Y-111760000D03*
X166370000Y-110810000D03*
X173990000Y-110810000D03*
X176390000Y-111760000D03*
X173990000Y-112710000D03*
D14*
X162094000Y-130175000D03*
X160994000Y-130175000D03*
D13*
X179390000Y-80010000D03*
X180340000Y-77610000D03*
X181290000Y-80010000D03*
D14*
X172170000Y-130175000D03*
X173270000Y-130175000D03*
X182160000Y-130175000D03*
X181060000Y-130175000D03*
X175980000Y-130175000D03*
X177080000Y-130175000D03*
X171408000Y-114427000D03*
X172508000Y-114427000D03*
D13*
X179390000Y-105410000D03*
X180340000Y-103010000D03*
X181290000Y-105410000D03*
D11*
X165550000Y-130175000D03*
X164650000Y-130175000D03*
D15*
X168910000Y-95165000D03*
X168910000Y-94065000D03*
D19*
X156210000Y-73660000D03*
X156210000Y-76200000D03*
X156210000Y-78740000D03*
X156210000Y-81280000D03*
X156210000Y-83820000D03*
X156210000Y-86360000D03*
X156210000Y-88900000D03*
X156210000Y-91440000D03*
X156210000Y-93980000D03*
X156210000Y-96520000D03*
X156210000Y-99060000D03*
X156210000Y-101600000D03*
X156210000Y-104140000D03*
X156210000Y-106680000D03*
X156210000Y-109220000D03*
X156210000Y-111760000D03*
X156210000Y-114300000D03*
X156210000Y-116840000D03*
X156210000Y-119380000D03*
X156210000Y-121920000D03*
X156210000Y-124460000D03*
X156210000Y-127000000D03*
X156210000Y-129540000D03*
X156210000Y-132080000D03*
X156210000Y-134620000D03*
X184150000Y-73660000D03*
X184150000Y-76200000D03*
X184150000Y-78740000D03*
X184150000Y-81280000D03*
X184150000Y-83820000D03*
X184150000Y-86360000D03*
X184150000Y-88900000D03*
X184150000Y-91440000D03*
X184150000Y-93980000D03*
X184150000Y-96520000D03*
X184150000Y-99060000D03*
X184150000Y-101600000D03*
X184150000Y-104140000D03*
X184150000Y-106680000D03*
X184150000Y-109220000D03*
X184150000Y-111760000D03*
X184150000Y-114300000D03*
X184150000Y-116840000D03*
X184150000Y-119380000D03*
X184150000Y-121920000D03*
X184150000Y-124460000D03*
X184150000Y-127000000D03*
X184150000Y-129540000D03*
X184150000Y-132080000D03*
X184150000Y-134620000D03*
X181610000Y-132080000D03*
X179070000Y-132080000D03*
X176530000Y-132080000D03*
X173990000Y-132080000D03*
X171450000Y-132080000D03*
X168910000Y-132080000D03*
X166370000Y-132080000D03*
X163830000Y-132080000D03*
X161290000Y-132080000D03*
X158750000Y-132080000D03*
X158750000Y-134620000D03*
X161290000Y-134620000D03*
X163830000Y-134620000D03*
X166370000Y-134620000D03*
X168910000Y-134620000D03*
X171450000Y-134620000D03*
X173990000Y-134620000D03*
X176530000Y-134620000D03*
X179070000Y-134620000D03*
X181610000Y-134620000D03*
D20*
X166370000Y-127508000D03*
X166370000Y-130175000D03*
D21*
X170180000Y-114935000D03*
X170180000Y-121285000D03*
X170180000Y-125730000D03*
D22*
X172720000Y-125730000D03*
X173990000Y-125730000D03*
X171450000Y-125730000D03*
X172720000Y-120650000D03*
X171450000Y-120650000D03*
X173990000Y-120650000D03*
D21*
X168021000Y-71882000D03*
X167640000Y-94234000D03*
X159639000Y-130175000D03*
X173736000Y-114427000D03*
X179070000Y-127000000D03*
X177800000Y-127000000D03*
X180340000Y-127000000D03*
X179705000Y-130175000D03*
X178435000Y-130175000D03*
X168910000Y-123190000D03*
D20*
X167640000Y-118110000D03*
X164465000Y-118110000D03*
D21*
X174371000Y-130175000D03*
X170307000Y-130175000D03*
X167640000Y-110490000D03*
X167640000Y-105410000D03*
X167640000Y-100330000D03*
X172720000Y-113030000D03*
X172720000Y-107950000D03*
X172720000Y-102870000D03*
X172720000Y-97790000D03*
X167640000Y-95250000D03*
X172720000Y-87630000D03*
X172720000Y-92710000D03*
X167640000Y-90170000D03*
X167640000Y-85090000D03*
X167640000Y-80010000D03*
X172720000Y-82550000D03*
X172720000Y-77470000D03*
X167640000Y-74930000D03*
X181610000Y-102870000D03*
X181610000Y-72390000D03*
X181610000Y-77470000D03*
X181610000Y-82550000D03*
X181610000Y-87630000D03*
X181610000Y-92710000D03*
X181610000Y-97790000D03*
X181610000Y-107950000D03*
X158750000Y-102870000D03*
X158750000Y-97790000D03*
X158750000Y-92710000D03*
X158750000Y-87630000D03*
X158750000Y-82550000D03*
X158750000Y-77470000D03*
X158750000Y-72390000D03*
X158750000Y-107950000D03*
D20*
X163830000Y-130175000D03*
X165735000Y-127508000D03*
X165735000Y-122555000D03*
X166370000Y-123190000D03*
X166370000Y-118110000D03*
X158750000Y-121920000D03*
X165735000Y-121920000D03*
X165735000Y-118110000D03*
X158750000Y-123190000D03*
X165100000Y-123190000D03*
X165100000Y-118110000D03*
X164973000Y-127508000D03*
X159385000Y-128905000D03*
X167005000Y-130175000D03*
X167005000Y-127508000D03*
X163830000Y-78740000D03*
X163830000Y-118110000D03*
X176530000Y-117475000D03*
X176530000Y-73660000D03*
X162560000Y-83820000D03*
X162560000Y-118110000D03*
X177800000Y-116840000D03*
X177800000Y-78740000D03*
X161290000Y-118110000D03*
X161290000Y-88900000D03*
X179070000Y-116205000D03*
X179070000Y-83820000D03*
X160020000Y-118110000D03*
X160020000Y-93980000D03*
X180340000Y-115570000D03*
X180340000Y-88900000D03*
X159385000Y-127508000D03*
X159385000Y-99060000D03*
X180975000Y-93980000D03*
X180975000Y-129540000D03*
X160655000Y-104140000D03*
X160655000Y-127508000D03*
X179705000Y-129032000D03*
X179705000Y-99060000D03*
X161925000Y-109220000D03*
X161925000Y-127508000D03*
X178435000Y-104140000D03*
X178435000Y-128524000D03*
X163195000Y-114300000D03*
X163195000Y-127508000D03*
X177165000Y-109220000D03*
X177165000Y-128016000D03*
X168910000Y-121602500D03*
X168910000Y-118110000D03*
X182880000Y-117475000D03*
D23*
X171408000Y-114427000D02*
X170180000Y-114427000D01*
X170180000Y-114427000D02*
X170180000Y-114300000D01*
X170180000Y-113030000D02*
X169545000Y-113030000D01*
X169545000Y-113030000D02*
X169106000Y-113030000D01*
X170180000Y-111125000D02*
X170815000Y-111125000D01*
X170815000Y-111125000D02*
X171254000Y-111125000D01*
X170180000Y-107950000D02*
X169672000Y-107950000D01*
X169672000Y-107950000D02*
X169106000Y-107950000D01*
X170815000Y-106045000D02*
X170180000Y-106045000D01*
X170180000Y-102870000D02*
X169672000Y-102870000D01*
X169672000Y-102870000D02*
X169106000Y-102870000D01*
X171254000Y-100965000D02*
X170180000Y-100965000D01*
X168910000Y-95065000D02*
X168910000Y-95567500D01*
X169730000Y-95885000D02*
X170180000Y-95885000D01*
X169227500Y-95885000D02*
X169730000Y-95885000D01*
X168910000Y-95567500D02*
X169227500Y-95885000D01*
X170180000Y-97790000D02*
X169672000Y-97790000D01*
X169672000Y-97790000D02*
X169106000Y-97790000D01*
X170180000Y-95885000D02*
X170688000Y-95885000D01*
X170688000Y-95885000D02*
X171254000Y-95885000D01*
X170180000Y-92710000D02*
X169672000Y-92710000D01*
X169672000Y-92710000D02*
X169106000Y-92710000D01*
X170180000Y-90805000D02*
X170688000Y-90805000D01*
X170688000Y-90805000D02*
X171254000Y-90805000D01*
X170180000Y-87630000D02*
X169672000Y-87630000D01*
X169672000Y-87630000D02*
X169106000Y-87630000D01*
X171254000Y-85725000D02*
X170180000Y-85725000D01*
X170180000Y-82550000D02*
X169672000Y-82550000D01*
X169672000Y-82550000D02*
X169106000Y-82550000D01*
X170180000Y-80645000D02*
X170561000Y-80645000D01*
X170561000Y-80645000D02*
X171254000Y-80645000D01*
X170180000Y-77470000D02*
X169672000Y-77470000D01*
X169672000Y-77470000D02*
X169106000Y-77470000D01*
X170815000Y-75565000D02*
X170180000Y-75565000D01*
D24*
X166340000Y-127478000D02*
X166370000Y-127508000D01*
X166340000Y-125615000D02*
X166340000Y-127478000D01*
X166370000Y-130175000D02*
X165550000Y-130175000D01*
D23*
X170180000Y-76073000D02*
X170180000Y-75565000D01*
X170180000Y-76073000D02*
X170180000Y-77470000D01*
X170180000Y-77470000D02*
X170180000Y-77978000D01*
X170180000Y-75565000D02*
X170180000Y-73533000D01*
X169799000Y-73152000D02*
X169079000Y-73152000D01*
X170180000Y-73533000D02*
X169799000Y-73152000D01*
X170180000Y-81026000D02*
X170180000Y-80645000D01*
X170180000Y-80645000D02*
X170180000Y-77978000D01*
X170180000Y-88138000D02*
X170180000Y-90805000D01*
X170180000Y-90805000D02*
X170180000Y-91313000D01*
X170180000Y-91313000D02*
X170180000Y-92710000D01*
X170180000Y-92710000D02*
X170180000Y-93218000D01*
X170180000Y-93218000D02*
X170180000Y-95504000D01*
X170180000Y-95504000D02*
X170180000Y-95885000D01*
X170180000Y-86106000D02*
X170180000Y-87630000D01*
X170180000Y-87630000D02*
X170180000Y-88138000D01*
X170180000Y-83058000D02*
X170180000Y-85725000D01*
X170180000Y-85725000D02*
X170180000Y-86106000D01*
X170180000Y-82550000D02*
X170180000Y-83058000D01*
X170180000Y-81026000D02*
X170180000Y-82550000D01*
X170180000Y-97790000D02*
X170180000Y-98298000D01*
X170180000Y-95885000D02*
X170180000Y-96393000D01*
X170180000Y-96393000D02*
X170180000Y-97790000D01*
X170180000Y-98298000D02*
X170180000Y-100965000D01*
X170180000Y-100965000D02*
X170180000Y-101346000D01*
X170180000Y-101346000D02*
X170180000Y-102870000D01*
X170180000Y-102870000D02*
X170180000Y-103378000D01*
X170180000Y-103378000D02*
X170180000Y-106045000D01*
X170180000Y-106045000D02*
X170180000Y-106553000D01*
X170180000Y-106553000D02*
X170180000Y-107950000D01*
X170180000Y-107950000D02*
X170180000Y-108458000D01*
X171254000Y-106045000D02*
X170815000Y-106045000D01*
X170815000Y-106045000D02*
X170688000Y-106045000D01*
X170180000Y-113030000D02*
X170180000Y-113411000D01*
X170180000Y-113411000D02*
X170180000Y-113665000D01*
X170180000Y-111760000D02*
X170180000Y-112395000D01*
X170180000Y-112395000D02*
X170180000Y-113030000D01*
X170180000Y-108458000D02*
X170180000Y-111125000D01*
X170180000Y-111125000D02*
X170180000Y-111760000D01*
X170180000Y-113665000D02*
X170180000Y-113919000D01*
X170180000Y-113919000D02*
X170180000Y-114300000D01*
X170180000Y-114300000D02*
X170180000Y-114935000D01*
D24*
X166624000Y-123952000D02*
X166340000Y-124236000D01*
X166340000Y-124236000D02*
X166340000Y-125615000D01*
X167386000Y-123952000D02*
X167640000Y-124206000D01*
X166624000Y-123952000D02*
X167386000Y-123952000D01*
X167640000Y-125615000D02*
X167640000Y-124206000D01*
D23*
X168910000Y-125645000D02*
X170095000Y-125645000D01*
X170095000Y-125645000D02*
X170180000Y-125730000D01*
D24*
X168910000Y-125645000D02*
X167670000Y-125645000D01*
X167670000Y-125645000D02*
X167640000Y-125615000D01*
D23*
X172720000Y-125730000D02*
X173990000Y-125730000D01*
X171450000Y-125730000D02*
X172720000Y-125730000D01*
X172720000Y-125730000D02*
X172720000Y-123275000D01*
X172720000Y-120650000D02*
X171450000Y-120650000D01*
X173990000Y-120650000D02*
X172720000Y-120650000D01*
X172720000Y-120650000D02*
X172720000Y-123105000D01*
X172635000Y-123190000D02*
X172720000Y-123275000D01*
X172635000Y-123190000D02*
X172720000Y-123105000D01*
X171254000Y-75565000D02*
X170815000Y-75565000D01*
X170815000Y-75565000D02*
X170688000Y-75565000D01*
X167979000Y-73152000D02*
X167979000Y-71924000D01*
X167979000Y-71924000D02*
X168021000Y-71882000D01*
X168910000Y-94165000D02*
X167709000Y-94165000D01*
X167709000Y-94165000D02*
X167640000Y-94234000D01*
X160994000Y-130175000D02*
X159639000Y-130175000D01*
X172508000Y-114427000D02*
X173736000Y-114427000D01*
X180340000Y-127000000D02*
X179070000Y-127000000D01*
X177800000Y-127000000D02*
X176064000Y-127000000D01*
X179070000Y-127000000D02*
X177800000Y-127000000D01*
X181060000Y-130175000D02*
X179705000Y-130175000D01*
X177080000Y-130175000D02*
X178435000Y-130175000D01*
X168910000Y-124545000D02*
X168910000Y-123190000D01*
D24*
X167640000Y-120015000D02*
X167640000Y-118110000D01*
X164390000Y-120015000D02*
X164390000Y-118185000D01*
X164390000Y-118185000D02*
X164465000Y-118110000D01*
D23*
X173270000Y-130175000D02*
X174371000Y-130175000D01*
X169360000Y-130175000D02*
X170307000Y-130175000D01*
X166370000Y-110810000D02*
X167320000Y-110810000D01*
X167320000Y-110810000D02*
X167640000Y-110490000D01*
X166370000Y-105730000D02*
X167320000Y-105730000D01*
X167320000Y-105730000D02*
X167640000Y-105410000D01*
X166370000Y-100650000D02*
X167320000Y-100650000D01*
X167320000Y-100650000D02*
X167640000Y-100330000D01*
X173990000Y-112710000D02*
X173040000Y-112710000D01*
X173040000Y-112710000D02*
X172720000Y-113030000D01*
X173990000Y-107630000D02*
X173040000Y-107630000D01*
X173040000Y-107630000D02*
X172720000Y-107950000D01*
X173990000Y-102550000D02*
X173040000Y-102550000D01*
X173040000Y-102550000D02*
X172720000Y-102870000D01*
X173990000Y-97470000D02*
X173040000Y-97470000D01*
X173040000Y-97470000D02*
X172720000Y-97790000D01*
X166370000Y-95570000D02*
X167320000Y-95570000D01*
X167320000Y-95570000D02*
X167640000Y-95250000D01*
X173990000Y-87310000D02*
X173040000Y-87310000D01*
X173040000Y-87310000D02*
X172720000Y-87630000D01*
X173990000Y-92390000D02*
X173040000Y-92390000D01*
X173040000Y-92390000D02*
X172720000Y-92710000D01*
X166370000Y-90490000D02*
X167320000Y-90490000D01*
X167320000Y-90490000D02*
X167640000Y-90170000D01*
X166370000Y-85410000D02*
X167320000Y-85410000D01*
X167320000Y-85410000D02*
X167640000Y-85090000D01*
X166370000Y-80330000D02*
X167320000Y-80330000D01*
X167320000Y-80330000D02*
X167640000Y-80010000D01*
X173990000Y-82230000D02*
X173040000Y-82230000D01*
X173040000Y-82230000D02*
X172720000Y-82550000D01*
X173990000Y-77150000D02*
X173040000Y-77150000D01*
X173040000Y-77150000D02*
X172720000Y-77470000D01*
X166370000Y-75250000D02*
X167320000Y-75250000D01*
X167320000Y-75250000D02*
X167640000Y-74930000D01*
X161290000Y-132080000D02*
X162094000Y-131276000D01*
X162094000Y-131276000D02*
X162094000Y-130175000D01*
X176530000Y-132080000D02*
X175980000Y-131530000D01*
X175980000Y-131530000D02*
X175980000Y-130175000D01*
X181610000Y-132080000D02*
X182160000Y-131530000D01*
X182160000Y-131530000D02*
X182160000Y-130175000D01*
X180340000Y-103010000D02*
X181470000Y-103010000D01*
X181470000Y-103010000D02*
X181610000Y-102870000D01*
X172170000Y-130175000D02*
X172170000Y-131360000D01*
X172170000Y-131360000D02*
X171450000Y-132080000D01*
X180340000Y-72530000D02*
X181470000Y-72530000D01*
X181470000Y-72530000D02*
X181610000Y-72390000D01*
X180340000Y-77610000D02*
X181470000Y-77610000D01*
X181470000Y-77610000D02*
X181610000Y-77470000D01*
X180340000Y-82690000D02*
X181470000Y-82690000D01*
X181470000Y-82690000D02*
X181610000Y-82550000D01*
X180340000Y-87770000D02*
X181470000Y-87770000D01*
X181470000Y-87770000D02*
X181610000Y-87630000D01*
X180340000Y-92850000D02*
X181470000Y-92850000D01*
X181470000Y-92850000D02*
X181610000Y-92710000D01*
X180340000Y-97930000D02*
X181470000Y-97930000D01*
X181470000Y-97930000D02*
X181610000Y-97790000D01*
X181610000Y-107950000D02*
X181470000Y-108090000D01*
X181470000Y-108090000D02*
X180340000Y-108090000D01*
X160020000Y-103010000D02*
X158890000Y-103010000D01*
X158890000Y-103010000D02*
X158750000Y-102870000D01*
X160020000Y-97930000D02*
X158890000Y-97930000D01*
X158890000Y-97930000D02*
X158750000Y-97790000D01*
X160020000Y-92850000D02*
X158890000Y-92850000D01*
X158890000Y-92850000D02*
X158750000Y-92710000D01*
X160020000Y-87770000D02*
X158890000Y-87770000D01*
X158890000Y-87770000D02*
X158750000Y-87630000D01*
X160020000Y-82690000D02*
X158890000Y-82690000D01*
X158890000Y-82690000D02*
X158750000Y-82550000D01*
X160020000Y-77610000D02*
X158890000Y-77610000D01*
X158890000Y-77610000D02*
X158750000Y-77470000D01*
X160020000Y-72530000D02*
X158890000Y-72530000D01*
X158890000Y-72530000D02*
X158750000Y-72390000D01*
X160020000Y-108090000D02*
X158890000Y-108090000D01*
X158890000Y-108090000D02*
X158750000Y-107950000D01*
X159070000Y-74930000D02*
X159070000Y-76200000D01*
X159070000Y-76200000D02*
X159067500Y-76200000D01*
X158750000Y-76200000D02*
X159067500Y-76200000D01*
X159067500Y-76200000D02*
X159385000Y-76200000D01*
X159385000Y-76200000D02*
X163970000Y-76200000D01*
X157800000Y-76200000D02*
X158750000Y-76200000D01*
X156210000Y-76200000D02*
X157800000Y-76200000D01*
X179390000Y-74930000D02*
X179390000Y-76200000D01*
X179390000Y-76200000D02*
X179387500Y-76200000D01*
X184150000Y-76200000D02*
X179705000Y-76200000D01*
X179070000Y-76200000D02*
X176390000Y-76200000D01*
X179705000Y-76200000D02*
X179387500Y-76200000D01*
X179387500Y-76200000D02*
X179070000Y-76200000D01*
X159070000Y-80010000D02*
X159070000Y-81280000D01*
X159070000Y-81280000D02*
X159067500Y-81280000D01*
X158750000Y-81280000D02*
X159067500Y-81280000D01*
X159067500Y-81280000D02*
X159385000Y-81280000D01*
X159385000Y-81280000D02*
X163970000Y-81280000D01*
X156210000Y-81280000D02*
X158750000Y-81280000D01*
X179390000Y-80010000D02*
X179390000Y-81280000D01*
X179390000Y-81280000D02*
X179387500Y-81280000D01*
X179705000Y-81280000D02*
X184150000Y-81280000D01*
X179070000Y-81280000D02*
X176390000Y-81280000D01*
X179705000Y-81280000D02*
X179387500Y-81280000D01*
X179387500Y-81280000D02*
X179070000Y-81280000D01*
X159070000Y-85090000D02*
X159070000Y-86360000D01*
X159070000Y-86360000D02*
X159067500Y-86360000D01*
X158750000Y-86360000D02*
X159067500Y-86360000D01*
X159067500Y-86360000D02*
X159385000Y-86360000D01*
X159385000Y-86360000D02*
X163970000Y-86360000D01*
X158750000Y-86360000D02*
X156210000Y-86360000D01*
X179390000Y-85090000D02*
X179390000Y-86360000D01*
X179390000Y-86360000D02*
X179387500Y-86360000D01*
X179705000Y-86360000D02*
X184150000Y-86360000D01*
X179070000Y-86360000D02*
X176390000Y-86360000D01*
X179705000Y-86360000D02*
X179387500Y-86360000D01*
X179387500Y-86360000D02*
X179070000Y-86360000D01*
X159070000Y-90170000D02*
X159070000Y-91440000D01*
X159070000Y-91440000D02*
X159067500Y-91440000D01*
X158750000Y-91440000D02*
X159067500Y-91440000D01*
X159067500Y-91440000D02*
X159385000Y-91440000D01*
X159385000Y-91440000D02*
X163970000Y-91440000D01*
X156210000Y-91440000D02*
X158750000Y-91440000D01*
X179390000Y-90170000D02*
X179390000Y-91440000D01*
X179390000Y-91440000D02*
X179387500Y-91440000D01*
X179705000Y-91440000D02*
X179387500Y-91440000D01*
X179387500Y-91440000D02*
X179070000Y-91440000D01*
X179705000Y-91440000D02*
X184150000Y-91440000D01*
X179070000Y-91440000D02*
X176390000Y-91440000D01*
X159070000Y-95250000D02*
X159070000Y-96520000D01*
X159070000Y-96520000D02*
X159067500Y-96520000D01*
X163970000Y-96520000D02*
X159067500Y-96520000D01*
X159067500Y-96520000D02*
X158750000Y-96520000D01*
X158750000Y-96520000D02*
X156210000Y-99060000D01*
X179390000Y-95250000D02*
X179390000Y-96520000D01*
X179390000Y-96520000D02*
X179387500Y-96520000D01*
X181610000Y-96520000D02*
X184150000Y-99060000D01*
X176390000Y-96520000D02*
X179387500Y-96520000D01*
X179387500Y-96520000D02*
X179705000Y-96520000D01*
X179705000Y-96520000D02*
X181610000Y-96520000D01*
X159070000Y-100330000D02*
X159070000Y-101600000D01*
X159070000Y-101600000D02*
X159067500Y-101600000D01*
X163970000Y-101600000D02*
X159067500Y-101600000D01*
X159067500Y-101600000D02*
X158750000Y-101600000D01*
X158750000Y-101600000D02*
X156210000Y-104140000D01*
X179390000Y-100330000D02*
X179390000Y-101600000D01*
X179390000Y-101600000D02*
X179387500Y-101600000D01*
X181610000Y-101600000D02*
X184150000Y-104140000D01*
X176390000Y-101600000D02*
X179387500Y-101600000D01*
X179387500Y-101600000D02*
X179705000Y-101600000D01*
X179705000Y-101600000D02*
X181610000Y-101600000D01*
X159070000Y-105410000D02*
X159070000Y-106680000D01*
X159070000Y-106680000D02*
X159067500Y-106680000D01*
X163970000Y-106680000D02*
X159067500Y-106680000D01*
X159067500Y-106680000D02*
X158750000Y-106680000D01*
X156210000Y-109220000D02*
X158750000Y-106680000D01*
X179390000Y-105410000D02*
X179390000Y-106680000D01*
X179390000Y-106680000D02*
X179387500Y-106680000D01*
X181610000Y-106680000D02*
X184150000Y-109220000D01*
X179705000Y-106680000D02*
X181610000Y-106680000D01*
X176390000Y-106680000D02*
X179387500Y-106680000D01*
X179387500Y-106680000D02*
X179705000Y-106680000D01*
X159070000Y-110490000D02*
X159070000Y-111760000D01*
X159070000Y-111760000D02*
X159067500Y-111760000D01*
X163970000Y-111760000D02*
X159067500Y-111760000D01*
X159067500Y-111760000D02*
X158750000Y-111760000D01*
X156210000Y-114300000D02*
X158750000Y-111760000D01*
X179390000Y-110490000D02*
X179390000Y-111760000D01*
X179390000Y-111760000D02*
X179387500Y-111760000D01*
X181610000Y-111760000D02*
X184150000Y-114300000D01*
X179705000Y-111760000D02*
X181610000Y-111760000D01*
X176390000Y-111760000D02*
X179387500Y-111760000D01*
X179387500Y-111760000D02*
X179705000Y-111760000D01*
D24*
X163830000Y-130175000D02*
X164650000Y-130175000D01*
X165690000Y-125615000D02*
X165690000Y-127463000D01*
X165690000Y-127463000D02*
X165735000Y-127508000D01*
X165735000Y-122555000D02*
X156845000Y-122555000D01*
X156845000Y-122555000D02*
X156210000Y-121920000D01*
X166370000Y-123190000D02*
X165735000Y-123825000D01*
X166370000Y-119985000D02*
X166370000Y-118110000D01*
X156845000Y-123825000D02*
X156210000Y-124460000D01*
X165735000Y-123825000D02*
X156845000Y-123825000D01*
X165690000Y-120015000D02*
X165690000Y-118155000D01*
X165735000Y-121920000D02*
X158750000Y-121920000D01*
X165690000Y-118155000D02*
X165735000Y-118110000D01*
X165690000Y-120015000D02*
X165735000Y-119970000D01*
X165040000Y-120015000D02*
X165040000Y-118170000D01*
X165100000Y-123190000D02*
X158750000Y-123190000D01*
X165040000Y-118170000D02*
X165100000Y-118110000D01*
X165040000Y-120015000D02*
X165100000Y-119955000D01*
X165040000Y-125615000D02*
X165040000Y-127441000D01*
X165040000Y-127441000D02*
X164973000Y-127508000D01*
X165040000Y-127441000D02*
X164973000Y-127508000D01*
X156210000Y-132080000D02*
X159385000Y-128905000D01*
D23*
X178435000Y-120890000D02*
X181215000Y-120890000D01*
X181610000Y-127000000D02*
X184150000Y-129540000D01*
X181610000Y-121285000D02*
X181610000Y-127000000D01*
X184150000Y-132080000D02*
X184150000Y-129540000D01*
X181215000Y-120890000D02*
X181610000Y-121285000D01*
D24*
X166990000Y-125615000D02*
X166990000Y-127493000D01*
X167005000Y-130175000D02*
X168460000Y-130175000D01*
X166990000Y-127493000D02*
X167005000Y-127508000D01*
X167640000Y-77470000D02*
X167640000Y-78105000D01*
X167640000Y-78105000D02*
X167322500Y-78422500D01*
X167640000Y-77470000D02*
X168206000Y-77470000D01*
X167322500Y-78422500D02*
X167005000Y-78740000D01*
X167005000Y-78740000D02*
X163830000Y-78740000D01*
X163830000Y-118110000D02*
X163740000Y-118200000D01*
X163740000Y-120015000D02*
X163740000Y-118200000D01*
X166370000Y-77150000D02*
X167320000Y-77150000D01*
X167320000Y-77150000D02*
X167640000Y-77470000D01*
X173037500Y-75250000D02*
X173037500Y-73977500D01*
X163195000Y-118110000D02*
X163090000Y-118215000D01*
X163090000Y-118215000D02*
X163090000Y-120015000D01*
X176530000Y-117475000D02*
X163830000Y-117475000D01*
X163830000Y-117475000D02*
X163195000Y-118110000D01*
X173037500Y-73977500D02*
X173355000Y-73660000D01*
X173355000Y-73660000D02*
X176530000Y-73660000D01*
X172720000Y-75565000D02*
X172154000Y-75565000D01*
X173035000Y-75250000D02*
X173037500Y-75250000D01*
X173037500Y-75250000D02*
X173990000Y-75250000D01*
X172720000Y-75565000D02*
X173035000Y-75250000D01*
X168206000Y-82550000D02*
X167640000Y-82550000D01*
X162440000Y-120015000D02*
X162440000Y-118230000D01*
X162560000Y-118110000D02*
X162440000Y-118230000D01*
X167640000Y-82550000D02*
X167640000Y-83185000D01*
X167005000Y-83820000D02*
X162560000Y-83820000D01*
X167640000Y-83185000D02*
X167005000Y-83820000D01*
X167320000Y-82230000D02*
X166370000Y-82230000D01*
X167640000Y-82550000D02*
X167320000Y-82230000D01*
X173037500Y-80330000D02*
X173037500Y-79057500D01*
X172154000Y-80645000D02*
X172720000Y-80645000D01*
X177800000Y-116840000D02*
X162560000Y-116840000D01*
X162560000Y-116840000D02*
X161790000Y-117610000D01*
X161790000Y-117610000D02*
X161790000Y-120015000D01*
X177800000Y-78740000D02*
X173355000Y-78740000D01*
X173037500Y-79057500D02*
X173355000Y-78740000D01*
X173990000Y-80330000D02*
X173037500Y-80330000D01*
X173037500Y-80330000D02*
X173035000Y-80330000D01*
X173035000Y-80330000D02*
X172720000Y-80645000D01*
X161140000Y-118895000D02*
X161140000Y-118260000D01*
X167640000Y-88265000D02*
X167005000Y-88900000D01*
X167005000Y-88900000D02*
X161290000Y-88900000D01*
X167640000Y-87630000D02*
X167640000Y-88265000D01*
X161140000Y-118895000D02*
X161140000Y-120015000D01*
X161140000Y-118260000D02*
X161290000Y-118110000D01*
X168206000Y-87630000D02*
X167640000Y-87630000D01*
X167320000Y-87310000D02*
X166370000Y-87310000D01*
X167640000Y-87630000D02*
X167320000Y-87310000D01*
X173037500Y-85410000D02*
X173037500Y-84137500D01*
X172154000Y-85725000D02*
X172720000Y-85725000D01*
X179070000Y-116205000D02*
X161290000Y-116205000D01*
X161290000Y-116205000D02*
X160490000Y-117005000D01*
X160490000Y-117005000D02*
X160490000Y-120015000D01*
X173037500Y-84137500D02*
X173355000Y-83820000D01*
X173355000Y-83820000D02*
X179070000Y-83820000D01*
X173035000Y-85410000D02*
X173037500Y-85410000D01*
X173037500Y-85410000D02*
X173990000Y-85410000D01*
X172720000Y-85725000D02*
X173035000Y-85410000D01*
X159840000Y-118925000D02*
X159840000Y-118290000D01*
X159840000Y-120015000D02*
X159840000Y-118925000D01*
X167005000Y-93980000D02*
X160020000Y-93980000D01*
X167640000Y-93345000D02*
X167005000Y-93980000D01*
X167640000Y-93345000D02*
X167640000Y-92710000D01*
X159840000Y-118290000D02*
X160020000Y-118110000D01*
X168206000Y-92710000D02*
X167640000Y-92710000D01*
X167320000Y-92390000D02*
X166370000Y-92390000D01*
X167640000Y-92710000D02*
X167320000Y-92390000D01*
X173037500Y-90490000D02*
X173037500Y-89217500D01*
X172154000Y-90805000D02*
X172720000Y-90805000D01*
X180340000Y-115570000D02*
X160020000Y-115570000D01*
X160020000Y-115570000D02*
X159190000Y-116400000D01*
X159190000Y-116400000D02*
X159190000Y-120015000D01*
X173037500Y-89217500D02*
X173355000Y-88900000D01*
X173355000Y-88900000D02*
X180340000Y-88900000D01*
X173035000Y-90490000D02*
X173037500Y-90490000D01*
X173037500Y-90490000D02*
X173990000Y-90490000D01*
X172720000Y-90805000D02*
X173035000Y-90490000D01*
X159190000Y-126805000D02*
X159190000Y-127313000D01*
X159190000Y-125615000D02*
X159190000Y-126805000D01*
X167640000Y-98425000D02*
X167005000Y-99060000D01*
X167005000Y-99060000D02*
X159385000Y-99060000D01*
X167640000Y-98425000D02*
X167640000Y-97790000D01*
X159190000Y-127313000D02*
X159385000Y-127508000D01*
X167640000Y-97790000D02*
X168206000Y-97790000D01*
X167320000Y-97470000D02*
X166370000Y-97470000D01*
X167640000Y-97790000D02*
X167320000Y-97470000D01*
X173037500Y-95570000D02*
X173037500Y-94297500D01*
X172154000Y-95885000D02*
X172720000Y-95885000D01*
X173037500Y-94297500D02*
X173355000Y-93980000D01*
X173355000Y-93980000D02*
X180975000Y-93980000D01*
X159840000Y-128725000D02*
X159840000Y-125615000D01*
X160655000Y-129540000D02*
X180975000Y-129540000D01*
X159840000Y-128725000D02*
X160655000Y-129540000D01*
X173990000Y-95570000D02*
X173037500Y-95570000D01*
X173037500Y-95570000D02*
X173035000Y-95570000D01*
X173035000Y-95570000D02*
X172720000Y-95885000D01*
X160490000Y-126835000D02*
X160490000Y-127343000D01*
X167640000Y-103505000D02*
X167005000Y-104140000D01*
X167005000Y-104140000D02*
X160655000Y-104140000D01*
X167640000Y-102997000D02*
X167640000Y-103505000D01*
X160490000Y-126835000D02*
X160490000Y-125615000D01*
X160490000Y-127343000D02*
X160655000Y-127508000D01*
X168206000Y-102870000D02*
X167640000Y-102870000D01*
X167640000Y-102870000D02*
X167640000Y-102997000D01*
X167640000Y-102870000D02*
X167640000Y-102997000D01*
X167320000Y-102550000D02*
X166370000Y-102550000D01*
X167640000Y-102870000D02*
X167320000Y-102550000D01*
X173037500Y-100650000D02*
X173037500Y-99377500D01*
X172154000Y-100965000D02*
X172720000Y-100965000D01*
X179705000Y-129032000D02*
X161925000Y-129032000D01*
X161925000Y-129032000D02*
X161140000Y-128120000D01*
X161140000Y-128120000D02*
X161140000Y-125615000D01*
X173355000Y-99060000D02*
X179705000Y-99060000D01*
X173037500Y-99377500D02*
X173355000Y-99060000D01*
X173035000Y-100650000D02*
X173037500Y-100650000D01*
X173037500Y-100650000D02*
X173990000Y-100650000D01*
X172720000Y-100965000D02*
X173035000Y-100650000D01*
X161790000Y-125615000D02*
X161790000Y-127373000D01*
X167640000Y-108585000D02*
X167640000Y-107950000D01*
X167005000Y-109220000D02*
X161925000Y-109220000D01*
X167640000Y-108585000D02*
X167005000Y-109220000D01*
X161790000Y-127373000D02*
X161925000Y-127508000D01*
X168206000Y-107950000D02*
X167640000Y-107950000D01*
X167320000Y-107630000D02*
X166370000Y-107630000D01*
X167640000Y-107950000D02*
X167320000Y-107630000D01*
X173037500Y-105730000D02*
X173037500Y-104457500D01*
X172154000Y-106045000D02*
X172720000Y-106045000D01*
X178435000Y-128524000D02*
X163195000Y-128524000D01*
X163195000Y-128524000D02*
X162440000Y-127515000D01*
X162440000Y-127515000D02*
X162440000Y-125615000D01*
X173037500Y-104457500D02*
X173355000Y-104140000D01*
X173355000Y-104140000D02*
X178435000Y-104140000D01*
X173035000Y-105730000D02*
X173037500Y-105730000D01*
X173037500Y-105730000D02*
X173990000Y-105730000D01*
X172720000Y-106045000D02*
X173035000Y-105730000D01*
X163090000Y-125615000D02*
X163090000Y-127403000D01*
X163195000Y-114300000D02*
X167005000Y-114300000D01*
X167640000Y-113665000D02*
X167640000Y-113030000D01*
X167005000Y-114300000D02*
X167640000Y-113665000D01*
X163090000Y-127403000D02*
X163195000Y-127508000D01*
X168206000Y-113030000D02*
X167640000Y-113030000D01*
X167320000Y-112710000D02*
X166370000Y-112710000D01*
X167640000Y-113030000D02*
X167320000Y-112710000D01*
X173037500Y-110810000D02*
X173037500Y-109537500D01*
X163740000Y-125615000D02*
X163740000Y-127672000D01*
X177165000Y-128016000D02*
X164465000Y-128016000D01*
X164084000Y-128016000D02*
X164465000Y-128016000D01*
X163740000Y-127672000D02*
X164084000Y-128016000D01*
X172154000Y-111125000D02*
X172720000Y-111125000D01*
X173037500Y-109537500D02*
X173355000Y-109220000D01*
X173355000Y-109220000D02*
X177165000Y-109220000D01*
X177165000Y-109220000D02*
X177165000Y-109220000D01*
X173035000Y-110810000D02*
X173037500Y-110810000D01*
X173037500Y-110810000D02*
X173990000Y-110810000D01*
X172720000Y-111125000D02*
X173035000Y-110810000D01*
X166990000Y-121270000D02*
X166990000Y-120015000D01*
X167322500Y-121602500D02*
X166990000Y-121270000D01*
X168910000Y-121602500D02*
X167322500Y-121602500D01*
X179070000Y-118110000D02*
X168910000Y-118110000D01*
X179705000Y-117475000D02*
X179070000Y-118110000D01*
X182880000Y-117475000D02*
X179705000Y-117475000D01*
D25*
G36*
X175323500Y-121920000D02*
X175328503Y-121944705D01*
X175342723Y-121965517D01*
X175363920Y-121979157D01*
X175387000Y-121983500D01*
X180403500Y-121983500D01*
X180403500Y-124269500D01*
X175387000Y-124269500D01*
X175362295Y-124274503D01*
X175341483Y-124288723D01*
X175327843Y-124309920D01*
X175323500Y-124333000D01*
X175323500Y-126432500D01*
X175106875Y-126432500D01*
X175027500Y-126511875D01*
X175027500Y-126936500D01*
X175047500Y-126936500D01*
X175047500Y-127063500D01*
X175027500Y-127063500D01*
X175027500Y-127488125D01*
X175106875Y-127567500D01*
X175323500Y-127567500D01*
X175323500Y-127571500D01*
X169735500Y-127571500D01*
X169735500Y-127142875D01*
X174346500Y-127142875D01*
X174346500Y-127313154D01*
X174394836Y-127429849D01*
X174484150Y-127519163D01*
X174600845Y-127567500D01*
X174821125Y-127567500D01*
X174900500Y-127488125D01*
X174900500Y-127063500D01*
X174425875Y-127063500D01*
X174346500Y-127142875D01*
X169735500Y-127142875D01*
X169735500Y-126686846D01*
X174346500Y-126686846D01*
X174346500Y-126857125D01*
X174425875Y-126936500D01*
X174900500Y-126936500D01*
X174900500Y-126511875D01*
X174821125Y-126432500D01*
X174600845Y-126432500D01*
X174484150Y-126480837D01*
X174394836Y-126570151D01*
X174346500Y-126686846D01*
X169735500Y-126686846D01*
X169735500Y-123332875D01*
X171067500Y-123332875D01*
X171067500Y-124903155D01*
X171115837Y-125019850D01*
X171205151Y-125109164D01*
X171321846Y-125157500D01*
X172492125Y-125157500D01*
X172571500Y-125078125D01*
X172571500Y-123253500D01*
X172698500Y-123253500D01*
X172698500Y-125078125D01*
X172777875Y-125157500D01*
X173948154Y-125157500D01*
X174064849Y-125109164D01*
X174154163Y-125019850D01*
X174202500Y-124903155D01*
X174202500Y-123332875D01*
X176867500Y-123332875D01*
X176867500Y-123728155D01*
X176915837Y-123844850D01*
X177005151Y-123934164D01*
X177121846Y-123982500D01*
X178292125Y-123982500D01*
X178371500Y-123903125D01*
X178371500Y-123253500D01*
X178498500Y-123253500D01*
X178498500Y-123903125D01*
X178577875Y-123982500D01*
X179748154Y-123982500D01*
X179864849Y-123934164D01*
X179954163Y-123844850D01*
X180002500Y-123728155D01*
X180002500Y-123332875D01*
X179923125Y-123253500D01*
X178498500Y-123253500D01*
X178371500Y-123253500D01*
X176946875Y-123253500D01*
X176867500Y-123332875D01*
X174202500Y-123332875D01*
X174123125Y-123253500D01*
X172698500Y-123253500D01*
X172571500Y-123253500D01*
X171146875Y-123253500D01*
X171067500Y-123332875D01*
X169735500Y-123332875D01*
X169735500Y-121476845D01*
X171067500Y-121476845D01*
X171067500Y-123047125D01*
X171146875Y-123126500D01*
X172571500Y-123126500D01*
X172571500Y-121301875D01*
X172698500Y-121301875D01*
X172698500Y-123126500D01*
X174123125Y-123126500D01*
X174202500Y-123047125D01*
X174202500Y-122651845D01*
X176867500Y-122651845D01*
X176867500Y-123047125D01*
X176946875Y-123126500D01*
X178371500Y-123126500D01*
X178371500Y-122476875D01*
X178498500Y-122476875D01*
X178498500Y-123126500D01*
X179923125Y-123126500D01*
X180002500Y-123047125D01*
X180002500Y-122651845D01*
X179954163Y-122535150D01*
X179864849Y-122445836D01*
X179748154Y-122397500D01*
X178577875Y-122397500D01*
X178498500Y-122476875D01*
X178371500Y-122476875D01*
X178292125Y-122397500D01*
X177121846Y-122397500D01*
X177005151Y-122445836D01*
X176915837Y-122535150D01*
X176867500Y-122651845D01*
X174202500Y-122651845D01*
X174202500Y-121476845D01*
X174154163Y-121360150D01*
X174064849Y-121270836D01*
X173948154Y-121222500D01*
X172777875Y-121222500D01*
X172698500Y-121301875D01*
X172571500Y-121301875D01*
X172492125Y-121222500D01*
X171321846Y-121222500D01*
X171205151Y-121270836D01*
X171115837Y-121360150D01*
X171067500Y-121476845D01*
X169735500Y-121476845D01*
X169735500Y-119951500D01*
X175323500Y-119951500D01*
X175323500Y-121920000D01*
X175323500Y-121920000D01*
G37*
X175323500Y-121920000D02*
X175328503Y-121944705D01*
X175342723Y-121965517D01*
X175363920Y-121979157D01*
X175387000Y-121983500D01*
X180403500Y-121983500D01*
X180403500Y-124269500D01*
X175387000Y-124269500D01*
X175362295Y-124274503D01*
X175341483Y-124288723D01*
X175327843Y-124309920D01*
X175323500Y-124333000D01*
X175323500Y-126432500D01*
X175106875Y-126432500D01*
X175027500Y-126511875D01*
X175027500Y-126936500D01*
X175047500Y-126936500D01*
X175047500Y-127063500D01*
X175027500Y-127063500D01*
X175027500Y-127488125D01*
X175106875Y-127567500D01*
X175323500Y-127567500D01*
X175323500Y-127571500D01*
X169735500Y-127571500D01*
X169735500Y-127142875D01*
X174346500Y-127142875D01*
X174346500Y-127313154D01*
X174394836Y-127429849D01*
X174484150Y-127519163D01*
X174600845Y-127567500D01*
X174821125Y-127567500D01*
X174900500Y-127488125D01*
X174900500Y-127063500D01*
X174425875Y-127063500D01*
X174346500Y-127142875D01*
X169735500Y-127142875D01*
X169735500Y-126686846D01*
X174346500Y-126686846D01*
X174346500Y-126857125D01*
X174425875Y-126936500D01*
X174900500Y-126936500D01*
X174900500Y-126511875D01*
X174821125Y-126432500D01*
X174600845Y-126432500D01*
X174484150Y-126480837D01*
X174394836Y-126570151D01*
X174346500Y-126686846D01*
X169735500Y-126686846D01*
X169735500Y-123332875D01*
X171067500Y-123332875D01*
X171067500Y-124903155D01*
X171115837Y-125019850D01*
X171205151Y-125109164D01*
X171321846Y-125157500D01*
X172492125Y-125157500D01*
X172571500Y-125078125D01*
X172571500Y-123253500D01*
X172698500Y-123253500D01*
X172698500Y-125078125D01*
X172777875Y-125157500D01*
X173948154Y-125157500D01*
X174064849Y-125109164D01*
X174154163Y-125019850D01*
X174202500Y-124903155D01*
X174202500Y-123332875D01*
X176867500Y-123332875D01*
X176867500Y-123728155D01*
X176915837Y-123844850D01*
X177005151Y-123934164D01*
X177121846Y-123982500D01*
X178292125Y-123982500D01*
X178371500Y-123903125D01*
X178371500Y-123253500D01*
X178498500Y-123253500D01*
X178498500Y-123903125D01*
X178577875Y-123982500D01*
X179748154Y-123982500D01*
X179864849Y-123934164D01*
X179954163Y-123844850D01*
X180002500Y-123728155D01*
X180002500Y-123332875D01*
X179923125Y-123253500D01*
X178498500Y-123253500D01*
X178371500Y-123253500D01*
X176946875Y-123253500D01*
X176867500Y-123332875D01*
X174202500Y-123332875D01*
X174123125Y-123253500D01*
X172698500Y-123253500D01*
X172571500Y-123253500D01*
X171146875Y-123253500D01*
X171067500Y-123332875D01*
X169735500Y-123332875D01*
X169735500Y-121476845D01*
X171067500Y-121476845D01*
X171067500Y-123047125D01*
X171146875Y-123126500D01*
X172571500Y-123126500D01*
X172571500Y-121301875D01*
X172698500Y-121301875D01*
X172698500Y-123126500D01*
X174123125Y-123126500D01*
X174202500Y-123047125D01*
X174202500Y-122651845D01*
X176867500Y-122651845D01*
X176867500Y-123047125D01*
X176946875Y-123126500D01*
X178371500Y-123126500D01*
X178371500Y-122476875D01*
X178498500Y-122476875D01*
X178498500Y-123126500D01*
X179923125Y-123126500D01*
X180002500Y-123047125D01*
X180002500Y-122651845D01*
X179954163Y-122535150D01*
X179864849Y-122445836D01*
X179748154Y-122397500D01*
X178577875Y-122397500D01*
X178498500Y-122476875D01*
X178371500Y-122476875D01*
X178292125Y-122397500D01*
X177121846Y-122397500D01*
X177005151Y-122445836D01*
X176915837Y-122535150D01*
X176867500Y-122651845D01*
X174202500Y-122651845D01*
X174202500Y-121476845D01*
X174154163Y-121360150D01*
X174064849Y-121270836D01*
X173948154Y-121222500D01*
X172777875Y-121222500D01*
X172698500Y-121301875D01*
X172571500Y-121301875D01*
X172492125Y-121222500D01*
X171321846Y-121222500D01*
X171205151Y-121270836D01*
X171115837Y-121360150D01*
X171067500Y-121476845D01*
X169735500Y-121476845D01*
X169735500Y-119951500D01*
X175323500Y-119951500D01*
X175323500Y-121920000D01*
G36*
X180784500Y-127571500D02*
X177452318Y-127571500D01*
X177269028Y-127495391D01*
X177061881Y-127495210D01*
X176877246Y-127571500D01*
X175704500Y-127571500D01*
X175704500Y-127567500D01*
X175921125Y-127567500D01*
X176000500Y-127488125D01*
X176000500Y-127063500D01*
X176127500Y-127063500D01*
X176127500Y-127488125D01*
X176206875Y-127567500D01*
X176427155Y-127567500D01*
X176543850Y-127519163D01*
X176633164Y-127429849D01*
X176681500Y-127313154D01*
X176681500Y-127142875D01*
X176602125Y-127063500D01*
X176127500Y-127063500D01*
X176000500Y-127063500D01*
X175980500Y-127063500D01*
X175980500Y-126936500D01*
X176000500Y-126936500D01*
X176000500Y-126511875D01*
X176127500Y-126511875D01*
X176127500Y-126936500D01*
X176602125Y-126936500D01*
X176681500Y-126857125D01*
X176681500Y-126686846D01*
X176633164Y-126570151D01*
X176543850Y-126480837D01*
X176427155Y-126432500D01*
X176206875Y-126432500D01*
X176127500Y-126511875D01*
X176000500Y-126511875D01*
X175921125Y-126432500D01*
X175704500Y-126432500D01*
X175704500Y-125632875D01*
X176867500Y-125632875D01*
X176867500Y-126028155D01*
X176915837Y-126144850D01*
X177005151Y-126234164D01*
X177121846Y-126282500D01*
X178292125Y-126282500D01*
X178371500Y-126203125D01*
X178371500Y-125553500D01*
X178498500Y-125553500D01*
X178498500Y-126203125D01*
X178577875Y-126282500D01*
X179748154Y-126282500D01*
X179864849Y-126234164D01*
X179954163Y-126144850D01*
X180002500Y-126028155D01*
X180002500Y-125632875D01*
X179923125Y-125553500D01*
X178498500Y-125553500D01*
X178371500Y-125553500D01*
X176946875Y-125553500D01*
X176867500Y-125632875D01*
X175704500Y-125632875D01*
X175704500Y-124951845D01*
X176867500Y-124951845D01*
X176867500Y-125347125D01*
X176946875Y-125426500D01*
X178371500Y-125426500D01*
X178371500Y-124776875D01*
X178498500Y-124776875D01*
X178498500Y-125426500D01*
X179923125Y-125426500D01*
X180002500Y-125347125D01*
X180002500Y-124951845D01*
X179954163Y-124835150D01*
X179864849Y-124745836D01*
X179748154Y-124697500D01*
X178577875Y-124697500D01*
X178498500Y-124776875D01*
X178371500Y-124776875D01*
X178292125Y-124697500D01*
X177121846Y-124697500D01*
X177005151Y-124745836D01*
X176915837Y-124835150D01*
X176867500Y-124951845D01*
X175704500Y-124951845D01*
X175704500Y-124650500D01*
X180784500Y-124650500D01*
X180784500Y-127571500D01*
X180784500Y-127571500D01*
G37*
X180784500Y-127571500D02*
X177452318Y-127571500D01*
X177269028Y-127495391D01*
X177061881Y-127495210D01*
X176877246Y-127571500D01*
X175704500Y-127571500D01*
X175704500Y-127567500D01*
X175921125Y-127567500D01*
X176000500Y-127488125D01*
X176000500Y-127063500D01*
X176127500Y-127063500D01*
X176127500Y-127488125D01*
X176206875Y-127567500D01*
X176427155Y-127567500D01*
X176543850Y-127519163D01*
X176633164Y-127429849D01*
X176681500Y-127313154D01*
X176681500Y-127142875D01*
X176602125Y-127063500D01*
X176127500Y-127063500D01*
X176000500Y-127063500D01*
X175980500Y-127063500D01*
X175980500Y-126936500D01*
X176000500Y-126936500D01*
X176000500Y-126511875D01*
X176127500Y-126511875D01*
X176127500Y-126936500D01*
X176602125Y-126936500D01*
X176681500Y-126857125D01*
X176681500Y-126686846D01*
X176633164Y-126570151D01*
X176543850Y-126480837D01*
X176427155Y-126432500D01*
X176206875Y-126432500D01*
X176127500Y-126511875D01*
X176000500Y-126511875D01*
X175921125Y-126432500D01*
X175704500Y-126432500D01*
X175704500Y-125632875D01*
X176867500Y-125632875D01*
X176867500Y-126028155D01*
X176915837Y-126144850D01*
X177005151Y-126234164D01*
X177121846Y-126282500D01*
X178292125Y-126282500D01*
X178371500Y-126203125D01*
X178371500Y-125553500D01*
X178498500Y-125553500D01*
X178498500Y-126203125D01*
X178577875Y-126282500D01*
X179748154Y-126282500D01*
X179864849Y-126234164D01*
X179954163Y-126144850D01*
X180002500Y-126028155D01*
X180002500Y-125632875D01*
X179923125Y-125553500D01*
X178498500Y-125553500D01*
X178371500Y-125553500D01*
X176946875Y-125553500D01*
X176867500Y-125632875D01*
X175704500Y-125632875D01*
X175704500Y-124951845D01*
X176867500Y-124951845D01*
X176867500Y-125347125D01*
X176946875Y-125426500D01*
X178371500Y-125426500D01*
X178371500Y-124776875D01*
X178498500Y-124776875D01*
X178498500Y-125426500D01*
X179923125Y-125426500D01*
X180002500Y-125347125D01*
X180002500Y-124951845D01*
X179954163Y-124835150D01*
X179864849Y-124745836D01*
X179748154Y-124697500D01*
X178577875Y-124697500D01*
X178498500Y-124776875D01*
X178371500Y-124776875D01*
X178292125Y-124697500D01*
X177121846Y-124697500D01*
X177005151Y-124745836D01*
X176915837Y-124835150D01*
X176867500Y-124951845D01*
X175704500Y-124951845D01*
X175704500Y-124650500D01*
X180784500Y-124650500D01*
X180784500Y-127571500D01*
G36*
X180784500Y-118685500D02*
X180567875Y-118685500D01*
X180488500Y-118764875D01*
X180488500Y-119189500D01*
X180508500Y-119189500D01*
X180508500Y-119316500D01*
X180488500Y-119316500D01*
X180488500Y-119741125D01*
X180567875Y-119820500D01*
X180784500Y-119820500D01*
X180784500Y-121602500D01*
X179896513Y-121602500D01*
X179954163Y-121544850D01*
X180002500Y-121428155D01*
X180002500Y-121032875D01*
X179923125Y-120953500D01*
X178498500Y-120953500D01*
X178498500Y-120973500D01*
X178371500Y-120973500D01*
X178371500Y-120953500D01*
X176946875Y-120953500D01*
X176867500Y-121032875D01*
X176867500Y-121428155D01*
X176915837Y-121544850D01*
X176973487Y-121602500D01*
X175704500Y-121602500D01*
X175704500Y-120351845D01*
X176867500Y-120351845D01*
X176867500Y-120747125D01*
X176946875Y-120826500D01*
X178371500Y-120826500D01*
X178371500Y-120176875D01*
X178498500Y-120176875D01*
X178498500Y-120826500D01*
X179923125Y-120826500D01*
X180002500Y-120747125D01*
X180002500Y-120351845D01*
X179954163Y-120235150D01*
X179864849Y-120145836D01*
X179748154Y-120097500D01*
X178577875Y-120097500D01*
X178498500Y-120176875D01*
X178371500Y-120176875D01*
X178292125Y-120097500D01*
X177121846Y-120097500D01*
X177005151Y-120145836D01*
X176915837Y-120235150D01*
X176867500Y-120351845D01*
X175704500Y-120351845D01*
X175704500Y-119395875D01*
X179807500Y-119395875D01*
X179807500Y-119566154D01*
X179855836Y-119682849D01*
X179945150Y-119772163D01*
X180061845Y-119820500D01*
X180282125Y-119820500D01*
X180361500Y-119741125D01*
X180361500Y-119316500D01*
X179886875Y-119316500D01*
X179807500Y-119395875D01*
X175704500Y-119395875D01*
X175704500Y-118939846D01*
X179807500Y-118939846D01*
X179807500Y-119110125D01*
X179886875Y-119189500D01*
X180361500Y-119189500D01*
X180361500Y-118764875D01*
X180282125Y-118685500D01*
X180061845Y-118685500D01*
X179945150Y-118733837D01*
X179855836Y-118823151D01*
X179807500Y-118939846D01*
X175704500Y-118939846D01*
X175704500Y-118681500D01*
X180784500Y-118681500D01*
X180784500Y-118685500D01*
X180784500Y-118685500D01*
G37*
X180784500Y-118685500D02*
X180567875Y-118685500D01*
X180488500Y-118764875D01*
X180488500Y-119189500D01*
X180508500Y-119189500D01*
X180508500Y-119316500D01*
X180488500Y-119316500D01*
X180488500Y-119741125D01*
X180567875Y-119820500D01*
X180784500Y-119820500D01*
X180784500Y-121602500D01*
X179896513Y-121602500D01*
X179954163Y-121544850D01*
X180002500Y-121428155D01*
X180002500Y-121032875D01*
X179923125Y-120953500D01*
X178498500Y-120953500D01*
X178498500Y-120973500D01*
X178371500Y-120973500D01*
X178371500Y-120953500D01*
X176946875Y-120953500D01*
X176867500Y-121032875D01*
X176867500Y-121428155D01*
X176915837Y-121544850D01*
X176973487Y-121602500D01*
X175704500Y-121602500D01*
X175704500Y-120351845D01*
X176867500Y-120351845D01*
X176867500Y-120747125D01*
X176946875Y-120826500D01*
X178371500Y-120826500D01*
X178371500Y-120176875D01*
X178498500Y-120176875D01*
X178498500Y-120826500D01*
X179923125Y-120826500D01*
X180002500Y-120747125D01*
X180002500Y-120351845D01*
X179954163Y-120235150D01*
X179864849Y-120145836D01*
X179748154Y-120097500D01*
X178577875Y-120097500D01*
X178498500Y-120176875D01*
X178371500Y-120176875D01*
X178292125Y-120097500D01*
X177121846Y-120097500D01*
X177005151Y-120145836D01*
X176915837Y-120235150D01*
X176867500Y-120351845D01*
X175704500Y-120351845D01*
X175704500Y-119395875D01*
X179807500Y-119395875D01*
X179807500Y-119566154D01*
X179855836Y-119682849D01*
X179945150Y-119772163D01*
X180061845Y-119820500D01*
X180282125Y-119820500D01*
X180361500Y-119741125D01*
X180361500Y-119316500D01*
X179886875Y-119316500D01*
X179807500Y-119395875D01*
X175704500Y-119395875D01*
X175704500Y-118939846D01*
X179807500Y-118939846D01*
X179807500Y-119110125D01*
X179886875Y-119189500D01*
X180361500Y-119189500D01*
X180361500Y-118764875D01*
X180282125Y-118685500D01*
X180061845Y-118685500D01*
X179945150Y-118733837D01*
X179855836Y-118823151D01*
X179807500Y-118939846D01*
X175704500Y-118939846D01*
X175704500Y-118681500D01*
X180784500Y-118681500D01*
X180784500Y-118685500D01*
G36*
X185356500Y-120586500D02*
X181629920Y-120586500D01*
X181574210Y-120530790D01*
X181409403Y-120420669D01*
X181215000Y-120382000D01*
X181165500Y-120382000D01*
X181165500Y-120209211D01*
X183410591Y-120209211D01*
X183502685Y-120378985D01*
X183934254Y-120550658D01*
X184398668Y-120544110D01*
X184797315Y-120378985D01*
X184889409Y-120209211D01*
X184150000Y-119469803D01*
X183410591Y-120209211D01*
X181165500Y-120209211D01*
X181165500Y-119820500D01*
X181382125Y-119820500D01*
X181461500Y-119741125D01*
X181461500Y-119316500D01*
X181588500Y-119316500D01*
X181588500Y-119741125D01*
X181667875Y-119820500D01*
X181888155Y-119820500D01*
X182004850Y-119772163D01*
X182094164Y-119682849D01*
X182142500Y-119566154D01*
X182142500Y-119395875D01*
X182063125Y-119316500D01*
X181588500Y-119316500D01*
X181461500Y-119316500D01*
X181441500Y-119316500D01*
X181441500Y-119189500D01*
X181461500Y-119189500D01*
X181461500Y-118764875D01*
X181588500Y-118764875D01*
X181588500Y-119189500D01*
X182063125Y-119189500D01*
X182088371Y-119164254D01*
X182979342Y-119164254D01*
X182985890Y-119628668D01*
X183151015Y-120027315D01*
X183320789Y-120119409D01*
X184060197Y-119380000D01*
X184239803Y-119380000D01*
X184979211Y-120119409D01*
X185148985Y-120027315D01*
X185320658Y-119595746D01*
X185314110Y-119131332D01*
X185148985Y-118732685D01*
X184979211Y-118640591D01*
X184239803Y-119380000D01*
X184060197Y-119380000D01*
X183320789Y-118640591D01*
X183151015Y-118732685D01*
X182979342Y-119164254D01*
X182088371Y-119164254D01*
X182142500Y-119110125D01*
X182142500Y-118939846D01*
X182094164Y-118823151D01*
X182004850Y-118733837D01*
X181888155Y-118685500D01*
X181667875Y-118685500D01*
X181588500Y-118764875D01*
X181461500Y-118764875D01*
X181382125Y-118685500D01*
X181165500Y-118685500D01*
X181165500Y-118550789D01*
X183410591Y-118550789D01*
X184150000Y-119290197D01*
X184889409Y-118550789D01*
X184797315Y-118381015D01*
X184365746Y-118209342D01*
X183901332Y-118215890D01*
X183502685Y-118381015D01*
X183410591Y-118550789D01*
X181165500Y-118550789D01*
X181165500Y-118173500D01*
X185356500Y-118173500D01*
X185356500Y-120586500D01*
X185356500Y-120586500D01*
G37*
X185356500Y-120586500D02*
X181629920Y-120586500D01*
X181574210Y-120530790D01*
X181409403Y-120420669D01*
X181215000Y-120382000D01*
X181165500Y-120382000D01*
X181165500Y-120209211D01*
X183410591Y-120209211D01*
X183502685Y-120378985D01*
X183934254Y-120550658D01*
X184398668Y-120544110D01*
X184797315Y-120378985D01*
X184889409Y-120209211D01*
X184150000Y-119469803D01*
X183410591Y-120209211D01*
X181165500Y-120209211D01*
X181165500Y-119820500D01*
X181382125Y-119820500D01*
X181461500Y-119741125D01*
X181461500Y-119316500D01*
X181588500Y-119316500D01*
X181588500Y-119741125D01*
X181667875Y-119820500D01*
X181888155Y-119820500D01*
X182004850Y-119772163D01*
X182094164Y-119682849D01*
X182142500Y-119566154D01*
X182142500Y-119395875D01*
X182063125Y-119316500D01*
X181588500Y-119316500D01*
X181461500Y-119316500D01*
X181441500Y-119316500D01*
X181441500Y-119189500D01*
X181461500Y-119189500D01*
X181461500Y-118764875D01*
X181588500Y-118764875D01*
X181588500Y-119189500D01*
X182063125Y-119189500D01*
X182088371Y-119164254D01*
X182979342Y-119164254D01*
X182985890Y-119628668D01*
X183151015Y-120027315D01*
X183320789Y-120119409D01*
X184060197Y-119380000D01*
X184239803Y-119380000D01*
X184979211Y-120119409D01*
X185148985Y-120027315D01*
X185320658Y-119595746D01*
X185314110Y-119131332D01*
X185148985Y-118732685D01*
X184979211Y-118640591D01*
X184239803Y-119380000D01*
X184060197Y-119380000D01*
X183320789Y-118640591D01*
X183151015Y-118732685D01*
X182979342Y-119164254D01*
X182088371Y-119164254D01*
X182142500Y-119110125D01*
X182142500Y-118939846D01*
X182094164Y-118823151D01*
X182004850Y-118733837D01*
X181888155Y-118685500D01*
X181667875Y-118685500D01*
X181588500Y-118764875D01*
X181461500Y-118764875D01*
X181382125Y-118685500D01*
X181165500Y-118685500D01*
X181165500Y-118550789D01*
X183410591Y-118550789D01*
X184150000Y-119290197D01*
X184889409Y-118550789D01*
X184797315Y-118381015D01*
X184365746Y-118209342D01*
X183901332Y-118215890D01*
X183502685Y-118381015D01*
X183410591Y-118550789D01*
X181165500Y-118550789D01*
X181165500Y-118173500D01*
X185356500Y-118173500D01*
X185356500Y-120586500D01*
M02*
