G04 #@! TF.FileFunction,Paste,Top*
%FSLAX46Y46*%
G04 Gerber Fmt 4.6, Leading zero omitted, Abs format (unit mm)*
G04 Created by KiCad (PCBNEW 4.0.7) date Monday, October 08, 2018 'PMt' 05:16:59 PM*
%MOMM*%
%LPD*%
G01*
G04 APERTURE LIST*
%ADD10C,0.100000*%
%ADD11R,0.400000X0.600000*%
%ADD12R,0.300000X2.000000*%
%ADD13R,0.800000X1.000000*%
%ADD14R,0.600000X0.500000*%
%ADD15R,0.500000X0.600000*%
%ADD16R,2.500000X3.300000*%
%ADD17R,2.500000X0.950000*%
%ADD18R,1.000000X0.800000*%
G04 APERTURE END LIST*
D10*
D11*
X171254000Y-90805000D03*
X172154000Y-90805000D03*
D12*
X167640000Y-120015000D03*
X166990000Y-120015000D03*
X166340000Y-120015000D03*
X165690000Y-120015000D03*
X165040000Y-120015000D03*
X164390000Y-120015000D03*
X163740000Y-120015000D03*
X163090000Y-120015000D03*
X162440000Y-120015000D03*
X161790000Y-120015000D03*
X161140000Y-120015000D03*
X160490000Y-120015000D03*
X159840000Y-120015000D03*
X159190000Y-120015000D03*
X159190000Y-125615000D03*
X159840000Y-125615000D03*
X160490000Y-125615000D03*
X161140000Y-125615000D03*
X161790000Y-125615000D03*
X162440000Y-125615000D03*
X163090000Y-125615000D03*
X163740000Y-125615000D03*
X164390000Y-125615000D03*
X165040000Y-125615000D03*
X165690000Y-125615000D03*
X166340000Y-125615000D03*
X166990000Y-125615000D03*
X167640000Y-125615000D03*
D13*
X159070000Y-80010000D03*
X160020000Y-77610000D03*
X160970000Y-80010000D03*
D11*
X169106000Y-82550000D03*
X168206000Y-82550000D03*
D14*
X169079000Y-73152000D03*
X167979000Y-73152000D03*
D15*
X168910000Y-125645000D03*
X168910000Y-124545000D03*
D14*
X180425000Y-119253000D03*
X181525000Y-119253000D03*
X174964000Y-127000000D03*
X176064000Y-127000000D03*
D11*
X169106000Y-77470000D03*
X168206000Y-77470000D03*
X171254000Y-75565000D03*
X172154000Y-75565000D03*
X171254000Y-80645000D03*
X172154000Y-80645000D03*
X169106000Y-87630000D03*
X168206000Y-87630000D03*
X171254000Y-85725000D03*
X172154000Y-85725000D03*
X169106000Y-92710000D03*
X168206000Y-92710000D03*
X169106000Y-97790000D03*
X168206000Y-97790000D03*
X171254000Y-95885000D03*
X172154000Y-95885000D03*
X169106000Y-102870000D03*
X168206000Y-102870000D03*
X171254000Y-100965000D03*
X172154000Y-100965000D03*
X169106000Y-107950000D03*
X168206000Y-107950000D03*
X171254000Y-106045000D03*
X172154000Y-106045000D03*
X169106000Y-113030000D03*
X168206000Y-113030000D03*
X171254000Y-111125000D03*
X172154000Y-111125000D03*
X168460000Y-130175000D03*
X169360000Y-130175000D03*
D16*
X172635000Y-123190000D03*
D17*
X178435000Y-123190000D03*
X178435000Y-120890000D03*
X178435000Y-125490000D03*
D13*
X159070000Y-74930000D03*
X160020000Y-72530000D03*
X160970000Y-74930000D03*
X179390000Y-74930000D03*
X180340000Y-72530000D03*
X181290000Y-74930000D03*
X159070000Y-85090000D03*
X160020000Y-82690000D03*
X160970000Y-85090000D03*
X179390000Y-85090000D03*
X180340000Y-82690000D03*
X181290000Y-85090000D03*
X159070000Y-90170000D03*
X160020000Y-87770000D03*
X160970000Y-90170000D03*
X179390000Y-90170000D03*
X180340000Y-87770000D03*
X181290000Y-90170000D03*
X159070000Y-95250000D03*
X160020000Y-92850000D03*
X160970000Y-95250000D03*
X179390000Y-95250000D03*
X180340000Y-92850000D03*
X181290000Y-95250000D03*
X159070000Y-100330000D03*
X160020000Y-97930000D03*
X160970000Y-100330000D03*
X179390000Y-100330000D03*
X180340000Y-97930000D03*
X181290000Y-100330000D03*
X159070000Y-105410000D03*
X160020000Y-103010000D03*
X160970000Y-105410000D03*
X159070000Y-110490000D03*
X160020000Y-108090000D03*
X160970000Y-110490000D03*
X179390000Y-110490000D03*
X180340000Y-108090000D03*
X181290000Y-110490000D03*
D18*
X166370000Y-77150000D03*
X163970000Y-76200000D03*
X166370000Y-75250000D03*
X173990000Y-75250000D03*
X176390000Y-76200000D03*
X173990000Y-77150000D03*
X166370000Y-82230000D03*
X163970000Y-81280000D03*
X166370000Y-80330000D03*
X173990000Y-80330000D03*
X176390000Y-81280000D03*
X173990000Y-82230000D03*
X166370000Y-87310000D03*
X163970000Y-86360000D03*
X166370000Y-85410000D03*
X173990000Y-85410000D03*
X176390000Y-86360000D03*
X173990000Y-87310000D03*
X166370000Y-92390000D03*
X163970000Y-91440000D03*
X166370000Y-90490000D03*
X173990000Y-90490000D03*
X176390000Y-91440000D03*
X173990000Y-92390000D03*
X166370000Y-97470000D03*
X163970000Y-96520000D03*
X166370000Y-95570000D03*
X173990000Y-95570000D03*
X176390000Y-96520000D03*
X173990000Y-97470000D03*
X166370000Y-102550000D03*
X163970000Y-101600000D03*
X166370000Y-100650000D03*
X173990000Y-100650000D03*
X176390000Y-101600000D03*
X173990000Y-102550000D03*
X166370000Y-107630000D03*
X163970000Y-106680000D03*
X166370000Y-105730000D03*
X173990000Y-105730000D03*
X176390000Y-106680000D03*
X173990000Y-107630000D03*
X166370000Y-112710000D03*
X163970000Y-111760000D03*
X166370000Y-110810000D03*
X173990000Y-110810000D03*
X176390000Y-111760000D03*
X173990000Y-112710000D03*
D14*
X162094000Y-130175000D03*
X160994000Y-130175000D03*
D13*
X179390000Y-80010000D03*
X180340000Y-77610000D03*
X181290000Y-80010000D03*
D14*
X172170000Y-130175000D03*
X173270000Y-130175000D03*
X182160000Y-130175000D03*
X181060000Y-130175000D03*
X175980000Y-130175000D03*
X177080000Y-130175000D03*
X171408000Y-114427000D03*
X172508000Y-114427000D03*
D13*
X179390000Y-105410000D03*
X180340000Y-103010000D03*
X181290000Y-105410000D03*
D11*
X165550000Y-130175000D03*
X164650000Y-130175000D03*
D15*
X168910000Y-95165000D03*
X168910000Y-94065000D03*
M02*
