%TF.GenerationSoftware,KiCad,Pcbnew,(6.0.7-1)-1*%
%TF.CreationDate,2022-09-02T18:16:08-04:00*%
%TF.ProjectId,power_mini_evolver,706f7765-725f-46d6-996e-695f65766f6c,rev?*%
%TF.SameCoordinates,Original*%
%TF.FileFunction,Soldermask,Bot*%
%TF.FilePolarity,Negative*%
%FSLAX46Y46*%
G04 Gerber Fmt 4.6, Leading zero omitted, Abs format (unit mm)*
G04 Created by KiCad (PCBNEW (6.0.7-1)-1) date 2022-09-02 18:16:08*
%MOMM*%
%LPD*%
G01*
G04 APERTURE LIST*
%ADD10C,1.800000*%
%ADD11C,1.397000*%
%ADD12C,1.000000*%
%ADD13C,4.500000*%
%ADD14C,1.750000*%
%ADD15C,1.524000*%
%ADD16C,5.600000*%
G04 APERTURE END LIST*
D10*
%TO.C,JP2*%
X167386000Y-81280000D03*
X169926000Y-81280000D03*
X172466000Y-81280000D03*
%TD*%
D11*
%TO.C,P1*%
X200152000Y-83058000D03*
X200152000Y-85598000D03*
X200152000Y-88138000D03*
X200152000Y-90678000D03*
X200152000Y-93218000D03*
X200152000Y-95758000D03*
X200152000Y-98298000D03*
X200152000Y-103378000D03*
X200152000Y-105918000D03*
X200152000Y-108458000D03*
X200152000Y-110998000D03*
X200152000Y-100838000D03*
X184912000Y-100838000D03*
X184912000Y-110998000D03*
X184912000Y-108458000D03*
X184912000Y-105918000D03*
X184912000Y-103378000D03*
X184912000Y-98298000D03*
X184912000Y-95758000D03*
X184912000Y-93218000D03*
X184912000Y-90678000D03*
X184912000Y-88138000D03*
X184912000Y-85598000D03*
X184912000Y-83058000D03*
%TD*%
D12*
%TO.C,C15*%
X204292200Y-100959600D03*
X204292200Y-103459600D03*
%TD*%
D13*
%TO.C,CON1*%
X95884000Y-85852000D03*
X100584000Y-82852000D03*
X100584000Y-88852000D03*
%TD*%
D10*
%TO.C,JP1*%
X176276000Y-81280000D03*
X178816000Y-81280000D03*
X181356000Y-81280000D03*
%TD*%
D14*
%TO.C,P5*%
X124510800Y-104394000D03*
X124510800Y-106934000D03*
%TD*%
%TO.C,P6*%
X152831800Y-104749600D03*
X152831800Y-107289600D03*
%TD*%
D15*
%TO.C,P2*%
X128524000Y-107950000D03*
X128524000Y-105410000D03*
X131064000Y-107950000D03*
X131064000Y-105410000D03*
X133604000Y-107950000D03*
X133604000Y-105410000D03*
X136144000Y-107950000D03*
X136144000Y-105410000D03*
X138684000Y-107950000D03*
X138684000Y-105410000D03*
X141224000Y-107950000D03*
X141224000Y-105410000D03*
X143764000Y-107950000D03*
X143764000Y-105410000D03*
X146304000Y-107950000D03*
X146304000Y-105410000D03*
%TD*%
%TO.C,P3*%
X175895000Y-105410000D03*
X175895000Y-107950000D03*
X173355000Y-105410000D03*
X173355000Y-107950000D03*
X170815000Y-105410000D03*
X170815000Y-107950000D03*
X168275000Y-105410000D03*
X168275000Y-107950000D03*
X165735000Y-105410000D03*
X165735000Y-107950000D03*
X163195000Y-105410000D03*
X163195000Y-107950000D03*
X160655000Y-105410000D03*
X160655000Y-107950000D03*
X158115000Y-105410000D03*
X158115000Y-107950000D03*
%TD*%
%TO.C,P4*%
X99060000Y-107950000D03*
X99060000Y-105410000D03*
X101600000Y-107950000D03*
X101600000Y-105410000D03*
X104140000Y-107950000D03*
X104140000Y-105410000D03*
X106680000Y-107950000D03*
X106680000Y-105410000D03*
X109220000Y-107950000D03*
X109220000Y-105410000D03*
X111760000Y-107950000D03*
X111760000Y-105410000D03*
X114300000Y-107950000D03*
X114300000Y-105410000D03*
X116840000Y-107950000D03*
X116840000Y-105410000D03*
%TD*%
D16*
%TO.C,H1*%
X88900000Y-108585000D03*
%TD*%
%TO.C,H2*%
X88900000Y-82550000D03*
%TD*%
%TO.C,H3*%
X206375000Y-82550000D03*
%TD*%
%TO.C,H4*%
X206375000Y-108585000D03*
%TD*%
D14*
%TO.C,P7*%
X87579200Y-89611200D03*
X87579200Y-92151200D03*
%TD*%
M02*
