M48
; DRILL file {KiCad (6.0.7-1)-1} date Friday, September 02, 2022 at 06:13:45 PM
; FORMAT={-:-/ absolute / metric / decimal}
; #@! TF.CreationDate,2022-09-02T18:13:45-04:00
; #@! TF.GenerationSoftware,Kicad,Pcbnew,(6.0.7-1)-1
; #@! TF.FileFunction,Plated,1,4,PTH
FMAT,2
METRIC
; #@! TA.AperFunction,Plated,PTH,ViaDrill
T1C0.400
; #@! TA.AperFunction,Plated,PTH,ViaDrill
T2C0.508
; #@! TA.AperFunction,Plated,PTH,ComponentDrill
T3C0.600
; #@! TA.AperFunction,Plated,PTH,ViaDrill
T4C0.762
; #@! TA.AperFunction,Plated,PTH,ComponentDrill
T5C0.813
; #@! TA.AperFunction,Plated,PTH,ComponentDrill
T6C1.000
; #@! TA.AperFunction,Plated,PTH,ComponentDrill
T7C1.016
; #@! TA.AperFunction,Plated,PTH,ComponentDrill
T8C1.300
; #@! TA.AperFunction,Plated,PTH,ComponentDrill
T9C3.050
; #@! TA.AperFunction,Plated,PTH,ComponentDrill
T10C3.200
%
G90
G05
T1
X93.726Y-98.552
X95.047Y-92.608
X98.044Y-98.552
X99.416Y-92.05
X102.362Y-98.552
X103.835Y-90.983
X106.68Y-98.552
X108.001Y-90.475
X110.998Y-98.552
X112.37Y-89.967
X115.316Y-98.679
X116.688Y-89.459
X129.964Y-80.721
X133.502Y-93.472
X135.077Y-83.845
X137.132Y-99.187
X137.592Y-96.063
X138.582Y-93.472
X139.903Y-102.083
X142.418Y-100.838
X143.459Y-93.472
X145.034Y-101.752
X146.202Y-85.446
X148.082Y-84.682
X148.082Y-90.633
X155.575Y-105.048
X156.464Y-98.933
X158.75Y-81.28
X159.461Y-99.009
X160.909Y-103.886
X162.154Y-97.358
X163.195Y-82.626
X163.982Y-99.009
X164.846Y-86.131
X165.456Y-100.113
X166.243Y-94.996
X166.624Y-90.633
X166.98Y-104.14
X167.169Y-98.933
X167.894Y-95.301
X168.656Y-96.393
X169.672Y-101.905
X169.926Y-98.932
X172.339Y-96.266
X173.736Y-88.697
X173.99Y-101.905
X174.066Y-91.389
X174.498Y-81.788
X176.403Y-94.488
X177.19Y-99.111
X178.103Y-83.828
X178.943Y-96.057
X181.102Y-95.25
X182.372Y-86.614
X182.372Y-88.519
X183.134Y-82.296
X187.35Y-89.408
T2
X89.408Y-100.94
X89.459Y-96.063
X92.202Y-95.504
X96.52Y-95.504
X100.838Y-95.504
X105.156Y-95.504
X109.474Y-95.504
X113.792Y-95.504
X119.228Y-95.707
X119.228Y-100.635
X119.888Y-84.836
X132.842Y-84.836
X134.112Y-80.264
X134.874Y-98.882
X170.18Y-83.82
X174.447Y-98.977
T3
X204.292Y-100.96
X204.292Y-103.46
T4
X105.664Y-81.026
X105.664Y-84.836
X105.664Y-88.9
X117.856Y-80.518
X118.364Y-88.563
X123.698Y-81.28
X123.698Y-88.392
X126.746Y-81.28
X126.746Y-84.836
X126.746Y-88.392
X130.048Y-88.563
X149.606Y-101.803
X149.606Y-103.327
X149.606Y-104.902
T5
X184.912Y-83.058
X184.912Y-85.598
X184.912Y-88.138
X184.912Y-90.678
X184.912Y-93.218
X184.912Y-95.758
X184.912Y-98.298
X184.912Y-100.838
X184.912Y-103.378
X184.912Y-105.918
X184.912Y-108.458
X184.912Y-110.998
X200.152Y-83.058
X200.152Y-85.598
X200.152Y-88.138
X200.152Y-90.678
X200.152Y-93.218
X200.152Y-95.758
X200.152Y-98.298
X200.152Y-100.838
X200.152Y-103.378
X200.152Y-105.918
X200.152Y-108.458
X200.152Y-110.998
T6
X167.386Y-81.28
X169.926Y-81.28
X172.466Y-81.28
X176.276Y-81.28
X178.816Y-81.28
X181.356Y-81.28
T7
X99.06Y-105.41
X99.06Y-107.95
X101.6Y-105.41
X101.6Y-107.95
X104.14Y-105.41
X104.14Y-107.95
X106.68Y-105.41
X106.68Y-107.95
X109.22Y-105.41
X109.22Y-107.95
X111.76Y-105.41
X111.76Y-107.95
X114.3Y-105.41
X114.3Y-107.95
X116.84Y-105.41
X116.84Y-107.95
X128.524Y-105.41
X128.524Y-107.95
X131.064Y-105.41
X131.064Y-107.95
X133.604Y-105.41
X133.604Y-107.95
X136.144Y-105.41
X136.144Y-107.95
X138.684Y-105.41
X138.684Y-107.95
X141.224Y-105.41
X141.224Y-107.95
X143.764Y-105.41
X143.764Y-107.95
X146.304Y-105.41
X146.304Y-107.95
X158.115Y-105.41
X158.115Y-107.95
X160.655Y-105.41
X160.655Y-107.95
X163.195Y-105.41
X163.195Y-107.95
X165.735Y-105.41
X165.735Y-107.95
X168.275Y-105.41
X168.275Y-107.95
X170.815Y-105.41
X170.815Y-107.95
X173.355Y-105.41
X173.355Y-107.95
X175.895Y-105.41
X175.895Y-107.95
T8
X87.579Y-89.611
X87.579Y-92.151
X124.511Y-104.394
X124.511Y-106.934
X152.832Y-104.75
X152.832Y-107.29
T9
X95.884Y-85.852
X100.584Y-82.852
X100.584Y-88.852
T10
X88.9Y-82.55
X88.9Y-108.585
X206.375Y-82.55
X206.375Y-108.585
T0
M30
