%TF.GenerationSoftware,KiCad,Pcbnew,(6.0.7-1)-1*%
%TF.CreationDate,2022-09-02T18:16:08-04:00*%
%TF.ProjectId,power_mini_evolver,706f7765-725f-46d6-996e-695f65766f6c,rev?*%
%TF.SameCoordinates,Original*%
%TF.FileFunction,Legend,Top*%
%TF.FilePolarity,Positive*%
%FSLAX46Y46*%
G04 Gerber Fmt 4.6, Leading zero omitted, Abs format (unit mm)*
G04 Created by KiCad (PCBNEW (6.0.7-1)-1) date 2022-09-02 18:16:08*
%MOMM*%
%LPD*%
G01*
G04 APERTURE LIST*
%ADD10C,0.150000*%
%ADD11C,0.063500*%
%ADD12C,0.254000*%
%ADD13C,0.177800*%
%ADD14C,0.215900*%
%ADD15C,0.120000*%
%ADD16C,1.397000*%
%ADD17C,1.000000*%
%ADD18C,4.500000*%
%ADD19C,1.750000*%
%ADD20C,1.524000*%
G04 APERTURE END LIST*
D10*
X138148038Y-81298580D02*
X138148038Y-80631914D01*
X138148038Y-80727152D02*
X138195657Y-80679533D01*
X138290895Y-80631914D01*
X138433752Y-80631914D01*
X138528990Y-80679533D01*
X138576609Y-80774771D01*
X138576609Y-81298580D01*
X138576609Y-80774771D02*
X138624228Y-80679533D01*
X138719466Y-80631914D01*
X138862323Y-80631914D01*
X138957561Y-80679533D01*
X139005180Y-80774771D01*
X139005180Y-81298580D01*
X139481371Y-81298580D02*
X139481371Y-80631914D01*
X139481371Y-80298580D02*
X139433752Y-80346200D01*
X139481371Y-80393819D01*
X139528990Y-80346200D01*
X139481371Y-80298580D01*
X139481371Y-80393819D01*
X139957561Y-80631914D02*
X139957561Y-81298580D01*
X139957561Y-80727152D02*
X140005180Y-80679533D01*
X140100419Y-80631914D01*
X140243276Y-80631914D01*
X140338514Y-80679533D01*
X140386133Y-80774771D01*
X140386133Y-81298580D01*
X140862323Y-80917628D02*
X141624228Y-80917628D01*
X142481371Y-81250961D02*
X142386133Y-81298580D01*
X142195657Y-81298580D01*
X142100419Y-81250961D01*
X142052800Y-81155723D01*
X142052800Y-80774771D01*
X142100419Y-80679533D01*
X142195657Y-80631914D01*
X142386133Y-80631914D01*
X142481371Y-80679533D01*
X142528990Y-80774771D01*
X142528990Y-80870009D01*
X142052800Y-80965247D01*
X142814704Y-80298580D02*
X143148038Y-81298580D01*
X143481371Y-80298580D01*
X144005180Y-80298580D02*
X144195657Y-80298580D01*
X144290895Y-80346200D01*
X144386133Y-80441438D01*
X144433752Y-80631914D01*
X144433752Y-80965247D01*
X144386133Y-81155723D01*
X144290895Y-81250961D01*
X144195657Y-81298580D01*
X144005180Y-81298580D01*
X143909942Y-81250961D01*
X143814704Y-81155723D01*
X143767085Y-80965247D01*
X143767085Y-80631914D01*
X143814704Y-80441438D01*
X143909942Y-80346200D01*
X144005180Y-80298580D01*
X145338514Y-81298580D02*
X144862323Y-81298580D01*
X144862323Y-80298580D01*
X145528990Y-80298580D02*
X145862323Y-81298580D01*
X146195657Y-80298580D01*
X146528990Y-80774771D02*
X146862323Y-80774771D01*
X147005180Y-81298580D02*
X146528990Y-81298580D01*
X146528990Y-80298580D01*
X147005180Y-80298580D01*
X148005180Y-81298580D02*
X147671847Y-80822390D01*
X147433752Y-81298580D02*
X147433752Y-80298580D01*
X147814704Y-80298580D01*
X147909942Y-80346200D01*
X147957561Y-80393819D01*
X148005180Y-80489057D01*
X148005180Y-80631914D01*
X147957561Y-80727152D01*
X147909942Y-80774771D01*
X147814704Y-80822390D01*
X147433752Y-80822390D01*
X141528990Y-81908580D02*
X141862323Y-82908580D01*
X142195657Y-81908580D01*
X143052800Y-82908580D02*
X142481371Y-82908580D01*
X142767085Y-82908580D02*
X142767085Y-81908580D01*
X142671847Y-82051438D01*
X142576609Y-82146676D01*
X142481371Y-82194295D01*
X143481371Y-82813342D02*
X143528990Y-82860961D01*
X143481371Y-82908580D01*
X143433752Y-82860961D01*
X143481371Y-82813342D01*
X143481371Y-82908580D01*
X144148038Y-81908580D02*
X144243276Y-81908580D01*
X144338514Y-81956200D01*
X144386133Y-82003819D01*
X144433752Y-82099057D01*
X144481371Y-82289533D01*
X144481371Y-82527628D01*
X144433752Y-82718104D01*
X144386133Y-82813342D01*
X144338514Y-82860961D01*
X144243276Y-82908580D01*
X144148038Y-82908580D01*
X144052800Y-82860961D01*
X144005180Y-82813342D01*
X143957561Y-82718104D01*
X143909942Y-82527628D01*
X143909942Y-82289533D01*
X143957561Y-82099057D01*
X144005180Y-82003819D01*
X144052800Y-81956200D01*
X144148038Y-81908580D01*
X140052800Y-83518580D02*
X140719466Y-83518580D01*
X140052800Y-84518580D01*
X140719466Y-84518580D01*
X141100419Y-84423342D02*
X141148038Y-84470961D01*
X141100419Y-84518580D01*
X141052800Y-84470961D01*
X141100419Y-84423342D01*
X141100419Y-84518580D01*
X142338514Y-84518580D02*
X142338514Y-83518580D01*
X142338514Y-83994771D02*
X142909942Y-83994771D01*
X142909942Y-84518580D02*
X142909942Y-83518580D01*
X143767085Y-84470961D02*
X143671847Y-84518580D01*
X143481371Y-84518580D01*
X143386133Y-84470961D01*
X143338514Y-84375723D01*
X143338514Y-83994771D01*
X143386133Y-83899533D01*
X143481371Y-83851914D01*
X143671847Y-83851914D01*
X143767085Y-83899533D01*
X143814704Y-83994771D01*
X143814704Y-84090009D01*
X143338514Y-84185247D01*
X144243276Y-84518580D02*
X144243276Y-83851914D01*
X144243276Y-83518580D02*
X144195657Y-83566200D01*
X144243276Y-83613819D01*
X144290895Y-83566200D01*
X144243276Y-83518580D01*
X144243276Y-83613819D01*
X144719466Y-83851914D02*
X144719466Y-84518580D01*
X144719466Y-83947152D02*
X144767085Y-83899533D01*
X144862323Y-83851914D01*
X145005180Y-83851914D01*
X145100419Y-83899533D01*
X145148038Y-83994771D01*
X145148038Y-84518580D01*
X145576609Y-84470961D02*
X145671847Y-84518580D01*
X145862323Y-84518580D01*
X145957561Y-84470961D01*
X146005180Y-84375723D01*
X146005180Y-84328104D01*
X145957561Y-84232866D01*
X145862323Y-84185247D01*
X145719466Y-84185247D01*
X145624228Y-84137628D01*
X145576609Y-84042390D01*
X145576609Y-83994771D01*
X145624228Y-83899533D01*
X145719466Y-83851914D01*
X145862323Y-83851914D01*
X145957561Y-83899533D01*
X139433752Y-86128580D02*
X139433752Y-85128580D01*
X140005180Y-86128580D02*
X139576609Y-85557152D01*
X140005180Y-85128580D02*
X139433752Y-85700009D01*
X140433752Y-86128580D02*
X140433752Y-85128580D01*
X140862323Y-86128580D02*
X140862323Y-85604771D01*
X140814704Y-85509533D01*
X140719466Y-85461914D01*
X140576609Y-85461914D01*
X140481371Y-85509533D01*
X140433752Y-85557152D01*
X141767085Y-86128580D02*
X141767085Y-85604771D01*
X141719466Y-85509533D01*
X141624228Y-85461914D01*
X141433752Y-85461914D01*
X141338514Y-85509533D01*
X141767085Y-86080961D02*
X141671847Y-86128580D01*
X141433752Y-86128580D01*
X141338514Y-86080961D01*
X141290895Y-85985723D01*
X141290895Y-85890485D01*
X141338514Y-85795247D01*
X141433752Y-85747628D01*
X141671847Y-85747628D01*
X141767085Y-85700009D01*
X142386133Y-86128580D02*
X142290895Y-86080961D01*
X142243276Y-85985723D01*
X142243276Y-85128580D01*
X142767085Y-86128580D02*
X142767085Y-85461914D01*
X142767085Y-85128580D02*
X142719466Y-85176200D01*
X142767085Y-85223819D01*
X142814704Y-85176200D01*
X142767085Y-85128580D01*
X142767085Y-85223819D01*
X143386133Y-86128580D02*
X143290895Y-86080961D01*
X143243276Y-85985723D01*
X143243276Y-85128580D01*
X145005180Y-86128580D02*
X144528990Y-86128580D01*
X144528990Y-85128580D01*
X145767085Y-86128580D02*
X145767085Y-85604771D01*
X145719466Y-85509533D01*
X145624228Y-85461914D01*
X145433752Y-85461914D01*
X145338514Y-85509533D01*
X145767085Y-86080961D02*
X145671847Y-86128580D01*
X145433752Y-86128580D01*
X145338514Y-86080961D01*
X145290895Y-85985723D01*
X145290895Y-85890485D01*
X145338514Y-85795247D01*
X145433752Y-85747628D01*
X145671847Y-85747628D01*
X145767085Y-85700009D01*
X146243276Y-86128580D02*
X146243276Y-85128580D01*
X146243276Y-85509533D02*
X146338514Y-85461914D01*
X146528990Y-85461914D01*
X146624228Y-85509533D01*
X146671847Y-85557152D01*
X146719466Y-85652390D01*
X146719466Y-85938104D01*
X146671847Y-86033342D01*
X146624228Y-86080961D01*
X146528990Y-86128580D01*
X146338514Y-86128580D01*
X146243276Y-86080961D01*
D11*
X87192152Y-93776800D02*
X87143771Y-93752609D01*
X87071200Y-93752609D01*
X86998628Y-93776800D01*
X86950247Y-93825180D01*
X86926057Y-93873561D01*
X86901866Y-93970323D01*
X86901866Y-94042895D01*
X86926057Y-94139657D01*
X86950247Y-94188038D01*
X86998628Y-94236419D01*
X87071200Y-94260609D01*
X87119580Y-94260609D01*
X87192152Y-94236419D01*
X87216342Y-94212228D01*
X87216342Y-94042895D01*
X87119580Y-94042895D01*
X87434057Y-94260609D02*
X87434057Y-93752609D01*
X87724342Y-94260609D01*
X87724342Y-93752609D01*
X87966247Y-94260609D02*
X87966247Y-93752609D01*
X88087200Y-93752609D01*
X88159771Y-93776800D01*
X88208152Y-93825180D01*
X88232342Y-93873561D01*
X88256533Y-93970323D01*
X88256533Y-94042895D01*
X88232342Y-94139657D01*
X88208152Y-94188038D01*
X88159771Y-94236419D01*
X88087200Y-94260609D01*
X87966247Y-94260609D01*
X86557152Y-87767885D02*
X86944200Y-87767885D01*
X86750676Y-87961409D02*
X86750676Y-87574361D01*
X87452200Y-87961409D02*
X87161914Y-87961409D01*
X87307057Y-87961409D02*
X87307057Y-87453409D01*
X87258676Y-87525980D01*
X87210295Y-87574361D01*
X87161914Y-87598552D01*
X87645723Y-87501790D02*
X87669914Y-87477600D01*
X87718295Y-87453409D01*
X87839247Y-87453409D01*
X87887628Y-87477600D01*
X87911819Y-87501790D01*
X87936009Y-87550171D01*
X87936009Y-87598552D01*
X87911819Y-87671123D01*
X87621533Y-87961409D01*
X87936009Y-87961409D01*
X88081152Y-87453409D02*
X88250485Y-87961409D01*
X88419819Y-87453409D01*
D12*
X161342009Y-80114019D02*
X161535533Y-80114019D01*
X161632295Y-80162400D01*
X161729057Y-80259161D01*
X161777438Y-80452685D01*
X161777438Y-80791352D01*
X161729057Y-80984876D01*
X161632295Y-81081638D01*
X161535533Y-81130019D01*
X161342009Y-81130019D01*
X161245247Y-81081638D01*
X161148485Y-80984876D01*
X161100104Y-80791352D01*
X161100104Y-80452685D01*
X161148485Y-80259161D01*
X161245247Y-80162400D01*
X161342009Y-80114019D01*
X162212866Y-81130019D02*
X162212866Y-80114019D01*
X162454771Y-80114019D01*
X162599914Y-80162400D01*
X162696676Y-80259161D01*
X162745057Y-80355923D01*
X162793438Y-80549447D01*
X162793438Y-80694590D01*
X162745057Y-80888114D01*
X162696676Y-80984876D01*
X162599914Y-81081638D01*
X162454771Y-81130019D01*
X162212866Y-81130019D01*
X163761057Y-81130019D02*
X163180485Y-81130019D01*
X163470771Y-81130019D02*
X163470771Y-80114019D01*
X163374009Y-80259161D01*
X163277247Y-80355923D01*
X163180485Y-80404304D01*
X164099723Y-80114019D02*
X164728676Y-80114019D01*
X164390009Y-80501066D01*
X164535152Y-80501066D01*
X164631914Y-80549447D01*
X164680295Y-80597828D01*
X164728676Y-80694590D01*
X164728676Y-80936495D01*
X164680295Y-81033257D01*
X164631914Y-81081638D01*
X164535152Y-81130019D01*
X164244866Y-81130019D01*
X164148104Y-81081638D01*
X164099723Y-81033257D01*
X165647914Y-80114019D02*
X165164104Y-80114019D01*
X165115723Y-80597828D01*
X165164104Y-80549447D01*
X165260866Y-80501066D01*
X165502771Y-80501066D01*
X165599533Y-80549447D01*
X165647914Y-80597828D01*
X165696295Y-80694590D01*
X165696295Y-80936495D01*
X165647914Y-81033257D01*
X165599533Y-81081638D01*
X165502771Y-81130019D01*
X165260866Y-81130019D01*
X165164104Y-81081638D01*
X165115723Y-81033257D01*
X183212619Y-80088619D02*
X183406142Y-80088619D01*
X183502904Y-80137000D01*
X183599666Y-80233761D01*
X183648047Y-80427285D01*
X183648047Y-80765952D01*
X183599666Y-80959476D01*
X183502904Y-81056238D01*
X183406142Y-81104619D01*
X183212619Y-81104619D01*
X183115857Y-81056238D01*
X183019095Y-80959476D01*
X182970714Y-80765952D01*
X182970714Y-80427285D01*
X183019095Y-80233761D01*
X183115857Y-80137000D01*
X183212619Y-80088619D01*
X184083476Y-81104619D02*
X184083476Y-80088619D01*
X184325380Y-80088619D01*
X184470523Y-80137000D01*
X184567285Y-80233761D01*
X184615666Y-80330523D01*
X184664047Y-80524047D01*
X184664047Y-80669190D01*
X184615666Y-80862714D01*
X184567285Y-80959476D01*
X184470523Y-81056238D01*
X184325380Y-81104619D01*
X184083476Y-81104619D01*
X185147857Y-81104619D02*
X185341380Y-81104619D01*
X185438142Y-81056238D01*
X185486523Y-81007857D01*
X185583285Y-80862714D01*
X185631666Y-80669190D01*
X185631666Y-80282142D01*
X185583285Y-80185380D01*
X185534904Y-80137000D01*
X185438142Y-80088619D01*
X185244619Y-80088619D01*
X185147857Y-80137000D01*
X185099476Y-80185380D01*
X185051095Y-80282142D01*
X185051095Y-80524047D01*
X185099476Y-80620809D01*
X185147857Y-80669190D01*
X185244619Y-80717571D01*
X185438142Y-80717571D01*
X185534904Y-80669190D01*
X185583285Y-80620809D01*
X185631666Y-80524047D01*
X186260619Y-80088619D02*
X186357380Y-80088619D01*
X186454142Y-80137000D01*
X186502523Y-80185380D01*
X186550904Y-80282142D01*
X186599285Y-80475666D01*
X186599285Y-80717571D01*
X186550904Y-80911095D01*
X186502523Y-81007857D01*
X186454142Y-81056238D01*
X186357380Y-81104619D01*
X186260619Y-81104619D01*
X186163857Y-81056238D01*
X186115476Y-81007857D01*
X186067095Y-80911095D01*
X186018714Y-80717571D01*
X186018714Y-80475666D01*
X186067095Y-80282142D01*
X186115476Y-80185380D01*
X186163857Y-80137000D01*
X186260619Y-80088619D01*
D10*
X150977647Y-106192628D02*
X151739552Y-106192628D01*
X151358600Y-106573580D02*
X151358600Y-105811676D01*
X150926847Y-103627228D02*
X151688752Y-103627228D01*
X122478847Y-105989428D02*
X123240752Y-105989428D01*
X122859800Y-106370380D02*
X122859800Y-105608476D01*
X122428047Y-103424028D02*
X123189952Y-103424028D01*
%TO.C,JP2*%
X169092666Y-77557380D02*
X169092666Y-78271666D01*
X169045047Y-78414523D01*
X168949809Y-78509761D01*
X168806952Y-78557380D01*
X168711714Y-78557380D01*
X169568857Y-78557380D02*
X169568857Y-77557380D01*
X169949809Y-77557380D01*
X170045047Y-77605000D01*
X170092666Y-77652619D01*
X170140285Y-77747857D01*
X170140285Y-77890714D01*
X170092666Y-77985952D01*
X170045047Y-78033571D01*
X169949809Y-78081190D01*
X169568857Y-78081190D01*
X170521238Y-77652619D02*
X170568857Y-77605000D01*
X170664095Y-77557380D01*
X170902190Y-77557380D01*
X170997428Y-77605000D01*
X171045047Y-77652619D01*
X171092666Y-77747857D01*
X171092666Y-77843095D01*
X171045047Y-77985952D01*
X170473619Y-78557380D01*
X171092666Y-78557380D01*
%TO.C,Q10*%
X110426571Y-93156019D02*
X110331333Y-93108400D01*
X110236095Y-93013161D01*
X110093238Y-92870304D01*
X109998000Y-92822685D01*
X109902761Y-92822685D01*
X109950380Y-93060780D02*
X109855142Y-93013161D01*
X109759904Y-92917923D01*
X109712285Y-92727447D01*
X109712285Y-92394114D01*
X109759904Y-92203638D01*
X109855142Y-92108400D01*
X109950380Y-92060780D01*
X110140857Y-92060780D01*
X110236095Y-92108400D01*
X110331333Y-92203638D01*
X110378952Y-92394114D01*
X110378952Y-92727447D01*
X110331333Y-92917923D01*
X110236095Y-93013161D01*
X110140857Y-93060780D01*
X109950380Y-93060780D01*
X111331333Y-93060780D02*
X110759904Y-93060780D01*
X111045619Y-93060780D02*
X111045619Y-92060780D01*
X110950380Y-92203638D01*
X110855142Y-92298876D01*
X110759904Y-92346495D01*
X111950380Y-92060780D02*
X112045619Y-92060780D01*
X112140857Y-92108400D01*
X112188476Y-92156019D01*
X112236095Y-92251257D01*
X112283714Y-92441733D01*
X112283714Y-92679828D01*
X112236095Y-92870304D01*
X112188476Y-92965542D01*
X112140857Y-93013161D01*
X112045619Y-93060780D01*
X111950380Y-93060780D01*
X111855142Y-93013161D01*
X111807523Y-92965542D01*
X111759904Y-92870304D01*
X111712285Y-92679828D01*
X111712285Y-92441733D01*
X111759904Y-92251257D01*
X111807523Y-92156019D01*
X111855142Y-92108400D01*
X111950380Y-92060780D01*
%TO.C,R14*%
X159583380Y-89034857D02*
X159107190Y-89368190D01*
X159583380Y-89606285D02*
X158583380Y-89606285D01*
X158583380Y-89225333D01*
X158631000Y-89130095D01*
X158678619Y-89082476D01*
X158773857Y-89034857D01*
X158916714Y-89034857D01*
X159011952Y-89082476D01*
X159059571Y-89130095D01*
X159107190Y-89225333D01*
X159107190Y-89606285D01*
X159583380Y-88082476D02*
X159583380Y-88653904D01*
X159583380Y-88368190D02*
X158583380Y-88368190D01*
X158726238Y-88463428D01*
X158821476Y-88558666D01*
X158869095Y-88653904D01*
X158916714Y-87225333D02*
X159583380Y-87225333D01*
X158535761Y-87463428D02*
X159250047Y-87701523D01*
X159250047Y-87082476D01*
%TO.C,R13*%
X164028380Y-89034857D02*
X163552190Y-89368190D01*
X164028380Y-89606285D02*
X163028380Y-89606285D01*
X163028380Y-89225333D01*
X163076000Y-89130095D01*
X163123619Y-89082476D01*
X163218857Y-89034857D01*
X163361714Y-89034857D01*
X163456952Y-89082476D01*
X163504571Y-89130095D01*
X163552190Y-89225333D01*
X163552190Y-89606285D01*
X164028380Y-88082476D02*
X164028380Y-88653904D01*
X164028380Y-88368190D02*
X163028380Y-88368190D01*
X163171238Y-88463428D01*
X163266476Y-88558666D01*
X163314095Y-88653904D01*
X163028380Y-87749142D02*
X163028380Y-87130095D01*
X163409333Y-87463428D01*
X163409333Y-87320571D01*
X163456952Y-87225333D01*
X163504571Y-87177714D01*
X163599809Y-87130095D01*
X163837904Y-87130095D01*
X163933142Y-87177714D01*
X163980761Y-87225333D01*
X164028380Y-87320571D01*
X164028380Y-87606285D01*
X163980761Y-87701523D01*
X163933142Y-87749142D01*
%TO.C,R12*%
X162504380Y-89034857D02*
X162028190Y-89368190D01*
X162504380Y-89606285D02*
X161504380Y-89606285D01*
X161504380Y-89225333D01*
X161552000Y-89130095D01*
X161599619Y-89082476D01*
X161694857Y-89034857D01*
X161837714Y-89034857D01*
X161932952Y-89082476D01*
X161980571Y-89130095D01*
X162028190Y-89225333D01*
X162028190Y-89606285D01*
X162504380Y-88082476D02*
X162504380Y-88653904D01*
X162504380Y-88368190D02*
X161504380Y-88368190D01*
X161647238Y-88463428D01*
X161742476Y-88558666D01*
X161790095Y-88653904D01*
X161599619Y-87701523D02*
X161552000Y-87653904D01*
X161504380Y-87558666D01*
X161504380Y-87320571D01*
X161552000Y-87225333D01*
X161599619Y-87177714D01*
X161694857Y-87130095D01*
X161790095Y-87130095D01*
X161932952Y-87177714D01*
X162504380Y-87749142D01*
X162504380Y-87130095D01*
%TO.C,R11*%
X161107380Y-89034857D02*
X160631190Y-89368190D01*
X161107380Y-89606285D02*
X160107380Y-89606285D01*
X160107380Y-89225333D01*
X160155000Y-89130095D01*
X160202619Y-89082476D01*
X160297857Y-89034857D01*
X160440714Y-89034857D01*
X160535952Y-89082476D01*
X160583571Y-89130095D01*
X160631190Y-89225333D01*
X160631190Y-89606285D01*
X161107380Y-88082476D02*
X161107380Y-88653904D01*
X161107380Y-88368190D02*
X160107380Y-88368190D01*
X160250238Y-88463428D01*
X160345476Y-88558666D01*
X160393095Y-88653904D01*
X161107380Y-87130095D02*
X161107380Y-87701523D01*
X161107380Y-87415809D02*
X160107380Y-87415809D01*
X160250238Y-87511047D01*
X160345476Y-87606285D01*
X160393095Y-87701523D01*
%TO.C,R10*%
X163647380Y-93733857D02*
X163171190Y-94067190D01*
X163647380Y-94305285D02*
X162647380Y-94305285D01*
X162647380Y-93924333D01*
X162695000Y-93829095D01*
X162742619Y-93781476D01*
X162837857Y-93733857D01*
X162980714Y-93733857D01*
X163075952Y-93781476D01*
X163123571Y-93829095D01*
X163171190Y-93924333D01*
X163171190Y-94305285D01*
X163647380Y-92781476D02*
X163647380Y-93352904D01*
X163647380Y-93067190D02*
X162647380Y-93067190D01*
X162790238Y-93162428D01*
X162885476Y-93257666D01*
X162933095Y-93352904D01*
X162647380Y-92162428D02*
X162647380Y-92067190D01*
X162695000Y-91971952D01*
X162742619Y-91924333D01*
X162837857Y-91876714D01*
X163028333Y-91829095D01*
X163266428Y-91829095D01*
X163456904Y-91876714D01*
X163552142Y-91924333D01*
X163599761Y-91971952D01*
X163647380Y-92067190D01*
X163647380Y-92162428D01*
X163599761Y-92257666D01*
X163552142Y-92305285D01*
X163456904Y-92352904D01*
X163266428Y-92400523D01*
X163028333Y-92400523D01*
X162837857Y-92352904D01*
X162742619Y-92305285D01*
X162695000Y-92257666D01*
X162647380Y-92162428D01*
%TO.C,R9*%
X159456380Y-93791066D02*
X158980190Y-94124400D01*
X159456380Y-94362495D02*
X158456380Y-94362495D01*
X158456380Y-93981542D01*
X158504000Y-93886304D01*
X158551619Y-93838685D01*
X158646857Y-93791066D01*
X158789714Y-93791066D01*
X158884952Y-93838685D01*
X158932571Y-93886304D01*
X158980190Y-93981542D01*
X158980190Y-94362495D01*
X159456380Y-93314876D02*
X159456380Y-93124400D01*
X159408761Y-93029161D01*
X159361142Y-92981542D01*
X159218285Y-92886304D01*
X159027809Y-92838685D01*
X158646857Y-92838685D01*
X158551619Y-92886304D01*
X158504000Y-92933923D01*
X158456380Y-93029161D01*
X158456380Y-93219638D01*
X158504000Y-93314876D01*
X158551619Y-93362495D01*
X158646857Y-93410114D01*
X158884952Y-93410114D01*
X158980190Y-93362495D01*
X159027809Y-93314876D01*
X159075428Y-93219638D01*
X159075428Y-93029161D01*
X159027809Y-92933923D01*
X158980190Y-92886304D01*
X158884952Y-92838685D01*
%TO.C,R8*%
X162250380Y-93765666D02*
X161774190Y-94099000D01*
X162250380Y-94337095D02*
X161250380Y-94337095D01*
X161250380Y-93956142D01*
X161298000Y-93860904D01*
X161345619Y-93813285D01*
X161440857Y-93765666D01*
X161583714Y-93765666D01*
X161678952Y-93813285D01*
X161726571Y-93860904D01*
X161774190Y-93956142D01*
X161774190Y-94337095D01*
X161678952Y-93194238D02*
X161631333Y-93289476D01*
X161583714Y-93337095D01*
X161488476Y-93384714D01*
X161440857Y-93384714D01*
X161345619Y-93337095D01*
X161298000Y-93289476D01*
X161250380Y-93194238D01*
X161250380Y-93003761D01*
X161298000Y-92908523D01*
X161345619Y-92860904D01*
X161440857Y-92813285D01*
X161488476Y-92813285D01*
X161583714Y-92860904D01*
X161631333Y-92908523D01*
X161678952Y-93003761D01*
X161678952Y-93194238D01*
X161726571Y-93289476D01*
X161774190Y-93337095D01*
X161869428Y-93384714D01*
X162059904Y-93384714D01*
X162155142Y-93337095D01*
X162202761Y-93289476D01*
X162250380Y-93194238D01*
X162250380Y-93003761D01*
X162202761Y-92908523D01*
X162155142Y-92860904D01*
X162059904Y-92813285D01*
X161869428Y-92813285D01*
X161774190Y-92860904D01*
X161726571Y-92908523D01*
X161678952Y-93003761D01*
%TO.C,R7*%
X160878780Y-93740266D02*
X160402590Y-94073600D01*
X160878780Y-94311695D02*
X159878780Y-94311695D01*
X159878780Y-93930742D01*
X159926400Y-93835504D01*
X159974019Y-93787885D01*
X160069257Y-93740266D01*
X160212114Y-93740266D01*
X160307352Y-93787885D01*
X160354971Y-93835504D01*
X160402590Y-93930742D01*
X160402590Y-94311695D01*
X159878780Y-93406933D02*
X159878780Y-92740266D01*
X160878780Y-93168838D01*
%TO.C,R6*%
X156662380Y-85002666D02*
X156186190Y-85336000D01*
X156662380Y-85574095D02*
X155662380Y-85574095D01*
X155662380Y-85193142D01*
X155710000Y-85097904D01*
X155757619Y-85050285D01*
X155852857Y-85002666D01*
X155995714Y-85002666D01*
X156090952Y-85050285D01*
X156138571Y-85097904D01*
X156186190Y-85193142D01*
X156186190Y-85574095D01*
X155662380Y-84145523D02*
X155662380Y-84336000D01*
X155710000Y-84431238D01*
X155757619Y-84478857D01*
X155900476Y-84574095D01*
X156090952Y-84621714D01*
X156471904Y-84621714D01*
X156567142Y-84574095D01*
X156614761Y-84526476D01*
X156662380Y-84431238D01*
X156662380Y-84240761D01*
X156614761Y-84145523D01*
X156567142Y-84097904D01*
X156471904Y-84050285D01*
X156233809Y-84050285D01*
X156138571Y-84097904D01*
X156090952Y-84145523D01*
X156043333Y-84240761D01*
X156043333Y-84431238D01*
X156090952Y-84526476D01*
X156138571Y-84574095D01*
X156233809Y-84621714D01*
%TO.C,R5*%
X163012380Y-85002666D02*
X162536190Y-85336000D01*
X163012380Y-85574095D02*
X162012380Y-85574095D01*
X162012380Y-85193142D01*
X162060000Y-85097904D01*
X162107619Y-85050285D01*
X162202857Y-85002666D01*
X162345714Y-85002666D01*
X162440952Y-85050285D01*
X162488571Y-85097904D01*
X162536190Y-85193142D01*
X162536190Y-85574095D01*
X162012380Y-84097904D02*
X162012380Y-84574095D01*
X162488571Y-84621714D01*
X162440952Y-84574095D01*
X162393333Y-84478857D01*
X162393333Y-84240761D01*
X162440952Y-84145523D01*
X162488571Y-84097904D01*
X162583809Y-84050285D01*
X162821904Y-84050285D01*
X162917142Y-84097904D01*
X162964761Y-84145523D01*
X163012380Y-84240761D01*
X163012380Y-84478857D01*
X162964761Y-84574095D01*
X162917142Y-84621714D01*
%TO.C,R4*%
X159202380Y-85002666D02*
X158726190Y-85336000D01*
X159202380Y-85574095D02*
X158202380Y-85574095D01*
X158202380Y-85193142D01*
X158250000Y-85097904D01*
X158297619Y-85050285D01*
X158392857Y-85002666D01*
X158535714Y-85002666D01*
X158630952Y-85050285D01*
X158678571Y-85097904D01*
X158726190Y-85193142D01*
X158726190Y-85574095D01*
X158535714Y-84145523D02*
X159202380Y-84145523D01*
X158154761Y-84383619D02*
X158869047Y-84621714D01*
X158869047Y-84002666D01*
%TO.C,R3*%
X164409380Y-85002666D02*
X163933190Y-85336000D01*
X164409380Y-85574095D02*
X163409380Y-85574095D01*
X163409380Y-85193142D01*
X163457000Y-85097904D01*
X163504619Y-85050285D01*
X163599857Y-85002666D01*
X163742714Y-85002666D01*
X163837952Y-85050285D01*
X163885571Y-85097904D01*
X163933190Y-85193142D01*
X163933190Y-85574095D01*
X163409380Y-84669333D02*
X163409380Y-84050285D01*
X163790333Y-84383619D01*
X163790333Y-84240761D01*
X163837952Y-84145523D01*
X163885571Y-84097904D01*
X163980809Y-84050285D01*
X164218904Y-84050285D01*
X164314142Y-84097904D01*
X164361761Y-84145523D01*
X164409380Y-84240761D01*
X164409380Y-84526476D01*
X164361761Y-84621714D01*
X164314142Y-84669333D01*
%TO.C,R2*%
X179522380Y-96178666D02*
X179046190Y-96512000D01*
X179522380Y-96750095D02*
X178522380Y-96750095D01*
X178522380Y-96369142D01*
X178570000Y-96273904D01*
X178617619Y-96226285D01*
X178712857Y-96178666D01*
X178855714Y-96178666D01*
X178950952Y-96226285D01*
X178998571Y-96273904D01*
X179046190Y-96369142D01*
X179046190Y-96750095D01*
X178617619Y-95797714D02*
X178570000Y-95750095D01*
X178522380Y-95654857D01*
X178522380Y-95416761D01*
X178570000Y-95321523D01*
X178617619Y-95273904D01*
X178712857Y-95226285D01*
X178808095Y-95226285D01*
X178950952Y-95273904D01*
X179522380Y-95845333D01*
X179522380Y-95226285D01*
%TO.C,R1*%
X168092380Y-96813666D02*
X167616190Y-97147000D01*
X168092380Y-97385095D02*
X167092380Y-97385095D01*
X167092380Y-97004142D01*
X167140000Y-96908904D01*
X167187619Y-96861285D01*
X167282857Y-96813666D01*
X167425714Y-96813666D01*
X167520952Y-96861285D01*
X167568571Y-96908904D01*
X167616190Y-97004142D01*
X167616190Y-97385095D01*
X168092380Y-95861285D02*
X168092380Y-96432714D01*
X168092380Y-96147000D02*
X167092380Y-96147000D01*
X167235238Y-96242238D01*
X167330476Y-96337476D01*
X167378095Y-96432714D01*
%TO.C,C19*%
X157837142Y-84970857D02*
X157884761Y-85018476D01*
X157932380Y-85161333D01*
X157932380Y-85256571D01*
X157884761Y-85399428D01*
X157789523Y-85494666D01*
X157694285Y-85542285D01*
X157503809Y-85589904D01*
X157360952Y-85589904D01*
X157170476Y-85542285D01*
X157075238Y-85494666D01*
X156980000Y-85399428D01*
X156932380Y-85256571D01*
X156932380Y-85161333D01*
X156980000Y-85018476D01*
X157027619Y-84970857D01*
X157932380Y-84018476D02*
X157932380Y-84589904D01*
X157932380Y-84304190D02*
X156932380Y-84304190D01*
X157075238Y-84399428D01*
X157170476Y-84494666D01*
X157218095Y-84589904D01*
X157932380Y-83542285D02*
X157932380Y-83351809D01*
X157884761Y-83256571D01*
X157837142Y-83208952D01*
X157694285Y-83113714D01*
X157503809Y-83066095D01*
X157122857Y-83066095D01*
X157027619Y-83113714D01*
X156980000Y-83161333D01*
X156932380Y-83256571D01*
X156932380Y-83447047D01*
X156980000Y-83542285D01*
X157027619Y-83589904D01*
X157122857Y-83637523D01*
X157360952Y-83637523D01*
X157456190Y-83589904D01*
X157503809Y-83542285D01*
X157551428Y-83447047D01*
X157551428Y-83256571D01*
X157503809Y-83161333D01*
X157456190Y-83113714D01*
X157360952Y-83066095D01*
%TO.C,C18*%
X161647142Y-84970857D02*
X161694761Y-85018476D01*
X161742380Y-85161333D01*
X161742380Y-85256571D01*
X161694761Y-85399428D01*
X161599523Y-85494666D01*
X161504285Y-85542285D01*
X161313809Y-85589904D01*
X161170952Y-85589904D01*
X160980476Y-85542285D01*
X160885238Y-85494666D01*
X160790000Y-85399428D01*
X160742380Y-85256571D01*
X160742380Y-85161333D01*
X160790000Y-85018476D01*
X160837619Y-84970857D01*
X161742380Y-84018476D02*
X161742380Y-84589904D01*
X161742380Y-84304190D02*
X160742380Y-84304190D01*
X160885238Y-84399428D01*
X160980476Y-84494666D01*
X161028095Y-84589904D01*
X161170952Y-83447047D02*
X161123333Y-83542285D01*
X161075714Y-83589904D01*
X160980476Y-83637523D01*
X160932857Y-83637523D01*
X160837619Y-83589904D01*
X160790000Y-83542285D01*
X160742380Y-83447047D01*
X160742380Y-83256571D01*
X160790000Y-83161333D01*
X160837619Y-83113714D01*
X160932857Y-83066095D01*
X160980476Y-83066095D01*
X161075714Y-83113714D01*
X161123333Y-83161333D01*
X161170952Y-83256571D01*
X161170952Y-83447047D01*
X161218571Y-83542285D01*
X161266190Y-83589904D01*
X161361428Y-83637523D01*
X161551904Y-83637523D01*
X161647142Y-83589904D01*
X161694761Y-83542285D01*
X161742380Y-83447047D01*
X161742380Y-83256571D01*
X161694761Y-83161333D01*
X161647142Y-83113714D01*
X161551904Y-83066095D01*
X161361428Y-83066095D01*
X161266190Y-83113714D01*
X161218571Y-83161333D01*
X161170952Y-83256571D01*
%TO.C,C17*%
X160377142Y-84970857D02*
X160424761Y-85018476D01*
X160472380Y-85161333D01*
X160472380Y-85256571D01*
X160424761Y-85399428D01*
X160329523Y-85494666D01*
X160234285Y-85542285D01*
X160043809Y-85589904D01*
X159900952Y-85589904D01*
X159710476Y-85542285D01*
X159615238Y-85494666D01*
X159520000Y-85399428D01*
X159472380Y-85256571D01*
X159472380Y-85161333D01*
X159520000Y-85018476D01*
X159567619Y-84970857D01*
X160472380Y-84018476D02*
X160472380Y-84589904D01*
X160472380Y-84304190D02*
X159472380Y-84304190D01*
X159615238Y-84399428D01*
X159710476Y-84494666D01*
X159758095Y-84589904D01*
X159472380Y-83685142D02*
X159472380Y-83018476D01*
X160472380Y-83447047D01*
%TO.C,C16*%
X165584142Y-84970857D02*
X165631761Y-85018476D01*
X165679380Y-85161333D01*
X165679380Y-85256571D01*
X165631761Y-85399428D01*
X165536523Y-85494666D01*
X165441285Y-85542285D01*
X165250809Y-85589904D01*
X165107952Y-85589904D01*
X164917476Y-85542285D01*
X164822238Y-85494666D01*
X164727000Y-85399428D01*
X164679380Y-85256571D01*
X164679380Y-85161333D01*
X164727000Y-85018476D01*
X164774619Y-84970857D01*
X165679380Y-84018476D02*
X165679380Y-84589904D01*
X165679380Y-84304190D02*
X164679380Y-84304190D01*
X164822238Y-84399428D01*
X164917476Y-84494666D01*
X164965095Y-84589904D01*
X164679380Y-83161333D02*
X164679380Y-83351809D01*
X164727000Y-83447047D01*
X164774619Y-83494666D01*
X164917476Y-83589904D01*
X165107952Y-83637523D01*
X165488904Y-83637523D01*
X165584142Y-83589904D01*
X165631761Y-83542285D01*
X165679380Y-83447047D01*
X165679380Y-83256571D01*
X165631761Y-83161333D01*
X165584142Y-83113714D01*
X165488904Y-83066095D01*
X165250809Y-83066095D01*
X165155571Y-83113714D01*
X165107952Y-83161333D01*
X165060333Y-83256571D01*
X165060333Y-83447047D01*
X165107952Y-83542285D01*
X165155571Y-83589904D01*
X165250809Y-83637523D01*
%TO.C,C14*%
X119245142Y-80367142D02*
X119197523Y-80414761D01*
X119054666Y-80462380D01*
X118959428Y-80462380D01*
X118816571Y-80414761D01*
X118721333Y-80319523D01*
X118673714Y-80224285D01*
X118626095Y-80033809D01*
X118626095Y-79890952D01*
X118673714Y-79700476D01*
X118721333Y-79605238D01*
X118816571Y-79510000D01*
X118959428Y-79462380D01*
X119054666Y-79462380D01*
X119197523Y-79510000D01*
X119245142Y-79557619D01*
X120197523Y-80462380D02*
X119626095Y-80462380D01*
X119911809Y-80462380D02*
X119911809Y-79462380D01*
X119816571Y-79605238D01*
X119721333Y-79700476D01*
X119626095Y-79748095D01*
X121054666Y-79795714D02*
X121054666Y-80462380D01*
X120816571Y-79414761D02*
X120578476Y-80129047D01*
X121197523Y-80129047D01*
%TO.C,C13*%
X134629142Y-82938857D02*
X134676761Y-82986476D01*
X134724380Y-83129333D01*
X134724380Y-83224571D01*
X134676761Y-83367428D01*
X134581523Y-83462666D01*
X134486285Y-83510285D01*
X134295809Y-83557904D01*
X134152952Y-83557904D01*
X133962476Y-83510285D01*
X133867238Y-83462666D01*
X133772000Y-83367428D01*
X133724380Y-83224571D01*
X133724380Y-83129333D01*
X133772000Y-82986476D01*
X133819619Y-82938857D01*
X134724380Y-81986476D02*
X134724380Y-82557904D01*
X134724380Y-82272190D02*
X133724380Y-82272190D01*
X133867238Y-82367428D01*
X133962476Y-82462666D01*
X134010095Y-82557904D01*
X133724380Y-81653142D02*
X133724380Y-81034095D01*
X134105333Y-81367428D01*
X134105333Y-81224571D01*
X134152952Y-81129333D01*
X134200571Y-81081714D01*
X134295809Y-81034095D01*
X134533904Y-81034095D01*
X134629142Y-81081714D01*
X134676761Y-81129333D01*
X134724380Y-81224571D01*
X134724380Y-81510285D01*
X134676761Y-81605523D01*
X134629142Y-81653142D01*
%TO.C,C12*%
X90781142Y-102192057D02*
X90828761Y-102239676D01*
X90876380Y-102382533D01*
X90876380Y-102477771D01*
X90828761Y-102620628D01*
X90733523Y-102715866D01*
X90638285Y-102763485D01*
X90447809Y-102811104D01*
X90304952Y-102811104D01*
X90114476Y-102763485D01*
X90019238Y-102715866D01*
X89924000Y-102620628D01*
X89876380Y-102477771D01*
X89876380Y-102382533D01*
X89924000Y-102239676D01*
X89971619Y-102192057D01*
X90876380Y-101239676D02*
X90876380Y-101811104D01*
X90876380Y-101525390D02*
X89876380Y-101525390D01*
X90019238Y-101620628D01*
X90114476Y-101715866D01*
X90162095Y-101811104D01*
X89971619Y-100858723D02*
X89924000Y-100811104D01*
X89876380Y-100715866D01*
X89876380Y-100477771D01*
X89924000Y-100382533D01*
X89971619Y-100334914D01*
X90066857Y-100287295D01*
X90162095Y-100287295D01*
X90304952Y-100334914D01*
X90876380Y-100906342D01*
X90876380Y-100287295D01*
%TO.C,C11*%
X133199142Y-90812857D02*
X133246761Y-90860476D01*
X133294380Y-91003333D01*
X133294380Y-91098571D01*
X133246761Y-91241428D01*
X133151523Y-91336666D01*
X133056285Y-91384285D01*
X132865809Y-91431904D01*
X132722952Y-91431904D01*
X132532476Y-91384285D01*
X132437238Y-91336666D01*
X132342000Y-91241428D01*
X132294380Y-91098571D01*
X132294380Y-91003333D01*
X132342000Y-90860476D01*
X132389619Y-90812857D01*
X133294380Y-89860476D02*
X133294380Y-90431904D01*
X133294380Y-90146190D02*
X132294380Y-90146190D01*
X132437238Y-90241428D01*
X132532476Y-90336666D01*
X132580095Y-90431904D01*
X133294380Y-88908095D02*
X133294380Y-89479523D01*
X133294380Y-89193809D02*
X132294380Y-89193809D01*
X132437238Y-89289047D01*
X132532476Y-89384285D01*
X132580095Y-89479523D01*
%TO.C,C10*%
X120346742Y-90914457D02*
X120394361Y-90962076D01*
X120441980Y-91104933D01*
X120441980Y-91200171D01*
X120394361Y-91343028D01*
X120299123Y-91438266D01*
X120203885Y-91485885D01*
X120013409Y-91533504D01*
X119870552Y-91533504D01*
X119680076Y-91485885D01*
X119584838Y-91438266D01*
X119489600Y-91343028D01*
X119441980Y-91200171D01*
X119441980Y-91104933D01*
X119489600Y-90962076D01*
X119537219Y-90914457D01*
X120441980Y-89962076D02*
X120441980Y-90533504D01*
X120441980Y-90247790D02*
X119441980Y-90247790D01*
X119584838Y-90343028D01*
X119680076Y-90438266D01*
X119727695Y-90533504D01*
X119441980Y-89343028D02*
X119441980Y-89247790D01*
X119489600Y-89152552D01*
X119537219Y-89104933D01*
X119632457Y-89057314D01*
X119822933Y-89009695D01*
X120061028Y-89009695D01*
X120251504Y-89057314D01*
X120346742Y-89104933D01*
X120394361Y-89152552D01*
X120441980Y-89247790D01*
X120441980Y-89343028D01*
X120394361Y-89438266D01*
X120346742Y-89485885D01*
X120251504Y-89533504D01*
X120061028Y-89581123D01*
X119822933Y-89581123D01*
X119632457Y-89533504D01*
X119537219Y-89485885D01*
X119489600Y-89438266D01*
X119441980Y-89343028D01*
%TO.C,C9*%
X88901542Y-101309466D02*
X88949161Y-101357085D01*
X88996780Y-101499942D01*
X88996780Y-101595180D01*
X88949161Y-101738038D01*
X88853923Y-101833276D01*
X88758685Y-101880895D01*
X88568209Y-101928514D01*
X88425352Y-101928514D01*
X88234876Y-101880895D01*
X88139638Y-101833276D01*
X88044400Y-101738038D01*
X87996780Y-101595180D01*
X87996780Y-101499942D01*
X88044400Y-101357085D01*
X88092019Y-101309466D01*
X88996780Y-100833276D02*
X88996780Y-100642800D01*
X88949161Y-100547561D01*
X88901542Y-100499942D01*
X88758685Y-100404704D01*
X88568209Y-100357085D01*
X88187257Y-100357085D01*
X88092019Y-100404704D01*
X88044400Y-100452323D01*
X87996780Y-100547561D01*
X87996780Y-100738038D01*
X88044400Y-100833276D01*
X88092019Y-100880895D01*
X88187257Y-100928514D01*
X88425352Y-100928514D01*
X88520590Y-100880895D01*
X88568209Y-100833276D01*
X88615828Y-100738038D01*
X88615828Y-100547561D01*
X88568209Y-100452323D01*
X88520590Y-100404704D01*
X88425352Y-100357085D01*
%TO.C,C8*%
X120549942Y-100852266D02*
X120597561Y-100899885D01*
X120645180Y-101042742D01*
X120645180Y-101137980D01*
X120597561Y-101280838D01*
X120502323Y-101376076D01*
X120407085Y-101423695D01*
X120216609Y-101471314D01*
X120073752Y-101471314D01*
X119883276Y-101423695D01*
X119788038Y-101376076D01*
X119692800Y-101280838D01*
X119645180Y-101137980D01*
X119645180Y-101042742D01*
X119692800Y-100899885D01*
X119740419Y-100852266D01*
X120073752Y-100280838D02*
X120026133Y-100376076D01*
X119978514Y-100423695D01*
X119883276Y-100471314D01*
X119835657Y-100471314D01*
X119740419Y-100423695D01*
X119692800Y-100376076D01*
X119645180Y-100280838D01*
X119645180Y-100090361D01*
X119692800Y-99995123D01*
X119740419Y-99947504D01*
X119835657Y-99899885D01*
X119883276Y-99899885D01*
X119978514Y-99947504D01*
X120026133Y-99995123D01*
X120073752Y-100090361D01*
X120073752Y-100280838D01*
X120121371Y-100376076D01*
X120168990Y-100423695D01*
X120264228Y-100471314D01*
X120454704Y-100471314D01*
X120549942Y-100423695D01*
X120597561Y-100376076D01*
X120645180Y-100280838D01*
X120645180Y-100090361D01*
X120597561Y-99995123D01*
X120549942Y-99947504D01*
X120454704Y-99899885D01*
X120264228Y-99899885D01*
X120168990Y-99947504D01*
X120121371Y-99995123D01*
X120073752Y-100090361D01*
%TO.C,C7*%
X158218142Y-89066666D02*
X158265761Y-89114285D01*
X158313380Y-89257142D01*
X158313380Y-89352380D01*
X158265761Y-89495238D01*
X158170523Y-89590476D01*
X158075285Y-89638095D01*
X157884809Y-89685714D01*
X157741952Y-89685714D01*
X157551476Y-89638095D01*
X157456238Y-89590476D01*
X157361000Y-89495238D01*
X157313380Y-89352380D01*
X157313380Y-89257142D01*
X157361000Y-89114285D01*
X157408619Y-89066666D01*
X157313380Y-88733333D02*
X157313380Y-88066666D01*
X158313380Y-88495238D01*
%TO.C,C6*%
X165330142Y-88939666D02*
X165377761Y-88987285D01*
X165425380Y-89130142D01*
X165425380Y-89225380D01*
X165377761Y-89368238D01*
X165282523Y-89463476D01*
X165187285Y-89511095D01*
X164996809Y-89558714D01*
X164853952Y-89558714D01*
X164663476Y-89511095D01*
X164568238Y-89463476D01*
X164473000Y-89368238D01*
X164425380Y-89225380D01*
X164425380Y-89130142D01*
X164473000Y-88987285D01*
X164520619Y-88939666D01*
X164425380Y-88082523D02*
X164425380Y-88273000D01*
X164473000Y-88368238D01*
X164520619Y-88415857D01*
X164663476Y-88511095D01*
X164853952Y-88558714D01*
X165234904Y-88558714D01*
X165330142Y-88511095D01*
X165377761Y-88463476D01*
X165425380Y-88368238D01*
X165425380Y-88177761D01*
X165377761Y-88082523D01*
X165330142Y-88034904D01*
X165234904Y-87987285D01*
X164996809Y-87987285D01*
X164901571Y-88034904D01*
X164853952Y-88082523D01*
X164806333Y-88177761D01*
X164806333Y-88368238D01*
X164853952Y-88463476D01*
X164901571Y-88511095D01*
X164996809Y-88558714D01*
%TO.C,C5*%
X118771942Y-100903066D02*
X118819561Y-100950685D01*
X118867180Y-101093542D01*
X118867180Y-101188780D01*
X118819561Y-101331638D01*
X118724323Y-101426876D01*
X118629085Y-101474495D01*
X118438609Y-101522114D01*
X118295752Y-101522114D01*
X118105276Y-101474495D01*
X118010038Y-101426876D01*
X117914800Y-101331638D01*
X117867180Y-101188780D01*
X117867180Y-101093542D01*
X117914800Y-100950685D01*
X117962419Y-100903066D01*
X117867180Y-99998304D02*
X117867180Y-100474495D01*
X118343371Y-100522114D01*
X118295752Y-100474495D01*
X118248133Y-100379257D01*
X118248133Y-100141161D01*
X118295752Y-100045923D01*
X118343371Y-99998304D01*
X118438609Y-99950685D01*
X118676704Y-99950685D01*
X118771942Y-99998304D01*
X118819561Y-100045923D01*
X118867180Y-100141161D01*
X118867180Y-100379257D01*
X118819561Y-100474495D01*
X118771942Y-100522114D01*
%TO.C,C4*%
X158040342Y-93791066D02*
X158087961Y-93838685D01*
X158135580Y-93981542D01*
X158135580Y-94076780D01*
X158087961Y-94219638D01*
X157992723Y-94314876D01*
X157897485Y-94362495D01*
X157707009Y-94410114D01*
X157564152Y-94410114D01*
X157373676Y-94362495D01*
X157278438Y-94314876D01*
X157183200Y-94219638D01*
X157135580Y-94076780D01*
X157135580Y-93981542D01*
X157183200Y-93838685D01*
X157230819Y-93791066D01*
X157468914Y-92933923D02*
X158135580Y-92933923D01*
X157087961Y-93172019D02*
X157802247Y-93410114D01*
X157802247Y-92791066D01*
%TO.C,C3*%
X164949142Y-93765666D02*
X164996761Y-93813285D01*
X165044380Y-93956142D01*
X165044380Y-94051380D01*
X164996761Y-94194238D01*
X164901523Y-94289476D01*
X164806285Y-94337095D01*
X164615809Y-94384714D01*
X164472952Y-94384714D01*
X164282476Y-94337095D01*
X164187238Y-94289476D01*
X164092000Y-94194238D01*
X164044380Y-94051380D01*
X164044380Y-93956142D01*
X164092000Y-93813285D01*
X164139619Y-93765666D01*
X164044380Y-93432333D02*
X164044380Y-92813285D01*
X164425333Y-93146619D01*
X164425333Y-93003761D01*
X164472952Y-92908523D01*
X164520571Y-92860904D01*
X164615809Y-92813285D01*
X164853904Y-92813285D01*
X164949142Y-92860904D01*
X164996761Y-92908523D01*
X165044380Y-93003761D01*
X165044380Y-93289476D01*
X164996761Y-93384714D01*
X164949142Y-93432333D01*
%TO.C,C2*%
X171791333Y-95480142D02*
X171743714Y-95527761D01*
X171600857Y-95575380D01*
X171505619Y-95575380D01*
X171362761Y-95527761D01*
X171267523Y-95432523D01*
X171219904Y-95337285D01*
X171172285Y-95146809D01*
X171172285Y-95003952D01*
X171219904Y-94813476D01*
X171267523Y-94718238D01*
X171362761Y-94623000D01*
X171505619Y-94575380D01*
X171600857Y-94575380D01*
X171743714Y-94623000D01*
X171791333Y-94670619D01*
X172172285Y-94670619D02*
X172219904Y-94623000D01*
X172315142Y-94575380D01*
X172553238Y-94575380D01*
X172648476Y-94623000D01*
X172696095Y-94670619D01*
X172743714Y-94765857D01*
X172743714Y-94861095D01*
X172696095Y-95003952D01*
X172124666Y-95575380D01*
X172743714Y-95575380D01*
%TO.C,C1*%
X171791333Y-97258142D02*
X171743714Y-97305761D01*
X171600857Y-97353380D01*
X171505619Y-97353380D01*
X171362761Y-97305761D01*
X171267523Y-97210523D01*
X171219904Y-97115285D01*
X171172285Y-96924809D01*
X171172285Y-96781952D01*
X171219904Y-96591476D01*
X171267523Y-96496238D01*
X171362761Y-96401000D01*
X171505619Y-96353380D01*
X171600857Y-96353380D01*
X171743714Y-96401000D01*
X171791333Y-96448619D01*
X172743714Y-97353380D02*
X172172285Y-97353380D01*
X172458000Y-97353380D02*
X172458000Y-96353380D01*
X172362761Y-96496238D01*
X172267523Y-96591476D01*
X172172285Y-96639095D01*
%TO.C,U4*%
X110746095Y-79563980D02*
X110746095Y-80373504D01*
X110793714Y-80468742D01*
X110841333Y-80516361D01*
X110936571Y-80563980D01*
X111127047Y-80563980D01*
X111222285Y-80516361D01*
X111269904Y-80468742D01*
X111317523Y-80373504D01*
X111317523Y-79563980D01*
X112222285Y-79897314D02*
X112222285Y-80563980D01*
X111984190Y-79516361D02*
X111746095Y-80230647D01*
X112365142Y-80230647D01*
%TO.C,P1*%
X191793904Y-80970380D02*
X191793904Y-79970380D01*
X192174857Y-79970380D01*
X192270095Y-80018000D01*
X192317714Y-80065619D01*
X192365333Y-80160857D01*
X192365333Y-80303714D01*
X192317714Y-80398952D01*
X192270095Y-80446571D01*
X192174857Y-80494190D01*
X191793904Y-80494190D01*
X193317714Y-80970380D02*
X192746285Y-80970380D01*
X193032000Y-80970380D02*
X193032000Y-79970380D01*
X192936761Y-80113238D01*
X192841523Y-80208476D01*
X192746285Y-80256095D01*
%TO.C,C15*%
X206149342Y-102852457D02*
X206196961Y-102900076D01*
X206244580Y-103042933D01*
X206244580Y-103138171D01*
X206196961Y-103281028D01*
X206101723Y-103376266D01*
X206006485Y-103423885D01*
X205816009Y-103471504D01*
X205673152Y-103471504D01*
X205482676Y-103423885D01*
X205387438Y-103376266D01*
X205292200Y-103281028D01*
X205244580Y-103138171D01*
X205244580Y-103042933D01*
X205292200Y-102900076D01*
X205339819Y-102852457D01*
X206244580Y-101900076D02*
X206244580Y-102471504D01*
X206244580Y-102185790D02*
X205244580Y-102185790D01*
X205387438Y-102281028D01*
X205482676Y-102376266D01*
X205530295Y-102471504D01*
X205244580Y-100995314D02*
X205244580Y-101471504D01*
X205720771Y-101519123D01*
X205673152Y-101471504D01*
X205625533Y-101376266D01*
X205625533Y-101138171D01*
X205673152Y-101042933D01*
X205720771Y-100995314D01*
X205816009Y-100947695D01*
X206054104Y-100947695D01*
X206149342Y-100995314D01*
X206196961Y-101042933D01*
X206244580Y-101138171D01*
X206244580Y-101376266D01*
X206196961Y-101471504D01*
X206149342Y-101519123D01*
%TO.C,CON1*%
X93041742Y-88945885D02*
X93089361Y-88993504D01*
X93136980Y-89136361D01*
X93136980Y-89231600D01*
X93089361Y-89374457D01*
X92994123Y-89469695D01*
X92898885Y-89517314D01*
X92708409Y-89564933D01*
X92565552Y-89564933D01*
X92375076Y-89517314D01*
X92279838Y-89469695D01*
X92184600Y-89374457D01*
X92136980Y-89231600D01*
X92136980Y-89136361D01*
X92184600Y-88993504D01*
X92232219Y-88945885D01*
X92136980Y-88326838D02*
X92136980Y-88136361D01*
X92184600Y-88041123D01*
X92279838Y-87945885D01*
X92470314Y-87898266D01*
X92803647Y-87898266D01*
X92994123Y-87945885D01*
X93089361Y-88041123D01*
X93136980Y-88136361D01*
X93136980Y-88326838D01*
X93089361Y-88422076D01*
X92994123Y-88517314D01*
X92803647Y-88564933D01*
X92470314Y-88564933D01*
X92279838Y-88517314D01*
X92184600Y-88422076D01*
X92136980Y-88326838D01*
X93136980Y-87469695D02*
X92136980Y-87469695D01*
X93136980Y-86898266D01*
X92136980Y-86898266D01*
X93136980Y-85898266D02*
X93136980Y-86469695D01*
X93136980Y-86183980D02*
X92136980Y-86183980D01*
X92279838Y-86279219D01*
X92375076Y-86374457D01*
X92422695Y-86469695D01*
%TO.C,D1*%
X144295904Y-99258380D02*
X144295904Y-98258380D01*
X144534000Y-98258380D01*
X144676857Y-98306000D01*
X144772095Y-98401238D01*
X144819714Y-98496476D01*
X144867333Y-98686952D01*
X144867333Y-98829809D01*
X144819714Y-99020285D01*
X144772095Y-99115523D01*
X144676857Y-99210761D01*
X144534000Y-99258380D01*
X144295904Y-99258380D01*
X145819714Y-99258380D02*
X145248285Y-99258380D01*
X145534000Y-99258380D02*
X145534000Y-98258380D01*
X145438761Y-98401238D01*
X145343523Y-98496476D01*
X145248285Y-98544095D01*
%TO.C,D2*%
X92987904Y-99004380D02*
X92987904Y-98004380D01*
X93226000Y-98004380D01*
X93368857Y-98052000D01*
X93464095Y-98147238D01*
X93511714Y-98242476D01*
X93559333Y-98432952D01*
X93559333Y-98575809D01*
X93511714Y-98766285D01*
X93464095Y-98861523D01*
X93368857Y-98956761D01*
X93226000Y-99004380D01*
X92987904Y-99004380D01*
X93940285Y-98099619D02*
X93987904Y-98052000D01*
X94083142Y-98004380D01*
X94321238Y-98004380D01*
X94416476Y-98052000D01*
X94464095Y-98099619D01*
X94511714Y-98194857D01*
X94511714Y-98290095D01*
X94464095Y-98432952D01*
X93892666Y-99004380D01*
X94511714Y-99004380D01*
%TO.C,D3*%
X97305904Y-99004380D02*
X97305904Y-98004380D01*
X97544000Y-98004380D01*
X97686857Y-98052000D01*
X97782095Y-98147238D01*
X97829714Y-98242476D01*
X97877333Y-98432952D01*
X97877333Y-98575809D01*
X97829714Y-98766285D01*
X97782095Y-98861523D01*
X97686857Y-98956761D01*
X97544000Y-99004380D01*
X97305904Y-99004380D01*
X98210666Y-98004380D02*
X98829714Y-98004380D01*
X98496380Y-98385333D01*
X98639238Y-98385333D01*
X98734476Y-98432952D01*
X98782095Y-98480571D01*
X98829714Y-98575809D01*
X98829714Y-98813904D01*
X98782095Y-98909142D01*
X98734476Y-98956761D01*
X98639238Y-99004380D01*
X98353523Y-99004380D01*
X98258285Y-98956761D01*
X98210666Y-98909142D01*
%TO.C,D4*%
X172997904Y-99258380D02*
X172997904Y-98258380D01*
X173236000Y-98258380D01*
X173378857Y-98306000D01*
X173474095Y-98401238D01*
X173521714Y-98496476D01*
X173569333Y-98686952D01*
X173569333Y-98829809D01*
X173521714Y-99020285D01*
X173474095Y-99115523D01*
X173378857Y-99210761D01*
X173236000Y-99258380D01*
X172997904Y-99258380D01*
X174426476Y-98591714D02*
X174426476Y-99258380D01*
X174188380Y-98210761D02*
X173950285Y-98925047D01*
X174569333Y-98925047D01*
%TO.C,D5*%
X101623904Y-99004380D02*
X101623904Y-98004380D01*
X101862000Y-98004380D01*
X102004857Y-98052000D01*
X102100095Y-98147238D01*
X102147714Y-98242476D01*
X102195333Y-98432952D01*
X102195333Y-98575809D01*
X102147714Y-98766285D01*
X102100095Y-98861523D01*
X102004857Y-98956761D01*
X101862000Y-99004380D01*
X101623904Y-99004380D01*
X103100095Y-98004380D02*
X102623904Y-98004380D01*
X102576285Y-98480571D01*
X102623904Y-98432952D01*
X102719142Y-98385333D01*
X102957238Y-98385333D01*
X103052476Y-98432952D01*
X103100095Y-98480571D01*
X103147714Y-98575809D01*
X103147714Y-98813904D01*
X103100095Y-98909142D01*
X103052476Y-98956761D01*
X102957238Y-99004380D01*
X102719142Y-99004380D01*
X102623904Y-98956761D01*
X102576285Y-98909142D01*
%TO.C,D6*%
X139215904Y-99258380D02*
X139215904Y-98258380D01*
X139454000Y-98258380D01*
X139596857Y-98306000D01*
X139692095Y-98401238D01*
X139739714Y-98496476D01*
X139787333Y-98686952D01*
X139787333Y-98829809D01*
X139739714Y-99020285D01*
X139692095Y-99115523D01*
X139596857Y-99210761D01*
X139454000Y-99258380D01*
X139215904Y-99258380D01*
X140644476Y-98258380D02*
X140454000Y-98258380D01*
X140358761Y-98306000D01*
X140311142Y-98353619D01*
X140215904Y-98496476D01*
X140168285Y-98686952D01*
X140168285Y-99067904D01*
X140215904Y-99163142D01*
X140263523Y-99210761D01*
X140358761Y-99258380D01*
X140549238Y-99258380D01*
X140644476Y-99210761D01*
X140692095Y-99163142D01*
X140739714Y-99067904D01*
X140739714Y-98829809D01*
X140692095Y-98734571D01*
X140644476Y-98686952D01*
X140549238Y-98639333D01*
X140358761Y-98639333D01*
X140263523Y-98686952D01*
X140215904Y-98734571D01*
X140168285Y-98829809D01*
%TO.C,D7*%
X105941904Y-99004380D02*
X105941904Y-98004380D01*
X106180000Y-98004380D01*
X106322857Y-98052000D01*
X106418095Y-98147238D01*
X106465714Y-98242476D01*
X106513333Y-98432952D01*
X106513333Y-98575809D01*
X106465714Y-98766285D01*
X106418095Y-98861523D01*
X106322857Y-98956761D01*
X106180000Y-99004380D01*
X105941904Y-99004380D01*
X106846666Y-98004380D02*
X107513333Y-98004380D01*
X107084761Y-99004380D01*
%TO.C,D8*%
X168679904Y-99258380D02*
X168679904Y-98258380D01*
X168918000Y-98258380D01*
X169060857Y-98306000D01*
X169156095Y-98401238D01*
X169203714Y-98496476D01*
X169251333Y-98686952D01*
X169251333Y-98829809D01*
X169203714Y-99020285D01*
X169156095Y-99115523D01*
X169060857Y-99210761D01*
X168918000Y-99258380D01*
X168679904Y-99258380D01*
X169822761Y-98686952D02*
X169727523Y-98639333D01*
X169679904Y-98591714D01*
X169632285Y-98496476D01*
X169632285Y-98448857D01*
X169679904Y-98353619D01*
X169727523Y-98306000D01*
X169822761Y-98258380D01*
X170013238Y-98258380D01*
X170108476Y-98306000D01*
X170156095Y-98353619D01*
X170203714Y-98448857D01*
X170203714Y-98496476D01*
X170156095Y-98591714D01*
X170108476Y-98639333D01*
X170013238Y-98686952D01*
X169822761Y-98686952D01*
X169727523Y-98734571D01*
X169679904Y-98782190D01*
X169632285Y-98877428D01*
X169632285Y-99067904D01*
X169679904Y-99163142D01*
X169727523Y-99210761D01*
X169822761Y-99258380D01*
X170013238Y-99258380D01*
X170108476Y-99210761D01*
X170156095Y-99163142D01*
X170203714Y-99067904D01*
X170203714Y-98877428D01*
X170156095Y-98782190D01*
X170108476Y-98734571D01*
X170013238Y-98686952D01*
%TO.C,D9*%
X134135904Y-99258380D02*
X134135904Y-98258380D01*
X134374000Y-98258380D01*
X134516857Y-98306000D01*
X134612095Y-98401238D01*
X134659714Y-98496476D01*
X134707333Y-98686952D01*
X134707333Y-98829809D01*
X134659714Y-99020285D01*
X134612095Y-99115523D01*
X134516857Y-99210761D01*
X134374000Y-99258380D01*
X134135904Y-99258380D01*
X135183523Y-99258380D02*
X135374000Y-99258380D01*
X135469238Y-99210761D01*
X135516857Y-99163142D01*
X135612095Y-99020285D01*
X135659714Y-98829809D01*
X135659714Y-98448857D01*
X135612095Y-98353619D01*
X135564476Y-98306000D01*
X135469238Y-98258380D01*
X135278761Y-98258380D01*
X135183523Y-98306000D01*
X135135904Y-98353619D01*
X135088285Y-98448857D01*
X135088285Y-98686952D01*
X135135904Y-98782190D01*
X135183523Y-98829809D01*
X135278761Y-98877428D01*
X135469238Y-98877428D01*
X135564476Y-98829809D01*
X135612095Y-98782190D01*
X135659714Y-98686952D01*
%TO.C,D10*%
X109783714Y-99004380D02*
X109783714Y-98004380D01*
X110021809Y-98004380D01*
X110164666Y-98052000D01*
X110259904Y-98147238D01*
X110307523Y-98242476D01*
X110355142Y-98432952D01*
X110355142Y-98575809D01*
X110307523Y-98766285D01*
X110259904Y-98861523D01*
X110164666Y-98956761D01*
X110021809Y-99004380D01*
X109783714Y-99004380D01*
X111307523Y-99004380D02*
X110736095Y-99004380D01*
X111021809Y-99004380D02*
X111021809Y-98004380D01*
X110926571Y-98147238D01*
X110831333Y-98242476D01*
X110736095Y-98290095D01*
X111926571Y-98004380D02*
X112021809Y-98004380D01*
X112117047Y-98052000D01*
X112164666Y-98099619D01*
X112212285Y-98194857D01*
X112259904Y-98385333D01*
X112259904Y-98623428D01*
X112212285Y-98813904D01*
X112164666Y-98909142D01*
X112117047Y-98956761D01*
X112021809Y-99004380D01*
X111926571Y-99004380D01*
X111831333Y-98956761D01*
X111783714Y-98909142D01*
X111736095Y-98813904D01*
X111688476Y-98623428D01*
X111688476Y-98385333D01*
X111736095Y-98194857D01*
X111783714Y-98099619D01*
X111831333Y-98052000D01*
X111926571Y-98004380D01*
%TO.C,D11*%
X155249714Y-99258380D02*
X155249714Y-98258380D01*
X155487809Y-98258380D01*
X155630666Y-98306000D01*
X155725904Y-98401238D01*
X155773523Y-98496476D01*
X155821142Y-98686952D01*
X155821142Y-98829809D01*
X155773523Y-99020285D01*
X155725904Y-99115523D01*
X155630666Y-99210761D01*
X155487809Y-99258380D01*
X155249714Y-99258380D01*
X156773523Y-99258380D02*
X156202095Y-99258380D01*
X156487809Y-99258380D02*
X156487809Y-98258380D01*
X156392571Y-98401238D01*
X156297333Y-98496476D01*
X156202095Y-98544095D01*
X157725904Y-99258380D02*
X157154476Y-99258380D01*
X157440190Y-99258380D02*
X157440190Y-98258380D01*
X157344952Y-98401238D01*
X157249714Y-98496476D01*
X157154476Y-98544095D01*
%TO.C,D12*%
X114101714Y-99004380D02*
X114101714Y-98004380D01*
X114339809Y-98004380D01*
X114482666Y-98052000D01*
X114577904Y-98147238D01*
X114625523Y-98242476D01*
X114673142Y-98432952D01*
X114673142Y-98575809D01*
X114625523Y-98766285D01*
X114577904Y-98861523D01*
X114482666Y-98956761D01*
X114339809Y-99004380D01*
X114101714Y-99004380D01*
X115625523Y-99004380D02*
X115054095Y-99004380D01*
X115339809Y-99004380D02*
X115339809Y-98004380D01*
X115244571Y-98147238D01*
X115149333Y-98242476D01*
X115054095Y-98290095D01*
X116006476Y-98099619D02*
X116054095Y-98052000D01*
X116149333Y-98004380D01*
X116387428Y-98004380D01*
X116482666Y-98052000D01*
X116530285Y-98099619D01*
X116577904Y-98194857D01*
X116577904Y-98290095D01*
X116530285Y-98432952D01*
X115958857Y-99004380D01*
X116577904Y-99004380D01*
%TO.C,JP1*%
X177982666Y-77557380D02*
X177982666Y-78271666D01*
X177935047Y-78414523D01*
X177839809Y-78509761D01*
X177696952Y-78557380D01*
X177601714Y-78557380D01*
X178458857Y-78557380D02*
X178458857Y-77557380D01*
X178839809Y-77557380D01*
X178935047Y-77605000D01*
X178982666Y-77652619D01*
X179030285Y-77747857D01*
X179030285Y-77890714D01*
X178982666Y-77985952D01*
X178935047Y-78033571D01*
X178839809Y-78081190D01*
X178458857Y-78081190D01*
X179982666Y-78557380D02*
X179411238Y-78557380D01*
X179696952Y-78557380D02*
X179696952Y-77557380D01*
X179601714Y-77700238D01*
X179506476Y-77795476D01*
X179411238Y-77843095D01*
D13*
%TO.C,P5*%
X125127657Y-102815571D02*
X125200228Y-102597857D01*
X125200228Y-102235000D01*
X125127657Y-102089857D01*
X125055085Y-102017285D01*
X124909942Y-101944714D01*
X124764800Y-101944714D01*
X124619657Y-102017285D01*
X124547085Y-102089857D01*
X124474514Y-102235000D01*
X124401942Y-102525285D01*
X124329371Y-102670428D01*
X124256800Y-102743000D01*
X124111657Y-102815571D01*
X123966514Y-102815571D01*
X123821371Y-102743000D01*
X123748800Y-102670428D01*
X123676228Y-102525285D01*
X123676228Y-102162428D01*
X123748800Y-101944714D01*
X125200228Y-101291571D02*
X123676228Y-101291571D01*
X123676228Y-100711000D01*
X123748800Y-100565857D01*
X123821371Y-100493285D01*
X123966514Y-100420714D01*
X124184228Y-100420714D01*
X124329371Y-100493285D01*
X124401942Y-100565857D01*
X124474514Y-100711000D01*
X124474514Y-101291571D01*
X124401942Y-99259571D02*
X124474514Y-99041857D01*
X124547085Y-98969285D01*
X124692228Y-98896714D01*
X124909942Y-98896714D01*
X125055085Y-98969285D01*
X125127657Y-99041857D01*
X125200228Y-99187000D01*
X125200228Y-99767571D01*
X123676228Y-99767571D01*
X123676228Y-99259571D01*
X123748800Y-99114428D01*
X123821371Y-99041857D01*
X123966514Y-98969285D01*
X124111657Y-98969285D01*
X124256800Y-99041857D01*
X124329371Y-99114428D01*
X124401942Y-99259571D01*
X124401942Y-99767571D01*
X124619657Y-98243571D02*
X124619657Y-97082428D01*
X123676228Y-96066428D02*
X123676228Y-95921285D01*
X123748800Y-95776142D01*
X123821371Y-95703571D01*
X123966514Y-95631000D01*
X124256800Y-95558428D01*
X124619657Y-95558428D01*
X124909942Y-95631000D01*
X125055085Y-95703571D01*
X125127657Y-95776142D01*
X125200228Y-95921285D01*
X125200228Y-96066428D01*
X125127657Y-96211571D01*
X125055085Y-96284142D01*
X124909942Y-96356714D01*
X124619657Y-96429285D01*
X124256800Y-96429285D01*
X123966514Y-96356714D01*
X123821371Y-96284142D01*
X123748800Y-96211571D01*
X123676228Y-96066428D01*
%TO.C,P6*%
X153448657Y-103171171D02*
X153521228Y-102953457D01*
X153521228Y-102590600D01*
X153448657Y-102445457D01*
X153376085Y-102372885D01*
X153230942Y-102300314D01*
X153085800Y-102300314D01*
X152940657Y-102372885D01*
X152868085Y-102445457D01*
X152795514Y-102590600D01*
X152722942Y-102880885D01*
X152650371Y-103026028D01*
X152577800Y-103098600D01*
X152432657Y-103171171D01*
X152287514Y-103171171D01*
X152142371Y-103098600D01*
X152069800Y-103026028D01*
X151997228Y-102880885D01*
X151997228Y-102518028D01*
X152069800Y-102300314D01*
X153521228Y-101647171D02*
X151997228Y-101647171D01*
X151997228Y-101066600D01*
X152069800Y-100921457D01*
X152142371Y-100848885D01*
X152287514Y-100776314D01*
X152505228Y-100776314D01*
X152650371Y-100848885D01*
X152722942Y-100921457D01*
X152795514Y-101066600D01*
X152795514Y-101647171D01*
X152722942Y-99615171D02*
X152795514Y-99397457D01*
X152868085Y-99324885D01*
X153013228Y-99252314D01*
X153230942Y-99252314D01*
X153376085Y-99324885D01*
X153448657Y-99397457D01*
X153521228Y-99542600D01*
X153521228Y-100123171D01*
X151997228Y-100123171D01*
X151997228Y-99615171D01*
X152069800Y-99470028D01*
X152142371Y-99397457D01*
X152287514Y-99324885D01*
X152432657Y-99324885D01*
X152577800Y-99397457D01*
X152650371Y-99470028D01*
X152722942Y-99615171D01*
X152722942Y-100123171D01*
X152940657Y-98599171D02*
X152940657Y-97438028D01*
X153521228Y-95914028D02*
X153521228Y-96784885D01*
X153521228Y-96349457D02*
X151997228Y-96349457D01*
X152214942Y-96494600D01*
X152360085Y-96639742D01*
X152432657Y-96784885D01*
D10*
%TO.C,Q1*%
X144684761Y-93384619D02*
X144589523Y-93337000D01*
X144494285Y-93241761D01*
X144351428Y-93098904D01*
X144256190Y-93051285D01*
X144160952Y-93051285D01*
X144208571Y-93289380D02*
X144113333Y-93241761D01*
X144018095Y-93146523D01*
X143970476Y-92956047D01*
X143970476Y-92622714D01*
X144018095Y-92432238D01*
X144113333Y-92337000D01*
X144208571Y-92289380D01*
X144399047Y-92289380D01*
X144494285Y-92337000D01*
X144589523Y-92432238D01*
X144637142Y-92622714D01*
X144637142Y-92956047D01*
X144589523Y-93146523D01*
X144494285Y-93241761D01*
X144399047Y-93289380D01*
X144208571Y-93289380D01*
X145589523Y-93289380D02*
X145018095Y-93289380D01*
X145303809Y-93289380D02*
X145303809Y-92289380D01*
X145208571Y-92432238D01*
X145113333Y-92527476D01*
X145018095Y-92575095D01*
%TO.C,Q2*%
X93630761Y-93003619D02*
X93535523Y-92956000D01*
X93440285Y-92860761D01*
X93297428Y-92717904D01*
X93202190Y-92670285D01*
X93106952Y-92670285D01*
X93154571Y-92908380D02*
X93059333Y-92860761D01*
X92964095Y-92765523D01*
X92916476Y-92575047D01*
X92916476Y-92241714D01*
X92964095Y-92051238D01*
X93059333Y-91956000D01*
X93154571Y-91908380D01*
X93345047Y-91908380D01*
X93440285Y-91956000D01*
X93535523Y-92051238D01*
X93583142Y-92241714D01*
X93583142Y-92575047D01*
X93535523Y-92765523D01*
X93440285Y-92860761D01*
X93345047Y-92908380D01*
X93154571Y-92908380D01*
X93964095Y-92003619D02*
X94011714Y-91956000D01*
X94106952Y-91908380D01*
X94345047Y-91908380D01*
X94440285Y-91956000D01*
X94487904Y-92003619D01*
X94535523Y-92098857D01*
X94535523Y-92194095D01*
X94487904Y-92336952D01*
X93916476Y-92908380D01*
X94535523Y-92908380D01*
%TO.C,Q3*%
X97694761Y-93156019D02*
X97599523Y-93108400D01*
X97504285Y-93013161D01*
X97361428Y-92870304D01*
X97266190Y-92822685D01*
X97170952Y-92822685D01*
X97218571Y-93060780D02*
X97123333Y-93013161D01*
X97028095Y-92917923D01*
X96980476Y-92727447D01*
X96980476Y-92394114D01*
X97028095Y-92203638D01*
X97123333Y-92108400D01*
X97218571Y-92060780D01*
X97409047Y-92060780D01*
X97504285Y-92108400D01*
X97599523Y-92203638D01*
X97647142Y-92394114D01*
X97647142Y-92727447D01*
X97599523Y-92917923D01*
X97504285Y-93013161D01*
X97409047Y-93060780D01*
X97218571Y-93060780D01*
X97980476Y-92060780D02*
X98599523Y-92060780D01*
X98266190Y-92441733D01*
X98409047Y-92441733D01*
X98504285Y-92489352D01*
X98551904Y-92536971D01*
X98599523Y-92632209D01*
X98599523Y-92870304D01*
X98551904Y-92965542D01*
X98504285Y-93013161D01*
X98409047Y-93060780D01*
X98123333Y-93060780D01*
X98028095Y-93013161D01*
X97980476Y-92965542D01*
%TO.C,Q4*%
X178974761Y-99353619D02*
X178879523Y-99306000D01*
X178784285Y-99210761D01*
X178641428Y-99067904D01*
X178546190Y-99020285D01*
X178450952Y-99020285D01*
X178498571Y-99258380D02*
X178403333Y-99210761D01*
X178308095Y-99115523D01*
X178260476Y-98925047D01*
X178260476Y-98591714D01*
X178308095Y-98401238D01*
X178403333Y-98306000D01*
X178498571Y-98258380D01*
X178689047Y-98258380D01*
X178784285Y-98306000D01*
X178879523Y-98401238D01*
X178927142Y-98591714D01*
X178927142Y-98925047D01*
X178879523Y-99115523D01*
X178784285Y-99210761D01*
X178689047Y-99258380D01*
X178498571Y-99258380D01*
X179784285Y-98591714D02*
X179784285Y-99258380D01*
X179546190Y-98210761D02*
X179308095Y-98925047D01*
X179927142Y-98925047D01*
%TO.C,Q5*%
X102266761Y-93156019D02*
X102171523Y-93108400D01*
X102076285Y-93013161D01*
X101933428Y-92870304D01*
X101838190Y-92822685D01*
X101742952Y-92822685D01*
X101790571Y-93060780D02*
X101695333Y-93013161D01*
X101600095Y-92917923D01*
X101552476Y-92727447D01*
X101552476Y-92394114D01*
X101600095Y-92203638D01*
X101695333Y-92108400D01*
X101790571Y-92060780D01*
X101981047Y-92060780D01*
X102076285Y-92108400D01*
X102171523Y-92203638D01*
X102219142Y-92394114D01*
X102219142Y-92727447D01*
X102171523Y-92917923D01*
X102076285Y-93013161D01*
X101981047Y-93060780D01*
X101790571Y-93060780D01*
X103123904Y-92060780D02*
X102647714Y-92060780D01*
X102600095Y-92536971D01*
X102647714Y-92489352D01*
X102742952Y-92441733D01*
X102981047Y-92441733D01*
X103076285Y-92489352D01*
X103123904Y-92536971D01*
X103171523Y-92632209D01*
X103171523Y-92870304D01*
X103123904Y-92965542D01*
X103076285Y-93013161D01*
X102981047Y-93060780D01*
X102742952Y-93060780D01*
X102647714Y-93013161D01*
X102600095Y-92965542D01*
%TO.C,Q6*%
X139858761Y-93384619D02*
X139763523Y-93337000D01*
X139668285Y-93241761D01*
X139525428Y-93098904D01*
X139430190Y-93051285D01*
X139334952Y-93051285D01*
X139382571Y-93289380D02*
X139287333Y-93241761D01*
X139192095Y-93146523D01*
X139144476Y-92956047D01*
X139144476Y-92622714D01*
X139192095Y-92432238D01*
X139287333Y-92337000D01*
X139382571Y-92289380D01*
X139573047Y-92289380D01*
X139668285Y-92337000D01*
X139763523Y-92432238D01*
X139811142Y-92622714D01*
X139811142Y-92956047D01*
X139763523Y-93146523D01*
X139668285Y-93241761D01*
X139573047Y-93289380D01*
X139382571Y-93289380D01*
X140668285Y-92289380D02*
X140477809Y-92289380D01*
X140382571Y-92337000D01*
X140334952Y-92384619D01*
X140239714Y-92527476D01*
X140192095Y-92717952D01*
X140192095Y-93098904D01*
X140239714Y-93194142D01*
X140287333Y-93241761D01*
X140382571Y-93289380D01*
X140573047Y-93289380D01*
X140668285Y-93241761D01*
X140715904Y-93194142D01*
X140763523Y-93098904D01*
X140763523Y-92860809D01*
X140715904Y-92765571D01*
X140668285Y-92717952D01*
X140573047Y-92670333D01*
X140382571Y-92670333D01*
X140287333Y-92717952D01*
X140239714Y-92765571D01*
X140192095Y-92860809D01*
%TO.C,Q7*%
X106584761Y-93156019D02*
X106489523Y-93108400D01*
X106394285Y-93013161D01*
X106251428Y-92870304D01*
X106156190Y-92822685D01*
X106060952Y-92822685D01*
X106108571Y-93060780D02*
X106013333Y-93013161D01*
X105918095Y-92917923D01*
X105870476Y-92727447D01*
X105870476Y-92394114D01*
X105918095Y-92203638D01*
X106013333Y-92108400D01*
X106108571Y-92060780D01*
X106299047Y-92060780D01*
X106394285Y-92108400D01*
X106489523Y-92203638D01*
X106537142Y-92394114D01*
X106537142Y-92727447D01*
X106489523Y-92917923D01*
X106394285Y-93013161D01*
X106299047Y-93060780D01*
X106108571Y-93060780D01*
X106870476Y-92060780D02*
X107537142Y-92060780D01*
X107108571Y-93060780D01*
%TO.C,Q8*%
X165258761Y-98972619D02*
X165163523Y-98925000D01*
X165068285Y-98829761D01*
X164925428Y-98686904D01*
X164830190Y-98639285D01*
X164734952Y-98639285D01*
X164782571Y-98877380D02*
X164687333Y-98829761D01*
X164592095Y-98734523D01*
X164544476Y-98544047D01*
X164544476Y-98210714D01*
X164592095Y-98020238D01*
X164687333Y-97925000D01*
X164782571Y-97877380D01*
X164973047Y-97877380D01*
X165068285Y-97925000D01*
X165163523Y-98020238D01*
X165211142Y-98210714D01*
X165211142Y-98544047D01*
X165163523Y-98734523D01*
X165068285Y-98829761D01*
X164973047Y-98877380D01*
X164782571Y-98877380D01*
X165782571Y-98305952D02*
X165687333Y-98258333D01*
X165639714Y-98210714D01*
X165592095Y-98115476D01*
X165592095Y-98067857D01*
X165639714Y-97972619D01*
X165687333Y-97925000D01*
X165782571Y-97877380D01*
X165973047Y-97877380D01*
X166068285Y-97925000D01*
X166115904Y-97972619D01*
X166163523Y-98067857D01*
X166163523Y-98115476D01*
X166115904Y-98210714D01*
X166068285Y-98258333D01*
X165973047Y-98305952D01*
X165782571Y-98305952D01*
X165687333Y-98353571D01*
X165639714Y-98401190D01*
X165592095Y-98496428D01*
X165592095Y-98686904D01*
X165639714Y-98782142D01*
X165687333Y-98829761D01*
X165782571Y-98877380D01*
X165973047Y-98877380D01*
X166068285Y-98829761D01*
X166115904Y-98782142D01*
X166163523Y-98686904D01*
X166163523Y-98496428D01*
X166115904Y-98401190D01*
X166068285Y-98353571D01*
X165973047Y-98305952D01*
%TO.C,Q9*%
X134778761Y-93384619D02*
X134683523Y-93337000D01*
X134588285Y-93241761D01*
X134445428Y-93098904D01*
X134350190Y-93051285D01*
X134254952Y-93051285D01*
X134302571Y-93289380D02*
X134207333Y-93241761D01*
X134112095Y-93146523D01*
X134064476Y-92956047D01*
X134064476Y-92622714D01*
X134112095Y-92432238D01*
X134207333Y-92337000D01*
X134302571Y-92289380D01*
X134493047Y-92289380D01*
X134588285Y-92337000D01*
X134683523Y-92432238D01*
X134731142Y-92622714D01*
X134731142Y-92956047D01*
X134683523Y-93146523D01*
X134588285Y-93241761D01*
X134493047Y-93289380D01*
X134302571Y-93289380D01*
X135207333Y-93289380D02*
X135397809Y-93289380D01*
X135493047Y-93241761D01*
X135540666Y-93194142D01*
X135635904Y-93051285D01*
X135683523Y-92860809D01*
X135683523Y-92479857D01*
X135635904Y-92384619D01*
X135588285Y-92337000D01*
X135493047Y-92289380D01*
X135302571Y-92289380D01*
X135207333Y-92337000D01*
X135159714Y-92384619D01*
X135112095Y-92479857D01*
X135112095Y-92717952D01*
X135159714Y-92813190D01*
X135207333Y-92860809D01*
X135302571Y-92908428D01*
X135493047Y-92908428D01*
X135588285Y-92860809D01*
X135635904Y-92813190D01*
X135683523Y-92717952D01*
%TO.C,Q11*%
X160210571Y-98972619D02*
X160115333Y-98925000D01*
X160020095Y-98829761D01*
X159877238Y-98686904D01*
X159782000Y-98639285D01*
X159686761Y-98639285D01*
X159734380Y-98877380D02*
X159639142Y-98829761D01*
X159543904Y-98734523D01*
X159496285Y-98544047D01*
X159496285Y-98210714D01*
X159543904Y-98020238D01*
X159639142Y-97925000D01*
X159734380Y-97877380D01*
X159924857Y-97877380D01*
X160020095Y-97925000D01*
X160115333Y-98020238D01*
X160162952Y-98210714D01*
X160162952Y-98544047D01*
X160115333Y-98734523D01*
X160020095Y-98829761D01*
X159924857Y-98877380D01*
X159734380Y-98877380D01*
X161115333Y-98877380D02*
X160543904Y-98877380D01*
X160829619Y-98877380D02*
X160829619Y-97877380D01*
X160734380Y-98020238D01*
X160639142Y-98115476D01*
X160543904Y-98163095D01*
X162067714Y-98877380D02*
X161496285Y-98877380D01*
X161782000Y-98877380D02*
X161782000Y-97877380D01*
X161686761Y-98020238D01*
X161591523Y-98115476D01*
X161496285Y-98163095D01*
%TO.C,Q12*%
X114744571Y-93156019D02*
X114649333Y-93108400D01*
X114554095Y-93013161D01*
X114411238Y-92870304D01*
X114316000Y-92822685D01*
X114220761Y-92822685D01*
X114268380Y-93060780D02*
X114173142Y-93013161D01*
X114077904Y-92917923D01*
X114030285Y-92727447D01*
X114030285Y-92394114D01*
X114077904Y-92203638D01*
X114173142Y-92108400D01*
X114268380Y-92060780D01*
X114458857Y-92060780D01*
X114554095Y-92108400D01*
X114649333Y-92203638D01*
X114696952Y-92394114D01*
X114696952Y-92727447D01*
X114649333Y-92917923D01*
X114554095Y-93013161D01*
X114458857Y-93060780D01*
X114268380Y-93060780D01*
X115649333Y-93060780D02*
X115077904Y-93060780D01*
X115363619Y-93060780D02*
X115363619Y-92060780D01*
X115268380Y-92203638D01*
X115173142Y-92298876D01*
X115077904Y-92346495D01*
X116030285Y-92156019D02*
X116077904Y-92108400D01*
X116173142Y-92060780D01*
X116411238Y-92060780D01*
X116506476Y-92108400D01*
X116554095Y-92156019D01*
X116601714Y-92251257D01*
X116601714Y-92346495D01*
X116554095Y-92489352D01*
X115982666Y-93060780D01*
X116601714Y-93060780D01*
%TO.C,U3*%
X126052695Y-88661380D02*
X126052695Y-89470904D01*
X126100314Y-89566142D01*
X126147933Y-89613761D01*
X126243171Y-89661380D01*
X126433647Y-89661380D01*
X126528885Y-89613761D01*
X126576504Y-89566142D01*
X126624123Y-89470904D01*
X126624123Y-88661380D01*
X127005076Y-88661380D02*
X127624123Y-88661380D01*
X127290790Y-89042333D01*
X127433647Y-89042333D01*
X127528885Y-89089952D01*
X127576504Y-89137571D01*
X127624123Y-89232809D01*
X127624123Y-89470904D01*
X127576504Y-89566142D01*
X127528885Y-89613761D01*
X127433647Y-89661380D01*
X127147933Y-89661380D01*
X127052695Y-89613761D01*
X127005076Y-89566142D01*
D14*
%TO.C,P2*%
X147988866Y-107941533D02*
X147988866Y-106163533D01*
X148666200Y-106163533D01*
X148835533Y-106248200D01*
X148920200Y-106332866D01*
X149004866Y-106502200D01*
X149004866Y-106756200D01*
X148920200Y-106925533D01*
X148835533Y-107010200D01*
X148666200Y-107094866D01*
X147988866Y-107094866D01*
X149682200Y-106332866D02*
X149766866Y-106248200D01*
X149936200Y-106163533D01*
X150359533Y-106163533D01*
X150528866Y-106248200D01*
X150613533Y-106332866D01*
X150698200Y-106502200D01*
X150698200Y-106671533D01*
X150613533Y-106925533D01*
X149597533Y-107941533D01*
X150698200Y-107941533D01*
%TO.C,P3*%
X178011666Y-107941533D02*
X178011666Y-106163533D01*
X178689000Y-106163533D01*
X178858333Y-106248200D01*
X178943000Y-106332866D01*
X179027666Y-106502200D01*
X179027666Y-106756200D01*
X178943000Y-106925533D01*
X178858333Y-107010200D01*
X178689000Y-107094866D01*
X178011666Y-107094866D01*
X179620333Y-106163533D02*
X180721000Y-106163533D01*
X180128333Y-106840866D01*
X180382333Y-106840866D01*
X180551666Y-106925533D01*
X180636333Y-107010200D01*
X180721000Y-107179533D01*
X180721000Y-107602866D01*
X180636333Y-107772200D01*
X180551666Y-107856866D01*
X180382333Y-107941533D01*
X179874333Y-107941533D01*
X179705000Y-107856866D01*
X179620333Y-107772200D01*
%TO.C,P4*%
X118778866Y-107941533D02*
X118778866Y-106163533D01*
X119456200Y-106163533D01*
X119625533Y-106248200D01*
X119710200Y-106332866D01*
X119794866Y-106502200D01*
X119794866Y-106756200D01*
X119710200Y-106925533D01*
X119625533Y-107010200D01*
X119456200Y-107094866D01*
X118778866Y-107094866D01*
X121318866Y-106756200D02*
X121318866Y-107941533D01*
X120895533Y-106078866D02*
X120472200Y-107348866D01*
X121572866Y-107348866D01*
D10*
%TO.C,H1*%
X88138095Y-105237380D02*
X88138095Y-104237380D01*
X88138095Y-104713571D02*
X88709523Y-104713571D01*
X88709523Y-105237380D02*
X88709523Y-104237380D01*
X89709523Y-105237380D02*
X89138095Y-105237380D01*
X89423809Y-105237380D02*
X89423809Y-104237380D01*
X89328571Y-104380238D01*
X89233333Y-104475476D01*
X89138095Y-104523095D01*
%TO.C,H2*%
X88188895Y-87167980D02*
X88188895Y-86167980D01*
X88188895Y-86644171D02*
X88760323Y-86644171D01*
X88760323Y-87167980D02*
X88760323Y-86167980D01*
X89188895Y-86263219D02*
X89236514Y-86215600D01*
X89331752Y-86167980D01*
X89569847Y-86167980D01*
X89665085Y-86215600D01*
X89712704Y-86263219D01*
X89760323Y-86358457D01*
X89760323Y-86453695D01*
X89712704Y-86596552D01*
X89141276Y-87167980D01*
X89760323Y-87167980D01*
%TO.C,H3*%
X205714695Y-87142580D02*
X205714695Y-86142580D01*
X205714695Y-86618771D02*
X206286123Y-86618771D01*
X206286123Y-87142580D02*
X206286123Y-86142580D01*
X206667076Y-86142580D02*
X207286123Y-86142580D01*
X206952790Y-86523533D01*
X207095647Y-86523533D01*
X207190885Y-86571152D01*
X207238504Y-86618771D01*
X207286123Y-86714009D01*
X207286123Y-86952104D01*
X207238504Y-87047342D01*
X207190885Y-87094961D01*
X207095647Y-87142580D01*
X206809933Y-87142580D01*
X206714695Y-87094961D01*
X206667076Y-87047342D01*
%TO.C,H4*%
X205613095Y-105237380D02*
X205613095Y-104237380D01*
X205613095Y-104713571D02*
X206184523Y-104713571D01*
X206184523Y-105237380D02*
X206184523Y-104237380D01*
X207089285Y-104570714D02*
X207089285Y-105237380D01*
X206851190Y-104189761D02*
X206613095Y-104904047D01*
X207232142Y-104904047D01*
D13*
%TO.C,P7*%
X89959542Y-92140314D02*
X89959542Y-92648314D01*
X90757828Y-92648314D02*
X89233828Y-92648314D01*
X89233828Y-91922600D01*
X90322400Y-91414600D02*
X90322400Y-90688885D01*
X90757828Y-91559742D02*
X89233828Y-91051742D01*
X90757828Y-90543742D01*
X90757828Y-90035742D02*
X89233828Y-90035742D01*
X90757828Y-89164885D01*
X89233828Y-89164885D01*
D10*
%TO.C,U1*%
X176591980Y-91185904D02*
X177401504Y-91185904D01*
X177496742Y-91138285D01*
X177544361Y-91090666D01*
X177591980Y-90995428D01*
X177591980Y-90804952D01*
X177544361Y-90709714D01*
X177496742Y-90662095D01*
X177401504Y-90614476D01*
X176591980Y-90614476D01*
X177591980Y-89614476D02*
X177591980Y-90185904D01*
X177591980Y-89900190D02*
X176591980Y-89900190D01*
X176734838Y-89995428D01*
X176830076Y-90090666D01*
X176877695Y-90185904D01*
%TO.C,JP2*%
X173736000Y-80010000D02*
X173736000Y-82550000D01*
X166116000Y-80010000D02*
X173736000Y-80010000D01*
X166116000Y-82550000D02*
X166116000Y-80010000D01*
X173736000Y-82550000D02*
X166116000Y-82550000D01*
%TO.C,Q10*%
X112903000Y-97155000D02*
X112903000Y-93345000D01*
X112903000Y-93345000D02*
X109093000Y-93345000D01*
X109093000Y-97155000D02*
X112903000Y-97155000D01*
X109093000Y-93345000D02*
X109093000Y-97155000D01*
D15*
%TO.C,R14*%
X168670500Y-87900742D02*
X168670500Y-88375258D01*
X167625500Y-87900742D02*
X167625500Y-88375258D01*
%TO.C,R13*%
X178801500Y-87900742D02*
X178801500Y-88375258D01*
X179846500Y-87900742D02*
X179846500Y-88375258D01*
%TO.C,R12*%
X178068500Y-87900742D02*
X178068500Y-88375258D01*
X177023500Y-87900742D02*
X177023500Y-88375258D01*
%TO.C,R11*%
X169403500Y-87900742D02*
X169403500Y-88375258D01*
X170448500Y-87900742D02*
X170448500Y-88375258D01*
%TO.C,R10*%
X178801500Y-92599742D02*
X178801500Y-93074258D01*
X179846500Y-92599742D02*
X179846500Y-93074258D01*
%TO.C,R9*%
X168568900Y-92726742D02*
X168568900Y-93201258D01*
X167523900Y-92726742D02*
X167523900Y-93201258D01*
%TO.C,R8*%
X177966900Y-93074258D02*
X177966900Y-92599742D01*
X176921900Y-93074258D02*
X176921900Y-92599742D01*
%TO.C,R7*%
X169403500Y-93201258D02*
X169403500Y-92726742D01*
X170448500Y-93201258D02*
X170448500Y-92726742D01*
%TO.C,R6*%
X167146500Y-84565258D02*
X167146500Y-84090742D01*
X166101500Y-84565258D02*
X166101500Y-84090742D01*
%TO.C,R5*%
X177560500Y-84565258D02*
X177560500Y-84090742D01*
X176515500Y-84565258D02*
X176515500Y-84090742D01*
%TO.C,R4*%
X171435500Y-84090742D02*
X171435500Y-84565258D01*
X172480500Y-84090742D02*
X172480500Y-84565258D01*
%TO.C,R3*%
X180071500Y-84090742D02*
X180071500Y-84565258D01*
X181116500Y-84090742D02*
X181116500Y-84565258D01*
%TO.C,R2*%
X176896500Y-95774742D02*
X176896500Y-96249258D01*
X177941500Y-95774742D02*
X177941500Y-96249258D01*
%TO.C,R1*%
X169403500Y-96028742D02*
X169403500Y-96503258D01*
X170448500Y-96028742D02*
X170448500Y-96503258D01*
%TO.C,C19*%
X168912000Y-84468580D02*
X168912000Y-84187420D01*
X167892000Y-84468580D02*
X167892000Y-84187420D01*
%TO.C,C18*%
X175897000Y-84468580D02*
X175897000Y-84187420D01*
X174877000Y-84468580D02*
X174877000Y-84187420D01*
%TO.C,C17*%
X174246000Y-84468580D02*
X174246000Y-84187420D01*
X173226000Y-84468580D02*
X173226000Y-84187420D01*
%TO.C,C16*%
X182882000Y-84468580D02*
X182882000Y-84187420D01*
X181862000Y-84468580D02*
X181862000Y-84187420D01*
%TO.C,C14*%
X119403400Y-81901420D02*
X119403400Y-82182580D01*
X120423400Y-81901420D02*
X120423400Y-82182580D01*
%TO.C,C13*%
X132332000Y-82155420D02*
X132332000Y-82436580D01*
X133352000Y-82155420D02*
X133352000Y-82436580D01*
%TO.C,C12*%
X89914000Y-98411420D02*
X89914000Y-98692580D01*
X90934000Y-98411420D02*
X90934000Y-98692580D01*
%TO.C,C11*%
X133352000Y-87262580D02*
X133352000Y-86981420D01*
X132332000Y-87262580D02*
X132332000Y-86981420D01*
%TO.C,C10*%
X120398000Y-87516580D02*
X120398000Y-87235420D01*
X119378000Y-87516580D02*
X119378000Y-87235420D01*
%TO.C,C9*%
X87983600Y-98411420D02*
X87983600Y-98692580D01*
X89003600Y-98411420D02*
X89003600Y-98692580D01*
%TO.C,C8*%
X119640468Y-98030420D02*
X119640468Y-98311580D01*
X120660468Y-98030420D02*
X120660468Y-98311580D01*
%TO.C,C7*%
X165860000Y-87997420D02*
X165860000Y-88278580D01*
X166880000Y-87997420D02*
X166880000Y-88278580D01*
%TO.C,C6*%
X180592000Y-87997420D02*
X180592000Y-88278580D01*
X181612000Y-87997420D02*
X181612000Y-88278580D01*
%TO.C,C5*%
X117904800Y-98030420D02*
X117904800Y-98311580D01*
X118924800Y-98030420D02*
X118924800Y-98311580D01*
%TO.C,C4*%
X166778400Y-92823420D02*
X166778400Y-93104580D01*
X165758400Y-92823420D02*
X165758400Y-93104580D01*
%TO.C,C3*%
X180592000Y-92696420D02*
X180592000Y-92977580D01*
X181612000Y-92696420D02*
X181612000Y-92977580D01*
%TO.C,C2*%
X174357420Y-95633000D02*
X174638580Y-95633000D01*
X174357420Y-94613000D02*
X174638580Y-94613000D01*
%TO.C,C1*%
X174638580Y-96391000D02*
X174357420Y-96391000D01*
X174638580Y-97411000D02*
X174357420Y-97411000D01*
D10*
%TO.C,U4*%
X115699000Y-88493600D02*
X115699000Y-80873600D01*
X115699000Y-80873600D02*
X107444000Y-80873600D01*
X107444000Y-80873600D02*
X107444000Y-88493600D01*
X107444000Y-88493600D02*
X115699000Y-88493600D01*
%TO.C,P1*%
X201422000Y-112268000D02*
X198882000Y-112268000D01*
X201422000Y-81788000D02*
X198882000Y-81788000D01*
X198882000Y-86868000D02*
X198882000Y-112268000D01*
X201422000Y-112268000D02*
X201422000Y-86868000D01*
X198882000Y-81788000D02*
X198882000Y-86868000D01*
X201422000Y-86868000D02*
X201422000Y-81788000D01*
X186182000Y-86868000D02*
X186182000Y-81788000D01*
X183642000Y-81788000D02*
X183642000Y-86868000D01*
X186182000Y-112268000D02*
X186182000Y-86868000D01*
X183642000Y-86868000D02*
X183642000Y-112268000D01*
X186182000Y-81788000D02*
X183642000Y-81788000D01*
X186182000Y-112268000D02*
X183642000Y-112268000D01*
%TO.C,C15*%
X205042200Y-100209600D02*
X203542200Y-100209600D01*
X205042200Y-104209600D02*
X205042200Y-100209600D01*
X203542200Y-104209600D02*
X205042200Y-104209600D01*
X203542200Y-100209600D02*
X203542200Y-104209600D01*
%TO.C,CON1*%
X105584000Y-91852000D02*
X105584000Y-74852000D01*
X95584000Y-91852000D02*
X105584000Y-91852000D01*
X95584000Y-91852000D02*
X95584000Y-88852000D01*
X95584000Y-82852000D02*
X95584000Y-74852000D01*
%TO.C,D1*%
X146939000Y-103505000D02*
X146939000Y-99695000D01*
X143129000Y-103505000D02*
X146939000Y-103505000D01*
X143129000Y-99695000D02*
X143129000Y-103505000D01*
X146939000Y-99695000D02*
X143129000Y-99695000D01*
%TO.C,D2*%
X95631000Y-103251000D02*
X95631000Y-99441000D01*
X91821000Y-103251000D02*
X95631000Y-103251000D01*
X91821000Y-99441000D02*
X91821000Y-103251000D01*
X95631000Y-99441000D02*
X91821000Y-99441000D01*
%TO.C,D3*%
X99949000Y-103251000D02*
X99949000Y-99441000D01*
X96139000Y-103251000D02*
X99949000Y-103251000D01*
X96139000Y-99441000D02*
X96139000Y-103251000D01*
X99949000Y-99441000D02*
X96139000Y-99441000D01*
%TO.C,D4*%
X175895000Y-103505000D02*
X175895000Y-99695000D01*
X172085000Y-103505000D02*
X175895000Y-103505000D01*
X172085000Y-99695000D02*
X172085000Y-103505000D01*
X175895000Y-99695000D02*
X172085000Y-99695000D01*
%TO.C,D5*%
X104267000Y-103251000D02*
X104267000Y-99441000D01*
X100457000Y-103251000D02*
X104267000Y-103251000D01*
X100457000Y-99441000D02*
X100457000Y-103251000D01*
X104267000Y-99441000D02*
X100457000Y-99441000D01*
%TO.C,D6*%
X141859000Y-103505000D02*
X141859000Y-99695000D01*
X138049000Y-103505000D02*
X141859000Y-103505000D01*
X138049000Y-99695000D02*
X138049000Y-103505000D01*
X141859000Y-99695000D02*
X138049000Y-99695000D01*
%TO.C,D7*%
X108585000Y-103251000D02*
X108585000Y-99441000D01*
X104775000Y-103251000D02*
X108585000Y-103251000D01*
X104775000Y-99441000D02*
X104775000Y-103251000D01*
X108585000Y-99441000D02*
X104775000Y-99441000D01*
%TO.C,D8*%
X171577000Y-103505000D02*
X171577000Y-99695000D01*
X167767000Y-103505000D02*
X171577000Y-103505000D01*
X167767000Y-99695000D02*
X167767000Y-103505000D01*
X171577000Y-99695000D02*
X167767000Y-99695000D01*
%TO.C,D9*%
X136779000Y-103505000D02*
X136779000Y-99695000D01*
X132969000Y-103505000D02*
X136779000Y-103505000D01*
X132969000Y-99695000D02*
X132969000Y-103505000D01*
X136779000Y-99695000D02*
X132969000Y-99695000D01*
%TO.C,D10*%
X112903000Y-103251000D02*
X112903000Y-99441000D01*
X109093000Y-103251000D02*
X112903000Y-103251000D01*
X109093000Y-99441000D02*
X109093000Y-103251000D01*
X112903000Y-99441000D02*
X109093000Y-99441000D01*
%TO.C,D11*%
X158369000Y-103505000D02*
X158369000Y-99695000D01*
X154559000Y-103505000D02*
X158369000Y-103505000D01*
X154559000Y-99695000D02*
X154559000Y-103505000D01*
X158369000Y-99695000D02*
X154559000Y-99695000D01*
%TO.C,D12*%
X117221000Y-103251000D02*
X117221000Y-99441000D01*
X113411000Y-103251000D02*
X117221000Y-103251000D01*
X113411000Y-99441000D02*
X113411000Y-103251000D01*
X117221000Y-99441000D02*
X113411000Y-99441000D01*
%TO.C,JP1*%
X182626000Y-80010000D02*
X182626000Y-82550000D01*
X175006000Y-80010000D02*
X182626000Y-80010000D01*
X175006000Y-82550000D02*
X175006000Y-80010000D01*
X182626000Y-82550000D02*
X175006000Y-82550000D01*
%TO.C,Q1*%
X146685000Y-97917000D02*
X146685000Y-94107000D01*
X146685000Y-94107000D02*
X142875000Y-94107000D01*
X142875000Y-97917000D02*
X146685000Y-97917000D01*
X142875000Y-94107000D02*
X142875000Y-97917000D01*
%TO.C,Q2*%
X95631000Y-97155000D02*
X95631000Y-93345000D01*
X95631000Y-93345000D02*
X91821000Y-93345000D01*
X91821000Y-97155000D02*
X95631000Y-97155000D01*
X91821000Y-93345000D02*
X91821000Y-97155000D01*
%TO.C,Q3*%
X99949000Y-97155000D02*
X99949000Y-93345000D01*
X99949000Y-93345000D02*
X96139000Y-93345000D01*
X96139000Y-97155000D02*
X99949000Y-97155000D01*
X96139000Y-93345000D02*
X96139000Y-97155000D01*
%TO.C,Q4*%
X180467000Y-103505000D02*
X180467000Y-99695000D01*
X180467000Y-99695000D02*
X176657000Y-99695000D01*
X176657000Y-103505000D02*
X180467000Y-103505000D01*
X176657000Y-99695000D02*
X176657000Y-103505000D01*
%TO.C,Q5*%
X104267000Y-97155000D02*
X104267000Y-93345000D01*
X104267000Y-93345000D02*
X100457000Y-93345000D01*
X100457000Y-97155000D02*
X104267000Y-97155000D01*
X100457000Y-93345000D02*
X100457000Y-97155000D01*
%TO.C,Q6*%
X141859000Y-97917000D02*
X141859000Y-94107000D01*
X141859000Y-94107000D02*
X138049000Y-94107000D01*
X138049000Y-97917000D02*
X141859000Y-97917000D01*
X138049000Y-94107000D02*
X138049000Y-97917000D01*
%TO.C,Q7*%
X108585000Y-97155000D02*
X108585000Y-93345000D01*
X108585000Y-93345000D02*
X104775000Y-93345000D01*
X104775000Y-97155000D02*
X108585000Y-97155000D01*
X104775000Y-93345000D02*
X104775000Y-97155000D01*
%TO.C,Q8*%
X167259000Y-103505000D02*
X167259000Y-99695000D01*
X167259000Y-99695000D02*
X163449000Y-99695000D01*
X163449000Y-103505000D02*
X167259000Y-103505000D01*
X163449000Y-99695000D02*
X163449000Y-103505000D01*
%TO.C,Q9*%
X136779000Y-97917000D02*
X136779000Y-94107000D01*
X136779000Y-94107000D02*
X132969000Y-94107000D01*
X132969000Y-97917000D02*
X136779000Y-97917000D01*
X132969000Y-94107000D02*
X132969000Y-97917000D01*
%TO.C,Q11*%
X162687000Y-103505000D02*
X162687000Y-99695000D01*
X162687000Y-99695000D02*
X158877000Y-99695000D01*
X158877000Y-103505000D02*
X162687000Y-103505000D01*
X158877000Y-99695000D02*
X158877000Y-103505000D01*
%TO.C,Q12*%
X117221000Y-97155000D02*
X117221000Y-93345000D01*
X117221000Y-93345000D02*
X113411000Y-93345000D01*
X113411000Y-97155000D02*
X117221000Y-97155000D01*
X113411000Y-93345000D02*
X113411000Y-97155000D01*
D15*
%TO.C,U3*%
X130914600Y-88119000D02*
X124904600Y-88119000D01*
X128664600Y-81299000D02*
X124904600Y-81299000D01*
X124904600Y-88119000D02*
X124904600Y-86859000D01*
X124904600Y-81299000D02*
X124904600Y-82559000D01*
D10*
%TO.C,P2*%
X127254000Y-106680000D02*
X127254000Y-107950000D01*
X127254000Y-104140000D02*
X127254000Y-105410000D01*
X129794000Y-104140000D02*
X128524000Y-104140000D01*
X132334000Y-104140000D02*
X131064000Y-104140000D01*
X134874000Y-104140000D02*
X133604000Y-104140000D01*
X137414000Y-104140000D02*
X136144000Y-104140000D01*
X139954000Y-104140000D02*
X138684000Y-104140000D01*
X142494000Y-104140000D02*
X141224000Y-104140000D01*
X145034000Y-104140000D02*
X143764000Y-104140000D01*
X147574000Y-104140000D02*
X146304000Y-104140000D01*
X147574000Y-106680000D02*
X147574000Y-105410000D01*
X147574000Y-108712000D02*
X147574000Y-107950000D01*
X123494800Y-109042200D02*
X123494800Y-118821200D01*
X151333200Y-118821200D02*
X123494800Y-118821200D01*
X151333200Y-109042200D02*
X151333200Y-118821200D01*
X123494800Y-109042200D02*
X151333200Y-109042200D01*
%TO.C,P3*%
X153085800Y-109042200D02*
X180924200Y-109042200D01*
X180924200Y-109042200D02*
X180924200Y-118821200D01*
X180924200Y-118821200D02*
X153085800Y-118821200D01*
X153085800Y-109042200D02*
X153085800Y-118821200D01*
X177165000Y-108712000D02*
X177165000Y-107950000D01*
X177165000Y-106680000D02*
X177165000Y-105410000D01*
X177165000Y-104140000D02*
X175895000Y-104140000D01*
X174625000Y-104140000D02*
X173355000Y-104140000D01*
X172085000Y-104140000D02*
X170815000Y-104140000D01*
X169545000Y-104140000D02*
X168275000Y-104140000D01*
X167005000Y-104140000D02*
X165735000Y-104140000D01*
X164465000Y-104140000D02*
X163195000Y-104140000D01*
X161925000Y-104140000D02*
X160655000Y-104140000D01*
X159385000Y-104140000D02*
X158115000Y-104140000D01*
X156845000Y-104140000D02*
X156845000Y-105410000D01*
X156845000Y-106680000D02*
X156845000Y-107950000D01*
%TO.C,P4*%
X97790000Y-106680000D02*
X97790000Y-107950000D01*
X97790000Y-104140000D02*
X97790000Y-105410000D01*
X100330000Y-104140000D02*
X99060000Y-104140000D01*
X102870000Y-104140000D02*
X101600000Y-104140000D01*
X105410000Y-104140000D02*
X104140000Y-104140000D01*
X107950000Y-104140000D02*
X106680000Y-104140000D01*
X110490000Y-104140000D02*
X109220000Y-104140000D01*
X113030000Y-104140000D02*
X111760000Y-104140000D01*
X115570000Y-104140000D02*
X114300000Y-104140000D01*
X118110000Y-104140000D02*
X116840000Y-104140000D01*
X118110000Y-106680000D02*
X118110000Y-105410000D01*
X118110000Y-108712000D02*
X118110000Y-107950000D01*
X94030800Y-109042200D02*
X94030800Y-118821200D01*
X121869200Y-118821200D02*
X94030800Y-118821200D01*
X121869200Y-109042200D02*
X121869200Y-118821200D01*
X94030800Y-109042200D02*
X121869200Y-109042200D01*
%TO.C,U1*%
X172081000Y-91440000D02*
G75*
G03*
X172081000Y-91440000I-250000J0D01*
G01*
X171196000Y-92075000D02*
X171196000Y-88265000D01*
X176276000Y-92075000D02*
X171196000Y-92075000D01*
X176276000Y-88265000D02*
X176276000Y-92075000D01*
X171196000Y-88265000D02*
X176276000Y-88265000D01*
%TD*%
D16*
%TO.C,P1*%
X200152000Y-83058000D03*
X200152000Y-85598000D03*
X200152000Y-88138000D03*
X200152000Y-90678000D03*
X200152000Y-93218000D03*
X200152000Y-95758000D03*
X200152000Y-98298000D03*
X200152000Y-103378000D03*
X200152000Y-105918000D03*
X200152000Y-108458000D03*
X200152000Y-110998000D03*
X200152000Y-100838000D03*
X184912000Y-100838000D03*
X184912000Y-110998000D03*
X184912000Y-108458000D03*
X184912000Y-105918000D03*
X184912000Y-103378000D03*
X184912000Y-98298000D03*
X184912000Y-95758000D03*
X184912000Y-93218000D03*
X184912000Y-90678000D03*
X184912000Y-88138000D03*
X184912000Y-85598000D03*
X184912000Y-83058000D03*
%TD*%
D17*
%TO.C,C15*%
X204292200Y-100959600D03*
X204292200Y-103459600D03*
%TD*%
D18*
%TO.C,CON1*%
X95884000Y-85852000D03*
X100584000Y-82852000D03*
X100584000Y-88852000D03*
%TD*%
D19*
%TO.C,P5*%
X124510800Y-104394000D03*
X124510800Y-106934000D03*
%TD*%
%TO.C,P6*%
X152831800Y-104749600D03*
X152831800Y-107289600D03*
%TD*%
D20*
%TO.C,P2*%
X128524000Y-107950000D03*
X128524000Y-105410000D03*
X131064000Y-107950000D03*
X131064000Y-105410000D03*
X133604000Y-107950000D03*
X133604000Y-105410000D03*
X136144000Y-107950000D03*
X136144000Y-105410000D03*
X138684000Y-107950000D03*
X138684000Y-105410000D03*
X141224000Y-107950000D03*
X141224000Y-105410000D03*
X143764000Y-107950000D03*
X143764000Y-105410000D03*
X146304000Y-107950000D03*
X146304000Y-105410000D03*
%TD*%
%TO.C,P3*%
X175895000Y-105410000D03*
X175895000Y-107950000D03*
X173355000Y-105410000D03*
X173355000Y-107950000D03*
X170815000Y-105410000D03*
X170815000Y-107950000D03*
X168275000Y-105410000D03*
X168275000Y-107950000D03*
X165735000Y-105410000D03*
X165735000Y-107950000D03*
X163195000Y-105410000D03*
X163195000Y-107950000D03*
X160655000Y-105410000D03*
X160655000Y-107950000D03*
X158115000Y-105410000D03*
X158115000Y-107950000D03*
%TD*%
%TO.C,P4*%
X99060000Y-107950000D03*
X99060000Y-105410000D03*
X101600000Y-107950000D03*
X101600000Y-105410000D03*
X104140000Y-107950000D03*
X104140000Y-105410000D03*
X106680000Y-107950000D03*
X106680000Y-105410000D03*
X109220000Y-107950000D03*
X109220000Y-105410000D03*
X111760000Y-107950000D03*
X111760000Y-105410000D03*
X114300000Y-107950000D03*
X114300000Y-105410000D03*
X116840000Y-107950000D03*
X116840000Y-105410000D03*
%TD*%
D19*
%TO.C,P7*%
X87579200Y-89611200D03*
X87579200Y-92151200D03*
%TD*%
M02*
