G04 #@! TF.GenerationSoftware,KiCad,Pcbnew,(5.1.2-1)-1*
G04 #@! TF.CreationDate,2019-11-08T10:28:15-05:00*
G04 #@! TF.ProjectId,flow_rate,666c6f77-5f72-4617-9465-2e6b69636164,rev?*
G04 #@! TF.SameCoordinates,Original*
G04 #@! TF.FileFunction,Soldermask,Bot*
G04 #@! TF.FilePolarity,Negative*
%FSLAX46Y46*%
G04 Gerber Fmt 4.6, Leading zero omitted, Abs format (unit mm)*
G04 Created by KiCad (PCBNEW (5.1.2-1)-1) date 2019-11-08 10:28:15*
%MOMM*%
%LPD*%
G04 APERTURE LIST*
%ADD10C,0.100000*%
G04 APERTURE END LIST*
D10*
G36*
X210676442Y-50667518D02*
G01*
X210742627Y-50674037D01*
X210912466Y-50725557D01*
X211068991Y-50809222D01*
X211104729Y-50838552D01*
X211206186Y-50921814D01*
X211289448Y-51023271D01*
X211318778Y-51059009D01*
X211402443Y-51215534D01*
X211453963Y-51385373D01*
X211471359Y-51562000D01*
X211453963Y-51738627D01*
X211402443Y-51908466D01*
X211318778Y-52064991D01*
X211289448Y-52100729D01*
X211206186Y-52202186D01*
X211104729Y-52285448D01*
X211068991Y-52314778D01*
X210912466Y-52398443D01*
X210742627Y-52449963D01*
X210676443Y-52456481D01*
X210610260Y-52463000D01*
X210521740Y-52463000D01*
X210455557Y-52456481D01*
X210389373Y-52449963D01*
X210219534Y-52398443D01*
X210063009Y-52314778D01*
X210027271Y-52285448D01*
X209925814Y-52202186D01*
X209842552Y-52100729D01*
X209813222Y-52064991D01*
X209729557Y-51908466D01*
X209678037Y-51738627D01*
X209660641Y-51562000D01*
X209678037Y-51385373D01*
X209729557Y-51215534D01*
X209813222Y-51059009D01*
X209842552Y-51023271D01*
X209925814Y-50921814D01*
X210027271Y-50838552D01*
X210063009Y-50809222D01*
X210219534Y-50725557D01*
X210389373Y-50674037D01*
X210455558Y-50667518D01*
X210521740Y-50661000D01*
X210610260Y-50661000D01*
X210676442Y-50667518D01*
X210676442Y-50667518D01*
G37*
G36*
X208927000Y-52463000D02*
G01*
X207125000Y-52463000D01*
X207125000Y-50661000D01*
X208927000Y-50661000D01*
X208927000Y-52463000D01*
X208927000Y-52463000D01*
G37*
G36*
X216505331Y-39225711D02*
G01*
X216833092Y-39361474D01*
X217128070Y-39558572D01*
X217378928Y-39809430D01*
X217576026Y-40104408D01*
X217711789Y-40432169D01*
X217781000Y-40780116D01*
X217781000Y-41134884D01*
X217711789Y-41482831D01*
X217576026Y-41810592D01*
X217378928Y-42105570D01*
X217128070Y-42356428D01*
X216833092Y-42553526D01*
X216505331Y-42689289D01*
X216157384Y-42758500D01*
X215802616Y-42758500D01*
X215454669Y-42689289D01*
X215126908Y-42553526D01*
X214831930Y-42356428D01*
X214581072Y-42105570D01*
X214383974Y-41810592D01*
X214248211Y-41482831D01*
X214179000Y-41134884D01*
X214179000Y-40780116D01*
X214248211Y-40432169D01*
X214383974Y-40104408D01*
X214581072Y-39809430D01*
X214831930Y-39558572D01*
X215126908Y-39361474D01*
X215454669Y-39225711D01*
X215802616Y-39156500D01*
X216157384Y-39156500D01*
X216505331Y-39225711D01*
X216505331Y-39225711D01*
G37*
G36*
X203805331Y-39225711D02*
G01*
X204133092Y-39361474D01*
X204428070Y-39558572D01*
X204678928Y-39809430D01*
X204876026Y-40104408D01*
X205011789Y-40432169D01*
X205081000Y-40780116D01*
X205081000Y-41134884D01*
X205011789Y-41482831D01*
X204876026Y-41810592D01*
X204678928Y-42105570D01*
X204428070Y-42356428D01*
X204133092Y-42553526D01*
X203805331Y-42689289D01*
X203457384Y-42758500D01*
X203102616Y-42758500D01*
X202754669Y-42689289D01*
X202426908Y-42553526D01*
X202131930Y-42356428D01*
X201881072Y-42105570D01*
X201683974Y-41810592D01*
X201548211Y-41482831D01*
X201479000Y-41134884D01*
X201479000Y-40780116D01*
X201548211Y-40432169D01*
X201683974Y-40104408D01*
X201881072Y-39809430D01*
X202131930Y-39558572D01*
X202426908Y-39361474D01*
X202754669Y-39225711D01*
X203102616Y-39156500D01*
X203457384Y-39156500D01*
X203805331Y-39225711D01*
X203805331Y-39225711D01*
G37*
M02*
