M48
; DRILL file {KiCad (5.1.9-0-10_14)} date Friday, May 14, 2021 at 05:34:52 PM
; FORMAT={-:-/ absolute / metric / decimal}
; #@! TF.CreationDate,2021-05-14T17:34:52-04:00
; #@! TF.GenerationSoftware,Kicad,Pcbnew,(5.1.9-0-10_14)
; #@! TF.FileFunction,Plated,1,4,PTH
FMAT,2
METRIC
T1C0.400
T2C0.510
T3C0.762
T4C0.780
T5C0.813
T6C1.016
T7C1.300
T8C1.930
T9C3.050
T10C3.350
T11C4.500
%
G90
G05
T1
X109.83Y-54.762
X110.998Y-53.543
X116.078Y-50.394
X119.482Y-99.609
X121.056Y-98.755
X126.035Y-100.99
X127.254Y-100.99
T2
X38.1Y-89.459
X40.437Y-46.431
X40.64Y-90.485
X42.977Y-50.241
X45.517Y-78.689
X45.568Y-51.257
X46.533Y-54.762
X48.057Y-52.273
X48.057Y-81.229
X51.003Y-83.769
X72.238Y-82.499
X73.457Y-97.282
X74.676Y-85.039
X75.997Y-96.317
X77.216Y-70.581
X79.756Y-69.555
X80.264Y-53.543
X88.697Y-46.38
X91.237Y-50.221
X105.512Y-93.481
X105.562Y-78.638
X107.137Y-81.026
X108.102Y-92.455
X122.428Y-51.206
X122.479Y-68.428
X124.968Y-52.273
X125.019Y-66.04
X135.128Y-63.551
X137.668Y-61.214
X140.208Y-84.877
X142.799Y-85.903
X156.21Y-55.87
X156.21Y-97.292
X158.699Y-96.266
X158.75Y-56.896
T3
X38.1Y-30.48
X38.1Y-121.92
X40.64Y-30.48
X40.64Y-121.92
X43.993Y-48.26
X43.993Y-104.14
X46.533Y-48.26
X46.533Y-104.14
X49.073Y-48.26
X49.073Y-104.14
X51.613Y-48.26
X51.613Y-104.14
X54.973Y-30.48
X54.973Y-121.92
X57.513Y-30.48
X57.513Y-121.92
X71.846Y-30.48
X71.846Y-121.92
X74.386Y-30.48
X74.386Y-121.92
X77.739Y-48.26
X77.739Y-104.14
X80.279Y-48.26
X80.279Y-104.14
X82.819Y-48.26
X82.819Y-104.14
X85.359Y-48.26
X85.359Y-104.14
X88.719Y-30.48
X88.719Y-121.92
X91.259Y-30.48
X91.259Y-121.92
X105.591Y-30.48
X105.591Y-121.92
X108.131Y-30.48
X108.131Y-121.92
X111.484Y-48.26
X111.484Y-104.14
X114.024Y-48.26
X114.024Y-104.14
X116.564Y-48.26
X116.564Y-104.14
X119.104Y-48.26
X119.104Y-104.14
X122.464Y-30.48
X122.464Y-121.92
X125.004Y-30.48
X125.004Y-121.92
X139.337Y-30.48
X139.337Y-121.92
X141.877Y-30.48
X141.877Y-121.92
X145.23Y-48.26
X145.23Y-104.14
X147.77Y-48.26
X147.77Y-104.14
X150.31Y-48.26
X150.31Y-104.14
X152.85Y-48.26
X152.85Y-104.14
X156.21Y-30.48
X156.21Y-121.92
X158.75Y-30.48
X158.75Y-121.92
T4
X215.659Y-33.081
X215.659Y-35.621
X215.659Y-38.161
X215.659Y-49.819
X215.659Y-52.359
X215.659Y-54.899
X218.199Y-31.791
X218.199Y-34.331
X218.199Y-36.871
X218.199Y-48.529
X218.199Y-51.069
X218.199Y-53.609
T5
X32.824Y-59.632
X32.824Y-87.572
X35.364Y-59.632
X35.364Y-87.572
X37.904Y-59.632
X37.904Y-87.572
X40.444Y-59.632
X40.444Y-87.572
X42.984Y-59.632
X42.984Y-87.572
X45.524Y-59.632
X45.524Y-87.572
X48.064Y-59.632
X48.064Y-87.572
X50.604Y-59.632
X50.604Y-87.572
X53.144Y-59.632
X53.144Y-87.572
X55.684Y-59.632
X55.684Y-87.572
X58.224Y-59.632
X58.224Y-87.572
X60.764Y-59.632
X60.764Y-87.572
X63.304Y-59.632
X63.304Y-87.572
X65.844Y-59.632
X65.844Y-87.572
X68.384Y-59.632
X68.384Y-87.572
X70.924Y-59.632
X70.924Y-87.572
X73.464Y-59.632
X73.464Y-87.572
X76.004Y-59.632
X76.004Y-87.572
X78.544Y-59.632
X78.544Y-87.572
X81.084Y-59.632
X81.084Y-87.572
X83.624Y-59.632
X83.624Y-87.572
X86.164Y-59.632
X86.164Y-87.572
X88.704Y-59.632
X88.704Y-87.572
X91.244Y-59.632
X91.244Y-87.572
X91.313Y-62.166
X91.313Y-64.706
X91.313Y-67.246
X91.313Y-69.787
X91.313Y-72.326
X91.313Y-74.867
X91.313Y-77.406
X91.313Y-79.947
X91.313Y-82.486
X91.313Y-85.026
X93.784Y-59.632
X93.784Y-87.572
X93.789Y-62.166
X93.789Y-64.706
X93.789Y-67.246
X93.789Y-69.787
X93.789Y-72.326
X93.789Y-74.867
X93.789Y-77.406
X93.789Y-79.947
X93.789Y-82.486
X93.789Y-85.026
X108.458Y-59.627
X108.458Y-87.566
X110.998Y-59.627
X110.998Y-87.566
X113.538Y-59.627
X113.538Y-87.566
X116.078Y-59.627
X116.078Y-87.566
X118.618Y-59.627
X118.618Y-87.566
X121.158Y-59.627
X121.158Y-87.566
X123.698Y-59.627
X123.698Y-87.566
X126.238Y-59.627
X126.238Y-87.566
X128.778Y-59.627
X128.778Y-87.566
X131.318Y-59.627
X131.318Y-87.566
X133.858Y-59.627
X133.858Y-87.566
X136.398Y-59.627
X136.398Y-87.566
X138.938Y-59.627
X138.938Y-87.566
X141.478Y-59.627
X141.478Y-87.566
X144.018Y-59.627
X144.018Y-87.566
X146.558Y-59.627
X146.558Y-87.566
X149.098Y-59.627
X149.098Y-87.566
X151.638Y-59.627
X151.638Y-87.566
X154.178Y-59.627
X154.178Y-87.566
X156.718Y-59.627
X156.718Y-87.566
X159.258Y-59.627
X159.258Y-87.566
X161.798Y-59.627
X161.798Y-87.566
X164.338Y-59.627
X164.338Y-87.566
X166.878Y-59.627
X166.878Y-87.566
X169.418Y-59.627
X169.418Y-87.566
X191.77Y-94.996
X191.77Y-110.236
X194.31Y-94.996
X194.31Y-110.236
X196.85Y-94.996
X196.85Y-110.236
X199.39Y-94.996
X199.39Y-110.236
X201.93Y-94.996
X201.93Y-110.236
X204.47Y-94.996
X204.47Y-110.236
X207.01Y-94.996
X207.01Y-110.236
X209.55Y-94.996
X209.55Y-110.236
X212.09Y-94.996
X212.09Y-110.236
X214.63Y-94.996
X214.63Y-110.236
X217.17Y-94.996
X217.17Y-110.236
X219.71Y-94.996
X219.71Y-110.236
T6
X183.134Y-59.627
X183.134Y-74.867
X185.674Y-59.627
X185.674Y-74.867
X188.214Y-59.627
X188.214Y-74.867
X190.754Y-59.627
X190.754Y-74.867
X193.294Y-59.627
X193.294Y-74.867
X195.834Y-59.627
X195.834Y-74.867
X198.374Y-59.627
X198.374Y-74.867
X200.914Y-59.627
X200.914Y-74.867
X203.454Y-59.627
X203.454Y-74.867
T7
X172.771Y-28.804
X175.311Y-28.804
T8
X190.015Y-35.306
X201.145Y-35.306
T9
X217.904Y-71.095
X220.904Y-66.395
X223.904Y-71.095
T10
X224.549Y-29.881
X224.549Y-40.041
X224.549Y-46.619
X224.549Y-56.779
T11
X29.21Y-38.1
X29.21Y-114.3
X167.64Y-38.1
X167.64Y-114.3
T0
M30
