  0
SECTION
  2
HEADER
  9
$ANGBASE
  50
0.0
  9
$ANGDIR
  70
  1
  9
$MEASUREMENT
  70
0
  0
ENDSEC
  0
SECTION
  2
TABLES
  0
TABLE
  2
LTYPE
  70
1
  0
LTYPE
  2
CONTINUOUS
  70
0
  3
Solid line
  72
65
  73
0
  40
0.0
  0
ENDTAB
  0
TABLE
  2
STYLE
  70
4
  0
STYLE
  2
KICAD
  70
0
  40
0
  41
1
  42
1
  50
0
  71
0
  3
isocp.shx
  0
STYLE
  2
KICADB
  70
0
  40
0
  41
1
  42
1
  50
0
  71
0
  3
isocp.shx
  0
STYLE
  2
KICADI
  70
0
  40
0
  41
1
  42
1
  50
15
  71
0
  3
isocp.shx
  0
STYLE
  2
KICADBI
  70
0
  40
0
  41
1
  42
1
  50
15
  71
0
  3
isocp.shx
  0
ENDTAB
  0
TABLE
  2
LAYER
  70
30
  0
LAYER
  2
BLACK
  70
0
  62
7
  6
CONTINUOUS
  0
LAYER
  2
GRAY1
  70
0
  62
251
  6
CONTINUOUS
  0
LAYER
  2
GRAY2
  70
0
  62
8
  6
CONTINUOUS
  0
LAYER
  2
GRAY3
  70
0
  62
9
  6
CONTINUOUS
  0
LAYER
  2
WHITE
  70
0
  62
7
  6
CONTINUOUS
  0
LAYER
  2
LYELLOW
  70
0
  62
51
  6
CONTINUOUS
  0
LAYER
  2
BLUE1
  70
0
  62
178
  6
CONTINUOUS
  0
LAYER
  2
GREEN1
  70
0
  62
98
  6
CONTINUOUS
  0
LAYER
  2
CYAN1
  70
0
  62
138
  6
CONTINUOUS
  0
LAYER
  2
RED1
  70
0
  62
18
  6
CONTINUOUS
  0
LAYER
  2
MAGENTA1
  70
0
  62
228
  6
CONTINUOUS
  0
LAYER
  2
BROWN1
  70
0
  62
58
  6
CONTINUOUS
  0
LAYER
  2
BLUE2
  70
0
  62
5
  6
CONTINUOUS
  0
LAYER
  2
GREEN2
  70
0
  62
3
  6
CONTINUOUS
  0
LAYER
  2
CYAN2
  70
0
  62
4
  6
CONTINUOUS
  0
LAYER
  2
RED2
  70
0
  62
1
  6
CONTINUOUS
  0
LAYER
  2
MAGENTA2
  70
0
  62
6
  6
CONTINUOUS
  0
LAYER
  2
BROWN2
  70
0
  62
54
  6
CONTINUOUS
  0
LAYER
  2
BLUE3
  70
0
  62
171
  6
CONTINUOUS
  0
LAYER
  2
GREEN3
  70
0
  62
91
  6
CONTINUOUS
  0
LAYER
  2
CYAN3
  70
0
  62
131
  6
CONTINUOUS
  0
LAYER
  2
RED3
  70
0
  62
11
  6
CONTINUOUS
  0
LAYER
  2
MAGENTA3
  70
0
  62
221
  6
CONTINUOUS
  0
LAYER
  2
YELLOW3
  70
0
  62
2
  6
CONTINUOUS
  0
LAYER
  2
BLUE4
  70
0
  62
5
  6
CONTINUOUS
  0
LAYER
  2
GREEN4
  70
0
  62
3
  6
CONTINUOUS
  0
LAYER
  2
CYAN4
  70
0
  62
4
  6
CONTINUOUS
  0
LAYER
  2
RED4
  70
0
  62
1
  6
CONTINUOUS
  0
LAYER
  2
MAGENTA4
  70
0
  62
6
  6
CONTINUOUS
  0
LAYER
  2
YELLOW4
  70
0
  62
2
  6
CONTINUOUS
  0
ENDTAB
  0
ENDSEC
  0
SECTION
  2
ENTITIES
0
LINE
8
Black
10
345.446
20
-16.4361
11
345.453
21
-16.4361
0
LINE
8
Black
10
345.453
20
-16.4361
11
345.459
21
-16.4384
0
LINE
8
Black
10
345.459
20
-16.4384
11
345.466
21
-16.4395
0
LINE
8
Black
10
345.466
20
-16.4395
11
345.471
21
-16.4428
0
LINE
8
Black
10
345.471
20
-16.4428
11
345.477
21
-16.445
0
LINE
8
Black
10
345.477
20
-16.445
11
345.483
21
-16.4493
0
LINE
8
Black
10
345.483
20
-16.4493
11
345.488
21
-16.4525
0
LINE
8
Black
10
345.488
20
-16.4525
11
345.492
21
-16.4576
0
LINE
8
Black
10
345.492
20
-16.4576
11
345.497
21
-16.4618
0
LINE
8
Black
10
345.497
20
-16.4618
11
345.501
21
-16.4675
0
LINE
8
Black
10
345.501
20
-16.4675
11
345.505
21
-16.4725
0
LINE
8
Black
10
345.505
20
-16.4725
11
345.507
21
-16.4787
0
LINE
8
Black
10
345.507
20
-16.4787
11
345.51
21
-16.4843
0
LINE
8
Black
10
345.51
20
-16.4843
11
345.512
21
-16.4908
0
LINE
8
Black
10
345.512
20
-16.4908
11
345.514
21
-16.497
0
LINE
8
Black
10
345.514
20
-16.497
11
345.514
21
-16.5035
0
LINE
8
Black
10
345.514
20
-16.5035
11
345.515
21
-16.51
0
LINE
8
Black
10
345.515
20
-16.51
11
345.515
21
-456.565
0
LINE
8
Black
10
345.515
20
-456.565
11
345.514
21
-456.571
0
LINE
8
Black
10
345.514
20
-456.571
11
345.514
21
-456.578
0
LINE
8
Black
10
345.514
20
-456.578
11
345.512
21
-456.584
0
LINE
8
Black
10
345.512
20
-456.584
11
345.51
21
-456.591
0
LINE
8
Black
10
345.51
20
-456.591
11
345.507
21
-456.596
0
LINE
8
Black
10
345.507
20
-456.596
11
345.505
21
-456.602
0
LINE
8
Black
10
345.505
20
-456.602
11
345.501
21
-456.608
0
LINE
8
Black
10
345.501
20
-456.608
11
345.497
21
-456.613
0
LINE
8
Black
10
345.497
20
-456.613
11
345.492
21
-456.617
0
LINE
8
Black
10
345.492
20
-456.617
11
345.488
21
-456.622
0
LINE
8
Black
10
345.488
20
-456.622
11
345.483
21
-456.626
0
LINE
8
Black
10
345.483
20
-456.626
11
345.477
21
-456.63
0
LINE
8
Black
10
345.477
20
-456.63
11
345.471
21
-456.632
0
LINE
8
Black
10
345.471
20
-456.632
11
345.466
21
-456.635
0
LINE
8
Black
10
345.466
20
-456.635
11
345.459
21
-456.637
0
LINE
8
Black
10
345.459
20
-456.637
11
345.453
21
-456.639
0
LINE
8
Black
10
345.453
20
-456.639
11
345.446
21
-456.639
0
LINE
8
Black
10
345.446
20
-456.639
11
345.44
21
-456.64
0
LINE
8
Black
10
345.44
20
-456.64
11
25.4
21
-456.64
0
LINE
8
Black
10
25.4
20
-456.64
11
25.3935
21
-456.639
0
LINE
8
Black
10
25.3935
20
-456.639
11
25.387
21
-456.639
0
LINE
8
Black
10
25.387
20
-456.639
11
25.3808
21
-456.637
0
LINE
8
Black
10
25.3808
20
-456.637
11
25.3743
21
-456.635
0
LINE
8
Black
10
25.3743
20
-456.635
11
25.3687
21
-456.632
0
LINE
8
Black
10
25.3687
20
-456.632
11
25.3625
21
-456.63
0
LINE
8
Black
10
25.3625
20
-456.63
11
25.3575
21
-456.626
0
LINE
8
Black
10
25.3575
20
-456.626
11
25.3518
21
-456.622
0
LINE
8
Black
10
25.3518
20
-456.622
11
25.3476
21
-456.617
0
LINE
8
Black
10
25.3476
20
-456.617
11
25.3425
21
-456.613
0
LINE
8
Black
10
25.3425
20
-456.613
11
25.3393
21
-456.608
0
LINE
8
Black
10
25.3393
20
-456.608
11
25.335
21
-456.602
0
LINE
8
Black
10
25.335
20
-456.602
11
25.3328
21
-456.596
0
LINE
8
Black
10
25.3328
20
-456.596
11
25.3295
21
-456.591
0
LINE
8
Black
10
25.3295
20
-456.591
11
25.3284
21
-456.584
0
LINE
8
Black
10
25.3284
20
-456.584
11
25.3261
21
-456.578
0
LINE
8
Black
10
25.3261
20
-456.578
11
25.3261
21
-456.571
0
LINE
8
Black
10
25.3261
20
-456.571
11
25.325
21
-456.565
0
LINE
8
Black
10
25.325
20
-456.565
11
25.325
21
-16.51
0
LINE
8
Black
10
25.325
20
-16.51
11
25.3261
21
-16.5035
0
LINE
8
Black
10
25.3261
20
-16.5035
11
25.3261
21
-16.497
0
LINE
8
Black
10
25.3261
20
-16.497
11
25.3284
21
-16.4908
0
LINE
8
Black
10
25.3284
20
-16.4908
11
25.3295
21
-16.4843
0
LINE
8
Black
10
25.3295
20
-16.4843
11
25.3328
21
-16.4787
0
LINE
8
Black
10
25.3328
20
-16.4787
11
25.335
21
-16.4725
0
LINE
8
Black
10
25.335
20
-16.4725
11
25.3393
21
-16.4675
0
LINE
8
Black
10
25.3393
20
-16.4675
11
25.3425
21
-16.4618
0
LINE
8
Black
10
25.3425
20
-16.4618
11
25.3476
21
-16.4576
0
LINE
8
Black
10
25.3476
20
-16.4576
11
25.3518
21
-16.4525
0
LINE
8
Black
10
25.3518
20
-16.4525
11
25.3575
21
-16.4493
0
LINE
8
Black
10
25.3575
20
-16.4493
11
25.3625
21
-16.445
0
LINE
8
Black
10
25.3625
20
-16.445
11
25.3687
21
-16.4428
0
LINE
8
Black
10
25.3687
20
-16.4428
11
25.3743
21
-16.4395
0
LINE
8
Black
10
25.3743
20
-16.4395
11
25.3808
21
-16.4384
0
LINE
8
Black
10
25.3808
20
-16.4384
11
25.387
21
-16.4361
0
LINE
8
Black
10
25.387
20
-16.4361
11
25.3935
21
-16.4361
0
LINE
8
Black
10
25.3935
20
-16.4361
11
25.4
21
-16.435
0
LINE
8
Black
10
25.4
20
-16.435
11
345.44
21
-16.435
0
LINE
8
Black
10
345.44
20
-16.435
11
345.446
21
-16.4361
0
LINE
8
Black
10
25.475
20
-16.585
11
25.475
21
-456.49
0
LINE
8
Black
10
25.475
20
-456.49
11
345.365
21
-456.49
0
LINE
8
Black
10
345.365
20
-456.49
11
345.365
21
-16.585
0
LINE
8
Black
10
345.365
20
-16.585
11
25.475
21
-16.585
  0
ENDSEC
  0
EOF
