G04 #@! TF.GenerationSoftware,KiCad,Pcbnew,(5.1.2-1)-1*
G04 #@! TF.CreationDate,2019-11-08T10:29:16-05:00*
G04 #@! TF.ProjectId,flow_rate,666c6f77-5f72-4617-9465-2e6b69636164,rev?*
G04 #@! TF.SameCoordinates,Original*
G04 #@! TF.FileFunction,Copper,L1,Top*
G04 #@! TF.FilePolarity,Positive*
%FSLAX46Y46*%
G04 Gerber Fmt 4.6, Leading zero omitted, Abs format (unit mm)*
G04 Created by KiCad (PCBNEW (5.1.2-1)-1) date 2019-11-08 10:29:16*
%MOMM*%
%LPD*%
G04 APERTURE LIST*
%ADD10C,0.100000*%
%ADD11C,0.975000*%
%ADD12C,1.700000*%
%ADD13O,1.700000X1.950000*%
%ADD14R,1.700000X1.700000*%
%ADD15O,1.700000X1.700000*%
%ADD16C,0.254000*%
G04 APERTURE END LIST*
D10*
G36*
X188052142Y-40449174D02*
G01*
X188075803Y-40452684D01*
X188099007Y-40458496D01*
X188121529Y-40466554D01*
X188143153Y-40476782D01*
X188163670Y-40489079D01*
X188182883Y-40503329D01*
X188200607Y-40519393D01*
X188216671Y-40537117D01*
X188230921Y-40556330D01*
X188243218Y-40576847D01*
X188253446Y-40598471D01*
X188261504Y-40620993D01*
X188267316Y-40644197D01*
X188270826Y-40667858D01*
X188272000Y-40691750D01*
X188272000Y-41604250D01*
X188270826Y-41628142D01*
X188267316Y-41651803D01*
X188261504Y-41675007D01*
X188253446Y-41697529D01*
X188243218Y-41719153D01*
X188230921Y-41739670D01*
X188216671Y-41758883D01*
X188200607Y-41776607D01*
X188182883Y-41792671D01*
X188163670Y-41806921D01*
X188143153Y-41819218D01*
X188121529Y-41829446D01*
X188099007Y-41837504D01*
X188075803Y-41843316D01*
X188052142Y-41846826D01*
X188028250Y-41848000D01*
X187540750Y-41848000D01*
X187516858Y-41846826D01*
X187493197Y-41843316D01*
X187469993Y-41837504D01*
X187447471Y-41829446D01*
X187425847Y-41819218D01*
X187405330Y-41806921D01*
X187386117Y-41792671D01*
X187368393Y-41776607D01*
X187352329Y-41758883D01*
X187338079Y-41739670D01*
X187325782Y-41719153D01*
X187315554Y-41697529D01*
X187307496Y-41675007D01*
X187301684Y-41651803D01*
X187298174Y-41628142D01*
X187297000Y-41604250D01*
X187297000Y-40691750D01*
X187298174Y-40667858D01*
X187301684Y-40644197D01*
X187307496Y-40620993D01*
X187315554Y-40598471D01*
X187325782Y-40576847D01*
X187338079Y-40556330D01*
X187352329Y-40537117D01*
X187368393Y-40519393D01*
X187386117Y-40503329D01*
X187405330Y-40489079D01*
X187425847Y-40476782D01*
X187447471Y-40466554D01*
X187469993Y-40458496D01*
X187493197Y-40452684D01*
X187516858Y-40449174D01*
X187540750Y-40448000D01*
X188028250Y-40448000D01*
X188052142Y-40449174D01*
X188052142Y-40449174D01*
G37*
D11*
X187784500Y-41148000D03*
D10*
G36*
X189927142Y-40449174D02*
G01*
X189950803Y-40452684D01*
X189974007Y-40458496D01*
X189996529Y-40466554D01*
X190018153Y-40476782D01*
X190038670Y-40489079D01*
X190057883Y-40503329D01*
X190075607Y-40519393D01*
X190091671Y-40537117D01*
X190105921Y-40556330D01*
X190118218Y-40576847D01*
X190128446Y-40598471D01*
X190136504Y-40620993D01*
X190142316Y-40644197D01*
X190145826Y-40667858D01*
X190147000Y-40691750D01*
X190147000Y-41604250D01*
X190145826Y-41628142D01*
X190142316Y-41651803D01*
X190136504Y-41675007D01*
X190128446Y-41697529D01*
X190118218Y-41719153D01*
X190105921Y-41739670D01*
X190091671Y-41758883D01*
X190075607Y-41776607D01*
X190057883Y-41792671D01*
X190038670Y-41806921D01*
X190018153Y-41819218D01*
X189996529Y-41829446D01*
X189974007Y-41837504D01*
X189950803Y-41843316D01*
X189927142Y-41846826D01*
X189903250Y-41848000D01*
X189415750Y-41848000D01*
X189391858Y-41846826D01*
X189368197Y-41843316D01*
X189344993Y-41837504D01*
X189322471Y-41829446D01*
X189300847Y-41819218D01*
X189280330Y-41806921D01*
X189261117Y-41792671D01*
X189243393Y-41776607D01*
X189227329Y-41758883D01*
X189213079Y-41739670D01*
X189200782Y-41719153D01*
X189190554Y-41697529D01*
X189182496Y-41675007D01*
X189176684Y-41651803D01*
X189173174Y-41628142D01*
X189172000Y-41604250D01*
X189172000Y-40691750D01*
X189173174Y-40667858D01*
X189176684Y-40644197D01*
X189182496Y-40620993D01*
X189190554Y-40598471D01*
X189200782Y-40576847D01*
X189213079Y-40556330D01*
X189227329Y-40537117D01*
X189243393Y-40519393D01*
X189261117Y-40503329D01*
X189280330Y-40489079D01*
X189300847Y-40476782D01*
X189322471Y-40466554D01*
X189344993Y-40458496D01*
X189368197Y-40452684D01*
X189391858Y-40449174D01*
X189415750Y-40448000D01*
X189903250Y-40448000D01*
X189927142Y-40449174D01*
X189927142Y-40449174D01*
G37*
D11*
X189659500Y-41148000D03*
D10*
G36*
X178052142Y-40449174D02*
G01*
X178075803Y-40452684D01*
X178099007Y-40458496D01*
X178121529Y-40466554D01*
X178143153Y-40476782D01*
X178163670Y-40489079D01*
X178182883Y-40503329D01*
X178200607Y-40519393D01*
X178216671Y-40537117D01*
X178230921Y-40556330D01*
X178243218Y-40576847D01*
X178253446Y-40598471D01*
X178261504Y-40620993D01*
X178267316Y-40644197D01*
X178270826Y-40667858D01*
X178272000Y-40691750D01*
X178272000Y-41604250D01*
X178270826Y-41628142D01*
X178267316Y-41651803D01*
X178261504Y-41675007D01*
X178253446Y-41697529D01*
X178243218Y-41719153D01*
X178230921Y-41739670D01*
X178216671Y-41758883D01*
X178200607Y-41776607D01*
X178182883Y-41792671D01*
X178163670Y-41806921D01*
X178143153Y-41819218D01*
X178121529Y-41829446D01*
X178099007Y-41837504D01*
X178075803Y-41843316D01*
X178052142Y-41846826D01*
X178028250Y-41848000D01*
X177540750Y-41848000D01*
X177516858Y-41846826D01*
X177493197Y-41843316D01*
X177469993Y-41837504D01*
X177447471Y-41829446D01*
X177425847Y-41819218D01*
X177405330Y-41806921D01*
X177386117Y-41792671D01*
X177368393Y-41776607D01*
X177352329Y-41758883D01*
X177338079Y-41739670D01*
X177325782Y-41719153D01*
X177315554Y-41697529D01*
X177307496Y-41675007D01*
X177301684Y-41651803D01*
X177298174Y-41628142D01*
X177297000Y-41604250D01*
X177297000Y-40691750D01*
X177298174Y-40667858D01*
X177301684Y-40644197D01*
X177307496Y-40620993D01*
X177315554Y-40598471D01*
X177325782Y-40576847D01*
X177338079Y-40556330D01*
X177352329Y-40537117D01*
X177368393Y-40519393D01*
X177386117Y-40503329D01*
X177405330Y-40489079D01*
X177425847Y-40476782D01*
X177447471Y-40466554D01*
X177469993Y-40458496D01*
X177493197Y-40452684D01*
X177516858Y-40449174D01*
X177540750Y-40448000D01*
X178028250Y-40448000D01*
X178052142Y-40449174D01*
X178052142Y-40449174D01*
G37*
D11*
X177784500Y-41148000D03*
D10*
G36*
X179927142Y-40449174D02*
G01*
X179950803Y-40452684D01*
X179974007Y-40458496D01*
X179996529Y-40466554D01*
X180018153Y-40476782D01*
X180038670Y-40489079D01*
X180057883Y-40503329D01*
X180075607Y-40519393D01*
X180091671Y-40537117D01*
X180105921Y-40556330D01*
X180118218Y-40576847D01*
X180128446Y-40598471D01*
X180136504Y-40620993D01*
X180142316Y-40644197D01*
X180145826Y-40667858D01*
X180147000Y-40691750D01*
X180147000Y-41604250D01*
X180145826Y-41628142D01*
X180142316Y-41651803D01*
X180136504Y-41675007D01*
X180128446Y-41697529D01*
X180118218Y-41719153D01*
X180105921Y-41739670D01*
X180091671Y-41758883D01*
X180075607Y-41776607D01*
X180057883Y-41792671D01*
X180038670Y-41806921D01*
X180018153Y-41819218D01*
X179996529Y-41829446D01*
X179974007Y-41837504D01*
X179950803Y-41843316D01*
X179927142Y-41846826D01*
X179903250Y-41848000D01*
X179415750Y-41848000D01*
X179391858Y-41846826D01*
X179368197Y-41843316D01*
X179344993Y-41837504D01*
X179322471Y-41829446D01*
X179300847Y-41819218D01*
X179280330Y-41806921D01*
X179261117Y-41792671D01*
X179243393Y-41776607D01*
X179227329Y-41758883D01*
X179213079Y-41739670D01*
X179200782Y-41719153D01*
X179190554Y-41697529D01*
X179182496Y-41675007D01*
X179176684Y-41651803D01*
X179173174Y-41628142D01*
X179172000Y-41604250D01*
X179172000Y-40691750D01*
X179173174Y-40667858D01*
X179176684Y-40644197D01*
X179182496Y-40620993D01*
X179190554Y-40598471D01*
X179200782Y-40576847D01*
X179213079Y-40556330D01*
X179227329Y-40537117D01*
X179243393Y-40519393D01*
X179261117Y-40503329D01*
X179280330Y-40489079D01*
X179300847Y-40476782D01*
X179322471Y-40466554D01*
X179344993Y-40458496D01*
X179368197Y-40452684D01*
X179391858Y-40449174D01*
X179415750Y-40448000D01*
X179903250Y-40448000D01*
X179927142Y-40449174D01*
X179927142Y-40449174D01*
G37*
D11*
X179659500Y-41148000D03*
D10*
G36*
X180456504Y-53128204D02*
G01*
X180480773Y-53131804D01*
X180504571Y-53137765D01*
X180527671Y-53146030D01*
X180549849Y-53156520D01*
X180570893Y-53169133D01*
X180590598Y-53183747D01*
X180608777Y-53200223D01*
X180625253Y-53218402D01*
X180639867Y-53238107D01*
X180652480Y-53259151D01*
X180662970Y-53281329D01*
X180671235Y-53304429D01*
X180677196Y-53328227D01*
X180680796Y-53352496D01*
X180682000Y-53377000D01*
X180682000Y-54827000D01*
X180680796Y-54851504D01*
X180677196Y-54875773D01*
X180671235Y-54899571D01*
X180662970Y-54922671D01*
X180652480Y-54944849D01*
X180639867Y-54965893D01*
X180625253Y-54985598D01*
X180608777Y-55003777D01*
X180590598Y-55020253D01*
X180570893Y-55034867D01*
X180549849Y-55047480D01*
X180527671Y-55057970D01*
X180504571Y-55066235D01*
X180480773Y-55072196D01*
X180456504Y-55075796D01*
X180432000Y-55077000D01*
X179232000Y-55077000D01*
X179207496Y-55075796D01*
X179183227Y-55072196D01*
X179159429Y-55066235D01*
X179136329Y-55057970D01*
X179114151Y-55047480D01*
X179093107Y-55034867D01*
X179073402Y-55020253D01*
X179055223Y-55003777D01*
X179038747Y-54985598D01*
X179024133Y-54965893D01*
X179011520Y-54944849D01*
X179001030Y-54922671D01*
X178992765Y-54899571D01*
X178986804Y-54875773D01*
X178983204Y-54851504D01*
X178982000Y-54827000D01*
X178982000Y-53377000D01*
X178983204Y-53352496D01*
X178986804Y-53328227D01*
X178992765Y-53304429D01*
X179001030Y-53281329D01*
X179011520Y-53259151D01*
X179024133Y-53238107D01*
X179038747Y-53218402D01*
X179055223Y-53200223D01*
X179073402Y-53183747D01*
X179093107Y-53169133D01*
X179114151Y-53156520D01*
X179136329Y-53146030D01*
X179159429Y-53137765D01*
X179183227Y-53131804D01*
X179207496Y-53128204D01*
X179232000Y-53127000D01*
X180432000Y-53127000D01*
X180456504Y-53128204D01*
X180456504Y-53128204D01*
G37*
D12*
X179832000Y-54102000D03*
D13*
X182332000Y-54102000D03*
X184832000Y-54102000D03*
X187332000Y-54102000D03*
D14*
X182118000Y-46990000D03*
D15*
X184658000Y-46990000D03*
D16*
G36*
X186671188Y-40323518D02*
G01*
X186658928Y-40448000D01*
X186662000Y-40862250D01*
X186820750Y-41021000D01*
X187657500Y-41021000D01*
X187657500Y-41001000D01*
X187911500Y-41001000D01*
X187911500Y-41021000D01*
X187931500Y-41021000D01*
X187931500Y-41275000D01*
X187911500Y-41275000D01*
X187911500Y-42324250D01*
X188070250Y-42483000D01*
X188272000Y-42486072D01*
X188341000Y-42479276D01*
X188341000Y-48895000D01*
X186182000Y-48895000D01*
X186157224Y-48897440D01*
X186133399Y-48904667D01*
X186111443Y-48916403D01*
X186092197Y-48932197D01*
X186076403Y-48951443D01*
X186064667Y-48973399D01*
X186057440Y-48997224D01*
X186055000Y-49022000D01*
X186055000Y-53144032D01*
X185921049Y-52967571D01*
X185703193Y-52774504D01*
X185451858Y-52627648D01*
X185188890Y-52535524D01*
X184959000Y-52656845D01*
X184959000Y-53975000D01*
X184979000Y-53975000D01*
X184979000Y-54229000D01*
X184959000Y-54229000D01*
X184959000Y-55547155D01*
X185188890Y-55668476D01*
X185451858Y-55576352D01*
X185703193Y-55429496D01*
X185921049Y-55236429D01*
X186055000Y-55059968D01*
X186055000Y-56007000D01*
X184023000Y-56007000D01*
X184023000Y-55465836D01*
X184212142Y-55576352D01*
X184475110Y-55668476D01*
X184705000Y-55547155D01*
X184705000Y-54229000D01*
X184685000Y-54229000D01*
X184685000Y-53975000D01*
X184705000Y-53975000D01*
X184705000Y-52656845D01*
X184475110Y-52535524D01*
X184212142Y-52627648D01*
X184023000Y-52738164D01*
X184023000Y-49022000D01*
X184020560Y-48997224D01*
X184013333Y-48973399D01*
X184001597Y-48951443D01*
X183985803Y-48932197D01*
X183966557Y-48916403D01*
X183944601Y-48904667D01*
X183920776Y-48897440D01*
X183896000Y-48895000D01*
X178943000Y-48895000D01*
X178943000Y-46140000D01*
X180629928Y-46140000D01*
X180629928Y-47840000D01*
X180642188Y-47964482D01*
X180678498Y-48084180D01*
X180737463Y-48194494D01*
X180816815Y-48291185D01*
X180913506Y-48370537D01*
X181023820Y-48429502D01*
X181143518Y-48465812D01*
X181268000Y-48478072D01*
X182968000Y-48478072D01*
X183092482Y-48465812D01*
X183212180Y-48429502D01*
X183322494Y-48370537D01*
X183419185Y-48291185D01*
X183498537Y-48194494D01*
X183557502Y-48084180D01*
X183578393Y-48015313D01*
X183602866Y-48045134D01*
X183828986Y-48230706D01*
X184086966Y-48368599D01*
X184366889Y-48453513D01*
X184585050Y-48475000D01*
X184730950Y-48475000D01*
X184949111Y-48453513D01*
X185229034Y-48368599D01*
X185487014Y-48230706D01*
X185713134Y-48045134D01*
X185898706Y-47819014D01*
X186036599Y-47561034D01*
X186121513Y-47281111D01*
X186150185Y-46990000D01*
X186121513Y-46698889D01*
X186036599Y-46418966D01*
X185898706Y-46160986D01*
X185713134Y-45934866D01*
X185487014Y-45749294D01*
X185229034Y-45611401D01*
X184949111Y-45526487D01*
X184730950Y-45505000D01*
X184585050Y-45505000D01*
X184366889Y-45526487D01*
X184086966Y-45611401D01*
X183828986Y-45749294D01*
X183602866Y-45934866D01*
X183578393Y-45964687D01*
X183557502Y-45895820D01*
X183498537Y-45785506D01*
X183419185Y-45688815D01*
X183322494Y-45609463D01*
X183212180Y-45550498D01*
X183092482Y-45514188D01*
X182968000Y-45501928D01*
X181268000Y-45501928D01*
X181143518Y-45514188D01*
X181023820Y-45550498D01*
X180913506Y-45609463D01*
X180816815Y-45688815D01*
X180737463Y-45785506D01*
X180678498Y-45895820D01*
X180642188Y-46015518D01*
X180629928Y-46140000D01*
X178943000Y-46140000D01*
X178943000Y-42442107D01*
X179047518Y-42473812D01*
X179172000Y-42486072D01*
X179373750Y-42483000D01*
X179532500Y-42324250D01*
X179532500Y-41275000D01*
X179786500Y-41275000D01*
X179786500Y-42324250D01*
X179945250Y-42483000D01*
X180147000Y-42486072D01*
X180271482Y-42473812D01*
X180391180Y-42437502D01*
X180501494Y-42378537D01*
X180598185Y-42299185D01*
X180677537Y-42202494D01*
X180736502Y-42092180D01*
X180772812Y-41972482D01*
X180785072Y-41848000D01*
X186658928Y-41848000D01*
X186671188Y-41972482D01*
X186707498Y-42092180D01*
X186766463Y-42202494D01*
X186845815Y-42299185D01*
X186942506Y-42378537D01*
X187052820Y-42437502D01*
X187172518Y-42473812D01*
X187297000Y-42486072D01*
X187498750Y-42483000D01*
X187657500Y-42324250D01*
X187657500Y-41275000D01*
X186820750Y-41275000D01*
X186662000Y-41433750D01*
X186658928Y-41848000D01*
X180785072Y-41848000D01*
X180782000Y-41433750D01*
X180623250Y-41275000D01*
X179786500Y-41275000D01*
X179532500Y-41275000D01*
X179512500Y-41275000D01*
X179512500Y-41021000D01*
X179532500Y-41021000D01*
X179532500Y-41001000D01*
X179786500Y-41001000D01*
X179786500Y-41021000D01*
X180623250Y-41021000D01*
X180782000Y-40862250D01*
X180785072Y-40448000D01*
X180772812Y-40323518D01*
X180753241Y-40259000D01*
X186690759Y-40259000D01*
X186671188Y-40323518D01*
X186671188Y-40323518D01*
G37*
X186671188Y-40323518D02*
X186658928Y-40448000D01*
X186662000Y-40862250D01*
X186820750Y-41021000D01*
X187657500Y-41021000D01*
X187657500Y-41001000D01*
X187911500Y-41001000D01*
X187911500Y-41021000D01*
X187931500Y-41021000D01*
X187931500Y-41275000D01*
X187911500Y-41275000D01*
X187911500Y-42324250D01*
X188070250Y-42483000D01*
X188272000Y-42486072D01*
X188341000Y-42479276D01*
X188341000Y-48895000D01*
X186182000Y-48895000D01*
X186157224Y-48897440D01*
X186133399Y-48904667D01*
X186111443Y-48916403D01*
X186092197Y-48932197D01*
X186076403Y-48951443D01*
X186064667Y-48973399D01*
X186057440Y-48997224D01*
X186055000Y-49022000D01*
X186055000Y-53144032D01*
X185921049Y-52967571D01*
X185703193Y-52774504D01*
X185451858Y-52627648D01*
X185188890Y-52535524D01*
X184959000Y-52656845D01*
X184959000Y-53975000D01*
X184979000Y-53975000D01*
X184979000Y-54229000D01*
X184959000Y-54229000D01*
X184959000Y-55547155D01*
X185188890Y-55668476D01*
X185451858Y-55576352D01*
X185703193Y-55429496D01*
X185921049Y-55236429D01*
X186055000Y-55059968D01*
X186055000Y-56007000D01*
X184023000Y-56007000D01*
X184023000Y-55465836D01*
X184212142Y-55576352D01*
X184475110Y-55668476D01*
X184705000Y-55547155D01*
X184705000Y-54229000D01*
X184685000Y-54229000D01*
X184685000Y-53975000D01*
X184705000Y-53975000D01*
X184705000Y-52656845D01*
X184475110Y-52535524D01*
X184212142Y-52627648D01*
X184023000Y-52738164D01*
X184023000Y-49022000D01*
X184020560Y-48997224D01*
X184013333Y-48973399D01*
X184001597Y-48951443D01*
X183985803Y-48932197D01*
X183966557Y-48916403D01*
X183944601Y-48904667D01*
X183920776Y-48897440D01*
X183896000Y-48895000D01*
X178943000Y-48895000D01*
X178943000Y-46140000D01*
X180629928Y-46140000D01*
X180629928Y-47840000D01*
X180642188Y-47964482D01*
X180678498Y-48084180D01*
X180737463Y-48194494D01*
X180816815Y-48291185D01*
X180913506Y-48370537D01*
X181023820Y-48429502D01*
X181143518Y-48465812D01*
X181268000Y-48478072D01*
X182968000Y-48478072D01*
X183092482Y-48465812D01*
X183212180Y-48429502D01*
X183322494Y-48370537D01*
X183419185Y-48291185D01*
X183498537Y-48194494D01*
X183557502Y-48084180D01*
X183578393Y-48015313D01*
X183602866Y-48045134D01*
X183828986Y-48230706D01*
X184086966Y-48368599D01*
X184366889Y-48453513D01*
X184585050Y-48475000D01*
X184730950Y-48475000D01*
X184949111Y-48453513D01*
X185229034Y-48368599D01*
X185487014Y-48230706D01*
X185713134Y-48045134D01*
X185898706Y-47819014D01*
X186036599Y-47561034D01*
X186121513Y-47281111D01*
X186150185Y-46990000D01*
X186121513Y-46698889D01*
X186036599Y-46418966D01*
X185898706Y-46160986D01*
X185713134Y-45934866D01*
X185487014Y-45749294D01*
X185229034Y-45611401D01*
X184949111Y-45526487D01*
X184730950Y-45505000D01*
X184585050Y-45505000D01*
X184366889Y-45526487D01*
X184086966Y-45611401D01*
X183828986Y-45749294D01*
X183602866Y-45934866D01*
X183578393Y-45964687D01*
X183557502Y-45895820D01*
X183498537Y-45785506D01*
X183419185Y-45688815D01*
X183322494Y-45609463D01*
X183212180Y-45550498D01*
X183092482Y-45514188D01*
X182968000Y-45501928D01*
X181268000Y-45501928D01*
X181143518Y-45514188D01*
X181023820Y-45550498D01*
X180913506Y-45609463D01*
X180816815Y-45688815D01*
X180737463Y-45785506D01*
X180678498Y-45895820D01*
X180642188Y-46015518D01*
X180629928Y-46140000D01*
X178943000Y-46140000D01*
X178943000Y-42442107D01*
X179047518Y-42473812D01*
X179172000Y-42486072D01*
X179373750Y-42483000D01*
X179532500Y-42324250D01*
X179532500Y-41275000D01*
X179786500Y-41275000D01*
X179786500Y-42324250D01*
X179945250Y-42483000D01*
X180147000Y-42486072D01*
X180271482Y-42473812D01*
X180391180Y-42437502D01*
X180501494Y-42378537D01*
X180598185Y-42299185D01*
X180677537Y-42202494D01*
X180736502Y-42092180D01*
X180772812Y-41972482D01*
X180785072Y-41848000D01*
X186658928Y-41848000D01*
X186671188Y-41972482D01*
X186707498Y-42092180D01*
X186766463Y-42202494D01*
X186845815Y-42299185D01*
X186942506Y-42378537D01*
X187052820Y-42437502D01*
X187172518Y-42473812D01*
X187297000Y-42486072D01*
X187498750Y-42483000D01*
X187657500Y-42324250D01*
X187657500Y-41275000D01*
X186820750Y-41275000D01*
X186662000Y-41433750D01*
X186658928Y-41848000D01*
X180785072Y-41848000D01*
X180782000Y-41433750D01*
X180623250Y-41275000D01*
X179786500Y-41275000D01*
X179532500Y-41275000D01*
X179512500Y-41275000D01*
X179512500Y-41021000D01*
X179532500Y-41021000D01*
X179532500Y-41001000D01*
X179786500Y-41001000D01*
X179786500Y-41021000D01*
X180623250Y-41021000D01*
X180782000Y-40862250D01*
X180785072Y-40448000D01*
X180772812Y-40323518D01*
X180753241Y-40259000D01*
X186690759Y-40259000D01*
X186671188Y-40323518D01*
G36*
X177911500Y-41021000D02*
G01*
X177931500Y-41021000D01*
X177931500Y-41275000D01*
X177911500Y-41275000D01*
X177911500Y-42324250D01*
X178070250Y-42483000D01*
X178181000Y-42484686D01*
X178181000Y-49784000D01*
X178183440Y-49808776D01*
X178190667Y-49832601D01*
X178202403Y-49854557D01*
X178218197Y-49873803D01*
X178237443Y-49889597D01*
X178259399Y-49901333D01*
X178283224Y-49908560D01*
X178308000Y-49911000D01*
X183261000Y-49911000D01*
X183261000Y-52825733D01*
X183203193Y-52774504D01*
X182951858Y-52627648D01*
X182688890Y-52535524D01*
X182459000Y-52656845D01*
X182459000Y-53975000D01*
X182479000Y-53975000D01*
X182479000Y-54229000D01*
X182459000Y-54229000D01*
X182459000Y-55547155D01*
X182688890Y-55668476D01*
X182951858Y-55576352D01*
X183203193Y-55429496D01*
X183261000Y-55378267D01*
X183261000Y-56642000D01*
X183263440Y-56666776D01*
X183270667Y-56690601D01*
X183282403Y-56712557D01*
X183298197Y-56731803D01*
X183317443Y-56747597D01*
X183339399Y-56759333D01*
X183363224Y-56766560D01*
X183388000Y-56769000D01*
X186690000Y-56769000D01*
X186714776Y-56766560D01*
X186738601Y-56759333D01*
X186760557Y-56747597D01*
X186779803Y-56731803D01*
X186795597Y-56712557D01*
X186807333Y-56690601D01*
X186814560Y-56666776D01*
X186817000Y-56642000D01*
X186817000Y-55622596D01*
X187040890Y-55690513D01*
X187332000Y-55719185D01*
X187623111Y-55690513D01*
X187903034Y-55605599D01*
X188161014Y-55467706D01*
X188387134Y-55282134D01*
X188572706Y-55056014D01*
X188710599Y-54798033D01*
X188795513Y-54518110D01*
X188817000Y-54299949D01*
X188817000Y-53904050D01*
X188795513Y-53685889D01*
X188710599Y-53405966D01*
X188572706Y-53147986D01*
X188387134Y-52921866D01*
X188161013Y-52736294D01*
X187903033Y-52598401D01*
X187623110Y-52513487D01*
X187332000Y-52484815D01*
X187040889Y-52513487D01*
X186817000Y-52581403D01*
X186817000Y-49657000D01*
X188976000Y-49657000D01*
X189000776Y-49654560D01*
X189024601Y-49647333D01*
X189046557Y-49635597D01*
X189065803Y-49619803D01*
X189081597Y-49600557D01*
X189093333Y-49578601D01*
X189100560Y-49554776D01*
X189103000Y-49530000D01*
X189103000Y-42479276D01*
X189172000Y-42486072D01*
X189373750Y-42483000D01*
X189532500Y-42324250D01*
X189532500Y-41275000D01*
X189512500Y-41275000D01*
X189512500Y-41021000D01*
X189532500Y-41021000D01*
X189532500Y-41001000D01*
X189786500Y-41001000D01*
X189786500Y-41021000D01*
X189806500Y-41021000D01*
X189806500Y-41275000D01*
X189786500Y-41275000D01*
X189786500Y-42324250D01*
X189945250Y-42483000D01*
X190147000Y-42486072D01*
X190271482Y-42473812D01*
X190373000Y-42443017D01*
X190373000Y-58039000D01*
X176911000Y-58039000D01*
X176911000Y-53377000D01*
X178343928Y-53377000D01*
X178343928Y-54827000D01*
X178360992Y-55000254D01*
X178411528Y-55166850D01*
X178493595Y-55320386D01*
X178604038Y-55454962D01*
X178738614Y-55565405D01*
X178892150Y-55647472D01*
X179058746Y-55698008D01*
X179232000Y-55715072D01*
X180432000Y-55715072D01*
X180605254Y-55698008D01*
X180771850Y-55647472D01*
X180925386Y-55565405D01*
X181059962Y-55454962D01*
X181170405Y-55320386D01*
X181226714Y-55215039D01*
X181242951Y-55236429D01*
X181460807Y-55429496D01*
X181712142Y-55576352D01*
X181975110Y-55668476D01*
X182205000Y-55547155D01*
X182205000Y-54229000D01*
X182185000Y-54229000D01*
X182185000Y-53975000D01*
X182205000Y-53975000D01*
X182205000Y-52656845D01*
X181975110Y-52535524D01*
X181712142Y-52627648D01*
X181460807Y-52774504D01*
X181242951Y-52967571D01*
X181226714Y-52988961D01*
X181170405Y-52883614D01*
X181059962Y-52749038D01*
X180925386Y-52638595D01*
X180771850Y-52556528D01*
X180605254Y-52505992D01*
X180432000Y-52488928D01*
X179232000Y-52488928D01*
X179058746Y-52505992D01*
X178892150Y-52556528D01*
X178738614Y-52638595D01*
X178604038Y-52749038D01*
X178493595Y-52883614D01*
X178411528Y-53037150D01*
X178360992Y-53203746D01*
X178343928Y-53377000D01*
X176911000Y-53377000D01*
X176911000Y-42352681D01*
X176942506Y-42378537D01*
X177052820Y-42437502D01*
X177172518Y-42473812D01*
X177297000Y-42486072D01*
X177498750Y-42483000D01*
X177657500Y-42324250D01*
X177657500Y-41275000D01*
X177637500Y-41275000D01*
X177637500Y-41021000D01*
X177657500Y-41021000D01*
X177657500Y-41001000D01*
X177911500Y-41001000D01*
X177911500Y-41021000D01*
X177911500Y-41021000D01*
G37*
X177911500Y-41021000D02*
X177931500Y-41021000D01*
X177931500Y-41275000D01*
X177911500Y-41275000D01*
X177911500Y-42324250D01*
X178070250Y-42483000D01*
X178181000Y-42484686D01*
X178181000Y-49784000D01*
X178183440Y-49808776D01*
X178190667Y-49832601D01*
X178202403Y-49854557D01*
X178218197Y-49873803D01*
X178237443Y-49889597D01*
X178259399Y-49901333D01*
X178283224Y-49908560D01*
X178308000Y-49911000D01*
X183261000Y-49911000D01*
X183261000Y-52825733D01*
X183203193Y-52774504D01*
X182951858Y-52627648D01*
X182688890Y-52535524D01*
X182459000Y-52656845D01*
X182459000Y-53975000D01*
X182479000Y-53975000D01*
X182479000Y-54229000D01*
X182459000Y-54229000D01*
X182459000Y-55547155D01*
X182688890Y-55668476D01*
X182951858Y-55576352D01*
X183203193Y-55429496D01*
X183261000Y-55378267D01*
X183261000Y-56642000D01*
X183263440Y-56666776D01*
X183270667Y-56690601D01*
X183282403Y-56712557D01*
X183298197Y-56731803D01*
X183317443Y-56747597D01*
X183339399Y-56759333D01*
X183363224Y-56766560D01*
X183388000Y-56769000D01*
X186690000Y-56769000D01*
X186714776Y-56766560D01*
X186738601Y-56759333D01*
X186760557Y-56747597D01*
X186779803Y-56731803D01*
X186795597Y-56712557D01*
X186807333Y-56690601D01*
X186814560Y-56666776D01*
X186817000Y-56642000D01*
X186817000Y-55622596D01*
X187040890Y-55690513D01*
X187332000Y-55719185D01*
X187623111Y-55690513D01*
X187903034Y-55605599D01*
X188161014Y-55467706D01*
X188387134Y-55282134D01*
X188572706Y-55056014D01*
X188710599Y-54798033D01*
X188795513Y-54518110D01*
X188817000Y-54299949D01*
X188817000Y-53904050D01*
X188795513Y-53685889D01*
X188710599Y-53405966D01*
X188572706Y-53147986D01*
X188387134Y-52921866D01*
X188161013Y-52736294D01*
X187903033Y-52598401D01*
X187623110Y-52513487D01*
X187332000Y-52484815D01*
X187040889Y-52513487D01*
X186817000Y-52581403D01*
X186817000Y-49657000D01*
X188976000Y-49657000D01*
X189000776Y-49654560D01*
X189024601Y-49647333D01*
X189046557Y-49635597D01*
X189065803Y-49619803D01*
X189081597Y-49600557D01*
X189093333Y-49578601D01*
X189100560Y-49554776D01*
X189103000Y-49530000D01*
X189103000Y-42479276D01*
X189172000Y-42486072D01*
X189373750Y-42483000D01*
X189532500Y-42324250D01*
X189532500Y-41275000D01*
X189512500Y-41275000D01*
X189512500Y-41021000D01*
X189532500Y-41021000D01*
X189532500Y-41001000D01*
X189786500Y-41001000D01*
X189786500Y-41021000D01*
X189806500Y-41021000D01*
X189806500Y-41275000D01*
X189786500Y-41275000D01*
X189786500Y-42324250D01*
X189945250Y-42483000D01*
X190147000Y-42486072D01*
X190271482Y-42473812D01*
X190373000Y-42443017D01*
X190373000Y-58039000D01*
X176911000Y-58039000D01*
X176911000Y-53377000D01*
X178343928Y-53377000D01*
X178343928Y-54827000D01*
X178360992Y-55000254D01*
X178411528Y-55166850D01*
X178493595Y-55320386D01*
X178604038Y-55454962D01*
X178738614Y-55565405D01*
X178892150Y-55647472D01*
X179058746Y-55698008D01*
X179232000Y-55715072D01*
X180432000Y-55715072D01*
X180605254Y-55698008D01*
X180771850Y-55647472D01*
X180925386Y-55565405D01*
X181059962Y-55454962D01*
X181170405Y-55320386D01*
X181226714Y-55215039D01*
X181242951Y-55236429D01*
X181460807Y-55429496D01*
X181712142Y-55576352D01*
X181975110Y-55668476D01*
X182205000Y-55547155D01*
X182205000Y-54229000D01*
X182185000Y-54229000D01*
X182185000Y-53975000D01*
X182205000Y-53975000D01*
X182205000Y-52656845D01*
X181975110Y-52535524D01*
X181712142Y-52627648D01*
X181460807Y-52774504D01*
X181242951Y-52967571D01*
X181226714Y-52988961D01*
X181170405Y-52883614D01*
X181059962Y-52749038D01*
X180925386Y-52638595D01*
X180771850Y-52556528D01*
X180605254Y-52505992D01*
X180432000Y-52488928D01*
X179232000Y-52488928D01*
X179058746Y-52505992D01*
X178892150Y-52556528D01*
X178738614Y-52638595D01*
X178604038Y-52749038D01*
X178493595Y-52883614D01*
X178411528Y-53037150D01*
X178360992Y-53203746D01*
X178343928Y-53377000D01*
X176911000Y-53377000D01*
X176911000Y-42352681D01*
X176942506Y-42378537D01*
X177052820Y-42437502D01*
X177172518Y-42473812D01*
X177297000Y-42486072D01*
X177498750Y-42483000D01*
X177657500Y-42324250D01*
X177657500Y-41275000D01*
X177637500Y-41275000D01*
X177637500Y-41021000D01*
X177657500Y-41021000D01*
X177657500Y-41001000D01*
X177911500Y-41001000D01*
X177911500Y-41021000D01*
M02*
