%TF.GenerationSoftware,KiCad,Pcbnew,(6.0.10)*%
%TF.CreationDate,2023-01-12T16:06:26-05:00*%
%TF.ProjectId,pump_board,70756d70-5f62-46f6-9172-642e6b696361,rev?*%
%TF.SameCoordinates,Original*%
%TF.FileFunction,Soldermask,Bot*%
%TF.FilePolarity,Negative*%
%FSLAX46Y46*%
G04 Gerber Fmt 4.6, Leading zero omitted, Abs format (unit mm)*
G04 Created by KiCad (PCBNEW (6.0.10)) date 2023-01-12 16:06:26*
%MOMM*%
%LPD*%
G01*
G04 APERTURE LIST*
G04 Aperture macros list*
%AMRoundRect*
0 Rectangle with rounded corners*
0 $1 Rounding radius*
0 $2 $3 $4 $5 $6 $7 $8 $9 X,Y pos of 4 corners*
0 Add a 4 corners polygon primitive as box body*
4,1,4,$2,$3,$4,$5,$6,$7,$8,$9,$2,$3,0*
0 Add four circle primitives for the rounded corners*
1,1,$1+$1,$2,$3*
1,1,$1+$1,$4,$5*
1,1,$1+$1,$6,$7*
1,1,$1+$1,$8,$9*
0 Add four rect primitives between the rounded corners*
20,1,$1+$1,$2,$3,$4,$5,0*
20,1,$1+$1,$4,$5,$6,$7,0*
20,1,$1+$1,$6,$7,$8,$9,0*
20,1,$1+$1,$8,$9,$2,$3,0*%
%AMHorizOval*
0 Thick line with rounded ends*
0 $1 width*
0 $2 $3 position (X,Y) of the first rounded end (center of the circle)*
0 $4 $5 position (X,Y) of the second rounded end (center of the circle)*
0 Add line between two ends*
20,1,$1,$2,$3,$4,$5,0*
0 Add two circle primitives to create the rounded ends*
1,1,$1,$2,$3*
1,1,$1,$4,$5*%
G04 Aperture macros list end*
%ADD10HorizOval,2.940000X-0.508000X0.879882X0.508000X-0.879882X0*%
%ADD11HorizOval,2.940000X-0.508000X-0.879882X0.508000X0.879882X0*%
%ADD12O,4.972000X2.940000*%
%ADD13HorizOval,2.940000X-0.879882X0.508000X0.879882X-0.508000X0*%
%ADD14HorizOval,2.940000X-0.879882X-0.508000X0.879882X0.508000X0*%
%ADD15O,2.940000X4.972000*%
%ADD16C,13.400000*%
%ADD17RoundRect,0.200000X0.850000X0.850000X-0.850000X0.850000X-0.850000X-0.850000X0.850000X-0.850000X0*%
%ADD18C,2.100000*%
G04 APERTURE END LIST*
D10*
%TO.C,U5*%
X158617058Y-151054024D03*
D11*
X137845900Y-151060774D03*
D12*
X148227812Y-145065179D03*
D13*
X154226169Y-146666909D03*
D14*
X142232217Y-146666909D03*
D15*
X160229098Y-157049618D03*
D14*
X154170218Y-167344131D03*
D12*
X148227813Y-168941178D03*
D10*
X137939836Y-162992024D03*
D13*
X142288170Y-167344131D03*
D15*
X136353098Y-157049619D03*
D11*
X158523122Y-162998773D03*
D16*
X148354039Y-157001322D03*
%TD*%
D14*
%TO.C,U1*%
X58412217Y-146412909D03*
D11*
X54025900Y-150806774D03*
D12*
X64407812Y-144811179D03*
D13*
X70406169Y-146412909D03*
D15*
X76409098Y-156795618D03*
D10*
X74797058Y-150800024D03*
D13*
X58468170Y-167090131D03*
D14*
X70350218Y-167090131D03*
D15*
X52533098Y-156795619D03*
D10*
X54119836Y-162738024D03*
D11*
X74703122Y-162744773D03*
D12*
X64407813Y-168687178D03*
D16*
X64534039Y-156747322D03*
%TD*%
%TO.C,U2*%
X64026039Y-109249322D03*
D13*
X57960170Y-119592131D03*
D12*
X63899813Y-121189178D03*
D11*
X74195122Y-115246773D03*
D15*
X52025098Y-109297619D03*
D10*
X53611836Y-115240024D03*
D14*
X69842218Y-119592131D03*
D15*
X75901098Y-109297618D03*
D14*
X57904217Y-98914909D03*
D12*
X63899812Y-97313179D03*
D13*
X69898169Y-98914909D03*
D11*
X53517900Y-103308774D03*
D10*
X74289058Y-103302024D03*
%TD*%
D16*
%TO.C,U3*%
X106698039Y-180084144D03*
D11*
X116867122Y-186081595D03*
D10*
X96283836Y-186074846D03*
D15*
X94697098Y-180132441D03*
D12*
X106571813Y-192024000D03*
D13*
X100632170Y-190426953D03*
D14*
X112514218Y-190426953D03*
D12*
X106571812Y-168148001D03*
D10*
X116961058Y-174136846D03*
D14*
X100576217Y-169749731D03*
D11*
X96189900Y-174143596D03*
D13*
X112570169Y-169749731D03*
D15*
X118573098Y-180132440D03*
%TD*%
D16*
%TO.C,U4*%
X106190039Y-132840144D03*
D15*
X94189098Y-132888441D03*
D12*
X106063813Y-144780000D03*
D13*
X100124170Y-143182953D03*
D11*
X116359122Y-138837595D03*
D10*
X95775836Y-138830846D03*
D14*
X112006218Y-143182953D03*
D11*
X95681900Y-126899596D03*
D14*
X100068217Y-122505731D03*
D13*
X112062169Y-122505731D03*
D10*
X116453058Y-126892846D03*
D15*
X118065098Y-132888440D03*
D12*
X106063812Y-120904001D03*
%TD*%
D16*
%TO.C,U6*%
X148354039Y-109249322D03*
D12*
X148227813Y-121189178D03*
D11*
X158523122Y-115246773D03*
D13*
X142288170Y-119592131D03*
D10*
X137939836Y-115240024D03*
D14*
X154170218Y-119592131D03*
D15*
X136353098Y-109297619D03*
D12*
X148227812Y-97313179D03*
D10*
X158617058Y-103302024D03*
D13*
X154226169Y-98914909D03*
D11*
X137845900Y-103308774D03*
D15*
X160229098Y-109297618D03*
D14*
X142232217Y-98914909D03*
%TD*%
D17*
%TO.C,J1*%
X114808000Y-93472000D03*
D18*
X114808000Y-96012000D03*
X112268000Y-93472000D03*
X112268000Y-96012000D03*
X109728000Y-93472000D03*
X109728000Y-96012000D03*
X107188000Y-93472000D03*
X107188000Y-96012000D03*
X104648000Y-93472000D03*
X104648000Y-96012000D03*
X102108000Y-93472000D03*
X102108000Y-96012000D03*
X99568000Y-93472000D03*
X99568000Y-96012000D03*
X97028000Y-93472000D03*
X97028000Y-96012000D03*
%TD*%
M02*
