%TF.GenerationSoftware,KiCad,Pcbnew,(6.0.10)*%
%TF.CreationDate,2023-01-12T16:06:26-05:00*%
%TF.ProjectId,pump_board,70756d70-5f62-46f6-9172-642e6b696361,rev?*%
%TF.SameCoordinates,Original*%
%TF.FileFunction,Copper,L1,Top*%
%TF.FilePolarity,Positive*%
%FSLAX46Y46*%
G04 Gerber Fmt 4.6, Leading zero omitted, Abs format (unit mm)*
G04 Created by KiCad (PCBNEW (6.0.10)) date 2023-01-12 16:06:26*
%MOMM*%
%LPD*%
G01*
G04 APERTURE LIST*
G04 Aperture macros list*
%AMHorizOval*
0 Thick line with rounded ends*
0 $1 width*
0 $2 $3 position (X,Y) of the first rounded end (center of the circle)*
0 $4 $5 position (X,Y) of the second rounded end (center of the circle)*
0 Add line between two ends*
20,1,$1,$2,$3,$4,$5,0*
0 Add two circle primitives to create the rounded ends*
1,1,$1,$2,$3*
1,1,$1,$4,$5*%
G04 Aperture macros list end*
%TA.AperFunction,ComponentPad*%
%ADD10HorizOval,2.540000X-0.508000X0.879882X0.508000X-0.879882X0*%
%TD*%
%TA.AperFunction,ComponentPad*%
%ADD11HorizOval,2.540000X-0.508000X-0.879882X0.508000X0.879882X0*%
%TD*%
%TA.AperFunction,ComponentPad*%
%ADD12O,4.572000X2.540000*%
%TD*%
%TA.AperFunction,ComponentPad*%
%ADD13HorizOval,2.540000X-0.879882X0.508000X0.879882X-0.508000X0*%
%TD*%
%TA.AperFunction,ComponentPad*%
%ADD14HorizOval,2.540000X-0.879882X-0.508000X0.879882X0.508000X0*%
%TD*%
%TA.AperFunction,ComponentPad*%
%ADD15O,2.540000X4.572000*%
%TD*%
%TA.AperFunction,WasherPad*%
%ADD16C,13.000000*%
%TD*%
%TA.AperFunction,ComponentPad*%
%ADD17R,1.700000X1.700000*%
%TD*%
%TA.AperFunction,ComponentPad*%
%ADD18C,1.700000*%
%TD*%
%TA.AperFunction,ViaPad*%
%ADD19C,0.600000*%
%TD*%
%TA.AperFunction,Conductor*%
%ADD20C,0.508000*%
%TD*%
G04 APERTURE END LIST*
D10*
%TO.P,U5,2,NEG(-)*%
%TO.N,Net-(U5-Pad2)*%
X158617058Y-151054024D03*
D11*
X137845900Y-151060774D03*
D12*
X148227812Y-145065179D03*
D13*
X154226169Y-146666909D03*
D14*
X142232217Y-146666909D03*
D15*
X160229098Y-157049618D03*
D14*
%TO.P,U5,1,POS(+)*%
%TO.N,Net-(U5-Pad1)*%
X154170218Y-167344131D03*
D12*
X148227813Y-168941178D03*
D10*
X137939836Y-162992024D03*
D13*
X142288170Y-167344131D03*
D15*
X136353098Y-157049619D03*
D11*
X158523122Y-162998773D03*
D16*
%TO.P,U5,*%
%TO.N,*%
X148354039Y-157001322D03*
%TD*%
D14*
%TO.P,U1,2,NEG(-)*%
%TO.N,Net-(U1-Pad2)*%
X58412217Y-146412909D03*
D11*
X54025900Y-150806774D03*
D12*
X64407812Y-144811179D03*
D13*
X70406169Y-146412909D03*
D15*
X76409098Y-156795618D03*
D10*
X74797058Y-150800024D03*
D13*
%TO.P,U1,1,POS(+)*%
%TO.N,Net-(U1-Pad1)*%
X58468170Y-167090131D03*
D14*
X70350218Y-167090131D03*
D15*
X52533098Y-156795619D03*
D10*
X54119836Y-162738024D03*
D11*
X74703122Y-162744773D03*
D12*
X64407813Y-168687178D03*
D16*
%TO.P,U1,*%
%TO.N,*%
X64534039Y-156747322D03*
%TD*%
%TO.P,U2,*%
%TO.N,*%
X64026039Y-109249322D03*
D13*
%TO.P,U2,1,POS(+)*%
%TO.N,Net-(U2-Pad1)*%
X57960170Y-119592131D03*
D12*
X63899813Y-121189178D03*
D11*
X74195122Y-115246773D03*
D15*
X52025098Y-109297619D03*
D10*
X53611836Y-115240024D03*
D14*
X69842218Y-119592131D03*
D15*
%TO.P,U2,2,NEG(-)*%
%TO.N,Net-(U2-Pad2)*%
X75901098Y-109297618D03*
D14*
X57904217Y-98914909D03*
D12*
X63899812Y-97313179D03*
D13*
X69898169Y-98914909D03*
D11*
X53517900Y-103308774D03*
D10*
X74289058Y-103302024D03*
%TD*%
D16*
%TO.P,U3,*%
%TO.N,*%
X106698039Y-180084144D03*
D11*
%TO.P,U3,1,POS(+)*%
%TO.N,Net-(U3-Pad1)*%
X116867122Y-186081595D03*
D10*
X96283836Y-186074846D03*
D15*
X94697098Y-180132441D03*
D12*
X106571813Y-192024000D03*
D13*
X100632170Y-190426953D03*
D14*
X112514218Y-190426953D03*
D12*
%TO.P,U3,2,NEG(-)*%
%TO.N,Net-(U3-Pad2)*%
X106571812Y-168148001D03*
D10*
X116961058Y-174136846D03*
D14*
X100576217Y-169749731D03*
D11*
X96189900Y-174143596D03*
D13*
X112570169Y-169749731D03*
D15*
X118573098Y-180132440D03*
%TD*%
D16*
%TO.P,U4,*%
%TO.N,*%
X106190039Y-132840144D03*
D15*
%TO.P,U4,1,POS(+)*%
%TO.N,Net-(U4-Pad1)*%
X94189098Y-132888441D03*
D12*
X106063813Y-144780000D03*
D13*
X100124170Y-143182953D03*
D11*
X116359122Y-138837595D03*
D10*
X95775836Y-138830846D03*
D14*
X112006218Y-143182953D03*
D11*
%TO.P,U4,2,NEG(-)*%
%TO.N,Net-(U4-Pad2)*%
X95681900Y-126899596D03*
D14*
X100068217Y-122505731D03*
D13*
X112062169Y-122505731D03*
D10*
X116453058Y-126892846D03*
D15*
X118065098Y-132888440D03*
D12*
X106063812Y-120904001D03*
%TD*%
D16*
%TO.P,U6,*%
%TO.N,*%
X148354039Y-109249322D03*
D12*
%TO.P,U6,1,POS(+)*%
%TO.N,Net-(U6-Pad1)*%
X148227813Y-121189178D03*
D11*
X158523122Y-115246773D03*
D13*
X142288170Y-119592131D03*
D10*
X137939836Y-115240024D03*
D14*
X154170218Y-119592131D03*
D15*
X136353098Y-109297619D03*
D12*
%TO.P,U6,2,NEG(-)*%
%TO.N,Net-(U6-Pad2)*%
X148227812Y-97313179D03*
D10*
X158617058Y-103302024D03*
D13*
X154226169Y-98914909D03*
D11*
X137845900Y-103308774D03*
D15*
X160229098Y-109297618D03*
D14*
X142232217Y-98914909D03*
%TD*%
D17*
%TO.P,J1,1,Pin_1*%
%TO.N,/x*%
X114808000Y-93472000D03*
D18*
%TO.P,J1,2,Pin_2*%
X114808000Y-96012000D03*
%TO.P,J1,3,Pin_3*%
X112268000Y-93472000D03*
%TO.P,J1,4,Pin_4*%
X112268000Y-96012000D03*
%TO.P,J1,5,Pin_5*%
%TO.N,Net-(U6-Pad2)*%
X109728000Y-93472000D03*
%TO.P,J1,6,Pin_6*%
%TO.N,Net-(U6-Pad1)*%
X109728000Y-96012000D03*
%TO.P,J1,7,Pin_7*%
%TO.N,Net-(U5-Pad2)*%
X107188000Y-93472000D03*
%TO.P,J1,8,Pin_8*%
%TO.N,Net-(U5-Pad1)*%
X107188000Y-96012000D03*
%TO.P,J1,9,Pin_9*%
%TO.N,Net-(U4-Pad2)*%
X104648000Y-93472000D03*
%TO.P,J1,10,Pin_10*%
%TO.N,Net-(U4-Pad1)*%
X104648000Y-96012000D03*
%TO.P,J1,11,Pin_11*%
%TO.N,Net-(U3-Pad2)*%
X102108000Y-93472000D03*
%TO.P,J1,12,Pin_12*%
%TO.N,Net-(U3-Pad1)*%
X102108000Y-96012000D03*
%TO.P,J1,13,Pin_13*%
%TO.N,Net-(U2-Pad2)*%
X99568000Y-93472000D03*
%TO.P,J1,14,Pin_14*%
%TO.N,Net-(U2-Pad1)*%
X99568000Y-96012000D03*
%TO.P,J1,15,Pin_15*%
%TO.N,Net-(U1-Pad2)*%
X97028000Y-93472000D03*
%TO.P,J1,16,Pin_16*%
%TO.N,Net-(U1-Pad1)*%
X97028000Y-96012000D03*
%TD*%
D19*
%TO.N,Net-(U4-Pad2)*%
X124460000Y-90124500D03*
%TO.N,Net-(U3-Pad1)*%
X86868000Y-117348000D03*
%TO.N,Net-(U4-Pad2)*%
X123952000Y-132588000D03*
X112062169Y-122505731D03*
%TO.N,Net-(U3-Pad2)*%
X86060500Y-171284543D03*
X85344000Y-90932000D03*
%TO.N,Net-(U4-Pad1)*%
X119535178Y-139036822D03*
X121412000Y-114808000D03*
X107188000Y-112776000D03*
%TO.N,Net-(U3-Pad1)*%
X101600000Y-116840000D03*
%TO.N,Net-(U5-Pad1)*%
X128634000Y-157370000D03*
X108204000Y-110744000D03*
X127000000Y-111760000D03*
%TO.N,Net-(U5-Pad2)*%
X167410000Y-91718000D03*
%TO.N,Net-(U6-Pad1)*%
X110744000Y-109220000D03*
%TO.N,Net-(U2-Pad1)*%
X99060000Y-112776000D03*
%TO.N,Net-(U2-Pad2)*%
X79756000Y-92456000D03*
%TO.N,Net-(U1-Pad2)*%
X81712024Y-150800024D03*
X82296000Y-93980000D03*
%TO.N,Net-(U1-Pad1)*%
X83820000Y-99568000D03*
X96520000Y-99060000D03*
X81288000Y-162060000D03*
%TO.N,Net-(U5-Pad2)*%
X167410000Y-156380000D03*
%TD*%
D20*
%TO.N,Net-(U4-Pad2)*%
X123952000Y-132588000D02*
X124460000Y-132080000D01*
X124460000Y-132080000D02*
X124460000Y-90124500D01*
%TO.N,Net-(U3-Pad1)*%
X86868000Y-178816000D02*
X86868000Y-117348000D01*
X88184441Y-180132441D02*
X86868000Y-178816000D01*
X94697098Y-180132441D02*
X88184441Y-180132441D01*
%TO.N,Net-(U3-Pad2)*%
X85344000Y-170568043D02*
X86060500Y-171284543D01*
X85344000Y-90932000D02*
X85344000Y-170568043D01*
%TO.N,Net-(U4-Pad1)*%
X121412000Y-137160000D02*
X119535178Y-139036822D01*
X121412000Y-114808000D02*
X121412000Y-137160000D01*
X104648000Y-110236000D02*
X107188000Y-112776000D01*
X104648000Y-96012000D02*
X104648000Y-110236000D01*
%TO.N,Net-(U3-Pad1)*%
X102108000Y-116332000D02*
X101600000Y-116840000D01*
X102108000Y-96012000D02*
X102108000Y-116332000D01*
%TO.N,Net-(U5-Pad1)*%
X127000000Y-155736000D02*
X128634000Y-157370000D01*
X127000000Y-111760000D02*
X127000000Y-155736000D01*
X107188000Y-109728000D02*
X108204000Y-110744000D01*
X107188000Y-96012000D02*
X107188000Y-109728000D01*
%TO.N,Net-(U5-Pad2)*%
X167410000Y-91718000D02*
X167410000Y-156380000D01*
%TO.N,Net-(U6-Pad1)*%
X109728000Y-108204000D02*
X110744000Y-109220000D01*
X109728000Y-96012000D02*
X109728000Y-108204000D01*
%TO.N,Net-(U2-Pad1)*%
X99568000Y-112268000D02*
X99060000Y-112776000D01*
X99568000Y-96012000D02*
X99568000Y-112268000D01*
%TO.N,Net-(U2-Pad2)*%
X79756000Y-92456000D02*
X79756000Y-106172000D01*
X76630382Y-109297618D02*
X75901098Y-109297618D01*
X79756000Y-106172000D02*
X76630382Y-109297618D01*
%TO.N,Net-(U1-Pad2)*%
X82296000Y-150216048D02*
X81712024Y-150800024D01*
X82296000Y-93980000D02*
X82296000Y-150216048D01*
%TO.N,Net-(U1-Pad1)*%
X83820000Y-159528000D02*
X81288000Y-162060000D01*
X83820000Y-99568000D02*
X83820000Y-159528000D01*
X97028000Y-96012000D02*
X97028000Y-98552000D01*
X97028000Y-98552000D02*
X96520000Y-99060000D01*
%TD*%
M02*
