  0
SECTION
  2
HEADER
  9
$ACADVER
  1
AC1027
  9
$ACADMAINTVER
 70
   125
  9
$DWGCODEPAGE
  3
ANSI_1252
  9
$REQUIREDVERSIONS
160
                 0
  9
$INSBASE
 10
0.0
 20
0.0
 30
0.0
  9
$EXTMIN
 10
1.000000000000000E+20
 20
1.000000000000000E+20
 30
1.000000000000000E+20
  9
$EXTMAX
 10
-1.000000000000000E+20
 20
-1.000000000000000E+20
 30
-1.000000000000000E+20
  9
$LIMMIN
 10
0.0
 20
0.0
  9
$LIMMAX
 10
12.0
 20
9.0
  9
$ORTHOMODE
 70
     0
  9
$REGENMODE
 70
     1
  9
$FILLMODE
 70
     1
  9
$QTEXTMODE
 70
     0
  9
$MIRRTEXT
 70
     0
  9
$LTSCALE
 40
1.0
  9
$ATTMODE
 70
     1
  9
$TEXTSIZE
 40
0.2
  9
$TRACEWID
 40
0.05
  9
$TEXTSTYLE
  7
Standard
  9
$CLAYER
  8
0
  9
$CELTYPE
  6
ByLayer
  9
$CECOLOR
 62
   256
  9
$CELTSCALE
 40
1.0
  9
$DISPSILH
 70
     0
  9
$DIMSCALE
 40
1.0
  9
$DIMASZ
 40
0.18
  9
$DIMEXO
 40
0.0625
  9
$DIMDLI
 40
0.38
  9
$DIMRND
 40
0.0
  9
$DIMDLE
 40
0.0
  9
$DIMEXE
 40
0.18
  9
$DIMTP
 40
0.0
  9
$DIMTM
 40
0.0
  9
$DIMTXT
 40
0.18
  9
$DIMCEN
 40
0.09
  9
$DIMTSZ
 40
0.0
  9
$DIMTOL
 70
     0
  9
$DIMLIM
 70
     0
  9
$DIMTIH
 70
     1
  9
$DIMTOH
 70
     1
  9
$DIMSE1
 70
     0
  9
$DIMSE2
 70
     0
  9
$DIMTAD
 70
     0
  9
$DIMZIN
 70
     0
  9
$DIMBLK
  1

  9
$DIMASO
 70
     1
  9
$DIMSHO
 70
     1
  9
$DIMPOST
  1

  9
$DIMAPOST
  1

  9
$DIMALT
 70
     0
  9
$DIMALTD
 70
     2
  9
$DIMALTF
 40
25.4
  9
$DIMLFAC
 40
1.0
  9
$DIMTOFL
 70
     0
  9
$DIMTVP
 40
0.0
  9
$DIMTIX
 70
     0
  9
$DIMSOXD
 70
     0
  9
$DIMSAH
 70
     0
  9
$DIMBLK1
  1

  9
$DIMBLK2
  1

  9
$DIMSTYLE
  2
Standard
  9
$DIMCLRD
 70
     0
  9
$DIMCLRE
 70
     0
  9
$DIMCLRT
 70
     0
  9
$DIMTFAC
 40
1.0
  9
$DIMGAP
 40
0.09
  9
$DIMJUST
 70
     0
  9
$DIMSD1
 70
     0
  9
$DIMSD2
 70
     0
  9
$DIMTOLJ
 70
     1
  9
$DIMTZIN
 70
     0
  9
$DIMALTZ
 70
     0
  9
$DIMALTTZ
 70
     0
  9
$DIMUPT
 70
     0
  9
$DIMDEC
 70
     4
  9
$DIMTDEC
 70
     4
  9
$DIMALTU
 70
     2
  9
$DIMALTTD
 70
     2
  9
$DIMTXSTY
  7
Standard
  9
$DIMAUNIT
 70
     0
  9
$DIMADEC
 70
     0
  9
$DIMALTRND
 40
0.0
  9
$DIMAZIN
 70
     0
  9
$DIMDSEP
 70
    46
  9
$DIMATFIT
 70
     3
  9
$DIMFRAC
 70
     0
  9
$DIMLDRBLK
  1

  9
$DIMLUNIT
 70
     2
  9
$DIMLWD
 70
    -2
  9
$DIMLWE
 70
    -2
  9
$DIMTMOVE
 70
     0
  9
$DIMFXL
 40
1.0
  9
$DIMFXLON
 70
     0
  9
$DIMJOGANG
 40
0.7853981633974483
  9
$DIMTFILL
 70
     0
  9
$DIMTFILLCLR
 70
     0
  9
$DIMARCSYM
 70
     0
  9
$DIMLTYPE
  6

  9
$DIMLTEX1
  6

  9
$DIMLTEX2
  6

  9
$DIMTXTDIRECTION
 70
     0
  9
$LUNITS
 70
     2
  9
$LUPREC
 70
     4
  9
$SKETCHINC
 40
0.1
  9
$FILLETRAD
 40
0.0
  9
$AUNITS
 70
     0
  9
$AUPREC
 70
     0
  9
$MENU
  1
.
  9
$ELEVATION
 40
0.0
  9
$PELEVATION
 40
0.0
  9
$THICKNESS
 40
0.0
  9
$LIMCHECK
 70
     0
  9
$CHAMFERA
 40
0.0
  9
$CHAMFERB
 40
0.0
  9
$CHAMFERC
 40
0.0
  9
$CHAMFERD
 40
0.0
  9
$SKPOLY
 70
     0
  9
$TDCREATE
 40
2460586.664108797
  9
$TDUCREATE
 40
2460586.830775463
  9
$TDUPDATE
 40
2460586.664108797
  9
$TDUUPDATE
 40
2460586.830775463
  9
$TDINDWG
 40
0.0000000000
  9
$TDUSRTIMER
 40
0.0000000000
  9
$USRTIMER
 70
     1
  9
$ANGBASE
 50
0.0
  9
$ANGDIR
 70
     0
  9
$PDMODE
 70
     0
  9
$PDSIZE
 40
0.0
  9
$PLINEWID
 40
0.0
  9
$SPLFRAME
 70
     0
  9
$SPLINETYPE
 70
     6
  9
$SPLINESEGS
 70
     8
  9
$HANDSEED
  5
9B
  9
$SURFTAB1
 70
     6
  9
$SURFTAB2
 70
     6
  9
$SURFTYPE
 70
     6
  9
$SURFU
 70
     6
  9
$SURFV
 70
     6
  9
$UCSBASE
  2

  9
$UCSNAME
  2

  9
$UCSORG
 10
0.0
 20
0.0
 30
0.0
  9
$UCSXDIR
 10
1.0
 20
0.0
 30
0.0
  9
$UCSYDIR
 10
0.0
 20
1.0
 30
0.0
  9
$UCSORTHOREF
  2

  9
$UCSORTHOVIEW
 70
     0
  9
$UCSORGTOP
 10
0.0
 20
0.0
 30
0.0
  9
$UCSORGBOTTOM
 10
0.0
 20
0.0
 30
0.0
  9
$UCSORGLEFT
 10
0.0
 20
0.0
 30
0.0
  9
$UCSORGRIGHT
 10
0.0
 20
0.0
 30
0.0
  9
$UCSORGFRONT
 10
0.0
 20
0.0
 30
0.0
  9
$UCSORGBACK
 10
0.0
 20
0.0
 30
0.0
  9
$PUCSBASE
  2

  9
$PUCSNAME
  2

  9
$PUCSORG
 10
0.0
 20
0.0
 30
0.0
  9
$PUCSXDIR
 10
1.0
 20
0.0
 30
0.0
  9
$PUCSYDIR
 10
0.0
 20
1.0
 30
0.0
  9
$PUCSORTHOREF
  2

  9
$PUCSORTHOVIEW
 70
     0
  9
$PUCSORGTOP
 10
0.0
 20
0.0
 30
0.0
  9
$PUCSORGBOTTOM
 10
0.0
 20
0.0
 30
0.0
  9
$PUCSORGLEFT
 10
0.0
 20
0.0
 30
0.0
  9
$PUCSORGRIGHT
 10
0.0
 20
0.0
 30
0.0
  9
$PUCSORGFRONT
 10
0.0
 20
0.0
 30
0.0
  9
$PUCSORGBACK
 10
0.0
 20
0.0
 30
0.0
  9
$USERI1
 70
     0
  9
$USERI2
 70
     0
  9
$USERI3
 70
     0
  9
$USERI4
 70
     0
  9
$USERI5
 70
     0
  9
$USERR1
 40
0.0
  9
$USERR2
 40
0.0
  9
$USERR3
 40
0.0
  9
$USERR4
 40
0.0
  9
$USERR5
 40
0.0
  9
$WORLDVIEW
 70
     1
  9
$SHADEDGE
 70
     3
  9
$SHADEDIF
 70
    70
  9
$TILEMODE
 70
     1
  9
$MAXACTVP
 70
    64
  9
$PINSBASE
 10
0.0
 20
0.0
 30
0.0
  9
$PLIMCHECK
 70
     0
  9
$PEXTMIN
 10
1.000000000000000E+20
 20
1.000000000000000E+20
 30
1.000000000000000E+20
  9
$PEXTMAX
 10
-1.000000000000000E+20
 20
-1.000000000000000E+20
 30
-1.000000000000000E+20
  9
$PLIMMIN
 10
0.0
 20
0.0
  9
$PLIMMAX
 10
12.0
 20
9.0
  9
$UNITMODE
 70
     0
  9
$VISRETAIN
 70
     1
  9
$PLINEGEN
 70
     0
  9
$PSLTSCALE
 70
     1
  9
$TREEDEPTH
 70
  3020
  9
$CMLSTYLE
  2
Standard
  9
$CMLJUST
 70
     0
  9
$CMLSCALE
 40
1.0
  9
$PROXYGRAPHICS
 70
     1
  9
$MEASUREMENT
 70
     0
  9
$CELWEIGHT
370
    -1
  9
$ENDCAPS
280
     0
  9
$JOINSTYLE
280
     0
  9
$LWDISPLAY
290
     1
  9
$INSUNITS
 70
     1
  9
$HYPERLINKBASE
  1

  9
$STYLESHEET
  1

  9
$XEDIT
290
     1
  9
$CEPSNTYPE
380
     0
  9
$PSTYLEMODE
290
     1
  9
$FINGERPRINTGUID
  2
{9647B3D0-D495-1148-9AC9-949DCE95D25B}
  9
$VERSIONGUID
  2
{AAB93FCC-9818-304B-8492-939300D6AA8C}
  9
$EXTNAMES
290
     1
  9
$PSVPSCALE
 40
0.0
  9
$OLESTARTUP
290
     0
  9
$SORTENTS
280
   127
  9
$INDEXCTL
280
     0
  9
$HIDETEXT
280
     1
  9
$XCLIPFRAME
280
     2
  9
$HALOGAP
280
     0
  9
$OBSCOLOR
 70
   257
  9
$OBSLTYPE
280
     0
  9
$INTERSECTIONDISPLAY
280
     0
  9
$INTERSECTIONCOLOR
 70
   257
  9
$DIMASSOC
280
     2
  9
$PROJECTNAME
  1

  9
$CAMERADISPLAY
290
     0
  9
$LENSLENGTH
 40
50.0
  9
$CAMERAHEIGHT
 40
0.0
  9
$STEPSPERSEC
 40
2.0
  9
$STEPSIZE
 40
6.0
  9
$3DDWFPREC
 40
2.0
  9
$PSOLWIDTH
 40
0.25
  9
$PSOLHEIGHT
 40
4.0
  9
$LOFTANG1
 40
1.570796326794896
  9
$LOFTANG2
 40
1.570796326794896
  9
$LOFTMAG1
 40
0.0
  9
$LOFTMAG2
 40
0.0
  9
$LOFTPARAM
 70
     7
  9
$LOFTNORMALS
280
     1
  9
$LATITUDE
 40
37.795
  9
$LONGITUDE
 40
-122.394
  9
$NORTHDIRECTION
 40
0.0
  9
$TIMEZONE
 70
 -8000
  9
$LIGHTGLYPHDISPLAY
280
     1
  9
$TILEMODELIGHTSYNCH
280
     1
  9
$CMATERIAL
347
11
  9
$SOLIDHIST
280
     0
  9
$SHOWHIST
280
     1
  9
$DWFFRAME
280
     2
  9
$DGNFRAME
280
     0
  9
$REALWORLDSCALE
290
     1
  9
$INTERFERECOLOR
 62
     1
  9
$INTERFEREOBJVS
345
33
  9
$INTERFEREVPVS
346
30
  9
$CSHADOW
280
     0
  9
$SHADOWPLANELOCATION
 40
0.0
  0
ENDSEC
  0
SECTION
  2
CLASSES
  0
CLASS
  1
ACDBDICTIONARYWDFLT
  2
AcDbDictionaryWithDefault
  3
ObjectDBX Classes
 90
        0
 91
        1
280
     0
281
     0
  0
CLASS
  1
MATERIAL
  2
AcDbMaterial
  3
ObjectDBX Classes
 90
     1153
 91
        3
280
     0
281
     0
  0
CLASS
  1
VISUALSTYLE
  2
AcDbVisualStyle
  3
ObjectDBX Classes
 90
     4095
 91
       24
280
     0
281
     0
  0
CLASS
  1
SCALE
  2
AcDbScale
  3
ObjectDBX Classes
 90
     1153
 91
       17
280
     0
281
     0
  0
CLASS
  1
TABLESTYLE
  2
AcDbTableStyle
  3
ObjectDBX Classes
 90
     4095
 91
        1
280
     0
281
     0
  0
CLASS
  1
MLEADERSTYLE
  2
AcDbMLeaderStyle
  3
ACDB_MLEADERSTYLE_CLASS
 90
     4095
 91
        1
280
     0
281
     0
  0
CLASS
  1
ACDBSECTIONVIEWSTYLE
  2
AcDbSectionViewStyle
  3
ObjectDBX Classes
 90
     1025
 91
        1
280
     0
281
     0
  0
CLASS
  1
ACDBDETAILVIEWSTYLE
  2
AcDbDetailViewStyle
  3
ObjectDBX Classes
 90
     1025
 91
        1
280
     0
281
     0
  0
CLASS
  1
DICTIONARYVAR
  2
AcDbDictionaryVar
  3
ObjectDBX Classes
 90
        0
 91
        5
280
     0
281
     0
  0
CLASS
  1
CELLSTYLEMAP
  2
AcDbCellStyleMap
  3
ObjectDBX Classes
 90
     1152
 91
        1
280
     0
281
     0
  0
ENDSEC
  0
SECTION
  2
TABLES
  0
TABLE
  2
VPORT
  5
8
330
0
100
AcDbSymbolTable
 70
     1
1001
ACAD
1000
DbSaveVer
1071
      278
  0
VPORT
  5
57
330
8
100
AcDbSymbolTableRecord
100
AcDbViewportTableRecord
  2
*Active
 70
     0
 10
0.0
 20
0.0
 11
1.0
 21
1.0
 12
0.0
 22
0.0
 13
0.0
 23
0.0
 14
1.0
 24
1.0
 15
0.0
 25
0.0
 16
0.0
 26
0.0
 36
1.0
 17
21.53181652046266
 27
4.967817982461326
 37
0.0
 40
14.09206798246669
 41
2.103759533754553
 42
50.0
 43
0.0
 44
0.0
 50
0.0
 51
0.0
 71
     0
 72
   100
 73
     1
 74
     1
 75
     0
 76
     0
 77
     0
 78
     0
281
     0
 65
     1
110
0.0
120
0.0
130
0.0
111
1.0
121
0.0
131
0.0
112
0.0
122
1.0
132
0.0
 79
     0
146
0.0
 60
     3
 61
     5
292
     1
282
     1
141
0.0
142
0.0
 63
   250
421
  3355443
  0
ENDTAB
  0
TABLE
  2
LTYPE
  5
5
330
0
100
AcDbSymbolTable
 70
     1
  0
LTYPE
  5
5B
330
5
100
AcDbSymbolTableRecord
100
AcDbLinetypeTableRecord
  2
ByBlock
 70
     0
  3

 72
    65
 73
     0
 40
0.0
  0
LTYPE
  5
5C
330
5
100
AcDbSymbolTableRecord
100
AcDbLinetypeTableRecord
  2
ByLayer
 70
     0
  3

 72
    65
 73
     0
 40
0.0
  0
LTYPE
  5
5D
330
5
100
AcDbSymbolTableRecord
100
AcDbLinetypeTableRecord
  2
Continuous
 70
     0
  3
Solid line
 72
    65
 73
     0
 40
0.0
  0
ENDTAB
  0
TABLE
  2
LAYER
  5
2
330
0
100
AcDbSymbolTable
 70
     2
  0
LAYER
  5
54
330
2
100
AcDbSymbolTableRecord
100
AcDbLayerTableRecord
  2
0
 70
     0
 62
     7
  6
Continuous
370
    -3
390
F
347
21
348
0
  0
LAYER
  5
78
330
2
100
AcDbSymbolTableRecord
100
AcDbLayerTableRecord
  2
Layer 1
 70
     0
 62
     7
  6
Continuous
370
     0
390
F
347
21
348
0
  0
ENDTAB
  0
TABLE
  2
STYLE
  5
3
330
0
100
AcDbSymbolTable
 70
     2
  0
STYLE
  5
55
330
3
100
AcDbSymbolTableRecord
100
AcDbTextStyleTableRecord
  2
Standard
 70
     0
 40
0.0
 41
1.0
 50
0.0
 71
     0
 42
0.2
  3
txt
  4

  0
STYLE
  5
5A
330
3
100
AcDbSymbolTableRecord
100
AcDbTextStyleTableRecord
  2
Annotative
 70
     0
 40
0.0
 41
1.0
 50
0.0
 71
     0
 42
0.2
  3
txt
  4

1001
AcadAnnotative
1000
AnnotativeData
1002
{
1070
     1
1070
     1
1002
}
  0
ENDTAB
  0
TABLE
  2
VIEW
  5
6
330
0
100
AcDbSymbolTable
 70
     0
  0
ENDTAB
  0
TABLE
  2
UCS
  5
7
330
0
100
AcDbSymbolTable
 70
     0
  0
ENDTAB
  0
TABLE
  2
APPID
  5
9
330
0
100
AcDbSymbolTable
 70
     2
  0
APPID
  5
56
330
9
100
AcDbSymbolTableRecord
100
AcDbRegAppTableRecord
  2
ACAD
 70
     0
  0
APPID
  5
5E
330
9
100
AcDbSymbolTableRecord
100
AcDbRegAppTableRecord
  2
AcadAnnotative
 70
     0
  0
ENDTAB
  0
TABLE
  2
DIMSTYLE
  5
A
330
0
100
AcDbSymbolTable
 70
     2
100
AcDbDimStyleTable
 71
     0
  0
DIMSTYLE
105
58
330
A
100
AcDbSymbolTableRecord
100
AcDbDimStyleTableRecord
  2
Standard
 70
     0
340
55
  0
DIMSTYLE
105
59
330
A
100
AcDbSymbolTableRecord
100
AcDbDimStyleTableRecord
  2
Annotative
 70
     0
340
55
1001
AcadAnnotative
1000
AnnotativeData
1002
{
1070
     1
1070
     1
1002
}
  0
ENDTAB
  0
TABLE
  2
BLOCK_RECORD
  5
1
330
0
100
AcDbSymbolTable
 70
     1
  0
BLOCK_RECORD
  5
70
330
1
100
AcDbSymbolTableRecord
100
AcDbBlockTableRecord
  2
*Model_Space
340
73
 70
     0
280
     1
281
     0
  0
BLOCK_RECORD
  5
6C
330
1
100
AcDbSymbolTableRecord
100
AcDbBlockTableRecord
  2
*Paper_Space
340
6F
 70
     0
280
     1
281
     0
  0
BLOCK_RECORD
  5
74
330
1
100
AcDbSymbolTableRecord
100
AcDbBlockTableRecord
  2
*Paper_Space0
340
77
 70
     0
280
     1
281
     0
  0
ENDTAB
  0
ENDSEC
  0
SECTION
  2
BLOCKS
  0
BLOCK
  5
71
330
70
100
AcDbEntity
  8
0
100
AcDbBlockBegin
  2
*Model_Space
 70
     0
 10
0.0
 20
0.0
 30
0.0
  3
*Model_Space
  1

  0
ENDBLK
  5
72
330
70
100
AcDbEntity
  8
0
100
AcDbBlockEnd
  0
BLOCK
  5
6D
330
6C
100
AcDbEntity
 67
     1
  8
0
100
AcDbBlockBegin
  2
*Paper_Space
 70
     0
 10
0.0
 20
0.0
 30
0.0
  3
*Paper_Space
  1

  0
ENDBLK
  5
6E
330
6C
100
AcDbEntity
 67
     1
  8
0
100
AcDbBlockEnd
  0
BLOCK
  5
75
330
74
100
AcDbEntity
 67
     1
  8
0
100
AcDbBlockBegin
  2
*Paper_Space0
 70
     0
 10
0.0
 20
0.0
 30
0.0
  3
*Paper_Space0
  1

  0
ENDBLK
  5
76
330
74
100
AcDbEntity
 67
     1
  8
0
100
AcDbBlockEnd
  0
ENDSEC
  0
SECTION
  2
ENTITIES
  0
SPLINE
  5
79
330
70
100
AcDbEntity
  8
Layer 1
 62
     1
420
 16711680
370
     5
100
AcDbSpline
210
0.0
220
0.0
230
1.0
 70
    11
 71
     3
 72
   263
 73
   259
 74
     0
 42
0.0000000001
 43
0.0000000001
 40
0.0
 40
0.0
 40
0.0
 40
0.0
 40
1.0
 40
1.0
 40
1.0
 40
2.0
 40
2.0
 40
2.0
 40
3.0
 40
3.0
 40
3.0
 40
4.0
 40
4.0
 40
4.0
 40
5.0
 40
5.0
 40
5.0
 40
6.0
 40
6.0
 40
6.0
 40
7.0
 40
7.0
 40
7.0
 40
8.0
 40
8.0
 40
8.0
 40
9.0
 40
9.0
 40
9.0
 40
10.0
 40
10.0
 40
10.0
 40
11.0
 40
11.0
 40
11.0
 40
12.0
 40
12.0
 40
12.0
 40
13.0
 40
13.0
 40
13.0
 40
14.0
 40
14.0
 40
14.0
 40
15.0
 40
15.0
 40
15.0
 40
16.0
 40
16.0
 40
16.0
 40
17.0
 40
17.0
 40
17.0
 40
18.0
 40
18.0
 40
18.0
 40
19.0
 40
19.0
 40
19.0
 40
20.0
 40
20.0
 40
20.0
 40
21.0
 40
21.0
 40
21.0
 40
22.0
 40
22.0
 40
22.0
 40
23.0
 40
23.0
 40
23.0
 40
24.0
 40
24.0
 40
24.0
 40
25.0
 40
25.0
 40
25.0
 40
26.0
 40
26.0
 40
26.0
 40
27.0
 40
27.0
 40
27.0
 40
28.0
 40
28.0
 40
28.0
 40
29.0
 40
29.0
 40
29.0
 40
30.0
 40
30.0
 40
30.0
 40
31.0
 40
31.0
 40
31.0
 40
32.0
 40
32.0
 40
32.0
 40
33.0
 40
33.0
 40
33.0
 40
34.0
 40
34.0
 40
34.0
 40
35.0
 40
35.0
 40
35.0
 40
36.0
 40
36.0
 40
36.0
 40
37.0
 40
37.0
 40
37.0
 40
38.0
 40
38.0
 40
38.0
 40
39.0
 40
39.0
 40
39.0
 40
40.0
 40
40.0
 40
40.0
 40
41.0
 40
41.0
 40
41.0
 40
42.0
 40
42.0
 40
42.0
 40
43.0
 40
43.0
 40
43.0
 40
44.0
 40
44.0
 40
44.0
 40
45.0
 40
45.0
 40
45.0
 40
46.0
 40
46.0
 40
46.0
 40
47.0
 40
47.0
 40
47.0
 40
48.0
 40
48.0
 40
48.0
 40
49.0
 40
49.0
 40
49.0
 40
50.0
 40
50.0
 40
50.0
 40
51.0
 40
51.0
 40
51.0
 40
52.0
 40
52.0
 40
52.0
 40
53.0
 40
53.0
 40
53.0
 40
54.0
 40
54.0
 40
54.0
 40
55.0
 40
55.0
 40
55.0
 40
56.0
 40
56.0
 40
56.0
 40
57.0
 40
57.0
 40
57.0
 40
58.0
 40
58.0
 40
58.0
 40
59.0
 40
59.0
 40
59.0
 40
60.0
 40
60.0
 40
60.0
 40
61.0
 40
61.0
 40
61.0
 40
62.0
 40
62.0
 40
62.0
 40
63.0
 40
63.0
 40
63.0
 40
64.0
 40
64.0
 40
64.0
 40
65.0
 40
65.0
 40
65.0
 40
66.0
 40
66.0
 40
66.0
 40
67.0
 40
67.0
 40
67.0
 40
68.0
 40
68.0
 40
68.0
 40
69.0
 40
69.0
 40
69.0
 40
70.0
 40
70.0
 40
70.0
 40
71.0
 40
71.0
 40
71.0
 40
72.0
 40
72.0
 40
72.0
 40
73.0
 40
73.0
 40
73.0
 40
74.0
 40
74.0
 40
74.0
 40
75.0
 40
75.0
 40
75.0
 40
76.0
 40
76.0
 40
76.0
 40
77.0
 40
77.0
 40
77.0
 40
78.0
 40
78.0
 40
78.0
 40
79.0
 40
79.0
 40
79.0
 40
80.0
 40
80.0
 40
80.0
 40
81.0
 40
81.0
 40
81.0
 40
82.0
 40
82.0
 40
82.0
 40
83.0
 40
83.0
 40
83.0
 40
84.0
 40
84.0
 40
84.0
 40
85.0
 40
85.0
 40
85.0
 40
86.0
 40
86.0
 40
86.0
 40
86.0
 10
7.118000030517627
 20
11.75699999928474
 30
0.0
 10
7.118000030517627
 20
11.75699999928474
 30
0.0
 10
7.118000030517627
 20
10.91200000047684
 30
0.0
 10
7.118000030517627
 20
10.91200000047684
 30
0.0
 10
7.118000030517627
 20
10.91200000047684
 30
0.0
 10
7.0
 20
10.91200000047684
 30
0.0
 10
7.0
 20
10.91200000047684
 30
0.0
 10
7.0
 20
10.91200000047684
 30
0.0
 10
7.0
 20
9.81999993324281
 30
0.0
 10
7.0
 20
9.81999993324281
 30
0.0
 10
7.0
 20
9.81999993324281
 30
0.0
 10
7.118000030517627
 20
9.81999993324281
 30
0.0
 10
7.118000030517627
 20
9.81999993324281
 30
0.0
 10
7.118000030517627
 20
9.81999993324281
 30
0.0
 10
7.118000030517627
 20
8.729000091552734
 30
0.0
 10
7.118000030517627
 20
8.729000091552734
 30
0.0
 10
7.118000030517627
 20
8.729000091552734
 30
0.0
 10
7.0
 20
8.729000091552734
 30
0.0
 10
7.0
 20
8.729000091552734
 30
0.0
 10
7.0
 20
8.729000091552734
 30
0.0
 10
7.0
 20
7.637000083923352
 30
0.0
 10
7.0
 20
7.637000083923352
 30
0.0
 10
7.0
 20
7.637000083923352
 30
0.0
 10
7.118000030517627
 20
7.637000083923352
 30
0.0
 10
7.118000030517627
 20
7.637000083923352
 30
0.0
 10
7.118000030517627
 20
7.637000083923352
 30
0.0
 10
7.118000030517627
 20
6.546000003814697
 30
0.0
 10
7.118000030517627
 20
6.546000003814697
 30
0.0
 10
7.118000030517627
 20
6.546000003814697
 30
0.0
 10
7.0
 20
6.546000003814697
 30
0.0
 10
7.0
 20
6.546000003814697
 30
0.0
 10
7.0
 20
6.546000003814697
 30
0.0
 10
7.0
 20
5.453999996185302
 30
0.0
 10
7.0
 20
5.453999996185302
 30
0.0
 10
7.0
 20
5.453999996185302
 30
0.0
 10
7.118000030517627
 20
5.453999996185302
 30
0.0
 10
7.118000030517627
 20
5.453999996185302
 30
0.0
 10
7.118000030517627
 20
5.453999996185302
 30
0.0
 10
7.118000030517627
 20
4.36299991607666
 30
0.0
 10
7.118000030517627
 20
4.36299991607666
 30
0.0
 10
7.118000030517627
 20
4.36299991607666
 30
0.0
 10
7.0
 20
4.36299991607666
 30
0.0
 10
7.0
 20
4.36299991607666
 30
0.0
 10
7.0
 20
4.36299991607666
 30
0.0
 10
7.0
 20
3.270999908447265
 30
0.0
 10
7.0
 20
3.270999908447265
 30
0.0
 10
7.0
 20
3.270999908447265
 30
0.0
 10
7.118000030517627
 20
3.270999908447265
 30
0.0
 10
7.118000030517627
 20
3.270999908447265
 30
0.0
 10
7.118000030517627
 20
3.270999908447265
 30
0.0
 10
7.118000030517627
 20
2.180000305175781
 30
0.0
 10
7.118000030517627
 20
2.180000305175781
 30
0.0
 10
7.118000030517627
 20
2.180000305175781
 30
0.0
 10
7.0
 20
2.180000305175781
 30
0.0
 10
7.0
 20
2.180000305175781
 30
0.0
 10
7.0
 20
2.180000305175781
 30
0.0
 10
7.0
 20
1.088000297546386
 30
0.0
 10
7.0
 20
1.088000297546386
 30
0.0
 10
7.0
 20
1.088000297546386
 30
0.0
 10
7.118000030517627
 20
1.088000297546386
 30
0.0
 10
7.118000030517627
 20
1.088000297546386
 30
0.0
 10
7.118000030517627
 20
1.088000297546386
 30
0.0
 10
7.118000030517627
 20
0.2430000305175781
 30
0.0
 10
7.118000030517627
 20
0.2430000305175781
 30
0.0
 10
7.118000030517627
 20
0.2430000305175781
 30
0.0
 10
8.58799934387207
 20
0.2430000305175781
 30
0.0
 10
8.58799934387207
 20
0.2430000305175781
 30
0.0
 10
8.58799934387207
 20
0.2430000305175781
 30
0.0
 10
8.58799934387207
 20
0.125
 30
0.0
 10
8.58799934387207
 20
0.125
 30
0.0
 10
8.58799934387207
 20
0.125
 30
0.0
 10
9.68000030517583
 20
0.125
 30
0.0
 10
9.68000030517583
 20
0.125
 30
0.0
 10
9.68000030517583
 20
0.125
 30
0.0
 10
9.68000030517583
 20
0.2430000305175781
 30
0.0
 10
9.68000030517583
 20
0.2430000305175781
 30
0.0
 10
9.68000030517583
 20
0.2430000305175781
 30
0.0
 10
10.77099990844722
 20
0.2430000305175781
 30
0.0
 10
10.77099990844722
 20
0.2430000305175781
 30
0.0
 10
10.77099990844722
 20
0.2430000305175781
 30
0.0
 10
10.77099990844722
 20
0.125
 30
0.0
 10
10.77099990844722
 20
0.125
 30
0.0
 10
10.77099990844722
 20
0.125
 30
0.0
 10
11.86300086975097
 20
0.125
 30
0.0
 10
11.86300086975097
 20
0.125
 30
0.0
 10
11.86300086975097
 20
0.125
 30
0.0
 10
11.86300086975097
 20
0.2430000305175781
 30
0.0
 10
11.86300086975097
 20
0.2430000305175781
 30
0.0
 10
11.86300086975097
 20
0.2430000305175781
 30
0.0
 10
12.95400047302251
 20
0.2430000305175781
 30
0.0
 10
12.95400047302251
 20
0.2430000305175781
 30
0.0
 10
12.95400047302251
 20
0.2430000305175781
 30
0.0
 10
12.95400047302251
 20
0.125
 30
0.0
 10
12.95400047302251
 20
0.125
 30
0.0
 10
12.95400047302251
 20
0.125
 30
0.0
 10
14.04600143432611
 20
0.125
 30
0.0
 10
14.04600143432611
 20
0.125
 30
0.0
 10
14.04600143432611
 20
0.125
 30
0.0
 10
14.04600143432611
 20
0.2430000305175781
 30
0.0
 10
14.04600143432611
 20
0.2430000305175781
 30
0.0
 10
14.04600143432611
 20
0.2430000305175781
 30
0.0
 10
15.13700103759764
 20
0.2430000305175781
 30
0.0
 10
15.13700103759764
 20
0.2430000305175781
 30
0.0
 10
15.13700103759764
 20
0.2430000305175781
 30
0.0
 10
15.13700103759764
 20
0.125
 30
0.0
 10
15.13700103759764
 20
0.125
 30
0.0
 10
15.13700103759764
 20
0.125
 30
0.0
 10
16.22900009155278
 20
0.125
 30
0.0
 10
16.22900009155278
 20
0.125
 30
0.0
 10
16.22900009155278
 20
0.125
 30
0.0
 10
16.22900009155278
 20
0.2430000305175781
 30
0.0
 10
16.22900009155278
 20
0.2430000305175781
 30
0.0
 10
16.22900009155278
 20
0.2430000305175781
 30
0.0
 10
17.31999969482417
 20
0.2430000305175781
 30
0.0
 10
17.31999969482417
 20
0.2430000305175781
 30
0.0
 10
17.31999969482417
 20
0.2430000305175781
 30
0.0
 10
17.31999969482417
 20
0.125
 30
0.0
 10
17.31999969482417
 20
0.125
 30
0.0
 10
17.31999969482417
 20
0.125
 30
0.0
 10
18.41199874877931
 20
0.125
 30
0.0
 10
18.41199874877931
 20
0.125
 30
0.0
 10
18.41199874877931
 20
0.125
 30
0.0
 10
18.41199874877931
 20
0.2430000305175781
 30
0.0
 10
18.41199874877931
 20
0.2430000305175781
 30
0.0
 10
18.41199874877931
 20
0.2430000305175781
 30
0.0
 10
19.50299835205083
 20
0.2430000305175781
 30
0.0
 10
19.50299835205083
 20
0.2430000305175781
 30
0.0
 10
19.50299835205083
 20
0.2430000305175781
 30
0.0
 10
19.88199996948237
 20
0.2430000305175781
 30
0.0
 10
19.88199996948237
 20
0.2430000305175781
 30
0.0
 10
19.88199996948237
 20
0.2430000305175781
 30
0.0
 10
19.88199996948237
 20
1.088000297546386
 30
0.0
 10
19.88199996948237
 20
1.088000297546386
 30
0.0
 10
19.88199996948237
 20
1.088000297546386
 30
0.0
 10
20.0
 20
1.088000297546386
 30
0.0
 10
20.0
 20
1.088000297546386
 30
0.0
 10
20.0
 20
1.088000297546386
 30
0.0
 10
20.0
 20
2.180000305175781
 30
0.0
 10
20.0
 20
2.180000305175781
 30
0.0
 10
20.0
 20
2.180000305175781
 30
0.0
 10
19.88199996948237
 20
2.180000305175781
 30
0.0
 10
19.88199996948237
 20
2.180000305175781
 30
0.0
 10
19.88199996948237
 20
2.180000305175781
 30
0.0
 10
19.88199996948237
 20
3.270999908447265
 30
0.0
 10
19.88199996948237
 20
3.270999908447265
 30
0.0
 10
19.88199996948237
 20
3.270999908447265
 30
0.0
 10
20.0
 20
3.270999908447265
 30
0.0
 10
20.0
 20
3.270999908447265
 30
0.0
 10
20.0
 20
3.270999908447265
 30
0.0
 10
20.0
 20
4.36299991607666
 30
0.0
 10
20.0
 20
4.36299991607666
 30
0.0
 10
20.0
 20
4.36299991607666
 30
0.0
 10
19.88199996948237
 20
4.36299991607666
 30
0.0
 10
19.88199996948237
 20
4.36299991607666
 30
0.0
 10
19.88199996948237
 20
4.36299991607666
 30
0.0
 10
19.88199996948237
 20
5.453999996185302
 30
0.0
 10
19.88199996948237
 20
5.453999996185302
 30
0.0
 10
19.88199996948237
 20
5.453999996185302
 30
0.0
 10
20.0
 20
5.453999996185302
 30
0.0
 10
20.0
 20
5.453999996185302
 30
0.0
 10
20.0
 20
5.453999996185302
 30
0.0
 10
20.0
 20
6.546000003814697
 30
0.0
 10
20.0
 20
6.546000003814697
 30
0.0
 10
20.0
 20
6.546000003814697
 30
0.0
 10
19.88199996948237
 20
6.546000003814697
 30
0.0
 10
19.88199996948237
 20
6.546000003814697
 30
0.0
 10
19.88199996948237
 20
6.546000003814697
 30
0.0
 10
19.88199996948237
 20
7.637000083923352
 30
0.0
 10
19.88199996948237
 20
7.637000083923352
 30
0.0
 10
19.88199996948237
 20
7.637000083923352
 30
0.0
 10
20.0
 20
7.637000083923352
 30
0.0
 10
20.0
 20
7.637000083923352
 30
0.0
 10
20.0
 20
7.637000083923352
 30
0.0
 10
20.0
 20
8.729000091552734
 30
0.0
 10
20.0
 20
8.729000091552734
 30
0.0
 10
20.0
 20
8.729000091552734
 30
0.0
 10
19.88199996948237
 20
8.729000091552734
 30
0.0
 10
19.88199996948237
 20
8.729000091552734
 30
0.0
 10
19.88199996948237
 20
8.729000091552734
 30
0.0
 10
19.88199996948237
 20
9.81999993324281
 30
0.0
 10
19.88199996948237
 20
9.81999993324281
 30
0.0
 10
19.88199996948237
 20
9.81999993324281
 30
0.0
 10
20.0
 20
9.81999993324281
 30
0.0
 10
20.0
 20
9.81999993324281
 30
0.0
 10
20.0
 20
9.81999993324281
 30
0.0
 10
20.0
 20
10.91200000047684
 30
0.0
 10
20.0
 20
10.91200000047684
 30
0.0
 10
20.0
 20
10.91200000047684
 30
0.0
 10
19.88199996948237
 20
10.91200000047684
 30
0.0
 10
19.88199996948237
 20
10.91200000047684
 30
0.0
 10
19.88199996948237
 20
10.91200000047684
 30
0.0
 10
19.88199996948237
 20
11.75699999928474
 30
0.0
 10
19.88199996948237
 20
11.75699999928474
 30
0.0
 10
19.88199996948237
 20
11.75699999928474
 30
0.0
 10
18.41199874877931
 20
11.75699999928474
 30
0.0
 10
18.41199874877931
 20
11.75699999928474
 30
0.0
 10
18.41199874877931
 20
11.75699999928474
 30
0.0
 10
18.41199874877931
 20
11.875
 30
0.0
 10
18.41199874877931
 20
11.875
 30
0.0
 10
18.41199874877931
 20
11.875
 30
0.0
 10
17.31999969482417
 20
11.875
 30
0.0
 10
17.31999969482417
 20
11.875
 30
0.0
 10
17.31999969482417
 20
11.875
 30
0.0
 10
17.31999969482417
 20
11.75699999928474
 30
0.0
 10
17.31999969482417
 20
11.75699999928474
 30
0.0
 10
17.31999969482417
 20
11.75699999928474
 30
0.0
 10
16.22900009155278
 20
11.75699999928474
 30
0.0
 10
16.22900009155278
 20
11.75699999928474
 30
0.0
 10
16.22900009155278
 20
11.75699999928474
 30
0.0
 10
16.22900009155278
 20
11.875
 30
0.0
 10
16.22900009155278
 20
11.875
 30
0.0
 10
16.22900009155278
 20
11.875
 30
0.0
 10
15.13700103759764
 20
11.875
 30
0.0
 10
15.13700103759764
 20
11.875
 30
0.0
 10
15.13700103759764
 20
11.875
 30
0.0
 10
15.13700103759764
 20
11.75699999928474
 30
0.0
 10
15.13700103759764
 20
11.75699999928474
 30
0.0
 10
15.13700103759764
 20
11.75699999928474
 30
0.0
 10
14.04600143432611
 20
11.75699999928474
 30
0.0
 10
14.04600143432611
 20
11.75699999928474
 30
0.0
 10
14.04600143432611
 20
11.75699999928474
 30
0.0
 10
14.04600143432611
 20
11.875
 30
0.0
 10
14.04600143432611
 20
11.875
 30
0.0
 10
14.04600143432611
 20
11.875
 30
0.0
 10
12.95400047302251
 20
11.875
 30
0.0
 10
12.95400047302251
 20
11.875
 30
0.0
 10
12.95400047302251
 20
11.875
 30
0.0
 10
12.95400047302251
 20
11.75699999928474
 30
0.0
 10
12.95400047302251
 20
11.75699999928474
 30
0.0
 10
12.95400047302251
 20
11.75699999928474
 30
0.0
 10
11.86300086975097
 20
11.75699999928474
 30
0.0
 10
11.86300086975097
 20
11.75699999928474
 30
0.0
 10
11.86300086975097
 20
11.75699999928474
 30
0.0
 10
11.86300086975097
 20
11.875
 30
0.0
 10
11.86300086975097
 20
11.875
 30
0.0
 10
11.86300086975097
 20
11.875
 30
0.0
 10
10.77099990844722
 20
11.875
 30
0.0
 10
10.77099990844722
 20
11.875
 30
0.0
 10
10.77099990844722
 20
11.875
 30
0.0
 10
10.77099990844722
 20
11.75699999928474
 30
0.0
 10
10.77099990844722
 20
11.75699999928474
 30
0.0
 10
10.77099990844722
 20
11.75699999928474
 30
0.0
 10
9.68000030517583
 20
11.75699999928474
 30
0.0
 10
9.68000030517583
 20
11.75699999928474
 30
0.0
 10
9.68000030517583
 20
11.75699999928474
 30
0.0
 10
9.68000030517583
 20
11.875
 30
0.0
 10
9.68000030517583
 20
11.875
 30
0.0
 10
9.68000030517583
 20
11.875
 30
0.0
 10
8.58799934387207
 20
11.875
 30
0.0
 10
8.58799934387207
 20
11.875
 30
0.0
 10
8.58799934387207
 20
11.875
 30
0.0
 10
8.58799934387207
 20
11.75699999928474
 30
0.0
 10
8.58799934387207
 20
11.75699999928474
 30
0.0
 10
8.58799934387207
 20
11.75699999928474
 30
0.0
 10
7.49699974060056
 20
11.75699999928474
 30
0.0
 10
7.49699974060056
 20
11.75699999928474
 30
0.0
 10
7.49699974060056
 20
11.75699999928474
 30
0.0
 10
7.118000030517627
 20
11.75699999928474
 30
0.0
 10
7.118000030517627
 20
11.75699999928474
 30
0.0
  0
SPLINE
  5
7A
330
70
100
AcDbEntity
  8
Layer 1
 62
   250
420
  2301728
370
     5
100
AcDbSpline
210
0.0
220
0.0
230
1.0
 70
     9
 71
     3
 72
    17
 73
    13
 74
     0
 42
0.0000000001
 43
0.0000000001
 40
0.0
 40
0.0
 40
0.0
 40
0.0
 40
1.0
 40
1.0
 40
1.0
 40
2.0
 40
2.0
 40
2.0
 40
3.0
 40
3.0
 40
3.0
 40
4.0
 40
4.0
 40
4.0
 40
4.0
 10
17.95225972222223
 20
2.0147297723632
 30
0.0
 10
18.31122777777778
 20
2.0147297723632
 30
0.0
 10
18.60224444444444
 20
1.723720057492502
 30
0.0
 10
18.60224444444444
 20
1.364732566561289
 30
0.0
 10
18.60224444444444
 20
1.005743686741223
 30
0.0
 10
18.31122777777778
 20
0.7147353607593788
 30
0.0
 10
17.95225972222223
 20
0.7147353607593788
 30
0.0
 10
17.59326527777778
 20
0.7147353607593788
 30
0.0
 10
17.30224999999999
 20
1.005743686741223
 30
0.0
 10
17.30224999999999
 20
1.364732566561289
 30
0.0
 10
17.30224999999999
 20
1.723720057492502
 30
0.0
 10
17.59326527777778
 20
2.0147297723632
 30
0.0
 10
17.95225972222223
 20
2.0147297723632
 30
0.0
  0
SPLINE
  5
7B
330
70
100
AcDbEntity
  8
Layer 1
 62
   250
420
  2301728
370
     5
100
AcDbSpline
210
0.0
220
0.0
230
1.0
 70
     9
 71
     3
 72
    17
 73
    13
 74
     0
 42
0.0000000001
 43
0.0000000001
 40
0.0
 40
0.0
 40
0.0
 40
0.0
 40
1.0
 40
1.0
 40
1.0
 40
2.0
 40
2.0
 40
2.0
 40
3.0
 40
3.0
 40
3.0
 40
4.0
 40
4.0
 40
4.0
 40
4.0
 10
17.95225972222223
 20
5.109272749744023
 30
0.0
 10
18.31122777777778
 20
5.109272749744023
 30
0.0
 10
18.60224444444444
 20
4.818264423762179
 30
0.0
 10
18.60224444444444
 20
4.459275543942112
 30
0.0
 10
18.60224444444444
 20
4.100286664122045
 30
0.0
 10
18.31122777777778
 20
3.809278338140201
 30
0.0
 10
17.95225972222223
 20
3.809278338140201
 30
0.0
 10
17.59326527777778
 20
3.809278338140201
 30
0.0
 10
17.30224999999999
 20
4.100286664122045
 30
0.0
 10
17.30224999999999
 20
4.459275543942112
 30
0.0
 10
17.30224999999999
 20
4.818264423762179
 30
0.0
 10
17.59326527777778
 20
5.109272749744023
 30
0.0
 10
17.95225972222223
 20
5.109272749744023
 30
0.0
  0
SPLINE
  5
7C
330
70
100
AcDbEntity
  8
Layer 1
 62
   250
420
  2301728
370
     5
100
AcDbSpline
210
0.0
220
0.0
230
1.0
 70
     9
 71
     3
 72
    17
 73
    13
 74
     0
 42
0.0000000001
 43
0.0000000001
 40
0.0
 40
0.0
 40
0.0
 40
0.0
 40
1.0
 40
1.0
 40
1.0
 40
2.0
 40
2.0
 40
2.0
 40
3.0
 40
3.0
 40
3.0
 40
4.0
 40
4.0
 40
4.0
 40
4.0
 10
17.95225972222223
 20
8.190714338566937
 30
0.0
 10
18.31122777777778
 20
8.190714338566937
 30
0.0
 10
18.60224444444444
 20
7.899711568140509
 30
0.0
 10
18.60224444444444
 20
7.540731021653565
 30
0.0
 10
18.60224444444444
 20
7.181735197389254
 30
0.0
 10
18.31122777777778
 20
6.890719926963129
 30
0.0
 10
17.95225972222223
 20
6.890719926963129
 30
0.0
 10
17.59326527777778
 20
6.890719926963129
 30
0.0
 10
17.30224999999999
 20
7.181735197389254
 30
0.0
 10
17.30224999999999
 20
7.540731021653565
 30
0.0
 10
17.30224999999999
 20
7.899711568140509
 30
0.0
 10
17.59326527777778
 20
8.190714338566937
 30
0.0
 10
17.95225972222223
 20
8.190714338566937
 30
0.0
  0
SPLINE
  5
7D
330
70
100
AcDbEntity
  8
Layer 1
 62
   250
420
  2301728
370
     5
100
AcDbSpline
210
0.0
220
0.0
230
1.0
 70
     9
 71
     3
 72
    17
 73
    13
 74
     0
 42
0.0000000001
 43
0.0000000001
 40
0.0
 40
0.0
 40
0.0
 40
0.0
 40
1.0
 40
1.0
 40
1.0
 40
2.0
 40
2.0
 40
2.0
 40
3.0
 40
3.0
 40
3.0
 40
4.0
 40
4.0
 40
4.0
 40
4.0
 10
17.95225972222223
 20
11.28526463924063
 30
0.0
 10
18.31122777777778
 20
11.28526463924063
 30
0.0
 10
18.60224444444444
 20
10.99426186146286
 30
0.0
 10
18.60224444444444
 20
10.63526741701843
 30
0.0
 10
18.60224444444444
 20
10.2762715836851
 30
0.0
 10
18.31122777777778
 20
9.985269848788208
 30
0.0
 10
17.95225972222223
 20
9.985269848788208
 30
0.0
 10
17.59326527777778
 20
9.985269848788208
 30
0.0
 10
17.30224999999999
 20
10.2762715836851
 30
0.0
 10
17.30224999999999
 20
10.63526741701843
 30
0.0
 10
17.30224999999999
 20
10.99426186146286
 30
0.0
 10
17.59326527777778
 20
11.28526463924063
 30
0.0
 10
17.95225972222223
 20
11.28526463924063
 30
0.0
  0
CIRCLE
  5
7E
330
70
100
AcDbEntity
  8
Layer 1
 62
   250
420
  2301728
370
     5
100
AcDbCircle
 10
14.99574444444444
 20
1.364732566561289
 30
0.0
 40
0.6500041584565079
  0
CIRCLE
  5
7F
330
70
100
AcDbEntity
  8
Layer 1
 62
   250
420
  2301728
370
     5
100
AcDbCircle
 10
14.99574444444444
 20
4.459275543942112
 30
0.0
 40
0.6500041584565079
  0
SPLINE
  5
80
330
70
100
AcDbEntity
  8
Layer 1
 62
   250
420
  2301728
370
     5
100
AcDbSpline
210
0.0
220
0.0
230
1.0
 70
     9
 71
     3
 72
    17
 73
    13
 74
     0
 42
0.0000000001
 43
0.0000000001
 40
0.0
 40
0.0
 40
0.0
 40
0.0
 40
1.0
 40
1.0
 40
1.0
 40
2.0
 40
2.0
 40
2.0
 40
3.0
 40
3.0
 40
3.0
 40
4.0
 40
4.0
 40
4.0
 40
4.0
 10
14.99574444444445
 20
8.190714338566937
 30
0.0
 10
15.35473888888888
 20
8.190714338566937
 30
0.0
 10
15.64575555555555
 20
7.899711568140509
 30
0.0
 10
15.64575555555555
 20
7.540731021653565
 30
0.0
 10
15.64575555555555
 20
7.181735197389254
 30
0.0
 10
15.35473888888888
 20
6.890719926963129
 30
0.0
 10
14.99574444444445
 20
6.890719926963129
 30
0.0
 10
14.63674861111111
 20
6.890719926963129
 30
0.0
 10
14.34573333333332
 20
7.181735197389254
 30
0.0
 10
14.34573333333332
 20
7.540731021653565
 30
0.0
 10
14.34573333333332
 20
7.899711568140509
 30
0.0
 10
14.63674861111111
 20
8.190714338566937
 30
0.0
 10
14.99574444444445
 20
8.190714338566937
 30
0.0
  0
CIRCLE
  5
81
330
70
100
AcDbEntity
  8
Layer 1
 62
   250
420
  2301728
370
     5
100
AcDbCircle
 10
14.99574444444444
 20
10.63526733051642
 30
0.0
 40
0.6500042964196632
  0
SPLINE
  5
82
330
70
100
AcDbEntity
  8
Layer 1
 62
   250
420
  2301728
370
     5
100
AcDbSpline
210
0.0
220
0.0
230
1.0
 70
     9
 71
     3
 72
    17
 73
    13
 74
     0
 42
0.0000000001
 43
0.0000000001
 40
0.0
 40
0.0
 40
0.0
 40
0.0
 40
1.0
 40
1.0
 40
1.0
 40
2.0
 40
2.0
 40
2.0
 40
3.0
 40
3.0
 40
3.0
 40
4.0
 40
4.0
 40
4.0
 40
4.0
 10
12.0217510851939
 20
2.0147297723632
 30
0.0
 10
12.3807330205697
 20
2.0147297723632
 30
0.0
 10
12.67175
 20
1.723720057492502
 30
0.0
 10
12.67175
 20
1.364732566561289
 30
0.0
 10
12.67175
 20
1.005743686741223
 30
0.0
 10
12.3807330205697
 20
0.7147353607593788
 30
0.0
 10
12.0217510851939
 20
0.7147353607593788
 30
0.0
 10
11.66275694444443
 20
0.7147353607593788
 30
0.0
 10
11.37174137939231
 20
1.005743686741223
 30
0.0
 10
11.37174137939231
 20
1.364732566561289
 30
0.0
 10
11.37174137939231
 20
1.723720057492502
 30
0.0
 10
11.66275694444443
 20
2.0147297723632
 30
0.0
 10
12.0217510851939
 20
2.0147297723632
 30
0.0
  0
SPLINE
  5
83
330
70
100
AcDbEntity
  8
Layer 1
 62
   250
420
  2301728
370
     5
100
AcDbSpline
210
0.0
220
0.0
230
1.0
 70
     9
 71
     3
 72
    17
 73
    13
 74
     0
 42
0.0000000001
 43
0.0000000001
 40
0.0
 40
0.0
 40
0.0
 40
0.0
 40
1.0
 40
1.0
 40
1.0
 40
2.0
 40
2.0
 40
2.0
 40
3.0
 40
3.0
 40
3.0
 40
4.0
 40
4.0
 40
4.0
 40
4.0
 10
12.0217510851939
 20
5.109272749744023
 30
0.0
 10
12.3807330205697
 20
5.109272749744023
 30
0.0
 10
12.67175
 20
4.818264423762179
 30
0.0
 10
12.67175
 20
4.459275543942112
 30
0.0
 10
12.67175
 20
4.100286664122045
 30
0.0
 10
12.3807330205697
 20
3.809278338140201
 30
0.0
 10
12.0217510851939
 20
3.809278338140201
 30
0.0
 10
11.66275694444443
 20
3.809278338140201
 30
0.0
 10
11.37174137939231
 20
4.100286664122045
 30
0.0
 10
11.37174137939231
 20
4.459275543942112
 30
0.0
 10
11.37174137939231
 20
4.818264423762179
 30
0.0
 10
11.66275694444443
 20
5.109272749744023
 30
0.0
 10
12.0217510851939
 20
5.109272749744023
 30
0.0
  0
SPLINE
  5
84
330
70
100
AcDbEntity
  8
Layer 1
 62
   250
420
  2301728
370
     5
100
AcDbSpline
210
0.0
220
0.0
230
1.0
 70
     9
 71
     3
 72
    17
 73
    13
 74
     0
 42
0.0000000001
 43
0.0000000001
 40
0.0
 40
0.0
 40
0.0
 40
0.0
 40
1.0
 40
1.0
 40
1.0
 40
2.0
 40
2.0
 40
2.0
 40
3.0
 40
3.0
 40
3.0
 40
4.0
 40
4.0
 40
4.0
 40
4.0
 10
12.0217510851939
 20
8.190714338566937
 30
0.0
 10
12.3807330205697
 20
8.190714338566937
 30
0.0
 10
12.67175
 20
7.899711568140509
 30
0.0
 10
12.67175
 20
7.540731021653565
 30
0.0
 10
12.67175
 20
7.181735197389254
 30
0.0
 10
12.3807330205697
 20
6.890719926963129
 30
0.0
 10
12.0217510851939
 20
6.890719926963129
 30
0.0
 10
11.66275694444443
 20
6.890719926963129
 30
0.0
 10
11.37174137939231
 20
7.181735197389254
 30
0.0
 10
11.37174137939231
 20
7.540731021653565
 30
0.0
 10
11.37174137939231
 20
7.899711568140509
 30
0.0
 10
11.66275694444443
 20
8.190714338566937
 30
0.0
 10
12.0217510851939
 20
8.190714338566937
 30
0.0
  0
SPLINE
  5
85
330
70
100
AcDbEntity
  8
Layer 1
 62
   250
420
  2301728
370
     5
100
AcDbSpline
210
0.0
220
0.0
230
1.0
 70
     9
 71
     3
 72
    17
 73
    13
 74
     0
 42
0.0000000001
 43
0.0000000001
 40
0.0
 40
0.0
 40
0.0
 40
0.0
 40
1.0
 40
1.0
 40
1.0
 40
2.0
 40
2.0
 40
2.0
 40
3.0
 40
3.0
 40
3.0
 40
4.0
 40
4.0
 40
4.0
 40
4.0
 10
12.0217510851939
 20
11.28526463924063
 30
0.0
 10
12.3807330205697
 20
11.28526463924063
 30
0.0
 10
12.67175
 20
10.99426186146286
 30
0.0
 10
12.67175
 20
10.63526741701843
 30
0.0
 10
12.67175
 20
10.2762715836851
 30
0.0
 10
12.3807330205697
 20
9.985269848788208
 30
0.0
 10
12.0217510851939
 20
9.985269848788208
 30
0.0
 10
11.66275694444443
 20
9.985269848788208
 30
0.0
 10
11.37174137939231
 20
10.2762715836851
 30
0.0
 10
11.37174137939231
 20
10.63526741701843
 30
0.0
 10
11.37174137939231
 20
10.99426186146286
 30
0.0
 10
11.66275694444443
 20
11.28526463924063
 30
0.0
 10
12.0217510851939
 20
11.28526463924063
 30
0.0
  0
SPLINE
  5
86
330
70
100
AcDbEntity
  8
Layer 1
 62
   250
420
  2301728
370
     5
100
AcDbSpline
210
0.0
220
0.0
230
1.0
 70
     9
 71
     3
 72
    17
 73
    13
 74
     0
 42
0.0000000001
 43
0.0000000001
 40
0.0
 40
0.0
 40
0.0
 40
0.0
 40
1.0
 40
1.0
 40
1.0
 40
2.0
 40
2.0
 40
2.0
 40
3.0
 40
3.0
 40
3.0
 40
4.0
 40
4.0
 40
4.0
 40
4.0
 10
9.047766666666676
 20
2.0147297723632
 30
0.0
 10
9.406748611111121
 20
2.0147297723632
 30
0.0
 10
9.697763888888882
 20
1.723720057492502
 30
0.0
 10
9.697763888888882
 20
1.364732566561289
 30
0.0
 10
9.697763888888882
 20
1.005743686741223
 30
0.0
 10
9.406748611111121
 20
0.7147353607593788
 30
0.0
 10
9.047766666666676
 20
0.7147353607593788
 30
0.0
 10
8.688770833333352
 20
0.7147353607593788
 30
0.0
 10
8.397755343410405
 20
1.005743686741223
 30
0.0
 10
8.397755343410405
 20
1.364732566561289
 30
0.0
 10
8.397755343410405
 20
1.723720057492502
 30
0.0
 10
8.688770833333352
 20
2.0147297723632
 30
0.0
 10
9.047766666666676
 20
2.0147297723632
 30
0.0
  0
SPLINE
  5
87
330
70
100
AcDbEntity
  8
Layer 1
 62
   250
420
  2301728
370
     5
100
AcDbSpline
210
0.0
220
0.0
230
1.0
 70
     9
 71
     3
 72
    17
 73
    13
 74
     0
 42
0.0000000001
 43
0.0000000001
 40
0.0
 40
0.0
 40
0.0
 40
0.0
 40
1.0
 40
1.0
 40
1.0
 40
2.0
 40
2.0
 40
2.0
 40
3.0
 40
3.0
 40
3.0
 40
4.0
 40
4.0
 40
4.0
 40
4.0
 10
9.047766666666676
 20
5.109272749744023
 30
0.0
 10
9.406748611111121
 20
5.109272749744023
 30
0.0
 10
9.697763888888882
 20
4.818264423762179
 30
0.0
 10
9.697763888888882
 20
4.459275543942112
 30
0.0
 10
9.697763888888882
 20
4.100286664122045
 30
0.0
 10
9.406748611111121
 20
3.809278338140201
 30
0.0
 10
9.047766666666676
 20
3.809278338140201
 30
0.0
 10
8.688770833333352
 20
3.809278338140201
 30
0.0
 10
8.397755343410405
 20
4.100286664122045
 30
0.0
 10
8.397755343410405
 20
4.459275543942112
 30
0.0
 10
8.397755343410405
 20
4.818264423762179
 30
0.0
 10
8.688770833333352
 20
5.109272749744023
 30
0.0
 10
9.047766666666676
 20
5.109272749744023
 30
0.0
  0
SPLINE
  5
88
330
70
100
AcDbEntity
  8
Layer 1
 62
   250
420
  2301728
370
     5
100
AcDbSpline
210
0.0
220
0.0
230
1.0
 70
     9
 71
     3
 72
    17
 73
    13
 74
     0
 42
0.0000000001
 43
0.0000000001
 40
0.0
 40
0.0
 40
0.0
 40
0.0
 40
1.0
 40
1.0
 40
1.0
 40
2.0
 40
2.0
 40
2.0
 40
3.0
 40
3.0
 40
3.0
 40
4.0
 40
4.0
 40
4.0
 40
4.0
 10
9.047766666666676
 20
8.190714338566937
 30
0.0
 10
9.406748611111121
 20
8.190714338566937
 30
0.0
 10
9.697763888888882
 20
7.899711568140509
 30
0.0
 10
9.697763888888882
 20
7.540731021653565
 30
0.0
 10
9.697763888888882
 20
7.181735197389254
 30
0.0
 10
9.406748611111121
 20
6.890719926963129
 30
0.0
 10
9.047766666666676
 20
6.890719926963129
 30
0.0
 10
8.688770833333352
 20
6.890719926963129
 30
0.0
 10
8.397755343410405
 20
7.181735197389254
 30
0.0
 10
8.397755343410405
 20
7.540731021653565
 30
0.0
 10
8.397755343410405
 20
7.899711568140509
 30
0.0
 10
8.688770833333352
 20
8.190714338566937
 30
0.0
 10
9.047766666666676
 20
8.190714338566937
 30
0.0
  0
SPLINE
  5
89
330
70
100
AcDbEntity
  8
Layer 1
 62
   250
420
  2301728
370
     5
100
AcDbSpline
210
0.0
220
0.0
230
1.0
 70
     9
 71
     3
 72
    17
 73
    13
 74
     0
 42
0.0000000001
 43
0.0000000001
 40
0.0
 40
0.0
 40
0.0
 40
0.0
 40
1.0
 40
1.0
 40
1.0
 40
2.0
 40
2.0
 40
2.0
 40
3.0
 40
3.0
 40
3.0
 40
4.0
 40
4.0
 40
4.0
 40
4.0
 10
9.047766666666676
 20
11.28526463924063
 30
0.0
 10
9.406748611111121
 20
11.28526463924063
 30
0.0
 10
9.697763888888882
 20
10.99426186146286
 30
0.0
 10
9.697763888888882
 20
10.63526741701843
 30
0.0
 10
9.697763888888882
 20
10.2762715836851
 30
0.0
 10
9.406748611111121
 20
9.985269848788208
 30
0.0
 10
9.047766666666676
 20
9.985269848788208
 30
0.0
 10
8.688770833333352
 20
9.985269848788208
 30
0.0
 10
8.397755343410405
 20
10.2762715836851
 30
0.0
 10
8.397755343410405
 20
10.63526741701843
 30
0.0
 10
8.397755343410405
 20
10.99426186146286
 30
0.0
 10
8.688770833333352
 20
11.28526463924063
 30
0.0
 10
9.047766666666676
 20
11.28526463924063
 30
0.0
  0
SPLINE
  5
8A
330
70
100
AcDbEntity
  8
Layer 1
 62
     1
420
 16711680
370
     5
100
AcDbSpline
210
0.0
220
0.0
230
1.0
 70
    11
 71
     3
 72
   110
 73
   106
 74
     0
 42
0.0000000001
 43
0.0000000001
 40
0.0
 40
0.0
 40
0.0
 40
0.0
 40
1.0
 40
1.0
 40
1.0
 40
2.0
 40
2.0
 40
2.0
 40
3.0
 40
3.0
 40
3.0
 40
4.0
 40
4.0
 40
4.0
 40
5.0
 40
5.0
 40
5.0
 40
6.0
 40
6.0
 40
6.0
 40
7.0
 40
7.0
 40
7.0
 40
8.0
 40
8.0
 40
8.0
 40
9.0
 40
9.0
 40
9.0
 40
10.0
 40
10.0
 40
10.0
 40
11.0
 40
11.0
 40
11.0
 40
12.0
 40
12.0
 40
12.0
 40
13.0
 40
13.0
 40
13.0
 40
14.0
 40
14.0
 40
14.0
 40
15.0
 40
15.0
 40
15.0
 40
16.0
 40
16.0
 40
16.0
 40
17.0
 40
17.0
 40
17.0
 40
18.0
 40
18.0
 40
18.0
 40
19.0
 40
19.0
 40
19.0
 40
20.0
 40
20.0
 40
20.0
 40
21.0
 40
21.0
 40
21.0
 40
22.0
 40
22.0
 40
22.0
 40
23.0
 40
23.0
 40
23.0
 40
24.0
 40
24.0
 40
24.0
 40
25.0
 40
25.0
 40
25.0
 40
26.0
 40
26.0
 40
26.0
 40
27.0
 40
27.0
 40
27.0
 40
28.0
 40
28.0
 40
28.0
 40
29.0
 40
29.0
 40
29.0
 40
30.0
 40
30.0
 40
30.0
 40
31.0
 40
31.0
 40
31.0
 40
32.0
 40
32.0
 40
32.0
 40
33.0
 40
33.0
 40
33.0
 40
34.0
 40
34.0
 40
34.0
 40
35.0
 40
35.0
 40
35.0
 40
35.0
 10
31.64133986928098
 20
-1.588235294117617
 30
0.0
 10
31.64133986928098
 20
-1.588235294117617
 30
0.0
 10
32.97034034230347
 20
-1.588235294117617
 30
0.0
 10
32.97034034230347
 20
-1.588235294117617
 30
0.0
 10
32.97034034230347
 20
-1.588235294117617
 30
0.0
 10
32.97034034230347
 20
-1.470235293402361
 30
0.0
 10
32.97034034230347
 20
-1.470235293402361
 30
0.0
 10
32.97034034230347
 20
-1.470235293402361
 30
0.0
 10
34.06233939625862
 20
-1.470235293402361
 30
0.0
 10
34.06233939625862
 20
-1.470235293402361
 30
0.0
 10
34.06233939625862
 20
-1.470235293402361
 30
0.0
 10
34.06233939625862
 20
-1.588235294117617
 30
0.0
 10
34.06233939625862
 20
-1.588235294117617
 30
0.0
 10
34.06233939625862
 20
-1.588235294117617
 30
0.0
 10
35.15333995320432
 20
-1.588235294117617
 30
0.0
 10
35.15333995320432
 20
-1.588235294117617
 30
0.0
 10
35.15333995320432
 20
-1.588235294117617
 30
0.0
 10
35.39133986928098
 20
-1.588235294117617
 30
0.0
 10
35.39133986928098
 20
-1.588235294117617
 30
0.0
 10
35.39133986928098
 20
-1.588235294117617
 30
0.0
 10
35.39133986928098
 20
-0.0002352349898097
 30
0.0
 10
35.39133986928098
 20
-0.0002352349898097
 30
0.0
 10
35.39133986928098
 20
-0.0002352349898097
 30
0.0
 10
35.27333983876348
 20
-0.0002352349898097
 30
0.0
 10
35.27333983876348
 20
-0.0002352349898097
 30
0.0
 10
35.27333983876348
 20
-0.0002352349898097
 30
0.0
 10
35.27333983876348
 20
1.091764772639584
 30
0.0
 10
35.27333983876348
 20
1.091764772639584
 30
0.0
 10
35.27333983876348
 20
1.091764772639584
 30
0.0
 10
35.39133986928098
 20
1.091764772639584
 30
0.0
 10
35.39133986928098
 20
1.091764772639584
 30
0.0
 10
35.39133986928098
 20
1.091764772639584
 30
0.0
 10
35.39133986928098
 20
2.182764614329648
 30
0.0
 10
35.39133986928098
 20
2.182764614329648
 30
0.0
 10
35.39133986928098
 20
2.182764614329648
 30
0.0
 10
35.27333983876348
 20
2.182764614329648
 30
0.0
 10
35.27333983876348
 20
2.182764614329648
 30
0.0
 10
35.27333983876348
 20
2.182764614329648
 30
0.0
 10
35.27333983876348
 20
3.274764621959042
 30
0.0
 10
35.27333983876348
 20
3.274764621959042
 30
0.0
 10
35.27333983876348
 20
3.274764621959042
 30
0.0
 10
35.39133986928098
 20
3.274764621959042
 30
0.0
 10
35.39133986928098
 20
3.274764621959042
 30
0.0
 10
35.39133986928098
 20
3.274764621959042
 30
0.0
 10
35.39133986928098
 20
4.365764702067685
 30
0.0
 10
35.39133986928098
 20
4.365764702067685
 30
0.0
 10
35.39133986928098
 20
4.365764702067685
 30
0.0
 10
35.27333983876348
 20
4.365764702067685
 30
0.0
 10
35.27333983876348
 20
4.365764702067685
 30
0.0
 10
35.27333983876348
 20
4.365764702067685
 30
0.0
 10
35.27333983876348
 20
5.457764709697079
 30
0.0
 10
35.27333983876348
 20
5.457764709697079
 30
0.0
 10
35.27333983876348
 20
5.457764709697079
 30
0.0
 10
35.39133986928098
 20
5.457764709697079
 30
0.0
 10
35.39133986928098
 20
5.457764709697079
 30
0.0
 10
35.39133986928098
 20
5.457764709697079
 30
0.0
 10
35.39133986928098
 20
6.548764789805709
 30
0.0
 10
35.39133986928098
 20
6.548764789805709
 30
0.0
 10
35.39133986928098
 20
6.548764789805709
 30
0.0
 10
35.27333983876348
 20
6.548764789805709
 30
0.0
 10
35.27333983876348
 20
6.548764789805709
 30
0.0
 10
35.27333983876348
 20
6.548764789805709
 30
0.0
 10
35.27333983876348
 20
7.640764797435116
 30
0.0
 10
35.27333983876348
 20
7.640764797435116
 30
0.0
 10
35.27333983876348
 20
7.640764797435116
 30
0.0
 10
35.39133986928098
 20
7.640764797435116
 30
0.0
 10
35.39133986928098
 20
7.640764797435116
 30
0.0
 10
35.39133986928098
 20
7.640764797435116
 30
0.0
 10
35.39133986928098
 20
8.731764400706587
 30
0.0
 10
35.39133986928098
 20
8.731764400706587
 30
0.0
 10
35.39133986928098
 20
8.731764400706587
 30
0.0
 10
35.27333983876348
 20
8.731764400706587
 30
0.0
 10
35.27333983876348
 20
8.731764400706587
 30
0.0
 10
35.27333983876348
 20
8.731764400706587
 30
0.0
 10
35.27333983876348
 20
9.823764408335982
 30
0.0
 10
35.27333983876348
 20
9.823764408335982
 30
0.0
 10
35.27333983876348
 20
9.823764408335982
 30
0.0
 10
35.39133986928098
 20
9.823764408335982
 30
0.0
 10
35.39133986928098
 20
9.823764408335982
 30
0.0
 10
35.39133986928098
 20
9.823764408335982
 30
0.0
 10
35.39133986928098
 20
10.91476496528179
 30
0.0
 10
35.39133986928098
 20
10.91476496528179
 30
0.0
 10
35.39133986928098
 20
10.91476496528179
 30
0.0
 10
35.39133986928098
 20
11.41176470588237
 30
0.0
 10
35.39133986928098
 20
11.41176470588237
 30
0.0
 10
35.39133986928098
 20
11.41176470588237
 30
0.0
 10
34.06233939625862
 20
11.41176470588237
 30
0.0
 10
34.06233939625862
 20
11.41176470588237
 30
0.0
 10
34.06233939625862
 20
11.41176470588237
 30
0.0
 10
34.06233939625862
 20
11.29376467536479
 30
0.0
 10
34.06233939625862
 20
11.29376467536479
 30
0.0
 10
34.06233939625862
 20
11.29376467536479
 30
0.0
 10
32.97034034230347
 20
11.29376467536479
 30
0.0
 10
32.97034034230347
 20
11.29376467536479
 30
0.0
 10
32.97034034230347
 20
11.29376467536479
 30
0.0
 10
32.97034034230347
 20
11.41176470588237
 30
0.0
 10
32.97034034230347
 20
11.41176470588237
 30
0.0
 10
32.97034034230347
 20
11.41176470588237
 30
0.0
 10
31.87933978535764
 20
11.41176470588237
 30
0.0
 10
31.87933978535764
 20
11.41176470588237
 30
0.0
 10
31.87933978535764
 20
11.41176470588237
 30
0.0
 10
31.64133986928098
 20
11.41176470588237
 30
0.0
 10
31.64133986928098
 20
11.41176470588237
 30
0.0
 10
31.64133986928098
 20
11.41176470588237
 30
0.0
 10
31.64133986928098
 20
-1.588235294117617
 30
0.0
 10
31.64133986928098
 20
-1.588235294117617
 30
0.0
  0
SPLINE
  5
8B
330
70
100
AcDbEntity
  8
Layer 1
 62
     1
420
 16711680
370
     5
100
AcDbSpline
210
0.0
220
0.0
230
1.0
 70
    11
 71
     3
 72
   107
 73
   103
 74
     0
 42
0.0000000001
 43
0.0000000001
 40
0.0
 40
0.0
 40
0.0
 40
0.0
 40
1.0
 40
1.0
 40
1.0
 40
2.0
 40
2.0
 40
2.0
 40
3.0
 40
3.0
 40
3.0
 40
4.0
 40
4.0
 40
4.0
 40
5.0
 40
5.0
 40
5.0
 40
6.0
 40
6.0
 40
6.0
 40
7.0
 40
7.0
 40
7.0
 40
8.0
 40
8.0
 40
8.0
 40
9.0
 40
9.0
 40
9.0
 40
10.0
 40
10.0
 40
10.0
 40
11.0
 40
11.0
 40
11.0
 40
12.0
 40
12.0
 40
12.0
 40
13.0
 40
13.0
 40
13.0
 40
14.0
 40
14.0
 40
14.0
 40
15.0
 40
15.0
 40
15.0
 40
16.0
 40
16.0
 40
16.0
 40
17.0
 40
17.0
 40
17.0
 40
18.0
 40
18.0
 40
18.0
 40
19.0
 40
19.0
 40
19.0
 40
20.0
 40
20.0
 40
20.0
 40
21.0
 40
21.0
 40
21.0
 40
22.0
 40
22.0
 40
22.0
 40
23.0
 40
23.0
 40
23.0
 40
24.0
 40
24.0
 40
24.0
 40
25.0
 40
25.0
 40
25.0
 40
26.0
 40
26.0
 40
26.0
 40
27.0
 40
27.0
 40
27.0
 40
28.0
 40
28.0
 40
28.0
 40
29.0
 40
29.0
 40
29.0
 40
30.0
 40
30.0
 40
30.0
 40
31.0
 40
31.0
 40
31.0
 40
32.0
 40
32.0
 40
32.0
 40
33.0
 40
33.0
 40
33.0
 40
34.0
 40
34.0
 40
34.0
 40
34.0
 10
24.01633986928098
 20
0.2430000305175781
 30
0.0
 10
24.01633986928098
 20
0.2430000305175781
 30
0.0
 10
25.34534034230347
 20
0.2430000305175781
 30
0.0
 10
25.34534034230347
 20
0.2430000305175781
 30
0.0
 10
25.34534034230347
 20
0.2430000305175781
 30
0.0
 10
25.34534034230347
 20
0.125
 30
0.0
 10
25.34534034230347
 20
0.125
 30
0.0
 10
25.34534034230347
 20
0.125
 30
0.0
 10
26.43733939625862
 20
0.125
 30
0.0
 10
26.43733939625862
 20
0.125
 30
0.0
 10
26.43733939625862
 20
0.125
 30
0.0
 10
26.43733939625862
 20
0.2430000305175781
 30
0.0
 10
26.43733939625862
 20
0.2430000305175781
 30
0.0
 10
26.43733939625862
 20
0.2430000305175781
 30
0.0
 10
27.52833995320429
 20
0.2430000305175781
 30
0.0
 10
27.52833995320429
 20
0.2430000305175781
 30
0.0
 10
27.52833995320429
 20
0.2430000305175781
 30
0.0
 10
27.76633986928098
 20
0.2430000305175781
 30
0.0
 10
27.76633986928098
 20
0.2430000305175781
 30
0.0
 10
27.76633986928098
 20
0.2430000305175781
 30
0.0
 10
27.76633986928098
 20
1.088000297546386
 30
0.0
 10
27.76633986928098
 20
1.088000297546386
 30
0.0
 10
27.76633986928098
 20
1.088000297546386
 30
0.0
 10
27.64833983876348
 20
1.088000297546386
 30
0.0
 10
27.64833983876348
 20
1.088000297546386
 30
0.0
 10
27.64833983876348
 20
1.088000297546386
 30
0.0
 10
27.64833983876348
 20
2.180000305175831
 30
0.0
 10
27.64833983876348
 20
2.180000305175831
 30
0.0
 10
27.64833983876348
 20
2.180000305175831
 30
0.0
 10
27.76633986928098
 20
2.180000305175831
 30
0.0
 10
27.76633986928098
 20
2.180000305175831
 30
0.0
 10
27.76633986928098
 20
2.180000305175831
 30
0.0
 10
27.76633986928098
 20
3.270999908447214
 30
0.0
 10
27.76633986928098
 20
3.270999908447214
 30
0.0
 10
27.76633986928098
 20
3.270999908447214
 30
0.0
 10
27.64833983876348
 20
3.270999908447214
 30
0.0
 10
27.64833983876348
 20
3.270999908447214
 30
0.0
 10
27.64833983876348
 20
3.270999908447214
 30
0.0
 10
27.64833983876348
 20
4.363000869750976
 30
0.0
 10
27.64833983876348
 20
4.363000869750976
 30
0.0
 10
27.64833983876348
 20
4.363000869750976
 30
0.0
 10
27.76633986928098
 20
4.363000869750976
 30
0.0
 10
27.76633986928098
 20
4.363000869750976
 30
0.0
 10
27.76633986928098
 20
4.363000869750976
 30
0.0
 10
27.76633986928098
 20
5.454000473022511
 30
0.0
 10
27.76633986928098
 20
5.454000473022511
 30
0.0
 10
27.76633986928098
 20
5.454000473022511
 30
0.0
 10
27.64833983876348
 20
5.454000473022511
 30
0.0
 10
27.64833983876348
 20
5.454000473022511
 30
0.0
 10
27.64833983876348
 20
5.454000473022511
 30
0.0
 10
27.64833983876348
 20
6.5459995269775
 30
0.0
 10
27.64833983876348
 20
6.5459995269775
 30
0.0
 10
27.64833983876348
 20
6.5459995269775
 30
0.0
 10
27.76633986928098
 20
6.5459995269775
 30
0.0
 10
27.76633986928098
 20
6.5459995269775
 30
0.0
 10
27.76633986928098
 20
6.5459995269775
 30
0.0
 10
27.76633986928098
 20
7.636999130249048
 30
0.0
 10
27.76633986928098
 20
7.636999130249048
 30
0.0
 10
27.76633986928098
 20
7.636999130249048
 30
0.0
 10
27.64833983876348
 20
7.636999130249048
 30
0.0
 10
27.64833983876348
 20
7.636999130249048
 30
0.0
 10
27.64833983876348
 20
7.636999130249048
 30
0.0
 10
27.64833983876348
 20
8.729000091552784
 30
0.0
 10
27.64833983876348
 20
8.729000091552784
 30
0.0
 10
27.64833983876348
 20
8.729000091552784
 30
0.0
 10
27.76633986928098
 20
8.729000091552784
 30
0.0
 10
27.76633986928098
 20
8.729000091552784
 30
0.0
 10
27.76633986928098
 20
8.729000091552784
 30
0.0
 10
27.76633986928098
 20
9.819999694824179
 30
0.0
 10
27.76633986928098
 20
9.819999694824179
 30
0.0
 10
27.76633986928098
 20
9.819999694824179
 30
0.0
 10
27.64833983876348
 20
9.819999694824179
 30
0.0
 10
27.64833983876348
 20
9.819999694824179
 30
0.0
 10
27.64833983876348
 20
9.819999694824179
 30
0.0
 10
27.64833983876348
 20
10.91200065612794
 30
0.0
 10
27.64833983876348
 20
10.91200065612794
 30
0.0
 10
27.64833983876348
 20
10.91200065612794
 30
0.0
 10
27.76633986928098
 20
10.91200065612794
 30
0.0
 10
27.76633986928098
 20
10.91200065612794
 30
0.0
 10
27.76633986928098
 20
10.91200065612794
 30
0.0
 10
27.76633986928098
 20
11.75699996948238
 30
0.0
 10
27.76633986928098
 20
11.75699996948238
 30
0.0
 10
27.76633986928098
 20
11.75699996948238
 30
0.0
 10
26.43733939625862
 20
11.75699996948238
 30
0.0
 10
26.43733939625862
 20
11.75699996948238
 30
0.0
 10
26.43733939625862
 20
11.75699996948238
 30
0.0
 10
26.43733939625862
 20
11.87500000000001
 30
0.0
 10
26.43733939625862
 20
11.87500000000001
 30
0.0
 10
26.43733939625862
 20
11.87500000000001
 30
0.0
 10
25.34534034230347
 20
11.87500000000001
 30
0.0
 10
25.34534034230347
 20
11.87500000000001
 30
0.0
 10
25.34534034230347
 20
11.87500000000001
 30
0.0
 10
25.34534034230347
 20
11.75699996948238
 30
0.0
 10
25.34534034230347
 20
11.75699996948238
 30
0.0
 10
25.34534034230347
 20
11.75699996948238
 30
0.0
 10
24.25433978535764
 20
11.75699996948238
 30
0.0
 10
24.25433978535764
 20
11.75699996948238
 30
0.0
 10
24.25433978535764
 20
11.75699996948238
 30
0.0
 10
24.01633986928098
 20
11.75699996948238
 30
0.0
 10
24.01633986928098
 20
11.75699996948238
 30
0.0
 10
24.01633986928098
 20
11.75699996948238
 30
0.0
 10
24.01633986928098
 20
0.2430000305175781
 30
0.0
 10
24.01633986928098
 20
0.2430000305175781
 30
0.0
  0
SPLINE
  5
8C
330
70
100
AcDbEntity
  8
Layer 1
 62
     1
420
 16711680
370
     5
100
AcDbSpline
210
0.0
220
0.0
230
1.0
 70
    11
 71
     3
 72
   110
 73
   106
 74
     0
 42
0.0000000001
 43
0.0000000001
 40
0.0
 40
0.0
 40
0.0
 40
0.0
 40
1.0
 40
1.0
 40
1.0
 40
2.0
 40
2.0
 40
2.0
 40
3.0
 40
3.0
 40
3.0
 40
4.0
 40
4.0
 40
4.0
 40
5.0
 40
5.0
 40
5.0
 40
6.0
 40
6.0
 40
6.0
 40
7.0
 40
7.0
 40
7.0
 40
8.0
 40
8.0
 40
8.0
 40
9.0
 40
9.0
 40
9.0
 40
10.0
 40
10.0
 40
10.0
 40
11.0
 40
11.0
 40
11.0
 40
12.0
 40
12.0
 40
12.0
 40
13.0
 40
13.0
 40
13.0
 40
14.0
 40
14.0
 40
14.0
 40
15.0
 40
15.0
 40
15.0
 40
16.0
 40
16.0
 40
16.0
 40
17.0
 40
17.0
 40
17.0
 40
18.0
 40
18.0
 40
18.0
 40
19.0
 40
19.0
 40
19.0
 40
20.0
 40
20.0
 40
20.0
 40
21.0
 40
21.0
 40
21.0
 40
22.0
 40
22.0
 40
22.0
 40
23.0
 40
23.0
 40
23.0
 40
24.0
 40
24.0
 40
24.0
 40
25.0
 40
25.0
 40
25.0
 40
26.0
 40
26.0
 40
26.0
 40
27.0
 40
27.0
 40
27.0
 40
28.0
 40
28.0
 40
28.0
 40
29.0
 40
29.0
 40
29.0
 40
30.0
 40
30.0
 40
30.0
 40
31.0
 40
31.0
 40
31.0
 40
32.0
 40
32.0
 40
32.0
 40
33.0
 40
33.0
 40
33.0
 40
34.0
 40
34.0
 40
34.0
 40
35.0
 40
35.0
 40
35.0
 40
35.0
 10
27.76633986928098
 20
-1.588235294117617
 30
0.0
 10
27.76633986928098
 20
-1.588235294117617
 30
0.0
 10
29.09533986546638
 20
-1.588235294117617
 30
0.0
 10
29.09533986546638
 20
-1.588235294117617
 30
0.0
 10
29.09533986546638
 20
-1.588235294117617
 30
0.0
 10
29.09533986546638
 20
-1.470235293402361
 30
0.0
 10
29.09533986546638
 20
-1.470235293402361
 30
0.0
 10
29.09533986546638
 20
-1.470235293402361
 30
0.0
 10
30.1873398730957
 20
-1.470235293402361
 30
0.0
 10
30.1873398730957
 20
-1.470235293402361
 30
0.0
 10
30.1873398730957
 20
-1.470235293402361
 30
0.0
 10
30.1873398730957
 20
-1.588235294117617
 30
0.0
 10
30.1873398730957
 20
-1.588235294117617
 30
0.0
 10
30.1873398730957
 20
-1.588235294117617
 30
0.0
 10
31.27833995320432
 20
-1.588235294117617
 30
0.0
 10
31.27833995320432
 20
-1.588235294117617
 30
0.0
 10
31.27833995320432
 20
-1.588235294117617
 30
0.0
 10
31.51633986928098
 20
-1.588235294117617
 30
0.0
 10
31.51633986928098
 20
-1.588235294117617
 30
0.0
 10
31.51633986928098
 20
-1.588235294117617
 30
0.0
 10
31.51633986928098
 20
-0.0002352349898097
 30
0.0
 10
31.51633986928098
 20
-0.0002352349898097
 30
0.0
 10
31.51633986928098
 20
-0.0002352349898097
 30
0.0
 10
31.39833983876348
 20
-0.0002352349898097
 30
0.0
 10
31.39833983876348
 20
-0.0002352349898097
 30
0.0
 10
31.39833983876348
 20
-0.0002352349898097
 30
0.0
 10
31.39833983876348
 20
1.091764772639584
 30
0.0
 10
31.39833983876348
 20
1.091764772639584
 30
0.0
 10
31.39833983876348
 20
1.091764772639584
 30
0.0
 10
31.51633986928098
 20
1.091764772639584
 30
0.0
 10
31.51633986928098
 20
1.091764772639584
 30
0.0
 10
31.51633986928098
 20
1.091764772639584
 30
0.0
 10
31.51633986928098
 20
2.182764614329648
 30
0.0
 10
31.51633986928098
 20
2.182764614329648
 30
0.0
 10
31.51633986928098
 20
2.182764614329648
 30
0.0
 10
31.39833983876348
 20
2.182764614329648
 30
0.0
 10
31.39833983876348
 20
2.182764614329648
 30
0.0
 10
31.39833983876348
 20
2.182764614329648
 30
0.0
 10
31.39833983876348
 20
3.274764621959042
 30
0.0
 10
31.39833983876348
 20
3.274764621959042
 30
0.0
 10
31.39833983876348
 20
3.274764621959042
 30
0.0
 10
31.51633986928098
 20
3.274764621959042
 30
0.0
 10
31.51633986928098
 20
3.274764621959042
 30
0.0
 10
31.51633986928098
 20
3.274764621959042
 30
0.0
 10
31.51633986928098
 20
4.365764702067685
 30
0.0
 10
31.51633986928098
 20
4.365764702067685
 30
0.0
 10
31.51633986928098
 20
4.365764702067685
 30
0.0
 10
31.39833983876348
 20
4.365764702067685
 30
0.0
 10
31.39833983876348
 20
4.365764702067685
 30
0.0
 10
31.39833983876348
 20
4.365764702067685
 30
0.0
 10
31.39833983876348
 20
5.457764709697079
 30
0.0
 10
31.39833983876348
 20
5.457764709697079
 30
0.0
 10
31.39833983876348
 20
5.457764709697079
 30
0.0
 10
31.51633986928098
 20
5.457764709697079
 30
0.0
 10
31.51633986928098
 20
5.457764709697079
 30
0.0
 10
31.51633986928098
 20
5.457764709697079
 30
0.0
 10
31.51633986928098
 20
6.548764789805709
 30
0.0
 10
31.51633986928098
 20
6.548764789805709
 30
0.0
 10
31.51633986928098
 20
6.548764789805709
 30
0.0
 10
31.39833983876348
 20
6.548764789805709
 30
0.0
 10
31.39833983876348
 20
6.548764789805709
 30
0.0
 10
31.39833983876348
 20
6.548764789805709
 30
0.0
 10
31.39833983876348
 20
7.640764797435116
 30
0.0
 10
31.39833983876348
 20
7.640764797435116
 30
0.0
 10
31.39833983876348
 20
7.640764797435116
 30
0.0
 10
31.51633986928098
 20
7.640764797435116
 30
0.0
 10
31.51633986928098
 20
7.640764797435116
 30
0.0
 10
31.51633986928098
 20
7.640764797435116
 30
0.0
 10
31.51633986928098
 20
8.731764400706587
 30
0.0
 10
31.51633986928098
 20
8.731764400706587
 30
0.0
 10
31.51633986928098
 20
8.731764400706587
 30
0.0
 10
31.39833983876348
 20
8.731764400706587
 30
0.0
 10
31.39833983876348
 20
8.731764400706587
 30
0.0
 10
31.39833983876348
 20
8.731764400706587
 30
0.0
 10
31.39833983876348
 20
9.823764408335982
 30
0.0
 10
31.39833983876348
 20
9.823764408335982
 30
0.0
 10
31.39833983876348
 20
9.823764408335982
 30
0.0
 10
31.51633986928098
 20
9.823764408335982
 30
0.0
 10
31.51633986928098
 20
9.823764408335982
 30
0.0
 10
31.51633986928098
 20
9.823764408335982
 30
0.0
 10
31.51633986928098
 20
10.91476496528179
 30
0.0
 10
31.51633986928098
 20
10.91476496528179
 30
0.0
 10
31.51633986928098
 20
10.91476496528179
 30
0.0
 10
31.51633986928098
 20
11.41176470588237
 30
0.0
 10
31.51633986928098
 20
11.41176470588237
 30
0.0
 10
31.51633986928098
 20
11.41176470588237
 30
0.0
 10
30.1873398730957
 20
11.41176470588237
 30
0.0
 10
30.1873398730957
 20
11.41176470588237
 30
0.0
 10
30.1873398730957
 20
11.41176470588237
 30
0.0
 10
30.1873398730957
 20
11.29376467536479
 30
0.0
 10
30.1873398730957
 20
11.29376467536479
 30
0.0
 10
30.1873398730957
 20
11.29376467536479
 30
0.0
 10
29.09533986546638
 20
11.29376467536479
 30
0.0
 10
29.09533986546638
 20
11.29376467536479
 30
0.0
 10
29.09533986546638
 20
11.29376467536479
 30
0.0
 10
29.09533986546638
 20
11.41176470588237
 30
0.0
 10
29.09533986546638
 20
11.41176470588237
 30
0.0
 10
29.09533986546638
 20
11.41176470588237
 30
0.0
 10
28.00433978535764
 20
11.41176470588237
 30
0.0
 10
28.00433978535764
 20
11.41176470588237
 30
0.0
 10
28.00433978535764
 20
11.41176470588237
 30
0.0
 10
27.76633986928098
 20
11.41176470588237
 30
0.0
 10
27.76633986928098
 20
11.41176470588237
 30
0.0
 10
27.76633986928098
 20
11.41176470588237
 30
0.0
 10
27.76633986928098
 20
-1.588235294117617
 30
0.0
 10
27.76633986928098
 20
-1.588235294117617
 30
0.0
  0
SPLINE
  5
8D
330
70
100
AcDbEntity
  8
Layer 1
 62
     1
420
 16711680
370
     5
100
AcDbSpline
210
0.0
220
0.0
230
1.0
 70
    11
 71
     3
 72
   107
 73
   103
 74
     0
 42
0.0000000001
 43
0.0000000001
 40
0.0
 40
0.0
 40
0.0
 40
0.0
 40
1.0
 40
1.0
 40
1.0
 40
2.0
 40
2.0
 40
2.0
 40
3.0
 40
3.0
 40
3.0
 40
4.0
 40
4.0
 40
4.0
 40
5.0
 40
5.0
 40
5.0
 40
6.0
 40
6.0
 40
6.0
 40
7.0
 40
7.0
 40
7.0
 40
8.0
 40
8.0
 40
8.0
 40
9.0
 40
9.0
 40
9.0
 40
10.0
 40
10.0
 40
10.0
 40
11.0
 40
11.0
 40
11.0
 40
12.0
 40
12.0
 40
12.0
 40
13.0
 40
13.0
 40
13.0
 40
14.0
 40
14.0
 40
14.0
 40
15.0
 40
15.0
 40
15.0
 40
16.0
 40
16.0
 40
16.0
 40
17.0
 40
17.0
 40
17.0
 40
18.0
 40
18.0
 40
18.0
 40
19.0
 40
19.0
 40
19.0
 40
20.0
 40
20.0
 40
20.0
 40
21.0
 40
21.0
 40
21.0
 40
22.0
 40
22.0
 40
22.0
 40
23.0
 40
23.0
 40
23.0
 40
24.0
 40
24.0
 40
24.0
 40
25.0
 40
25.0
 40
25.0
 40
26.0
 40
26.0
 40
26.0
 40
27.0
 40
27.0
 40
27.0
 40
28.0
 40
28.0
 40
28.0
 40
29.0
 40
29.0
 40
29.0
 40
30.0
 40
30.0
 40
30.0
 40
31.0
 40
31.0
 40
31.0
 40
32.0
 40
32.0
 40
32.0
 40
33.0
 40
33.0
 40
33.0
 40
34.0
 40
34.0
 40
34.0
 40
34.0
 10
20.14133986928098
 20
0.2430000305175781
 30
0.0
 10
20.14133986928098
 20
0.2430000305175781
 30
0.0
 10
21.47033986546638
 20
0.2430000305175781
 30
0.0
 10
21.47033986546638
 20
0.2430000305175781
 30
0.0
 10
21.47033986546638
 20
0.2430000305175781
 30
0.0
 10
21.47033986546638
 20
0.125
 30
0.0
 10
21.47033986546638
 20
0.125
 30
0.0
 10
21.47033986546638
 20
0.125
 30
0.0
 10
22.5623398730957
 20
0.125
 30
0.0
 10
22.5623398730957
 20
0.125
 30
0.0
 10
22.5623398730957
 20
0.125
 30
0.0
 10
22.5623398730957
 20
0.2430000305175781
 30
0.0
 10
22.5623398730957
 20
0.2430000305175781
 30
0.0
 10
22.5623398730957
 20
0.2430000305175781
 30
0.0
 10
23.6533399532043
 20
0.2430000305175781
 30
0.0
 10
23.6533399532043
 20
0.2430000305175781
 30
0.0
 10
23.6533399532043
 20
0.2430000305175781
 30
0.0
 10
23.89133986928098
 20
0.2430000305175781
 30
0.0
 10
23.89133986928098
 20
0.2430000305175781
 30
0.0
 10
23.89133986928098
 20
0.2430000305175781
 30
0.0
 10
23.89133986928098
 20
1.088000297546386
 30
0.0
 10
23.89133986928098
 20
1.088000297546386
 30
0.0
 10
23.89133986928098
 20
1.088000297546386
 30
0.0
 10
23.77333983876348
 20
1.088000297546386
 30
0.0
 10
23.77333983876348
 20
1.088000297546386
 30
0.0
 10
23.77333983876348
 20
1.088000297546386
 30
0.0
 10
23.77333983876348
 20
2.180000305175831
 30
0.0
 10
23.77333983876348
 20
2.180000305175831
 30
0.0
 10
23.77333983876348
 20
2.180000305175831
 30
0.0
 10
23.89133986928098
 20
2.180000305175831
 30
0.0
 10
23.89133986928098
 20
2.180000305175831
 30
0.0
 10
23.89133986928098
 20
2.180000305175831
 30
0.0
 10
23.89133986928098
 20
3.270999908447214
 30
0.0
 10
23.89133986928098
 20
3.270999908447214
 30
0.0
 10
23.89133986928098
 20
3.270999908447214
 30
0.0
 10
23.77333983876348
 20
3.270999908447214
 30
0.0
 10
23.77333983876348
 20
3.270999908447214
 30
0.0
 10
23.77333983876348
 20
3.270999908447214
 30
0.0
 10
23.77333983876348
 20
4.363000869750976
 30
0.0
 10
23.77333983876348
 20
4.363000869750976
 30
0.0
 10
23.77333983876348
 20
4.363000869750976
 30
0.0
 10
23.89133986928098
 20
4.363000869750976
 30
0.0
 10
23.89133986928098
 20
4.363000869750976
 30
0.0
 10
23.89133986928098
 20
4.363000869750976
 30
0.0
 10
23.89133986928098
 20
5.454000473022511
 30
0.0
 10
23.89133986928098
 20
5.454000473022511
 30
0.0
 10
23.89133986928098
 20
5.454000473022511
 30
0.0
 10
23.77333983876348
 20
5.454000473022511
 30
0.0
 10
23.77333983876348
 20
5.454000473022511
 30
0.0
 10
23.77333983876348
 20
5.454000473022511
 30
0.0
 10
23.77333983876348
 20
6.5459995269775
 30
0.0
 10
23.77333983876348
 20
6.5459995269775
 30
0.0
 10
23.77333983876348
 20
6.5459995269775
 30
0.0
 10
23.89133986928098
 20
6.5459995269775
 30
0.0
 10
23.89133986928098
 20
6.5459995269775
 30
0.0
 10
23.89133986928098
 20
6.5459995269775
 30
0.0
 10
23.89133986928098
 20
7.636999130249048
 30
0.0
 10
23.89133986928098
 20
7.636999130249048
 30
0.0
 10
23.89133986928098
 20
7.636999130249048
 30
0.0
 10
23.77333983876348
 20
7.636999130249048
 30
0.0
 10
23.77333983876348
 20
7.636999130249048
 30
0.0
 10
23.77333983876348
 20
7.636999130249048
 30
0.0
 10
23.77333983876348
 20
8.729000091552784
 30
0.0
 10
23.77333983876348
 20
8.729000091552784
 30
0.0
 10
23.77333983876348
 20
8.729000091552784
 30
0.0
 10
23.89133986928098
 20
8.729000091552784
 30
0.0
 10
23.89133986928098
 20
8.729000091552784
 30
0.0
 10
23.89133986928098
 20
8.729000091552784
 30
0.0
 10
23.89133986928098
 20
9.819999694824179
 30
0.0
 10
23.89133986928098
 20
9.819999694824179
 30
0.0
 10
23.89133986928098
 20
9.819999694824179
 30
0.0
 10
23.77333983876348
 20
9.819999694824179
 30
0.0
 10
23.77333983876348
 20
9.819999694824179
 30
0.0
 10
23.77333983876348
 20
9.819999694824179
 30
0.0
 10
23.77333983876348
 20
10.91200065612794
 30
0.0
 10
23.77333983876348
 20
10.91200065612794
 30
0.0
 10
23.77333983876348
 20
10.91200065612794
 30
0.0
 10
23.89133986928098
 20
10.91200065612794
 30
0.0
 10
23.89133986928098
 20
10.91200065612794
 30
0.0
 10
23.89133986928098
 20
10.91200065612794
 30
0.0
 10
23.89133986928098
 20
11.75699996948238
 30
0.0
 10
23.89133986928098
 20
11.75699996948238
 30
0.0
 10
23.89133986928098
 20
11.75699996948238
 30
0.0
 10
22.5623398730957
 20
11.75699996948238
 30
0.0
 10
22.5623398730957
 20
11.75699996948238
 30
0.0
 10
22.5623398730957
 20
11.75699996948238
 30
0.0
 10
22.5623398730957
 20
11.87500000000001
 30
0.0
 10
22.5623398730957
 20
11.87500000000001
 30
0.0
 10
22.5623398730957
 20
11.87500000000001
 30
0.0
 10
21.47033986546638
 20
11.87500000000001
 30
0.0
 10
21.47033986546638
 20
11.87500000000001
 30
0.0
 10
21.47033986546638
 20
11.87500000000001
 30
0.0
 10
21.47033986546638
 20
11.75699996948238
 30
0.0
 10
21.47033986546638
 20
11.75699996948238
 30
0.0
 10
21.47033986546638
 20
11.75699996948238
 30
0.0
 10
20.37933978535764
 20
11.75699996948238
 30
0.0
 10
20.37933978535764
 20
11.75699996948238
 30
0.0
 10
20.37933978535764
 20
11.75699996948238
 30
0.0
 10
20.14133986928098
 20
11.75699996948238
 30
0.0
 10
20.14133986928098
 20
11.75699996948238
 30
0.0
 10
20.14133986928098
 20
11.75699996948238
 30
0.0
 10
20.14133986928098
 20
0.2430000305175781
 30
0.0
 10
20.14133986928098
 20
0.2430000305175781
 30
0.0
  0
ENDSEC
  0
SECTION
  2
OBJECTS
  0
DICTIONARY
  5
C
330
0
100
AcDbDictionary
281
     1
  3
ACAD_COLOR
350
63
  3
ACAD_DETAILVIEWSTYLE
350
6A
  3
ACAD_GROUP
350
D
  3
ACAD_LAYOUT
350
62
  3
ACAD_MATERIAL
350
10
  3
ACAD_MLEADERSTYLE
350
66
  3
ACAD_MLINESTYLE
350
5F
  3
ACAD_PLOTSETTINGS
350
61
  3
ACAD_PLOTSTYLENAME
350
E
  3
ACAD_SCALELIST
350
42
  3
ACAD_SECTIONVIEWSTYLE
350
68
  3
ACAD_TABLESTYLE
350
64
  3
ACAD_VISUALSTYLE
350
29
  3
ACDB_RECOMPOSE_DATA
350
96
  3
AcDbVariableDictionary
350
8E
  0
DICTIONARY
  5
63
102
{ACAD_REACTORS
330
C
102
}
330
C
100
AcDbDictionary
281
     1
  0
DICTIONARY
  5
6A
102
{ACAD_REACTORS
330
C
102
}
330
C
100
AcDbDictionary
281
     1
  3
Imperial24
350
6B
  0
DICTIONARY
  5
D
102
{ACAD_REACTORS
330
C
102
}
330
C
100
AcDbDictionary
281
     1
  0
DICTIONARY
  5
62
102
{ACAD_REACTORS
330
C
102
}
330
C
100
AcDbDictionary
281
     1
  3
Layout1
350
6F
  3
Layout2
350
77
  3
Model
350
73
  0
DICTIONARY
  5
10
102
{ACAD_REACTORS
330
C
102
}
330
C
100
AcDbDictionary
281
     1
  3
ByBlock
350
19
  3
ByLayer
350
11
  3
Global
350
21
  0
DICTIONARY
  5
66
102
{ACAD_REACTORS
330
C
102
}
330
C
100
AcDbDictionary
281
     1
  3
Standard
350
67
  0
DICTIONARY
  5
5F
102
{ACAD_REACTORS
330
C
102
}
330
C
100
AcDbDictionary
281
     1
  3
Standard
350
60
  0
DICTIONARY
  5
61
102
{ACAD_REACTORS
330
C
102
}
330
C
100
AcDbDictionary
281
     1
  0
ACDBDICTIONARYWDFLT
  5
E
102
{ACAD_REACTORS
330
C
102
}
330
C
100
AcDbDictionary
281
     1
  3
Normal
350
F
100
AcDbDictionaryWithDefault
340
F
  0
DICTIONARY
  5
42
102
{ACAD_REACTORS
330
C
102
}
330
C
100
AcDbDictionary
281
     1
  3
A0
350
43
  3
A1
350
44
  3
A2
350
45
  3
A3
350
46
  3
A4
350
47
  3
A5
350
48
  3
A6
350
49
  3
A7
350
4A
  3
A8
350
4B
  3
A9
350
4C
  3
B0
350
4D
  3
B1
350
4E
  3
B2
350
4F
  3
B3
350
50
  3
B4
350
51
  3
B5
350
52
  3
B6
350
53
  0
DICTIONARY
  5
68
102
{ACAD_REACTORS
330
C
102
}
330
C
100
AcDbDictionary
281
     1
  3
Imperial24
350
69
  0
DICTIONARY
  5
64
102
{ACAD_REACTORS
330
C
102
}
330
C
100
AcDbDictionary
281
     1
  3
Standard
350
65
  0
DICTIONARY
  5
29
102
{ACAD_REACTORS
330
C
102
}
330
C
100
AcDbDictionary
281
     1
  3
2dWireframe
350
2F
  3
Basic
350
2E
  3
Brighten
350
35
  3
ColorChange
350
39
  3
Conceptual
350
32
  3
Dim
350
34
  3
EdgeColorOff
350
41
  3
Facepattern
350
38
  3
Flat
350
2A
  3
FlatWithEdges
350
2B
  3
Gouraud
350
2C
  3
GouraudWithEdges
350
2D
  3
Hidden
350
31
  3
JitterOff
350
3F
  3
Linepattern
350
37
  3
OverhangOff
350
40
  3
Realistic
350
33
  3
Shaded
350
3E
  3
Shaded with edges
350
3D
  3
Shades of Gray
350
3A
  3
Sketchy
350
3B
  3
Thicken
350
36
  3
Wireframe
350
30
  3
X-Ray
350
3C
  0
XRECORD
  5
96
102
{ACAD_REACTORS
330
C
102
}
330
C
100
AcDbXrecord
280
     1
 90
        1
330
65
  0
DICTIONARY
  5
8E
102
{ACAD_REACTORS
330
C
102
}
330
C
100
AcDbDictionary
281
     1
  3
CANNOSCALE
350
93
  3
CMLEADERSTYLE
350
90
  3
CTABLESTYLE
350
8F
  3
CVIEWDETAILSTYLE
350
91
  3
CVIEWSECTIONSTYLE
350
92
  0
ACDBDETAILVIEWSTYLE
  5
6B
102
{ACAD_XDICTIONARY
360
99
102
}
102
{ACAD_REACTORS
330
6A
102
}
330
6A
100
AcDbModelDocViewStyle
 70
     0
  3
Imperial24
290
     0
100
AcDbDetailViewStyle
 70
     0
 71
     0
 90
        3
 71
     1
340
55
 62
   256
 40
0.24
340
0
 62
   256
 40
0.24
300

 40
0.36
280
     3
 71
     2
340
5D
 90
       25
 62
   256
 71
     3
340
55
 62
   256
 40
0.24
 90
        1
 40
0.75
 90
        1
300
%<\AcVar ViewType \f "%tc1">% %<\AcVar ViewDetailId>%\PSCALE %<\AcVar ViewScale \f "%sn">%
 71
     4
340
5D
 90
       25
 62
   256
340
5D
 90
       25
 62
   256
280
     0
  0
LAYOUT
  5
6F
102
{ACAD_REACTORS
330
62
102
}
330
62
100
AcDbPlotSettings
  1

  2

  4

  6

 40
0.0
 41
0.0
 42
0.0
 43
0.0
 44
0.0
 45
0.0
 46
0.0
 47
0.0
 48
0.0
 49
0.0
140
0.0
141
0.0
142
1.0
143
1.0
 70
   688
 72
     0
 73
     0
 74
     5
  7

 75
    16
147
1.0
 76
     0
 77
     2
 78
   300
148
0.0
149
0.0
100
AcDbLayout
  1
Layout1
 70
     1
 71
     1
 10
0.0
 20
0.0
 11
12.0
 21
9.0
 12
0.0
 22
0.0
 32
0.0
 14
0.0
 24
0.0
 34
0.0
 15
0.0
 25
0.0
 35
0.0
146
0.0
 13
0.0
 23
0.0
 33
0.0
 16
1.0
 26
0.0
 36
0.0
 17
0.0
 27
1.0
 37
0.0
 76
     0
330
6C
  0
LAYOUT
  5
77
102
{ACAD_REACTORS
330
62
102
}
330
62
100
AcDbPlotSettings
  1

  2

  4

  6

 40
0.0
 41
0.0
 42
0.0
 43
0.0
 44
0.0
 45
0.0
 46
0.0
 47
0.0
 48
0.0
 49
0.0
140
0.0
141
0.0
142
1.0
143
1.0
 70
   688
 72
     0
 73
     0
 74
     5
  7

 75
    16
147
1.0
 76
     0
 77
     2
 78
   300
148
0.0
149
0.0
100
AcDbLayout
  1
Layout2
 70
     1
 71
     2
 10
0.0
 20
0.0
 11
12.0
 21
9.0
 12
0.0
 22
0.0
 32
0.0
 14
0.0
 24
0.0
 34
0.0
 15
0.0
 25
0.0
 35
0.0
146
0.0
 13
0.0
 23
0.0
 33
0.0
 16
1.0
 26
0.0
 36
0.0
 17
0.0
 27
1.0
 37
0.0
 76
     0
330
74
  0
LAYOUT
  5
73
102
{ACAD_REACTORS
330
62
102
}
330
62
100
AcDbPlotSettings
  1

  2

  4

  6

 40
0.0
 41
0.0
 42
0.0
 43
0.0
 44
0.0
 45
0.0
 46
0.0
 47
0.0
 48
0.0
 49
0.0
140
0.0
141
0.0
142
1.0
143
1.0
 70
  1712
 72
     0
 73
     0
 74
     0
  7

 75
     0
147
1.0
 76
     0
 77
     2
 78
   300
148
0.0
149
0.0
100
AcDbLayout
  1
Model
 70
     1
 71
     0
 10
0.0
 20
0.0
 11
12.0
 21
9.0
 12
0.0
 22
0.0
 32
0.0
 14
0.0
 24
0.0
 34
0.0
 15
0.0
 25
0.0
 35
0.0
146
0.0
 13
0.0
 23
0.0
 33
0.0
 16
1.0
 26
0.0
 36
0.0
 17
0.0
 27
1.0
 37
0.0
 76
     0
330
70
  0
MATERIAL
  5
19
102
{ACAD_XDICTIONARY
360
1A
102
}
102
{ACAD_REACTORS
330
10
102
}
330
10
100
AcDbMaterial
  1
ByBlock
 72
     0
 43
0.0208333333333333
 43
0.0
 43
0.0
 43
0.0
 43
0.0
 43
0.0208333333333333
 43
0.0
 43
0.0
 43
0.0
 43
0.0
 43
1.0
 43
0.0
 43
0.0
 43
0.0
 43
0.0
 43
1.0
 77
     0
 47
0.0208333333333333
 47
0.0
 47
0.0
 47
0.0
 47
0.0
 47
0.0208333333333333
 47
0.0
 47
0.0
 47
0.0
 47
0.0
 47
1.0
 47
0.0
 47
0.0
 47
0.0
 47
0.0
 47
1.0
171
     0
 49
0.0208333333333333
 49
0.0
 49
0.0
 49
0.0
 49
0.0
 49
0.0208333333333333
 49
0.0
 49
0.0
 49
0.0
 49
0.0
 49
1.0
 49
0.0
 49
0.0
 49
0.0
 49
0.0
 49
1.0
175
     0
142
0.0208333333333333
142
0.0
142
0.0
142
0.0
142
0.0
142
0.0208333333333333
142
0.0
142
0.0
142
0.0
142
0.0
142
1.0
142
0.0
142
0.0
142
0.0
142
0.0
142
1.0
179
     0
144
0.0208333333333333
144
0.0
144
0.0
144
0.0
144
0.0
144
0.0208333333333333
144
0.0
144
0.0
144
0.0
144
0.0
144
1.0
144
0.0
144
0.0
144
0.0
144
0.0
144
1.0
147
0.0208333333333333
147
0.0
147
0.0
147
0.0
147
0.0
147
0.0208333333333333
147
0.0
147
0.0
147
0.0
147
0.0
147
1.0
147
0.0
147
0.0
147
0.0
147
0.0
147
1.0
  0
MATERIAL
  5
11
102
{ACAD_XDICTIONARY
360
12
102
}
102
{ACAD_REACTORS
330
10
102
}
330
10
100
AcDbMaterial
  1
ByLayer
 72
     0
 43
0.0208333333333333
 43
0.0
 43
0.0
 43
0.0
 43
0.0
 43
0.0208333333333333
 43
0.0
 43
0.0
 43
0.0
 43
0.0
 43
1.0
 43
0.0
 43
0.0
 43
0.0
 43
0.0
 43
1.0
 77
     0
 47
0.0208333333333333
 47
0.0
 47
0.0
 47
0.0
 47
0.0
 47
0.0208333333333333
 47
0.0
 47
0.0
 47
0.0
 47
0.0
 47
1.0
 47
0.0
 47
0.0
 47
0.0
 47
0.0
 47
1.0
171
     0
 49
0.0208333333333333
 49
0.0
 49
0.0
 49
0.0
 49
0.0
 49
0.0208333333333333
 49
0.0
 49
0.0
 49
0.0
 49
0.0
 49
1.0
 49
0.0
 49
0.0
 49
0.0
 49
0.0
 49
1.0
175
     0
142
0.0208333333333333
142
0.0
142
0.0
142
0.0
142
0.0
142
0.0208333333333333
142
0.0
142
0.0
142
0.0
142
0.0
142
1.0
142
0.0
142
0.0
142
0.0
142
0.0
142
1.0
179
     0
144
0.0208333333333333
144
0.0
144
0.0
144
0.0
144
0.0
144
0.0208333333333333
144
0.0
144
0.0
144
0.0
144
0.0
144
1.0
144
0.0
144
0.0
144
0.0
144
0.0
144
1.0
147
0.0208333333333333
147
0.0
147
0.0
147
0.0
147
0.0
147
0.0208333333333333
147
0.0
147
0.0
147
0.0
147
0.0
147
1.0
147
0.0
147
0.0
147
0.0
147
0.0
147
1.0
  0
MATERIAL
  5
21
102
{ACAD_XDICTIONARY
360
22
102
}
102
{ACAD_REACTORS
330
10
102
}
330
10
100
AcDbMaterial
  1
Global
 72
     0
 43
0.0208333333333333
 43
0.0
 43
0.0
 43
0.0
 43
0.0
 43
0.0208333333333333
 43
0.0
 43
0.0
 43
0.0
 43
0.0
 43
1.0
 43
0.0
 43
0.0
 43
0.0
 43
0.0
 43
1.0
 77
     0
 47
0.0208333333333333
 47
0.0
 47
0.0
 47
0.0
 47
0.0
 47
0.0208333333333333
 47
0.0
 47
0.0
 47
0.0
 47
0.0
 47
1.0
 47
0.0
 47
0.0
 47
0.0
 47
0.0
 47
1.0
171
     0
 49
0.0208333333333333
 49
0.0
 49
0.0
 49
0.0
 49
0.0
 49
0.0208333333333333
 49
0.0
 49
0.0
 49
0.0
 49
0.0
 49
1.0
 49
0.0
 49
0.0
 49
0.0
 49
0.0
 49
1.0
175
     0
142
0.0208333333333333
142
0.0
142
0.0
142
0.0
142
0.0
142
0.0208333333333333
142
0.0
142
0.0
142
0.0
142
0.0
142
1.0
142
0.0
142
0.0
142
0.0
142
0.0
142
1.0
179
     0
144
0.0208333333333333
144
0.0
144
0.0
144
0.0
144
0.0
144
0.0208333333333333
144
0.0
144
0.0
144
0.0
144
0.0
144
1.0
144
0.0
144
0.0
144
0.0
144
0.0
144
1.0
147
0.0208333333333333
147
0.0
147
0.0
147
0.0
147
0.0
147
0.0208333333333333
147
0.0
147
0.0
147
0.0
147
0.0
147
1.0
147
0.0
147
0.0
147
0.0
147
0.0
147
1.0
  0
MLEADERSTYLE
  5
67
102
{ACAD_REACTORS
330
66
102
}
330
66
100
AcDbMLeaderStyle
179
     2
170
     2
171
     1
172
     0
 90
        2
 40
0.0
 41
0.0
173
     1
 91
-1056964608
340
5B
 92
       -2
290
     1
 42
0.09
291
     1
 43
0.36
  3
Standard
 44
0.18
300

342
55
174
     1
178
     6
175
     1
176
     0
 93
-1056964608
 45
0.18
292
     0
297
     0
 46
0.18
 94
-1056964608
 47
1.0
 49
1.0
140
1.0
293
     1
141
0.0
294
     1
177
     0
142
1.0
295
     0
296
     0
143
0.125
271
     0
272
     9
273
     9
298
     1
  0
MLINESTYLE
  5
60
102
{ACAD_REACTORS
330
5F
102
}
330
5F
100
AcDbMlineStyle
  2
STANDARD
 70
     0
  3

 62
   256
 51
90.0
 52
90.0
 71
     2
 49
0.5
 62
   256
  6
BYLAYER
 49
-0.5
 62
   256
  6
BYLAYER
  0
ACDBPLACEHOLDER
  5
F
102
{ACAD_REACTORS
330
E
102
}
330
E
  0
SCALE
  5
43
102
{ACAD_REACTORS
330
42
102
}
330
42
100
AcDbScale
 70
     0
300
1:1
140
1.0
141
1.0
290
     1
  0
SCALE
  5
44
102
{ACAD_REACTORS
330
42
102
}
330
42
100
AcDbScale
 70
     0
300
1/128" = 1'-0"
140
0.0078125
141
12.0
290
     0
  0
SCALE
  5
45
102
{ACAD_REACTORS
330
42
102
}
330
42
100
AcDbScale
 70
     0
300
1/64" = 1'-0"
140
0.015625
141
12.0
290
     0
  0
SCALE
  5
46
102
{ACAD_REACTORS
330
42
102
}
330
42
100
AcDbScale
 70
     0
300
1/32" = 1'-0"
140
0.03125
141
12.0
290
     0
  0
SCALE
  5
47
102
{ACAD_REACTORS
330
42
102
}
330
42
100
AcDbScale
 70
     0
300
1/16" = 1'-0"
140
0.0625
141
12.0
290
     0
  0
SCALE
  5
48
102
{ACAD_REACTORS
330
42
102
}
330
42
100
AcDbScale
 70
     0
300
3/32" = 1'-0"
140
0.09375
141
12.0
290
     0
  0
SCALE
  5
49
102
{ACAD_REACTORS
330
42
102
}
330
42
100
AcDbScale
 70
     0
300
1/8" = 1'-0"
140
0.125
141
12.0
290
     0
  0
SCALE
  5
4A
102
{ACAD_REACTORS
330
42
102
}
330
42
100
AcDbScale
 70
     0
300
3/16" = 1'-0"
140
0.1875
141
12.0
290
     0
  0
SCALE
  5
4B
102
{ACAD_REACTORS
330
42
102
}
330
42
100
AcDbScale
 70
     0
300
1/4" = 1'-0"
140
0.25
141
12.0
290
     0
  0
SCALE
  5
4C
102
{ACAD_REACTORS
330
42
102
}
330
42
100
AcDbScale
 70
     0
300
3/8" = 1'-0"
140
0.375
141
12.0
290
     0
  0
SCALE
  5
4D
102
{ACAD_REACTORS
330
42
102
}
330
42
100
AcDbScale
 70
     0
300
1/2" = 1'-0"
140
0.5
141
12.0
290
     0
  0
SCALE
  5
4E
102
{ACAD_REACTORS
330
42
102
}
330
42
100
AcDbScale
 70
     0
300
3/4" = 1'-0"
140
0.75
141
12.0
290
     0
  0
SCALE
  5
4F
102
{ACAD_REACTORS
330
42
102
}
330
42
100
AcDbScale
 70
     0
300
1" = 1'-0"
140
1.0
141
12.0
290
     0
  0
SCALE
  5
50
102
{ACAD_REACTORS
330
42
102
}
330
42
100
AcDbScale
 70
     0
300
1-1/2" = 1'-0"
140
1.5
141
12.0
290
     0
  0
SCALE
  5
51
102
{ACAD_REACTORS
330
42
102
}
330
42
100
AcDbScale
 70
     0
300
3" = 1'-0"
140
3.0
141
12.0
290
     0
  0
SCALE
  5
52
102
{ACAD_REACTORS
330
42
102
}
330
42
100
AcDbScale
 70
     0
300
6" = 1'-0"
140
6.0
141
12.0
290
     0
  0
SCALE
  5
53
102
{ACAD_REACTORS
330
42
102
}
330
42
100
AcDbScale
 70
     0
300
1'-0" = 1'-0"
140
12.0
141
12.0
290
     0
  0
ACDBSECTIONVIEWSTYLE
  5
69
102
{ACAD_XDICTIONARY
360
97
102
}
102
{ACAD_REACTORS
330
68
102
}
330
68
100
AcDbModelDocViewStyle
 70
     0
  3
Imperial24
290
     0
100
AcDbSectionViewStyle
 70
     0
 71
     0
 90
       78
 71
     1
340
55
 62
   256
 40
0.24
340
0
340
0
 62
   256
 40
0.24
300
I, O, Q, S, X, Z
 40
0.48
 90
        3
 40
0.18
 90
        1
 71
     2
340
5D
 90
       25
 62
   256
340
5D
 90
       50
 62
   256
 40
0.24
 40
0.0
 40
0.24
 71
     3
340
55
 62
   256
 40
0.24
 90
        1
 40
0.75
 90
        1
300
%<\AcVar ViewType \f "%tc1">% %<\AcVar ViewSectionStartId>%-%<\AcVar ViewSectionEndId>%\PSCALE %<\AcVar ViewScale \f "%sn">%
 71
     4
 62
   256
 62
   257
300
ANSI31
 40
1.0
 90
        0
290
     0
290
     0
 90
        6
 40
0.0
 40
1.570796326794896
 40
0.2617993877991494
 40
1.308996938995747
 40
-0.2617993877991494
 40
1.832595714594046
  0
TABLESTYLE
  5
65
102
{ACAD_XDICTIONARY
360
94
102
}
102
{ACAD_REACTORS
330
64
102
}
330
64
100
AcDbTableStyle
280
     0
  3
Standard
 70
     0
 71
     0
 40
0.06
 41
0.06
280
     0
281
     0
  7
Standard
140
0.18
170
     2
 62
     0
 63
     7
283
     0
 90
      512
 91
        0
  1

274
    -2
284
     1
 64
     0
275
    -2
285
     1
 65
     0
276
    -2
286
     1
 66
     0
277
    -2
287
     1
 67
     0
278
    -2
288
     1
 68
     0
279
    -2
289
     1
 69
     0
  7
Standard
140
0.25
170
     5
 62
     0
 63
     7
283
     0
 90
      512
 91
        0
  1

274
    -2
284
     1
 64
     0
275
    -2
285
     1
 65
     0
276
    -2
286
     1
 66
     0
277
    -2
287
     1
 67
     0
278
    -2
288
     1
 68
     0
279
    -2
289
     1
 69
     0
  7
Standard
140
0.18
170
     5
 62
     0
 63
     7
283
     0
 90
      512
 91
        0
  1

274
    -2
284
     1
 64
     0
275
    -2
285
     1
 65
     0
276
    -2
286
     1
 66
     0
277
    -2
287
     1
 67
     0
278
    -2
288
     1
 68
     0
279
    -2
289
     1
 69
     0
  0
VISUALSTYLE
  5
2F
102
{ACAD_REACTORS
330
29
102
}
330
29
100
AcDbVisualStyle
  2
2dWireframe
 70
     4
177
     3
291
     0
 70
    58
 90
        0
176
     1
 90
        2
176
     1
 90
        0
176
     1
 90
        0
176
     1
 40
0.6
176
     1
 40
30.0
176
     1
 62
     7
420
 16777215
176
     1
 90
        1
176
     1
 90
        4
176
     1
 62
     7
176
     1
 62
   257
176
     1
 90
        1
176
     1
 90
        1
176
     1
 40
1.0
176
     1
 90
        0
176
     1
 62
   257
176
     1
 40
1.0
176
     1
 90
        1
176
     1
 90
        6
176
     1
 90
        2
176
     1
 62
     7
176
     1
 90
        5
176
     1
 90
        0
176
     1
 90
        0
176
     1
290
     0
176
     1
 90
        1
176
     1
 40
0.0
176
     1
 90
        0
176
     1
290
     1
176
     1
290
     1
176
     1
290
     0
176
     1
290
     0
176
     1
290
     0
176
     1
290
     0
176
     1
290
     0
176
     1
290
     0
176
     1
290
     0
176
     1
 90
       50
176
     1
 40
0.0
176
     1
 40
1.0
176
     1
 90
        0
176
     1
 62
    18
420
        0
176
     1
 90
       50
176
     1
 90
        3
176
     1
 62
     5
420
      255
176
     1
290
     0
176
     1
 90
       50
176
     1
 90
       50
176
     1
 90
       50
176
     1
290
     0
176
     1
 90
       50
176
     1
 62
   256
176
     0
 40
1.0
176
     0
 90
        2
176
     1
  1
strokes_ogs.tif
176
     1
290
     0
176
     1
 40
1.0
176
     1
 40
1.0
176
     1
1001
ACAD
1000
AcDbSavedByObjectVersion
1070
     0
  0
VISUALSTYLE
  5
2E
102
{ACAD_REACTORS
330
29
102
}
330
29
100
AcDbVisualStyle
  2
Basic
 70
     7
177
     3
291
     1
 70
    58
 90
        1
176
     1
 90
        0
176
     1
 90
        1
176
     1
 90
        0
176
     1
 40
0.6
176
     1
 40
30.0
176
     1
 62
     7
420
 16777215
176
     1
 90
        0
176
     1
 90
        4
176
     1
 62
     7
176
     1
 62
   257
176
     1
 90
        1
176
     1
 90
        1
176
     1
 40
1.0
176
     1
 90
        8
176
     1
 62
     7
176
     1
 40
1.0
176
     1
 90
        1
176
     1
 90
        6
176
     1
 90
        2
176
     1
 62
     7
176
     1
 90
        5
176
     1
 90
        0
176
     1
 90
        0
176
     1
290
     0
176
     1
 90
        1
176
     1
 40
0.0
176
     1
 90
        0
176
     1
290
     0
176
     1
290
     1
176
     1
290
     1
176
     1
290
     0
176
     1
290
     0
176
     1
290
     0
176
     1
290
     0
176
     1
290
     0
176
     1
290
     0
176
     1
 90
       50
176
     1
 40
0.0
176
     1
 40
1.0
176
     1
 90
        0
176
     1
 62
    18
420
        0
176
     1
 90
       50
176
     1
 90
        3
176
     1
 62
     5
420
      255
176
     1
290
     0
176
     1
 90
       50
176
     1
 90
       50
176
     1
 90
       50
176
     1
290
     0
176
     1
 90
       50
176
     1
 62
   256
176
     0
 40
1.0
176
     0
 90
        2
176
     1
  1
strokes_ogs.tif
176
     1
290
     0
176
     1
 40
1.0
176
     1
 40
1.0
176
     1
1001
ACAD
1000
AcDbSavedByObjectVersion
1070
     0
  0
VISUALSTYLE
  5
35
102
{ACAD_REACTORS
330
29
102
}
330
29
100
AcDbVisualStyle
  2
Brighten
 70
    12
177
     3
291
     1
 70
    58
 90
        2
176
     1
 90
        2
176
     1
 90
        0
176
     1
 90
        0
176
     1
 40
0.6
176
     1
 40
30.0
176
     1
 62
     7
420
 16777215
176
     1
 90
        1
176
     1
 90
        4
176
     1
 62
     7
176
     1
 62
   257
176
     1
 90
        1
176
     1
 90
        1
176
     1
 40
1.0
176
     1
 90
        8
176
     1
 62
     7
176
     1
 40
1.0
176
     1
 90
        1
176
     1
 90
        6
176
     1
 90
        2
176
     1
 62
     7
176
     1
 90
        5
176
     1
 90
        0
176
     1
 90
        0
176
     1
290
     0
176
     1
 90
        1
176
     1
 40
50.0
176
     1
 90
        0
176
     1
290
     0
176
     1
290
     1
176
     1
290
     1
176
     1
290
     0
176
     1
290
     0
176
     1
290
     0
176
     1
290
     0
176
     1
290
     0
176
     1
290
     0
176
     1
 90
       50
176
     1
 40
0.0
176
     1
 40
1.0
176
     1
 90
        0
176
     1
 62
    18
420
        0
176
     1
 90
       50
176
     1
 90
        3
176
     1
 62
     5
420
      255
176
     1
290
     0
176
     1
 90
       50
176
     1
 90
       50
176
     1
 90
       50
176
     1
290
     0
176
     1
 90
       50
176
     1
 62
   256
176
     0
 40
1.0
176
     0
 90
        2
176
     1
  1
strokes_ogs.tif
176
     1
290
     0
176
     1
 40
1.0
176
     1
 40
1.0
176
     1
1001
ACAD
1000
AcDbSavedByObjectVersion
1070
     0
  0
VISUALSTYLE
  5
39
102
{ACAD_REACTORS
330
29
102
}
330
29
100
AcDbVisualStyle
  2
ColorChange
 70
    16
177
     3
291
     1
 70
    58
 90
        2
176
     1
 90
        2
176
     1
 90
        3
176
     1
 90
        0
176
     1
 40
0.6
176
     1
 40
30.0
176
     1
 62
     8
420
  8421504
176
     1
 90
        1
176
     1
 90
        4
176
     1
 62
     7
176
     1
 62
   257
176
     1
 90
        1
176
     1
 90
        1
176
     1
 40
1.0
176
     1
 90
        8
176
     1
 62
     8
420
  8421504
176
     1
 40
1.0
176
     1
 90
        1
176
     1
 90
        6
176
     1
 90
        2
176
     1
 62
     7
176
     1
 90
        5
176
     1
 90
        0
176
     1
 90
        0
176
     1
290
     0
176
     1
 90
        1
176
     1
 40
0.0
176
     1
 90
        0
176
     1
290
     0
176
     1
290
     1
176
     1
290
     1
176
     1
290
     0
176
     1
290
     0
176
     1
290
     0
176
     1
290
     0
176
     1
290
     0
176
     1
290
     0
176
     1
 90
       50
176
     1
 40
0.0
176
     1
 40
1.0
176
     1
 90
        0
176
     1
 62
    18
420
        0
176
     1
 90
       50
176
     1
 90
        3
176
     1
 62
     5
420
      255
176
     1
290
     0
176
     1
 90
       50
176
     1
 90
       50
176
     1
 90
       50
176
     1
290
     0
176
     1
 90
       50
176
     1
 62
   256
176
     0
 40
1.0
176
     0
 90
        2
176
     1
  1
strokes_ogs.tif
176
     1
290
     0
176
     1
 40
1.0
176
     1
 40
1.0
176
     1
1001
ACAD
1000
AcDbSavedByObjectVersion
1070
     0
  0
VISUALSTYLE
  5
32
102
{ACAD_REACTORS
330
29
102
}
330
29
100
AcDbVisualStyle
  2
Conceptual
 70
     9
177
     3
291
     0
 70
    58
 90
        3
176
     1
 90
        2
176
     1
 90
        0
176
     1
 90
        0
176
     1
 40
0.6
176
     1
 40
30.0
176
     1
 62
     7
420
 16777215
176
     1
 90
        2
176
     1
 90
        2
176
     1
 62
     7
176
     1
 62
   257
176
     1
 90
        1
176
     1
 90
        1
176
     1
 40
179.0
176
     1
 90
        8
176
     1
 62
     7
176
     1
 40
1.0
176
     1
 90
        1
176
     1
 90
        6
176
     1
 90
        2
176
     1
 62
     7
176
     1
 90
        3
176
     1
 90
        0
176
     1
 90
        0
176
     1
290
     0
176
     1
 90
        1
176
     1
 40
0.0
176
     1
 90
        0
176
     1
290
     0
176
     1
290
     1
176
     1
290
     1
176
     1
290
     0
176
     1
290
     0
176
     1
290
     0
176
     1
290
     0
176
     1
290
     0
176
     1
290
     0
176
     1
 90
       50
176
     1
 40
0.0
176
     1
 40
1.0
176
     1
 90
        0
176
     1
 62
    18
420
        0
176
     1
 90
       50
176
     1
 90
        3
176
     1
 62
     5
420
      255
176
     1
290
     0
176
     1
 90
       50
176
     1
 90
       50
176
     1
 90
       50
176
     1
290
     0
176
     1
 90
       50
176
     1
 62
   256
176
     0
 40
1.0
176
     0
 90
        2
176
     1
  1
strokes_ogs.tif
176
     1
290
     0
176
     1
 40
1.0
176
     1
 40
1.0
176
     1
1001
ACAD
1000
AcDbSavedByObjectVersion
1070
     0
  0
VISUALSTYLE
  5
34
102
{ACAD_REACTORS
330
29
102
}
330
29
100
AcDbVisualStyle
  2
Dim
 70
    11
177
     3
291
     1
 70
    58
 90
        2
176
     1
 90
        2
176
     1
 90
        0
176
     1
 90
        0
176
     1
 40
0.6
176
     1
 40
30.0
176
     1
 62
     7
420
 16777215
176
     1
 90
        1
176
     1
 90
        4
176
     1
 62
     7
176
     1
 62
   257
176
     1
 90
        1
176
     1
 90
        1
176
     1
 40
1.0
176
     1
 90
        8
176
     1
 62
     7
176
     1
 40
1.0
176
     1
 90
        1
176
     1
 90
        6
176
     1
 90
        2
176
     1
 62
     7
176
     1
 90
        5
176
     1
 90
        0
176
     1
 90
        0
176
     1
290
     0
176
     1
 90
        1
176
     1
 40
-50.0
176
     1
 90
        0
176
     1
290
     0
176
     1
290
     1
176
     1
290
     1
176
     1
290
     0
176
     1
290
     0
176
     1
290
     0
176
     1
290
     0
176
     1
290
     0
176
     1
290
     0
176
     1
 90
       50
176
     1
 40
0.0
176
     1
 40
1.0
176
     1
 90
        0
176
     1
 62
    18
420
        0
176
     1
 90
       50
176
     1
 90
        3
176
     1
 62
     5
420
      255
176
     1
290
     0
176
     1
 90
       50
176
     1
 90
       50
176
     1
 90
       50
176
     1
290
     0
176
     1
 90
       50
176
     1
 62
   256
176
     0
 40
1.0
176
     0
 90
        2
176
     1
  1
strokes_ogs.tif
176
     1
290
     0
176
     1
 40
1.0
176
     1
 40
1.0
176
     1
1001
ACAD
1000
AcDbSavedByObjectVersion
1070
     0
  0
VISUALSTYLE
  5
41
102
{ACAD_REACTORS
330
29
102
}
330
29
100
AcDbVisualStyle
  2
EdgeColorOff
 70
    22
177
     3
291
     1
 70
    58
 90
        2
176
     0
 90
        2
176
     0
 90
        0
176
     0
 90
        0
176
     0
 40
0.6
176
     0
 40
30.0
176
     0
 62
     7
420
 16777215
176
     0
 90
        1
176
     0
 90
        4
176
     0
 62
     7
176
     0
 62
   257
176
     0
 90
        1
176
     0
 90
        1
176
     0
 40
1.0
176
     0
 90
        8
176
     2
 62
     7
176
     0
 40
1.0
176
     0
 90
        1
176
     0
 90
        6
176
     0
 90
        2
176
     0
 62
     7
176
     0
 90
        5
176
     0
 90
        0
176
     0
 90
        0
176
     0
290
     0
176
     0
 90
        1
176
     0
 40
0.0
176
     0
 90
        0
176
     0
290
     0
176
     0
290
     1
176
     0
290
     1
176
     0
290
     0
176
     0
290
     0
176
     0
290
     0
176
     0
290
     0
176
     0
290
     0
176
     0
290
     0
176
     0
 90
       50
176
     0
 40
0.0
176
     0
 40
1.0
176
     0
 90
        0
176
     0
 62
    18
420
        0
176
     0
 90
       50
176
     0
 90
        3
176
     0
 62
     5
420
      255
176
     0
290
     0
176
     0
 90
       50
176
     0
 90
       50
176
     0
 90
       50
176
     0
290
     0
176
     0
 90
       50
176
     0
 62
   256
176
     0
 40
1.0
176
     0
 90
        2
176
     0
  1
strokes_ogs.tif
176
     0
290
     0
176
     0
 40
1.0
176
     0
 40
1.0
176
     0
1001
ACAD
1000
AcDbSavedByObjectVersion
1070
     0
  0
VISUALSTYLE
  5
38
102
{ACAD_REACTORS
330
29
102
}
330
29
100
AcDbVisualStyle
  2
Facepattern
 70
    15
177
     3
291
     1
 70
    58
 90
        2
176
     1
 90
        2
176
     1
 90
        0
176
     1
 90
        0
176
     1
 40
0.6
176
     1
 40
30.0
176
     1
 62
     7
420
 16777215
176
     1
 90
        1
176
     1
 90
        4
176
     1
 62
     7
176
     1
 62
   257
176
     1
 90
        1
176
     1
 90
        1
176
     1
 40
1.0
176
     1
 90
        8
176
     1
 62
     7
176
     1
 40
1.0
176
     1
 90
        1
176
     1
 90
        6
176
     1
 90
        2
176
     1
 62
     7
176
     1
 90
        5
176
     1
 90
        0
176
     1
 90
        0
176
     1
290
     0
176
     1
 90
        1
176
     1
 40
0.0
176
     1
 90
        0
176
     1
290
     0
176
     1
290
     1
176
     1
290
     1
176
     1
290
     0
176
     1
290
     0
176
     1
290
     0
176
     1
290
     0
176
     1
290
     0
176
     1
290
     0
176
     1
 90
       50
176
     1
 40
0.0
176
     1
 40
1.0
176
     1
 90
        0
176
     1
 62
    18
420
        0
176
     1
 90
       50
176
     1
 90
        3
176
     1
 62
     5
420
      255
176
     1
290
     0
176
     1
 90
       50
176
     1
 90
       50
176
     1
 90
       50
176
     1
290
     0
176
     1
 90
       50
176
     1
 62
   256
176
     0
 40
1.0
176
     0
 90
        2
176
     1
  1
strokes_ogs.tif
176
     1
290
     0
176
     1
 40
1.0
176
     1
 40
1.0
176
     1
1001
ACAD
1000
AcDbSavedByObjectVersion
1070
     0
  0
VISUALSTYLE
  5
2A
102
{ACAD_REACTORS
330
29
102
}
330
29
100
AcDbVisualStyle
  2
Flat
 70
     0
177
     3
291
     1
 70
    58
 90
        2
176
     1
 90
        1
176
     1
 90
        1
176
     1
 90
        2
176
     1
 40
0.6
176
     1
 40
30.0
176
     1
 62
     7
420
 16777215
176
     1
 90
        0
176
     1
 90
        0
176
     1
 62
     7
176
     1
 62
   257
176
     1
 90
        1
176
     1
 90
        1
176
     1
 40
1.0
176
     1
 90
        8
176
     1
 62
     7
176
     1
 40
1.0
176
     1
 90
        1
176
     1
 90
        6
176
     1
 90
        2
176
     1
 62
     7
176
     1
 90
        5
176
     1
 90
        0
176
     1
 90
        0
176
     1
290
     0
176
     1
 90
       13
176
     1
 40
0.0
176
     1
 90
        0
176
     1
290
     0
176
     1
290
     1
176
     1
290
     1
176
     1
290
     0
176
     1
290
     0
176
     1
290
     0
176
     1
290
     0
176
     1
290
     0
176
     1
290
     0
176
     1
 90
       50
176
     1
 40
0.0
176
     1
 40
1.0
176
     1
 90
        0
176
     1
 62
    18
420
        0
176
     1
 90
       50
176
     1
 90
        3
176
     1
 62
     5
420
      255
176
     1
290
     0
176
     1
 90
       50
176
     1
 90
       50
176
     1
 90
       50
176
     1
290
     0
176
     1
 90
       50
176
     1
 62
   256
176
     0
 40
1.0
176
     0
 90
        2
176
     1
  1
strokes_ogs.tif
176
     1
290
     0
176
     1
 40
1.0
176
     1
 40
1.0
176
     1
1001
ACAD
1000
AcDbSavedByObjectVersion
1070
     0
  0
VISUALSTYLE
  5
2B
102
{ACAD_REACTORS
330
29
102
}
330
29
100
AcDbVisualStyle
  2
FlatWithEdges
 70
     1
177
     3
291
     1
 70
    58
 90
        2
176
     1
 90
        1
176
     1
 90
        1
176
     1
 90
        2
176
     1
 40
0.6
176
     1
 40
30.0
176
     1
 62
     7
420
 16777215
176
     1
 90
        1
176
     1
 90
        0
176
     1
 62
     7
176
     1
 62
   257
176
     1
 90
        1
176
     1
 90
        1
176
     1
 40
1.0
176
     1
 90
        0
176
     1
 62
   257
176
     1
 40
1.0
176
     1
 90
        1
176
     1
 90
        6
176
     1
 90
        2
176
     1
 62
     7
176
     1
 90
        5
176
     1
 90
        0
176
     1
 90
        0
176
     1
290
     0
176
     1
 90
       13
176
     1
 40
0.0
176
     1
 90
        0
176
     1
290
     0
176
     1
290
     1
176
     1
290
     1
176
     1
290
     0
176
     1
290
     0
176
     1
290
     0
176
     1
290
     0
176
     1
290
     0
176
     1
290
     0
176
     1
 90
       50
176
     1
 40
0.0
176
     1
 40
1.0
176
     1
 90
        0
176
     1
 62
    18
420
        0
176
     1
 90
       50
176
     1
 90
        3
176
     1
 62
     5
420
      255
176
     1
290
     0
176
     1
 90
       50
176
     1
 90
       50
176
     1
 90
       50
176
     1
290
     0
176
     1
 90
       50
176
     1
 62
   256
176
     0
 40
1.0
176
     0
 90
        2
176
     1
  1
strokes_ogs.tif
176
     1
290
     0
176
     1
 40
1.0
176
     1
 40
1.0
176
     1
1001
ACAD
1000
AcDbSavedByObjectVersion
1070
     0
  0
VISUALSTYLE
  5
2C
102
{ACAD_REACTORS
330
29
102
}
330
29
100
AcDbVisualStyle
  2
Gouraud
 70
     2
177
     3
291
     1
 70
    58
 90
        2
176
     1
 90
        2
176
     1
 90
        1
176
     1
 90
        2
176
     1
 40
0.6
176
     1
 40
30.0
176
     1
 62
     7
420
 16777215
176
     1
 90
        0
176
     1
 90
        0
176
     1
 62
     7
176
     1
 62
   257
176
     1
 90
        1
176
     1
 90
        1
176
     1
 40
1.0
176
     1
 90
        0
176
     1
 62
     7
176
     1
 40
1.0
176
     1
 90
        1
176
     1
 90
        6
176
     1
 90
        2
176
     1
 62
     7
176
     1
 90
        5
176
     1
 90
        0
176
     1
 90
        0
176
     1
290
     0
176
     1
 90
       13
176
     1
 40
0.0
176
     1
 90
        0
176
     1
290
     0
176
     1
290
     1
176
     1
290
     1
176
     1
290
     0
176
     1
290
     0
176
     1
290
     0
176
     1
290
     0
176
     1
290
     0
176
     1
290
     0
176
     1
 90
       50
176
     1
 40
0.0
176
     1
 40
1.0
176
     1
 90
        0
176
     1
 62
    18
420
        0
176
     1
 90
       50
176
     1
 90
        3
176
     1
 62
     5
420
      255
176
     1
290
     0
176
     1
 90
       50
176
     1
 90
       50
176
     1
 90
       50
176
     1
290
     0
176
     1
 90
       50
176
     1
 62
   256
176
     0
 40
1.0
176
     0
 90
        2
176
     1
  1
strokes_ogs.tif
176
     1
290
     0
176
     1
 40
1.0
176
     1
 40
1.0
176
     1
1001
ACAD
1000
AcDbSavedByObjectVersion
1070
     0
  0
VISUALSTYLE
  5
2D
102
{ACAD_REACTORS
330
29
102
}
330
29
100
AcDbVisualStyle
  2
GouraudWithEdges
 70
     3
177
     3
291
     1
 70
    58
 90
        2
176
     1
 90
        2
176
     1
 90
        1
176
     1
 90
        2
176
     1
 40
0.6
176
     1
 40
30.0
176
     1
 62
     7
420
 16777215
176
     1
 90
        1
176
     1
 90
        0
176
     1
 62
     7
176
     1
 62
   257
176
     1
 90
        1
176
     1
 90
        1
176
     1
 40
1.0
176
     1
 90
        0
176
     1
 62
   257
176
     1
 40
1.0
176
     1
 90
        1
176
     1
 90
        6
176
     1
 90
        2
176
     1
 62
     7
176
     1
 90
        5
176
     1
 90
        0
176
     1
 90
        0
176
     1
290
     0
176
     1
 90
       13
176
     1
 40
0.0
176
     1
 90
        0
176
     1
290
     0
176
     1
290
     1
176
     1
290
     1
176
     1
290
     0
176
     1
290
     0
176
     1
290
     0
176
     1
290
     0
176
     1
290
     0
176
     1
290
     0
176
     1
 90
       50
176
     1
 40
0.0
176
     1
 40
1.0
176
     1
 90
        0
176
     1
 62
    18
420
        0
176
     1
 90
       50
176
     1
 90
        3
176
     1
 62
     5
420
      255
176
     1
290
     0
176
     1
 90
       50
176
     1
 90
       50
176
     1
 90
       50
176
     1
290
     0
176
     1
 90
       50
176
     1
 62
   256
176
     0
 40
1.0
176
     0
 90
        2
176
     1
  1
strokes_ogs.tif
176
     1
290
     0
176
     1
 40
1.0
176
     1
 40
1.0
176
     1
1001
ACAD
1000
AcDbSavedByObjectVersion
1070
     0
  0
VISUALSTYLE
  5
31
102
{ACAD_REACTORS
330
29
102
}
330
29
100
AcDbVisualStyle
  2
Hidden
 70
     6
177
     3
291
     0
 70
    58
 90
        1
176
     1
 90
        2
176
     1
 90
        2
176
     1
 90
        0
176
     1
 40
0.6
176
     1
 40
30.0
176
     1
 62
     7
420
 16777215
176
     1
 90
        2
176
     1
 90
        2
176
     1
 62
     7
176
     1
 62
   257
176
     1
 90
        2
176
     1
 90
        1
176
     1
 40
40.0
176
     1
 90
        0
176
     1
 62
   257
176
     1
 40
1.0
176
     1
 90
        1
176
     1
 90
        6
176
     1
 90
        2
176
     1
 62
     7
176
     1
 90
        3
176
     1
 90
        0
176
     1
 90
        0
176
     1
290
     0
176
     1
 90
        1
176
     1
 40
0.0
176
     1
 90
        0
176
     1
290
     0
176
     1
290
     1
176
     1
290
     1
176
     1
290
     0
176
     1
290
     0
176
     1
290
     0
176
     1
290
     0
176
     1
290
     0
176
     1
290
     0
176
     1
 90
       50
176
     1
 40
0.0
176
     1
 40
1.0
176
     1
 90
        0
176
     1
 62
    18
420
        0
176
     1
 90
       50
176
     1
 90
        3
176
     1
 62
     5
420
      255
176
     1
290
     0
176
     1
 90
       50
176
     1
 90
       50
176
     1
 90
       50
176
     1
290
     0
176
     1
 90
       50
176
     1
 62
   256
176
     0
 40
1.0
176
     0
 90
        2
176
     1
  1
strokes_ogs.tif
176
     1
290
     0
176
     1
 40
1.0
176
     1
 40
1.0
176
     1
1001
ACAD
1000
AcDbSavedByObjectVersion
1070
     0
  0
VISUALSTYLE
  5
3F
102
{ACAD_REACTORS
330
29
102
}
330
29
100
AcDbVisualStyle
  2
JitterOff
 70
    20
177
     3
291
     1
 70
    58
 90
        2
176
     0
 90
        2
176
     0
 90
        0
176
     0
 90
        0
176
     0
 40
0.6
176
     0
 40
30.0
176
     0
 62
     7
420
 16777215
176
     0
 90
        1
176
     0
 90
        4
176
     0
 62
     7
176
     0
 62
   257
176
     0
 90
        1
176
     0
 90
        1
176
     0
 40
1.0
176
     0
 90
       10
176
     2
 62
     7
176
     0
 40
1.0
176
     0
 90
        1
176
     0
 90
        6
176
     0
 90
        2
176
     0
 62
     7
176
     0
 90
        5
176
     0
 90
        0
176
     0
 90
        0
176
     0
290
     0
176
     0
 90
        1
176
     0
 40
0.0
176
     0
 90
        0
176
     0
290
     0
176
     0
290
     1
176
     0
290
     1
176
     0
290
     0
176
     0
290
     0
176
     0
290
     0
176
     0
290
     0
176
     0
290
     0
176
     0
290
     0
176
     0
 90
       50
176
     0
 40
0.0
176
     0
 40
1.0
176
     0
 90
        0
176
     0
 62
    18
420
        0
176
     0
 90
       50
176
     0
 90
        3
176
     0
 62
     5
420
      255
176
     0
290
     0
176
     0
 90
       50
176
     0
 90
       50
176
     0
 90
       50
176
     0
290
     0
176
     0
 90
       50
176
     0
 62
   256
176
     0
 40
1.0
176
     0
 90
        2
176
     0
  1
strokes_ogs.tif
176
     0
290
     0
176
     0
 40
1.0
176
     0
 40
1.0
176
     0
1001
ACAD
1000
AcDbSavedByObjectVersion
1070
     0
  0
VISUALSTYLE
  5
37
102
{ACAD_REACTORS
330
29
102
}
330
29
100
AcDbVisualStyle
  2
Linepattern
 70
    14
177
     3
291
     1
 70
    58
 90
        2
176
     1
 90
        2
176
     1
 90
        0
176
     1
 90
        0
176
     1
 40
0.6
176
     1
 40
30.0
176
     1
 62
     7
420
 16777215
176
     1
 90
        1
176
     1
 90
        4
176
     1
 62
     7
176
     1
 62
   257
176
     1
 90
        7
176
     1
 90
        7
176
     1
 40
1.0
176
     1
 90
        8
176
     1
 62
     7
176
     1
 40
1.0
176
     1
 90
        1
176
     1
 90
        6
176
     1
 90
        2
176
     1
 62
     7
176
     1
 90
        5
176
     1
 90
        0
176
     1
 90
        0
176
     1
290
     0
176
     1
 90
        1
176
     1
 40
0.0
176
     1
 90
        0
176
     1
290
     0
176
     1
290
     1
176
     1
290
     1
176
     1
290
     0
176
     1
290
     0
176
     1
290
     0
176
     1
290
     0
176
     1
290
     0
176
     1
290
     0
176
     1
 90
       50
176
     1
 40
0.0
176
     1
 40
1.0
176
     1
 90
        0
176
     1
 62
    18
420
        0
176
     1
 90
       50
176
     1
 90
        3
176
     1
 62
     5
420
      255
176
     1
290
     0
176
     1
 90
       50
176
     1
 90
       50
176
     1
 90
       50
176
     1
290
     0
176
     1
 90
       50
176
     1
 62
   256
176
     0
 40
1.0
176
     0
 90
        2
176
     1
  1
strokes_ogs.tif
176
     1
290
     0
176
     1
 40
1.0
176
     1
 40
1.0
176
     1
1001
ACAD
1000
AcDbSavedByObjectVersion
1070
     0
  0
VISUALSTYLE
  5
40
102
{ACAD_REACTORS
330
29
102
}
330
29
100
AcDbVisualStyle
  2
OverhangOff
 70
    21
177
     3
291
     1
 70
    58
 90
        2
176
     0
 90
        2
176
     0
 90
        0
176
     0
 90
        0
176
     0
 40
0.6
176
     0
 40
30.0
176
     0
 62
     7
420
 16777215
176
     0
 90
        1
176
     0
 90
        4
176
     0
 62
     7
176
     0
 62
   257
176
     0
 90
        1
176
     0
 90
        1
176
     0
 40
1.0
176
     0
 90
        9
176
     2
 62
     7
176
     0
 40
1.0
176
     0
 90
        1
176
     0
 90
        6
176
     0
 90
        2
176
     0
 62
     7
176
     0
 90
        5
176
     0
 90
        0
176
     0
 90
        0
176
     0
290
     0
176
     0
 90
        1
176
     0
 40
0.0
176
     0
 90
        0
176
     0
290
     0
176
     0
290
     1
176
     0
290
     1
176
     0
290
     0
176
     0
290
     0
176
     0
290
     0
176
     0
290
     0
176
     0
290
     0
176
     0
290
     0
176
     0
 90
       50
176
     0
 40
0.0
176
     0
 40
1.0
176
     0
 90
        0
176
     0
 62
    18
420
        0
176
     0
 90
       50
176
     0
 90
        3
176
     0
 62
     5
420
      255
176
     0
290
     0
176
     0
 90
       50
176
     0
 90
       50
176
     0
 90
       50
176
     0
290
     0
176
     0
 90
       50
176
     0
 62
   256
176
     0
 40
1.0
176
     0
 90
        2
176
     0
  1
strokes_ogs.tif
176
     0
290
     0
176
     0
 40
1.0
176
     0
 40
1.0
176
     0
1001
ACAD
1000
AcDbSavedByObjectVersion
1070
     0
  0
VISUALSTYLE
  5
33
102
{ACAD_REACTORS
330
29
102
}
330
29
100
AcDbVisualStyle
  2
Realistic
 70
     8
177
     3
291
     0
 70
    58
 90
        2
176
     1
 90
        3
176
     1
 90
        0
176
     1
 90
        2
176
     1
 40
0.6
176
     1
 40
30.0
176
     1
 62
     7
420
 16777215
176
     1
 90
        0
176
     1
 90
        0
176
     1
 62
     7
176
     1
 62
   257
176
     1
 90
        1
176
     1
 90
        1
176
     1
 40
1.0
176
     1
 90
        8
176
     1
 62
   257
176
     1
 40
1.0
176
     1
 90
        1
176
     1
 90
        6
176
     1
 90
        2
176
     1
 62
     7
176
     1
 90
        3
176
     1
 90
        0
176
     1
 90
        0
176
     1
290
     0
176
     1
 90
       13
176
     1
 40
0.0
176
     1
 90
        0
176
     1
290
     0
176
     1
290
     1
176
     1
290
     1
176
     1
290
     0
176
     1
290
     0
176
     1
290
     0
176
     1
290
     0
176
     1
290
     0
176
     1
290
     0
176
     1
 90
       50
176
     1
 40
0.0
176
     1
 40
1.0
176
     1
 90
        0
176
     1
 62
    18
420
        0
176
     1
 90
       50
176
     1
 90
        3
176
     1
 62
     5
420
      255
176
     1
290
     0
176
     1
 90
       50
176
     1
 90
       50
176
     1
 90
       50
176
     1
290
     0
176
     1
 90
       50
176
     1
 62
   256
176
     0
 40
1.0
176
     0
 90
        2
176
     1
  1
strokes_ogs.tif
176
     1
290
     0
176
     1
 40
1.0
176
     1
 40
1.0
176
     1
1001
ACAD
1000
AcDbSavedByObjectVersion
1070
     0
  0
VISUALSTYLE
  5
3E
102
{ACAD_REACTORS
330
29
102
}
330
29
100
AcDbVisualStyle
  2
Shaded
 70
    27
177
     3
291
     0
 70
    58
 90
        2
176
     1
 90
        2
176
     1
 90
        1
176
     1
 90
        2
176
     1
 40
0.6
176
     1
 40
30.0
176
     1
 62
     7
420
 16777215
176
     1
 90
        0
176
     1
 90
        4
176
     1
 62
     7
176
     1
 62
   257
176
     1
 90
        1
176
     1
 90
        1
176
     1
 40
1.0
176
     1
 90
        8
176
     1
 62
   257
176
     1
 40
1.0
176
     1
 90
        1
176
     1
 90
        6
176
     1
 90
        2
176
     1
 62
     8
420
  7895160
176
     1
 90
        3
176
     1
 90
        0
176
     1
 90
        0
176
     1
290
     0
176
     1
 90
        5
176
     1
 40
0.0
176
     1
 90
        0
176
     1
290
     0
176
     1
290
     1
176
     1
290
     1
176
     1
290
     0
176
     1
290
     0
176
     1
290
     0
176
     1
290
     0
176
     1
290
     0
176
     1
290
     0
176
     1
 90
       50
176
     1
 40
0.0
176
     1
 40
1.0
176
     1
 90
        0
176
     1
 62
    18
420
        0
176
     1
 90
       50
176
     1
 90
        3
176
     1
 62
     5
420
      255
176
     1
290
     0
176
     1
 90
       50
176
     1
 90
       50
176
     1
 90
       50
176
     1
290
     0
176
     1
 90
       50
176
     1
 62
   256
176
     0
 40
1.0
176
     0
 90
        2
176
     1
  1
strokes_ogs.tif
176
     1
290
     0
176
     1
 40
1.0
176
     1
 40
1.0
176
     1
1001
ACAD
1000
AcDbSavedByObjectVersion
1070
     0
  0
VISUALSTYLE
  5
3D
102
{ACAD_REACTORS
330
29
102
}
330
29
100
AcDbVisualStyle
  2
Shaded with edges
 70
    26
177
     3
291
     0
 70
    58
 90
        2
176
     1
 90
        2
176
     1
 90
        1
176
     1
 90
        2
176
     1
 40
0.6
176
     1
 40
30.0
176
     1
 62
     7
420
 16777215
176
     1
 90
        1
176
     1
 90
        2
176
     1
 62
     7
176
     1
 62
   257
176
     1
 90
        2
176
     1
 90
        1
176
     1
 40
1.0
176
     1
 90
        8
176
     1
 62
   257
176
     1
 40
1.0
176
     1
 90
        1
176
     1
 90
        6
176
     1
 90
        2
176
     1
 62
     7
176
     1
 90
        3
176
     1
 90
        0
176
     1
 90
        0
176
     1
290
     0
176
     1
 90
        5
176
     1
 40
0.0
176
     1
 90
        0
176
     1
290
     0
176
     1
290
     1
176
     1
290
     1
176
     1
290
     0
176
     1
290
     0
176
     1
290
     0
176
     1
290
     0
176
     1
290
     0
176
     1
290
     0
176
     1
 90
       50
176
     1
 40
0.0
176
     1
 40
1.0
176
     1
 90
        0
176
     1
 62
    18
420
        0
176
     1
 90
       50
176
     1
 90
        3
176
     1
 62
     5
420
      255
176
     1
290
     0
176
     1
 90
       50
176
     1
 90
       50
176
     1
 90
       50
176
     1
290
     0
176
     1
 90
       50
176
     1
 62
   256
176
     0
 40
1.0
176
     0
 90
        2
176
     1
  1
strokes_ogs.tif
176
     1
290
     0
176
     1
 40
1.0
176
     1
 40
1.0
176
     1
1001
ACAD
1000
AcDbSavedByObjectVersion
1070
     0
  0
VISUALSTYLE
  5
3A
102
{ACAD_REACTORS
330
29
102
}
330
29
100
AcDbVisualStyle
  2
Shades of Gray
 70
    23
177
     3
291
     0
 70
    58
 90
        2
176
     1
 90
        2
176
     1
 90
        3
176
     1
 90
        0
176
     1
 40
0.6
176
     1
 40
30.0
176
     1
 62
     7
420
 16777215
176
     1
 90
        2
176
     1
 90
        2
176
     1
 62
     7
176
     1
 62
     7
176
     1
 90
        1
176
     1
 90
        1
176
     1
 40
40.0
176
     1
 90
        8
176
     1
 62
     7
176
     1
 40
1.0
176
     1
 90
        1
176
     1
 90
        6
176
     1
 90
        2
176
     1
 62
     7
176
     1
 90
        3
176
     1
 90
        0
176
     1
 90
        0
176
     1
290
     0
176
     1
 90
        1
176
     1
 40
0.0
176
     1
 90
        0
176
     1
290
     0
176
     1
290
     1
176
     1
290
     1
176
     1
290
     0
176
     1
290
     0
176
     1
290
     0
176
     1
290
     0
176
     1
290
     0
176
     1
290
     0
176
     1
 90
       50
176
     1
 40
0.0
176
     1
 40
1.0
176
     1
 90
        0
176
     1
 62
    18
420
        0
176
     1
 90
       50
176
     1
 90
        3
176
     1
 62
     5
420
      255
176
     1
290
     0
176
     1
 90
       50
176
     1
 90
       50
176
     1
 90
       50
176
     1
290
     0
176
     1
 90
       50
176
     1
 62
   256
176
     0
 40
1.0
176
     0
 90
        2
176
     1
  1
strokes_ogs.tif
176
     1
290
     0
176
     1
 40
1.0
176
     1
 40
1.0
176
     1
1001
ACAD
1000
AcDbSavedByObjectVersion
1070
     0
  0
VISUALSTYLE
  5
3B
102
{ACAD_REACTORS
330
29
102
}
330
29
100
AcDbVisualStyle
  2
Sketchy
 70
    24
177
     3
291
     0
 70
    58
 90
        1
176
     1
 90
        2
176
     1
 90
        2
176
     1
 90
        0
176
     1
 40
0.6
176
     1
 40
30.0
176
     1
 62
     7
420
 16777215
176
     1
 90
        2
176
     1
 90
        2
176
     1
 62
     7
176
     1
 62
     7
176
     1
 90
        1
176
     1
 90
        1
176
     1
 40
40.0
176
     1
 90
       11
176
     1
 62
     7
176
     1
 40
1.0
176
     1
 90
        1
176
     1
 90
        6
176
     1
 90
        2
176
     1
 62
     7
176
     1
 90
        6
176
     1
 90
        0
176
     1
 90
        0
176
     1
290
     0
176
     1
 90
        1
176
     1
 40
0.0
176
     1
 90
        0
176
     1
290
     0
176
     1
290
     1
176
     1
290
     1
176
     1
290
     0
176
     1
290
     0
176
     1
290
     0
176
     1
290
     0
176
     1
290
     0
176
     1
290
     0
176
     1
 90
       50
176
     1
 40
0.0
176
     1
 40
1.0
176
     1
 90
        0
176
     1
 62
    18
420
        0
176
     1
 90
       50
176
     1
 90
        3
176
     1
 62
     5
420
      255
176
     1
290
     0
176
     1
 90
       50
176
     1
 90
       50
176
     1
 90
       50
176
     1
290
     0
176
     1
 90
       50
176
     1
 62
   256
176
     0
 40
1.0
176
     0
 90
        2
176
     1
  1
strokes_ogs.tif
176
     1
290
     0
176
     1
 40
1.0
176
     1
 40
1.0
176
     1
1001
ACAD
1000
AcDbSavedByObjectVersion
1070
     0
  0
VISUALSTYLE
  5
36
102
{ACAD_REACTORS
330
29
102
}
330
29
100
AcDbVisualStyle
  2
Thicken
 70
    13
177
     3
291
     1
 70
    58
 90
        2
176
     1
 90
        2
176
     1
 90
        0
176
     1
 90
        0
176
     1
 40
0.6
176
     1
 40
30.0
176
     1
 62
     7
420
 16777215
176
     1
 90
        1
176
     1
 90
        4
176
     1
 62
     7
176
     1
 62
   257
176
     1
 90
        1
176
     1
 90
        1
176
     1
 40
1.0
176
     1
 90
       12
176
     1
 62
     7
176
     1
 40
1.0
176
     1
 90
        1
176
     1
 90
        6
176
     1
 90
        2
176
     1
 62
     7
176
     1
 90
        5
176
     1
 90
        0
176
     1
 90
        0
176
     1
290
     0
176
     1
 90
        1
176
     1
 40
0.0
176
     1
 90
        0
176
     1
290
     0
176
     1
290
     1
176
     1
290
     1
176
     1
290
     0
176
     1
290
     0
176
     1
290
     0
176
     1
290
     0
176
     1
290
     0
176
     1
290
     0
176
     1
 90
       50
176
     1
 40
0.0
176
     1
 40
1.0
176
     1
 90
        0
176
     1
 62
    18
420
        0
176
     1
 90
       50
176
     1
 90
        3
176
     1
 62
     5
420
      255
176
     1
290
     0
176
     1
 90
       50
176
     1
 90
       50
176
     1
 90
       50
176
     1
290
     0
176
     1
 90
       50
176
     1
 62
   256
176
     0
 40
1.0
176
     0
 90
        2
176
     1
  1
strokes_ogs.tif
176
     1
290
     0
176
     1
 40
1.0
176
     1
 40
1.0
176
     1
1001
ACAD
1000
AcDbSavedByObjectVersion
1070
     0
  0
VISUALSTYLE
  5
30
102
{ACAD_REACTORS
330
29
102
}
330
29
100
AcDbVisualStyle
  2
Wireframe
 70
     5
177
     3
291
     0
 70
    58
 90
        0
176
     1
 90
        2
176
     1
 90
        0
176
     1
 90
        0
176
     1
 40
0.6
176
     1
 40
30.0
176
     1
 62
     7
420
 16777215
176
     1
 90
        1
176
     1
 90
        4
176
     1
 62
     7
176
     1
 62
   257
176
     1
 90
        1
176
     1
 90
        1
176
     1
 40
1.0
176
     1
 90
        0
176
     1
 62
   257
176
     1
 40
1.0
176
     1
 90
        1
176
     1
 90
        6
176
     1
 90
        2
176
     1
 62
     7
176
     1
 90
        3
176
     1
 90
        0
176
     1
 90
        0
176
     1
290
     0
176
     1
 90
        1
176
     1
 40
0.0
176
     1
 90
        0
176
     1
290
     0
176
     1
290
     1
176
     1
290
     1
176
     1
290
     0
176
     1
290
     0
176
     1
290
     0
176
     1
290
     0
176
     1
290
     0
176
     1
290
     0
176
     1
 90
       50
176
     1
 40
0.0
176
     1
 40
1.0
176
     1
 90
        0
176
     1
 62
    18
420
        0
176
     1
 90
       50
176
     1
 90
        3
176
     1
 62
     5
420
      255
176
     1
290
     0
176
     1
 90
       50
176
     1
 90
       50
176
     1
 90
       50
176
     1
290
     0
176
     1
 90
       50
176
     1
 62
   256
176
     0
 40
1.0
176
     0
 90
        2
176
     1
  1
strokes_ogs.tif
176
     1
290
     0
176
     1
 40
1.0
176
     1
 40
1.0
176
     1
1001
ACAD
1000
AcDbSavedByObjectVersion
1070
     0
  0
VISUALSTYLE
  5
3C
102
{ACAD_REACTORS
330
29
102
}
330
29
100
AcDbVisualStyle
  2
X-Ray
 70
    25
177
     3
291
     0
 70
    58
 90
        2
176
     1
 90
        2
176
     1
 90
        1
176
     1
 90
        1
176
     1
 40
0.5
176
     1
 40
30.0
176
     1
 62
     7
420
 16777215
176
     1
 90
        1
176
     1
 90
        0
176
     1
 62
     7
176
     1
 62
   257
176
     1
 90
        1
176
     1
 90
        1
176
     1
 40
1.0
176
     1
 90
        8
176
     1
 62
     7
176
     1
 40
1.0
176
     1
 90
        1
176
     1
 90
        6
176
     1
 90
        2
176
     1
 62
     7
176
     1
 90
        3
176
     1
 90
        0
176
     1
 90
        0
176
     1
290
     0
176
     1
 90
       13
176
     1
 40
0.0
176
     1
 90
        0
176
     1
290
     0
176
     1
290
     1
176
     1
290
     1
176
     1
290
     0
176
     1
290
     0
176
     1
290
     0
176
     1
290
     0
176
     1
290
     0
176
     1
290
     0
176
     1
 90
       50
176
     1
 40
0.0
176
     1
 40
1.0
176
     1
 90
        0
176
     1
 62
    18
420
        0
176
     1
 90
       50
176
     1
 90
        3
176
     1
 62
     5
420
      255
176
     1
290
     0
176
     1
 90
       50
176
     1
 90
       50
176
     1
 90
       50
176
     1
290
     0
176
     1
 90
       50
176
     1
 62
   256
176
     0
 40
1.0
176
     0
 90
        2
176
     1
  1
strokes_ogs.tif
176
     1
290
     0
176
     1
 40
1.0
176
     1
 40
1.0
176
     1
1001
ACAD
1000
AcDbSavedByObjectVersion
1070
     0
  0
DICTIONARYVAR
  5
93
102
{ACAD_REACTORS
330
8E
102
}
330
8E
100
DictionaryVariables
280
     0
  1
1:1
  0
DICTIONARYVAR
  5
90
102
{ACAD_REACTORS
330
8E
102
}
330
8E
100
DictionaryVariables
280
     0
  1
STANDARD
  0
DICTIONARYVAR
  5
8F
102
{ACAD_REACTORS
330
8E
102
}
330
8E
100
DictionaryVariables
280
     0
  1
STANDARD
  0
DICTIONARYVAR
  5
91
102
{ACAD_REACTORS
330
8E
102
}
330
8E
100
DictionaryVariables
280
     0
  1
Imperial24
  0
DICTIONARYVAR
  5
92
102
{ACAD_REACTORS
330
8E
102
}
330
8E
100
DictionaryVariables
280
     0
  1
Imperial24
  0
DICTIONARY
  5
99
330
6B
100
AcDbDictionary
280
     1
281
     1
  3
ACAD_XREC_ROUNDTRIP
360
9A
  0
DICTIONARY
  5
1A
330
19
100
AcDbDictionary
280
     1
281
     1
  3
BUMPTILE
360
1C
  3
DIFFUSETILE
360
1B
  3
OPACITYTILE
360
1F
  3
REFLECTIONTILE
360
1E
  3
REFRACTIONTILE
360
20
  3
SPECULARTILE
360
1D
  0
DICTIONARY
  5
12
330
11
100
AcDbDictionary
280
     1
281
     1
  3
BUMPTILE
360
14
  3
DIFFUSETILE
360
13
  3
OPACITYTILE
360
17
  3
REFLECTIONTILE
360
16
  3
REFRACTIONTILE
360
18
  3
SPECULARTILE
360
15
  0
DICTIONARY
  5
22
330
21
100
AcDbDictionary
280
     1
281
     1
  3
BUMPTILE
360
24
  3
DIFFUSETILE
360
23
  3
OPACITYTILE
360
27
  3
REFLECTIONTILE
360
26
  3
REFRACTIONTILE
360
28
  3
SPECULARTILE
360
25
  0
DICTIONARY
  5
97
330
69
100
AcDbDictionary
280
     1
281
     1
  3
ACAD_XREC_ROUNDTRIP
360
98
  0
DICTIONARY
  5
94
330
65
100
AcDbDictionary
280
     1
281
     1
  3
ACAD_ROUNDTRIP_2008_TABLESTYLE_CELLSTYLEMAP
360
95
  0
XRECORD
  5
9A
102
{ACAD_REACTORS
330
99
102
}
330
99
100
AcDbXrecord
280
     1
102
DISPLAYNAME
  1
Imperial24
102
FLAGS
 90
        0
  0
XRECORD
  5
1C
102
{ACAD_REACTORS
330
1A
102
}
330
1A
100
AcDbXrecord
280
     1
270
     1
271
     1
  0
XRECORD
  5
1B
102
{ACAD_REACTORS
330
1A
102
}
330
1A
100
AcDbXrecord
280
     1
270
     1
271
     1
  0
XRECORD
  5
1F
102
{ACAD_REACTORS
330
1A
102
}
330
1A
100
AcDbXrecord
280
     1
270
     1
271
     1
  0
XRECORD
  5
1E
102
{ACAD_REACTORS
330
1A
102
}
330
1A
100
AcDbXrecord
280
     1
270
     1
271
     1
  0
XRECORD
  5
20
102
{ACAD_REACTORS
330
1A
102
}
330
1A
100
AcDbXrecord
280
     1
270
     1
271
     1
  0
XRECORD
  5
1D
102
{ACAD_REACTORS
330
1A
102
}
330
1A
100
AcDbXrecord
280
     1
270
     1
271
     1
  0
XRECORD
  5
14
102
{ACAD_REACTORS
330
12
102
}
330
12
100
AcDbXrecord
280
     1
270
     1
271
     1
  0
XRECORD
  5
13
102
{ACAD_REACTORS
330
12
102
}
330
12
100
AcDbXrecord
280
     1
270
     1
271
     1
  0
XRECORD
  5
17
102
{ACAD_REACTORS
330
12
102
}
330
12
100
AcDbXrecord
280
     1
270
     1
271
     1
  0
XRECORD
  5
16
102
{ACAD_REACTORS
330
12
102
}
330
12
100
AcDbXrecord
280
     1
270
     1
271
     1
  0
XRECORD
  5
18
102
{ACAD_REACTORS
330
12
102
}
330
12
100
AcDbXrecord
280
     1
270
     1
271
     1
  0
XRECORD
  5
15
102
{ACAD_REACTORS
330
12
102
}
330
12
100
AcDbXrecord
280
     1
270
     1
271
     1
  0
XRECORD
  5
24
102
{ACAD_REACTORS
330
22
102
}
330
22
100
AcDbXrecord
280
     1
270
     1
271
     1
  0
XRECORD
  5
23
102
{ACAD_REACTORS
330
22
102
}
330
22
100
AcDbXrecord
280
     1
270
     1
271
     1
  0
XRECORD
  5
27
102
{ACAD_REACTORS
330
22
102
}
330
22
100
AcDbXrecord
280
     1
270
     1
271
     1
  0
XRECORD
  5
26
102
{ACAD_REACTORS
330
22
102
}
330
22
100
AcDbXrecord
280
     1
270
     1
271
     1
  0
XRECORD
  5
28
102
{ACAD_REACTORS
330
22
102
}
330
22
100
AcDbXrecord
280
     1
270
     1
271
     1
  0
XRECORD
  5
25
102
{ACAD_REACTORS
330
22
102
}
330
22
100
AcDbXrecord
280
     1
270
     1
271
     1
  0
XRECORD
  5
98
102
{ACAD_REACTORS
330
97
102
}
330
97
100
AcDbXrecord
280
     1
102
DISPLAYNAME
  1
Imperial24
102
FLAGS
 90
        0
  0
CELLSTYLEMAP
  5
95
102
{ACAD_REACTORS
330
94
102
}
330
94
100
AcDbCellStyleMap
 90
        3
300
CELLSTYLE
  1
TABLEFORMAT_BEGIN
 90
        5
170
     1
 91
        0
 92
    32768
 62
   257
 93
        1
300
CONTENTFORMAT
  1
CONTENTFORMAT_BEGIN
 90
        0
 91
        0
 92
      512
 93
        0
300

 40
0.0
140
1.0
 94
        5
 62
     0
340
55
144
0.25
309
CONTENTFORMAT_END
171
     0
 94
        0
309
TABLEFORMAT_END
  1
CELLSTYLE_BEGIN
 90
        1
 91
        1
300
_TITLE
309
CELLSTYLE_END
300
CELLSTYLE
  1
TABLEFORMAT_BEGIN
 90
        5
170
     1
 91
        0
 92
        0
 62
   257
 93
        1
300
CONTENTFORMAT
  1
CONTENTFORMAT_BEGIN
 90
        0
 91
        0
 92
      512
 93
        0
300

 40
0.0
140
1.0
 94
        5
 62
     0
340
55
144
0.18
309
CONTENTFORMAT_END
171
     0
 94
        0
309
TABLEFORMAT_END
  1
CELLSTYLE_BEGIN
 90
        2
 91
        1
300
_HEADER
309
CELLSTYLE_END
300
CELLSTYLE
  1
TABLEFORMAT_BEGIN
 90
        5
170
     1
 91
        0
 92
        0
 62
   257
 93
        1
300
CONTENTFORMAT
  1
CONTENTFORMAT_BEGIN
 90
        0
 91
        0
 92
      512
 93
        0
300

 40
0.0
140
1.0
 94
        2
 62
     0
340
55
144
0.18
309
CONTENTFORMAT_END
171
     0
 94
        0
309
TABLEFORMAT_END
  1
CELLSTYLE_BEGIN
 90
        3
 91
        2
300
_DATA
309
CELLSTYLE_END
  0
ENDSEC
  0
EOF
