G04 #@! TF.FileFunction,Copper,L2,Bot,Signal*
%FSLAX46Y46*%
G04 Gerber Fmt 4.6, Leading zero omitted, Abs format (unit mm)*
G04 Created by KiCad (PCBNEW 4.0.7) date Monday, October 14, 2019 'PMt' 08:24:28 PM*
%MOMM*%
%LPD*%
G01*
G04 APERTURE LIST*
%ADD10C,0.100000*%
%ADD11R,1.700000X1.700000*%
%ADD12C,1.700000*%
%ADD13C,2.540000*%
%ADD14C,13.000000*%
%ADD15C,0.600000*%
%ADD16C,0.508000*%
G04 APERTURE END LIST*
D10*
D11*
X156670000Y-73235000D03*
D12*
X156670000Y-75775000D03*
X154130000Y-73235000D03*
X154130000Y-75775000D03*
X151590000Y-73235000D03*
X151590000Y-75775000D03*
X149050000Y-73235000D03*
X149050000Y-75775000D03*
X146510000Y-73235000D03*
X146510000Y-75775000D03*
X143970000Y-73235000D03*
X143970000Y-75775000D03*
X141430000Y-73235000D03*
X141430000Y-75775000D03*
X138890000Y-73235000D03*
X138890000Y-75775000D03*
D13*
X53199441Y-160852104D02*
X52673521Y-158889342D01*
X76261886Y-154672540D02*
X75735966Y-152709778D01*
D14*
X64516000Y-156718000D03*
D13*
X56725580Y-165918388D02*
X55288740Y-164481548D01*
X73608461Y-149035506D02*
X72171621Y-147598666D01*
X68465718Y-168020725D02*
X66502956Y-168546645D01*
X62286154Y-144958281D02*
X60323392Y-145484201D01*
X62315117Y-168541309D02*
X60352355Y-168015389D01*
X68494680Y-145478864D02*
X66531918Y-144952944D01*
X76153794Y-158897759D02*
X75627874Y-160860521D01*
X53091350Y-152718196D02*
X52565430Y-154680958D01*
X73529333Y-164484628D02*
X72092493Y-165921468D01*
X56646451Y-147601747D02*
X55209611Y-149038587D01*
X52691441Y-113354104D02*
X52165521Y-111391342D01*
X75753886Y-107174540D02*
X75227966Y-105211778D01*
D14*
X64008000Y-109220000D03*
D13*
X56217580Y-118420388D02*
X54780740Y-116983548D01*
X73100461Y-101537506D02*
X71663621Y-100100666D01*
X67957718Y-120522725D02*
X65994956Y-121048645D01*
X61778154Y-97460281D02*
X59815392Y-97986201D01*
X61807117Y-121043309D02*
X59844355Y-120517389D01*
X67986680Y-97980864D02*
X66023918Y-97454944D01*
X75645794Y-111399759D02*
X75119874Y-113362521D01*
X52583350Y-105220196D02*
X52057430Y-107182958D01*
X73021333Y-116986628D02*
X71584493Y-118423468D01*
X56138451Y-100103747D02*
X54701611Y-101540587D01*
X95363441Y-136722104D02*
X94837521Y-134759342D01*
X118425886Y-130542540D02*
X117899966Y-128579778D01*
D14*
X106680000Y-132588000D03*
D13*
X98889580Y-141788388D02*
X97452740Y-140351548D01*
X115772461Y-124905506D02*
X114335621Y-123468666D01*
X110629718Y-143890725D02*
X108666956Y-144416645D01*
X104450154Y-120828281D02*
X102487392Y-121354201D01*
X104479117Y-144411309D02*
X102516355Y-143885389D01*
X110658680Y-121348864D02*
X108695918Y-120822944D01*
X118317794Y-134767759D02*
X117791874Y-136730521D01*
X95255350Y-128588196D02*
X94729430Y-130550958D01*
X115693333Y-140354628D02*
X114256493Y-141791468D01*
X98810451Y-123471747D02*
X97373611Y-124908587D01*
X94855441Y-89478104D02*
X94329521Y-87515342D01*
X117917886Y-83298540D02*
X117391966Y-81335778D01*
D14*
X106172000Y-85344000D03*
D13*
X98381580Y-94544388D02*
X96944740Y-93107548D01*
X115264461Y-77661506D02*
X113827621Y-76224666D01*
X110121718Y-96646725D02*
X108158956Y-97172645D01*
X103942154Y-73584281D02*
X101979392Y-74110201D01*
X103971117Y-97167309D02*
X102008355Y-96641389D01*
X110150680Y-74104864D02*
X108187918Y-73578944D01*
X117809794Y-87523759D02*
X117283874Y-89486521D01*
X94747350Y-81344196D02*
X94221430Y-83306958D01*
X115185333Y-93110628D02*
X113748493Y-94547468D01*
X98302451Y-76227747D02*
X96865611Y-77664587D01*
X137019441Y-161106104D02*
X136493521Y-159143342D01*
X160081886Y-154926540D02*
X159555966Y-152963778D01*
D14*
X148336000Y-156972000D03*
D13*
X140545580Y-166172388D02*
X139108740Y-164735548D01*
X157428461Y-149289506D02*
X155991621Y-147852666D01*
X152285718Y-168274725D02*
X150322956Y-168800645D01*
X146106154Y-145212281D02*
X144143392Y-145738201D01*
X146135117Y-168795309D02*
X144172355Y-168269389D01*
X152314680Y-145732864D02*
X150351918Y-145206944D01*
X159973794Y-159151759D02*
X159447874Y-161114521D01*
X136911350Y-152972196D02*
X136385430Y-154934958D01*
X157349333Y-164738628D02*
X155912493Y-166175468D01*
X140466451Y-147855747D02*
X139029611Y-149292587D01*
X137019441Y-113354104D02*
X136493521Y-111391342D01*
X160081886Y-107174540D02*
X159555966Y-105211778D01*
D14*
X148336000Y-109220000D03*
D13*
X140545580Y-118420388D02*
X139108740Y-116983548D01*
X157428461Y-101537506D02*
X155991621Y-100100666D01*
X152285718Y-120522725D02*
X150322956Y-121048645D01*
X146106154Y-97460281D02*
X144143392Y-97986201D01*
X146135117Y-121043309D02*
X144172355Y-120517389D01*
X152314680Y-97980864D02*
X150351918Y-97454944D01*
X159973794Y-111399759D02*
X159447874Y-113362521D01*
X136911350Y-105220196D02*
X136385430Y-107182958D01*
X157349333Y-116986628D02*
X155912493Y-118423468D01*
X140466451Y-100103747D02*
X139029611Y-101540587D01*
X178675441Y-137230104D02*
X178149521Y-135267342D01*
X201737886Y-131050540D02*
X201211966Y-129087778D01*
D14*
X189992000Y-133096000D03*
D13*
X182201580Y-142296388D02*
X180764740Y-140859548D01*
X199084461Y-125413506D02*
X197647621Y-123976666D01*
X193941718Y-144398725D02*
X191978956Y-144924645D01*
X187762154Y-121336281D02*
X185799392Y-121862201D01*
X187791117Y-144919309D02*
X185828355Y-144393389D01*
X193970680Y-121856864D02*
X192007918Y-121330944D01*
X201629794Y-135275759D02*
X201103874Y-137238521D01*
X178567350Y-129096196D02*
X178041430Y-131058958D01*
X199005333Y-140862628D02*
X197568493Y-142299468D01*
X182122451Y-123979747D02*
X180685611Y-125416587D01*
X178675441Y-88462104D02*
X178149521Y-86499342D01*
X201737886Y-82282540D02*
X201211966Y-80319778D01*
D14*
X189992000Y-84328000D03*
D13*
X182201580Y-93528388D02*
X180764740Y-92091548D01*
X199084461Y-76645506D02*
X197647621Y-75208666D01*
X193941718Y-95630725D02*
X191978956Y-96156645D01*
X187762154Y-72568281D02*
X185799392Y-73094201D01*
X187791117Y-96151309D02*
X185828355Y-95625389D01*
X193970680Y-73088864D02*
X192007918Y-72562944D01*
X201629794Y-86507759D02*
X201103874Y-88470521D01*
X178567350Y-80328196D02*
X178041430Y-82290958D01*
X199005333Y-92094628D02*
X197568493Y-93531468D01*
X182122451Y-75211747D02*
X180685611Y-76648587D01*
D15*
X83375000Y-159550000D03*
X82425000Y-61025000D03*
X156625000Y-60825000D03*
X124425000Y-157200000D03*
X125350000Y-133450000D03*
X169125000Y-133350000D03*
X168800000Y-75925000D03*
X80650000Y-112450000D03*
X80975000Y-63175000D03*
X155200000Y-62250000D03*
X125900000Y-103525000D03*
X126200000Y-92700000D03*
X154225000Y-92700000D03*
X84925000Y-136525000D03*
X85050000Y-65425000D03*
X151450000Y-64600000D03*
X115425000Y-102075000D03*
X127950000Y-101975000D03*
X128075000Y-90975000D03*
X151590000Y-90960000D03*
X87225000Y-88475000D03*
X87450000Y-66500000D03*
X149075000Y-66200000D03*
X149025000Y-82075000D03*
X122650000Y-159950000D03*
X122650000Y-68075000D03*
X146500000Y-67650000D03*
X167325000Y-145350000D03*
X167775000Y-89550000D03*
X146550000Y-89050000D03*
X124325000Y-112150000D03*
X124325000Y-69550000D03*
X143975000Y-69150000D03*
X171500000Y-135625000D03*
X167675000Y-69575000D03*
X141400000Y-70475000D03*
X175225000Y-98625000D03*
X164725000Y-98150000D03*
X164600000Y-84500000D03*
X141425000Y-84500000D03*
X126050000Y-85625000D03*
X125750000Y-70825000D03*
X138850000Y-70825000D03*
X138925000Y-79700000D03*
D16*
X83375000Y-61975000D02*
X83375000Y-159550000D01*
X82425000Y-61025000D02*
X83375000Y-61975000D01*
X156670000Y-73235000D02*
X156670000Y-60870000D01*
X156670000Y-60870000D02*
X156625000Y-60825000D01*
X125350000Y-133450000D02*
X124425000Y-134375000D01*
X124425000Y-134375000D02*
X124425000Y-157200000D01*
X168800000Y-75925000D02*
X169125000Y-76250000D01*
X169125000Y-76250000D02*
X169125000Y-133350000D01*
X80900000Y-63674264D02*
X80900000Y-112200000D01*
X80900000Y-112200000D02*
X80650000Y-112450000D01*
X80975000Y-63175000D02*
X80975000Y-63599264D01*
X80975000Y-63599264D02*
X80900000Y-63674264D01*
X154130000Y-73235000D02*
X154130000Y-63320000D01*
X154130000Y-63320000D02*
X155200000Y-62250000D01*
X126200000Y-92700000D02*
X126200000Y-103225000D01*
X126200000Y-103225000D02*
X125900000Y-103525000D01*
X154130000Y-75775000D02*
X154130000Y-92605000D01*
X154130000Y-92605000D02*
X154225000Y-92700000D01*
X85050000Y-65425000D02*
X85050000Y-136400000D01*
X85050000Y-136400000D02*
X84925000Y-136525000D01*
X151590000Y-73235000D02*
X151590000Y-64740000D01*
X151590000Y-64740000D02*
X151450000Y-64600000D01*
X98092031Y-124190167D02*
X99060766Y-125158902D01*
X99060766Y-125158902D02*
X99060766Y-125501201D01*
X99060766Y-125501201D02*
X96504859Y-128057108D01*
X96504859Y-128057108D02*
X94992390Y-129569577D01*
X103468773Y-121091241D02*
X103468773Y-122506041D01*
X103468773Y-122506041D02*
X101784647Y-124190167D01*
X101784647Y-124190167D02*
X99956559Y-124190167D01*
X99956559Y-124190167D02*
X98092031Y-124190167D01*
X109677299Y-121085904D02*
X103474110Y-121085904D01*
X103474110Y-121085904D02*
X103468773Y-121091241D01*
X115054041Y-124187086D02*
X112778481Y-124187086D01*
X112778481Y-124187086D02*
X109677299Y-121085904D01*
X115054041Y-124187086D02*
X115054041Y-126452274D01*
X115054041Y-126452274D02*
X118162926Y-129561159D01*
X115425000Y-102075000D02*
X115054041Y-102445959D01*
X115054041Y-102445959D02*
X115054041Y-124187086D01*
X128075000Y-90975000D02*
X128075000Y-101850000D01*
X128075000Y-101850000D02*
X127950000Y-101975000D01*
X151590000Y-75775000D02*
X151590000Y-90960000D01*
X87450000Y-66500000D02*
X87450000Y-88250000D01*
X87450000Y-88250000D02*
X87225000Y-88475000D01*
X149050000Y-73235000D02*
X149050000Y-66225000D01*
X149050000Y-66225000D02*
X149075000Y-66200000D01*
X149050000Y-75775000D02*
X149050000Y-82050000D01*
X149050000Y-82050000D02*
X149025000Y-82075000D01*
X122650000Y-68075000D02*
X122650000Y-159950000D01*
X146510000Y-73235000D02*
X146510000Y-67660000D01*
X146510000Y-67660000D02*
X146500000Y-67650000D01*
X167325000Y-107000000D02*
X167325000Y-145350000D01*
X166750000Y-90575000D02*
X166750000Y-106425000D01*
X166750000Y-106425000D02*
X167325000Y-107000000D01*
X167775000Y-89550000D02*
X166750000Y-90575000D01*
X146510000Y-75775000D02*
X146510000Y-89010000D01*
X146510000Y-89010000D02*
X146550000Y-89050000D01*
X124325000Y-69550000D02*
X124325000Y-112150000D01*
X143970000Y-73235000D02*
X143970000Y-69155000D01*
X143970000Y-69155000D02*
X143975000Y-69150000D01*
X156710041Y-100819086D02*
X156710041Y-103084274D01*
X156710041Y-103084274D02*
X159818926Y-106193159D01*
X151333299Y-97717904D02*
X154434481Y-100819086D01*
X154434481Y-100819086D02*
X156710041Y-100819086D01*
X145124773Y-97723241D02*
X151327962Y-97723241D01*
X151327962Y-97723241D02*
X151333299Y-97717904D01*
X139748031Y-100822167D02*
X139748031Y-103101936D01*
X139748031Y-103101936D02*
X136648390Y-106201577D01*
X145124773Y-97723241D02*
X142025847Y-100822167D01*
X142025847Y-100822167D02*
X139748031Y-100822167D01*
X143970000Y-75775000D02*
X143970000Y-96568468D01*
X143970000Y-96568468D02*
X145124773Y-97723241D01*
X171300000Y-73200000D02*
X171300000Y-135425000D01*
X171300000Y-135425000D02*
X171500000Y-135625000D01*
X167675000Y-69575000D02*
X171300000Y-73200000D01*
X141430000Y-73235000D02*
X141430000Y-70505000D01*
X141430000Y-70505000D02*
X141400000Y-70475000D01*
X198366041Y-124695086D02*
X198366041Y-126960274D01*
X198366041Y-126960274D02*
X201474926Y-130069159D01*
X192989299Y-121593904D02*
X196090481Y-124695086D01*
X196090481Y-124695086D02*
X198366041Y-124695086D01*
X186780773Y-121599241D02*
X192983962Y-121599241D01*
X192983962Y-121599241D02*
X192989299Y-121593904D01*
X181404031Y-124698167D02*
X183681847Y-124698167D01*
X183681847Y-124698167D02*
X186780773Y-121599241D01*
X178304390Y-130077577D02*
X181404031Y-126977936D01*
X181404031Y-126977936D02*
X181404031Y-124698167D01*
X175225000Y-98625000D02*
X175225000Y-126998187D01*
X175225000Y-126998187D02*
X178304390Y-130077577D01*
X164600000Y-84500000D02*
X164600000Y-98025000D01*
X164600000Y-98025000D02*
X164725000Y-98150000D01*
X141430000Y-75775000D02*
X141430000Y-84495000D01*
X141430000Y-84495000D02*
X141425000Y-84500000D01*
X125750000Y-70825000D02*
X125750000Y-85325000D01*
X125750000Y-85325000D02*
X126050000Y-85625000D01*
X138890000Y-73235000D02*
X138890000Y-70865000D01*
X138890000Y-70865000D02*
X138850000Y-70825000D01*
X138890000Y-75775000D02*
X138890000Y-79665000D01*
X138890000Y-79665000D02*
X138925000Y-79700000D01*
M02*
