M48
; DRILL file {KiCad (5.1.2-1)-1} date Thursday, November 07, 2019 at 03:24:43 PM
; FORMAT={-:-/ absolute / inch / decimal}
; #@! TF.CreationDate,2019-11-07T15:24:43-05:00
; #@! TF.GenerationSoftware,Kicad,Pcbnew,(5.1.2-1)-1
; #@! TF.FileFunction,Plated,1,4,PTH
FMAT,2
INCH
T1C0.0157
T2C0.0307
T3C0.0315
T4C0.0320
T5C0.0374
T6C0.0394
T7C0.0400
T8C0.1201
T9C0.1319
%
G90
G05
T1
X4.6Y-1.09
X4.6Y-1.53
X4.6Y-1.74
X4.79Y-1.09
X4.79Y-1.53
X4.79Y-1.74
X4.98Y-1.09
X4.98Y-1.53
X4.98Y-1.74
X5.17Y-1.09
X5.17Y-1.53
X5.17Y-1.74
X5.3Y-2.33
X5.3Y-2.57
X5.36Y-1.09
X5.36Y-1.53
X5.36Y-1.74
X5.37Y-1.97
X5.46Y-2.29
X5.55Y-1.53
X5.55Y-1.74
X5.56Y-1.09
X5.75Y-1.09
X5.75Y-1.53
X5.75Y-1.74
X5.94Y-1.09
X5.94Y-1.53
X5.94Y-1.74
X6.13Y-1.09
X6.13Y-1.53
X6.13Y-1.74
X6.32Y-1.53
X6.32Y-1.74
X6.32Y-2.79
X6.33Y-1.09
X6.51Y-1.09
X6.51Y-1.53
X6.51Y-1.74
X6.62Y-2.37
X6.71Y-1.09
X6.71Y-1.53
X6.71Y-1.74
X6.9Y-1.09
X6.9Y-1.53
X6.9Y-1.74
X6.95Y-2.16
X7.09Y-1.09
X7.09Y-1.53
X7.09Y-1.74
X7.26Y-2.07
X7.28Y-1.09
X7.28Y-1.53
X7.28Y-1.74
X7.47Y-1.09
X7.47Y-1.53
X7.47Y-1.74
X8.21Y-1.15
X8.21Y-1.25
X8.21Y-1.45
X8.21Y-1.55
X8.21Y-1.75
X8.21Y-1.85
X8.21Y-2.05
X8.21Y-2.15
X8.21Y-2.35
X8.21Y-2.45
X8.21Y-2.65
X8.21Y-2.75
X8.21Y-2.95
X8.21Y-3.05
X8.21Y-3.25
X8.21Y-3.35
T2
X8.28Y-4.376
X8.28Y-4.476
X8.28Y-4.576
X8.38Y-4.3252
X8.38Y-4.4252
X8.38Y-4.5252
X8.28Y-5.036
X8.28Y-5.136
X8.28Y-5.236
X8.38Y-4.9852
X8.38Y-5.0852
X8.38Y-5.1852
T3
X5.22Y-3.2716
X5.22Y-3.37
T4
X5.52Y-2.47
X5.52Y-2.57
X5.52Y-2.67
X5.52Y-2.77
X5.52Y-2.87
X5.52Y-2.97
X5.52Y-3.07
X5.52Y-3.17
X5.52Y-3.27
X5.52Y-3.37
X5.52Y-3.47
X5.52Y-3.57
X5.52Y-3.67
X5.52Y-3.77
X5.52Y-3.87
X5.52Y-3.97
X5.52Y-4.07
X5.52Y-4.17
X5.52Y-4.27
X5.52Y-4.37
X5.52Y-4.47
X5.52Y-4.57
X5.52Y-4.67
X5.52Y-4.77
X5.52Y-4.87
X6.62Y-2.47
X6.62Y-2.57
X6.62Y-2.67
X6.62Y-2.77
X6.62Y-2.87
X6.62Y-2.97
X6.62Y-3.07
X6.62Y-3.17
X6.62Y-3.27
X6.62Y-3.37
X6.62Y-3.47
X6.62Y-3.57
X6.62Y-3.67
X6.62Y-3.77
X6.62Y-3.87
X6.62Y-3.97
X6.62Y-4.07
X6.62Y-4.17
X6.62Y-4.27
X6.62Y-4.37
X6.62Y-4.47
X6.62Y-4.57
X6.62Y-4.67
X6.62Y-4.77
X6.62Y-4.87
X4.42Y-2.47
X4.42Y-2.57
X4.42Y-2.67
X4.42Y-2.77
X4.42Y-2.87
X4.42Y-2.97
X4.42Y-3.07
X4.42Y-3.17
X4.42Y-3.27
X4.42Y-3.37
X4.42Y-3.47
X4.42Y-3.57
X5.02Y-2.47
X5.02Y-2.57
X5.02Y-2.67
X5.02Y-2.77
X5.02Y-2.87
X5.02Y-2.97
X5.02Y-3.07
X5.02Y-3.17
X5.02Y-3.27
X5.02Y-3.37
X5.02Y-3.47
X5.02Y-3.57
X6.95Y-2.47
X6.95Y-2.57
X6.95Y-2.67
X6.95Y-2.77
X6.95Y-2.87
X6.95Y-2.97
X6.95Y-3.07
X6.95Y-3.17
X6.95Y-3.27
X6.95Y-3.37
X6.95Y-3.47
X6.95Y-3.57
X6.95Y-3.67
X6.95Y-3.77
X6.95Y-3.87
X6.95Y-3.97
X6.95Y-4.07
X6.95Y-4.17
X6.95Y-4.27
X6.95Y-4.37
X6.95Y-4.47
X6.95Y-4.57
X6.95Y-4.67
X6.95Y-4.77
X6.95Y-4.87
X8.05Y-2.47
X8.05Y-2.57
X8.05Y-2.67
X8.05Y-2.77
X8.05Y-2.87
X8.05Y-2.97
X8.05Y-3.07
X8.05Y-3.17
X8.05Y-3.27
X8.05Y-3.37
X8.05Y-3.47
X8.05Y-3.57
X8.05Y-3.67
X8.05Y-3.77
X8.05Y-3.87
X8.05Y-3.97
X8.05Y-4.07
X8.05Y-4.17
X8.05Y-4.27
X8.05Y-4.37
X8.05Y-4.47
X8.05Y-4.57
X8.05Y-4.67
X8.05Y-4.77
X8.05Y-4.87
T5
X8.53Y-1.75
X8.6284Y-1.75
X8.7269Y-1.75
X8.8253Y-1.75
X8.53Y-2.65
X8.6284Y-2.65
X8.7269Y-2.65
X8.8253Y-2.65
X8.53Y-2.95
X8.6284Y-2.95
X8.7269Y-2.95
X8.8253Y-2.95
X8.53Y-1.45
X8.6284Y-1.45
X8.7269Y-1.45
X8.8253Y-1.45
X8.53Y-1.15
X8.6284Y-1.15
X8.7269Y-1.15
X8.8253Y-1.15
X8.53Y-2.05
X8.6284Y-2.05
X8.7269Y-2.05
X8.8253Y-2.05
X8.53Y-2.35
X8.6284Y-2.35
X8.7269Y-2.35
X8.8253Y-2.35
X8.53Y-3.25
X8.6284Y-3.25
X8.7269Y-3.25
X8.8253Y-3.25
T6
X7.985Y-1.5339
X7.985Y-1.6339
T7
X4.42Y-3.91
X4.42Y-4.01
X4.42Y-4.11
X4.42Y-4.21
X4.42Y-4.31
X4.42Y-4.41
X4.42Y-4.51
X4.42Y-4.61
X4.42Y-4.71
X5.02Y-3.91
X5.02Y-4.01
X5.02Y-4.11
X5.02Y-4.21
X5.02Y-4.31
X5.02Y-4.41
X5.02Y-4.51
X5.02Y-4.61
X5.02Y-4.71
T8
X8.4119Y-3.85
X8.53Y-3.665
X8.6481Y-3.85
T9
X8.63Y-4.25
X8.63Y-4.65
X8.63Y-4.91
X8.63Y-5.31
T0
M30
