M48
;DRILL file {KiCad 4.0.7} date Wednesday, April 29, 2020 'PMt' 03:16:25 PM
;FORMAT={3:3/ absolute / metric / suppress leading zeros}
FMAT,2
METRIC,TZ
T1C0.400
T2C1.000
T3C1.600
T4C12.700
%
G90
G05
M71
T1
X81160Y-63450
X81160Y-115100
X83010Y-162060
X83260Y-60800
X115960Y-102910
X121760Y-157330
X123430Y-91570
X123660Y-63790
X125110Y-93710
X125780Y-65220
X126950Y-157370
X128900Y-66950
X129000Y-109480
X131100Y-73320
X131270Y-91590
X131440Y-85910
X131490Y-106710
X134120Y-98780
X134260Y-90320
X138920Y-78790
X141500Y-69700
X141550Y-81160
X144050Y-67710
X146510Y-88150
X146550Y-65930
X148820Y-83880
X149050Y-64550
X151360Y-90240
X151550Y-63120
X153970Y-91820
X154200Y-61690
X156740Y-92330
X156810Y-60110
X164810Y-132940
X165480Y-63120
X166980Y-90350
X167410Y-156380
X167680Y-69770
X170690Y-132130
X172670Y-82150
T2
X138890Y-73235
X138890Y-75775
X141430Y-73235
X141430Y-75775
X143970Y-73235
X143970Y-75775
X146510Y-73235
X146510Y-75775
X149050Y-73235
X149050Y-75775
X151590Y-73235
X151590Y-75775
X154130Y-73235
X154130Y-75775
X156670Y-73235
X156670Y-75775
T4
X64026Y-109249
X64534Y-156747
X106190Y-85373
X106698Y-132617
X148354Y-109249
X148354Y-157001
X190010Y-84357
X190010Y-133125
T3
X52025Y-110248G85X52025Y-108348
G05
X52533Y-157746G85X52533Y-155846
G05
X53993Y-102486G85X53043Y-104131
G05
X54087Y-116063G85X53137Y-114417
G05
X54501Y-149984G85X53551Y-151629
G05
X54595Y-163561G85X53645Y-161915
G05
X58727Y-98440G85X57081Y-99390
G05
X58783Y-120067G85X57137Y-119117
G05
X59235Y-145938G85X57589Y-146888
G05
X59291Y-167565G85X57645Y-166615
G05
X64850Y-97313G85X62950Y-97313
G05
X64850Y-121189G85X62950Y-121189
G05
X65358Y-144811G85X63458Y-144811
G05
X65358Y-168687G85X63458Y-168687
G05
X70665Y-119117G85X69019Y-120067
G05
X70721Y-99390G85X69075Y-98440
G05
X71173Y-166615G85X69527Y-167565
G05
X71229Y-146888G85X69583Y-145938
G05
X74670Y-114424G85X73720Y-116069
G05
X74764Y-104125G85X73814Y-102479
G05
X75178Y-161922G85X74228Y-163567
G05
X75272Y-151623G85X74322Y-149977
G05
X75901Y-110248G85X75901Y-108348
G05
X76409Y-157746G85X76409Y-155846
G05
X94189Y-86372G85X94189Y-84472
G05
X94697Y-133616G85X94697Y-131716
G05
X96157Y-78610G85X95207Y-80255
G05
X96251Y-92187G85X95301Y-90541
G05
X96665Y-125854G85X95715Y-127499
G05
X96759Y-139431G85X95809Y-137785
G05
X100891Y-74564G85X99245Y-75514
G05
X100947Y-96191G85X99301Y-95241
G05
X101399Y-121808G85X99753Y-122758
G05
X101455Y-143435G85X99809Y-142485
G05
X107014Y-73437G85X105114Y-73437
G05
X107014Y-97313G85X105114Y-97313
G05
X107522Y-120681G85X105622Y-120681
G05
X107522Y-144557G85X105622Y-144557
G05
X112829Y-95241G85X111183Y-96191
G05
X112885Y-75514G85X111239Y-74564
G05
X113337Y-142485G85X111691Y-143435
G05
X113393Y-122758G85X111747Y-121808
G05
X116834Y-90548G85X115884Y-92193
G05
X116928Y-80249G85X115978Y-78603
G05
X117342Y-137792G85X116392Y-139437
G05
X117436Y-127493G85X116486Y-125847
G05
X118065Y-86372G85X118065Y-84472
G05
X118573Y-133616G85X118573Y-131716
G05
X136353Y-110248G85X136353Y-108348
G05
X136353Y-158000G85X136353Y-156100
G05
X138321Y-102486G85X137371Y-104131
G05
X138321Y-150238G85X137371Y-151883
G05
X138415Y-116063G85X137465Y-114417
G05
X138415Y-163815G85X137465Y-162169
G05
X143055Y-98440G85X141409Y-99390
G05
X143055Y-146192G85X141409Y-147142
G05
X143111Y-120067G85X141465Y-119117
G05
X143111Y-167819G85X141465Y-166869
G05
X149178Y-97313G85X147278Y-97313
G05
X149178Y-145065G85X147278Y-145065
G05
X149178Y-121189G85X147278Y-121189
G05
X149178Y-168941G85X147278Y-168941
G05
X154993Y-119117G85X153347Y-120067
G05
X154993Y-166869G85X153347Y-167819
G05
X155049Y-99390G85X153403Y-98440
G05
X155049Y-147142G85X153403Y-146192
G05
X158998Y-114424G85X158048Y-116069
G05
X158998Y-162176G85X158048Y-163821
G05
X159092Y-104125G85X158142Y-102479
G05
X159092Y-151877G85X158142Y-150231
G05
X160229Y-110248G85X160229Y-108348
G05
X160229Y-158000G85X160229Y-156100
G05
X178009Y-85356G85X178009Y-83456
G05
X178009Y-134124G85X178009Y-132224
G05
X179977Y-77594G85X179027Y-79239
G05
X179977Y-126362G85X179027Y-128007
G05
X180071Y-91171G85X179121Y-89525
G05
X180071Y-139939G85X179121Y-138293
G05
X184711Y-73548G85X183065Y-74498
G05
X184711Y-122316G85X183065Y-123266
G05
X184767Y-95175G85X183121Y-94225
G05
X184767Y-143943G85X183121Y-142993
G05
X190834Y-72421G85X188934Y-72421
G05
X190834Y-121189G85X188934Y-121189
G05
X190834Y-96297G85X188934Y-96297
G05
X190834Y-145065G85X188934Y-145065
G05
X196649Y-94225G85X195003Y-95175
G05
X196649Y-142993G85X195003Y-143943
G05
X196705Y-74498G85X195059Y-73548
G05
X196705Y-123266G85X195059Y-122316
G05
X200654Y-89532G85X199704Y-91177
G05
X200654Y-138300G85X199704Y-139945
G05
X200748Y-79233G85X199798Y-77587
G05
X200748Y-128001G85X199798Y-126355
G05
X201885Y-85356G85X201885Y-83456
G05
X201885Y-134124G85X201885Y-132224
G05
T0
M30
