G04 #@! TF.FileFunction,Drawing*
%FSLAX46Y46*%
G04 Gerber Fmt 4.6, Leading zero omitted, Abs format (unit mm)*
G04 Created by KiCad (PCBNEW 4.0.6-e0-6349~53~ubuntu16.04.1) date Tue Feb 27 12:18:18 2018*
%MOMM*%
%LPD*%
G01*
G04 APERTURE LIST*
%ADD10C,0.100000*%
%ADD11C,0.203200*%
%ADD12C,0.300000*%
%ADD13C,0.150000*%
G04 APERTURE END LIST*
D10*
D11*
X221996000Y-83642200D02*
X222250000Y-83726867D01*
X222334667Y-83811533D01*
X222419333Y-83980867D01*
X222419333Y-84234867D01*
X222334667Y-84404200D01*
X222250000Y-84488867D01*
X222080667Y-84573533D01*
X221403333Y-84573533D01*
X221403333Y-82795533D01*
X221996000Y-82795533D01*
X222165333Y-82880200D01*
X222250000Y-82964867D01*
X222334667Y-83134200D01*
X222334667Y-83303533D01*
X222250000Y-83472867D01*
X222165333Y-83557533D01*
X221996000Y-83642200D01*
X221403333Y-83642200D01*
X223520000Y-82795533D02*
X223858667Y-82795533D01*
X224028000Y-82880200D01*
X224197333Y-83049533D01*
X224282000Y-83388200D01*
X224282000Y-83980867D01*
X224197333Y-84319533D01*
X224028000Y-84488867D01*
X223858667Y-84573533D01*
X223520000Y-84573533D01*
X223350667Y-84488867D01*
X223181333Y-84319533D01*
X223096667Y-83980867D01*
X223096667Y-83388200D01*
X223181333Y-83049533D01*
X223350667Y-82880200D01*
X223520000Y-82795533D01*
X224959334Y-84488867D02*
X225213334Y-84573533D01*
X225636667Y-84573533D01*
X225806000Y-84488867D01*
X225890667Y-84404200D01*
X225975334Y-84234867D01*
X225975334Y-84065533D01*
X225890667Y-83896200D01*
X225806000Y-83811533D01*
X225636667Y-83726867D01*
X225298000Y-83642200D01*
X225128667Y-83557533D01*
X225044000Y-83472867D01*
X224959334Y-83303533D01*
X224959334Y-83134200D01*
X225044000Y-82964867D01*
X225128667Y-82880200D01*
X225298000Y-82795533D01*
X225721334Y-82795533D01*
X225975334Y-82880200D01*
X226483333Y-82795533D02*
X227499333Y-82795533D01*
X226991333Y-84573533D02*
X226991333Y-82795533D01*
X228430667Y-82795533D02*
X228769334Y-82795533D01*
X228938667Y-82880200D01*
X229108000Y-83049533D01*
X229192667Y-83388200D01*
X229192667Y-83980867D01*
X229108000Y-84319533D01*
X228938667Y-84488867D01*
X228769334Y-84573533D01*
X228430667Y-84573533D01*
X228261334Y-84488867D01*
X228092000Y-84319533D01*
X228007334Y-83980867D01*
X228007334Y-83388200D01*
X228092000Y-83049533D01*
X228261334Y-82880200D01*
X228430667Y-82795533D01*
X229954667Y-84573533D02*
X229954667Y-82795533D01*
X230970667Y-84573533D01*
X230970667Y-82795533D01*
X233172001Y-82795533D02*
X233172001Y-84234867D01*
X233256668Y-84404200D01*
X233341335Y-84488867D01*
X233510668Y-84573533D01*
X233849335Y-84573533D01*
X234018668Y-84488867D01*
X234103335Y-84404200D01*
X234188001Y-84234867D01*
X234188001Y-82795533D01*
X235034668Y-84573533D02*
X235034668Y-82795533D01*
X236050668Y-84573533D01*
X236050668Y-82795533D01*
X236897335Y-84573533D02*
X236897335Y-82795533D01*
X237490002Y-82795533D02*
X238082669Y-84573533D01*
X238675336Y-82795533D01*
X239268002Y-83642200D02*
X239860669Y-83642200D01*
X240114669Y-84573533D02*
X239268002Y-84573533D01*
X239268002Y-82795533D01*
X240114669Y-82795533D01*
X241892669Y-84573533D02*
X241300003Y-83726867D01*
X240876669Y-84573533D02*
X240876669Y-82795533D01*
X241554003Y-82795533D01*
X241723336Y-82880200D01*
X241808003Y-82964867D01*
X241892669Y-83134200D01*
X241892669Y-83388200D01*
X241808003Y-83557533D01*
X241723336Y-83642200D01*
X241554003Y-83726867D01*
X240876669Y-83726867D01*
X242570003Y-84488867D02*
X242824003Y-84573533D01*
X243247336Y-84573533D01*
X243416669Y-84488867D01*
X243501336Y-84404200D01*
X243586003Y-84234867D01*
X243586003Y-84065533D01*
X243501336Y-83896200D01*
X243416669Y-83811533D01*
X243247336Y-83726867D01*
X242908669Y-83642200D01*
X242739336Y-83557533D01*
X242654669Y-83472867D01*
X242570003Y-83303533D01*
X242570003Y-83134200D01*
X242654669Y-82964867D01*
X242739336Y-82880200D01*
X242908669Y-82795533D01*
X243332003Y-82795533D01*
X243586003Y-82880200D01*
X244348002Y-84573533D02*
X244348002Y-82795533D01*
X244940669Y-82795533D02*
X245956669Y-82795533D01*
X245448669Y-84573533D02*
X245448669Y-82795533D01*
X246888003Y-83726867D02*
X246888003Y-84573533D01*
X246295336Y-82795533D02*
X246888003Y-83726867D01*
X247480670Y-82795533D01*
X249428003Y-83642200D02*
X250020670Y-83642200D01*
X250274670Y-84573533D02*
X249428003Y-84573533D01*
X249428003Y-82795533D01*
X250274670Y-82795533D01*
X251036670Y-84573533D02*
X251036670Y-82795533D01*
X251460004Y-82795533D01*
X251714004Y-82880200D01*
X251883337Y-83049533D01*
X251968004Y-83218867D01*
X252052670Y-83557533D01*
X252052670Y-83811533D01*
X251968004Y-84150200D01*
X251883337Y-84319533D01*
X251714004Y-84488867D01*
X251460004Y-84573533D01*
X251036670Y-84573533D01*
X253407337Y-83642200D02*
X252814670Y-83642200D01*
X252814670Y-84573533D02*
X252814670Y-82795533D01*
X253661337Y-82795533D01*
X222080667Y-87359067D02*
X221911333Y-87443733D01*
X221572667Y-87443733D01*
X221403333Y-87359067D01*
X221318667Y-87189733D01*
X221318667Y-86512400D01*
X221403333Y-86343067D01*
X221572667Y-86258400D01*
X221911333Y-86258400D01*
X222080667Y-86343067D01*
X222165333Y-86512400D01*
X222165333Y-86681733D01*
X221318667Y-86851067D01*
X222673333Y-85665733D02*
X223266000Y-87443733D01*
X223858667Y-85665733D01*
X224790000Y-85665733D02*
X225128667Y-85665733D01*
X225298000Y-85750400D01*
X225467333Y-85919733D01*
X225552000Y-86258400D01*
X225552000Y-86851067D01*
X225467333Y-87189733D01*
X225298000Y-87359067D01*
X225128667Y-87443733D01*
X224790000Y-87443733D01*
X224620667Y-87359067D01*
X224451333Y-87189733D01*
X224366667Y-86851067D01*
X224366667Y-86258400D01*
X224451333Y-85919733D01*
X224620667Y-85750400D01*
X224790000Y-85665733D01*
X227160667Y-87443733D02*
X226314000Y-87443733D01*
X226314000Y-85665733D01*
X227499333Y-85665733D02*
X228092000Y-87443733D01*
X228684667Y-85665733D01*
X229277333Y-86512400D02*
X229870000Y-86512400D01*
X230124000Y-87443733D02*
X229277333Y-87443733D01*
X229277333Y-85665733D01*
X230124000Y-85665733D01*
X231902000Y-87443733D02*
X231309334Y-86597067D01*
X230886000Y-87443733D02*
X230886000Y-85665733D01*
X231563334Y-85665733D01*
X231732667Y-85750400D01*
X231817334Y-85835067D01*
X231902000Y-86004400D01*
X231902000Y-86258400D01*
X231817334Y-86427733D01*
X231732667Y-86512400D01*
X231563334Y-86597067D01*
X230886000Y-86597067D01*
X233934001Y-87359067D02*
X234188001Y-87443733D01*
X234611334Y-87443733D01*
X234780667Y-87359067D01*
X234865334Y-87274400D01*
X234950001Y-87105067D01*
X234950001Y-86935733D01*
X234865334Y-86766400D01*
X234780667Y-86681733D01*
X234611334Y-86597067D01*
X234272667Y-86512400D01*
X234103334Y-86427733D01*
X234018667Y-86343067D01*
X233934001Y-86173733D01*
X233934001Y-86004400D01*
X234018667Y-85835067D01*
X234103334Y-85750400D01*
X234272667Y-85665733D01*
X234696001Y-85665733D01*
X234950001Y-85750400D01*
X235542667Y-86258400D02*
X235966000Y-87443733D01*
X236389334Y-86258400D02*
X235966000Y-87443733D01*
X235796667Y-87867067D01*
X235712000Y-87951733D01*
X235542667Y-88036400D01*
X236982001Y-87359067D02*
X237151334Y-87443733D01*
X237490001Y-87443733D01*
X237659334Y-87359067D01*
X237744001Y-87189733D01*
X237744001Y-87105067D01*
X237659334Y-86935733D01*
X237490001Y-86851067D01*
X237236001Y-86851067D01*
X237066667Y-86766400D01*
X236982001Y-86597067D01*
X236982001Y-86512400D01*
X237066667Y-86343067D01*
X237236001Y-86258400D01*
X237490001Y-86258400D01*
X237659334Y-86343067D01*
X238252000Y-86258400D02*
X238929334Y-86258400D01*
X238506000Y-85665733D02*
X238506000Y-87189733D01*
X238590667Y-87359067D01*
X238760000Y-87443733D01*
X238929334Y-87443733D01*
X240199334Y-87359067D02*
X240030000Y-87443733D01*
X239691334Y-87443733D01*
X239522000Y-87359067D01*
X239437334Y-87189733D01*
X239437334Y-86512400D01*
X239522000Y-86343067D01*
X239691334Y-86258400D01*
X240030000Y-86258400D01*
X240199334Y-86343067D01*
X240284000Y-86512400D01*
X240284000Y-86681733D01*
X239437334Y-86851067D01*
X241046000Y-87443733D02*
X241046000Y-86258400D01*
X241046000Y-86427733D02*
X241130667Y-86343067D01*
X241300000Y-86258400D01*
X241554000Y-86258400D01*
X241723334Y-86343067D01*
X241808000Y-86512400D01*
X241808000Y-87443733D01*
X241808000Y-86512400D02*
X241892667Y-86343067D01*
X242062000Y-86258400D01*
X242316000Y-86258400D01*
X242485334Y-86343067D01*
X242570000Y-86512400D01*
X242570000Y-87443733D01*
X221403333Y-93184133D02*
X221403333Y-91406133D01*
X222080667Y-91406133D01*
X222250000Y-91490800D01*
X222334667Y-91575467D01*
X222419333Y-91744800D01*
X222419333Y-91998800D01*
X222334667Y-92168133D01*
X222250000Y-92252800D01*
X222080667Y-92337467D01*
X221403333Y-92337467D01*
X224451333Y-91321467D02*
X222927333Y-93607467D01*
X225044000Y-93184133D02*
X225044000Y-91406133D01*
X226060000Y-93184133D01*
X226060000Y-91406133D01*
X228261334Y-92252800D02*
X228854001Y-92252800D01*
X229108001Y-93184133D02*
X228261334Y-93184133D01*
X228261334Y-91406133D01*
X229108001Y-91406133D01*
X229616001Y-91406133D02*
X230208668Y-93184133D01*
X230801335Y-91406133D01*
X231394001Y-92506800D02*
X232748668Y-92506800D01*
X234357334Y-91998800D02*
X234357334Y-93184133D01*
X233934001Y-91321467D02*
X233510668Y-92591467D01*
X234611334Y-92591467D01*
X235542667Y-92168133D02*
X235373334Y-92083467D01*
X235288667Y-91998800D01*
X235204001Y-91829467D01*
X235204001Y-91744800D01*
X235288667Y-91575467D01*
X235373334Y-91490800D01*
X235542667Y-91406133D01*
X235881334Y-91406133D01*
X236050667Y-91490800D01*
X236135334Y-91575467D01*
X236220001Y-91744800D01*
X236220001Y-91829467D01*
X236135334Y-91998800D01*
X236050667Y-92083467D01*
X235881334Y-92168133D01*
X235542667Y-92168133D01*
X235373334Y-92252800D01*
X235288667Y-92337467D01*
X235204001Y-92506800D01*
X235204001Y-92845467D01*
X235288667Y-93014800D01*
X235373334Y-93099467D01*
X235542667Y-93184133D01*
X235881334Y-93184133D01*
X236050667Y-93099467D01*
X236135334Y-93014800D01*
X236220001Y-92845467D01*
X236220001Y-92506800D01*
X236135334Y-92337467D01*
X236050667Y-92252800D01*
X235881334Y-92168133D01*
X237828667Y-91406133D02*
X236982000Y-91406133D01*
X236897334Y-92252800D01*
X236982000Y-92168133D01*
X237151334Y-92083467D01*
X237574667Y-92083467D01*
X237744000Y-92168133D01*
X237828667Y-92252800D01*
X237913334Y-92422133D01*
X237913334Y-92845467D01*
X237828667Y-93014800D01*
X237744000Y-93099467D01*
X237574667Y-93184133D01*
X237151334Y-93184133D01*
X236982000Y-93099467D01*
X236897334Y-93014800D01*
X241046000Y-93184133D02*
X240453334Y-92337467D01*
X240030000Y-93184133D02*
X240030000Y-91406133D01*
X240707334Y-91406133D01*
X240876667Y-91490800D01*
X240961334Y-91575467D01*
X241046000Y-91744800D01*
X241046000Y-91998800D01*
X240961334Y-92168133D01*
X240876667Y-92252800D01*
X240707334Y-92337467D01*
X240030000Y-92337467D01*
X242485334Y-93099467D02*
X242316000Y-93184133D01*
X241977334Y-93184133D01*
X241808000Y-93099467D01*
X241723334Y-92930133D01*
X241723334Y-92252800D01*
X241808000Y-92083467D01*
X241977334Y-91998800D01*
X242316000Y-91998800D01*
X242485334Y-92083467D01*
X242570000Y-92252800D01*
X242570000Y-92422133D01*
X241723334Y-92591467D01*
X243162667Y-91998800D02*
X243586000Y-93184133D01*
X244009334Y-91998800D01*
X247057334Y-93014800D02*
X246972668Y-93099467D01*
X246718668Y-93184133D01*
X246549334Y-93184133D01*
X246295334Y-93099467D01*
X246126001Y-92930133D01*
X246041334Y-92760800D01*
X245956668Y-92422133D01*
X245956668Y-92168133D01*
X246041334Y-91829467D01*
X246126001Y-91660133D01*
X246295334Y-91490800D01*
X246549334Y-91406133D01*
X246718668Y-91406133D01*
X246972668Y-91490800D01*
X247057334Y-91575467D01*
X222165333Y-94869000D02*
X222165333Y-96054333D01*
X221742000Y-94191667D02*
X221318667Y-95461667D01*
X222419333Y-95461667D01*
X225298000Y-96054333D02*
X224451333Y-96054333D01*
X224451333Y-94276333D01*
X226652666Y-96054333D02*
X226652666Y-95123000D01*
X226568000Y-94953667D01*
X226398666Y-94869000D01*
X226060000Y-94869000D01*
X225890666Y-94953667D01*
X226652666Y-95969667D02*
X226483333Y-96054333D01*
X226060000Y-96054333D01*
X225890666Y-95969667D01*
X225806000Y-95800333D01*
X225806000Y-95631000D01*
X225890666Y-95461667D01*
X226060000Y-95377000D01*
X226483333Y-95377000D01*
X226652666Y-95292333D01*
X227330000Y-94869000D02*
X227753333Y-96054333D01*
X228176667Y-94869000D02*
X227753333Y-96054333D01*
X227584000Y-96477667D01*
X227499333Y-96562333D01*
X227330000Y-96647000D01*
X229531334Y-95969667D02*
X229362000Y-96054333D01*
X229023334Y-96054333D01*
X228854000Y-95969667D01*
X228769334Y-95800333D01*
X228769334Y-95123000D01*
X228854000Y-94953667D01*
X229023334Y-94869000D01*
X229362000Y-94869000D01*
X229531334Y-94953667D01*
X229616000Y-95123000D01*
X229616000Y-95292333D01*
X228769334Y-95461667D01*
X230378000Y-96054333D02*
X230378000Y-94869000D01*
X230378000Y-95207667D02*
X230462667Y-95038333D01*
X230547334Y-94953667D01*
X230716667Y-94869000D01*
X230886000Y-94869000D01*
X233426001Y-95123000D02*
X232833334Y-95123000D01*
X232833334Y-96054333D02*
X232833334Y-94276333D01*
X233680001Y-94276333D01*
X235373334Y-96054333D02*
X234780668Y-95207667D01*
X234357334Y-96054333D02*
X234357334Y-94276333D01*
X235034668Y-94276333D01*
X235204001Y-94361000D01*
X235288668Y-94445667D01*
X235373334Y-94615000D01*
X235373334Y-94869000D01*
X235288668Y-95038333D01*
X235204001Y-95123000D01*
X235034668Y-95207667D01*
X234357334Y-95207667D01*
X236135334Y-95377000D02*
X237490001Y-95377000D01*
X239098667Y-94869000D02*
X239098667Y-96054333D01*
X238675334Y-94191667D02*
X238252001Y-95461667D01*
X239352667Y-95461667D01*
X222334667Y-98924533D02*
X221318667Y-98924533D01*
X221826667Y-98924533D02*
X221826667Y-97146533D01*
X221657333Y-97400533D01*
X221488000Y-97569867D01*
X221318667Y-97654533D01*
X224705333Y-98924533D02*
X224536000Y-98839867D01*
X224451333Y-98755200D01*
X224366667Y-98585867D01*
X224366667Y-98077867D01*
X224451333Y-97908533D01*
X224536000Y-97823867D01*
X224705333Y-97739200D01*
X224959333Y-97739200D01*
X225128667Y-97823867D01*
X225213333Y-97908533D01*
X225298000Y-98077867D01*
X225298000Y-98585867D01*
X225213333Y-98755200D01*
X225128667Y-98839867D01*
X224959333Y-98924533D01*
X224705333Y-98924533D01*
X225890667Y-97739200D02*
X226822000Y-97739200D01*
X225890667Y-98924533D01*
X226822000Y-98924533D01*
X229616000Y-98839867D02*
X229446667Y-98924533D01*
X229108000Y-98924533D01*
X228938667Y-98839867D01*
X228854000Y-98755200D01*
X228769334Y-98585867D01*
X228769334Y-98077867D01*
X228854000Y-97908533D01*
X228938667Y-97823867D01*
X229108000Y-97739200D01*
X229446667Y-97739200D01*
X229616000Y-97823867D01*
X230632000Y-98924533D02*
X230462667Y-98839867D01*
X230378000Y-98755200D01*
X230293334Y-98585867D01*
X230293334Y-98077867D01*
X230378000Y-97908533D01*
X230462667Y-97823867D01*
X230632000Y-97739200D01*
X230886000Y-97739200D01*
X231055334Y-97823867D01*
X231140000Y-97908533D01*
X231224667Y-98077867D01*
X231224667Y-98585867D01*
X231140000Y-98755200D01*
X231055334Y-98839867D01*
X230886000Y-98924533D01*
X230632000Y-98924533D01*
X231986667Y-97739200D02*
X231986667Y-99517200D01*
X231986667Y-97823867D02*
X232156001Y-97739200D01*
X232494667Y-97739200D01*
X232664001Y-97823867D01*
X232748667Y-97908533D01*
X232833334Y-98077867D01*
X232833334Y-98585867D01*
X232748667Y-98755200D01*
X232664001Y-98839867D01*
X232494667Y-98924533D01*
X232156001Y-98924533D01*
X231986667Y-98839867D01*
X233595334Y-97739200D02*
X233595334Y-99517200D01*
X233595334Y-97823867D02*
X233764668Y-97739200D01*
X234103334Y-97739200D01*
X234272668Y-97823867D01*
X234357334Y-97908533D01*
X234442001Y-98077867D01*
X234442001Y-98585867D01*
X234357334Y-98755200D01*
X234272668Y-98839867D01*
X234103334Y-98924533D01*
X233764668Y-98924533D01*
X233595334Y-98839867D01*
X235881335Y-98839867D02*
X235712001Y-98924533D01*
X235373335Y-98924533D01*
X235204001Y-98839867D01*
X235119335Y-98670533D01*
X235119335Y-97993200D01*
X235204001Y-97823867D01*
X235373335Y-97739200D01*
X235712001Y-97739200D01*
X235881335Y-97823867D01*
X235966001Y-97993200D01*
X235966001Y-98162533D01*
X235119335Y-98331867D01*
X236728001Y-98924533D02*
X236728001Y-97739200D01*
X236728001Y-98077867D02*
X236812668Y-97908533D01*
X236897335Y-97823867D01*
X237066668Y-97739200D01*
X237236001Y-97739200D01*
X221996000Y-100863400D02*
X221403333Y-100863400D01*
X221403333Y-101794733D02*
X221403333Y-100016733D01*
X222250000Y-100016733D01*
X222927333Y-101794733D02*
X222927333Y-100609400D01*
X222927333Y-100016733D02*
X222842667Y-100101400D01*
X222927333Y-100186067D01*
X223012000Y-100101400D01*
X222927333Y-100016733D01*
X222927333Y-100186067D01*
X223774000Y-100609400D02*
X223774000Y-101794733D01*
X223774000Y-100778733D02*
X223858667Y-100694067D01*
X224028000Y-100609400D01*
X224282000Y-100609400D01*
X224451334Y-100694067D01*
X224536000Y-100863400D01*
X224536000Y-101794733D01*
X226144667Y-101794733D02*
X226144667Y-100863400D01*
X226060001Y-100694067D01*
X225890667Y-100609400D01*
X225552001Y-100609400D01*
X225382667Y-100694067D01*
X226144667Y-101710067D02*
X225975334Y-101794733D01*
X225552001Y-101794733D01*
X225382667Y-101710067D01*
X225298001Y-101540733D01*
X225298001Y-101371400D01*
X225382667Y-101202067D01*
X225552001Y-101117400D01*
X225975334Y-101117400D01*
X226144667Y-101032733D01*
X227245334Y-101794733D02*
X227076001Y-101710067D01*
X226991334Y-101540733D01*
X226991334Y-100016733D01*
X229023334Y-100609400D02*
X229700668Y-100609400D01*
X229277334Y-100016733D02*
X229277334Y-101540733D01*
X229362001Y-101710067D01*
X229531334Y-101794733D01*
X229700668Y-101794733D01*
X230293334Y-101794733D02*
X230293334Y-100016733D01*
X231055334Y-101794733D02*
X231055334Y-100863400D01*
X230970668Y-100694067D01*
X230801334Y-100609400D01*
X230547334Y-100609400D01*
X230378001Y-100694067D01*
X230293334Y-100778733D01*
X231902001Y-101794733D02*
X231902001Y-100609400D01*
X231902001Y-100016733D02*
X231817335Y-100101400D01*
X231902001Y-100186067D01*
X231986668Y-100101400D01*
X231902001Y-100016733D01*
X231902001Y-100186067D01*
X233510668Y-101710067D02*
X233341335Y-101794733D01*
X233002668Y-101794733D01*
X232833335Y-101710067D01*
X232748668Y-101625400D01*
X232664002Y-101456067D01*
X232664002Y-100948067D01*
X232748668Y-100778733D01*
X232833335Y-100694067D01*
X233002668Y-100609400D01*
X233341335Y-100609400D01*
X233510668Y-100694067D01*
X234272668Y-101794733D02*
X234272668Y-100016733D01*
X234442002Y-101117400D02*
X234950002Y-101794733D01*
X234950002Y-100609400D02*
X234272668Y-101286733D01*
X235712001Y-100609400D02*
X235712001Y-101794733D01*
X235712001Y-100778733D02*
X235796668Y-100694067D01*
X235966001Y-100609400D01*
X236220001Y-100609400D01*
X236389335Y-100694067D01*
X236474001Y-100863400D01*
X236474001Y-101794733D01*
X237998002Y-101710067D02*
X237828668Y-101794733D01*
X237490002Y-101794733D01*
X237320668Y-101710067D01*
X237236002Y-101540733D01*
X237236002Y-100863400D01*
X237320668Y-100694067D01*
X237490002Y-100609400D01*
X237828668Y-100609400D01*
X237998002Y-100694067D01*
X238082668Y-100863400D01*
X238082668Y-101032733D01*
X237236002Y-101202067D01*
X238760002Y-101710067D02*
X238929335Y-101794733D01*
X239268002Y-101794733D01*
X239437335Y-101710067D01*
X239522002Y-101540733D01*
X239522002Y-101456067D01*
X239437335Y-101286733D01*
X239268002Y-101202067D01*
X239014002Y-101202067D01*
X238844668Y-101117400D01*
X238760002Y-100948067D01*
X238760002Y-100863400D01*
X238844668Y-100694067D01*
X239014002Y-100609400D01*
X239268002Y-100609400D01*
X239437335Y-100694067D01*
X240199335Y-101710067D02*
X240368668Y-101794733D01*
X240707335Y-101794733D01*
X240876668Y-101710067D01*
X240961335Y-101540733D01*
X240961335Y-101456067D01*
X240876668Y-101286733D01*
X240707335Y-101202067D01*
X240453335Y-101202067D01*
X240284001Y-101117400D01*
X240199335Y-100948067D01*
X240199335Y-100863400D01*
X240284001Y-100694067D01*
X240453335Y-100609400D01*
X240707335Y-100609400D01*
X240876668Y-100694067D01*
X243416668Y-100016733D02*
X243586001Y-100016733D01*
X243755335Y-100101400D01*
X243840001Y-100186067D01*
X243924668Y-100355400D01*
X244009335Y-100694067D01*
X244009335Y-101117400D01*
X243924668Y-101456067D01*
X243840001Y-101625400D01*
X243755335Y-101710067D01*
X243586001Y-101794733D01*
X243416668Y-101794733D01*
X243247335Y-101710067D01*
X243162668Y-101625400D01*
X243078001Y-101456067D01*
X242993335Y-101117400D01*
X242993335Y-100694067D01*
X243078001Y-100355400D01*
X243162668Y-100186067D01*
X243247335Y-100101400D01*
X243416668Y-100016733D01*
X244771334Y-101625400D02*
X244856001Y-101710067D01*
X244771334Y-101794733D01*
X244686668Y-101710067D01*
X244771334Y-101625400D01*
X244771334Y-101794733D01*
X245956668Y-100016733D02*
X246126001Y-100016733D01*
X246295335Y-100101400D01*
X246380001Y-100186067D01*
X246464668Y-100355400D01*
X246549335Y-100694067D01*
X246549335Y-101117400D01*
X246464668Y-101456067D01*
X246380001Y-101625400D01*
X246295335Y-101710067D01*
X246126001Y-101794733D01*
X245956668Y-101794733D01*
X245787335Y-101710067D01*
X245702668Y-101625400D01*
X245618001Y-101456067D01*
X245533335Y-101117400D01*
X245533335Y-100694067D01*
X245618001Y-100355400D01*
X245702668Y-100186067D01*
X245787335Y-100101400D01*
X245956668Y-100016733D01*
X248073334Y-100016733D02*
X247734668Y-100016733D01*
X247565334Y-100101400D01*
X247480668Y-100186067D01*
X247311334Y-100440067D01*
X247226668Y-100778733D01*
X247226668Y-101456067D01*
X247311334Y-101625400D01*
X247396001Y-101710067D01*
X247565334Y-101794733D01*
X247904001Y-101794733D01*
X248073334Y-101710067D01*
X248158001Y-101625400D01*
X248242668Y-101456067D01*
X248242668Y-101032733D01*
X248158001Y-100863400D01*
X248073334Y-100778733D01*
X247904001Y-100694067D01*
X247565334Y-100694067D01*
X247396001Y-100778733D01*
X247311334Y-100863400D01*
X247226668Y-101032733D01*
X248835334Y-100016733D02*
X249936001Y-100016733D01*
X249343334Y-100694067D01*
X249597334Y-100694067D01*
X249766667Y-100778733D01*
X249851334Y-100863400D01*
X249936001Y-101032733D01*
X249936001Y-101456067D01*
X249851334Y-101625400D01*
X249766667Y-101710067D01*
X249597334Y-101794733D01*
X249089334Y-101794733D01*
X248920001Y-101710067D01*
X248835334Y-101625400D01*
X221318667Y-104580267D02*
X221572667Y-104664933D01*
X221996000Y-104664933D01*
X222165333Y-104580267D01*
X222250000Y-104495600D01*
X222334667Y-104326267D01*
X222334667Y-104156933D01*
X222250000Y-103987600D01*
X222165333Y-103902933D01*
X221996000Y-103818267D01*
X221657333Y-103733600D01*
X221488000Y-103648933D01*
X221403333Y-103564267D01*
X221318667Y-103394933D01*
X221318667Y-103225600D01*
X221403333Y-103056267D01*
X221488000Y-102971600D01*
X221657333Y-102886933D01*
X222080667Y-102886933D01*
X222334667Y-102971600D01*
X223350666Y-104664933D02*
X223181333Y-104580267D01*
X223096666Y-104495600D01*
X223012000Y-104326267D01*
X223012000Y-103818267D01*
X223096666Y-103648933D01*
X223181333Y-103564267D01*
X223350666Y-103479600D01*
X223604666Y-103479600D01*
X223774000Y-103564267D01*
X223858666Y-103648933D01*
X223943333Y-103818267D01*
X223943333Y-104326267D01*
X223858666Y-104495600D01*
X223774000Y-104580267D01*
X223604666Y-104664933D01*
X223350666Y-104664933D01*
X224959333Y-104664933D02*
X224790000Y-104580267D01*
X224705333Y-104410933D01*
X224705333Y-102886933D01*
X226398666Y-104664933D02*
X226398666Y-102886933D01*
X226398666Y-104580267D02*
X226229333Y-104664933D01*
X225890666Y-104664933D01*
X225721333Y-104580267D01*
X225636666Y-104495600D01*
X225552000Y-104326267D01*
X225552000Y-103818267D01*
X225636666Y-103648933D01*
X225721333Y-103564267D01*
X225890666Y-103479600D01*
X226229333Y-103479600D01*
X226398666Y-103564267D01*
X227922667Y-104580267D02*
X227753333Y-104664933D01*
X227414667Y-104664933D01*
X227245333Y-104580267D01*
X227160667Y-104410933D01*
X227160667Y-103733600D01*
X227245333Y-103564267D01*
X227414667Y-103479600D01*
X227753333Y-103479600D01*
X227922667Y-103564267D01*
X228007333Y-103733600D01*
X228007333Y-103902933D01*
X227160667Y-104072267D01*
X228769333Y-104664933D02*
X228769333Y-103479600D01*
X228769333Y-103818267D02*
X228854000Y-103648933D01*
X228938667Y-103564267D01*
X229108000Y-103479600D01*
X229277333Y-103479600D01*
X231224667Y-104664933D02*
X231224667Y-103479600D01*
X231224667Y-103648933D02*
X231309334Y-103564267D01*
X231478667Y-103479600D01*
X231732667Y-103479600D01*
X231902001Y-103564267D01*
X231986667Y-103733600D01*
X231986667Y-104664933D01*
X231986667Y-103733600D02*
X232071334Y-103564267D01*
X232240667Y-103479600D01*
X232494667Y-103479600D01*
X232664001Y-103564267D01*
X232748667Y-103733600D01*
X232748667Y-104664933D01*
X234357334Y-104664933D02*
X234357334Y-103733600D01*
X234272668Y-103564267D01*
X234103334Y-103479600D01*
X233764668Y-103479600D01*
X233595334Y-103564267D01*
X234357334Y-104580267D02*
X234188001Y-104664933D01*
X233764668Y-104664933D01*
X233595334Y-104580267D01*
X233510668Y-104410933D01*
X233510668Y-104241600D01*
X233595334Y-104072267D01*
X233764668Y-103987600D01*
X234188001Y-103987600D01*
X234357334Y-103902933D01*
X235119335Y-104580267D02*
X235288668Y-104664933D01*
X235627335Y-104664933D01*
X235796668Y-104580267D01*
X235881335Y-104410933D01*
X235881335Y-104326267D01*
X235796668Y-104156933D01*
X235627335Y-104072267D01*
X235373335Y-104072267D01*
X235204001Y-103987600D01*
X235119335Y-103818267D01*
X235119335Y-103733600D01*
X235204001Y-103564267D01*
X235373335Y-103479600D01*
X235627335Y-103479600D01*
X235796668Y-103564267D01*
X236643334Y-104664933D02*
X236643334Y-102886933D01*
X236812668Y-103987600D02*
X237320668Y-104664933D01*
X237320668Y-103479600D02*
X236643334Y-104156933D01*
X239437334Y-104664933D02*
X239437334Y-102886933D01*
X239437334Y-103564267D02*
X239606668Y-103479600D01*
X239945334Y-103479600D01*
X240114668Y-103564267D01*
X240199334Y-103648933D01*
X240284001Y-103818267D01*
X240284001Y-104326267D01*
X240199334Y-104495600D01*
X240114668Y-104580267D01*
X239945334Y-104664933D01*
X239606668Y-104664933D01*
X239437334Y-104580267D01*
X241300001Y-104664933D02*
X241130668Y-104580267D01*
X241046001Y-104495600D01*
X240961335Y-104326267D01*
X240961335Y-103818267D01*
X241046001Y-103648933D01*
X241130668Y-103564267D01*
X241300001Y-103479600D01*
X241554001Y-103479600D01*
X241723335Y-103564267D01*
X241808001Y-103648933D01*
X241892668Y-103818267D01*
X241892668Y-104326267D01*
X241808001Y-104495600D01*
X241723335Y-104580267D01*
X241554001Y-104664933D01*
X241300001Y-104664933D01*
X242400668Y-103479600D02*
X243078002Y-103479600D01*
X242654668Y-102886933D02*
X242654668Y-104410933D01*
X242739335Y-104580267D01*
X242908668Y-104664933D01*
X243078002Y-104664933D01*
X243670668Y-104664933D02*
X243670668Y-102886933D01*
X244432668Y-104664933D02*
X244432668Y-103733600D01*
X244348002Y-103564267D01*
X244178668Y-103479600D01*
X243924668Y-103479600D01*
X243755335Y-103564267D01*
X243670668Y-103648933D01*
X246549336Y-104580267D02*
X246718669Y-104664933D01*
X247057336Y-104664933D01*
X247226669Y-104580267D01*
X247311336Y-104410933D01*
X247311336Y-104326267D01*
X247226669Y-104156933D01*
X247057336Y-104072267D01*
X246803336Y-104072267D01*
X246634002Y-103987600D01*
X246549336Y-103818267D01*
X246549336Y-103733600D01*
X246634002Y-103564267D01*
X246803336Y-103479600D01*
X247057336Y-103479600D01*
X247226669Y-103564267D01*
X248073335Y-104664933D02*
X248073335Y-103479600D01*
X248073335Y-102886933D02*
X247988669Y-102971600D01*
X248073335Y-103056267D01*
X248158002Y-102971600D01*
X248073335Y-102886933D01*
X248073335Y-103056267D01*
X249682002Y-104664933D02*
X249682002Y-102886933D01*
X249682002Y-104580267D02*
X249512669Y-104664933D01*
X249174002Y-104664933D01*
X249004669Y-104580267D01*
X248920002Y-104495600D01*
X248835336Y-104326267D01*
X248835336Y-103818267D01*
X248920002Y-103648933D01*
X249004669Y-103564267D01*
X249174002Y-103479600D01*
X249512669Y-103479600D01*
X249682002Y-103564267D01*
X251206003Y-104580267D02*
X251036669Y-104664933D01*
X250698003Y-104664933D01*
X250528669Y-104580267D01*
X250444003Y-104410933D01*
X250444003Y-103733600D01*
X250528669Y-103564267D01*
X250698003Y-103479600D01*
X251036669Y-103479600D01*
X251206003Y-103564267D01*
X251290669Y-103733600D01*
X251290669Y-103902933D01*
X250444003Y-104072267D01*
X251968003Y-104580267D02*
X252137336Y-104664933D01*
X252476003Y-104664933D01*
X252645336Y-104580267D01*
X252730003Y-104410933D01*
X252730003Y-104326267D01*
X252645336Y-104156933D01*
X252476003Y-104072267D01*
X252222003Y-104072267D01*
X252052669Y-103987600D01*
X251968003Y-103818267D01*
X251968003Y-103733600D01*
X252052669Y-103564267D01*
X252222003Y-103479600D01*
X252476003Y-103479600D01*
X252645336Y-103564267D01*
X255354669Y-105342267D02*
X255270003Y-105257600D01*
X255100669Y-105003600D01*
X255016003Y-104834267D01*
X254931336Y-104580267D01*
X254846669Y-104156933D01*
X254846669Y-103818267D01*
X254931336Y-103394933D01*
X255016003Y-103140933D01*
X255100669Y-102971600D01*
X255270003Y-102717600D01*
X255354669Y-102632933D01*
X256794002Y-103479600D02*
X256794002Y-104918933D01*
X256709336Y-105088267D01*
X256624669Y-105172933D01*
X256455336Y-105257600D01*
X256201336Y-105257600D01*
X256032002Y-105172933D01*
X256794002Y-104580267D02*
X256624669Y-104664933D01*
X256286002Y-104664933D01*
X256116669Y-104580267D01*
X256032002Y-104495600D01*
X255947336Y-104326267D01*
X255947336Y-103818267D01*
X256032002Y-103648933D01*
X256116669Y-103564267D01*
X256286002Y-103479600D01*
X256624669Y-103479600D01*
X256794002Y-103564267D01*
X257640669Y-104664933D02*
X257640669Y-103479600D01*
X257640669Y-103818267D02*
X257725336Y-103648933D01*
X257810003Y-103564267D01*
X257979336Y-103479600D01*
X258148669Y-103479600D01*
X259418670Y-104580267D02*
X259249336Y-104664933D01*
X258910670Y-104664933D01*
X258741336Y-104580267D01*
X258656670Y-104410933D01*
X258656670Y-103733600D01*
X258741336Y-103564267D01*
X258910670Y-103479600D01*
X259249336Y-103479600D01*
X259418670Y-103564267D01*
X259503336Y-103733600D01*
X259503336Y-103902933D01*
X258656670Y-104072267D01*
X260942670Y-104580267D02*
X260773336Y-104664933D01*
X260434670Y-104664933D01*
X260265336Y-104580267D01*
X260180670Y-104410933D01*
X260180670Y-103733600D01*
X260265336Y-103564267D01*
X260434670Y-103479600D01*
X260773336Y-103479600D01*
X260942670Y-103564267D01*
X261027336Y-103733600D01*
X261027336Y-103902933D01*
X260180670Y-104072267D01*
X261789336Y-103479600D02*
X261789336Y-104664933D01*
X261789336Y-103648933D02*
X261874003Y-103564267D01*
X262043336Y-103479600D01*
X262297336Y-103479600D01*
X262466670Y-103564267D01*
X262551336Y-103733600D01*
X262551336Y-104664933D01*
X263228670Y-105342267D02*
X263313337Y-105257600D01*
X263482670Y-105003600D01*
X263567337Y-104834267D01*
X263652003Y-104580267D01*
X263736670Y-104156933D01*
X263736670Y-103818267D01*
X263652003Y-103394933D01*
X263567337Y-103140933D01*
X263482670Y-102971600D01*
X263313337Y-102717600D01*
X263228670Y-102632933D01*
X221318667Y-107450467D02*
X221572667Y-107535133D01*
X221996000Y-107535133D01*
X222165333Y-107450467D01*
X222250000Y-107365800D01*
X222334667Y-107196467D01*
X222334667Y-107027133D01*
X222250000Y-106857800D01*
X222165333Y-106773133D01*
X221996000Y-106688467D01*
X221657333Y-106603800D01*
X221488000Y-106519133D01*
X221403333Y-106434467D01*
X221318667Y-106265133D01*
X221318667Y-106095800D01*
X221403333Y-105926467D01*
X221488000Y-105841800D01*
X221657333Y-105757133D01*
X222080667Y-105757133D01*
X222334667Y-105841800D01*
X223096666Y-107535133D02*
X223096666Y-106349800D01*
X223096666Y-105757133D02*
X223012000Y-105841800D01*
X223096666Y-105926467D01*
X223181333Y-105841800D01*
X223096666Y-105757133D01*
X223096666Y-105926467D01*
X224197333Y-107535133D02*
X224028000Y-107450467D01*
X223943333Y-107281133D01*
X223943333Y-105757133D01*
X224874666Y-107535133D02*
X224874666Y-105757133D01*
X225044000Y-106857800D02*
X225552000Y-107535133D01*
X225552000Y-106349800D02*
X224874666Y-107027133D01*
X226229333Y-107450467D02*
X226398666Y-107535133D01*
X226737333Y-107535133D01*
X226906666Y-107450467D01*
X226991333Y-107281133D01*
X226991333Y-107196467D01*
X226906666Y-107027133D01*
X226737333Y-106942467D01*
X226483333Y-106942467D01*
X226313999Y-106857800D01*
X226229333Y-106688467D01*
X226229333Y-106603800D01*
X226313999Y-106434467D01*
X226483333Y-106349800D01*
X226737333Y-106349800D01*
X226906666Y-106434467D01*
X228515332Y-107450467D02*
X228345999Y-107535133D01*
X228007332Y-107535133D01*
X227837999Y-107450467D01*
X227753332Y-107365800D01*
X227668666Y-107196467D01*
X227668666Y-106688467D01*
X227753332Y-106519133D01*
X227837999Y-106434467D01*
X228007332Y-106349800D01*
X228345999Y-106349800D01*
X228515332Y-106434467D01*
X229277332Y-107535133D02*
X229277332Y-106349800D01*
X229277332Y-106688467D02*
X229361999Y-106519133D01*
X229446666Y-106434467D01*
X229615999Y-106349800D01*
X229785332Y-106349800D01*
X231055333Y-107450467D02*
X230885999Y-107535133D01*
X230547333Y-107535133D01*
X230377999Y-107450467D01*
X230293333Y-107281133D01*
X230293333Y-106603800D01*
X230377999Y-106434467D01*
X230547333Y-106349800D01*
X230885999Y-106349800D01*
X231055333Y-106434467D01*
X231139999Y-106603800D01*
X231139999Y-106773133D01*
X230293333Y-106942467D01*
X232579333Y-107450467D02*
X232409999Y-107535133D01*
X232071333Y-107535133D01*
X231901999Y-107450467D01*
X231817333Y-107281133D01*
X231817333Y-106603800D01*
X231901999Y-106434467D01*
X232071333Y-106349800D01*
X232409999Y-106349800D01*
X232579333Y-106434467D01*
X232663999Y-106603800D01*
X232663999Y-106773133D01*
X231817333Y-106942467D01*
X233425999Y-106349800D02*
X233425999Y-107535133D01*
X233425999Y-106519133D02*
X233510666Y-106434467D01*
X233679999Y-106349800D01*
X233933999Y-106349800D01*
X234103333Y-106434467D01*
X234187999Y-106603800D01*
X234187999Y-107535133D01*
X236643333Y-107535133D02*
X236474000Y-107450467D01*
X236389333Y-107281133D01*
X236389333Y-105757133D01*
X237998000Y-107450467D02*
X237828666Y-107535133D01*
X237490000Y-107535133D01*
X237320666Y-107450467D01*
X237236000Y-107281133D01*
X237236000Y-106603800D01*
X237320666Y-106434467D01*
X237490000Y-106349800D01*
X237828666Y-106349800D01*
X237998000Y-106434467D01*
X238082666Y-106603800D01*
X238082666Y-106773133D01*
X237236000Y-106942467D01*
X239606666Y-106349800D02*
X239606666Y-107789133D01*
X239522000Y-107958467D01*
X239437333Y-108043133D01*
X239268000Y-108127800D01*
X239014000Y-108127800D01*
X238844666Y-108043133D01*
X239606666Y-107450467D02*
X239437333Y-107535133D01*
X239098666Y-107535133D01*
X238929333Y-107450467D01*
X238844666Y-107365800D01*
X238760000Y-107196467D01*
X238760000Y-106688467D01*
X238844666Y-106519133D01*
X238929333Y-106434467D01*
X239098666Y-106349800D01*
X239437333Y-106349800D01*
X239606666Y-106434467D01*
X241130667Y-107450467D02*
X240961333Y-107535133D01*
X240622667Y-107535133D01*
X240453333Y-107450467D01*
X240368667Y-107281133D01*
X240368667Y-106603800D01*
X240453333Y-106434467D01*
X240622667Y-106349800D01*
X240961333Y-106349800D01*
X241130667Y-106434467D01*
X241215333Y-106603800D01*
X241215333Y-106773133D01*
X240368667Y-106942467D01*
X241977333Y-106349800D02*
X241977333Y-107535133D01*
X241977333Y-106519133D02*
X242062000Y-106434467D01*
X242231333Y-106349800D01*
X242485333Y-106349800D01*
X242654667Y-106434467D01*
X242739333Y-106603800D01*
X242739333Y-107535133D01*
X244348000Y-107535133D02*
X244348000Y-105757133D01*
X244348000Y-107450467D02*
X244178667Y-107535133D01*
X243840000Y-107535133D01*
X243670667Y-107450467D01*
X243586000Y-107365800D01*
X243501334Y-107196467D01*
X243501334Y-106688467D01*
X243586000Y-106519133D01*
X243670667Y-106434467D01*
X243840000Y-106349800D01*
X244178667Y-106349800D01*
X244348000Y-106434467D01*
X246549334Y-107535133D02*
X246549334Y-105757133D01*
X246549334Y-106434467D02*
X246718668Y-106349800D01*
X247057334Y-106349800D01*
X247226668Y-106434467D01*
X247311334Y-106519133D01*
X247396001Y-106688467D01*
X247396001Y-107196467D01*
X247311334Y-107365800D01*
X247226668Y-107450467D01*
X247057334Y-107535133D01*
X246718668Y-107535133D01*
X246549334Y-107450467D01*
X248412001Y-107535133D02*
X248242668Y-107450467D01*
X248158001Y-107365800D01*
X248073335Y-107196467D01*
X248073335Y-106688467D01*
X248158001Y-106519133D01*
X248242668Y-106434467D01*
X248412001Y-106349800D01*
X248666001Y-106349800D01*
X248835335Y-106434467D01*
X248920001Y-106519133D01*
X249004668Y-106688467D01*
X249004668Y-107196467D01*
X248920001Y-107365800D01*
X248835335Y-107450467D01*
X248666001Y-107535133D01*
X248412001Y-107535133D01*
X249512668Y-106349800D02*
X250190002Y-106349800D01*
X249766668Y-105757133D02*
X249766668Y-107281133D01*
X249851335Y-107450467D01*
X250020668Y-107535133D01*
X250190002Y-107535133D01*
X250782668Y-107535133D02*
X250782668Y-105757133D01*
X251544668Y-107535133D02*
X251544668Y-106603800D01*
X251460002Y-106434467D01*
X251290668Y-106349800D01*
X251036668Y-106349800D01*
X250867335Y-106434467D01*
X250782668Y-106519133D01*
X253661336Y-107450467D02*
X253830669Y-107535133D01*
X254169336Y-107535133D01*
X254338669Y-107450467D01*
X254423336Y-107281133D01*
X254423336Y-107196467D01*
X254338669Y-107027133D01*
X254169336Y-106942467D01*
X253915336Y-106942467D01*
X253746002Y-106857800D01*
X253661336Y-106688467D01*
X253661336Y-106603800D01*
X253746002Y-106434467D01*
X253915336Y-106349800D01*
X254169336Y-106349800D01*
X254338669Y-106434467D01*
X255185335Y-107535133D02*
X255185335Y-106349800D01*
X255185335Y-105757133D02*
X255100669Y-105841800D01*
X255185335Y-105926467D01*
X255270002Y-105841800D01*
X255185335Y-105757133D01*
X255185335Y-105926467D01*
X256794002Y-107535133D02*
X256794002Y-105757133D01*
X256794002Y-107450467D02*
X256624669Y-107535133D01*
X256286002Y-107535133D01*
X256116669Y-107450467D01*
X256032002Y-107365800D01*
X255947336Y-107196467D01*
X255947336Y-106688467D01*
X256032002Y-106519133D01*
X256116669Y-106434467D01*
X256286002Y-106349800D01*
X256624669Y-106349800D01*
X256794002Y-106434467D01*
X258318003Y-107450467D02*
X258148669Y-107535133D01*
X257810003Y-107535133D01*
X257640669Y-107450467D01*
X257556003Y-107281133D01*
X257556003Y-106603800D01*
X257640669Y-106434467D01*
X257810003Y-106349800D01*
X258148669Y-106349800D01*
X258318003Y-106434467D01*
X258402669Y-106603800D01*
X258402669Y-106773133D01*
X257556003Y-106942467D01*
X259080003Y-107450467D02*
X259249336Y-107535133D01*
X259588003Y-107535133D01*
X259757336Y-107450467D01*
X259842003Y-107281133D01*
X259842003Y-107196467D01*
X259757336Y-107027133D01*
X259588003Y-106942467D01*
X259334003Y-106942467D01*
X259164669Y-106857800D01*
X259080003Y-106688467D01*
X259080003Y-106603800D01*
X259164669Y-106434467D01*
X259334003Y-106349800D01*
X259588003Y-106349800D01*
X259757336Y-106434467D01*
X262466669Y-108212467D02*
X262382003Y-108127800D01*
X262212669Y-107873800D01*
X262128003Y-107704467D01*
X262043336Y-107450467D01*
X261958669Y-107027133D01*
X261958669Y-106688467D01*
X262043336Y-106265133D01*
X262128003Y-106011133D01*
X262212669Y-105841800D01*
X262382003Y-105587800D01*
X262466669Y-105503133D01*
X262974669Y-106349800D02*
X263313336Y-107535133D01*
X263652002Y-106688467D01*
X263990669Y-107535133D01*
X264329336Y-106349800D01*
X265006669Y-107535133D02*
X265006669Y-105757133D01*
X265768669Y-107535133D02*
X265768669Y-106603800D01*
X265684003Y-106434467D01*
X265514669Y-106349800D01*
X265260669Y-106349800D01*
X265091336Y-106434467D01*
X265006669Y-106519133D01*
X266615336Y-107535133D02*
X266615336Y-106349800D01*
X266615336Y-105757133D02*
X266530670Y-105841800D01*
X266615336Y-105926467D01*
X266700003Y-105841800D01*
X266615336Y-105757133D01*
X266615336Y-105926467D01*
X267208003Y-106349800D02*
X267885337Y-106349800D01*
X267462003Y-105757133D02*
X267462003Y-107281133D01*
X267546670Y-107450467D01*
X267716003Y-107535133D01*
X267885337Y-107535133D01*
X269155337Y-107450467D02*
X268986003Y-107535133D01*
X268647337Y-107535133D01*
X268478003Y-107450467D01*
X268393337Y-107281133D01*
X268393337Y-106603800D01*
X268478003Y-106434467D01*
X268647337Y-106349800D01*
X268986003Y-106349800D01*
X269155337Y-106434467D01*
X269240003Y-106603800D01*
X269240003Y-106773133D01*
X268393337Y-106942467D01*
X269832670Y-108212467D02*
X269917337Y-108127800D01*
X270086670Y-107873800D01*
X270171337Y-107704467D01*
X270256003Y-107450467D01*
X270340670Y-107027133D01*
X270340670Y-106688467D01*
X270256003Y-106265133D01*
X270171337Y-106011133D01*
X270086670Y-105841800D01*
X269917337Y-105587800D01*
X269832670Y-105503133D01*
D12*
X210451429Y-91627144D02*
X210451429Y-91770001D01*
X210380000Y-91912858D01*
X210308571Y-91984287D01*
X210165714Y-92055716D01*
X209880000Y-92127144D01*
X209522857Y-92127144D01*
X209237143Y-92055716D01*
X209094286Y-91984287D01*
X209022857Y-91912858D01*
X208951429Y-91770001D01*
X208951429Y-91627144D01*
X209022857Y-91484287D01*
X209094286Y-91412858D01*
X209237143Y-91341430D01*
X209522857Y-91270001D01*
X209880000Y-91270001D01*
X210165714Y-91341430D01*
X210308571Y-91412858D01*
X210380000Y-91484287D01*
X210451429Y-91627144D01*
X209094286Y-92770001D02*
X209022857Y-92841429D01*
X208951429Y-92770001D01*
X209022857Y-92698572D01*
X209094286Y-92770001D01*
X208951429Y-92770001D01*
X208951429Y-93555715D02*
X208951429Y-93841430D01*
X209022857Y-93984287D01*
X209094286Y-94055715D01*
X209308571Y-94198573D01*
X209594286Y-94270001D01*
X210165714Y-94270001D01*
X210308571Y-94198573D01*
X210380000Y-94127144D01*
X210451429Y-93984287D01*
X210451429Y-93698573D01*
X210380000Y-93555715D01*
X210308571Y-93484287D01*
X210165714Y-93412858D01*
X209808571Y-93412858D01*
X209665714Y-93484287D01*
X209594286Y-93555715D01*
X209522857Y-93698573D01*
X209522857Y-93984287D01*
X209594286Y-94127144D01*
X209665714Y-94198573D01*
X209808571Y-94270001D01*
X210451429Y-95198572D02*
X210451429Y-95341429D01*
X210380000Y-95484286D01*
X210308571Y-95555715D01*
X210165714Y-95627144D01*
X209880000Y-95698572D01*
X209522857Y-95698572D01*
X209237143Y-95627144D01*
X209094286Y-95555715D01*
X209022857Y-95484286D01*
X208951429Y-95341429D01*
X208951429Y-95198572D01*
X209022857Y-95055715D01*
X209094286Y-94984286D01*
X209237143Y-94912858D01*
X209522857Y-94841429D01*
X209880000Y-94841429D01*
X210165714Y-94912858D01*
X210308571Y-94984286D01*
X210380000Y-95055715D01*
X210451429Y-95198572D01*
X210451429Y-96627143D02*
X210451429Y-96770000D01*
X210380000Y-96912857D01*
X210308571Y-96984286D01*
X210165714Y-97055715D01*
X209880000Y-97127143D01*
X209522857Y-97127143D01*
X209237143Y-97055715D01*
X209094286Y-96984286D01*
X209022857Y-96912857D01*
X208951429Y-96770000D01*
X208951429Y-96627143D01*
X209022857Y-96484286D01*
X209094286Y-96412857D01*
X209237143Y-96341429D01*
X209522857Y-96270000D01*
X209880000Y-96270000D01*
X210165714Y-96341429D01*
X210308571Y-96412857D01*
X210380000Y-96484286D01*
X210451429Y-96627143D01*
X210451429Y-98055714D02*
X210451429Y-98198571D01*
X210380000Y-98341428D01*
X210308571Y-98412857D01*
X210165714Y-98484286D01*
X209880000Y-98555714D01*
X209522857Y-98555714D01*
X209237143Y-98484286D01*
X209094286Y-98412857D01*
X209022857Y-98341428D01*
X208951429Y-98198571D01*
X208951429Y-98055714D01*
X209022857Y-97912857D01*
X209094286Y-97841428D01*
X209237143Y-97770000D01*
X209522857Y-97698571D01*
X209880000Y-97698571D01*
X210165714Y-97770000D01*
X210308571Y-97841428D01*
X210380000Y-97912857D01*
X210451429Y-98055714D01*
X208951429Y-100341428D02*
X209951429Y-100341428D01*
X210451429Y-100341428D02*
X210380000Y-100269999D01*
X210308571Y-100341428D01*
X210380000Y-100412856D01*
X210451429Y-100341428D01*
X210308571Y-100341428D01*
X209951429Y-101055714D02*
X208951429Y-101055714D01*
X209808571Y-101055714D02*
X209880000Y-101127142D01*
X209951429Y-101270000D01*
X209951429Y-101484285D01*
X209880000Y-101627142D01*
X209737143Y-101698571D01*
X208951429Y-101698571D01*
X208280000Y-85090000D02*
X208280000Y-107950000D01*
X204470000Y-85090000D02*
X210980000Y-85090000D01*
X204470000Y-107950000D02*
X210980000Y-107950000D01*
X208280000Y-107950000D02*
X207693579Y-106823496D01*
X208280000Y-107950000D02*
X208866421Y-106823496D01*
X208280000Y-85090000D02*
X207693579Y-86216504D01*
X208280000Y-85090000D02*
X208866421Y-86216504D01*
X182297144Y-80608571D02*
X181440001Y-80608571D01*
X181868573Y-80608571D02*
X181868573Y-79108571D01*
X181725716Y-79322857D01*
X181582858Y-79465714D01*
X181440001Y-79537143D01*
X182940001Y-80465714D02*
X183011429Y-80537143D01*
X182940001Y-80608571D01*
X182868572Y-80537143D01*
X182940001Y-80465714D01*
X182940001Y-80608571D01*
X183511430Y-79108571D02*
X184440001Y-79108571D01*
X183940001Y-79680000D01*
X184154287Y-79680000D01*
X184297144Y-79751429D01*
X184368573Y-79822857D01*
X184440001Y-79965714D01*
X184440001Y-80322857D01*
X184368573Y-80465714D01*
X184297144Y-80537143D01*
X184154287Y-80608571D01*
X183725715Y-80608571D01*
X183582858Y-80537143D01*
X183511430Y-80465714D01*
X185368572Y-79108571D02*
X185511429Y-79108571D01*
X185654286Y-79180000D01*
X185725715Y-79251429D01*
X185797144Y-79394286D01*
X185868572Y-79680000D01*
X185868572Y-80037143D01*
X185797144Y-80322857D01*
X185725715Y-80465714D01*
X185654286Y-80537143D01*
X185511429Y-80608571D01*
X185368572Y-80608571D01*
X185225715Y-80537143D01*
X185154286Y-80465714D01*
X185082858Y-80322857D01*
X185011429Y-80037143D01*
X185011429Y-79680000D01*
X185082858Y-79394286D01*
X185154286Y-79251429D01*
X185225715Y-79180000D01*
X185368572Y-79108571D01*
X186797143Y-79108571D02*
X186940000Y-79108571D01*
X187082857Y-79180000D01*
X187154286Y-79251429D01*
X187225715Y-79394286D01*
X187297143Y-79680000D01*
X187297143Y-80037143D01*
X187225715Y-80322857D01*
X187154286Y-80465714D01*
X187082857Y-80537143D01*
X186940000Y-80608571D01*
X186797143Y-80608571D01*
X186654286Y-80537143D01*
X186582857Y-80465714D01*
X186511429Y-80322857D01*
X186440000Y-80037143D01*
X186440000Y-79680000D01*
X186511429Y-79394286D01*
X186582857Y-79251429D01*
X186654286Y-79180000D01*
X186797143Y-79108571D01*
X188225714Y-79108571D02*
X188368571Y-79108571D01*
X188511428Y-79180000D01*
X188582857Y-79251429D01*
X188654286Y-79394286D01*
X188725714Y-79680000D01*
X188725714Y-80037143D01*
X188654286Y-80322857D01*
X188582857Y-80465714D01*
X188511428Y-80537143D01*
X188368571Y-80608571D01*
X188225714Y-80608571D01*
X188082857Y-80537143D01*
X188011428Y-80465714D01*
X187940000Y-80322857D01*
X187868571Y-80037143D01*
X187868571Y-79680000D01*
X187940000Y-79394286D01*
X188011428Y-79251429D01*
X188082857Y-79180000D01*
X188225714Y-79108571D01*
X190511428Y-80608571D02*
X190511428Y-79608571D01*
X190511428Y-79108571D02*
X190439999Y-79180000D01*
X190511428Y-79251429D01*
X190582856Y-79180000D01*
X190511428Y-79108571D01*
X190511428Y-79251429D01*
X191225714Y-79608571D02*
X191225714Y-80608571D01*
X191225714Y-79751429D02*
X191297142Y-79680000D01*
X191440000Y-79608571D01*
X191654285Y-79608571D01*
X191797142Y-79680000D01*
X191868571Y-79822857D01*
X191868571Y-80608571D01*
X170180000Y-81280000D02*
X203200000Y-81280000D01*
X170180000Y-83820000D02*
X170180000Y-78580000D01*
X203200000Y-83820000D02*
X203200000Y-78580000D01*
X203200000Y-81280000D02*
X202073496Y-81866421D01*
X203200000Y-81280000D02*
X202073496Y-80693579D01*
X170180000Y-81280000D02*
X171306504Y-81866421D01*
X170180000Y-81280000D02*
X171306504Y-80693579D01*
D13*
X170180000Y-107950000D02*
X170180000Y-85090000D01*
X203200000Y-107950000D02*
X170180000Y-107950000D01*
X203200000Y-85090000D02*
X203200000Y-107950000D01*
X170180000Y-85090000D02*
X203200000Y-85090000D01*
M02*
