%FSLAX45Y45*%
G04 Gerber Fmt 4.5, Leading zero omitted, Abs format (unit mm)*
G04 Created by KiCad (PCBNEW 4.0.6-e0-6349~53~ubuntu16.04.1) date Tue Feb 27 12:18:20 2018*
%MOMM*%
%LPD*%
G01*
G04 APERTURE LIST*
%ADD10C,0.127000*%
%ADD11C,0.150000*%
%ADD12C,0.200000*%
%ADD13C,0.300000*%
G04 APERTURE END LIST*
D10*
D11*
X17018000Y-10795000D02*
X17018000Y-8509000D01*
X20320000Y-10795000D02*
X17018000Y-10795000D01*
X20320000Y-8509000D02*
X20320000Y-10795000D01*
X17018000Y-8509000D02*
X20320000Y-8509000D01*
D12*
X17137380Y-9136380D02*
X17152620Y-9151620D01*
X17152620Y-9136380D02*
X17137380Y-9151620D01*
X17137380Y-9364980D02*
X17152620Y-9380220D01*
X17152620Y-9364980D02*
X17137380Y-9380220D01*
X17137380Y-9834880D02*
X17152620Y-9850120D01*
X17152620Y-9834880D02*
X17137380Y-9850120D01*
X17137380Y-10660380D02*
X17152620Y-10675620D01*
X17152620Y-10660380D02*
X17137380Y-10675620D01*
X17232630Y-9866630D02*
X17247870Y-9881870D01*
X17247870Y-9866630D02*
X17232630Y-9881870D01*
X17518380Y-9187180D02*
X17533620Y-9202420D01*
X17533620Y-9187180D02*
X17518380Y-9202420D01*
X17594580Y-9872980D02*
X17609820Y-9888220D01*
X17609820Y-9872980D02*
X17594580Y-9888220D01*
X17645380Y-9187180D02*
X17660620Y-9202420D01*
X17660620Y-9187180D02*
X17645380Y-9202420D01*
X17721580Y-9060180D02*
X17736820Y-9075420D01*
X17736820Y-9060180D02*
X17721580Y-9075420D01*
X17721580Y-9339580D02*
X17736820Y-9354820D01*
X17736820Y-9339580D02*
X17721580Y-9354820D01*
X17772380Y-9999980D02*
X17787620Y-10015220D01*
X17787620Y-9999980D02*
X17772380Y-10015220D01*
X17899380Y-9542780D02*
X17914620Y-9558020D01*
X17914620Y-9542780D02*
X17899380Y-9558020D01*
X17899380Y-9644380D02*
X17914620Y-9659620D01*
X17914620Y-9644380D02*
X17899380Y-9659620D01*
X17899380Y-10228580D02*
X17914620Y-10243820D01*
X17914620Y-10228580D02*
X17899380Y-10243820D01*
X18127980Y-9974580D02*
X18143220Y-9989820D01*
X18143220Y-9974580D02*
X18127980Y-9989820D01*
X18127980Y-10279380D02*
X18143220Y-10294620D01*
X18143220Y-10279380D02*
X18127980Y-10294620D01*
X19042380Y-9339580D02*
X19057620Y-9354820D01*
X19057620Y-9339580D02*
X19042380Y-9354820D01*
X19093180Y-9542780D02*
X19108420Y-9558020D01*
X19108420Y-9542780D02*
X19093180Y-9558020D01*
X19169380Y-9288780D02*
X19184620Y-9304020D01*
X19184620Y-9288780D02*
X19169380Y-9304020D01*
X19194780Y-9999980D02*
X19210020Y-10015220D01*
X19210020Y-9999980D02*
X19194780Y-10015220D01*
X19220180Y-9034780D02*
X19235420Y-9050020D01*
X19235420Y-9034780D02*
X19220180Y-9050020D01*
X19550380Y-9415780D02*
X19565620Y-9431020D01*
X19565620Y-9415780D02*
X19550380Y-9431020D01*
X19575780Y-9745980D02*
X19591020Y-9761220D01*
X19591020Y-9745980D02*
X19575780Y-9761220D01*
X19575780Y-10152380D02*
X19591020Y-10167620D01*
X19591020Y-10152380D02*
X19575780Y-10167620D01*
X19753580Y-9288780D02*
X19768820Y-9304020D01*
X19768820Y-9288780D02*
X19753580Y-9304020D01*
X19778980Y-9999980D02*
X19794220Y-10015220D01*
X19794220Y-9999980D02*
X19778980Y-10015220D01*
X20159980Y-9339580D02*
X20175220Y-9354820D01*
X20175220Y-9339580D02*
X20159980Y-9354820D01*
X20159980Y-9695180D02*
X20175220Y-9710420D01*
X20175220Y-9695180D02*
X20159980Y-9710420D01*
X18120360Y-9220200D02*
G75*
G03X18120360Y-9220200I-10160J0D01*
G01*
X18348960Y-10083800D02*
G75*
G03X18348960Y-10083800I-10160J0D01*
G01*
X18348960Y-10210800D02*
G75*
G03X18348960Y-10210800I-10160J0D01*
G01*
X18361660Y-9525000D02*
G75*
G03X18361660Y-9525000I-10160J0D01*
G01*
X18361660Y-9652000D02*
G75*
G03X18361660Y-9652000I-10160J0D01*
G01*
X18361660Y-9779000D02*
G75*
G03X18361660Y-9779000I-10160J0D01*
G01*
X18488660Y-9525000D02*
G75*
G03X18488660Y-9525000I-10160J0D01*
G01*
X18615660Y-10280650D02*
G75*
G03X18615660Y-10280650I-10160J0D01*
G01*
X18717260Y-10071100D02*
G75*
G03X18717260Y-10071100I-10160J0D01*
G01*
X18717260Y-10198100D02*
G75*
G03X18717260Y-10198100I-10160J0D01*
G01*
X18742660Y-9525000D02*
G75*
G03X18742660Y-9525000I-10160J0D01*
G01*
X18837910Y-9017000D02*
G75*
G03X18837910Y-9017000I-10160J0D01*
G01*
X18901410Y-9525000D02*
G75*
G03X18901410Y-9525000I-10160J0D01*
G01*
X18901410Y-9652000D02*
G75*
G03X18901410Y-9652000I-10160J0D01*
G01*
X18901410Y-9779000D02*
G75*
G03X18901410Y-9779000I-10160J0D01*
G01*
X19034760Y-10071100D02*
G75*
G03X19034760Y-10071100I-10160J0D01*
G01*
X19034760Y-10198100D02*
G75*
G03X19034760Y-10198100I-10160J0D01*
G01*
X19110960Y-9626600D02*
G75*
G03X19110960Y-9626600I-10160J0D01*
G01*
X17653000Y-8712200D02*
X17653000Y-8813800D01*
X17602200Y-8763000D02*
X17703800Y-8763000D01*
X17653000Y-10490200D02*
X17653000Y-10591800D01*
X17602200Y-10541000D02*
X17703800Y-10541000D01*
X17907000Y-8712200D02*
X17907000Y-8813800D01*
X17856200Y-8763000D02*
X17957800Y-8763000D01*
X17907000Y-10490200D02*
X17907000Y-10591800D01*
X17856200Y-10541000D02*
X17957800Y-10541000D01*
X18161000Y-8712200D02*
X18161000Y-8813800D01*
X18110200Y-8763000D02*
X18211800Y-8763000D01*
X18161000Y-10490200D02*
X18161000Y-10591800D01*
X18110200Y-10541000D02*
X18211800Y-10541000D01*
X18415000Y-8712200D02*
X18415000Y-8813800D01*
X18364200Y-8763000D02*
X18465800Y-8763000D01*
X18415000Y-10490200D02*
X18415000Y-10591800D01*
X18364200Y-10541000D02*
X18465800Y-10541000D01*
X18669000Y-8712200D02*
X18669000Y-8813800D01*
X18618200Y-8763000D02*
X18719800Y-8763000D01*
X18669000Y-10490200D02*
X18669000Y-10591800D01*
X18618200Y-10541000D02*
X18719800Y-10541000D01*
X18923000Y-8712200D02*
X18923000Y-8813800D01*
X18872200Y-8763000D02*
X18973800Y-8763000D01*
X18923000Y-10490200D02*
X18923000Y-10591800D01*
X18872200Y-10541000D02*
X18973800Y-10541000D01*
X19177000Y-8712200D02*
X19177000Y-8813800D01*
X19126200Y-8763000D02*
X19227800Y-8763000D01*
X19177000Y-10490200D02*
X19177000Y-10591800D01*
X19126200Y-10541000D02*
X19227800Y-10541000D01*
X19431000Y-8712200D02*
X19431000Y-8813800D01*
X19380200Y-8763000D02*
X19481800Y-8763000D01*
X19431000Y-10490200D02*
X19431000Y-10591800D01*
X19380200Y-10541000D02*
X19481800Y-10541000D01*
X19685000Y-8712200D02*
X19685000Y-8813800D01*
X19634200Y-8763000D02*
X19735800Y-8763000D01*
X19685000Y-10490200D02*
X19685000Y-10591800D01*
X19634200Y-10541000D02*
X19735800Y-10541000D01*
D13*
X17281929Y-11268214D02*
X17281929Y-10968214D01*
X17353357Y-10968214D01*
X17396214Y-10982500D01*
X17424786Y-11011072D01*
X17439071Y-11039643D01*
X17453357Y-11096786D01*
X17453357Y-11139643D01*
X17439071Y-11196786D01*
X17424786Y-11225357D01*
X17396214Y-11253929D01*
X17353357Y-11268214D01*
X17281929Y-11268214D01*
X17581929Y-11268214D02*
X17581929Y-11068214D01*
X17581929Y-11125357D02*
X17596214Y-11096786D01*
X17610500Y-11082500D01*
X17639071Y-11068214D01*
X17667643Y-11068214D01*
X17767643Y-11268214D02*
X17767643Y-11068214D01*
X17767643Y-10968214D02*
X17753357Y-10982500D01*
X17767643Y-10996786D01*
X17781929Y-10982500D01*
X17767643Y-10968214D01*
X17767643Y-10996786D01*
X17953357Y-11268214D02*
X17924786Y-11253929D01*
X17910500Y-11225357D01*
X17910500Y-10968214D01*
X18110500Y-11268214D02*
X18081929Y-11253929D01*
X18067643Y-11225357D01*
X18067643Y-10968214D01*
X18453357Y-11268214D02*
X18453357Y-10968214D01*
X18553357Y-11182500D01*
X18653357Y-10968214D01*
X18653357Y-11268214D01*
X18924786Y-11268214D02*
X18924786Y-11111072D01*
X18910500Y-11082500D01*
X18881929Y-11068214D01*
X18824786Y-11068214D01*
X18796214Y-11082500D01*
X18924786Y-11253929D02*
X18896214Y-11268214D01*
X18824786Y-11268214D01*
X18796214Y-11253929D01*
X18781929Y-11225357D01*
X18781929Y-11196786D01*
X18796214Y-11168214D01*
X18824786Y-11153929D01*
X18896214Y-11153929D01*
X18924786Y-11139643D01*
X19067643Y-11068214D02*
X19067643Y-11368214D01*
X19067643Y-11082500D02*
X19096214Y-11068214D01*
X19153357Y-11068214D01*
X19181929Y-11082500D01*
X19196214Y-11096786D01*
X19210500Y-11125357D01*
X19210500Y-11211071D01*
X19196214Y-11239643D01*
X19181929Y-11253929D01*
X19153357Y-11268214D01*
X19096214Y-11268214D01*
X19067643Y-11253929D01*
X19339071Y-11239643D02*
X19353357Y-11253929D01*
X19339071Y-11268214D01*
X19324786Y-11253929D01*
X19339071Y-11239643D01*
X19339071Y-11268214D01*
X19339071Y-11082500D02*
X19353357Y-11096786D01*
X19339071Y-11111072D01*
X19324786Y-11096786D01*
X19339071Y-11082500D01*
X19339071Y-11111072D01*
X16995260Y-11754880D02*
X17010500Y-11770120D01*
X17010500Y-11754880D02*
X16995260Y-11770120D01*
X17339071Y-11598214D02*
X17367643Y-11598214D01*
X17396214Y-11612500D01*
X17410500Y-11626786D01*
X17424786Y-11655357D01*
X17439071Y-11712500D01*
X17439071Y-11783929D01*
X17424786Y-11841071D01*
X17410500Y-11869643D01*
X17396214Y-11883929D01*
X17367643Y-11898214D01*
X17339071Y-11898214D01*
X17310500Y-11883929D01*
X17296214Y-11869643D01*
X17281929Y-11841071D01*
X17267643Y-11783929D01*
X17267643Y-11712500D01*
X17281929Y-11655357D01*
X17296214Y-11626786D01*
X17310500Y-11612500D01*
X17339071Y-11598214D01*
X17567643Y-11869643D02*
X17581929Y-11883929D01*
X17567643Y-11898214D01*
X17553357Y-11883929D01*
X17567643Y-11869643D01*
X17567643Y-11898214D01*
X17867643Y-11898214D02*
X17696214Y-11898214D01*
X17781928Y-11898214D02*
X17781928Y-11598214D01*
X17753357Y-11641071D01*
X17724786Y-11669643D01*
X17696214Y-11683929D01*
X18139071Y-11598214D02*
X17996214Y-11598214D01*
X17981929Y-11741071D01*
X17996214Y-11726786D01*
X18024786Y-11712500D01*
X18096214Y-11712500D01*
X18124786Y-11726786D01*
X18139071Y-11741071D01*
X18153357Y-11769643D01*
X18153357Y-11841071D01*
X18139071Y-11869643D01*
X18124786Y-11883929D01*
X18096214Y-11898214D01*
X18024786Y-11898214D01*
X17996214Y-11883929D01*
X17981929Y-11869643D01*
X18281929Y-11898214D02*
X18281929Y-11698214D01*
X18281929Y-11726786D02*
X18296214Y-11712500D01*
X18324786Y-11698214D01*
X18367643Y-11698214D01*
X18396214Y-11712500D01*
X18410500Y-11741071D01*
X18410500Y-11898214D01*
X18410500Y-11741071D02*
X18424786Y-11712500D01*
X18453357Y-11698214D01*
X18496214Y-11698214D01*
X18524786Y-11712500D01*
X18539071Y-11741071D01*
X18539071Y-11898214D01*
X18681929Y-11898214D02*
X18681929Y-11698214D01*
X18681929Y-11726786D02*
X18696214Y-11712500D01*
X18724786Y-11698214D01*
X18767643Y-11698214D01*
X18796214Y-11712500D01*
X18810500Y-11741071D01*
X18810500Y-11898214D01*
X18810500Y-11741071D02*
X18824786Y-11712500D01*
X18853357Y-11698214D01*
X18896214Y-11698214D01*
X18924786Y-11712500D01*
X18939071Y-11741071D01*
X18939071Y-11898214D01*
X19524786Y-11583929D02*
X19267643Y-11969643D01*
X19910500Y-11598214D02*
X19939071Y-11598214D01*
X19967643Y-11612500D01*
X19981928Y-11626786D01*
X19996214Y-11655357D01*
X20010500Y-11712500D01*
X20010500Y-11783929D01*
X19996214Y-11841071D01*
X19981928Y-11869643D01*
X19967643Y-11883929D01*
X19939071Y-11898214D01*
X19910500Y-11898214D01*
X19881928Y-11883929D01*
X19867643Y-11869643D01*
X19853357Y-11841071D01*
X19839071Y-11783929D01*
X19839071Y-11712500D01*
X19853357Y-11655357D01*
X19867643Y-11626786D01*
X19881928Y-11612500D01*
X19910500Y-11598214D01*
X20139071Y-11869643D02*
X20153357Y-11883929D01*
X20139071Y-11898214D01*
X20124786Y-11883929D01*
X20139071Y-11869643D01*
X20139071Y-11898214D01*
X20339071Y-11598214D02*
X20367643Y-11598214D01*
X20396214Y-11612500D01*
X20410500Y-11626786D01*
X20424786Y-11655357D01*
X20439071Y-11712500D01*
X20439071Y-11783929D01*
X20424786Y-11841071D01*
X20410500Y-11869643D01*
X20396214Y-11883929D01*
X20367643Y-11898214D01*
X20339071Y-11898214D01*
X20310500Y-11883929D01*
X20296214Y-11869643D01*
X20281928Y-11841071D01*
X20267643Y-11783929D01*
X20267643Y-11712500D01*
X20281928Y-11655357D01*
X20296214Y-11626786D01*
X20310500Y-11612500D01*
X20339071Y-11598214D01*
X20624786Y-11598214D02*
X20653357Y-11598214D01*
X20681928Y-11612500D01*
X20696214Y-11626786D01*
X20710500Y-11655357D01*
X20724786Y-11712500D01*
X20724786Y-11783929D01*
X20710500Y-11841071D01*
X20696214Y-11869643D01*
X20681928Y-11883929D01*
X20653357Y-11898214D01*
X20624786Y-11898214D01*
X20596214Y-11883929D01*
X20581928Y-11869643D01*
X20567643Y-11841071D01*
X20553357Y-11783929D01*
X20553357Y-11712500D01*
X20567643Y-11655357D01*
X20581928Y-11626786D01*
X20596214Y-11612500D01*
X20624786Y-11598214D01*
X20981928Y-11598214D02*
X20924786Y-11598214D01*
X20896214Y-11612500D01*
X20881928Y-11626786D01*
X20853357Y-11669643D01*
X20839071Y-11726786D01*
X20839071Y-11841071D01*
X20853357Y-11869643D01*
X20867643Y-11883929D01*
X20896214Y-11898214D01*
X20953357Y-11898214D01*
X20981928Y-11883929D01*
X20996214Y-11869643D01*
X21010500Y-11841071D01*
X21010500Y-11769643D01*
X20996214Y-11741071D01*
X20981928Y-11726786D01*
X20953357Y-11712500D01*
X20896214Y-11712500D01*
X20867643Y-11726786D01*
X20853357Y-11741071D01*
X20839071Y-11769643D01*
X21124786Y-11598214D02*
X21124786Y-11655357D01*
X21239071Y-11598214D02*
X21239071Y-11655357D01*
X21681928Y-12012500D02*
X21667643Y-11998214D01*
X21639071Y-11955357D01*
X21624786Y-11926786D01*
X21610500Y-11883929D01*
X21596214Y-11812500D01*
X21596214Y-11755357D01*
X21610500Y-11683929D01*
X21624786Y-11641071D01*
X21639071Y-11612500D01*
X21667643Y-11569643D01*
X21681928Y-11555357D01*
X21781928Y-11626786D02*
X21796214Y-11612500D01*
X21824786Y-11598214D01*
X21896214Y-11598214D01*
X21924786Y-11612500D01*
X21939071Y-11626786D01*
X21953357Y-11655357D01*
X21953357Y-11683929D01*
X21939071Y-11726786D01*
X21767643Y-11898214D01*
X21953357Y-11898214D01*
X22124786Y-11726786D02*
X22096214Y-11712500D01*
X22081928Y-11698214D01*
X22067643Y-11669643D01*
X22067643Y-11655357D01*
X22081928Y-11626786D01*
X22096214Y-11612500D01*
X22124786Y-11598214D01*
X22181928Y-11598214D01*
X22210500Y-11612500D01*
X22224786Y-11626786D01*
X22239071Y-11655357D01*
X22239071Y-11669643D01*
X22224786Y-11698214D01*
X22210500Y-11712500D01*
X22181928Y-11726786D01*
X22124786Y-11726786D01*
X22096214Y-11741071D01*
X22081928Y-11755357D01*
X22067643Y-11783929D01*
X22067643Y-11841071D01*
X22081928Y-11869643D01*
X22096214Y-11883929D01*
X22124786Y-11898214D01*
X22181928Y-11898214D01*
X22210500Y-11883929D01*
X22224786Y-11869643D01*
X22239071Y-11841071D01*
X22239071Y-11783929D01*
X22224786Y-11755357D01*
X22210500Y-11741071D01*
X22181928Y-11726786D01*
X22596214Y-11898214D02*
X22596214Y-11598214D01*
X22724785Y-11898214D02*
X22724785Y-11741071D01*
X22710500Y-11712500D01*
X22681928Y-11698214D01*
X22639071Y-11698214D01*
X22610500Y-11712500D01*
X22596214Y-11726786D01*
X22910500Y-11898214D02*
X22881928Y-11883929D01*
X22867643Y-11869643D01*
X22853357Y-11841071D01*
X22853357Y-11755357D01*
X22867643Y-11726786D01*
X22881928Y-11712500D01*
X22910500Y-11698214D01*
X22953357Y-11698214D01*
X22981928Y-11712500D01*
X22996214Y-11726786D01*
X23010500Y-11755357D01*
X23010500Y-11841071D01*
X22996214Y-11869643D01*
X22981928Y-11883929D01*
X22953357Y-11898214D01*
X22910500Y-11898214D01*
X23181928Y-11898214D02*
X23153357Y-11883929D01*
X23139071Y-11855357D01*
X23139071Y-11598214D01*
X23410500Y-11883929D02*
X23381928Y-11898214D01*
X23324786Y-11898214D01*
X23296214Y-11883929D01*
X23281928Y-11855357D01*
X23281928Y-11741071D01*
X23296214Y-11712500D01*
X23324786Y-11698214D01*
X23381928Y-11698214D01*
X23410500Y-11712500D01*
X23424786Y-11741071D01*
X23424786Y-11769643D01*
X23281928Y-11798214D01*
X23539071Y-11883929D02*
X23567643Y-11898214D01*
X23624786Y-11898214D01*
X23653357Y-11883929D01*
X23667643Y-11855357D01*
X23667643Y-11841071D01*
X23653357Y-11812500D01*
X23624786Y-11798214D01*
X23581928Y-11798214D01*
X23553357Y-11783929D01*
X23539071Y-11755357D01*
X23539071Y-11741071D01*
X23553357Y-11712500D01*
X23581928Y-11698214D01*
X23624786Y-11698214D01*
X23653357Y-11712500D01*
X23767643Y-12012500D02*
X23781928Y-11998214D01*
X23810500Y-11955357D01*
X23824786Y-11926786D01*
X23839071Y-11883929D01*
X23853357Y-11812500D01*
X23853357Y-11755357D01*
X23839071Y-11683929D01*
X23824786Y-11641071D01*
X23810500Y-11612500D01*
X23781928Y-11569643D01*
X23767643Y-11555357D01*
X17010500Y-12158500D02*
G75*
G03X17010500Y-12158500I-10160J0D01*
G01*
X17339071Y-11994214D02*
X17367643Y-11994214D01*
X17396214Y-12008500D01*
X17410500Y-12022786D01*
X17424786Y-12051357D01*
X17439071Y-12108500D01*
X17439071Y-12179929D01*
X17424786Y-12237071D01*
X17410500Y-12265643D01*
X17396214Y-12279929D01*
X17367643Y-12294214D01*
X17339071Y-12294214D01*
X17310500Y-12279929D01*
X17296214Y-12265643D01*
X17281929Y-12237071D01*
X17267643Y-12179929D01*
X17267643Y-12108500D01*
X17281929Y-12051357D01*
X17296214Y-12022786D01*
X17310500Y-12008500D01*
X17339071Y-11994214D01*
X17567643Y-12265643D02*
X17581929Y-12279929D01*
X17567643Y-12294214D01*
X17553357Y-12279929D01*
X17567643Y-12265643D01*
X17567643Y-12294214D01*
X17696214Y-12022786D02*
X17710500Y-12008500D01*
X17739071Y-11994214D01*
X17810500Y-11994214D01*
X17839071Y-12008500D01*
X17853357Y-12022786D01*
X17867643Y-12051357D01*
X17867643Y-12079929D01*
X17853357Y-12122786D01*
X17681928Y-12294214D01*
X17867643Y-12294214D01*
X18053357Y-11994214D02*
X18081929Y-11994214D01*
X18110500Y-12008500D01*
X18124786Y-12022786D01*
X18139071Y-12051357D01*
X18153357Y-12108500D01*
X18153357Y-12179929D01*
X18139071Y-12237071D01*
X18124786Y-12265643D01*
X18110500Y-12279929D01*
X18081929Y-12294214D01*
X18053357Y-12294214D01*
X18024786Y-12279929D01*
X18010500Y-12265643D01*
X17996214Y-12237071D01*
X17981929Y-12179929D01*
X17981929Y-12108500D01*
X17996214Y-12051357D01*
X18010500Y-12022786D01*
X18024786Y-12008500D01*
X18053357Y-11994214D01*
X18281929Y-12294214D02*
X18281929Y-12094214D01*
X18281929Y-12122786D02*
X18296214Y-12108500D01*
X18324786Y-12094214D01*
X18367643Y-12094214D01*
X18396214Y-12108500D01*
X18410500Y-12137071D01*
X18410500Y-12294214D01*
X18410500Y-12137071D02*
X18424786Y-12108500D01*
X18453357Y-12094214D01*
X18496214Y-12094214D01*
X18524786Y-12108500D01*
X18539071Y-12137071D01*
X18539071Y-12294214D01*
X18681929Y-12294214D02*
X18681929Y-12094214D01*
X18681929Y-12122786D02*
X18696214Y-12108500D01*
X18724786Y-12094214D01*
X18767643Y-12094214D01*
X18796214Y-12108500D01*
X18810500Y-12137071D01*
X18810500Y-12294214D01*
X18810500Y-12137071D02*
X18824786Y-12108500D01*
X18853357Y-12094214D01*
X18896214Y-12094214D01*
X18924786Y-12108500D01*
X18939071Y-12137071D01*
X18939071Y-12294214D01*
X19524786Y-11979929D02*
X19267643Y-12365643D01*
X19910500Y-11994214D02*
X19939071Y-11994214D01*
X19967643Y-12008500D01*
X19981928Y-12022786D01*
X19996214Y-12051357D01*
X20010500Y-12108500D01*
X20010500Y-12179929D01*
X19996214Y-12237071D01*
X19981928Y-12265643D01*
X19967643Y-12279929D01*
X19939071Y-12294214D01*
X19910500Y-12294214D01*
X19881928Y-12279929D01*
X19867643Y-12265643D01*
X19853357Y-12237071D01*
X19839071Y-12179929D01*
X19839071Y-12108500D01*
X19853357Y-12051357D01*
X19867643Y-12022786D01*
X19881928Y-12008500D01*
X19910500Y-11994214D01*
X20139071Y-12265643D02*
X20153357Y-12279929D01*
X20139071Y-12294214D01*
X20124786Y-12279929D01*
X20139071Y-12265643D01*
X20139071Y-12294214D01*
X20339071Y-11994214D02*
X20367643Y-11994214D01*
X20396214Y-12008500D01*
X20410500Y-12022786D01*
X20424786Y-12051357D01*
X20439071Y-12108500D01*
X20439071Y-12179929D01*
X20424786Y-12237071D01*
X20410500Y-12265643D01*
X20396214Y-12279929D01*
X20367643Y-12294214D01*
X20339071Y-12294214D01*
X20310500Y-12279929D01*
X20296214Y-12265643D01*
X20281928Y-12237071D01*
X20267643Y-12179929D01*
X20267643Y-12108500D01*
X20281928Y-12051357D01*
X20296214Y-12022786D01*
X20310500Y-12008500D01*
X20339071Y-11994214D01*
X20624786Y-11994214D02*
X20653357Y-11994214D01*
X20681928Y-12008500D01*
X20696214Y-12022786D01*
X20710500Y-12051357D01*
X20724786Y-12108500D01*
X20724786Y-12179929D01*
X20710500Y-12237071D01*
X20696214Y-12265643D01*
X20681928Y-12279929D01*
X20653357Y-12294214D01*
X20624786Y-12294214D01*
X20596214Y-12279929D01*
X20581928Y-12265643D01*
X20567643Y-12237071D01*
X20553357Y-12179929D01*
X20553357Y-12108500D01*
X20567643Y-12051357D01*
X20581928Y-12022786D01*
X20596214Y-12008500D01*
X20624786Y-11994214D01*
X20896214Y-12122786D02*
X20867643Y-12108500D01*
X20853357Y-12094214D01*
X20839071Y-12065643D01*
X20839071Y-12051357D01*
X20853357Y-12022786D01*
X20867643Y-12008500D01*
X20896214Y-11994214D01*
X20953357Y-11994214D01*
X20981928Y-12008500D01*
X20996214Y-12022786D01*
X21010500Y-12051357D01*
X21010500Y-12065643D01*
X20996214Y-12094214D01*
X20981928Y-12108500D01*
X20953357Y-12122786D01*
X20896214Y-12122786D01*
X20867643Y-12137071D01*
X20853357Y-12151357D01*
X20839071Y-12179929D01*
X20839071Y-12237071D01*
X20853357Y-12265643D01*
X20867643Y-12279929D01*
X20896214Y-12294214D01*
X20953357Y-12294214D01*
X20981928Y-12279929D01*
X20996214Y-12265643D01*
X21010500Y-12237071D01*
X21010500Y-12179929D01*
X20996214Y-12151357D01*
X20981928Y-12137071D01*
X20953357Y-12122786D01*
X21124786Y-11994214D02*
X21124786Y-12051357D01*
X21239071Y-11994214D02*
X21239071Y-12051357D01*
X21681928Y-12408500D02*
X21667643Y-12394214D01*
X21639071Y-12351357D01*
X21624786Y-12322786D01*
X21610500Y-12279929D01*
X21596214Y-12208500D01*
X21596214Y-12151357D01*
X21610500Y-12079929D01*
X21624786Y-12037071D01*
X21639071Y-12008500D01*
X21667643Y-11965643D01*
X21681928Y-11951357D01*
X21953357Y-12294214D02*
X21781928Y-12294214D01*
X21867643Y-12294214D02*
X21867643Y-11994214D01*
X21839071Y-12037071D01*
X21810500Y-12065643D01*
X21781928Y-12079929D01*
X22124786Y-12122786D02*
X22096214Y-12108500D01*
X22081928Y-12094214D01*
X22067643Y-12065643D01*
X22067643Y-12051357D01*
X22081928Y-12022786D01*
X22096214Y-12008500D01*
X22124786Y-11994214D01*
X22181928Y-11994214D01*
X22210500Y-12008500D01*
X22224786Y-12022786D01*
X22239071Y-12051357D01*
X22239071Y-12065643D01*
X22224786Y-12094214D01*
X22210500Y-12108500D01*
X22181928Y-12122786D01*
X22124786Y-12122786D01*
X22096214Y-12137071D01*
X22081928Y-12151357D01*
X22067643Y-12179929D01*
X22067643Y-12237071D01*
X22081928Y-12265643D01*
X22096214Y-12279929D01*
X22124786Y-12294214D01*
X22181928Y-12294214D01*
X22210500Y-12279929D01*
X22224786Y-12265643D01*
X22239071Y-12237071D01*
X22239071Y-12179929D01*
X22224786Y-12151357D01*
X22210500Y-12137071D01*
X22181928Y-12122786D01*
X22596214Y-12294214D02*
X22596214Y-11994214D01*
X22724785Y-12294214D02*
X22724785Y-12137071D01*
X22710500Y-12108500D01*
X22681928Y-12094214D01*
X22639071Y-12094214D01*
X22610500Y-12108500D01*
X22596214Y-12122786D01*
X22910500Y-12294214D02*
X22881928Y-12279929D01*
X22867643Y-12265643D01*
X22853357Y-12237071D01*
X22853357Y-12151357D01*
X22867643Y-12122786D01*
X22881928Y-12108500D01*
X22910500Y-12094214D01*
X22953357Y-12094214D01*
X22981928Y-12108500D01*
X22996214Y-12122786D01*
X23010500Y-12151357D01*
X23010500Y-12237071D01*
X22996214Y-12265643D01*
X22981928Y-12279929D01*
X22953357Y-12294214D01*
X22910500Y-12294214D01*
X23181928Y-12294214D02*
X23153357Y-12279929D01*
X23139071Y-12251357D01*
X23139071Y-11994214D01*
X23410500Y-12279929D02*
X23381928Y-12294214D01*
X23324786Y-12294214D01*
X23296214Y-12279929D01*
X23281928Y-12251357D01*
X23281928Y-12137071D01*
X23296214Y-12108500D01*
X23324786Y-12094214D01*
X23381928Y-12094214D01*
X23410500Y-12108500D01*
X23424786Y-12137071D01*
X23424786Y-12165643D01*
X23281928Y-12194214D01*
X23539071Y-12279929D02*
X23567643Y-12294214D01*
X23624786Y-12294214D01*
X23653357Y-12279929D01*
X23667643Y-12251357D01*
X23667643Y-12237071D01*
X23653357Y-12208500D01*
X23624786Y-12194214D01*
X23581928Y-12194214D01*
X23553357Y-12179929D01*
X23539071Y-12151357D01*
X23539071Y-12137071D01*
X23553357Y-12108500D01*
X23581928Y-12094214D01*
X23624786Y-12094214D01*
X23653357Y-12108500D01*
X23767643Y-12408500D02*
X23781928Y-12394214D01*
X23810500Y-12351357D01*
X23824786Y-12322786D01*
X23839071Y-12279929D01*
X23853357Y-12208500D01*
X23853357Y-12151357D01*
X23839071Y-12079929D01*
X23824786Y-12037071D01*
X23810500Y-12008500D01*
X23781928Y-11965643D01*
X23767643Y-11951357D01*
X16959700Y-12503700D02*
X16959700Y-12605300D01*
X16908900Y-12554500D02*
X17010500Y-12554500D01*
X17439071Y-12690214D02*
X17267643Y-12690214D01*
X17353357Y-12690214D02*
X17353357Y-12390214D01*
X17324786Y-12433071D01*
X17296214Y-12461643D01*
X17267643Y-12475929D01*
X17567643Y-12661643D02*
X17581929Y-12675929D01*
X17567643Y-12690214D01*
X17553357Y-12675929D01*
X17567643Y-12661643D01*
X17567643Y-12690214D01*
X17767643Y-12390214D02*
X17796214Y-12390214D01*
X17824786Y-12404500D01*
X17839071Y-12418786D01*
X17853357Y-12447357D01*
X17867643Y-12504500D01*
X17867643Y-12575929D01*
X17853357Y-12633071D01*
X17839071Y-12661643D01*
X17824786Y-12675929D01*
X17796214Y-12690214D01*
X17767643Y-12690214D01*
X17739071Y-12675929D01*
X17724786Y-12661643D01*
X17710500Y-12633071D01*
X17696214Y-12575929D01*
X17696214Y-12504500D01*
X17710500Y-12447357D01*
X17724786Y-12418786D01*
X17739071Y-12404500D01*
X17767643Y-12390214D01*
X17981929Y-12418786D02*
X17996214Y-12404500D01*
X18024786Y-12390214D01*
X18096214Y-12390214D01*
X18124786Y-12404500D01*
X18139071Y-12418786D01*
X18153357Y-12447357D01*
X18153357Y-12475929D01*
X18139071Y-12518786D01*
X17967643Y-12690214D01*
X18153357Y-12690214D01*
X18281929Y-12690214D02*
X18281929Y-12490214D01*
X18281929Y-12518786D02*
X18296214Y-12504500D01*
X18324786Y-12490214D01*
X18367643Y-12490214D01*
X18396214Y-12504500D01*
X18410500Y-12533071D01*
X18410500Y-12690214D01*
X18410500Y-12533071D02*
X18424786Y-12504500D01*
X18453357Y-12490214D01*
X18496214Y-12490214D01*
X18524786Y-12504500D01*
X18539071Y-12533071D01*
X18539071Y-12690214D01*
X18681929Y-12690214D02*
X18681929Y-12490214D01*
X18681929Y-12518786D02*
X18696214Y-12504500D01*
X18724786Y-12490214D01*
X18767643Y-12490214D01*
X18796214Y-12504500D01*
X18810500Y-12533071D01*
X18810500Y-12690214D01*
X18810500Y-12533071D02*
X18824786Y-12504500D01*
X18853357Y-12490214D01*
X18896214Y-12490214D01*
X18924786Y-12504500D01*
X18939071Y-12533071D01*
X18939071Y-12690214D01*
X19524786Y-12375929D02*
X19267643Y-12761643D01*
X19910500Y-12390214D02*
X19939071Y-12390214D01*
X19967643Y-12404500D01*
X19981928Y-12418786D01*
X19996214Y-12447357D01*
X20010500Y-12504500D01*
X20010500Y-12575929D01*
X19996214Y-12633071D01*
X19981928Y-12661643D01*
X19967643Y-12675929D01*
X19939071Y-12690214D01*
X19910500Y-12690214D01*
X19881928Y-12675929D01*
X19867643Y-12661643D01*
X19853357Y-12633071D01*
X19839071Y-12575929D01*
X19839071Y-12504500D01*
X19853357Y-12447357D01*
X19867643Y-12418786D01*
X19881928Y-12404500D01*
X19910500Y-12390214D01*
X20139071Y-12661643D02*
X20153357Y-12675929D01*
X20139071Y-12690214D01*
X20124786Y-12675929D01*
X20139071Y-12661643D01*
X20139071Y-12690214D01*
X20339071Y-12390214D02*
X20367643Y-12390214D01*
X20396214Y-12404500D01*
X20410500Y-12418786D01*
X20424786Y-12447357D01*
X20439071Y-12504500D01*
X20439071Y-12575929D01*
X20424786Y-12633071D01*
X20410500Y-12661643D01*
X20396214Y-12675929D01*
X20367643Y-12690214D01*
X20339071Y-12690214D01*
X20310500Y-12675929D01*
X20296214Y-12661643D01*
X20281928Y-12633071D01*
X20267643Y-12575929D01*
X20267643Y-12504500D01*
X20281928Y-12447357D01*
X20296214Y-12418786D01*
X20310500Y-12404500D01*
X20339071Y-12390214D01*
X20696214Y-12490214D02*
X20696214Y-12690214D01*
X20624786Y-12375929D02*
X20553357Y-12590214D01*
X20739071Y-12590214D01*
X20910500Y-12390214D02*
X20939071Y-12390214D01*
X20967643Y-12404500D01*
X20981928Y-12418786D01*
X20996214Y-12447357D01*
X21010500Y-12504500D01*
X21010500Y-12575929D01*
X20996214Y-12633071D01*
X20981928Y-12661643D01*
X20967643Y-12675929D01*
X20939071Y-12690214D01*
X20910500Y-12690214D01*
X20881928Y-12675929D01*
X20867643Y-12661643D01*
X20853357Y-12633071D01*
X20839071Y-12575929D01*
X20839071Y-12504500D01*
X20853357Y-12447357D01*
X20867643Y-12418786D01*
X20881928Y-12404500D01*
X20910500Y-12390214D01*
X21124786Y-12390214D02*
X21124786Y-12447357D01*
X21239071Y-12390214D02*
X21239071Y-12447357D01*
X21681928Y-12804500D02*
X21667643Y-12790214D01*
X21639071Y-12747357D01*
X21624786Y-12718786D01*
X21610500Y-12675929D01*
X21596214Y-12604500D01*
X21596214Y-12547357D01*
X21610500Y-12475929D01*
X21624786Y-12433071D01*
X21639071Y-12404500D01*
X21667643Y-12361643D01*
X21681928Y-12347357D01*
X21953357Y-12690214D02*
X21781928Y-12690214D01*
X21867643Y-12690214D02*
X21867643Y-12390214D01*
X21839071Y-12433071D01*
X21810500Y-12461643D01*
X21781928Y-12475929D01*
X22124786Y-12518786D02*
X22096214Y-12504500D01*
X22081928Y-12490214D01*
X22067643Y-12461643D01*
X22067643Y-12447357D01*
X22081928Y-12418786D01*
X22096214Y-12404500D01*
X22124786Y-12390214D01*
X22181928Y-12390214D01*
X22210500Y-12404500D01*
X22224786Y-12418786D01*
X22239071Y-12447357D01*
X22239071Y-12461643D01*
X22224786Y-12490214D01*
X22210500Y-12504500D01*
X22181928Y-12518786D01*
X22124786Y-12518786D01*
X22096214Y-12533071D01*
X22081928Y-12547357D01*
X22067643Y-12575929D01*
X22067643Y-12633071D01*
X22081928Y-12661643D01*
X22096214Y-12675929D01*
X22124786Y-12690214D01*
X22181928Y-12690214D01*
X22210500Y-12675929D01*
X22224786Y-12661643D01*
X22239071Y-12633071D01*
X22239071Y-12575929D01*
X22224786Y-12547357D01*
X22210500Y-12533071D01*
X22181928Y-12518786D01*
X22596214Y-12690214D02*
X22596214Y-12390214D01*
X22724785Y-12690214D02*
X22724785Y-12533071D01*
X22710500Y-12504500D01*
X22681928Y-12490214D01*
X22639071Y-12490214D01*
X22610500Y-12504500D01*
X22596214Y-12518786D01*
X22910500Y-12690214D02*
X22881928Y-12675929D01*
X22867643Y-12661643D01*
X22853357Y-12633071D01*
X22853357Y-12547357D01*
X22867643Y-12518786D01*
X22881928Y-12504500D01*
X22910500Y-12490214D01*
X22953357Y-12490214D01*
X22981928Y-12504500D01*
X22996214Y-12518786D01*
X23010500Y-12547357D01*
X23010500Y-12633071D01*
X22996214Y-12661643D01*
X22981928Y-12675929D01*
X22953357Y-12690214D01*
X22910500Y-12690214D01*
X23181928Y-12690214D02*
X23153357Y-12675929D01*
X23139071Y-12647357D01*
X23139071Y-12390214D01*
X23410500Y-12675929D02*
X23381928Y-12690214D01*
X23324786Y-12690214D01*
X23296214Y-12675929D01*
X23281928Y-12647357D01*
X23281928Y-12533071D01*
X23296214Y-12504500D01*
X23324786Y-12490214D01*
X23381928Y-12490214D01*
X23410500Y-12504500D01*
X23424786Y-12533071D01*
X23424786Y-12561643D01*
X23281928Y-12590214D01*
X23539071Y-12675929D02*
X23567643Y-12690214D01*
X23624786Y-12690214D01*
X23653357Y-12675929D01*
X23667643Y-12647357D01*
X23667643Y-12633071D01*
X23653357Y-12604500D01*
X23624786Y-12590214D01*
X23581928Y-12590214D01*
X23553357Y-12575929D01*
X23539071Y-12547357D01*
X23539071Y-12533071D01*
X23553357Y-12504500D01*
X23581928Y-12490214D01*
X23624786Y-12490214D01*
X23653357Y-12504500D01*
X23767643Y-12804500D02*
X23781928Y-12790214D01*
X23810500Y-12747357D01*
X23824786Y-12718786D01*
X23839071Y-12675929D01*
X23853357Y-12604500D01*
X23853357Y-12547357D01*
X23839071Y-12475929D01*
X23824786Y-12433071D01*
X23810500Y-12404500D01*
X23781928Y-12361643D01*
X23767643Y-12347357D01*
M02*
