G04 #@! TF.FileFunction,Copper,L2,Inr,Signal*
%FSLAX46Y46*%
G04 Gerber Fmt 4.6, Leading zero omitted, Abs format (unit mm)*
G04 Created by KiCad (PCBNEW 4.0.6-e0-6349~53~ubuntu16.04.1) date Tue Feb 27 12:18:18 2018*
%MOMM*%
%LPD*%
G01*
G04 APERTURE LIST*
%ADD10C,0.100000*%
%ADD11C,0.150000*%
%ADD12C,1.524000*%
%ADD13C,0.508000*%
%ADD14C,0.406400*%
%ADD15C,0.127000*%
G04 APERTURE END LIST*
D10*
D11*
X170180000Y-107950000D02*
X170180000Y-85090000D01*
X203200000Y-107950000D02*
X170180000Y-107950000D01*
X203200000Y-85090000D02*
X203200000Y-107950000D01*
X170180000Y-85090000D02*
X203200000Y-85090000D01*
D12*
X196850000Y-87630000D03*
X194310000Y-87630000D03*
X191770000Y-87630000D03*
X189230000Y-87630000D03*
X186690000Y-87630000D03*
X184150000Y-87630000D03*
X181610000Y-87630000D03*
X179070000Y-87630000D03*
X176530000Y-87630000D03*
X196850000Y-105410000D03*
X194310000Y-105410000D03*
X191770000Y-105410000D03*
X189230000Y-105410000D03*
X186690000Y-105410000D03*
X184150000Y-105410000D03*
X181610000Y-105410000D03*
X179070000Y-105410000D03*
X176530000Y-105410000D03*
D13*
X186055000Y-102806500D03*
D14*
X195834000Y-97536000D03*
X197866000Y-100076000D03*
D13*
X191008000Y-96266000D03*
X181102000Y-92202000D03*
D14*
X175260000Y-91948000D03*
X192278000Y-90424000D03*
X197612000Y-92964000D03*
X201676000Y-93472000D03*
X201676000Y-97028000D03*
X181356000Y-102870000D03*
X181356000Y-99822000D03*
X179070000Y-95504000D03*
X179070000Y-102362000D03*
X171450000Y-91440000D03*
X171450000Y-98425000D03*
X172402500Y-98742500D03*
D13*
X187071000Y-101981000D03*
X187071000Y-100711000D03*
X188277500Y-90170000D03*
D14*
X195834000Y-101600000D03*
D13*
X183388000Y-102108000D03*
X183388000Y-100838000D03*
D14*
X177292000Y-90678000D03*
X195580000Y-94234000D03*
X179070000Y-96520000D03*
D13*
X190246000Y-100711000D03*
X190246000Y-101981000D03*
X183515000Y-97790000D03*
X183515000Y-95250000D03*
X184785000Y-95250000D03*
X183515000Y-96520000D03*
X188912500Y-97790000D03*
X188912500Y-95250000D03*
X187325000Y-95250000D03*
X188912500Y-96520000D03*
D14*
X171450000Y-106680000D03*
X191008000Y-95504000D03*
X177800000Y-100076000D03*
X190500000Y-93472000D03*
X177292000Y-93472000D03*
X192024000Y-100076000D03*
X176022000Y-98806000D03*
X191770000Y-92964000D03*
X176530000Y-91948000D03*
X171450000Y-93726000D03*
D15*
G36*
X202807500Y-107557500D02*
X170572500Y-107557500D01*
X170572500Y-106783119D01*
X170929210Y-106783119D01*
X171008315Y-106974567D01*
X171154662Y-107121170D01*
X171345972Y-107200609D01*
X171553119Y-107200790D01*
X171744567Y-107121685D01*
X171891170Y-106975338D01*
X171970609Y-106784028D01*
X171970790Y-106576881D01*
X171891685Y-106385433D01*
X171745338Y-106238830D01*
X171554028Y-106159391D01*
X171346881Y-106159210D01*
X171155433Y-106238315D01*
X171008830Y-106384662D01*
X170929391Y-106575972D01*
X170929210Y-106783119D01*
X170572500Y-106783119D01*
X170572500Y-105623784D01*
X175450313Y-105623784D01*
X175614311Y-106020689D01*
X175917714Y-106324622D01*
X176314332Y-106489313D01*
X176743784Y-106489687D01*
X177140689Y-106325689D01*
X177444622Y-106022286D01*
X177609313Y-105625668D01*
X177609314Y-105623784D01*
X177990313Y-105623784D01*
X178154311Y-106020689D01*
X178457714Y-106324622D01*
X178854332Y-106489313D01*
X179283784Y-106489687D01*
X179680689Y-106325689D01*
X179984622Y-106022286D01*
X180149313Y-105625668D01*
X180149314Y-105623784D01*
X180530313Y-105623784D01*
X180694311Y-106020689D01*
X180997714Y-106324622D01*
X181394332Y-106489313D01*
X181823784Y-106489687D01*
X182220689Y-106325689D01*
X182524622Y-106022286D01*
X182689313Y-105625668D01*
X182689314Y-105623784D01*
X183070313Y-105623784D01*
X183234311Y-106020689D01*
X183537714Y-106324622D01*
X183934332Y-106489313D01*
X184363784Y-106489687D01*
X184760689Y-106325689D01*
X185064622Y-106022286D01*
X185229313Y-105625668D01*
X185229314Y-105623784D01*
X185610313Y-105623784D01*
X185774311Y-106020689D01*
X186077714Y-106324622D01*
X186474332Y-106489313D01*
X186903784Y-106489687D01*
X187300689Y-106325689D01*
X187604622Y-106022286D01*
X187769313Y-105625668D01*
X187769314Y-105623784D01*
X188150313Y-105623784D01*
X188314311Y-106020689D01*
X188617714Y-106324622D01*
X189014332Y-106489313D01*
X189443784Y-106489687D01*
X189840689Y-106325689D01*
X190144622Y-106022286D01*
X190309313Y-105625668D01*
X190309314Y-105623784D01*
X190690313Y-105623784D01*
X190854311Y-106020689D01*
X191157714Y-106324622D01*
X191554332Y-106489313D01*
X191983784Y-106489687D01*
X192380689Y-106325689D01*
X192684622Y-106022286D01*
X192849313Y-105625668D01*
X192849314Y-105623784D01*
X193230313Y-105623784D01*
X193394311Y-106020689D01*
X193697714Y-106324622D01*
X194094332Y-106489313D01*
X194523784Y-106489687D01*
X194920689Y-106325689D01*
X195224622Y-106022286D01*
X195389313Y-105625668D01*
X195389314Y-105623784D01*
X195770313Y-105623784D01*
X195934311Y-106020689D01*
X196237714Y-106324622D01*
X196634332Y-106489313D01*
X197063784Y-106489687D01*
X197460689Y-106325689D01*
X197764622Y-106022286D01*
X197929313Y-105625668D01*
X197929687Y-105196216D01*
X197765689Y-104799311D01*
X197462286Y-104495378D01*
X197065668Y-104330687D01*
X196636216Y-104330313D01*
X196239311Y-104494311D01*
X195935378Y-104797714D01*
X195770687Y-105194332D01*
X195770313Y-105623784D01*
X195389314Y-105623784D01*
X195389687Y-105196216D01*
X195225689Y-104799311D01*
X194922286Y-104495378D01*
X194525668Y-104330687D01*
X194096216Y-104330313D01*
X193699311Y-104494311D01*
X193395378Y-104797714D01*
X193230687Y-105194332D01*
X193230313Y-105623784D01*
X192849314Y-105623784D01*
X192849687Y-105196216D01*
X192685689Y-104799311D01*
X192382286Y-104495378D01*
X191985668Y-104330687D01*
X191556216Y-104330313D01*
X191159311Y-104494311D01*
X190855378Y-104797714D01*
X190690687Y-105194332D01*
X190690313Y-105623784D01*
X190309314Y-105623784D01*
X190309687Y-105196216D01*
X190145689Y-104799311D01*
X189842286Y-104495378D01*
X189445668Y-104330687D01*
X189016216Y-104330313D01*
X188619311Y-104494311D01*
X188315378Y-104797714D01*
X188150687Y-105194332D01*
X188150313Y-105623784D01*
X187769314Y-105623784D01*
X187769687Y-105196216D01*
X187605689Y-104799311D01*
X187302286Y-104495378D01*
X186905668Y-104330687D01*
X186476216Y-104330313D01*
X186079311Y-104494311D01*
X185775378Y-104797714D01*
X185610687Y-105194332D01*
X185610313Y-105623784D01*
X185229314Y-105623784D01*
X185229687Y-105196216D01*
X185065689Y-104799311D01*
X184762286Y-104495378D01*
X184365668Y-104330687D01*
X183936216Y-104330313D01*
X183539311Y-104494311D01*
X183235378Y-104797714D01*
X183070687Y-105194332D01*
X183070313Y-105623784D01*
X182689314Y-105623784D01*
X182689687Y-105196216D01*
X182525689Y-104799311D01*
X182222286Y-104495378D01*
X181825668Y-104330687D01*
X181396216Y-104330313D01*
X180999311Y-104494311D01*
X180695378Y-104797714D01*
X180530687Y-105194332D01*
X180530313Y-105623784D01*
X180149314Y-105623784D01*
X180149687Y-105196216D01*
X179985689Y-104799311D01*
X179682286Y-104495378D01*
X179285668Y-104330687D01*
X178856216Y-104330313D01*
X178459311Y-104494311D01*
X178155378Y-104797714D01*
X177990687Y-105194332D01*
X177990313Y-105623784D01*
X177609314Y-105623784D01*
X177609687Y-105196216D01*
X177445689Y-104799311D01*
X177142286Y-104495378D01*
X176745668Y-104330687D01*
X176316216Y-104330313D01*
X175919311Y-104494311D01*
X175615378Y-104797714D01*
X175450687Y-105194332D01*
X175450313Y-105623784D01*
X170572500Y-105623784D01*
X170572500Y-102973119D01*
X180835210Y-102973119D01*
X180914315Y-103164567D01*
X181060662Y-103311170D01*
X181251972Y-103390609D01*
X181459119Y-103390790D01*
X181650567Y-103311685D01*
X181797170Y-103165338D01*
X181876609Y-102974028D01*
X181876656Y-102919680D01*
X185483401Y-102919680D01*
X185570224Y-103129806D01*
X185730849Y-103290711D01*
X185940823Y-103377900D01*
X186168180Y-103378099D01*
X186378306Y-103291276D01*
X186539211Y-103130651D01*
X186626400Y-102920677D01*
X186626599Y-102693320D01*
X186539776Y-102483194D01*
X186379151Y-102322289D01*
X186169177Y-102235100D01*
X185941820Y-102234901D01*
X185731694Y-102321724D01*
X185570789Y-102482349D01*
X185483600Y-102692323D01*
X185483401Y-102919680D01*
X181876656Y-102919680D01*
X181876790Y-102766881D01*
X181797685Y-102575433D01*
X181651338Y-102428830D01*
X181460028Y-102349391D01*
X181252881Y-102349210D01*
X181061433Y-102428315D01*
X180914830Y-102574662D01*
X180835391Y-102765972D01*
X180835210Y-102973119D01*
X170572500Y-102973119D01*
X170572500Y-102465119D01*
X178549210Y-102465119D01*
X178628315Y-102656567D01*
X178774662Y-102803170D01*
X178965972Y-102882609D01*
X179173119Y-102882790D01*
X179364567Y-102803685D01*
X179511170Y-102657338D01*
X179590609Y-102466028D01*
X179590790Y-102258881D01*
X179522737Y-102094180D01*
X186499401Y-102094180D01*
X186586224Y-102304306D01*
X186746849Y-102465211D01*
X186956823Y-102552400D01*
X187184180Y-102552599D01*
X187394306Y-102465776D01*
X187555211Y-102305151D01*
X187642400Y-102095177D01*
X187642599Y-101867820D01*
X187555776Y-101657694D01*
X187395151Y-101496789D01*
X187185177Y-101409600D01*
X186957820Y-101409401D01*
X186747694Y-101496224D01*
X186586789Y-101656849D01*
X186499600Y-101866823D01*
X186499401Y-102094180D01*
X179522737Y-102094180D01*
X179511685Y-102067433D01*
X179365338Y-101920830D01*
X179174028Y-101841391D01*
X178966881Y-101841210D01*
X178775433Y-101920315D01*
X178628830Y-102066662D01*
X178549391Y-102257972D01*
X178549210Y-102465119D01*
X170572500Y-102465119D01*
X170572500Y-100824180D01*
X186499401Y-100824180D01*
X186586224Y-101034306D01*
X186746849Y-101195211D01*
X186956823Y-101282400D01*
X187184180Y-101282599D01*
X187394306Y-101195776D01*
X187555211Y-101035151D01*
X187642400Y-100825177D01*
X187642599Y-100597820D01*
X187555776Y-100387694D01*
X187395151Y-100226789D01*
X187280350Y-100179119D01*
X191503210Y-100179119D01*
X191582315Y-100370567D01*
X191728662Y-100517170D01*
X191919972Y-100596609D01*
X192127119Y-100596790D01*
X192318567Y-100517685D01*
X192465170Y-100371338D01*
X192544609Y-100180028D01*
X192544609Y-100179119D01*
X197345210Y-100179119D01*
X197424315Y-100370567D01*
X197570662Y-100517170D01*
X197761972Y-100596609D01*
X197969119Y-100596790D01*
X198160567Y-100517685D01*
X198307170Y-100371338D01*
X198386609Y-100180028D01*
X198386790Y-99972881D01*
X198307685Y-99781433D01*
X198161338Y-99634830D01*
X197970028Y-99555391D01*
X197762881Y-99555210D01*
X197571433Y-99634315D01*
X197424830Y-99780662D01*
X197345391Y-99971972D01*
X197345210Y-100179119D01*
X192544609Y-100179119D01*
X192544790Y-99972881D01*
X192465685Y-99781433D01*
X192319338Y-99634830D01*
X192128028Y-99555391D01*
X191920881Y-99555210D01*
X191729433Y-99634315D01*
X191582830Y-99780662D01*
X191503391Y-99971972D01*
X191503210Y-100179119D01*
X187280350Y-100179119D01*
X187185177Y-100139600D01*
X186957820Y-100139401D01*
X186747694Y-100226224D01*
X186586789Y-100386849D01*
X186499600Y-100596823D01*
X186499401Y-100824180D01*
X170572500Y-100824180D01*
X170572500Y-100179119D01*
X177279210Y-100179119D01*
X177358315Y-100370567D01*
X177504662Y-100517170D01*
X177695972Y-100596609D01*
X177903119Y-100596790D01*
X178094567Y-100517685D01*
X178241170Y-100371338D01*
X178320609Y-100180028D01*
X178320790Y-99972881D01*
X178301056Y-99925119D01*
X180835210Y-99925119D01*
X180914315Y-100116567D01*
X181060662Y-100263170D01*
X181251972Y-100342609D01*
X181459119Y-100342790D01*
X181650567Y-100263685D01*
X181797170Y-100117338D01*
X181876609Y-99926028D01*
X181876790Y-99718881D01*
X181797685Y-99527433D01*
X181651338Y-99380830D01*
X181460028Y-99301391D01*
X181252881Y-99301210D01*
X181061433Y-99380315D01*
X180914830Y-99526662D01*
X180835391Y-99717972D01*
X180835210Y-99925119D01*
X178301056Y-99925119D01*
X178241685Y-99781433D01*
X178095338Y-99634830D01*
X177904028Y-99555391D01*
X177696881Y-99555210D01*
X177505433Y-99634315D01*
X177358830Y-99780662D01*
X177279391Y-99971972D01*
X177279210Y-100179119D01*
X170572500Y-100179119D01*
X170572500Y-98528119D01*
X170929210Y-98528119D01*
X171008315Y-98719567D01*
X171154662Y-98866170D01*
X171345972Y-98945609D01*
X171553119Y-98945790D01*
X171744567Y-98866685D01*
X171881811Y-98729680D01*
X171881710Y-98845619D01*
X171960815Y-99037067D01*
X172107162Y-99183670D01*
X172298472Y-99263109D01*
X172505619Y-99263290D01*
X172697067Y-99184185D01*
X172843670Y-99037838D01*
X172897118Y-98909119D01*
X175501210Y-98909119D01*
X175580315Y-99100567D01*
X175726662Y-99247170D01*
X175917972Y-99326609D01*
X176125119Y-99326790D01*
X176316567Y-99247685D01*
X176463170Y-99101338D01*
X176542609Y-98910028D01*
X176542790Y-98702881D01*
X176463685Y-98511433D01*
X176317338Y-98364830D01*
X176126028Y-98285391D01*
X175918881Y-98285210D01*
X175727433Y-98364315D01*
X175580830Y-98510662D01*
X175501391Y-98701972D01*
X175501210Y-98909119D01*
X172897118Y-98909119D01*
X172923109Y-98846528D01*
X172923290Y-98639381D01*
X172844185Y-98447933D01*
X172697838Y-98301330D01*
X172506528Y-98221891D01*
X172299381Y-98221710D01*
X172107933Y-98300815D01*
X171970689Y-98437820D01*
X171970790Y-98321881D01*
X171891685Y-98130433D01*
X171745338Y-97983830D01*
X171554028Y-97904391D01*
X171346881Y-97904210D01*
X171155433Y-97983315D01*
X171008830Y-98129662D01*
X170929391Y-98320972D01*
X170929210Y-98528119D01*
X170572500Y-98528119D01*
X170572500Y-97639119D01*
X195313210Y-97639119D01*
X195392315Y-97830567D01*
X195538662Y-97977170D01*
X195729972Y-98056609D01*
X195937119Y-98056790D01*
X196128567Y-97977685D01*
X196275170Y-97831338D01*
X196354609Y-97640028D01*
X196354790Y-97432881D01*
X196275685Y-97241433D01*
X196165564Y-97131119D01*
X201155210Y-97131119D01*
X201234315Y-97322567D01*
X201380662Y-97469170D01*
X201571972Y-97548609D01*
X201779119Y-97548790D01*
X201970567Y-97469685D01*
X202117170Y-97323338D01*
X202196609Y-97132028D01*
X202196790Y-96924881D01*
X202117685Y-96733433D01*
X201971338Y-96586830D01*
X201780028Y-96507391D01*
X201572881Y-96507210D01*
X201381433Y-96586315D01*
X201234830Y-96732662D01*
X201155391Y-96923972D01*
X201155210Y-97131119D01*
X196165564Y-97131119D01*
X196129338Y-97094830D01*
X195938028Y-97015391D01*
X195730881Y-97015210D01*
X195539433Y-97094315D01*
X195392830Y-97240662D01*
X195313391Y-97431972D01*
X195313210Y-97639119D01*
X170572500Y-97639119D01*
X170572500Y-96379180D01*
X190436401Y-96379180D01*
X190523224Y-96589306D01*
X190683849Y-96750211D01*
X190893823Y-96837400D01*
X191121180Y-96837599D01*
X191331306Y-96750776D01*
X191492211Y-96590151D01*
X191579400Y-96380177D01*
X191579599Y-96152820D01*
X191492776Y-95942694D01*
X191399333Y-95849088D01*
X191449170Y-95799338D01*
X191528609Y-95608028D01*
X191528790Y-95400881D01*
X191449685Y-95209433D01*
X191303338Y-95062830D01*
X191112028Y-94983391D01*
X190904881Y-94983210D01*
X190713433Y-95062315D01*
X190566830Y-95208662D01*
X190487391Y-95399972D01*
X190487210Y-95607119D01*
X190566315Y-95798567D01*
X190616730Y-95849070D01*
X190523789Y-95941849D01*
X190436600Y-96151823D01*
X190436401Y-96379180D01*
X170572500Y-96379180D01*
X170572500Y-95607119D01*
X178549210Y-95607119D01*
X178628315Y-95798567D01*
X178774662Y-95945170D01*
X178965972Y-96024609D01*
X179173119Y-96024790D01*
X179364567Y-95945685D01*
X179511170Y-95799338D01*
X179590609Y-95608028D01*
X179590790Y-95400881D01*
X179511685Y-95209433D01*
X179365338Y-95062830D01*
X179174028Y-94983391D01*
X178966881Y-94983210D01*
X178775433Y-95062315D01*
X178628830Y-95208662D01*
X178549391Y-95399972D01*
X178549210Y-95607119D01*
X170572500Y-95607119D01*
X170572500Y-93829119D01*
X170929210Y-93829119D01*
X171008315Y-94020567D01*
X171154662Y-94167170D01*
X171345972Y-94246609D01*
X171553119Y-94246790D01*
X171744567Y-94167685D01*
X171891170Y-94021338D01*
X171970609Y-93830028D01*
X171970790Y-93622881D01*
X171951056Y-93575119D01*
X176771210Y-93575119D01*
X176850315Y-93766567D01*
X176996662Y-93913170D01*
X177187972Y-93992609D01*
X177395119Y-93992790D01*
X177586567Y-93913685D01*
X177733170Y-93767338D01*
X177812609Y-93576028D01*
X177812609Y-93575119D01*
X189979210Y-93575119D01*
X190058315Y-93766567D01*
X190204662Y-93913170D01*
X190395972Y-93992609D01*
X190603119Y-93992790D01*
X190794567Y-93913685D01*
X190941170Y-93767338D01*
X191020609Y-93576028D01*
X191020609Y-93575119D01*
X201155210Y-93575119D01*
X201234315Y-93766567D01*
X201380662Y-93913170D01*
X201571972Y-93992609D01*
X201779119Y-93992790D01*
X201970567Y-93913685D01*
X202117170Y-93767338D01*
X202196609Y-93576028D01*
X202196790Y-93368881D01*
X202117685Y-93177433D01*
X201971338Y-93030830D01*
X201780028Y-92951391D01*
X201572881Y-92951210D01*
X201381433Y-93030315D01*
X201234830Y-93176662D01*
X201155391Y-93367972D01*
X201155210Y-93575119D01*
X191020609Y-93575119D01*
X191020790Y-93368881D01*
X190941685Y-93177433D01*
X190831564Y-93067119D01*
X191249210Y-93067119D01*
X191328315Y-93258567D01*
X191474662Y-93405170D01*
X191665972Y-93484609D01*
X191873119Y-93484790D01*
X192064567Y-93405685D01*
X192211170Y-93259338D01*
X192290609Y-93068028D01*
X192290609Y-93067119D01*
X197091210Y-93067119D01*
X197170315Y-93258567D01*
X197316662Y-93405170D01*
X197507972Y-93484609D01*
X197715119Y-93484790D01*
X197906567Y-93405685D01*
X198053170Y-93259338D01*
X198132609Y-93068028D01*
X198132790Y-92860881D01*
X198053685Y-92669433D01*
X197907338Y-92522830D01*
X197716028Y-92443391D01*
X197508881Y-92443210D01*
X197317433Y-92522315D01*
X197170830Y-92668662D01*
X197091391Y-92859972D01*
X197091210Y-93067119D01*
X192290609Y-93067119D01*
X192290790Y-92860881D01*
X192211685Y-92669433D01*
X192065338Y-92522830D01*
X191874028Y-92443391D01*
X191666881Y-92443210D01*
X191475433Y-92522315D01*
X191328830Y-92668662D01*
X191249391Y-92859972D01*
X191249210Y-93067119D01*
X190831564Y-93067119D01*
X190795338Y-93030830D01*
X190604028Y-92951391D01*
X190396881Y-92951210D01*
X190205433Y-93030315D01*
X190058830Y-93176662D01*
X189979391Y-93367972D01*
X189979210Y-93575119D01*
X177812609Y-93575119D01*
X177812790Y-93368881D01*
X177733685Y-93177433D01*
X177587338Y-93030830D01*
X177396028Y-92951391D01*
X177188881Y-92951210D01*
X176997433Y-93030315D01*
X176850830Y-93176662D01*
X176771391Y-93367972D01*
X176771210Y-93575119D01*
X171951056Y-93575119D01*
X171891685Y-93431433D01*
X171745338Y-93284830D01*
X171554028Y-93205391D01*
X171346881Y-93205210D01*
X171155433Y-93284315D01*
X171008830Y-93430662D01*
X170929391Y-93621972D01*
X170929210Y-93829119D01*
X170572500Y-93829119D01*
X170572500Y-92051119D01*
X174739210Y-92051119D01*
X174818315Y-92242567D01*
X174964662Y-92389170D01*
X175155972Y-92468609D01*
X175363119Y-92468790D01*
X175554567Y-92389685D01*
X175701170Y-92243338D01*
X175780609Y-92052028D01*
X175780609Y-92051119D01*
X176009210Y-92051119D01*
X176088315Y-92242567D01*
X176234662Y-92389170D01*
X176425972Y-92468609D01*
X176633119Y-92468790D01*
X176824567Y-92389685D01*
X176899202Y-92315180D01*
X180530401Y-92315180D01*
X180617224Y-92525306D01*
X180777849Y-92686211D01*
X180987823Y-92773400D01*
X181215180Y-92773599D01*
X181425306Y-92686776D01*
X181586211Y-92526151D01*
X181673400Y-92316177D01*
X181673599Y-92088820D01*
X181586776Y-91878694D01*
X181426151Y-91717789D01*
X181216177Y-91630600D01*
X180988820Y-91630401D01*
X180778694Y-91717224D01*
X180617789Y-91877849D01*
X180530600Y-92087823D01*
X180530401Y-92315180D01*
X176899202Y-92315180D01*
X176971170Y-92243338D01*
X177050609Y-92052028D01*
X177050790Y-91844881D01*
X176971685Y-91653433D01*
X176825338Y-91506830D01*
X176634028Y-91427391D01*
X176426881Y-91427210D01*
X176235433Y-91506315D01*
X176088830Y-91652662D01*
X176009391Y-91843972D01*
X176009210Y-92051119D01*
X175780609Y-92051119D01*
X175780790Y-91844881D01*
X175701685Y-91653433D01*
X175555338Y-91506830D01*
X175364028Y-91427391D01*
X175156881Y-91427210D01*
X174965433Y-91506315D01*
X174818830Y-91652662D01*
X174739391Y-91843972D01*
X174739210Y-92051119D01*
X170572500Y-92051119D01*
X170572500Y-91543119D01*
X170929210Y-91543119D01*
X171008315Y-91734567D01*
X171154662Y-91881170D01*
X171345972Y-91960609D01*
X171553119Y-91960790D01*
X171744567Y-91881685D01*
X171891170Y-91735338D01*
X171970609Y-91544028D01*
X171970790Y-91336881D01*
X171891685Y-91145433D01*
X171745338Y-90998830D01*
X171554028Y-90919391D01*
X171346881Y-90919210D01*
X171155433Y-90998315D01*
X171008830Y-91144662D01*
X170929391Y-91335972D01*
X170929210Y-91543119D01*
X170572500Y-91543119D01*
X170572500Y-90283180D01*
X187705901Y-90283180D01*
X187792724Y-90493306D01*
X187953349Y-90654211D01*
X188163323Y-90741400D01*
X188390680Y-90741599D01*
X188600806Y-90654776D01*
X188728685Y-90527119D01*
X191757210Y-90527119D01*
X191836315Y-90718567D01*
X191982662Y-90865170D01*
X192173972Y-90944609D01*
X192381119Y-90944790D01*
X192572567Y-90865685D01*
X192719170Y-90719338D01*
X192798609Y-90528028D01*
X192798790Y-90320881D01*
X192719685Y-90129433D01*
X192573338Y-89982830D01*
X192382028Y-89903391D01*
X192174881Y-89903210D01*
X191983433Y-89982315D01*
X191836830Y-90128662D01*
X191757391Y-90319972D01*
X191757210Y-90527119D01*
X188728685Y-90527119D01*
X188761711Y-90494151D01*
X188848900Y-90284177D01*
X188849099Y-90056820D01*
X188762276Y-89846694D01*
X188601651Y-89685789D01*
X188391677Y-89598600D01*
X188164320Y-89598401D01*
X187954194Y-89685224D01*
X187793289Y-89845849D01*
X187706100Y-90055823D01*
X187705901Y-90283180D01*
X170572500Y-90283180D01*
X170572500Y-87843784D01*
X175450313Y-87843784D01*
X175614311Y-88240689D01*
X175917714Y-88544622D01*
X176314332Y-88709313D01*
X176743784Y-88709687D01*
X177140689Y-88545689D01*
X177444622Y-88242286D01*
X177609313Y-87845668D01*
X177609314Y-87843784D01*
X177990313Y-87843784D01*
X178154311Y-88240689D01*
X178457714Y-88544622D01*
X178854332Y-88709313D01*
X179283784Y-88709687D01*
X179680689Y-88545689D01*
X179984622Y-88242286D01*
X180149313Y-87845668D01*
X180149314Y-87843784D01*
X180530313Y-87843784D01*
X180694311Y-88240689D01*
X180997714Y-88544622D01*
X181394332Y-88709313D01*
X181823784Y-88709687D01*
X182220689Y-88545689D01*
X182524622Y-88242286D01*
X182689313Y-87845668D01*
X182689314Y-87843784D01*
X183070313Y-87843784D01*
X183234311Y-88240689D01*
X183537714Y-88544622D01*
X183934332Y-88709313D01*
X184363784Y-88709687D01*
X184760689Y-88545689D01*
X185064622Y-88242286D01*
X185229313Y-87845668D01*
X185229314Y-87843784D01*
X185610313Y-87843784D01*
X185774311Y-88240689D01*
X186077714Y-88544622D01*
X186474332Y-88709313D01*
X186903784Y-88709687D01*
X187300689Y-88545689D01*
X187604622Y-88242286D01*
X187769313Y-87845668D01*
X187769314Y-87843784D01*
X188150313Y-87843784D01*
X188314311Y-88240689D01*
X188617714Y-88544622D01*
X189014332Y-88709313D01*
X189443784Y-88709687D01*
X189840689Y-88545689D01*
X190144622Y-88242286D01*
X190309313Y-87845668D01*
X190309314Y-87843784D01*
X190690313Y-87843784D01*
X190854311Y-88240689D01*
X191157714Y-88544622D01*
X191554332Y-88709313D01*
X191983784Y-88709687D01*
X192380689Y-88545689D01*
X192684622Y-88242286D01*
X192849313Y-87845668D01*
X192849314Y-87843784D01*
X193230313Y-87843784D01*
X193394311Y-88240689D01*
X193697714Y-88544622D01*
X194094332Y-88709313D01*
X194523784Y-88709687D01*
X194920689Y-88545689D01*
X195224622Y-88242286D01*
X195389313Y-87845668D01*
X195389314Y-87843784D01*
X195770313Y-87843784D01*
X195934311Y-88240689D01*
X196237714Y-88544622D01*
X196634332Y-88709313D01*
X197063784Y-88709687D01*
X197460689Y-88545689D01*
X197764622Y-88242286D01*
X197929313Y-87845668D01*
X197929687Y-87416216D01*
X197765689Y-87019311D01*
X197462286Y-86715378D01*
X197065668Y-86550687D01*
X196636216Y-86550313D01*
X196239311Y-86714311D01*
X195935378Y-87017714D01*
X195770687Y-87414332D01*
X195770313Y-87843784D01*
X195389314Y-87843784D01*
X195389687Y-87416216D01*
X195225689Y-87019311D01*
X194922286Y-86715378D01*
X194525668Y-86550687D01*
X194096216Y-86550313D01*
X193699311Y-86714311D01*
X193395378Y-87017714D01*
X193230687Y-87414332D01*
X193230313Y-87843784D01*
X192849314Y-87843784D01*
X192849687Y-87416216D01*
X192685689Y-87019311D01*
X192382286Y-86715378D01*
X191985668Y-86550687D01*
X191556216Y-86550313D01*
X191159311Y-86714311D01*
X190855378Y-87017714D01*
X190690687Y-87414332D01*
X190690313Y-87843784D01*
X190309314Y-87843784D01*
X190309687Y-87416216D01*
X190145689Y-87019311D01*
X189842286Y-86715378D01*
X189445668Y-86550687D01*
X189016216Y-86550313D01*
X188619311Y-86714311D01*
X188315378Y-87017714D01*
X188150687Y-87414332D01*
X188150313Y-87843784D01*
X187769314Y-87843784D01*
X187769687Y-87416216D01*
X187605689Y-87019311D01*
X187302286Y-86715378D01*
X186905668Y-86550687D01*
X186476216Y-86550313D01*
X186079311Y-86714311D01*
X185775378Y-87017714D01*
X185610687Y-87414332D01*
X185610313Y-87843784D01*
X185229314Y-87843784D01*
X185229687Y-87416216D01*
X185065689Y-87019311D01*
X184762286Y-86715378D01*
X184365668Y-86550687D01*
X183936216Y-86550313D01*
X183539311Y-86714311D01*
X183235378Y-87017714D01*
X183070687Y-87414332D01*
X183070313Y-87843784D01*
X182689314Y-87843784D01*
X182689687Y-87416216D01*
X182525689Y-87019311D01*
X182222286Y-86715378D01*
X181825668Y-86550687D01*
X181396216Y-86550313D01*
X180999311Y-86714311D01*
X180695378Y-87017714D01*
X180530687Y-87414332D01*
X180530313Y-87843784D01*
X180149314Y-87843784D01*
X180149687Y-87416216D01*
X179985689Y-87019311D01*
X179682286Y-86715378D01*
X179285668Y-86550687D01*
X178856216Y-86550313D01*
X178459311Y-86714311D01*
X178155378Y-87017714D01*
X177990687Y-87414332D01*
X177990313Y-87843784D01*
X177609314Y-87843784D01*
X177609687Y-87416216D01*
X177445689Y-87019311D01*
X177142286Y-86715378D01*
X176745668Y-86550687D01*
X176316216Y-86550313D01*
X175919311Y-86714311D01*
X175615378Y-87017714D01*
X175450687Y-87414332D01*
X175450313Y-87843784D01*
X170572500Y-87843784D01*
X170572500Y-85482500D01*
X202807500Y-85482500D01*
X202807500Y-107557500D01*
X202807500Y-107557500D01*
G37*
X202807500Y-107557500D02*
X170572500Y-107557500D01*
X170572500Y-106783119D01*
X170929210Y-106783119D01*
X171008315Y-106974567D01*
X171154662Y-107121170D01*
X171345972Y-107200609D01*
X171553119Y-107200790D01*
X171744567Y-107121685D01*
X171891170Y-106975338D01*
X171970609Y-106784028D01*
X171970790Y-106576881D01*
X171891685Y-106385433D01*
X171745338Y-106238830D01*
X171554028Y-106159391D01*
X171346881Y-106159210D01*
X171155433Y-106238315D01*
X171008830Y-106384662D01*
X170929391Y-106575972D01*
X170929210Y-106783119D01*
X170572500Y-106783119D01*
X170572500Y-105623784D01*
X175450313Y-105623784D01*
X175614311Y-106020689D01*
X175917714Y-106324622D01*
X176314332Y-106489313D01*
X176743784Y-106489687D01*
X177140689Y-106325689D01*
X177444622Y-106022286D01*
X177609313Y-105625668D01*
X177609314Y-105623784D01*
X177990313Y-105623784D01*
X178154311Y-106020689D01*
X178457714Y-106324622D01*
X178854332Y-106489313D01*
X179283784Y-106489687D01*
X179680689Y-106325689D01*
X179984622Y-106022286D01*
X180149313Y-105625668D01*
X180149314Y-105623784D01*
X180530313Y-105623784D01*
X180694311Y-106020689D01*
X180997714Y-106324622D01*
X181394332Y-106489313D01*
X181823784Y-106489687D01*
X182220689Y-106325689D01*
X182524622Y-106022286D01*
X182689313Y-105625668D01*
X182689314Y-105623784D01*
X183070313Y-105623784D01*
X183234311Y-106020689D01*
X183537714Y-106324622D01*
X183934332Y-106489313D01*
X184363784Y-106489687D01*
X184760689Y-106325689D01*
X185064622Y-106022286D01*
X185229313Y-105625668D01*
X185229314Y-105623784D01*
X185610313Y-105623784D01*
X185774311Y-106020689D01*
X186077714Y-106324622D01*
X186474332Y-106489313D01*
X186903784Y-106489687D01*
X187300689Y-106325689D01*
X187604622Y-106022286D01*
X187769313Y-105625668D01*
X187769314Y-105623784D01*
X188150313Y-105623784D01*
X188314311Y-106020689D01*
X188617714Y-106324622D01*
X189014332Y-106489313D01*
X189443784Y-106489687D01*
X189840689Y-106325689D01*
X190144622Y-106022286D01*
X190309313Y-105625668D01*
X190309314Y-105623784D01*
X190690313Y-105623784D01*
X190854311Y-106020689D01*
X191157714Y-106324622D01*
X191554332Y-106489313D01*
X191983784Y-106489687D01*
X192380689Y-106325689D01*
X192684622Y-106022286D01*
X192849313Y-105625668D01*
X192849314Y-105623784D01*
X193230313Y-105623784D01*
X193394311Y-106020689D01*
X193697714Y-106324622D01*
X194094332Y-106489313D01*
X194523784Y-106489687D01*
X194920689Y-106325689D01*
X195224622Y-106022286D01*
X195389313Y-105625668D01*
X195389314Y-105623784D01*
X195770313Y-105623784D01*
X195934311Y-106020689D01*
X196237714Y-106324622D01*
X196634332Y-106489313D01*
X197063784Y-106489687D01*
X197460689Y-106325689D01*
X197764622Y-106022286D01*
X197929313Y-105625668D01*
X197929687Y-105196216D01*
X197765689Y-104799311D01*
X197462286Y-104495378D01*
X197065668Y-104330687D01*
X196636216Y-104330313D01*
X196239311Y-104494311D01*
X195935378Y-104797714D01*
X195770687Y-105194332D01*
X195770313Y-105623784D01*
X195389314Y-105623784D01*
X195389687Y-105196216D01*
X195225689Y-104799311D01*
X194922286Y-104495378D01*
X194525668Y-104330687D01*
X194096216Y-104330313D01*
X193699311Y-104494311D01*
X193395378Y-104797714D01*
X193230687Y-105194332D01*
X193230313Y-105623784D01*
X192849314Y-105623784D01*
X192849687Y-105196216D01*
X192685689Y-104799311D01*
X192382286Y-104495378D01*
X191985668Y-104330687D01*
X191556216Y-104330313D01*
X191159311Y-104494311D01*
X190855378Y-104797714D01*
X190690687Y-105194332D01*
X190690313Y-105623784D01*
X190309314Y-105623784D01*
X190309687Y-105196216D01*
X190145689Y-104799311D01*
X189842286Y-104495378D01*
X189445668Y-104330687D01*
X189016216Y-104330313D01*
X188619311Y-104494311D01*
X188315378Y-104797714D01*
X188150687Y-105194332D01*
X188150313Y-105623784D01*
X187769314Y-105623784D01*
X187769687Y-105196216D01*
X187605689Y-104799311D01*
X187302286Y-104495378D01*
X186905668Y-104330687D01*
X186476216Y-104330313D01*
X186079311Y-104494311D01*
X185775378Y-104797714D01*
X185610687Y-105194332D01*
X185610313Y-105623784D01*
X185229314Y-105623784D01*
X185229687Y-105196216D01*
X185065689Y-104799311D01*
X184762286Y-104495378D01*
X184365668Y-104330687D01*
X183936216Y-104330313D01*
X183539311Y-104494311D01*
X183235378Y-104797714D01*
X183070687Y-105194332D01*
X183070313Y-105623784D01*
X182689314Y-105623784D01*
X182689687Y-105196216D01*
X182525689Y-104799311D01*
X182222286Y-104495378D01*
X181825668Y-104330687D01*
X181396216Y-104330313D01*
X180999311Y-104494311D01*
X180695378Y-104797714D01*
X180530687Y-105194332D01*
X180530313Y-105623784D01*
X180149314Y-105623784D01*
X180149687Y-105196216D01*
X179985689Y-104799311D01*
X179682286Y-104495378D01*
X179285668Y-104330687D01*
X178856216Y-104330313D01*
X178459311Y-104494311D01*
X178155378Y-104797714D01*
X177990687Y-105194332D01*
X177990313Y-105623784D01*
X177609314Y-105623784D01*
X177609687Y-105196216D01*
X177445689Y-104799311D01*
X177142286Y-104495378D01*
X176745668Y-104330687D01*
X176316216Y-104330313D01*
X175919311Y-104494311D01*
X175615378Y-104797714D01*
X175450687Y-105194332D01*
X175450313Y-105623784D01*
X170572500Y-105623784D01*
X170572500Y-102973119D01*
X180835210Y-102973119D01*
X180914315Y-103164567D01*
X181060662Y-103311170D01*
X181251972Y-103390609D01*
X181459119Y-103390790D01*
X181650567Y-103311685D01*
X181797170Y-103165338D01*
X181876609Y-102974028D01*
X181876656Y-102919680D01*
X185483401Y-102919680D01*
X185570224Y-103129806D01*
X185730849Y-103290711D01*
X185940823Y-103377900D01*
X186168180Y-103378099D01*
X186378306Y-103291276D01*
X186539211Y-103130651D01*
X186626400Y-102920677D01*
X186626599Y-102693320D01*
X186539776Y-102483194D01*
X186379151Y-102322289D01*
X186169177Y-102235100D01*
X185941820Y-102234901D01*
X185731694Y-102321724D01*
X185570789Y-102482349D01*
X185483600Y-102692323D01*
X185483401Y-102919680D01*
X181876656Y-102919680D01*
X181876790Y-102766881D01*
X181797685Y-102575433D01*
X181651338Y-102428830D01*
X181460028Y-102349391D01*
X181252881Y-102349210D01*
X181061433Y-102428315D01*
X180914830Y-102574662D01*
X180835391Y-102765972D01*
X180835210Y-102973119D01*
X170572500Y-102973119D01*
X170572500Y-102465119D01*
X178549210Y-102465119D01*
X178628315Y-102656567D01*
X178774662Y-102803170D01*
X178965972Y-102882609D01*
X179173119Y-102882790D01*
X179364567Y-102803685D01*
X179511170Y-102657338D01*
X179590609Y-102466028D01*
X179590790Y-102258881D01*
X179522737Y-102094180D01*
X186499401Y-102094180D01*
X186586224Y-102304306D01*
X186746849Y-102465211D01*
X186956823Y-102552400D01*
X187184180Y-102552599D01*
X187394306Y-102465776D01*
X187555211Y-102305151D01*
X187642400Y-102095177D01*
X187642599Y-101867820D01*
X187555776Y-101657694D01*
X187395151Y-101496789D01*
X187185177Y-101409600D01*
X186957820Y-101409401D01*
X186747694Y-101496224D01*
X186586789Y-101656849D01*
X186499600Y-101866823D01*
X186499401Y-102094180D01*
X179522737Y-102094180D01*
X179511685Y-102067433D01*
X179365338Y-101920830D01*
X179174028Y-101841391D01*
X178966881Y-101841210D01*
X178775433Y-101920315D01*
X178628830Y-102066662D01*
X178549391Y-102257972D01*
X178549210Y-102465119D01*
X170572500Y-102465119D01*
X170572500Y-100824180D01*
X186499401Y-100824180D01*
X186586224Y-101034306D01*
X186746849Y-101195211D01*
X186956823Y-101282400D01*
X187184180Y-101282599D01*
X187394306Y-101195776D01*
X187555211Y-101035151D01*
X187642400Y-100825177D01*
X187642599Y-100597820D01*
X187555776Y-100387694D01*
X187395151Y-100226789D01*
X187280350Y-100179119D01*
X191503210Y-100179119D01*
X191582315Y-100370567D01*
X191728662Y-100517170D01*
X191919972Y-100596609D01*
X192127119Y-100596790D01*
X192318567Y-100517685D01*
X192465170Y-100371338D01*
X192544609Y-100180028D01*
X192544609Y-100179119D01*
X197345210Y-100179119D01*
X197424315Y-100370567D01*
X197570662Y-100517170D01*
X197761972Y-100596609D01*
X197969119Y-100596790D01*
X198160567Y-100517685D01*
X198307170Y-100371338D01*
X198386609Y-100180028D01*
X198386790Y-99972881D01*
X198307685Y-99781433D01*
X198161338Y-99634830D01*
X197970028Y-99555391D01*
X197762881Y-99555210D01*
X197571433Y-99634315D01*
X197424830Y-99780662D01*
X197345391Y-99971972D01*
X197345210Y-100179119D01*
X192544609Y-100179119D01*
X192544790Y-99972881D01*
X192465685Y-99781433D01*
X192319338Y-99634830D01*
X192128028Y-99555391D01*
X191920881Y-99555210D01*
X191729433Y-99634315D01*
X191582830Y-99780662D01*
X191503391Y-99971972D01*
X191503210Y-100179119D01*
X187280350Y-100179119D01*
X187185177Y-100139600D01*
X186957820Y-100139401D01*
X186747694Y-100226224D01*
X186586789Y-100386849D01*
X186499600Y-100596823D01*
X186499401Y-100824180D01*
X170572500Y-100824180D01*
X170572500Y-100179119D01*
X177279210Y-100179119D01*
X177358315Y-100370567D01*
X177504662Y-100517170D01*
X177695972Y-100596609D01*
X177903119Y-100596790D01*
X178094567Y-100517685D01*
X178241170Y-100371338D01*
X178320609Y-100180028D01*
X178320790Y-99972881D01*
X178301056Y-99925119D01*
X180835210Y-99925119D01*
X180914315Y-100116567D01*
X181060662Y-100263170D01*
X181251972Y-100342609D01*
X181459119Y-100342790D01*
X181650567Y-100263685D01*
X181797170Y-100117338D01*
X181876609Y-99926028D01*
X181876790Y-99718881D01*
X181797685Y-99527433D01*
X181651338Y-99380830D01*
X181460028Y-99301391D01*
X181252881Y-99301210D01*
X181061433Y-99380315D01*
X180914830Y-99526662D01*
X180835391Y-99717972D01*
X180835210Y-99925119D01*
X178301056Y-99925119D01*
X178241685Y-99781433D01*
X178095338Y-99634830D01*
X177904028Y-99555391D01*
X177696881Y-99555210D01*
X177505433Y-99634315D01*
X177358830Y-99780662D01*
X177279391Y-99971972D01*
X177279210Y-100179119D01*
X170572500Y-100179119D01*
X170572500Y-98528119D01*
X170929210Y-98528119D01*
X171008315Y-98719567D01*
X171154662Y-98866170D01*
X171345972Y-98945609D01*
X171553119Y-98945790D01*
X171744567Y-98866685D01*
X171881811Y-98729680D01*
X171881710Y-98845619D01*
X171960815Y-99037067D01*
X172107162Y-99183670D01*
X172298472Y-99263109D01*
X172505619Y-99263290D01*
X172697067Y-99184185D01*
X172843670Y-99037838D01*
X172897118Y-98909119D01*
X175501210Y-98909119D01*
X175580315Y-99100567D01*
X175726662Y-99247170D01*
X175917972Y-99326609D01*
X176125119Y-99326790D01*
X176316567Y-99247685D01*
X176463170Y-99101338D01*
X176542609Y-98910028D01*
X176542790Y-98702881D01*
X176463685Y-98511433D01*
X176317338Y-98364830D01*
X176126028Y-98285391D01*
X175918881Y-98285210D01*
X175727433Y-98364315D01*
X175580830Y-98510662D01*
X175501391Y-98701972D01*
X175501210Y-98909119D01*
X172897118Y-98909119D01*
X172923109Y-98846528D01*
X172923290Y-98639381D01*
X172844185Y-98447933D01*
X172697838Y-98301330D01*
X172506528Y-98221891D01*
X172299381Y-98221710D01*
X172107933Y-98300815D01*
X171970689Y-98437820D01*
X171970790Y-98321881D01*
X171891685Y-98130433D01*
X171745338Y-97983830D01*
X171554028Y-97904391D01*
X171346881Y-97904210D01*
X171155433Y-97983315D01*
X171008830Y-98129662D01*
X170929391Y-98320972D01*
X170929210Y-98528119D01*
X170572500Y-98528119D01*
X170572500Y-97639119D01*
X195313210Y-97639119D01*
X195392315Y-97830567D01*
X195538662Y-97977170D01*
X195729972Y-98056609D01*
X195937119Y-98056790D01*
X196128567Y-97977685D01*
X196275170Y-97831338D01*
X196354609Y-97640028D01*
X196354790Y-97432881D01*
X196275685Y-97241433D01*
X196165564Y-97131119D01*
X201155210Y-97131119D01*
X201234315Y-97322567D01*
X201380662Y-97469170D01*
X201571972Y-97548609D01*
X201779119Y-97548790D01*
X201970567Y-97469685D01*
X202117170Y-97323338D01*
X202196609Y-97132028D01*
X202196790Y-96924881D01*
X202117685Y-96733433D01*
X201971338Y-96586830D01*
X201780028Y-96507391D01*
X201572881Y-96507210D01*
X201381433Y-96586315D01*
X201234830Y-96732662D01*
X201155391Y-96923972D01*
X201155210Y-97131119D01*
X196165564Y-97131119D01*
X196129338Y-97094830D01*
X195938028Y-97015391D01*
X195730881Y-97015210D01*
X195539433Y-97094315D01*
X195392830Y-97240662D01*
X195313391Y-97431972D01*
X195313210Y-97639119D01*
X170572500Y-97639119D01*
X170572500Y-96379180D01*
X190436401Y-96379180D01*
X190523224Y-96589306D01*
X190683849Y-96750211D01*
X190893823Y-96837400D01*
X191121180Y-96837599D01*
X191331306Y-96750776D01*
X191492211Y-96590151D01*
X191579400Y-96380177D01*
X191579599Y-96152820D01*
X191492776Y-95942694D01*
X191399333Y-95849088D01*
X191449170Y-95799338D01*
X191528609Y-95608028D01*
X191528790Y-95400881D01*
X191449685Y-95209433D01*
X191303338Y-95062830D01*
X191112028Y-94983391D01*
X190904881Y-94983210D01*
X190713433Y-95062315D01*
X190566830Y-95208662D01*
X190487391Y-95399972D01*
X190487210Y-95607119D01*
X190566315Y-95798567D01*
X190616730Y-95849070D01*
X190523789Y-95941849D01*
X190436600Y-96151823D01*
X190436401Y-96379180D01*
X170572500Y-96379180D01*
X170572500Y-95607119D01*
X178549210Y-95607119D01*
X178628315Y-95798567D01*
X178774662Y-95945170D01*
X178965972Y-96024609D01*
X179173119Y-96024790D01*
X179364567Y-95945685D01*
X179511170Y-95799338D01*
X179590609Y-95608028D01*
X179590790Y-95400881D01*
X179511685Y-95209433D01*
X179365338Y-95062830D01*
X179174028Y-94983391D01*
X178966881Y-94983210D01*
X178775433Y-95062315D01*
X178628830Y-95208662D01*
X178549391Y-95399972D01*
X178549210Y-95607119D01*
X170572500Y-95607119D01*
X170572500Y-93829119D01*
X170929210Y-93829119D01*
X171008315Y-94020567D01*
X171154662Y-94167170D01*
X171345972Y-94246609D01*
X171553119Y-94246790D01*
X171744567Y-94167685D01*
X171891170Y-94021338D01*
X171970609Y-93830028D01*
X171970790Y-93622881D01*
X171951056Y-93575119D01*
X176771210Y-93575119D01*
X176850315Y-93766567D01*
X176996662Y-93913170D01*
X177187972Y-93992609D01*
X177395119Y-93992790D01*
X177586567Y-93913685D01*
X177733170Y-93767338D01*
X177812609Y-93576028D01*
X177812609Y-93575119D01*
X189979210Y-93575119D01*
X190058315Y-93766567D01*
X190204662Y-93913170D01*
X190395972Y-93992609D01*
X190603119Y-93992790D01*
X190794567Y-93913685D01*
X190941170Y-93767338D01*
X191020609Y-93576028D01*
X191020609Y-93575119D01*
X201155210Y-93575119D01*
X201234315Y-93766567D01*
X201380662Y-93913170D01*
X201571972Y-93992609D01*
X201779119Y-93992790D01*
X201970567Y-93913685D01*
X202117170Y-93767338D01*
X202196609Y-93576028D01*
X202196790Y-93368881D01*
X202117685Y-93177433D01*
X201971338Y-93030830D01*
X201780028Y-92951391D01*
X201572881Y-92951210D01*
X201381433Y-93030315D01*
X201234830Y-93176662D01*
X201155391Y-93367972D01*
X201155210Y-93575119D01*
X191020609Y-93575119D01*
X191020790Y-93368881D01*
X190941685Y-93177433D01*
X190831564Y-93067119D01*
X191249210Y-93067119D01*
X191328315Y-93258567D01*
X191474662Y-93405170D01*
X191665972Y-93484609D01*
X191873119Y-93484790D01*
X192064567Y-93405685D01*
X192211170Y-93259338D01*
X192290609Y-93068028D01*
X192290609Y-93067119D01*
X197091210Y-93067119D01*
X197170315Y-93258567D01*
X197316662Y-93405170D01*
X197507972Y-93484609D01*
X197715119Y-93484790D01*
X197906567Y-93405685D01*
X198053170Y-93259338D01*
X198132609Y-93068028D01*
X198132790Y-92860881D01*
X198053685Y-92669433D01*
X197907338Y-92522830D01*
X197716028Y-92443391D01*
X197508881Y-92443210D01*
X197317433Y-92522315D01*
X197170830Y-92668662D01*
X197091391Y-92859972D01*
X197091210Y-93067119D01*
X192290609Y-93067119D01*
X192290790Y-92860881D01*
X192211685Y-92669433D01*
X192065338Y-92522830D01*
X191874028Y-92443391D01*
X191666881Y-92443210D01*
X191475433Y-92522315D01*
X191328830Y-92668662D01*
X191249391Y-92859972D01*
X191249210Y-93067119D01*
X190831564Y-93067119D01*
X190795338Y-93030830D01*
X190604028Y-92951391D01*
X190396881Y-92951210D01*
X190205433Y-93030315D01*
X190058830Y-93176662D01*
X189979391Y-93367972D01*
X189979210Y-93575119D01*
X177812609Y-93575119D01*
X177812790Y-93368881D01*
X177733685Y-93177433D01*
X177587338Y-93030830D01*
X177396028Y-92951391D01*
X177188881Y-92951210D01*
X176997433Y-93030315D01*
X176850830Y-93176662D01*
X176771391Y-93367972D01*
X176771210Y-93575119D01*
X171951056Y-93575119D01*
X171891685Y-93431433D01*
X171745338Y-93284830D01*
X171554028Y-93205391D01*
X171346881Y-93205210D01*
X171155433Y-93284315D01*
X171008830Y-93430662D01*
X170929391Y-93621972D01*
X170929210Y-93829119D01*
X170572500Y-93829119D01*
X170572500Y-92051119D01*
X174739210Y-92051119D01*
X174818315Y-92242567D01*
X174964662Y-92389170D01*
X175155972Y-92468609D01*
X175363119Y-92468790D01*
X175554567Y-92389685D01*
X175701170Y-92243338D01*
X175780609Y-92052028D01*
X175780609Y-92051119D01*
X176009210Y-92051119D01*
X176088315Y-92242567D01*
X176234662Y-92389170D01*
X176425972Y-92468609D01*
X176633119Y-92468790D01*
X176824567Y-92389685D01*
X176899202Y-92315180D01*
X180530401Y-92315180D01*
X180617224Y-92525306D01*
X180777849Y-92686211D01*
X180987823Y-92773400D01*
X181215180Y-92773599D01*
X181425306Y-92686776D01*
X181586211Y-92526151D01*
X181673400Y-92316177D01*
X181673599Y-92088820D01*
X181586776Y-91878694D01*
X181426151Y-91717789D01*
X181216177Y-91630600D01*
X180988820Y-91630401D01*
X180778694Y-91717224D01*
X180617789Y-91877849D01*
X180530600Y-92087823D01*
X180530401Y-92315180D01*
X176899202Y-92315180D01*
X176971170Y-92243338D01*
X177050609Y-92052028D01*
X177050790Y-91844881D01*
X176971685Y-91653433D01*
X176825338Y-91506830D01*
X176634028Y-91427391D01*
X176426881Y-91427210D01*
X176235433Y-91506315D01*
X176088830Y-91652662D01*
X176009391Y-91843972D01*
X176009210Y-92051119D01*
X175780609Y-92051119D01*
X175780790Y-91844881D01*
X175701685Y-91653433D01*
X175555338Y-91506830D01*
X175364028Y-91427391D01*
X175156881Y-91427210D01*
X174965433Y-91506315D01*
X174818830Y-91652662D01*
X174739391Y-91843972D01*
X174739210Y-92051119D01*
X170572500Y-92051119D01*
X170572500Y-91543119D01*
X170929210Y-91543119D01*
X171008315Y-91734567D01*
X171154662Y-91881170D01*
X171345972Y-91960609D01*
X171553119Y-91960790D01*
X171744567Y-91881685D01*
X171891170Y-91735338D01*
X171970609Y-91544028D01*
X171970790Y-91336881D01*
X171891685Y-91145433D01*
X171745338Y-90998830D01*
X171554028Y-90919391D01*
X171346881Y-90919210D01*
X171155433Y-90998315D01*
X171008830Y-91144662D01*
X170929391Y-91335972D01*
X170929210Y-91543119D01*
X170572500Y-91543119D01*
X170572500Y-90283180D01*
X187705901Y-90283180D01*
X187792724Y-90493306D01*
X187953349Y-90654211D01*
X188163323Y-90741400D01*
X188390680Y-90741599D01*
X188600806Y-90654776D01*
X188728685Y-90527119D01*
X191757210Y-90527119D01*
X191836315Y-90718567D01*
X191982662Y-90865170D01*
X192173972Y-90944609D01*
X192381119Y-90944790D01*
X192572567Y-90865685D01*
X192719170Y-90719338D01*
X192798609Y-90528028D01*
X192798790Y-90320881D01*
X192719685Y-90129433D01*
X192573338Y-89982830D01*
X192382028Y-89903391D01*
X192174881Y-89903210D01*
X191983433Y-89982315D01*
X191836830Y-90128662D01*
X191757391Y-90319972D01*
X191757210Y-90527119D01*
X188728685Y-90527119D01*
X188761711Y-90494151D01*
X188848900Y-90284177D01*
X188849099Y-90056820D01*
X188762276Y-89846694D01*
X188601651Y-89685789D01*
X188391677Y-89598600D01*
X188164320Y-89598401D01*
X187954194Y-89685224D01*
X187793289Y-89845849D01*
X187706100Y-90055823D01*
X187705901Y-90283180D01*
X170572500Y-90283180D01*
X170572500Y-87843784D01*
X175450313Y-87843784D01*
X175614311Y-88240689D01*
X175917714Y-88544622D01*
X176314332Y-88709313D01*
X176743784Y-88709687D01*
X177140689Y-88545689D01*
X177444622Y-88242286D01*
X177609313Y-87845668D01*
X177609314Y-87843784D01*
X177990313Y-87843784D01*
X178154311Y-88240689D01*
X178457714Y-88544622D01*
X178854332Y-88709313D01*
X179283784Y-88709687D01*
X179680689Y-88545689D01*
X179984622Y-88242286D01*
X180149313Y-87845668D01*
X180149314Y-87843784D01*
X180530313Y-87843784D01*
X180694311Y-88240689D01*
X180997714Y-88544622D01*
X181394332Y-88709313D01*
X181823784Y-88709687D01*
X182220689Y-88545689D01*
X182524622Y-88242286D01*
X182689313Y-87845668D01*
X182689314Y-87843784D01*
X183070313Y-87843784D01*
X183234311Y-88240689D01*
X183537714Y-88544622D01*
X183934332Y-88709313D01*
X184363784Y-88709687D01*
X184760689Y-88545689D01*
X185064622Y-88242286D01*
X185229313Y-87845668D01*
X185229314Y-87843784D01*
X185610313Y-87843784D01*
X185774311Y-88240689D01*
X186077714Y-88544622D01*
X186474332Y-88709313D01*
X186903784Y-88709687D01*
X187300689Y-88545689D01*
X187604622Y-88242286D01*
X187769313Y-87845668D01*
X187769314Y-87843784D01*
X188150313Y-87843784D01*
X188314311Y-88240689D01*
X188617714Y-88544622D01*
X189014332Y-88709313D01*
X189443784Y-88709687D01*
X189840689Y-88545689D01*
X190144622Y-88242286D01*
X190309313Y-87845668D01*
X190309314Y-87843784D01*
X190690313Y-87843784D01*
X190854311Y-88240689D01*
X191157714Y-88544622D01*
X191554332Y-88709313D01*
X191983784Y-88709687D01*
X192380689Y-88545689D01*
X192684622Y-88242286D01*
X192849313Y-87845668D01*
X192849314Y-87843784D01*
X193230313Y-87843784D01*
X193394311Y-88240689D01*
X193697714Y-88544622D01*
X194094332Y-88709313D01*
X194523784Y-88709687D01*
X194920689Y-88545689D01*
X195224622Y-88242286D01*
X195389313Y-87845668D01*
X195389314Y-87843784D01*
X195770313Y-87843784D01*
X195934311Y-88240689D01*
X196237714Y-88544622D01*
X196634332Y-88709313D01*
X197063784Y-88709687D01*
X197460689Y-88545689D01*
X197764622Y-88242286D01*
X197929313Y-87845668D01*
X197929687Y-87416216D01*
X197765689Y-87019311D01*
X197462286Y-86715378D01*
X197065668Y-86550687D01*
X196636216Y-86550313D01*
X196239311Y-86714311D01*
X195935378Y-87017714D01*
X195770687Y-87414332D01*
X195770313Y-87843784D01*
X195389314Y-87843784D01*
X195389687Y-87416216D01*
X195225689Y-87019311D01*
X194922286Y-86715378D01*
X194525668Y-86550687D01*
X194096216Y-86550313D01*
X193699311Y-86714311D01*
X193395378Y-87017714D01*
X193230687Y-87414332D01*
X193230313Y-87843784D01*
X192849314Y-87843784D01*
X192849687Y-87416216D01*
X192685689Y-87019311D01*
X192382286Y-86715378D01*
X191985668Y-86550687D01*
X191556216Y-86550313D01*
X191159311Y-86714311D01*
X190855378Y-87017714D01*
X190690687Y-87414332D01*
X190690313Y-87843784D01*
X190309314Y-87843784D01*
X190309687Y-87416216D01*
X190145689Y-87019311D01*
X189842286Y-86715378D01*
X189445668Y-86550687D01*
X189016216Y-86550313D01*
X188619311Y-86714311D01*
X188315378Y-87017714D01*
X188150687Y-87414332D01*
X188150313Y-87843784D01*
X187769314Y-87843784D01*
X187769687Y-87416216D01*
X187605689Y-87019311D01*
X187302286Y-86715378D01*
X186905668Y-86550687D01*
X186476216Y-86550313D01*
X186079311Y-86714311D01*
X185775378Y-87017714D01*
X185610687Y-87414332D01*
X185610313Y-87843784D01*
X185229314Y-87843784D01*
X185229687Y-87416216D01*
X185065689Y-87019311D01*
X184762286Y-86715378D01*
X184365668Y-86550687D01*
X183936216Y-86550313D01*
X183539311Y-86714311D01*
X183235378Y-87017714D01*
X183070687Y-87414332D01*
X183070313Y-87843784D01*
X182689314Y-87843784D01*
X182689687Y-87416216D01*
X182525689Y-87019311D01*
X182222286Y-86715378D01*
X181825668Y-86550687D01*
X181396216Y-86550313D01*
X180999311Y-86714311D01*
X180695378Y-87017714D01*
X180530687Y-87414332D01*
X180530313Y-87843784D01*
X180149314Y-87843784D01*
X180149687Y-87416216D01*
X179985689Y-87019311D01*
X179682286Y-86715378D01*
X179285668Y-86550687D01*
X178856216Y-86550313D01*
X178459311Y-86714311D01*
X178155378Y-87017714D01*
X177990687Y-87414332D01*
X177990313Y-87843784D01*
X177609314Y-87843784D01*
X177609687Y-87416216D01*
X177445689Y-87019311D01*
X177142286Y-86715378D01*
X176745668Y-86550687D01*
X176316216Y-86550313D01*
X175919311Y-86714311D01*
X175615378Y-87017714D01*
X175450687Y-87414332D01*
X175450313Y-87843784D01*
X170572500Y-87843784D01*
X170572500Y-85482500D01*
X202807500Y-85482500D01*
X202807500Y-107557500D01*
M02*
