M48
;DRILL file {KiCad 4.0.6-e0-6349~53~ubuntu16.04.1} date Tue Feb 27 12:18:20 2018
;FORMAT={-:-/ absolute / inch / decimal}
FMAT,2
INCH,TZ
T1C0.006
T2C0.008
T3C0.040
%
G90
G05
M72
T1
X6.75Y-3.6
X6.75Y-3.69
X6.75Y-3.875
X6.75Y-4.2
X6.7875Y-3.8875
X6.9Y-3.62
X6.93Y-3.89
X6.95Y-3.62
X6.98Y-3.57
X6.98Y-3.68
X7.Y-3.94
X7.05Y-3.76
X7.05Y-3.8
X7.05Y-4.03
X7.14Y-3.93
X7.14Y-4.05
X7.5Y-3.68
X7.52Y-3.76
X7.55Y-3.66
X7.56Y-3.94
X7.57Y-3.56
X7.7Y-3.71
X7.71Y-3.84
X7.71Y-4.
X7.78Y-3.66
X7.79Y-3.94
X7.94Y-3.68
X7.94Y-3.82
T2
X7.13Y-3.63
X7.22Y-3.97
X7.22Y-4.02
X7.225Y-3.75
X7.225Y-3.8
X7.225Y-3.85
X7.275Y-3.75
X7.325Y-4.0475
X7.365Y-3.965
X7.365Y-4.015
X7.375Y-3.75
X7.4125Y-3.55
X7.4375Y-3.75
X7.4375Y-3.8
X7.4375Y-3.85
X7.49Y-3.965
X7.49Y-4.015
X7.52Y-3.79
T3
X6.95Y-3.45
X6.95Y-4.15
X7.05Y-3.45
X7.05Y-4.15
X7.15Y-3.45
X7.15Y-4.15
X7.25Y-3.45
X7.25Y-4.15
X7.35Y-3.45
X7.35Y-4.15
X7.45Y-3.45
X7.45Y-4.15
X7.55Y-3.45
X7.55Y-4.15
X7.65Y-3.45
X7.65Y-4.15
X7.75Y-3.45
X7.75Y-4.15
T0
M30
