G04 #@! TF.FileFunction,Soldermask,Top*
%FSLAX46Y46*%
G04 Gerber Fmt 4.6, Leading zero omitted, Abs format (unit mm)*
G04 Created by KiCad (PCBNEW 4.0.6-e0-6349~53~ubuntu16.04.1) date Tue Feb 27 12:18:18 2018*
%MOMM*%
%LPD*%
G01*
G04 APERTURE LIST*
%ADD10C,0.100000*%
%ADD11C,0.150000*%
G04 APERTURE END LIST*
D10*
D11*
X170180000Y-107950000D02*
X170180000Y-85090000D01*
X203200000Y-107950000D02*
X170180000Y-107950000D01*
X203200000Y-85090000D02*
X203200000Y-107950000D01*
X170180000Y-85090000D02*
X203200000Y-85090000D01*
D10*
G36*
X176615372Y-104597740D02*
X176771515Y-104629791D01*
X176918454Y-104691559D01*
X177050608Y-104780698D01*
X177162925Y-104893802D01*
X177251135Y-105026568D01*
X177311875Y-105173936D01*
X177342801Y-105330122D01*
X177342801Y-105330129D01*
X177342835Y-105330301D01*
X177340293Y-105512364D01*
X177340254Y-105512535D01*
X177340254Y-105512541D01*
X177304980Y-105667802D01*
X177240145Y-105813422D01*
X177148266Y-105943669D01*
X177032833Y-106053595D01*
X176898246Y-106139006D01*
X176749636Y-106196647D01*
X176592657Y-106224328D01*
X176433295Y-106220989D01*
X176277620Y-106186762D01*
X176131545Y-106122944D01*
X176000657Y-106031974D01*
X175889929Y-105917312D01*
X175803583Y-105783328D01*
X175744906Y-105635126D01*
X175716131Y-105478344D01*
X175718356Y-105318958D01*
X175751496Y-105163043D01*
X175814290Y-105016536D01*
X175904345Y-104885013D01*
X176018231Y-104773489D01*
X176151613Y-104686206D01*
X176299400Y-104626496D01*
X176455979Y-104596626D01*
X176615372Y-104597740D01*
X176615372Y-104597740D01*
G37*
G36*
X179155372Y-104597740D02*
X179311515Y-104629791D01*
X179458454Y-104691559D01*
X179590608Y-104780698D01*
X179702925Y-104893802D01*
X179791135Y-105026568D01*
X179851875Y-105173936D01*
X179882801Y-105330122D01*
X179882801Y-105330129D01*
X179882835Y-105330301D01*
X179880293Y-105512364D01*
X179880254Y-105512535D01*
X179880254Y-105512541D01*
X179844980Y-105667802D01*
X179780145Y-105813422D01*
X179688266Y-105943669D01*
X179572833Y-106053595D01*
X179438246Y-106139006D01*
X179289636Y-106196647D01*
X179132657Y-106224328D01*
X178973295Y-106220989D01*
X178817620Y-106186762D01*
X178671545Y-106122944D01*
X178540657Y-106031974D01*
X178429929Y-105917312D01*
X178343583Y-105783328D01*
X178284906Y-105635126D01*
X178256131Y-105478344D01*
X178258356Y-105318958D01*
X178291496Y-105163043D01*
X178354290Y-105016536D01*
X178444345Y-104885013D01*
X178558231Y-104773489D01*
X178691613Y-104686206D01*
X178839400Y-104626496D01*
X178995979Y-104596626D01*
X179155372Y-104597740D01*
X179155372Y-104597740D01*
G37*
G36*
X189315372Y-104597740D02*
X189471515Y-104629791D01*
X189618454Y-104691559D01*
X189750608Y-104780698D01*
X189862925Y-104893802D01*
X189951135Y-105026568D01*
X190011875Y-105173936D01*
X190042801Y-105330122D01*
X190042801Y-105330129D01*
X190042835Y-105330301D01*
X190040293Y-105512364D01*
X190040254Y-105512535D01*
X190040254Y-105512541D01*
X190004980Y-105667802D01*
X189940145Y-105813422D01*
X189848266Y-105943669D01*
X189732833Y-106053595D01*
X189598246Y-106139006D01*
X189449636Y-106196647D01*
X189292657Y-106224328D01*
X189133295Y-106220989D01*
X188977620Y-106186762D01*
X188831545Y-106122944D01*
X188700657Y-106031974D01*
X188589929Y-105917312D01*
X188503583Y-105783328D01*
X188444906Y-105635126D01*
X188416131Y-105478344D01*
X188418356Y-105318958D01*
X188451496Y-105163043D01*
X188514290Y-105016536D01*
X188604345Y-104885013D01*
X188718231Y-104773489D01*
X188851613Y-104686206D01*
X188999400Y-104626496D01*
X189155979Y-104596626D01*
X189315372Y-104597740D01*
X189315372Y-104597740D01*
G37*
G36*
X181695372Y-104597740D02*
X181851515Y-104629791D01*
X181998454Y-104691559D01*
X182130608Y-104780698D01*
X182242925Y-104893802D01*
X182331135Y-105026568D01*
X182391875Y-105173936D01*
X182422801Y-105330122D01*
X182422801Y-105330129D01*
X182422835Y-105330301D01*
X182420293Y-105512364D01*
X182420254Y-105512535D01*
X182420254Y-105512541D01*
X182384980Y-105667802D01*
X182320145Y-105813422D01*
X182228266Y-105943669D01*
X182112833Y-106053595D01*
X181978246Y-106139006D01*
X181829636Y-106196647D01*
X181672657Y-106224328D01*
X181513295Y-106220989D01*
X181357620Y-106186762D01*
X181211545Y-106122944D01*
X181080657Y-106031974D01*
X180969929Y-105917312D01*
X180883583Y-105783328D01*
X180824906Y-105635126D01*
X180796131Y-105478344D01*
X180798356Y-105318958D01*
X180831496Y-105163043D01*
X180894290Y-105016536D01*
X180984345Y-104885013D01*
X181098231Y-104773489D01*
X181231613Y-104686206D01*
X181379400Y-104626496D01*
X181535979Y-104596626D01*
X181695372Y-104597740D01*
X181695372Y-104597740D01*
G37*
G36*
X184235372Y-104597740D02*
X184391515Y-104629791D01*
X184538454Y-104691559D01*
X184670608Y-104780698D01*
X184782925Y-104893802D01*
X184871135Y-105026568D01*
X184931875Y-105173936D01*
X184962801Y-105330122D01*
X184962801Y-105330129D01*
X184962835Y-105330301D01*
X184960293Y-105512364D01*
X184960254Y-105512535D01*
X184960254Y-105512541D01*
X184924980Y-105667802D01*
X184860145Y-105813422D01*
X184768266Y-105943669D01*
X184652833Y-106053595D01*
X184518246Y-106139006D01*
X184369636Y-106196647D01*
X184212657Y-106224328D01*
X184053295Y-106220989D01*
X183897620Y-106186762D01*
X183751545Y-106122944D01*
X183620657Y-106031974D01*
X183509929Y-105917312D01*
X183423583Y-105783328D01*
X183364906Y-105635126D01*
X183336131Y-105478344D01*
X183338356Y-105318958D01*
X183371496Y-105163043D01*
X183434290Y-105016536D01*
X183524345Y-104885013D01*
X183638231Y-104773489D01*
X183771613Y-104686206D01*
X183919400Y-104626496D01*
X184075979Y-104596626D01*
X184235372Y-104597740D01*
X184235372Y-104597740D01*
G37*
G36*
X191855372Y-104597740D02*
X192011515Y-104629791D01*
X192158454Y-104691559D01*
X192290608Y-104780698D01*
X192402925Y-104893802D01*
X192491135Y-105026568D01*
X192551875Y-105173936D01*
X192582801Y-105330122D01*
X192582801Y-105330129D01*
X192582835Y-105330301D01*
X192580293Y-105512364D01*
X192580254Y-105512535D01*
X192580254Y-105512541D01*
X192544980Y-105667802D01*
X192480145Y-105813422D01*
X192388266Y-105943669D01*
X192272833Y-106053595D01*
X192138246Y-106139006D01*
X191989636Y-106196647D01*
X191832657Y-106224328D01*
X191673295Y-106220989D01*
X191517620Y-106186762D01*
X191371545Y-106122944D01*
X191240657Y-106031974D01*
X191129929Y-105917312D01*
X191043583Y-105783328D01*
X190984906Y-105635126D01*
X190956131Y-105478344D01*
X190958356Y-105318958D01*
X190991496Y-105163043D01*
X191054290Y-105016536D01*
X191144345Y-104885013D01*
X191258231Y-104773489D01*
X191391613Y-104686206D01*
X191539400Y-104626496D01*
X191695979Y-104596626D01*
X191855372Y-104597740D01*
X191855372Y-104597740D01*
G37*
G36*
X194395372Y-104597740D02*
X194551515Y-104629791D01*
X194698454Y-104691559D01*
X194830608Y-104780698D01*
X194942925Y-104893802D01*
X195031135Y-105026568D01*
X195091875Y-105173936D01*
X195122801Y-105330122D01*
X195122801Y-105330129D01*
X195122835Y-105330301D01*
X195120293Y-105512364D01*
X195120254Y-105512535D01*
X195120254Y-105512541D01*
X195084980Y-105667802D01*
X195020145Y-105813422D01*
X194928266Y-105943669D01*
X194812833Y-106053595D01*
X194678246Y-106139006D01*
X194529636Y-106196647D01*
X194372657Y-106224328D01*
X194213295Y-106220989D01*
X194057620Y-106186762D01*
X193911545Y-106122944D01*
X193780657Y-106031974D01*
X193669929Y-105917312D01*
X193583583Y-105783328D01*
X193524906Y-105635126D01*
X193496131Y-105478344D01*
X193498356Y-105318958D01*
X193531496Y-105163043D01*
X193594290Y-105016536D01*
X193684345Y-104885013D01*
X193798231Y-104773489D01*
X193931613Y-104686206D01*
X194079400Y-104626496D01*
X194235979Y-104596626D01*
X194395372Y-104597740D01*
X194395372Y-104597740D01*
G37*
G36*
X196935372Y-104597740D02*
X197091515Y-104629791D01*
X197238454Y-104691559D01*
X197370608Y-104780698D01*
X197482925Y-104893802D01*
X197571135Y-105026568D01*
X197631875Y-105173936D01*
X197662801Y-105330122D01*
X197662801Y-105330129D01*
X197662835Y-105330301D01*
X197660293Y-105512364D01*
X197660254Y-105512535D01*
X197660254Y-105512541D01*
X197624980Y-105667802D01*
X197560145Y-105813422D01*
X197468266Y-105943669D01*
X197352833Y-106053595D01*
X197218246Y-106139006D01*
X197069636Y-106196647D01*
X196912657Y-106224328D01*
X196753295Y-106220989D01*
X196597620Y-106186762D01*
X196451545Y-106122944D01*
X196320657Y-106031974D01*
X196209929Y-105917312D01*
X196123583Y-105783328D01*
X196064906Y-105635126D01*
X196036131Y-105478344D01*
X196038356Y-105318958D01*
X196071496Y-105163043D01*
X196134290Y-105016536D01*
X196224345Y-104885013D01*
X196338231Y-104773489D01*
X196471613Y-104686206D01*
X196619400Y-104626496D01*
X196775979Y-104596626D01*
X196935372Y-104597740D01*
X196935372Y-104597740D01*
G37*
G36*
X186775372Y-104597740D02*
X186931515Y-104629791D01*
X187078454Y-104691559D01*
X187210608Y-104780698D01*
X187322925Y-104893802D01*
X187411135Y-105026568D01*
X187471875Y-105173936D01*
X187502801Y-105330122D01*
X187502801Y-105330129D01*
X187502835Y-105330301D01*
X187500293Y-105512364D01*
X187500254Y-105512535D01*
X187500254Y-105512541D01*
X187464980Y-105667802D01*
X187400145Y-105813422D01*
X187308266Y-105943669D01*
X187192833Y-106053595D01*
X187058246Y-106139006D01*
X186909636Y-106196647D01*
X186752657Y-106224328D01*
X186593295Y-106220989D01*
X186437620Y-106186762D01*
X186291545Y-106122944D01*
X186160657Y-106031974D01*
X186049929Y-105917312D01*
X185963583Y-105783328D01*
X185904906Y-105635126D01*
X185876131Y-105478344D01*
X185878356Y-105318958D01*
X185911496Y-105163043D01*
X185974290Y-105016536D01*
X186064345Y-104885013D01*
X186178231Y-104773489D01*
X186311613Y-104686206D01*
X186459400Y-104626496D01*
X186615979Y-104596626D01*
X186775372Y-104597740D01*
X186775372Y-104597740D01*
G37*
G36*
X189559300Y-102281800D02*
X188857700Y-102281800D01*
X188857700Y-101680200D01*
X189559300Y-101680200D01*
X189559300Y-102281800D01*
X189559300Y-102281800D01*
G37*
G36*
X188459300Y-102281800D02*
X187757700Y-102281800D01*
X187757700Y-101680200D01*
X188459300Y-101680200D01*
X188459300Y-102281800D01*
X188459300Y-102281800D01*
G37*
G36*
X182828300Y-102281800D02*
X182126700Y-102281800D01*
X182126700Y-101680200D01*
X182828300Y-101680200D01*
X182828300Y-102281800D01*
X182828300Y-102281800D01*
G37*
G36*
X181728300Y-102281800D02*
X181026700Y-102281800D01*
X181026700Y-101680200D01*
X181728300Y-101680200D01*
X181728300Y-102281800D01*
X181728300Y-102281800D01*
G37*
G36*
X186355800Y-102183300D02*
X185754200Y-102183300D01*
X185754200Y-101481700D01*
X186355800Y-101481700D01*
X186355800Y-102183300D01*
X186355800Y-102183300D01*
G37*
G36*
X194932300Y-101825400D02*
X193052700Y-101825400D01*
X193052700Y-101012600D01*
X194932300Y-101012600D01*
X194932300Y-101825400D01*
X194932300Y-101825400D01*
G37*
G36*
X200139300Y-101825400D02*
X198259700Y-101825400D01*
X198259700Y-101012600D01*
X200139300Y-101012600D01*
X200139300Y-101825400D01*
X200139300Y-101825400D01*
G37*
G36*
X180073300Y-101806400D02*
X178193700Y-101806400D01*
X178193700Y-100993600D01*
X180073300Y-100993600D01*
X180073300Y-101806400D01*
X180073300Y-101806400D01*
G37*
G36*
X174866300Y-101806400D02*
X172986700Y-101806400D01*
X172986700Y-100993600D01*
X174866300Y-100993600D01*
X174866300Y-101806400D01*
X174866300Y-101806400D01*
G37*
G36*
X186355800Y-101083300D02*
X185754200Y-101083300D01*
X185754200Y-100381700D01*
X186355800Y-100381700D01*
X186355800Y-101083300D01*
X186355800Y-101083300D01*
G37*
G36*
X181728300Y-101011800D02*
X181026700Y-101011800D01*
X181026700Y-100410200D01*
X181728300Y-100410200D01*
X181728300Y-101011800D01*
X181728300Y-101011800D01*
G37*
G36*
X182828300Y-101011800D02*
X182126700Y-101011800D01*
X182126700Y-100410200D01*
X182828300Y-100410200D01*
X182828300Y-101011800D01*
X182828300Y-101011800D01*
G37*
G36*
X189559300Y-101011800D02*
X188857700Y-101011800D01*
X188857700Y-100410200D01*
X189559300Y-100410200D01*
X189559300Y-101011800D01*
X189559300Y-101011800D01*
G37*
G36*
X188459300Y-101011800D02*
X187757700Y-101011800D01*
X187757700Y-100410200D01*
X188459300Y-100410200D01*
X188459300Y-101011800D01*
X188459300Y-101011800D01*
G37*
G36*
X200139300Y-100555400D02*
X198259700Y-100555400D01*
X198259700Y-99742600D01*
X200139300Y-99742600D01*
X200139300Y-100555400D01*
X200139300Y-100555400D01*
G37*
G36*
X194932300Y-100555400D02*
X193052700Y-100555400D01*
X193052700Y-99742600D01*
X194932300Y-99742600D01*
X194932300Y-100555400D01*
X194932300Y-100555400D01*
G37*
G36*
X180073300Y-100536400D02*
X178193700Y-100536400D01*
X178193700Y-99723600D01*
X180073300Y-99723600D01*
X180073300Y-100536400D01*
X180073300Y-100536400D01*
G37*
G36*
X174866300Y-100536400D02*
X172986700Y-100536400D01*
X172986700Y-99723600D01*
X174866300Y-99723600D01*
X174866300Y-100536400D01*
X174866300Y-100536400D01*
G37*
G36*
X171800800Y-100395800D02*
X171099200Y-100395800D01*
X171099200Y-99894200D01*
X171800800Y-99894200D01*
X171800800Y-100395800D01*
X171800800Y-100395800D01*
G37*
G36*
X171800800Y-99495800D02*
X171099200Y-99495800D01*
X171099200Y-98994200D01*
X171800800Y-98994200D01*
X171800800Y-99495800D01*
X171800800Y-99495800D01*
G37*
G36*
X200139300Y-99285400D02*
X198259700Y-99285400D01*
X198259700Y-98472600D01*
X200139300Y-98472600D01*
X200139300Y-99285400D01*
X200139300Y-99285400D01*
G37*
G36*
X194932300Y-99285400D02*
X193052700Y-99285400D01*
X193052700Y-98472600D01*
X194932300Y-98472600D01*
X194932300Y-99285400D01*
X194932300Y-99285400D01*
G37*
G36*
X180073300Y-99266400D02*
X178193700Y-99266400D01*
X178193700Y-98453600D01*
X180073300Y-98453600D01*
X180073300Y-99266400D01*
X180073300Y-99266400D01*
G37*
G36*
X174866300Y-99266400D02*
X172986700Y-99266400D01*
X172986700Y-98453600D01*
X174866300Y-98453600D01*
X174866300Y-99266400D01*
X174866300Y-99266400D01*
G37*
G36*
X187755800Y-99175800D02*
X184354200Y-99175800D01*
X184354200Y-96574200D01*
X187755800Y-96574200D01*
X187755800Y-99175800D01*
X187755800Y-99175800D01*
G37*
G36*
X202026800Y-98998800D02*
X201325200Y-98998800D01*
X201325200Y-98497200D01*
X202026800Y-98497200D01*
X202026800Y-98998800D01*
X202026800Y-98998800D01*
G37*
G36*
X191308800Y-98690800D02*
X190707200Y-98690800D01*
X190707200Y-97989200D01*
X191308800Y-97989200D01*
X191308800Y-98690800D01*
X191308800Y-98690800D01*
G37*
G36*
X202026800Y-98098800D02*
X201325200Y-98098800D01*
X201325200Y-97597200D01*
X202026800Y-97597200D01*
X202026800Y-98098800D01*
X202026800Y-98098800D01*
G37*
G36*
X200139300Y-98015400D02*
X198259700Y-98015400D01*
X198259700Y-97202600D01*
X200139300Y-97202600D01*
X200139300Y-98015400D01*
X200139300Y-98015400D01*
G37*
G36*
X194932300Y-98015400D02*
X193052700Y-98015400D01*
X193052700Y-97202600D01*
X194932300Y-97202600D01*
X194932300Y-98015400D01*
X194932300Y-98015400D01*
G37*
G36*
X180073300Y-97996400D02*
X178193700Y-97996400D01*
X178193700Y-97183600D01*
X180073300Y-97183600D01*
X180073300Y-97996400D01*
X180073300Y-97996400D01*
G37*
G36*
X174866300Y-97996400D02*
X172986700Y-97996400D01*
X172986700Y-97183600D01*
X174866300Y-97183600D01*
X174866300Y-97996400D01*
X174866300Y-97996400D01*
G37*
G36*
X191308800Y-97590800D02*
X190707200Y-97590800D01*
X190707200Y-96889200D01*
X191308800Y-96889200D01*
X191308800Y-97590800D01*
X191308800Y-97590800D01*
G37*
G36*
X174866300Y-94821400D02*
X172986700Y-94821400D01*
X172986700Y-94008600D01*
X174866300Y-94008600D01*
X174866300Y-94821400D01*
X174866300Y-94821400D01*
G37*
G36*
X180073300Y-94821400D02*
X178193700Y-94821400D01*
X178193700Y-94008600D01*
X180073300Y-94008600D01*
X180073300Y-94821400D01*
X180073300Y-94821400D01*
G37*
G36*
X200075800Y-94586400D02*
X198196200Y-94586400D01*
X198196200Y-93773600D01*
X200075800Y-93773600D01*
X200075800Y-94586400D01*
X200075800Y-94586400D01*
G37*
G36*
X194868800Y-94586400D02*
X192989200Y-94586400D01*
X192989200Y-93773600D01*
X194868800Y-93773600D01*
X194868800Y-94586400D01*
X194868800Y-94586400D01*
G37*
G36*
X182418800Y-93610800D02*
X181817200Y-93610800D01*
X181817200Y-92909200D01*
X182418800Y-92909200D01*
X182418800Y-93610800D01*
X182418800Y-93610800D01*
G37*
G36*
X180073300Y-93551400D02*
X178193700Y-93551400D01*
X178193700Y-92738600D01*
X180073300Y-92738600D01*
X180073300Y-93551400D01*
X180073300Y-93551400D01*
G37*
G36*
X174866300Y-93551400D02*
X172986700Y-93551400D01*
X172986700Y-92738600D01*
X174866300Y-92738600D01*
X174866300Y-93551400D01*
X174866300Y-93551400D01*
G37*
G36*
X171800800Y-93410800D02*
X171099200Y-93410800D01*
X171099200Y-92909200D01*
X171800800Y-92909200D01*
X171800800Y-93410800D01*
X171800800Y-93410800D01*
G37*
G36*
X188880800Y-93375800D02*
X187829200Y-93375800D01*
X187829200Y-90774200D01*
X188880800Y-90774200D01*
X188880800Y-93375800D01*
X188880800Y-93375800D01*
G37*
G36*
X184280800Y-93375800D02*
X183229200Y-93375800D01*
X183229200Y-90774200D01*
X184280800Y-90774200D01*
X184280800Y-93375800D01*
X184280800Y-93375800D01*
G37*
G36*
X186580800Y-93375800D02*
X185529200Y-93375800D01*
X185529200Y-90774200D01*
X186580800Y-90774200D01*
X186580800Y-93375800D01*
X186580800Y-93375800D01*
G37*
G36*
X194868800Y-93316400D02*
X192989200Y-93316400D01*
X192989200Y-92503600D01*
X194868800Y-92503600D01*
X194868800Y-93316400D01*
X194868800Y-93316400D01*
G37*
G36*
X200075800Y-93316400D02*
X198196200Y-93316400D01*
X198196200Y-92503600D01*
X200075800Y-92503600D01*
X200075800Y-93316400D01*
X200075800Y-93316400D01*
G37*
G36*
X201963300Y-92775800D02*
X201261700Y-92775800D01*
X201261700Y-92274200D01*
X201963300Y-92274200D01*
X201963300Y-92775800D01*
X201963300Y-92775800D01*
G37*
G36*
X171800800Y-92510800D02*
X171099200Y-92510800D01*
X171099200Y-92009200D01*
X171800800Y-92009200D01*
X171800800Y-92510800D01*
X171800800Y-92510800D01*
G37*
G36*
X182418800Y-92510800D02*
X181817200Y-92510800D01*
X181817200Y-91809200D01*
X182418800Y-91809200D01*
X182418800Y-92510800D01*
X182418800Y-92510800D01*
G37*
G36*
X174866300Y-92281400D02*
X172986700Y-92281400D01*
X172986700Y-91468600D01*
X174866300Y-91468600D01*
X174866300Y-92281400D01*
X174866300Y-92281400D01*
G37*
G36*
X180073300Y-92281400D02*
X178193700Y-92281400D01*
X178193700Y-91468600D01*
X180073300Y-91468600D01*
X180073300Y-92281400D01*
X180073300Y-92281400D01*
G37*
G36*
X194868800Y-92046400D02*
X192989200Y-92046400D01*
X192989200Y-91233600D01*
X194868800Y-91233600D01*
X194868800Y-92046400D01*
X194868800Y-92046400D01*
G37*
G36*
X200075800Y-92046400D02*
X198196200Y-92046400D01*
X198196200Y-91233600D01*
X200075800Y-91233600D01*
X200075800Y-92046400D01*
X200075800Y-92046400D01*
G37*
G36*
X201963300Y-91875800D02*
X201261700Y-91875800D01*
X201261700Y-91374200D01*
X201963300Y-91374200D01*
X201963300Y-91875800D01*
X201963300Y-91875800D01*
G37*
G36*
X180073300Y-91011400D02*
X178193700Y-91011400D01*
X178193700Y-90198600D01*
X180073300Y-90198600D01*
X180073300Y-91011400D01*
X180073300Y-91011400D01*
G37*
G36*
X174866300Y-91011400D02*
X172986700Y-91011400D01*
X172986700Y-90198600D01*
X174866300Y-90198600D01*
X174866300Y-91011400D01*
X174866300Y-91011400D01*
G37*
G36*
X194868800Y-90776400D02*
X192989200Y-90776400D01*
X192989200Y-89963600D01*
X194868800Y-89963600D01*
X194868800Y-90776400D01*
X194868800Y-90776400D01*
G37*
G36*
X200075800Y-90776400D02*
X198196200Y-90776400D01*
X198196200Y-89963600D01*
X200075800Y-89963600D01*
X200075800Y-90776400D01*
X200075800Y-90776400D01*
G37*
G36*
X189315372Y-86817740D02*
X189471515Y-86849791D01*
X189618454Y-86911559D01*
X189750608Y-87000698D01*
X189862925Y-87113802D01*
X189951135Y-87246568D01*
X190011875Y-87393936D01*
X190042801Y-87550122D01*
X190042801Y-87550129D01*
X190042835Y-87550301D01*
X190040293Y-87732364D01*
X190040254Y-87732535D01*
X190040254Y-87732541D01*
X190004980Y-87887802D01*
X189940145Y-88033422D01*
X189848266Y-88163669D01*
X189732833Y-88273595D01*
X189598246Y-88359006D01*
X189449636Y-88416647D01*
X189292657Y-88444328D01*
X189133295Y-88440989D01*
X188977620Y-88406762D01*
X188831545Y-88342944D01*
X188700657Y-88251974D01*
X188589929Y-88137312D01*
X188503583Y-88003328D01*
X188444906Y-87855126D01*
X188416131Y-87698344D01*
X188418356Y-87538958D01*
X188451496Y-87383043D01*
X188514290Y-87236536D01*
X188604345Y-87105013D01*
X188718231Y-86993489D01*
X188851613Y-86906206D01*
X188999400Y-86846496D01*
X189155979Y-86816626D01*
X189315372Y-86817740D01*
X189315372Y-86817740D01*
G37*
G36*
X181695372Y-86817740D02*
X181851515Y-86849791D01*
X181998454Y-86911559D01*
X182130608Y-87000698D01*
X182242925Y-87113802D01*
X182331135Y-87246568D01*
X182391875Y-87393936D01*
X182422801Y-87550122D01*
X182422801Y-87550129D01*
X182422835Y-87550301D01*
X182420293Y-87732364D01*
X182420254Y-87732535D01*
X182420254Y-87732541D01*
X182384980Y-87887802D01*
X182320145Y-88033422D01*
X182228266Y-88163669D01*
X182112833Y-88273595D01*
X181978246Y-88359006D01*
X181829636Y-88416647D01*
X181672657Y-88444328D01*
X181513295Y-88440989D01*
X181357620Y-88406762D01*
X181211545Y-88342944D01*
X181080657Y-88251974D01*
X180969929Y-88137312D01*
X180883583Y-88003328D01*
X180824906Y-87855126D01*
X180796131Y-87698344D01*
X180798356Y-87538958D01*
X180831496Y-87383043D01*
X180894290Y-87236536D01*
X180984345Y-87105013D01*
X181098231Y-86993489D01*
X181231613Y-86906206D01*
X181379400Y-86846496D01*
X181535979Y-86816626D01*
X181695372Y-86817740D01*
X181695372Y-86817740D01*
G37*
G36*
X184235372Y-86817740D02*
X184391515Y-86849791D01*
X184538454Y-86911559D01*
X184670608Y-87000698D01*
X184782925Y-87113802D01*
X184871135Y-87246568D01*
X184931875Y-87393936D01*
X184962801Y-87550122D01*
X184962801Y-87550129D01*
X184962835Y-87550301D01*
X184960293Y-87732364D01*
X184960254Y-87732535D01*
X184960254Y-87732541D01*
X184924980Y-87887802D01*
X184860145Y-88033422D01*
X184768266Y-88163669D01*
X184652833Y-88273595D01*
X184518246Y-88359006D01*
X184369636Y-88416647D01*
X184212657Y-88444328D01*
X184053295Y-88440989D01*
X183897620Y-88406762D01*
X183751545Y-88342944D01*
X183620657Y-88251974D01*
X183509929Y-88137312D01*
X183423583Y-88003328D01*
X183364906Y-87855126D01*
X183336131Y-87698344D01*
X183338356Y-87538958D01*
X183371496Y-87383043D01*
X183434290Y-87236536D01*
X183524345Y-87105013D01*
X183638231Y-86993489D01*
X183771613Y-86906206D01*
X183919400Y-86846496D01*
X184075979Y-86816626D01*
X184235372Y-86817740D01*
X184235372Y-86817740D01*
G37*
G36*
X196935372Y-86817740D02*
X197091515Y-86849791D01*
X197238454Y-86911559D01*
X197370608Y-87000698D01*
X197482925Y-87113802D01*
X197571135Y-87246568D01*
X197631875Y-87393936D01*
X197662801Y-87550122D01*
X197662801Y-87550129D01*
X197662835Y-87550301D01*
X197660293Y-87732364D01*
X197660254Y-87732535D01*
X197660254Y-87732541D01*
X197624980Y-87887802D01*
X197560145Y-88033422D01*
X197468266Y-88163669D01*
X197352833Y-88273595D01*
X197218246Y-88359006D01*
X197069636Y-88416647D01*
X196912657Y-88444328D01*
X196753295Y-88440989D01*
X196597620Y-88406762D01*
X196451545Y-88342944D01*
X196320657Y-88251974D01*
X196209929Y-88137312D01*
X196123583Y-88003328D01*
X196064906Y-87855126D01*
X196036131Y-87698344D01*
X196038356Y-87538958D01*
X196071496Y-87383043D01*
X196134290Y-87236536D01*
X196224345Y-87105013D01*
X196338231Y-86993489D01*
X196471613Y-86906206D01*
X196619400Y-86846496D01*
X196775979Y-86816626D01*
X196935372Y-86817740D01*
X196935372Y-86817740D01*
G37*
G36*
X194395372Y-86817740D02*
X194551515Y-86849791D01*
X194698454Y-86911559D01*
X194830608Y-87000698D01*
X194942925Y-87113802D01*
X195031135Y-87246568D01*
X195091875Y-87393936D01*
X195122801Y-87550122D01*
X195122801Y-87550129D01*
X195122835Y-87550301D01*
X195120293Y-87732364D01*
X195120254Y-87732535D01*
X195120254Y-87732541D01*
X195084980Y-87887802D01*
X195020145Y-88033422D01*
X194928266Y-88163669D01*
X194812833Y-88273595D01*
X194678246Y-88359006D01*
X194529636Y-88416647D01*
X194372657Y-88444328D01*
X194213295Y-88440989D01*
X194057620Y-88406762D01*
X193911545Y-88342944D01*
X193780657Y-88251974D01*
X193669929Y-88137312D01*
X193583583Y-88003328D01*
X193524906Y-87855126D01*
X193496131Y-87698344D01*
X193498356Y-87538958D01*
X193531496Y-87383043D01*
X193594290Y-87236536D01*
X193684345Y-87105013D01*
X193798231Y-86993489D01*
X193931613Y-86906206D01*
X194079400Y-86846496D01*
X194235979Y-86816626D01*
X194395372Y-86817740D01*
X194395372Y-86817740D01*
G37*
G36*
X191855372Y-86817740D02*
X192011515Y-86849791D01*
X192158454Y-86911559D01*
X192290608Y-87000698D01*
X192402925Y-87113802D01*
X192491135Y-87246568D01*
X192551875Y-87393936D01*
X192582801Y-87550122D01*
X192582801Y-87550129D01*
X192582835Y-87550301D01*
X192580293Y-87732364D01*
X192580254Y-87732535D01*
X192580254Y-87732541D01*
X192544980Y-87887802D01*
X192480145Y-88033422D01*
X192388266Y-88163669D01*
X192272833Y-88273595D01*
X192138246Y-88359006D01*
X191989636Y-88416647D01*
X191832657Y-88444328D01*
X191673295Y-88440989D01*
X191517620Y-88406762D01*
X191371545Y-88342944D01*
X191240657Y-88251974D01*
X191129929Y-88137312D01*
X191043583Y-88003328D01*
X190984906Y-87855126D01*
X190956131Y-87698344D01*
X190958356Y-87538958D01*
X190991496Y-87383043D01*
X191054290Y-87236536D01*
X191144345Y-87105013D01*
X191258231Y-86993489D01*
X191391613Y-86906206D01*
X191539400Y-86846496D01*
X191695979Y-86816626D01*
X191855372Y-86817740D01*
X191855372Y-86817740D01*
G37*
G36*
X186775372Y-86817740D02*
X186931515Y-86849791D01*
X187078454Y-86911559D01*
X187210608Y-87000698D01*
X187322925Y-87113802D01*
X187411135Y-87246568D01*
X187471875Y-87393936D01*
X187502801Y-87550122D01*
X187502801Y-87550129D01*
X187502835Y-87550301D01*
X187500293Y-87732364D01*
X187500254Y-87732535D01*
X187500254Y-87732541D01*
X187464980Y-87887802D01*
X187400145Y-88033422D01*
X187308266Y-88163669D01*
X187192833Y-88273595D01*
X187058246Y-88359006D01*
X186909636Y-88416647D01*
X186752657Y-88444328D01*
X186593295Y-88440989D01*
X186437620Y-88406762D01*
X186291545Y-88342944D01*
X186160657Y-88251974D01*
X186049929Y-88137312D01*
X185963583Y-88003328D01*
X185904906Y-87855126D01*
X185876131Y-87698344D01*
X185878356Y-87538958D01*
X185911496Y-87383043D01*
X185974290Y-87236536D01*
X186064345Y-87105013D01*
X186178231Y-86993489D01*
X186311613Y-86906206D01*
X186459400Y-86846496D01*
X186615979Y-86816626D01*
X186775372Y-86817740D01*
X186775372Y-86817740D01*
G37*
G36*
X179155372Y-86817740D02*
X179311515Y-86849791D01*
X179458454Y-86911559D01*
X179590608Y-87000698D01*
X179702925Y-87113802D01*
X179791135Y-87246568D01*
X179851875Y-87393936D01*
X179882801Y-87550122D01*
X179882801Y-87550129D01*
X179882835Y-87550301D01*
X179880293Y-87732364D01*
X179880254Y-87732535D01*
X179880254Y-87732541D01*
X179844980Y-87887802D01*
X179780145Y-88033422D01*
X179688266Y-88163669D01*
X179572833Y-88273595D01*
X179438246Y-88359006D01*
X179289636Y-88416647D01*
X179132657Y-88444328D01*
X178973295Y-88440989D01*
X178817620Y-88406762D01*
X178671545Y-88342944D01*
X178540657Y-88251974D01*
X178429929Y-88137312D01*
X178343583Y-88003328D01*
X178284906Y-87855126D01*
X178256131Y-87698344D01*
X178258356Y-87538958D01*
X178291496Y-87383043D01*
X178354290Y-87236536D01*
X178444345Y-87105013D01*
X178558231Y-86993489D01*
X178691613Y-86906206D01*
X178839400Y-86846496D01*
X178995979Y-86816626D01*
X179155372Y-86817740D01*
X179155372Y-86817740D01*
G37*
G36*
X176615372Y-86817740D02*
X176771515Y-86849791D01*
X176918454Y-86911559D01*
X177050608Y-87000698D01*
X177162925Y-87113802D01*
X177251135Y-87246568D01*
X177311875Y-87393936D01*
X177342801Y-87550122D01*
X177342801Y-87550129D01*
X177342835Y-87550301D01*
X177340293Y-87732364D01*
X177340254Y-87732535D01*
X177340254Y-87732541D01*
X177304980Y-87887802D01*
X177240145Y-88033422D01*
X177148266Y-88163669D01*
X177032833Y-88273595D01*
X176898246Y-88359006D01*
X176749636Y-88416647D01*
X176592657Y-88444328D01*
X176433295Y-88440989D01*
X176277620Y-88406762D01*
X176131545Y-88342944D01*
X176000657Y-88251974D01*
X175889929Y-88137312D01*
X175803583Y-88003328D01*
X175744906Y-87855126D01*
X175716131Y-87698344D01*
X175718356Y-87538958D01*
X175751496Y-87383043D01*
X175814290Y-87236536D01*
X175904345Y-87105013D01*
X176018231Y-86993489D01*
X176151613Y-86906206D01*
X176299400Y-86846496D01*
X176455979Y-86816626D01*
X176615372Y-86817740D01*
X176615372Y-86817740D01*
G37*
M02*
