G04 #@! TF.FileFunction,Copper,L4,Bot,Signal*
%FSLAX46Y46*%
G04 Gerber Fmt 4.6, Leading zero omitted, Abs format (unit mm)*
G04 Created by KiCad (PCBNEW 4.0.6-e0-6349~53~ubuntu16.04.1) date Tue Feb 27 12:18:18 2018*
%MOMM*%
%LPD*%
G01*
G04 APERTURE LIST*
%ADD10C,0.100000*%
%ADD11C,0.150000*%
%ADD12C,1.524000*%
%ADD13C,0.508000*%
%ADD14C,0.406400*%
%ADD15C,0.152400*%
G04 APERTURE END LIST*
D10*
D11*
X170180000Y-107950000D02*
X170180000Y-85090000D01*
X203200000Y-107950000D02*
X170180000Y-107950000D01*
X203200000Y-85090000D02*
X203200000Y-107950000D01*
X170180000Y-85090000D02*
X203200000Y-85090000D01*
D12*
X196850000Y-87630000D03*
X194310000Y-87630000D03*
X191770000Y-87630000D03*
X189230000Y-87630000D03*
X186690000Y-87630000D03*
X184150000Y-87630000D03*
X181610000Y-87630000D03*
X179070000Y-87630000D03*
X176530000Y-87630000D03*
X196850000Y-105410000D03*
X194310000Y-105410000D03*
X191770000Y-105410000D03*
X189230000Y-105410000D03*
X186690000Y-105410000D03*
X184150000Y-105410000D03*
X181610000Y-105410000D03*
X179070000Y-105410000D03*
X176530000Y-105410000D03*
D13*
X186055000Y-102806500D03*
D14*
X195834000Y-97536000D03*
X197866000Y-100076000D03*
D13*
X191008000Y-96266000D03*
X181102000Y-92202000D03*
D14*
X175260000Y-91948000D03*
X192278000Y-90424000D03*
X197612000Y-92964000D03*
X201676000Y-93472000D03*
X201676000Y-97028000D03*
X181356000Y-102870000D03*
X181356000Y-99822000D03*
X179070000Y-95504000D03*
X179070000Y-102362000D03*
X171450000Y-91440000D03*
X171450000Y-98425000D03*
X172402500Y-98742500D03*
D13*
X187071000Y-101981000D03*
X187071000Y-100711000D03*
X188277500Y-90170000D03*
D14*
X195834000Y-101600000D03*
D13*
X183388000Y-102108000D03*
X183388000Y-100838000D03*
D14*
X177292000Y-90678000D03*
X195580000Y-94234000D03*
X179070000Y-96520000D03*
D13*
X190246000Y-100711000D03*
X190246000Y-101981000D03*
X183515000Y-97790000D03*
X183515000Y-95250000D03*
X184785000Y-95250000D03*
X183515000Y-96520000D03*
X188912500Y-97790000D03*
X188912500Y-95250000D03*
X187325000Y-95250000D03*
X188912500Y-96520000D03*
D14*
X171450000Y-106680000D03*
X191008000Y-95504000D03*
X177800000Y-100076000D03*
X190500000Y-93472000D03*
X177292000Y-93472000D03*
X192024000Y-100076000D03*
X176022000Y-98806000D03*
X191770000Y-92964000D03*
X176530000Y-91948000D03*
X171450000Y-93726000D03*
D15*
X180340000Y-106680000D02*
X181610000Y-105410000D01*
X171704000Y-106680000D02*
X180340000Y-106680000D01*
X171450000Y-106680000D02*
X171704000Y-106680000D01*
X191008000Y-95504000D02*
X189738000Y-94234000D01*
X177800000Y-100076000D02*
X177292000Y-100076000D01*
X189738000Y-94234000D02*
X177292000Y-94234000D01*
X190500000Y-93472000D02*
X189738000Y-94234000D01*
X177292000Y-103632000D02*
X177292000Y-100076000D01*
X177292000Y-100076000D02*
X177292000Y-94234000D01*
X177292000Y-94234000D02*
X177292000Y-93980000D01*
X177292000Y-103632000D02*
X179070000Y-105410000D01*
X177292000Y-93472000D02*
X177292000Y-93980000D01*
X192024000Y-100076000D02*
X192024000Y-98806000D01*
X191262000Y-92964000D02*
X191262000Y-94996000D01*
X192024000Y-95758000D02*
X192024000Y-98806000D01*
X191262000Y-94996000D02*
X192024000Y-95758000D01*
X176530000Y-98806000D02*
X176022000Y-98806000D01*
X191770000Y-92964000D02*
X191262000Y-92964000D01*
X191262000Y-92964000D02*
X176530000Y-92964000D01*
X176530000Y-105410000D02*
X176530000Y-98806000D01*
X176530000Y-98806000D02*
X176530000Y-92964000D01*
X176530000Y-92964000D02*
X176530000Y-91948000D01*
X171450000Y-93726000D02*
X170942000Y-93218000D01*
X170942000Y-93218000D02*
X170942000Y-92964000D01*
X179070000Y-88900000D02*
X180340000Y-88900000D01*
X180340000Y-88900000D02*
X181610000Y-87630000D01*
X172720000Y-88900000D02*
X179070000Y-88900000D01*
X170942000Y-90678000D02*
X172720000Y-88900000D01*
X170942000Y-92964000D02*
X170942000Y-90678000D01*
M02*
