G04 #@! TF.FileFunction,Legend,Top*
%FSLAX46Y46*%
G04 Gerber Fmt 4.6, Leading zero omitted, Abs format (unit mm)*
G04 Created by KiCad (PCBNEW 4.0.6-e0-6349~53~ubuntu16.04.1) date Tue Feb 27 12:18:18 2018*
%MOMM*%
%LPD*%
G01*
G04 APERTURE LIST*
%ADD10C,0.100000*%
%ADD11C,0.200000*%
%ADD12C,0.152400*%
%ADD13C,0.150000*%
G04 APERTURE END LIST*
D10*
D11*
X201422000Y-86868000D02*
X201422000Y-87630000D01*
X201676000Y-86741000D02*
X201676000Y-87884000D01*
X201930000Y-86487000D02*
X201930000Y-88011000D01*
X202184000Y-86233000D02*
X202184000Y-88392000D01*
X202438000Y-85979000D02*
X202438000Y-88646000D01*
X202692000Y-85598000D02*
X202565000Y-85598000D01*
X202692000Y-88900000D02*
X202692000Y-85598000D01*
X201041000Y-87249000D02*
X202692000Y-88900000D01*
X202692000Y-85598000D02*
X201041000Y-87249000D01*
D12*
X193233524Y-103789238D02*
X193378667Y-103837619D01*
X193620571Y-103837619D01*
X193717333Y-103789238D01*
X193765714Y-103740857D01*
X193814095Y-103644095D01*
X193814095Y-103547333D01*
X193765714Y-103450571D01*
X193717333Y-103402190D01*
X193620571Y-103353810D01*
X193427048Y-103305429D01*
X193330286Y-103257048D01*
X193281905Y-103208667D01*
X193233524Y-103111905D01*
X193233524Y-103015143D01*
X193281905Y-102918381D01*
X193330286Y-102870000D01*
X193427048Y-102821619D01*
X193668952Y-102821619D01*
X193814095Y-102870000D01*
X194249524Y-103740857D02*
X194297905Y-103789238D01*
X194249524Y-103837619D01*
X194201143Y-103789238D01*
X194249524Y-103740857D01*
X194249524Y-103837619D01*
X194636572Y-102821619D02*
X195313905Y-102821619D01*
X194636572Y-103837619D01*
X195313905Y-103837619D01*
X195700953Y-103837619D02*
X195700953Y-102821619D01*
X196136381Y-103837619D02*
X196136381Y-103305429D01*
X196088000Y-103208667D01*
X195991238Y-103160286D01*
X195846096Y-103160286D01*
X195749334Y-103208667D01*
X195700953Y-103257048D01*
X197055619Y-103837619D02*
X197055619Y-103305429D01*
X197007238Y-103208667D01*
X196910476Y-103160286D01*
X196716953Y-103160286D01*
X196620191Y-103208667D01*
X197055619Y-103789238D02*
X196958857Y-103837619D01*
X196716953Y-103837619D01*
X196620191Y-103789238D01*
X196571810Y-103692476D01*
X196571810Y-103595714D01*
X196620191Y-103498952D01*
X196716953Y-103450571D01*
X196958857Y-103450571D01*
X197055619Y-103402190D01*
X197539429Y-103160286D02*
X197539429Y-103837619D01*
X197539429Y-103257048D02*
X197587810Y-103208667D01*
X197684572Y-103160286D01*
X197829714Y-103160286D01*
X197926476Y-103208667D01*
X197974857Y-103305429D01*
X197974857Y-103837619D01*
X198894095Y-103160286D02*
X198894095Y-103982762D01*
X198845714Y-104079524D01*
X198797333Y-104127905D01*
X198700572Y-104176286D01*
X198555429Y-104176286D01*
X198458667Y-104127905D01*
X198894095Y-103789238D02*
X198797333Y-103837619D01*
X198603810Y-103837619D01*
X198507048Y-103789238D01*
X198458667Y-103740857D01*
X198410286Y-103644095D01*
X198410286Y-103353810D01*
X198458667Y-103257048D01*
X198507048Y-103208667D01*
X198603810Y-103160286D01*
X198797333Y-103160286D01*
X198894095Y-103208667D01*
X172006381Y-86106001D02*
X172006381Y-86202762D01*
X171958000Y-86299524D01*
X171909619Y-86347905D01*
X171812857Y-86396286D01*
X171619333Y-86444667D01*
X171377429Y-86444667D01*
X171183905Y-86396286D01*
X171087143Y-86347905D01*
X171038762Y-86299524D01*
X170990381Y-86202762D01*
X170990381Y-86106001D01*
X171038762Y-86009239D01*
X171087143Y-85960858D01*
X171183905Y-85912477D01*
X171377429Y-85864096D01*
X171619333Y-85864096D01*
X171812857Y-85912477D01*
X171909619Y-85960858D01*
X171958000Y-86009239D01*
X172006381Y-86106001D01*
X172006381Y-86783334D02*
X172006381Y-87460667D01*
X170990381Y-87025239D01*
X172054762Y-88573429D02*
X170748476Y-87702572D01*
X170990381Y-89444286D02*
X170990381Y-88863715D01*
X170990381Y-89154001D02*
X172006381Y-89154001D01*
X171861238Y-89057239D01*
X171764476Y-88960477D01*
X171716095Y-88863715D01*
X172006381Y-90315143D02*
X172006381Y-90121620D01*
X171958000Y-90024858D01*
X171909619Y-89976477D01*
X171764476Y-89879715D01*
X171570952Y-89831334D01*
X171183905Y-89831334D01*
X171087143Y-89879715D01*
X171038762Y-89928096D01*
X170990381Y-90024858D01*
X170990381Y-90218381D01*
X171038762Y-90315143D01*
X171087143Y-90363524D01*
X171183905Y-90411905D01*
X171425810Y-90411905D01*
X171522571Y-90363524D01*
X171570952Y-90315143D01*
X171619333Y-90218381D01*
X171619333Y-90024858D01*
X171570952Y-89928096D01*
X171522571Y-89879715D01*
X171425810Y-89831334D01*
X181035476Y-95020191D02*
X181640238Y-94596858D01*
X181035476Y-94294477D02*
X182305476Y-94294477D01*
X182305476Y-94778286D01*
X182245000Y-94899239D01*
X182184524Y-94959715D01*
X182063571Y-95020191D01*
X181882143Y-95020191D01*
X181761190Y-94959715D01*
X181700714Y-94899239D01*
X181640238Y-94778286D01*
X181640238Y-94294477D01*
X181095952Y-96048286D02*
X181035476Y-95927334D01*
X181035476Y-95685429D01*
X181095952Y-95564477D01*
X181216905Y-95504001D01*
X181700714Y-95504001D01*
X181821667Y-95564477D01*
X181882143Y-95685429D01*
X181882143Y-95927334D01*
X181821667Y-96048286D01*
X181700714Y-96108763D01*
X181579762Y-96108763D01*
X181458810Y-95504001D01*
X181882143Y-96532096D02*
X181035476Y-96834477D01*
X181882143Y-97136857D01*
X181156429Y-99314000D02*
X181095952Y-99253524D01*
X181035476Y-99072095D01*
X181035476Y-98951143D01*
X181095952Y-98769715D01*
X181216905Y-98648762D01*
X181337857Y-98588286D01*
X181579762Y-98527810D01*
X181761190Y-98527810D01*
X182003095Y-98588286D01*
X182124048Y-98648762D01*
X182245000Y-98769715D01*
X182305476Y-98951143D01*
X182305476Y-99072095D01*
X182245000Y-99253524D01*
X182184524Y-99314000D01*
X172490191Y-103837619D02*
X172151525Y-103353810D01*
X171909620Y-103837619D02*
X171909620Y-102821619D01*
X172296667Y-102821619D01*
X172393429Y-102870000D01*
X172441810Y-102918381D01*
X172490191Y-103015143D01*
X172490191Y-103160286D01*
X172441810Y-103257048D01*
X172393429Y-103305429D01*
X172296667Y-103353810D01*
X171909620Y-103353810D01*
X172877239Y-103789238D02*
X173022382Y-103837619D01*
X173264286Y-103837619D01*
X173361048Y-103789238D01*
X173409429Y-103740857D01*
X173457810Y-103644095D01*
X173457810Y-103547333D01*
X173409429Y-103450571D01*
X173361048Y-103402190D01*
X173264286Y-103353810D01*
X173070763Y-103305429D01*
X172974001Y-103257048D01*
X172925620Y-103208667D01*
X172877239Y-103111905D01*
X172877239Y-103015143D01*
X172925620Y-102918381D01*
X172974001Y-102870000D01*
X173070763Y-102821619D01*
X173312667Y-102821619D01*
X173457810Y-102870000D01*
X174328667Y-103160286D02*
X174328667Y-103837619D01*
X174086763Y-102773238D02*
X173844858Y-103498952D01*
X174473810Y-103498952D01*
X175006001Y-103257048D02*
X174909239Y-103208667D01*
X174860858Y-103160286D01*
X174812477Y-103063524D01*
X174812477Y-103015143D01*
X174860858Y-102918381D01*
X174909239Y-102870000D01*
X175006001Y-102821619D01*
X175199524Y-102821619D01*
X175296286Y-102870000D01*
X175344667Y-102918381D01*
X175393048Y-103015143D01*
X175393048Y-103063524D01*
X175344667Y-103160286D01*
X175296286Y-103208667D01*
X175199524Y-103257048D01*
X175006001Y-103257048D01*
X174909239Y-103305429D01*
X174860858Y-103353810D01*
X174812477Y-103450571D01*
X174812477Y-103644095D01*
X174860858Y-103740857D01*
X174909239Y-103789238D01*
X175006001Y-103837619D01*
X175199524Y-103837619D01*
X175296286Y-103789238D01*
X175344667Y-103740857D01*
X175393048Y-103644095D01*
X175393048Y-103450571D01*
X175344667Y-103353810D01*
X175296286Y-103305429D01*
X175199524Y-103257048D01*
X176312286Y-102821619D02*
X175828477Y-102821619D01*
X175780096Y-103305429D01*
X175828477Y-103257048D01*
X175925239Y-103208667D01*
X176167143Y-103208667D01*
X176263905Y-103257048D01*
X176312286Y-103305429D01*
X176360667Y-103402190D01*
X176360667Y-103644095D01*
X176312286Y-103740857D01*
X176263905Y-103789238D01*
X176167143Y-103837619D01*
X175925239Y-103837619D01*
X175828477Y-103789238D01*
X175780096Y-103740857D01*
X177570191Y-103837619D02*
X177570191Y-102821619D01*
X177957238Y-102821619D01*
X178054000Y-102870000D01*
X178102381Y-102918381D01*
X178150762Y-103015143D01*
X178150762Y-103160286D01*
X178102381Y-103257048D01*
X178054000Y-103305429D01*
X177957238Y-103353810D01*
X177570191Y-103353810D01*
X179166762Y-103740857D02*
X179118381Y-103789238D01*
X178973238Y-103837619D01*
X178876476Y-103837619D01*
X178731334Y-103789238D01*
X178634572Y-103692476D01*
X178586191Y-103595714D01*
X178537810Y-103402190D01*
X178537810Y-103257048D01*
X178586191Y-103063524D01*
X178634572Y-102966762D01*
X178731334Y-102870000D01*
X178876476Y-102821619D01*
X178973238Y-102821619D01*
X179118381Y-102870000D01*
X179166762Y-102918381D01*
X179940857Y-103305429D02*
X180086000Y-103353810D01*
X180134381Y-103402190D01*
X180182762Y-103498952D01*
X180182762Y-103644095D01*
X180134381Y-103740857D01*
X180086000Y-103789238D01*
X179989238Y-103837619D01*
X179602191Y-103837619D01*
X179602191Y-102821619D01*
X179940857Y-102821619D01*
X180037619Y-102870000D01*
X180086000Y-102918381D01*
X180134381Y-103015143D01*
X180134381Y-103111905D01*
X180086000Y-103208667D01*
X180037619Y-103257048D01*
X179940857Y-103305429D01*
X179602191Y-103305429D01*
X194261619Y-96423238D02*
X194164857Y-96471619D01*
X193971334Y-96471619D01*
X193874572Y-96423238D01*
X193826191Y-96326476D01*
X193826191Y-95939429D01*
X193874572Y-95842667D01*
X193971334Y-95794286D01*
X194164857Y-95794286D01*
X194261619Y-95842667D01*
X194310000Y-95939429D01*
X194310000Y-96036190D01*
X193826191Y-96132952D01*
X194600286Y-95455619D02*
X194938953Y-96471619D01*
X195277619Y-95455619D01*
X195809810Y-95455619D02*
X196003333Y-95455619D01*
X196100095Y-95504000D01*
X196196857Y-95600762D01*
X196245238Y-95794286D01*
X196245238Y-96132952D01*
X196196857Y-96326476D01*
X196100095Y-96423238D01*
X196003333Y-96471619D01*
X195809810Y-96471619D01*
X195713048Y-96423238D01*
X195616286Y-96326476D01*
X195567905Y-96132952D01*
X195567905Y-95794286D01*
X195616286Y-95600762D01*
X195713048Y-95504000D01*
X195809810Y-95455619D01*
X197164476Y-96471619D02*
X196680667Y-96471619D01*
X196680667Y-95455619D01*
X197358000Y-95455619D02*
X197696667Y-96471619D01*
X198035333Y-95455619D01*
X198374000Y-95939429D02*
X198712666Y-95939429D01*
X198857809Y-96471619D02*
X198374000Y-96471619D01*
X198374000Y-95455619D01*
X198857809Y-95455619D01*
X199873809Y-96471619D02*
X199535143Y-95987810D01*
X199293238Y-96471619D02*
X199293238Y-95455619D01*
X199680285Y-95455619D01*
X199777047Y-95504000D01*
X199825428Y-95552381D01*
X199873809Y-95649143D01*
X199873809Y-95794286D01*
X199825428Y-95891048D01*
X199777047Y-95939429D01*
X199680285Y-95987810D01*
X199293238Y-95987810D01*
X173215905Y-96423238D02*
X173119143Y-96471619D01*
X172925620Y-96471619D01*
X172828858Y-96423238D01*
X172780477Y-96326476D01*
X172780477Y-95939429D01*
X172828858Y-95842667D01*
X172925620Y-95794286D01*
X173119143Y-95794286D01*
X173215905Y-95842667D01*
X173264286Y-95939429D01*
X173264286Y-96036190D01*
X172780477Y-96132952D01*
X174135143Y-96471619D02*
X174135143Y-95455619D01*
X174135143Y-96423238D02*
X174038381Y-96471619D01*
X173844858Y-96471619D01*
X173748096Y-96423238D01*
X173699715Y-96374857D01*
X173651334Y-96278095D01*
X173651334Y-95987810D01*
X173699715Y-95891048D01*
X173748096Y-95842667D01*
X173844858Y-95794286D01*
X174038381Y-95794286D01*
X174135143Y-95842667D01*
X174473810Y-95794286D02*
X174860858Y-95794286D01*
X174618953Y-96471619D02*
X174618953Y-95600762D01*
X174667334Y-95504000D01*
X174764096Y-95455619D01*
X174860858Y-95455619D01*
X175199524Y-96374857D02*
X175247905Y-96423238D01*
X175199524Y-96471619D01*
X175151143Y-96423238D01*
X175199524Y-96374857D01*
X175199524Y-96471619D01*
X175683334Y-96471619D02*
X175683334Y-95455619D01*
X175683334Y-95842667D02*
X175780096Y-95794286D01*
X175973619Y-95794286D01*
X176070381Y-95842667D01*
X176118762Y-95891048D01*
X176167143Y-95987810D01*
X176167143Y-96278095D01*
X176118762Y-96374857D01*
X176070381Y-96423238D01*
X175973619Y-96471619D01*
X175780096Y-96471619D01*
X175683334Y-96423238D01*
X177038000Y-95794286D02*
X177038000Y-96471619D01*
X176602572Y-95794286D02*
X176602572Y-96326476D01*
X176650953Y-96423238D01*
X176747715Y-96471619D01*
X176892857Y-96471619D01*
X176989619Y-96423238D01*
X177038000Y-96374857D01*
X177521810Y-96374857D02*
X177570191Y-96423238D01*
X177521810Y-96471619D01*
X177473429Y-96423238D01*
X177521810Y-96374857D01*
X177521810Y-96471619D01*
X178392667Y-96423238D02*
X178295905Y-96471619D01*
X178102382Y-96471619D01*
X178005620Y-96423238D01*
X177957239Y-96326476D01*
X177957239Y-95939429D01*
X178005620Y-95842667D01*
X178102382Y-95794286D01*
X178295905Y-95794286D01*
X178392667Y-95842667D01*
X178441048Y-95939429D01*
X178441048Y-96036190D01*
X177957239Y-96132952D01*
X179311905Y-96471619D02*
X179311905Y-95455619D01*
X179311905Y-96423238D02*
X179215143Y-96471619D01*
X179021620Y-96471619D01*
X178924858Y-96423238D01*
X178876477Y-96374857D01*
X178828096Y-96278095D01*
X178828096Y-95987810D01*
X178876477Y-95891048D01*
X178924858Y-95842667D01*
X179021620Y-95794286D01*
X179215143Y-95794286D01*
X179311905Y-95842667D01*
X180231143Y-95794286D02*
X180231143Y-96471619D01*
X179795715Y-95794286D02*
X179795715Y-96326476D01*
X179844096Y-96423238D01*
X179940858Y-96471619D01*
X180086000Y-96471619D01*
X180182762Y-96423238D01*
X180231143Y-96374857D01*
D13*
X170180000Y-107950000D02*
X170180000Y-85090000D01*
X203200000Y-107950000D02*
X170180000Y-107950000D01*
X203200000Y-85090000D02*
X203200000Y-107950000D01*
X170180000Y-85090000D02*
X203200000Y-85090000D01*
X190533000Y-97540000D02*
X190533000Y-98040000D01*
X191483000Y-98040000D02*
X191483000Y-97540000D01*
X182593000Y-92960000D02*
X182593000Y-92460000D01*
X181643000Y-92460000D02*
X181643000Y-92960000D01*
X181677500Y-101186000D02*
X182177500Y-101186000D01*
X182177500Y-100236000D02*
X181677500Y-100236000D01*
X188408500Y-101186000D02*
X188908500Y-101186000D01*
X188908500Y-100236000D02*
X188408500Y-100236000D01*
X181677500Y-102456000D02*
X182177500Y-102456000D01*
X182177500Y-101506000D02*
X181677500Y-101506000D01*
X188408500Y-102456000D02*
X188908500Y-102456000D01*
X188908500Y-101506000D02*
X188408500Y-101506000D01*
X186530000Y-101532500D02*
X186530000Y-101032500D01*
X185580000Y-101032500D02*
X185580000Y-101532500D01*
X202137500Y-92325000D02*
X202137500Y-91825000D01*
X201087500Y-91825000D02*
X201087500Y-92325000D01*
X201151000Y-98048000D02*
X201151000Y-98548000D01*
X202201000Y-98548000D02*
X202201000Y-98048000D01*
X170925000Y-99445000D02*
X170925000Y-99945000D01*
X171975000Y-99945000D02*
X171975000Y-99445000D01*
X189230000Y-99695000D02*
X189230000Y-90170000D01*
X189230000Y-90170000D02*
X182880000Y-90170000D01*
X182880000Y-90170000D02*
X182880000Y-99695000D01*
X182880000Y-99695000D02*
X189230000Y-99695000D01*
X171975000Y-92960000D02*
X171975000Y-92460000D01*
X170925000Y-92460000D02*
X170925000Y-92960000D01*
X201059696Y-94259400D02*
G75*
G03X201059696Y-94259400I-56796J0D01*
G01*
X192540000Y-95035600D02*
X200525000Y-95035600D01*
X200525000Y-95035600D02*
X200525000Y-89514400D01*
X200525000Y-89514400D02*
X192540000Y-89514400D01*
X192540000Y-89514400D02*
X192540000Y-95035600D01*
X201123196Y-101498400D02*
G75*
G03X201123196Y-101498400I-56796J0D01*
G01*
X192603500Y-102274600D02*
X200588500Y-102274600D01*
X200588500Y-102274600D02*
X200588500Y-96753400D01*
X200588500Y-96753400D02*
X192603500Y-96753400D01*
X192603500Y-96753400D02*
X192603500Y-102274600D01*
X172116396Y-97510600D02*
G75*
G03X172116396Y-97510600I-56796J0D01*
G01*
X180522500Y-96734400D02*
X172537500Y-96734400D01*
X172537500Y-96734400D02*
X172537500Y-102255600D01*
X172537500Y-102255600D02*
X180522500Y-102255600D01*
X180522500Y-102255600D02*
X180522500Y-96734400D01*
X172116396Y-90525600D02*
G75*
G03X172116396Y-90525600I-56796J0D01*
G01*
X180522500Y-89749400D02*
X172537500Y-89749400D01*
X172537500Y-89749400D02*
X172537500Y-95270600D01*
X172537500Y-95270600D02*
X180522500Y-95270600D01*
X180522500Y-95270600D02*
X180522500Y-89749400D01*
X190841334Y-99950543D02*
X190793715Y-99998162D01*
X190650858Y-100045781D01*
X190555620Y-100045781D01*
X190412762Y-99998162D01*
X190317524Y-99902924D01*
X190269905Y-99807686D01*
X190222286Y-99617210D01*
X190222286Y-99474352D01*
X190269905Y-99283876D01*
X190317524Y-99188638D01*
X190412762Y-99093400D01*
X190555620Y-99045781D01*
X190650858Y-99045781D01*
X190793715Y-99093400D01*
X190841334Y-99141019D01*
X191793715Y-100045781D02*
X191222286Y-100045781D01*
X191508000Y-100045781D02*
X191508000Y-99045781D01*
X191412762Y-99188638D01*
X191317524Y-99283876D01*
X191222286Y-99331495D01*
X181417934Y-91238343D02*
X181370315Y-91285962D01*
X181227458Y-91333581D01*
X181132220Y-91333581D01*
X180989362Y-91285962D01*
X180894124Y-91190724D01*
X180846505Y-91095486D01*
X180798886Y-90905010D01*
X180798886Y-90762152D01*
X180846505Y-90571676D01*
X180894124Y-90476438D01*
X180989362Y-90381200D01*
X181132220Y-90333581D01*
X181227458Y-90333581D01*
X181370315Y-90381200D01*
X181417934Y-90428819D01*
X181798886Y-90428819D02*
X181846505Y-90381200D01*
X181941743Y-90333581D01*
X182179839Y-90333581D01*
X182275077Y-90381200D01*
X182322696Y-90428819D01*
X182370315Y-90524057D01*
X182370315Y-90619295D01*
X182322696Y-90762152D01*
X181751267Y-91333581D01*
X182370315Y-91333581D01*
X184288134Y-101093543D02*
X184240515Y-101141162D01*
X184097658Y-101188781D01*
X184002420Y-101188781D01*
X183859562Y-101141162D01*
X183764324Y-101045924D01*
X183716705Y-100950686D01*
X183669086Y-100760210D01*
X183669086Y-100617352D01*
X183716705Y-100426876D01*
X183764324Y-100331638D01*
X183859562Y-100236400D01*
X184002420Y-100188781D01*
X184097658Y-100188781D01*
X184240515Y-100236400D01*
X184288134Y-100284019D01*
X184621467Y-100188781D02*
X185240515Y-100188781D01*
X184907181Y-100569733D01*
X185050039Y-100569733D01*
X185145277Y-100617352D01*
X185192896Y-100664971D01*
X185240515Y-100760210D01*
X185240515Y-100998305D01*
X185192896Y-101093543D01*
X185145277Y-101141162D01*
X185050039Y-101188781D01*
X184764324Y-101188781D01*
X184669086Y-101141162D01*
X184621467Y-101093543D01*
X191349334Y-101195143D02*
X191301715Y-101242762D01*
X191158858Y-101290381D01*
X191063620Y-101290381D01*
X190920762Y-101242762D01*
X190825524Y-101147524D01*
X190777905Y-101052286D01*
X190730286Y-100861810D01*
X190730286Y-100718952D01*
X190777905Y-100528476D01*
X190825524Y-100433238D01*
X190920762Y-100338000D01*
X191063620Y-100290381D01*
X191158858Y-100290381D01*
X191301715Y-100338000D01*
X191349334Y-100385619D01*
X192206477Y-100623714D02*
X192206477Y-101290381D01*
X191968381Y-100242762D02*
X191730286Y-100957048D01*
X192349334Y-100957048D01*
X184288134Y-102566743D02*
X184240515Y-102614362D01*
X184097658Y-102661981D01*
X184002420Y-102661981D01*
X183859562Y-102614362D01*
X183764324Y-102519124D01*
X183716705Y-102423886D01*
X183669086Y-102233410D01*
X183669086Y-102090552D01*
X183716705Y-101900076D01*
X183764324Y-101804838D01*
X183859562Y-101709600D01*
X184002420Y-101661981D01*
X184097658Y-101661981D01*
X184240515Y-101709600D01*
X184288134Y-101757219D01*
X185192896Y-101661981D02*
X184716705Y-101661981D01*
X184669086Y-102138171D01*
X184716705Y-102090552D01*
X184811943Y-102042933D01*
X185050039Y-102042933D01*
X185145277Y-102090552D01*
X185192896Y-102138171D01*
X185240515Y-102233410D01*
X185240515Y-102471505D01*
X185192896Y-102566743D01*
X185145277Y-102614362D01*
X185050039Y-102661981D01*
X184811943Y-102661981D01*
X184716705Y-102614362D01*
X184669086Y-102566743D01*
X191349334Y-102465143D02*
X191301715Y-102512762D01*
X191158858Y-102560381D01*
X191063620Y-102560381D01*
X190920762Y-102512762D01*
X190825524Y-102417524D01*
X190777905Y-102322286D01*
X190730286Y-102131810D01*
X190730286Y-101988952D01*
X190777905Y-101798476D01*
X190825524Y-101703238D01*
X190920762Y-101608000D01*
X191063620Y-101560381D01*
X191158858Y-101560381D01*
X191301715Y-101608000D01*
X191349334Y-101655619D01*
X192206477Y-101560381D02*
X192016000Y-101560381D01*
X191920762Y-101608000D01*
X191873143Y-101655619D01*
X191777905Y-101798476D01*
X191730286Y-101988952D01*
X191730286Y-102369905D01*
X191777905Y-102465143D01*
X191825524Y-102512762D01*
X191920762Y-102560381D01*
X192111239Y-102560381D01*
X192206477Y-102512762D01*
X192254096Y-102465143D01*
X192301715Y-102369905D01*
X192301715Y-102131810D01*
X192254096Y-102036571D01*
X192206477Y-101988952D01*
X192111239Y-101941333D01*
X191920762Y-101941333D01*
X191825524Y-101988952D01*
X191777905Y-102036571D01*
X191730286Y-102131810D01*
X185761334Y-103671643D02*
X185713715Y-103719262D01*
X185570858Y-103766881D01*
X185475620Y-103766881D01*
X185332762Y-103719262D01*
X185237524Y-103624024D01*
X185189905Y-103528786D01*
X185142286Y-103338310D01*
X185142286Y-103195452D01*
X185189905Y-103004976D01*
X185237524Y-102909738D01*
X185332762Y-102814500D01*
X185475620Y-102766881D01*
X185570858Y-102766881D01*
X185713715Y-102814500D01*
X185761334Y-102862119D01*
X186094667Y-102766881D02*
X186761334Y-102766881D01*
X186332762Y-103766881D01*
X201534734Y-90901781D02*
X201201400Y-90425590D01*
X200963305Y-90901781D02*
X200963305Y-89901781D01*
X201344258Y-89901781D01*
X201439496Y-89949400D01*
X201487115Y-89997019D01*
X201534734Y-90092257D01*
X201534734Y-90235114D01*
X201487115Y-90330352D01*
X201439496Y-90377971D01*
X201344258Y-90425590D01*
X200963305Y-90425590D01*
X202487115Y-90901781D02*
X201915686Y-90901781D01*
X202201400Y-90901781D02*
X202201400Y-89901781D01*
X202106162Y-90044638D01*
X202010924Y-90139876D01*
X201915686Y-90187495D01*
X201509334Y-100782381D02*
X201176000Y-100306190D01*
X200937905Y-100782381D02*
X200937905Y-99782381D01*
X201318858Y-99782381D01*
X201414096Y-99830000D01*
X201461715Y-99877619D01*
X201509334Y-99972857D01*
X201509334Y-100115714D01*
X201461715Y-100210952D01*
X201414096Y-100258571D01*
X201318858Y-100306190D01*
X200937905Y-100306190D01*
X201890286Y-99877619D02*
X201937905Y-99830000D01*
X202033143Y-99782381D01*
X202271239Y-99782381D01*
X202366477Y-99830000D01*
X202414096Y-99877619D01*
X202461715Y-99972857D01*
X202461715Y-100068095D01*
X202414096Y-100210952D01*
X201842667Y-100782381D01*
X202461715Y-100782381D01*
X171283334Y-102052381D02*
X170950000Y-101576190D01*
X170711905Y-102052381D02*
X170711905Y-101052381D01*
X171092858Y-101052381D01*
X171188096Y-101100000D01*
X171235715Y-101147619D01*
X171283334Y-101242857D01*
X171283334Y-101385714D01*
X171235715Y-101480952D01*
X171188096Y-101528571D01*
X171092858Y-101576190D01*
X170711905Y-101576190D01*
X171616667Y-101052381D02*
X172235715Y-101052381D01*
X171902381Y-101433333D01*
X172045239Y-101433333D01*
X172140477Y-101480952D01*
X172188096Y-101528571D01*
X172235715Y-101623810D01*
X172235715Y-101861905D01*
X172188096Y-101957143D01*
X172140477Y-102004762D01*
X172045239Y-102052381D01*
X171759524Y-102052381D01*
X171664286Y-102004762D01*
X171616667Y-101957143D01*
X189484095Y-90892381D02*
X189484095Y-91701905D01*
X189531714Y-91797143D01*
X189579333Y-91844762D01*
X189674571Y-91892381D01*
X189865048Y-91892381D01*
X189960286Y-91844762D01*
X190007905Y-91797143D01*
X190055524Y-91701905D01*
X190055524Y-90892381D01*
X190436476Y-90892381D02*
X191055524Y-90892381D01*
X190722190Y-91273333D01*
X190865048Y-91273333D01*
X190960286Y-91320952D01*
X191007905Y-91368571D01*
X191055524Y-91463810D01*
X191055524Y-91701905D01*
X191007905Y-91797143D01*
X190960286Y-91844762D01*
X190865048Y-91892381D01*
X190579333Y-91892381D01*
X190484095Y-91844762D01*
X190436476Y-91797143D01*
X171902381Y-94908666D02*
X171426190Y-95242000D01*
X171902381Y-95480095D02*
X170902381Y-95480095D01*
X170902381Y-95099142D01*
X170950000Y-95003904D01*
X170997619Y-94956285D01*
X171092857Y-94908666D01*
X171235714Y-94908666D01*
X171330952Y-94956285D01*
X171378571Y-95003904D01*
X171426190Y-95099142D01*
X171426190Y-95480095D01*
X171235714Y-94051523D02*
X171902381Y-94051523D01*
X170854762Y-94289619D02*
X171569048Y-94527714D01*
X171569048Y-93908666D01*
X198856714Y-88115857D02*
X198856714Y-89087286D01*
X198913857Y-89201571D01*
X198971000Y-89258714D01*
X199085286Y-89315857D01*
X199313857Y-89315857D01*
X199428143Y-89258714D01*
X199485286Y-89201571D01*
X199542429Y-89087286D01*
X199542429Y-88115857D01*
X200742429Y-89315857D02*
X200056714Y-89315857D01*
X200399572Y-89315857D02*
X200399572Y-88115857D01*
X200285286Y-88287286D01*
X200171000Y-88401571D01*
X200056714Y-88458714D01*
X200761714Y-95354857D02*
X200761714Y-96326286D01*
X200818857Y-96440571D01*
X200876000Y-96497714D01*
X200990286Y-96554857D01*
X201218857Y-96554857D01*
X201333143Y-96497714D01*
X201390286Y-96440571D01*
X201447429Y-96326286D01*
X201447429Y-95354857D01*
X202533143Y-95754857D02*
X202533143Y-96554857D01*
X202247429Y-95297714D02*
X201961714Y-96154857D01*
X202704572Y-96154857D01*
X170535714Y-95862857D02*
X170535714Y-96834286D01*
X170592857Y-96948571D01*
X170650000Y-97005714D01*
X170764286Y-97062857D01*
X170992857Y-97062857D01*
X171107143Y-97005714D01*
X171164286Y-96948571D01*
X171221429Y-96834286D01*
X171221429Y-95862857D01*
X172364286Y-95862857D02*
X171792857Y-95862857D01*
X171735714Y-96434286D01*
X171792857Y-96377143D01*
X171907143Y-96320000D01*
X172192857Y-96320000D01*
X172307143Y-96377143D01*
X172364286Y-96434286D01*
X172421429Y-96548571D01*
X172421429Y-96834286D01*
X172364286Y-96948571D01*
X172307143Y-97005714D01*
X172192857Y-97062857D01*
X171907143Y-97062857D01*
X171792857Y-97005714D01*
X171735714Y-96948571D01*
X172821714Y-88242857D02*
X172821714Y-89214286D01*
X172878857Y-89328571D01*
X172936000Y-89385714D01*
X173050286Y-89442857D01*
X173278857Y-89442857D01*
X173393143Y-89385714D01*
X173450286Y-89328571D01*
X173507429Y-89214286D01*
X173507429Y-88242857D01*
X174021714Y-88357143D02*
X174078857Y-88300000D01*
X174193143Y-88242857D01*
X174478857Y-88242857D01*
X174593143Y-88300000D01*
X174650286Y-88357143D01*
X174707429Y-88471429D01*
X174707429Y-88585714D01*
X174650286Y-88757143D01*
X173964572Y-89442857D01*
X174707429Y-89442857D01*
M02*
