G04 #@! TF.FileFunction,Legend,Bot*
%FSLAX46Y46*%
G04 Gerber Fmt 4.6, Leading zero omitted, Abs format (unit mm)*
G04 Created by KiCad (PCBNEW 4.0.6-e0-6349~53~ubuntu16.04.1) date Tue Feb 27 12:18:18 2018*
%MOMM*%
%LPD*%
G01*
G04 APERTURE LIST*
%ADD10C,0.100000*%
%ADD11C,0.150000*%
G04 APERTURE END LIST*
D10*
D11*
X170180000Y-107950000D02*
X170180000Y-85090000D01*
X203200000Y-107950000D02*
X170180000Y-107950000D01*
X203200000Y-85090000D02*
X203200000Y-107950000D01*
X170180000Y-85090000D02*
X203200000Y-85090000D01*
X198120000Y-86360000D02*
X198120000Y-88900000D01*
X198120000Y-88900000D02*
X175260000Y-88900000D01*
X175260000Y-88900000D02*
X175260000Y-86360000D01*
X175260000Y-86360000D02*
X198120000Y-86360000D01*
X198120000Y-104140000D02*
X198120000Y-106680000D01*
X198120000Y-106680000D02*
X175260000Y-106680000D01*
X175260000Y-106680000D02*
X175260000Y-104140000D01*
X175260000Y-104140000D02*
X198120000Y-104140000D01*
X199975695Y-88768181D02*
X199975695Y-87768181D01*
X199594742Y-87768181D01*
X199499504Y-87815800D01*
X199451885Y-87863419D01*
X199404266Y-87958657D01*
X199404266Y-88101514D01*
X199451885Y-88196752D01*
X199499504Y-88244371D01*
X199594742Y-88291990D01*
X199975695Y-88291990D01*
X198451885Y-88768181D02*
X199023314Y-88768181D01*
X198737600Y-88768181D02*
X198737600Y-87768181D01*
X198832838Y-87911038D01*
X198928076Y-88006276D01*
X199023314Y-88053895D01*
X199924895Y-105760781D02*
X199924895Y-104760781D01*
X199543942Y-104760781D01*
X199448704Y-104808400D01*
X199401085Y-104856019D01*
X199353466Y-104951257D01*
X199353466Y-105094114D01*
X199401085Y-105189352D01*
X199448704Y-105236971D01*
X199543942Y-105284590D01*
X199924895Y-105284590D01*
X198972514Y-104856019D02*
X198924895Y-104808400D01*
X198829657Y-104760781D01*
X198591561Y-104760781D01*
X198496323Y-104808400D01*
X198448704Y-104856019D01*
X198401085Y-104951257D01*
X198401085Y-105046495D01*
X198448704Y-105189352D01*
X199020133Y-105760781D01*
X198401085Y-105760781D01*
M02*
