G04 #@! TF.FileFunction,Copper,L3,Inr,Signal*
%FSLAX46Y46*%
G04 Gerber Fmt 4.6, Leading zero omitted, Abs format (unit mm)*
G04 Created by KiCad (PCBNEW 4.0.6-e0-6349~53~ubuntu16.04.1) date Tue Feb 27 12:18:18 2018*
%MOMM*%
%LPD*%
G01*
G04 APERTURE LIST*
%ADD10C,0.100000*%
%ADD11C,0.150000*%
%ADD12C,1.524000*%
%ADD13C,0.508000*%
%ADD14C,0.406400*%
%ADD15C,0.127000*%
G04 APERTURE END LIST*
D10*
D11*
X170180000Y-107950000D02*
X170180000Y-85090000D01*
X203200000Y-107950000D02*
X170180000Y-107950000D01*
X203200000Y-85090000D02*
X203200000Y-107950000D01*
X170180000Y-85090000D02*
X203200000Y-85090000D01*
D12*
X196850000Y-87630000D03*
X194310000Y-87630000D03*
X191770000Y-87630000D03*
X189230000Y-87630000D03*
X186690000Y-87630000D03*
X184150000Y-87630000D03*
X181610000Y-87630000D03*
X179070000Y-87630000D03*
X176530000Y-87630000D03*
X196850000Y-105410000D03*
X194310000Y-105410000D03*
X191770000Y-105410000D03*
X189230000Y-105410000D03*
X186690000Y-105410000D03*
X184150000Y-105410000D03*
X181610000Y-105410000D03*
X179070000Y-105410000D03*
X176530000Y-105410000D03*
D13*
X186055000Y-102806500D03*
D14*
X195834000Y-97536000D03*
X197866000Y-100076000D03*
D13*
X191008000Y-96266000D03*
X181102000Y-92202000D03*
D14*
X175260000Y-91948000D03*
X192278000Y-90424000D03*
X197612000Y-92964000D03*
X201676000Y-93472000D03*
X201676000Y-97028000D03*
X181356000Y-102870000D03*
X181356000Y-99822000D03*
X179070000Y-95504000D03*
X179070000Y-102362000D03*
X171450000Y-91440000D03*
X171450000Y-98425000D03*
X172402500Y-98742500D03*
D13*
X187071000Y-101981000D03*
X187071000Y-100711000D03*
X188277500Y-90170000D03*
D14*
X195834000Y-101600000D03*
D13*
X183388000Y-102108000D03*
X183388000Y-100838000D03*
D14*
X177292000Y-90678000D03*
X195580000Y-94234000D03*
X179070000Y-96520000D03*
D13*
X190246000Y-100711000D03*
X190246000Y-101981000D03*
X183515000Y-97790000D03*
X183515000Y-95250000D03*
X184785000Y-95250000D03*
X183515000Y-96520000D03*
X188912500Y-97790000D03*
X188912500Y-95250000D03*
X187325000Y-95250000D03*
X188912500Y-96520000D03*
D14*
X171450000Y-106680000D03*
X191008000Y-95504000D03*
X177800000Y-100076000D03*
X190500000Y-93472000D03*
X177292000Y-93472000D03*
X192024000Y-100076000D03*
X176022000Y-98806000D03*
X191770000Y-92964000D03*
X176530000Y-91948000D03*
X171450000Y-93726000D03*
D15*
G36*
X202807500Y-107557500D02*
X170572500Y-107557500D01*
X170572500Y-106783119D01*
X170929210Y-106783119D01*
X171008315Y-106974567D01*
X171154662Y-107121170D01*
X171345972Y-107200609D01*
X171553119Y-107200790D01*
X171744567Y-107121685D01*
X171891170Y-106975338D01*
X171970609Y-106784028D01*
X171970790Y-106576881D01*
X171891685Y-106385433D01*
X171745338Y-106238830D01*
X171554028Y-106159391D01*
X171346881Y-106159210D01*
X171155433Y-106238315D01*
X171008830Y-106384662D01*
X170929391Y-106575972D01*
X170929210Y-106783119D01*
X170572500Y-106783119D01*
X170572500Y-105623784D01*
X175450313Y-105623784D01*
X175614311Y-106020689D01*
X175917714Y-106324622D01*
X176314332Y-106489313D01*
X176743784Y-106489687D01*
X177140689Y-106325689D01*
X177444622Y-106022286D01*
X177609313Y-105625668D01*
X177609314Y-105623784D01*
X177990313Y-105623784D01*
X178154311Y-106020689D01*
X178457714Y-106324622D01*
X178854332Y-106489313D01*
X179283784Y-106489687D01*
X179680689Y-106325689D01*
X179984622Y-106022286D01*
X180149313Y-105625668D01*
X180149314Y-105623784D01*
X180530313Y-105623784D01*
X180694311Y-106020689D01*
X180997714Y-106324622D01*
X181394332Y-106489313D01*
X181823784Y-106489687D01*
X182220689Y-106325689D01*
X182524622Y-106022286D01*
X182689313Y-105625668D01*
X182689314Y-105623784D01*
X183070313Y-105623784D01*
X183234311Y-106020689D01*
X183537714Y-106324622D01*
X183934332Y-106489313D01*
X184363784Y-106489687D01*
X184760689Y-106325689D01*
X185064622Y-106022286D01*
X185229313Y-105625668D01*
X185229314Y-105623784D01*
X185610313Y-105623784D01*
X185774311Y-106020689D01*
X186077714Y-106324622D01*
X186474332Y-106489313D01*
X186903784Y-106489687D01*
X187300689Y-106325689D01*
X187604622Y-106022286D01*
X187769313Y-105625668D01*
X187769314Y-105623784D01*
X188150313Y-105623784D01*
X188314311Y-106020689D01*
X188617714Y-106324622D01*
X189014332Y-106489313D01*
X189443784Y-106489687D01*
X189840689Y-106325689D01*
X190144622Y-106022286D01*
X190309313Y-105625668D01*
X190309314Y-105623784D01*
X190690313Y-105623784D01*
X190854311Y-106020689D01*
X191157714Y-106324622D01*
X191554332Y-106489313D01*
X191983784Y-106489687D01*
X192380689Y-106325689D01*
X192684622Y-106022286D01*
X192849313Y-105625668D01*
X192849314Y-105623784D01*
X193230313Y-105623784D01*
X193394311Y-106020689D01*
X193697714Y-106324622D01*
X194094332Y-106489313D01*
X194523784Y-106489687D01*
X194754236Y-106394466D01*
X196134942Y-106394466D01*
X196212834Y-106611082D01*
X196720970Y-106763489D01*
X197248750Y-106709838D01*
X197487166Y-106611082D01*
X197565058Y-106394466D01*
X196850000Y-105679408D01*
X196134942Y-106394466D01*
X194754236Y-106394466D01*
X194920689Y-106325689D01*
X195224622Y-106022286D01*
X195389313Y-105625668D01*
X195389613Y-105280970D01*
X195496511Y-105280970D01*
X195550162Y-105808750D01*
X195648918Y-106047166D01*
X195865534Y-106125058D01*
X196580592Y-105410000D01*
X197119408Y-105410000D01*
X197834466Y-106125058D01*
X198051082Y-106047166D01*
X198203489Y-105539030D01*
X198149838Y-105011250D01*
X198051082Y-104772834D01*
X197834466Y-104694942D01*
X197119408Y-105410000D01*
X196580592Y-105410000D01*
X195865534Y-104694942D01*
X195648918Y-104772834D01*
X195496511Y-105280970D01*
X195389613Y-105280970D01*
X195389687Y-105196216D01*
X195225689Y-104799311D01*
X194922286Y-104495378D01*
X194754084Y-104425534D01*
X196134942Y-104425534D01*
X196850000Y-105140592D01*
X197565058Y-104425534D01*
X197487166Y-104208918D01*
X196979030Y-104056511D01*
X196451250Y-104110162D01*
X196212834Y-104208918D01*
X196134942Y-104425534D01*
X194754084Y-104425534D01*
X194525668Y-104330687D01*
X194096216Y-104330313D01*
X193699311Y-104494311D01*
X193395378Y-104797714D01*
X193230687Y-105194332D01*
X193230313Y-105623784D01*
X192849314Y-105623784D01*
X192849687Y-105196216D01*
X192685689Y-104799311D01*
X192382286Y-104495378D01*
X191985668Y-104330687D01*
X191556216Y-104330313D01*
X191159311Y-104494311D01*
X190855378Y-104797714D01*
X190690687Y-105194332D01*
X190690313Y-105623784D01*
X190309314Y-105623784D01*
X190309687Y-105196216D01*
X190145689Y-104799311D01*
X189842286Y-104495378D01*
X189445668Y-104330687D01*
X189016216Y-104330313D01*
X188619311Y-104494311D01*
X188315378Y-104797714D01*
X188150687Y-105194332D01*
X188150313Y-105623784D01*
X187769314Y-105623784D01*
X187769687Y-105196216D01*
X187605689Y-104799311D01*
X187302286Y-104495378D01*
X186905668Y-104330687D01*
X186476216Y-104330313D01*
X186079311Y-104494311D01*
X185775378Y-104797714D01*
X185610687Y-105194332D01*
X185610313Y-105623784D01*
X185229314Y-105623784D01*
X185229687Y-105196216D01*
X185065689Y-104799311D01*
X184762286Y-104495378D01*
X184365668Y-104330687D01*
X183936216Y-104330313D01*
X183539311Y-104494311D01*
X183235378Y-104797714D01*
X183070687Y-105194332D01*
X183070313Y-105623784D01*
X182689314Y-105623784D01*
X182689687Y-105196216D01*
X182525689Y-104799311D01*
X182222286Y-104495378D01*
X181825668Y-104330687D01*
X181396216Y-104330313D01*
X180999311Y-104494311D01*
X180695378Y-104797714D01*
X180530687Y-105194332D01*
X180530313Y-105623784D01*
X180149314Y-105623784D01*
X180149687Y-105196216D01*
X179985689Y-104799311D01*
X179682286Y-104495378D01*
X179285668Y-104330687D01*
X178856216Y-104330313D01*
X178459311Y-104494311D01*
X178155378Y-104797714D01*
X177990687Y-105194332D01*
X177990313Y-105623784D01*
X177609314Y-105623784D01*
X177609687Y-105196216D01*
X177445689Y-104799311D01*
X177142286Y-104495378D01*
X176745668Y-104330687D01*
X176316216Y-104330313D01*
X175919311Y-104494311D01*
X175615378Y-104797714D01*
X175450687Y-105194332D01*
X175450313Y-105623784D01*
X170572500Y-105623784D01*
X170572500Y-102221180D01*
X182816401Y-102221180D01*
X182903224Y-102431306D01*
X183063849Y-102592211D01*
X183273823Y-102679400D01*
X183501180Y-102679599D01*
X183711306Y-102592776D01*
X183872211Y-102432151D01*
X183959400Y-102222177D01*
X183959512Y-102094180D01*
X189674401Y-102094180D01*
X189761224Y-102304306D01*
X189921849Y-102465211D01*
X190131823Y-102552400D01*
X190359180Y-102552599D01*
X190569306Y-102465776D01*
X190730211Y-102305151D01*
X190817400Y-102095177D01*
X190817599Y-101867820D01*
X190749546Y-101703119D01*
X195313210Y-101703119D01*
X195392315Y-101894567D01*
X195538662Y-102041170D01*
X195729972Y-102120609D01*
X195937119Y-102120790D01*
X196128567Y-102041685D01*
X196275170Y-101895338D01*
X196354609Y-101704028D01*
X196354790Y-101496881D01*
X196275685Y-101305433D01*
X196129338Y-101158830D01*
X195938028Y-101079391D01*
X195730881Y-101079210D01*
X195539433Y-101158315D01*
X195392830Y-101304662D01*
X195313391Y-101495972D01*
X195313210Y-101703119D01*
X190749546Y-101703119D01*
X190730776Y-101657694D01*
X190570151Y-101496789D01*
X190360177Y-101409600D01*
X190132820Y-101409401D01*
X189922694Y-101496224D01*
X189761789Y-101656849D01*
X189674600Y-101866823D01*
X189674401Y-102094180D01*
X183959512Y-102094180D01*
X183959599Y-101994820D01*
X183872776Y-101784694D01*
X183712151Y-101623789D01*
X183502177Y-101536600D01*
X183274820Y-101536401D01*
X183064694Y-101623224D01*
X182903789Y-101783849D01*
X182816600Y-101993823D01*
X182816401Y-102221180D01*
X170572500Y-102221180D01*
X170572500Y-100951180D01*
X182816401Y-100951180D01*
X182903224Y-101161306D01*
X183063849Y-101322211D01*
X183273823Y-101409400D01*
X183501180Y-101409599D01*
X183711306Y-101322776D01*
X183872211Y-101162151D01*
X183959400Y-100952177D01*
X183959512Y-100824180D01*
X189674401Y-100824180D01*
X189761224Y-101034306D01*
X189921849Y-101195211D01*
X190131823Y-101282400D01*
X190359180Y-101282599D01*
X190569306Y-101195776D01*
X190730211Y-101035151D01*
X190817400Y-100825177D01*
X190817599Y-100597820D01*
X190730776Y-100387694D01*
X190570151Y-100226789D01*
X190455350Y-100179119D01*
X191503210Y-100179119D01*
X191582315Y-100370567D01*
X191728662Y-100517170D01*
X191919972Y-100596609D01*
X192127119Y-100596790D01*
X192318567Y-100517685D01*
X192465170Y-100371338D01*
X192544609Y-100180028D01*
X192544790Y-99972881D01*
X192465685Y-99781433D01*
X192319338Y-99634830D01*
X192128028Y-99555391D01*
X191920881Y-99555210D01*
X191729433Y-99634315D01*
X191582830Y-99780662D01*
X191503391Y-99971972D01*
X191503210Y-100179119D01*
X190455350Y-100179119D01*
X190360177Y-100139600D01*
X190132820Y-100139401D01*
X189922694Y-100226224D01*
X189761789Y-100386849D01*
X189674600Y-100596823D01*
X189674401Y-100824180D01*
X183959512Y-100824180D01*
X183959599Y-100724820D01*
X183872776Y-100514694D01*
X183712151Y-100353789D01*
X183502177Y-100266600D01*
X183274820Y-100266401D01*
X183064694Y-100353224D01*
X182903789Y-100513849D01*
X182816600Y-100723823D01*
X182816401Y-100951180D01*
X170572500Y-100951180D01*
X170572500Y-100179119D01*
X177279210Y-100179119D01*
X177358315Y-100370567D01*
X177504662Y-100517170D01*
X177695972Y-100596609D01*
X177903119Y-100596790D01*
X178094567Y-100517685D01*
X178241170Y-100371338D01*
X178320609Y-100180028D01*
X178320790Y-99972881D01*
X178241685Y-99781433D01*
X178095338Y-99634830D01*
X177904028Y-99555391D01*
X177696881Y-99555210D01*
X177505433Y-99634315D01*
X177358830Y-99780662D01*
X177279391Y-99971972D01*
X177279210Y-100179119D01*
X170572500Y-100179119D01*
X170572500Y-98909119D01*
X175501210Y-98909119D01*
X175580315Y-99100567D01*
X175726662Y-99247170D01*
X175917972Y-99326609D01*
X176125119Y-99326790D01*
X176316567Y-99247685D01*
X176463170Y-99101338D01*
X176542609Y-98910028D01*
X176542790Y-98702881D01*
X176463685Y-98511433D01*
X176317338Y-98364830D01*
X176126028Y-98285391D01*
X175918881Y-98285210D01*
X175727433Y-98364315D01*
X175580830Y-98510662D01*
X175501391Y-98701972D01*
X175501210Y-98909119D01*
X170572500Y-98909119D01*
X170572500Y-97903180D01*
X182943401Y-97903180D01*
X183030224Y-98113306D01*
X183190849Y-98274211D01*
X183400823Y-98361400D01*
X183628180Y-98361599D01*
X183838306Y-98274776D01*
X183999211Y-98114151D01*
X184086400Y-97904177D01*
X184086400Y-97903180D01*
X188340901Y-97903180D01*
X188427724Y-98113306D01*
X188588349Y-98274211D01*
X188798323Y-98361400D01*
X189025680Y-98361599D01*
X189235806Y-98274776D01*
X189396711Y-98114151D01*
X189483900Y-97904177D01*
X189484099Y-97676820D01*
X189397276Y-97466694D01*
X189236651Y-97305789D01*
X189026677Y-97218600D01*
X188799320Y-97218401D01*
X188589194Y-97305224D01*
X188428289Y-97465849D01*
X188341100Y-97675823D01*
X188340901Y-97903180D01*
X184086400Y-97903180D01*
X184086599Y-97676820D01*
X183999776Y-97466694D01*
X183839151Y-97305789D01*
X183629177Y-97218600D01*
X183401820Y-97218401D01*
X183191694Y-97305224D01*
X183030789Y-97465849D01*
X182943600Y-97675823D01*
X182943401Y-97903180D01*
X170572500Y-97903180D01*
X170572500Y-96623119D01*
X178549210Y-96623119D01*
X178628315Y-96814567D01*
X178774662Y-96961170D01*
X178965972Y-97040609D01*
X179173119Y-97040790D01*
X179364567Y-96961685D01*
X179511170Y-96815338D01*
X179586808Y-96633180D01*
X182943401Y-96633180D01*
X183030224Y-96843306D01*
X183190849Y-97004211D01*
X183400823Y-97091400D01*
X183628180Y-97091599D01*
X183838306Y-97004776D01*
X183999211Y-96844151D01*
X184086400Y-96634177D01*
X184086400Y-96633180D01*
X188340901Y-96633180D01*
X188427724Y-96843306D01*
X188588349Y-97004211D01*
X188798323Y-97091400D01*
X189025680Y-97091599D01*
X189235806Y-97004776D01*
X189396711Y-96844151D01*
X189483900Y-96634177D01*
X189484099Y-96406820D01*
X189397276Y-96196694D01*
X189236651Y-96035789D01*
X189026677Y-95948600D01*
X188799320Y-95948401D01*
X188589194Y-96035224D01*
X188428289Y-96195849D01*
X188341100Y-96405823D01*
X188340901Y-96633180D01*
X184086400Y-96633180D01*
X184086599Y-96406820D01*
X183999776Y-96196694D01*
X183839151Y-96035789D01*
X183629177Y-95948600D01*
X183401820Y-95948401D01*
X183191694Y-96035224D01*
X183030789Y-96195849D01*
X182943600Y-96405823D01*
X182943401Y-96633180D01*
X179586808Y-96633180D01*
X179590609Y-96624028D01*
X179590790Y-96416881D01*
X179511685Y-96225433D01*
X179365338Y-96078830D01*
X179174028Y-95999391D01*
X178966881Y-95999210D01*
X178775433Y-96078315D01*
X178628830Y-96224662D01*
X178549391Y-96415972D01*
X178549210Y-96623119D01*
X170572500Y-96623119D01*
X170572500Y-95363180D01*
X182943401Y-95363180D01*
X183030224Y-95573306D01*
X183190849Y-95734211D01*
X183400823Y-95821400D01*
X183628180Y-95821599D01*
X183838306Y-95734776D01*
X183999211Y-95574151D01*
X184086400Y-95364177D01*
X184086400Y-95363180D01*
X184213401Y-95363180D01*
X184300224Y-95573306D01*
X184460849Y-95734211D01*
X184670823Y-95821400D01*
X184898180Y-95821599D01*
X185108306Y-95734776D01*
X185269211Y-95574151D01*
X185356400Y-95364177D01*
X185356400Y-95363180D01*
X186753401Y-95363180D01*
X186840224Y-95573306D01*
X187000849Y-95734211D01*
X187210823Y-95821400D01*
X187438180Y-95821599D01*
X187648306Y-95734776D01*
X187809211Y-95574151D01*
X187896400Y-95364177D01*
X187896400Y-95363180D01*
X188340901Y-95363180D01*
X188427724Y-95573306D01*
X188588349Y-95734211D01*
X188798323Y-95821400D01*
X189025680Y-95821599D01*
X189235806Y-95734776D01*
X189363685Y-95607119D01*
X190487210Y-95607119D01*
X190566315Y-95798567D01*
X190712662Y-95945170D01*
X190903972Y-96024609D01*
X191111119Y-96024790D01*
X191302567Y-95945685D01*
X191449170Y-95799338D01*
X191528609Y-95608028D01*
X191528790Y-95400881D01*
X191449685Y-95209433D01*
X191303338Y-95062830D01*
X191112028Y-94983391D01*
X190904881Y-94983210D01*
X190713433Y-95062315D01*
X190566830Y-95208662D01*
X190487391Y-95399972D01*
X190487210Y-95607119D01*
X189363685Y-95607119D01*
X189396711Y-95574151D01*
X189483900Y-95364177D01*
X189484099Y-95136820D01*
X189397276Y-94926694D01*
X189236651Y-94765789D01*
X189026677Y-94678600D01*
X188799320Y-94678401D01*
X188589194Y-94765224D01*
X188428289Y-94925849D01*
X188341100Y-95135823D01*
X188340901Y-95363180D01*
X187896400Y-95363180D01*
X187896599Y-95136820D01*
X187809776Y-94926694D01*
X187649151Y-94765789D01*
X187439177Y-94678600D01*
X187211820Y-94678401D01*
X187001694Y-94765224D01*
X186840789Y-94925849D01*
X186753600Y-95135823D01*
X186753401Y-95363180D01*
X185356400Y-95363180D01*
X185356599Y-95136820D01*
X185269776Y-94926694D01*
X185109151Y-94765789D01*
X184899177Y-94678600D01*
X184671820Y-94678401D01*
X184461694Y-94765224D01*
X184300789Y-94925849D01*
X184213600Y-95135823D01*
X184213401Y-95363180D01*
X184086400Y-95363180D01*
X184086599Y-95136820D01*
X183999776Y-94926694D01*
X183839151Y-94765789D01*
X183629177Y-94678600D01*
X183401820Y-94678401D01*
X183191694Y-94765224D01*
X183030789Y-94925849D01*
X182943600Y-95135823D01*
X182943401Y-95363180D01*
X170572500Y-95363180D01*
X170572500Y-94337119D01*
X195059210Y-94337119D01*
X195138315Y-94528567D01*
X195284662Y-94675170D01*
X195475972Y-94754609D01*
X195683119Y-94754790D01*
X195874567Y-94675685D01*
X196021170Y-94529338D01*
X196100609Y-94338028D01*
X196100790Y-94130881D01*
X196021685Y-93939433D01*
X195875338Y-93792830D01*
X195684028Y-93713391D01*
X195476881Y-93713210D01*
X195285433Y-93792315D01*
X195138830Y-93938662D01*
X195059391Y-94129972D01*
X195059210Y-94337119D01*
X170572500Y-94337119D01*
X170572500Y-93829119D01*
X170929210Y-93829119D01*
X171008315Y-94020567D01*
X171154662Y-94167170D01*
X171345972Y-94246609D01*
X171553119Y-94246790D01*
X171744567Y-94167685D01*
X171891170Y-94021338D01*
X171970609Y-93830028D01*
X171970790Y-93622881D01*
X171951056Y-93575119D01*
X176771210Y-93575119D01*
X176850315Y-93766567D01*
X176996662Y-93913170D01*
X177187972Y-93992609D01*
X177395119Y-93992790D01*
X177586567Y-93913685D01*
X177733170Y-93767338D01*
X177812609Y-93576028D01*
X177812609Y-93575119D01*
X189979210Y-93575119D01*
X190058315Y-93766567D01*
X190204662Y-93913170D01*
X190395972Y-93992609D01*
X190603119Y-93992790D01*
X190794567Y-93913685D01*
X190941170Y-93767338D01*
X191020609Y-93576028D01*
X191020790Y-93368881D01*
X190941685Y-93177433D01*
X190831564Y-93067119D01*
X191249210Y-93067119D01*
X191328315Y-93258567D01*
X191474662Y-93405170D01*
X191665972Y-93484609D01*
X191873119Y-93484790D01*
X192064567Y-93405685D01*
X192211170Y-93259338D01*
X192290609Y-93068028D01*
X192290790Y-92860881D01*
X192211685Y-92669433D01*
X192065338Y-92522830D01*
X191874028Y-92443391D01*
X191666881Y-92443210D01*
X191475433Y-92522315D01*
X191328830Y-92668662D01*
X191249391Y-92859972D01*
X191249210Y-93067119D01*
X190831564Y-93067119D01*
X190795338Y-93030830D01*
X190604028Y-92951391D01*
X190396881Y-92951210D01*
X190205433Y-93030315D01*
X190058830Y-93176662D01*
X189979391Y-93367972D01*
X189979210Y-93575119D01*
X177812609Y-93575119D01*
X177812790Y-93368881D01*
X177733685Y-93177433D01*
X177587338Y-93030830D01*
X177396028Y-92951391D01*
X177188881Y-92951210D01*
X176997433Y-93030315D01*
X176850830Y-93176662D01*
X176771391Y-93367972D01*
X176771210Y-93575119D01*
X171951056Y-93575119D01*
X171891685Y-93431433D01*
X171745338Y-93284830D01*
X171554028Y-93205391D01*
X171346881Y-93205210D01*
X171155433Y-93284315D01*
X171008830Y-93430662D01*
X170929391Y-93621972D01*
X170929210Y-93829119D01*
X170572500Y-93829119D01*
X170572500Y-92051119D01*
X176009210Y-92051119D01*
X176088315Y-92242567D01*
X176234662Y-92389170D01*
X176425972Y-92468609D01*
X176633119Y-92468790D01*
X176824567Y-92389685D01*
X176971170Y-92243338D01*
X177050609Y-92052028D01*
X177050790Y-91844881D01*
X176971685Y-91653433D01*
X176825338Y-91506830D01*
X176634028Y-91427391D01*
X176426881Y-91427210D01*
X176235433Y-91506315D01*
X176088830Y-91652662D01*
X176009391Y-91843972D01*
X176009210Y-92051119D01*
X170572500Y-92051119D01*
X170572500Y-90781119D01*
X176771210Y-90781119D01*
X176850315Y-90972567D01*
X176996662Y-91119170D01*
X177187972Y-91198609D01*
X177395119Y-91198790D01*
X177586567Y-91119685D01*
X177733170Y-90973338D01*
X177812609Y-90782028D01*
X177812790Y-90574881D01*
X177733685Y-90383433D01*
X177587338Y-90236830D01*
X177396028Y-90157391D01*
X177188881Y-90157210D01*
X176997433Y-90236315D01*
X176850830Y-90382662D01*
X176771391Y-90573972D01*
X176771210Y-90781119D01*
X170572500Y-90781119D01*
X170572500Y-88614466D01*
X175814942Y-88614466D01*
X175892834Y-88831082D01*
X176400970Y-88983489D01*
X176928750Y-88929838D01*
X177167166Y-88831082D01*
X177245058Y-88614466D01*
X176530000Y-87899408D01*
X175814942Y-88614466D01*
X170572500Y-88614466D01*
X170572500Y-87500970D01*
X175176511Y-87500970D01*
X175230162Y-88028750D01*
X175328918Y-88267166D01*
X175545534Y-88345058D01*
X176260592Y-87630000D01*
X176799408Y-87630000D01*
X177514466Y-88345058D01*
X177731082Y-88267166D01*
X177858068Y-87843784D01*
X177990313Y-87843784D01*
X178154311Y-88240689D01*
X178457714Y-88544622D01*
X178854332Y-88709313D01*
X179283784Y-88709687D01*
X179680689Y-88545689D01*
X179984622Y-88242286D01*
X180149313Y-87845668D01*
X180149314Y-87843784D01*
X180530313Y-87843784D01*
X180694311Y-88240689D01*
X180997714Y-88544622D01*
X181394332Y-88709313D01*
X181823784Y-88709687D01*
X182220689Y-88545689D01*
X182524622Y-88242286D01*
X182689313Y-87845668D01*
X182689314Y-87843784D01*
X183070313Y-87843784D01*
X183234311Y-88240689D01*
X183537714Y-88544622D01*
X183934332Y-88709313D01*
X184363784Y-88709687D01*
X184760689Y-88545689D01*
X185064622Y-88242286D01*
X185229313Y-87845668D01*
X185229314Y-87843784D01*
X185610313Y-87843784D01*
X185774311Y-88240689D01*
X186077714Y-88544622D01*
X186474332Y-88709313D01*
X186903784Y-88709687D01*
X187300689Y-88545689D01*
X187604622Y-88242286D01*
X187769313Y-87845668D01*
X187769314Y-87843784D01*
X188150313Y-87843784D01*
X188314311Y-88240689D01*
X188617714Y-88544622D01*
X189014332Y-88709313D01*
X189443784Y-88709687D01*
X189840689Y-88545689D01*
X190144622Y-88242286D01*
X190309313Y-87845668D01*
X190309314Y-87843784D01*
X190690313Y-87843784D01*
X190854311Y-88240689D01*
X191157714Y-88544622D01*
X191554332Y-88709313D01*
X191983784Y-88709687D01*
X192380689Y-88545689D01*
X192684622Y-88242286D01*
X192849313Y-87845668D01*
X192849314Y-87843784D01*
X193230313Y-87843784D01*
X193394311Y-88240689D01*
X193697714Y-88544622D01*
X194094332Y-88709313D01*
X194523784Y-88709687D01*
X194754236Y-88614466D01*
X196134942Y-88614466D01*
X196212834Y-88831082D01*
X196720970Y-88983489D01*
X197248750Y-88929838D01*
X197487166Y-88831082D01*
X197565058Y-88614466D01*
X196850000Y-87899408D01*
X196134942Y-88614466D01*
X194754236Y-88614466D01*
X194920689Y-88545689D01*
X195224622Y-88242286D01*
X195389313Y-87845668D01*
X195389613Y-87500970D01*
X195496511Y-87500970D01*
X195550162Y-88028750D01*
X195648918Y-88267166D01*
X195865534Y-88345058D01*
X196580592Y-87630000D01*
X197119408Y-87630000D01*
X197834466Y-88345058D01*
X198051082Y-88267166D01*
X198203489Y-87759030D01*
X198149838Y-87231250D01*
X198051082Y-86992834D01*
X197834466Y-86914942D01*
X197119408Y-87630000D01*
X196580592Y-87630000D01*
X195865534Y-86914942D01*
X195648918Y-86992834D01*
X195496511Y-87500970D01*
X195389613Y-87500970D01*
X195389687Y-87416216D01*
X195225689Y-87019311D01*
X194922286Y-86715378D01*
X194754084Y-86645534D01*
X196134942Y-86645534D01*
X196850000Y-87360592D01*
X197565058Y-86645534D01*
X197487166Y-86428918D01*
X196979030Y-86276511D01*
X196451250Y-86330162D01*
X196212834Y-86428918D01*
X196134942Y-86645534D01*
X194754084Y-86645534D01*
X194525668Y-86550687D01*
X194096216Y-86550313D01*
X193699311Y-86714311D01*
X193395378Y-87017714D01*
X193230687Y-87414332D01*
X193230313Y-87843784D01*
X192849314Y-87843784D01*
X192849687Y-87416216D01*
X192685689Y-87019311D01*
X192382286Y-86715378D01*
X191985668Y-86550687D01*
X191556216Y-86550313D01*
X191159311Y-86714311D01*
X190855378Y-87017714D01*
X190690687Y-87414332D01*
X190690313Y-87843784D01*
X190309314Y-87843784D01*
X190309687Y-87416216D01*
X190145689Y-87019311D01*
X189842286Y-86715378D01*
X189445668Y-86550687D01*
X189016216Y-86550313D01*
X188619311Y-86714311D01*
X188315378Y-87017714D01*
X188150687Y-87414332D01*
X188150313Y-87843784D01*
X187769314Y-87843784D01*
X187769687Y-87416216D01*
X187605689Y-87019311D01*
X187302286Y-86715378D01*
X186905668Y-86550687D01*
X186476216Y-86550313D01*
X186079311Y-86714311D01*
X185775378Y-87017714D01*
X185610687Y-87414332D01*
X185610313Y-87843784D01*
X185229314Y-87843784D01*
X185229687Y-87416216D01*
X185065689Y-87019311D01*
X184762286Y-86715378D01*
X184365668Y-86550687D01*
X183936216Y-86550313D01*
X183539311Y-86714311D01*
X183235378Y-87017714D01*
X183070687Y-87414332D01*
X183070313Y-87843784D01*
X182689314Y-87843784D01*
X182689687Y-87416216D01*
X182525689Y-87019311D01*
X182222286Y-86715378D01*
X181825668Y-86550687D01*
X181396216Y-86550313D01*
X180999311Y-86714311D01*
X180695378Y-87017714D01*
X180530687Y-87414332D01*
X180530313Y-87843784D01*
X180149314Y-87843784D01*
X180149687Y-87416216D01*
X179985689Y-87019311D01*
X179682286Y-86715378D01*
X179285668Y-86550687D01*
X178856216Y-86550313D01*
X178459311Y-86714311D01*
X178155378Y-87017714D01*
X177990687Y-87414332D01*
X177990313Y-87843784D01*
X177858068Y-87843784D01*
X177883489Y-87759030D01*
X177829838Y-87231250D01*
X177731082Y-86992834D01*
X177514466Y-86914942D01*
X176799408Y-87630000D01*
X176260592Y-87630000D01*
X175545534Y-86914942D01*
X175328918Y-86992834D01*
X175176511Y-87500970D01*
X170572500Y-87500970D01*
X170572500Y-86645534D01*
X175814942Y-86645534D01*
X176530000Y-87360592D01*
X177245058Y-86645534D01*
X177167166Y-86428918D01*
X176659030Y-86276511D01*
X176131250Y-86330162D01*
X175892834Y-86428918D01*
X175814942Y-86645534D01*
X170572500Y-86645534D01*
X170572500Y-85482500D01*
X202807500Y-85482500D01*
X202807500Y-107557500D01*
X202807500Y-107557500D01*
G37*
X202807500Y-107557500D02*
X170572500Y-107557500D01*
X170572500Y-106783119D01*
X170929210Y-106783119D01*
X171008315Y-106974567D01*
X171154662Y-107121170D01*
X171345972Y-107200609D01*
X171553119Y-107200790D01*
X171744567Y-107121685D01*
X171891170Y-106975338D01*
X171970609Y-106784028D01*
X171970790Y-106576881D01*
X171891685Y-106385433D01*
X171745338Y-106238830D01*
X171554028Y-106159391D01*
X171346881Y-106159210D01*
X171155433Y-106238315D01*
X171008830Y-106384662D01*
X170929391Y-106575972D01*
X170929210Y-106783119D01*
X170572500Y-106783119D01*
X170572500Y-105623784D01*
X175450313Y-105623784D01*
X175614311Y-106020689D01*
X175917714Y-106324622D01*
X176314332Y-106489313D01*
X176743784Y-106489687D01*
X177140689Y-106325689D01*
X177444622Y-106022286D01*
X177609313Y-105625668D01*
X177609314Y-105623784D01*
X177990313Y-105623784D01*
X178154311Y-106020689D01*
X178457714Y-106324622D01*
X178854332Y-106489313D01*
X179283784Y-106489687D01*
X179680689Y-106325689D01*
X179984622Y-106022286D01*
X180149313Y-105625668D01*
X180149314Y-105623784D01*
X180530313Y-105623784D01*
X180694311Y-106020689D01*
X180997714Y-106324622D01*
X181394332Y-106489313D01*
X181823784Y-106489687D01*
X182220689Y-106325689D01*
X182524622Y-106022286D01*
X182689313Y-105625668D01*
X182689314Y-105623784D01*
X183070313Y-105623784D01*
X183234311Y-106020689D01*
X183537714Y-106324622D01*
X183934332Y-106489313D01*
X184363784Y-106489687D01*
X184760689Y-106325689D01*
X185064622Y-106022286D01*
X185229313Y-105625668D01*
X185229314Y-105623784D01*
X185610313Y-105623784D01*
X185774311Y-106020689D01*
X186077714Y-106324622D01*
X186474332Y-106489313D01*
X186903784Y-106489687D01*
X187300689Y-106325689D01*
X187604622Y-106022286D01*
X187769313Y-105625668D01*
X187769314Y-105623784D01*
X188150313Y-105623784D01*
X188314311Y-106020689D01*
X188617714Y-106324622D01*
X189014332Y-106489313D01*
X189443784Y-106489687D01*
X189840689Y-106325689D01*
X190144622Y-106022286D01*
X190309313Y-105625668D01*
X190309314Y-105623784D01*
X190690313Y-105623784D01*
X190854311Y-106020689D01*
X191157714Y-106324622D01*
X191554332Y-106489313D01*
X191983784Y-106489687D01*
X192380689Y-106325689D01*
X192684622Y-106022286D01*
X192849313Y-105625668D01*
X192849314Y-105623784D01*
X193230313Y-105623784D01*
X193394311Y-106020689D01*
X193697714Y-106324622D01*
X194094332Y-106489313D01*
X194523784Y-106489687D01*
X194754236Y-106394466D01*
X196134942Y-106394466D01*
X196212834Y-106611082D01*
X196720970Y-106763489D01*
X197248750Y-106709838D01*
X197487166Y-106611082D01*
X197565058Y-106394466D01*
X196850000Y-105679408D01*
X196134942Y-106394466D01*
X194754236Y-106394466D01*
X194920689Y-106325689D01*
X195224622Y-106022286D01*
X195389313Y-105625668D01*
X195389613Y-105280970D01*
X195496511Y-105280970D01*
X195550162Y-105808750D01*
X195648918Y-106047166D01*
X195865534Y-106125058D01*
X196580592Y-105410000D01*
X197119408Y-105410000D01*
X197834466Y-106125058D01*
X198051082Y-106047166D01*
X198203489Y-105539030D01*
X198149838Y-105011250D01*
X198051082Y-104772834D01*
X197834466Y-104694942D01*
X197119408Y-105410000D01*
X196580592Y-105410000D01*
X195865534Y-104694942D01*
X195648918Y-104772834D01*
X195496511Y-105280970D01*
X195389613Y-105280970D01*
X195389687Y-105196216D01*
X195225689Y-104799311D01*
X194922286Y-104495378D01*
X194754084Y-104425534D01*
X196134942Y-104425534D01*
X196850000Y-105140592D01*
X197565058Y-104425534D01*
X197487166Y-104208918D01*
X196979030Y-104056511D01*
X196451250Y-104110162D01*
X196212834Y-104208918D01*
X196134942Y-104425534D01*
X194754084Y-104425534D01*
X194525668Y-104330687D01*
X194096216Y-104330313D01*
X193699311Y-104494311D01*
X193395378Y-104797714D01*
X193230687Y-105194332D01*
X193230313Y-105623784D01*
X192849314Y-105623784D01*
X192849687Y-105196216D01*
X192685689Y-104799311D01*
X192382286Y-104495378D01*
X191985668Y-104330687D01*
X191556216Y-104330313D01*
X191159311Y-104494311D01*
X190855378Y-104797714D01*
X190690687Y-105194332D01*
X190690313Y-105623784D01*
X190309314Y-105623784D01*
X190309687Y-105196216D01*
X190145689Y-104799311D01*
X189842286Y-104495378D01*
X189445668Y-104330687D01*
X189016216Y-104330313D01*
X188619311Y-104494311D01*
X188315378Y-104797714D01*
X188150687Y-105194332D01*
X188150313Y-105623784D01*
X187769314Y-105623784D01*
X187769687Y-105196216D01*
X187605689Y-104799311D01*
X187302286Y-104495378D01*
X186905668Y-104330687D01*
X186476216Y-104330313D01*
X186079311Y-104494311D01*
X185775378Y-104797714D01*
X185610687Y-105194332D01*
X185610313Y-105623784D01*
X185229314Y-105623784D01*
X185229687Y-105196216D01*
X185065689Y-104799311D01*
X184762286Y-104495378D01*
X184365668Y-104330687D01*
X183936216Y-104330313D01*
X183539311Y-104494311D01*
X183235378Y-104797714D01*
X183070687Y-105194332D01*
X183070313Y-105623784D01*
X182689314Y-105623784D01*
X182689687Y-105196216D01*
X182525689Y-104799311D01*
X182222286Y-104495378D01*
X181825668Y-104330687D01*
X181396216Y-104330313D01*
X180999311Y-104494311D01*
X180695378Y-104797714D01*
X180530687Y-105194332D01*
X180530313Y-105623784D01*
X180149314Y-105623784D01*
X180149687Y-105196216D01*
X179985689Y-104799311D01*
X179682286Y-104495378D01*
X179285668Y-104330687D01*
X178856216Y-104330313D01*
X178459311Y-104494311D01*
X178155378Y-104797714D01*
X177990687Y-105194332D01*
X177990313Y-105623784D01*
X177609314Y-105623784D01*
X177609687Y-105196216D01*
X177445689Y-104799311D01*
X177142286Y-104495378D01*
X176745668Y-104330687D01*
X176316216Y-104330313D01*
X175919311Y-104494311D01*
X175615378Y-104797714D01*
X175450687Y-105194332D01*
X175450313Y-105623784D01*
X170572500Y-105623784D01*
X170572500Y-102221180D01*
X182816401Y-102221180D01*
X182903224Y-102431306D01*
X183063849Y-102592211D01*
X183273823Y-102679400D01*
X183501180Y-102679599D01*
X183711306Y-102592776D01*
X183872211Y-102432151D01*
X183959400Y-102222177D01*
X183959512Y-102094180D01*
X189674401Y-102094180D01*
X189761224Y-102304306D01*
X189921849Y-102465211D01*
X190131823Y-102552400D01*
X190359180Y-102552599D01*
X190569306Y-102465776D01*
X190730211Y-102305151D01*
X190817400Y-102095177D01*
X190817599Y-101867820D01*
X190749546Y-101703119D01*
X195313210Y-101703119D01*
X195392315Y-101894567D01*
X195538662Y-102041170D01*
X195729972Y-102120609D01*
X195937119Y-102120790D01*
X196128567Y-102041685D01*
X196275170Y-101895338D01*
X196354609Y-101704028D01*
X196354790Y-101496881D01*
X196275685Y-101305433D01*
X196129338Y-101158830D01*
X195938028Y-101079391D01*
X195730881Y-101079210D01*
X195539433Y-101158315D01*
X195392830Y-101304662D01*
X195313391Y-101495972D01*
X195313210Y-101703119D01*
X190749546Y-101703119D01*
X190730776Y-101657694D01*
X190570151Y-101496789D01*
X190360177Y-101409600D01*
X190132820Y-101409401D01*
X189922694Y-101496224D01*
X189761789Y-101656849D01*
X189674600Y-101866823D01*
X189674401Y-102094180D01*
X183959512Y-102094180D01*
X183959599Y-101994820D01*
X183872776Y-101784694D01*
X183712151Y-101623789D01*
X183502177Y-101536600D01*
X183274820Y-101536401D01*
X183064694Y-101623224D01*
X182903789Y-101783849D01*
X182816600Y-101993823D01*
X182816401Y-102221180D01*
X170572500Y-102221180D01*
X170572500Y-100951180D01*
X182816401Y-100951180D01*
X182903224Y-101161306D01*
X183063849Y-101322211D01*
X183273823Y-101409400D01*
X183501180Y-101409599D01*
X183711306Y-101322776D01*
X183872211Y-101162151D01*
X183959400Y-100952177D01*
X183959512Y-100824180D01*
X189674401Y-100824180D01*
X189761224Y-101034306D01*
X189921849Y-101195211D01*
X190131823Y-101282400D01*
X190359180Y-101282599D01*
X190569306Y-101195776D01*
X190730211Y-101035151D01*
X190817400Y-100825177D01*
X190817599Y-100597820D01*
X190730776Y-100387694D01*
X190570151Y-100226789D01*
X190455350Y-100179119D01*
X191503210Y-100179119D01*
X191582315Y-100370567D01*
X191728662Y-100517170D01*
X191919972Y-100596609D01*
X192127119Y-100596790D01*
X192318567Y-100517685D01*
X192465170Y-100371338D01*
X192544609Y-100180028D01*
X192544790Y-99972881D01*
X192465685Y-99781433D01*
X192319338Y-99634830D01*
X192128028Y-99555391D01*
X191920881Y-99555210D01*
X191729433Y-99634315D01*
X191582830Y-99780662D01*
X191503391Y-99971972D01*
X191503210Y-100179119D01*
X190455350Y-100179119D01*
X190360177Y-100139600D01*
X190132820Y-100139401D01*
X189922694Y-100226224D01*
X189761789Y-100386849D01*
X189674600Y-100596823D01*
X189674401Y-100824180D01*
X183959512Y-100824180D01*
X183959599Y-100724820D01*
X183872776Y-100514694D01*
X183712151Y-100353789D01*
X183502177Y-100266600D01*
X183274820Y-100266401D01*
X183064694Y-100353224D01*
X182903789Y-100513849D01*
X182816600Y-100723823D01*
X182816401Y-100951180D01*
X170572500Y-100951180D01*
X170572500Y-100179119D01*
X177279210Y-100179119D01*
X177358315Y-100370567D01*
X177504662Y-100517170D01*
X177695972Y-100596609D01*
X177903119Y-100596790D01*
X178094567Y-100517685D01*
X178241170Y-100371338D01*
X178320609Y-100180028D01*
X178320790Y-99972881D01*
X178241685Y-99781433D01*
X178095338Y-99634830D01*
X177904028Y-99555391D01*
X177696881Y-99555210D01*
X177505433Y-99634315D01*
X177358830Y-99780662D01*
X177279391Y-99971972D01*
X177279210Y-100179119D01*
X170572500Y-100179119D01*
X170572500Y-98909119D01*
X175501210Y-98909119D01*
X175580315Y-99100567D01*
X175726662Y-99247170D01*
X175917972Y-99326609D01*
X176125119Y-99326790D01*
X176316567Y-99247685D01*
X176463170Y-99101338D01*
X176542609Y-98910028D01*
X176542790Y-98702881D01*
X176463685Y-98511433D01*
X176317338Y-98364830D01*
X176126028Y-98285391D01*
X175918881Y-98285210D01*
X175727433Y-98364315D01*
X175580830Y-98510662D01*
X175501391Y-98701972D01*
X175501210Y-98909119D01*
X170572500Y-98909119D01*
X170572500Y-97903180D01*
X182943401Y-97903180D01*
X183030224Y-98113306D01*
X183190849Y-98274211D01*
X183400823Y-98361400D01*
X183628180Y-98361599D01*
X183838306Y-98274776D01*
X183999211Y-98114151D01*
X184086400Y-97904177D01*
X184086400Y-97903180D01*
X188340901Y-97903180D01*
X188427724Y-98113306D01*
X188588349Y-98274211D01*
X188798323Y-98361400D01*
X189025680Y-98361599D01*
X189235806Y-98274776D01*
X189396711Y-98114151D01*
X189483900Y-97904177D01*
X189484099Y-97676820D01*
X189397276Y-97466694D01*
X189236651Y-97305789D01*
X189026677Y-97218600D01*
X188799320Y-97218401D01*
X188589194Y-97305224D01*
X188428289Y-97465849D01*
X188341100Y-97675823D01*
X188340901Y-97903180D01*
X184086400Y-97903180D01*
X184086599Y-97676820D01*
X183999776Y-97466694D01*
X183839151Y-97305789D01*
X183629177Y-97218600D01*
X183401820Y-97218401D01*
X183191694Y-97305224D01*
X183030789Y-97465849D01*
X182943600Y-97675823D01*
X182943401Y-97903180D01*
X170572500Y-97903180D01*
X170572500Y-96623119D01*
X178549210Y-96623119D01*
X178628315Y-96814567D01*
X178774662Y-96961170D01*
X178965972Y-97040609D01*
X179173119Y-97040790D01*
X179364567Y-96961685D01*
X179511170Y-96815338D01*
X179586808Y-96633180D01*
X182943401Y-96633180D01*
X183030224Y-96843306D01*
X183190849Y-97004211D01*
X183400823Y-97091400D01*
X183628180Y-97091599D01*
X183838306Y-97004776D01*
X183999211Y-96844151D01*
X184086400Y-96634177D01*
X184086400Y-96633180D01*
X188340901Y-96633180D01*
X188427724Y-96843306D01*
X188588349Y-97004211D01*
X188798323Y-97091400D01*
X189025680Y-97091599D01*
X189235806Y-97004776D01*
X189396711Y-96844151D01*
X189483900Y-96634177D01*
X189484099Y-96406820D01*
X189397276Y-96196694D01*
X189236651Y-96035789D01*
X189026677Y-95948600D01*
X188799320Y-95948401D01*
X188589194Y-96035224D01*
X188428289Y-96195849D01*
X188341100Y-96405823D01*
X188340901Y-96633180D01*
X184086400Y-96633180D01*
X184086599Y-96406820D01*
X183999776Y-96196694D01*
X183839151Y-96035789D01*
X183629177Y-95948600D01*
X183401820Y-95948401D01*
X183191694Y-96035224D01*
X183030789Y-96195849D01*
X182943600Y-96405823D01*
X182943401Y-96633180D01*
X179586808Y-96633180D01*
X179590609Y-96624028D01*
X179590790Y-96416881D01*
X179511685Y-96225433D01*
X179365338Y-96078830D01*
X179174028Y-95999391D01*
X178966881Y-95999210D01*
X178775433Y-96078315D01*
X178628830Y-96224662D01*
X178549391Y-96415972D01*
X178549210Y-96623119D01*
X170572500Y-96623119D01*
X170572500Y-95363180D01*
X182943401Y-95363180D01*
X183030224Y-95573306D01*
X183190849Y-95734211D01*
X183400823Y-95821400D01*
X183628180Y-95821599D01*
X183838306Y-95734776D01*
X183999211Y-95574151D01*
X184086400Y-95364177D01*
X184086400Y-95363180D01*
X184213401Y-95363180D01*
X184300224Y-95573306D01*
X184460849Y-95734211D01*
X184670823Y-95821400D01*
X184898180Y-95821599D01*
X185108306Y-95734776D01*
X185269211Y-95574151D01*
X185356400Y-95364177D01*
X185356400Y-95363180D01*
X186753401Y-95363180D01*
X186840224Y-95573306D01*
X187000849Y-95734211D01*
X187210823Y-95821400D01*
X187438180Y-95821599D01*
X187648306Y-95734776D01*
X187809211Y-95574151D01*
X187896400Y-95364177D01*
X187896400Y-95363180D01*
X188340901Y-95363180D01*
X188427724Y-95573306D01*
X188588349Y-95734211D01*
X188798323Y-95821400D01*
X189025680Y-95821599D01*
X189235806Y-95734776D01*
X189363685Y-95607119D01*
X190487210Y-95607119D01*
X190566315Y-95798567D01*
X190712662Y-95945170D01*
X190903972Y-96024609D01*
X191111119Y-96024790D01*
X191302567Y-95945685D01*
X191449170Y-95799338D01*
X191528609Y-95608028D01*
X191528790Y-95400881D01*
X191449685Y-95209433D01*
X191303338Y-95062830D01*
X191112028Y-94983391D01*
X190904881Y-94983210D01*
X190713433Y-95062315D01*
X190566830Y-95208662D01*
X190487391Y-95399972D01*
X190487210Y-95607119D01*
X189363685Y-95607119D01*
X189396711Y-95574151D01*
X189483900Y-95364177D01*
X189484099Y-95136820D01*
X189397276Y-94926694D01*
X189236651Y-94765789D01*
X189026677Y-94678600D01*
X188799320Y-94678401D01*
X188589194Y-94765224D01*
X188428289Y-94925849D01*
X188341100Y-95135823D01*
X188340901Y-95363180D01*
X187896400Y-95363180D01*
X187896599Y-95136820D01*
X187809776Y-94926694D01*
X187649151Y-94765789D01*
X187439177Y-94678600D01*
X187211820Y-94678401D01*
X187001694Y-94765224D01*
X186840789Y-94925849D01*
X186753600Y-95135823D01*
X186753401Y-95363180D01*
X185356400Y-95363180D01*
X185356599Y-95136820D01*
X185269776Y-94926694D01*
X185109151Y-94765789D01*
X184899177Y-94678600D01*
X184671820Y-94678401D01*
X184461694Y-94765224D01*
X184300789Y-94925849D01*
X184213600Y-95135823D01*
X184213401Y-95363180D01*
X184086400Y-95363180D01*
X184086599Y-95136820D01*
X183999776Y-94926694D01*
X183839151Y-94765789D01*
X183629177Y-94678600D01*
X183401820Y-94678401D01*
X183191694Y-94765224D01*
X183030789Y-94925849D01*
X182943600Y-95135823D01*
X182943401Y-95363180D01*
X170572500Y-95363180D01*
X170572500Y-94337119D01*
X195059210Y-94337119D01*
X195138315Y-94528567D01*
X195284662Y-94675170D01*
X195475972Y-94754609D01*
X195683119Y-94754790D01*
X195874567Y-94675685D01*
X196021170Y-94529338D01*
X196100609Y-94338028D01*
X196100790Y-94130881D01*
X196021685Y-93939433D01*
X195875338Y-93792830D01*
X195684028Y-93713391D01*
X195476881Y-93713210D01*
X195285433Y-93792315D01*
X195138830Y-93938662D01*
X195059391Y-94129972D01*
X195059210Y-94337119D01*
X170572500Y-94337119D01*
X170572500Y-93829119D01*
X170929210Y-93829119D01*
X171008315Y-94020567D01*
X171154662Y-94167170D01*
X171345972Y-94246609D01*
X171553119Y-94246790D01*
X171744567Y-94167685D01*
X171891170Y-94021338D01*
X171970609Y-93830028D01*
X171970790Y-93622881D01*
X171951056Y-93575119D01*
X176771210Y-93575119D01*
X176850315Y-93766567D01*
X176996662Y-93913170D01*
X177187972Y-93992609D01*
X177395119Y-93992790D01*
X177586567Y-93913685D01*
X177733170Y-93767338D01*
X177812609Y-93576028D01*
X177812609Y-93575119D01*
X189979210Y-93575119D01*
X190058315Y-93766567D01*
X190204662Y-93913170D01*
X190395972Y-93992609D01*
X190603119Y-93992790D01*
X190794567Y-93913685D01*
X190941170Y-93767338D01*
X191020609Y-93576028D01*
X191020790Y-93368881D01*
X190941685Y-93177433D01*
X190831564Y-93067119D01*
X191249210Y-93067119D01*
X191328315Y-93258567D01*
X191474662Y-93405170D01*
X191665972Y-93484609D01*
X191873119Y-93484790D01*
X192064567Y-93405685D01*
X192211170Y-93259338D01*
X192290609Y-93068028D01*
X192290790Y-92860881D01*
X192211685Y-92669433D01*
X192065338Y-92522830D01*
X191874028Y-92443391D01*
X191666881Y-92443210D01*
X191475433Y-92522315D01*
X191328830Y-92668662D01*
X191249391Y-92859972D01*
X191249210Y-93067119D01*
X190831564Y-93067119D01*
X190795338Y-93030830D01*
X190604028Y-92951391D01*
X190396881Y-92951210D01*
X190205433Y-93030315D01*
X190058830Y-93176662D01*
X189979391Y-93367972D01*
X189979210Y-93575119D01*
X177812609Y-93575119D01*
X177812790Y-93368881D01*
X177733685Y-93177433D01*
X177587338Y-93030830D01*
X177396028Y-92951391D01*
X177188881Y-92951210D01*
X176997433Y-93030315D01*
X176850830Y-93176662D01*
X176771391Y-93367972D01*
X176771210Y-93575119D01*
X171951056Y-93575119D01*
X171891685Y-93431433D01*
X171745338Y-93284830D01*
X171554028Y-93205391D01*
X171346881Y-93205210D01*
X171155433Y-93284315D01*
X171008830Y-93430662D01*
X170929391Y-93621972D01*
X170929210Y-93829119D01*
X170572500Y-93829119D01*
X170572500Y-92051119D01*
X176009210Y-92051119D01*
X176088315Y-92242567D01*
X176234662Y-92389170D01*
X176425972Y-92468609D01*
X176633119Y-92468790D01*
X176824567Y-92389685D01*
X176971170Y-92243338D01*
X177050609Y-92052028D01*
X177050790Y-91844881D01*
X176971685Y-91653433D01*
X176825338Y-91506830D01*
X176634028Y-91427391D01*
X176426881Y-91427210D01*
X176235433Y-91506315D01*
X176088830Y-91652662D01*
X176009391Y-91843972D01*
X176009210Y-92051119D01*
X170572500Y-92051119D01*
X170572500Y-90781119D01*
X176771210Y-90781119D01*
X176850315Y-90972567D01*
X176996662Y-91119170D01*
X177187972Y-91198609D01*
X177395119Y-91198790D01*
X177586567Y-91119685D01*
X177733170Y-90973338D01*
X177812609Y-90782028D01*
X177812790Y-90574881D01*
X177733685Y-90383433D01*
X177587338Y-90236830D01*
X177396028Y-90157391D01*
X177188881Y-90157210D01*
X176997433Y-90236315D01*
X176850830Y-90382662D01*
X176771391Y-90573972D01*
X176771210Y-90781119D01*
X170572500Y-90781119D01*
X170572500Y-88614466D01*
X175814942Y-88614466D01*
X175892834Y-88831082D01*
X176400970Y-88983489D01*
X176928750Y-88929838D01*
X177167166Y-88831082D01*
X177245058Y-88614466D01*
X176530000Y-87899408D01*
X175814942Y-88614466D01*
X170572500Y-88614466D01*
X170572500Y-87500970D01*
X175176511Y-87500970D01*
X175230162Y-88028750D01*
X175328918Y-88267166D01*
X175545534Y-88345058D01*
X176260592Y-87630000D01*
X176799408Y-87630000D01*
X177514466Y-88345058D01*
X177731082Y-88267166D01*
X177858068Y-87843784D01*
X177990313Y-87843784D01*
X178154311Y-88240689D01*
X178457714Y-88544622D01*
X178854332Y-88709313D01*
X179283784Y-88709687D01*
X179680689Y-88545689D01*
X179984622Y-88242286D01*
X180149313Y-87845668D01*
X180149314Y-87843784D01*
X180530313Y-87843784D01*
X180694311Y-88240689D01*
X180997714Y-88544622D01*
X181394332Y-88709313D01*
X181823784Y-88709687D01*
X182220689Y-88545689D01*
X182524622Y-88242286D01*
X182689313Y-87845668D01*
X182689314Y-87843784D01*
X183070313Y-87843784D01*
X183234311Y-88240689D01*
X183537714Y-88544622D01*
X183934332Y-88709313D01*
X184363784Y-88709687D01*
X184760689Y-88545689D01*
X185064622Y-88242286D01*
X185229313Y-87845668D01*
X185229314Y-87843784D01*
X185610313Y-87843784D01*
X185774311Y-88240689D01*
X186077714Y-88544622D01*
X186474332Y-88709313D01*
X186903784Y-88709687D01*
X187300689Y-88545689D01*
X187604622Y-88242286D01*
X187769313Y-87845668D01*
X187769314Y-87843784D01*
X188150313Y-87843784D01*
X188314311Y-88240689D01*
X188617714Y-88544622D01*
X189014332Y-88709313D01*
X189443784Y-88709687D01*
X189840689Y-88545689D01*
X190144622Y-88242286D01*
X190309313Y-87845668D01*
X190309314Y-87843784D01*
X190690313Y-87843784D01*
X190854311Y-88240689D01*
X191157714Y-88544622D01*
X191554332Y-88709313D01*
X191983784Y-88709687D01*
X192380689Y-88545689D01*
X192684622Y-88242286D01*
X192849313Y-87845668D01*
X192849314Y-87843784D01*
X193230313Y-87843784D01*
X193394311Y-88240689D01*
X193697714Y-88544622D01*
X194094332Y-88709313D01*
X194523784Y-88709687D01*
X194754236Y-88614466D01*
X196134942Y-88614466D01*
X196212834Y-88831082D01*
X196720970Y-88983489D01*
X197248750Y-88929838D01*
X197487166Y-88831082D01*
X197565058Y-88614466D01*
X196850000Y-87899408D01*
X196134942Y-88614466D01*
X194754236Y-88614466D01*
X194920689Y-88545689D01*
X195224622Y-88242286D01*
X195389313Y-87845668D01*
X195389613Y-87500970D01*
X195496511Y-87500970D01*
X195550162Y-88028750D01*
X195648918Y-88267166D01*
X195865534Y-88345058D01*
X196580592Y-87630000D01*
X197119408Y-87630000D01*
X197834466Y-88345058D01*
X198051082Y-88267166D01*
X198203489Y-87759030D01*
X198149838Y-87231250D01*
X198051082Y-86992834D01*
X197834466Y-86914942D01*
X197119408Y-87630000D01*
X196580592Y-87630000D01*
X195865534Y-86914942D01*
X195648918Y-86992834D01*
X195496511Y-87500970D01*
X195389613Y-87500970D01*
X195389687Y-87416216D01*
X195225689Y-87019311D01*
X194922286Y-86715378D01*
X194754084Y-86645534D01*
X196134942Y-86645534D01*
X196850000Y-87360592D01*
X197565058Y-86645534D01*
X197487166Y-86428918D01*
X196979030Y-86276511D01*
X196451250Y-86330162D01*
X196212834Y-86428918D01*
X196134942Y-86645534D01*
X194754084Y-86645534D01*
X194525668Y-86550687D01*
X194096216Y-86550313D01*
X193699311Y-86714311D01*
X193395378Y-87017714D01*
X193230687Y-87414332D01*
X193230313Y-87843784D01*
X192849314Y-87843784D01*
X192849687Y-87416216D01*
X192685689Y-87019311D01*
X192382286Y-86715378D01*
X191985668Y-86550687D01*
X191556216Y-86550313D01*
X191159311Y-86714311D01*
X190855378Y-87017714D01*
X190690687Y-87414332D01*
X190690313Y-87843784D01*
X190309314Y-87843784D01*
X190309687Y-87416216D01*
X190145689Y-87019311D01*
X189842286Y-86715378D01*
X189445668Y-86550687D01*
X189016216Y-86550313D01*
X188619311Y-86714311D01*
X188315378Y-87017714D01*
X188150687Y-87414332D01*
X188150313Y-87843784D01*
X187769314Y-87843784D01*
X187769687Y-87416216D01*
X187605689Y-87019311D01*
X187302286Y-86715378D01*
X186905668Y-86550687D01*
X186476216Y-86550313D01*
X186079311Y-86714311D01*
X185775378Y-87017714D01*
X185610687Y-87414332D01*
X185610313Y-87843784D01*
X185229314Y-87843784D01*
X185229687Y-87416216D01*
X185065689Y-87019311D01*
X184762286Y-86715378D01*
X184365668Y-86550687D01*
X183936216Y-86550313D01*
X183539311Y-86714311D01*
X183235378Y-87017714D01*
X183070687Y-87414332D01*
X183070313Y-87843784D01*
X182689314Y-87843784D01*
X182689687Y-87416216D01*
X182525689Y-87019311D01*
X182222286Y-86715378D01*
X181825668Y-86550687D01*
X181396216Y-86550313D01*
X180999311Y-86714311D01*
X180695378Y-87017714D01*
X180530687Y-87414332D01*
X180530313Y-87843784D01*
X180149314Y-87843784D01*
X180149687Y-87416216D01*
X179985689Y-87019311D01*
X179682286Y-86715378D01*
X179285668Y-86550687D01*
X178856216Y-86550313D01*
X178459311Y-86714311D01*
X178155378Y-87017714D01*
X177990687Y-87414332D01*
X177990313Y-87843784D01*
X177858068Y-87843784D01*
X177883489Y-87759030D01*
X177829838Y-87231250D01*
X177731082Y-86992834D01*
X177514466Y-86914942D01*
X176799408Y-87630000D01*
X176260592Y-87630000D01*
X175545534Y-86914942D01*
X175328918Y-86992834D01*
X175176511Y-87500970D01*
X170572500Y-87500970D01*
X170572500Y-86645534D01*
X175814942Y-86645534D01*
X176530000Y-87360592D01*
X177245058Y-86645534D01*
X177167166Y-86428918D01*
X176659030Y-86276511D01*
X176131250Y-86330162D01*
X175892834Y-86428918D01*
X175814942Y-86645534D01*
X170572500Y-86645534D01*
X170572500Y-85482500D01*
X202807500Y-85482500D01*
X202807500Y-107557500D01*
M02*
