G04 #@! TF.FileFunction,Copper,L1,Top,Signal*
%FSLAX46Y46*%
G04 Gerber Fmt 4.6, Leading zero omitted, Abs format (unit mm)*
G04 Created by KiCad (PCBNEW 4.0.6-e0-6349~53~ubuntu16.04.1) date Tue Feb 27 12:18:18 2018*
%MOMM*%
%LPD*%
G01*
G04 APERTURE LIST*
%ADD10C,0.100000*%
%ADD11C,0.150000*%
%ADD12R,0.500000X0.600000*%
%ADD13R,0.600000X0.500000*%
%ADD14R,0.600000X0.400000*%
%ADD15R,3.300000X2.500000*%
%ADD16R,0.950000X2.500000*%
%ADD17C,1.524000*%
%ADD18R,1.778000X0.711200*%
%ADD19C,0.508000*%
%ADD20C,0.406400*%
%ADD21C,0.381000*%
%ADD22C,0.152400*%
%ADD23C,0.762000*%
%ADD24C,0.127000*%
G04 APERTURE END LIST*
D10*
D11*
X170180000Y-107950000D02*
X170180000Y-85090000D01*
X203200000Y-107950000D02*
X170180000Y-107950000D01*
X203200000Y-85090000D02*
X203200000Y-107950000D01*
X170180000Y-85090000D02*
X203200000Y-85090000D01*
D12*
X191008000Y-98340000D03*
X191008000Y-97240000D03*
X182118000Y-92160000D03*
X182118000Y-93260000D03*
D13*
X182477500Y-100711000D03*
X181377500Y-100711000D03*
X189208500Y-100711000D03*
X188108500Y-100711000D03*
X182477500Y-101981000D03*
X181377500Y-101981000D03*
X189208500Y-101981000D03*
X188108500Y-101981000D03*
D12*
X186055000Y-100732500D03*
X186055000Y-101832500D03*
D14*
X201612500Y-91625000D03*
X201612500Y-92525000D03*
X201676000Y-98748000D03*
X201676000Y-97848000D03*
X171450000Y-100145000D03*
X171450000Y-99245000D03*
D15*
X186055000Y-97875000D03*
D16*
X186055000Y-92075000D03*
X183755000Y-92075000D03*
X188355000Y-92075000D03*
D14*
X171450000Y-92260000D03*
X171450000Y-93160000D03*
D17*
X196850000Y-87630000D03*
X194310000Y-87630000D03*
X191770000Y-87630000D03*
X189230000Y-87630000D03*
X186690000Y-87630000D03*
X184150000Y-87630000D03*
X181610000Y-87630000D03*
X179070000Y-87630000D03*
X176530000Y-87630000D03*
X196850000Y-105410000D03*
X194310000Y-105410000D03*
X191770000Y-105410000D03*
X189230000Y-105410000D03*
X186690000Y-105410000D03*
X184150000Y-105410000D03*
X181610000Y-105410000D03*
X179070000Y-105410000D03*
X176530000Y-105410000D03*
D18*
X193929000Y-94180000D03*
X199136000Y-94180000D03*
X193929000Y-92910000D03*
X199136000Y-92910000D03*
X193929000Y-91640000D03*
X199136000Y-91640000D03*
X193929000Y-90370000D03*
X199136000Y-90370000D03*
X193992500Y-101419000D03*
X199199500Y-101419000D03*
X193992500Y-100149000D03*
X199199500Y-100149000D03*
X193992500Y-98879000D03*
X199199500Y-98879000D03*
X193992500Y-97609000D03*
X199199500Y-97609000D03*
X179133500Y-97590000D03*
X173926500Y-97590000D03*
X179133500Y-98860000D03*
X173926500Y-98860000D03*
X179133500Y-100130000D03*
X173926500Y-100130000D03*
X179133500Y-101400000D03*
X173926500Y-101400000D03*
X179133500Y-90605000D03*
X173926500Y-90605000D03*
X179133500Y-91875000D03*
X173926500Y-91875000D03*
X179133500Y-93145000D03*
X173926500Y-93145000D03*
X179133500Y-94415000D03*
X173926500Y-94415000D03*
D19*
X186055000Y-102806500D03*
D20*
X195834000Y-97536000D03*
X197866000Y-100076000D03*
D19*
X191008000Y-96266000D03*
X181102000Y-92202000D03*
D20*
X175260000Y-91948000D03*
X192278000Y-90424000D03*
X197612000Y-92964000D03*
X201676000Y-93472000D03*
X201676000Y-97028000D03*
X181356000Y-102870000D03*
X181356000Y-99822000D03*
X179070000Y-95504000D03*
X179070000Y-102362000D03*
X171450000Y-91440000D03*
X171450000Y-98425000D03*
X172402500Y-98742500D03*
D19*
X187071000Y-101981000D03*
X187071000Y-100711000D03*
X188277500Y-90170000D03*
D20*
X195834000Y-101600000D03*
D19*
X183388000Y-102108000D03*
X183388000Y-100838000D03*
D20*
X177292000Y-90678000D03*
X195580000Y-94234000D03*
X179070000Y-96520000D03*
D19*
X190246000Y-100711000D03*
X190246000Y-101981000D03*
X183515000Y-97790000D03*
X183515000Y-95250000D03*
X184785000Y-95250000D03*
X183515000Y-96520000D03*
X188912500Y-97790000D03*
X188912500Y-95250000D03*
X187325000Y-95250000D03*
X188912500Y-96520000D03*
D20*
X171450000Y-106680000D03*
X191008000Y-95504000D03*
X177800000Y-100076000D03*
X190500000Y-93472000D03*
X177292000Y-93472000D03*
X192024000Y-100076000D03*
X176022000Y-98806000D03*
X191770000Y-92964000D03*
X176530000Y-91948000D03*
X171450000Y-93726000D03*
D21*
X186055000Y-101832500D02*
X186055000Y-102806500D01*
D22*
X193992500Y-97609000D02*
X195761000Y-97609000D01*
X195761000Y-97609000D02*
X195834000Y-97536000D01*
X199199500Y-100149000D02*
X197939000Y-100149000D01*
X197939000Y-100149000D02*
X197866000Y-100076000D01*
D21*
X191008000Y-97240000D02*
X191008000Y-96266000D01*
X182118000Y-93260000D02*
X181398000Y-93260000D01*
X181102000Y-92964000D02*
X181102000Y-92202000D01*
X181398000Y-93260000D02*
X181102000Y-92964000D01*
D22*
X173926500Y-91875000D02*
X175187000Y-91875000D01*
X175187000Y-91875000D02*
X175260000Y-91948000D01*
X193929000Y-90370000D02*
X192332000Y-90370000D01*
X192332000Y-90370000D02*
X192278000Y-90424000D01*
X199136000Y-92910000D02*
X197666000Y-92910000D01*
X197666000Y-92910000D02*
X197612000Y-92964000D01*
X201612500Y-92525000D02*
X201612500Y-93408500D01*
X201612500Y-93408500D02*
X201676000Y-93472000D01*
X201676000Y-97848000D02*
X201676000Y-97028000D01*
X181377500Y-101981000D02*
X181377500Y-102848500D01*
X181377500Y-102848500D02*
X181356000Y-102870000D01*
X181377500Y-100711000D02*
X181377500Y-99843500D01*
X181377500Y-99843500D02*
X181356000Y-99822000D01*
X179133500Y-94415000D02*
X179133500Y-95440500D01*
X179133500Y-95440500D02*
X179070000Y-95504000D01*
X179133500Y-101400000D02*
X179133500Y-102298500D01*
X179133500Y-102298500D02*
X179070000Y-102362000D01*
X171450000Y-92260000D02*
X171450000Y-91440000D01*
X171450000Y-99245000D02*
X171450000Y-98425000D01*
X173926500Y-98860000D02*
X172520000Y-98860000D01*
X172520000Y-98860000D02*
X172402500Y-98742500D01*
D21*
X188108500Y-101981000D02*
X187071000Y-101981000D01*
X188108500Y-100711000D02*
X187071000Y-100711000D01*
X188355000Y-92075000D02*
X188355000Y-90247500D01*
X188355000Y-90247500D02*
X188277500Y-90170000D01*
D22*
X193992500Y-101419000D02*
X195653000Y-101419000D01*
X195653000Y-101419000D02*
X195834000Y-101600000D01*
D21*
X182477500Y-101981000D02*
X183261000Y-101981000D01*
X183261000Y-101981000D02*
X183388000Y-102108000D01*
X182477500Y-100711000D02*
X183261000Y-100711000D01*
X183261000Y-100711000D02*
X183388000Y-100838000D01*
X186055000Y-100732500D02*
X186055000Y-97875000D01*
X191008000Y-98340000D02*
X188912500Y-98340000D01*
X188976000Y-98298000D02*
X188912500Y-98298000D01*
X188954500Y-98298000D02*
X188976000Y-98298000D01*
X188912500Y-98340000D02*
X188954500Y-98298000D01*
D22*
X179133500Y-90605000D02*
X177365000Y-90605000D01*
X177365000Y-90605000D02*
X177292000Y-90678000D01*
X193929000Y-94180000D02*
X195526000Y-94180000D01*
X195526000Y-94180000D02*
X195580000Y-94234000D01*
X179133500Y-97590000D02*
X179133500Y-96583500D01*
X179133500Y-96583500D02*
X179070000Y-96520000D01*
D21*
X189208500Y-100711000D02*
X190246000Y-100711000D01*
X189208500Y-101981000D02*
X190246000Y-101981000D01*
X183515000Y-96520000D02*
X183515000Y-95250000D01*
X186055000Y-96520000D02*
X184785000Y-95250000D01*
X183515000Y-95250000D02*
X184785000Y-95250000D01*
X183515000Y-96520000D02*
X183515000Y-97790000D01*
X186055000Y-97875000D02*
X186055000Y-96520000D01*
X188912500Y-99780000D02*
X188912500Y-99377500D01*
X188912500Y-99377500D02*
X188912500Y-98742500D01*
X188912500Y-98742500D02*
X188912500Y-98552000D01*
X188912500Y-98552000D02*
X188912500Y-98298000D01*
X188912500Y-98298000D02*
X188912500Y-97790000D01*
X188912500Y-96520000D02*
X188912500Y-95250000D01*
X186055000Y-96520000D02*
X187325000Y-95250000D01*
X188912500Y-95250000D02*
X187325000Y-95250000D01*
X188912500Y-97790000D02*
X188912500Y-96520000D01*
D23*
X186055000Y-92075000D02*
X186055000Y-97875000D01*
D21*
X182118000Y-92160000D02*
X183670000Y-92160000D01*
X183670000Y-92160000D02*
X183755000Y-92075000D01*
X179070000Y-87630000D02*
X181356000Y-89916000D01*
X182118000Y-90678000D02*
X182118000Y-92160000D01*
X181356000Y-89916000D02*
X182118000Y-90678000D01*
X183600000Y-91920000D02*
X183755000Y-92075000D01*
D22*
X199136000Y-90370000D02*
X197050000Y-90370000D01*
X197050000Y-90370000D02*
X194310000Y-87630000D01*
X199136000Y-94180000D02*
X197920000Y-94180000D01*
X197104000Y-91440000D02*
X195326000Y-89662000D01*
X197104000Y-93364000D02*
X197104000Y-91440000D01*
X197920000Y-94180000D02*
X197104000Y-93364000D01*
X193040000Y-88900000D02*
X191770000Y-87630000D01*
X194564000Y-88900000D02*
X193040000Y-88900000D01*
X195326000Y-89662000D02*
X194564000Y-88900000D01*
X201612500Y-91625000D02*
X201612500Y-88074500D01*
X191008000Y-85852000D02*
X189230000Y-87630000D01*
X199390000Y-85852000D02*
X191008000Y-85852000D01*
X201612500Y-88074500D02*
X199390000Y-85852000D01*
X199136000Y-91640000D02*
X201597500Y-91640000D01*
X201597500Y-91640000D02*
X201612500Y-91625000D01*
X173926500Y-94415000D02*
X171123000Y-94415000D01*
X171123000Y-94415000D02*
X170434000Y-93726000D01*
X184912000Y-85852000D02*
X186690000Y-87630000D01*
X173736000Y-85852000D02*
X184912000Y-85852000D01*
X170434000Y-89154000D02*
X173736000Y-85852000D01*
X170434000Y-93726000D02*
X170434000Y-89154000D01*
X173926500Y-90605000D02*
X173926500Y-87439500D01*
X182880000Y-86360000D02*
X184150000Y-87630000D01*
X175006000Y-86360000D02*
X182880000Y-86360000D01*
X173926500Y-87439500D02*
X175006000Y-86360000D01*
X197104000Y-98806000D02*
X197104000Y-98552000D01*
X198018402Y-97637598D02*
X199199500Y-97637598D01*
X197104000Y-98552000D02*
X198018402Y-97637598D01*
X199199500Y-97637598D02*
X199199500Y-97609000D01*
X197104000Y-102616000D02*
X194310000Y-105410000D01*
X197104000Y-98806000D02*
X197104000Y-102616000D01*
X199199500Y-101419000D02*
X199199500Y-105854500D01*
X193294000Y-106934000D02*
X191770000Y-105410000D01*
X198120000Y-106934000D02*
X193294000Y-106934000D01*
X199199500Y-105854500D02*
X198120000Y-106934000D01*
X201676000Y-98748000D02*
X200972000Y-98748000D01*
X200841000Y-98879000D02*
X199199500Y-98879000D01*
X200972000Y-98748000D02*
X200841000Y-98879000D01*
X189230000Y-105410000D02*
X191262000Y-107442000D01*
X198628000Y-107442000D02*
X199136000Y-106934000D01*
X191262000Y-107442000D02*
X198628000Y-107442000D01*
X201676000Y-98748000D02*
X201676000Y-104394000D01*
X201676000Y-104394000D02*
X199136000Y-106934000D01*
X201597500Y-98752000D02*
X201612500Y-98737000D01*
X186690000Y-105410000D02*
X184912000Y-107188000D01*
X184912000Y-107188000D02*
X174752000Y-107188000D01*
X174752000Y-107188000D02*
X173926500Y-106362500D01*
X173926500Y-106362500D02*
X173926500Y-101400000D01*
X173926500Y-97590000D02*
X175060000Y-97590000D01*
X175514000Y-100330000D02*
X176784000Y-101600000D01*
X175514000Y-98044000D02*
X175514000Y-100330000D01*
X175060000Y-97590000D02*
X175514000Y-98044000D01*
X182372000Y-103632000D02*
X184150000Y-105410000D01*
X178816000Y-103632000D02*
X182372000Y-103632000D01*
X176784000Y-101600000D02*
X178816000Y-103632000D01*
X173926500Y-97590000D02*
X174952000Y-97590000D01*
X173926500Y-97590000D02*
X174952000Y-97590000D01*
X173980500Y-97536000D02*
X173926500Y-97590000D01*
X171450000Y-100145000D02*
X171450000Y-106680000D01*
X171450000Y-100330000D02*
X171450000Y-100145000D01*
X173926500Y-100130000D02*
X171465000Y-100130000D01*
X171465000Y-100130000D02*
X171450000Y-100145000D01*
X171465000Y-100130000D02*
X171450000Y-100145000D01*
X193992500Y-98879000D02*
X192351000Y-98879000D01*
X192024000Y-98552000D02*
X192024000Y-97028000D01*
X192351000Y-98879000D02*
X192024000Y-98552000D01*
X192024000Y-96520000D02*
X191008000Y-95504000D01*
X192024000Y-97028000D02*
X192024000Y-96520000D01*
X179133500Y-100130000D02*
X177854000Y-100130000D01*
X177854000Y-100130000D02*
X177800000Y-100076000D01*
X193929000Y-91640000D02*
X192332000Y-91640000D01*
X192332000Y-91640000D02*
X190500000Y-93472000D01*
X179133500Y-93145000D02*
X177619000Y-93145000D01*
X177619000Y-93145000D02*
X177292000Y-93472000D01*
X193992500Y-100149000D02*
X192097000Y-100149000D01*
X192097000Y-100149000D02*
X192024000Y-100076000D01*
X176076000Y-98860000D02*
X176022000Y-98806000D01*
X176076000Y-98860000D02*
X179133500Y-98860000D01*
X193929000Y-92910000D02*
X191824000Y-92910000D01*
X191824000Y-92910000D02*
X191770000Y-92964000D01*
X176603000Y-91875000D02*
X179133500Y-91875000D01*
X176530000Y-91948000D02*
X176603000Y-91875000D01*
X171450000Y-93160000D02*
X171450000Y-93726000D01*
X173926500Y-93145000D02*
X171465000Y-93145000D01*
X171465000Y-93145000D02*
X171450000Y-93160000D01*
D24*
G36*
X190119000Y-99949000D02*
X189765823Y-99949000D01*
X189622178Y-99889500D01*
X189501375Y-99889500D01*
X189441875Y-99949000D01*
X188975125Y-99949000D01*
X188915625Y-99889500D01*
X188794822Y-99889500D01*
X188651177Y-99949000D01*
X186629723Y-99949000D01*
X186628729Y-99948006D01*
X186418679Y-99861000D01*
X186322875Y-99861000D01*
X186234875Y-99949000D01*
X185875125Y-99949000D01*
X185787125Y-99861000D01*
X185691321Y-99861000D01*
X185481271Y-99948006D01*
X185480277Y-99949000D01*
X183034823Y-99949000D01*
X182891178Y-99889500D01*
X182770375Y-99889500D01*
X182710875Y-99949000D01*
X182244125Y-99949000D01*
X182184625Y-99889500D01*
X182063822Y-99889500D01*
X181991000Y-99919664D01*
X181991000Y-98208375D01*
X183833500Y-98208375D01*
X183833500Y-99238679D01*
X183920506Y-99448729D01*
X184081272Y-99609494D01*
X184291322Y-99696500D01*
X185721625Y-99696500D01*
X185864500Y-99553625D01*
X185864500Y-98065500D01*
X186245500Y-98065500D01*
X186245500Y-99553625D01*
X186388375Y-99696500D01*
X187818678Y-99696500D01*
X188028728Y-99609494D01*
X188189494Y-99448729D01*
X188276500Y-99238679D01*
X188276500Y-98208375D01*
X188133625Y-98065500D01*
X186245500Y-98065500D01*
X185864500Y-98065500D01*
X183976375Y-98065500D01*
X183833500Y-98208375D01*
X181991000Y-98208375D01*
X181991000Y-96511321D01*
X183833500Y-96511321D01*
X183833500Y-97541625D01*
X183976375Y-97684500D01*
X185864500Y-97684500D01*
X185864500Y-96196375D01*
X186245500Y-96196375D01*
X186245500Y-97684500D01*
X188133625Y-97684500D01*
X188276500Y-97541625D01*
X188276500Y-96511321D01*
X188189494Y-96301271D01*
X188028728Y-96140506D01*
X187818678Y-96053500D01*
X186388375Y-96053500D01*
X186245500Y-96196375D01*
X185864500Y-96196375D01*
X185721625Y-96053500D01*
X184291322Y-96053500D01*
X184081272Y-96140506D01*
X183920506Y-96301271D01*
X183833500Y-96511321D01*
X181991000Y-96511321D01*
X181991000Y-94361000D01*
X190119000Y-94361000D01*
X190119000Y-99949000D01*
X190119000Y-99949000D01*
G37*
X190119000Y-99949000D02*
X189765823Y-99949000D01*
X189622178Y-99889500D01*
X189501375Y-99889500D01*
X189441875Y-99949000D01*
X188975125Y-99949000D01*
X188915625Y-99889500D01*
X188794822Y-99889500D01*
X188651177Y-99949000D01*
X186629723Y-99949000D01*
X186628729Y-99948006D01*
X186418679Y-99861000D01*
X186322875Y-99861000D01*
X186234875Y-99949000D01*
X185875125Y-99949000D01*
X185787125Y-99861000D01*
X185691321Y-99861000D01*
X185481271Y-99948006D01*
X185480277Y-99949000D01*
X183034823Y-99949000D01*
X182891178Y-99889500D01*
X182770375Y-99889500D01*
X182710875Y-99949000D01*
X182244125Y-99949000D01*
X182184625Y-99889500D01*
X182063822Y-99889500D01*
X181991000Y-99919664D01*
X181991000Y-98208375D01*
X183833500Y-98208375D01*
X183833500Y-99238679D01*
X183920506Y-99448729D01*
X184081272Y-99609494D01*
X184291322Y-99696500D01*
X185721625Y-99696500D01*
X185864500Y-99553625D01*
X185864500Y-98065500D01*
X186245500Y-98065500D01*
X186245500Y-99553625D01*
X186388375Y-99696500D01*
X187818678Y-99696500D01*
X188028728Y-99609494D01*
X188189494Y-99448729D01*
X188276500Y-99238679D01*
X188276500Y-98208375D01*
X188133625Y-98065500D01*
X186245500Y-98065500D01*
X185864500Y-98065500D01*
X183976375Y-98065500D01*
X183833500Y-98208375D01*
X181991000Y-98208375D01*
X181991000Y-96511321D01*
X183833500Y-96511321D01*
X183833500Y-97541625D01*
X183976375Y-97684500D01*
X185864500Y-97684500D01*
X185864500Y-96196375D01*
X186245500Y-96196375D01*
X186245500Y-97684500D01*
X188133625Y-97684500D01*
X188276500Y-97541625D01*
X188276500Y-96511321D01*
X188189494Y-96301271D01*
X188028728Y-96140506D01*
X187818678Y-96053500D01*
X186388375Y-96053500D01*
X186245500Y-96196375D01*
X185864500Y-96196375D01*
X185721625Y-96053500D01*
X184291322Y-96053500D01*
X184081272Y-96140506D01*
X183920506Y-96301271D01*
X183833500Y-96511321D01*
X181991000Y-96511321D01*
X181991000Y-94361000D01*
X190119000Y-94361000D01*
X190119000Y-99949000D01*
M02*
