G04 #@! TF.GenerationSoftware,KiCad,Pcbnew,(5.1.2-1)-1*
G04 #@! TF.CreationDate,2019-11-08T10:28:15-05:00*
G04 #@! TF.ProjectId,flow_rate,666c6f77-5f72-4617-9465-2e6b69636164,rev?*
G04 #@! TF.SameCoordinates,Original*
G04 #@! TF.FileFunction,Paste,Top*
G04 #@! TF.FilePolarity,Positive*
%FSLAX46Y46*%
G04 Gerber Fmt 4.6, Leading zero omitted, Abs format (unit mm)*
G04 Created by KiCad (PCBNEW (5.1.2-1)-1) date 2019-11-08 10:28:15*
%MOMM*%
%LPD*%
G04 APERTURE LIST*
%ADD10C,0.100000*%
%ADD11C,0.975000*%
G04 APERTURE END LIST*
D10*
G36*
X213960142Y-45021174D02*
G01*
X213983803Y-45024684D01*
X214007007Y-45030496D01*
X214029529Y-45038554D01*
X214051153Y-45048782D01*
X214071670Y-45061079D01*
X214090883Y-45075329D01*
X214108607Y-45091393D01*
X214124671Y-45109117D01*
X214138921Y-45128330D01*
X214151218Y-45148847D01*
X214161446Y-45170471D01*
X214169504Y-45192993D01*
X214175316Y-45216197D01*
X214178826Y-45239858D01*
X214180000Y-45263750D01*
X214180000Y-46176250D01*
X214178826Y-46200142D01*
X214175316Y-46223803D01*
X214169504Y-46247007D01*
X214161446Y-46269529D01*
X214151218Y-46291153D01*
X214138921Y-46311670D01*
X214124671Y-46330883D01*
X214108607Y-46348607D01*
X214090883Y-46364671D01*
X214071670Y-46378921D01*
X214051153Y-46391218D01*
X214029529Y-46401446D01*
X214007007Y-46409504D01*
X213983803Y-46415316D01*
X213960142Y-46418826D01*
X213936250Y-46420000D01*
X213448750Y-46420000D01*
X213424858Y-46418826D01*
X213401197Y-46415316D01*
X213377993Y-46409504D01*
X213355471Y-46401446D01*
X213333847Y-46391218D01*
X213313330Y-46378921D01*
X213294117Y-46364671D01*
X213276393Y-46348607D01*
X213260329Y-46330883D01*
X213246079Y-46311670D01*
X213233782Y-46291153D01*
X213223554Y-46269529D01*
X213215496Y-46247007D01*
X213209684Y-46223803D01*
X213206174Y-46200142D01*
X213205000Y-46176250D01*
X213205000Y-45263750D01*
X213206174Y-45239858D01*
X213209684Y-45216197D01*
X213215496Y-45192993D01*
X213223554Y-45170471D01*
X213233782Y-45148847D01*
X213246079Y-45128330D01*
X213260329Y-45109117D01*
X213276393Y-45091393D01*
X213294117Y-45075329D01*
X213313330Y-45061079D01*
X213333847Y-45048782D01*
X213355471Y-45038554D01*
X213377993Y-45030496D01*
X213401197Y-45024684D01*
X213424858Y-45021174D01*
X213448750Y-45020000D01*
X213936250Y-45020000D01*
X213960142Y-45021174D01*
X213960142Y-45021174D01*
G37*
D11*
X213692500Y-45720000D03*
D10*
G36*
X215835142Y-45021174D02*
G01*
X215858803Y-45024684D01*
X215882007Y-45030496D01*
X215904529Y-45038554D01*
X215926153Y-45048782D01*
X215946670Y-45061079D01*
X215965883Y-45075329D01*
X215983607Y-45091393D01*
X215999671Y-45109117D01*
X216013921Y-45128330D01*
X216026218Y-45148847D01*
X216036446Y-45170471D01*
X216044504Y-45192993D01*
X216050316Y-45216197D01*
X216053826Y-45239858D01*
X216055000Y-45263750D01*
X216055000Y-46176250D01*
X216053826Y-46200142D01*
X216050316Y-46223803D01*
X216044504Y-46247007D01*
X216036446Y-46269529D01*
X216026218Y-46291153D01*
X216013921Y-46311670D01*
X215999671Y-46330883D01*
X215983607Y-46348607D01*
X215965883Y-46364671D01*
X215946670Y-46378921D01*
X215926153Y-46391218D01*
X215904529Y-46401446D01*
X215882007Y-46409504D01*
X215858803Y-46415316D01*
X215835142Y-46418826D01*
X215811250Y-46420000D01*
X215323750Y-46420000D01*
X215299858Y-46418826D01*
X215276197Y-46415316D01*
X215252993Y-46409504D01*
X215230471Y-46401446D01*
X215208847Y-46391218D01*
X215188330Y-46378921D01*
X215169117Y-46364671D01*
X215151393Y-46348607D01*
X215135329Y-46330883D01*
X215121079Y-46311670D01*
X215108782Y-46291153D01*
X215098554Y-46269529D01*
X215090496Y-46247007D01*
X215084684Y-46223803D01*
X215081174Y-46200142D01*
X215080000Y-46176250D01*
X215080000Y-45263750D01*
X215081174Y-45239858D01*
X215084684Y-45216197D01*
X215090496Y-45192993D01*
X215098554Y-45170471D01*
X215108782Y-45148847D01*
X215121079Y-45128330D01*
X215135329Y-45109117D01*
X215151393Y-45091393D01*
X215169117Y-45075329D01*
X215188330Y-45061079D01*
X215208847Y-45048782D01*
X215230471Y-45038554D01*
X215252993Y-45030496D01*
X215276197Y-45024684D01*
X215299858Y-45021174D01*
X215323750Y-45020000D01*
X215811250Y-45020000D01*
X215835142Y-45021174D01*
X215835142Y-45021174D01*
G37*
D11*
X215567500Y-45720000D03*
D10*
G36*
X203960142Y-45021174D02*
G01*
X203983803Y-45024684D01*
X204007007Y-45030496D01*
X204029529Y-45038554D01*
X204051153Y-45048782D01*
X204071670Y-45061079D01*
X204090883Y-45075329D01*
X204108607Y-45091393D01*
X204124671Y-45109117D01*
X204138921Y-45128330D01*
X204151218Y-45148847D01*
X204161446Y-45170471D01*
X204169504Y-45192993D01*
X204175316Y-45216197D01*
X204178826Y-45239858D01*
X204180000Y-45263750D01*
X204180000Y-46176250D01*
X204178826Y-46200142D01*
X204175316Y-46223803D01*
X204169504Y-46247007D01*
X204161446Y-46269529D01*
X204151218Y-46291153D01*
X204138921Y-46311670D01*
X204124671Y-46330883D01*
X204108607Y-46348607D01*
X204090883Y-46364671D01*
X204071670Y-46378921D01*
X204051153Y-46391218D01*
X204029529Y-46401446D01*
X204007007Y-46409504D01*
X203983803Y-46415316D01*
X203960142Y-46418826D01*
X203936250Y-46420000D01*
X203448750Y-46420000D01*
X203424858Y-46418826D01*
X203401197Y-46415316D01*
X203377993Y-46409504D01*
X203355471Y-46401446D01*
X203333847Y-46391218D01*
X203313330Y-46378921D01*
X203294117Y-46364671D01*
X203276393Y-46348607D01*
X203260329Y-46330883D01*
X203246079Y-46311670D01*
X203233782Y-46291153D01*
X203223554Y-46269529D01*
X203215496Y-46247007D01*
X203209684Y-46223803D01*
X203206174Y-46200142D01*
X203205000Y-46176250D01*
X203205000Y-45263750D01*
X203206174Y-45239858D01*
X203209684Y-45216197D01*
X203215496Y-45192993D01*
X203223554Y-45170471D01*
X203233782Y-45148847D01*
X203246079Y-45128330D01*
X203260329Y-45109117D01*
X203276393Y-45091393D01*
X203294117Y-45075329D01*
X203313330Y-45061079D01*
X203333847Y-45048782D01*
X203355471Y-45038554D01*
X203377993Y-45030496D01*
X203401197Y-45024684D01*
X203424858Y-45021174D01*
X203448750Y-45020000D01*
X203936250Y-45020000D01*
X203960142Y-45021174D01*
X203960142Y-45021174D01*
G37*
D11*
X203692500Y-45720000D03*
D10*
G36*
X205835142Y-45021174D02*
G01*
X205858803Y-45024684D01*
X205882007Y-45030496D01*
X205904529Y-45038554D01*
X205926153Y-45048782D01*
X205946670Y-45061079D01*
X205965883Y-45075329D01*
X205983607Y-45091393D01*
X205999671Y-45109117D01*
X206013921Y-45128330D01*
X206026218Y-45148847D01*
X206036446Y-45170471D01*
X206044504Y-45192993D01*
X206050316Y-45216197D01*
X206053826Y-45239858D01*
X206055000Y-45263750D01*
X206055000Y-46176250D01*
X206053826Y-46200142D01*
X206050316Y-46223803D01*
X206044504Y-46247007D01*
X206036446Y-46269529D01*
X206026218Y-46291153D01*
X206013921Y-46311670D01*
X205999671Y-46330883D01*
X205983607Y-46348607D01*
X205965883Y-46364671D01*
X205946670Y-46378921D01*
X205926153Y-46391218D01*
X205904529Y-46401446D01*
X205882007Y-46409504D01*
X205858803Y-46415316D01*
X205835142Y-46418826D01*
X205811250Y-46420000D01*
X205323750Y-46420000D01*
X205299858Y-46418826D01*
X205276197Y-46415316D01*
X205252993Y-46409504D01*
X205230471Y-46401446D01*
X205208847Y-46391218D01*
X205188330Y-46378921D01*
X205169117Y-46364671D01*
X205151393Y-46348607D01*
X205135329Y-46330883D01*
X205121079Y-46311670D01*
X205108782Y-46291153D01*
X205098554Y-46269529D01*
X205090496Y-46247007D01*
X205084684Y-46223803D01*
X205081174Y-46200142D01*
X205080000Y-46176250D01*
X205080000Y-45263750D01*
X205081174Y-45239858D01*
X205084684Y-45216197D01*
X205090496Y-45192993D01*
X205098554Y-45170471D01*
X205108782Y-45148847D01*
X205121079Y-45128330D01*
X205135329Y-45109117D01*
X205151393Y-45091393D01*
X205169117Y-45075329D01*
X205188330Y-45061079D01*
X205208847Y-45048782D01*
X205230471Y-45038554D01*
X205252993Y-45030496D01*
X205276197Y-45024684D01*
X205299858Y-45021174D01*
X205323750Y-45020000D01*
X205811250Y-45020000D01*
X205835142Y-45021174D01*
X205835142Y-45021174D01*
G37*
D11*
X205567500Y-45720000D03*
M02*
