solid Light Shield
  facet normal 1 0 0
    outer loop
      vertex 66.99999904632568 7.105427357601002e-15 164.9999966621399
      vertex 66.99999904632568 -7.105427357601002e-15 -0.000003337860107421875
      vertex 66.99999904632568 70 -0.000003337860107421875
    endloop
  endfacet
  facet normal 1 0 0
    outer loop
      vertex 66.99999904632568 7.105427357601002e-15 164.9999966621399
      vertex 66.99999904632568 70 -0.000003337860107421875
      vertex 66.99999904632568 70 164.9999966621399
    endloop
  endfacet
  facet normal -1 0 0
    outer loop
      vertex -9.5367431640625e-7 70 164.9999966621399
      vertex -9.5367431640625e-7 70 -0.000003337860107421875
      vertex -9.5367431640625e-7 -7.105427357601002e-15 -0.000003337860107421875
    endloop
  endfacet
  facet normal -1 0 0
    outer loop
      vertex -9.5367431640625e-7 70 164.9999966621399
      vertex -9.5367431640625e-7 -7.105427357601002e-15 -0.000003337860107421875
      vertex -9.5367431640625e-7 7.105427357601002e-15 164.9999966621399
    endloop
  endfacet
  facet normal 0 -1 8.612639221334548e-17
    outer loop
      vertex -9.5367431640625e-7 7.105427357601002e-15 164.9999966621399
      vertex -9.5367431640625e-7 -7.105427357601002e-15 -0.000003337860107421875
      vertex 66.99999904632568 -7.105427357601002e-15 -0.000003337860107421875
    endloop
  endfacet
  facet normal 0 -1 8.612639221334548e-17
    outer loop
      vertex -9.5367431640625e-7 7.105427357601002e-15 164.9999966621399
      vertex 66.99999904632568 -7.105427357601002e-15 -0.000003337860107421875
      vertex 66.99999904632568 7.105427357601002e-15 164.9999966621399
    endloop
  endfacet
  facet normal 0 1 0
    outer loop
      vertex 66.99999904632568 70 164.9999966621399
      vertex 66.99999904632568 70 -0.000003337860107421875
      vertex -9.5367431640625e-7 70 -0.000003337860107421875
    endloop
  endfacet
  facet normal 0 1 0
    outer loop
      vertex 66.99999904632568 70 164.9999966621399
      vertex -9.5367431640625e-7 70 -0.000003337860107421875
      vertex -9.5367431640625e-7 70 164.9999966621399
    endloop
  endfacet
  facet normal -1 0 0
    outer loop
      vertex 65.99999904632568 70 164.9999966621399
      vertex 65.99999904632568 70 -0.000003337860107421875
      vertex 65.99999904632568 -7.105427357601002e-15 -0.000003337860107421875
    endloop
  endfacet
  facet normal -1 0 0
    outer loop
      vertex 65.99999904632568 70 164.9999966621399
      vertex 65.99999904632568 -7.105427357601002e-15 -0.000003337860107421875
      vertex 65.99999904632568 7.105427357601002e-15 164.9999966621399
    endloop
  endfacet
  facet normal 1 0 0
    outer loop
      vertex 0.9999990463256836 7.105427357601002e-15 164.9999966621399
      vertex 0.9999990463256836 -7.105427357601002e-15 -0.000003337860107421875
      vertex 0.9999990463256836 70 -0.000003337860107421875
    endloop
  endfacet
  facet normal 1 0 0
    outer loop
      vertex 0.9999990463256836 7.105427357601002e-15 164.9999966621399
      vertex 0.9999990463256836 70 -0.000003337860107421875
      vertex 0.9999990463256836 70 164.9999966621399
    endloop
  endfacet
  facet normal 0 1 -8.741186075384317e-17
    outer loop
      vertex 66.99999904632568 1.000000000000007 164.9999966621399
      vertex 66.99999904632568 0.9999999999999929 -0.000003337860107421875
      vertex -9.5367431640625e-7 0.9999999999999929 -0.000003337860107421875
    endloop
  endfacet
  facet normal 0 1 -8.741186075384317e-17
    outer loop
      vertex 66.99999904632568 1.000000000000007 164.9999966621399
      vertex -9.5367431640625e-7 0.9999999999999929 -0.000003337860107421875
      vertex -9.5367431640625e-7 1.000000000000007 164.9999966621399
    endloop
  endfacet
  facet normal 0 -1 0
    outer loop
      vertex -9.5367431640625e-7 69 164.9999966621399
      vertex -9.5367431640625e-7 69 -0.000003337860107421875
      vertex 66.99999904632568 69 -0.000003337860107421875
    endloop
  endfacet
  facet normal 0 -1 0
    outer loop
      vertex -9.5367431640625e-7 69 164.9999966621399
      vertex 66.99999904632568 69 -0.000003337860107421875
      vertex 66.99999904632568 69 164.9999966621399
    endloop
  endfacet
  facet normal 0 -1 8.612639221334548e-17
    outer loop
      vertex 65.99999904632568 7.105427357601002e-15 164.9999966621399
      vertex 65.99999904632568 -7.105427357601002e-15 -0.000003337860107421875
      vertex 66.99999904632568 -7.105427357601002e-15 -0.000003337860107421875
    endloop
  endfacet
  facet normal 0 -1 8.612639221334548e-17
    outer loop
      vertex 65.99999904632568 7.105427357601002e-15 164.9999966621399
      vertex 66.99999904632568 -7.105427357601002e-15 -0.000003337860107421875
      vertex 66.99999904632568 7.105427357601002e-15 164.9999966621399
    endloop
  endfacet
  facet normal 0 0 -1
    outer loop
      vertex 65.99999904632568 -7.105427357601002e-15 -0.000003337860107421875
      vertex 65.99999904632568 70 -0.000003337860107421875
      vertex 66.99999904632568 70 -0.000003337860107421875
    endloop
  endfacet
  facet normal 0 0 -1
    outer loop
      vertex 65.99999904632568 -7.105427357601002e-15 -0.000003337860107421875
      vertex 66.99999904632568 70 -0.000003337860107421875
      vertex 66.99999904632568 -7.105427357601002e-15 -0.000003337860107421875
    endloop
  endfacet
  facet normal 0 1 0
    outer loop
      vertex 65.99999904632568 70 -0.000003337860107421875
      vertex 65.99999904632568 70 164.9999966621399
      vertex 66.99999904632568 70 164.9999966621399
    endloop
  endfacet
  facet normal 0 1 0
    outer loop
      vertex 65.99999904632568 70 -0.000003337860107421875
      vertex 66.99999904632568 70 164.9999966621399
      vertex 66.99999904632568 70 -0.000003337860107421875
    endloop
  endfacet
  facet normal 0 0 1
    outer loop
      vertex 65.99999904632568 70 164.9999966621399
      vertex 65.99999904632568 7.105427357601002e-15 164.9999966621399
      vertex 66.99999904632568 7.105427357601002e-15 164.9999966621399
    endloop
  endfacet
  facet normal 0 0 1
    outer loop
      vertex 65.99999904632568 70 164.9999966621399
      vertex 66.99999904632568 7.105427357601002e-15 164.9999966621399
      vertex 66.99999904632568 70 164.9999966621399
    endloop
  endfacet
  facet normal 0 1 0
    outer loop
      vertex 0.9999990463256836 70 164.9999966621399
      vertex 0.9999990463256836 70 -0.000003337860107421875
      vertex -9.5367431640625e-7 70 -0.000003337860107421875
    endloop
  endfacet
  facet normal 0 1 0
    outer loop
      vertex 0.9999990463256836 70 164.9999966621399
      vertex -9.5367431640625e-7 70 -0.000003337860107421875
      vertex -9.5367431640625e-7 70 164.9999966621399
    endloop
  endfacet
  facet normal 0 0 -1
    outer loop
      vertex 0.9999990463256836 70 -0.000003337860107421875
      vertex 0.9999990463256836 -7.105427357601002e-15 -0.000003337860107421875
      vertex -9.5367431640625e-7 -7.105427357601002e-15 -0.000003337860107421875
    endloop
  endfacet
  facet normal 0 0 -1
    outer loop
      vertex 0.9999990463256836 70 -0.000003337860107421875
      vertex -9.5367431640625e-7 -7.105427357601002e-15 -0.000003337860107421875
      vertex -9.5367431640625e-7 70 -0.000003337860107421875
    endloop
  endfacet
  facet normal 0 -1 8.612639221334548e-17
    outer loop
      vertex 0.9999990463256836 -7.105427357601002e-15 -0.000003337860107421875
      vertex 0.9999990463256836 7.105427357601002e-15 164.9999966621399
      vertex -9.5367431640625e-7 7.105427357601002e-15 164.9999966621399
    endloop
  endfacet
  facet normal 0 -1 8.612639221334548e-17
    outer loop
      vertex 0.9999990463256836 -7.105427357601002e-15 -0.000003337860107421875
      vertex -9.5367431640625e-7 7.105427357601002e-15 164.9999966621399
      vertex -9.5367431640625e-7 -7.105427357601002e-15 -0.000003337860107421875
    endloop
  endfacet
  facet normal 0 0 1
    outer loop
      vertex 0.9999990463256836 7.105427357601002e-15 164.9999966621399
      vertex 0.9999990463256836 70 164.9999966621399
      vertex -9.5367431640625e-7 70 164.9999966621399
    endloop
  endfacet
  facet normal 0 0 1
    outer loop
      vertex 0.9999990463256836 7.105427357601002e-15 164.9999966621399
      vertex -9.5367431640625e-7 70 164.9999966621399
      vertex -9.5367431640625e-7 7.105427357601002e-15 164.9999966621399
    endloop
  endfacet
  facet normal -1 0 0
    outer loop
      vertex -9.5367431640625e-7 70 163.9999966621399
      vertex -9.5367431640625e-7 7.105427357601002e-15 163.9999966621399
      vertex -9.5367431640625e-7 7.105427357601002e-15 164.9999966621399
    endloop
  endfacet
  facet normal -1 0 0
    outer loop
      vertex -9.5367431640625e-7 70 163.9999966621399
      vertex -9.5367431640625e-7 7.105427357601002e-15 164.9999966621399
      vertex -9.5367431640625e-7 70 164.9999966621399
    endloop
  endfacet
  facet normal 0 -1 0
    outer loop
      vertex -9.5367431640625e-7 7.105427357601002e-15 163.9999966621399
      vertex 66.99999904632568 7.105427357601002e-15 163.9999966621399
      vertex 66.99999904632568 7.105427357601002e-15 164.9999966621399
    endloop
  endfacet
  facet normal 0 -1 0
    outer loop
      vertex -9.5367431640625e-7 7.105427357601002e-15 163.9999966621399
      vertex 66.99999904632568 7.105427357601002e-15 164.9999966621399
      vertex -9.5367431640625e-7 7.105427357601002e-15 164.9999966621399
    endloop
  endfacet
  facet normal 1 0 0
    outer loop
      vertex 66.99999904632568 7.105427357601002e-15 163.9999966621399
      vertex 66.99999904632568 70 163.9999966621399
      vertex 66.99999904632568 70 164.9999966621399
    endloop
  endfacet
  facet normal 1 0 0
    outer loop
      vertex 66.99999904632568 7.105427357601002e-15 163.9999966621399
      vertex 66.99999904632568 70 164.9999966621399
      vertex 66.99999904632568 7.105427357601002e-15 164.9999966621399
    endloop
  endfacet
  facet normal 0 1 0
    outer loop
      vertex 66.99999904632568 70 163.9999966621399
      vertex -9.5367431640625e-7 70 163.9999966621399
      vertex -9.5367431640625e-7 70 164.9999966621399
    endloop
  endfacet
  facet normal 0 1 0
    outer loop
      vertex 66.99999904632568 70 163.9999966621399
      vertex -9.5367431640625e-7 70 164.9999966621399
      vertex 66.99999904632568 70 164.9999966621399
    endloop
  endfacet
  facet normal -1 0 0
    outer loop
      vertex -9.5367431640625e-7 1.000000000000007 164.9999966621399
      vertex -9.5367431640625e-7 0.9999999999999929 -0.000003337860107421875
      vertex -9.5367431640625e-7 -7.105427357601002e-15 -0.000003337860107421875
    endloop
  endfacet
  facet normal -1 0 0
    outer loop
      vertex -9.5367431640625e-7 1.000000000000007 164.9999966621399
      vertex -9.5367431640625e-7 -7.105427357601002e-15 -0.000003337860107421875
      vertex -9.5367431640625e-7 7.105427357601002e-15 164.9999966621399
    endloop
  endfacet
  facet normal 0 0 -1
    outer loop
      vertex -9.5367431640625e-7 0.9999999999999929 -0.000003337860107421875
      vertex 66.99999904632568 0.9999999999999929 -0.000003337860107421875
      vertex 66.99999904632568 -7.105427357601002e-15 -0.000003337860107421875
    endloop
  endfacet
  facet normal 0 0 -1
    outer loop
      vertex -9.5367431640625e-7 0.9999999999999929 -0.000003337860107421875
      vertex 66.99999904632568 -7.105427357601002e-15 -0.000003337860107421875
      vertex -9.5367431640625e-7 -7.105427357601002e-15 -0.000003337860107421875
    endloop
  endfacet
  facet normal 1 0 0
    outer loop
      vertex 66.99999904632568 0.9999999999999929 -0.000003337860107421875
      vertex 66.99999904632568 1.000000000000007 164.9999966621399
      vertex 66.99999904632568 7.105427357601002e-15 164.9999966621399
    endloop
  endfacet
  facet normal 1 0 0
    outer loop
      vertex 66.99999904632568 0.9999999999999929 -0.000003337860107421875
      vertex 66.99999904632568 7.105427357601002e-15 164.9999966621399
      vertex 66.99999904632568 -7.105427357601002e-15 -0.000003337860107421875
    endloop
  endfacet
  facet normal 0 0 1
    outer loop
      vertex 66.99999904632568 1.000000000000007 164.9999966621399
      vertex -9.5367431640625e-7 1.000000000000007 164.9999966621399
      vertex -9.5367431640625e-7 7.105427357601002e-15 164.9999966621399
    endloop
  endfacet
  facet normal 0 0 1
    outer loop
      vertex 66.99999904632568 1.000000000000007 164.9999966621399
      vertex -9.5367431640625e-7 7.105427357601002e-15 164.9999966621399
      vertex 66.99999904632568 7.105427357601002e-15 164.9999966621399
    endloop
  endfacet
  facet normal 1 0 0
    outer loop
      vertex 66.99999904632568 69 164.9999966621399
      vertex 66.99999904632568 69 -0.000003337860107421875
      vertex 66.99999904632568 70 -0.000003337860107421875
    endloop
  endfacet
  facet normal 1 0 0
    outer loop
      vertex 66.99999904632568 69 164.9999966621399
      vertex 66.99999904632568 70 -0.000003337860107421875
      vertex 66.99999904632568 70 164.9999966621399
    endloop
  endfacet
  facet normal 0 0 -1
    outer loop
      vertex 66.99999904632568 69 -0.000003337860107421875
      vertex -9.5367431640625e-7 69 -0.000003337860107421875
      vertex -9.5367431640625e-7 70 -0.000003337860107421875
    endloop
  endfacet
  facet normal 0 0 -1
    outer loop
      vertex 66.99999904632568 69 -0.000003337860107421875
      vertex -9.5367431640625e-7 70 -0.000003337860107421875
      vertex 66.99999904632568 70 -0.000003337860107421875
    endloop
  endfacet
  facet normal -1 0 0
    outer loop
      vertex -9.5367431640625e-7 69 -0.000003337860107421875
      vertex -9.5367431640625e-7 69 164.9999966621399
      vertex -9.5367431640625e-7 70 164.9999966621399
    endloop
  endfacet
  facet normal -1 0 0
    outer loop
      vertex -9.5367431640625e-7 69 -0.000003337860107421875
      vertex -9.5367431640625e-7 70 164.9999966621399
      vertex -9.5367431640625e-7 70 -0.000003337860107421875
    endloop
  endfacet
  facet normal 0 0 1
    outer loop
      vertex -9.5367431640625e-7 69 164.9999966621399
      vertex 66.99999904632568 69 164.9999966621399
      vertex 66.99999904632568 70 164.9999966621399
    endloop
  endfacet
  facet normal 0 0 1
    outer loop
      vertex -9.5367431640625e-7 69 164.9999966621399
      vertex 66.99999904632568 70 164.9999966621399
      vertex -9.5367431640625e-7 70 164.9999966621399
    endloop
  endfacet
endsolid Light Shield
