G04 #@! TF.FileFunction,Soldermask,Top*
%FSLAX46Y46*%
G04 Gerber Fmt 4.6, Leading zero omitted, Abs format (unit mm)*
G04 Created by KiCad (PCBNEW 4.0.7) date Thursday, October 11, 2018 'PMt' 07:28:51 PM*
%MOMM*%
%LPD*%
G01*
G04 APERTURE LIST*
%ADD10C,0.100000*%
%ADD11C,0.150000*%
%ADD12C,1.900000*%
%ADD13C,4.200000*%
%ADD14C,1.924000*%
%ADD15C,1.600000*%
%ADD16C,3.100000*%
%ADD17C,1.797000*%
%ADD18C,1.400000*%
%ADD19C,8.020000*%
%ADD20C,2.900000*%
%ADD21C,1.670000*%
G04 APERTURE END LIST*
D10*
D11*
X345440000Y-16510000D02*
X345440000Y-397510000D01*
X25400000Y-16510000D02*
X25400000Y-397510000D01*
X25400000Y-397510000D02*
X345440000Y-397510000D01*
X25400000Y-16510000D02*
X345440000Y-16510000D01*
D12*
X148272500Y-332105000D03*
X148272500Y-329565000D03*
X148272500Y-327025000D03*
X148272500Y-324485000D03*
X148272500Y-321945000D03*
X148272500Y-319405000D03*
X148272500Y-316865000D03*
X148272500Y-314325000D03*
X148272500Y-311785000D03*
X148272500Y-309245000D03*
X145097500Y-332105000D03*
X145097500Y-329565000D03*
X145097500Y-327025000D03*
X145097500Y-324485000D03*
X145097500Y-321945000D03*
X145097500Y-319405000D03*
X145097500Y-316865000D03*
X145097500Y-314325000D03*
X145097500Y-311785000D03*
X145097500Y-309245000D03*
D13*
X279400000Y-28575000D03*
X289560000Y-28575000D03*
D14*
X285110000Y-22225000D03*
X287650000Y-22225000D03*
X283840000Y-19685000D03*
X286380000Y-19685000D03*
X282570000Y-22225000D03*
X281300000Y-19685000D03*
D15*
X94290000Y-386080000D03*
X96790000Y-386080000D03*
X98790000Y-386080000D03*
X101290000Y-386080000D03*
D16*
X104360000Y-388790000D03*
X91220000Y-388790000D03*
D14*
X304673000Y-379095000D03*
X302133000Y-379095000D03*
X304673000Y-376555000D03*
X302133000Y-376555000D03*
X304673000Y-374015000D03*
X302133000Y-374015000D03*
D17*
X154940000Y-19050000D03*
X152400000Y-19050000D03*
D18*
X60325000Y-384155000D03*
X60325000Y-381655000D03*
X137795000Y-384155000D03*
X137795000Y-381655000D03*
X254000000Y-384155000D03*
X254000000Y-381655000D03*
X332125000Y-384175000D03*
X334625000Y-384175000D03*
X32067500Y-337800000D03*
X32067500Y-335300000D03*
X67627500Y-337800000D03*
X67627500Y-335300000D03*
X109537500Y-337800000D03*
X109537500Y-335300000D03*
X145097500Y-337800000D03*
X145097500Y-335300000D03*
X148272500Y-337800000D03*
X148272500Y-335300000D03*
X183832500Y-337800000D03*
X183832500Y-335300000D03*
X187007500Y-337800000D03*
X187007500Y-335300000D03*
X222567500Y-337800000D03*
X222567500Y-335300000D03*
X225742500Y-337800000D03*
X225742500Y-335300000D03*
X261302500Y-337800000D03*
X261302500Y-335300000D03*
X264477500Y-337800000D03*
X264477500Y-335300000D03*
X300037500Y-337800000D03*
X300037500Y-335300000D03*
X302895000Y-337800000D03*
X302895000Y-335300000D03*
X338772500Y-337800000D03*
X338772500Y-335300000D03*
X70739000Y-337800000D03*
X70739000Y-335300000D03*
X106362500Y-337800000D03*
X106362500Y-335300000D03*
X36830000Y-384175000D03*
X31750000Y-384175000D03*
X231140000Y-384175000D03*
X226060000Y-384175000D03*
X308610000Y-384175000D03*
X303530000Y-384175000D03*
X114300000Y-384175000D03*
X109220000Y-384175000D03*
X36830000Y-381635000D03*
X31750000Y-381635000D03*
D14*
X76657200Y-35877500D03*
X74117200Y-35877500D03*
X71577200Y-35877500D03*
X69037200Y-35877500D03*
X66497200Y-35877500D03*
X63957200Y-35877500D03*
X61417200Y-35877500D03*
X76657200Y-33337500D03*
X74117200Y-33337500D03*
X71577200Y-33337500D03*
X69037200Y-33337500D03*
X66497200Y-33337500D03*
X63957200Y-33337500D03*
X58877200Y-33337500D03*
X61417200Y-33337500D03*
X58877200Y-35877500D03*
X155092400Y-35877500D03*
X152552400Y-35877500D03*
X150012400Y-35877500D03*
X147472400Y-35877500D03*
X144932400Y-35877500D03*
X142392400Y-35877500D03*
X139852400Y-35877500D03*
X155092400Y-33337500D03*
X152552400Y-33337500D03*
X150012400Y-33337500D03*
X147472400Y-33337500D03*
X144932400Y-33337500D03*
X142392400Y-33337500D03*
X137312400Y-33337500D03*
X139852400Y-33337500D03*
X137312400Y-35877500D03*
X311962800Y-35877500D03*
X309422800Y-35877500D03*
X306882800Y-35877500D03*
X304342800Y-35877500D03*
X301802800Y-35877500D03*
X299262800Y-35877500D03*
X296722800Y-35877500D03*
X311962800Y-33337500D03*
X309422800Y-33337500D03*
X306882800Y-33337500D03*
X304342800Y-33337500D03*
X301802800Y-33337500D03*
X299262800Y-33337500D03*
X294182800Y-33337500D03*
X296722800Y-33337500D03*
X294182800Y-35877500D03*
X76657200Y-111417100D03*
X74117200Y-111417100D03*
X71577200Y-111417100D03*
X69037200Y-111417100D03*
X66497200Y-111417100D03*
X63957200Y-111417100D03*
X61417200Y-111417100D03*
X76657200Y-108877100D03*
X74117200Y-108877100D03*
X71577200Y-108877100D03*
X69037200Y-108877100D03*
X66497200Y-108877100D03*
X63957200Y-108877100D03*
X58877200Y-108877100D03*
X61417200Y-108877100D03*
X58877200Y-111417100D03*
X155092400Y-111417100D03*
X152552400Y-111417100D03*
X150012400Y-111417100D03*
X147472400Y-111417100D03*
X144932400Y-111417100D03*
X142392400Y-111417100D03*
X139852400Y-111417100D03*
X155092400Y-108877100D03*
X152552400Y-108877100D03*
X150012400Y-108877100D03*
X147472400Y-108877100D03*
X144932400Y-108877100D03*
X142392400Y-108877100D03*
X137312400Y-108877100D03*
X139852400Y-108877100D03*
X137312400Y-111417100D03*
X311962800Y-111417100D03*
X309422800Y-111417100D03*
X306882800Y-111417100D03*
X304342800Y-111417100D03*
X301802800Y-111417100D03*
X299262800Y-111417100D03*
X296722800Y-111417100D03*
X311962800Y-108877100D03*
X309422800Y-108877100D03*
X306882800Y-108877100D03*
X304342800Y-108877100D03*
X301802800Y-108877100D03*
X299262800Y-108877100D03*
X294182800Y-108877100D03*
X296722800Y-108877100D03*
X294182800Y-111417100D03*
X76657200Y-186956700D03*
X74117200Y-186956700D03*
X71577200Y-186956700D03*
X69037200Y-186956700D03*
X66497200Y-186956700D03*
X63957200Y-186956700D03*
X61417200Y-186956700D03*
X76657200Y-184416700D03*
X74117200Y-184416700D03*
X71577200Y-184416700D03*
X69037200Y-184416700D03*
X66497200Y-184416700D03*
X63957200Y-184416700D03*
X58877200Y-184416700D03*
X61417200Y-184416700D03*
X58877200Y-186956700D03*
X155092400Y-186956700D03*
X152552400Y-186956700D03*
X150012400Y-186956700D03*
X147472400Y-186956700D03*
X144932400Y-186956700D03*
X142392400Y-186956700D03*
X139852400Y-186956700D03*
X155092400Y-184416700D03*
X152552400Y-184416700D03*
X150012400Y-184416700D03*
X147472400Y-184416700D03*
X144932400Y-184416700D03*
X142392400Y-184416700D03*
X137312400Y-184416700D03*
X139852400Y-184416700D03*
X137312400Y-186956700D03*
X76657200Y-262496300D03*
X74117200Y-262496300D03*
X71577200Y-262496300D03*
X69037200Y-262496300D03*
X66497200Y-262496300D03*
X63957200Y-262496300D03*
X61417200Y-262496300D03*
X76657200Y-259956300D03*
X74117200Y-259956300D03*
X71577200Y-259956300D03*
X69037200Y-259956300D03*
X66497200Y-259956300D03*
X63957200Y-259956300D03*
X58877200Y-259956300D03*
X61417200Y-259956300D03*
X58877200Y-262496300D03*
X155092400Y-262496300D03*
X152552400Y-262496300D03*
X150012400Y-262496300D03*
X147472400Y-262496300D03*
X144932400Y-262496300D03*
X142392400Y-262496300D03*
X139852400Y-262496300D03*
X155092400Y-259956300D03*
X152552400Y-259956300D03*
X150012400Y-259956300D03*
X147472400Y-259956300D03*
X144932400Y-259956300D03*
X142392400Y-259956300D03*
X137312400Y-259956300D03*
X139852400Y-259956300D03*
X137312400Y-262496300D03*
X233527600Y-262496300D03*
X230987600Y-262496300D03*
X228447600Y-262496300D03*
X225907600Y-262496300D03*
X223367600Y-262496300D03*
X220827600Y-262496300D03*
X218287600Y-262496300D03*
X233527600Y-259956300D03*
X230987600Y-259956300D03*
X228447600Y-259956300D03*
X225907600Y-259956300D03*
X223367600Y-259956300D03*
X220827600Y-259956300D03*
X215747600Y-259956300D03*
X218287600Y-259956300D03*
X215747600Y-262496300D03*
X311962800Y-262496300D03*
X309422800Y-262496300D03*
X306882800Y-262496300D03*
X304342800Y-262496300D03*
X301802800Y-262496300D03*
X299262800Y-262496300D03*
X296722800Y-262496300D03*
X311962800Y-259956300D03*
X309422800Y-259956300D03*
X306882800Y-259956300D03*
X304342800Y-259956300D03*
X301802800Y-259956300D03*
X299262800Y-259956300D03*
X294182800Y-259956300D03*
X296722800Y-259956300D03*
X294182800Y-262496300D03*
X233527600Y-35877500D03*
X230987600Y-35877500D03*
X228447600Y-35877500D03*
X225907600Y-35877500D03*
X223367600Y-35877500D03*
X220827600Y-35877500D03*
X218287600Y-35877500D03*
X233527600Y-33337500D03*
X230987600Y-33337500D03*
X228447600Y-33337500D03*
X225907600Y-33337500D03*
X223367600Y-33337500D03*
X220827600Y-33337500D03*
X215747600Y-33337500D03*
X218287600Y-33337500D03*
X215747600Y-35877500D03*
X233527600Y-111417100D03*
X230987600Y-111417100D03*
X228447600Y-111417100D03*
X225907600Y-111417100D03*
X223367600Y-111417100D03*
X220827600Y-111417100D03*
X218287600Y-111417100D03*
X233527600Y-108877100D03*
X230987600Y-108877100D03*
X228447600Y-108877100D03*
X225907600Y-108877100D03*
X223367600Y-108877100D03*
X220827600Y-108877100D03*
X215747600Y-108877100D03*
X218287600Y-108877100D03*
X215747600Y-111417100D03*
X233527600Y-186956700D03*
X230987600Y-186956700D03*
X228447600Y-186956700D03*
X225907600Y-186956700D03*
X223367600Y-186956700D03*
X220827600Y-186956700D03*
X218287600Y-186956700D03*
X233527600Y-184416700D03*
X230987600Y-184416700D03*
X228447600Y-184416700D03*
X225907600Y-184416700D03*
X223367600Y-184416700D03*
X220827600Y-184416700D03*
X215747600Y-184416700D03*
X218287600Y-184416700D03*
X215747600Y-186956700D03*
X311962800Y-186956700D03*
X309422800Y-186956700D03*
X306882800Y-186956700D03*
X304342800Y-186956700D03*
X301802800Y-186956700D03*
X299262800Y-186956700D03*
X296722800Y-186956700D03*
X311962800Y-184416700D03*
X309422800Y-184416700D03*
X306882800Y-184416700D03*
X304342800Y-184416700D03*
X301802800Y-184416700D03*
X299262800Y-184416700D03*
X294182800Y-184416700D03*
X296722800Y-184416700D03*
X294182800Y-186956700D03*
D19*
X30480000Y-21590000D03*
X138430000Y-21590000D03*
X232410000Y-21590000D03*
X67818000Y-143510000D03*
X185420000Y-143510000D03*
X303022000Y-143510000D03*
X185420000Y-184150000D03*
X294640000Y-219710000D03*
X30480000Y-245110000D03*
X340360000Y-245110000D03*
X185420000Y-261620000D03*
X162560000Y-372110000D03*
X208280000Y-372110000D03*
X30480000Y-392430000D03*
X340360000Y-392430000D03*
X340360000Y-21590000D03*
D20*
X199670000Y-24765000D03*
X190170000Y-24765000D03*
X180670000Y-24765000D03*
X171170000Y-24765000D03*
X317500000Y-351790000D03*
X312420000Y-351790000D03*
X307340000Y-351790000D03*
X278130000Y-351790000D03*
X273050000Y-351790000D03*
X267970000Y-351790000D03*
X239395000Y-351790000D03*
X234315000Y-351790000D03*
X229235000Y-351790000D03*
X200660000Y-351790000D03*
X195580000Y-351790000D03*
X190500000Y-351790000D03*
X161925000Y-351790000D03*
X156845000Y-351790000D03*
X151765000Y-351790000D03*
X123190000Y-351790000D03*
X118110000Y-351790000D03*
X113030000Y-351790000D03*
X85090000Y-351790000D03*
X80010000Y-351790000D03*
X74930000Y-351790000D03*
X45720000Y-351790000D03*
X40640000Y-351790000D03*
X35560000Y-351790000D03*
D15*
X100020000Y-27940000D03*
X97520000Y-27940000D03*
X95520000Y-27940000D03*
X93020000Y-27940000D03*
D16*
X89950000Y-24940000D03*
X103090000Y-24940000D03*
D15*
X71430000Y-386080000D03*
X73930000Y-386080000D03*
X75930000Y-386080000D03*
X78430000Y-386080000D03*
D16*
X81500000Y-388790000D03*
X68360000Y-388790000D03*
D15*
X125420000Y-27940000D03*
X122920000Y-27940000D03*
X120920000Y-27940000D03*
X118420000Y-27940000D03*
D16*
X115350000Y-24940000D03*
X128490000Y-24940000D03*
D21*
X339090000Y-296545000D03*
X343154000Y-296545000D03*
X339090000Y-291465000D03*
X343154000Y-291465000D03*
X31750000Y-296545000D03*
X31750000Y-291465000D03*
X27432000Y-296545000D03*
X27432000Y-291465000D03*
X31750000Y-35560000D03*
X34925000Y-35560000D03*
X31750000Y-38735000D03*
X34925000Y-38735000D03*
X31750000Y-41910000D03*
X34925000Y-41910000D03*
X31750000Y-45085000D03*
X34925000Y-45085000D03*
X333375000Y-35560000D03*
X336550000Y-35560000D03*
X333375000Y-38735000D03*
X336550000Y-38735000D03*
X333375000Y-41910000D03*
X336550000Y-41910000D03*
X333375000Y-45085000D03*
X336550000Y-45085000D03*
D17*
X119697500Y-361315000D03*
X119697500Y-363855000D03*
X119697500Y-366395000D03*
X119697500Y-368935000D03*
X119697500Y-371475000D03*
X119697500Y-374015000D03*
X119697500Y-376555000D03*
X119697500Y-381635000D03*
X119697500Y-384175000D03*
X119697500Y-386715000D03*
X119697500Y-389255000D03*
X119697500Y-379095000D03*
X134937500Y-379095000D03*
X134937500Y-389255000D03*
X134937500Y-386715000D03*
X134937500Y-384175000D03*
X134937500Y-381635000D03*
X134937500Y-376555000D03*
X134937500Y-374015000D03*
X134937500Y-371475000D03*
X134937500Y-368935000D03*
X134937500Y-366395000D03*
X134937500Y-363855000D03*
X134937500Y-361315000D03*
X313372500Y-361315000D03*
X313372500Y-363855000D03*
X313372500Y-366395000D03*
X313372500Y-368935000D03*
X313372500Y-371475000D03*
X313372500Y-374015000D03*
X313372500Y-376555000D03*
X313372500Y-381635000D03*
X313372500Y-384175000D03*
X313372500Y-386715000D03*
X313372500Y-389255000D03*
X313372500Y-379095000D03*
X328612500Y-379095000D03*
X328612500Y-389255000D03*
X328612500Y-386715000D03*
X328612500Y-384175000D03*
X328612500Y-381635000D03*
X328612500Y-376555000D03*
X328612500Y-374015000D03*
X328612500Y-371475000D03*
X328612500Y-368935000D03*
X328612500Y-366395000D03*
X328612500Y-363855000D03*
X328612500Y-361315000D03*
X235902500Y-361315000D03*
X235902500Y-363855000D03*
X235902500Y-366395000D03*
X235902500Y-368935000D03*
X235902500Y-371475000D03*
X235902500Y-374015000D03*
X235902500Y-376555000D03*
X235902500Y-381635000D03*
X235902500Y-384175000D03*
X235902500Y-386715000D03*
X235902500Y-389255000D03*
X235902500Y-379095000D03*
X251142500Y-379095000D03*
X251142500Y-389255000D03*
X251142500Y-386715000D03*
X251142500Y-384175000D03*
X251142500Y-381635000D03*
X251142500Y-376555000D03*
X251142500Y-374015000D03*
X251142500Y-371475000D03*
X251142500Y-368935000D03*
X251142500Y-366395000D03*
X251142500Y-363855000D03*
X251142500Y-361315000D03*
X42227500Y-361315000D03*
X42227500Y-363855000D03*
X42227500Y-366395000D03*
X42227500Y-368935000D03*
X42227500Y-371475000D03*
X42227500Y-374015000D03*
X42227500Y-376555000D03*
X42227500Y-381635000D03*
X42227500Y-384175000D03*
X42227500Y-386715000D03*
X42227500Y-389255000D03*
X42227500Y-379095000D03*
X57467500Y-379095000D03*
X57467500Y-389255000D03*
X57467500Y-386715000D03*
X57467500Y-384175000D03*
X57467500Y-381635000D03*
X57467500Y-376555000D03*
X57467500Y-374015000D03*
X57467500Y-371475000D03*
X57467500Y-368935000D03*
X57467500Y-366395000D03*
X57467500Y-363855000D03*
X57467500Y-361315000D03*
D14*
X265816000Y-26670000D03*
D13*
X274066000Y-20320000D03*
X263906000Y-20320000D03*
D14*
X268356000Y-26670000D03*
X270896000Y-26670000D03*
X267086000Y-29210000D03*
X269626000Y-29210000D03*
X272166000Y-29210000D03*
D12*
X32067500Y-332105000D03*
X32067500Y-329565000D03*
X32067500Y-327025000D03*
X32067500Y-324485000D03*
X32067500Y-321945000D03*
X32067500Y-319405000D03*
X32067500Y-316865000D03*
X32067500Y-314325000D03*
X32067500Y-311785000D03*
X32067500Y-309245000D03*
X67627500Y-332105000D03*
X67627500Y-329565000D03*
X67627500Y-327025000D03*
X67627500Y-324485000D03*
X67627500Y-321945000D03*
X67627500Y-319405000D03*
X67627500Y-316865000D03*
X67627500Y-314325000D03*
X67627500Y-311785000D03*
X67627500Y-309245000D03*
X70739000Y-332105000D03*
X70739000Y-329565000D03*
X70739000Y-327025000D03*
X70739000Y-324485000D03*
X70739000Y-321945000D03*
X70739000Y-319405000D03*
X70739000Y-316865000D03*
X70739000Y-314325000D03*
X70739000Y-311785000D03*
X70739000Y-309245000D03*
X106362500Y-332105000D03*
X106362500Y-329565000D03*
X106362500Y-327025000D03*
X106362500Y-324485000D03*
X106362500Y-321945000D03*
X106362500Y-319405000D03*
X106362500Y-316865000D03*
X106362500Y-314325000D03*
X106362500Y-311785000D03*
X106362500Y-309245000D03*
X109537500Y-332105000D03*
X109537500Y-329565000D03*
X109537500Y-327025000D03*
X109537500Y-324485000D03*
X109537500Y-321945000D03*
X109537500Y-319405000D03*
X109537500Y-316865000D03*
X109537500Y-314325000D03*
X109537500Y-311785000D03*
X109537500Y-309245000D03*
X183832500Y-332105000D03*
X183832500Y-329565000D03*
X183832500Y-327025000D03*
X183832500Y-324485000D03*
X183832500Y-321945000D03*
X183832500Y-319405000D03*
X183832500Y-316865000D03*
X183832500Y-314325000D03*
X183832500Y-311785000D03*
X183832500Y-309245000D03*
X187007500Y-332105000D03*
X187007500Y-329565000D03*
X187007500Y-327025000D03*
X187007500Y-324485000D03*
X187007500Y-321945000D03*
X187007500Y-319405000D03*
X187007500Y-316865000D03*
X187007500Y-314325000D03*
X187007500Y-311785000D03*
X187007500Y-309245000D03*
X222567500Y-332105000D03*
X222567500Y-329565000D03*
X222567500Y-327025000D03*
X222567500Y-324485000D03*
X222567500Y-321945000D03*
X222567500Y-319405000D03*
X222567500Y-316865000D03*
X222567500Y-314325000D03*
X222567500Y-311785000D03*
X222567500Y-309245000D03*
X225742500Y-332105000D03*
X225742500Y-329565000D03*
X225742500Y-327025000D03*
X225742500Y-324485000D03*
X225742500Y-321945000D03*
X225742500Y-319405000D03*
X225742500Y-316865000D03*
X225742500Y-314325000D03*
X225742500Y-311785000D03*
X225742500Y-309245000D03*
X261302500Y-332105000D03*
X261302500Y-329565000D03*
X261302500Y-327025000D03*
X261302500Y-324485000D03*
X261302500Y-321945000D03*
X261302500Y-319405000D03*
X261302500Y-316865000D03*
X261302500Y-314325000D03*
X261302500Y-311785000D03*
X261302500Y-309245000D03*
X264477500Y-332105000D03*
X264477500Y-329565000D03*
X264477500Y-327025000D03*
X264477500Y-324485000D03*
X264477500Y-321945000D03*
X264477500Y-319405000D03*
X264477500Y-316865000D03*
X264477500Y-314325000D03*
X264477500Y-311785000D03*
X264477500Y-309245000D03*
X300037500Y-332105000D03*
X300037500Y-329565000D03*
X300037500Y-327025000D03*
X300037500Y-324485000D03*
X300037500Y-321945000D03*
X300037500Y-319405000D03*
X300037500Y-316865000D03*
X300037500Y-314325000D03*
X300037500Y-311785000D03*
X300037500Y-309245000D03*
X302895000Y-332105000D03*
X302895000Y-329565000D03*
X302895000Y-327025000D03*
X302895000Y-324485000D03*
X302895000Y-321945000D03*
X302895000Y-319405000D03*
X302895000Y-316865000D03*
X302895000Y-314325000D03*
X302895000Y-311785000D03*
X302895000Y-309245000D03*
X338772500Y-332105000D03*
X338772500Y-329565000D03*
X338772500Y-327025000D03*
X338772500Y-324485000D03*
X338772500Y-321945000D03*
X338772500Y-319405000D03*
X338772500Y-316865000D03*
X338772500Y-314325000D03*
X338772500Y-311785000D03*
X338772500Y-309245000D03*
X38417500Y-344805000D03*
X40957500Y-344805000D03*
X43497500Y-344805000D03*
X46037500Y-344805000D03*
X48577500Y-344805000D03*
X51117500Y-344805000D03*
X53657500Y-344805000D03*
X56197500Y-344805000D03*
X58737500Y-344805000D03*
X61277500Y-344805000D03*
X77152500Y-344805000D03*
X79692500Y-344805000D03*
X82232500Y-344805000D03*
X84772500Y-344805000D03*
X87312500Y-344805000D03*
X89852500Y-344805000D03*
X92392500Y-344805000D03*
X94932500Y-344805000D03*
X97472500Y-344805000D03*
X100012500Y-344805000D03*
X115887500Y-344805000D03*
X118427500Y-344805000D03*
X120967500Y-344805000D03*
X123507500Y-344805000D03*
X126047500Y-344805000D03*
X128587500Y-344805000D03*
X131127500Y-344805000D03*
X133667500Y-344805000D03*
X136207500Y-344805000D03*
X138747500Y-344805000D03*
X154622500Y-344805000D03*
X157162500Y-344805000D03*
X159702500Y-344805000D03*
X162242500Y-344805000D03*
X164782500Y-344805000D03*
X167322500Y-344805000D03*
X169862500Y-344805000D03*
X172402500Y-344805000D03*
X174942500Y-344805000D03*
X177482500Y-344805000D03*
X193357500Y-344805000D03*
X195897500Y-344805000D03*
X198437500Y-344805000D03*
X200977500Y-344805000D03*
X203517500Y-344805000D03*
X206057500Y-344805000D03*
X208597500Y-344805000D03*
X211137500Y-344805000D03*
X213677500Y-344805000D03*
X216217500Y-344805000D03*
X232092500Y-344805000D03*
X234632500Y-344805000D03*
X237172500Y-344805000D03*
X239712500Y-344805000D03*
X242252500Y-344805000D03*
X244792500Y-344805000D03*
X247332500Y-344805000D03*
X249872500Y-344805000D03*
X252412500Y-344805000D03*
X254952500Y-344805000D03*
X270827500Y-344805000D03*
X273367500Y-344805000D03*
X275907500Y-344805000D03*
X278447500Y-344805000D03*
X280987500Y-344805000D03*
X283527500Y-344805000D03*
X286067500Y-344805000D03*
X288607500Y-344805000D03*
X291147500Y-344805000D03*
X293687500Y-344805000D03*
X309562500Y-344805000D03*
X312102500Y-344805000D03*
X314642500Y-344805000D03*
X317182500Y-344805000D03*
X319722500Y-344805000D03*
X322262500Y-344805000D03*
X324802500Y-344805000D03*
X327342500Y-344805000D03*
X329882500Y-344805000D03*
X332422500Y-344805000D03*
X38417500Y-342265000D03*
X40957500Y-342265000D03*
X43497500Y-342265000D03*
X46037500Y-342265000D03*
X48577500Y-342265000D03*
X51117500Y-342265000D03*
X53657500Y-342265000D03*
X56197500Y-342265000D03*
X58737500Y-342265000D03*
X61277500Y-342265000D03*
X77152500Y-342265000D03*
X79692500Y-342265000D03*
X82232500Y-342265000D03*
X84772500Y-342265000D03*
X87312500Y-342265000D03*
X89852500Y-342265000D03*
X92392500Y-342265000D03*
X94932500Y-342265000D03*
X97472500Y-342265000D03*
X100012500Y-342265000D03*
X115887500Y-342265000D03*
X118427500Y-342265000D03*
X120967500Y-342265000D03*
X123507500Y-342265000D03*
X126047500Y-342265000D03*
X128587500Y-342265000D03*
X131127500Y-342265000D03*
X133667500Y-342265000D03*
X136207500Y-342265000D03*
X138747500Y-342265000D03*
X154622500Y-342265000D03*
X157162500Y-342265000D03*
X159702500Y-342265000D03*
X162242500Y-342265000D03*
X164782500Y-342265000D03*
X167322500Y-342265000D03*
X169862500Y-342265000D03*
X172402500Y-342265000D03*
X174942500Y-342265000D03*
X177482500Y-342265000D03*
X193357500Y-342265000D03*
X195897500Y-342265000D03*
X198437500Y-342265000D03*
X200977500Y-342265000D03*
X203517500Y-342265000D03*
X206057500Y-342265000D03*
X208597500Y-342265000D03*
X211137500Y-342265000D03*
X213677500Y-342265000D03*
X216217500Y-342265000D03*
X232092500Y-342265000D03*
X234632500Y-342265000D03*
X237172500Y-342265000D03*
X239712500Y-342265000D03*
X242252500Y-342265000D03*
X244792500Y-342265000D03*
X247332500Y-342265000D03*
X249872500Y-342265000D03*
X252412500Y-342265000D03*
X254952500Y-342265000D03*
X270827500Y-342265000D03*
X273367500Y-342265000D03*
X275907500Y-342265000D03*
X278447500Y-342265000D03*
X280987500Y-342265000D03*
X283527500Y-342265000D03*
X286067500Y-342265000D03*
X288607500Y-342265000D03*
X291147500Y-342265000D03*
X293687500Y-342265000D03*
X309562500Y-342265000D03*
X312102500Y-342265000D03*
X314642500Y-342265000D03*
X317182500Y-342265000D03*
X319722500Y-342265000D03*
X322262500Y-342265000D03*
X324802500Y-342265000D03*
X327342500Y-342265000D03*
X329882500Y-342265000D03*
X332422500Y-342265000D03*
D17*
X35877500Y-283845000D03*
X35877500Y-286385000D03*
X35877500Y-283845000D03*
X35877500Y-286385000D03*
X35877500Y-288925000D03*
X35877500Y-291465000D03*
X35877500Y-294005000D03*
X35877500Y-296545000D03*
X35877500Y-299085000D03*
X35877500Y-301625000D03*
X35877500Y-304165000D03*
X35877500Y-306705000D03*
X35877500Y-309245000D03*
X35877500Y-311785000D03*
X35877500Y-314325000D03*
X35877500Y-316865000D03*
X35877500Y-319405000D03*
X35877500Y-321945000D03*
X35877500Y-324485000D03*
X35877500Y-327025000D03*
X35877500Y-329565000D03*
X35877500Y-332105000D03*
X35877500Y-334645000D03*
X35877500Y-337185000D03*
X35877500Y-339725000D03*
X35877500Y-342265000D03*
X35877500Y-344805000D03*
X63817500Y-286385000D03*
X63817500Y-283845000D03*
X63817500Y-283845000D03*
X63817500Y-286385000D03*
X63817500Y-288925000D03*
X63817500Y-291465000D03*
X63817500Y-294005000D03*
X63817500Y-296545000D03*
X63817500Y-299085000D03*
X63817500Y-301625000D03*
X63817500Y-304165000D03*
X63817500Y-306705000D03*
X63817500Y-309245000D03*
X63817500Y-311785000D03*
X63817500Y-314325000D03*
X63817500Y-316865000D03*
X63817500Y-319405000D03*
X63817500Y-321945000D03*
X63817500Y-324485000D03*
X63817500Y-327025000D03*
X63817500Y-329565000D03*
X63817500Y-332105000D03*
X63817500Y-334645000D03*
X63817500Y-337185000D03*
X63817500Y-339725000D03*
X63817500Y-342265000D03*
X63817500Y-344805000D03*
X74612500Y-283845000D03*
X74612500Y-286385000D03*
X74612500Y-283845000D03*
X74612500Y-286385000D03*
X74612500Y-288925000D03*
X74612500Y-291465000D03*
X74612500Y-294005000D03*
X74612500Y-296545000D03*
X74612500Y-299085000D03*
X74612500Y-301625000D03*
X74612500Y-304165000D03*
X74612500Y-306705000D03*
X74612500Y-309245000D03*
X74612500Y-311785000D03*
X74612500Y-314325000D03*
X74612500Y-316865000D03*
X74612500Y-319405000D03*
X74612500Y-321945000D03*
X74612500Y-324485000D03*
X74612500Y-327025000D03*
X74612500Y-329565000D03*
X74612500Y-332105000D03*
X74612500Y-334645000D03*
X74612500Y-337185000D03*
X74612500Y-339725000D03*
X74612500Y-342265000D03*
X74612500Y-344805000D03*
X102616000Y-286512000D03*
X102616000Y-283972000D03*
X102616000Y-283972000D03*
X102616000Y-286512000D03*
X102616000Y-289052000D03*
X102616000Y-291592000D03*
X102616000Y-294132000D03*
X102616000Y-296672000D03*
X102616000Y-299212000D03*
X102616000Y-301752000D03*
X102616000Y-304292000D03*
X102616000Y-306832000D03*
X102616000Y-309372000D03*
X102616000Y-311912000D03*
X102616000Y-314452000D03*
X102616000Y-316992000D03*
X102616000Y-319532000D03*
X102616000Y-322072000D03*
X102616000Y-324612000D03*
X102616000Y-327152000D03*
X102616000Y-329692000D03*
X102616000Y-332232000D03*
X102616000Y-334772000D03*
X102616000Y-337312000D03*
X102616000Y-339852000D03*
X102616000Y-342392000D03*
X102616000Y-344932000D03*
X113347500Y-283845000D03*
X113347500Y-286385000D03*
X113347500Y-283845000D03*
X113347500Y-286385000D03*
X113347500Y-288925000D03*
X113347500Y-291465000D03*
X113347500Y-294005000D03*
X113347500Y-296545000D03*
X113347500Y-299085000D03*
X113347500Y-301625000D03*
X113347500Y-304165000D03*
X113347500Y-306705000D03*
X113347500Y-309245000D03*
X113347500Y-311785000D03*
X113347500Y-314325000D03*
X113347500Y-316865000D03*
X113347500Y-319405000D03*
X113347500Y-321945000D03*
X113347500Y-324485000D03*
X113347500Y-327025000D03*
X113347500Y-329565000D03*
X113347500Y-332105000D03*
X113347500Y-334645000D03*
X113347500Y-337185000D03*
X113347500Y-339725000D03*
X113347500Y-342265000D03*
X113347500Y-344805000D03*
X141287500Y-286385000D03*
X141287500Y-283845000D03*
X141287500Y-283845000D03*
X141287500Y-286385000D03*
X141287500Y-288925000D03*
X141287500Y-291465000D03*
X141287500Y-294005000D03*
X141287500Y-296545000D03*
X141287500Y-299085000D03*
X141287500Y-301625000D03*
X141287500Y-304165000D03*
X141287500Y-306705000D03*
X141287500Y-309245000D03*
X141287500Y-311785000D03*
X141287500Y-314325000D03*
X141287500Y-316865000D03*
X141287500Y-319405000D03*
X141287500Y-321945000D03*
X141287500Y-324485000D03*
X141287500Y-327025000D03*
X141287500Y-329565000D03*
X141287500Y-332105000D03*
X141287500Y-334645000D03*
X141287500Y-337185000D03*
X141287500Y-339725000D03*
X141287500Y-342265000D03*
X141287500Y-344805000D03*
X152082500Y-283845000D03*
X152082500Y-286385000D03*
X152082500Y-283845000D03*
X152082500Y-286385000D03*
X152082500Y-288925000D03*
X152082500Y-291465000D03*
X152082500Y-294005000D03*
X152082500Y-296545000D03*
X152082500Y-299085000D03*
X152082500Y-301625000D03*
X152082500Y-304165000D03*
X152082500Y-306705000D03*
X152082500Y-309245000D03*
X152082500Y-311785000D03*
X152082500Y-314325000D03*
X152082500Y-316865000D03*
X152082500Y-319405000D03*
X152082500Y-321945000D03*
X152082500Y-324485000D03*
X152082500Y-327025000D03*
X152082500Y-329565000D03*
X152082500Y-332105000D03*
X152082500Y-334645000D03*
X152082500Y-337185000D03*
X152082500Y-339725000D03*
X152082500Y-342265000D03*
X152082500Y-344805000D03*
X180022500Y-286385000D03*
X180022500Y-283845000D03*
X180022500Y-283845000D03*
X180022500Y-286385000D03*
X180022500Y-288925000D03*
X180022500Y-291465000D03*
X180022500Y-294005000D03*
X180022500Y-296545000D03*
X180022500Y-299085000D03*
X180022500Y-301625000D03*
X180022500Y-304165000D03*
X180022500Y-306705000D03*
X180022500Y-309245000D03*
X180022500Y-311785000D03*
X180022500Y-314325000D03*
X180022500Y-316865000D03*
X180022500Y-319405000D03*
X180022500Y-321945000D03*
X180022500Y-324485000D03*
X180022500Y-327025000D03*
X180022500Y-329565000D03*
X180022500Y-332105000D03*
X180022500Y-334645000D03*
X180022500Y-337185000D03*
X180022500Y-339725000D03*
X180022500Y-342265000D03*
X180022500Y-344805000D03*
X190817500Y-283845000D03*
X190817500Y-286385000D03*
X190817500Y-283845000D03*
X190817500Y-286385000D03*
X190817500Y-288925000D03*
X190817500Y-291465000D03*
X190817500Y-294005000D03*
X190817500Y-296545000D03*
X190817500Y-299085000D03*
X190817500Y-301625000D03*
X190817500Y-304165000D03*
X190817500Y-306705000D03*
X190817500Y-309245000D03*
X190817500Y-311785000D03*
X190817500Y-314325000D03*
X190817500Y-316865000D03*
X190817500Y-319405000D03*
X190817500Y-321945000D03*
X190817500Y-324485000D03*
X190817500Y-327025000D03*
X190817500Y-329565000D03*
X190817500Y-332105000D03*
X190817500Y-334645000D03*
X190817500Y-337185000D03*
X190817500Y-339725000D03*
X190817500Y-342265000D03*
X190817500Y-344805000D03*
X218757500Y-286385000D03*
X218757500Y-283845000D03*
X218757500Y-283845000D03*
X218757500Y-286385000D03*
X218757500Y-288925000D03*
X218757500Y-291465000D03*
X218757500Y-294005000D03*
X218757500Y-296545000D03*
X218757500Y-299085000D03*
X218757500Y-301625000D03*
X218757500Y-304165000D03*
X218757500Y-306705000D03*
X218757500Y-309245000D03*
X218757500Y-311785000D03*
X218757500Y-314325000D03*
X218757500Y-316865000D03*
X218757500Y-319405000D03*
X218757500Y-321945000D03*
X218757500Y-324485000D03*
X218757500Y-327025000D03*
X218757500Y-329565000D03*
X218757500Y-332105000D03*
X218757500Y-334645000D03*
X218757500Y-337185000D03*
X218757500Y-339725000D03*
X218757500Y-342265000D03*
X218757500Y-344805000D03*
X229552500Y-283845000D03*
X229552500Y-286385000D03*
X229552500Y-283845000D03*
X229552500Y-286385000D03*
X229552500Y-288925000D03*
X229552500Y-291465000D03*
X229552500Y-294005000D03*
X229552500Y-296545000D03*
X229552500Y-299085000D03*
X229552500Y-301625000D03*
X229552500Y-304165000D03*
X229552500Y-306705000D03*
X229552500Y-309245000D03*
X229552500Y-311785000D03*
X229552500Y-314325000D03*
X229552500Y-316865000D03*
X229552500Y-319405000D03*
X229552500Y-321945000D03*
X229552500Y-324485000D03*
X229552500Y-327025000D03*
X229552500Y-329565000D03*
X229552500Y-332105000D03*
X229552500Y-334645000D03*
X229552500Y-337185000D03*
X229552500Y-339725000D03*
X229552500Y-342265000D03*
X229552500Y-344805000D03*
X257492500Y-286385000D03*
X257492500Y-283845000D03*
X257492500Y-283845000D03*
X257492500Y-286385000D03*
X257492500Y-288925000D03*
X257492500Y-291465000D03*
X257492500Y-294005000D03*
X257492500Y-296545000D03*
X257492500Y-299085000D03*
X257492500Y-301625000D03*
X257492500Y-304165000D03*
X257492500Y-306705000D03*
X257492500Y-309245000D03*
X257492500Y-311785000D03*
X257492500Y-314325000D03*
X257492500Y-316865000D03*
X257492500Y-319405000D03*
X257492500Y-321945000D03*
X257492500Y-324485000D03*
X257492500Y-327025000D03*
X257492500Y-329565000D03*
X257492500Y-332105000D03*
X257492500Y-334645000D03*
X257492500Y-337185000D03*
X257492500Y-339725000D03*
X257492500Y-342265000D03*
X257492500Y-344805000D03*
X268287500Y-283845000D03*
X268287500Y-286385000D03*
X268287500Y-283845000D03*
X268287500Y-286385000D03*
X268287500Y-288925000D03*
X268287500Y-291465000D03*
X268287500Y-294005000D03*
X268287500Y-296545000D03*
X268287500Y-299085000D03*
X268287500Y-301625000D03*
X268287500Y-304165000D03*
X268287500Y-306705000D03*
X268287500Y-309245000D03*
X268287500Y-311785000D03*
X268287500Y-314325000D03*
X268287500Y-316865000D03*
X268287500Y-319405000D03*
X268287500Y-321945000D03*
X268287500Y-324485000D03*
X268287500Y-327025000D03*
X268287500Y-329565000D03*
X268287500Y-332105000D03*
X268287500Y-334645000D03*
X268287500Y-337185000D03*
X268287500Y-339725000D03*
X268287500Y-342265000D03*
X268287500Y-344805000D03*
X296164000Y-286385000D03*
X296164000Y-283845000D03*
X296164000Y-283845000D03*
X296164000Y-286385000D03*
X296164000Y-288925000D03*
X296164000Y-291465000D03*
X296164000Y-294005000D03*
X296164000Y-296545000D03*
X296164000Y-299085000D03*
X296164000Y-301625000D03*
X296164000Y-304165000D03*
X296164000Y-306705000D03*
X296164000Y-309245000D03*
X296164000Y-311785000D03*
X296164000Y-314325000D03*
X296164000Y-316865000D03*
X296164000Y-319405000D03*
X296164000Y-321945000D03*
X296164000Y-324485000D03*
X296164000Y-327025000D03*
X296164000Y-329565000D03*
X296164000Y-332105000D03*
X296164000Y-334645000D03*
X296164000Y-337185000D03*
X296164000Y-339725000D03*
X296164000Y-342265000D03*
X296164000Y-344805000D03*
X307022500Y-283845000D03*
X307022500Y-286385000D03*
X307022500Y-283845000D03*
X307022500Y-286385000D03*
X307022500Y-288925000D03*
X307022500Y-291465000D03*
X307022500Y-294005000D03*
X307022500Y-296545000D03*
X307022500Y-299085000D03*
X307022500Y-301625000D03*
X307022500Y-304165000D03*
X307022500Y-306705000D03*
X307022500Y-309245000D03*
X307022500Y-311785000D03*
X307022500Y-314325000D03*
X307022500Y-316865000D03*
X307022500Y-319405000D03*
X307022500Y-321945000D03*
X307022500Y-324485000D03*
X307022500Y-327025000D03*
X307022500Y-329565000D03*
X307022500Y-332105000D03*
X307022500Y-334645000D03*
X307022500Y-337185000D03*
X307022500Y-339725000D03*
X307022500Y-342265000D03*
X307022500Y-344805000D03*
X334962500Y-286385000D03*
X334962500Y-283845000D03*
X334962500Y-283845000D03*
X334962500Y-286385000D03*
X334962500Y-288925000D03*
X334962500Y-291465000D03*
X334962500Y-294005000D03*
X334962500Y-296545000D03*
X334962500Y-299085000D03*
X334962500Y-301625000D03*
X334962500Y-304165000D03*
X334962500Y-306705000D03*
X334962500Y-309245000D03*
X334962500Y-311785000D03*
X334962500Y-314325000D03*
X334962500Y-316865000D03*
X334962500Y-319405000D03*
X334962500Y-321945000D03*
X334962500Y-324485000D03*
X334962500Y-327025000D03*
X334962500Y-329565000D03*
X334962500Y-332105000D03*
X334962500Y-334645000D03*
X334962500Y-337185000D03*
X334962500Y-339725000D03*
X334962500Y-342265000D03*
X334962500Y-344805000D03*
D14*
X176664913Y-368867105D03*
X176664913Y-371407105D03*
X176664913Y-373947105D03*
X176664913Y-376487105D03*
X176664913Y-379027105D03*
X176664913Y-381567105D03*
X176664913Y-384107105D03*
X176664913Y-386647105D03*
X176664913Y-389187105D03*
X194310000Y-368935000D03*
X194310000Y-371475000D03*
X194310000Y-374015000D03*
X194310000Y-376555000D03*
X194310000Y-379095000D03*
X194310000Y-381635000D03*
X194310000Y-384175000D03*
X194310000Y-386715000D03*
X194310000Y-389255000D03*
M02*
