G04 #@! TF.FileFunction,Legend,Bot*
%FSLAX46Y46*%
G04 Gerber Fmt 4.6, Leading zero omitted, Abs format (unit mm)*
G04 Created by KiCad (PCBNEW 4.0.7) date Thursday, October 11, 2018 'PMt' 07:28:51 PM*
%MOMM*%
%LPD*%
G01*
G04 APERTURE LIST*
%ADD10C,0.100000*%
%ADD11C,0.150000*%
%ADD12C,0.304800*%
G04 APERTURE END LIST*
D10*
D11*
X345440000Y-16510000D02*
X345440000Y-397510000D01*
X25400000Y-16510000D02*
X25400000Y-397510000D01*
X25400000Y-397510000D02*
X345440000Y-397510000D01*
X25400000Y-16510000D02*
X345440000Y-16510000D01*
X56337200Y-39052500D02*
X56337200Y-30162500D01*
X79197200Y-39052500D02*
X56337200Y-39052500D01*
X79197200Y-30162500D02*
X79197200Y-39052500D01*
X56337200Y-30162500D02*
X79197200Y-30162500D01*
X134772400Y-39052500D02*
X134772400Y-30162500D01*
X157632400Y-39052500D02*
X134772400Y-39052500D01*
X157632400Y-30162500D02*
X157632400Y-39052500D01*
X134772400Y-30162500D02*
X157632400Y-30162500D01*
X291642800Y-39052500D02*
X291642800Y-30162500D01*
X314502800Y-39052500D02*
X291642800Y-39052500D01*
X314502800Y-30162500D02*
X314502800Y-39052500D01*
X291642800Y-30162500D02*
X314502800Y-30162500D01*
X56337200Y-114592100D02*
X56337200Y-105702100D01*
X79197200Y-114592100D02*
X56337200Y-114592100D01*
X79197200Y-105702100D02*
X79197200Y-114592100D01*
X56337200Y-105702100D02*
X79197200Y-105702100D01*
X134772400Y-114592100D02*
X134772400Y-105702100D01*
X157632400Y-114592100D02*
X134772400Y-114592100D01*
X157632400Y-105702100D02*
X157632400Y-114592100D01*
X134772400Y-105702100D02*
X157632400Y-105702100D01*
X291642800Y-114592100D02*
X291642800Y-105702100D01*
X314502800Y-114592100D02*
X291642800Y-114592100D01*
X314502800Y-105702100D02*
X314502800Y-114592100D01*
X291642800Y-105702100D02*
X314502800Y-105702100D01*
X56337200Y-190131700D02*
X56337200Y-181241700D01*
X79197200Y-190131700D02*
X56337200Y-190131700D01*
X79197200Y-181241700D02*
X79197200Y-190131700D01*
X56337200Y-181241700D02*
X79197200Y-181241700D01*
X134772400Y-190131700D02*
X134772400Y-181241700D01*
X157632400Y-190131700D02*
X134772400Y-190131700D01*
X157632400Y-181241700D02*
X157632400Y-190131700D01*
X134772400Y-181241700D02*
X157632400Y-181241700D01*
X56337200Y-265671300D02*
X56337200Y-256781300D01*
X79197200Y-265671300D02*
X56337200Y-265671300D01*
X79197200Y-256781300D02*
X79197200Y-265671300D01*
X56337200Y-256781300D02*
X79197200Y-256781300D01*
X134772400Y-265671300D02*
X134772400Y-256781300D01*
X157632400Y-265671300D02*
X134772400Y-265671300D01*
X157632400Y-256781300D02*
X157632400Y-265671300D01*
X134772400Y-256781300D02*
X157632400Y-256781300D01*
X213207600Y-265671300D02*
X213207600Y-256781300D01*
X236067600Y-265671300D02*
X213207600Y-265671300D01*
X236067600Y-256781300D02*
X236067600Y-265671300D01*
X213207600Y-256781300D02*
X236067600Y-256781300D01*
X291642800Y-265671300D02*
X291642800Y-256781300D01*
X314502800Y-265671300D02*
X291642800Y-265671300D01*
X314502800Y-256781300D02*
X314502800Y-265671300D01*
X291642800Y-256781300D02*
X314502800Y-256781300D01*
X213207600Y-39052500D02*
X213207600Y-30162500D01*
X236067600Y-39052500D02*
X213207600Y-39052500D01*
X236067600Y-30162500D02*
X236067600Y-39052500D01*
X213207600Y-30162500D02*
X236067600Y-30162500D01*
X213207600Y-114592100D02*
X213207600Y-105702100D01*
X236067600Y-114592100D02*
X213207600Y-114592100D01*
X236067600Y-105702100D02*
X236067600Y-114592100D01*
X213207600Y-105702100D02*
X236067600Y-105702100D01*
X213207600Y-190131700D02*
X213207600Y-181241700D01*
X236067600Y-190131700D02*
X213207600Y-190131700D01*
X236067600Y-181241700D02*
X236067600Y-190131700D01*
X213207600Y-181241700D02*
X236067600Y-181241700D01*
X291642800Y-190131700D02*
X291642800Y-181241700D01*
X314502800Y-190131700D02*
X291642800Y-190131700D01*
X314502800Y-181241700D02*
X314502800Y-190131700D01*
X291642800Y-181241700D02*
X314502800Y-181241700D01*
D12*
X69926200Y-29379333D02*
X69926200Y-27601333D01*
X69248866Y-27601333D01*
X69079533Y-27686000D01*
X68994866Y-27770667D01*
X68910200Y-27940000D01*
X68910200Y-28194000D01*
X68994866Y-28363333D01*
X69079533Y-28448000D01*
X69248866Y-28532667D01*
X69926200Y-28532667D01*
X67216866Y-29379333D02*
X68232866Y-29379333D01*
X67724866Y-29379333D02*
X67724866Y-27601333D01*
X67894200Y-27855333D01*
X68063533Y-28024667D01*
X68232866Y-28109333D01*
X65692867Y-27601333D02*
X66031533Y-27601333D01*
X66200867Y-27686000D01*
X66285533Y-27770667D01*
X66454867Y-28024667D01*
X66539533Y-28363333D01*
X66539533Y-29040667D01*
X66454867Y-29210000D01*
X66370200Y-29294667D01*
X66200867Y-29379333D01*
X65862200Y-29379333D01*
X65692867Y-29294667D01*
X65608200Y-29210000D01*
X65523533Y-29040667D01*
X65523533Y-28617333D01*
X65608200Y-28448000D01*
X65692867Y-28363333D01*
X65862200Y-28278667D01*
X66200867Y-28278667D01*
X66370200Y-28363333D01*
X66454867Y-28448000D01*
X66539533Y-28617333D01*
D11*
X79751485Y-36309881D02*
X80322914Y-36309881D01*
X80037200Y-36309881D02*
X80037200Y-35309881D01*
X80132438Y-35452738D01*
X80227676Y-35547976D01*
X80322914Y-35595595D01*
D12*
X148361400Y-29379333D02*
X148361400Y-27601333D01*
X147684066Y-27601333D01*
X147514733Y-27686000D01*
X147430066Y-27770667D01*
X147345400Y-27940000D01*
X147345400Y-28194000D01*
X147430066Y-28363333D01*
X147514733Y-28448000D01*
X147684066Y-28532667D01*
X148361400Y-28532667D01*
X145652066Y-29379333D02*
X146668066Y-29379333D01*
X146160066Y-29379333D02*
X146160066Y-27601333D01*
X146329400Y-27855333D01*
X146498733Y-28024667D01*
X146668066Y-28109333D01*
X144043400Y-27601333D02*
X144890067Y-27601333D01*
X144974733Y-28448000D01*
X144890067Y-28363333D01*
X144720733Y-28278667D01*
X144297400Y-28278667D01*
X144128067Y-28363333D01*
X144043400Y-28448000D01*
X143958733Y-28617333D01*
X143958733Y-29040667D01*
X144043400Y-29210000D01*
X144128067Y-29294667D01*
X144297400Y-29379333D01*
X144720733Y-29379333D01*
X144890067Y-29294667D01*
X144974733Y-29210000D01*
D11*
X158186685Y-36309881D02*
X158758114Y-36309881D01*
X158472400Y-36309881D02*
X158472400Y-35309881D01*
X158567638Y-35452738D01*
X158662876Y-35547976D01*
X158758114Y-35595595D01*
D12*
X305231800Y-29379333D02*
X305231800Y-27601333D01*
X304554466Y-27601333D01*
X304385133Y-27686000D01*
X304300466Y-27770667D01*
X304215800Y-27940000D01*
X304215800Y-28194000D01*
X304300466Y-28363333D01*
X304385133Y-28448000D01*
X304554466Y-28532667D01*
X305231800Y-28532667D01*
X302522466Y-29379333D02*
X303538466Y-29379333D01*
X303030466Y-29379333D02*
X303030466Y-27601333D01*
X303199800Y-27855333D01*
X303369133Y-28024667D01*
X303538466Y-28109333D01*
X301929800Y-27601333D02*
X300829133Y-27601333D01*
X301421800Y-28278667D01*
X301167800Y-28278667D01*
X300998467Y-28363333D01*
X300913800Y-28448000D01*
X300829133Y-28617333D01*
X300829133Y-29040667D01*
X300913800Y-29210000D01*
X300998467Y-29294667D01*
X301167800Y-29379333D01*
X301675800Y-29379333D01*
X301845133Y-29294667D01*
X301929800Y-29210000D01*
D11*
X315057085Y-36309881D02*
X315628514Y-36309881D01*
X315342800Y-36309881D02*
X315342800Y-35309881D01*
X315438038Y-35452738D01*
X315533276Y-35547976D01*
X315628514Y-35595595D01*
D12*
X69926200Y-104918933D02*
X69926200Y-103140933D01*
X69248866Y-103140933D01*
X69079533Y-103225600D01*
X68994866Y-103310267D01*
X68910200Y-103479600D01*
X68910200Y-103733600D01*
X68994866Y-103902933D01*
X69079533Y-103987600D01*
X69248866Y-104072267D01*
X69926200Y-104072267D01*
X67216866Y-104918933D02*
X68232866Y-104918933D01*
X67724866Y-104918933D02*
X67724866Y-103140933D01*
X67894200Y-103394933D01*
X68063533Y-103564267D01*
X68232866Y-103648933D01*
X66539533Y-103310267D02*
X66454867Y-103225600D01*
X66285533Y-103140933D01*
X65862200Y-103140933D01*
X65692867Y-103225600D01*
X65608200Y-103310267D01*
X65523533Y-103479600D01*
X65523533Y-103648933D01*
X65608200Y-103902933D01*
X66624200Y-104918933D01*
X65523533Y-104918933D01*
D11*
X79751485Y-111849481D02*
X80322914Y-111849481D01*
X80037200Y-111849481D02*
X80037200Y-110849481D01*
X80132438Y-110992338D01*
X80227676Y-111087576D01*
X80322914Y-111135195D01*
D12*
X148361400Y-104918933D02*
X148361400Y-103140933D01*
X147684066Y-103140933D01*
X147514733Y-103225600D01*
X147430066Y-103310267D01*
X147345400Y-103479600D01*
X147345400Y-103733600D01*
X147430066Y-103902933D01*
X147514733Y-103987600D01*
X147684066Y-104072267D01*
X148361400Y-104072267D01*
X145652066Y-104918933D02*
X146668066Y-104918933D01*
X146160066Y-104918933D02*
X146160066Y-103140933D01*
X146329400Y-103394933D01*
X146498733Y-103564267D01*
X146668066Y-103648933D01*
X143958733Y-104918933D02*
X144974733Y-104918933D01*
X144466733Y-104918933D02*
X144466733Y-103140933D01*
X144636067Y-103394933D01*
X144805400Y-103564267D01*
X144974733Y-103648933D01*
D11*
X158186685Y-111849481D02*
X158758114Y-111849481D01*
X158472400Y-111849481D02*
X158472400Y-110849481D01*
X158567638Y-110992338D01*
X158662876Y-111087576D01*
X158758114Y-111135195D01*
D12*
X304385133Y-104918933D02*
X304385133Y-103140933D01*
X303707799Y-103140933D01*
X303538466Y-103225600D01*
X303453799Y-103310267D01*
X303369133Y-103479600D01*
X303369133Y-103733600D01*
X303453799Y-103902933D01*
X303538466Y-103987600D01*
X303707799Y-104072267D01*
X304385133Y-104072267D01*
X302522466Y-104918933D02*
X302183799Y-104918933D01*
X302014466Y-104834267D01*
X301929799Y-104749600D01*
X301760466Y-104495600D01*
X301675799Y-104156933D01*
X301675799Y-103479600D01*
X301760466Y-103310267D01*
X301845133Y-103225600D01*
X302014466Y-103140933D01*
X302353133Y-103140933D01*
X302522466Y-103225600D01*
X302607133Y-103310267D01*
X302691799Y-103479600D01*
X302691799Y-103902933D01*
X302607133Y-104072267D01*
X302522466Y-104156933D01*
X302353133Y-104241600D01*
X302014466Y-104241600D01*
X301845133Y-104156933D01*
X301760466Y-104072267D01*
X301675799Y-103902933D01*
D11*
X315057085Y-111849481D02*
X315628514Y-111849481D01*
X315342800Y-111849481D02*
X315342800Y-110849481D01*
X315438038Y-110992338D01*
X315533276Y-111087576D01*
X315628514Y-111135195D01*
D12*
X69079533Y-180458533D02*
X69079533Y-178680533D01*
X68402199Y-178680533D01*
X68232866Y-178765200D01*
X68148199Y-178849867D01*
X68063533Y-179019200D01*
X68063533Y-179273200D01*
X68148199Y-179442533D01*
X68232866Y-179527200D01*
X68402199Y-179611867D01*
X69079533Y-179611867D01*
X67047533Y-179442533D02*
X67216866Y-179357867D01*
X67301533Y-179273200D01*
X67386199Y-179103867D01*
X67386199Y-179019200D01*
X67301533Y-178849867D01*
X67216866Y-178765200D01*
X67047533Y-178680533D01*
X66708866Y-178680533D01*
X66539533Y-178765200D01*
X66454866Y-178849867D01*
X66370199Y-179019200D01*
X66370199Y-179103867D01*
X66454866Y-179273200D01*
X66539533Y-179357867D01*
X66708866Y-179442533D01*
X67047533Y-179442533D01*
X67216866Y-179527200D01*
X67301533Y-179611867D01*
X67386199Y-179781200D01*
X67386199Y-180119867D01*
X67301533Y-180289200D01*
X67216866Y-180373867D01*
X67047533Y-180458533D01*
X66708866Y-180458533D01*
X66539533Y-180373867D01*
X66454866Y-180289200D01*
X66370199Y-180119867D01*
X66370199Y-179781200D01*
X66454866Y-179611867D01*
X66539533Y-179527200D01*
X66708866Y-179442533D01*
D11*
X79751485Y-187389081D02*
X80322914Y-187389081D01*
X80037200Y-187389081D02*
X80037200Y-186389081D01*
X80132438Y-186531938D01*
X80227676Y-186627176D01*
X80322914Y-186674795D01*
D12*
X147514733Y-180458533D02*
X147514733Y-178680533D01*
X146837399Y-178680533D01*
X146668066Y-178765200D01*
X146583399Y-178849867D01*
X146498733Y-179019200D01*
X146498733Y-179273200D01*
X146583399Y-179442533D01*
X146668066Y-179527200D01*
X146837399Y-179611867D01*
X147514733Y-179611867D01*
X145906066Y-178680533D02*
X144720733Y-178680533D01*
X145482733Y-180458533D01*
D11*
X158186685Y-187389081D02*
X158758114Y-187389081D01*
X158472400Y-187389081D02*
X158472400Y-186389081D01*
X158567638Y-186531938D01*
X158662876Y-186627176D01*
X158758114Y-186674795D01*
D12*
X69079533Y-255998133D02*
X69079533Y-254220133D01*
X68402199Y-254220133D01*
X68232866Y-254304800D01*
X68148199Y-254389467D01*
X68063533Y-254558800D01*
X68063533Y-254812800D01*
X68148199Y-254982133D01*
X68232866Y-255066800D01*
X68402199Y-255151467D01*
X69079533Y-255151467D01*
X66539533Y-254812800D02*
X66539533Y-255998133D01*
X66962866Y-254135467D02*
X67386199Y-255405467D01*
X66285533Y-255405467D01*
D11*
X79751485Y-262928681D02*
X80322914Y-262928681D01*
X80037200Y-262928681D02*
X80037200Y-261928681D01*
X80132438Y-262071538D01*
X80227676Y-262166776D01*
X80322914Y-262214395D01*
D12*
X147514733Y-255998133D02*
X147514733Y-254220133D01*
X146837399Y-254220133D01*
X146668066Y-254304800D01*
X146583399Y-254389467D01*
X146498733Y-254558800D01*
X146498733Y-254812800D01*
X146583399Y-254982133D01*
X146668066Y-255066800D01*
X146837399Y-255151467D01*
X147514733Y-255151467D01*
X145906066Y-254220133D02*
X144805399Y-254220133D01*
X145398066Y-254897467D01*
X145144066Y-254897467D01*
X144974733Y-254982133D01*
X144890066Y-255066800D01*
X144805399Y-255236133D01*
X144805399Y-255659467D01*
X144890066Y-255828800D01*
X144974733Y-255913467D01*
X145144066Y-255998133D01*
X145652066Y-255998133D01*
X145821399Y-255913467D01*
X145906066Y-255828800D01*
D11*
X158186685Y-262928681D02*
X158758114Y-262928681D01*
X158472400Y-262928681D02*
X158472400Y-261928681D01*
X158567638Y-262071538D01*
X158662876Y-262166776D01*
X158758114Y-262214395D01*
D12*
X225949933Y-255998133D02*
X225949933Y-254220133D01*
X225272599Y-254220133D01*
X225103266Y-254304800D01*
X225018599Y-254389467D01*
X224933933Y-254558800D01*
X224933933Y-254812800D01*
X225018599Y-254982133D01*
X225103266Y-255066800D01*
X225272599Y-255151467D01*
X225949933Y-255151467D01*
X224256599Y-254389467D02*
X224171933Y-254304800D01*
X224002599Y-254220133D01*
X223579266Y-254220133D01*
X223409933Y-254304800D01*
X223325266Y-254389467D01*
X223240599Y-254558800D01*
X223240599Y-254728133D01*
X223325266Y-254982133D01*
X224341266Y-255998133D01*
X223240599Y-255998133D01*
D11*
X236621885Y-262928681D02*
X237193314Y-262928681D01*
X236907600Y-262928681D02*
X236907600Y-261928681D01*
X237002838Y-262071538D01*
X237098076Y-262166776D01*
X237193314Y-262214395D01*
D12*
X304385133Y-255998133D02*
X304385133Y-254220133D01*
X303707799Y-254220133D01*
X303538466Y-254304800D01*
X303453799Y-254389467D01*
X303369133Y-254558800D01*
X303369133Y-254812800D01*
X303453799Y-254982133D01*
X303538466Y-255066800D01*
X303707799Y-255151467D01*
X304385133Y-255151467D01*
X301675799Y-255998133D02*
X302691799Y-255998133D01*
X302183799Y-255998133D02*
X302183799Y-254220133D01*
X302353133Y-254474133D01*
X302522466Y-254643467D01*
X302691799Y-254728133D01*
D11*
X315057085Y-262928681D02*
X315628514Y-262928681D01*
X315342800Y-262928681D02*
X315342800Y-261928681D01*
X315438038Y-262071538D01*
X315533276Y-262166776D01*
X315628514Y-262214395D01*
D12*
X226796600Y-29379333D02*
X226796600Y-27601333D01*
X226119266Y-27601333D01*
X225949933Y-27686000D01*
X225865266Y-27770667D01*
X225780600Y-27940000D01*
X225780600Y-28194000D01*
X225865266Y-28363333D01*
X225949933Y-28448000D01*
X226119266Y-28532667D01*
X226796600Y-28532667D01*
X224087266Y-29379333D02*
X225103266Y-29379333D01*
X224595266Y-29379333D02*
X224595266Y-27601333D01*
X224764600Y-27855333D01*
X224933933Y-28024667D01*
X225103266Y-28109333D01*
X222563267Y-28194000D02*
X222563267Y-29379333D01*
X222986600Y-27516667D02*
X223409933Y-28786667D01*
X222309267Y-28786667D01*
D11*
X236621885Y-36309881D02*
X237193314Y-36309881D01*
X236907600Y-36309881D02*
X236907600Y-35309881D01*
X237002838Y-35452738D01*
X237098076Y-35547976D01*
X237193314Y-35595595D01*
D12*
X226796600Y-104918933D02*
X226796600Y-103140933D01*
X226119266Y-103140933D01*
X225949933Y-103225600D01*
X225865266Y-103310267D01*
X225780600Y-103479600D01*
X225780600Y-103733600D01*
X225865266Y-103902933D01*
X225949933Y-103987600D01*
X226119266Y-104072267D01*
X226796600Y-104072267D01*
X224087266Y-104918933D02*
X225103266Y-104918933D01*
X224595266Y-104918933D02*
X224595266Y-103140933D01*
X224764600Y-103394933D01*
X224933933Y-103564267D01*
X225103266Y-103648933D01*
X222986600Y-103140933D02*
X222817267Y-103140933D01*
X222647933Y-103225600D01*
X222563267Y-103310267D01*
X222478600Y-103479600D01*
X222393933Y-103818267D01*
X222393933Y-104241600D01*
X222478600Y-104580267D01*
X222563267Y-104749600D01*
X222647933Y-104834267D01*
X222817267Y-104918933D01*
X222986600Y-104918933D01*
X223155933Y-104834267D01*
X223240600Y-104749600D01*
X223325267Y-104580267D01*
X223409933Y-104241600D01*
X223409933Y-103818267D01*
X223325267Y-103479600D01*
X223240600Y-103310267D01*
X223155933Y-103225600D01*
X222986600Y-103140933D01*
D11*
X236621885Y-111849481D02*
X237193314Y-111849481D01*
X236907600Y-111849481D02*
X236907600Y-110849481D01*
X237002838Y-110992338D01*
X237098076Y-111087576D01*
X237193314Y-111135195D01*
D12*
X225949933Y-180458533D02*
X225949933Y-178680533D01*
X225272599Y-178680533D01*
X225103266Y-178765200D01*
X225018599Y-178849867D01*
X224933933Y-179019200D01*
X224933933Y-179273200D01*
X225018599Y-179442533D01*
X225103266Y-179527200D01*
X225272599Y-179611867D01*
X225949933Y-179611867D01*
X223409933Y-178680533D02*
X223748599Y-178680533D01*
X223917933Y-178765200D01*
X224002599Y-178849867D01*
X224171933Y-179103867D01*
X224256599Y-179442533D01*
X224256599Y-180119867D01*
X224171933Y-180289200D01*
X224087266Y-180373867D01*
X223917933Y-180458533D01*
X223579266Y-180458533D01*
X223409933Y-180373867D01*
X223325266Y-180289200D01*
X223240599Y-180119867D01*
X223240599Y-179696533D01*
X223325266Y-179527200D01*
X223409933Y-179442533D01*
X223579266Y-179357867D01*
X223917933Y-179357867D01*
X224087266Y-179442533D01*
X224171933Y-179527200D01*
X224256599Y-179696533D01*
D11*
X236621885Y-187389081D02*
X237193314Y-187389081D01*
X236907600Y-187389081D02*
X236907600Y-186389081D01*
X237002838Y-186531938D01*
X237098076Y-186627176D01*
X237193314Y-186674795D01*
D12*
X304385133Y-180458533D02*
X304385133Y-178680533D01*
X303707799Y-178680533D01*
X303538466Y-178765200D01*
X303453799Y-178849867D01*
X303369133Y-179019200D01*
X303369133Y-179273200D01*
X303453799Y-179442533D01*
X303538466Y-179527200D01*
X303707799Y-179611867D01*
X304385133Y-179611867D01*
X301760466Y-178680533D02*
X302607133Y-178680533D01*
X302691799Y-179527200D01*
X302607133Y-179442533D01*
X302437799Y-179357867D01*
X302014466Y-179357867D01*
X301845133Y-179442533D01*
X301760466Y-179527200D01*
X301675799Y-179696533D01*
X301675799Y-180119867D01*
X301760466Y-180289200D01*
X301845133Y-180373867D01*
X302014466Y-180458533D01*
X302437799Y-180458533D01*
X302607133Y-180373867D01*
X302691799Y-180289200D01*
D11*
X315057085Y-187389081D02*
X315628514Y-187389081D01*
X315342800Y-187389081D02*
X315342800Y-186389081D01*
X315438038Y-186531938D01*
X315533276Y-186627176D01*
X315628514Y-186674795D01*
M02*
