M48
;DRILL file {KiCad 4.0.7} date Thursday, October 11, 2018 'PMt' 07:28:57 PM
;FORMAT={2:4/ absolute / inch / suppress leading zeros}
FMAT,2
INCH,TZ
T1C0.008
T2C0.010
T3C0.020
T4C0.024
T5C0.031
T6C0.032
T7C0.036
T8C0.039
T9C0.040
T10C0.040
T11C0.079
T12C0.091
T13C0.094
T14C0.132
T15C0.150
%
G90
G05
M72
T1
X11850Y-148850
X12100Y-147700
X12300Y-147200
X12600Y-145700
X13000Y-145400
X15750Y-155550
X23500Y-153250
X23500Y-156150
X23750Y-152250
X23750Y-155850
X26350Y-146850
X27200Y-144250
X27500Y-143250
X28000Y-142250
X28500Y-141500
X28730Y-143650
X41050Y-146500
X42250Y-141000
X42700Y-140500
X42900Y-140000
X43200Y-139500
X43500Y-137500
X48500Y-141350
X50500Y-141000
X51000Y-140500
X51500Y-140000
X52000Y-139500
X52500Y-137500
X55000Y-144700
X55000Y-151250
X55350Y-149250
X55350Y-153250
X56000Y-150250
X56000Y-152250
X56400Y-147700
X58150Y-144250
X58600Y-143250
X58800Y-142250
X59100Y-141700
X59300Y-141350
X60000Y-140500
X60000Y-145800
X68500Y-148250
X68500Y-155550
X68800Y-156150
X70250Y-155850
X72000Y-140500
X73500Y-141500
X73500Y-144650
X73800Y-144200
X74200Y-141550
X74500Y-141300
X74700Y-140500
X79150Y-150250
X79150Y-154800
X79400Y-149250
X79400Y-154550
X79700Y-147250
X79700Y-154300
X80000Y-146250
X80000Y-154000
X87000Y-147250
X87950Y-143650
X88300Y-142850
X88650Y-141000
X89150Y-142250
X89450Y-143250
X92000Y-144250
X92000Y-148250
X93700Y-142750
X96750Y-144850
X97100Y-144000
X97500Y-141550
X98000Y-141300
X98150Y-154300
X98450Y-140500
X98850Y-141000
X102450Y-142650
X103000Y-144230
X103000Y-151750
X103500Y-146200
X103750Y-145950
X104100Y-145700
X104500Y-144950
X105000Y-144650
X118000Y-144000
X118750Y-143700
X119000Y-140000
X119350Y-140500
X119600Y-142250
X119850Y-143250
X120000Y-145250
X122100Y-144000
X122550Y-139500
X128200Y-140000
X128500Y-143700
X128650Y-140500
X128850Y-154800
X129350Y-154550
X132700Y-139500
T2
X94500Y-145250
X94500Y-147750
T3
X14000Y-154500
X15249Y-101999
X15250Y-102500
X15350Y-103950
X15350Y-105150
X15900Y-69500
X16500Y-70150
X16600Y-75350
X17050Y-75700
X17500Y-39500
X18100Y-40100
X18150Y-45500
X18850Y-46250
X19450Y-12000
X20150Y-12750
X20300Y-16000
X20500Y-16500
X20650Y-14150
X20945Y-73600
X21000Y-13100
X21000Y-42850
X21000Y-43850
X21000Y-102050
X21000Y-102600
X21300Y-72600
X21500Y-41000
X21500Y-71000
X22000Y-27150
X22000Y-40500
X22000Y-70500
X22100Y-101450
X22400Y-26600
X22500Y-68000
X22800Y-68500
X23250Y-67000
X23500Y-98500
X23550Y-67500
X23700Y-107950
X24000Y-38000
X24000Y-99000
X24005Y-66245
X24200Y-110850
X24350Y-66600
X24500Y-38500
X24550Y-100900
X24600Y-97500
X24600Y-110000
X24650Y-37000
X24950Y-65150
X25050Y-37550
X25050Y-98050
X25150Y-110400
X25350Y-65600
X25600Y-35800
X25650Y-109300
X25700Y-96450
X26100Y-109645
X26150Y-36150
X26150Y-96850
X26650Y-108500
X26700Y-35000
X26750Y-95350
X27200Y-95750
X27200Y-108850
X27650Y-92500
X27750Y-32500
X27750Y-107700
X28000Y-33850
X28150Y-64450
X28200Y-92900
X28200Y-108100
X28250Y-32950
X28600Y-91150
X28650Y-106250
X28750Y-30100
X29000Y-62250
X29000Y-64850
X29150Y-91550
X29150Y-106600
X29200Y-30500
X29650Y-59000
X29700Y-28000
X29700Y-62400
X29750Y-90500
X30150Y-90000
X30200Y-27500
X30200Y-58500
X30500Y-99500
X31200Y-99500
X31500Y-107000
X31650Y-69000
X31745Y-107500
X31950Y-16000
X32045Y-39050
X32650Y-69100
X32700Y-39050
X32905Y-15830
X33000Y-45500
X33000Y-75000
X33255Y-75450
X33300Y-45850
X33700Y-38500
X34000Y-38000
X34820Y-19580
X35100Y-18350
X35500Y-16000
X35500Y-16500
X35600Y-68515
X35700Y-67700
X36000Y-38500
X36650Y-38000
X37000Y-99000
X37300Y-68500
X37400Y-98500
X38050Y-68000
X38500Y-111450
X38750Y-110950
X39200Y-99000
X40000Y-98500
X43000Y-155000
X43900Y-38000
X44150Y-67800
X44500Y-98145
X44750Y-38350
X45000Y-67745
X45000Y-154500
X45100Y-98145
X45200Y-45000
X45200Y-107650
X45300Y-75700
X45304Y-45417
X45450Y-76300
X45800Y-108000
X46000Y-16000
X46304Y-16304
X48000Y-143700
X50550Y-97950
X50600Y-37500
X51150Y-37000
X51350Y-97500
X51500Y-67500
X51550Y-15700
X51900Y-110800
X52000Y-67000
X52150Y-37450
X52200Y-110400
X52750Y-98050
X53000Y-37000
X53201Y-15701
X53250Y-97500
X53450Y-67250
X55000Y-67000
X56550Y-64300
X56600Y-34500
X56700Y-95400
X57050Y-35000
X57050Y-64650
X57050Y-95000
X57600Y-33500
X57600Y-94100
X57650Y-63350
X58050Y-93850
X58100Y-34000
X58450Y-63850
X58500Y-31750
X58500Y-93550
X58500Y-93550
X58650Y-62950
X59050Y-62690
X59250Y-93395
X59350Y-31150
X59500Y-29500
X59500Y-61500
X59550Y-92050
X60050Y-29500
X60050Y-92000
X60075Y-61000
X61050Y-23900
X61250Y-96000
X61950Y-96095
X62200Y-24500
X62350Y-108850
X62550Y-67750
X62700Y-108500
X63335Y-67800
X63350Y-95255
X63600Y-37550
X63750Y-94750
X64350Y-37600
X65200Y-36450
X65400Y-36000
X65850Y-15650
X66550Y-66600
X66600Y-64300
X66600Y-64850
X66950Y-36500
X66950Y-66250
X67150Y-16850
X67700Y-36000
X68300Y-66550
X68300Y-96850
X68750Y-96450
X68950Y-66250
X69100Y-16750
X69450Y-17500
X69450Y-110150
X69500Y-34500
X69600Y-109300
X69800Y-96800
X70150Y-34750
X70400Y-96500
X72550Y-13600
X73450Y-13600
X75000Y-95000
X75800Y-108150
X75900Y-95440
X76215Y-107700
X76250Y-65250
X76300Y-34700
X77130Y-65250
X77450Y-34400
X77550Y-93900
X77550Y-94350
X78300Y-34650
X78850Y-63500
X79200Y-64000
X79950Y-17900
X80000Y-18450
X80200Y-33500
X80900Y-34000
X81150Y-35000
X81400Y-17500
X81900Y-65600
X82100Y-65100
X82450Y-35400
X82500Y-17500
X82650Y-96050
X83150Y-95550
X83350Y-109300
X83450Y-65600
X83650Y-35000
X83950Y-65000
X84000Y-108600
X84200Y-143500
X84200Y-145250
X84600Y-96250
X85150Y-95850
X89000Y-155500
X91000Y-156000
X91500Y-29000
X91500Y-60000
X91500Y-94300
X91900Y-29500
X91950Y-60500
X91950Y-94795
X92100Y-155350
X92150Y-156100
X92900Y-95150
X93100Y-108100
X93450Y-95600
X93550Y-65000
X93600Y-107900
X94655Y-65500
X94700Y-34500
X94950Y-93750
X95110Y-93351
X95150Y-34950
X95500Y-33000
X95550Y-20350
X96000Y-32700
X96640Y-20360
X96995Y-63250
X96995Y-65000
X97000Y-62700
X97200Y-31500
X97350Y-64450
X97500Y-32500
X98000Y-35770
X98000Y-36200
X98250Y-18850
X98400Y-93150
X98850Y-92500
X99069Y-19019
X100000Y-65945
X100100Y-107850
X100500Y-96000
X100650Y-107450
X100750Y-66300
X100900Y-96500
X105500Y-94500
X106250Y-107050
X106455Y-95000
X106850Y-107050
X107450Y-65000
X107500Y-33500
X108000Y-34000
X108100Y-65500
X108100Y-91920
X108100Y-92350
X109000Y-30500
X109500Y-30000
X109699Y-22301
X109701Y-21299
X110500Y-19500
X110517Y-61165
X110550Y-63198
X110600Y-61700
X110752Y-31000
X110800Y-31800
X111000Y-20000
X111350Y-62500
X111500Y-35500
X112000Y-36150
X112420Y-92100
X113000Y-65250
X113100Y-92150
X113350Y-65600
X114000Y-106950
X114350Y-95500
X114550Y-106500
X114700Y-95800
X121500Y-155500
X122750Y-45750
X123000Y-74750
X123200Y-105650
X123380Y-106650
X123480Y-46455
X123500Y-75250
X124550Y-24500
X125000Y-25000
X128550Y-27500
X129050Y-90000
X129400Y-91500
X129500Y-28000
X130150Y-58500
X130150Y-59000
X130450Y-94500
X130650Y-105000
X130650Y-105500
X130800Y-29500
X130800Y-30000
X130850Y-95000
X131500Y-60000
X131500Y-60500
T4
X12500Y-150250
X12500Y-151250
X12625Y-132008
X12625Y-132992
X14500Y-150250
X14500Y-151250
X23750Y-150258
X23750Y-151242
X26625Y-132008
X26625Y-132992
X27850Y-132008
X27850Y-132992
X41875Y-132008
X41875Y-132992
X43000Y-151250
X43125Y-132008
X43125Y-132992
X45000Y-151250
X54250Y-150258
X54250Y-151242
X57125Y-132008
X57125Y-132992
X58375Y-132008
X58375Y-132992
X72375Y-132008
X72375Y-132992
X73625Y-132008
X73625Y-132992
X87625Y-132008
X87625Y-132992
X88875Y-132008
X88875Y-132992
X89000Y-151250
X91000Y-151250
X100000Y-150258
X100000Y-151242
X102875Y-132008
X102875Y-132992
X104125Y-132008
X104125Y-132992
X118125Y-132008
X118125Y-132992
X119250Y-132008
X119250Y-132992
X119500Y-151250
X121500Y-151250
X130758Y-151250
X131742Y-151250
X133375Y-132008
X133375Y-132992
T5
X104652Y-10500
X105152Y-11500
X105652Y-10500
X106152Y-11500
X106652Y-10500
X107152Y-11500
X110748Y-7750
X111248Y-8750
X111748Y-7750
X112248Y-8750
X112748Y-7750
X113248Y-8750
T6
X16625Y-142250
X16625Y-143250
X16625Y-144250
X16625Y-145250
X16625Y-146250
X16625Y-147250
X16625Y-148250
X16625Y-149250
X16625Y-150250
X16625Y-151250
X16625Y-152250
X16625Y-153250
X22625Y-142250
X22625Y-143250
X22625Y-144250
X22625Y-145250
X22625Y-146250
X22625Y-147250
X22625Y-148250
X22625Y-149250
X22625Y-150250
X22625Y-151250
X22625Y-152250
X22625Y-153250
X47125Y-142250
X47125Y-143250
X47125Y-144250
X47125Y-145250
X47125Y-146250
X47125Y-147250
X47125Y-148250
X47125Y-149250
X47125Y-150250
X47125Y-151250
X47125Y-152250
X47125Y-153250
X53125Y-142250
X53125Y-143250
X53125Y-144250
X53125Y-145250
X53125Y-146250
X53125Y-147250
X53125Y-148250
X53125Y-149250
X53125Y-150250
X53125Y-151250
X53125Y-152250
X53125Y-153250
X60000Y-7500
X61000Y-7500
X92875Y-142250
X92875Y-143250
X92875Y-144250
X92875Y-145250
X92875Y-146250
X92875Y-147250
X92875Y-148250
X92875Y-149250
X92875Y-150250
X92875Y-151250
X92875Y-152250
X92875Y-153250
X98875Y-142250
X98875Y-143250
X98875Y-144250
X98875Y-145250
X98875Y-146250
X98875Y-147250
X98875Y-148250
X98875Y-149250
X98875Y-150250
X98875Y-151250
X98875Y-152250
X98875Y-153250
X123375Y-142250
X123375Y-143250
X123375Y-144250
X123375Y-145250
X123375Y-146250
X123375Y-147250
X123375Y-148250
X123375Y-149250
X123375Y-150250
X123375Y-151250
X123375Y-152250
X123375Y-153250
X129375Y-142250
X129375Y-143250
X129375Y-144250
X129375Y-145250
X129375Y-146250
X129375Y-147250
X129375Y-148250
X129375Y-149250
X129375Y-150250
X129375Y-151250
X129375Y-152250
X129375Y-153250
T7
X28122Y-152000
X29106Y-152000
X29894Y-152000
X30878Y-152000
X37122Y-152000
X38106Y-152000
X38894Y-152000
X39878Y-152000
T8
X36622Y-11000
X37606Y-11000
X38394Y-11000
X39378Y-11000
X46622Y-11000
X47606Y-11000
X48394Y-11000
X49378Y-11000
T9
X10800Y-114750
X10800Y-116750
X12500Y-14000
X12500Y-15250
X12500Y-16500
X12500Y-17750
X12500Y-114750
X12500Y-116750
X13750Y-14000
X13750Y-15250
X13750Y-16500
X13750Y-17750
X23180Y-13125
X23180Y-14125
X23180Y-42865
X23180Y-43865
X23180Y-72605
X23180Y-73605
X23180Y-102345
X23180Y-103345
X24180Y-13125
X24180Y-14125
X24180Y-42865
X24180Y-43865
X24180Y-72605
X24180Y-73605
X24180Y-102345
X24180Y-103345
X25180Y-13125
X25180Y-14125
X25180Y-42865
X25180Y-43865
X25180Y-72605
X25180Y-73605
X25180Y-102345
X25180Y-103345
X26180Y-13125
X26180Y-14125
X26180Y-42865
X26180Y-43865
X26180Y-72605
X26180Y-73605
X26180Y-102345
X26180Y-103345
X27180Y-13125
X27180Y-14125
X27180Y-42865
X27180Y-43865
X27180Y-72605
X27180Y-73605
X27180Y-102345
X27180Y-103345
X28180Y-13125
X28180Y-14125
X28180Y-42865
X28180Y-43865
X28180Y-72605
X28180Y-73605
X28180Y-102345
X28180Y-103345
X29180Y-13125
X29180Y-14125
X29180Y-42865
X29180Y-43865
X29180Y-72605
X29180Y-73605
X29180Y-102345
X29180Y-103345
X30180Y-13125
X30180Y-14125
X30180Y-42865
X30180Y-43865
X30180Y-72605
X30180Y-73605
X30180Y-102345
X30180Y-103345
X54060Y-13125
X54060Y-14125
X54060Y-42865
X54060Y-43865
X54060Y-72605
X54060Y-73605
X54060Y-102345
X54060Y-103345
X55060Y-13125
X55060Y-14125
X55060Y-42865
X55060Y-43865
X55060Y-72605
X55060Y-73605
X55060Y-102345
X55060Y-103345
X56060Y-13125
X56060Y-14125
X56060Y-42865
X56060Y-43865
X56060Y-72605
X56060Y-73605
X56060Y-102345
X56060Y-103345
X57060Y-13125
X57060Y-14125
X57060Y-42865
X57060Y-43865
X57060Y-72605
X57060Y-73605
X57060Y-102345
X57060Y-103345
X58060Y-13125
X58060Y-14125
X58060Y-42865
X58060Y-43865
X58060Y-72605
X58060Y-73605
X58060Y-102345
X58060Y-103345
X59060Y-13125
X59060Y-14125
X59060Y-42865
X59060Y-43865
X59060Y-72605
X59060Y-73605
X59060Y-102345
X59060Y-103345
X60060Y-13125
X60060Y-14125
X60060Y-42865
X60060Y-43865
X60060Y-72605
X60060Y-73605
X60060Y-102345
X60060Y-103345
X61060Y-13125
X61060Y-14125
X61060Y-42865
X61060Y-43865
X61060Y-72605
X61060Y-73605
X61060Y-102345
X61060Y-103345
X69553Y-145223
X69553Y-146223
X69553Y-147223
X69553Y-148223
X69553Y-149223
X69553Y-150223
X69553Y-151223
X69553Y-152223
X69553Y-153223
X76500Y-145250
X76500Y-146250
X76500Y-147250
X76500Y-148250
X76500Y-149250
X76500Y-150250
X76500Y-151250
X76500Y-152250
X76500Y-153250
X84940Y-13125
X84940Y-14125
X84940Y-42865
X84940Y-43865
X84940Y-72605
X84940Y-73605
X84940Y-102345
X84940Y-103345
X85940Y-13125
X85940Y-14125
X85940Y-42865
X85940Y-43865
X85940Y-72605
X85940Y-73605
X85940Y-102345
X85940Y-103345
X86940Y-13125
X86940Y-14125
X86940Y-42865
X86940Y-43865
X86940Y-72605
X86940Y-73605
X86940Y-102345
X86940Y-103345
X87940Y-13125
X87940Y-14125
X87940Y-42865
X87940Y-43865
X87940Y-72605
X87940Y-73605
X87940Y-102345
X87940Y-103345
X88940Y-13125
X88940Y-14125
X88940Y-42865
X88940Y-43865
X88940Y-72605
X88940Y-73605
X88940Y-102345
X88940Y-103345
X89940Y-13125
X89940Y-14125
X89940Y-42865
X89940Y-43865
X89940Y-72605
X89940Y-73605
X89940Y-102345
X89940Y-103345
X90940Y-13125
X90940Y-14125
X90940Y-42865
X90940Y-43865
X90940Y-72605
X90940Y-73605
X90940Y-102345
X90940Y-103345
X91940Y-13125
X91940Y-14125
X91940Y-42865
X91940Y-43865
X91940Y-72605
X91940Y-73605
X91940Y-102345
X91940Y-103345
X115820Y-13125
X115820Y-14125
X115820Y-42865
X115820Y-43865
X115820Y-72605
X115820Y-73605
X115820Y-102345
X115820Y-103345
X116820Y-13125
X116820Y-14125
X116820Y-42865
X116820Y-43865
X116820Y-72605
X116820Y-73605
X116820Y-102345
X116820Y-103345
X117820Y-13125
X117820Y-14125
X117820Y-42865
X117820Y-43865
X117820Y-72605
X117820Y-73605
X117820Y-102345
X117820Y-103345
X118820Y-13125
X118820Y-14125
X118820Y-42865
X118820Y-43865
X118820Y-72605
X118820Y-73605
X118820Y-102345
X118820Y-103345
X118950Y-147250
X118950Y-148250
X118950Y-149250
X119820Y-13125
X119820Y-14125
X119820Y-42865
X119820Y-43865
X119820Y-72605
X119820Y-73605
X119820Y-102345
X119820Y-103345
X119950Y-147250
X119950Y-148250
X119950Y-149250
X120820Y-13125
X120820Y-14125
X120820Y-42865
X120820Y-43865
X120820Y-72605
X120820Y-73605
X120820Y-102345
X120820Y-103345
X121820Y-13125
X121820Y-14125
X121820Y-42865
X121820Y-43865
X121820Y-72605
X121820Y-73605
X121820Y-102345
X121820Y-103345
X122820Y-13125
X122820Y-14125
X122820Y-42865
X122820Y-43865
X122820Y-72605
X122820Y-73605
X122820Y-102345
X122820Y-103345
X131250Y-14000
X131250Y-15250
X131250Y-16500
X131250Y-17750
X132500Y-14000
X132500Y-15250
X132500Y-16500
X132500Y-17750
X133500Y-114750
X133500Y-116750
X135100Y-114750
X135100Y-116750
T10
X12625Y-121750
X12625Y-122750
X12625Y-123750
X12625Y-124750
X12625Y-125750
X12625Y-126750
X12625Y-127750
X12625Y-128750
X12625Y-129750
X12625Y-130750
X14125Y-111750
X14125Y-111750
X14125Y-112750
X14125Y-112750
X14125Y-113750
X14125Y-114750
X14125Y-115750
X14125Y-116750
X14125Y-117750
X14125Y-118750
X14125Y-119750
X14125Y-120750
X14125Y-121750
X14125Y-122750
X14125Y-123750
X14125Y-124750
X14125Y-125750
X14125Y-126750
X14125Y-127750
X14125Y-128750
X14125Y-129750
X14125Y-130750
X14125Y-131750
X14125Y-132750
X14125Y-133750
X14125Y-134750
X14125Y-135750
X15125Y-134750
X15125Y-135750
X16125Y-134750
X16125Y-135750
X17125Y-134750
X17125Y-135750
X18125Y-134750
X18125Y-135750
X19125Y-134750
X19125Y-135750
X20125Y-134750
X20125Y-135750
X21125Y-134750
X21125Y-135750
X22125Y-134750
X22125Y-135750
X23125Y-134750
X23125Y-135750
X24125Y-134750
X24125Y-135750
X25125Y-111750
X25125Y-111750
X25125Y-112750
X25125Y-112750
X25125Y-113750
X25125Y-114750
X25125Y-115750
X25125Y-116750
X25125Y-117750
X25125Y-118750
X25125Y-119750
X25125Y-120750
X25125Y-121750
X25125Y-122750
X25125Y-123750
X25125Y-124750
X25125Y-125750
X25125Y-126750
X25125Y-127750
X25125Y-128750
X25125Y-129750
X25125Y-130750
X25125Y-131750
X25125Y-132750
X25125Y-133750
X25125Y-134750
X25125Y-135750
X26625Y-121750
X26625Y-122750
X26625Y-123750
X26625Y-124750
X26625Y-125750
X26625Y-126750
X26625Y-127750
X26625Y-128750
X26625Y-129750
X26625Y-130750
X27850Y-121750
X27850Y-122750
X27850Y-123750
X27850Y-124750
X27850Y-125750
X27850Y-126750
X27850Y-127750
X27850Y-128750
X27850Y-129750
X27850Y-130750
X29375Y-111750
X29375Y-111750
X29375Y-112750
X29375Y-112750
X29375Y-113750
X29375Y-114750
X29375Y-115750
X29375Y-116750
X29375Y-117750
X29375Y-118750
X29375Y-119750
X29375Y-120750
X29375Y-121750
X29375Y-122750
X29375Y-123750
X29375Y-124750
X29375Y-125750
X29375Y-126750
X29375Y-127750
X29375Y-128750
X29375Y-129750
X29375Y-130750
X29375Y-131750
X29375Y-132750
X29375Y-133750
X29375Y-134750
X29375Y-135750
X30375Y-134750
X30375Y-135750
X31375Y-134750
X31375Y-135750
X32375Y-134750
X32375Y-135750
X33375Y-134750
X33375Y-135750
X34375Y-134750
X34375Y-135750
X35375Y-134750
X35375Y-135750
X36375Y-134750
X36375Y-135750
X37375Y-134750
X37375Y-135750
X38375Y-134750
X38375Y-135750
X39375Y-134750
X39375Y-135750
X40400Y-111800
X40400Y-111800
X40400Y-112800
X40400Y-112800
X40400Y-113800
X40400Y-114800
X40400Y-115800
X40400Y-116800
X40400Y-117800
X40400Y-118800
X40400Y-119800
X40400Y-120800
X40400Y-121800
X40400Y-122800
X40400Y-123800
X40400Y-124800
X40400Y-125800
X40400Y-126800
X40400Y-127800
X40400Y-128800
X40400Y-129800
X40400Y-130800
X40400Y-131800
X40400Y-132800
X40400Y-133800
X40400Y-134800
X40400Y-135800
X41875Y-121750
X41875Y-122750
X41875Y-123750
X41875Y-124750
X41875Y-125750
X41875Y-126750
X41875Y-127750
X41875Y-128750
X41875Y-129750
X41875Y-130750
X43125Y-121750
X43125Y-122750
X43125Y-123750
X43125Y-124750
X43125Y-125750
X43125Y-126750
X43125Y-127750
X43125Y-128750
X43125Y-129750
X43125Y-130750
X44625Y-111750
X44625Y-111750
X44625Y-112750
X44625Y-112750
X44625Y-113750
X44625Y-114750
X44625Y-115750
X44625Y-116750
X44625Y-117750
X44625Y-118750
X44625Y-119750
X44625Y-120750
X44625Y-121750
X44625Y-122750
X44625Y-123750
X44625Y-124750
X44625Y-125750
X44625Y-126750
X44625Y-127750
X44625Y-128750
X44625Y-129750
X44625Y-130750
X44625Y-131750
X44625Y-132750
X44625Y-133750
X44625Y-134750
X44625Y-135750
X45625Y-134750
X45625Y-135750
X46625Y-134750
X46625Y-135750
X47625Y-134750
X47625Y-135750
X48625Y-134750
X48625Y-135750
X49625Y-134750
X49625Y-135750
X50625Y-134750
X50625Y-135750
X51625Y-134750
X51625Y-135750
X52625Y-134750
X52625Y-135750
X53625Y-134750
X53625Y-135750
X54625Y-134750
X54625Y-135750
X55625Y-111750
X55625Y-111750
X55625Y-112750
X55625Y-112750
X55625Y-113750
X55625Y-114750
X55625Y-115750
X55625Y-116750
X55625Y-117750
X55625Y-118750
X55625Y-119750
X55625Y-120750
X55625Y-121750
X55625Y-122750
X55625Y-123750
X55625Y-124750
X55625Y-125750
X55625Y-126750
X55625Y-127750
X55625Y-128750
X55625Y-129750
X55625Y-130750
X55625Y-131750
X55625Y-132750
X55625Y-133750
X55625Y-134750
X55625Y-135750
X57125Y-121750
X57125Y-122750
X57125Y-123750
X57125Y-124750
X57125Y-125750
X57125Y-126750
X57125Y-127750
X57125Y-128750
X57125Y-129750
X57125Y-130750
X58375Y-121750
X58375Y-122750
X58375Y-123750
X58375Y-124750
X58375Y-125750
X58375Y-126750
X58375Y-127750
X58375Y-128750
X58375Y-129750
X58375Y-130750
X59875Y-111750
X59875Y-111750
X59875Y-112750
X59875Y-112750
X59875Y-113750
X59875Y-114750
X59875Y-115750
X59875Y-116750
X59875Y-117750
X59875Y-118750
X59875Y-119750
X59875Y-120750
X59875Y-121750
X59875Y-122750
X59875Y-123750
X59875Y-124750
X59875Y-125750
X59875Y-126750
X59875Y-127750
X59875Y-128750
X59875Y-129750
X59875Y-130750
X59875Y-131750
X59875Y-132750
X59875Y-133750
X59875Y-134750
X59875Y-135750
X60875Y-134750
X60875Y-135750
X61875Y-134750
X61875Y-135750
X62875Y-134750
X62875Y-135750
X63875Y-134750
X63875Y-135750
X64875Y-134750
X64875Y-135750
X65875Y-134750
X65875Y-135750
X66875Y-134750
X66875Y-135750
X67875Y-134750
X67875Y-135750
X68875Y-134750
X68875Y-135750
X69875Y-134750
X69875Y-135750
X70875Y-111750
X70875Y-111750
X70875Y-112750
X70875Y-112750
X70875Y-113750
X70875Y-114750
X70875Y-115750
X70875Y-116750
X70875Y-117750
X70875Y-118750
X70875Y-119750
X70875Y-120750
X70875Y-121750
X70875Y-122750
X70875Y-123750
X70875Y-124750
X70875Y-125750
X70875Y-126750
X70875Y-127750
X70875Y-128750
X70875Y-129750
X70875Y-130750
X70875Y-131750
X70875Y-132750
X70875Y-133750
X70875Y-134750
X70875Y-135750
X72375Y-121750
X72375Y-122750
X72375Y-123750
X72375Y-124750
X72375Y-125750
X72375Y-126750
X72375Y-127750
X72375Y-128750
X72375Y-129750
X72375Y-130750
X73625Y-121750
X73625Y-122750
X73625Y-123750
X73625Y-124750
X73625Y-125750
X73625Y-126750
X73625Y-127750
X73625Y-128750
X73625Y-129750
X73625Y-130750
X75125Y-111750
X75125Y-111750
X75125Y-112750
X75125Y-112750
X75125Y-113750
X75125Y-114750
X75125Y-115750
X75125Y-116750
X75125Y-117750
X75125Y-118750
X75125Y-119750
X75125Y-120750
X75125Y-121750
X75125Y-122750
X75125Y-123750
X75125Y-124750
X75125Y-125750
X75125Y-126750
X75125Y-127750
X75125Y-128750
X75125Y-129750
X75125Y-130750
X75125Y-131750
X75125Y-132750
X75125Y-133750
X75125Y-134750
X75125Y-135750
X76125Y-134750
X76125Y-135750
X77125Y-134750
X77125Y-135750
X78125Y-134750
X78125Y-135750
X79125Y-134750
X79125Y-135750
X80125Y-134750
X80125Y-135750
X81125Y-134750
X81125Y-135750
X82125Y-134750
X82125Y-135750
X83125Y-134750
X83125Y-135750
X84125Y-134750
X84125Y-135750
X85125Y-134750
X85125Y-135750
X86125Y-111750
X86125Y-111750
X86125Y-112750
X86125Y-112750
X86125Y-113750
X86125Y-114750
X86125Y-115750
X86125Y-116750
X86125Y-117750
X86125Y-118750
X86125Y-119750
X86125Y-120750
X86125Y-121750
X86125Y-122750
X86125Y-123750
X86125Y-124750
X86125Y-125750
X86125Y-126750
X86125Y-127750
X86125Y-128750
X86125Y-129750
X86125Y-130750
X86125Y-131750
X86125Y-132750
X86125Y-133750
X86125Y-134750
X86125Y-135750
X87625Y-121750
X87625Y-122750
X87625Y-123750
X87625Y-124750
X87625Y-125750
X87625Y-126750
X87625Y-127750
X87625Y-128750
X87625Y-129750
X87625Y-130750
X88875Y-121750
X88875Y-122750
X88875Y-123750
X88875Y-124750
X88875Y-125750
X88875Y-126750
X88875Y-127750
X88875Y-128750
X88875Y-129750
X88875Y-130750
X90375Y-111750
X90375Y-111750
X90375Y-112750
X90375Y-112750
X90375Y-113750
X90375Y-114750
X90375Y-115750
X90375Y-116750
X90375Y-117750
X90375Y-118750
X90375Y-119750
X90375Y-120750
X90375Y-121750
X90375Y-122750
X90375Y-123750
X90375Y-124750
X90375Y-125750
X90375Y-126750
X90375Y-127750
X90375Y-128750
X90375Y-129750
X90375Y-130750
X90375Y-131750
X90375Y-132750
X90375Y-133750
X90375Y-134750
X90375Y-135750
X91375Y-134750
X91375Y-135750
X92375Y-134750
X92375Y-135750
X93375Y-134750
X93375Y-135750
X94375Y-134750
X94375Y-135750
X95375Y-134750
X95375Y-135750
X96375Y-134750
X96375Y-135750
X97375Y-134750
X97375Y-135750
X98375Y-134750
X98375Y-135750
X99375Y-134750
X99375Y-135750
X100375Y-134750
X100375Y-135750
X101375Y-111750
X101375Y-111750
X101375Y-112750
X101375Y-112750
X101375Y-113750
X101375Y-114750
X101375Y-115750
X101375Y-116750
X101375Y-117750
X101375Y-118750
X101375Y-119750
X101375Y-120750
X101375Y-121750
X101375Y-122750
X101375Y-123750
X101375Y-124750
X101375Y-125750
X101375Y-126750
X101375Y-127750
X101375Y-128750
X101375Y-129750
X101375Y-130750
X101375Y-131750
X101375Y-132750
X101375Y-133750
X101375Y-134750
X101375Y-135750
X102875Y-121750
X102875Y-122750
X102875Y-123750
X102875Y-124750
X102875Y-125750
X102875Y-126750
X102875Y-127750
X102875Y-128750
X102875Y-129750
X102875Y-130750
X104125Y-121750
X104125Y-122750
X104125Y-123750
X104125Y-124750
X104125Y-125750
X104125Y-126750
X104125Y-127750
X104125Y-128750
X104125Y-129750
X104125Y-130750
X105625Y-111750
X105625Y-111750
X105625Y-112750
X105625Y-112750
X105625Y-113750
X105625Y-114750
X105625Y-115750
X105625Y-116750
X105625Y-117750
X105625Y-118750
X105625Y-119750
X105625Y-120750
X105625Y-121750
X105625Y-122750
X105625Y-123750
X105625Y-124750
X105625Y-125750
X105625Y-126750
X105625Y-127750
X105625Y-128750
X105625Y-129750
X105625Y-130750
X105625Y-131750
X105625Y-132750
X105625Y-133750
X105625Y-134750
X105625Y-135750
X106625Y-134750
X106625Y-135750
X107625Y-134750
X107625Y-135750
X108625Y-134750
X108625Y-135750
X109625Y-134750
X109625Y-135750
X110625Y-134750
X110625Y-135750
X111625Y-134750
X111625Y-135750
X112625Y-134750
X112625Y-135750
X113625Y-134750
X113625Y-135750
X114625Y-134750
X114625Y-135750
X115625Y-134750
X115625Y-135750
X116600Y-111750
X116600Y-111750
X116600Y-112750
X116600Y-112750
X116600Y-113750
X116600Y-114750
X116600Y-115750
X116600Y-116750
X116600Y-117750
X116600Y-118750
X116600Y-119750
X116600Y-120750
X116600Y-121750
X116600Y-122750
X116600Y-123750
X116600Y-124750
X116600Y-125750
X116600Y-126750
X116600Y-127750
X116600Y-128750
X116600Y-129750
X116600Y-130750
X116600Y-131750
X116600Y-132750
X116600Y-133750
X116600Y-134750
X116600Y-135750
X118125Y-121750
X118125Y-122750
X118125Y-123750
X118125Y-124750
X118125Y-125750
X118125Y-126750
X118125Y-127750
X118125Y-128750
X118125Y-129750
X118125Y-130750
X119250Y-121750
X119250Y-122750
X119250Y-123750
X119250Y-124750
X119250Y-125750
X119250Y-126750
X119250Y-127750
X119250Y-128750
X119250Y-129750
X119250Y-130750
X120875Y-111750
X120875Y-111750
X120875Y-112750
X120875Y-112750
X120875Y-113750
X120875Y-114750
X120875Y-115750
X120875Y-116750
X120875Y-117750
X120875Y-118750
X120875Y-119750
X120875Y-120750
X120875Y-121750
X120875Y-122750
X120875Y-123750
X120875Y-124750
X120875Y-125750
X120875Y-126750
X120875Y-127750
X120875Y-128750
X120875Y-129750
X120875Y-130750
X120875Y-131750
X120875Y-132750
X120875Y-133750
X120875Y-134750
X120875Y-135750
X121875Y-134750
X121875Y-135750
X122875Y-134750
X122875Y-135750
X123875Y-134750
X123875Y-135750
X124875Y-134750
X124875Y-135750
X125875Y-134750
X125875Y-135750
X126875Y-134750
X126875Y-135750
X127875Y-134750
X127875Y-135750
X128875Y-134750
X128875Y-135750
X129875Y-134750
X129875Y-135750
X130875Y-134750
X130875Y-135750
X131875Y-111750
X131875Y-111750
X131875Y-112750
X131875Y-112750
X131875Y-113750
X131875Y-114750
X131875Y-115750
X131875Y-116750
X131875Y-117750
X131875Y-118750
X131875Y-119750
X131875Y-120750
X131875Y-121750
X131875Y-122750
X131875Y-123750
X131875Y-124750
X131875Y-125750
X131875Y-126750
X131875Y-127750
X131875Y-128750
X131875Y-129750
X131875Y-130750
X131875Y-131750
X131875Y-132750
X131875Y-133750
X131875Y-134750
X131875Y-135750
X133375Y-121750
X133375Y-122750
X133375Y-123750
X133375Y-124750
X133375Y-125750
X133375Y-126750
X133375Y-127750
X133375Y-128750
X133375Y-129750
X133375Y-130750
T11
X14000Y-138500
X16000Y-138500
X18000Y-138500
X29500Y-138500
X31500Y-138500
X33500Y-138500
X44500Y-138500
X46500Y-138500
X48500Y-138500
X59750Y-138500
X61750Y-138500
X63750Y-138500
X67390Y-9750
X71130Y-9750
X74870Y-9750
X75000Y-138500
X77000Y-138500
X78610Y-9750
X79000Y-138500
X90250Y-138500
X92250Y-138500
X94250Y-138500
X105500Y-138500
X107500Y-138500
X109500Y-138500
X121000Y-138500
X123000Y-138500
X125000Y-138500
T12
X26913Y-153067
X32087Y-153067
X35913Y-153067
X41087Y-153067
T13
X35413Y-9819
X40587Y-9819
X45413Y-9819
X50587Y-9819
T14
X103900Y-8000
X107900Y-8000
X110000Y-11250
X114000Y-11250
T15
X12000Y-8500
X12000Y-96500
X12000Y-154500
X26700Y-56500
X54500Y-8500
X64000Y-146500
X73000Y-56500
X73000Y-72500
X73000Y-103000
X82000Y-146500
X91500Y-8500
X116000Y-86500
X119300Y-56500
X134000Y-8500
X134000Y-96500
X134000Y-154500
T0
M30
