G04 #@! TF.FileFunction,Drawing*
%FSLAX46Y46*%
G04 Gerber Fmt 4.6, Leading zero omitted, Abs format (unit mm)*
G04 Created by KiCad (PCBNEW 4.0.7) date Thursday, October 11, 2018 'PMt' 07:28:51 PM*
%MOMM*%
%LPD*%
G01*
G04 APERTURE LIST*
%ADD10C,0.100000*%
%ADD11C,0.300000*%
%ADD12C,0.203200*%
%ADD13C,0.150000*%
G04 APERTURE END LIST*
D10*
D11*
X180312858Y-409063571D02*
X179455715Y-409063571D01*
X179884287Y-409063571D02*
X179884287Y-407563571D01*
X179741430Y-407777857D01*
X179598572Y-407920714D01*
X179455715Y-407992143D01*
X180884286Y-407706429D02*
X180955715Y-407635000D01*
X181098572Y-407563571D01*
X181455715Y-407563571D01*
X181598572Y-407635000D01*
X181670001Y-407706429D01*
X181741429Y-407849286D01*
X181741429Y-407992143D01*
X181670001Y-408206429D01*
X180812858Y-409063571D01*
X181741429Y-409063571D01*
X182384286Y-408920714D02*
X182455714Y-408992143D01*
X182384286Y-409063571D01*
X182312857Y-408992143D01*
X182384286Y-408920714D01*
X182384286Y-409063571D01*
X183741429Y-407563571D02*
X183455715Y-407563571D01*
X183312858Y-407635000D01*
X183241429Y-407706429D01*
X183098572Y-407920714D01*
X183027143Y-408206429D01*
X183027143Y-408777857D01*
X183098572Y-408920714D01*
X183170000Y-408992143D01*
X183312858Y-409063571D01*
X183598572Y-409063571D01*
X183741429Y-408992143D01*
X183812858Y-408920714D01*
X183884286Y-408777857D01*
X183884286Y-408420714D01*
X183812858Y-408277857D01*
X183741429Y-408206429D01*
X183598572Y-408135000D01*
X183312858Y-408135000D01*
X183170000Y-408206429D01*
X183098572Y-408277857D01*
X183027143Y-408420714D01*
X184812857Y-407563571D02*
X184955714Y-407563571D01*
X185098571Y-407635000D01*
X185170000Y-407706429D01*
X185241429Y-407849286D01*
X185312857Y-408135000D01*
X185312857Y-408492143D01*
X185241429Y-408777857D01*
X185170000Y-408920714D01*
X185098571Y-408992143D01*
X184955714Y-409063571D01*
X184812857Y-409063571D01*
X184670000Y-408992143D01*
X184598571Y-408920714D01*
X184527143Y-408777857D01*
X184455714Y-408492143D01*
X184455714Y-408135000D01*
X184527143Y-407849286D01*
X184598571Y-407706429D01*
X184670000Y-407635000D01*
X184812857Y-407563571D01*
X186241428Y-407563571D02*
X186384285Y-407563571D01*
X186527142Y-407635000D01*
X186598571Y-407706429D01*
X186670000Y-407849286D01*
X186741428Y-408135000D01*
X186741428Y-408492143D01*
X186670000Y-408777857D01*
X186598571Y-408920714D01*
X186527142Y-408992143D01*
X186384285Y-409063571D01*
X186241428Y-409063571D01*
X186098571Y-408992143D01*
X186027142Y-408920714D01*
X185955714Y-408777857D01*
X185884285Y-408492143D01*
X185884285Y-408135000D01*
X185955714Y-407849286D01*
X186027142Y-407706429D01*
X186098571Y-407635000D01*
X186241428Y-407563571D01*
X187669999Y-407563571D02*
X187812856Y-407563571D01*
X187955713Y-407635000D01*
X188027142Y-407706429D01*
X188098571Y-407849286D01*
X188169999Y-408135000D01*
X188169999Y-408492143D01*
X188098571Y-408777857D01*
X188027142Y-408920714D01*
X187955713Y-408992143D01*
X187812856Y-409063571D01*
X187669999Y-409063571D01*
X187527142Y-408992143D01*
X187455713Y-408920714D01*
X187384285Y-408777857D01*
X187312856Y-408492143D01*
X187312856Y-408135000D01*
X187384285Y-407849286D01*
X187455713Y-407706429D01*
X187527142Y-407635000D01*
X187669999Y-407563571D01*
X189955713Y-409063571D02*
X189955713Y-408063571D01*
X189955713Y-407563571D02*
X189884284Y-407635000D01*
X189955713Y-407706429D01*
X190027141Y-407635000D01*
X189955713Y-407563571D01*
X189955713Y-407706429D01*
X190669999Y-408063571D02*
X190669999Y-409063571D01*
X190669999Y-408206429D02*
X190741427Y-408135000D01*
X190884285Y-408063571D01*
X191098570Y-408063571D01*
X191241427Y-408135000D01*
X191312856Y-408277857D01*
X191312856Y-409063571D01*
X25400000Y-407035000D02*
X345440000Y-407035000D01*
X25400000Y-399415000D02*
X25400000Y-409735000D01*
X345440000Y-399415000D02*
X345440000Y-409735000D01*
X345440000Y-407035000D02*
X344313496Y-407621421D01*
X345440000Y-407035000D02*
X344313496Y-406448579D01*
X25400000Y-407035000D02*
X26526504Y-407621421D01*
X25400000Y-407035000D02*
X26526504Y-406448579D01*
X353731429Y-201902858D02*
X353731429Y-201045715D01*
X353731429Y-201474287D02*
X355231429Y-201474287D01*
X355017143Y-201331430D01*
X354874286Y-201188572D01*
X354802857Y-201045715D01*
X355231429Y-203260001D02*
X355231429Y-202545715D01*
X354517143Y-202474286D01*
X354588571Y-202545715D01*
X354660000Y-202688572D01*
X354660000Y-203045715D01*
X354588571Y-203188572D01*
X354517143Y-203260001D01*
X354374286Y-203331429D01*
X354017143Y-203331429D01*
X353874286Y-203260001D01*
X353802857Y-203188572D01*
X353731429Y-203045715D01*
X353731429Y-202688572D01*
X353802857Y-202545715D01*
X353874286Y-202474286D01*
X353874286Y-203974286D02*
X353802857Y-204045714D01*
X353731429Y-203974286D01*
X353802857Y-203902857D01*
X353874286Y-203974286D01*
X353731429Y-203974286D01*
X355231429Y-204974286D02*
X355231429Y-205117143D01*
X355160000Y-205260000D01*
X355088571Y-205331429D01*
X354945714Y-205402858D01*
X354660000Y-205474286D01*
X354302857Y-205474286D01*
X354017143Y-205402858D01*
X353874286Y-205331429D01*
X353802857Y-205260000D01*
X353731429Y-205117143D01*
X353731429Y-204974286D01*
X353802857Y-204831429D01*
X353874286Y-204760000D01*
X354017143Y-204688572D01*
X354302857Y-204617143D01*
X354660000Y-204617143D01*
X354945714Y-204688572D01*
X355088571Y-204760000D01*
X355160000Y-204831429D01*
X355231429Y-204974286D01*
X355231429Y-206402857D02*
X355231429Y-206545714D01*
X355160000Y-206688571D01*
X355088571Y-206760000D01*
X354945714Y-206831429D01*
X354660000Y-206902857D01*
X354302857Y-206902857D01*
X354017143Y-206831429D01*
X353874286Y-206760000D01*
X353802857Y-206688571D01*
X353731429Y-206545714D01*
X353731429Y-206402857D01*
X353802857Y-206260000D01*
X353874286Y-206188571D01*
X354017143Y-206117143D01*
X354302857Y-206045714D01*
X354660000Y-206045714D01*
X354945714Y-206117143D01*
X355088571Y-206188571D01*
X355160000Y-206260000D01*
X355231429Y-206402857D01*
X355231429Y-207831428D02*
X355231429Y-207974285D01*
X355160000Y-208117142D01*
X355088571Y-208188571D01*
X354945714Y-208260000D01*
X354660000Y-208331428D01*
X354302857Y-208331428D01*
X354017143Y-208260000D01*
X353874286Y-208188571D01*
X353802857Y-208117142D01*
X353731429Y-207974285D01*
X353731429Y-207831428D01*
X353802857Y-207688571D01*
X353874286Y-207617142D01*
X354017143Y-207545714D01*
X354302857Y-207474285D01*
X354660000Y-207474285D01*
X354945714Y-207545714D01*
X355088571Y-207617142D01*
X355160000Y-207688571D01*
X355231429Y-207831428D01*
X355231429Y-209259999D02*
X355231429Y-209402856D01*
X355160000Y-209545713D01*
X355088571Y-209617142D01*
X354945714Y-209688571D01*
X354660000Y-209759999D01*
X354302857Y-209759999D01*
X354017143Y-209688571D01*
X353874286Y-209617142D01*
X353802857Y-209545713D01*
X353731429Y-209402856D01*
X353731429Y-209259999D01*
X353802857Y-209117142D01*
X353874286Y-209045713D01*
X354017143Y-208974285D01*
X354302857Y-208902856D01*
X354660000Y-208902856D01*
X354945714Y-208974285D01*
X355088571Y-209045713D01*
X355160000Y-209117142D01*
X355231429Y-209259999D01*
X353731429Y-211545713D02*
X354731429Y-211545713D01*
X355231429Y-211545713D02*
X355160000Y-211474284D01*
X355088571Y-211545713D01*
X355160000Y-211617141D01*
X355231429Y-211545713D01*
X355088571Y-211545713D01*
X354731429Y-212259999D02*
X353731429Y-212259999D01*
X354588571Y-212259999D02*
X354660000Y-212331427D01*
X354731429Y-212474285D01*
X354731429Y-212688570D01*
X354660000Y-212831427D01*
X354517143Y-212902856D01*
X353731429Y-212902856D01*
X353060000Y-16510000D02*
X353060000Y-397510000D01*
X347980000Y-16510000D02*
X355760000Y-16510000D01*
X347980000Y-397510000D02*
X355760000Y-397510000D01*
X353060000Y-397510000D02*
X352473579Y-396383496D01*
X353060000Y-397510000D02*
X353646421Y-396383496D01*
X353060000Y-16510000D02*
X352473579Y-17636504D01*
X353060000Y-16510000D02*
X353646421Y-17636504D01*
D12*
X379911429Y-216175771D02*
X379064762Y-216175771D01*
X379064762Y-217506248D02*
X379064762Y-214966248D01*
X380274286Y-214966248D01*
X381725714Y-216296724D02*
X381725714Y-217506248D01*
X380879048Y-214966248D02*
X381725714Y-216296724D01*
X382572381Y-214966248D01*
X383419048Y-217506248D02*
X383419048Y-214966248D01*
X384870476Y-217506248D01*
X384870476Y-214966248D01*
X387531428Y-217264343D02*
X387410476Y-217385295D01*
X387047619Y-217506248D01*
X386805714Y-217506248D01*
X386442857Y-217385295D01*
X386200952Y-217143390D01*
X386080000Y-216901486D01*
X385959048Y-216417676D01*
X385959048Y-216054819D01*
X386080000Y-215571010D01*
X386200952Y-215329105D01*
X386442857Y-215087200D01*
X386805714Y-214966248D01*
X387047619Y-214966248D01*
X387410476Y-215087200D01*
X387531428Y-215208152D01*
X388620000Y-217506248D02*
X388620000Y-214966248D01*
X388620000Y-216175771D02*
X390071428Y-216175771D01*
X390071428Y-217506248D02*
X390071428Y-214966248D01*
X394062857Y-216175771D02*
X394425714Y-216296724D01*
X394546666Y-216417676D01*
X394667618Y-216659581D01*
X394667618Y-217022438D01*
X394546666Y-217264343D01*
X394425714Y-217385295D01*
X394183809Y-217506248D01*
X393216190Y-217506248D01*
X393216190Y-214966248D01*
X394062857Y-214966248D01*
X394304761Y-215087200D01*
X394425714Y-215208152D01*
X394546666Y-215450057D01*
X394546666Y-215691962D01*
X394425714Y-215933867D01*
X394304761Y-216054819D01*
X394062857Y-216175771D01*
X393216190Y-216175771D01*
X395756190Y-217506248D02*
X395756190Y-214966248D01*
X397449523Y-214966248D02*
X397933333Y-214966248D01*
X398175238Y-215087200D01*
X398417142Y-215329105D01*
X398538095Y-215812914D01*
X398538095Y-216659581D01*
X398417142Y-217143390D01*
X398175238Y-217385295D01*
X397933333Y-217506248D01*
X397449523Y-217506248D01*
X397207619Y-217385295D01*
X396965714Y-217143390D01*
X396844762Y-216659581D01*
X396844762Y-215812914D01*
X396965714Y-215329105D01*
X397207619Y-215087200D01*
X397449523Y-214966248D01*
X399505714Y-217385295D02*
X399868571Y-217506248D01*
X400473333Y-217506248D01*
X400715237Y-217385295D01*
X400836190Y-217264343D01*
X400957142Y-217022438D01*
X400957142Y-216780533D01*
X400836190Y-216538629D01*
X400715237Y-216417676D01*
X400473333Y-216296724D01*
X399989523Y-216175771D01*
X399747618Y-216054819D01*
X399626666Y-215933867D01*
X399505714Y-215691962D01*
X399505714Y-215450057D01*
X399626666Y-215208152D01*
X399747618Y-215087200D01*
X399989523Y-214966248D01*
X400594285Y-214966248D01*
X400957142Y-215087200D01*
X403497142Y-217264343D02*
X403376190Y-217385295D01*
X403013333Y-217506248D01*
X402771428Y-217506248D01*
X402408571Y-217385295D01*
X402166666Y-217143390D01*
X402045714Y-216901486D01*
X401924762Y-216417676D01*
X401924762Y-216054819D01*
X402045714Y-215571010D01*
X402166666Y-215329105D01*
X402408571Y-215087200D01*
X402771428Y-214966248D01*
X403013333Y-214966248D01*
X403376190Y-215087200D01*
X403497142Y-215208152D01*
X404585714Y-217506248D02*
X404585714Y-214966248D01*
X405795238Y-216175771D02*
X406641905Y-216175771D01*
X407004762Y-217506248D02*
X405795238Y-217506248D01*
X405795238Y-214966248D01*
X407004762Y-214966248D01*
X408093333Y-217506248D02*
X408093333Y-214966248D01*
X409544761Y-217506248D01*
X409544761Y-214966248D01*
X412205713Y-217264343D02*
X412084761Y-217385295D01*
X411721904Y-217506248D01*
X411479999Y-217506248D01*
X411117142Y-217385295D01*
X410875237Y-217143390D01*
X410754285Y-216901486D01*
X410633333Y-216417676D01*
X410633333Y-216054819D01*
X410754285Y-215571010D01*
X410875237Y-215329105D01*
X411117142Y-215087200D01*
X411479999Y-214966248D01*
X411721904Y-214966248D01*
X412084761Y-215087200D01*
X412205713Y-215208152D01*
X413294285Y-216175771D02*
X414140952Y-216175771D01*
X414503809Y-217506248D02*
X413294285Y-217506248D01*
X413294285Y-214966248D01*
X414503809Y-214966248D01*
X415471428Y-217385295D02*
X415834285Y-217506248D01*
X416439047Y-217506248D01*
X416680951Y-217385295D01*
X416801904Y-217264343D01*
X416922856Y-217022438D01*
X416922856Y-216780533D01*
X416801904Y-216538629D01*
X416680951Y-216417676D01*
X416439047Y-216296724D01*
X415955237Y-216175771D01*
X415713332Y-216054819D01*
X415592380Y-215933867D01*
X415471428Y-215691962D01*
X415471428Y-215450057D01*
X415592380Y-215208152D01*
X415713332Y-215087200D01*
X415955237Y-214966248D01*
X416559999Y-214966248D01*
X416922856Y-215087200D01*
X380032381Y-221398495D02*
X379790476Y-221519448D01*
X379306667Y-221519448D01*
X379064762Y-221398495D01*
X378943810Y-221156590D01*
X378943810Y-220188971D01*
X379064762Y-219947067D01*
X379306667Y-219826114D01*
X379790476Y-219826114D01*
X380032381Y-219947067D01*
X380153333Y-220188971D01*
X380153333Y-220430876D01*
X378943810Y-220672781D01*
X380879048Y-218979448D02*
X381725714Y-221519448D01*
X382572381Y-218979448D01*
X383902857Y-218979448D02*
X384386667Y-218979448D01*
X384628572Y-219100400D01*
X384870476Y-219342305D01*
X384991429Y-219826114D01*
X384991429Y-220672781D01*
X384870476Y-221156590D01*
X384628572Y-221398495D01*
X384386667Y-221519448D01*
X383902857Y-221519448D01*
X383660953Y-221398495D01*
X383419048Y-221156590D01*
X383298096Y-220672781D01*
X383298096Y-219826114D01*
X383419048Y-219342305D01*
X383660953Y-219100400D01*
X383902857Y-218979448D01*
X387289524Y-221519448D02*
X386080000Y-221519448D01*
X386080000Y-218979448D01*
X387773333Y-218979448D02*
X388619999Y-221519448D01*
X389466666Y-218979448D01*
X390313333Y-220188971D02*
X391160000Y-220188971D01*
X391522857Y-221519448D02*
X390313333Y-221519448D01*
X390313333Y-218979448D01*
X391522857Y-218979448D01*
X394062856Y-221519448D02*
X393216190Y-220309924D01*
X392611428Y-221519448D02*
X392611428Y-218979448D01*
X393579047Y-218979448D01*
X393820952Y-219100400D01*
X393941904Y-219221352D01*
X394062856Y-219463257D01*
X394062856Y-219826114D01*
X393941904Y-220068019D01*
X393820952Y-220188971D01*
X393579047Y-220309924D01*
X392611428Y-220309924D01*
X379064762Y-229545848D02*
X379064762Y-227005848D01*
X380032381Y-227005848D01*
X380274286Y-227126800D01*
X380395238Y-227247752D01*
X380516190Y-227489657D01*
X380516190Y-227852514D01*
X380395238Y-228094419D01*
X380274286Y-228215371D01*
X380032381Y-228336324D01*
X379064762Y-228336324D01*
X383419048Y-226884895D02*
X381241905Y-230150610D01*
X384265714Y-229545848D02*
X384265714Y-227005848D01*
X385717142Y-229545848D01*
X385717142Y-227005848D01*
X388861904Y-228215371D02*
X389708571Y-228215371D01*
X390071428Y-229545848D02*
X388861904Y-229545848D01*
X388861904Y-227005848D01*
X390071428Y-227005848D01*
X390797142Y-227005848D02*
X391643808Y-229545848D01*
X392490475Y-227005848D01*
X393337142Y-228578229D02*
X395272380Y-228578229D01*
X396481904Y-229545848D02*
X396481904Y-227005848D01*
X397328571Y-228820133D01*
X398175237Y-227005848D01*
X398175237Y-229545848D01*
X400231428Y-228215371D02*
X400594285Y-228336324D01*
X400715237Y-228457276D01*
X400836189Y-228699181D01*
X400836189Y-229062038D01*
X400715237Y-229303943D01*
X400594285Y-229424895D01*
X400352380Y-229545848D01*
X399384761Y-229545848D01*
X399384761Y-227005848D01*
X400231428Y-227005848D01*
X400473332Y-227126800D01*
X400594285Y-227247752D01*
X400715237Y-227489657D01*
X400715237Y-227731562D01*
X400594285Y-227973467D01*
X400473332Y-228094419D01*
X400231428Y-228215371D01*
X399384761Y-228215371D01*
X405311427Y-229545848D02*
X404464761Y-228336324D01*
X403859999Y-229545848D02*
X403859999Y-227005848D01*
X404827618Y-227005848D01*
X405069523Y-227126800D01*
X405190475Y-227247752D01*
X405311427Y-227489657D01*
X405311427Y-227852514D01*
X405190475Y-228094419D01*
X405069523Y-228215371D01*
X404827618Y-228336324D01*
X403859999Y-228336324D01*
X407367618Y-229424895D02*
X407125713Y-229545848D01*
X406641904Y-229545848D01*
X406399999Y-229424895D01*
X406279047Y-229182990D01*
X406279047Y-228215371D01*
X406399999Y-227973467D01*
X406641904Y-227852514D01*
X407125713Y-227852514D01*
X407367618Y-227973467D01*
X407488570Y-228215371D01*
X407488570Y-228457276D01*
X406279047Y-228699181D01*
X408335237Y-227852514D02*
X408939999Y-229545848D01*
X409544761Y-227852514D01*
X412447618Y-229545848D02*
X412447618Y-227005848D01*
X413052380Y-227005848D01*
X413415237Y-227126800D01*
X413657142Y-227368705D01*
X413778094Y-227610610D01*
X413899046Y-228094419D01*
X413899046Y-228457276D01*
X413778094Y-228941086D01*
X413657142Y-229182990D01*
X413415237Y-229424895D01*
X413052380Y-229545848D01*
X412447618Y-229545848D01*
X380153333Y-231865714D02*
X380153333Y-233559048D01*
X379548571Y-230898095D02*
X378943810Y-232712381D01*
X380516190Y-232712381D01*
X384628572Y-233559048D02*
X383419048Y-233559048D01*
X383419048Y-231019048D01*
X386563809Y-233559048D02*
X386563809Y-232228571D01*
X386442857Y-231986667D01*
X386200952Y-231865714D01*
X385717143Y-231865714D01*
X385475238Y-231986667D01*
X386563809Y-233438095D02*
X386321905Y-233559048D01*
X385717143Y-233559048D01*
X385475238Y-233438095D01*
X385354286Y-233196190D01*
X385354286Y-232954286D01*
X385475238Y-232712381D01*
X385717143Y-232591429D01*
X386321905Y-232591429D01*
X386563809Y-232470476D01*
X387531428Y-231865714D02*
X388136190Y-233559048D01*
X388740952Y-231865714D02*
X388136190Y-233559048D01*
X387894285Y-234163810D01*
X387773333Y-234284762D01*
X387531428Y-234405714D01*
X390676190Y-233438095D02*
X390434285Y-233559048D01*
X389950476Y-233559048D01*
X389708571Y-233438095D01*
X389587619Y-233196190D01*
X389587619Y-232228571D01*
X389708571Y-231986667D01*
X389950476Y-231865714D01*
X390434285Y-231865714D01*
X390676190Y-231986667D01*
X390797142Y-232228571D01*
X390797142Y-232470476D01*
X389587619Y-232712381D01*
X391885714Y-233559048D02*
X391885714Y-231865714D01*
X391885714Y-232349524D02*
X392006666Y-232107619D01*
X392127619Y-231986667D01*
X392369523Y-231865714D01*
X392611428Y-231865714D01*
X396240000Y-232228571D02*
X395393333Y-232228571D01*
X395393333Y-233559048D02*
X395393333Y-231019048D01*
X396602857Y-231019048D01*
X399021904Y-233559048D02*
X398175238Y-232349524D01*
X397570476Y-233559048D02*
X397570476Y-231019048D01*
X398538095Y-231019048D01*
X398780000Y-231140000D01*
X398900952Y-231260952D01*
X399021904Y-231502857D01*
X399021904Y-231865714D01*
X398900952Y-232107619D01*
X398780000Y-232228571D01*
X398538095Y-232349524D01*
X397570476Y-232349524D01*
X400110476Y-232591429D02*
X402045714Y-232591429D01*
X404343809Y-231865714D02*
X404343809Y-233559048D01*
X403739047Y-230898095D02*
X403134286Y-232712381D01*
X404706666Y-232712381D01*
X379911429Y-236241771D02*
X379064762Y-236241771D01*
X379064762Y-237572248D02*
X379064762Y-235032248D01*
X380274286Y-235032248D01*
X381241905Y-237572248D02*
X381241905Y-235878914D01*
X381241905Y-235032248D02*
X381120953Y-235153200D01*
X381241905Y-235274152D01*
X381362857Y-235153200D01*
X381241905Y-235032248D01*
X381241905Y-235274152D01*
X382451429Y-235878914D02*
X382451429Y-237572248D01*
X382451429Y-236120819D02*
X382572381Y-235999867D01*
X382814286Y-235878914D01*
X383177143Y-235878914D01*
X383419048Y-235999867D01*
X383540000Y-236241771D01*
X383540000Y-237572248D01*
X385838095Y-237572248D02*
X385838095Y-236241771D01*
X385717143Y-235999867D01*
X385475238Y-235878914D01*
X384991429Y-235878914D01*
X384749524Y-235999867D01*
X385838095Y-237451295D02*
X385596191Y-237572248D01*
X384991429Y-237572248D01*
X384749524Y-237451295D01*
X384628572Y-237209390D01*
X384628572Y-236967486D01*
X384749524Y-236725581D01*
X384991429Y-236604629D01*
X385596191Y-236604629D01*
X385838095Y-236483676D01*
X387410476Y-237572248D02*
X387168571Y-237451295D01*
X387047619Y-237209390D01*
X387047619Y-235032248D01*
X389950476Y-235878914D02*
X390918095Y-235878914D01*
X390313333Y-235032248D02*
X390313333Y-237209390D01*
X390434285Y-237451295D01*
X390676190Y-237572248D01*
X390918095Y-237572248D01*
X391764762Y-237572248D02*
X391764762Y-235032248D01*
X392853333Y-237572248D02*
X392853333Y-236241771D01*
X392732381Y-235999867D01*
X392490476Y-235878914D01*
X392127619Y-235878914D01*
X391885714Y-235999867D01*
X391764762Y-236120819D01*
X394062857Y-237572248D02*
X394062857Y-235878914D01*
X394062857Y-235032248D02*
X393941905Y-235153200D01*
X394062857Y-235274152D01*
X394183809Y-235153200D01*
X394062857Y-235032248D01*
X394062857Y-235274152D01*
X396360952Y-237451295D02*
X396119048Y-237572248D01*
X395635238Y-237572248D01*
X395393333Y-237451295D01*
X395272381Y-237330343D01*
X395151429Y-237088438D01*
X395151429Y-236362724D01*
X395272381Y-236120819D01*
X395393333Y-235999867D01*
X395635238Y-235878914D01*
X396119048Y-235878914D01*
X396360952Y-235999867D01*
X397449524Y-237572248D02*
X397449524Y-235032248D01*
X397691429Y-236604629D02*
X398417143Y-237572248D01*
X398417143Y-235878914D02*
X397449524Y-236846533D01*
X399505714Y-235878914D02*
X399505714Y-237572248D01*
X399505714Y-236120819D02*
X399626666Y-235999867D01*
X399868571Y-235878914D01*
X400231428Y-235878914D01*
X400473333Y-235999867D01*
X400594285Y-236241771D01*
X400594285Y-237572248D01*
X402771428Y-237451295D02*
X402529523Y-237572248D01*
X402045714Y-237572248D01*
X401803809Y-237451295D01*
X401682857Y-237209390D01*
X401682857Y-236241771D01*
X401803809Y-235999867D01*
X402045714Y-235878914D01*
X402529523Y-235878914D01*
X402771428Y-235999867D01*
X402892380Y-236241771D01*
X402892380Y-236483676D01*
X401682857Y-236725581D01*
X403860000Y-237451295D02*
X404101904Y-237572248D01*
X404585714Y-237572248D01*
X404827619Y-237451295D01*
X404948571Y-237209390D01*
X404948571Y-237088438D01*
X404827619Y-236846533D01*
X404585714Y-236725581D01*
X404222857Y-236725581D01*
X403980952Y-236604629D01*
X403860000Y-236362724D01*
X403860000Y-236241771D01*
X403980952Y-235999867D01*
X404222857Y-235878914D01*
X404585714Y-235878914D01*
X404827619Y-235999867D01*
X405916190Y-237451295D02*
X406158094Y-237572248D01*
X406641904Y-237572248D01*
X406883809Y-237451295D01*
X407004761Y-237209390D01*
X407004761Y-237088438D01*
X406883809Y-236846533D01*
X406641904Y-236725581D01*
X406279047Y-236725581D01*
X406037142Y-236604629D01*
X405916190Y-236362724D01*
X405916190Y-236241771D01*
X406037142Y-235999867D01*
X406279047Y-235878914D01*
X406641904Y-235878914D01*
X406883809Y-235999867D01*
X410512379Y-235032248D02*
X410754284Y-235032248D01*
X410996189Y-235153200D01*
X411117141Y-235274152D01*
X411238094Y-235516057D01*
X411359046Y-235999867D01*
X411359046Y-236604629D01*
X411238094Y-237088438D01*
X411117141Y-237330343D01*
X410996189Y-237451295D01*
X410754284Y-237572248D01*
X410512379Y-237572248D01*
X410270475Y-237451295D01*
X410149522Y-237330343D01*
X410028570Y-237088438D01*
X409907618Y-236604629D01*
X409907618Y-235999867D01*
X410028570Y-235516057D01*
X410149522Y-235274152D01*
X410270475Y-235153200D01*
X410512379Y-235032248D01*
X412447618Y-237330343D02*
X412568570Y-237451295D01*
X412447618Y-237572248D01*
X412326666Y-237451295D01*
X412447618Y-237330343D01*
X412447618Y-237572248D01*
X414140951Y-235032248D02*
X414382856Y-235032248D01*
X414624761Y-235153200D01*
X414745713Y-235274152D01*
X414866666Y-235516057D01*
X414987618Y-235999867D01*
X414987618Y-236604629D01*
X414866666Y-237088438D01*
X414745713Y-237330343D01*
X414624761Y-237451295D01*
X414382856Y-237572248D01*
X414140951Y-237572248D01*
X413899047Y-237451295D01*
X413778094Y-237330343D01*
X413657142Y-237088438D01*
X413536190Y-236604629D01*
X413536190Y-235999867D01*
X413657142Y-235516057D01*
X413778094Y-235274152D01*
X413899047Y-235153200D01*
X414140951Y-235032248D01*
X417164761Y-235032248D02*
X416680952Y-235032248D01*
X416439047Y-235153200D01*
X416318095Y-235274152D01*
X416076190Y-235637010D01*
X415955238Y-236120819D01*
X415955238Y-237088438D01*
X416076190Y-237330343D01*
X416197142Y-237451295D01*
X416439047Y-237572248D01*
X416922857Y-237572248D01*
X417164761Y-237451295D01*
X417285714Y-237330343D01*
X417406666Y-237088438D01*
X417406666Y-236483676D01*
X417285714Y-236241771D01*
X417164761Y-236120819D01*
X416922857Y-235999867D01*
X416439047Y-235999867D01*
X416197142Y-236120819D01*
X416076190Y-236241771D01*
X415955238Y-236483676D01*
X418253333Y-235032248D02*
X419825714Y-235032248D01*
X418979047Y-235999867D01*
X419341905Y-235999867D01*
X419583809Y-236120819D01*
X419704762Y-236241771D01*
X419825714Y-236483676D01*
X419825714Y-237088438D01*
X419704762Y-237330343D01*
X419583809Y-237451295D01*
X419341905Y-237572248D01*
X418616190Y-237572248D01*
X418374286Y-237451295D01*
X418253333Y-237330343D01*
X380395238Y-241585448D02*
X378943810Y-241585448D01*
X379669524Y-241585448D02*
X379669524Y-239045448D01*
X379427619Y-239408305D01*
X379185714Y-239650210D01*
X378943810Y-239771162D01*
X383781905Y-241585448D02*
X383540000Y-241464495D01*
X383419048Y-241343543D01*
X383298096Y-241101638D01*
X383298096Y-240375924D01*
X383419048Y-240134019D01*
X383540000Y-240013067D01*
X383781905Y-239892114D01*
X384144762Y-239892114D01*
X384386667Y-240013067D01*
X384507619Y-240134019D01*
X384628572Y-240375924D01*
X384628572Y-241101638D01*
X384507619Y-241343543D01*
X384386667Y-241464495D01*
X384144762Y-241585448D01*
X383781905Y-241585448D01*
X385475238Y-239892114D02*
X386805714Y-239892114D01*
X385475238Y-241585448D01*
X386805714Y-241585448D01*
X390797142Y-241464495D02*
X390555238Y-241585448D01*
X390071428Y-241585448D01*
X389829523Y-241464495D01*
X389708571Y-241343543D01*
X389587619Y-241101638D01*
X389587619Y-240375924D01*
X389708571Y-240134019D01*
X389829523Y-240013067D01*
X390071428Y-239892114D01*
X390555238Y-239892114D01*
X390797142Y-240013067D01*
X392248571Y-241585448D02*
X392006666Y-241464495D01*
X391885714Y-241343543D01*
X391764762Y-241101638D01*
X391764762Y-240375924D01*
X391885714Y-240134019D01*
X392006666Y-240013067D01*
X392248571Y-239892114D01*
X392611428Y-239892114D01*
X392853333Y-240013067D01*
X392974285Y-240134019D01*
X393095238Y-240375924D01*
X393095238Y-241101638D01*
X392974285Y-241343543D01*
X392853333Y-241464495D01*
X392611428Y-241585448D01*
X392248571Y-241585448D01*
X394183809Y-239892114D02*
X394183809Y-242432114D01*
X394183809Y-240013067D02*
X394425714Y-239892114D01*
X394909523Y-239892114D01*
X395151428Y-240013067D01*
X395272380Y-240134019D01*
X395393333Y-240375924D01*
X395393333Y-241101638D01*
X395272380Y-241343543D01*
X395151428Y-241464495D01*
X394909523Y-241585448D01*
X394425714Y-241585448D01*
X394183809Y-241464495D01*
X396481904Y-239892114D02*
X396481904Y-242432114D01*
X396481904Y-240013067D02*
X396723809Y-239892114D01*
X397207618Y-239892114D01*
X397449523Y-240013067D01*
X397570475Y-240134019D01*
X397691428Y-240375924D01*
X397691428Y-241101638D01*
X397570475Y-241343543D01*
X397449523Y-241464495D01*
X397207618Y-241585448D01*
X396723809Y-241585448D01*
X396481904Y-241464495D01*
X399747618Y-241464495D02*
X399505713Y-241585448D01*
X399021904Y-241585448D01*
X398779999Y-241464495D01*
X398659047Y-241222590D01*
X398659047Y-240254971D01*
X398779999Y-240013067D01*
X399021904Y-239892114D01*
X399505713Y-239892114D01*
X399747618Y-240013067D01*
X399868570Y-240254971D01*
X399868570Y-240496876D01*
X398659047Y-240738781D01*
X400957142Y-241585448D02*
X400957142Y-239892114D01*
X400957142Y-240375924D02*
X401078094Y-240134019D01*
X401199047Y-240013067D01*
X401440951Y-239892114D01*
X401682856Y-239892114D01*
X378943810Y-245477695D02*
X379306667Y-245598648D01*
X379911429Y-245598648D01*
X380153333Y-245477695D01*
X380274286Y-245356743D01*
X380395238Y-245114838D01*
X380395238Y-244872933D01*
X380274286Y-244631029D01*
X380153333Y-244510076D01*
X379911429Y-244389124D01*
X379427619Y-244268171D01*
X379185714Y-244147219D01*
X379064762Y-244026267D01*
X378943810Y-243784362D01*
X378943810Y-243542457D01*
X379064762Y-243300552D01*
X379185714Y-243179600D01*
X379427619Y-243058648D01*
X380032381Y-243058648D01*
X380395238Y-243179600D01*
X381846667Y-245598648D02*
X381604762Y-245477695D01*
X381483810Y-245356743D01*
X381362858Y-245114838D01*
X381362858Y-244389124D01*
X381483810Y-244147219D01*
X381604762Y-244026267D01*
X381846667Y-243905314D01*
X382209524Y-243905314D01*
X382451429Y-244026267D01*
X382572381Y-244147219D01*
X382693334Y-244389124D01*
X382693334Y-245114838D01*
X382572381Y-245356743D01*
X382451429Y-245477695D01*
X382209524Y-245598648D01*
X381846667Y-245598648D01*
X384144762Y-245598648D02*
X383902857Y-245477695D01*
X383781905Y-245235790D01*
X383781905Y-243058648D01*
X386200952Y-245598648D02*
X386200952Y-243058648D01*
X386200952Y-245477695D02*
X385959048Y-245598648D01*
X385475238Y-245598648D01*
X385233333Y-245477695D01*
X385112381Y-245356743D01*
X384991429Y-245114838D01*
X384991429Y-244389124D01*
X385112381Y-244147219D01*
X385233333Y-244026267D01*
X385475238Y-243905314D01*
X385959048Y-243905314D01*
X386200952Y-244026267D01*
X388378095Y-245477695D02*
X388136190Y-245598648D01*
X387652381Y-245598648D01*
X387410476Y-245477695D01*
X387289524Y-245235790D01*
X387289524Y-244268171D01*
X387410476Y-244026267D01*
X387652381Y-243905314D01*
X388136190Y-243905314D01*
X388378095Y-244026267D01*
X388499047Y-244268171D01*
X388499047Y-244510076D01*
X387289524Y-244751981D01*
X389587619Y-245598648D02*
X389587619Y-243905314D01*
X389587619Y-244389124D02*
X389708571Y-244147219D01*
X389829524Y-244026267D01*
X390071428Y-243905314D01*
X390313333Y-243905314D01*
X391160000Y-245598648D02*
X391160000Y-243905314D01*
X391160000Y-244147219D02*
X391280952Y-244026267D01*
X391522857Y-243905314D01*
X391885714Y-243905314D01*
X392127619Y-244026267D01*
X392248571Y-244268171D01*
X392248571Y-245598648D01*
X392248571Y-244268171D02*
X392369524Y-244026267D01*
X392611428Y-243905314D01*
X392974286Y-243905314D01*
X393216190Y-244026267D01*
X393337143Y-244268171D01*
X393337143Y-245598648D01*
X395635238Y-245598648D02*
X395635238Y-244268171D01*
X395514286Y-244026267D01*
X395272381Y-243905314D01*
X394788572Y-243905314D01*
X394546667Y-244026267D01*
X395635238Y-245477695D02*
X395393334Y-245598648D01*
X394788572Y-245598648D01*
X394546667Y-245477695D01*
X394425715Y-245235790D01*
X394425715Y-244993886D01*
X394546667Y-244751981D01*
X394788572Y-244631029D01*
X395393334Y-244631029D01*
X395635238Y-244510076D01*
X396723810Y-245477695D02*
X396965714Y-245598648D01*
X397449524Y-245598648D01*
X397691429Y-245477695D01*
X397812381Y-245235790D01*
X397812381Y-245114838D01*
X397691429Y-244872933D01*
X397449524Y-244751981D01*
X397086667Y-244751981D01*
X396844762Y-244631029D01*
X396723810Y-244389124D01*
X396723810Y-244268171D01*
X396844762Y-244026267D01*
X397086667Y-243905314D01*
X397449524Y-243905314D01*
X397691429Y-244026267D01*
X398900952Y-245598648D02*
X398900952Y-243058648D01*
X399142857Y-244631029D02*
X399868571Y-245598648D01*
X399868571Y-243905314D02*
X398900952Y-244872933D01*
X402892380Y-245598648D02*
X402892380Y-243058648D01*
X402892380Y-244026267D02*
X403134285Y-243905314D01*
X403618094Y-243905314D01*
X403859999Y-244026267D01*
X403980951Y-244147219D01*
X404101904Y-244389124D01*
X404101904Y-245114838D01*
X403980951Y-245356743D01*
X403859999Y-245477695D01*
X403618094Y-245598648D01*
X403134285Y-245598648D01*
X402892380Y-245477695D01*
X405553332Y-245598648D02*
X405311427Y-245477695D01*
X405190475Y-245356743D01*
X405069523Y-245114838D01*
X405069523Y-244389124D01*
X405190475Y-244147219D01*
X405311427Y-244026267D01*
X405553332Y-243905314D01*
X405916189Y-243905314D01*
X406158094Y-244026267D01*
X406279046Y-244147219D01*
X406399999Y-244389124D01*
X406399999Y-245114838D01*
X406279046Y-245356743D01*
X406158094Y-245477695D01*
X405916189Y-245598648D01*
X405553332Y-245598648D01*
X407125713Y-243905314D02*
X408093332Y-243905314D01*
X407488570Y-243058648D02*
X407488570Y-245235790D01*
X407609522Y-245477695D01*
X407851427Y-245598648D01*
X408093332Y-245598648D01*
X408939999Y-245598648D02*
X408939999Y-243058648D01*
X410028570Y-245598648D02*
X410028570Y-244268171D01*
X409907618Y-244026267D01*
X409665713Y-243905314D01*
X409302856Y-243905314D01*
X409060951Y-244026267D01*
X408939999Y-244147219D01*
X413052380Y-245477695D02*
X413294284Y-245598648D01*
X413778094Y-245598648D01*
X414019999Y-245477695D01*
X414140951Y-245235790D01*
X414140951Y-245114838D01*
X414019999Y-244872933D01*
X413778094Y-244751981D01*
X413415237Y-244751981D01*
X413173332Y-244631029D01*
X413052380Y-244389124D01*
X413052380Y-244268171D01*
X413173332Y-244026267D01*
X413415237Y-243905314D01*
X413778094Y-243905314D01*
X414019999Y-244026267D01*
X415229522Y-245598648D02*
X415229522Y-243905314D01*
X415229522Y-243058648D02*
X415108570Y-243179600D01*
X415229522Y-243300552D01*
X415350474Y-243179600D01*
X415229522Y-243058648D01*
X415229522Y-243300552D01*
X417527617Y-245598648D02*
X417527617Y-243058648D01*
X417527617Y-245477695D02*
X417285713Y-245598648D01*
X416801903Y-245598648D01*
X416559998Y-245477695D01*
X416439046Y-245356743D01*
X416318094Y-245114838D01*
X416318094Y-244389124D01*
X416439046Y-244147219D01*
X416559998Y-244026267D01*
X416801903Y-243905314D01*
X417285713Y-243905314D01*
X417527617Y-244026267D01*
X419704760Y-245477695D02*
X419462855Y-245598648D01*
X418979046Y-245598648D01*
X418737141Y-245477695D01*
X418616189Y-245235790D01*
X418616189Y-244268171D01*
X418737141Y-244026267D01*
X418979046Y-243905314D01*
X419462855Y-243905314D01*
X419704760Y-244026267D01*
X419825712Y-244268171D01*
X419825712Y-244510076D01*
X418616189Y-244751981D01*
X420793332Y-245477695D02*
X421035236Y-245598648D01*
X421519046Y-245598648D01*
X421760951Y-245477695D01*
X421881903Y-245235790D01*
X421881903Y-245114838D01*
X421760951Y-244872933D01*
X421519046Y-244751981D01*
X421156189Y-244751981D01*
X420914284Y-244631029D01*
X420793332Y-244389124D01*
X420793332Y-244268171D01*
X420914284Y-244026267D01*
X421156189Y-243905314D01*
X421519046Y-243905314D01*
X421760951Y-244026267D01*
X425631426Y-246566267D02*
X425510474Y-246445314D01*
X425268569Y-246082457D01*
X425147617Y-245840552D01*
X425026664Y-245477695D01*
X424905712Y-244872933D01*
X424905712Y-244389124D01*
X425026664Y-243784362D01*
X425147617Y-243421505D01*
X425268569Y-243179600D01*
X425510474Y-242816743D01*
X425631426Y-242695790D01*
X427687616Y-243905314D02*
X427687616Y-245961505D01*
X427566664Y-246203410D01*
X427445712Y-246324362D01*
X427203807Y-246445314D01*
X426840950Y-246445314D01*
X426599045Y-246324362D01*
X427687616Y-245477695D02*
X427445712Y-245598648D01*
X426961902Y-245598648D01*
X426719997Y-245477695D01*
X426599045Y-245356743D01*
X426478093Y-245114838D01*
X426478093Y-244389124D01*
X426599045Y-244147219D01*
X426719997Y-244026267D01*
X426961902Y-243905314D01*
X427445712Y-243905314D01*
X427687616Y-244026267D01*
X428897140Y-245598648D02*
X428897140Y-243905314D01*
X428897140Y-244389124D02*
X429018092Y-244147219D01*
X429139045Y-244026267D01*
X429380949Y-243905314D01*
X429622854Y-243905314D01*
X431437140Y-245477695D02*
X431195235Y-245598648D01*
X430711426Y-245598648D01*
X430469521Y-245477695D01*
X430348569Y-245235790D01*
X430348569Y-244268171D01*
X430469521Y-244026267D01*
X430711426Y-243905314D01*
X431195235Y-243905314D01*
X431437140Y-244026267D01*
X431558092Y-244268171D01*
X431558092Y-244510076D01*
X430348569Y-244751981D01*
X433614283Y-245477695D02*
X433372378Y-245598648D01*
X432888569Y-245598648D01*
X432646664Y-245477695D01*
X432525712Y-245235790D01*
X432525712Y-244268171D01*
X432646664Y-244026267D01*
X432888569Y-243905314D01*
X433372378Y-243905314D01*
X433614283Y-244026267D01*
X433735235Y-244268171D01*
X433735235Y-244510076D01*
X432525712Y-244751981D01*
X434823807Y-243905314D02*
X434823807Y-245598648D01*
X434823807Y-244147219D02*
X434944759Y-244026267D01*
X435186664Y-243905314D01*
X435549521Y-243905314D01*
X435791426Y-244026267D01*
X435912378Y-244268171D01*
X435912378Y-245598648D01*
X436879997Y-246566267D02*
X437000950Y-246445314D01*
X437242854Y-246082457D01*
X437363807Y-245840552D01*
X437484759Y-245477695D01*
X437605711Y-244872933D01*
X437605711Y-244389124D01*
X437484759Y-243784362D01*
X437363807Y-243421505D01*
X437242854Y-243179600D01*
X437000950Y-242816743D01*
X436879997Y-242695790D01*
X378943810Y-249490895D02*
X379306667Y-249611848D01*
X379911429Y-249611848D01*
X380153333Y-249490895D01*
X380274286Y-249369943D01*
X380395238Y-249128038D01*
X380395238Y-248886133D01*
X380274286Y-248644229D01*
X380153333Y-248523276D01*
X379911429Y-248402324D01*
X379427619Y-248281371D01*
X379185714Y-248160419D01*
X379064762Y-248039467D01*
X378943810Y-247797562D01*
X378943810Y-247555657D01*
X379064762Y-247313752D01*
X379185714Y-247192800D01*
X379427619Y-247071848D01*
X380032381Y-247071848D01*
X380395238Y-247192800D01*
X381483810Y-249611848D02*
X381483810Y-247918514D01*
X381483810Y-247071848D02*
X381362858Y-247192800D01*
X381483810Y-247313752D01*
X381604762Y-247192800D01*
X381483810Y-247071848D01*
X381483810Y-247313752D01*
X383056191Y-249611848D02*
X382814286Y-249490895D01*
X382693334Y-249248990D01*
X382693334Y-247071848D01*
X384023810Y-249611848D02*
X384023810Y-247071848D01*
X384265715Y-248644229D02*
X384991429Y-249611848D01*
X384991429Y-247918514D02*
X384023810Y-248886133D01*
X385959048Y-249490895D02*
X386200952Y-249611848D01*
X386684762Y-249611848D01*
X386926667Y-249490895D01*
X387047619Y-249248990D01*
X387047619Y-249128038D01*
X386926667Y-248886133D01*
X386684762Y-248765181D01*
X386321905Y-248765181D01*
X386080000Y-248644229D01*
X385959048Y-248402324D01*
X385959048Y-248281371D01*
X386080000Y-248039467D01*
X386321905Y-247918514D01*
X386684762Y-247918514D01*
X386926667Y-248039467D01*
X389224761Y-249490895D02*
X388982857Y-249611848D01*
X388499047Y-249611848D01*
X388257142Y-249490895D01*
X388136190Y-249369943D01*
X388015238Y-249128038D01*
X388015238Y-248402324D01*
X388136190Y-248160419D01*
X388257142Y-248039467D01*
X388499047Y-247918514D01*
X388982857Y-247918514D01*
X389224761Y-248039467D01*
X390313333Y-249611848D02*
X390313333Y-247918514D01*
X390313333Y-248402324D02*
X390434285Y-248160419D01*
X390555238Y-248039467D01*
X390797142Y-247918514D01*
X391039047Y-247918514D01*
X392853333Y-249490895D02*
X392611428Y-249611848D01*
X392127619Y-249611848D01*
X391885714Y-249490895D01*
X391764762Y-249248990D01*
X391764762Y-248281371D01*
X391885714Y-248039467D01*
X392127619Y-247918514D01*
X392611428Y-247918514D01*
X392853333Y-248039467D01*
X392974285Y-248281371D01*
X392974285Y-248523276D01*
X391764762Y-248765181D01*
X395030476Y-249490895D02*
X394788571Y-249611848D01*
X394304762Y-249611848D01*
X394062857Y-249490895D01*
X393941905Y-249248990D01*
X393941905Y-248281371D01*
X394062857Y-248039467D01*
X394304762Y-247918514D01*
X394788571Y-247918514D01*
X395030476Y-248039467D01*
X395151428Y-248281371D01*
X395151428Y-248523276D01*
X393941905Y-248765181D01*
X396240000Y-247918514D02*
X396240000Y-249611848D01*
X396240000Y-248160419D02*
X396360952Y-248039467D01*
X396602857Y-247918514D01*
X396965714Y-247918514D01*
X397207619Y-248039467D01*
X397328571Y-248281371D01*
X397328571Y-249611848D01*
X400473333Y-249611848D02*
X400473333Y-247071848D01*
X400473333Y-248039467D02*
X400715238Y-247918514D01*
X401199047Y-247918514D01*
X401440952Y-248039467D01*
X401561904Y-248160419D01*
X401682857Y-248402324D01*
X401682857Y-249128038D01*
X401561904Y-249369943D01*
X401440952Y-249490895D01*
X401199047Y-249611848D01*
X400715238Y-249611848D01*
X400473333Y-249490895D01*
X403134285Y-249611848D02*
X402892380Y-249490895D01*
X402771428Y-249369943D01*
X402650476Y-249128038D01*
X402650476Y-248402324D01*
X402771428Y-248160419D01*
X402892380Y-248039467D01*
X403134285Y-247918514D01*
X403497142Y-247918514D01*
X403739047Y-248039467D01*
X403859999Y-248160419D01*
X403980952Y-248402324D01*
X403980952Y-249128038D01*
X403859999Y-249369943D01*
X403739047Y-249490895D01*
X403497142Y-249611848D01*
X403134285Y-249611848D01*
X404706666Y-247918514D02*
X405674285Y-247918514D01*
X405069523Y-247071848D02*
X405069523Y-249248990D01*
X405190475Y-249490895D01*
X405432380Y-249611848D01*
X405674285Y-249611848D01*
X406520952Y-249611848D02*
X406520952Y-247071848D01*
X407609523Y-249611848D02*
X407609523Y-248281371D01*
X407488571Y-248039467D01*
X407246666Y-247918514D01*
X406883809Y-247918514D01*
X406641904Y-248039467D01*
X406520952Y-248160419D01*
X410633333Y-249490895D02*
X410875237Y-249611848D01*
X411359047Y-249611848D01*
X411600952Y-249490895D01*
X411721904Y-249248990D01*
X411721904Y-249128038D01*
X411600952Y-248886133D01*
X411359047Y-248765181D01*
X410996190Y-248765181D01*
X410754285Y-248644229D01*
X410633333Y-248402324D01*
X410633333Y-248281371D01*
X410754285Y-248039467D01*
X410996190Y-247918514D01*
X411359047Y-247918514D01*
X411600952Y-248039467D01*
X412810475Y-249611848D02*
X412810475Y-247918514D01*
X412810475Y-247071848D02*
X412689523Y-247192800D01*
X412810475Y-247313752D01*
X412931427Y-247192800D01*
X412810475Y-247071848D01*
X412810475Y-247313752D01*
X415108570Y-249611848D02*
X415108570Y-247071848D01*
X415108570Y-249490895D02*
X414866666Y-249611848D01*
X414382856Y-249611848D01*
X414140951Y-249490895D01*
X414019999Y-249369943D01*
X413899047Y-249128038D01*
X413899047Y-248402324D01*
X414019999Y-248160419D01*
X414140951Y-248039467D01*
X414382856Y-247918514D01*
X414866666Y-247918514D01*
X415108570Y-248039467D01*
X417285713Y-249490895D02*
X417043808Y-249611848D01*
X416559999Y-249611848D01*
X416318094Y-249490895D01*
X416197142Y-249248990D01*
X416197142Y-248281371D01*
X416318094Y-248039467D01*
X416559999Y-247918514D01*
X417043808Y-247918514D01*
X417285713Y-248039467D01*
X417406665Y-248281371D01*
X417406665Y-248523276D01*
X416197142Y-248765181D01*
X418374285Y-249490895D02*
X418616189Y-249611848D01*
X419099999Y-249611848D01*
X419341904Y-249490895D01*
X419462856Y-249248990D01*
X419462856Y-249128038D01*
X419341904Y-248886133D01*
X419099999Y-248765181D01*
X418737142Y-248765181D01*
X418495237Y-248644229D01*
X418374285Y-248402324D01*
X418374285Y-248281371D01*
X418495237Y-248039467D01*
X418737142Y-247918514D01*
X419099999Y-247918514D01*
X419341904Y-248039467D01*
X423212379Y-250579467D02*
X423091427Y-250458514D01*
X422849522Y-250095657D01*
X422728570Y-249853752D01*
X422607617Y-249490895D01*
X422486665Y-248886133D01*
X422486665Y-248402324D01*
X422607617Y-247797562D01*
X422728570Y-247434705D01*
X422849522Y-247192800D01*
X423091427Y-246829943D01*
X423212379Y-246708990D01*
X423938093Y-247918514D02*
X424421903Y-249611848D01*
X424905712Y-248402324D01*
X425389522Y-249611848D01*
X425873331Y-247918514D01*
X426840950Y-249611848D02*
X426840950Y-247071848D01*
X427929521Y-249611848D02*
X427929521Y-248281371D01*
X427808569Y-248039467D01*
X427566664Y-247918514D01*
X427203807Y-247918514D01*
X426961902Y-248039467D01*
X426840950Y-248160419D01*
X429139045Y-249611848D02*
X429139045Y-247918514D01*
X429139045Y-247071848D02*
X429018093Y-247192800D01*
X429139045Y-247313752D01*
X429259997Y-247192800D01*
X429139045Y-247071848D01*
X429139045Y-247313752D01*
X429985712Y-247918514D02*
X430953331Y-247918514D01*
X430348569Y-247071848D02*
X430348569Y-249248990D01*
X430469521Y-249490895D01*
X430711426Y-249611848D01*
X430953331Y-249611848D01*
X432767617Y-249490895D02*
X432525712Y-249611848D01*
X432041903Y-249611848D01*
X431799998Y-249490895D01*
X431679046Y-249248990D01*
X431679046Y-248281371D01*
X431799998Y-248039467D01*
X432041903Y-247918514D01*
X432525712Y-247918514D01*
X432767617Y-248039467D01*
X432888569Y-248281371D01*
X432888569Y-248523276D01*
X431679046Y-248765181D01*
X433735236Y-250579467D02*
X433856189Y-250458514D01*
X434098093Y-250095657D01*
X434219046Y-249853752D01*
X434339998Y-249490895D01*
X434460950Y-248886133D01*
X434460950Y-248402324D01*
X434339998Y-247797562D01*
X434219046Y-247434705D01*
X434098093Y-247192800D01*
X433856189Y-246829943D01*
X433735236Y-246708990D01*
D13*
X345440000Y-16510000D02*
X345440000Y-397510000D01*
X25400000Y-16510000D02*
X25400000Y-397510000D01*
X25400000Y-397510000D02*
X345440000Y-397510000D01*
X25400000Y-16510000D02*
X345440000Y-16510000D01*
M02*
