%TF.GenerationSoftware,KiCad,Pcbnew,(6.0.10)*%
%TF.CreationDate,2023-09-11T12:43:08-04:00*%
%TF.ProjectId,pump_board,70756d70-5f62-46f6-9172-642e6b696361,rev?*%
%TF.SameCoordinates,Original*%
%TF.FileFunction,Legend,Bot*%
%TF.FilePolarity,Positive*%
%FSLAX46Y46*%
G04 Gerber Fmt 4.6, Leading zero omitted, Abs format (unit mm)*
G04 Created by KiCad (PCBNEW (6.0.10)) date 2023-09-11 12:43:08*
%MOMM*%
%LPD*%
G01*
G04 APERTURE LIST*
%ADD10C,0.150000*%
G04 APERTURE END LIST*
D10*
%TO.C,J1*%
X88560133Y-294737380D02*
X88560133Y-295451666D01*
X88607752Y-295594523D01*
X88702990Y-295689761D01*
X88845847Y-295737380D01*
X88941085Y-295737380D01*
X87560133Y-295737380D02*
X88131561Y-295737380D01*
X87845847Y-295737380D02*
X87845847Y-294737380D01*
X87941085Y-294880238D01*
X88036323Y-294975476D01*
X88131561Y-295023095D01*
X97891800Y-285085000D02*
X97891800Y-286385000D01*
X88576800Y-294125000D02*
X89076800Y-294125000D01*
X111156800Y-294125000D02*
X111656800Y-294125000D01*
X99866800Y-294125000D02*
X100366800Y-294125000D01*
X87356800Y-286385000D02*
X87356800Y-292725000D01*
X114076800Y-285085000D02*
X86156800Y-285085000D01*
X89076800Y-294225000D02*
X89076800Y-294025000D01*
X114076800Y-294025000D02*
X114076800Y-285085000D01*
X86156800Y-294025000D02*
X114076800Y-294025000D01*
X86156800Y-285085000D02*
X86156800Y-294025000D01*
X88576800Y-294025000D02*
X88576800Y-294225000D01*
X112876800Y-292725000D02*
X112876800Y-286385000D01*
X87356800Y-292725000D02*
X112876800Y-292725000D01*
X102341800Y-286385000D02*
X102341800Y-285085000D01*
X112876800Y-286385000D02*
X102341800Y-286385000D01*
X99866800Y-294225000D02*
X100366800Y-294225000D01*
X99866800Y-294025000D02*
X99866800Y-294225000D01*
X88576800Y-294225000D02*
X89076800Y-294225000D01*
X100366800Y-294225000D02*
X100366800Y-294025000D01*
X97891800Y-286385000D02*
X87356800Y-286385000D01*
X111156800Y-294225000D02*
X111656800Y-294225000D01*
X111156800Y-294025000D02*
X111156800Y-294225000D01*
X111656800Y-294225000D02*
X111656800Y-294025000D01*
%TD*%
M02*
