%TF.GenerationSoftware,KiCad,Pcbnew,(6.0.10)*%
%TF.CreationDate,2023-09-11T12:43:08-04:00*%
%TF.ProjectId,pump_board,70756d70-5f62-46f6-9172-642e6b696361,rev?*%
%TF.SameCoordinates,Original*%
%TF.FileFunction,Legend,Top*%
%TF.FilePolarity,Positive*%
%FSLAX46Y46*%
G04 Gerber Fmt 4.6, Leading zero omitted, Abs format (unit mm)*
G04 Created by KiCad (PCBNEW (6.0.10)) date 2023-09-11 12:43:08*
%MOMM*%
%LPD*%
G01*
G04 APERTURE LIST*
%ADD10C,0.300000*%
%ADD11C,0.150000*%
G04 APERTURE END LIST*
D10*
X111567142Y-200256071D02*
X111567142Y-198756071D01*
X112138571Y-198756071D01*
X112281428Y-198827500D01*
X112352857Y-198898928D01*
X112424285Y-199041785D01*
X112424285Y-199256071D01*
X112352857Y-199398928D01*
X112281428Y-199470357D01*
X112138571Y-199541785D01*
X111567142Y-199541785D01*
X113638571Y-200184642D02*
X113495714Y-200256071D01*
X113210000Y-200256071D01*
X113067142Y-200184642D01*
X112995714Y-200041785D01*
X112995714Y-199470357D01*
X113067142Y-199327500D01*
X113210000Y-199256071D01*
X113495714Y-199256071D01*
X113638571Y-199327500D01*
X113710000Y-199470357D01*
X113710000Y-199613214D01*
X112995714Y-199756071D01*
X114352857Y-200256071D02*
X114352857Y-199256071D01*
X114352857Y-199541785D02*
X114424285Y-199398928D01*
X114495714Y-199327500D01*
X114638571Y-199256071D01*
X114781428Y-199256071D01*
X115281428Y-200256071D02*
X115281428Y-199256071D01*
X115281428Y-198756071D02*
X115210000Y-198827500D01*
X115281428Y-198898928D01*
X115352857Y-198827500D01*
X115281428Y-198756071D01*
X115281428Y-198898928D01*
X115924285Y-200184642D02*
X116067142Y-200256071D01*
X116352857Y-200256071D01*
X116495714Y-200184642D01*
X116567142Y-200041785D01*
X116567142Y-199970357D01*
X116495714Y-199827500D01*
X116352857Y-199756071D01*
X116138571Y-199756071D01*
X115995714Y-199684642D01*
X115924285Y-199541785D01*
X115924285Y-199470357D01*
X115995714Y-199327500D01*
X116138571Y-199256071D01*
X116352857Y-199256071D01*
X116495714Y-199327500D01*
X116995714Y-199256071D02*
X117567142Y-199256071D01*
X117210000Y-198756071D02*
X117210000Y-200041785D01*
X117281428Y-200184642D01*
X117424285Y-200256071D01*
X117567142Y-200256071D01*
X118710000Y-200256071D02*
X118710000Y-199470357D01*
X118638571Y-199327500D01*
X118495714Y-199256071D01*
X118210000Y-199256071D01*
X118067142Y-199327500D01*
X118710000Y-200184642D02*
X118567142Y-200256071D01*
X118210000Y-200256071D01*
X118067142Y-200184642D01*
X117995714Y-200041785D01*
X117995714Y-199898928D01*
X118067142Y-199756071D01*
X118210000Y-199684642D01*
X118567142Y-199684642D01*
X118710000Y-199613214D01*
X119638571Y-200256071D02*
X119495714Y-200184642D01*
X119424285Y-200041785D01*
X119424285Y-198756071D01*
X119995714Y-199256071D02*
X120567142Y-199256071D01*
X120210000Y-198756071D02*
X120210000Y-200041785D01*
X120281428Y-200184642D01*
X120424285Y-200256071D01*
X120567142Y-200256071D01*
X121067142Y-200256071D02*
X121067142Y-199256071D01*
X121067142Y-198756071D02*
X120995714Y-198827500D01*
X121067142Y-198898928D01*
X121138571Y-198827500D01*
X121067142Y-198756071D01*
X121067142Y-198898928D01*
X122424285Y-200184642D02*
X122281428Y-200256071D01*
X121995714Y-200256071D01*
X121852857Y-200184642D01*
X121781428Y-200113214D01*
X121710000Y-199970357D01*
X121710000Y-199541785D01*
X121781428Y-199398928D01*
X121852857Y-199327500D01*
X121995714Y-199256071D01*
X122281428Y-199256071D01*
X122424285Y-199327500D01*
X124210000Y-200256071D02*
X124210000Y-198756071D01*
X124781428Y-198756071D01*
X124924285Y-198827500D01*
X124995714Y-198898928D01*
X125067142Y-199041785D01*
X125067142Y-199256071D01*
X124995714Y-199398928D01*
X124924285Y-199470357D01*
X124781428Y-199541785D01*
X124210000Y-199541785D01*
X126352857Y-199256071D02*
X126352857Y-200256071D01*
X125710000Y-199256071D02*
X125710000Y-200041785D01*
X125781428Y-200184642D01*
X125924285Y-200256071D01*
X126138571Y-200256071D01*
X126281428Y-200184642D01*
X126352857Y-200113214D01*
X127067142Y-200256071D02*
X127067142Y-199256071D01*
X127067142Y-199398928D02*
X127138571Y-199327500D01*
X127281428Y-199256071D01*
X127495714Y-199256071D01*
X127638571Y-199327500D01*
X127710000Y-199470357D01*
X127710000Y-200256071D01*
X127710000Y-199470357D02*
X127781428Y-199327500D01*
X127924285Y-199256071D01*
X128138571Y-199256071D01*
X128281428Y-199327500D01*
X128352857Y-199470357D01*
X128352857Y-200256071D01*
X129067142Y-199256071D02*
X129067142Y-200756071D01*
X129067142Y-199327500D02*
X129210000Y-199256071D01*
X129495714Y-199256071D01*
X129638571Y-199327500D01*
X129710000Y-199398928D01*
X129781428Y-199541785D01*
X129781428Y-199970357D01*
X129710000Y-200113214D01*
X129638571Y-200184642D01*
X129495714Y-200256071D01*
X129210000Y-200256071D01*
X129067142Y-200184642D01*
X132067142Y-199470357D02*
X132281428Y-199541785D01*
X132352857Y-199613214D01*
X132424285Y-199756071D01*
X132424285Y-199970357D01*
X132352857Y-200113214D01*
X132281428Y-200184642D01*
X132138571Y-200256071D01*
X131567142Y-200256071D01*
X131567142Y-198756071D01*
X132067142Y-198756071D01*
X132210000Y-198827500D01*
X132281428Y-198898928D01*
X132352857Y-199041785D01*
X132352857Y-199184642D01*
X132281428Y-199327500D01*
X132210000Y-199398928D01*
X132067142Y-199470357D01*
X131567142Y-199470357D01*
X133281428Y-200256071D02*
X133138571Y-200184642D01*
X133067142Y-200113214D01*
X132995714Y-199970357D01*
X132995714Y-199541785D01*
X133067142Y-199398928D01*
X133138571Y-199327500D01*
X133281428Y-199256071D01*
X133495714Y-199256071D01*
X133638571Y-199327500D01*
X133710000Y-199398928D01*
X133781428Y-199541785D01*
X133781428Y-199970357D01*
X133710000Y-200113214D01*
X133638571Y-200184642D01*
X133495714Y-200256071D01*
X133281428Y-200256071D01*
X135067142Y-200256071D02*
X135067142Y-199470357D01*
X134995714Y-199327500D01*
X134852857Y-199256071D01*
X134567142Y-199256071D01*
X134424285Y-199327500D01*
X135067142Y-200184642D02*
X134924285Y-200256071D01*
X134567142Y-200256071D01*
X134424285Y-200184642D01*
X134352857Y-200041785D01*
X134352857Y-199898928D01*
X134424285Y-199756071D01*
X134567142Y-199684642D01*
X134924285Y-199684642D01*
X135067142Y-199613214D01*
X135781428Y-200256071D02*
X135781428Y-199256071D01*
X135781428Y-199541785D02*
X135852857Y-199398928D01*
X135924285Y-199327500D01*
X136067142Y-199256071D01*
X136210000Y-199256071D01*
X137352857Y-200256071D02*
X137352857Y-198756071D01*
X137352857Y-200184642D02*
X137210000Y-200256071D01*
X136924285Y-200256071D01*
X136781428Y-200184642D01*
X136710000Y-200113214D01*
X136638571Y-199970357D01*
X136638571Y-199541785D01*
X136710000Y-199398928D01*
X136781428Y-199327500D01*
X136924285Y-199256071D01*
X137210000Y-199256071D01*
X137352857Y-199327500D01*
X114102857Y-202671071D02*
X114102857Y-201671071D01*
X114102857Y-201813928D02*
X114174285Y-201742500D01*
X114317142Y-201671071D01*
X114531428Y-201671071D01*
X114674285Y-201742500D01*
X114745714Y-201885357D01*
X114745714Y-202671071D01*
X114745714Y-201885357D02*
X114817142Y-201742500D01*
X114960000Y-201671071D01*
X115174285Y-201671071D01*
X115317142Y-201742500D01*
X115388571Y-201885357D01*
X115388571Y-202671071D01*
X116102857Y-202671071D02*
X116102857Y-201671071D01*
X116102857Y-201171071D02*
X116031428Y-201242500D01*
X116102857Y-201313928D01*
X116174285Y-201242500D01*
X116102857Y-201171071D01*
X116102857Y-201313928D01*
X116817142Y-201671071D02*
X116817142Y-202671071D01*
X116817142Y-201813928D02*
X116888571Y-201742500D01*
X117031428Y-201671071D01*
X117245714Y-201671071D01*
X117388571Y-201742500D01*
X117460000Y-201885357D01*
X117460000Y-202671071D01*
X118174285Y-202099642D02*
X119317142Y-202099642D01*
X120602857Y-202599642D02*
X120460000Y-202671071D01*
X120174285Y-202671071D01*
X120031428Y-202599642D01*
X119960000Y-202456785D01*
X119960000Y-201885357D01*
X120031428Y-201742500D01*
X120174285Y-201671071D01*
X120460000Y-201671071D01*
X120602857Y-201742500D01*
X120674285Y-201885357D01*
X120674285Y-202028214D01*
X119960000Y-202171071D01*
X121102857Y-201171071D02*
X121602857Y-202671071D01*
X122102857Y-201171071D01*
X122888571Y-201171071D02*
X123174285Y-201171071D01*
X123317142Y-201242500D01*
X123460000Y-201385357D01*
X123531428Y-201671071D01*
X123531428Y-202171071D01*
X123460000Y-202456785D01*
X123317142Y-202599642D01*
X123174285Y-202671071D01*
X122888571Y-202671071D01*
X122745714Y-202599642D01*
X122602857Y-202456785D01*
X122531428Y-202171071D01*
X122531428Y-201671071D01*
X122602857Y-201385357D01*
X122745714Y-201242500D01*
X122888571Y-201171071D01*
X124888571Y-202671071D02*
X124174285Y-202671071D01*
X124174285Y-201171071D01*
X125174285Y-201171071D02*
X125674285Y-202671071D01*
X126174285Y-201171071D01*
X126674285Y-201885357D02*
X127174285Y-201885357D01*
X127388571Y-202671071D02*
X126674285Y-202671071D01*
X126674285Y-201171071D01*
X127388571Y-201171071D01*
X128888571Y-202671071D02*
X128388571Y-201956785D01*
X128031428Y-202671071D02*
X128031428Y-201171071D01*
X128602857Y-201171071D01*
X128745714Y-201242500D01*
X128817142Y-201313928D01*
X128888571Y-201456785D01*
X128888571Y-201671071D01*
X128817142Y-201813928D01*
X128745714Y-201885357D01*
X128602857Y-201956785D01*
X128031428Y-201956785D01*
X130460000Y-201171071D02*
X130960000Y-202671071D01*
X131460000Y-201171071D01*
X132745714Y-202671071D02*
X131888571Y-202671071D01*
X132317142Y-202671071D02*
X132317142Y-201171071D01*
X132174285Y-201385357D01*
X132031428Y-201528214D01*
X131888571Y-201599642D01*
X133388571Y-202528214D02*
X133460000Y-202599642D01*
X133388571Y-202671071D01*
X133317142Y-202599642D01*
X133388571Y-202528214D01*
X133388571Y-202671071D01*
X133960000Y-201171071D02*
X134888571Y-201171071D01*
X134388571Y-201742500D01*
X134602857Y-201742500D01*
X134745714Y-201813928D01*
X134817142Y-201885357D01*
X134888571Y-202028214D01*
X134888571Y-202385357D01*
X134817142Y-202528214D01*
X134745714Y-202599642D01*
X134602857Y-202671071D01*
X134174285Y-202671071D01*
X134031428Y-202599642D01*
X133960000Y-202528214D01*
X114924285Y-204300357D02*
X114424285Y-204300357D01*
X114424285Y-205086071D02*
X114424285Y-203586071D01*
X115138571Y-203586071D01*
X115567142Y-204086071D02*
X115924285Y-205086071D01*
X116281428Y-204086071D02*
X115924285Y-205086071D01*
X115781428Y-205443214D01*
X115710000Y-205514642D01*
X115567142Y-205586071D01*
X116852857Y-204086071D02*
X116852857Y-205086071D01*
X116852857Y-204228928D02*
X116924285Y-204157500D01*
X117067142Y-204086071D01*
X117281428Y-204086071D01*
X117424285Y-204157500D01*
X117495714Y-204300357D01*
X117495714Y-205086071D01*
X118852857Y-205014642D02*
X118710000Y-205086071D01*
X118424285Y-205086071D01*
X118281428Y-205014642D01*
X118210000Y-204943214D01*
X118138571Y-204800357D01*
X118138571Y-204371785D01*
X118210000Y-204228928D01*
X118281428Y-204157500D01*
X118424285Y-204086071D01*
X118710000Y-204086071D01*
X118852857Y-204157500D01*
X119495714Y-205086071D02*
X119495714Y-203586071D01*
X120138571Y-205086071D02*
X120138571Y-204300357D01*
X120067142Y-204157500D01*
X119924285Y-204086071D01*
X119710000Y-204086071D01*
X119567142Y-204157500D01*
X119495714Y-204228928D01*
X122495714Y-204300357D02*
X122710000Y-204371785D01*
X122781428Y-204443214D01*
X122852857Y-204586071D01*
X122852857Y-204800357D01*
X122781428Y-204943214D01*
X122710000Y-205014642D01*
X122567142Y-205086071D01*
X121995714Y-205086071D01*
X121995714Y-203586071D01*
X122495714Y-203586071D01*
X122638571Y-203657500D01*
X122710000Y-203728928D01*
X122781428Y-203871785D01*
X122781428Y-204014642D01*
X122710000Y-204157500D01*
X122638571Y-204228928D01*
X122495714Y-204300357D01*
X121995714Y-204300357D01*
X123495714Y-205086071D02*
X123495714Y-204086071D01*
X123495714Y-203586071D02*
X123424285Y-203657500D01*
X123495714Y-203728928D01*
X123567142Y-203657500D01*
X123495714Y-203586071D01*
X123495714Y-203728928D01*
X124424285Y-205086071D02*
X124281428Y-205014642D01*
X124210000Y-204943214D01*
X124138571Y-204800357D01*
X124138571Y-204371785D01*
X124210000Y-204228928D01*
X124281428Y-204157500D01*
X124424285Y-204086071D01*
X124638571Y-204086071D01*
X124781428Y-204157500D01*
X124852857Y-204228928D01*
X124924285Y-204371785D01*
X124924285Y-204800357D01*
X124852857Y-204943214D01*
X124781428Y-205014642D01*
X124638571Y-205086071D01*
X124424285Y-205086071D01*
X125495714Y-205014642D02*
X125638571Y-205086071D01*
X125924285Y-205086071D01*
X126067142Y-205014642D01*
X126138571Y-204871785D01*
X126138571Y-204800357D01*
X126067142Y-204657500D01*
X125924285Y-204586071D01*
X125710000Y-204586071D01*
X125567142Y-204514642D01*
X125495714Y-204371785D01*
X125495714Y-204300357D01*
X125567142Y-204157500D01*
X125710000Y-204086071D01*
X125924285Y-204086071D01*
X126067142Y-204157500D01*
X127424285Y-205014642D02*
X127281428Y-205086071D01*
X126995714Y-205086071D01*
X126852857Y-205014642D01*
X126781428Y-204943214D01*
X126710000Y-204800357D01*
X126710000Y-204371785D01*
X126781428Y-204228928D01*
X126852857Y-204157500D01*
X126995714Y-204086071D01*
X127281428Y-204086071D01*
X127424285Y-204157500D01*
X128067142Y-205086071D02*
X128067142Y-204086071D01*
X128067142Y-203586071D02*
X127995714Y-203657500D01*
X128067142Y-203728928D01*
X128138571Y-203657500D01*
X128067142Y-203586071D01*
X128067142Y-203728928D01*
X129352857Y-205014642D02*
X129210000Y-205086071D01*
X128924285Y-205086071D01*
X128781428Y-205014642D01*
X128710000Y-204871785D01*
X128710000Y-204300357D01*
X128781428Y-204157500D01*
X128924285Y-204086071D01*
X129210000Y-204086071D01*
X129352857Y-204157500D01*
X129424285Y-204300357D01*
X129424285Y-204443214D01*
X128710000Y-204586071D01*
X130067142Y-204086071D02*
X130067142Y-205086071D01*
X130067142Y-204228928D02*
X130138571Y-204157500D01*
X130281428Y-204086071D01*
X130495714Y-204086071D01*
X130638571Y-204157500D01*
X130710000Y-204300357D01*
X130710000Y-205086071D01*
X132067142Y-205014642D02*
X131924285Y-205086071D01*
X131638571Y-205086071D01*
X131495714Y-205014642D01*
X131424285Y-204943214D01*
X131352857Y-204800357D01*
X131352857Y-204371785D01*
X131424285Y-204228928D01*
X131495714Y-204157500D01*
X131638571Y-204086071D01*
X131924285Y-204086071D01*
X132067142Y-204157500D01*
X133281428Y-205014642D02*
X133138571Y-205086071D01*
X132852857Y-205086071D01*
X132710000Y-205014642D01*
X132638571Y-204871785D01*
X132638571Y-204300357D01*
X132710000Y-204157500D01*
X132852857Y-204086071D01*
X133138571Y-204086071D01*
X133281428Y-204157500D01*
X133352857Y-204300357D01*
X133352857Y-204443214D01*
X132638571Y-204586071D01*
X133924285Y-205014642D02*
X134067142Y-205086071D01*
X134352857Y-205086071D01*
X134495714Y-205014642D01*
X134567142Y-204871785D01*
X134567142Y-204800357D01*
X134495714Y-204657500D01*
X134352857Y-204586071D01*
X134138571Y-204586071D01*
X133995714Y-204514642D01*
X133924285Y-204371785D01*
X133924285Y-204300357D01*
X133995714Y-204157500D01*
X134138571Y-204086071D01*
X134352857Y-204086071D01*
X134495714Y-204157500D01*
X112745714Y-207501071D02*
X112745714Y-206001071D01*
X113602857Y-207501071D01*
X113602857Y-206001071D01*
X114817142Y-206715357D02*
X115031428Y-206786785D01*
X115102857Y-206858214D01*
X115174285Y-207001071D01*
X115174285Y-207215357D01*
X115102857Y-207358214D01*
X115031428Y-207429642D01*
X114888571Y-207501071D01*
X114317142Y-207501071D01*
X114317142Y-206001071D01*
X114817142Y-206001071D01*
X114960000Y-206072500D01*
X115031428Y-206143928D01*
X115102857Y-206286785D01*
X115102857Y-206429642D01*
X115031428Y-206572500D01*
X114960000Y-206643928D01*
X114817142Y-206715357D01*
X114317142Y-206715357D01*
X117817142Y-207501071D02*
X117317142Y-206786785D01*
X116960000Y-207501071D02*
X116960000Y-206001071D01*
X117531428Y-206001071D01*
X117674285Y-206072500D01*
X117745714Y-206143928D01*
X117817142Y-206286785D01*
X117817142Y-206501071D01*
X117745714Y-206643928D01*
X117674285Y-206715357D01*
X117531428Y-206786785D01*
X116960000Y-206786785D01*
X119031428Y-207429642D02*
X118888571Y-207501071D01*
X118602857Y-207501071D01*
X118460000Y-207429642D01*
X118388571Y-207286785D01*
X118388571Y-206715357D01*
X118460000Y-206572500D01*
X118602857Y-206501071D01*
X118888571Y-206501071D01*
X119031428Y-206572500D01*
X119102857Y-206715357D01*
X119102857Y-206858214D01*
X118388571Y-207001071D01*
X119602857Y-206501071D02*
X119960000Y-207501071D01*
X120317142Y-206501071D01*
X120888571Y-207501071D02*
X120888571Y-206501071D01*
X120888571Y-206001071D02*
X120817142Y-206072500D01*
X120888571Y-206143928D01*
X120960000Y-206072500D01*
X120888571Y-206001071D01*
X120888571Y-206143928D01*
X121531428Y-207429642D02*
X121674285Y-207501071D01*
X121960000Y-207501071D01*
X122102857Y-207429642D01*
X122174285Y-207286785D01*
X122174285Y-207215357D01*
X122102857Y-207072500D01*
X121960000Y-207001071D01*
X121745714Y-207001071D01*
X121602857Y-206929642D01*
X121531428Y-206786785D01*
X121531428Y-206715357D01*
X121602857Y-206572500D01*
X121745714Y-206501071D01*
X121960000Y-206501071D01*
X122102857Y-206572500D01*
X123388571Y-207429642D02*
X123245714Y-207501071D01*
X122960000Y-207501071D01*
X122817142Y-207429642D01*
X122745714Y-207286785D01*
X122745714Y-206715357D01*
X122817142Y-206572500D01*
X122960000Y-206501071D01*
X123245714Y-206501071D01*
X123388571Y-206572500D01*
X123460000Y-206715357D01*
X123460000Y-206858214D01*
X122745714Y-207001071D01*
X124745714Y-207501071D02*
X124745714Y-206001071D01*
X124745714Y-207429642D02*
X124602857Y-207501071D01*
X124317142Y-207501071D01*
X124174285Y-207429642D01*
X124102857Y-207358214D01*
X124031428Y-207215357D01*
X124031428Y-206786785D01*
X124102857Y-206643928D01*
X124174285Y-206572500D01*
X124317142Y-206501071D01*
X124602857Y-206501071D01*
X124745714Y-206572500D01*
X126674285Y-207501071D02*
X126960000Y-207501071D01*
X127102857Y-207429642D01*
X127174285Y-207358214D01*
X127317142Y-207143928D01*
X127388571Y-206858214D01*
X127388571Y-206286785D01*
X127317142Y-206143928D01*
X127245714Y-206072500D01*
X127102857Y-206001071D01*
X126817142Y-206001071D01*
X126674285Y-206072500D01*
X126602857Y-206143928D01*
X126531428Y-206286785D01*
X126531428Y-206643928D01*
X126602857Y-206786785D01*
X126674285Y-206858214D01*
X126817142Y-206929642D01*
X127102857Y-206929642D01*
X127245714Y-206858214D01*
X127317142Y-206786785D01*
X127388571Y-206643928D01*
X129102857Y-205929642D02*
X127817142Y-207858214D01*
X130388571Y-207501071D02*
X129531428Y-207501071D01*
X129960000Y-207501071D02*
X129960000Y-206001071D01*
X129817142Y-206215357D01*
X129674285Y-206358214D01*
X129531428Y-206429642D01*
X131817142Y-207501071D02*
X130960000Y-207501071D01*
X131388571Y-207501071D02*
X131388571Y-206001071D01*
X131245714Y-206215357D01*
X131102857Y-206358214D01*
X130960000Y-206429642D01*
X133531428Y-205929642D02*
X132245714Y-207858214D01*
X133960000Y-206143928D02*
X134031428Y-206072500D01*
X134174285Y-206001071D01*
X134531428Y-206001071D01*
X134674285Y-206072500D01*
X134745714Y-206143928D01*
X134817142Y-206286785D01*
X134817142Y-206429642D01*
X134745714Y-206643928D01*
X133888571Y-207501071D01*
X134817142Y-207501071D01*
X135317142Y-206001071D02*
X136245714Y-206001071D01*
X135745714Y-206572500D01*
X135960000Y-206572500D01*
X136102857Y-206643928D01*
X136174285Y-206715357D01*
X136245714Y-206858214D01*
X136245714Y-207215357D01*
X136174285Y-207358214D01*
X136102857Y-207429642D01*
X135960000Y-207501071D01*
X135531428Y-207501071D01*
X135388571Y-207429642D01*
X135317142Y-207358214D01*
%TO.C,U6*%
X153392449Y-233854761D02*
X153392449Y-235473809D01*
X153487687Y-235664285D01*
X153582925Y-235759523D01*
X153773401Y-235854761D01*
X154154354Y-235854761D01*
X154344830Y-235759523D01*
X154440068Y-235664285D01*
X154535306Y-235473809D01*
X154535306Y-233854761D01*
X156344830Y-233854761D02*
X155963878Y-233854761D01*
X155773401Y-233950000D01*
X155678163Y-234045238D01*
X155487687Y-234330952D01*
X155392449Y-234711904D01*
X155392449Y-235473809D01*
X155487687Y-235664285D01*
X155582925Y-235759523D01*
X155773401Y-235854761D01*
X156154354Y-235854761D01*
X156344830Y-235759523D01*
X156440068Y-235664285D01*
X156535306Y-235473809D01*
X156535306Y-234997619D01*
X156440068Y-234807142D01*
X156344830Y-234711904D01*
X156154354Y-234616666D01*
X155773401Y-234616666D01*
X155582925Y-234711904D01*
X155487687Y-234807142D01*
X155392449Y-234997619D01*
D11*
X170796578Y-213181179D02*
X169829755Y-213436625D01*
X169732442Y-213068311D01*
X169754153Y-212964069D01*
X169788029Y-212905866D01*
X169867943Y-212835498D01*
X170006061Y-212799006D01*
X170110303Y-212820717D01*
X170168506Y-212854592D01*
X170238874Y-212934507D01*
X170336186Y-213302820D01*
X169525653Y-212285645D02*
X169476997Y-212101488D01*
X169498708Y-211997246D01*
X169566458Y-211880839D01*
X169738451Y-211786143D01*
X170060725Y-211700995D01*
X170257046Y-211698378D01*
X170373453Y-211766128D01*
X170443820Y-211846042D01*
X170492476Y-212030199D01*
X170470765Y-212134442D01*
X170403015Y-212250848D01*
X170231022Y-212345544D01*
X169908748Y-212430692D01*
X169712427Y-212433310D01*
X169596020Y-212365559D01*
X169525653Y-212285645D01*
X170239648Y-211259697D02*
X170249195Y-211109415D01*
X170188374Y-210879219D01*
X170118007Y-210799305D01*
X170059804Y-210765429D01*
X169955561Y-210743718D01*
X169863483Y-210768047D01*
X169783568Y-210838414D01*
X169749693Y-210896617D01*
X169727982Y-211000860D01*
X169730599Y-211197181D01*
X169708888Y-211301423D01*
X169675013Y-211359626D01*
X169595099Y-211429994D01*
X169503020Y-211454322D01*
X169398778Y-211432611D01*
X169340575Y-211398736D01*
X169270207Y-211318822D01*
X169209387Y-211088625D01*
X169218934Y-210938344D01*
X170325570Y-209907161D02*
X170291695Y-209965365D01*
X170177906Y-210093935D01*
X170097991Y-210164303D01*
X169972038Y-210246834D01*
X169754006Y-210353694D01*
X169569849Y-210402350D01*
X169327489Y-210417131D01*
X169177207Y-210407584D01*
X169072965Y-210385873D01*
X168910519Y-210330287D01*
X168852316Y-210296412D01*
X169491630Y-209733473D02*
X169297005Y-208996846D01*
X169762631Y-209267847D02*
X169026004Y-209462472D01*
X169936320Y-208433907D02*
X169878116Y-208400031D01*
X169715671Y-208344445D01*
X169611428Y-208322734D01*
X169461146Y-208313187D01*
X169218786Y-208327969D01*
X169034629Y-208376625D01*
X168816597Y-208483484D01*
X168690644Y-208566016D01*
X168610730Y-208636383D01*
X168496940Y-208764954D01*
X168463065Y-208823157D01*
X142769609Y-205958110D02*
X142064975Y-205248540D01*
X143175078Y-205555462D01*
X142470444Y-204845891D01*
X143143875Y-204848242D02*
X143380399Y-204613364D01*
X143850860Y-204884382D02*
X143512969Y-205219922D01*
X142808335Y-204510351D01*
X143146226Y-204174811D01*
X143855561Y-203537520D02*
X143754429Y-203570839D01*
X143653062Y-203671501D01*
X143585249Y-203805952D01*
X143584779Y-203940638D01*
X143618097Y-204041771D01*
X143718524Y-204210481D01*
X143819186Y-204311848D01*
X143987192Y-204413450D01*
X144088089Y-204447475D01*
X144222775Y-204447945D01*
X144357696Y-204381072D01*
X144425274Y-204313964D01*
X144493088Y-204179513D01*
X144493323Y-204112170D01*
X144258445Y-203875646D01*
X144123288Y-204009862D01*
X145335699Y-203946750D02*
X145268356Y-203946515D01*
X145100116Y-203912256D01*
X144999219Y-203878232D01*
X144864767Y-203810419D01*
X144663208Y-203675027D01*
X144528992Y-203539871D01*
X144395011Y-203337371D01*
X144328138Y-203202450D01*
X144294819Y-203101318D01*
X144261736Y-202932843D01*
X144261971Y-202865500D01*
X145069147Y-203137693D02*
X145609773Y-202600829D01*
X146416950Y-202873022D02*
X146417185Y-202805679D01*
X146384101Y-202637204D01*
X146350782Y-202536071D01*
X146283909Y-202401150D01*
X146149928Y-202198651D01*
X146015712Y-202063494D01*
X145814153Y-201928103D01*
X145679702Y-201860290D01*
X145578805Y-201826266D01*
X145410564Y-201792006D01*
X145343221Y-201791771D01*
X140036792Y-213256016D02*
X139071776Y-212993827D01*
X140186614Y-212704578D01*
X139221598Y-212442389D01*
X139805982Y-212107709D02*
X139893378Y-211786037D01*
X140436318Y-211785514D02*
X140311466Y-212245046D01*
X139346450Y-211982857D01*
X139471302Y-211523325D01*
X139766959Y-210616747D02*
X139696035Y-210696168D01*
X139658580Y-210834028D01*
X139667077Y-210984372D01*
X139734013Y-211101249D01*
X139813435Y-211172173D01*
X139984762Y-211268067D01*
X140122621Y-211305522D01*
X140318919Y-211309510D01*
X140423311Y-211288527D01*
X140540188Y-211221591D01*
X140623596Y-211096217D01*
X140648567Y-211004311D01*
X140640069Y-210853966D01*
X140606601Y-210795527D01*
X140284929Y-210708131D01*
X140234988Y-210891944D01*
X141253411Y-210231082D02*
X141194973Y-210264550D01*
X141032143Y-210319001D01*
X140927751Y-210339983D01*
X140777406Y-210348481D01*
X140535155Y-210332008D01*
X140351343Y-210282067D01*
X140134062Y-210173688D01*
X140008688Y-210090279D01*
X139929267Y-210019356D01*
X139816378Y-209889994D01*
X139782910Y-209831556D01*
X140618042Y-209663693D02*
X140817805Y-208928443D01*
X141652937Y-208760581D02*
X141619469Y-208702142D01*
X141506580Y-208572780D01*
X141427159Y-208501857D01*
X141301785Y-208418448D01*
X141084504Y-208310069D01*
X140900691Y-208260128D01*
X140658440Y-208243655D01*
X140508096Y-208252153D01*
X140403704Y-208273136D01*
X140240874Y-208327586D01*
X140182436Y-208361054D01*
X141321718Y-220944146D02*
X140354895Y-221199592D01*
X141175749Y-220391675D01*
X140208926Y-220647121D01*
X140547677Y-220065088D02*
X140462529Y-219742814D01*
X140932468Y-219470891D02*
X141054109Y-219931283D01*
X140087285Y-220186729D01*
X139965644Y-219726337D01*
X139768402Y-218793389D02*
X139746691Y-218897631D01*
X139783183Y-219035749D01*
X139865715Y-219161702D01*
X139982121Y-219229453D01*
X140086364Y-219251164D01*
X140282685Y-219248546D01*
X140420802Y-219212054D01*
X140592795Y-219117359D01*
X140672709Y-219046991D01*
X140740460Y-218930585D01*
X140750006Y-218780303D01*
X140725678Y-218688225D01*
X140643147Y-218562271D01*
X140584944Y-218528396D01*
X140262669Y-218613544D01*
X140311325Y-218797701D01*
X140862874Y-217716167D02*
X140828999Y-217774370D01*
X140715210Y-217902941D01*
X140635295Y-217973308D01*
X140509342Y-218055840D01*
X140291310Y-218162699D01*
X140107153Y-218211356D01*
X139864793Y-218226137D01*
X139714511Y-218216590D01*
X139610269Y-218194879D01*
X139447823Y-218139293D01*
X139389620Y-218105418D01*
X140028934Y-217542479D02*
X139834309Y-216805851D01*
X140473624Y-216242912D02*
X140415420Y-216209037D01*
X140252975Y-216153451D01*
X140148732Y-216131740D01*
X139998450Y-216122193D01*
X139756090Y-216136974D01*
X139571933Y-216185630D01*
X139353901Y-216292490D01*
X139227948Y-216375022D01*
X139148034Y-216445389D01*
X139034244Y-216573960D01*
X139000369Y-216632163D01*
X156548226Y-230476123D02*
X156292780Y-229509300D01*
X156661094Y-229411987D01*
X156765336Y-229433698D01*
X156823539Y-229467574D01*
X156893907Y-229547488D01*
X156930399Y-229685606D01*
X156908688Y-229789848D01*
X156874813Y-229848051D01*
X156794898Y-229918419D01*
X156426585Y-230015731D01*
X157443760Y-229205198D02*
X157627917Y-229156542D01*
X157732159Y-229178253D01*
X157848566Y-229246003D01*
X157943262Y-229417996D01*
X158028410Y-229740270D01*
X158031027Y-229936591D01*
X157963277Y-230052998D01*
X157883363Y-230123365D01*
X157699206Y-230172021D01*
X157594963Y-230150310D01*
X157478557Y-230082560D01*
X157383861Y-229910567D01*
X157298713Y-229588293D01*
X157296095Y-229391972D01*
X157363846Y-229275565D01*
X157443760Y-229205198D01*
X158469708Y-229919193D02*
X158619990Y-229928740D01*
X158850186Y-229867919D01*
X158930100Y-229797552D01*
X158963976Y-229739349D01*
X158985687Y-229635106D01*
X158961358Y-229543028D01*
X158890991Y-229463113D01*
X158832788Y-229429238D01*
X158728545Y-229407527D01*
X158532224Y-229410144D01*
X158427982Y-229388433D01*
X158369779Y-229354558D01*
X158299411Y-229274644D01*
X158275083Y-229182565D01*
X158296794Y-229078323D01*
X158330669Y-229020120D01*
X158410583Y-228949752D01*
X158640780Y-228888932D01*
X158791061Y-228898479D01*
X159822244Y-230005115D02*
X159764040Y-229971240D01*
X159635470Y-229857451D01*
X159565102Y-229777536D01*
X159482571Y-229651583D01*
X159375711Y-229433551D01*
X159327055Y-229249394D01*
X159312274Y-229007034D01*
X159321821Y-228856752D01*
X159343532Y-228752510D01*
X159399118Y-228590064D01*
X159432993Y-228531861D01*
X159995932Y-229171175D02*
X160732559Y-228976550D01*
X160461558Y-229442176D02*
X160266933Y-228705549D01*
X161295498Y-229615865D02*
X161329374Y-229557661D01*
X161384960Y-229395216D01*
X161406671Y-229290973D01*
X161416218Y-229140691D01*
X161401436Y-228898331D01*
X161352780Y-228714174D01*
X161245921Y-228496142D01*
X161163389Y-228370189D01*
X161093022Y-228290275D01*
X160964451Y-228176485D01*
X160906248Y-228142610D01*
X167913090Y-205502076D02*
X167203520Y-206206711D01*
X166935088Y-205936398D01*
X166901769Y-205835266D01*
X166902004Y-205767923D01*
X166936028Y-205667026D01*
X167037395Y-205566363D01*
X167138527Y-205533045D01*
X167205870Y-205533280D01*
X167306767Y-205567304D01*
X167575199Y-205837616D01*
X166364669Y-205361983D02*
X166230453Y-205226827D01*
X166197134Y-205125695D01*
X166197605Y-204991009D01*
X166299207Y-204823004D01*
X166535730Y-204588126D01*
X166704441Y-204487699D01*
X166839127Y-204488169D01*
X166940024Y-204522193D01*
X167074240Y-204657349D01*
X167107559Y-204758481D01*
X167107089Y-204893168D01*
X167005487Y-205061173D01*
X166768963Y-205296051D01*
X166600253Y-205396478D01*
X166465566Y-205396008D01*
X166364669Y-205361983D01*
X166470033Y-204116489D02*
X166403160Y-203981568D01*
X166235390Y-203812622D01*
X166134493Y-203778598D01*
X166067150Y-203778363D01*
X165966017Y-203811682D01*
X165898439Y-203878790D01*
X165864415Y-203979687D01*
X165864180Y-204047030D01*
X165897499Y-204148162D01*
X165997926Y-204316873D01*
X166031245Y-204418005D01*
X166031010Y-204485348D01*
X165996986Y-204586245D01*
X165929407Y-204653353D01*
X165828275Y-204686672D01*
X165760932Y-204686437D01*
X165660035Y-204652413D01*
X165492265Y-204483467D01*
X165425392Y-204348546D01*
X165868176Y-202902198D02*
X165867941Y-202969541D01*
X165833682Y-203137781D01*
X165799658Y-203238678D01*
X165731845Y-203373129D01*
X165596453Y-203574688D01*
X165461297Y-203708904D01*
X165258797Y-203842885D01*
X165123876Y-203909758D01*
X165022744Y-203943077D01*
X164854269Y-203976161D01*
X164786926Y-203975926D01*
X165059119Y-203168749D02*
X164522255Y-202628124D01*
X165060999Y-202630004D02*
X164520374Y-203166868D01*
X164794448Y-201820947D02*
X164727105Y-201820712D01*
X164558630Y-201853796D01*
X164457497Y-201887115D01*
X164322576Y-201953988D01*
X164120077Y-202087969D01*
X163984920Y-202222185D01*
X163849529Y-202423744D01*
X163781716Y-202558195D01*
X163747692Y-202659092D01*
X163713432Y-202827332D01*
X163713197Y-202894675D01*
X161583679Y-200286256D02*
X161321490Y-201251272D01*
X160953865Y-201151390D01*
X160874444Y-201080467D01*
X160840976Y-201022029D01*
X160819993Y-200917637D01*
X160857449Y-200779778D01*
X160928372Y-200700356D01*
X160986810Y-200666888D01*
X161091202Y-200645906D01*
X161458827Y-200745787D01*
X160172661Y-200939142D02*
X159988848Y-200889201D01*
X159909427Y-200818278D01*
X159842491Y-200701401D01*
X159846479Y-200505103D01*
X159933875Y-200183431D01*
X160029769Y-200012103D01*
X160146646Y-199945168D01*
X160251037Y-199924185D01*
X160434850Y-199974126D01*
X160514271Y-200045049D01*
X160581207Y-200161926D01*
X160577220Y-200358224D01*
X160489823Y-200679896D01*
X160393929Y-200851223D01*
X160277052Y-200918159D01*
X160172661Y-200939142D01*
X159641161Y-199807830D02*
X159515787Y-199724422D01*
X159286021Y-199661996D01*
X159181629Y-199682978D01*
X159123191Y-199716446D01*
X159052268Y-199795867D01*
X159027297Y-199887774D01*
X159048280Y-199992165D01*
X159081748Y-200050604D01*
X159161169Y-200121527D01*
X159332496Y-200217421D01*
X159411918Y-200288345D01*
X159445386Y-200346783D01*
X159466368Y-200451175D01*
X159441398Y-200543081D01*
X159370474Y-200622502D01*
X159312036Y-200655970D01*
X159207644Y-200676953D01*
X158977879Y-200614527D01*
X158852504Y-200531118D01*
X158512792Y-199057152D02*
X158546260Y-199115590D01*
X158600711Y-199278420D01*
X158621694Y-199382811D01*
X158630191Y-199533156D01*
X158613719Y-199775407D01*
X158563778Y-199959220D01*
X158455399Y-200176500D01*
X158371990Y-200301875D01*
X158301066Y-200381296D01*
X158171704Y-200494185D01*
X158113266Y-200527653D01*
X157945404Y-199692521D02*
X157210153Y-199492757D01*
X157677660Y-199225014D02*
X157477897Y-199960264D01*
X157042291Y-198657625D02*
X156983853Y-198691093D01*
X156854491Y-198803982D01*
X156783567Y-198883403D01*
X156700158Y-199008778D01*
X156591779Y-199226058D01*
X156541838Y-199409871D01*
X156525366Y-199652122D01*
X156533863Y-199802467D01*
X156554846Y-199906858D01*
X156609297Y-200069688D01*
X156642765Y-200128126D01*
X146268595Y-226962432D02*
X145559025Y-227667066D01*
X145865947Y-226556963D01*
X145156376Y-227261597D01*
X145158727Y-226588166D02*
X144923849Y-226351642D01*
X145194867Y-225881181D02*
X145530407Y-226219072D01*
X144820836Y-226923706D01*
X144485296Y-226585815D01*
X143848005Y-225876480D02*
X143881324Y-225977612D01*
X143981986Y-226078979D01*
X144116437Y-226146792D01*
X144251123Y-226147262D01*
X144352256Y-226113944D01*
X144520966Y-226013517D01*
X144622333Y-225912855D01*
X144723935Y-225744849D01*
X144757960Y-225643952D01*
X144758430Y-225509266D01*
X144691557Y-225374345D01*
X144624449Y-225306767D01*
X144489998Y-225238953D01*
X144422655Y-225238718D01*
X144186131Y-225473596D01*
X144320347Y-225608753D01*
X144257235Y-224396342D02*
X144257000Y-224463685D01*
X144222741Y-224631925D01*
X144188717Y-224732822D01*
X144120904Y-224867274D01*
X143985512Y-225068833D01*
X143850356Y-225203049D01*
X143647856Y-225337030D01*
X143512935Y-225403903D01*
X143411803Y-225437222D01*
X143243328Y-225470305D01*
X143175985Y-225470070D01*
X143448178Y-224662894D02*
X142911314Y-224122268D01*
X143183507Y-223315091D02*
X143116164Y-223314856D01*
X142947689Y-223347940D01*
X142846556Y-223381259D01*
X142711635Y-223448132D01*
X142509136Y-223582113D01*
X142373979Y-223716329D01*
X142238588Y-223917888D01*
X142170775Y-224052339D01*
X142136751Y-224153236D01*
X142102491Y-224321477D01*
X142102256Y-224388820D01*
X169444251Y-221270519D02*
X168479235Y-221008330D01*
X168579117Y-220640705D01*
X168650040Y-220561284D01*
X168708478Y-220527816D01*
X168812870Y-220506833D01*
X168950729Y-220544289D01*
X169030151Y-220615212D01*
X169063619Y-220673650D01*
X169084601Y-220778042D01*
X168984720Y-221145667D01*
X168791365Y-219859501D02*
X168841306Y-219675688D01*
X168912229Y-219596267D01*
X169029106Y-219529331D01*
X169225404Y-219533319D01*
X169547076Y-219620715D01*
X169718404Y-219716609D01*
X169785339Y-219833486D01*
X169806322Y-219937877D01*
X169756381Y-220121690D01*
X169685458Y-220201111D01*
X169568581Y-220268047D01*
X169372283Y-220264060D01*
X169050611Y-220176663D01*
X168879284Y-220080769D01*
X168812348Y-219963892D01*
X168791365Y-219859501D01*
X169922677Y-219328001D02*
X170006085Y-219202627D01*
X170068511Y-218972861D01*
X170047529Y-218868469D01*
X170014061Y-218810031D01*
X169934640Y-218739108D01*
X169842733Y-218714137D01*
X169738342Y-218735120D01*
X169679903Y-218768588D01*
X169608980Y-218848009D01*
X169513086Y-219019336D01*
X169442162Y-219098758D01*
X169383724Y-219132226D01*
X169279332Y-219153208D01*
X169187426Y-219128238D01*
X169108005Y-219057314D01*
X169074537Y-218998876D01*
X169053554Y-218894484D01*
X169115980Y-218664719D01*
X169199389Y-218539344D01*
X170673355Y-218199632D02*
X170614917Y-218233100D01*
X170452087Y-218287551D01*
X170347696Y-218308534D01*
X170197351Y-218317031D01*
X169955100Y-218300559D01*
X169771287Y-218250618D01*
X169554007Y-218142239D01*
X169428632Y-218058830D01*
X169349211Y-217987906D01*
X169236322Y-217858544D01*
X169202854Y-217800106D01*
X170037986Y-217632244D02*
X170237750Y-216896993D01*
X170505493Y-217364500D02*
X169770243Y-217164737D01*
X171072882Y-216729131D02*
X171039414Y-216670693D01*
X170926525Y-216541331D01*
X170847104Y-216470407D01*
X170721729Y-216386998D01*
X170504449Y-216278619D01*
X170320636Y-216228678D01*
X170078385Y-216212206D01*
X169928040Y-216220703D01*
X169823649Y-216241686D01*
X169660819Y-216296137D01*
X169602381Y-216329605D01*
X153569176Y-229693717D02*
X153306987Y-230658733D01*
X153017738Y-229543895D01*
X152755549Y-230508911D01*
X152420869Y-229924527D02*
X152099197Y-229837131D01*
X152098674Y-229294191D02*
X152558206Y-229419043D01*
X152296017Y-230384059D01*
X151836485Y-230259207D01*
X150929907Y-229963550D02*
X151009328Y-230034474D01*
X151147188Y-230071929D01*
X151297532Y-230063432D01*
X151414409Y-229996496D01*
X151485333Y-229917074D01*
X151581227Y-229745747D01*
X151618682Y-229607888D01*
X151622670Y-229411590D01*
X151601687Y-229307198D01*
X151534751Y-229190321D01*
X151409377Y-229106913D01*
X151317471Y-229081942D01*
X151167126Y-229090440D01*
X151108687Y-229123908D01*
X151021291Y-229445580D01*
X151205104Y-229495521D01*
X150544242Y-228477098D02*
X150577710Y-228535536D01*
X150632161Y-228698366D01*
X150653143Y-228802758D01*
X150661641Y-228953103D01*
X150645168Y-229195354D01*
X150595227Y-229379166D01*
X150486848Y-229596447D01*
X150403439Y-229721821D01*
X150332516Y-229801242D01*
X150203154Y-229914131D01*
X150144716Y-229947599D01*
X149976853Y-229112467D02*
X149241603Y-228912704D01*
X149073741Y-228077572D02*
X149015302Y-228111040D01*
X148885940Y-228223929D01*
X148815017Y-228303350D01*
X148731608Y-228428724D01*
X148623229Y-228646005D01*
X148573288Y-228829818D01*
X148556815Y-229072069D01*
X148565313Y-229222413D01*
X148586296Y-229326805D01*
X148640746Y-229489635D01*
X148674214Y-229548073D01*
X164229965Y-227602602D02*
X163525330Y-226893032D01*
X163795643Y-226624600D01*
X163896775Y-226591281D01*
X163964118Y-226591516D01*
X164065015Y-226625540D01*
X164165678Y-226726907D01*
X164198996Y-226828039D01*
X164198761Y-226895382D01*
X164164737Y-226996279D01*
X163894425Y-227264711D01*
X164370058Y-226054181D02*
X164505214Y-225919965D01*
X164606346Y-225886646D01*
X164741032Y-225887117D01*
X164909037Y-225988719D01*
X165143915Y-226225242D01*
X165244342Y-226393953D01*
X165243872Y-226528639D01*
X165209848Y-226629536D01*
X165074692Y-226763752D01*
X164973560Y-226797071D01*
X164838873Y-226796601D01*
X164670868Y-226694999D01*
X164435990Y-226458475D01*
X164335563Y-226289765D01*
X164336033Y-226155078D01*
X164370058Y-226054181D01*
X165615552Y-226159545D02*
X165750473Y-226092672D01*
X165919419Y-225924902D01*
X165953443Y-225824005D01*
X165953678Y-225756662D01*
X165920359Y-225655529D01*
X165853251Y-225587951D01*
X165752354Y-225553927D01*
X165685011Y-225553692D01*
X165583879Y-225587011D01*
X165415168Y-225687438D01*
X165314036Y-225720757D01*
X165246693Y-225720522D01*
X165145796Y-225686498D01*
X165078688Y-225618919D01*
X165045369Y-225517787D01*
X165045604Y-225450444D01*
X165079628Y-225349547D01*
X165248574Y-225181777D01*
X165383495Y-225114904D01*
X166829843Y-225557688D02*
X166762500Y-225557453D01*
X166594260Y-225523194D01*
X166493363Y-225489170D01*
X166358912Y-225421357D01*
X166157353Y-225285965D01*
X166023137Y-225150809D01*
X165889156Y-224948309D01*
X165822283Y-224813388D01*
X165788964Y-224712256D01*
X165755880Y-224543781D01*
X165756115Y-224476438D01*
X166563292Y-224748631D02*
X167103917Y-224211767D01*
X167102037Y-224750511D02*
X166565173Y-224209886D01*
X167911094Y-224483960D02*
X167911329Y-224416617D01*
X167878245Y-224248142D01*
X167844926Y-224147009D01*
X167778053Y-224012088D01*
X167644072Y-223809589D01*
X167509856Y-223674432D01*
X167308297Y-223539041D01*
X167173846Y-223471228D01*
X167072949Y-223437204D01*
X166904709Y-223402944D01*
X166837366Y-223402709D01*
X148785260Y-201001265D02*
X148529814Y-200034442D01*
X149337731Y-200855296D01*
X149082285Y-199888473D01*
X149664318Y-200227224D02*
X149986592Y-200142076D01*
X150258515Y-200612015D02*
X149798123Y-200733656D01*
X149542677Y-199766832D01*
X150003069Y-199645191D01*
X150936017Y-199447949D02*
X150831775Y-199426238D01*
X150693657Y-199462730D01*
X150567704Y-199545262D01*
X150499953Y-199661668D01*
X150478242Y-199765911D01*
X150480860Y-199962232D01*
X150517352Y-200100349D01*
X150612047Y-200272342D01*
X150682415Y-200352256D01*
X150798821Y-200420007D01*
X150949103Y-200429553D01*
X151041181Y-200405225D01*
X151167135Y-200322694D01*
X151201010Y-200264491D01*
X151115862Y-199942216D01*
X150931705Y-199990872D01*
X152013239Y-200542421D02*
X151955036Y-200508546D01*
X151826465Y-200394757D01*
X151756098Y-200314842D01*
X151673566Y-200188889D01*
X151566707Y-199970857D01*
X151518050Y-199786700D01*
X151503269Y-199544340D01*
X151512816Y-199394058D01*
X151534527Y-199289816D01*
X151590113Y-199127370D01*
X151623988Y-199069167D01*
X152186927Y-199708481D02*
X152923555Y-199513856D01*
X153486494Y-200153171D02*
X153520369Y-200094967D01*
X153575955Y-199932522D01*
X153597666Y-199828279D01*
X153607213Y-199677997D01*
X153592432Y-199435637D01*
X153543776Y-199251480D01*
X153436916Y-199033448D01*
X153354384Y-198907495D01*
X153284017Y-198827581D01*
X153155446Y-198713791D01*
X153097243Y-198679916D01*
D10*
%TO.C,U5*%
X92337485Y-233979416D02*
X92337485Y-235598464D01*
X92432723Y-235788940D01*
X92527961Y-235884178D01*
X92718437Y-235979416D01*
X93099390Y-235979416D01*
X93289866Y-235884178D01*
X93385104Y-235788940D01*
X93480342Y-235598464D01*
X93480342Y-233979416D01*
X95385104Y-233979416D02*
X94432723Y-233979416D01*
X94337485Y-234931797D01*
X94432723Y-234836559D01*
X94623199Y-234741321D01*
X95099390Y-234741321D01*
X95289866Y-234836559D01*
X95385104Y-234931797D01*
X95480342Y-235122274D01*
X95480342Y-235598464D01*
X95385104Y-235788940D01*
X95289866Y-235884178D01*
X95099390Y-235979416D01*
X94623199Y-235979416D01*
X94432723Y-235884178D01*
X94337485Y-235788940D01*
D11*
X109741614Y-213305834D02*
X108774791Y-213561280D01*
X108677478Y-213192966D01*
X108699189Y-213088724D01*
X108733065Y-213030521D01*
X108812979Y-212960153D01*
X108951097Y-212923661D01*
X109055339Y-212945372D01*
X109113542Y-212979247D01*
X109183910Y-213059162D01*
X109281222Y-213427475D01*
X108470689Y-212410300D02*
X108422033Y-212226143D01*
X108443744Y-212121901D01*
X108511494Y-212005494D01*
X108683487Y-211910798D01*
X109005761Y-211825650D01*
X109202082Y-211823033D01*
X109318489Y-211890783D01*
X109388856Y-211970697D01*
X109437512Y-212154854D01*
X109415801Y-212259097D01*
X109348051Y-212375503D01*
X109176058Y-212470199D01*
X108853784Y-212555347D01*
X108657463Y-212557965D01*
X108541056Y-212490214D01*
X108470689Y-212410300D01*
X109184684Y-211384352D02*
X109194231Y-211234070D01*
X109133410Y-211003874D01*
X109063043Y-210923960D01*
X109004840Y-210890084D01*
X108900597Y-210868373D01*
X108808519Y-210892702D01*
X108728604Y-210963069D01*
X108694729Y-211021272D01*
X108673018Y-211125515D01*
X108675635Y-211321836D01*
X108653924Y-211426078D01*
X108620049Y-211484281D01*
X108540135Y-211554649D01*
X108448056Y-211578977D01*
X108343814Y-211557266D01*
X108285611Y-211523391D01*
X108215243Y-211443477D01*
X108154423Y-211213280D01*
X108163970Y-211062999D01*
X109270606Y-210031816D02*
X109236731Y-210090020D01*
X109122942Y-210218590D01*
X109043027Y-210288958D01*
X108917074Y-210371489D01*
X108699042Y-210478349D01*
X108514885Y-210527005D01*
X108272525Y-210541786D01*
X108122243Y-210532239D01*
X108018001Y-210510528D01*
X107855555Y-210454942D01*
X107797352Y-210421067D01*
X108436666Y-209858128D02*
X108242041Y-209121501D01*
X108707667Y-209392502D02*
X107971040Y-209587127D01*
X108881356Y-208558562D02*
X108823152Y-208524686D01*
X108660707Y-208469100D01*
X108556464Y-208447389D01*
X108406182Y-208437842D01*
X108163822Y-208452624D01*
X107979665Y-208501280D01*
X107761633Y-208608139D01*
X107635680Y-208690671D01*
X107555766Y-208761038D01*
X107441976Y-208889609D01*
X107408101Y-208947812D01*
X81714645Y-206082765D02*
X81010011Y-205373195D01*
X82120114Y-205680117D01*
X81415480Y-204970546D01*
X82088911Y-204972897D02*
X82325435Y-204738019D01*
X82795896Y-205009037D02*
X82458005Y-205344577D01*
X81753371Y-204635006D01*
X82091262Y-204299466D01*
X82800597Y-203662175D02*
X82699465Y-203695494D01*
X82598098Y-203796156D01*
X82530285Y-203930607D01*
X82529815Y-204065293D01*
X82563133Y-204166426D01*
X82663560Y-204335136D01*
X82764222Y-204436503D01*
X82932228Y-204538105D01*
X83033125Y-204572130D01*
X83167811Y-204572600D01*
X83302732Y-204505727D01*
X83370310Y-204438619D01*
X83438124Y-204304168D01*
X83438359Y-204236825D01*
X83203481Y-204000301D01*
X83068324Y-204134517D01*
X84280735Y-204071405D02*
X84213392Y-204071170D01*
X84045152Y-204036911D01*
X83944255Y-204002887D01*
X83809803Y-203935074D01*
X83608244Y-203799682D01*
X83474028Y-203664526D01*
X83340047Y-203462026D01*
X83273174Y-203327105D01*
X83239855Y-203225973D01*
X83206772Y-203057498D01*
X83207007Y-202990155D01*
X84014183Y-203262348D02*
X84554809Y-202725484D01*
X85361986Y-202997677D02*
X85362221Y-202930334D01*
X85329137Y-202761859D01*
X85295818Y-202660726D01*
X85228945Y-202525805D01*
X85094964Y-202323306D01*
X84960748Y-202188149D01*
X84759189Y-202052758D01*
X84624738Y-201984945D01*
X84523841Y-201950921D01*
X84355600Y-201916661D01*
X84288257Y-201916426D01*
X78981828Y-213380671D02*
X78016812Y-213118482D01*
X79131650Y-212829233D01*
X78166634Y-212567044D01*
X78751018Y-212232364D02*
X78838414Y-211910692D01*
X79381354Y-211910169D02*
X79256502Y-212369701D01*
X78291486Y-212107512D01*
X78416338Y-211647980D01*
X78711995Y-210741402D02*
X78641071Y-210820823D01*
X78603616Y-210958683D01*
X78612113Y-211109027D01*
X78679049Y-211225904D01*
X78758471Y-211296828D01*
X78929798Y-211392722D01*
X79067657Y-211430177D01*
X79263955Y-211434165D01*
X79368347Y-211413182D01*
X79485224Y-211346246D01*
X79568632Y-211220872D01*
X79593603Y-211128966D01*
X79585105Y-210978621D01*
X79551637Y-210920182D01*
X79229965Y-210832786D01*
X79180024Y-211016599D01*
X80198447Y-210355737D02*
X80140009Y-210389205D01*
X79977179Y-210443656D01*
X79872787Y-210464638D01*
X79722442Y-210473136D01*
X79480191Y-210456663D01*
X79296379Y-210406722D01*
X79079098Y-210298343D01*
X78953724Y-210214934D01*
X78874303Y-210144011D01*
X78761414Y-210014649D01*
X78727946Y-209956211D01*
X79563078Y-209788348D02*
X79762841Y-209053098D01*
X80597973Y-208885236D02*
X80564505Y-208826797D01*
X80451616Y-208697435D01*
X80372195Y-208626512D01*
X80246821Y-208543103D01*
X80029540Y-208434724D01*
X79845727Y-208384783D01*
X79603476Y-208368310D01*
X79453132Y-208376808D01*
X79348740Y-208397791D01*
X79185910Y-208452241D01*
X79127472Y-208485709D01*
X80266754Y-221068801D02*
X79299931Y-221324247D01*
X80120785Y-220516330D01*
X79153962Y-220771776D01*
X79492713Y-220189743D02*
X79407565Y-219867469D01*
X79877504Y-219595546D02*
X79999145Y-220055938D01*
X79032321Y-220311384D01*
X78910680Y-219850992D01*
X78713438Y-218918044D02*
X78691727Y-219022286D01*
X78728219Y-219160404D01*
X78810751Y-219286357D01*
X78927157Y-219354108D01*
X79031400Y-219375819D01*
X79227721Y-219373201D01*
X79365838Y-219336709D01*
X79537831Y-219242014D01*
X79617745Y-219171646D01*
X79685496Y-219055240D01*
X79695042Y-218904958D01*
X79670714Y-218812880D01*
X79588183Y-218686926D01*
X79529980Y-218653051D01*
X79207705Y-218738199D01*
X79256361Y-218922356D01*
X79807910Y-217840822D02*
X79774035Y-217899025D01*
X79660246Y-218027596D01*
X79580331Y-218097963D01*
X79454378Y-218180495D01*
X79236346Y-218287354D01*
X79052189Y-218336011D01*
X78809829Y-218350792D01*
X78659547Y-218341245D01*
X78555305Y-218319534D01*
X78392859Y-218263948D01*
X78334656Y-218230073D01*
X78973970Y-217667134D02*
X78779345Y-216930506D01*
X79418660Y-216367567D02*
X79360456Y-216333692D01*
X79198011Y-216278106D01*
X79093768Y-216256395D01*
X78943486Y-216246848D01*
X78701126Y-216261629D01*
X78516969Y-216310285D01*
X78298937Y-216417145D01*
X78172984Y-216499677D01*
X78093070Y-216570044D01*
X77979280Y-216698615D01*
X77945405Y-216756818D01*
X95493262Y-230600778D02*
X95237816Y-229633955D01*
X95606130Y-229536642D01*
X95710372Y-229558353D01*
X95768575Y-229592229D01*
X95838943Y-229672143D01*
X95875435Y-229810261D01*
X95853724Y-229914503D01*
X95819849Y-229972706D01*
X95739934Y-230043074D01*
X95371621Y-230140386D01*
X96388796Y-229329853D02*
X96572953Y-229281197D01*
X96677195Y-229302908D01*
X96793602Y-229370658D01*
X96888298Y-229542651D01*
X96973446Y-229864925D01*
X96976063Y-230061246D01*
X96908313Y-230177653D01*
X96828399Y-230248020D01*
X96644242Y-230296676D01*
X96539999Y-230274965D01*
X96423593Y-230207215D01*
X96328897Y-230035222D01*
X96243749Y-229712948D01*
X96241131Y-229516627D01*
X96308882Y-229400220D01*
X96388796Y-229329853D01*
X97414744Y-230043848D02*
X97565026Y-230053395D01*
X97795222Y-229992574D01*
X97875136Y-229922207D01*
X97909012Y-229864004D01*
X97930723Y-229759761D01*
X97906394Y-229667683D01*
X97836027Y-229587768D01*
X97777824Y-229553893D01*
X97673581Y-229532182D01*
X97477260Y-229534799D01*
X97373018Y-229513088D01*
X97314815Y-229479213D01*
X97244447Y-229399299D01*
X97220119Y-229307220D01*
X97241830Y-229202978D01*
X97275705Y-229144775D01*
X97355619Y-229074407D01*
X97585816Y-229013587D01*
X97736097Y-229023134D01*
X98767280Y-230129770D02*
X98709076Y-230095895D01*
X98580506Y-229982106D01*
X98510138Y-229902191D01*
X98427607Y-229776238D01*
X98320747Y-229558206D01*
X98272091Y-229374049D01*
X98257310Y-229131689D01*
X98266857Y-228981407D01*
X98288568Y-228877165D01*
X98344154Y-228714719D01*
X98378029Y-228656516D01*
X98940968Y-229295830D02*
X99677595Y-229101205D01*
X99406594Y-229566831D02*
X99211969Y-228830204D01*
X100240534Y-229740520D02*
X100274410Y-229682316D01*
X100329996Y-229519871D01*
X100351707Y-229415628D01*
X100361254Y-229265346D01*
X100346472Y-229022986D01*
X100297816Y-228838829D01*
X100190957Y-228620797D01*
X100108425Y-228494844D01*
X100038058Y-228414930D01*
X99909487Y-228301140D01*
X99851284Y-228267265D01*
X106858126Y-205626731D02*
X106148556Y-206331366D01*
X105880124Y-206061053D01*
X105846805Y-205959921D01*
X105847040Y-205892578D01*
X105881064Y-205791681D01*
X105982431Y-205691018D01*
X106083563Y-205657700D01*
X106150906Y-205657935D01*
X106251803Y-205691959D01*
X106520235Y-205962271D01*
X105309705Y-205486638D02*
X105175489Y-205351482D01*
X105142170Y-205250350D01*
X105142641Y-205115664D01*
X105244243Y-204947659D01*
X105480766Y-204712781D01*
X105649477Y-204612354D01*
X105784163Y-204612824D01*
X105885060Y-204646848D01*
X106019276Y-204782004D01*
X106052595Y-204883136D01*
X106052125Y-205017823D01*
X105950523Y-205185828D01*
X105713999Y-205420706D01*
X105545289Y-205521133D01*
X105410602Y-205520663D01*
X105309705Y-205486638D01*
X105415069Y-204241144D02*
X105348196Y-204106223D01*
X105180426Y-203937277D01*
X105079529Y-203903253D01*
X105012186Y-203903018D01*
X104911053Y-203936337D01*
X104843475Y-204003445D01*
X104809451Y-204104342D01*
X104809216Y-204171685D01*
X104842535Y-204272817D01*
X104942962Y-204441528D01*
X104976281Y-204542660D01*
X104976046Y-204610003D01*
X104942022Y-204710900D01*
X104874443Y-204778008D01*
X104773311Y-204811327D01*
X104705968Y-204811092D01*
X104605071Y-204777068D01*
X104437301Y-204608122D01*
X104370428Y-204473201D01*
X104813212Y-203026853D02*
X104812977Y-203094196D01*
X104778718Y-203262436D01*
X104744694Y-203363333D01*
X104676881Y-203497784D01*
X104541489Y-203699343D01*
X104406333Y-203833559D01*
X104203833Y-203967540D01*
X104068912Y-204034413D01*
X103967780Y-204067732D01*
X103799305Y-204100816D01*
X103731962Y-204100581D01*
X104004155Y-203293404D02*
X103467291Y-202752779D01*
X104006035Y-202754659D02*
X103465410Y-203291523D01*
X103739484Y-201945602D02*
X103672141Y-201945367D01*
X103503666Y-201978451D01*
X103402533Y-202011770D01*
X103267612Y-202078643D01*
X103065113Y-202212624D01*
X102929956Y-202346840D01*
X102794565Y-202548399D01*
X102726752Y-202682850D01*
X102692728Y-202783747D01*
X102658468Y-202951987D01*
X102658233Y-203019330D01*
X100528715Y-200410911D02*
X100266526Y-201375927D01*
X99898901Y-201276045D01*
X99819480Y-201205122D01*
X99786012Y-201146684D01*
X99765029Y-201042292D01*
X99802485Y-200904433D01*
X99873408Y-200825011D01*
X99931846Y-200791543D01*
X100036238Y-200770561D01*
X100403863Y-200870442D01*
X99117697Y-201063797D02*
X98933884Y-201013856D01*
X98854463Y-200942933D01*
X98787527Y-200826056D01*
X98791515Y-200629758D01*
X98878911Y-200308086D01*
X98974805Y-200136758D01*
X99091682Y-200069823D01*
X99196073Y-200048840D01*
X99379886Y-200098781D01*
X99459307Y-200169704D01*
X99526243Y-200286581D01*
X99522256Y-200482879D01*
X99434859Y-200804551D01*
X99338965Y-200975878D01*
X99222088Y-201042814D01*
X99117697Y-201063797D01*
X98586197Y-199932485D02*
X98460823Y-199849077D01*
X98231057Y-199786651D01*
X98126665Y-199807633D01*
X98068227Y-199841101D01*
X97997304Y-199920522D01*
X97972333Y-200012429D01*
X97993316Y-200116820D01*
X98026784Y-200175259D01*
X98106205Y-200246182D01*
X98277532Y-200342076D01*
X98356954Y-200413000D01*
X98390422Y-200471438D01*
X98411404Y-200575830D01*
X98386434Y-200667736D01*
X98315510Y-200747157D01*
X98257072Y-200780625D01*
X98152680Y-200801608D01*
X97922915Y-200739182D01*
X97797540Y-200655773D01*
X97457828Y-199181807D02*
X97491296Y-199240245D01*
X97545747Y-199403075D01*
X97566730Y-199507466D01*
X97575227Y-199657811D01*
X97558755Y-199900062D01*
X97508814Y-200083875D01*
X97400435Y-200301155D01*
X97317026Y-200426530D01*
X97246102Y-200505951D01*
X97116740Y-200618840D01*
X97058302Y-200652308D01*
X96890440Y-199817176D02*
X96155189Y-199617412D01*
X96622696Y-199349669D02*
X96422933Y-200084919D01*
X95987327Y-198782280D02*
X95928889Y-198815748D01*
X95799527Y-198928637D01*
X95728603Y-199008058D01*
X95645194Y-199133433D01*
X95536815Y-199350713D01*
X95486874Y-199534526D01*
X95470402Y-199776777D01*
X95478899Y-199927122D01*
X95499882Y-200031513D01*
X95554333Y-200194343D01*
X95587801Y-200252781D01*
X85213631Y-227087087D02*
X84504061Y-227791721D01*
X84810983Y-226681618D01*
X84101412Y-227386252D01*
X84103763Y-226712821D02*
X83868885Y-226476297D01*
X84139903Y-226005836D02*
X84475443Y-226343727D01*
X83765872Y-227048361D01*
X83430332Y-226710470D01*
X82793041Y-226001135D02*
X82826360Y-226102267D01*
X82927022Y-226203634D01*
X83061473Y-226271447D01*
X83196159Y-226271917D01*
X83297292Y-226238599D01*
X83466002Y-226138172D01*
X83567369Y-226037510D01*
X83668971Y-225869504D01*
X83702996Y-225768607D01*
X83703466Y-225633921D01*
X83636593Y-225499000D01*
X83569485Y-225431422D01*
X83435034Y-225363608D01*
X83367691Y-225363373D01*
X83131167Y-225598251D01*
X83265383Y-225733408D01*
X83202271Y-224520997D02*
X83202036Y-224588340D01*
X83167777Y-224756580D01*
X83133753Y-224857477D01*
X83065940Y-224991929D01*
X82930548Y-225193488D01*
X82795392Y-225327704D01*
X82592892Y-225461685D01*
X82457971Y-225528558D01*
X82356839Y-225561877D01*
X82188364Y-225594960D01*
X82121021Y-225594725D01*
X82393214Y-224787549D02*
X81856350Y-224246923D01*
X82128543Y-223439746D02*
X82061200Y-223439511D01*
X81892725Y-223472595D01*
X81791592Y-223505914D01*
X81656671Y-223572787D01*
X81454172Y-223706768D01*
X81319015Y-223840984D01*
X81183624Y-224042543D01*
X81115811Y-224176994D01*
X81081787Y-224277891D01*
X81047527Y-224446132D01*
X81047292Y-224513475D01*
X108389287Y-221395174D02*
X107424271Y-221132985D01*
X107524153Y-220765360D01*
X107595076Y-220685939D01*
X107653514Y-220652471D01*
X107757906Y-220631488D01*
X107895765Y-220668944D01*
X107975187Y-220739867D01*
X108008655Y-220798305D01*
X108029637Y-220902697D01*
X107929756Y-221270322D01*
X107736401Y-219984156D02*
X107786342Y-219800343D01*
X107857265Y-219720922D01*
X107974142Y-219653986D01*
X108170440Y-219657974D01*
X108492112Y-219745370D01*
X108663440Y-219841264D01*
X108730375Y-219958141D01*
X108751358Y-220062532D01*
X108701417Y-220246345D01*
X108630494Y-220325766D01*
X108513617Y-220392702D01*
X108317319Y-220388715D01*
X107995647Y-220301318D01*
X107824320Y-220205424D01*
X107757384Y-220088547D01*
X107736401Y-219984156D01*
X108867713Y-219452656D02*
X108951121Y-219327282D01*
X109013547Y-219097516D01*
X108992565Y-218993124D01*
X108959097Y-218934686D01*
X108879676Y-218863763D01*
X108787769Y-218838792D01*
X108683378Y-218859775D01*
X108624939Y-218893243D01*
X108554016Y-218972664D01*
X108458122Y-219143991D01*
X108387198Y-219223413D01*
X108328760Y-219256881D01*
X108224368Y-219277863D01*
X108132462Y-219252893D01*
X108053041Y-219181969D01*
X108019573Y-219123531D01*
X107998590Y-219019139D01*
X108061016Y-218789374D01*
X108144425Y-218663999D01*
X109618391Y-218324287D02*
X109559953Y-218357755D01*
X109397123Y-218412206D01*
X109292732Y-218433189D01*
X109142387Y-218441686D01*
X108900136Y-218425214D01*
X108716323Y-218375273D01*
X108499043Y-218266894D01*
X108373668Y-218183485D01*
X108294247Y-218112561D01*
X108181358Y-217983199D01*
X108147890Y-217924761D01*
X108983022Y-217756899D02*
X109182786Y-217021648D01*
X109450529Y-217489155D02*
X108715279Y-217289392D01*
X110017918Y-216853786D02*
X109984450Y-216795348D01*
X109871561Y-216665986D01*
X109792140Y-216595062D01*
X109666765Y-216511653D01*
X109449485Y-216403274D01*
X109265672Y-216353333D01*
X109023421Y-216336861D01*
X108873076Y-216345358D01*
X108768685Y-216366341D01*
X108605855Y-216420792D01*
X108547417Y-216454260D01*
X92514212Y-229818372D02*
X92252023Y-230783388D01*
X91962774Y-229668550D01*
X91700585Y-230633566D01*
X91365905Y-230049182D02*
X91044233Y-229961786D01*
X91043710Y-229418846D02*
X91503242Y-229543698D01*
X91241053Y-230508714D01*
X90781521Y-230383862D01*
X89874943Y-230088205D02*
X89954364Y-230159129D01*
X90092224Y-230196584D01*
X90242568Y-230188087D01*
X90359445Y-230121151D01*
X90430369Y-230041729D01*
X90526263Y-229870402D01*
X90563718Y-229732543D01*
X90567706Y-229536245D01*
X90546723Y-229431853D01*
X90479787Y-229314976D01*
X90354413Y-229231568D01*
X90262507Y-229206597D01*
X90112162Y-229215095D01*
X90053723Y-229248563D01*
X89966327Y-229570235D01*
X90150140Y-229620176D01*
X89489278Y-228601753D02*
X89522746Y-228660191D01*
X89577197Y-228823021D01*
X89598179Y-228927413D01*
X89606677Y-229077758D01*
X89590204Y-229320009D01*
X89540263Y-229503821D01*
X89431884Y-229721102D01*
X89348475Y-229846476D01*
X89277552Y-229925897D01*
X89148190Y-230038786D01*
X89089752Y-230072254D01*
X88921889Y-229237122D02*
X88186639Y-229037359D01*
X88018777Y-228202227D02*
X87960338Y-228235695D01*
X87830976Y-228348584D01*
X87760053Y-228428005D01*
X87676644Y-228553379D01*
X87568265Y-228770660D01*
X87518324Y-228954473D01*
X87501851Y-229196724D01*
X87510349Y-229347068D01*
X87531332Y-229451460D01*
X87585782Y-229614290D01*
X87619250Y-229672728D01*
X103175001Y-227727257D02*
X102470366Y-227017687D01*
X102740679Y-226749255D01*
X102841811Y-226715936D01*
X102909154Y-226716171D01*
X103010051Y-226750195D01*
X103110714Y-226851562D01*
X103144032Y-226952694D01*
X103143797Y-227020037D01*
X103109773Y-227120934D01*
X102839461Y-227389366D01*
X103315094Y-226178836D02*
X103450250Y-226044620D01*
X103551382Y-226011301D01*
X103686068Y-226011772D01*
X103854073Y-226113374D01*
X104088951Y-226349897D01*
X104189378Y-226518608D01*
X104188908Y-226653294D01*
X104154884Y-226754191D01*
X104019728Y-226888407D01*
X103918596Y-226921726D01*
X103783909Y-226921256D01*
X103615904Y-226819654D01*
X103381026Y-226583130D01*
X103280599Y-226414420D01*
X103281069Y-226279733D01*
X103315094Y-226178836D01*
X104560588Y-226284200D02*
X104695509Y-226217327D01*
X104864455Y-226049557D01*
X104898479Y-225948660D01*
X104898714Y-225881317D01*
X104865395Y-225780184D01*
X104798287Y-225712606D01*
X104697390Y-225678582D01*
X104630047Y-225678347D01*
X104528915Y-225711666D01*
X104360204Y-225812093D01*
X104259072Y-225845412D01*
X104191729Y-225845177D01*
X104090832Y-225811153D01*
X104023724Y-225743574D01*
X103990405Y-225642442D01*
X103990640Y-225575099D01*
X104024664Y-225474202D01*
X104193610Y-225306432D01*
X104328531Y-225239559D01*
X105774879Y-225682343D02*
X105707536Y-225682108D01*
X105539296Y-225647849D01*
X105438399Y-225613825D01*
X105303948Y-225546012D01*
X105102389Y-225410620D01*
X104968173Y-225275464D01*
X104834192Y-225072964D01*
X104767319Y-224938043D01*
X104734000Y-224836911D01*
X104700916Y-224668436D01*
X104701151Y-224601093D01*
X105508328Y-224873286D02*
X106048953Y-224336422D01*
X106047073Y-224875166D02*
X105510209Y-224334541D01*
X106856130Y-224608615D02*
X106856365Y-224541272D01*
X106823281Y-224372797D01*
X106789962Y-224271664D01*
X106723089Y-224136743D01*
X106589108Y-223934244D01*
X106454892Y-223799087D01*
X106253333Y-223663696D01*
X106118882Y-223595883D01*
X106017985Y-223561859D01*
X105849745Y-223527599D01*
X105782402Y-223527364D01*
X87730296Y-201125920D02*
X87474850Y-200159097D01*
X88282767Y-200979951D01*
X88027321Y-200013128D01*
X88609354Y-200351879D02*
X88931628Y-200266731D01*
X89203551Y-200736670D02*
X88743159Y-200858311D01*
X88487713Y-199891487D01*
X88948105Y-199769846D01*
X89881053Y-199572604D02*
X89776811Y-199550893D01*
X89638693Y-199587385D01*
X89512740Y-199669917D01*
X89444989Y-199786323D01*
X89423278Y-199890566D01*
X89425896Y-200086887D01*
X89462388Y-200225004D01*
X89557083Y-200396997D01*
X89627451Y-200476911D01*
X89743857Y-200544662D01*
X89894139Y-200554208D01*
X89986217Y-200529880D01*
X90112171Y-200447349D01*
X90146046Y-200389146D01*
X90060898Y-200066871D01*
X89876741Y-200115527D01*
X90958275Y-200667076D02*
X90900072Y-200633201D01*
X90771501Y-200519412D01*
X90701134Y-200439497D01*
X90618602Y-200313544D01*
X90511743Y-200095512D01*
X90463086Y-199911355D01*
X90448305Y-199668995D01*
X90457852Y-199518713D01*
X90479563Y-199414471D01*
X90535149Y-199252025D01*
X90569024Y-199193822D01*
X91131963Y-199833136D02*
X91868591Y-199638511D01*
X92431530Y-200277826D02*
X92465405Y-200219622D01*
X92520991Y-200057177D01*
X92542702Y-199952934D01*
X92552249Y-199802652D01*
X92537468Y-199560292D01*
X92488812Y-199376135D01*
X92381952Y-199158103D01*
X92299420Y-199032150D01*
X92229053Y-198952236D01*
X92100482Y-198838446D01*
X92042279Y-198804571D01*
D10*
%TO.C,U1*%
X92456190Y-294814761D02*
X92456190Y-296433809D01*
X92551428Y-296624285D01*
X92646666Y-296719523D01*
X92837142Y-296814761D01*
X93218095Y-296814761D01*
X93408571Y-296719523D01*
X93503809Y-296624285D01*
X93599047Y-296433809D01*
X93599047Y-294814761D01*
X95599047Y-296814761D02*
X94456190Y-296814761D01*
X95027619Y-296814761D02*
X95027619Y-294814761D01*
X94837142Y-295100476D01*
X94646666Y-295290952D01*
X94456190Y-295386190D01*
D11*
X99775289Y-331048386D02*
X99275289Y-330182360D01*
X100270160Y-330762671D01*
X99770160Y-329896646D01*
X100420649Y-330070944D02*
X100709324Y-329904277D01*
X101094947Y-330286481D02*
X100682554Y-330524576D01*
X100182554Y-329658551D01*
X100594947Y-329420455D01*
X101443542Y-328985504D02*
X101337254Y-328991884D01*
X101213536Y-329063313D01*
X101113628Y-329175981D01*
X101078768Y-329306078D01*
X101085148Y-329412366D01*
X101139147Y-329601133D01*
X101210575Y-329724851D01*
X101347053Y-329865999D01*
X101435911Y-329924668D01*
X101566009Y-329959527D01*
X101713536Y-329929338D01*
X101796015Y-329881719D01*
X101895923Y-329769051D01*
X101913353Y-329704002D01*
X101746686Y-329415327D01*
X101581729Y-329510565D01*
X102770038Y-329759252D02*
X102704989Y-329741823D01*
X102551082Y-329665724D01*
X102462223Y-329607055D01*
X102349556Y-329507146D01*
X102189269Y-329324759D01*
X102094030Y-329159802D01*
X102016222Y-328929796D01*
X101986033Y-328782269D01*
X101979653Y-328675981D01*
X101990703Y-328504644D01*
X102008133Y-328439595D01*
X102719000Y-328908947D02*
X103378829Y-328527995D01*
X104089695Y-328997348D02*
X104107125Y-328932299D01*
X104118175Y-328760962D01*
X104111796Y-328654674D01*
X104081606Y-328507146D01*
X104003798Y-328277140D01*
X103908560Y-328112183D01*
X103748273Y-327929796D01*
X103635605Y-327829888D01*
X103546747Y-327771219D01*
X103392840Y-327695120D01*
X103327791Y-327677690D01*
X80051224Y-310984719D02*
X79185199Y-310484719D01*
X79375675Y-310154804D01*
X79464534Y-310096135D01*
X79529582Y-310078705D01*
X79635870Y-310085085D01*
X79759588Y-310156514D01*
X79818257Y-310245372D01*
X79835687Y-310310421D01*
X79829308Y-310416709D01*
X79638831Y-310746624D01*
X79780437Y-309453736D02*
X79875675Y-309288779D01*
X79964534Y-309230110D01*
X80094631Y-309195250D01*
X80283398Y-309249249D01*
X80572073Y-309415916D01*
X80713221Y-309552393D01*
X80748080Y-309682491D01*
X80741701Y-309788779D01*
X80646462Y-309953736D01*
X80557604Y-310012405D01*
X80427506Y-310047265D01*
X80238740Y-309993266D01*
X79950065Y-309826599D01*
X79808917Y-309690122D01*
X79774057Y-309560024D01*
X79780437Y-309453736D01*
X81009985Y-309228858D02*
X81122653Y-309128950D01*
X81241701Y-308922754D01*
X81248080Y-308816465D01*
X81230651Y-308751417D01*
X81171981Y-308662558D01*
X81089503Y-308614939D01*
X80983215Y-308608559D01*
X80918166Y-308625989D01*
X80829308Y-308684658D01*
X80692830Y-308825806D01*
X80603972Y-308884475D01*
X80538923Y-308901905D01*
X80432635Y-308895525D01*
X80350156Y-308847906D01*
X80291487Y-308759048D01*
X80274057Y-308693999D01*
X80280437Y-308587711D01*
X80399485Y-308381514D01*
X80512153Y-308281606D01*
X82023996Y-308329683D02*
X81958947Y-308347113D01*
X81787610Y-308358163D01*
X81681322Y-308351783D01*
X81533795Y-308321594D01*
X81303789Y-308243785D01*
X81138831Y-308148547D01*
X80956444Y-307988260D01*
X80856536Y-307875593D01*
X80797867Y-307786734D01*
X80721768Y-307632827D01*
X80704338Y-307567778D01*
X81554643Y-307618816D02*
X81935596Y-306958987D01*
X82075034Y-307479378D02*
X81415205Y-307098425D01*
X82785901Y-307010025D02*
X82768471Y-306944976D01*
X82692372Y-306791069D01*
X82633703Y-306702211D01*
X82533795Y-306589543D01*
X82351408Y-306429256D01*
X82186450Y-306334018D01*
X81956444Y-306256210D01*
X81808917Y-306226020D01*
X81702629Y-306219641D01*
X81531292Y-306230691D01*
X81466243Y-306248120D01*
X82493004Y-325758467D02*
X81626978Y-326258467D01*
X82207289Y-325263596D01*
X81341264Y-325763596D01*
X81515562Y-325113107D02*
X81348895Y-324824432D01*
X81731099Y-324438809D02*
X81969194Y-324851202D01*
X81103169Y-325351202D01*
X80865073Y-324938809D01*
X80430122Y-324090214D02*
X80436502Y-324196502D01*
X80507931Y-324320220D01*
X80620599Y-324420128D01*
X80750696Y-324454988D01*
X80856984Y-324448608D01*
X81045751Y-324394609D01*
X81169469Y-324323181D01*
X81310617Y-324186703D01*
X81369286Y-324097845D01*
X81404145Y-323967747D01*
X81373956Y-323820220D01*
X81326337Y-323737741D01*
X81213669Y-323637833D01*
X81148620Y-323620403D01*
X80859945Y-323787070D01*
X80955183Y-323952027D01*
X81203870Y-322763718D02*
X81186441Y-322828767D01*
X81110342Y-322982674D01*
X81051673Y-323071533D01*
X80951764Y-323184200D01*
X80769377Y-323344487D01*
X80604420Y-323439726D01*
X80374414Y-323517534D01*
X80226887Y-323547723D01*
X80120599Y-323554103D01*
X79949262Y-323543053D01*
X79884213Y-323525623D01*
X80353565Y-322814756D02*
X79972613Y-322154927D01*
X80441966Y-321444061D02*
X80376917Y-321426631D01*
X80205580Y-321415581D01*
X80099292Y-321421960D01*
X79951764Y-321452150D01*
X79721758Y-321529958D01*
X79556801Y-321625196D01*
X79374414Y-321785483D01*
X79274506Y-321898151D01*
X79215837Y-321987009D01*
X79139738Y-322140916D01*
X79122308Y-322205965D01*
X79237282Y-318676190D02*
X78237282Y-318676190D01*
X79237282Y-318104761D01*
X78237282Y-318104761D01*
X78713473Y-317628571D02*
X78713473Y-317295238D01*
X79237282Y-317152381D02*
X79237282Y-317628571D01*
X78237282Y-317628571D01*
X78237282Y-317152381D01*
X78284902Y-316200000D02*
X78237282Y-316295238D01*
X78237282Y-316438095D01*
X78284902Y-316580952D01*
X78380140Y-316676190D01*
X78475378Y-316723809D01*
X78665854Y-316771428D01*
X78808711Y-316771428D01*
X78999187Y-316723809D01*
X79094425Y-316676190D01*
X79189663Y-316580952D01*
X79237282Y-316438095D01*
X79237282Y-316342857D01*
X79189663Y-316200000D01*
X79142044Y-316152381D01*
X78808711Y-316152381D01*
X78808711Y-316342857D01*
X79618235Y-315438095D02*
X79570616Y-315485714D01*
X79427759Y-315580952D01*
X79332521Y-315628571D01*
X79189663Y-315676190D01*
X78951568Y-315723809D01*
X78761092Y-315723809D01*
X78522997Y-315676190D01*
X78380140Y-315628571D01*
X78284902Y-315580952D01*
X78142044Y-315485714D01*
X78094425Y-315438095D01*
X78856330Y-315057142D02*
X78856330Y-314295238D01*
X79618235Y-313914285D02*
X79570616Y-313866666D01*
X79427759Y-313771428D01*
X79332521Y-313723809D01*
X79189663Y-313676190D01*
X78951568Y-313628571D01*
X78761092Y-313628571D01*
X78522997Y-313676190D01*
X78380140Y-313723809D01*
X78284902Y-313771428D01*
X78142044Y-313866666D01*
X78094425Y-313914285D01*
X109717282Y-318700001D02*
X108717282Y-318700001D01*
X108717282Y-318319048D01*
X108764902Y-318223810D01*
X108812521Y-318176191D01*
X108907759Y-318128572D01*
X109050616Y-318128572D01*
X109145854Y-318176191D01*
X109193473Y-318223810D01*
X109241092Y-318319048D01*
X109241092Y-318700001D01*
X108717282Y-317509524D02*
X108717282Y-317319048D01*
X108764902Y-317223810D01*
X108860140Y-317128572D01*
X109050616Y-317080953D01*
X109383949Y-317080953D01*
X109574425Y-317128572D01*
X109669663Y-317223810D01*
X109717282Y-317319048D01*
X109717282Y-317509524D01*
X109669663Y-317604762D01*
X109574425Y-317700001D01*
X109383949Y-317747620D01*
X109050616Y-317747620D01*
X108860140Y-317700001D01*
X108764902Y-317604762D01*
X108717282Y-317509524D01*
X109669663Y-316700001D02*
X109717282Y-316557143D01*
X109717282Y-316319048D01*
X109669663Y-316223810D01*
X109622044Y-316176191D01*
X109526806Y-316128572D01*
X109431568Y-316128572D01*
X109336330Y-316176191D01*
X109288711Y-316223810D01*
X109241092Y-316319048D01*
X109193473Y-316509524D01*
X109145854Y-316604762D01*
X109098235Y-316652382D01*
X109002997Y-316700001D01*
X108907759Y-316700001D01*
X108812521Y-316652382D01*
X108764902Y-316604762D01*
X108717282Y-316509524D01*
X108717282Y-316271429D01*
X108764902Y-316128572D01*
X110098235Y-315414286D02*
X110050616Y-315461905D01*
X109907759Y-315557143D01*
X109812521Y-315604762D01*
X109669663Y-315652382D01*
X109431568Y-315700001D01*
X109241092Y-315700001D01*
X109002997Y-315652382D01*
X108860140Y-315604762D01*
X108764902Y-315557143D01*
X108622044Y-315461905D01*
X108574425Y-315414286D01*
X109336330Y-315033334D02*
X109336330Y-314271429D01*
X109717282Y-314652382D02*
X108955378Y-314652382D01*
X110098235Y-313890477D02*
X110050616Y-313842858D01*
X109907759Y-313747620D01*
X109812521Y-313700001D01*
X109669663Y-313652382D01*
X109431568Y-313604762D01*
X109241092Y-313604762D01*
X109002997Y-313652382D01*
X108860140Y-313700001D01*
X108764902Y-313747620D01*
X108622044Y-313842858D01*
X108574425Y-313890477D01*
X91540568Y-301411201D02*
X91540568Y-300411201D01*
X91921521Y-300411201D01*
X92016759Y-300458821D01*
X92064378Y-300506440D01*
X92111997Y-300601678D01*
X92111997Y-300744535D01*
X92064378Y-300839773D01*
X92016759Y-300887392D01*
X91921521Y-300935011D01*
X91540568Y-300935011D01*
X92731045Y-300411201D02*
X92921521Y-300411201D01*
X93016759Y-300458821D01*
X93111997Y-300554059D01*
X93159616Y-300744535D01*
X93159616Y-301077868D01*
X93111997Y-301268344D01*
X93016759Y-301363582D01*
X92921521Y-301411201D01*
X92731045Y-301411201D01*
X92635807Y-301363582D01*
X92540568Y-301268344D01*
X92492949Y-301077868D01*
X92492949Y-300744535D01*
X92540568Y-300554059D01*
X92635807Y-300458821D01*
X92731045Y-300411201D01*
X93540568Y-301363582D02*
X93683426Y-301411201D01*
X93921521Y-301411201D01*
X94016759Y-301363582D01*
X94064378Y-301315963D01*
X94111997Y-301220725D01*
X94111997Y-301125487D01*
X94064378Y-301030249D01*
X94016759Y-300982630D01*
X93921521Y-300935011D01*
X93731045Y-300887392D01*
X93635807Y-300839773D01*
X93588188Y-300792154D01*
X93540568Y-300696916D01*
X93540568Y-300601678D01*
X93588188Y-300506440D01*
X93635807Y-300458821D01*
X93731045Y-300411201D01*
X93969140Y-300411201D01*
X94111997Y-300458821D01*
X94826283Y-301792154D02*
X94778664Y-301744535D01*
X94683426Y-301601678D01*
X94635807Y-301506440D01*
X94588188Y-301363582D01*
X94540568Y-301125487D01*
X94540568Y-300935011D01*
X94588188Y-300696916D01*
X94635807Y-300554059D01*
X94683426Y-300458821D01*
X94778664Y-300315963D01*
X94826283Y-300268344D01*
X95207235Y-301030249D02*
X95969140Y-301030249D01*
X95588188Y-301411201D02*
X95588188Y-300649297D01*
X96350092Y-301792154D02*
X96397711Y-301744535D01*
X96492949Y-301601678D01*
X96540568Y-301506440D01*
X96588188Y-301363582D01*
X96635807Y-301125487D01*
X96635807Y-300935011D01*
X96588188Y-300696916D01*
X96540568Y-300554059D01*
X96492949Y-300458821D01*
X96397711Y-300315963D01*
X96350092Y-300268344D01*
X88850703Y-330264838D02*
X88350703Y-331130863D01*
X88355831Y-329979124D01*
X87855831Y-330845149D01*
X87681534Y-330194661D02*
X87392859Y-330027994D01*
X87531045Y-329502933D02*
X87943438Y-329741028D01*
X87443438Y-330607054D01*
X87031045Y-330368959D01*
X86230069Y-329851529D02*
X86288738Y-329940387D01*
X86412456Y-330011816D01*
X86559983Y-330042005D01*
X86690081Y-330007145D01*
X86778939Y-329948476D01*
X86915417Y-329807329D01*
X86986845Y-329683611D01*
X87040844Y-329494844D01*
X87047224Y-329388556D01*
X87012364Y-329258458D01*
X86912456Y-329145790D01*
X86829977Y-329098171D01*
X86682450Y-329067982D01*
X86617401Y-329085412D01*
X86450734Y-329374087D01*
X86615691Y-329469325D01*
X86236907Y-328315876D02*
X86254336Y-328380925D01*
X86265386Y-328552262D01*
X86259007Y-328658550D01*
X86228817Y-328806077D01*
X86151009Y-329036083D01*
X86055771Y-329201040D01*
X85895484Y-329383427D01*
X85782816Y-329483336D01*
X85693958Y-329542005D01*
X85540051Y-329618104D01*
X85475002Y-329635534D01*
X85526040Y-328785228D02*
X84866211Y-328404276D01*
X84917249Y-327553971D02*
X84852200Y-327571401D01*
X84698293Y-327647500D01*
X84609434Y-327706169D01*
X84496767Y-327806077D01*
X84336480Y-327988464D01*
X84241242Y-328153421D01*
X84163433Y-328383427D01*
X84133244Y-328530955D01*
X84126864Y-328637243D01*
X84137914Y-328808580D01*
X84155344Y-328873629D01*
X104111324Y-303880289D02*
X103611324Y-304746314D01*
X103281409Y-304555838D01*
X103222740Y-304466979D01*
X103205310Y-304401931D01*
X103211690Y-304295643D01*
X103283119Y-304171925D01*
X103371977Y-304113256D01*
X103437026Y-304095826D01*
X103543314Y-304102205D01*
X103873229Y-304292682D01*
X102580341Y-304151076D02*
X102415384Y-304055838D01*
X102356715Y-303966979D01*
X102321855Y-303836882D01*
X102375854Y-303648115D01*
X102542521Y-303359440D01*
X102678998Y-303218292D01*
X102809096Y-303183433D01*
X102915384Y-303189812D01*
X103080341Y-303285051D01*
X103139010Y-303373909D01*
X103173870Y-303504007D01*
X103119871Y-303692773D01*
X102953204Y-303981448D01*
X102816727Y-304122596D01*
X102686629Y-304157456D01*
X102580341Y-304151076D01*
X102355463Y-302921528D02*
X102255555Y-302808860D01*
X102049359Y-302689812D01*
X101943070Y-302683433D01*
X101878022Y-302700862D01*
X101789163Y-302759532D01*
X101741544Y-302842010D01*
X101735164Y-302948298D01*
X101752594Y-303013347D01*
X101811263Y-303102205D01*
X101952411Y-303238683D01*
X102011080Y-303327541D01*
X102028510Y-303392590D01*
X102022130Y-303498878D01*
X101974511Y-303581357D01*
X101885653Y-303640026D01*
X101820604Y-303657456D01*
X101714316Y-303651076D01*
X101508119Y-303532028D01*
X101408211Y-303419360D01*
X101456288Y-301907517D02*
X101473718Y-301972566D01*
X101484768Y-302143903D01*
X101478388Y-302250191D01*
X101448199Y-302397718D01*
X101370390Y-302627724D01*
X101275152Y-302792682D01*
X101114865Y-302975069D01*
X101002198Y-303074977D01*
X100913339Y-303133646D01*
X100759432Y-303209745D01*
X100694383Y-303227175D01*
X100745421Y-302376870D02*
X100085592Y-301995917D01*
X100605983Y-301856479D02*
X100225030Y-302516308D01*
X100136630Y-301145612D02*
X100071581Y-301163042D01*
X99917674Y-301239141D01*
X99828816Y-301297810D01*
X99716148Y-301397718D01*
X99555861Y-301580105D01*
X99460623Y-301745063D01*
X99382815Y-301975069D01*
X99352625Y-302122596D01*
X99346246Y-302228884D01*
X99357296Y-302400221D01*
X99374725Y-302465270D01*
X108901362Y-310539088D02*
X108035337Y-311039088D01*
X107844861Y-310709173D01*
X107838481Y-310602885D01*
X107855911Y-310537836D01*
X107914580Y-310448978D01*
X108038298Y-310377550D01*
X108144586Y-310371170D01*
X108209635Y-310388600D01*
X108298493Y-310447269D01*
X108488969Y-310777183D01*
X107440099Y-310008105D02*
X107344861Y-309843148D01*
X107338481Y-309736860D01*
X107373341Y-309606762D01*
X107514488Y-309470285D01*
X107803163Y-309303618D01*
X107991930Y-309249619D01*
X108122028Y-309284479D01*
X108210886Y-309343148D01*
X108306124Y-309508105D01*
X108312504Y-309614393D01*
X108277645Y-309744491D01*
X108136497Y-309880968D01*
X107847822Y-310047635D01*
X107659055Y-310101634D01*
X107528957Y-310066774D01*
X107440099Y-310008105D01*
X107860123Y-308830847D02*
X107829934Y-308683319D01*
X107710886Y-308477123D01*
X107622028Y-308418454D01*
X107556979Y-308401024D01*
X107450691Y-308407403D01*
X107368212Y-308455023D01*
X107309543Y-308543881D01*
X107292113Y-308608930D01*
X107298493Y-308715218D01*
X107352492Y-308903985D01*
X107358872Y-309010273D01*
X107341442Y-309075322D01*
X107282773Y-309164180D01*
X107200294Y-309211799D01*
X107094006Y-309218179D01*
X107028957Y-309200749D01*
X106940099Y-309142080D01*
X106821051Y-308935883D01*
X106790862Y-308788356D01*
X107588420Y-307503100D02*
X107570990Y-307568148D01*
X107494891Y-307722056D01*
X107436222Y-307810914D01*
X107336314Y-307923582D01*
X107153927Y-308083869D01*
X106988969Y-308179107D01*
X106758963Y-308256915D01*
X106611436Y-308287104D01*
X106505148Y-308293484D01*
X106333811Y-308282434D01*
X106268762Y-308265004D01*
X106738115Y-307554138D02*
X106357162Y-306894309D01*
X106877553Y-307033747D02*
X106217724Y-307414699D01*
X106826515Y-306183442D02*
X106761466Y-306166012D01*
X106590129Y-306154962D01*
X106483841Y-306161342D01*
X106336314Y-306191531D01*
X106106308Y-306269339D01*
X105941350Y-306364577D01*
X105758963Y-306524864D01*
X105659055Y-306637532D01*
X105600386Y-306726391D01*
X105524287Y-306880298D01*
X105506857Y-306945347D01*
X106459584Y-326204100D02*
X105593559Y-325704100D01*
X106745298Y-325709228D01*
X105879273Y-325209228D01*
X106529761Y-325034931D02*
X106696428Y-324746256D01*
X107221489Y-324884442D02*
X106983394Y-325296835D01*
X106117368Y-324796835D01*
X106355463Y-324384442D01*
X106872893Y-323583466D02*
X106784035Y-323642135D01*
X106712606Y-323765853D01*
X106682417Y-323913380D01*
X106717277Y-324043478D01*
X106775946Y-324132336D01*
X106917093Y-324268814D01*
X107040811Y-324340242D01*
X107229578Y-324394241D01*
X107335866Y-324400621D01*
X107465964Y-324365761D01*
X107578632Y-324265853D01*
X107626251Y-324183374D01*
X107656440Y-324035847D01*
X107639010Y-323970798D01*
X107350335Y-323804131D01*
X107255097Y-323969088D01*
X108408546Y-323590304D02*
X108343497Y-323607733D01*
X108172160Y-323618783D01*
X108065872Y-323612404D01*
X107918345Y-323582214D01*
X107688339Y-323504406D01*
X107523382Y-323409168D01*
X107340995Y-323248881D01*
X107241086Y-323136213D01*
X107182417Y-323047355D01*
X107106318Y-322893448D01*
X107088888Y-322828399D01*
X107939194Y-322879437D02*
X108320146Y-322219608D01*
X109170451Y-322270646D02*
X109153021Y-322205597D01*
X109076922Y-322051690D01*
X109018253Y-321962831D01*
X108918345Y-321850164D01*
X108735958Y-321689877D01*
X108571001Y-321594639D01*
X108340995Y-321516830D01*
X108193467Y-321486641D01*
X108087179Y-321480261D01*
X107915842Y-321491311D01*
X107850793Y-321508741D01*
X84514670Y-304663835D02*
X84014670Y-303797810D01*
X84344585Y-303607334D01*
X84450873Y-303600954D01*
X84515922Y-303618384D01*
X84604780Y-303677053D01*
X84676208Y-303800771D01*
X84682588Y-303907059D01*
X84665158Y-303972108D01*
X84606489Y-304060966D01*
X84276575Y-304251442D01*
X85045653Y-303202572D02*
X85210610Y-303107334D01*
X85316898Y-303100954D01*
X85446996Y-303135814D01*
X85583473Y-303276961D01*
X85750140Y-303565636D01*
X85804139Y-303754403D01*
X85769279Y-303884501D01*
X85710610Y-303973359D01*
X85545653Y-304068597D01*
X85439365Y-304074977D01*
X85309267Y-304040118D01*
X85172790Y-303898970D01*
X85006123Y-303610295D01*
X84952124Y-303421528D01*
X84986984Y-303291430D01*
X85045653Y-303202572D01*
X86222911Y-303622596D02*
X86370439Y-303592407D01*
X86576635Y-303473359D01*
X86635304Y-303384501D01*
X86652734Y-303319452D01*
X86646355Y-303213164D01*
X86598735Y-303130685D01*
X86509877Y-303072016D01*
X86444828Y-303054586D01*
X86338540Y-303060966D01*
X86149773Y-303114965D01*
X86043485Y-303121345D01*
X85978436Y-303103915D01*
X85889578Y-303045246D01*
X85841959Y-302962767D01*
X85835579Y-302856479D01*
X85853009Y-302791430D01*
X85911678Y-302702572D01*
X86117875Y-302583524D01*
X86265402Y-302553335D01*
X87550658Y-303350893D02*
X87485610Y-303333463D01*
X87331702Y-303257364D01*
X87242844Y-303198695D01*
X87130176Y-303098787D01*
X86969889Y-302916400D01*
X86874651Y-302751442D01*
X86796843Y-302521436D01*
X86766654Y-302373909D01*
X86760274Y-302267621D01*
X86771324Y-302096284D01*
X86788754Y-302031235D01*
X87499620Y-302500588D02*
X88159449Y-302119635D01*
X88020011Y-302640026D02*
X87639059Y-301980197D01*
X88870316Y-302588988D02*
X88887746Y-302523939D01*
X88898796Y-302352602D01*
X88892416Y-302246314D01*
X88862227Y-302098787D01*
X88784419Y-301868781D01*
X88689181Y-301703823D01*
X88528894Y-301521436D01*
X88416226Y-301421528D01*
X88327367Y-301362859D01*
X88173460Y-301286760D01*
X88108411Y-301269330D01*
X91564377Y-331891202D02*
X91564377Y-330891202D01*
X92135806Y-331891202D01*
X92135806Y-330891202D01*
X92611996Y-331367393D02*
X92945329Y-331367393D01*
X93088187Y-331891202D02*
X92611996Y-331891202D01*
X92611996Y-330891202D01*
X93088187Y-330891202D01*
X94040567Y-330938822D02*
X93945329Y-330891202D01*
X93802472Y-330891202D01*
X93659615Y-330938822D01*
X93564377Y-331034060D01*
X93516758Y-331129298D01*
X93469139Y-331319774D01*
X93469139Y-331462631D01*
X93516758Y-331653107D01*
X93564377Y-331748345D01*
X93659615Y-331843583D01*
X93802472Y-331891202D01*
X93897710Y-331891202D01*
X94040567Y-331843583D01*
X94088187Y-331795964D01*
X94088187Y-331462631D01*
X93897710Y-331462631D01*
X94802472Y-332272155D02*
X94754853Y-332224536D01*
X94659615Y-332081679D01*
X94611996Y-331986441D01*
X94564377Y-331843583D01*
X94516758Y-331605488D01*
X94516758Y-331415012D01*
X94564377Y-331176917D01*
X94611996Y-331034060D01*
X94659615Y-330938822D01*
X94754853Y-330795964D01*
X94802472Y-330748345D01*
X95183425Y-331510250D02*
X95945329Y-331510250D01*
X96326282Y-332272155D02*
X96373901Y-332224536D01*
X96469139Y-332081679D01*
X96516758Y-331986441D01*
X96564377Y-331843583D01*
X96611996Y-331605488D01*
X96611996Y-331415012D01*
X96564377Y-331176917D01*
X96516758Y-331034060D01*
X96469139Y-330938822D01*
X96373901Y-330795964D01*
X96326282Y-330748345D01*
D10*
%TO.C,U4*%
X153416190Y-244014761D02*
X153416190Y-245633809D01*
X153511428Y-245824285D01*
X153606666Y-245919523D01*
X153797142Y-246014761D01*
X154178095Y-246014761D01*
X154368571Y-245919523D01*
X154463809Y-245824285D01*
X154559047Y-245633809D01*
X154559047Y-244014761D01*
X156368571Y-244681428D02*
X156368571Y-246014761D01*
X155892380Y-243919523D02*
X155416190Y-245348095D01*
X156654285Y-245348095D01*
D11*
X141011224Y-260184719D02*
X140145199Y-259684719D01*
X140335675Y-259354804D01*
X140424534Y-259296135D01*
X140489582Y-259278705D01*
X140595870Y-259285085D01*
X140719588Y-259356514D01*
X140778257Y-259445372D01*
X140795687Y-259510421D01*
X140789308Y-259616709D01*
X140598831Y-259946624D01*
X140740437Y-258653736D02*
X140835675Y-258488779D01*
X140924534Y-258430110D01*
X141054631Y-258395250D01*
X141243398Y-258449249D01*
X141532073Y-258615916D01*
X141673221Y-258752393D01*
X141708080Y-258882491D01*
X141701701Y-258988779D01*
X141606462Y-259153736D01*
X141517604Y-259212405D01*
X141387506Y-259247265D01*
X141198740Y-259193266D01*
X140910065Y-259026599D01*
X140768917Y-258890122D01*
X140734057Y-258760024D01*
X140740437Y-258653736D01*
X141969985Y-258428858D02*
X142082653Y-258328950D01*
X142201701Y-258122754D01*
X142208080Y-258016465D01*
X142190651Y-257951417D01*
X142131981Y-257862558D01*
X142049503Y-257814939D01*
X141943215Y-257808559D01*
X141878166Y-257825989D01*
X141789308Y-257884658D01*
X141652830Y-258025806D01*
X141563972Y-258084475D01*
X141498923Y-258101905D01*
X141392635Y-258095525D01*
X141310156Y-258047906D01*
X141251487Y-257959048D01*
X141234057Y-257893999D01*
X141240437Y-257787711D01*
X141359485Y-257581514D01*
X141472153Y-257481606D01*
X142983996Y-257529683D02*
X142918947Y-257547113D01*
X142747610Y-257558163D01*
X142641322Y-257551783D01*
X142493795Y-257521594D01*
X142263789Y-257443785D01*
X142098831Y-257348547D01*
X141916444Y-257188260D01*
X141816536Y-257075593D01*
X141757867Y-256986734D01*
X141681768Y-256832827D01*
X141664338Y-256767778D01*
X142514643Y-256818816D02*
X142895596Y-256158987D01*
X143035034Y-256679378D02*
X142375205Y-256298425D01*
X143745901Y-256210025D02*
X143728471Y-256144976D01*
X143652372Y-255991069D01*
X143593703Y-255902211D01*
X143493795Y-255789543D01*
X143311408Y-255629256D01*
X143146450Y-255534018D01*
X142916444Y-255456210D01*
X142768917Y-255426020D01*
X142662629Y-255419641D01*
X142491292Y-255430691D01*
X142426243Y-255448120D01*
X169861362Y-259739088D02*
X168995337Y-260239088D01*
X168804861Y-259909173D01*
X168798481Y-259802885D01*
X168815911Y-259737836D01*
X168874580Y-259648978D01*
X168998298Y-259577550D01*
X169104586Y-259571170D01*
X169169635Y-259588600D01*
X169258493Y-259647269D01*
X169448969Y-259977183D01*
X168400099Y-259208105D02*
X168304861Y-259043148D01*
X168298481Y-258936860D01*
X168333341Y-258806762D01*
X168474488Y-258670285D01*
X168763163Y-258503618D01*
X168951930Y-258449619D01*
X169082028Y-258484479D01*
X169170886Y-258543148D01*
X169266124Y-258708105D01*
X169272504Y-258814393D01*
X169237645Y-258944491D01*
X169096497Y-259080968D01*
X168807822Y-259247635D01*
X168619055Y-259301634D01*
X168488957Y-259266774D01*
X168400099Y-259208105D01*
X168820123Y-258030847D02*
X168789934Y-257883319D01*
X168670886Y-257677123D01*
X168582028Y-257618454D01*
X168516979Y-257601024D01*
X168410691Y-257607403D01*
X168328212Y-257655023D01*
X168269543Y-257743881D01*
X168252113Y-257808930D01*
X168258493Y-257915218D01*
X168312492Y-258103985D01*
X168318872Y-258210273D01*
X168301442Y-258275322D01*
X168242773Y-258364180D01*
X168160294Y-258411799D01*
X168054006Y-258418179D01*
X167988957Y-258400749D01*
X167900099Y-258342080D01*
X167781051Y-258135883D01*
X167750862Y-257988356D01*
X168548420Y-256703100D02*
X168530990Y-256768148D01*
X168454891Y-256922056D01*
X168396222Y-257010914D01*
X168296314Y-257123582D01*
X168113927Y-257283869D01*
X167948969Y-257379107D01*
X167718963Y-257456915D01*
X167571436Y-257487104D01*
X167465148Y-257493484D01*
X167293811Y-257482434D01*
X167228762Y-257465004D01*
X167698115Y-256754138D02*
X167317162Y-256094309D01*
X167837553Y-256233747D02*
X167177724Y-256614699D01*
X167786515Y-255383442D02*
X167721466Y-255366012D01*
X167550129Y-255354962D01*
X167443841Y-255361342D01*
X167296314Y-255391531D01*
X167066308Y-255469339D01*
X166901350Y-255564577D01*
X166718963Y-255724864D01*
X166619055Y-255837532D01*
X166560386Y-255926391D01*
X166484287Y-256080298D01*
X166466857Y-256145347D01*
X167419584Y-275404100D02*
X166553559Y-274904100D01*
X167705298Y-274909228D01*
X166839273Y-274409228D01*
X167489761Y-274234931D02*
X167656428Y-273946256D01*
X168181489Y-274084442D02*
X167943394Y-274496835D01*
X167077368Y-273996835D01*
X167315463Y-273584442D01*
X167832893Y-272783466D02*
X167744035Y-272842135D01*
X167672606Y-272965853D01*
X167642417Y-273113380D01*
X167677277Y-273243478D01*
X167735946Y-273332336D01*
X167877093Y-273468814D01*
X168000811Y-273540242D01*
X168189578Y-273594241D01*
X168295866Y-273600621D01*
X168425964Y-273565761D01*
X168538632Y-273465853D01*
X168586251Y-273383374D01*
X168616440Y-273235847D01*
X168599010Y-273170798D01*
X168310335Y-273004131D01*
X168215097Y-273169088D01*
X169368546Y-272790304D02*
X169303497Y-272807733D01*
X169132160Y-272818783D01*
X169025872Y-272812404D01*
X168878345Y-272782214D01*
X168648339Y-272704406D01*
X168483382Y-272609168D01*
X168300995Y-272448881D01*
X168201086Y-272336213D01*
X168142417Y-272247355D01*
X168066318Y-272093448D01*
X168048888Y-272028399D01*
X168899194Y-272079437D02*
X169280146Y-271419608D01*
X170130451Y-271470646D02*
X170113021Y-271405597D01*
X170036922Y-271251690D01*
X169978253Y-271162831D01*
X169878345Y-271050164D01*
X169695958Y-270889877D01*
X169531001Y-270794639D01*
X169300995Y-270716830D01*
X169153467Y-270686641D01*
X169047179Y-270680261D01*
X168875842Y-270691311D01*
X168810793Y-270708741D01*
X149810703Y-279464838D02*
X149310703Y-280330863D01*
X149315831Y-279179124D01*
X148815831Y-280045149D01*
X148641534Y-279394661D02*
X148352859Y-279227994D01*
X148491045Y-278702933D02*
X148903438Y-278941028D01*
X148403438Y-279807054D01*
X147991045Y-279568959D01*
X147190069Y-279051529D02*
X147248738Y-279140387D01*
X147372456Y-279211816D01*
X147519983Y-279242005D01*
X147650081Y-279207145D01*
X147738939Y-279148476D01*
X147875417Y-279007329D01*
X147946845Y-278883611D01*
X148000844Y-278694844D01*
X148007224Y-278588556D01*
X147972364Y-278458458D01*
X147872456Y-278345790D01*
X147789977Y-278298171D01*
X147642450Y-278267982D01*
X147577401Y-278285412D01*
X147410734Y-278574087D01*
X147575691Y-278669325D01*
X147196907Y-277515876D02*
X147214336Y-277580925D01*
X147225386Y-277752262D01*
X147219007Y-277858550D01*
X147188817Y-278006077D01*
X147111009Y-278236083D01*
X147015771Y-278401040D01*
X146855484Y-278583427D01*
X146742816Y-278683336D01*
X146653958Y-278742005D01*
X146500051Y-278818104D01*
X146435002Y-278835534D01*
X146486040Y-277985228D02*
X145826211Y-277604276D01*
X145877249Y-276753971D02*
X145812200Y-276771401D01*
X145658293Y-276847500D01*
X145569434Y-276906169D01*
X145456767Y-277006077D01*
X145296480Y-277188464D01*
X145201242Y-277353421D01*
X145123433Y-277583427D01*
X145093244Y-277730955D01*
X145086864Y-277837243D01*
X145097914Y-278008580D01*
X145115344Y-278073629D01*
X165071324Y-253080289D02*
X164571324Y-253946314D01*
X164241409Y-253755838D01*
X164182740Y-253666979D01*
X164165310Y-253601931D01*
X164171690Y-253495643D01*
X164243119Y-253371925D01*
X164331977Y-253313256D01*
X164397026Y-253295826D01*
X164503314Y-253302205D01*
X164833229Y-253492682D01*
X163540341Y-253351076D02*
X163375384Y-253255838D01*
X163316715Y-253166979D01*
X163281855Y-253036882D01*
X163335854Y-252848115D01*
X163502521Y-252559440D01*
X163638998Y-252418292D01*
X163769096Y-252383433D01*
X163875384Y-252389812D01*
X164040341Y-252485051D01*
X164099010Y-252573909D01*
X164133870Y-252704007D01*
X164079871Y-252892773D01*
X163913204Y-253181448D01*
X163776727Y-253322596D01*
X163646629Y-253357456D01*
X163540341Y-253351076D01*
X163315463Y-252121528D02*
X163215555Y-252008860D01*
X163009359Y-251889812D01*
X162903070Y-251883433D01*
X162838022Y-251900862D01*
X162749163Y-251959532D01*
X162701544Y-252042010D01*
X162695164Y-252148298D01*
X162712594Y-252213347D01*
X162771263Y-252302205D01*
X162912411Y-252438683D01*
X162971080Y-252527541D01*
X162988510Y-252592590D01*
X162982130Y-252698878D01*
X162934511Y-252781357D01*
X162845653Y-252840026D01*
X162780604Y-252857456D01*
X162674316Y-252851076D01*
X162468119Y-252732028D01*
X162368211Y-252619360D01*
X162416288Y-251107517D02*
X162433718Y-251172566D01*
X162444768Y-251343903D01*
X162438388Y-251450191D01*
X162408199Y-251597718D01*
X162330390Y-251827724D01*
X162235152Y-251992682D01*
X162074865Y-252175069D01*
X161962198Y-252274977D01*
X161873339Y-252333646D01*
X161719432Y-252409745D01*
X161654383Y-252427175D01*
X161705421Y-251576870D02*
X161045592Y-251195917D01*
X161565983Y-251056479D02*
X161185030Y-251716308D01*
X161096630Y-250345612D02*
X161031581Y-250363042D01*
X160877674Y-250439141D01*
X160788816Y-250497810D01*
X160676148Y-250597718D01*
X160515861Y-250780105D01*
X160420623Y-250945063D01*
X160342815Y-251175069D01*
X160312625Y-251322596D01*
X160306246Y-251428884D01*
X160317296Y-251600221D01*
X160334725Y-251665270D01*
X170677282Y-267900001D02*
X169677282Y-267900001D01*
X169677282Y-267519048D01*
X169724902Y-267423810D01*
X169772521Y-267376191D01*
X169867759Y-267328572D01*
X170010616Y-267328572D01*
X170105854Y-267376191D01*
X170153473Y-267423810D01*
X170201092Y-267519048D01*
X170201092Y-267900001D01*
X169677282Y-266709524D02*
X169677282Y-266519048D01*
X169724902Y-266423810D01*
X169820140Y-266328572D01*
X170010616Y-266280953D01*
X170343949Y-266280953D01*
X170534425Y-266328572D01*
X170629663Y-266423810D01*
X170677282Y-266519048D01*
X170677282Y-266709524D01*
X170629663Y-266804762D01*
X170534425Y-266900001D01*
X170343949Y-266947620D01*
X170010616Y-266947620D01*
X169820140Y-266900001D01*
X169724902Y-266804762D01*
X169677282Y-266709524D01*
X170629663Y-265900001D02*
X170677282Y-265757143D01*
X170677282Y-265519048D01*
X170629663Y-265423810D01*
X170582044Y-265376191D01*
X170486806Y-265328572D01*
X170391568Y-265328572D01*
X170296330Y-265376191D01*
X170248711Y-265423810D01*
X170201092Y-265519048D01*
X170153473Y-265709524D01*
X170105854Y-265804762D01*
X170058235Y-265852382D01*
X169962997Y-265900001D01*
X169867759Y-265900001D01*
X169772521Y-265852382D01*
X169724902Y-265804762D01*
X169677282Y-265709524D01*
X169677282Y-265471429D01*
X169724902Y-265328572D01*
X171058235Y-264614286D02*
X171010616Y-264661905D01*
X170867759Y-264757143D01*
X170772521Y-264804762D01*
X170629663Y-264852382D01*
X170391568Y-264900001D01*
X170201092Y-264900001D01*
X169962997Y-264852382D01*
X169820140Y-264804762D01*
X169724902Y-264757143D01*
X169582044Y-264661905D01*
X169534425Y-264614286D01*
X170296330Y-264233334D02*
X170296330Y-263471429D01*
X170677282Y-263852382D02*
X169915378Y-263852382D01*
X171058235Y-263090477D02*
X171010616Y-263042858D01*
X170867759Y-262947620D01*
X170772521Y-262900001D01*
X170629663Y-262852382D01*
X170391568Y-262804762D01*
X170201092Y-262804762D01*
X169962997Y-262852382D01*
X169820140Y-262900001D01*
X169724902Y-262947620D01*
X169582044Y-263042858D01*
X169534425Y-263090477D01*
X152524377Y-281091202D02*
X152524377Y-280091202D01*
X153095806Y-281091202D01*
X153095806Y-280091202D01*
X153571996Y-280567393D02*
X153905329Y-280567393D01*
X154048187Y-281091202D02*
X153571996Y-281091202D01*
X153571996Y-280091202D01*
X154048187Y-280091202D01*
X155000567Y-280138822D02*
X154905329Y-280091202D01*
X154762472Y-280091202D01*
X154619615Y-280138822D01*
X154524377Y-280234060D01*
X154476758Y-280329298D01*
X154429139Y-280519774D01*
X154429139Y-280662631D01*
X154476758Y-280853107D01*
X154524377Y-280948345D01*
X154619615Y-281043583D01*
X154762472Y-281091202D01*
X154857710Y-281091202D01*
X155000567Y-281043583D01*
X155048187Y-280995964D01*
X155048187Y-280662631D01*
X154857710Y-280662631D01*
X155762472Y-281472155D02*
X155714853Y-281424536D01*
X155619615Y-281281679D01*
X155571996Y-281186441D01*
X155524377Y-281043583D01*
X155476758Y-280805488D01*
X155476758Y-280615012D01*
X155524377Y-280376917D01*
X155571996Y-280234060D01*
X155619615Y-280138822D01*
X155714853Y-279995964D01*
X155762472Y-279948345D01*
X156143425Y-280710250D02*
X156905329Y-280710250D01*
X157286282Y-281472155D02*
X157333901Y-281424536D01*
X157429139Y-281281679D01*
X157476758Y-281186441D01*
X157524377Y-281043583D01*
X157571996Y-280805488D01*
X157571996Y-280615012D01*
X157524377Y-280376917D01*
X157476758Y-280234060D01*
X157429139Y-280138822D01*
X157333901Y-279995964D01*
X157286282Y-279948345D01*
X143453004Y-274958467D02*
X142586978Y-275458467D01*
X143167289Y-274463596D01*
X142301264Y-274963596D01*
X142475562Y-274313107D02*
X142308895Y-274024432D01*
X142691099Y-273638809D02*
X142929194Y-274051202D01*
X142063169Y-274551202D01*
X141825073Y-274138809D01*
X141390122Y-273290214D02*
X141396502Y-273396502D01*
X141467931Y-273520220D01*
X141580599Y-273620128D01*
X141710696Y-273654988D01*
X141816984Y-273648608D01*
X142005751Y-273594609D01*
X142129469Y-273523181D01*
X142270617Y-273386703D01*
X142329286Y-273297845D01*
X142364145Y-273167747D01*
X142333956Y-273020220D01*
X142286337Y-272937741D01*
X142173669Y-272837833D01*
X142108620Y-272820403D01*
X141819945Y-272987070D01*
X141915183Y-273152027D01*
X142163870Y-271963718D02*
X142146441Y-272028767D01*
X142070342Y-272182674D01*
X142011673Y-272271533D01*
X141911764Y-272384200D01*
X141729377Y-272544487D01*
X141564420Y-272639726D01*
X141334414Y-272717534D01*
X141186887Y-272747723D01*
X141080599Y-272754103D01*
X140909262Y-272743053D01*
X140844213Y-272725623D01*
X141313565Y-272014756D02*
X140932613Y-271354927D01*
X141401966Y-270644061D02*
X141336917Y-270626631D01*
X141165580Y-270615581D01*
X141059292Y-270621960D01*
X140911764Y-270652150D01*
X140681758Y-270729958D01*
X140516801Y-270825196D01*
X140334414Y-270985483D01*
X140234506Y-271098151D01*
X140175837Y-271187009D01*
X140099738Y-271340916D01*
X140082308Y-271405965D01*
X145474670Y-253863835D02*
X144974670Y-252997810D01*
X145304585Y-252807334D01*
X145410873Y-252800954D01*
X145475922Y-252818384D01*
X145564780Y-252877053D01*
X145636208Y-253000771D01*
X145642588Y-253107059D01*
X145625158Y-253172108D01*
X145566489Y-253260966D01*
X145236575Y-253451442D01*
X146005653Y-252402572D02*
X146170610Y-252307334D01*
X146276898Y-252300954D01*
X146406996Y-252335814D01*
X146543473Y-252476961D01*
X146710140Y-252765636D01*
X146764139Y-252954403D01*
X146729279Y-253084501D01*
X146670610Y-253173359D01*
X146505653Y-253268597D01*
X146399365Y-253274977D01*
X146269267Y-253240118D01*
X146132790Y-253098970D01*
X145966123Y-252810295D01*
X145912124Y-252621528D01*
X145946984Y-252491430D01*
X146005653Y-252402572D01*
X147182911Y-252822596D02*
X147330439Y-252792407D01*
X147536635Y-252673359D01*
X147595304Y-252584501D01*
X147612734Y-252519452D01*
X147606355Y-252413164D01*
X147558735Y-252330685D01*
X147469877Y-252272016D01*
X147404828Y-252254586D01*
X147298540Y-252260966D01*
X147109773Y-252314965D01*
X147003485Y-252321345D01*
X146938436Y-252303915D01*
X146849578Y-252245246D01*
X146801959Y-252162767D01*
X146795579Y-252056479D01*
X146813009Y-251991430D01*
X146871678Y-251902572D01*
X147077875Y-251783524D01*
X147225402Y-251753335D01*
X148510658Y-252550893D02*
X148445610Y-252533463D01*
X148291702Y-252457364D01*
X148202844Y-252398695D01*
X148090176Y-252298787D01*
X147929889Y-252116400D01*
X147834651Y-251951442D01*
X147756843Y-251721436D01*
X147726654Y-251573909D01*
X147720274Y-251467621D01*
X147731324Y-251296284D01*
X147748754Y-251231235D01*
X148459620Y-251700588D02*
X149119449Y-251319635D01*
X148980011Y-251840026D02*
X148599059Y-251180197D01*
X149830316Y-251788988D02*
X149847746Y-251723939D01*
X149858796Y-251552602D01*
X149852416Y-251446314D01*
X149822227Y-251298787D01*
X149744419Y-251068781D01*
X149649181Y-250903823D01*
X149488894Y-250721436D01*
X149376226Y-250621528D01*
X149287367Y-250562859D01*
X149133460Y-250486760D01*
X149068411Y-250469330D01*
X152500568Y-250611201D02*
X152500568Y-249611201D01*
X152881521Y-249611201D01*
X152976759Y-249658821D01*
X153024378Y-249706440D01*
X153071997Y-249801678D01*
X153071997Y-249944535D01*
X153024378Y-250039773D01*
X152976759Y-250087392D01*
X152881521Y-250135011D01*
X152500568Y-250135011D01*
X153691045Y-249611201D02*
X153881521Y-249611201D01*
X153976759Y-249658821D01*
X154071997Y-249754059D01*
X154119616Y-249944535D01*
X154119616Y-250277868D01*
X154071997Y-250468344D01*
X153976759Y-250563582D01*
X153881521Y-250611201D01*
X153691045Y-250611201D01*
X153595807Y-250563582D01*
X153500568Y-250468344D01*
X153452949Y-250277868D01*
X153452949Y-249944535D01*
X153500568Y-249754059D01*
X153595807Y-249658821D01*
X153691045Y-249611201D01*
X154500568Y-250563582D02*
X154643426Y-250611201D01*
X154881521Y-250611201D01*
X154976759Y-250563582D01*
X155024378Y-250515963D01*
X155071997Y-250420725D01*
X155071997Y-250325487D01*
X155024378Y-250230249D01*
X154976759Y-250182630D01*
X154881521Y-250135011D01*
X154691045Y-250087392D01*
X154595807Y-250039773D01*
X154548188Y-249992154D01*
X154500568Y-249896916D01*
X154500568Y-249801678D01*
X154548188Y-249706440D01*
X154595807Y-249658821D01*
X154691045Y-249611201D01*
X154929140Y-249611201D01*
X155071997Y-249658821D01*
X155786283Y-250992154D02*
X155738664Y-250944535D01*
X155643426Y-250801678D01*
X155595807Y-250706440D01*
X155548188Y-250563582D01*
X155500568Y-250325487D01*
X155500568Y-250135011D01*
X155548188Y-249896916D01*
X155595807Y-249754059D01*
X155643426Y-249658821D01*
X155738664Y-249515963D01*
X155786283Y-249468344D01*
X156167235Y-250230249D02*
X156929140Y-250230249D01*
X156548188Y-250611201D02*
X156548188Y-249849297D01*
X157310092Y-250992154D02*
X157357711Y-250944535D01*
X157452949Y-250801678D01*
X157500568Y-250706440D01*
X157548188Y-250563582D01*
X157595807Y-250325487D01*
X157595807Y-250135011D01*
X157548188Y-249896916D01*
X157500568Y-249754059D01*
X157452949Y-249658821D01*
X157357711Y-249515963D01*
X157310092Y-249468344D01*
X160735289Y-280248386D02*
X160235289Y-279382360D01*
X161230160Y-279962671D01*
X160730160Y-279096646D01*
X161380649Y-279270944D02*
X161669324Y-279104277D01*
X162054947Y-279486481D02*
X161642554Y-279724576D01*
X161142554Y-278858551D01*
X161554947Y-278620455D01*
X162403542Y-278185504D02*
X162297254Y-278191884D01*
X162173536Y-278263313D01*
X162073628Y-278375981D01*
X162038768Y-278506078D01*
X162045148Y-278612366D01*
X162099147Y-278801133D01*
X162170575Y-278924851D01*
X162307053Y-279065999D01*
X162395911Y-279124668D01*
X162526009Y-279159527D01*
X162673536Y-279129338D01*
X162756015Y-279081719D01*
X162855923Y-278969051D01*
X162873353Y-278904002D01*
X162706686Y-278615327D01*
X162541729Y-278710565D01*
X163730038Y-278959252D02*
X163664989Y-278941823D01*
X163511082Y-278865724D01*
X163422223Y-278807055D01*
X163309556Y-278707146D01*
X163149269Y-278524759D01*
X163054030Y-278359802D01*
X162976222Y-278129796D01*
X162946033Y-277982269D01*
X162939653Y-277875981D01*
X162950703Y-277704644D01*
X162968133Y-277639595D01*
X163679000Y-278108947D02*
X164338829Y-277727995D01*
X165049695Y-278197348D02*
X165067125Y-278132299D01*
X165078175Y-277960962D01*
X165071796Y-277854674D01*
X165041606Y-277707146D01*
X164963798Y-277477140D01*
X164868560Y-277312183D01*
X164708273Y-277129796D01*
X164595605Y-277029888D01*
X164506747Y-276971219D01*
X164352840Y-276895120D01*
X164287791Y-276877690D01*
X140197282Y-267876190D02*
X139197282Y-267876190D01*
X140197282Y-267304761D01*
X139197282Y-267304761D01*
X139673473Y-266828571D02*
X139673473Y-266495238D01*
X140197282Y-266352381D02*
X140197282Y-266828571D01*
X139197282Y-266828571D01*
X139197282Y-266352381D01*
X139244902Y-265400000D02*
X139197282Y-265495238D01*
X139197282Y-265638095D01*
X139244902Y-265780952D01*
X139340140Y-265876190D01*
X139435378Y-265923809D01*
X139625854Y-265971428D01*
X139768711Y-265971428D01*
X139959187Y-265923809D01*
X140054425Y-265876190D01*
X140149663Y-265780952D01*
X140197282Y-265638095D01*
X140197282Y-265542857D01*
X140149663Y-265400000D01*
X140102044Y-265352381D01*
X139768711Y-265352381D01*
X139768711Y-265542857D01*
X140578235Y-264638095D02*
X140530616Y-264685714D01*
X140387759Y-264780952D01*
X140292521Y-264828571D01*
X140149663Y-264876190D01*
X139911568Y-264923809D01*
X139721092Y-264923809D01*
X139482997Y-264876190D01*
X139340140Y-264828571D01*
X139244902Y-264780952D01*
X139102044Y-264685714D01*
X139054425Y-264638095D01*
X139816330Y-264257142D02*
X139816330Y-263495238D01*
X140578235Y-263114285D02*
X140530616Y-263066666D01*
X140387759Y-262971428D01*
X140292521Y-262923809D01*
X140149663Y-262876190D01*
X139911568Y-262828571D01*
X139721092Y-262828571D01*
X139482997Y-262876190D01*
X139340140Y-262923809D01*
X139244902Y-262971428D01*
X139102044Y-263066666D01*
X139054425Y-263114285D01*
D10*
%TO.C,U2*%
X153416190Y-294814761D02*
X153416190Y-296433809D01*
X153511428Y-296624285D01*
X153606666Y-296719523D01*
X153797142Y-296814761D01*
X154178095Y-296814761D01*
X154368571Y-296719523D01*
X154463809Y-296624285D01*
X154559047Y-296433809D01*
X154559047Y-294814761D01*
X155416190Y-295005238D02*
X155511428Y-294910000D01*
X155701904Y-294814761D01*
X156178095Y-294814761D01*
X156368571Y-294910000D01*
X156463809Y-295005238D01*
X156559047Y-295195714D01*
X156559047Y-295386190D01*
X156463809Y-295671904D01*
X155320952Y-296814761D01*
X156559047Y-296814761D01*
D11*
X152500568Y-301411201D02*
X152500568Y-300411201D01*
X152881521Y-300411201D01*
X152976759Y-300458821D01*
X153024378Y-300506440D01*
X153071997Y-300601678D01*
X153071997Y-300744535D01*
X153024378Y-300839773D01*
X152976759Y-300887392D01*
X152881521Y-300935011D01*
X152500568Y-300935011D01*
X153691045Y-300411201D02*
X153881521Y-300411201D01*
X153976759Y-300458821D01*
X154071997Y-300554059D01*
X154119616Y-300744535D01*
X154119616Y-301077868D01*
X154071997Y-301268344D01*
X153976759Y-301363582D01*
X153881521Y-301411201D01*
X153691045Y-301411201D01*
X153595807Y-301363582D01*
X153500568Y-301268344D01*
X153452949Y-301077868D01*
X153452949Y-300744535D01*
X153500568Y-300554059D01*
X153595807Y-300458821D01*
X153691045Y-300411201D01*
X154500568Y-301363582D02*
X154643426Y-301411201D01*
X154881521Y-301411201D01*
X154976759Y-301363582D01*
X155024378Y-301315963D01*
X155071997Y-301220725D01*
X155071997Y-301125487D01*
X155024378Y-301030249D01*
X154976759Y-300982630D01*
X154881521Y-300935011D01*
X154691045Y-300887392D01*
X154595807Y-300839773D01*
X154548188Y-300792154D01*
X154500568Y-300696916D01*
X154500568Y-300601678D01*
X154548188Y-300506440D01*
X154595807Y-300458821D01*
X154691045Y-300411201D01*
X154929140Y-300411201D01*
X155071997Y-300458821D01*
X155786283Y-301792154D02*
X155738664Y-301744535D01*
X155643426Y-301601678D01*
X155595807Y-301506440D01*
X155548188Y-301363582D01*
X155500568Y-301125487D01*
X155500568Y-300935011D01*
X155548188Y-300696916D01*
X155595807Y-300554059D01*
X155643426Y-300458821D01*
X155738664Y-300315963D01*
X155786283Y-300268344D01*
X156167235Y-301030249D02*
X156929140Y-301030249D01*
X156548188Y-301411201D02*
X156548188Y-300649297D01*
X157310092Y-301792154D02*
X157357711Y-301744535D01*
X157452949Y-301601678D01*
X157500568Y-301506440D01*
X157548188Y-301363582D01*
X157595807Y-301125487D01*
X157595807Y-300935011D01*
X157548188Y-300696916D01*
X157500568Y-300554059D01*
X157452949Y-300458821D01*
X157357711Y-300315963D01*
X157310092Y-300268344D01*
X145474670Y-304663835D02*
X144974670Y-303797810D01*
X145304585Y-303607334D01*
X145410873Y-303600954D01*
X145475922Y-303618384D01*
X145564780Y-303677053D01*
X145636208Y-303800771D01*
X145642588Y-303907059D01*
X145625158Y-303972108D01*
X145566489Y-304060966D01*
X145236575Y-304251442D01*
X146005653Y-303202572D02*
X146170610Y-303107334D01*
X146276898Y-303100954D01*
X146406996Y-303135814D01*
X146543473Y-303276961D01*
X146710140Y-303565636D01*
X146764139Y-303754403D01*
X146729279Y-303884501D01*
X146670610Y-303973359D01*
X146505653Y-304068597D01*
X146399365Y-304074977D01*
X146269267Y-304040118D01*
X146132790Y-303898970D01*
X145966123Y-303610295D01*
X145912124Y-303421528D01*
X145946984Y-303291430D01*
X146005653Y-303202572D01*
X147182911Y-303622596D02*
X147330439Y-303592407D01*
X147536635Y-303473359D01*
X147595304Y-303384501D01*
X147612734Y-303319452D01*
X147606355Y-303213164D01*
X147558735Y-303130685D01*
X147469877Y-303072016D01*
X147404828Y-303054586D01*
X147298540Y-303060966D01*
X147109773Y-303114965D01*
X147003485Y-303121345D01*
X146938436Y-303103915D01*
X146849578Y-303045246D01*
X146801959Y-302962767D01*
X146795579Y-302856479D01*
X146813009Y-302791430D01*
X146871678Y-302702572D01*
X147077875Y-302583524D01*
X147225402Y-302553335D01*
X148510658Y-303350893D02*
X148445610Y-303333463D01*
X148291702Y-303257364D01*
X148202844Y-303198695D01*
X148090176Y-303098787D01*
X147929889Y-302916400D01*
X147834651Y-302751442D01*
X147756843Y-302521436D01*
X147726654Y-302373909D01*
X147720274Y-302267621D01*
X147731324Y-302096284D01*
X147748754Y-302031235D01*
X148459620Y-302500588D02*
X149119449Y-302119635D01*
X148980011Y-302640026D02*
X148599059Y-301980197D01*
X149830316Y-302588988D02*
X149847746Y-302523939D01*
X149858796Y-302352602D01*
X149852416Y-302246314D01*
X149822227Y-302098787D01*
X149744419Y-301868781D01*
X149649181Y-301703823D01*
X149488894Y-301521436D01*
X149376226Y-301421528D01*
X149287367Y-301362859D01*
X149133460Y-301286760D01*
X149068411Y-301269330D01*
X140197282Y-318676190D02*
X139197282Y-318676190D01*
X140197282Y-318104761D01*
X139197282Y-318104761D01*
X139673473Y-317628571D02*
X139673473Y-317295238D01*
X140197282Y-317152381D02*
X140197282Y-317628571D01*
X139197282Y-317628571D01*
X139197282Y-317152381D01*
X139244902Y-316200000D02*
X139197282Y-316295238D01*
X139197282Y-316438095D01*
X139244902Y-316580952D01*
X139340140Y-316676190D01*
X139435378Y-316723809D01*
X139625854Y-316771428D01*
X139768711Y-316771428D01*
X139959187Y-316723809D01*
X140054425Y-316676190D01*
X140149663Y-316580952D01*
X140197282Y-316438095D01*
X140197282Y-316342857D01*
X140149663Y-316200000D01*
X140102044Y-316152381D01*
X139768711Y-316152381D01*
X139768711Y-316342857D01*
X140578235Y-315438095D02*
X140530616Y-315485714D01*
X140387759Y-315580952D01*
X140292521Y-315628571D01*
X140149663Y-315676190D01*
X139911568Y-315723809D01*
X139721092Y-315723809D01*
X139482997Y-315676190D01*
X139340140Y-315628571D01*
X139244902Y-315580952D01*
X139102044Y-315485714D01*
X139054425Y-315438095D01*
X139816330Y-315057142D02*
X139816330Y-314295238D01*
X140578235Y-313914285D02*
X140530616Y-313866666D01*
X140387759Y-313771428D01*
X140292521Y-313723809D01*
X140149663Y-313676190D01*
X139911568Y-313628571D01*
X139721092Y-313628571D01*
X139482997Y-313676190D01*
X139340140Y-313723809D01*
X139244902Y-313771428D01*
X139102044Y-313866666D01*
X139054425Y-313914285D01*
X169861362Y-310539088D02*
X168995337Y-311039088D01*
X168804861Y-310709173D01*
X168798481Y-310602885D01*
X168815911Y-310537836D01*
X168874580Y-310448978D01*
X168998298Y-310377550D01*
X169104586Y-310371170D01*
X169169635Y-310388600D01*
X169258493Y-310447269D01*
X169448969Y-310777183D01*
X168400099Y-310008105D02*
X168304861Y-309843148D01*
X168298481Y-309736860D01*
X168333341Y-309606762D01*
X168474488Y-309470285D01*
X168763163Y-309303618D01*
X168951930Y-309249619D01*
X169082028Y-309284479D01*
X169170886Y-309343148D01*
X169266124Y-309508105D01*
X169272504Y-309614393D01*
X169237645Y-309744491D01*
X169096497Y-309880968D01*
X168807822Y-310047635D01*
X168619055Y-310101634D01*
X168488957Y-310066774D01*
X168400099Y-310008105D01*
X168820123Y-308830847D02*
X168789934Y-308683319D01*
X168670886Y-308477123D01*
X168582028Y-308418454D01*
X168516979Y-308401024D01*
X168410691Y-308407403D01*
X168328212Y-308455023D01*
X168269543Y-308543881D01*
X168252113Y-308608930D01*
X168258493Y-308715218D01*
X168312492Y-308903985D01*
X168318872Y-309010273D01*
X168301442Y-309075322D01*
X168242773Y-309164180D01*
X168160294Y-309211799D01*
X168054006Y-309218179D01*
X167988957Y-309200749D01*
X167900099Y-309142080D01*
X167781051Y-308935883D01*
X167750862Y-308788356D01*
X168548420Y-307503100D02*
X168530990Y-307568148D01*
X168454891Y-307722056D01*
X168396222Y-307810914D01*
X168296314Y-307923582D01*
X168113927Y-308083869D01*
X167948969Y-308179107D01*
X167718963Y-308256915D01*
X167571436Y-308287104D01*
X167465148Y-308293484D01*
X167293811Y-308282434D01*
X167228762Y-308265004D01*
X167698115Y-307554138D02*
X167317162Y-306894309D01*
X167837553Y-307033747D02*
X167177724Y-307414699D01*
X167786515Y-306183442D02*
X167721466Y-306166012D01*
X167550129Y-306154962D01*
X167443841Y-306161342D01*
X167296314Y-306191531D01*
X167066308Y-306269339D01*
X166901350Y-306364577D01*
X166718963Y-306524864D01*
X166619055Y-306637532D01*
X166560386Y-306726391D01*
X166484287Y-306880298D01*
X166466857Y-306945347D01*
X152524377Y-331891202D02*
X152524377Y-330891202D01*
X153095806Y-331891202D01*
X153095806Y-330891202D01*
X153571996Y-331367393D02*
X153905329Y-331367393D01*
X154048187Y-331891202D02*
X153571996Y-331891202D01*
X153571996Y-330891202D01*
X154048187Y-330891202D01*
X155000567Y-330938822D02*
X154905329Y-330891202D01*
X154762472Y-330891202D01*
X154619615Y-330938822D01*
X154524377Y-331034060D01*
X154476758Y-331129298D01*
X154429139Y-331319774D01*
X154429139Y-331462631D01*
X154476758Y-331653107D01*
X154524377Y-331748345D01*
X154619615Y-331843583D01*
X154762472Y-331891202D01*
X154857710Y-331891202D01*
X155000567Y-331843583D01*
X155048187Y-331795964D01*
X155048187Y-331462631D01*
X154857710Y-331462631D01*
X155762472Y-332272155D02*
X155714853Y-332224536D01*
X155619615Y-332081679D01*
X155571996Y-331986441D01*
X155524377Y-331843583D01*
X155476758Y-331605488D01*
X155476758Y-331415012D01*
X155524377Y-331176917D01*
X155571996Y-331034060D01*
X155619615Y-330938822D01*
X155714853Y-330795964D01*
X155762472Y-330748345D01*
X156143425Y-331510250D02*
X156905329Y-331510250D01*
X157286282Y-332272155D02*
X157333901Y-332224536D01*
X157429139Y-332081679D01*
X157476758Y-331986441D01*
X157524377Y-331843583D01*
X157571996Y-331605488D01*
X157571996Y-331415012D01*
X157524377Y-331176917D01*
X157476758Y-331034060D01*
X157429139Y-330938822D01*
X157333901Y-330795964D01*
X157286282Y-330748345D01*
X170677282Y-318700001D02*
X169677282Y-318700001D01*
X169677282Y-318319048D01*
X169724902Y-318223810D01*
X169772521Y-318176191D01*
X169867759Y-318128572D01*
X170010616Y-318128572D01*
X170105854Y-318176191D01*
X170153473Y-318223810D01*
X170201092Y-318319048D01*
X170201092Y-318700001D01*
X169677282Y-317509524D02*
X169677282Y-317319048D01*
X169724902Y-317223810D01*
X169820140Y-317128572D01*
X170010616Y-317080953D01*
X170343949Y-317080953D01*
X170534425Y-317128572D01*
X170629663Y-317223810D01*
X170677282Y-317319048D01*
X170677282Y-317509524D01*
X170629663Y-317604762D01*
X170534425Y-317700001D01*
X170343949Y-317747620D01*
X170010616Y-317747620D01*
X169820140Y-317700001D01*
X169724902Y-317604762D01*
X169677282Y-317509524D01*
X170629663Y-316700001D02*
X170677282Y-316557143D01*
X170677282Y-316319048D01*
X170629663Y-316223810D01*
X170582044Y-316176191D01*
X170486806Y-316128572D01*
X170391568Y-316128572D01*
X170296330Y-316176191D01*
X170248711Y-316223810D01*
X170201092Y-316319048D01*
X170153473Y-316509524D01*
X170105854Y-316604762D01*
X170058235Y-316652382D01*
X169962997Y-316700001D01*
X169867759Y-316700001D01*
X169772521Y-316652382D01*
X169724902Y-316604762D01*
X169677282Y-316509524D01*
X169677282Y-316271429D01*
X169724902Y-316128572D01*
X171058235Y-315414286D02*
X171010616Y-315461905D01*
X170867759Y-315557143D01*
X170772521Y-315604762D01*
X170629663Y-315652382D01*
X170391568Y-315700001D01*
X170201092Y-315700001D01*
X169962997Y-315652382D01*
X169820140Y-315604762D01*
X169724902Y-315557143D01*
X169582044Y-315461905D01*
X169534425Y-315414286D01*
X170296330Y-315033334D02*
X170296330Y-314271429D01*
X170677282Y-314652382D02*
X169915378Y-314652382D01*
X171058235Y-313890477D02*
X171010616Y-313842858D01*
X170867759Y-313747620D01*
X170772521Y-313700001D01*
X170629663Y-313652382D01*
X170391568Y-313604762D01*
X170201092Y-313604762D01*
X169962997Y-313652382D01*
X169820140Y-313700001D01*
X169724902Y-313747620D01*
X169582044Y-313842858D01*
X169534425Y-313890477D01*
X165071324Y-303880289D02*
X164571324Y-304746314D01*
X164241409Y-304555838D01*
X164182740Y-304466979D01*
X164165310Y-304401931D01*
X164171690Y-304295643D01*
X164243119Y-304171925D01*
X164331977Y-304113256D01*
X164397026Y-304095826D01*
X164503314Y-304102205D01*
X164833229Y-304292682D01*
X163540341Y-304151076D02*
X163375384Y-304055838D01*
X163316715Y-303966979D01*
X163281855Y-303836882D01*
X163335854Y-303648115D01*
X163502521Y-303359440D01*
X163638998Y-303218292D01*
X163769096Y-303183433D01*
X163875384Y-303189812D01*
X164040341Y-303285051D01*
X164099010Y-303373909D01*
X164133870Y-303504007D01*
X164079871Y-303692773D01*
X163913204Y-303981448D01*
X163776727Y-304122596D01*
X163646629Y-304157456D01*
X163540341Y-304151076D01*
X163315463Y-302921528D02*
X163215555Y-302808860D01*
X163009359Y-302689812D01*
X162903070Y-302683433D01*
X162838022Y-302700862D01*
X162749163Y-302759532D01*
X162701544Y-302842010D01*
X162695164Y-302948298D01*
X162712594Y-303013347D01*
X162771263Y-303102205D01*
X162912411Y-303238683D01*
X162971080Y-303327541D01*
X162988510Y-303392590D01*
X162982130Y-303498878D01*
X162934511Y-303581357D01*
X162845653Y-303640026D01*
X162780604Y-303657456D01*
X162674316Y-303651076D01*
X162468119Y-303532028D01*
X162368211Y-303419360D01*
X162416288Y-301907517D02*
X162433718Y-301972566D01*
X162444768Y-302143903D01*
X162438388Y-302250191D01*
X162408199Y-302397718D01*
X162330390Y-302627724D01*
X162235152Y-302792682D01*
X162074865Y-302975069D01*
X161962198Y-303074977D01*
X161873339Y-303133646D01*
X161719432Y-303209745D01*
X161654383Y-303227175D01*
X161705421Y-302376870D02*
X161045592Y-301995917D01*
X161565983Y-301856479D02*
X161185030Y-302516308D01*
X161096630Y-301145612D02*
X161031581Y-301163042D01*
X160877674Y-301239141D01*
X160788816Y-301297810D01*
X160676148Y-301397718D01*
X160515861Y-301580105D01*
X160420623Y-301745063D01*
X160342815Y-301975069D01*
X160312625Y-302122596D01*
X160306246Y-302228884D01*
X160317296Y-302400221D01*
X160334725Y-302465270D01*
X160735289Y-331048386D02*
X160235289Y-330182360D01*
X161230160Y-330762671D01*
X160730160Y-329896646D01*
X161380649Y-330070944D02*
X161669324Y-329904277D01*
X162054947Y-330286481D02*
X161642554Y-330524576D01*
X161142554Y-329658551D01*
X161554947Y-329420455D01*
X162403542Y-328985504D02*
X162297254Y-328991884D01*
X162173536Y-329063313D01*
X162073628Y-329175981D01*
X162038768Y-329306078D01*
X162045148Y-329412366D01*
X162099147Y-329601133D01*
X162170575Y-329724851D01*
X162307053Y-329865999D01*
X162395911Y-329924668D01*
X162526009Y-329959527D01*
X162673536Y-329929338D01*
X162756015Y-329881719D01*
X162855923Y-329769051D01*
X162873353Y-329704002D01*
X162706686Y-329415327D01*
X162541729Y-329510565D01*
X163730038Y-329759252D02*
X163664989Y-329741823D01*
X163511082Y-329665724D01*
X163422223Y-329607055D01*
X163309556Y-329507146D01*
X163149269Y-329324759D01*
X163054030Y-329159802D01*
X162976222Y-328929796D01*
X162946033Y-328782269D01*
X162939653Y-328675981D01*
X162950703Y-328504644D01*
X162968133Y-328439595D01*
X163679000Y-328908947D02*
X164338829Y-328527995D01*
X165049695Y-328997348D02*
X165067125Y-328932299D01*
X165078175Y-328760962D01*
X165071796Y-328654674D01*
X165041606Y-328507146D01*
X164963798Y-328277140D01*
X164868560Y-328112183D01*
X164708273Y-327929796D01*
X164595605Y-327829888D01*
X164506747Y-327771219D01*
X164352840Y-327695120D01*
X164287791Y-327677690D01*
X141011224Y-310984719D02*
X140145199Y-310484719D01*
X140335675Y-310154804D01*
X140424534Y-310096135D01*
X140489582Y-310078705D01*
X140595870Y-310085085D01*
X140719588Y-310156514D01*
X140778257Y-310245372D01*
X140795687Y-310310421D01*
X140789308Y-310416709D01*
X140598831Y-310746624D01*
X140740437Y-309453736D02*
X140835675Y-309288779D01*
X140924534Y-309230110D01*
X141054631Y-309195250D01*
X141243398Y-309249249D01*
X141532073Y-309415916D01*
X141673221Y-309552393D01*
X141708080Y-309682491D01*
X141701701Y-309788779D01*
X141606462Y-309953736D01*
X141517604Y-310012405D01*
X141387506Y-310047265D01*
X141198740Y-309993266D01*
X140910065Y-309826599D01*
X140768917Y-309690122D01*
X140734057Y-309560024D01*
X140740437Y-309453736D01*
X141969985Y-309228858D02*
X142082653Y-309128950D01*
X142201701Y-308922754D01*
X142208080Y-308816465D01*
X142190651Y-308751417D01*
X142131981Y-308662558D01*
X142049503Y-308614939D01*
X141943215Y-308608559D01*
X141878166Y-308625989D01*
X141789308Y-308684658D01*
X141652830Y-308825806D01*
X141563972Y-308884475D01*
X141498923Y-308901905D01*
X141392635Y-308895525D01*
X141310156Y-308847906D01*
X141251487Y-308759048D01*
X141234057Y-308693999D01*
X141240437Y-308587711D01*
X141359485Y-308381514D01*
X141472153Y-308281606D01*
X142983996Y-308329683D02*
X142918947Y-308347113D01*
X142747610Y-308358163D01*
X142641322Y-308351783D01*
X142493795Y-308321594D01*
X142263789Y-308243785D01*
X142098831Y-308148547D01*
X141916444Y-307988260D01*
X141816536Y-307875593D01*
X141757867Y-307786734D01*
X141681768Y-307632827D01*
X141664338Y-307567778D01*
X142514643Y-307618816D02*
X142895596Y-306958987D01*
X143035034Y-307479378D02*
X142375205Y-307098425D01*
X143745901Y-307010025D02*
X143728471Y-306944976D01*
X143652372Y-306791069D01*
X143593703Y-306702211D01*
X143493795Y-306589543D01*
X143311408Y-306429256D01*
X143146450Y-306334018D01*
X142916444Y-306256210D01*
X142768917Y-306226020D01*
X142662629Y-306219641D01*
X142491292Y-306230691D01*
X142426243Y-306248120D01*
X143453004Y-325758467D02*
X142586978Y-326258467D01*
X143167289Y-325263596D01*
X142301264Y-325763596D01*
X142475562Y-325113107D02*
X142308895Y-324824432D01*
X142691099Y-324438809D02*
X142929194Y-324851202D01*
X142063169Y-325351202D01*
X141825073Y-324938809D01*
X141390122Y-324090214D02*
X141396502Y-324196502D01*
X141467931Y-324320220D01*
X141580599Y-324420128D01*
X141710696Y-324454988D01*
X141816984Y-324448608D01*
X142005751Y-324394609D01*
X142129469Y-324323181D01*
X142270617Y-324186703D01*
X142329286Y-324097845D01*
X142364145Y-323967747D01*
X142333956Y-323820220D01*
X142286337Y-323737741D01*
X142173669Y-323637833D01*
X142108620Y-323620403D01*
X141819945Y-323787070D01*
X141915183Y-323952027D01*
X142163870Y-322763718D02*
X142146441Y-322828767D01*
X142070342Y-322982674D01*
X142011673Y-323071533D01*
X141911764Y-323184200D01*
X141729377Y-323344487D01*
X141564420Y-323439726D01*
X141334414Y-323517534D01*
X141186887Y-323547723D01*
X141080599Y-323554103D01*
X140909262Y-323543053D01*
X140844213Y-323525623D01*
X141313565Y-322814756D02*
X140932613Y-322154927D01*
X141401966Y-321444061D02*
X141336917Y-321426631D01*
X141165580Y-321415581D01*
X141059292Y-321421960D01*
X140911764Y-321452150D01*
X140681758Y-321529958D01*
X140516801Y-321625196D01*
X140334414Y-321785483D01*
X140234506Y-321898151D01*
X140175837Y-321987009D01*
X140099738Y-322140916D01*
X140082308Y-322205965D01*
X167419584Y-326204100D02*
X166553559Y-325704100D01*
X167705298Y-325709228D01*
X166839273Y-325209228D01*
X167489761Y-325034931D02*
X167656428Y-324746256D01*
X168181489Y-324884442D02*
X167943394Y-325296835D01*
X167077368Y-324796835D01*
X167315463Y-324384442D01*
X167832893Y-323583466D02*
X167744035Y-323642135D01*
X167672606Y-323765853D01*
X167642417Y-323913380D01*
X167677277Y-324043478D01*
X167735946Y-324132336D01*
X167877093Y-324268814D01*
X168000811Y-324340242D01*
X168189578Y-324394241D01*
X168295866Y-324400621D01*
X168425964Y-324365761D01*
X168538632Y-324265853D01*
X168586251Y-324183374D01*
X168616440Y-324035847D01*
X168599010Y-323970798D01*
X168310335Y-323804131D01*
X168215097Y-323969088D01*
X169368546Y-323590304D02*
X169303497Y-323607733D01*
X169132160Y-323618783D01*
X169025872Y-323612404D01*
X168878345Y-323582214D01*
X168648339Y-323504406D01*
X168483382Y-323409168D01*
X168300995Y-323248881D01*
X168201086Y-323136213D01*
X168142417Y-323047355D01*
X168066318Y-322893448D01*
X168048888Y-322828399D01*
X168899194Y-322879437D02*
X169280146Y-322219608D01*
X170130451Y-322270646D02*
X170113021Y-322205597D01*
X170036922Y-322051690D01*
X169978253Y-321962831D01*
X169878345Y-321850164D01*
X169695958Y-321689877D01*
X169531001Y-321594639D01*
X169300995Y-321516830D01*
X169153467Y-321486641D01*
X169047179Y-321480261D01*
X168875842Y-321491311D01*
X168810793Y-321508741D01*
X149810703Y-330264838D02*
X149310703Y-331130863D01*
X149315831Y-329979124D01*
X148815831Y-330845149D01*
X148641534Y-330194661D02*
X148352859Y-330027994D01*
X148491045Y-329502933D02*
X148903438Y-329741028D01*
X148403438Y-330607054D01*
X147991045Y-330368959D01*
X147190069Y-329851529D02*
X147248738Y-329940387D01*
X147372456Y-330011816D01*
X147519983Y-330042005D01*
X147650081Y-330007145D01*
X147738939Y-329948476D01*
X147875417Y-329807329D01*
X147946845Y-329683611D01*
X148000844Y-329494844D01*
X148007224Y-329388556D01*
X147972364Y-329258458D01*
X147872456Y-329145790D01*
X147789977Y-329098171D01*
X147642450Y-329067982D01*
X147577401Y-329085412D01*
X147410734Y-329374087D01*
X147575691Y-329469325D01*
X147196907Y-328315876D02*
X147214336Y-328380925D01*
X147225386Y-328552262D01*
X147219007Y-328658550D01*
X147188817Y-328806077D01*
X147111009Y-329036083D01*
X147015771Y-329201040D01*
X146855484Y-329383427D01*
X146742816Y-329483336D01*
X146653958Y-329542005D01*
X146500051Y-329618104D01*
X146435002Y-329635534D01*
X146486040Y-328785228D02*
X145826211Y-328404276D01*
X145877249Y-327553971D02*
X145812200Y-327571401D01*
X145658293Y-327647500D01*
X145569434Y-327706169D01*
X145456767Y-327806077D01*
X145296480Y-327988464D01*
X145201242Y-328153421D01*
X145123433Y-328383427D01*
X145093244Y-328530955D01*
X145086864Y-328637243D01*
X145097914Y-328808580D01*
X145115344Y-328873629D01*
%TO.C,H2*%
X174498095Y-196042380D02*
X174498095Y-195042380D01*
X174498095Y-195518571D02*
X175069523Y-195518571D01*
X175069523Y-196042380D02*
X175069523Y-195042380D01*
X175498095Y-195137619D02*
X175545714Y-195090000D01*
X175640952Y-195042380D01*
X175879047Y-195042380D01*
X175974285Y-195090000D01*
X176021904Y-195137619D01*
X176069523Y-195232857D01*
X176069523Y-195328095D01*
X176021904Y-195470952D01*
X175450476Y-196042380D01*
X176069523Y-196042380D01*
D10*
%TO.C,U3*%
X92456190Y-244014761D02*
X92456190Y-245633809D01*
X92551428Y-245824285D01*
X92646666Y-245919523D01*
X92837142Y-246014761D01*
X93218095Y-246014761D01*
X93408571Y-245919523D01*
X93503809Y-245824285D01*
X93599047Y-245633809D01*
X93599047Y-244014761D01*
X94360952Y-244014761D02*
X95599047Y-244014761D01*
X94932380Y-244776666D01*
X95218095Y-244776666D01*
X95408571Y-244871904D01*
X95503809Y-244967142D01*
X95599047Y-245157619D01*
X95599047Y-245633809D01*
X95503809Y-245824285D01*
X95408571Y-245919523D01*
X95218095Y-246014761D01*
X94646666Y-246014761D01*
X94456190Y-245919523D01*
X94360952Y-245824285D01*
D11*
X99775289Y-280248386D02*
X99275289Y-279382360D01*
X100270160Y-279962671D01*
X99770160Y-279096646D01*
X100420649Y-279270944D02*
X100709324Y-279104277D01*
X101094947Y-279486481D02*
X100682554Y-279724576D01*
X100182554Y-278858551D01*
X100594947Y-278620455D01*
X101443542Y-278185504D02*
X101337254Y-278191884D01*
X101213536Y-278263313D01*
X101113628Y-278375981D01*
X101078768Y-278506078D01*
X101085148Y-278612366D01*
X101139147Y-278801133D01*
X101210575Y-278924851D01*
X101347053Y-279065999D01*
X101435911Y-279124668D01*
X101566009Y-279159527D01*
X101713536Y-279129338D01*
X101796015Y-279081719D01*
X101895923Y-278969051D01*
X101913353Y-278904002D01*
X101746686Y-278615327D01*
X101581729Y-278710565D01*
X102770038Y-278959252D02*
X102704989Y-278941823D01*
X102551082Y-278865724D01*
X102462223Y-278807055D01*
X102349556Y-278707146D01*
X102189269Y-278524759D01*
X102094030Y-278359802D01*
X102016222Y-278129796D01*
X101986033Y-277982269D01*
X101979653Y-277875981D01*
X101990703Y-277704644D01*
X102008133Y-277639595D01*
X102719000Y-278108947D02*
X103378829Y-277727995D01*
X104089695Y-278197348D02*
X104107125Y-278132299D01*
X104118175Y-277960962D01*
X104111796Y-277854674D01*
X104081606Y-277707146D01*
X104003798Y-277477140D01*
X103908560Y-277312183D01*
X103748273Y-277129796D01*
X103635605Y-277029888D01*
X103546747Y-276971219D01*
X103392840Y-276895120D01*
X103327791Y-276877690D01*
X79237282Y-267876190D02*
X78237282Y-267876190D01*
X79237282Y-267304761D01*
X78237282Y-267304761D01*
X78713473Y-266828571D02*
X78713473Y-266495238D01*
X79237282Y-266352381D02*
X79237282Y-266828571D01*
X78237282Y-266828571D01*
X78237282Y-266352381D01*
X78284902Y-265400000D02*
X78237282Y-265495238D01*
X78237282Y-265638095D01*
X78284902Y-265780952D01*
X78380140Y-265876190D01*
X78475378Y-265923809D01*
X78665854Y-265971428D01*
X78808711Y-265971428D01*
X78999187Y-265923809D01*
X79094425Y-265876190D01*
X79189663Y-265780952D01*
X79237282Y-265638095D01*
X79237282Y-265542857D01*
X79189663Y-265400000D01*
X79142044Y-265352381D01*
X78808711Y-265352381D01*
X78808711Y-265542857D01*
X79618235Y-264638095D02*
X79570616Y-264685714D01*
X79427759Y-264780952D01*
X79332521Y-264828571D01*
X79189663Y-264876190D01*
X78951568Y-264923809D01*
X78761092Y-264923809D01*
X78522997Y-264876190D01*
X78380140Y-264828571D01*
X78284902Y-264780952D01*
X78142044Y-264685714D01*
X78094425Y-264638095D01*
X78856330Y-264257142D02*
X78856330Y-263495238D01*
X79618235Y-263114285D02*
X79570616Y-263066666D01*
X79427759Y-262971428D01*
X79332521Y-262923809D01*
X79189663Y-262876190D01*
X78951568Y-262828571D01*
X78761092Y-262828571D01*
X78522997Y-262876190D01*
X78380140Y-262923809D01*
X78284902Y-262971428D01*
X78142044Y-263066666D01*
X78094425Y-263114285D01*
X106459584Y-275404100D02*
X105593559Y-274904100D01*
X106745298Y-274909228D01*
X105879273Y-274409228D01*
X106529761Y-274234931D02*
X106696428Y-273946256D01*
X107221489Y-274084442D02*
X106983394Y-274496835D01*
X106117368Y-273996835D01*
X106355463Y-273584442D01*
X106872893Y-272783466D02*
X106784035Y-272842135D01*
X106712606Y-272965853D01*
X106682417Y-273113380D01*
X106717277Y-273243478D01*
X106775946Y-273332336D01*
X106917093Y-273468814D01*
X107040811Y-273540242D01*
X107229578Y-273594241D01*
X107335866Y-273600621D01*
X107465964Y-273565761D01*
X107578632Y-273465853D01*
X107626251Y-273383374D01*
X107656440Y-273235847D01*
X107639010Y-273170798D01*
X107350335Y-273004131D01*
X107255097Y-273169088D01*
X108408546Y-272790304D02*
X108343497Y-272807733D01*
X108172160Y-272818783D01*
X108065872Y-272812404D01*
X107918345Y-272782214D01*
X107688339Y-272704406D01*
X107523382Y-272609168D01*
X107340995Y-272448881D01*
X107241086Y-272336213D01*
X107182417Y-272247355D01*
X107106318Y-272093448D01*
X107088888Y-272028399D01*
X107939194Y-272079437D02*
X108320146Y-271419608D01*
X109170451Y-271470646D02*
X109153021Y-271405597D01*
X109076922Y-271251690D01*
X109018253Y-271162831D01*
X108918345Y-271050164D01*
X108735958Y-270889877D01*
X108571001Y-270794639D01*
X108340995Y-270716830D01*
X108193467Y-270686641D01*
X108087179Y-270680261D01*
X107915842Y-270691311D01*
X107850793Y-270708741D01*
X88850703Y-279464838D02*
X88350703Y-280330863D01*
X88355831Y-279179124D01*
X87855831Y-280045149D01*
X87681534Y-279394661D02*
X87392859Y-279227994D01*
X87531045Y-278702933D02*
X87943438Y-278941028D01*
X87443438Y-279807054D01*
X87031045Y-279568959D01*
X86230069Y-279051529D02*
X86288738Y-279140387D01*
X86412456Y-279211816D01*
X86559983Y-279242005D01*
X86690081Y-279207145D01*
X86778939Y-279148476D01*
X86915417Y-279007329D01*
X86986845Y-278883611D01*
X87040844Y-278694844D01*
X87047224Y-278588556D01*
X87012364Y-278458458D01*
X86912456Y-278345790D01*
X86829977Y-278298171D01*
X86682450Y-278267982D01*
X86617401Y-278285412D01*
X86450734Y-278574087D01*
X86615691Y-278669325D01*
X86236907Y-277515876D02*
X86254336Y-277580925D01*
X86265386Y-277752262D01*
X86259007Y-277858550D01*
X86228817Y-278006077D01*
X86151009Y-278236083D01*
X86055771Y-278401040D01*
X85895484Y-278583427D01*
X85782816Y-278683336D01*
X85693958Y-278742005D01*
X85540051Y-278818104D01*
X85475002Y-278835534D01*
X85526040Y-277985228D02*
X84866211Y-277604276D01*
X84917249Y-276753971D02*
X84852200Y-276771401D01*
X84698293Y-276847500D01*
X84609434Y-276906169D01*
X84496767Y-277006077D01*
X84336480Y-277188464D01*
X84241242Y-277353421D01*
X84163433Y-277583427D01*
X84133244Y-277730955D01*
X84126864Y-277837243D01*
X84137914Y-278008580D01*
X84155344Y-278073629D01*
X91540568Y-250611201D02*
X91540568Y-249611201D01*
X91921521Y-249611201D01*
X92016759Y-249658821D01*
X92064378Y-249706440D01*
X92111997Y-249801678D01*
X92111997Y-249944535D01*
X92064378Y-250039773D01*
X92016759Y-250087392D01*
X91921521Y-250135011D01*
X91540568Y-250135011D01*
X92731045Y-249611201D02*
X92921521Y-249611201D01*
X93016759Y-249658821D01*
X93111997Y-249754059D01*
X93159616Y-249944535D01*
X93159616Y-250277868D01*
X93111997Y-250468344D01*
X93016759Y-250563582D01*
X92921521Y-250611201D01*
X92731045Y-250611201D01*
X92635807Y-250563582D01*
X92540568Y-250468344D01*
X92492949Y-250277868D01*
X92492949Y-249944535D01*
X92540568Y-249754059D01*
X92635807Y-249658821D01*
X92731045Y-249611201D01*
X93540568Y-250563582D02*
X93683426Y-250611201D01*
X93921521Y-250611201D01*
X94016759Y-250563582D01*
X94064378Y-250515963D01*
X94111997Y-250420725D01*
X94111997Y-250325487D01*
X94064378Y-250230249D01*
X94016759Y-250182630D01*
X93921521Y-250135011D01*
X93731045Y-250087392D01*
X93635807Y-250039773D01*
X93588188Y-249992154D01*
X93540568Y-249896916D01*
X93540568Y-249801678D01*
X93588188Y-249706440D01*
X93635807Y-249658821D01*
X93731045Y-249611201D01*
X93969140Y-249611201D01*
X94111997Y-249658821D01*
X94826283Y-250992154D02*
X94778664Y-250944535D01*
X94683426Y-250801678D01*
X94635807Y-250706440D01*
X94588188Y-250563582D01*
X94540568Y-250325487D01*
X94540568Y-250135011D01*
X94588188Y-249896916D01*
X94635807Y-249754059D01*
X94683426Y-249658821D01*
X94778664Y-249515963D01*
X94826283Y-249468344D01*
X95207235Y-250230249D02*
X95969140Y-250230249D01*
X95588188Y-250611201D02*
X95588188Y-249849297D01*
X96350092Y-250992154D02*
X96397711Y-250944535D01*
X96492949Y-250801678D01*
X96540568Y-250706440D01*
X96588188Y-250563582D01*
X96635807Y-250325487D01*
X96635807Y-250135011D01*
X96588188Y-249896916D01*
X96540568Y-249754059D01*
X96492949Y-249658821D01*
X96397711Y-249515963D01*
X96350092Y-249468344D01*
X84514670Y-253863835D02*
X84014670Y-252997810D01*
X84344585Y-252807334D01*
X84450873Y-252800954D01*
X84515922Y-252818384D01*
X84604780Y-252877053D01*
X84676208Y-253000771D01*
X84682588Y-253107059D01*
X84665158Y-253172108D01*
X84606489Y-253260966D01*
X84276575Y-253451442D01*
X85045653Y-252402572D02*
X85210610Y-252307334D01*
X85316898Y-252300954D01*
X85446996Y-252335814D01*
X85583473Y-252476961D01*
X85750140Y-252765636D01*
X85804139Y-252954403D01*
X85769279Y-253084501D01*
X85710610Y-253173359D01*
X85545653Y-253268597D01*
X85439365Y-253274977D01*
X85309267Y-253240118D01*
X85172790Y-253098970D01*
X85006123Y-252810295D01*
X84952124Y-252621528D01*
X84986984Y-252491430D01*
X85045653Y-252402572D01*
X86222911Y-252822596D02*
X86370439Y-252792407D01*
X86576635Y-252673359D01*
X86635304Y-252584501D01*
X86652734Y-252519452D01*
X86646355Y-252413164D01*
X86598735Y-252330685D01*
X86509877Y-252272016D01*
X86444828Y-252254586D01*
X86338540Y-252260966D01*
X86149773Y-252314965D01*
X86043485Y-252321345D01*
X85978436Y-252303915D01*
X85889578Y-252245246D01*
X85841959Y-252162767D01*
X85835579Y-252056479D01*
X85853009Y-251991430D01*
X85911678Y-251902572D01*
X86117875Y-251783524D01*
X86265402Y-251753335D01*
X87550658Y-252550893D02*
X87485610Y-252533463D01*
X87331702Y-252457364D01*
X87242844Y-252398695D01*
X87130176Y-252298787D01*
X86969889Y-252116400D01*
X86874651Y-251951442D01*
X86796843Y-251721436D01*
X86766654Y-251573909D01*
X86760274Y-251467621D01*
X86771324Y-251296284D01*
X86788754Y-251231235D01*
X87499620Y-251700588D02*
X88159449Y-251319635D01*
X88020011Y-251840026D02*
X87639059Y-251180197D01*
X88870316Y-251788988D02*
X88887746Y-251723939D01*
X88898796Y-251552602D01*
X88892416Y-251446314D01*
X88862227Y-251298787D01*
X88784419Y-251068781D01*
X88689181Y-250903823D01*
X88528894Y-250721436D01*
X88416226Y-250621528D01*
X88327367Y-250562859D01*
X88173460Y-250486760D01*
X88108411Y-250469330D01*
X91564377Y-281091202D02*
X91564377Y-280091202D01*
X92135806Y-281091202D01*
X92135806Y-280091202D01*
X92611996Y-280567393D02*
X92945329Y-280567393D01*
X93088187Y-281091202D02*
X92611996Y-281091202D01*
X92611996Y-280091202D01*
X93088187Y-280091202D01*
X94040567Y-280138822D02*
X93945329Y-280091202D01*
X93802472Y-280091202D01*
X93659615Y-280138822D01*
X93564377Y-280234060D01*
X93516758Y-280329298D01*
X93469139Y-280519774D01*
X93469139Y-280662631D01*
X93516758Y-280853107D01*
X93564377Y-280948345D01*
X93659615Y-281043583D01*
X93802472Y-281091202D01*
X93897710Y-281091202D01*
X94040567Y-281043583D01*
X94088187Y-280995964D01*
X94088187Y-280662631D01*
X93897710Y-280662631D01*
X94802472Y-281472155D02*
X94754853Y-281424536D01*
X94659615Y-281281679D01*
X94611996Y-281186441D01*
X94564377Y-281043583D01*
X94516758Y-280805488D01*
X94516758Y-280615012D01*
X94564377Y-280376917D01*
X94611996Y-280234060D01*
X94659615Y-280138822D01*
X94754853Y-279995964D01*
X94802472Y-279948345D01*
X95183425Y-280710250D02*
X95945329Y-280710250D01*
X96326282Y-281472155D02*
X96373901Y-281424536D01*
X96469139Y-281281679D01*
X96516758Y-281186441D01*
X96564377Y-281043583D01*
X96611996Y-280805488D01*
X96611996Y-280615012D01*
X96564377Y-280376917D01*
X96516758Y-280234060D01*
X96469139Y-280138822D01*
X96373901Y-279995964D01*
X96326282Y-279948345D01*
X80051224Y-260184719D02*
X79185199Y-259684719D01*
X79375675Y-259354804D01*
X79464534Y-259296135D01*
X79529582Y-259278705D01*
X79635870Y-259285085D01*
X79759588Y-259356514D01*
X79818257Y-259445372D01*
X79835687Y-259510421D01*
X79829308Y-259616709D01*
X79638831Y-259946624D01*
X79780437Y-258653736D02*
X79875675Y-258488779D01*
X79964534Y-258430110D01*
X80094631Y-258395250D01*
X80283398Y-258449249D01*
X80572073Y-258615916D01*
X80713221Y-258752393D01*
X80748080Y-258882491D01*
X80741701Y-258988779D01*
X80646462Y-259153736D01*
X80557604Y-259212405D01*
X80427506Y-259247265D01*
X80238740Y-259193266D01*
X79950065Y-259026599D01*
X79808917Y-258890122D01*
X79774057Y-258760024D01*
X79780437Y-258653736D01*
X81009985Y-258428858D02*
X81122653Y-258328950D01*
X81241701Y-258122754D01*
X81248080Y-258016465D01*
X81230651Y-257951417D01*
X81171981Y-257862558D01*
X81089503Y-257814939D01*
X80983215Y-257808559D01*
X80918166Y-257825989D01*
X80829308Y-257884658D01*
X80692830Y-258025806D01*
X80603972Y-258084475D01*
X80538923Y-258101905D01*
X80432635Y-258095525D01*
X80350156Y-258047906D01*
X80291487Y-257959048D01*
X80274057Y-257893999D01*
X80280437Y-257787711D01*
X80399485Y-257581514D01*
X80512153Y-257481606D01*
X82023996Y-257529683D02*
X81958947Y-257547113D01*
X81787610Y-257558163D01*
X81681322Y-257551783D01*
X81533795Y-257521594D01*
X81303789Y-257443785D01*
X81138831Y-257348547D01*
X80956444Y-257188260D01*
X80856536Y-257075593D01*
X80797867Y-256986734D01*
X80721768Y-256832827D01*
X80704338Y-256767778D01*
X81554643Y-256818816D02*
X81935596Y-256158987D01*
X82075034Y-256679378D02*
X81415205Y-256298425D01*
X82785901Y-256210025D02*
X82768471Y-256144976D01*
X82692372Y-255991069D01*
X82633703Y-255902211D01*
X82533795Y-255789543D01*
X82351408Y-255629256D01*
X82186450Y-255534018D01*
X81956444Y-255456210D01*
X81808917Y-255426020D01*
X81702629Y-255419641D01*
X81531292Y-255430691D01*
X81466243Y-255448120D01*
X109717282Y-267900001D02*
X108717282Y-267900001D01*
X108717282Y-267519048D01*
X108764902Y-267423810D01*
X108812521Y-267376191D01*
X108907759Y-267328572D01*
X109050616Y-267328572D01*
X109145854Y-267376191D01*
X109193473Y-267423810D01*
X109241092Y-267519048D01*
X109241092Y-267900001D01*
X108717282Y-266709524D02*
X108717282Y-266519048D01*
X108764902Y-266423810D01*
X108860140Y-266328572D01*
X109050616Y-266280953D01*
X109383949Y-266280953D01*
X109574425Y-266328572D01*
X109669663Y-266423810D01*
X109717282Y-266519048D01*
X109717282Y-266709524D01*
X109669663Y-266804762D01*
X109574425Y-266900001D01*
X109383949Y-266947620D01*
X109050616Y-266947620D01*
X108860140Y-266900001D01*
X108764902Y-266804762D01*
X108717282Y-266709524D01*
X109669663Y-265900001D02*
X109717282Y-265757143D01*
X109717282Y-265519048D01*
X109669663Y-265423810D01*
X109622044Y-265376191D01*
X109526806Y-265328572D01*
X109431568Y-265328572D01*
X109336330Y-265376191D01*
X109288711Y-265423810D01*
X109241092Y-265519048D01*
X109193473Y-265709524D01*
X109145854Y-265804762D01*
X109098235Y-265852382D01*
X109002997Y-265900001D01*
X108907759Y-265900001D01*
X108812521Y-265852382D01*
X108764902Y-265804762D01*
X108717282Y-265709524D01*
X108717282Y-265471429D01*
X108764902Y-265328572D01*
X110098235Y-264614286D02*
X110050616Y-264661905D01*
X109907759Y-264757143D01*
X109812521Y-264804762D01*
X109669663Y-264852382D01*
X109431568Y-264900001D01*
X109241092Y-264900001D01*
X109002997Y-264852382D01*
X108860140Y-264804762D01*
X108764902Y-264757143D01*
X108622044Y-264661905D01*
X108574425Y-264614286D01*
X109336330Y-264233334D02*
X109336330Y-263471429D01*
X109717282Y-263852382D02*
X108955378Y-263852382D01*
X110098235Y-263090477D02*
X110050616Y-263042858D01*
X109907759Y-262947620D01*
X109812521Y-262900001D01*
X109669663Y-262852382D01*
X109431568Y-262804762D01*
X109241092Y-262804762D01*
X109002997Y-262852382D01*
X108860140Y-262900001D01*
X108764902Y-262947620D01*
X108622044Y-263042858D01*
X108574425Y-263090477D01*
X104111324Y-253080289D02*
X103611324Y-253946314D01*
X103281409Y-253755838D01*
X103222740Y-253666979D01*
X103205310Y-253601931D01*
X103211690Y-253495643D01*
X103283119Y-253371925D01*
X103371977Y-253313256D01*
X103437026Y-253295826D01*
X103543314Y-253302205D01*
X103873229Y-253492682D01*
X102580341Y-253351076D02*
X102415384Y-253255838D01*
X102356715Y-253166979D01*
X102321855Y-253036882D01*
X102375854Y-252848115D01*
X102542521Y-252559440D01*
X102678998Y-252418292D01*
X102809096Y-252383433D01*
X102915384Y-252389812D01*
X103080341Y-252485051D01*
X103139010Y-252573909D01*
X103173870Y-252704007D01*
X103119871Y-252892773D01*
X102953204Y-253181448D01*
X102816727Y-253322596D01*
X102686629Y-253357456D01*
X102580341Y-253351076D01*
X102355463Y-252121528D02*
X102255555Y-252008860D01*
X102049359Y-251889812D01*
X101943070Y-251883433D01*
X101878022Y-251900862D01*
X101789163Y-251959532D01*
X101741544Y-252042010D01*
X101735164Y-252148298D01*
X101752594Y-252213347D01*
X101811263Y-252302205D01*
X101952411Y-252438683D01*
X102011080Y-252527541D01*
X102028510Y-252592590D01*
X102022130Y-252698878D01*
X101974511Y-252781357D01*
X101885653Y-252840026D01*
X101820604Y-252857456D01*
X101714316Y-252851076D01*
X101508119Y-252732028D01*
X101408211Y-252619360D01*
X101456288Y-251107517D02*
X101473718Y-251172566D01*
X101484768Y-251343903D01*
X101478388Y-251450191D01*
X101448199Y-251597718D01*
X101370390Y-251827724D01*
X101275152Y-251992682D01*
X101114865Y-252175069D01*
X101002198Y-252274977D01*
X100913339Y-252333646D01*
X100759432Y-252409745D01*
X100694383Y-252427175D01*
X100745421Y-251576870D02*
X100085592Y-251195917D01*
X100605983Y-251056479D02*
X100225030Y-251716308D01*
X100136630Y-250345612D02*
X100071581Y-250363042D01*
X99917674Y-250439141D01*
X99828816Y-250497810D01*
X99716148Y-250597718D01*
X99555861Y-250780105D01*
X99460623Y-250945063D01*
X99382815Y-251175069D01*
X99352625Y-251322596D01*
X99346246Y-251428884D01*
X99357296Y-251600221D01*
X99374725Y-251665270D01*
X108901362Y-259739088D02*
X108035337Y-260239088D01*
X107844861Y-259909173D01*
X107838481Y-259802885D01*
X107855911Y-259737836D01*
X107914580Y-259648978D01*
X108038298Y-259577550D01*
X108144586Y-259571170D01*
X108209635Y-259588600D01*
X108298493Y-259647269D01*
X108488969Y-259977183D01*
X107440099Y-259208105D02*
X107344861Y-259043148D01*
X107338481Y-258936860D01*
X107373341Y-258806762D01*
X107514488Y-258670285D01*
X107803163Y-258503618D01*
X107991930Y-258449619D01*
X108122028Y-258484479D01*
X108210886Y-258543148D01*
X108306124Y-258708105D01*
X108312504Y-258814393D01*
X108277645Y-258944491D01*
X108136497Y-259080968D01*
X107847822Y-259247635D01*
X107659055Y-259301634D01*
X107528957Y-259266774D01*
X107440099Y-259208105D01*
X107860123Y-258030847D02*
X107829934Y-257883319D01*
X107710886Y-257677123D01*
X107622028Y-257618454D01*
X107556979Y-257601024D01*
X107450691Y-257607403D01*
X107368212Y-257655023D01*
X107309543Y-257743881D01*
X107292113Y-257808930D01*
X107298493Y-257915218D01*
X107352492Y-258103985D01*
X107358872Y-258210273D01*
X107341442Y-258275322D01*
X107282773Y-258364180D01*
X107200294Y-258411799D01*
X107094006Y-258418179D01*
X107028957Y-258400749D01*
X106940099Y-258342080D01*
X106821051Y-258135883D01*
X106790862Y-257988356D01*
X107588420Y-256703100D02*
X107570990Y-256768148D01*
X107494891Y-256922056D01*
X107436222Y-257010914D01*
X107336314Y-257123582D01*
X107153927Y-257283869D01*
X106988969Y-257379107D01*
X106758963Y-257456915D01*
X106611436Y-257487104D01*
X106505148Y-257493484D01*
X106333811Y-257482434D01*
X106268762Y-257465004D01*
X106738115Y-256754138D02*
X106357162Y-256094309D01*
X106877553Y-256233747D02*
X106217724Y-256614699D01*
X106826515Y-255383442D02*
X106761466Y-255366012D01*
X106590129Y-255354962D01*
X106483841Y-255361342D01*
X106336314Y-255391531D01*
X106106308Y-255469339D01*
X105941350Y-255564577D01*
X105758963Y-255724864D01*
X105659055Y-255837532D01*
X105600386Y-255926391D01*
X105524287Y-256080298D01*
X105506857Y-256145347D01*
X82493004Y-274958467D02*
X81626978Y-275458467D01*
X82207289Y-274463596D01*
X81341264Y-274963596D01*
X81515562Y-274313107D02*
X81348895Y-274024432D01*
X81731099Y-273638809D02*
X81969194Y-274051202D01*
X81103169Y-274551202D01*
X80865073Y-274138809D01*
X80430122Y-273290214D02*
X80436502Y-273396502D01*
X80507931Y-273520220D01*
X80620599Y-273620128D01*
X80750696Y-273654988D01*
X80856984Y-273648608D01*
X81045751Y-273594609D01*
X81169469Y-273523181D01*
X81310617Y-273386703D01*
X81369286Y-273297845D01*
X81404145Y-273167747D01*
X81373956Y-273020220D01*
X81326337Y-272937741D01*
X81213669Y-272837833D01*
X81148620Y-272820403D01*
X80859945Y-272987070D01*
X80955183Y-273152027D01*
X81203870Y-271963718D02*
X81186441Y-272028767D01*
X81110342Y-272182674D01*
X81051673Y-272271533D01*
X80951764Y-272384200D01*
X80769377Y-272544487D01*
X80604420Y-272639726D01*
X80374414Y-272717534D01*
X80226887Y-272747723D01*
X80120599Y-272754103D01*
X79949262Y-272743053D01*
X79884213Y-272725623D01*
X80353565Y-272014756D02*
X79972613Y-271354927D01*
X80441966Y-270644061D02*
X80376917Y-270626631D01*
X80205580Y-270615581D01*
X80099292Y-270621960D01*
X79951764Y-270652150D01*
X79721758Y-270729958D01*
X79556801Y-270825196D01*
X79374414Y-270985483D01*
X79274506Y-271098151D01*
X79215837Y-271187009D01*
X79139738Y-271340916D01*
X79122308Y-271405965D01*
%TO.C,H3*%
X72898095Y-328122380D02*
X72898095Y-327122380D01*
X72898095Y-327598571D02*
X73469523Y-327598571D01*
X73469523Y-328122380D02*
X73469523Y-327122380D01*
X73850476Y-327122380D02*
X74469523Y-327122380D01*
X74136190Y-327503333D01*
X74279047Y-327503333D01*
X74374285Y-327550952D01*
X74421904Y-327598571D01*
X74469523Y-327693809D01*
X74469523Y-327931904D01*
X74421904Y-328027142D01*
X74374285Y-328074761D01*
X74279047Y-328122380D01*
X73993333Y-328122380D01*
X73898095Y-328074761D01*
X73850476Y-328027142D01*
%TO.C,H1*%
X72898095Y-196042380D02*
X72898095Y-195042380D01*
X72898095Y-195518571D02*
X73469523Y-195518571D01*
X73469523Y-196042380D02*
X73469523Y-195042380D01*
X74469523Y-196042380D02*
X73898095Y-196042380D01*
X74183809Y-196042380D02*
X74183809Y-195042380D01*
X74088571Y-195185238D01*
X73993333Y-195280476D01*
X73898095Y-195328095D01*
%TO.C,H4*%
X174498095Y-328122380D02*
X174498095Y-327122380D01*
X174498095Y-327598571D02*
X175069523Y-327598571D01*
X175069523Y-328122380D02*
X175069523Y-327122380D01*
X175974285Y-327455714D02*
X175974285Y-328122380D01*
X175736190Y-327074761D02*
X175498095Y-327789047D01*
X176117142Y-327789047D01*
%TO.C,U6*%
X126341259Y-214630000D02*
X126341259Y-212725000D01*
X183491259Y-214630000D02*
X183491259Y-216535000D01*
X183491259Y-212725000D02*
X164441259Y-192405000D01*
X126341259Y-212725000D02*
X145391259Y-192405000D01*
X145391259Y-192405000D02*
X154916259Y-192405000D01*
X145391259Y-236860080D02*
X164426019Y-236860080D01*
X183491259Y-216535000D02*
X164441259Y-236855000D01*
X183491259Y-214630000D02*
X183491259Y-212725000D01*
X126338719Y-216532460D02*
X145388719Y-236852460D01*
X126338719Y-214627460D02*
X126338719Y-216532460D01*
X154916259Y-192405000D02*
X164441259Y-192405000D01*
X172676744Y-214630000D02*
G75*
G03*
X172676744Y-214630000I-17760485J0D01*
G01*
%TO.C,U5*%
X65286295Y-214754655D02*
X65286295Y-212849655D01*
X122436295Y-214754655D02*
X122436295Y-216659655D01*
X122436295Y-212849655D02*
X103386295Y-192529655D01*
X65286295Y-212849655D02*
X84336295Y-192529655D01*
X84336295Y-192529655D02*
X93861295Y-192529655D01*
X84336295Y-236984735D02*
X103371055Y-236984735D01*
X122436295Y-216659655D02*
X103386295Y-236979655D01*
X122436295Y-214754655D02*
X122436295Y-212849655D01*
X65283755Y-216657115D02*
X84333755Y-236977115D01*
X65283755Y-214752115D02*
X65283755Y-216657115D01*
X93861295Y-192529655D02*
X103386295Y-192529655D01*
X111621780Y-214754655D02*
G75*
G03*
X111621780Y-214754655I-17760485J0D01*
G01*
%TO.C,U1*%
X84455000Y-294005000D02*
X93980000Y-294005000D01*
X65405000Y-316230000D02*
X65405000Y-314325000D01*
X93980000Y-294005000D02*
X103505000Y-294005000D01*
X65405000Y-314325000D02*
X84455000Y-294005000D01*
X65402460Y-318132460D02*
X84452460Y-338452460D01*
X84455000Y-338460080D02*
X103489760Y-338460080D01*
X122555000Y-316230000D02*
X122555000Y-314325000D01*
X122555000Y-318135000D02*
X103505000Y-338455000D01*
X122555000Y-314325000D02*
X103505000Y-294005000D01*
X122555000Y-316230000D02*
X122555000Y-318135000D01*
X65402460Y-316227460D02*
X65402460Y-318132460D01*
X111740486Y-316230000D02*
G75*
G03*
X111740486Y-316230000I-17760486J0D01*
G01*
%TO.C,U4*%
X126365000Y-263525000D02*
X145415000Y-243205000D01*
X183515000Y-263525000D02*
X164465000Y-243205000D01*
X183515000Y-267335000D02*
X164465000Y-287655000D01*
X145415000Y-287660080D02*
X164449760Y-287660080D01*
X126362460Y-265427460D02*
X126362460Y-267332460D01*
X126362460Y-267332460D02*
X145412460Y-287652460D01*
X126365000Y-265430000D02*
X126365000Y-263525000D01*
X154940000Y-243205000D02*
X164465000Y-243205000D01*
X145415000Y-243205000D02*
X154940000Y-243205000D01*
X183515000Y-265430000D02*
X183515000Y-267335000D01*
X183515000Y-265430000D02*
X183515000Y-263525000D01*
X172700486Y-265430000D02*
G75*
G03*
X172700486Y-265430000I-17760486J0D01*
G01*
%TO.C,U2*%
X126362460Y-316227460D02*
X126362460Y-318132460D01*
X126362460Y-318132460D02*
X145412460Y-338452460D01*
X145415000Y-338460080D02*
X164449760Y-338460080D01*
X126365000Y-314325000D02*
X145415000Y-294005000D01*
X183515000Y-316230000D02*
X183515000Y-314325000D01*
X183515000Y-316230000D02*
X183515000Y-318135000D01*
X145415000Y-294005000D02*
X154940000Y-294005000D01*
X183515000Y-318135000D02*
X164465000Y-338455000D01*
X154940000Y-294005000D02*
X164465000Y-294005000D01*
X183515000Y-314325000D02*
X164465000Y-294005000D01*
X126365000Y-316230000D02*
X126365000Y-314325000D01*
X172700486Y-316230000D02*
G75*
G03*
X172700486Y-316230000I-17760486J0D01*
G01*
%TO.C,U3*%
X122555000Y-265430000D02*
X122555000Y-263525000D01*
X84455000Y-287660080D02*
X103489760Y-287660080D01*
X65402460Y-265427460D02*
X65402460Y-267332460D01*
X122555000Y-267335000D02*
X103505000Y-287655000D01*
X65405000Y-265430000D02*
X65405000Y-263525000D01*
X93980000Y-243205000D02*
X103505000Y-243205000D01*
X122555000Y-263525000D02*
X103505000Y-243205000D01*
X65402460Y-267332460D02*
X84452460Y-287652460D01*
X122555000Y-265430000D02*
X122555000Y-267335000D01*
X65405000Y-263525000D02*
X84455000Y-243205000D01*
X84455000Y-243205000D02*
X93980000Y-243205000D01*
X111740486Y-265430000D02*
G75*
G03*
X111740486Y-265430000I-17760486J0D01*
G01*
%TD*%
M02*
