%TF.GenerationSoftware,KiCad,Pcbnew,(6.0.10)*%
%TF.CreationDate,2023-09-11T12:43:08-04:00*%
%TF.ProjectId,pump_board,70756d70-5f62-46f6-9172-642e6b696361,rev?*%
%TF.SameCoordinates,Original*%
%TF.FileFunction,Copper,L1,Top*%
%TF.FilePolarity,Positive*%
%FSLAX46Y46*%
G04 Gerber Fmt 4.6, Leading zero omitted, Abs format (unit mm)*
G04 Created by KiCad (PCBNEW (6.0.10)) date 2023-09-11 12:43:08*
%MOMM*%
%LPD*%
G01*
G04 APERTURE LIST*
G04 Aperture macros list*
%AMHorizOval*
0 Thick line with rounded ends*
0 $1 width*
0 $2 $3 position (X,Y) of the first rounded end (center of the circle)*
0 $4 $5 position (X,Y) of the second rounded end (center of the circle)*
0 Add line between two ends*
20,1,$1,$2,$3,$4,$5,0*
0 Add two circle primitives to create the rounded ends*
1,1,$1,$2,$3*
1,1,$1,$4,$5*%
G04 Aperture macros list end*
%TA.AperFunction,WasherPad*%
%ADD10C,13.000000*%
%TD*%
%TA.AperFunction,ComponentPad*%
%ADD11HorizOval,2.540000X-0.980457X0.266384X0.980457X-0.266384X0*%
%TD*%
%TA.AperFunction,ComponentPad*%
%ADD12HorizOval,2.540000X-0.720924X-0.715908X0.720924X0.715908X0*%
%TD*%
%TA.AperFunction,ComponentPad*%
%ADD13HorizOval,2.540000X-0.266384X-0.980457X0.266384X0.980457X0*%
%TD*%
%TA.AperFunction,ComponentPad*%
%ADD14HorizOval,2.540000X-0.715908X0.720924X0.715908X-0.720924X0*%
%TD*%
%TA.AperFunction,ComponentPad*%
%ADD15HorizOval,2.540000X-0.259533X0.982293X0.259533X-0.982293X0*%
%TD*%
%TA.AperFunction,ComponentPad*%
%ADD16HorizOval,2.540000X-0.982293X-0.259533X0.982293X0.259533X0*%
%TD*%
%TA.AperFunction,ComponentPad*%
%ADD17HorizOval,2.540000X-0.879882X0.508000X0.879882X-0.508000X0*%
%TD*%
%TA.AperFunction,ComponentPad*%
%ADD18O,4.572000X2.540000*%
%TD*%
%TA.AperFunction,ComponentPad*%
%ADD19O,2.540000X4.572000*%
%TD*%
%TA.AperFunction,ComponentPad*%
%ADD20HorizOval,2.540000X-0.508000X0.879882X0.508000X-0.879882X0*%
%TD*%
%TA.AperFunction,ComponentPad*%
%ADD21HorizOval,2.540000X0.879882X0.508000X-0.879882X-0.508000X0*%
%TD*%
%TA.AperFunction,ComponentPad*%
%ADD22HorizOval,2.540000X0.508000X0.879882X-0.508000X-0.879882X0*%
%TD*%
%TA.AperFunction,ComponentPad*%
%ADD23C,5.600000*%
%TD*%
%TA.AperFunction,ComponentPad*%
%ADD24R,1.700000X1.700000*%
%TD*%
%TA.AperFunction,ComponentPad*%
%ADD25C,1.700000*%
%TD*%
%TA.AperFunction,ViaPad*%
%ADD26C,0.600000*%
%TD*%
%TA.AperFunction,Conductor*%
%ADD27C,0.508000*%
%TD*%
G04 APERTURE END LIST*
D10*
%TO.P,U6,*%
%TO.N,*%
X154940000Y-214605069D03*
D11*
%TO.P,U6,1,POS(+)*%
%TO.N,Net-(J1-Pad12)*%
X158140827Y-203241338D03*
D12*
X163392215Y-223143465D03*
D13*
X166489170Y-217827667D03*
D14*
X163453952Y-206339824D03*
D15*
X166515976Y-211677122D03*
D16*
X158052284Y-226195523D03*
D12*
%TO.P,U6,2,NEG(-)*%
%TO.N,Net-(J1-Pad11)*%
X146568368Y-206201755D03*
D13*
X143448437Y-211567639D03*
D15*
X143432102Y-217776145D03*
D11*
X151880799Y-226282072D03*
D16*
X151953261Y-203111647D03*
D14*
X146512241Y-223163672D03*
%TD*%
D10*
%TO.P,U5,*%
%TO.N,*%
X93885036Y-214729724D03*
D11*
%TO.P,U5,1,POS(+)*%
%TO.N,Net-(J1-Pad10)*%
X97085863Y-203365993D03*
D12*
X102337251Y-223268120D03*
D13*
X105434206Y-217952322D03*
D14*
X102398988Y-206464479D03*
D15*
X105461012Y-211801777D03*
D16*
X96997320Y-226320178D03*
D12*
%TO.P,U5,2,NEG(-)*%
%TO.N,Net-(J1-Pad9)*%
X85513404Y-206326410D03*
D13*
X82393473Y-211692294D03*
D15*
X82377138Y-217900800D03*
D11*
X90825835Y-226406727D03*
D16*
X90898297Y-203236302D03*
D14*
X85457277Y-223288327D03*
%TD*%
D10*
%TO.P,U1,*%
%TO.N,*%
X93980000Y-316230000D03*
D17*
%TO.P,U1,1,POS(+)*%
%TO.N,Net-(J1-Pad2)*%
X100027830Y-305857869D03*
D18*
X94088187Y-304260822D03*
D19*
X105962902Y-316152381D03*
D20*
X104376164Y-310209976D03*
D21*
X88145782Y-305857869D03*
D22*
X83792878Y-310203227D03*
D20*
%TO.P,U1,2,NEG(-)*%
%TO.N,Net-(J1-Pad1)*%
X83698942Y-322147976D03*
D18*
X94088188Y-328136821D03*
D19*
X82086902Y-316152382D03*
D22*
X104470100Y-322141226D03*
D21*
X100083783Y-326535091D03*
D17*
X88089831Y-326535091D03*
%TD*%
D10*
%TO.P,U4,*%
%TO.N,*%
X154940000Y-265430000D03*
D17*
%TO.P,U4,1,POS(+)*%
%TO.N,Net-(J1-Pad8)*%
X160987830Y-255057869D03*
D18*
X155048187Y-253460822D03*
D20*
X165336164Y-259409976D03*
D21*
X149105782Y-255057869D03*
D22*
X144752878Y-259403227D03*
D19*
X166922902Y-265352381D03*
D22*
%TO.P,U4,2,NEG(-)*%
%TO.N,Net-(J1-Pad7)*%
X165430100Y-271341226D03*
D17*
X149049831Y-275735091D03*
D18*
X155048188Y-277336821D03*
D20*
X144658942Y-271347976D03*
D19*
X143046902Y-265352382D03*
D21*
X161043783Y-275735091D03*
%TD*%
D10*
%TO.P,U2,*%
%TO.N,*%
X154940000Y-316230000D03*
D19*
%TO.P,U2,1,POS(+)*%
%TO.N,Net-(J1-Pad4)*%
X166922902Y-316152381D03*
D21*
X149105782Y-305857869D03*
D20*
X165336164Y-310209976D03*
D18*
X155048187Y-304260822D03*
D22*
X144752878Y-310203227D03*
D17*
X160987830Y-305857869D03*
D19*
%TO.P,U2,2,NEG(-)*%
%TO.N,Net-(J1-Pad3)*%
X143046902Y-316152382D03*
D22*
X165430100Y-322141226D03*
D17*
X149049831Y-326535091D03*
D18*
X155048188Y-328136821D03*
D20*
X144658942Y-322147976D03*
D21*
X161043783Y-326535091D03*
%TD*%
D23*
%TO.P,H2,1,1*%
%TO.N,unconnected-(H2-Pad1)*%
X175260000Y-199390000D03*
%TD*%
D10*
%TO.P,U3,*%
%TO.N,*%
X93980000Y-265430000D03*
D22*
%TO.P,U3,1,POS(+)*%
%TO.N,Net-(J1-Pad6)*%
X83792878Y-259403227D03*
D21*
X88145782Y-255057869D03*
D17*
X100027830Y-255057869D03*
D18*
X94088187Y-253460822D03*
D20*
X104376164Y-259409976D03*
D19*
X105962902Y-265352381D03*
D22*
%TO.P,U3,2,NEG(-)*%
%TO.N,Net-(J1-Pad5)*%
X104470100Y-271341226D03*
D21*
X100083783Y-275735091D03*
D20*
X83698942Y-271347976D03*
D19*
X82086902Y-265352382D03*
D17*
X88089831Y-275735091D03*
D18*
X94088188Y-277336821D03*
%TD*%
D23*
%TO.P,H3,1,1*%
%TO.N,unconnected-(H3-Pad1)*%
X73660000Y-331470000D03*
%TD*%
%TO.P,H1,1,1*%
%TO.N,unconnected-(H1-Pad1)*%
X73660000Y-199390000D03*
%TD*%
%TO.P,H4,1,1*%
%TO.N,unconnected-(H4-Pad1)*%
X175260000Y-331470000D03*
%TD*%
D24*
%TO.P,J1,1,Pin_1*%
%TO.N,Net-(J1-Pad1)*%
X108926800Y-290935000D03*
D25*
%TO.P,J1,2,Pin_2*%
%TO.N,Net-(J1-Pad2)*%
X108926800Y-288395000D03*
%TO.P,J1,3,Pin_3*%
%TO.N,Net-(J1-Pad3)*%
X106386800Y-290935000D03*
%TO.P,J1,4,Pin_4*%
%TO.N,Net-(J1-Pad4)*%
X106386800Y-288395000D03*
%TO.P,J1,5,Pin_5*%
%TO.N,Net-(J1-Pad5)*%
X103846800Y-290935000D03*
%TO.P,J1,6,Pin_6*%
%TO.N,Net-(J1-Pad6)*%
X103846800Y-288395000D03*
%TO.P,J1,7,Pin_7*%
%TO.N,Net-(J1-Pad7)*%
X101306800Y-290935000D03*
%TO.P,J1,8,Pin_8*%
%TO.N,Net-(J1-Pad8)*%
X101306800Y-288395000D03*
%TO.P,J1,9,Pin_9*%
%TO.N,Net-(J1-Pad9)*%
X98766800Y-290935000D03*
%TO.P,J1,10,Pin_10*%
%TO.N,Net-(J1-Pad10)*%
X98766800Y-288395000D03*
%TO.P,J1,11,Pin_11*%
%TO.N,Net-(J1-Pad11)*%
X96226800Y-290935000D03*
%TO.P,J1,12,Pin_12*%
%TO.N,Net-(J1-Pad12)*%
X96226800Y-288395000D03*
%TO.P,J1,13,Pin_13*%
%TO.N,unconnected-(J1-Pad13)*%
X93686800Y-290935000D03*
%TO.P,J1,14,Pin_14*%
%TO.N,unconnected-(J1-Pad14)*%
X93686800Y-288395000D03*
%TO.P,J1,15,Pin_15*%
%TO.N,unconnected-(J1-Pad15)*%
X91146800Y-290935000D03*
%TO.P,J1,16,Pin_16*%
%TO.N,unconnected-(J1-Pad16)*%
X91146800Y-288395000D03*
%TD*%
D26*
%TO.N,Net-(J1-Pad3)*%
X137160000Y-294640000D03*
%TO.N,Net-(J1-Pad8)*%
X134620000Y-285750000D03*
%TO.N,Net-(J1-Pad7)*%
X154940000Y-293370000D03*
%TO.N,Net-(J1-Pad10)*%
X114300000Y-284480000D03*
%TO.N,Net-(J1-Pad9)*%
X77470000Y-294640000D03*
%TO.N,Net-(J1-Pad12)*%
X168910000Y-283210000D03*
%TO.N,Net-(J1-Pad11)*%
X82550000Y-237490000D03*
X78740000Y-293370000D03*
%TO.N,Net-(J1-Pad2)*%
X110490000Y-309880000D03*
%TO.N,Net-(J1-Pad4)*%
X146050000Y-287020000D03*
%TD*%
D27*
%TO.N,Net-(J1-Pad3)*%
X110091800Y-294640000D02*
X137160000Y-294640000D01*
X106386800Y-290935000D02*
X110091800Y-294640000D01*
%TO.N,Net-(J1-Pad8)*%
X104140000Y-285750000D02*
X134620000Y-285750000D01*
X103951800Y-285750000D02*
X104140000Y-285750000D01*
X101306800Y-288395000D02*
X103951800Y-285750000D01*
%TO.N,Net-(J1-Pad7)*%
X152400000Y-295910000D02*
X154940000Y-293370000D01*
X106281800Y-295910000D02*
X152400000Y-295910000D01*
X101306800Y-290935000D02*
X106281800Y-295910000D01*
%TO.N,Net-(J1-Pad10)*%
X102681800Y-284480000D02*
X114300000Y-284480000D01*
X98766800Y-288395000D02*
X102681800Y-284480000D01*
%TO.N,Net-(J1-Pad9)*%
X98766800Y-290935000D02*
X95061800Y-294640000D01*
X95061800Y-294640000D02*
X77470000Y-294640000D01*
%TO.N,Net-(J1-Pad12)*%
X96226800Y-288395000D02*
X101411800Y-283210000D01*
X101411800Y-283210000D02*
X168910000Y-283210000D01*
%TO.N,Net-(J1-Pad11)*%
X139651072Y-237490000D02*
X151099127Y-226041945D01*
X93791800Y-293370000D02*
X78740000Y-293370000D01*
X82550000Y-237490000D02*
X139651072Y-237490000D01*
X96226800Y-290935000D02*
X93791800Y-293370000D01*
%TO.N,Net-(J1-Pad2)*%
X110490000Y-309880000D02*
X110160024Y-310209976D01*
X110160024Y-310209976D02*
X104376164Y-310209976D01*
%TO.N,Net-(J1-Pad4)*%
X106386800Y-288395000D02*
X107761800Y-287020000D01*
X167544343Y-316287450D02*
X166815059Y-316287450D01*
X107761800Y-287020000D02*
X146050000Y-287020000D01*
%TD*%
M02*
