%TF.GenerationSoftware,KiCad,Pcbnew,(6.0.10)*%
%TF.CreationDate,2023-09-11T12:43:08-04:00*%
%TF.ProjectId,pump_board,70756d70-5f62-46f6-9172-642e6b696361,rev?*%
%TF.SameCoordinates,Original*%
%TF.FileFunction,Copper,L2,Bot*%
%TF.FilePolarity,Positive*%
%FSLAX46Y46*%
G04 Gerber Fmt 4.6, Leading zero omitted, Abs format (unit mm)*
G04 Created by KiCad (PCBNEW (6.0.10)) date 2023-09-11 12:43:08*
%MOMM*%
%LPD*%
G01*
G04 APERTURE LIST*
G04 Aperture macros list*
%AMHorizOval*
0 Thick line with rounded ends*
0 $1 width*
0 $2 $3 position (X,Y) of the first rounded end (center of the circle)*
0 $4 $5 position (X,Y) of the second rounded end (center of the circle)*
0 Add line between two ends*
20,1,$1,$2,$3,$4,$5,0*
0 Add two circle primitives to create the rounded ends*
1,1,$1,$2,$3*
1,1,$1,$4,$5*%
G04 Aperture macros list end*
%TA.AperFunction,WasherPad*%
%ADD10C,13.000000*%
%TD*%
%TA.AperFunction,ComponentPad*%
%ADD11HorizOval,2.540000X-0.980457X0.266384X0.980457X-0.266384X0*%
%TD*%
%TA.AperFunction,ComponentPad*%
%ADD12HorizOval,2.540000X-0.720924X-0.715908X0.720924X0.715908X0*%
%TD*%
%TA.AperFunction,ComponentPad*%
%ADD13HorizOval,2.540000X-0.266384X-0.980457X0.266384X0.980457X0*%
%TD*%
%TA.AperFunction,ComponentPad*%
%ADD14HorizOval,2.540000X-0.715908X0.720924X0.715908X-0.720924X0*%
%TD*%
%TA.AperFunction,ComponentPad*%
%ADD15HorizOval,2.540000X-0.259533X0.982293X0.259533X-0.982293X0*%
%TD*%
%TA.AperFunction,ComponentPad*%
%ADD16HorizOval,2.540000X-0.982293X-0.259533X0.982293X0.259533X0*%
%TD*%
%TA.AperFunction,ComponentPad*%
%ADD17HorizOval,2.540000X-0.879882X0.508000X0.879882X-0.508000X0*%
%TD*%
%TA.AperFunction,ComponentPad*%
%ADD18O,4.572000X2.540000*%
%TD*%
%TA.AperFunction,ComponentPad*%
%ADD19O,2.540000X4.572000*%
%TD*%
%TA.AperFunction,ComponentPad*%
%ADD20HorizOval,2.540000X-0.508000X0.879882X0.508000X-0.879882X0*%
%TD*%
%TA.AperFunction,ComponentPad*%
%ADD21HorizOval,2.540000X0.879882X0.508000X-0.879882X-0.508000X0*%
%TD*%
%TA.AperFunction,ComponentPad*%
%ADD22HorizOval,2.540000X0.508000X0.879882X-0.508000X-0.879882X0*%
%TD*%
%TA.AperFunction,ComponentPad*%
%ADD23C,5.600000*%
%TD*%
%TA.AperFunction,ComponentPad*%
%ADD24R,1.700000X1.700000*%
%TD*%
%TA.AperFunction,ComponentPad*%
%ADD25C,1.700000*%
%TD*%
%TA.AperFunction,ViaPad*%
%ADD26C,0.600000*%
%TD*%
%TA.AperFunction,Conductor*%
%ADD27C,0.508000*%
%TD*%
G04 APERTURE END LIST*
D10*
%TO.P,U6,*%
%TO.N,*%
X154940000Y-214605069D03*
D11*
%TO.P,U6,1,POS(+)*%
%TO.N,Net-(J1-Pad12)*%
X158140827Y-203241338D03*
D12*
X163392215Y-223143465D03*
D13*
X166489170Y-217827667D03*
D14*
X163453952Y-206339824D03*
D15*
X166515976Y-211677122D03*
D16*
X158052284Y-226195523D03*
D12*
%TO.P,U6,2,NEG(-)*%
%TO.N,Net-(J1-Pad11)*%
X146568368Y-206201755D03*
D13*
X143448437Y-211567639D03*
D15*
X143432102Y-217776145D03*
D11*
X151880799Y-226282072D03*
D16*
X151953261Y-203111647D03*
D14*
X146512241Y-223163672D03*
%TD*%
D10*
%TO.P,U5,*%
%TO.N,*%
X93885036Y-214729724D03*
D11*
%TO.P,U5,1,POS(+)*%
%TO.N,Net-(J1-Pad10)*%
X97085863Y-203365993D03*
D12*
X102337251Y-223268120D03*
D13*
X105434206Y-217952322D03*
D14*
X102398988Y-206464479D03*
D15*
X105461012Y-211801777D03*
D16*
X96997320Y-226320178D03*
D12*
%TO.P,U5,2,NEG(-)*%
%TO.N,Net-(J1-Pad9)*%
X85513404Y-206326410D03*
D13*
X82393473Y-211692294D03*
D15*
X82377138Y-217900800D03*
D11*
X90825835Y-226406727D03*
D16*
X90898297Y-203236302D03*
D14*
X85457277Y-223288327D03*
%TD*%
D10*
%TO.P,U1,*%
%TO.N,*%
X93980000Y-316230000D03*
D17*
%TO.P,U1,1,POS(+)*%
%TO.N,Net-(J1-Pad2)*%
X100027830Y-305857869D03*
D18*
X94088187Y-304260822D03*
D19*
X105962902Y-316152381D03*
D20*
X104376164Y-310209976D03*
D21*
X88145782Y-305857869D03*
D22*
X83792878Y-310203227D03*
D20*
%TO.P,U1,2,NEG(-)*%
%TO.N,Net-(J1-Pad1)*%
X83698942Y-322147976D03*
D18*
X94088188Y-328136821D03*
D19*
X82086902Y-316152382D03*
D22*
X104470100Y-322141226D03*
D21*
X100083783Y-326535091D03*
D17*
X88089831Y-326535091D03*
%TD*%
D10*
%TO.P,U4,*%
%TO.N,*%
X154940000Y-265430000D03*
D17*
%TO.P,U4,1,POS(+)*%
%TO.N,Net-(J1-Pad8)*%
X160987830Y-255057869D03*
D18*
X155048187Y-253460822D03*
D20*
X165336164Y-259409976D03*
D21*
X149105782Y-255057869D03*
D22*
X144752878Y-259403227D03*
D19*
X166922902Y-265352381D03*
D22*
%TO.P,U4,2,NEG(-)*%
%TO.N,Net-(J1-Pad7)*%
X165430100Y-271341226D03*
D17*
X149049831Y-275735091D03*
D18*
X155048188Y-277336821D03*
D20*
X144658942Y-271347976D03*
D19*
X143046902Y-265352382D03*
D21*
X161043783Y-275735091D03*
%TD*%
D10*
%TO.P,U2,*%
%TO.N,*%
X154940000Y-316230000D03*
D19*
%TO.P,U2,1,POS(+)*%
%TO.N,Net-(J1-Pad4)*%
X166922902Y-316152381D03*
D21*
X149105782Y-305857869D03*
D20*
X165336164Y-310209976D03*
D18*
X155048187Y-304260822D03*
D22*
X144752878Y-310203227D03*
D17*
X160987830Y-305857869D03*
D19*
%TO.P,U2,2,NEG(-)*%
%TO.N,Net-(J1-Pad3)*%
X143046902Y-316152382D03*
D22*
X165430100Y-322141226D03*
D17*
X149049831Y-326535091D03*
D18*
X155048188Y-328136821D03*
D20*
X144658942Y-322147976D03*
D21*
X161043783Y-326535091D03*
%TD*%
D23*
%TO.P,H2,1,1*%
%TO.N,unconnected-(H2-Pad1)*%
X175260000Y-199390000D03*
%TD*%
D10*
%TO.P,U3,*%
%TO.N,*%
X93980000Y-265430000D03*
D22*
%TO.P,U3,1,POS(+)*%
%TO.N,Net-(J1-Pad6)*%
X83792878Y-259403227D03*
D21*
X88145782Y-255057869D03*
D17*
X100027830Y-255057869D03*
D18*
X94088187Y-253460822D03*
D20*
X104376164Y-259409976D03*
D19*
X105962902Y-265352381D03*
D22*
%TO.P,U3,2,NEG(-)*%
%TO.N,Net-(J1-Pad5)*%
X104470100Y-271341226D03*
D21*
X100083783Y-275735091D03*
D20*
X83698942Y-271347976D03*
D19*
X82086902Y-265352382D03*
D17*
X88089831Y-275735091D03*
D18*
X94088188Y-277336821D03*
%TD*%
D23*
%TO.P,H3,1,1*%
%TO.N,unconnected-(H3-Pad1)*%
X73660000Y-331470000D03*
%TD*%
%TO.P,H1,1,1*%
%TO.N,unconnected-(H1-Pad1)*%
X73660000Y-199390000D03*
%TD*%
%TO.P,H4,1,1*%
%TO.N,unconnected-(H4-Pad1)*%
X175260000Y-331470000D03*
%TD*%
D24*
%TO.P,J1,1,Pin_1*%
%TO.N,Net-(J1-Pad1)*%
X108926800Y-290935000D03*
D25*
%TO.P,J1,2,Pin_2*%
%TO.N,Net-(J1-Pad2)*%
X108926800Y-288395000D03*
%TO.P,J1,3,Pin_3*%
%TO.N,Net-(J1-Pad3)*%
X106386800Y-290935000D03*
%TO.P,J1,4,Pin_4*%
%TO.N,Net-(J1-Pad4)*%
X106386800Y-288395000D03*
%TO.P,J1,5,Pin_5*%
%TO.N,Net-(J1-Pad5)*%
X103846800Y-290935000D03*
%TO.P,J1,6,Pin_6*%
%TO.N,Net-(J1-Pad6)*%
X103846800Y-288395000D03*
%TO.P,J1,7,Pin_7*%
%TO.N,Net-(J1-Pad7)*%
X101306800Y-290935000D03*
%TO.P,J1,8,Pin_8*%
%TO.N,Net-(J1-Pad8)*%
X101306800Y-288395000D03*
%TO.P,J1,9,Pin_9*%
%TO.N,Net-(J1-Pad9)*%
X98766800Y-290935000D03*
%TO.P,J1,10,Pin_10*%
%TO.N,Net-(J1-Pad10)*%
X98766800Y-288395000D03*
%TO.P,J1,11,Pin_11*%
%TO.N,Net-(J1-Pad11)*%
X96226800Y-290935000D03*
%TO.P,J1,12,Pin_12*%
%TO.N,Net-(J1-Pad12)*%
X96226800Y-288395000D03*
%TO.P,J1,13,Pin_13*%
%TO.N,unconnected-(J1-Pad13)*%
X93686800Y-290935000D03*
%TO.P,J1,14,Pin_14*%
%TO.N,unconnected-(J1-Pad14)*%
X93686800Y-288395000D03*
%TO.P,J1,15,Pin_15*%
%TO.N,unconnected-(J1-Pad15)*%
X91146800Y-290935000D03*
%TO.P,J1,16,Pin_16*%
%TO.N,unconnected-(J1-Pad16)*%
X91146800Y-288395000D03*
%TD*%
D26*
%TO.N,Net-(J1-Pad3)*%
X137160000Y-294640000D03*
%TO.N,Net-(J1-Pad8)*%
X134620000Y-285750000D03*
%TO.N,Net-(J1-Pad7)*%
X154940000Y-293370000D03*
%TO.N,Net-(J1-Pad10)*%
X114300000Y-284480000D03*
%TO.N,Net-(J1-Pad9)*%
X77470000Y-294640000D03*
%TO.N,Net-(J1-Pad12)*%
X168910000Y-283210000D03*
%TO.N,Net-(J1-Pad11)*%
X82550000Y-237490000D03*
X78740000Y-293370000D03*
%TO.N,Net-(J1-Pad2)*%
X110490000Y-309880000D03*
%TO.N,Net-(J1-Pad4)*%
X146050000Y-287020000D03*
%TD*%
D27*
%TO.N,Net-(J1-Pad3)*%
X142939059Y-322209587D02*
X142959328Y-322229856D01*
X140970000Y-298450000D02*
X140970000Y-314075480D01*
X154813774Y-328179010D02*
X160725601Y-328179010D01*
X144525797Y-322229856D02*
X148874131Y-326578190D01*
X142959328Y-322229856D02*
X144525797Y-322229856D01*
X160725601Y-328179010D02*
X160756179Y-328148432D01*
X153216727Y-326581963D02*
X154813774Y-328179010D01*
X137160000Y-294640000D02*
X140970000Y-298450000D01*
X140970000Y-314075480D02*
X143046902Y-316152382D01*
X165101537Y-322236605D02*
X165109083Y-322236605D01*
X148874131Y-326581963D02*
X153216727Y-326581963D01*
X142939059Y-316287451D02*
X142939059Y-322209587D01*
X160756179Y-328148432D02*
X160756179Y-326581963D01*
X148874131Y-326578190D02*
X148874131Y-326581963D01*
X160756179Y-326581963D02*
X165101537Y-322236605D01*
%TO.N,Net-(J1-Pad6)*%
X107950000Y-267339479D02*
X105962902Y-265352381D01*
X99919987Y-255090905D02*
X95577391Y-255090905D01*
X105855059Y-259463281D02*
X105834790Y-259443012D01*
X99919987Y-255094678D02*
X99919987Y-255090905D01*
X83685035Y-259436263D02*
X88030393Y-255090905D01*
X105834790Y-259443012D02*
X104268321Y-259443012D01*
X93980344Y-253493858D02*
X88068517Y-253493858D01*
X95577391Y-255090905D02*
X93980344Y-253493858D01*
X105855059Y-265385417D02*
X105855059Y-259463281D01*
X103846800Y-288395000D02*
X107950000Y-284291800D01*
X107950000Y-284291800D02*
X107950000Y-267339479D01*
X88030393Y-255090905D02*
X88037939Y-255090905D01*
X88068517Y-253493858D02*
X88037939Y-253524436D01*
X88037939Y-253524436D02*
X88037939Y-255090905D01*
X104268321Y-259443012D02*
X99919987Y-255094678D01*
%TO.N,Net-(J1-Pad5)*%
X83591099Y-271381012D02*
X87978214Y-275768127D01*
X103846800Y-290935000D02*
X102488800Y-292293000D01*
X87978214Y-275768127D02*
X87981988Y-275768127D01*
X102488800Y-292293000D02*
X90584297Y-292293000D01*
X103846800Y-271729734D02*
X104149083Y-271427451D01*
X88089831Y-289798534D02*
X88089831Y-275735091D01*
X93980345Y-277369857D02*
X99940679Y-277369857D01*
X99940679Y-277369857D02*
X99975940Y-277334596D01*
X90584297Y-292293000D02*
X88089831Y-289798534D01*
X99975940Y-277334596D02*
X99975940Y-275768127D01*
X82024630Y-271381012D02*
X83591099Y-271381012D01*
X81979059Y-271335441D02*
X82024630Y-271381012D01*
X92378615Y-275768127D02*
X93980345Y-277369857D01*
X87981988Y-275768127D02*
X92378615Y-275768127D01*
X81979059Y-265385418D02*
X81979059Y-271335441D01*
X104362257Y-271381810D02*
X104362257Y-271374262D01*
X99975940Y-275768127D02*
X104362257Y-271381810D01*
%TO.N,Net-(J1-Pad8)*%
X166815059Y-265385417D02*
X166815059Y-259463281D01*
X148997939Y-255090905D02*
X144652581Y-259436263D01*
X134620000Y-285750000D02*
X134620000Y-269536105D01*
X149028517Y-253493858D02*
X148997939Y-253524436D01*
X160879987Y-255094678D02*
X160879987Y-255090905D01*
X148997939Y-253524436D02*
X148997939Y-255090905D01*
X165228321Y-259443012D02*
X160879987Y-255094678D01*
X154940344Y-253493858D02*
X160849409Y-253493858D01*
X154940344Y-253493858D02*
X149028517Y-253493858D01*
X160849409Y-253493858D02*
X160879987Y-253524436D01*
X160879987Y-253524436D02*
X160879987Y-255090905D01*
X144652581Y-259436263D02*
X144645035Y-259436263D01*
X144445808Y-259237036D02*
X144645035Y-259436263D01*
X134620000Y-269536105D02*
X144752878Y-259403227D01*
X166794790Y-259443012D02*
X165228321Y-259443012D01*
X166815059Y-259463281D02*
X166794790Y-259443012D01*
%TO.N,Net-(J1-Pad7)*%
X160935940Y-275760579D02*
X160935940Y-275768127D01*
X155048188Y-293261812D02*
X155048188Y-277336821D01*
X146803034Y-275768127D02*
X148941988Y-275768127D01*
X144551099Y-273519966D02*
X146799260Y-275768127D01*
X148941988Y-275768127D02*
X153338615Y-275768127D01*
X144551099Y-271381012D02*
X144551099Y-273519966D01*
X154940000Y-293370000D02*
X155048188Y-293261812D01*
X154940345Y-277369857D02*
X160900679Y-277369857D01*
X160935940Y-277334596D02*
X160935940Y-275768127D01*
X153338615Y-275768127D02*
X154940345Y-277369857D01*
X142984630Y-271381012D02*
X144551099Y-271381012D01*
X146799260Y-275768127D02*
X146803034Y-275768127D01*
X142939059Y-265385418D02*
X142939059Y-271335441D01*
X160900679Y-277369857D02*
X160935940Y-277334596D01*
X165322257Y-271374262D02*
X160935940Y-275760579D01*
X142939059Y-271335441D02*
X142984630Y-271381012D01*
%TO.N,Net-(J1-Pad10)*%
X114300000Y-284480000D02*
X114300000Y-227625501D01*
X114300000Y-227625501D02*
X105301662Y-218627163D01*
X105572167Y-208110632D02*
X104009514Y-208219904D01*
X99371624Y-204188247D02*
X99371098Y-204180720D01*
X106017192Y-214036429D02*
X105604804Y-208139003D01*
X104535440Y-215740990D02*
X106017192Y-214036429D01*
X104009514Y-208219904D02*
X99371624Y-204188247D01*
X95324888Y-227008983D02*
X94982938Y-226711731D01*
X100890648Y-226298623D02*
X100909454Y-226276990D01*
X94982938Y-226711731D02*
X100890648Y-226298623D01*
X105604804Y-208139003D02*
X105572167Y-208110632D01*
X104834600Y-220073271D02*
X104838364Y-220073007D01*
X100800183Y-224714337D02*
X104834600Y-220073271D01*
X100909454Y-226276990D02*
X100800183Y-224714337D01*
X104838364Y-220073007D02*
X104535440Y-215740990D01*
%TO.N,Net-(J1-Pad9)*%
X88897020Y-225640852D02*
X88904549Y-225640326D01*
X85315149Y-205069442D02*
X83229289Y-207468950D01*
X87448893Y-204920236D02*
X85315149Y-205069442D01*
X82652760Y-221680466D02*
X84215414Y-221571194D01*
X92602735Y-202272615D02*
X93317432Y-202893892D01*
X82199354Y-215701935D02*
X81783389Y-209753365D01*
X83229289Y-207468950D02*
X83229552Y-207472715D01*
X82615126Y-221647750D02*
X82652760Y-221680466D01*
X82199354Y-215701935D02*
X82615126Y-221647750D01*
X77470000Y-230087825D02*
X85001175Y-222556650D01*
X87339622Y-203357583D02*
X87448893Y-204920236D01*
X87381903Y-203308944D02*
X87339622Y-203357583D01*
X81816105Y-209715730D02*
X83378758Y-209606459D01*
X77470000Y-294640000D02*
X77470000Y-230087825D01*
X81783389Y-209753365D02*
X81816105Y-209715730D01*
X93317432Y-202893892D02*
X87381903Y-203308944D01*
X84215414Y-221571194D02*
X88897020Y-225640852D01*
X83229552Y-207472715D02*
X83378758Y-209606459D01*
%TO.N,Net-(J1-Pad12)*%
X165752839Y-219928399D02*
X165756603Y-219928136D01*
X166935431Y-213891557D02*
X166523043Y-207994131D01*
X166490406Y-207965761D02*
X164927753Y-208075032D01*
X161827693Y-226132118D02*
X161718422Y-224569465D01*
X168910000Y-283210000D02*
X168910000Y-229822539D01*
X160289864Y-204043376D02*
X160289337Y-204035848D01*
X165453679Y-215596118D02*
X166935431Y-213891557D01*
X164927753Y-208075032D02*
X160289864Y-204043376D01*
X161718422Y-224569465D02*
X165752839Y-219928399D01*
X165756603Y-219928136D02*
X165453679Y-215596118D01*
X166523043Y-207994131D02*
X166490406Y-207965761D01*
X161808888Y-226153752D02*
X161827693Y-226132118D01*
X168910000Y-229822539D02*
X162801440Y-223713979D01*
X155901178Y-226566859D02*
X161808888Y-226153752D01*
%TO.N,Net-(J1-Pad11)*%
X154235671Y-202749020D02*
X148300142Y-203164073D01*
X78740000Y-293370000D02*
X78740000Y-241300000D01*
X149815259Y-225495981D02*
X149822789Y-225495454D01*
X143117593Y-215557064D02*
X143533365Y-221502879D01*
X144296997Y-209461587D02*
X148367396Y-204779129D01*
X143571000Y-221535594D02*
X145133653Y-221426323D01*
X148367396Y-204779129D02*
X148367132Y-204775365D01*
X148300142Y-203164073D02*
X148257861Y-203212711D01*
X78740000Y-241300000D02*
X82550000Y-237490000D01*
X145133653Y-221426323D02*
X149815259Y-225495981D01*
X144296997Y-209461587D02*
X144603690Y-213847504D01*
X148257861Y-203212711D02*
X148367132Y-204775365D01*
X143533365Y-221502879D02*
X143571000Y-221535594D01*
X144603690Y-213847504D02*
X143117593Y-215557064D01*
%TO.N,Net-(J1-Pad1)*%
X81999328Y-322220702D02*
X83565797Y-322220702D01*
X87914131Y-326572809D02*
X92256727Y-326572809D01*
X104141537Y-322227451D02*
X104149083Y-322227451D01*
X81979059Y-316278297D02*
X81979059Y-322200433D01*
X87914131Y-326569036D02*
X87914131Y-326572809D01*
X83565797Y-322220702D02*
X87914131Y-326569036D01*
X95450821Y-326572809D02*
X93853774Y-328169856D01*
X99796179Y-326572809D02*
X104141537Y-322227451D01*
X108926800Y-317684526D02*
X104470100Y-322141226D01*
X99796179Y-326572809D02*
X95450821Y-326572809D01*
X92256727Y-326572809D02*
X93853774Y-328169856D01*
X81979059Y-322200433D02*
X81999328Y-322220702D01*
X108926800Y-290935000D02*
X108926800Y-317684526D01*
%TO.N,Net-(J1-Pad2)*%
X110490000Y-289958200D02*
X110490000Y-309880000D01*
X83471861Y-310281904D02*
X83471861Y-310289452D01*
X105809488Y-310282702D02*
X104243019Y-310282702D01*
X99852130Y-305895587D02*
X95455503Y-305895587D01*
X105855059Y-316278296D02*
X105855059Y-310328273D01*
X108926800Y-288395000D02*
X110490000Y-289958200D01*
X105855059Y-310328273D02*
X105809488Y-310282702D01*
X87893439Y-304293857D02*
X87858178Y-304329118D01*
X95455503Y-305895587D02*
X93853773Y-304293857D01*
X87858178Y-304329118D02*
X87858178Y-305895587D01*
X93853773Y-304293857D02*
X87893439Y-304293857D01*
X104243019Y-310282702D02*
X99855904Y-305895587D01*
X87858178Y-305895587D02*
X83471861Y-310281904D01*
X99855904Y-305895587D02*
X99852130Y-305895587D01*
%TO.N,Net-(J1-Pad4)*%
X160815904Y-305904741D02*
X160812130Y-305904741D01*
X166769488Y-310291856D02*
X165203019Y-310291856D01*
X148818178Y-304338272D02*
X148818178Y-305904741D01*
X148818178Y-305904741D02*
X144431861Y-310291058D01*
X154813773Y-304303011D02*
X148853439Y-304303011D01*
X156415503Y-305904741D02*
X154813773Y-304303011D01*
X149105782Y-290075782D02*
X149105782Y-305857869D01*
X160812130Y-305904741D02*
X156415503Y-305904741D01*
X165203019Y-310291856D02*
X160815904Y-305904741D01*
X166815059Y-310337427D02*
X166769488Y-310291856D01*
X166815059Y-316287450D02*
X166815059Y-310337427D01*
X148853439Y-304303011D02*
X148818178Y-304338272D01*
X144431861Y-310291058D02*
X144431861Y-310298606D01*
X146050000Y-287020000D02*
X149105782Y-290075782D01*
%TD*%
M02*
