%TF.GenerationSoftware,KiCad,Pcbnew,(6.0.10)*%
%TF.CreationDate,2023-09-13T10:46:53-04:00*%
%TF.ProjectId,min-evolver,6d696e2d-6576-46f6-9c76-65722e6b6963,rev?*%
%TF.SameCoordinates,Original*%
%TF.FileFunction,Soldermask,Bot*%
%TF.FilePolarity,Negative*%
%FSLAX46Y46*%
G04 Gerber Fmt 4.6, Leading zero omitted, Abs format (unit mm)*
G04 Created by KiCad (PCBNEW (6.0.10)) date 2023-09-13 10:46:53*
%MOMM*%
%LPD*%
G01*
G04 APERTURE LIST*
%ADD10C,4.500000*%
%ADD11C,1.000000*%
%ADD12C,1.800000*%
%ADD13C,1.524000*%
%ADD14C,5.600000*%
%ADD15C,1.397000*%
%ADD16C,1.750000*%
G04 APERTURE END LIST*
D10*
%TO.C,CON1*%
X114046000Y-59896000D03*
X114046000Y-53896000D03*
X109346000Y-56896000D03*
%TD*%
D11*
%TO.C,C15*%
X151180800Y-58465400D03*
X151180800Y-60965400D03*
%TD*%
D12*
%TO.C,JP1*%
X198704200Y-81280000D03*
X196164200Y-81280000D03*
X193624200Y-81280000D03*
%TD*%
D13*
%TO.C,P4*%
X142494000Y-62230000D03*
X142494000Y-64770000D03*
X139954000Y-62230000D03*
X139954000Y-64770000D03*
X137414000Y-62230000D03*
X137414000Y-64770000D03*
X134874000Y-62230000D03*
X134874000Y-64770000D03*
X132334000Y-62230000D03*
X132334000Y-64770000D03*
X129794000Y-62230000D03*
X129794000Y-64770000D03*
X127254000Y-62230000D03*
X127254000Y-64770000D03*
X124714000Y-62230000D03*
X124714000Y-64770000D03*
%TD*%
D14*
%TO.C,H1*%
X104013000Y-108585000D03*
%TD*%
%TO.C,H2*%
X104013000Y-51562000D03*
%TD*%
%TO.C,H4*%
X206375000Y-108585000D03*
%TD*%
%TO.C,H3*%
X206375000Y-51562000D03*
%TD*%
D15*
%TO.C,P1*%
X155321000Y-50927000D03*
X170561000Y-50927000D03*
X155321000Y-53467000D03*
X170561000Y-53467000D03*
X155321000Y-56007000D03*
X170561000Y-56007000D03*
X155321000Y-58547000D03*
X170561000Y-58547000D03*
X155321000Y-61087000D03*
X170561000Y-61087000D03*
X155321000Y-63627000D03*
X170561000Y-63627000D03*
X155321000Y-66167000D03*
X170561000Y-66167000D03*
X155321000Y-68707000D03*
X170561000Y-68707000D03*
X155321000Y-71247000D03*
X170561000Y-71247000D03*
X155321000Y-73787000D03*
X170561000Y-73787000D03*
X155321000Y-76327000D03*
X170561000Y-76327000D03*
X155321000Y-78867000D03*
X170561000Y-78867000D03*
%TD*%
D12*
%TO.C,JP2*%
X189814200Y-81280000D03*
X187274200Y-81280000D03*
X184734200Y-81280000D03*
%TD*%
D16*
%TO.C,P7*%
X103505000Y-61595000D03*
X103505000Y-64135000D03*
%TD*%
D13*
%TO.C,P2*%
X134924800Y-107950000D03*
X134924800Y-105410000D03*
X132384800Y-107950000D03*
X132384800Y-105410000D03*
X129844800Y-107950000D03*
X129844800Y-105410000D03*
X127304800Y-107950000D03*
X127304800Y-105410000D03*
X124764800Y-107950000D03*
X124764800Y-105410000D03*
X122224800Y-107950000D03*
X122224800Y-105410000D03*
X119684800Y-107950000D03*
X119684800Y-105410000D03*
X117144800Y-107950000D03*
X117144800Y-105410000D03*
%TD*%
%TO.C,P3*%
X193243200Y-107950000D03*
X193243200Y-105410000D03*
X190703200Y-107950000D03*
X190703200Y-105410000D03*
X188163200Y-107950000D03*
X188163200Y-105410000D03*
X185623200Y-107950000D03*
X185623200Y-105410000D03*
X183083200Y-107950000D03*
X183083200Y-105410000D03*
X180543200Y-107950000D03*
X180543200Y-105410000D03*
X178003200Y-107950000D03*
X178003200Y-105410000D03*
X175463200Y-107950000D03*
X175463200Y-105410000D03*
%TD*%
M02*
