%TF.GenerationSoftware,KiCad,Pcbnew,(6.0.10)*%
%TF.CreationDate,2023-09-13T10:46:53-04:00*%
%TF.ProjectId,min-evolver,6d696e2d-6576-46f6-9c76-65722e6b6963,rev?*%
%TF.SameCoordinates,Original*%
%TF.FileFunction,Paste,Top*%
%TF.FilePolarity,Positive*%
%FSLAX46Y46*%
G04 Gerber Fmt 4.6, Leading zero omitted, Abs format (unit mm)*
G04 Created by KiCad (PCBNEW (6.0.10)) date 2023-09-13 10:46:53*
%MOMM*%
%LPD*%
G01*
G04 APERTURE LIST*
G04 Aperture macros list*
%AMRoundRect*
0 Rectangle with rounded corners*
0 $1 Rounding radius*
0 $2 $3 $4 $5 $6 $7 $8 $9 X,Y pos of 4 corners*
0 Add a 4 corners polygon primitive as box body*
4,1,4,$2,$3,$4,$5,$6,$7,$8,$9,$2,$3,0*
0 Add four circle primitives for the rounded corners*
1,1,$1+$1,$2,$3*
1,1,$1+$1,$4,$5*
1,1,$1+$1,$6,$7*
1,1,$1+$1,$8,$9*
0 Add four rect primitives between the rounded corners*
20,1,$1+$1,$2,$3,$4,$5,0*
20,1,$1+$1,$4,$5,$6,$7,0*
20,1,$1+$1,$6,$7,$8,$9,0*
20,1,$1+$1,$8,$9,$2,$3,0*%
G04 Aperture macros list end*
%ADD10R,0.800000X0.900000*%
%ADD11RoundRect,0.225000X-0.250000X0.225000X-0.250000X-0.225000X0.250000X-0.225000X0.250000X0.225000X0*%
%ADD12RoundRect,0.225000X0.250000X-0.225000X0.250000X0.225000X-0.250000X0.225000X-0.250000X-0.225000X0*%
%ADD13RoundRect,0.225000X0.225000X0.250000X-0.225000X0.250000X-0.225000X-0.250000X0.225000X-0.250000X0*%
%ADD14RoundRect,0.200000X-0.275000X0.200000X-0.275000X-0.200000X0.275000X-0.200000X0.275000X0.200000X0*%
%ADD15RoundRect,0.200000X0.275000X-0.200000X0.275000X0.200000X-0.275000X0.200000X-0.275000X-0.200000X0*%
%ADD16R,2.800000X1.500000*%
%ADD17R,6.100000X6.300000*%
%ADD18R,2.000000X1.500000*%
%ADD19R,2.000000X3.800000*%
%ADD20RoundRect,0.225000X-0.225000X-0.250000X0.225000X-0.250000X0.225000X0.250000X-0.225000X0.250000X0*%
%ADD21R,0.450000X1.450000*%
G04 APERTURE END LIST*
D10*
%TO.C,D10*%
X125476000Y-72128000D03*
X124126000Y-70128000D03*
X126826000Y-70128000D03*
%TD*%
%TO.C,D9*%
X123494800Y-100600000D03*
X124844800Y-102600000D03*
X122144800Y-102600000D03*
%TD*%
%TO.C,D8*%
X187020200Y-100600000D03*
X188370200Y-102600000D03*
X185670200Y-102600000D03*
%TD*%
%TO.C,D7*%
X129794000Y-72128000D03*
X128444000Y-70128000D03*
X131144000Y-70128000D03*
%TD*%
%TO.C,D6*%
X128574800Y-100600000D03*
X129924800Y-102600000D03*
X127224800Y-102600000D03*
%TD*%
%TO.C,D4*%
X191338200Y-100600000D03*
X192688200Y-102600000D03*
X189988200Y-102600000D03*
%TD*%
%TO.C,D3*%
X138430000Y-72128000D03*
X137080000Y-70128000D03*
X139780000Y-70128000D03*
%TD*%
%TO.C,D2*%
X142748000Y-72128000D03*
X141398000Y-70128000D03*
X144098000Y-70128000D03*
%TD*%
%TO.C,D1*%
X133654800Y-100600000D03*
X135004800Y-102600000D03*
X132304800Y-102600000D03*
%TD*%
D11*
%TO.C,C14*%
X134264400Y-50787000D03*
X134264400Y-52337000D03*
%TD*%
%TO.C,C7*%
X183718200Y-87363000D03*
X183718200Y-88913000D03*
%TD*%
%TO.C,C6*%
X198450200Y-87363000D03*
X198450200Y-88913000D03*
%TD*%
D12*
%TO.C,C5*%
X118059200Y-75078000D03*
X118059200Y-73528000D03*
%TD*%
D11*
%TO.C,C3*%
X198450200Y-92062000D03*
X198450200Y-93612000D03*
%TD*%
D13*
%TO.C,C1*%
X192621200Y-96901000D03*
X191071200Y-96901000D03*
%TD*%
D10*
%TO.C,Q4*%
X197260200Y-100600000D03*
X194560200Y-100600000D03*
X195910200Y-102600000D03*
%TD*%
%TO.C,D12*%
X121158000Y-72128000D03*
X119808000Y-70128000D03*
X122508000Y-70128000D03*
%TD*%
%TO.C,Q3*%
X137080000Y-78224000D03*
X139780000Y-78224000D03*
X138430000Y-76224000D03*
%TD*%
%TO.C,Q2*%
X141398000Y-78224000D03*
X144098000Y-78224000D03*
X142748000Y-76224000D03*
%TD*%
%TO.C,Q1*%
X134750800Y-95012000D03*
X132050800Y-95012000D03*
X133400800Y-97012000D03*
%TD*%
%TO.C,D11*%
X173812200Y-100600000D03*
X175162200Y-102600000D03*
X172462200Y-102600000D03*
%TD*%
%TO.C,Q6*%
X129924800Y-95012000D03*
X127224800Y-95012000D03*
X128574800Y-97012000D03*
%TD*%
%TO.C,Q5*%
X132762000Y-78224000D03*
X135462000Y-78224000D03*
X134112000Y-76224000D03*
%TD*%
D14*
%TO.C,R13*%
X196672200Y-87313000D03*
X196672200Y-88963000D03*
%TD*%
%TO.C,R10*%
X196672200Y-92012000D03*
X196672200Y-93662000D03*
%TD*%
%TO.C,R9*%
X185394600Y-92139000D03*
X185394600Y-93789000D03*
%TD*%
D15*
%TO.C,R6*%
X183972200Y-85153000D03*
X183972200Y-83503000D03*
%TD*%
%TO.C,R5*%
X194386200Y-85153000D03*
X194386200Y-83503000D03*
%TD*%
D14*
%TO.C,R4*%
X189306200Y-83503000D03*
X189306200Y-85153000D03*
%TD*%
%TO.C,R2*%
X194767200Y-95187000D03*
X194767200Y-96837000D03*
%TD*%
%TO.C,R1*%
X187274200Y-95441000D03*
X187274200Y-97091000D03*
%TD*%
D10*
%TO.C,Q12*%
X119808000Y-78224000D03*
X122508000Y-78224000D03*
X121158000Y-76224000D03*
%TD*%
%TO.C,Q9*%
X124844800Y-95012000D03*
X122144800Y-95012000D03*
X123494800Y-97012000D03*
%TD*%
%TO.C,Q7*%
X128444000Y-78224000D03*
X131144000Y-78224000D03*
X129794000Y-76224000D03*
%TD*%
D16*
%TO.C,U4*%
X131345000Y-56489600D03*
X131345000Y-51917600D03*
D17*
X125095000Y-54203600D03*
%TD*%
D18*
%TO.C,U3*%
X144315600Y-56529000D03*
X144315600Y-54229000D03*
D19*
X138015600Y-54229000D03*
D18*
X144315600Y-51929000D03*
%TD*%
D11*
%TO.C,C13*%
X147193000Y-51041000D03*
X147193000Y-52591000D03*
%TD*%
D12*
%TO.C,C11*%
X147193000Y-57417000D03*
X147193000Y-55867000D03*
%TD*%
%TO.C,C10*%
X134239000Y-57671000D03*
X134239000Y-56121000D03*
%TD*%
D15*
%TO.C,R7*%
X187274200Y-93789000D03*
X187274200Y-92139000D03*
%TD*%
D14*
%TO.C,R3*%
X197942200Y-83503000D03*
X197942200Y-85153000D03*
%TD*%
D12*
%TO.C,C8*%
X116323532Y-75078000D03*
X116323532Y-73528000D03*
%TD*%
D20*
%TO.C,C2*%
X191071200Y-95123000D03*
X192621200Y-95123000D03*
%TD*%
D11*
%TO.C,C4*%
X183616600Y-92189000D03*
X183616600Y-93739000D03*
%TD*%
D14*
%TO.C,R14*%
X185496200Y-87313000D03*
X185496200Y-88963000D03*
%TD*%
%TO.C,R11*%
X187274200Y-87313000D03*
X187274200Y-88963000D03*
%TD*%
%TO.C,R12*%
X194894200Y-87313000D03*
X194894200Y-88963000D03*
%TD*%
D12*
%TO.C,C16*%
X199720200Y-85103000D03*
X199720200Y-83553000D03*
%TD*%
%TO.C,C18*%
X192735200Y-85103000D03*
X192735200Y-83553000D03*
%TD*%
D10*
%TO.C,D5*%
X134112000Y-72128000D03*
X132762000Y-70128000D03*
X135462000Y-70128000D03*
%TD*%
%TO.C,Q11*%
X179480200Y-100600000D03*
X176780200Y-100600000D03*
X178130200Y-102600000D03*
%TD*%
%TO.C,Q8*%
X184052200Y-100600000D03*
X181352200Y-100600000D03*
X182702200Y-102600000D03*
%TD*%
D12*
%TO.C,C19*%
X185750200Y-85103000D03*
X185750200Y-83553000D03*
%TD*%
D10*
%TO.C,Q10*%
X124126000Y-78224000D03*
X126826000Y-78224000D03*
X125476000Y-76224000D03*
%TD*%
D11*
%TO.C,C9*%
X142849600Y-82283000D03*
X142849600Y-83833000D03*
%TD*%
%TO.C,C12*%
X144780000Y-82283000D03*
X144780000Y-83833000D03*
%TD*%
D12*
%TO.C,C17*%
X191084200Y-85103000D03*
X191084200Y-83553000D03*
%TD*%
D21*
%TO.C,U1*%
X189134200Y-93120000D03*
X189784200Y-93120000D03*
X190434200Y-93120000D03*
X191084200Y-93120000D03*
X191734200Y-93120000D03*
X192384200Y-93120000D03*
X193034200Y-93120000D03*
X193034200Y-87220000D03*
X192384200Y-87220000D03*
X191734200Y-87220000D03*
X191084200Y-87220000D03*
X190434200Y-87220000D03*
X189784200Y-87220000D03*
X189134200Y-87220000D03*
%TD*%
D15*
%TO.C,R8*%
X194792600Y-93662000D03*
X194792600Y-92012000D03*
%TD*%
M02*
