M48
; DRILL file {KiCad (6.0.10)} date Wed Sep 13 10:46:55 2023
; FORMAT={-:-/ absolute / inch / decimal}
; #@! TF.CreationDate,2023-09-13T10:46:55-04:00
; #@! TF.GenerationSoftware,Kicad,Pcbnew,(6.0.10)
; #@! TF.FileFunction,Plated,1,4,PTH
FMAT,2
INCH
; #@! TA.AperFunction,Plated,PTH,ViaDrill
T1C0.0157
; #@! TA.AperFunction,Plated,PTH,ViaDrill
T2C0.0200
; #@! TA.AperFunction,Plated,PTH,ComponentDrill
T3C0.0236
; #@! TA.AperFunction,Plated,PTH,ViaDrill
T4C0.0300
; #@! TA.AperFunction,Plated,PTH,ComponentDrill
T5C0.0320
; #@! TA.AperFunction,Plated,PTH,ComponentDrill
T6C0.0394
; #@! TA.AperFunction,Plated,PTH,ComponentDrill
T7C0.0400
; #@! TA.AperFunction,Plated,PTH,ComponentDrill
T8C0.0512
; #@! TA.AperFunction,Plated,PTH,ComponentDrill
T9C0.1201
; #@! TA.AperFunction,Plated,PTH,ComponentDrill
T10C0.1260
%
G90
G05
T1
X4.7Y-3.5
X4.745Y-3.3
X4.77Y-2.9053
X4.8Y-3.55
X4.808Y-3.68
X4.91Y-3.27
X4.94Y-2.9103
X4.95Y-3.475
X5.008Y-3.68
X5.06Y-4.019
X5.08Y-3.24
X5.11Y-2.9103
X5.125Y-3.625
X5.2Y-3.68
X5.2293Y-3.2051
X5.262Y-4.006
X5.28Y-2.9103
X5.35Y-3.675
X5.3969Y-3.1569
X5.45Y-2.9103
X5.57Y-3.03
X5.62Y-2.9103
X5.6817Y-1.978
X5.975Y-3.45
X6.025Y-2.625
X6.075Y-3.6
X6.175Y-3.8
X6.25Y-3.95
X6.55Y-4.175
X6.6Y-3.75
X6.6215Y-3.21
X6.65Y-3.675
X6.8Y-3.475
X6.803Y-4.14
X6.843Y-3.895
X6.85Y-3.525
X6.875Y-3.1
X6.9Y-3.15
X6.95Y-3.28
X6.961Y-3.898
X7.0Y-2.725
X7.05Y-3.55
X7.067Y-3.833
X7.075Y-2.425
X7.075Y-3.4
X7.11Y-3.2
X7.125Y-2.825
X7.139Y-3.898
X7.15Y-3.825
X7.175Y-3.45
X7.175Y-3.575
X7.1785Y-3.391
X7.2159Y-3.9909
X7.2234Y-4.0987
X7.228Y-3.74
X7.243Y-3.5682
X7.293Y-3.752
X7.323Y-3.795
X7.363Y-4.012
X7.373Y-3.895
X7.468Y-3.79
X7.523Y-3.492
X7.533Y-4.012
X7.536Y-3.598
X7.553Y-3.22
X7.628Y-3.72
X7.659Y-3.902
X7.6949Y-3.3003
X7.728Y-3.7818
X7.75Y-3.375
X7.75Y-3.875
X7.813Y-3.75
X7.863Y-3.41
X7.863Y-3.485
X7.893Y-3.24
X7.95Y-2.55
X8.0Y-3.275
X8.05Y-2.65
T2
X4.616Y-2.8283
X4.616Y-3.0223
X4.83Y-3.0303
X4.862Y-3.893
X5.0Y-3.0303
X5.17Y-3.0303
X5.285Y-2.14
X5.34Y-3.0303
X5.51Y-3.0303
X5.66Y-3.364
X5.68Y-3.0603
X5.6922Y-3.1871
X5.795Y-2.14
X7.383Y-3.3
X7.551Y-3.8967
T3
X5.952Y-2.3018
X5.952Y-2.4002
T4
X4.725Y-1.99
X4.725Y-2.14
X4.725Y-2.3
X5.205Y-1.97
X5.225Y-2.2867
X5.435Y-2.0
X5.435Y-2.28
X5.555Y-2.0
X5.555Y-2.14
X5.555Y-2.28
X5.685Y-2.2867
T5
X6.115Y-2.005
X6.115Y-2.105
X6.115Y-2.205
X6.115Y-2.305
X6.115Y-2.405
X6.115Y-2.505
X6.115Y-2.605
X6.115Y-2.705
X6.115Y-2.805
X6.115Y-2.905
X6.115Y-3.005
X6.115Y-3.105
X6.715Y-2.005
X6.715Y-2.105
X6.715Y-2.205
X6.715Y-2.305
X6.715Y-2.405
X6.715Y-2.505
X6.715Y-2.605
X6.715Y-2.705
X6.715Y-2.805
X6.715Y-2.905
X6.715Y-3.005
X6.715Y-3.105
T6
X7.273Y-3.2
X7.373Y-3.2
X7.473Y-3.2
X7.623Y-3.2
X7.723Y-3.2
X7.823Y-3.2
T7
X4.612Y-4.15
X4.612Y-4.25
X4.712Y-4.15
X4.712Y-4.25
X4.812Y-4.15
X4.812Y-4.25
X4.91Y-2.45
X4.91Y-2.55
X4.912Y-4.15
X4.912Y-4.25
X5.01Y-2.45
X5.01Y-2.55
X5.012Y-4.15
X5.012Y-4.25
X5.11Y-2.45
X5.11Y-2.55
X5.112Y-4.15
X5.112Y-4.25
X5.21Y-2.45
X5.21Y-2.55
X5.212Y-4.15
X5.212Y-4.25
X5.31Y-2.45
X5.31Y-2.55
X5.312Y-4.15
X5.312Y-4.25
X5.41Y-2.45
X5.41Y-2.55
X5.51Y-2.45
X5.51Y-2.55
X5.61Y-2.45
X5.61Y-2.55
X6.908Y-4.15
X6.908Y-4.25
X7.008Y-4.15
X7.008Y-4.25
X7.108Y-4.15
X7.108Y-4.25
X7.208Y-4.15
X7.208Y-4.25
X7.308Y-4.15
X7.308Y-4.25
X7.408Y-4.15
X7.408Y-4.25
X7.508Y-4.15
X7.508Y-4.25
X7.608Y-4.15
X7.608Y-4.25
T8
X4.075Y-2.425
X4.075Y-2.525
T9
X4.305Y-2.24
X4.49Y-2.1219
X4.49Y-2.3581
T10
X4.095Y-2.03
X4.095Y-4.275
X8.125Y-2.03
X8.125Y-4.275
T0
M30
